<svg xmlns="http://www.w3.org/2000/svg" width="89pt" height="37pt" viewBox="0 0 89 37"><g><path d="M55.008 19.191c.832.191 1.367-1.719 1.863-2.707.633-1.254 1.203-1.91 1.75-2.605.59-.754 1.637-1.633 2.559-2.168 1.09-.629 2.539-1.176 2.223-1.824-1.418-2.914-5.266.633-6.617 2.184-1.246 1.43-5.07 6.355-1.777 7.121zm15.227-3.523c-1.66.051-2.801 1.285-2.672 2.824.141 1.641 1.145 2.355 2.738 2.32 1.461-.035 2.641-1.238 2.48-2.617-.18-1.527-1.109-2.391-2.547-2.527zm10.762 4.754c-.773 4.48-1.168 5.559-4.359 7.836-.426.215-1.199.844-1.66 1.297-.621.609-.68 2.625.047 4.215.465 1.285-.316 2.418-1.195 2.645-1.457.281-3.621.281-4.609.074-1.098-.156-1.406-1.297-.867-2.832.301-1.285-.102-3.012-1.273-3.145-1.078-.121-3.293-.051-3.988-.086-1.535-.082-1.977 1.984-1.477 3.41.41 1.168-.004 2.457-.715 2.543-1.266.316-3.543.262-4.641.047-.711-.137-1.504-1.227-1.035-2.766.391-1.375 1.035-3.012-.547-4.555-2.484-2.418-3.219-3.301-4.082-7.137-.215-.969-.066-2.781-.242-2.801-.172-.02-.57 4.27-3.078 4.078-2.836-.219-2.668-6.898-1.238-6.773 1.145.098.871 4.102 1.395 4.043.32.059.617-4.992 2.945-3.938.219-.734.375-1.492.676-2.191.277-.648.16-.48.434-1.027 2.488.121 6.336-1.547 6.406-6.82 3.004-1.051 4.43-1.211 7.563-.551.969.363 1.758.492 2.195-.527.563-1.32 2.375-5.098 5.066-5.09.711-.168.855 2.957.836 3.66-.035 1.461-.004 2.926-.066 4.383-.039.895-.359 1.543.262 2.219 1.578 2.164 2.348 4.313 2.613 7 .168 1.664.398 1.664 2.18 1.664 1.496.004 2.703-.289 2.457 1.125zm0 0" fill="rgb(23.921569%,55.686275%,55.686275%)"/><path d="M56.809 8.441c.508-2.656-.785-5.633-3.641-6.32-2.695-.645-5.441.797-6.336 3.328-1.219 3.434 1.371 6.789 5.102 6.898 1.309.039 4.363-1.223 4.875-3.906zm0 0" fill="rgb(92.941176%,75.294118%,40%)"/><path d="M52.121 3.723c-.613 0-1.066.164-1.352.488-.289.316-.43.773-.43 1.363v5.02h.816v-2.531h1.758v-.691h-1.758v-.691h1.758v-.691h-1.758v-.395c0-.355.074-.637.227-.844.152-.211.418-.32.801-.32.188 0 .344.02.473.055l.301.098.148-.707c-.07-.031-.191-.063-.367-.098-.172-.035-.375-.055-.617-.055zm0 0" fill="rgb(24.705882%,24.705882%,24.705882%)"/><path d="M13.531 36.344c-.289-.227-1.648-1.313-3.023-2.418l-2.496-2.012v-.91c.004-1.695.875-20.32.969-20.609.098-.316.797-.695 1.281-.695.215 0 .629-.672 1.434-2.332 1.734-3.559 2.875-4.941 5.27-6.363l1.113-.664h2.77c2.711 0 2.789.012 3.781.516 2.457 1.25 3.707 2.766 4.938 5.992.609 1.594.84 1.992 1.527 2.609l.809.73.73 10.305c.672 9.445.711 10.332.453 10.598-.406.426-6.777 2.449-14.355 4.563-4.168 1.16-4.527 1.211-5.199.691zm6.043-24.379c4.309-.836 8.211-1.715 8.633-1.938.469-.25.375-.406-.527-.871-.75-.387-1.035-.426-2.934-.41-1.156.012-2.734.113-3.504.234-3.277.5-6.738 1.633-7.105 2.324-.305.57-.199 1.219.227 1.379.484.188.746.152 5.211-.719zm1.578-4.207c3-.488 5.5-.883 5.555-.883.203 0-.125-1.609-.461-2.273-.477-.938-1.949-2.227-2.934-2.566-1.836-.629-3.664-.227-5.199 1.152-1.648 1.48-3.27 3.941-3.27 4.965 0 .398.078.488.426.488.234 0 2.883-.398 5.883-.883zm0 0" fill="rgb(30.588235%,40%,62.352941%)"/></g></svg>