<?xml version="1.0" encoding="UTF-8" standalone="no"?>
<!-- Created with Inkscape (http://www.inkscape.org/) -->

<svg
   xmlns:dc="http://purl.org/dc/elements/1.1/"
   xmlns:cc="http://creativecommons.org/ns#"
   xmlns:rdf="http://www.w3.org/1999/02/22-rdf-syntax-ns#"
   xmlns:svg="http://www.w3.org/2000/svg"
   xmlns="http://www.w3.org/2000/svg"
   xmlns:xlink="http://www.w3.org/1999/xlink"
   xmlns:inkscape="http://www.inkscape.org/namespaces/inkscape"
   version="1.1"
   width="73"
   height="26"
   id="svg3054">
  <metadata
     id="metadata3060">
    <rdf:RDF>
      <cc:Work
         rdf:about="">
        <dc:format>image/svg+xml</dc:format>
        <dc:type
           rdf:resource="http://purl.org/dc/dcmitype/StillImage" />
        <dc:title />
      </cc:Work>
    </rdf:RDF>
  </metadata>
  <defs
     id="defs3058">
    <linearGradient
       id="linearGradient6671">
      <stop
         id="stop6673"
         style="stop-color:#3d8e8e;stop-opacity:0.65490198"
         offset="0" />
      <stop
         id="stop6679"
         style="stop-color:#3d8e8e;stop-opacity:0.65490198"
         offset="0.5" />
      <stop
         id="stop6675"
         style="stop-color:#3d8e8e;stop-opacity:0.65384614"
         offset="1" />
    </linearGradient>
    <linearGradient
       id="linearGradient6614">
      <stop
         id="stop6616"
         style="stop-color:#3d8e8e;stop-opacity:1"
         offset="0" />
      <stop
         id="stop6618"
         style="stop-color:#3d8e8e;stop-opacity:0"
         offset="1" />
    </linearGradient>
    <linearGradient
       id="linearGradient4376">
      <stop
         id="stop4378"
         style="stop-color:#3d8e8e;stop-opacity:1"
         offset="0" />
      <stop
         id="stop4380"
         style="stop-color:#fdd79b;stop-opacity:0"
         offset="1" />
    </linearGradient>
    <linearGradient
       id="linearGradient4370">
      <stop
         id="stop4372"
         style="stop-color:#3d8e8e;stop-opacity:1"
         offset="0" />
      <stop
         id="stop4374"
         style="stop-color:#3d8e8e;stop-opacity:0"
         offset="1" />
    </linearGradient>
    <linearGradient
       id="linearGradient4356">
      <stop
         id="stop4358"
         style="stop-color:#6699ff;stop-opacity:0"
         offset="0" />
      <stop
         id="stop4360"
         style="stop-color:#fea826;stop-opacity:0"
         offset="1" />
    </linearGradient>
    <linearGradient
       id="linearGradient4346">
      <stop
         id="stop4348"
         style="stop-color:#ffffff;stop-opacity:1"
         offset="0" />
      <stop
         id="stop4350"
         style="stop-color:#ffffff;stop-opacity:0"
         offset="1" />
    </linearGradient>
    <filter
       color-interpolation-filters="sRGB"
       id="filter4214">
      <feGaussianBlur
         in="SourceGraphic"
         stdDeviation="8"
         result="result6"
         id="feGaussianBlur4216" />
      <feComposite
         in2="SourceGraphic"
         operator="xor"
         in="result6"
         result="result10"
         id="feComposite4218" />
      <feGaussianBlur
         stdDeviation="8"
         result="result2"
         id="feGaussianBlur4220" />
      <feComposite
         in2="SourceGraphic"
         operator="atop"
         in="result10"
         result="result91"
         id="feComposite4222" />
      <feComposite
         in2="result91"
         operator="xor"
         in="result2"
         result="result4"
         id="feComposite4224" />
      <feGaussianBlur
         stdDeviation="4"
         result="result3"
         in="result4"
         id="feGaussianBlur4226" />
      <feSpecularLighting
         surfaceScale="18"
         specularConstant="1.10000002"
         specularExponent="5"
         result="result5"
         id="feSpecularLighting4228">
        <feDistantLight
           elevation="55"
           azimuth="235"
           id="feDistantLight4230" />
      </feSpecularLighting>
      <feComposite
         in2="result5"
         operator="arithmetic"
         k1="0.5"
         k2="0.5"
         k3="1.1"
         k4="0"
         in="result3"
         result="result7"
         id="feComposite4232" />
      <feComposite
         in2="SourceGraphic"
         operator="atop"
         in="result7"
         result="result8"
         id="feComposite4234" />
    </filter>
    <filter
       x="0"
       y="0"
       width="1"
       height="1"
       color-interpolation-filters="sRGB"
       id="filter4258">
      <feGaussianBlur
         stdDeviation="0.4"
         result="result6"
         id="feGaussianBlur4260" />
      <feComposite
         in2="result6"
         operator="in"
         in="SourceGraphic"
         result="result7"
         id="feComposite4262" />
      <feComposite
         in2="result7"
         operator="in"
         in="result7"
         result="result8"
         id="feComposite4264" />
    </filter>
    <linearGradient
       x1="62.339745"
       y1="16.943592"
       x2="11.342492"
       y2="4.0184255"
       id="linearGradient4352"
       xlink:href="#linearGradient4356"
       gradientUnits="userSpaceOnUse" />
    <linearGradient
       x1="1.758526"
       y1="1.8202678"
       x2="69.813484"
       y2="12.45935"
       id="linearGradient4354"
       xlink:href="#linearGradient4346"
       gradientUnits="userSpaceOnUse" />
    <linearGradient
       x1="7.2099566"
       y1="19.141748"
       x2="6.9461775"
       y2="14.921287"
       id="linearGradient4368"
       xlink:href="#linearGradient4370"
       gradientUnits="userSpaceOnUse" />
    <linearGradient
       x1="10.023598"
       y1="23.098433"
       x2="10.375303"
       y2="18.262486"
       id="linearGradient4382"
       xlink:href="#linearGradient4376"
       gradientUnits="userSpaceOnUse" />
  </defs>
  <g
     id="g3194">
    <path
       d="m 72.139815,14.745433 c -0.06877,16.63577 0.85528,10.87067 -35.650401,10.773591 C -0.01626692,25.421946 0.92806626,31.668017 0.83901381,14.745433 0.74996136,-2.1771514 0.12128987,3.873802 36.489414,3.971842 72.857538,4.069882 72.207199,-1.5548506 72.139815,14.745433 z"
       inkscape:connector-curvature="0"
       transform="matrix(0.99578124,0,0,1.0210152,0.16452579,-2.0553111)"
       id="path4386"
       style="fill:#f7f7f7;fill-opacity:1;stroke:#000000;stroke-width:0.99174935;stroke-miterlimit:4;stroke-opacity:1;stroke-dasharray:none" />
    <g
       transform="translate(1.4432509,1.3618959)"
       id="g15167">
      <path
         d="m 22.156254,12.171875 c -1.3e-5,1.531253 -0.561709,2.859377 -1.685092,3.984375 -0.99264,1.005208 -2.386481,1.533854 -4.181527,1.585937 -0.344752,0.01042 -1.292801,0.01562 -2.844151,0.01562 -0.291254,0 -0.731101,-0.0078 -1.319543,-0.02344 -0.582503,-0.01562 -1.019378,-0.02344 -1.310629,-0.02344 -0.172373,0 -0.258559,-0.0599 -0.258558,-0.179688 -10e-7,-0.572916 0.02377,-1.43229 0.07133,-2.578125 0.05349,-1.151037 0.08024,-2.013016 0.08024,-2.585937 -10e-7,-0.598952 -0.02675,-1.494785 -0.08024,-2.6874999 -0.04755,-1.1979076 -0.07133,-2.09374 -0.07133,-2.6875001 -10e-7,-0.1093641 0.08619,-0.1744682 0.258558,-0.1953125 0.422016,-0.041656 1.114478,-0.062489 2.077391,-0.0625 1.830713,1.09e-5 3.016517,0.023449 3.557417,0.070313 1.408694,0.1250108 2.511284,0.4375105 3.307774,0.9375 0.748919,0.4687595 1.340337,1.1250087 1.774251,1.9687503 0.416061,0.7968822 0.624096,1.6171942 0.624109,2.4609372 m -3.414764,0 c -10e-6,-0.880203 -0.300176,-1.598951 -0.9005,-2.15625 -0.606284,-0.5781168 -1.408708,-0.867179 -2.407275,-0.8671876 -0.915364,8.6e-6 -1.373042,0.1067792 -1.373038,0.3203125 -4e-6,0.3072999 -0.006,0.7708401 -0.01783,1.3906251 -0.01189,0.61459 -0.01784,1.075526 -0.01783,1.382813 -5e-6,0.302088 0.006,0.757817 0.01783,1.367187 0.01188,0.60417 0.01783,1.059899 0.01783,1.367188 -4e-6,0.22396 0.475506,0.335939 1.426533,0.335937 1.028286,2e-6 1.836655,-0.299477 2.425107,-0.898437 0.552773,-0.567705 0.829163,-1.315099 0.829173,-2.242188"
         inkscape:connector-curvature="0"
         id="path15155"
         style="font-size:17.09251404px;font-style:normal;font-variant:normal;font-weight:bold;font-stretch:normal;text-align:start;line-height:100%;letter-spacing:0px;word-spacing:0px;writing-mode:lr-tb;text-anchor:start;fill:#3f3f3f;fill-opacity:1;stroke:none;font-family:Berlin Sans FB Demi;-inkscape-font-specification:Berlin Sans FB Demi Bold" />
      <path
         d="m 49.028577,17.515625 c -1.3e-5,0.09375 -0.07431,0.158854 -0.222896,0.195312 -0.178329,0.04166 -0.73111,0.0625 -1.658345,0.0625 -0.849986,0 -1.396824,-0.02084 -1.640514,-0.0625 -0.202101,-0.03646 -0.329894,-0.153645 -0.383381,-0.351562 -0.202101,-0.75 -0.359614,-1.151041 -0.472539,-1.203125 -0.09511,-0.03646 -0.89159,-0.05469 -2.389443,-0.05469 -1.010466,2e-6 -1.548388,0.02344 -1.613767,0.07031 -0.101049,0.08333 -0.213983,0.36198 -0.338801,0.835937 -0.112938,0.432292 -0.249647,0.666667 -0.410129,0.703125 -0.202095,0.04167 -0.879698,0.0625 -2.032809,0.0625 -0.909416,0 -1.364123,-0.07552 -1.364123,-0.226562 0,-0.135417 0.671659,-1.799478 2.014978,-4.992188 1.45625,-3.453116 2.246786,-5.3515515 2.371612,-5.6953119 0.07132,-0.1979057 0.154537,-0.2968639 0.249644,-0.2968751 0.160479,1.12e-5 0.407151,0.013032 0.740014,0.039063 0.338796,0.026053 0.59141,0.039074 0.757846,0.039063 0.160478,1.1e-5 0.395262,-0.0078 0.704351,-0.023438 0.315018,-0.020822 0.549802,-0.031239 0.704351,-0.03125 0.112926,1.11e-5 0.216943,0.085948 0.312053,0.2578125 0.291243,0.5468852 1.141218,2.4218832 2.549929,5.6249985 1.414634,3.223961 2.121956,4.906251 2.121969,5.046876 m -6.321326,-7.117188 c -0.124828,0.229174 -0.335836,0.726569 -0.633025,1.492188 -0.320975,0.812504 -0.48146,1.289067 -0.481454,1.429687 -6e-6,0.09375 0.178311,0.145838 0.534949,0.15625 0.184254,0.01042 0.487392,0.01563 0.909415,0.01562 0.39229,5e-6 0.609241,-0.04167 0.650856,-0.125 0.01188,-0.02604 0.01783,-0.06249 0.01783,-0.109374 -7e-6,-0.171871 -0.136717,-0.645829 -0.410128,-1.421876 -0.267482,-0.749993 -0.463631,-1.229159 -0.588446,-1.4375"
         inkscape:connector-curvature="0"
         id="path15159"
         style="font-size:17.09251404px;font-style:normal;font-variant:normal;font-weight:bold;font-stretch:normal;text-align:start;line-height:100%;letter-spacing:0px;word-spacing:0px;writing-mode:lr-tb;text-anchor:start;fill:#3f3f3f;fill-opacity:1;stroke:none;font-family:Berlin Sans FB Demi;-inkscape-font-specification:Berlin Sans FB Demi Bold" />
      <path
         d="m 60.556749,17.632812 c -1.1e-5,0.03646 -0.05945,0.0625 -0.178316,0.07813 -0.22588,0.03125 -0.79352,0.04687 -1.702925,0.04687 -0.778658,0 -1.307664,-0.01562 -1.587019,-0.04687 -0.130773,-0.01562 -0.205072,-0.02864 -0.222895,-0.03906 -0.03567,-0.01562 -0.07728,-0.06771 -0.124822,-0.15625 -0.08917,-0.203125 -0.219932,-0.505209 -0.392297,-0.906251 -0.231818,-0.520831 -0.594395,-1.28906 -1.087731,-2.304686 -0.106996,-0.203122 -0.353668,-0.315102 -0.740014,-0.335938 0.178311,0.01042 -0.1278,0.01562 -0.918332,0.01562 -0.08916,4e-6 -0.133742,0.132816 -0.133737,0.398438 -5e-6,0.35417 0.03566,0.882816 0.10699,1.585938 0.07727,0.703126 0.115902,1.231771 0.115906,1.585937 -4e-6,0.08854 -0.02675,0.140625 -0.08024,0.15625 -0.08322,0.0052 -0.166433,0.01042 -0.249642,0.01562 -0.350694,0.02084 -0.897532,0.03125 -1.640514,0.03125 -0.849978,0 -1.361152,-0.01562 -1.533524,-0.04687 -0.172374,-0.03125 -0.258559,-0.111979 -0.258559,-0.242187 0,-0.572917 0.02972,-1.437499 0.08916,-2.593751 0.06538,-1.156246 0.09807,-2.023432 0.09808,-2.601562 -10e-7,-2.203117 -0.05647,-3.9218651 -0.1694,-5.1562493 l -0.0089,-0.1093751 c -0.006,-0.088531 0.08619,-0.1484266 0.276391,-0.1796874 0.196148,-0.031239 1.105561,-0.062489 2.728246,-0.09375 1.099613,-0.020822 1.976337,-0.031239 2.63017,-0.03125 1.3552,1.1e-5 2.460762,0.2682399 3.316691,0.8046875 0.968843,0.6041762 1.453269,1.476571 1.453281,2.6171873 -1.2e-5,0.760423 -0.124833,1.367194 -0.374465,1.820312 -0.249654,0.45313 -0.710305,0.893234 -1.381954,1.320313 -0.136719,0.08334 -0.205074,0.161462 -0.205065,0.234374 -9e-6,-0.0052 0.362568,0.648442 1.087732,1.960938 0.725143,1.312501 1.08772,2.036459 1.087732,2.171875 m -3.74465,-7.007812 C 56.81215,9.9895899 56.574394,9.5494861 56.098891,9.3046863 55.730363,9.1171949 55.153806,9.023445 54.369218,9.0234364 c -0.564673,8.6e-6 -0.864839,0.07553 -0.900498,0.2265624 -0.03567,0.1770918 -0.0535,0.6875084 -0.0535,1.5312502 -4e-6,0.119799 0.003,0.296882 0.0089,0.53125 0.006,0.234381 0.0089,0.40886 0.0089,0.523437 -4e-6,0.02605 0.0951,0.05209 0.285308,0.07813 0.362571,0.04688 0.74298,0.07032 1.141226,0.07031 1.301705,5e-6 1.952561,-0.453119 1.952568,-1.359375"
         inkscape:connector-curvature="0"
         id="path15161"
         style="font-size:17.09251404px;font-style:normal;font-variant:normal;font-weight:bold;font-stretch:normal;text-align:start;line-height:100%;letter-spacing:0px;word-spacing:0px;writing-mode:lr-tb;text-anchor:start;fill:#3f3f3f;fill-opacity:1;stroke:none;font-family:Berlin Sans FB Demi;-inkscape-font-specification:Berlin Sans FB Demi Bold" />
      <g
         transform="matrix(1.1261624,0,0,1.1261624,-3.6886719,-1.4386572)"
         id="g15148">
        <g
           transform="matrix(0.02253738,0,0,0.02253738,22.737309,4.7832465)"
           id="g5358">
          <path
             d="M 173.22175,116.80278 C 181.45515,73.411963 160.49955,24.8322 114.3031,13.660889 70.737183,3.0887954 26.327767,26.65821 11.819432,67.978154 -7.8448312,123.98833 33.995285,178.73766 94.365363,180.53211 c 21.153597,0.64398 70.590267,-19.97159 78.856387,-63.72933 z"
             inkscape:connector-curvature="0"
             id="path3472"
             style="fill:#edc066;stroke:#000000;stroke-width:0.57825309;stroke-miterlimit:10" />
          <path
             d="m 66.949646,60.221139 c 12.701749,-15.383806 42.725294,-14.899 52.475744,1.246865 2.84433,4.763244 7.92728,11.575839 1.22434,16.29063 -5.07508,3.587507 -12.3726,7.816916 -18.69532,1.093474 -4.34329,-4.638255 -7.307701,-10.930479 -14.589754,-3.787302 -18.448633,19.831386 12.147789,12.164135 11.534912,16.123759 0.321608,3.707627 0.156871,-0.592895 1.065437,8.8049 -0.740616,3.517825 -28.716415,2.000895 -9.769729,15.668495 4.986169,3.28704 7.88673,2.50747 11.110964,-0.55904 1.82318,-1.74516 1.98617,-5.03419 3.61372,-7.11824 4.99845,-6.39719 11.56056,-2.88049 17.05236,-1.35669 7.54646,2.09065 5.21677,8.44648 3.96299,13.60371 -4.68142,19.35689 -37.676663,27.59728 -53.265584,13.40443 -18.37521,-16.72558 -21.316022,-54.529438 -5.72008,-73.414991 z"
             inkscape:connector-curvature="0"
             id="path3474"
             style="fill:#3f3f3f;fill-opacity:1" />
        </g>
        <path
           d="m 31.598515,10.682762 c -0.613281,0.01656 -1.033346,0.434215 -0.986365,0.953998 0.05113,0.5548 0.42246,0.797257 1.010574,0.78524 0.539604,-0.01202 0.974956,-0.418529 0.915494,-0.885894 C 32.471799,11.0203 32.129083,10.7282 31.598515,10.682762 z m 3.971746,1.606573 c -0.285695,1.515303 -0.637046,2.034287 -1.608568,2.650345 -0.213269,0.135237 -0.443065,0.284454 -0.61344,0.438005 -0.229611,0.206509 -0.250168,0.887903 0.0169,1.424904 0.172681,0.434277 -0.115523,0.81808 -0.440577,0.89497 -0.538052,0.09475 -1.335834,0.09475 -1.701547,0.02492 -0.40512,-0.05381 -0.518272,-0.438813 -0.319693,-0.958368 0.111211,-0.434629 -0.03699,-1.018456 -0.469487,-1.063168 -0.398753,-0.04106 -1.215747,-0.01685 -1.472303,-0.02892 -0.566848,-0.0272 -0.729215,0.671781 -0.545606,1.152757 0.15137,0.395676 -10e-4,0.830967 -0.263013,0.860741 -0.466681,0.106704 -1.306879,0.08783 -1.712181,0.01556 -0.262032,-0.04674 -0.555074,-0.415277 -0.382348,-0.93504 0.144274,-0.464899 0.383056,-1.019056 -0.200791,-1.539979 -0.91716,-0.818329 -1.329753,-1.497362 -1.506689,-2.413773 -0.06013,-0.31143 -0.02469,-0.940344 -0.08931,-0.946912 -0.06464,-0.0062 0.0894,1.327187 -0.432196,1.37233 -0.375146,0.03247 -0.530696,-0.574217 -0.510588,-0.915926 0.03111,-0.528557 0.09133,-1.688661 0.951546,-1.332269 0.07977,-0.247865 0.138112,-0.504556 0.248617,-0.740838 0.102631,-0.219293 0.31161,-0.6596597 0.41253,-0.844517 1.594445,-0.1572508 1.981175,-0.8340542 2.195954,-1.9336458 1.107616,-0.2796974 1.892265,-0.2476406 2.706487,-0.060977 0.357432,0.122575 0.649036,0.1662925 0.8096,-0.178683 0.207568,-0.4459821 0.876728,-1.7235524 1.869734,-1.7213147 0.263516,-0.05704 0.316177,0.999435 0.309583,1.2382451 -0.01368,0.4936364 -0.002,0.9884745 -0.02487,1.4818206 -0.01403,0.302812 -0.132179,0.5220427 0.09567,0.750141 0.583276,0.7321565 0.866574,1.4580148 0.965464,2.3672178 0.06134,0.562051 0.147514,0.562216 0.80401,0.562735 0.551789,2.12e-4 0.997182,-0.0978 0.907099,0.379639 z M 25.937612,11.707683 C 26.600841,12.049224 26.428824,10.93968 27.354741,9.9942617 28.340513,8.9877295 29.316277,9.299021 28.99197,8.685302 28.615537,7.9729429 27.13362,8.8169936 26.635224,9.3410045 26.175754,9.824136 25.197633,11.326618 25.937612,11.707683 z"
           inkscape:connector-curvature="0"
           id="out"
           style="fill:#3d8e8e;stroke:#000000;stroke-width:0.0470596;stroke-miterlimit:4;stroke-opacity:1;stroke-dasharray:none" />
      </g>
    </g>
  </g>
</svg>
