<?xml version="1.0" encoding="UTF-8" standalone="no"?>
<!-- Created with Inkscape (http://www.inkscape.org/) -->

<svg
   xmlns:dc="http://purl.org/dc/elements/1.1/"
   xmlns:cc="http://creativecommons.org/ns#"
   xmlns:rdf="http://www.w3.org/1999/02/22-rdf-syntax-ns#"
   xmlns:svg="http://www.w3.org/2000/svg"
   xmlns="http://www.w3.org/2000/svg"
   version="1.1"
   width="600"
   height="600"
   viewBox="0 0 600 600"
   id="lay"
   xml:space="preserve"><metadata
   id="metadata28413"><rdf:RDF><cc:Work
       rdf:about=""><dc:format>image/svg+xml</dc:format><dc:type
         rdf:resource="http://purl.org/dc/dcmitype/StillImage" /><dc:title></dc:title></cc:Work></rdf:RDF></metadata><defs
   id="defs28411">
	
	
</defs>
<path
   d="m 403.09577,253.814 c -29.10503,0.799 -49.04043,20.957 -46.81083,46.044 2.42669,26.777 20.04908,38.479 47.95972,37.899 25.60847,-0.58 46.26938,-20.2 43.44746,-42.757 -3.15221,-24.895 -19.41671,-38.993 -44.59635,-41.186 z m 188.49069,77.54 c -13.55845,73.135 -29.93674,98.63675 -76.33923,127.917 -10.1424,6.39991 -21.02692,13.729 -29.11261,21.14 -10.8968,9.967 -11.87245,42.854 0.80241,68.772 8.19505,20.96 -5.48252,39.484 -20.90888,43.195 -25.53485,4.573 -63.39585,4.573 -80.75187,1.203 -19.22614,-2.597 -24.59603,-21.179 -15.17192,-46.255 5.27785,-20.977 -1.75531,-49.155 -22.28086,-51.313 -18.924,-1.982 -57.69678,-0.813 -69.87241,-1.396 -26.90141,-1.313 -34.60702,32.423 -25.89328,55.637 7.18368,19.097 -0.0477,40.106 -12.48208,41.543 -22.14767,5.15 -62.02171,4.239 -81.25649,0.751 -12.43553,-2.256 -26.34265,-20.043 -18.14543,-45.129 6.84692,-22.438 18.179,-49.184 -9.52913,-74.326 -43.5265,-39.496 -56.416851,-53.91 -71.504285,-116.499 -3.808407,-15.786 -1.171654,-45.385 -4.238301,-45.702 -3.067733,-0.298 4.242608,64.05571 -20.511122,66.23452 C 16.587355,378.69358 9.205268,349.41233 10.159537,332.92 c 1.47607,-25.51042 4.334677,-81.502 45.158375,-64.301 8.836736,-40.30027 22.841374,-76.38225 47.376648,-106.516 22.85462,-28.06961 53.88724,-51.8448 88.21535,-63.326 40.6146,-13.583742 89.80291,-11.952198 128.44419,-2.943 16.96296,5.916 30.80187,8.026 38.42194,-8.624 9.85074,-21.525 41.60768,-83.186 88.7336,-83.078 12.50592,-2.753 15.00514,48.237 14.69219,59.763 -0.64971,23.825 -0.0952,47.708 -1.18031,71.519 -0.66595,14.615 -6.27298,25.196 4.54043,36.205 27.68107,35.337 41.12581,70.37 45.81892,114.252 2.9107,27.127 7.00067,27.135 38.15661,27.16 26.18673,0.01 47.3241,-4.72 43.04898,18.323 z"
   id="path11945"
   style="fill:#3d8e8e" />
</svg>
