<?xml version="1.0" encoding="UTF-8" standalone="no"?>
<!-- Created with Inkscape (http://www.inkscape.org/) -->

<svg
   xmlns:dc="http://purl.org/dc/elements/1.1/"
   xmlns:cc="http://creativecommons.org/ns#"
   xmlns:rdf="http://www.w3.org/1999/02/22-rdf-syntax-ns#"
   xmlns:svg="http://www.w3.org/2000/svg"
   xmlns="http://www.w3.org/2000/svg"
   xmlns:inkscape="http://www.inkscape.org/namespaces/inkscape"
   version="1.2"
   width="1024"
   height="463.81799"
   viewBox="0 0 1024 463.818"
   id="Layer_1"
   xml:space="preserve"><metadata
   id="metadata173"><rdf:RDF><cc:Work
       rdf:about=""><dc:format>image/svg+xml</dc:format><dc:type
         rdf:resource="http://purl.org/dc/dcmitype/StillImage" /></cc:Work></rdf:RDF></metadata><defs
   id="defs171" />
<g
   id="g3">
	<path
   d="m 836.5,198.621 c -0.111,-2.828 -0.223,-5.656 -0.334,-8.485 2.213,-2.582 5.311,-1.665 7.975,-1.7 14.291,-0.191 28.585,0.194 42.879,0.095 9.138,-0.063 18.262,0.276 27.359,-1.391 7.227,-1.323 14.606,0.051 21.852,0.383 21.621,0.99 43.236,0.969 64.859,1.023 2.518,0.007 4.946,-0.655 7.437,-0.788 5.454,-1.275 10.651,-0.768 15.474,2.271 0,12.333 0,24.667 0,37 -33.631,0.281 -67.263,0.635 -100.895,0.82 -28.658,0.158 -57.316,0.123 -85.975,0.174 l 0.133,0.124 c -0.186,-4.604 -0.37,-9.208 -0.555,-13.812 -0.473,-5.231 -0.076,-10.477 -0.209,-15.714 z"
   inkscape:connector-curvature="0"
   id="path5"
   style="fill:#3f3f3f;fill-rule:evenodd" />
	<path
   d="m 1024,190.029 c -4.941,-0.258 -9.885,-0.516 -14.826,-0.773 -0.284,-0.163 -0.568,-0.326 -0.854,-0.488 -2.701,-2.193 -2.395,-5.289 -2.404,-8.248 -0.059,-18.881 -0.021,-37.761 -0.023,-56.642 0,-2.98 -0.035,-5.96 -0.104,-8.94 1.565,-12.878 0.374,-25.807 0.679,-38.707 0.083,-3.479 0.311,-6.872 1.699,-10.103 5.278,-0.032 10.557,-0.065 15.834,-0.099 -10e-4,41.333 -10e-4,82.667 -10e-4,124 z"
   inkscape:connector-curvature="0"
   id="path7"
   style="fill:#63acac;fill-rule:evenodd" />
	<path
   d="m 0,63.029 c 3.966,0.063 7.933,0.127 11.899,0.19 2.515,1.683 2.152,4.333 2.181,6.782 0.167,14.304 -0.475,28.591 -0.804,42.885 -0.571,24.796 -0.11,49.613 -0.191,74.421 -0.009,2.825 0.318,6.179 -2.853,7.401 C 6.92,195.986 3.201,197.204 0,194.028 0,150.362 0,106.696 0,63.029 z"
   inkscape:connector-curvature="0"
   id="path9"
   style="fill:#3f3f3f;fill-rule:evenodd" />
	<path
   d="m 0,194.029 c 3.461,0 6.923,0 11.899,0 0,-43.839 0,-87.324 0,-130.81 4.171,-1.987 8.309,-4.217 14.202,-1.155 4.757,19.15 -2.065,39.573 0.768,57.59 0,16.875 -0.013,31.849 0.005,46.822 0.009,7.919 0.915,15.949 -0.114,23.727 -1.167,8.831 -7.736,5.783 -13.354,4.209 -3.828,3.063 -8.521,3.706 -13.405,3.617 C 0,196.696 0,195.362 0,194.029 z"
   inkscape:connector-curvature="0"
   id="path11"
   style="fill:#f7f7f7;fill-rule:evenodd" />
	<path
   d="m 238.112,48.096 c 17.089,-14.078 36.351,-20.457 57.631,-12.317 20.265,7.75 31.635,23.384 33.273,45.466 0.219,2.959 0.538,5.912 0.81,8.867 -0.917,4.596 -0.845,9.335 -2.019,13.895 -5.214,9.409 -11.507,17.856 -20.499,24.115 -3.568,2.484 -7.645,3.993 -12.29,7.071 14.405,5.068 24.685,13.96 30.589,26.732 1.162,0.458 1.578,0.183 1.835,-0.247 8.2,-13.693 19.584,-23.273 35.246,-27.355 0.97,-0.253 1.676,-1.089 2.669,-1.337 7.766,0.018 15.521,0.189 23.131,-1.947 14.647,-4.112 24.676,-13.578 31.646,-26.745 1.076,-2.033 1.237,-5.143 4.788,-4.736 1.751,0.922 2.367,2.723 3.267,4.29 6.933,12.084 16.636,21.054 29.561,26.446 2.117,0.884 4.414,1.613 5.444,4.07 -0.196,2.767 -2.381,3.921 -4.372,4.994 -15.071,8.126 -24.851,20.71 -31.03,36.403 -1.162,2.95 -1.251,2.915 -3.974,4.683 -2.494,-0.811 -2.685,-3.168 -3.238,-5.171 -8.2,-29.701 -44.76,-45.229 -72.987,-23.037 -9.518,7.483 -15.458,17.738 -17.119,30.06 -0.489,2.391 -1.672,4.78 -0.352,6.652 2.11,2.546 5.548,0.455 6.954,3.24 -2.71,0.498 -5.421,0.995 -8.391,1.54 -3.584,14.215 -9.974,26.446 -22.613,34.85 -15.472,10.287 -32.123,9.458 -49.187,6.274 -8.52,-3.921 -16.137,-9.142 -22.762,-15.804 -0.181,-1.346 -0.63,-2.618 -1.427,-3.694 -8.729,-11.797 -9.507,-25.486 -8.253,-39.181 0.765,-8.354 6.038,-15.373 10.706,-22.294 0.812,-1.203 2.302,-2.017 2.126,-3.774 0.237,-1.417 1.104,-2.445 2.279,-3.109 6.92,-3.912 13.336,-8.734 20.853,-11.633 -13.574,-5.979 -25.94,-13.329 -31.34,-28.373 -5.841,-11.611 -8.211,-23.541 -3.357,-36.137 0.357,-0.928 0.657,-1.863 0.761,-2.849 1.071,-6.73 4.432,-12.217 9.273,-16.877 0.945,-0.905 2.057,-1.647 2.368,-3.031 z"
   inkscape:connector-curvature="0"
   id="path13"
   style="fill:#9cd2d2;fill-rule:evenodd" />
	<path
   d="m 328.931,181.995 c 1.675,-28.471 35.555,-49.607 63.142,-39.458 17.325,6.374 27.488,18.837 31.89,38.2 7.043,-21.147 19.286,-36.454 39.638,-45.961 -18.041,-6.992 -32.128,-16.757 -38.75,-34.578 -6.036,-2.246 -6.641,-3.345 -6.875,-10.222 -0.275,-8.095 0.646,-16.166 0.143,-24.278 -0.247,-3.969 -2.105,-7.587 -1.69,-11.685 0.445,-4.393 0.284,-8.672 1.837,-13.097 1.498,-4.267 2.215,-9.594 -3.072,-12.831 -1.605,-3.442 -2.134,-6.795 0.83,-9.849 17.976,0 35.952,0 54.619,0 0,9.463 0,18.691 0,28.653 20.638,0.647 41.329,-1.742 60.197,11.071 0,35.142 -0.004,70.616 0.005,106.091 0.002,4.499 0.078,8.998 0.109,13.497 0.015,2.065 -0.014,4.121 -2.74,4.539 -5.234,0.48 -9.539,3.543 -14.285,5.338 -6.307,2.384 -12.693,2.094 -19.123,2.029 -3.865,-0.038 -4.235,-2.936 -4.301,-5.985 -0.27,-12.563 -1.219,-25.123 -0.031,-37.692 0.185,-1.962 0.149,-3.976 -0.26,-6.241 -3.529,-2.771 -7.121,-2.66 -10.791,-0.063 -1.53,1.381 -3.473,1.886 -5.362,2.521 -20.587,6.927 -34.055,20.679 -39.874,41.712 -0.726,2.624 -1.279,5.251 -4.51,5.929 -3.462,0.775 -6.965,0.235 -10.442,0.387 -6.945,0.305 -13.896,-0.478 -20.851,0.879 -5.575,1.086 -11.219,-1.055 -16.818,-0.799 -14.929,0.684 -29.854,1.146 -44.798,0.916 -1.98,-0.03 -3.994,0.273 -5.999,-0.46 -3.044,-2.296 -2.481,-5.421 -1.838,-8.563 z"
   inkscape:connector-curvature="0"
   id="path15"
   style="fill:#3d8e8e;fill-rule:evenodd" />
	<path
   d="m 230.88,107.104 c 6.771,15.396 19.604,23.188 35.944,28.089 -11.386,2.774 -19.634,9.756 -28.969,14.705 -1.519,3.194 -4.59,4.295 -7.585,5.127 -16.657,4.625 -33.183,4.595 -49.461,-1.81 -1.665,-0.655 -3.221,-1.7 -5.642,-1.661 5.915,10.448 7.747,21.67 7.782,33.206 0.036,11.571 -3.449,22.275 -9.679,33.616 8.565,-4.743 16.715,-6.753 25.194,-7.857 11.27,-1.468 21.821,1.242 32.304,4.7 1.943,0.642 3.509,1.903 4.119,4.025 7.549,4.9 15.614,9.073 22.002,15.607 -21.172,19.565 -45.709,26.45 -72.953,16.241 -26.299,-9.855 -39.892,-30.679 -43.909,-58.073 -2.664,-2.547 -2.13,-5.872 -1.882,-8.944 1.152,-14.256 5.846,-27.25 14.365,-38.8 1.467,-1.988 3.308,-3.735 4.032,-6.292 -1.099,-2.874 -3.401,-4.894 -5.254,-7.188 -20.746,-25.688 -22.432,-63.184 -0.71,-91.067 2.421,-3.107 4.818,-6.449 9.462,-6.319 9.042,8.423 18.65,15.623 30.953,19.088 16.628,4.684 32.117,2.544 47.119,-5.401 2.704,1.41 -0.05,2.016 -0.529,2.654 -3.818,5.088 -7.69,10.126 -9.662,16.304 -1.037,1.389 -0.776,3.231 -1.816,4.982 -2.889,2.488 -5.901,1.348 -8.826,-0.795 -3.057,2.196 -6.808,2.021 -9.696,4.092 -6.272,1.666 -12.487,0.308 -18.833,-0.641 -1.023,2.418 0.382,4.373 0.57,6.418 0.846,9.236 2.231,18.526 -2.698,27.19 -4.271,1.129 -5.593,0.432 -6.36,-3.427 -0.424,-2.131 -0.126,-4.307 -0.329,-6.886 0.149,3.534 -0.15,6.655 0.212,9.658 1.409,1.457 3.188,2.088 4.541,3.33 1.279,1.175 3.061,1.908 4.639,1.351 10.709,-3.789 21.743,-0.893 32.582,-1.759 0.99,-0.079 1.992,0.199 3.251,-0.124 1.869,-0.821 2.363,-4.601 5.722,-3.339 z"
   inkscape:connector-curvature="0"
   id="path17"
   style="fill:#3d8e8e;fill-rule:evenodd" />
	<path
   d="m 160.041,34.409 c -17.513,15.338 -24.587,34.757 -22.709,57.745 1.515,18.55 9.727,33.812 23.045,46.705 -14.321,15.455 -21.352,33.326 -20.349,54.161 -7.671,-0.191 -15.342,-0.383 -23.014,-0.574 -3.071,-0.916 -4.061,-3.795 -5.521,-6.108 -5.675,-8.988 -11.406,-17.941 -17.071,-26.936 -1.042,-1.654 -1.905,-3.526 -4.114,-4.701 -5.946,4.935 -8.383,13.09 -14.633,18.005 -1.589,-1.735 -1.171,-3.032 -0.927,-4.308 0,-44.892 0,-89.782 0,-135.039 29.128,0 56.706,-0.004 84.283,0.044 0.336,0 0.673,0.657 1.01,1.006 z"
   inkscape:connector-curvature="0"
   id="path19"
   style="fill:#3f3f3f;fill-rule:evenodd" />
	<path
   d="m 1009.174,189.256 c -23.587,0.113 -47.174,0.223 -70.76,0.343 -34.083,0.174 -68.166,0.357 -102.248,0.537 -13.211,0 -26.422,0 -41.184,0 0,-10.862 0,-21.005 0,-31.146 -0.143,-0.302 -0.416,-0.609 -0.402,-0.904 0.666,-14.277 -1.74,-28.403 -1.938,-42.679 -0.363,-26.453 -0.838,-52.902 -0.721,-79.359 0.013,-2.738 -0.653,-5.779 2.121,-7.819 10.303,-0.094 20.604,-0.187 30.906,-0.28 1.758,-1.911 4.074,-2.014 6.436,-2.016 39.705,-0.039 79.41,-0.055 119.115,0.013 2.35,0.004 4.707,0.043 6.277,2.249 0.36,15.366 0.722,30.731 1.083,46.098 2.651,3.236 2.206,7.16 2.214,10.89 0.069,30.957 0.021,61.915 0.064,92.873 0.004,2.607 -0.511,5.363 1.263,7.664 2.112,1.531 4.511,1.165 6.804,1.177 11.152,0.057 22.304,0.005 33.455,0.034 2.504,0.007 5.031,-0.09 7.064,1.781 0.156,0.176 0.306,0.358 0.451,0.544 z"
   inkscape:connector-curvature="0"
   id="path21"
   style="fill:#3d8e8e;fill-rule:evenodd" />
	<path
   d="m 794.043,28.228 c 0.313,43.588 0.627,87.175 0.939,130.763 -2.372,-5.874 0.149,-12.188 -1.516,-18.374 -6.289,-1.749 -12.979,0.75 -19.482,-1.979 0,-4.342 0,-8.748 0,-13.155 -4.237,20.014 -15.043,35.591 -32.273,45.853 -13.895,8.273 -29.715,11.851 -45.568,6.983 -36.67,-11.258 -50.742,-39.882 -47.327,-66.298 5.145,-39.797 34.341,-56.42 65.171,-56.676 24.463,-0.204 58.673,27.31 56.199,50.279 1.174,1.755 3.21,3.222 3.324,5.794 0,-36.405 0,-72.811 0,-109.547 6.818,-1.981 13.156,0.384 20.533,0.443 0,9.042 0,17.478 0,25.914 z"
   inkscape:connector-curvature="0"
   id="path23"
   style="fill:#9cd2d2;fill-rule:evenodd" />
	<path
   d="m 837.131,228.023 c 0,7.688 0,15.377 0,23.949 -4.342,0 -8.215,0 -12.089,0 -1.446,2.063 -3.645,2.162 -5.824,2.115 -14.618,-0.315 -29.257,0.908 -43.86,-0.823 -8.477,-1.005 -16.894,0.941 -25.377,0.92 -37.106,-0.096 -74.214,-0.048 -111.32,-0.033 -4.152,10e-4 -8.296,-0.089 -12.436,0.671 -2.782,0.512 -5.633,0.267 -8.384,-1.671 -0.724,-4.604 -0.169,-9.411 -0.339,-14.187 0.124,-3.309 -0.275,-6.634 0.232,-9.793 1.584,-2.13 3.773,-2.202 5.95,-2.208 32.394,-0.096 64.788,-0.071 97.182,-0.034 2.08,0.002 3.909,0.587 5.651,1.621 27.259,-0.133 54.518,-0.275 81.777,-0.391 9.652,-0.041 19.306,-0.014 28.964,-0.016 0.006,0.004 -0.127,-0.12 -0.127,-0.12 z"
   inkscape:connector-curvature="0"
   id="path25"
   style="fill:#3f3f3f;fill-rule:evenodd" />
	<path
   d="m 586.271,229.441 c 0,20.282 0,40.563 0,61.224 -28.5,0 -56.839,0 -85.635,0 0,-28.847 0,-57.518 0,-86.862 12.276,0 24.376,0 36.476,0 16.298,-0.477 32.597,-0.392 48.898,-0.046 0.366,0.328 0.931,0.558 1.013,1.052 1.379,8.258 2.51,16.515 -0.752,24.632 z"
   inkscape:connector-curvature="0"
   id="path27"
   style="fill:#3f3f3f;fill-rule:evenodd" />
	<path
   d="m 956.777,28.193 c -42.114,-0.039 -84.228,-0.077 -126.341,-0.123 -1.829,-0.002 -3.657,-0.08 -5.486,-0.123 -0.001,-8.619 -0.001,-17.238 -0.001,-26.619 43.645,-1.578 86.791,-1.421 130.062,-1.166 2.579,9.679 2.815,18.811 1.766,28.031 z"
   inkscape:connector-curvature="0"
   id="path29"
   style="fill:#9cd2d2;fill-rule:evenodd" />
	<path
   d="m 61.004,192.817 c -7.616,0 -15.232,0 -22.624,0 0,-53.019 0,-106.033 0,-159.362 7.963,0 15.176,0 22.58,0 0,53.335 0,106.405 0,159.477 l 0.044,-0.115 z"
   inkscape:connector-curvature="0"
   id="path31"
   style="fill:#3f3f3f;fill-rule:evenodd" />
	<path
   d="m 586.271,229.441 c -0.035,-8.387 -0.069,-16.774 -0.104,-25.161 1.947,-2.835 4.955,-2.331 7.719,-2.338 24.6,-0.067 49.199,-0.032 73.799,-0.033 16.953,0 33.907,-0.038 50.86,0.031 2.606,0.011 5.376,-0.376 7.689,2.032 0.835,5.234 -0.346,10.74 0.61,16.133 -0.105,2.816 -0.211,5.633 -0.322,8.447 -32.75,0.239 -65.492,0.481 -98.236,0.718 -3.291,0.023 -6.584,0.003 -10.635,0.003 0,3.497 0,6.435 0,9.371 l -0.312,0.289 c 0,-2.968 0,-5.936 0,-9.492 -10.7,0 -20.884,0 -31.068,0 z"
   inkscape:connector-curvature="0"
   id="path33"
   style="fill:#3d8e8e;fill-rule:evenodd" />
	<path
   d="m 962.019,66.994 c -0.016,-9.318 -0.031,-18.638 -0.047,-27.956 0,-12.582 0,-25.164 0,-37.806 6.401,-2.863 11.854,0.109 16.918,1.523 28.455,7.942 40.347,41.986 26.672,63.382 -0.489,0.765 -0.369,1.918 -0.532,2.89 -6.164,5.787 -11.271,12.506 -19.453,16.298 -7.107,3.295 -14.316,2.99 -21.4,4.413 -2.018,-3.455 -0.776,-6.681 -1.221,-9.711 -1.688,-2.24 -1.069,-4.761 -0.794,-7.2 0.221,-1.965 0.772,-3.907 -0.143,-5.833 z"
   inkscape:connector-curvature="0"
   id="path35"
   style="fill:#9cd2d2;fill-rule:evenodd" />
	<path
   d="m 652.447,69.13 c -23.004,33.966 -21.5,64.934 0.76,97.791 -12.101,-3.842 -21.752,-6.906 -31.1,-9.875 -27.258,-3.241 -53.002,1.323 -79.17,15.858 29.881,-34.237 30.295,-68.16 5.174,-103.381 34.332,15.289 67.932,15.28 104.336,-0.393 z"
   inkscape:connector-curvature="0"
   id="path37"
   style="fill:#9cd2d2;fill-rule:evenodd" />
	<path
   d="m 430.99,188.081 c 4.946,-22.315 17.408,-38.372 39.045,-46.712 2.621,-1.01 5.413,-1.573 8.125,-2.344 3.29,-2.95 7.073,-2.05 10.809,-1.562 2.269,2.608 2.121,5.682 1.989,8.607 -0.555,12.279 -0.038,24.552 0.065,36.826 0.016,1.938 -0.501,4.006 0.815,5.72 2.417,2.124 6.215,-0.568 8.258,2.517 -3.056,0.504 -6.112,1.009 -10.071,1.662 1.072,21.509 -1.056,43.168 1.267,64.729 -27.393,3.67 -63.282,-22.133 -61.316,-65.463 -0.502,-1.54 -0.26,-2.892 1.014,-3.98 z"
   inkscape:connector-curvature="0"
   id="path39"
   style="fill:#9cd2d2;fill-rule:evenodd" />
	<path
   d="m 416.022,18.237 c 0.025,3.261 0.05,6.521 0.075,9.781 3.458,4.459 2.153,9.568 1.567,14.373 -0.788,6.461 -0.826,12.798 0.022,19.256 0.909,6.921 0.259,13.933 0.309,20.903 0.033,4.652 -0.008,9.304 0.024,13.956 0.016,2.186 -0.031,4.381 -2.306,5.646 -25.82,-1.106 -43.073,-19.9 -41.917,-45.662 0.921,-20.523 21.613,-39.269 42.226,-38.253 z"
   inkscape:connector-curvature="0"
   id="path41"
   style="fill:#3f3f3f;fill-rule:evenodd" />
	<path
   d="m 448.333,332.13 c -15.072,9.775 -30.12,19.59 -45.235,29.3 -3.55,2.28 -7.327,4.21 -12.448,7.125 4.702,-22.503 11.375,-43.086 17.893,-65.438 -21.07,10.856 -37.318,25.734 -57.553,35.549 1.507,-13.865 6.952,-25.786 10.993,-38.099 2,-6.094 4.737,-12.049 5.88,-18.297 1.915,-10.464 9.328,-15.672 17.348,-20.763 11.717,-7.437 24.385,-13.416 34.848,-22.793 1.902,-1.706 4.426,-2.133 8.032,-1.709 -4.468,21.15 -13.353,40.974 -17.246,63.023 18.852,-12.037 36.801,-23.499 56.161,-35.86 -5.27,19.794 -10.108,38.014 -14.982,56.224 -0.772,2.884 -1.971,5.723 -0.042,8.601 0.098,0.198 0.197,0.397 0.296,0.596 -0.022,0.705 -0.32,1.281 -0.817,1.769 -0.937,0.682 -1.943,1.09 -3.128,0.772 z"
   inkscape:connector-curvature="0"
   id="path43"
   style="fill:#9cd2d2;fill-rule:evenodd" />
	<path
   d="m 836.809,272.842 c -72.865,0.309 -145.729,0.618 -218.594,0.928 -1.457,-3.525 -0.502,-7.123 -0.516,-10.428 1.246,-1.795 2.817,-2.253 4.534,-2.309 10.97,-0.362 21.962,-0.593 32.916,-0.706 9.731,-0.101 19.589,0.799 29.313,0.437 47.787,-1.779 95.582,-0.354 143.369,-0.834 5.834,-0.058 5.834,0.018 9.311,1.936 0.323,3.554 1.046,7.269 -0.333,10.976 z"
   inkscape:connector-curvature="0"
   id="path45"
   style="fill:#3d8e8e;fill-rule:evenodd" />
	<path
   d="m 535.005,328.041 c 3.657,-1.022 7.315,-2.045 12.18,-3.405 5.524,22.659 -1.104,43.083 -7.704,64.484 16.723,-9.979 33.445,-19.956 51.369,-30.65 -1.871,9.423 -2.85,17.771 -5.253,25.688 -3.995,13.158 -4.296,27.157 -9.543,39.978 -0.607,1.483 -0.96,3.539 -2.105,4.264 -18.78,11.883 -37.667,23.598 -56.55,35.316 -0.35,0.217 -0.951,0.027 -2.49,0.027 5.383,-21.647 10.678,-42.941 15.973,-64.234 -13.046,12.859 -27.066,22.753 -43.885,28.492 -1.262,-1.408 -3.782,-0.97 -4.558,-3.1 -0.107,-0.484 -0.109,-0.968 0.002,-1.452 2.997,-3.731 7.608,-4.031 11.668,-5.508 1.657,-0.223 3.575,0.186 4.469,-1.877 2.668,-3.155 6.084,-5.234 9.825,-6.853 2.747,0.334 3.69,-1.708 4.727,-3.622 1.827,-2.801 4.238,-5.102 6.465,-7.552 12.454,-13.707 19.316,-29.947 21.93,-48.126 1.711,-4.658 0.596,-9.56 1.202,-14.306 0.237,-1.905 2.761,-2.503 2.651,-4.774 -1.576,-1.824 -3.561,-0.783 -5.436,-0.653 -1.986,0.137 -4.448,1.236 -4.937,-2.137 z"
   inkscape:connector-curvature="0"
   id="path47"
   style="fill:#9cd2d2;fill-rule:evenodd" />
	<path
   d="m 836.809,272.842 c 0,-3.303 0,-6.604 0,-10.066 -72.973,0 -145.473,0 -218.592,0 0,4.162 0,7.58 -10e-4,10.996 -2.964,-8.348 -0.072,-16.96 -1.128,-25.415 -0.385,-3.083 0.142,-6.279 0.253,-9.423 0,0 0.312,-0.286 0.312,-0.287 0,4.459 0,8.919 0,13.479 23.569,0 46.632,0.059 69.693,-0.012 44.082,-0.137 88.164,-0.352 132.245,-0.509 1.816,-0.006 3.634,0.24 5.45,0.368 3.642,0.574 7.281,1.148 11.279,1.779 1.311,6.388 3.166,12.634 0.489,19.09 z"
   inkscape:connector-curvature="0"
   id="path49"
   style="fill:#9cd2d2;fill-rule:evenodd" />
	<path
   d="m 726.846,220.105 c -0.378,-5.076 -0.756,-10.152 -1.152,-15.479 -1.198,-0.225 -2.299,-0.61 -3.398,-0.61 -44.552,-0.034 -89.104,-0.034 -133.654,-0.023 -0.824,0 -1.65,0.186 -2.474,0.286 -16.353,-0.158 -32.704,-0.317 -49.056,-0.477 13.578,-1.694 27.211,-0.383 40.814,-0.741 2.436,-0.064 4.875,-0.009 7.742,-0.009 0.215,-4.142 0.393,-7.562 0.622,-11.982 53.175,0 106.163,0 159.846,0 1.947,3.42 0.507,7.704 0.718,12.847 -6.439,0 -12.609,0 -20.008,0 0,6.033 0,11.11 0,16.188 z"
   inkscape:connector-curvature="0"
   id="path51"
   style="fill:#9cd2d2;fill-rule:evenodd" />
	<path
   d="m 74.747,168.398 c 0.2,0.921 0.399,1.842 0.685,3.158 5.019,-7.083 9.807,-13.841 15.276,-21.562 8.988,14.504 17.648,28.479 26.307,42.452 -4.481,10.864 -12.632,19.402 -18.618,29.317 -2.733,4.526 -5.856,8.817 -9.003,13.513 -9.44,-14.258 -20.085,-27.564 -28.39,-42.459 0,-0.001 -0.045,0.115 -0.044,0.114 3.327,-8.891 12.666,-14.403 13.787,-24.533 z"
   inkscape:connector-curvature="0"
   id="path53"
   style="fill:#63acac;fill-rule:evenodd" />
	<path
   d="m 448.333,332.13 c 0.348,-0.5 0.696,-0.999 1.044,-1.499 0.563,0.138 1.125,0.275 1.688,0.414 1.209,-0.171 2.262,0.119 3.284,0.836 10.496,7.357 21.084,14.591 30.696,23.127 1.72,1.187 3.892,1.938 4.303,4.515 -0.8,3.668 -3.732,4.041 -6.769,4.251 -17.151,11.632 -34.302,23.263 -52.156,35.37 6.089,-22.785 11.999,-44.9 17.91,-67.014 z"
   inkscape:connector-curvature="0"
   id="path55"
   style="fill:#3f3f3f;fill-rule:evenodd" />
	<path
   d="m 482.579,363.773 c 1.968,-1.373 3.935,-2.747 6.118,-4.271 -1.585,-1.23 -3.063,-2.378 -4.542,-3.524 -0.988,-8.802 3.838,-16.42 5.086,-24.792 0.854,-5.731 2.271,-11.421 4.384,-16.882 0.354,-0.913 0.501,-1.915 -0.328,-3.051 -13.5,5.937 -23.723,17.641 -37.07,21.875 -3.107,-0.838 -3.395,-2.661 -4.201,-4.068 0,0 -0.046,-0.065 -0.047,-0.066 7.008,-7.196 16.468,-10.8 24.441,-16.63 8.588,-6.278 17.882,-11.592 29.144,-18.778 -5.287,21.744 -9.957,40.951 -15.215,62.576 14.181,-13.318 27.621,-23.754 44.655,-28.12 3.528,2.661 6.589,-1.06 10.09,-0.719 3.261,1.382 3.163,4.107 2.526,7.426 -1.08,0.099 -2.207,0.201 -3.148,0.286 -0.447,5.184 -0.869,10.092 -1.291,15 -3.145,-2.302 -1.887,-5.721 -2.223,-8.737 -0.24,-2.158 0.473,-4.288 0.172,-6.431 -0.389,-0.968 -0.909,-1.777 -2.153,-1.643 -0.362,0.115 -0.728,0.201 -1.095,0.286 -0.977,0.26 -1.616,1.045 -2.43,1.562 -0.711,0.444 -1.48,0.732 -2.299,0.897 -1.039,0.114 -2.008,0.442 -2.906,0.984 -0.38,0.194 -0.778,0.333 -1.188,0.443 -1.759,0.086 -3.191,0.933 -4.541,1.97 -1.309,0.815 -2.656,1.553 -4.109,2.083 -2.561,0.758 -4.965,1.796 -6.832,3.802 -0.256,0.379 -0.557,0.714 -0.886,1.025 -1.165,0.816 -1.624,2.235 -2.666,3.157 -10.112,8.353 -18.459,18.247 -24.555,29.814 -4.762,9.034 -7.88,18.739 -7.551,29.155 0.146,4.614 -2.321,9.154 -0.296,13.776 0.453,0.755 1.193,1.152 1.957,1.512 0.983,0.778 2.382,0.505 3.354,1.31 1.825,0.362 3.626,0.756 4.061,2.999 -5.055,1.266 -10.109,2.53 -15.737,3.939 -4.299,-19.913 -1.456,-38.15 6.894,-55.945 1.793,-3.818 6.123,-7.044 4.427,-12.22 z"
   inkscape:connector-curvature="0"
   id="path57"
   style="fill:#9cd2d2;fill-rule:evenodd" />
	<path
   d="m 415.714,102.153 c 0.128,-24.712 0.256,-49.423 0.384,-74.135 1.438,0.144 2.876,0.286 4.583,0.456 0,4.83 0,9.269 0,14.229 -0.648,0.692 -1.631,1.741 -3.435,3.667 3.792,16.163 3.146,33.256 2.689,49.301 2.324,2.14 3.62,3.333 4.916,4.527 -2.762,4.545 -5.156,9.368 -8.349,13.585 -13.01,17.183 -30.557,23.26 -51.574,20.348 -2.396,1.66 -4.894,0.571 -7.138,-0.106 -13.137,-3.969 -22.751,-12.47 -29.863,-23.975 -1.083,-1.752 -2.503,-3.668 -1.017,-5.959 -1.058,-5.083 0.32,-9.658 2.917,-13.979 4.849,19.968 16.58,33.745 37.176,37.366 20.173,3.546 35.699,-5.354 47.263,-21.694 0.733,-1.034 0.977,-2.413 1.448,-3.631 z"
   inkscape:connector-curvature="0"
   id="path59"
   style="fill:#3d8e8e;fill-rule:evenodd" />
	<path
   d="m 430.99,188.081 c -0.338,1.327 -0.676,2.653 -1.014,3.98 -30.965,0.042 -61.931,0.084 -92.896,0.126 -2.427,-0.128 -4.854,-0.256 -7.343,-0.388 -2.31,-3.229 -2.067,-6.471 -0.805,-9.805 -0.694,6.389 2.257,8.285 8.471,8.127 14.191,-0.363 28.532,-2.098 42.483,-1.409 17.152,0.847 34.078,-2.346 51.104,-0.631 z"
   inkscape:connector-curvature="0"
   id="path61"
   style="fill:#3d8e8e;fill-rule:evenodd" />
	<path
   d="m 500.096,191.134 c -3.106,0 -6.213,0 -9.743,0 -1.39,-17.897 0.842,-35.291 -1.307,-52.345 -4.144,-1.344 -7.515,-0.499 -10.888,0.236 2.556,-4.759 7,-3.142 10.642,-2.625 3.641,0.517 3.25,4.06 3.156,6.886 -0.484,14.659 -0.92,29.315 0.524,44.2 10.03,1.53 19.465,0.887 28.14,-4.589 2.417,-1.525 4.929,-1.777 7.592,-0.809 -8.445,5.894 -18.108,8.007 -28.116,9.046 z"
   inkscape:connector-curvature="0"
   id="path63"
   style="fill:#3d8e8e;fill-rule:evenodd" />
	<path
   d="m 1007.868,115.02 c -1.905,-13.14 -0.366,-26.354 -0.852,-39.524 -0.079,-2.147 -0.061,-4.3 -0.088,-6.449 0.412,-0.973 0.825,-1.945 1.237,-2.918 -0.099,16.297 -0.197,32.594 -0.297,48.891 z"
   inkscape:connector-curvature="0"
   id="path65"
   style="fill:#9cd2d2;fill-rule:evenodd" />
	<path
   d="m 836.5,198.621 c 0.07,5.244 0.14,10.488 0.209,15.724 -0.069,-5.247 -0.139,-10.486 -0.209,-15.724 z"
   inkscape:connector-curvature="0"
   id="path67"
   style="fill:#3d8e8e;fill-rule:evenodd" />
	<path
   d="m 16.017,192.978 c 0,-43.107 0,-86.215 0,-129.634 3.576,0 5.825,0 8.893,0 0,7.289 0,14.69 0,22.092 -0.662,1.77 -0.399,3.614 -0.401,5.427 -0.017,21.576 -0.003,43.152 -0.026,64.729 -0.002,1.812 0.295,3.653 -0.311,5.435 10e-4,1.669 0.002,3.339 0.003,5.008 0.496,2.999 0.536,5.996 -0.022,8.993 -0.045,6.026 -0.091,12.053 -0.137,18.079 -2.677,0.621 -5.347,0.812 -7.999,-0.129 z"
   inkscape:connector-curvature="0"
   id="path69"
   style="fill:#3f3f3f;fill-rule:evenodd" />
	<path
   d="m 24.172,161.025 c 0.246,-25.196 0.492,-50.393 0.738,-75.59 0.025,24.258 0.059,48.515 0.04,72.772 0,0.94 -0.507,1.879 -0.778,2.818 z"
   inkscape:connector-curvature="0"
   id="path71"
   style="fill:#f7f7f7;fill-rule:evenodd" />
	<path
   d="m 24.153,175.026 c 0.007,-2.998 0.015,-5.995 0.022,-8.993 1.268,3.001 1.291,5.998 -0.022,8.993 z"
   inkscape:connector-curvature="0"
   id="path73"
   style="fill:#f7f7f7;fill-rule:evenodd" />
	<path
   d="m 16.017,192.978 c 2.667,0.042 5.333,0.085 8,0.128 -2.693,1.591 -5.363,1.771 -8,-0.128 z"
   inkscape:connector-curvature="0"
   id="path75"
   style="fill:#f7f7f7;fill-rule:evenodd" />
	<path
   d="m 312.905,84.109 c 0.002,20.346 -16.227,35.896 -37.396,35.835 -18.138,-0.053 -34.415,-16.995 -34.44,-35.849 -0.026,-19.044 15.883,-35.241 34.594,-35.22 21.452,0.025 37.24,14.962 37.242,35.234 z"
   inkscape:connector-curvature="0"
   id="path77"
   style="fill:#3d8e8e;fill-rule:evenodd" />
	<path
   d="m 326.911,104.091 c 7.873,16.087 20.318,26.39 38.018,30.04 -3.38,3.52 -8.538,3.224 -12.338,5.626 -10.07,6.364 -19.896,13.088 -24.22,25.08 -0.238,0.661 -1.123,1.09 -2.399,2.264 -6.382,-16.423 -18.271,-26.431 -35.87,-31.731 5.629,-2.879 10.215,-4.706 14.231,-7.387 7.947,-5.306 14.695,-11.905 19.355,-20.42 0.763,-1.394 1.15,-3.249 3.223,-3.472 z"
   inkscape:connector-curvature="0"
   id="path79"
   style="fill:#f7f7f7;fill-rule:evenodd" />
	<path
   d="m 207.968,74.045 c 4.995,-5.26 11.111,-3.372 16.612,-2.113 1.378,-2.013 2.36,-3.446 3.34,-4.879 -3.87,13.71 -3.819,27.129 2.96,40.051 -3.324,0.665 -2.515,5.015 -6.013,6.238 -14.963,-5.688 -31.839,4.471 -47.761,-3.879 2.412,-5.754 -0.966,-12.059 4.417,-17.233 0.245,4.8 0.49,9.601 0.742,14.401 0.75,1.542 2.205,1.201 3.487,1.313 1.599,0.326 3.001,1.37 4.805,0.972 10.482,-2.314 21.084,-2.325 32.714,-1.175 -3.961,-10.569 -4.918,-21.036 -4.182,-31.687 -3.841,-1.533 -8.128,1.595 -11.121,-2.009 z"
   inkscape:connector-curvature="0"
   id="path81"
   style="fill:#3d8e8e;fill-rule:evenodd" />
	<path
   d="m 469.442,20.307 c 0,26.052 0,51.895 0,78.39 -12.746,0.189 -22.839,-5.446 -30.507,-14.795 -9.83,-11.984 -12.054,-26.104 -5.571,-40.171 7.036,-15.267 21.949,-24.404 36.078,-23.424 z"
   inkscape:connector-curvature="0"
   id="path83"
   style="fill:#f7f7f7;fill-rule:evenodd" />
	<path
   d="m 207.968,74.045 c 4.274,-0.28 8.549,-0.562 13.187,-0.865 0,6.293 -0.394,12.579 0.11,18.791 0.509,6.277 2.679,12.258 5.818,18.801 -14.339,-3.061 -27.88,-2.463 -41.732,1.517 0.175,-1.887 0.289,-3.115 0.402,-4.345 3.211,-12.062 3.149,-24.079 -1.665,-37.198 8.658,2.734 16.167,4.089 23.88,3.299 z"
   inkscape:connector-curvature="0"
   id="path85"
   style="fill:#f7f7f7;fill-rule:evenodd" />
	<path
   d="m 820.038,163.993 c 0,-38.112 0,-76.225 0,-114.764 37.264,0 75.278,0 114.159,0 0,38.1 0,75.842 0,114.762 -37.742,0 -75.952,0 -114.162,0 l 0.003,0.002 z"
   inkscape:connector-curvature="0"
   id="path87"
   style="fill:#f7f7f7;fill-rule:evenodd" />
	<path
   d="m 820.035,163.991 c 1.436,3.97 4.758,4.09 8.188,4.042 24.093,-0.334 48.181,1.75 72.814,-0.506 -5.849,7.259 -14.215,2.712 -21.349,5.862 4.725,4.513 9.947,1.499 14.816,3.202 0.686,0.807 1.729,2.035 3.258,3.837 4.506,0 9.395,0 15.717,0 -5.288,6.15 -11.729,1.798 -18.146,5.4 6.433,0 11.031,0 15.629,0 10e-4,0.399 10e-4,0.8 0.002,1.2 -20.18,0 -40.358,0 -62.434,0 -3.827,-3.093 -9.779,2.085 -15.764,0.633 -0.74,-2.801 -1.449,-5.479 -2.326,-8.793 0.284,-0.948 0.752,-2.512 1.418,-4.738 -5.01,-1.538 -10.609,-1.016 -14.813,-5.485 -1.961,4.887 -0.389,7.722 1.87,9.617 3.139,1.521 5.763,-1.572 8.367,1.689 -7.152,0.688 -12.86,4.008 -18.538,7.612 -15.621,-5.259 -10.938,-18.632 -10.354,-29.045 0.992,-17.717 -0.732,-35.279 -0.756,-52.912 -0.026,-20.507 -3.741,-41.022 0.354,-61.156 -1.883,-5.257 -1.883,-5.257 -1.62,-8.357 2.38,-3.349 5.604,-4.308 9.584,-4.099 20.498,1.076 40.993,2.355 61.507,2.868 14.05,0.351 28.127,-0.521 42.194,-0.689 10.985,-0.133 21.975,-0.027 33.053,1.214 -3.695,5.511 -9.766,3.029 -13.609,5.378 -1.65,1.903 0.092,3.139 0.303,4.892 -5.691,0 -11.072,0 -16.385,0 -2.684,-7.137 -10.822,-9.492 -15.957,-3.831 -5.523,6.091 -11.36,4.13 -16.697,1.758 -3.699,-1.644 -6.93,-1.887 -10.479,-1.278 -14.548,2.493 -29.237,3.233 -43.95,3.658 -1.731,0.051 -3.486,-0.687 -5.243,-1.062 -6.071,2.886 -5.518,8.595 -4.372,13.413 1.678,7.067 2.053,13.657 -0.09,20.728 -1.816,5.991 1.521,12.039 1.629,18.069 0.322,17.763 -0.064,35.538 0.268,53.3 0.079,4.263 -3.655,7.685 -1.853,12.059 0.682,1.834 2.31,1.467 3.766,1.522 l -0.002,-0.002 z"
   inkscape:connector-curvature="0"
   id="path89"
   style="fill:#3d8e8e;fill-rule:evenodd" />
	<path
   d="m 710.707,167.147 c -26.818,-0.021 -49.77,-22.692 -49.673,-49.066 0.103,-27.963 22.61,-50.168 50.692,-50.011 26.532,0.148 49.007,22.948 49.004,49.714 -0.002,27.423 -22.258,49.385 -50.023,49.363 z"
   inkscape:connector-curvature="0"
   id="path91"
   style="fill:#3f3f3f;fill-rule:evenodd" />
	<path
   d="m 516.908,221.106 c 17.045,0 33.795,0 51.193,0 0,17.345 0,34.674 0,52.419 -16.74,0 -33.734,0 -51.193,0 0,-17.501 0,-34.856 0,-52.419 z"
   inkscape:connector-curvature="0"
   id="path93"
   style="fill:#f7f7f7;fill-rule:evenodd" />
	<path
   d="m 635.398,151.461 c -11.996,-2.808 -22.996,-4.341 -34.029,-4.227 -10.9,0.112 -21.766,1.579 -33.481,5.273 9.188,-23.03 9.804,-44.965 -0.414,-67.885 22.779,5.044 44.411,5.234 67.002,-0.535 -8.779,22.787 -8.78,44.591 0.922,67.374 z"
   inkscape:connector-curvature="0"
   id="path95"
   style="fill:#3d8e8e;fill-rule:evenodd" />
	<path
   d="m 479.555,149.437 c 0,32.512 0,64.563 0,96.603 -18.208,-1.454 -36.111,-21.612 -38.363,-43.373 -2.484,-23.991 12.55,-45.19 38.363,-53.23 z"
   inkscape:connector-curvature="0"
   id="path97"
   style="fill:#3f3f3f;fill-rule:evenodd" />
	<path
   d="m 444.949,325.932 c -14.236,9.8 -28.244,19.958 -44.486,28.855 1.797,-7.464 3.092,-13.778 4.856,-19.957 2.837,-9.934 5.968,-19.782 9.049,-29.644 0.149,-0.478 1.01,-0.732 1.539,-1.091 1.843,-1.008 3.243,0.142 4.535,1.105 7.341,5.473 14.637,11.007 21.87,16.623 1.377,1.071 2.251,2.424 2.637,4.109 z"
   inkscape:connector-curvature="0"
   id="path99"
   style="fill:#f7f7f7;fill-rule:evenodd" />
	<path
   d="m 404.918,296.213 c -13.861,9.88 -27.722,19.76 -41.752,29.761 -4.393,-6.379 0.386,-9.941 1.537,-13.735 3.805,-12.551 8.669,-24.779 13.127,-37.132 2.173,-0.523 3.898,0.505 5.466,1.742 5.841,4.605 11.896,8.925 17.811,13.429 1.927,1.466 4.146,2.932 3.811,5.935 z"
   inkscape:connector-curvature="0"
   id="path101"
   style="fill:#f7f7f7;fill-rule:evenodd" />
	<path
   d="m 452.027,329.06 c 0.997,0.786 1.994,1.571 3.593,2.83 13.952,-6.204 25.592,-17.109 39.894,-24.438 2.083,8.183 -3.387,14.789 -3.995,22.3 -0.677,8.362 -5.333,16.08 -5.887,24.683 -0.035,0.544 -0.963,1.03 -1.476,1.544 -11.031,-8.312 -22.062,-16.622 -33.091,-24.933 0.32,-0.662 0.641,-1.324 0.962,-1.986 z"
   inkscape:connector-curvature="0"
   id="path103"
   style="fill:#f7f7f7;fill-rule:evenodd" />
	<path
   d="m 444.949,325.932 c -9.681,-7.278 -19.362,-14.558 -29.042,-21.836 1.864,-1.645 3.728,-3.289 5.592,-4.934 1.141,-2.945 4.015,-3.21 6.442,-4.165 2.418,-1.48 4.836,-2.961 7.254,-4.442 1.102,-2.011 3.24,-2.413 5.083,-3.274 l -0.078,0.089 c 0.876,-1.391 2.107,-2.202 3.769,-2.311 1.402,-0.861 2.805,-1.724 4.208,-2.585 1.414,-1.954 3.206,-3.323 5.666,-3.657 1.224,-0.676 2.448,-1.353 4.203,-2.322 -0.354,2.244 -0.619,3.917 -0.883,5.59 0.188,0.338 0.132,0.628 -0.168,0.871 -1.957,7.062 -3.914,14.123 -5.871,21.185 0.948,1.907 0.143,3.406 -1.118,4.799 -1.24,4.04 -2.481,8.08 -3.721,12.12 0.755,1.327 0.978,2.582 -0.492,3.606 -0.282,0.421 -0.563,0.844 -0.844,1.266 z"
   inkscape:connector-curvature="0"
   id="path105"
   style="fill:#3f3f3f;fill-rule:evenodd" />
	<path
   d="m 404.918,296.213 c -9.029,-7.036 -18.059,-14.071 -27.088,-21.106 0.098,-0.695 0.195,-1.391 0.292,-2.086 0.74,-1.589 2.162,-2.016 3.731,-2.192 3.11,-2.145 6.22,-4.29 9.331,-6.435 1.832,-3.49 5.714,-3.743 8.656,-5.48 1.428,-0.973 2.856,-1.945 4.284,-2.917 3.459,-3.367 7.515,-5.838 11.844,-7.9 1.144,-0.611 2.288,-1.223 4.166,-2.226 -0.729,2.771 -1.315,5.002 -1.902,7.232 0.377,3.258 -0.719,6.125 -2.343,8.853 -2.99,10.015 -5.983,20.028 -8.966,30.045 -0.45,1.512 -0.135,3.379 -2.005,4.212 z"
   inkscape:connector-curvature="0"
   id="path107"
   style="fill:#3f3f3f;fill-rule:evenodd" />
	<path
   d="m 415.968,248.096 c -3.949,2.634 -7.897,5.268 -11.845,7.9 3.201,-3.756 6.103,-7.957 11.845,-7.9 z"
   inkscape:connector-curvature="0"
   id="path109"
   style="fill:#f7f7f7;fill-rule:evenodd" />
	<path
   d="m 399.84,258.913 c -2.886,1.827 -5.771,3.654 -8.657,5.481 0.62,-5.408 5.254,-4.472 8.657,-5.481 z"
   inkscape:connector-curvature="0"
   id="path111"
   style="fill:#f7f7f7;fill-rule:evenodd" />
	<path
   d="m 415.889,261.955 c 0.781,-2.951 1.563,-5.902 2.343,-8.853 1.853,3.649 0.676,6.495 -2.343,8.853 z"
   inkscape:connector-curvature="0"
   id="path113"
   style="fill:#f7f7f7;fill-rule:evenodd" />
	<path
   d="m 427.942,294.997 c -2.148,1.389 -4.297,2.778 -6.444,4.166 -1.676,-1.842 0.411,-3.327 1.108,-2.89 2.507,1.571 2.571,-5.705 5.336,-1.276 z"
   inkscape:connector-curvature="0"
   id="path115"
   style="fill:#f7f7f7;fill-rule:evenodd" />
	<path
   d="m 450.005,308.938 c 0.373,-1.601 0.746,-3.2 1.118,-4.8 2.882,1.641 1.157,3.78 0.306,5.469 -0.665,1.319 -1.137,0.034 -1.424,-0.669 z"
   inkscape:connector-curvature="0"
   id="path117"
   style="fill:#f7f7f7;fill-rule:evenodd" />
	<path
   d="m 445.792,324.665 c 0.164,-1.202 0.328,-2.404 0.492,-3.606 1.332,0.264 2.375,0.835 2.53,2.493 -0.593,1.317 -1.266,2.528 -3.022,1.113 z"
   inkscape:connector-curvature="0"
   id="path119"
   style="fill:#f7f7f7;fill-rule:evenodd" />
	<path
   d="m 453.842,278.816 c -1.889,1.22 -3.778,2.439 -5.667,3.658 0.961,-2.66 2.545,-4.35 5.667,-3.658 z"
   inkscape:connector-curvature="0"
   id="path121"
   style="fill:#f7f7f7;fill-rule:evenodd" />
	<path
   d="m 456.994,282.955 c -0.059,-0.313 -0.003,-0.604 0.168,-0.871 0.673,-0.232 1.345,-0.466 2.446,-0.847 -0.329,2.232 -0.81,3.161 -2.614,1.718 z"
   inkscape:connector-curvature="0"
   id="path123"
   style="fill:#f7f7f7;fill-rule:evenodd" />
	<path
   d="m 381.854,270.828 c -1.245,0.73 -2.489,1.462 -3.732,2.192 -0.013,-2.871 1.765,-2.693 3.732,-2.192 z"
   inkscape:connector-curvature="0"
   id="path125"
   style="fill:#f7f7f7;fill-rule:evenodd" />
	<path
   d="m 440.278,287.28 c -1.695,1.093 -3.39,2.185 -5.084,3.276 0.667,-2.689 2.693,-3.266 5.084,-3.276 z"
   inkscape:connector-curvature="0"
   id="path127"
   style="fill:#f7f7f7;fill-rule:evenodd" />
	<path
   d="m 443.969,285.059 c -1.256,0.771 -2.513,1.54 -3.77,2.311 0.794,-1.527 0.999,-4.014 3.77,-2.311 z"
   inkscape:connector-curvature="0"
   id="path129"
   style="fill:#f7f7f7;fill-rule:evenodd" />
	<path
   d="m 525.404,452.506 c 1.611,-20.482 8.623,-38.027 12.111,-53.759 14.418,-9.071 26.781,-16.849 38.938,-24.495 3.279,1.003 3.904,3.114 3.328,5.625 -2.173,9.458 -5.47,18.791 -6.42,28.361 -1.071,10.798 -7.43,16.923 -15.348,22.37 -10.208,7.025 -20.57,13.83 -32.609,21.898 z"
   inkscape:connector-curvature="0"
   id="path131"
   style="fill:#f7f7f7;fill-rule:evenodd" />
	<path
   d="m 542.17,332.107 c 2.415,5.858 0.52,11.96 1.012,17.927 -2.548,21.063 -11.227,39.081 -26.66,53.76 -0.951,0.904 -1.689,2.031 -2.527,3.055 -1.66,1.085 -2.352,3.602 -4.928,3.331 -3.378,2.29 -6.757,4.579 -10.136,6.868 -0.872,1.475 -2.121,2.221 -3.869,2 -4.039,1.651 -8.079,3.302 -12.118,4.953 -1.125,0.921 -2.402,1.308 -3.849,1.104 -0.842,-0.191 -2.108,0.414 -2.209,-1.173 -0.138,-2.879 1.5,-4.987 3.041,-7.169 17.715,-25.091 35.928,-49.825 53.545,-74.986 1.993,-2.848 3.683,-5.921 6.132,-8.44 0.771,-0.582 1.776,-0.679 2.566,-1.23 z"
   inkscape:connector-curvature="0"
   id="path133"
   style="fill:#3f3f3f;fill-rule:evenodd" />
	<path
   d="m 509.066,410.18 c 1.644,-1.11 3.287,-2.221 4.929,-3.331 -1.222,1.734 -1.199,5.308 -4.929,3.331 z"
   inkscape:connector-curvature="0"
   id="path135"
   style="fill:#f7f7f7;fill-rule:evenodd" />
	<path
   d="m 495.061,419.048 c 1.29,-0.667 2.581,-1.334 3.87,-2 -0.286,2.61 -1.694,3.047 -3.87,2 z"
   inkscape:connector-curvature="0"
   id="path137"
   style="fill:#f7f7f7;fill-rule:evenodd" />
	<path
   d="m 479.094,425.104 c 1.284,-0.368 2.567,-0.735 3.85,-1.104 -0.003,0.334 -0.005,0.667 -0.009,1.001 -1.267,0.549 -2.52,1.587 -3.841,0.103 z"
   inkscape:connector-curvature="0"
   id="path139"
   style="fill:#f7f7f7;fill-rule:evenodd" />
	<path
   d="m 102.51,192.835 c -4.174,6.233 -8.111,12.112 -12.646,18.885 -4.663,-6.507 -8.921,-12.447 -13.468,-18.791 4.542,-6.253 8.781,-12.091 13.357,-18.391 5.703,5.275 8.185,12.045 12.757,18.297 z"
   inkscape:connector-curvature="0"
   id="path141"
   style="fill:#f7f7f7;fill-rule:evenodd" />
	<path
   d="m 540.907,333.785 c -21.341,30.049 -42.683,60.098 -64.023,90.146 -4.785,-7.89 -1.279,-16.352 -0.205,-23.963 2.972,-21.063 15.222,-37.343 31.058,-51.021 0.587,-0.508 1.495,-0.646 2.253,-0.955 1.03,-0.74 1.208,-2.067 2.033,-2.948 l -0.01,0.008 c 2.297,-2.271 5.531,-3.041 8.016,-5.009 1.324,-0.673 2.646,-1.346 3.971,-2.019 1.572,-0.939 3.576,-0.775 5.051,-1.967 0.316,-0.007 0.633,-0.021 0.949,-0.042 0.945,-0.528 2.092,-0.425 3.035,-0.96 0.654,-0.343 1.309,-0.686 1.962,-1.029 0.921,-0.794 2.22,-1.007 3.034,-1.968 l -0.019,0.011 c 1.459,-0.259 2.795,-0.314 2.895,1.716 z"
   inkscape:connector-curvature="0"
   id="path143"
   style="fill:#f7f7f7;fill-rule:evenodd" />
	<path
   d="m 520.029,340.043 c -1.821,3.029 -5.119,3.696 -8.016,5.009 1.793,-3.078 4.821,-4.179 8.016,-5.009 z"
   inkscape:connector-curvature="0"
   id="path145"
   style="fill:#9cd2d2;fill-rule:evenodd" />
	<path
   d="m 540.907,333.785 c -0.965,-0.572 -1.93,-1.145 -2.895,-1.717 1.401,-1.649 2.776,-0.516 4.157,0.039 -0.42,0.56 -0.841,1.119 -1.262,1.678 z"
   inkscape:connector-curvature="0"
   id="path147"
   style="fill:#9cd2d2;fill-rule:evenodd" />
	<path
   d="m 529.051,336.058 c -1.122,2.098 -3.094,2.014 -5.051,1.967 1.346,-1.523 3.081,-2.046 5.051,-1.967 z"
   inkscape:connector-curvature="0"
   id="path149"
   style="fill:#9cd2d2;fill-rule:evenodd" />
	<path
   d="m 538.031,332.059 c -0.266,1.807 -1.574,2.004 -3.034,1.968 1.011,-0.656 2.023,-1.312 3.034,-1.968 z"
   inkscape:connector-curvature="0"
   id="path151"
   style="fill:#9cd2d2;fill-rule:evenodd" />
	<path
   d="m 533.035,335.056 c -0.661,1.43 -1.687,1.707 -3.035,0.96 0.643,-1.489 1.693,-1.682 3.035,-0.96 z"
   inkscape:connector-curvature="0"
   id="path153"
   style="fill:#9cd2d2;fill-rule:evenodd" />
	<path
   d="m 512.023,345.044 c -0.011,1.442 -0.189,2.77 -2.033,2.949 0.678,-0.983 1.356,-1.967 2.033,-2.949 z"
   inkscape:connector-curvature="0"
   id="path155"
   style="fill:#9cd2d2;fill-rule:evenodd" />
	<path
   d="m 296.033,84.09 c -0.018,11.394 -7.917,19.056 -19.568,18.979 -10.971,-0.071 -18.545,-8.098 -18.51,-19.613 0.034,-10.921 8.576,-18.427 20.885,-18.352 9.285,0.058 17.209,8.807 17.193,18.986 z"
   inkscape:connector-curvature="0"
   id="path157"
   style="fill:#9cd2d2;fill-rule:evenodd" />
	<path
   d="m 307.817,134.714 c 3.5,-2.82 6.754,-5.135 9.632,-7.848 2.883,-2.719 5.391,-5.836 8.244,-8.978 5.288,7.139 12.341,12.514 19.972,17.525 -7.093,4.657 -13.778,9.473 -18.492,17.262 -5.398,-7.275 -11.397,-13.585 -19.356,-17.961 z"
   inkscape:connector-curvature="0"
   id="path159"
   style="fill:#3f3f3f;fill-rule:evenodd" />
	<path
   d="m 836.086,65.818 c 25.98,0 52.184,0 79.112,0 0,26.483 0,52.342 0,78.366 -25.999,0 -52.184,0 -79.112,0 0,-26.52 0,-52.399 0,-78.366 z"
   inkscape:connector-curvature="0"
   id="path161"
   style="fill:#3d8e8e;fill-rule:evenodd" />
	<path
   d="m 718.16,156.811 c -20.073,2.035 -35.012,-5.536 -42.97,-21.777 -7.464,-15.232 -5.026,-33.123 6.919,-45.085 8.088,-8.1 17.787,-13.277 29.887,-11.73 1.482,2.077 1.08,4.478 1.084,6.774 0.028,20.149 0.006,40.299 0.029,60.448 0.002,2.315 -0.256,4.673 0.564,6.69 1.093,2.169 4.164,2.076 4.487,4.68 z"
   inkscape:connector-curvature="0"
   id="path163"
   style="fill:#f7f7f7;fill-rule:evenodd" />
	<path
   d="m 718.16,156.811 c -2.088,-0.328 -4.176,-0.657 -7.11,-1.118 0,-16.064 -0.308,-32.152 0.115,-48.222 0.257,-9.748 -1.594,-19.57 0.829,-29.253 15.201,-1.157 31.508,10.639 37.344,27.012 5.33,14.956 -1.283,35.424 -14.398,44.553 -5.09,3.542 -10.489,6.349 -16.78,7.028 z"
   inkscape:connector-curvature="0"
   id="path165"
   style="fill:#3d8e8e;fill-rule:evenodd" />
	<path
   d="m 475.613,156.32 c 0,27.86 0,55.673 0,83.575 -18.215,-5.191 -30.399,-23.427 -29.749,-44.137 0.566,-17.987 14.112,-36.058 29.749,-39.438 z"
   inkscape:connector-curvature="0"
   id="path167"
   style="fill:#f7f7f7;fill-rule:evenodd" />
</g>
</svg>