<?xml version="1.0" encoding="UTF-8" standalone="no"?>
<!-- Created with Inkscape (http://www.inkscape.org/) -->

<svg
   xmlns:dc="http://purl.org/dc/elements/1.1/"
   xmlns:cc="http://creativecommons.org/ns#"
   xmlns:rdf="http://www.w3.org/1999/02/22-rdf-syntax-ns#"
   xmlns:svg="http://www.w3.org/2000/svg"
   xmlns="http://www.w3.org/2000/svg"
   xmlns:inkscape="http://www.inkscape.org/namespaces/inkscape"
   version="1.2"
   width="1024"
   height="752"
   viewBox="0 0 1024 752"
   id="Layer_1"
   xml:space="preserve"><metadata
   id="metadata163"><rdf:RDF><cc:Work
       rdf:about=""><dc:format>image/svg+xml</dc:format><dc:type
         rdf:resource="http://purl.org/dc/dcmitype/StillImage" /></cc:Work></rdf:RDF></metadata><defs
   id="defs161" />
<path
   d="m 442.742,588.301 c 6.393,-17.457 12.785,-34.915 19.438,-53.088 7.054,18.25 13.913,35.993 20.771,53.736 2.018,1.271 2.522,3.605 3.809,5.396 8.474,21.115 15.727,42.693 24.175,63.813 5.728,14.32 10.187,29.143 17.156,42.979 1.461,2.9 2.48,6.166 2.473,9.57 0.109,2.029 0.602,4.063 -0.075,6.083 -144.047,1.104 -288.094,2.201 -432.141,3.321 C 65.899,720.365 33.45,720.702 1,721 c 0,-0.333 0,-0.667 0,-1 7.31,-29.552 19.416,-57.5 28.853,-86.341 4.082,-12.474 8.534,-24.815 13.187,-37.088 0.785,-2.068 1.742,-3.934 3.477,-5.339 7.922,-22.137 15.843,-44.271 24.012,-67.1 6.389,22.792 12.584,44.895 18.78,66.994 2.279,1.18 3.074,3.291 3.76,5.598 9.292,31.233 17.87,62.672 26.8,94.008 1.944,6.822 3.844,13.662 6.352,21.172 2.565,-5.155 3.828,-9.913 5.496,-14.524 10.238,-28.29 19.928,-56.774 30.538,-84.933 2.049,-5.438 3.423,-11.122 5.744,-16.477 0.866,-1.998 1.584,-4.053 3.68,-5.149 7.592,-21.271 15.186,-42.544 23.137,-64.825 7.651,22.124 14.958,43.257 22.267,64.391 2.26,1.307 2.694,3.668 3.424,5.875 11.928,36.027 23.716,72.104 35.647,108.131 0.457,1.379 0.596,2.957 2.114,4.31 2.529,-4.56 3.749,-9.513 5.456,-14.218 12.092,-33.331 24.444,-66.568 36.34,-99.971 0.749,-2.103 1.564,-4.054 3.815,-4.949 7.968,-21.454 15.936,-42.908 24.105,-64.906 8.248,22.107 16.333,43.777 24.417,65.445 2.511,1.26 3.118,3.8 3.978,6.101 11.466,30.695 22.713,61.47 33.803,92.302 2.575,7.16 5.252,14.285 8.229,21.823 1.984,-2.287 2.52,-4.587 3.215,-6.712 12.042,-36.832 25.714,-73.105 37.632,-109.98 0.681,-2.122 1.712,-3.956 3.484,-5.337 z"
   inkscape:connector-curvature="0"
   id="path3"
   style="fill:#3f3f3f" />
<path
   d="m 557,1 c 54.666,0 109.334,0 164,0 1.537,2.342 -0.006,4.36 -0.668,6.473 -1.664,4.037 -3.276,8.096 -4.668,12.237 -1.516,6.813 -5.256,12.9 -6.861,20.148 6.383,3.922 13.367,6.121 19.961,9.127 3.169,1.444 6.69,2.436 7.521,6.556 -1.43,11.852 -2.253,23.848 -8.271,34.599 -0.85,1.518 -0.938,3.184 -0.979,4.847 -0.076,3.106 -0.914,6.142 -2.896,8.359 -4.772,5.345 -6.642,12.192 -10.127,18.163 -6.379,10.927 -15.248,19.887 -25.668,26.859 -20.045,13.414 -42.481,19.511 -66.391,16.299 -13.778,-1.85 -26.83,-7.363 -38.48,-15.65 -12.14,-8.636 -22.606,-18.8 -29.12,-32.249 -6.132,-12.659 -10.845,-25.82 -12.464,-40.079 -1.999,-17.607 -1.018,-34.761 3.938,-51.795 1.674,-5.751 4.427,-11.071 5.882,-16.881 C 552.456,5.032 554.354,2.672 557,1 z"
   inkscape:connector-curvature="0"
   id="path5"
   style="fill:#ff9393" />
<path
   d="M 65.122,509.963 C 43.748,509.977 22.374,509.987 1,510 1,459.667 1,409.333 1,359 c 1.815,-1.415 3.639,-2.941 5.045,0.431 38.647,-0.109 77.295,-0.222 115.943,-0.333 1.35,1.139 1.974,2.581 2.071,4.354 1.191,21.745 1.635,43.497 0.725,65.265 0.801,25.119 0.258,50.242 0.306,75.364 0.004,1.865 -0.238,3.67 -1.806,4.979 -4.267,0.941 -8.591,0.381 -12.884,0.407 -13.461,0.087 -26.923,0.017 -40.384,0.054 -1.632,0.002 -3.328,-0.402 -4.894,0.442 z"
   inkscape:connector-curvature="0"
   id="path7"
   style="fill:#3f3f3f" />
<path
   d="m 1025,729 c -26.947,-0.064 -53.895,-0.129 -80.842,-0.193 -2.003,-1.447 -2.544,-3.598 -2.124,-5.775 1.218,-6.312 -0.019,-12.562 -0.054,-18.836 -0.271,-47.895 -0.205,-95.788 -0.092,-143.683 0.036,-15.286 -0.199,-30.573 -0.031,-45.86 0.03,-2.789 -0.359,-5.719 1.774,-8.069 1.753,-1.562 3.912,-1.698 6.097,-1.707 22.967,-0.099 45.932,-0.074 68.897,-0.013 2.356,0.006 4.699,0.083 6.373,2.138 0,73.998 0,147.998 0,221.998 z"
   inkscape:connector-curvature="0"
   id="path9"
   style="fill:#1f3871" />
<path
   d="m 557,1 c -18.285,40.229 -21.048,80.745 2.344,119.533 18.797,31.168 48.152,45.973 84.631,41.945 33.642,-3.715 57.9,-21.865 74.019,-52.242 9.375,-17.671 14.022,-36.161 17.27,-55.406 1.916,-1.62 3.744,-0.583 5.507,0.267 7.276,3.51 14.36,7.379 21.157,11.751 1.798,1.156 3.695,2.332 3.416,4.959 -3.34,31.721 -18.505,58.158 -37.096,83.067 0.002,0.175 0.004,0.351 0.008,0.526 -0.057,0.352 -0.174,0.683 -0.341,0.997 -0.095,0.149 -0.198,0.294 -0.291,0.445 -0.203,0.293 -0.438,0.563 -0.68,0.823 -0.116,0.136 -0.245,0.261 -0.362,0.397 -0.231,0.282 -0.486,0.541 -0.742,0.802 -0.123,0.142 -0.256,0.268 -0.379,0.41 -0.246,0.3 -0.515,0.569 -0.789,0.843 -0.137,0.146 -0.281,0.277 -0.42,0.424 -0.287,0.302 -0.603,0.563 -0.931,0.816 -0.172,0.128 -0.349,0.24 -0.521,0.368 -0.369,0.24 -0.758,0.428 -1.168,0.584 -0.432,0.142 -0.871,0.214 -1.32,0.24 -1.225,0.119 -2.268,0.685 -3.025,1.578 -3.762,4.422 -8.705,7.492 -12.903,11.408 -0.555,1.07 -1.562,1.725 -2.354,2.578 -0.51,0.5 -1.076,0.923 -1.688,1.291 -2.945,1.513 -5.865,3.066 -8.488,5.123 -5.119,2.642 -10.639,4.319 -15.895,6.621 -3.586,1.57 -7.358,1.183 -11.045,1.69 C 585.113,202.976 529.82,168.38 512.127,96.025 504.217,63.688 509.948,31.926 521,1 c 12,0 24,0 36,0 z"
   inkscape:connector-curvature="0"
   id="path11"
   style="fill:#3d8e8e" />
<path
   d="m 1,90 c 61.891,0 123.781,0 186.863,0 0,13.364 0,26.372 0,40.299 -2.633,0.148 -5.948,0.493 -9.264,0.498 C 119.399,130.89 60.2,130.94 1,131 1,117.333 1,103.667 1,90 z"
   inkscape:connector-curvature="0"
   id="path13"
   style="fill:#9cd2d2" />
<path
   d="M 6.045,359.431 C 4.363,359.287 2.682,359.145 1,359 1,316.667 1,274.333 1,232 c 33.844,1.199 61.995,27.062 63.912,58.715 2.17,35.846 -20.637,62.469 -58.867,68.716 z"
   inkscape:connector-curvature="0"
   id="path15"
   style="fill:#3d8e8e" />
<path
   d="m 944.688,377.054 c 26.771,-0.018 53.541,-0.036 80.313,-0.054 0,26 0,52 0,78 -1.409,1.676 -3.292,2.1 -5.372,2.109 -23.453,0.109 -46.905,0.11 -70.358,-0.006 -1.346,-0.007 -2.645,-0.266 -3.897,-0.743 -0.635,-0.21 -1.19,-0.552 -1.67,-1.018 -1.297,-8.987 -2.563,-18.063 -1.685,-27.102 1.404,-14.404 0.437,-28.808 0.838,-43.201 0.077,-2.771 -0.443,-5.705 1.831,-7.985 z"
   inkscape:connector-curvature="0"
   id="path17"
   style="fill:#1f3871" />
<path
   d="m 944.919,455.374 c 26.694,-0.125 53.388,-0.249 80.081,-0.374 0,17.333 0,34.667 0,52 -26.973,0.117 -53.943,0.234 -80.916,0.352 -0.563,-0.3 -1.004,-0.726 -1.327,-1.272 -0.778,-1.162 -0.813,-2.497 -0.827,-3.817 -0.15,-14.197 -0.165,-28.393 1.014,-42.561 0.141,-1.716 0.47,-3.271 1.975,-4.328 z"
   inkscape:connector-curvature="0"
   id="path19"
   style="fill:#344e89" />
<path
   d="M 46.517,591.232 C 31.344,634.155 16.172,677.078 1,720 c 0,-9 0,-18 0,-27 1.284,-1.333 1.284,-2.667 0,-4 0,-32.667 0,-65.333 0,-98 15.172,0.078 30.344,0.155 45.517,0.232 z"
   inkscape:connector-curvature="0"
   id="path21"
   style="fill:#3f3f3f" />
<path
   d="M 719.148,6.755 C 719.766,4.837 720.383,2.918 721,1 c 5.666,0 11.334,0 17,0 55.328,19.165 105.563,45.733 135.928,98.801 20.087,35.107 22.499,72.773 11.563,111.466 -3.259,-1.339 -2.443,-4.207 -1.843,-6.362 4.135,-14.823 2.287,-29.933 0.813,-44.657 -1.24,-12.393 -5.119,-24.625 -10.859,-36.123 C 864.671,106.236 854.018,89.63 839.383,75.941 825.154,62.63 809.779,50.854 792.715,41.147 776.572,31.965 759.533,24.964 742.454,17.976 c -6.127,-2.507 -12.329,-4.895 -18.563,-7.165 -2.018,-0.736 -4.064,-1.655 -4.743,-4.056 z"
   inkscape:connector-curvature="0"
   id="path23"
   style="fill:#3f3f3f" />
<path
   d="m 1,180 c 62.327,0 124.653,0 187.57,0 0,3.338 0,6.997 0,12 -62.701,0 -125.136,0 -187.57,0 0,-4 0,-8 0,-12 z"
   inkscape:connector-curvature="0"
   id="path25"
   style="fill:#9cd2d2" />
<path
   d="m 1015.002,749.002 c 1.525,-0.083 3.05,-0.167 6.675,-0.366 -3.329,2.177 -5.003,3.271 -6.677,4.364 -0.334,0 -0.666,0 -1,0 -2.492,-0.506 -4.982,-1.011 -13.738,-2.787 8.868,-0.73 11.803,-0.974 14.735,-1.216 l 0,0.005 z"
   inkscape:connector-curvature="0"
   id="path27"
   style="fill:#ff9393" />
<path
   d="m 1,689 c 3,1.333 2.86,2.667 0,4 0,-1.333 0,-2.667 0,-4 z"
   inkscape:connector-curvature="0"
   id="path29"
   style="fill:#51bd51" />
<path
   d="m 765.342,71.807 c -10.027,-5.659 -20.054,-11.316 -30.08,-16.977 -9.623,-4.555 -19.246,-9.109 -29.479,-13.951 2.91,-7.285 5.887,-14.734 8.863,-22.184 2.254,-0.642 4.276,0.154 6.26,1.061 15.127,6.91 30.439,13.405 45.313,20.878 7.568,3.802 15.613,7.195 22.418,11.846 9.545,6.523 19.16,13.139 28.263,20.411 14.437,11.533 26.725,25.035 37.84,39.634 10.214,13.412 16.688,28.51 20.184,45.128 3.383,16.079 3.53,32.438 1.512,48.226 -2.981,23.312 -10.084,45.815 -24.867,65.022 -3.877,5.037 -8.565,9.286 -12.7,14.061 l 0.11,-0.075 c -0.508,0.576 -1.211,0.892 -1.812,1.342 -50.188,43.164 -113.065,51.952 -174.552,64.845 -46.262,9.699 -93.579,17.693 -128.881,53.584 -16.386,16.658 -23.004,37.754 -23.832,61.779 -17.912,-12.795 -34.746,-26.118 -35.664,-49.653 -1.137,-29.104 18.964,-44.509 41.8,-55.318 52.562,-24.881 110.901,-29.055 166.184,-44.317 48.972,-13.521 96.48,-30.505 132.308,-68.884 47.186,-50.549 33.531,-119.548 -32.047,-165.409 -5.566,-3.897 -11.42,-7.377 -17.141,-11.049 z"
   inkscape:connector-curvature="0"
   id="path31"
   style="fill:#3f3f3f" />
<path
   d="m 122.983,428.973 c -0.332,-23.292 -0.663,-46.583 -0.995,-69.875 42.425,-0.531 84.85,-1.064 127.274,-1.598 4.341,-3.889 8.597,-1.355 12.866,0.17 39.672,-0.121 79.345,-0.243 119.018,-0.364 3.949,1.649 3.849,5.452 3.735,8.548 -0.433,11.777 0.434,23.551 -0.218,35.33 -0.42,7.58 0.224,15.2 0.236,22.803 0.013,7.632 0.072,15.265 0.093,22.896 0.047,16.974 0.156,33.948 0.09,50.923 -0.011,2.963 0.373,6.088 -2.426,8.519 -2.463,1.086 -5.266,1.171 -8.104,1.188 -12.329,0.079 -24.66,-0.226 -36.988,0.15 -3.796,0.037 -7.593,0.073 -11.39,0.11 -4.248,-2.325 -3.604,-6.547 -3.527,-10.202 0.426,-19.979 0.101,-39.958 0.131,-59.937 0.009,-6.275 -1.129,-7.413 -7.253,-7.426 -34.636,-0.074 -69.294,-0.805 -103.902,0.222 -26.966,0.802 -53.91,0.31 -80.861,0.679 -2.709,0.037 -5.786,0.736 -7.779,-2.136 z"
   inkscape:connector-curvature="0"
   id="path33"
   style="fill:#3f3f3f" />
<path
   d="m 944.084,507.352 c 0.023,73.818 0.049,147.638 0.073,221.455 -32.448,0 -64.896,0 -98.272,0 0,-72.892 0,-145.601 0,-218.31 1.146,-1.125 0.098,-3.04 1.342,-3.97 1.85,-1.852 4.097,-1.643 6.222,-1.648 27.897,-0.09 55.798,-0.075 83.696,-0.017 2.493,0.005 5.05,-0.091 6.816,2.204 l 0.123,0.286 z"
   inkscape:connector-curvature="0"
   id="path35"
   style="fill:#4e669f" />
<path
   d="m 122.983,428.973 c 66.692,0 133.383,0 203.19,0 0,25.979 0,52.39 0.002,78.799 -65.604,0.547 -131.211,1.093 -196.818,1.639 -2.093,-0.233 -4.33,0.883 -6.284,-0.665 -0.03,-26.593 -0.06,-53.183 -0.09,-79.773 z"
   inkscape:connector-curvature="0"
   id="path37"
   style="fill:#3f3f3f" />
<path
   d="m 737.122,727.551 c -39.347,-10.408 -66.985,-37.869 -94.541,-65.279 -23.744,-23.618 -46.068,-48.48 -64.884,-78.856 44.117,22.267 86.438,43.624 129.594,65.403 3.798,-12.168 7.387,-23.667 10.977,-35.165 0.562,-0.548 0.519,-1.345 0.824,-2.005 0.65,-2.33 0.299,-4.722 0.471,-7.08 0.218,-2.203 1.41,-4.021 2.31,-5.954 2.256,-3.422 3.834,-7.058 3.604,-11.274 -0.063,-0.729 0.064,-1.429 0.324,-2.107 0.746,-1.471 1.699,-2.82 2.524,-4.247 0.356,-0.322 0.776,-0.526 1.243,-0.638 0.731,-0.049 1.369,0.18 1.892,0.664 0.539,0.721 1.111,1.367 1.653,-0.011 0.982,-2.495 -0.396,-4.504 -1.402,-6.589 -0.271,-1.718 -0.144,-3.475 -0.566,-5.175 -0.258,-3.418 1.652,-6.3 2.342,-9.483 0.521,-1.566 1.922,-2.695 2.193,-4.392 0.14,-0.438 0.334,-0.853 0.574,-1.241 1.512,-1.68 1.282,-3.712 1.141,-5.729 -0.207,-1.207 0.031,-2.352 0.464,-3.473 0.739,-1.486 1.831,-2.849 1.616,-4.671 1.729,-7.687 4.635,-15.038 6.402,-22.714 0.426,-1.844 1.604,-3.213 3.299,-4.104 16.088,8.844 32.176,17.688 48.265,26.531 1.879,6.835 -1.107,12.989 -3.003,19.186 -1.821,5.959 -3.711,11.933 -6.071,17.722 -1.421,1.927 -1.919,4.108 -1.758,6.469 -1.582,3.931 -1.198,8.527 -4.024,12.045 -1.085,1.241 -2.306,2.425 -1.787,4.336 0.563,3.438 -0.997,6.326 -2.382,9.263 -0.824,1.453 -2.115,2.729 -1.713,4.642 -1.536,8.856 -4.185,17.358 -8.129,25.445 -1.11,1.896 -2.201,3.798 -1.73,6.146 0.136,2.866 -1.426,5.23 -2.278,7.807 -1.013,1.886 -2.164,3.726 -1.881,6.021 -0.074,0.714 -0.254,1.401 -0.529,2.063 -0.699,1.422 -1.85,2.687 -1.532,4.463 0.288,2.785 -1.233,5.009 -2.271,7.386 -1.493,1.606 -1.979,3.581 -2.071,5.701 -0.127,0.455 -0.314,0.883 -0.554,1.288 -1.213,3.667 -2.684,7.263 -3.004,11.17 -0.097,0.706 -0.305,1.381 -0.586,2.033 -0.746,1.418 -1.819,2.719 -1.578,4.489 0.094,2.786 -1.465,5.062 -2.314,7.557 -1.388,1.765 -1.941,3.775 -1.785,6.005 -0.021,1.851 -1.015,3.249 -2.109,4.604 -1.985,1.545 -1.972,3.678 -1.709,5.883 0.207,3.878 -1.395,6.061 -5.521,5.865 z"
   inkscape:connector-curvature="0"
   id="path39"
   style="fill:#3d8e8e" />
<path
   d="m 189.201,297.598 c 0.155,32.408 -26.931,60.633 -58.41,60.868 -35.573,0.265 -63.717,-26.778 -63.772,-61.279 -0.053,-33.331 26.917,-60.877 59.929,-61.206 34.714,-0.347 62.087,26.746 62.253,61.617 z"
   inkscape:connector-curvature="0"
   id="path41"
   style="fill:#3d8e8e" />
<path
   d="m 262.13,357.67 c -4.304,-0.063 -8.607,-0.125 -12.888,-0.179 -33.766,-5.22 -57.046,-32.138 -54.749,-63.321 2.468,-33.514 27.059,-57.59 59.37,-58.129 31.414,-0.524 58.834,23.688 61.992,54.738 3.366,33.101 -18.397,60.198 -53.725,66.891 z"
   inkscape:connector-curvature="0"
   id="path43"
   style="fill:#3d8e8e" />
<path
   d="m 337.566,507.661 c 14.932,0 29.864,0 44.328,0 0,-45.791 0,-88.73 0,-131.67 0.422,-0.064 0.845,-0.129 1.267,-0.193 -0.672,-6.164 -1.344,-12.328 -2.015,-18.491 8.34,-0.141 16.679,-0.278 25.018,-0.419 13.036,-0.885 26.087,-0.236 39.13,-0.313 2.902,-0.017 5.912,-1.269 8.765,0.342 l 0.029,0.04 c 0.936,9.956 0.147,19.936 0.415,29.9 0.084,3.158 -0.233,6.324 0.203,9.475 0,36.71 0,73.421 0,111.329 -39.106,0 -78.123,0 -117.14,0 z"
   inkscape:connector-curvature="0"
   id="path45"
   style="fill:#3f3f3f" />
<path
   d="m 742.882,715.736 c 0.827,-1.813 1.654,-3.629 2.481,-5.442 1.146,-1.297 0.18,-3.124 1.121,-4.473 0.916,-3.065 1.832,-6.132 2.748,-9.198 0.826,-0.648 0.623,-1.783 1.201,-2.55 0.301,-1.286 0.602,-2.572 0.901,-3.858 2.965,-2.863 2.476,-6.763 3.095,-10.33 0.313,-0.539 0.624,-1.078 0.938,-1.619 1.244,-1.351 0.04,-3.345 1.236,-4.707 0.871,-3.016 1.743,-6.028 2.614,-9.044 0.896,-0.688 0.664,-1.821 1.063,-2.706 0.404,-1.277 0.809,-2.556 1.213,-3.834 0.734,-1.088 0.465,-2.461 1.023,-3.6 1.081,-3.417 2.163,-6.834 3.245,-10.251 0.332,-1.106 0.177,-2.334 0.824,-3.362 2.94,-9.404 5.883,-18.808 8.824,-28.211 0.616,-0.736 0.52,-1.748 0.977,-2.547 1.054,-3.798 2.107,-7.595 3.162,-11.393 0.586,-0.84 0.265,-2.045 1.115,-2.777 1.561,-4.594 3.12,-9.188 4.68,-13.782 1.027,-1.329 1.763,-2.752 1.456,-4.512 3.545,-12.526 7.09,-25.053 10.636,-37.578 18.789,52.949 40.236,106.202 8.339,161.226 -15.043,25.948 -39.688,33.377 -68.652,26.364 1.412,-2.264 2.824,-4.526 4.238,-6.79 1.252,-1.449 -0.096,-3.687 1.522,-5.026 z"
   inkscape:connector-curvature="0"
   id="path47"
   style="fill:#1f3871" />
<path
   d="m 944.688,377.054 c -0.207,25.962 -0.412,51.925 -0.618,77.886 -1.222,2.021 -3.255,2.145 -5.267,2.154 -28.785,0.15 -57.57,0.129 -86.354,0.012 -2.003,-0.009 -4.042,-0.076 -5.598,-2.196 -0.793,-2.986 -0.257,-6.32 -0.332,-9.615 -0.293,-12.797 0.127,-25.594 -0.37,-38.401 -0.341,-8.766 0.803,-17.578 -0.03,-26.38 -0.107,-1.144 0.271,-2.306 0.861,-3.343 32.569,-0.04 65.138,-0.079 97.708,-0.117 z"
   inkscape:connector-curvature="0"
   id="path49"
   style="fill:#4e669f" />
<path
   d="m 723.172,598.484 c -0.818,2.343 -1.637,4.685 -2.455,7.026 -1.65,1.81 0.311,4.548 -1.615,6.285 -0.279,0.629 -0.56,1.257 -0.837,1.87 -29.139,-54.748 -58.278,-109.482 -88.218,-165.716 40.701,22.372 79.915,43.926 119.129,65.479 -2.838,9.387 -5.677,18.772 -8.515,28.159 -0.686,0.647 -0.595,1.627 -1.021,2.385 -0.3,1.646 -0.6,3.294 -0.899,4.941 -1.474,1.64 0.162,4.255 -1.799,5.742 l -0.219,0.384 c -0.729,0.771 -0.583,1.926 -1.193,2.75 -0.931,3.764 -1.86,7.527 -2.791,11.29 -1.301,3.688 -0.254,8.143 -3.64,11.149 -0.209,0.416 -0.417,0.83 -0.625,1.246 -0.514,0.781 -0.401,1.808 -1,2.555 -0.223,1.08 -0.444,2.158 -0.668,3.237 -0.841,3.863 -1.831,7.672 -3.634,11.218 z"
   inkscape:connector-curvature="0"
   id="path51"
   style="fill:#1f3871" />
<path
   d="m 442.742,588.301 c -14.367,42.465 -28.735,84.93 -43.929,129.838 -16.097,-44.406 -31.258,-86.229 -46.416,-128.043 30.118,-0.593 60.231,-1.196 90.345,-1.795 z"
   inkscape:connector-curvature="0"
   id="path53"
   style="fill:#3f3f3f" />
<path
   d="m 303.878,589.563 c -15.039,41.545 -30.077,83.09 -46.036,127.179 -14.132,-43.808 -27.447,-85.082 -40.762,-126.356 28.934,-0.275 57.866,-0.548 86.798,-0.823 z"
   inkscape:connector-curvature="0"
   id="path55"
   style="fill:#3f3f3f" />
<path
   d="m 401.028,337.561 c -21.836,27.666 -56.071,21.754 -69.908,-12.076 -1.04,-1.345 -1.399,-2.93 -1.611,-4.564 0.191,-3.479 -0.21,-6.905 -0.923,-10.301 0.735,-17.205 16.162,-33.156 34.675,-35.525 -4.158,-3.143 -7.244,-6.791 -8.713,-11.668 -1.488,-4.938 -1.911,-9.731 0.445,-14.572 4.999,-10.269 13.776,-12.965 22.961,-12.637 10.09,0.359 17.417,7.502 19.411,17.169 1.901,9.216 -3.063,18.337 -13.362,24.422 4.293,1.641 8.17,3.88 11.643,6.774 5.27,4.391 5.751,7.11 1.925,12.779 -3.13,4.639 -5.362,9.439 -5.597,15.201 -0.293,7.195 1.913,13.396 6.264,18.98 1.118,1.434 2.517,2.689 2.996,4.551 0.12,0.515 0.049,1.006 -0.206,1.467 z"
   inkscape:connector-curvature="0"
   id="path57"
   style="fill:#cc9d3e" />
<path
   d="m 529.08,711.266 c -14.889,-39.205 -29.777,-78.412 -44.665,-117.617 0.219,-1.441 -0.781,-2.954 0.829,-5.133 27.506,0.416 55.584,-0.867 83.425,-0.438 2.444,3.279 1.665,6.311 0.474,8.932 -3.627,7.969 -5.364,16.521 -8.11,24.758 -0.357,1.082 -0.718,2.164 -1.074,3.246 -2.519,2.672 -2.617,6.4 -3.562,9.571 -3.674,12.354 -8.596,24.328 -11.33,36.962 -0.094,0.563 -0.186,1.124 -0.276,1.688 -3.315,5.199 -4.68,11.174 -6.313,16.965 -1.817,6.443 -3.352,12.945 -6.168,19.059 -0.671,1.447 -1.236,2.805 -3.23,2.007 z"
   inkscape:connector-curvature="0"
   id="path59"
   style="fill:#4e669f" />
<path
   d="m 171.679,590.821 c -14.958,42.196 -29.916,84.394 -45.624,128.709 -12.656,-44.22 -24.702,-86.313 -36.748,-128.403 27.458,-0.102 54.915,-0.203 82.372,-0.306 z"
   inkscape:connector-curvature="0"
   id="path61"
   style="fill:#3f3f3f" />
<path
   d="m 846.98,377.169 c 0,25.599 0,51.196 0,77.771 32.705,0 64.896,0 97.086,0 0.295,0.125 0.58,0.269 0.854,0.434 -0.321,17.232 -0.64,34.464 -0.96,51.693 -31.763,0 -63.525,0 -95.402,0 -0.944,1.217 -1.81,2.328 -2.674,3.436 -0.17,-43.374 -0.352,-86.744 -0.441,-130.114 -0.002,-1.075 1.002,-2.147 1.537,-3.22 z"
   inkscape:connector-curvature="0"
   id="path63"
   style="fill:#3d8e8e" />
<path
   d="M 838.867,284.961 C 858.39,261.144 871.279,234.42 874.707,203.505 882.219,135.736 845.956,92.011 793.1,58.965 768.264,43.437 740.875,31.992 714.647,18.696 c 1.502,-3.98 3.002,-7.96 4.504,-11.94 67.199,24.755 131.479,53.453 160.482,126.41 10.006,25.168 10.682,51.562 5.855,78.104 -5.92,30.647 -22.814,54.355 -46.621,73.691 z"
   inkscape:connector-curvature="0"
   id="path65"
   style="fill:#1f3871" />
<path
   d="m 401.086,336.895 c -14.492,-12.742 -15.188,-27.688 -1.769,-45.166 -5.141,-7.537 -12.73,-11.529 -22.036,-14.125 12.111,-3.007 18.958,-9.962 18.354,-21.969 -0.579,-11.523 -8.599,-17.343 -19.023,-18.254 -10.699,-0.935 -18.596,5.264 -20.798,15.579 -2.243,10.509 2.914,18.546 13.634,23.429 -21.655,1.702 -34.816,12.447 -39.211,33.239 0.604,3.838 0.039,7.711 0.33,11.56 0.184,1.434 0.368,2.866 0.552,4.3 -2.46,-6.828 -4.921,-13.654 -7.382,-20.481 -0.214,-0.822 -0.457,-1.642 -0.354,-2.509 -2.387,-37.842 24.762,-67.882 61.397,-67.937 35.659,-0.054 63.211,30.377 60.917,67.28 -1.039,0.448 -2.063,0.407 -3.07,-0.094 -3.63,-3.107 -6.163,-7.27 -10.301,-9.975 -8.471,-5.539 -20.897,-5.539 -28.457,0.45 -0.642,2.306 0.803,4.095 1.686,6.004 5.225,11.306 5.851,22.683 0.481,34.108 -0.992,2.107 -1.484,5.023 -4.95,4.561 z"
   inkscape:connector-curvature="0"
   id="path67"
   style="fill:#3f3f3f" />
<path
   d="m 720.889,161.364 c 0.542,-0.265 1.084,-0.528 1.626,-0.793 l -0.056,0.056 c 0.338,-0.39 0.678,-0.778 1.016,-1.167 l 0.028,-0.022 c 0.337,-0.325 0.674,-0.65 1.011,-0.975 l 0.225,0.294 -0.213,-0.303 c 0.302,-0.337 0.602,-0.674 0.9,-1.011 l 0.038,-0.012 c 0.364,-0.313 0.729,-0.626 1.093,-0.938 l 0.008,0.008 c 0.282,-0.28 0.563,-0.562 0.847,-0.842 l 0.301,-0.353 c 0.029,-0.327 0.207,-0.471 0.534,-0.432 11.011,6.742 13.961,17.241 12.689,29.108 -1.457,13.596 -8.483,24.479 -20.639,30.354 -13.168,6.366 -27.14,6.064 -39.029,-3.479 -6.246,-5.015 -10.953,-11.949 -16.354,-18.017 9.139,-3.381 18.276,-6.761 27.415,-10.141 2.255,-1.065 5.154,-0.834 6.695,-3.333 0.683,-0.793 1.362,-1.587 2.043,-2.38 1.307,-0.663 3.013,-0.854 3.259,-2.77 6.344,-3.221 10.213,-9.635 16.563,-12.852 z"
   inkscape:connector-curvature="0"
   id="path69"
   style="fill:#9cd2d2" />
<path
   d="m 401.086,336.895 c 9.803,-15.092 7.862,-30.068 -0.844,-44.491 10.667,-12.849 35.493,-7.404 42.979,8.84 2.189,1.571 2.129,4.067 2.2,6.274 0.132,4.107 0.347,8.237 -0.142,12.347 -2.606,18.901 -21.399,26.418 -44.25,17.696 0.037,-0.221 0.056,-0.444 0.057,-0.666 z"
   inkscape:connector-curvature="0"
   id="path71"
   style="fill:#4e669f" />
<path
   d="m 561.031,621.768 c 2.765,-10.595 5.529,-21.188 8.459,-32.416 -28.536,0 -56.149,0 -83.997,0 -0.372,1.498 -0.722,2.904 -1.075,4.306 -0.491,-1.575 -0.979,-3.144 -1.466,-4.708 29.682,10e-4 59.362,10e-4 89.546,10e-4 -3.684,10.539 -7.575,21.678 -11.467,32.817 z"
   inkscape:connector-curvature="0"
   id="path73"
   style="fill:#1f3871" />
<path
   d="m 529.08,711.266 c 4.012,-11.319 7.945,-22.668 12.123,-33.928 0.59,-1.593 2.361,-2.749 3.586,-4.105 -4.77,14.521 -9.539,29.041 -14.305,43.562 -0.464,-1.846 -0.934,-3.688 -1.404,-5.529 z"
   inkscape:connector-curvature="0"
   id="path75"
   style="fill:#1f3871" />
<path
   d="m 545.064,671.547 c 4.965,-15.511 9.929,-31.021 14.893,-46.534 -4.964,15.51 -9.928,31.023 -14.893,46.534 z"
   inkscape:connector-curvature="0"
   id="path77"
   style="fill:#1f3871" />
<path
   d="m 123.073,508.744 c 2.094,0.222 4.188,0.443 6.283,0.665 -21.411,0.185 -42.824,0.369 -64.235,0.554 19.317,-0.406 38.635,-0.813 57.952,-1.219 z"
   inkscape:connector-curvature="0"
   id="path79"
   style="fill:#3d8e8e" />
<path
   d="m 454.059,356.917 c -15.967,-0.01 -31.933,-0.021 -47.896,-0.029 15.965,0.008 31.93,0.019 47.896,0.029 z"
   inkscape:connector-curvature="0"
   id="path81"
   style="fill:#ff9393" />
<path
   d="m 454.706,396.332 c -0.206,-13.125 -0.412,-26.25 -0.618,-39.375 0.206,13.125 0.412,26.25 0.618,39.375 z"
   inkscape:connector-curvature="0"
   id="path83"
   style="fill:#ff9393" />
<path
   d="m 445.278,319.863 c -0.688,-6.209 -1.374,-12.418 -2.06,-18.624 0.827,0.196 1.653,0.392 2.479,0.594 -0.138,6.015 -0.279,12.022 -0.419,18.03 z"
   inkscape:connector-curvature="0"
   id="path85"
   style="fill:#1f3871" />
<path
   d="m 1003.489,751.501 c -0.208,-1.084 -0.416,-2.169 -0.646,-3.364 0.566,0.042 1.029,0.004 1.056,0.09 0.287,1.013 0.51,2.043 0.748,3.068 -0.385,0.069 -0.772,0.139 -1.158,0.206 z"
   inkscape:connector-curvature="0"
   id="path87"
   style="fill:#ff9393" />
<path
   d="m 837.167,286.228 c 0.604,-0.447 1.207,-0.895 1.812,-1.342 -0.604,0.447 -1.208,0.894 -1.812,1.342 z"
   inkscape:connector-curvature="0"
   id="path89"
   style="fill:#1f3871" />
<path
   d="m 323.383,302.496 c 0.118,0.837 0.236,1.673 0.354,2.51 -0.118,-0.837 -0.236,-1.673 -0.354,-2.51 z"
   inkscape:connector-curvature="0"
   id="path91"
   style="fill:#ff9393" />
<path
   d="m 720.889,161.364 c -5.297,4.403 -10.595,8.808 -15.892,13.211 -0.257,0.657 -0.583,0.995 -1.14,0.242 5.677,-4.484 11.354,-8.968 17.032,-13.453 z"
   inkscape:connector-curvature="0"
   id="path93"
   style="fill:#4e669f" />
<path
   d="m 699.023,179.367 c -2.236,1.113 -4.474,2.226 -6.703,3.336 2.239,-1.114 4.471,-2.224 6.703,-3.336 z"
   inkscape:connector-curvature="0"
   id="path95"
   style="fill:#9cd2d2" />
<path
   d="m 703.857,174.817 c 0.379,-0.078 0.759,-0.157 1.139,-0.239 -1.311,0.801 -2.62,1.605 -3.93,2.409 0.93,-0.723 1.861,-1.446 2.791,-2.17 z"
   inkscape:connector-curvature="0"
   id="path97"
   style="fill:#63acac" />
<path
   d="m 725.464,157.432 c 0,0 -0.041,0.019 -0.039,0.015 0.001,-0.004 0.039,-0.015 0.039,-0.015 z"
   inkscape:connector-curvature="0"
   id="path99"
   style="fill:#9cd2d2" />
<path
   d="m 723.503,159.438 c 0,0 -0.03,0.028 -0.028,0.025 0,-0.003 0.028,-0.025 0.028,-0.025 z"
   inkscape:connector-curvature="0"
   id="path101"
   style="fill:#9cd2d2" />
<path
   d="m 727.711,155.307 -0.275,0.072 c 0,0 -0.026,0.285 -0.026,0.282 -0.004,-0.208 0.096,-0.325 0.301,-0.354 z"
   inkscape:connector-curvature="0"
   id="path103"
   style="fill:#9cd2d2" />
<path
   d="m 724.525,158.454 c 0,0 -0.016,0.016 -0.014,0.012 0.003,-0.003 0.014,-0.012 0.014,-0.012 z"
   inkscape:connector-curvature="0"
   id="path105"
   style="fill:#9cd2d2" />
<path
   d="m 726.564,156.5 c 0,0 -0.015,0 -0.012,-0.004 0.005,-0.004 0.012,0.004 0.012,0.004 z"
   inkscape:connector-curvature="0"
   id="path107"
   style="fill:#9cd2d2" />
<path
   d="m 722.459,160.627 c 0,0 0.054,-0.054 0.055,-0.055 10e-4,-0.001 -0.055,0.055 -0.055,0.055 z"
   inkscape:connector-curvature="0"
   id="path109"
   style="fill:#9cd2d2" />
<path
   d="m 1015.002,749.002 c -0.082,0.141 -0.164,0.279 -0.245,0.419 0.08,-0.142 0.16,-0.282 0.24,-0.424 l 0,0.005 z"
   inkscape:connector-curvature="0"
   id="path111"
   style="fill:#9cd2d2" />
<path
   d="m 760.568,528.154 c 2.539,1.547 5.401,2.465 6.826,4.427 1.099,1.517 0.995,4.521 0.396,6.558 -6.646,22.553 -13.491,45.047 -20.909,69.633 0.76,-0.635 -0.343,0.285 -0.938,0.781 -5.453,18.883 -10.756,37.236 -16.152,55.92 -2.245,-0.347 -5.059,-0.781 -11.141,-1.72 13.898,-44.956 27.607,-89.305 41.918,-135.599 z"
   inkscape:connector-curvature="0"
   id="path113"
   style="fill:#4e669f" />
<path
   d="m 732.987,575.018 c 4.618,4.566 -1.087,8.338 -1.354,12.604 -0.206,-2.21 -0.412,-4.42 -0.617,-6.63 0.019,-0.217 0.037,-0.434 0.056,-0.65 0.608,-1.62 0.071,-3.549 1.344,-4.99 0.188,-0.114 0.379,-0.224 0.571,-0.334 z"
   inkscape:connector-curvature="0"
   id="path115"
   style="fill:#4e669f" />
<path
   d="m 754.432,679.885 c 0,2.473 0,4.944 0,7.992 -0.806,0.61 -1.951,1.48 -3.097,2.344 1.032,-3.45 2.063,-6.893 3.097,-10.336 z"
   inkscape:connector-curvature="0"
   id="path117"
   style="fill:#4e669f" />
<path
   d="m 723.172,598.484 c 1.213,-3.739 2.425,-7.479 3.637,-11.217 -1.213,3.742 -2.425,7.48 -3.637,11.217 z"
   inkscape:connector-curvature="0"
   id="path119"
   style="fill:#4e669f" />
<path
   d="m 729.1,580.232 c 1.213,-3.717 2.428,-7.434 3.641,-11.149 0.082,1.979 0.165,3.957 0.248,5.935 l 0.025,-0.033 c -1.883,1.604 -0.147,4.424 -2.023,6.029 l 0.025,-0.021 c -0.64,-0.255 -1.278,-0.509 -1.916,-0.761 z"
   inkscape:connector-curvature="0"
   id="path121"
   style="fill:#4e669f" />
<path
   d="m 786.802,577.54 c 3.573,2.817 0.53,3.506 -1.458,4.522 0.487,-1.514 0.972,-3.018 1.458,-4.522 z"
   inkscape:connector-curvature="0"
   id="path123"
   style="fill:#4e669f" />
<path
   d="m 719.102,611.797 c 0.539,-2.1 1.08,-4.197 1.618,-6.292 -0.542,2.1 -1.079,4.197 -1.618,6.292 z"
   inkscape:connector-curvature="0"
   id="path125"
   style="fill:#4e669f" />
<path
   d="m 750.436,526.249 c 0,1.831 0,3.663 0,5.494 -0.225,0.013 -0.446,0.026 -0.672,0.039 0,-1.812 0,-3.621 0,-5.433 0.224,-0.033 0.447,-0.066 0.672,-0.1 z"
   inkscape:connector-curvature="0"
   id="path127"
   style="fill:#4e669f" />
<path
   d="m 756.604,673.559 c -0.412,1.573 -0.825,3.147 -1.237,4.715 0.412,-1.578 0.824,-3.147 1.237,-4.715 z"
   inkscape:connector-curvature="0"
   id="path129"
   style="fill:#4e669f" />
<path
   d="m 736.941,554.659 c 0.6,-1.913 1.199,-3.827 1.8,-5.741 -0.6,1.913 -1.2,3.827 -1.8,5.741 z"
   inkscape:connector-curvature="0"
   id="path131"
   style="fill:#4e669f" />
<path
   d="m 746.484,705.821 c -0.375,1.495 -0.75,2.991 -1.123,4.479 0.376,-1.497 0.75,-2.987 1.123,-4.479 z"
   inkscape:connector-curvature="0"
   id="path133"
   style="fill:#4e669f" />
<path
   d="m 742.882,715.736 c -0.509,1.677 -1.017,3.353 -1.521,5.026 0.506,-1.675 1.014,-3.351 1.521,-5.026 z"
   inkscape:connector-curvature="0"
   id="path135"
   style="fill:#4e669f" />
<path
   d="m 766.588,640.762 c -0.277,1.129 -0.558,2.256 -0.83,3.374 0.281,-1.133 0.555,-2.253 0.83,-3.374 z"
   inkscape:connector-curvature="0"
   id="path137"
   style="fill:#4e669f" />
<path
   d="m 762.52,654.375 c -0.344,1.208 -0.686,2.416 -1.026,3.611 0.342,-1.211 0.684,-2.411 1.026,-3.611 z"
   inkscape:connector-curvature="0"
   id="path139"
   style="fill:#4e669f" />
<path
   d="m 760.281,661.809 c -0.355,0.904 -0.709,1.811 -1.063,2.711 0.355,-0.908 0.709,-1.81 1.063,-2.711 z"
   inkscape:connector-curvature="0"
   id="path141"
   style="fill:#4e669f" />
<path
   d="m 727.475,584.034 c 0.336,-0.856 0.672,-1.713 1.004,-2.563 -0.338,0.86 -0.67,1.713 -1.004,2.563 z"
   inkscape:connector-curvature="0"
   id="path143"
   style="fill:#4e669f" />
<path
   d="m 780.666,595.834 c -0.375,0.93 -0.749,1.857 -1.119,2.782 0.375,-0.93 0.747,-1.856 1.119,-2.782 z"
   inkscape:connector-curvature="0"
   id="path145"
   style="fill:#4e669f" />
<path
   d="m 739.641,543.977 c 0.344,-0.801 0.687,-1.601 1.023,-2.394 -0.343,0.803 -0.684,1.599 -1.023,2.394 z"
   inkscape:connector-curvature="0"
   id="path147"
   style="fill:#4e669f" />
<path
   d="m 750.434,694.073 c -0.399,0.853 -0.803,1.705 -1.201,2.554 0.4,-0.854 0.8,-1.703 1.201,-2.554 z"
   inkscape:connector-curvature="0"
   id="path149"
   style="fill:#4e669f" />
<path
   d="m 776.389,610.004 c -0.326,0.854 -0.654,1.705 -0.979,2.553 0.328,-0.855 0.653,-1.703 0.979,-2.553 z"
   inkscape:connector-curvature="0"
   id="path151"
   style="fill:#4e669f" />
<path
   d="m 735.53,557.793 c 0.398,-0.918 0.798,-1.835 1.194,-2.751 -0.398,0.918 -0.796,1.835 -1.194,2.751 z"
   inkscape:connector-curvature="0"
   id="path153"
   style="fill:#4e669f" />
<path
   d="m 330.567,321.188 c -0.11,-3.853 -0.22,-7.703 -0.33,-11.558 0.111,3.85 0.221,7.703 0.33,11.558 z"
   inkscape:connector-curvature="0"
   id="path155"
   style="fill:#ff9393" />
<path
   d="m 730.989,581.014 c 0.675,-2.01 1.351,-4.02 2.023,-6.029 -0.672,2.008 -1.348,4.019 -2.023,6.029 z"
   inkscape:connector-curvature="0"
   id="path157"
   style="fill:#3d8e8e" />
</svg>