<?xml version="1.0" encoding="UTF-8" standalone="no"?>
<!-- Created with Inkscape (http://www.inkscape.org/) -->

<svg
   xmlns:dc="http://purl.org/dc/elements/1.1/"
   xmlns:cc="http://creativecommons.org/ns#"
   xmlns:rdf="http://www.w3.org/1999/02/22-rdf-syntax-ns#"
   xmlns:svg="http://www.w3.org/2000/svg"
   xmlns="http://www.w3.org/2000/svg"
   xmlns:inkscape="http://www.inkscape.org/namespaces/inkscape"
   version="1.2"
   width="585.10498"
   height="721.09698"
   viewBox="0 0 585.105 721.097"
   id="Layer_1"
   xml:space="preserve"><metadata
   id="metadata213"><rdf:RDF><cc:Work
       rdf:about=""><dc:format>image/svg+xml</dc:format><dc:type
         rdf:resource="http://purl.org/dc/dcmitype/StillImage" /></cc:Work></rdf:RDF></metadata><defs
   id="defs211" />
<g
   id="g3">
	<path
   d="m 481,1 c 33.166,0 66.334,0.083 99.5,-0.112 3.854,-0.021 4.607,0.763 4.605,4.612 C 584.988,243 585,480.5 585,718 c -1.648,1.934 -3.904,1.42 -6.018,1.502 -15.83,0.611 -31.658,0.32 -47.489,0.035 -2.142,-0.037 -4.256,0.479 -6.421,0.498 -2.631,0.021 -4.5,-0.834 -5.409,-3.4 -1.356,-4.219 -0.677,-8.564 -0.741,-12.852 -0.129,-8.443 0.201,-16.898 -0.64,-25.32 -0.991,-6.004 0.505,-12.246 -1.554,-19.232 -25.941,-0.266 -51.72,-0.104 -77.299,-0.109 -2.468,6.719 -3.523,12.236 -0.31,18.01 4.965,1.404 9.977,0.527 14.91,0.781 2.631,0.137 5.379,-0.293 7.602,1.689 1.729,2.123 1.371,4.68 1.455,7.133 0.243,7.102 -0.447,14.225 0.485,21.307 -0.017,3.805 -0.719,7.48 -2.032,11.086 -4.414,1.92 -9.188,0.455 -13.541,1.875 -1.334,0 -2.666,0 -4,0 -1,-0.734 -2,-0.734 -3,0 -7.666,0 -15.334,0 -23,0 -0.334,-0.373 -0.666,-0.373 -1,0 -2.334,0 -4.666,0 -7,0 -0.666,-0.734 -1.334,-0.734 -2,0 -66,0 -132,0 -198,0 -0.985,-1.07 -2.006,-2.117 -2.454,-3.564 -0.245,-0.891 -0.158,-1.791 -0.076,-2.691 0.085,-23.283 0.016,-46.564 0.023,-69.844 0,-2.48 0.132,-5.035 -3.016,-7.77 -14.646,4.301 -30.443,4.639 -46.32,3.742 -8.242,-2.096 -16.479,-1.973 -24.712,0.074 -19.625,0.357 -39.25,0.195 -58.872,0.096 -5.565,-0.027 -6.589,-1.461 -7.821,-6.926 -1.214,-5.391 0.233,-10.582 0.384,-15.859 0.086,-3.018 2.163,-4.764 5.163,-5.17 2.311,-0.313 4.649,-0.213 6.977,-0.213 35.091,-0.01 70.182,-0.008 105.273,0 3.66,0.002 7.315,-0.055 10.961,-0.336 3.232,-0.609 6.613,0.891 9.625,-0.488 2.117,-2.025 1.709,-4.469 1.726,-6.74 0.08,-11.477 -0.044,-22.951 0.067,-34.426 0.071,-7.248 1.674,-8.852 8.768,-8.965 5.487,-0.088 10.977,-0.104 16.464,0.01 6.801,0.141 8.813,2.15 8.905,9.094 0.14,10.643 0.01,21.287 0.065,31.932 0.012,2.291 -0.292,4.668 1.53,7.422 13.958,1.449 28.418,-0.393 42.75,1.018 48.042,0.258 96.079,0.053 144.116,0.094 10.138,0.008 20.276,0.219 30.404,-0.152 2.364,-0.686 4.996,-0.059 7.784,-1.594 0.203,-5.059 1.076,-10.316 0.721,-15.535 -0.77,-11.309 -0.684,-22.592 -0.108,-33.9 0.568,-2.406 1.104,-4.82 2.386,-8.201 8.667,-1.992 17.812,-1.861 27.026,-0.076 4.971,5.461 5.652,12.582 7.17,19.295 3.68,16.283 4.753,32.824 4.189,49.49 -0.066,1.986 -0.111,3.99 0.244,5.969 0.118,0.656 0.343,1.281 0.815,1.785 2.669,1.033 2.669,1.033 5.86,0.127 1.572,-4.205 1.422,-8.959 1.674,-13.463 0.595,-10.607 1.926,-21.152 2.554,-31.719 0.477,-8.037 -0.32,-16.238 -0.293,-24.371 0.008,-2.486 -0.113,-5.059 2.225,-6.811 9.029,-1.895 18.185,-1.359 27.312,-1.469 2.627,-0.031 5.344,0.457 7.748,-0.855 1.928,-1.766 1.618,-4.033 1.62,-6.152 0.033,-35.15 1.478,-70.377 -0.329,-105.438 -2.685,-52.08 -0.796,-104.13 -1.625,-156.183 -0.17,-10.57 -0.841,-11.411 -11.388,-11.254 -18.324,0.273 -36.649,0.082 -54.975,0.105 -2.626,0.004 -5.386,0.396 -7.675,-1.487 -1.433,-1.416 -1.412,-3.192 -1.398,-5.051 0.077,-10.554 0.032,-21.107 0.036,-31.661 0.459,-5.54 -1.191,-11.264 1.776,-16.611 0.748,-1.35 0.541,-3.366 0.008,-4.915 -3.735,-10.874 -2.62,-22.266 -1.117,-32.975 1.23,-8.781 0.976,-16.988 -0.344,-25.447 -0.362,-2.327 -0.723,-4.75 -0.211,-6.942 1.414,-6.044 -0.097,-11.823 -0.955,-17.683 -0.12,-0.824 -0.114,-1.658 -0.143,-2.489 -1.304,-39.566 -1.002,-79.146 -1,-118.722 C 479.518,4.966 479.222,2.721 481,1 z"
   inkscape:connector-curvature="0"
   id="path5"
   style="fill:#f7f7f7" />
	<path
   d="M 1,408 C 1,272.333 1,136.667 1,1 c 46.418,0 92.709,0 139,0 1.667,0.795 3.333,0.795 5,0 0.667,0 1.333,0 2,0 2.333,0.802 4.667,0.802 7,0 1.667,0 3.333,0 5,0 4.744,0.749 9.525,0.995 14.319,0.995 51.363,0.008 102.726,0 154.088,0.021 2.313,10e-4 4.655,-0.309 6.931,0.376 1.701,1.331 1.15,2.535 -0.29,3.579 -0.96,0.695 -2.112,1.021 -3.295,1.009 C 317.3,6.84 303.854,7.532 290.386,6.513 282.809,5.94 275.135,6.921 267.536,7.424 262.859,7.733 258.317,7.478 253.681,7.303 240.388,6.8 227.075,7.069 213.77,7.161 c -1.16,0.009 -2.333,0.122 -4.199,1.634 -1.343,11.695 0.493,24.334 -1.199,35.452 -1.755,-6.489 3.312,-9.087 9.373,-10.942 0.582,-0.142 1.167,-0.157 1.758,-0.063 0.899,0.224 1.56,0.761 2.023,1.553 0.34,0.803 0.372,1.623 0.112,2.452 -5.42,10.809 -9.057,22.216 -11.303,34.09 -0.09,0.545 -0.271,1.053 -0.528,1.538 -2.154,3.703 -1.33,7.601 -0.756,11.486 2.152,5.214 2.098,10.688 2.095,16.185 -0.028,55.376 0.001,110.753 -0.055,166.129 -0.003,3.081 0.749,6.382 -1.553,9.112 -0.822,0.712 -1.733,0.855 -2.731,0.421 -2.698,-2.546 -1.877,-5.901 -1.881,-8.967 -0.063,-44.153 -0.089,-88.306 -0.006,-132.459 0.021,-11.309 -0.822,-22.61 -0.08,-33.923 0.161,-2.452 0.345,-5.011 -0.78,-6.978 -1.837,-2.151 -4.364,-1.481 -6.222,-2.556 -3.72,-2.023 -2.061,-6.424 -4.15,-9.615 -4.722,-1.306 -9.726,-0.568 -14.652,-0.639 -9.717,-0.14 -10.445,-0.678 -12.98,-10.08 -3.205,-11.885 -6.705,-23.69 -9.469,-35.693 -0.442,-1.921 -0.963,-3.9 -2.563,-5.471 -1.959,-0.912 -4.005,-1.11 -6.526,0.337 -0.242,5.846 1.777,11.514 3.145,17.228 2.749,11.485 5.784,22.905 7.941,34.522 0.553,2.978 1.973,6.217 -0.85,8.959 -6.851,1.856 -13.78,1.368 -20.704,0.63 -2.981,-0.318 -5.96,-0.91 -8.21,1.242 -0.944,1.297 -0.989,2.482 -0.939,3.636 1.194,27.709 0.287,55.431 0.036,83.133 -0.29,32.049 0.893,64.09 0.047,96.132 -0.031,1.184 0.216,2.312 0.416,3.458 0.317,3.427 -0.179,6.886 0.454,10.298 0.597,22.194 0.245,44.392 0.184,66.587 -0.007,2.574 -0.801,4.884 -2.648,6.759 -2.157,1.773 -4.665,2.332 -7.421,2.332 -8.302,0 -16.604,0.01 -24.906,-0.008 -3.476,-0.01 -6.546,-0.932 -9.077,-3.373 -1.268,-1.185 -1.937,-3.136 -4.087,-3.22 -3.164,-0.412 -5.19,-2.754 -7.599,-4.455 -0.394,-0.309 -0.744,-0.659 -1.081,-1.026 -0.344,-0.354 -0.65,-0.742 -0.951,-1.122 -2.113,-1.674 -2.773,0.143 -3.027,1.534 -0.769,4.213 -1.723,8.448 -1.216,12.772 0.953,8.131 0.726,16.289 0.193,24.4 -0.313,4.758 0.765,9.52 -0.505,14.291 -0.577,2.164 1.175,4.184 2.565,5.744 2.197,2.467 2.974,5.104 2.344,8.256 -0.083,0.479 -0.178,0.961 -0.274,1.438 -0.115,0.461 -0.292,0.904 -0.515,1.322 -0.114,0.197 -0.245,0.393 -0.357,0.594 -0.227,0.387 -0.492,0.754 -0.754,1.117 -0.112,0.189 -0.245,0.369 -0.357,0.559 -0.318,0.58 -0.628,1.168 -0.908,1.771 -0.264,0.648 -0.588,1.262 -0.989,1.834 -1.16,5.775 -0.394,11.764 -1.527,17.178 -4.047,2.949 -5.733,-0.666 -8.11,-1.994 -0.434,-0.221 -0.85,-0.473 -1.255,-0.742 -0.721,-0.625 -1.288,-1.41 -2.048,-1.996 -0.331,-0.332 -0.61,-0.707 -0.842,-1.113 -2.258,-3.619 -4.755,-6.988 -8.992,-8.52 -0.449,-0.115 -0.871,-0.299 -1.275,-0.521 -1.64,-1.188 -2.851,-2.973 -4.946,-3.525 -0.423,-0.189 -0.811,-0.436 -1.178,-0.717 -0.651,-0.646 -1.329,-1.264 -2.113,-1.756 C 25.472,418.724 15.628,413.989 5.254,410.458 3.637,409.908 2.131,409.314 1,408 z"
   inkscape:connector-curvature="0"
   id="path7"
   style="fill:#63acac" />
	<path
   d="m 196.035,613.804 c -33.551,0.379 -67.102,0.779 -100.653,1.127 -8.596,0.088 -17.194,0.014 -26.484,0.014 0,8.354 0,15.717 0,23.842 21.967,0 43.534,0 65.102,0 8.015,-0.469 16.031,-0.457 24.046,-0.006 16.718,0 33.437,0 50.884,0 0,24.57 0,50.723 0,76.875 -3.367,0.16 -3.46,-2.512 -3.845,-4.688 -0.375,-2.121 -0.182,-4.316 -0.183,-6.479 -0.008,-18.475 0.018,-36.947 -0.027,-55.42 -0.006,-2.281 0.418,-4.689 -1.104,-6.689 -1.631,-1.244 -3.107,-1.086 -4.417,0.123 -1.031,1.209 -1.182,2.559 -1.164,3.881 0.209,15.799 -2.102,31.572 -0.915,47.346 0.523,6.965 0.352,13.902 0.705,20.844 0.122,2.385 -0.039,4.682 -1.979,6.43 -63.667,0 -127.333,-0.035 -191,0.096 -3.424,0.008 -4.103,-0.672 -4.097,-4.096 C 1.033,648.333 1,579.667 1,511 c 0.764,-0.664 1.769,-1.541 2.626,-1.102 5.772,2.975 11.27,-1.414 16.957,-0.496 1.865,0.301 3.436,-1.029 5.122,-1.695 0.577,-0.105 1.153,-0.156 1.738,-0.17 11.21,-0.074 22.414,-0.041 33.618,-0.016 2.846,0.006 5.596,-0.16 8,-1.91 7.369,-1.461 14.819,-0.453 22.23,-0.703 4.128,-0.141 8.264,0 12.388,-0.051 6.604,0.137 13.3,2.369 20.292,-0.58 3.242,-11.299 0.411,-22.268 -1.081,-33.24 -0.229,-0.426 -0.43,-0.869 -0.644,-1.299 -1.882,-2.041 -6.036,-1.926 -5.749,-6.053 0.89,-2.74 3.646,-1.736 5.536,-2.695 2.973,-2.715 2.682,-6.119 1.8,-9.639 -0.059,-0.719 0.01,-1.426 0.186,-2.123 1.186,-1.801 0.312,-3.496 -0.292,-5.209 -0.237,-1.336 -0.082,-2.617 0.491,-3.846 2.643,-7.131 1.069,-14.498 1.011,-21.74 -0.022,-2.73 -0.651,-5.6 -0.612,-8.367 0.052,-3.699 -0.199,-7.01 -3.715,-8.826 -0.66,-4 2.334,-5.939 3.943,-8.527 1.566,-2.52 -0.965,-6.633 3.074,-8.209 4.8,3.777 7.701,12.457 5.795,17.539 -0.898,2.395 -1.234,4.809 -1.229,7.332 0.031,14.658 -0.026,29.316 0.012,43.977 0.006,2.504 -0.065,5.035 2.045,7.465 2.078,1.23 6.164,1.512 4.884,5.771 -1.433,2.268 -3.971,1.479 -5.475,2.855 -1.281,1.082 -1.422,2.584 -1.431,4.096 -0.049,8.662 -0.052,17.324 0.002,25.986 0.009,1.506 0.076,3.035 1.591,3.957 0.508,0.25 0.994,0.521 1.5,0.768 2.988,1.391 6.164,1.342 9.333,1.248 8.146,-0.242 16.323,0.639 24.442,-0.693 6.443,0.189 12.884,0.01 19.324,0.102 2.318,0.033 4.655,-0.02 6.59,1.604 2.109,2.672 2.145,5.473 0.526,8.373 -1.781,2.092 -4.248,1.578 -6.516,1.59 -12.313,0.057 -24.628,-0.082 -36.94,0.07 -6.111,0.076 -12.176,0.945 -17.855,1.725 -3.843,3.938 -0.244,9.357 -3.748,13.229 -7.495,-0.898 -4.209,-7.32 -5.845,-11.375 -1.949,-2.76 -5.296,-3.133 -8.332,-3.223 -15.417,-0.457 -30.848,-1.066 -47.158,0.66 -2.082,11.266 -0.312,22.762 -1.006,33.402 1.991,2.689 4.082,2.518 6.048,2.521 13.978,0.039 27.956,0 41.933,0.035 3.15,0.008 5.88,-0.664 8.003,-3.225 0.951,-1.146 2.238,-2.02 4.744,-1.637 3.396,6.217 9.937,4.828 15.988,4.824 16.306,-0.016 32.613,0.191 48.918,-0.109 0.678,-0.014 1.321,0.074 1.935,0.387 1.971,1.506 2.058,3.686 2.071,5.865 0.094,16.115 0.086,32.229 10e-4,48.346 -0.006,2.152 0.067,4.386 -2.034,5.835 z"
   inkscape:connector-curvature="0"
   id="path9"
   style="fill:#63acac" />
	<path
   d="m 220.495,33.543 c -2.768,1.48 -5.537,2.961 -9.839,5.263 -0.54,3.518 -1.324,8.635 -2.896,18.872 0,-20.65 0,-36.211 0,-52.575 40.434,0 80.849,0.028 121.265,-0.086 1.994,-0.005 3.984,-1.253 5.978,-1.922 0.181,-0.188 0.36,-0.377 0.54,-0.566 C 345.9,2.411 356.248,1.363 366.615,2.023 371.141,2.31 375.711,3.638 380,1 c 33,0 66,0 99,0 1.881,5.515 0.934,11.129 0.596,16.719 -1.631,5.211 -1.733,10.396 0.305,15.543 0.156,1.756 0.078,3.514 0.101,5.272 0.015,17.984 -0.342,35.973 0.067,53.945 0.83,36.444 -0.351,72.902 0.65,109.326 0.463,16.853 1.246,33.698 1.291,50.565 0.01,2.998 -0.375,5.98 -0.42,8.955 -0.064,4.355 -2.786,7.133 -5.996,8.439 -3.64,1.483 -7.502,3.384 -11.979,2.016 -2.973,-0.908 -6.36,-0.688 -9.436,-0.186 -7.184,1.178 -14.201,1.004 -21.203,-0.978 -1.477,-0.417 -2.927,0.256 -4.384,0.633 -2.88,0.745 -5.768,1.773 -8.823,0.846 -4.596,-2.922 -10.146,-0.554 -14.363,-2.159 -2.151,-2.104 -1.863,-4.173 -1.881,-6.128 -0.055,-6.625 -0.109,-13.253 0.017,-19.876 0.067,-3.536 -0.522,-6.916 -1.517,-10.263 -0.916,-2.889 -1.113,-5.861 -1.114,-8.876 -0.011,-42.63 0.012,-85.26 -0.021,-127.89 -0.004,-4.141 0.291,-7.994 4.104,-10.63 0.867,-0.599 0.995,-1.684 0.763,-2.832 -1.223,-2.61 -3.762,-2.203 -6.02,-2.355 -7.818,-0.524 -10.039,-2.466 -11.828,-10.197 -3.035,-13.117 -6.287,-26.185 -8.972,-39.367 -0.912,-4.904 -4.345,-2.567 -6.64,-2.636 -6.147,7.521 -9.661,16.27 -15.278,23.676 -0.797,1.049 -0.476,2.22 -0.682,3.336 -0.072,0.481 -0.205,0.942 -0.391,1.391 -0.971,1.262 -0.855,2.766 -0.939,4.229 -0.486,4.111 -0.916,8.206 0.016,12.318 0.47,2.068 -0.452,3.87 -1.366,5.643 -1.992,2.135 -4.607,2.507 -7.321,2.531 -8.657,0.076 -17.314,0.132 -25.971,-0.014 -6.094,-0.103 -8.492,-2.282 -10.243,-8.207 -3.724,-12.604 -6.951,-25.317 -9.211,-38.269 -0.203,-1.161 -0.49,-2.282 -1.602,-3.37 -2.11,-1.311 -4.396,-1.41 -6.589,0.503 -4.771,3.412 -7.354,8.525 -9.641,13.576 -3.234,7.142 -6.422,14.329 -7.899,22.199 -0.729,3.891 -0.604,7.692 -0.839,11.545 -2.108,1.369 -4.49,1.061 -6.794,1.074 -6.152,0.036 -12.307,0.142 -18.456,-0.047 -4.88,-0.148 -6.909,-2.013 -7.966,-6.601 -3.203,-13.893 -6.355,-27.798 -9.729,-41.639 -0.3,-1.843 0.419,-3.881 -1.057,-5.617 -2.026,-1.111 -3.931,-0.7 -5.72,0.723 -2.926,0.769 -2.794,3.756 -4.124,5.677 z"
   inkscape:connector-curvature="0"
   id="path11"
   style="fill:#4e669f" />
	<path
   d="m 105.018,507.05 c -11.938,0.064 -23.876,0.131 -35.814,0.195 -2.017,1.113 -4.221,0.695 -6.358,0.744 -12.262,0.271 -24.555,-0.686 -36.782,0.939 l -0.163,0.064 c -8.3,0.879 -16.6,3.48 -24.901,0.006 0,-33.666 0,-67.332 0,-101 13.579,1.146 24.396,8.797 35.753,15.178 0.548,0.445 0.496,1.438 1.411,1.549 l 0.064,0.057 c 1.929,1.396 3.777,2.906 5.821,4.143 l 0.008,0.004 c 4.536,2.369 7.694,6.262 11.019,9.971 l 0.027,0.027 c 0.572,0.752 1.195,1.447 2.05,1.895 l 0.024,0.025 c 2.452,1.898 3.992,5.164 8.244,5.598 1.315,-7.061 -0.071,-13.965 1.333,-20.613 0.152,-0.58 0.305,-1.16 0.457,-1.742 0.18,-0.422 0.446,-0.781 0.789,-1.086 L 68.002,423 c 0.324,-0.338 0.708,-0.629 0.878,-1.092 l 0.011,-0.021 c 0.469,-0.195 0.836,-0.48 0.892,-1.033 l 0.021,-0.104 c 6.468,-6.715 15.299,-9.102 23.523,-12.377 7.674,-3.057 15.776,-5.02 24.073,-5.877 2.931,-0.305 5.676,-0.266 7.632,3.111 -0.347,9.848 1.27,20.027 0.966,30.285 -0.054,1.811 0.224,3.664 -0.668,5.371 -0.021,1.17 -0.041,2.34 -0.062,3.512 0.802,1.484 0.792,2.979 0.049,4.48 -0.003,0.527 -0.006,1.055 -0.009,1.582 0.073,0.326 0.183,0.66 0.154,0.984 -0.815,9.426 -0.558,10.148 -12.025,10.512 -13.424,0.424 -26.86,0.008 -40.278,0.703 -0.691,0.037 -1.292,0.26 -1.929,1.053 0.893,2.439 3.177,1.771 4.914,1.789 10.826,0.121 21.656,0.217 32.478,-0.012 5.454,-0.115 10.523,1.004 15.502,2.971 l 0.041,0.029 c 0.523,12.221 2.651,24.453 0.308,36.668 -6.691,2.942 -13.302,-0.574 -19.455,1.516 z"
   inkscape:connector-curvature="0"
   id="path13"
   style="fill:#f7f7f7" />
	<path
   d="m 196,721 c 0,-27.094 0,-54.188 0,-81.672 4.309,0 7.207,0 11.063,0 0,23.332 -0.052,46.404 0.082,69.477 0.013,2.289 1.162,4.572 1.784,6.855 0.038,0.795 0.075,1.596 0.113,2.395 0.072,0.982 0.987,1.979 -0.041,2.945 -4.334,0 -8.668,0 -13.001,0 z"
   inkscape:connector-curvature="0"
   id="path15"
   style="fill:#4e669f" />
	<path
   d="M 477.852,17.956 C 478.234,12.304 478.617,6.652 479,1 c 0.666,0 1.334,0 2,0 0.143,53.293 -0.453,106.561 3.354,159.829 1.711,23.933 -0.897,48.174 -1.548,72.274 -2.176,-1.192 -1.793,-3.348 -1.765,-5.211 0.27,-17.256 -0.588,-34.496 -0.702,-51.749 -0.141,-21.286 0.097,-42.584 -0.451,-63.858 -0.603,-23.462 -0.112,-46.916 -0.403,-70.371 -0.017,-1.289 0.408,-2.684 -0.599,-3.832 -0.071,-1.627 -0.146,-3.254 -0.219,-4.881 -1.442,-5.018 -0.223,-10.18 -0.815,-15.245 z"
   inkscape:connector-curvature="0"
   id="path17"
   style="fill:#9cd2d2" />
	<path
   d="M 335.003,3.095 C 277.867,2.801 220.732,2.516 163.596,2.162 162.062,2.152 160.532,1.404 159,1 c 62.667,0 125.333,0 188,0 -0.287,2.459 -2.287,1.758 -3.732,1.969 -2.713,0.397 -5.442,-0.549 -8.162,0.05 l -0.103,0.076 z"
   inkscape:connector-curvature="0"
   id="path19"
   style="fill:#9cd2d2" />
	<path
   d="m 521.032,716.119 c 16.851,0.709 33.7,1.473 50.554,2.09 4.463,0.162 8.942,-0.127 13.414,-0.209 -1,1 -1.992,2.865 -3.001,2.873 C 561.667,721.042 541.334,721 521,721 c -0.628,-0.709 -1.112,-1.486 -1.148,-2.473 0.043,-0.975 0.356,-1.817 1.18,-2.408 z"
   inkscape:connector-curvature="0"
   id="path21"
   style="fill:#ed6666" />
	<path
   d="m 515,721 c -0.666,0 -1.334,0 -2,0 -1.72,-1.408 -3.779,-0.977 -5.723,-0.98 -12.231,-0.037 -24.463,0.008 -36.693,-0.047 -1.926,-0.008 -4,0.541 -5.717,-0.928 0.221,-3.021 2.523,-3.889 4.845,-3.949 14.05,-0.361 28.104,-0.354 42.155,-0.025 1.191,0.027 2.229,0.566 3.146,1.326 1.26,1.536 1.19,3.071 -0.013,4.603 z"
   inkscape:connector-curvature="0"
   id="path23"
   style="fill:#3d8e8e" />
	<path
   d="m 464.826,718.529 c 16.058,0.822 32.115,1.646 48.174,2.471 -16.666,0 -33.334,0 -50,0 -0.582,-0.627 -0.625,-1.324 -0.268,-2.072 0.618,-0.557 1.319,-0.671 2.094,-0.399 z"
   inkscape:connector-curvature="0"
   id="path25"
   style="fill:#3f3f3f" />
	<path
   d="M 335.105,3.019 C 339.07,2.346 343.035,1.673 347,1 c 11,0 22,0 33,0 -14.751,5.433 -29.949,0.922 -44.895,2.019 z"
   inkscape:connector-curvature="0"
   id="path27"
   style="fill:#63acac" />
	<path
   d="m 1,509 c 8.301,-0.002 16.602,-0.004 24.902,-0.006 C 17.771,511.771 9.607,514.134 1,511 c 0,-0.667 0,-1.333 0,-2 z"
   inkscape:connector-curvature="0"
   id="path29"
   style="fill:#9cd2d2" />
	<path
   d="m 463.207,718.689 c -0.068,0.771 -0.138,1.541 -0.207,2.311 -5,0 -10,0 -15,0 3.926,-1.078 7.854,-2.156 12.838,-3.525 0.314,-2.242 0.764,-5.43 1.213,-8.617 3.676,2.749 3.945,5.032 1.156,9.831 z"
   inkscape:connector-curvature="0"
   id="path31"
   style="fill:#ed6666" />
	<path
   d="m 515,721 c 0.055,-1.383 0.107,-2.77 0.162,-4.152 0.27,-0.375 0.613,-0.666 1.014,-0.887 0.412,-0.162 0.844,-0.26 1.286,-0.289 1.666,0.082 2.87,0.703 2.964,2.594 0.191,0.91 0.383,1.822 0.574,2.734 -2,0 -4,0 -6,0 z"
   inkscape:connector-curvature="0"
   id="path33"
   style="fill:#3f3f3f" />
	<path
   d="m 154,1 c -2.333,0 -4.667,0 -7,0 2.333,0 4.667,0 7,0 z"
   inkscape:connector-curvature="0"
   id="path35"
   style="fill:#9cd2d2" />
	<path
   d="m 145,1 c -1.667,0 -3.333,0 -5,0 1.667,0 3.333,0 5,0 z"
   inkscape:connector-curvature="0"
   id="path37"
   style="fill:#9cd2d2" />
	<path
   d="m 209,721 c 0.013,-0.982 0.027,-1.967 0.04,-2.947 0.32,0.984 0.64,1.965 0.96,2.947 -0.333,0 -0.667,0 -1,0 z"
   inkscape:connector-curvature="0"
   id="path39"
   style="fill:#63acac" />
	<path
   d="m 408,721 c 0.256,-0.572 0.512,-1.146 0.768,-1.717 0.411,0.57 0.822,1.145 1.232,1.717 -0.666,0 -1.334,0 -2,0 z"
   inkscape:connector-curvature="0"
   id="path41"
   style="fill:#ed6666" />
	<path
   d="m 441,721 c 1,0 2,0 3,0 -1,0 -2,0 -3,0 z"
   inkscape:connector-curvature="0"
   id="path43"
   style="fill:#ed6666" />
	<path
   d="m 417,721 c 0.107,-0.334 0.214,-0.666 0.477,-1.486 0.288,0.818 0.406,1.152 0.523,1.486 -0.334,0 -0.666,0 -1,0 z"
   inkscape:connector-curvature="0"
   id="path45"
   style="fill:#ed6666" />
	<path
   d="m 380.523,29.042 c 3.64,16.206 7.278,32.413 10.625,47.306 5.543,5.636 18.051,-2.62 17.601,11.098 -2.239,0.937 -3.868,1.618 -5.103,2.135 0,48.019 0,95.734 0,143.45 1.649,1.281 0.791,3.073 0.808,4.603 0.091,8.802 0.096,17.604 0.012,26.406 -0.023,2.515 0.216,4.939 0.999,7.317 0.139,1.274 0.195,2.552 0.108,3.831 0.98,8.102 0.52,16.24 0.509,24.361 -0.023,17.919 0.285,35.84 -0.158,53.748 0.598,13.532 -1.106,27.182 1.336,40.749 6.782,3.043 13.379,5.344 19.629,8.447 23.668,11.746 43.533,28.314 59.543,49.07 13.83,17.934 22.663,38.551 28.867,60.416 3.19,11.242 5.211,22.668 7.771,34.008 0.555,2.459 1.051,4.939 -0.91,7.09 0,25.838 0,51.674 0,78.08 -7.236,0 -10.92,0 -15.105,0 1.438,-27.127 -0.206,-53.398 -9.401,-78.713 -2.484,-1.207 -3.256,-3.654 -4.236,-5.926 -5.598,-12.941 -11.122,-25.92 -19.088,-37.66 -0.346,-0.51 -0.463,-1.227 -1.629,-1.506 -0.389,6.121 -0.311,12.193 -0.61,18.236 -0.346,6.953 -0.175,13.938 -0.051,20.906 0.083,4.617 -2.698,8.936 -1.285,13.652 0,17.211 0,34.422 0,52.469 -3.567,0 -6.812,0 -10.054,0 -2.688,-1.326 -2.08,-3.854 -2.178,-6.09 -0.312,-7.23 0.832,-14.549 -1.345,-21.664 -0.77,-9.078 0.304,-18.242 -0.667,-26.816 -2.427,-2.359 -4.867,-1.9 -7.14,-1.908 -16.15,-0.063 -32.301,-0.016 -48.452,-0.033 -3.355,-0.004 -6.657,-0.184 -9.734,-1.723 -0.818,-0.457 -1.471,-1.098 -1.992,-1.869 -1.074,-1.957 -1.201,-4.094 -1.254,-6.279 -0.604,-24.764 -1.338,-49.525 -1.032,-74.307 0.138,-11.244 0.052,-11.365 -10.554,-14.814 -20.99,-6.828 -40.964,-2.979 -60.377,6.1 -0.604,0.281 -1.059,0.799 -1.494,1.299 -3.136,4.068 -1.533,8.344 -0.543,12.596 0.387,20.43 0.117,40.854 0.145,61.273 0.006,4.389 1.814,8.939 -0.864,13.166 -0.593,1.254 -1.747,1.852 -2.88,2.477 -1.586,0.611 -3.129,0.512 -4.631,-0.275 -3.055,-2.063 -1.748,-5.527 -2.67,-8.279 0.188,-5.238 -1.055,-10.469 -0.191,-15.715 0.004,-0.76 0.066,-1.52 0.104,-2.273 0.125,-1.875 -0.131,-3.74 -0.24,-5.604 -0.065,-1.111 -0.354,-2.135 -1.181,-2.947 -4.401,-1.59 -8.811,-0.885 -13.555,-0.439 -1.716,5.145 -1.801,10.215 -1.355,15.336 0.549,6.314 0.807,12.621 -0.226,18.922 -1.167,10.066 -1.508,20.221 -0.678,30.244 0.602,7.264 0.556,14.482 0.694,21.723 0.052,2.754 0.706,5.652 -0.985,8.227 -15.346,0 -30.691,0 -46.474,0 0,-16.412 0,-32.266 0,-48.854 -10.185,0 -19.967,0 -30.119,0 0,16.914 0,33.289 0,50.713 -4.539,-0.352 -8.665,-0.67 -12.792,-0.99 -0.167,-19.953 -0.334,-39.906 -0.501,-59.859 -0.622,-0.1 -1.112,-0.406 -1.472,-0.924 -1.106,-1.938 -1.083,-4.01 -0.752,-6.123 1.629,-5.377 1.58,-10.746 -0.096,-16.109 -0.266,-4.473 -0.756,-8.949 0.314,-13.391 0.164,-0.918 0.67,-1.668 1.2,-2.402 0.121,-2.529 0.242,-5.059 0.363,-7.584 -1.327,-1.564 -2.186,-3.26 -2.174,-5.414 0.06,-11.49 -0.348,-22.984 0.232,-34.471 -0.326,-2.559 0.15,-5.113 0.013,-7.672 -0.521,-15.744 -0.318,-31.492 -0.114,-47.234 0.943,-4.34 -0.164,-8.715 0.179,-13.072 -0.706,-10.641 -0.233,-21.287 -0.268,-31.928 -0.004,-1.371 0.427,-2.613 0.964,-3.844 4.026,-3.792 9.17,-3.979 15.298,-0.564 1.866,2.014 1.72,4.508 1.753,7.012 0.136,10.232 -0.975,20.426 -0.893,30.656 0.005,0.662 0.02,1.324 0.049,1.973 0.126,1.199 0.343,2.373 1.229,3.301 7.265,4.398 14.813,8.293 21.867,13.041 4.846,3.262 9.729,6.408 13.449,11.043 1.02,1.27 2.158,2.574 5.054,2.979 13.958,-14.08 29.794,-26.871 48.875,-34.928 0.939,-9.313 0.261,-18.125 0.486,-26.912 0.078,-2.971 -0.356,-6.027 1.323,-8.77 0.724,-0.875 1.628,-1.469 2.711,-1.801 1.466,-0.405 2.89,-0.294 4.28,0.315 0.803,0.396 1.456,0.965 1.955,1.707 2.361,3.264 1.563,7.027 1.621,10.643 0.102,6.281 -0.121,12.574 0.391,19.92 24.557,-5.982 48.792,-8.746 73.953,-3.641 1.117,-10.23 0.352,-19.488 0.726,-28.697 -0.396,-24.609 -0.071,-49.213 -0.173,-73.816 -0.016,-3.823 0.02,-7.646 -0.4,-11.451 -0.465,-2.795 -0.579,-5.611 -0.575,-8.447 0.02,-20.812 -0.064,-41.622 0.041,-62.433 0.055,-10.82 -1.044,-21.565 -1.534,-32.343 -0.329,-7.24 0.154,-14.578 0.334,-21.868 0.439,-17.974 0.188,-35.958 0.12,-53.938 -0.004,-1.166 -0.127,-2.33 -1.05,-4.063 -5.094,-2.261 -6.686,-7.455 -7.704,-13.009 -2.697,-14.697 -6.597,-29.16 -8.603,-43.997 0.295,-2.23 1.469,-4.271 0.99,-6.849 3.943,-0.997 7.475,-1.607 11.021,0.194 z"
   inkscape:connector-curvature="0"
   id="path47"
   style="fill:#3f3f3f" />
	<path
   d="m 522.158,553.076 c -8.289,-46.887 -21.719,-91.254 -59.721,-123.857 -17.039,-14.617 -35.644,-26.461 -58.062,-33.67 0,-13.379 0,-26.643 0,-39.904 1.704,-3.781 4.416,-2.334 6.478,-1.686 2.092,1.256 1.926,3.361 4.121,4.906 18.995,0.046 38.756,0.057 58.075,-0.002 3.242,-4.146 3.869,-8.112 3.872,-12.385 0.018,-22.656 -0.175,-45.314 0.079,-67.969 0.709,-2.217 0.106,-4.334 -0.519,-6.45 1.242,-2.724 2.91,-4.521 6.178,-2.826 24.456,0 48.913,0 75.935,0 0,94.439 0,188.652 0,284.088 -9.264,0 -20.27,0 -35.588,0 2.601,0.755 0.877,0.255 -0.848,-0.245 z"
   inkscape:connector-curvature="0"
   id="path49"
   style="fill:#cc9d3e" />
	<path
   d="m 520.426,718.265 c -1.056,-0.492 -2.111,-0.98 -3.166,-1.473 -0.547,-0.229 -1.082,-0.111 -1.615,0.057 0,0 -0.485,0.002 -0.483,0 -16.777,0.563 -33.556,1.123 -50.334,1.684 -0.54,0.053 -1.08,0.105 -1.619,0.158 -0.385,-3.275 -0.771,-6.555 -1.156,-9.83 -0.19,-9.717 -0.383,-19.432 -0.573,-29.146 0.93,-3.686 4.24,-3.557 6.785,-3.576 15.604,-0.119 31.207,-0.393 46.813,-0.141 1.975,0.031 4.088,0.135 4.691,2.697 0.422,12.479 0.845,24.961 1.267,37.432 -0.206,0.706 -0.408,1.421 -0.61,2.138 z"
   inkscape:connector-curvature="0"
   id="path51"
   style="fill:#4e669f" />
	<path
   d="m 519.766,678.693 c -19.43,0.342 -38.86,0.682 -58.291,1.021 -8.242,0 -16.485,0 -25.332,0 0,-7.744 0,-14.445 0,-22.123 27.738,0 55.295,0 83.623,0 0,7.022 0,14.063 0,21.102 z"
   inkscape:connector-curvature="0"
   id="path53"
   style="fill:#3f3f3f" />
	<path
   d="m 241.641,661.771 c 0,-7.754 0,-15.418 0,-23.832 15.454,0 30.587,0 45.731,0 0,7.906 0,15.572 0,23.832 -15.391,0 -30.106,0 -45.731,0 z"
   inkscape:connector-curvature="0"
   id="path55"
   style="fill:#3f3f3f" />
	<path
   d="m 470.751,560.148 c 0,-19.502 0,-39.004 0,-60.561 11.921,17.729 21.353,34.299 26.901,52.861 -8.563,0.398 -17.121,0.807 -26.023,1.229 -0.309,2.283 -0.594,4.377 -0.878,6.471 z"
   inkscape:connector-curvature="0"
   id="path57"
   style="fill:#cc9d3e" />
	<path
   d="m 285.421,612.937 c -0.222,-20.264 -0.443,-40.525 -0.665,-60.789 1.675,-1.943 3.912,-2.188 6.292,-2.215 3.112,-0.033 6.258,0.273 8.709,-0.357 2.201,-1.047 2.373,-3.041 3.795,-3.971 0.554,-0.359 -0.153,0.049 0.451,-0.129 0.851,-0.246 0.428,0.402 0.353,0.758 0.591,2.23 1.182,4.459 1.771,6.688 0.57,0.711 0.531,1.408 -0.048,2.09 -0.247,0.223 -0.536,0.338 -0.87,0.35 0.387,0.383 0.768,0.77 0.838,1.361 -1.368,3.508 -5.904,5.621 -11.506,5.158 -1.667,-0.137 -3.286,-0.766 -4.561,0.875 -0.228,0.49 -0.429,0.969 -0.581,1.484 -0.523,14.447 -0.315,28.859 -0.157,42.803 5.242,2.307 161.322,2.514 166.805,0.516 1.588,-4.438 0.511,-9.305 0.854,-14.045 0.188,-2.592 -0.504,-5.439 2.107,-7.338 0.564,8.814 1.129,17.629 1.691,26.443 -58.428,0.103 -116.853,0.211 -175.278,0.318 z"
   inkscape:connector-curvature="0"
   id="path59"
   style="fill:#63acac" />
	<path
   d="m 482.661,269.234 c -1.382,0.988 -2.765,1.976 -4.147,2.964 -3.072,2.122 -6.645,1.689 -10.045,1.786 -12.461,0.351 -24.916,-0.313 -37.375,-0.519 -3.538,-0.059 -7.274,1.856 -10.607,-0.859 -0.504,-0.538 -0.608,-1.148 -0.321,-1.826 18.213,0 36.426,0 52.709,0 3.463,-3.738 5.063,-5.468 6.015,-6.493 0,-75.764 0,-150.984 0,-226.205 0.696,39.322 1.338,78.645 2.11,117.965 0.505,25.688 1.2,51.371 1.81,77.057 -0.052,12.043 -0.1,24.087 -0.149,36.13 z"
   inkscape:connector-curvature="0"
   id="path61"
   style="fill:#63acac" />
	<path
   d="m 158.045,638.779 c -8.016,0.004 -16.032,0.006 -24.047,0.008 8.016,-0.002 16.032,-0.006 24.047,-0.008 z"
   inkscape:connector-curvature="0"
   id="path63"
   style="fill:#9cd2d2" />
	<path
   d="m 370.154,35.87 c 3.816,17.357 7.635,34.714 11.557,52.548 1.85,0.605 3.854,1.262 7.342,2.403 0,60.954 0,122.458 0,183.962 -1.988,2.754 -4.973,2.296 -7.746,2.304 -20.266,0.06 -40.531,0.005 -60.799,0.047 -2.623,0.006 -5.33,-0.329 -8.296,1.37 -2.22,6.612 -0.646,13.767 -1.001,20.778 -1.146,5.431 -0.632,10.934 -0.705,16.407 -0.205,15.121 0.361,30.248 -0.299,45.369 -0.258,0.623 -0.655,1.139 -1.191,1.547 -1.193,-0.258 -2.389,-0.514 -3.584,-0.77 -2.813,-1.449 -2.358,-4.114 -2.392,-6.558 -0.304,-22.811 -0.056,-45.62 -0.165,-68.432 -0.013,-2.598 0.451,-5.348 -1.75,-8.067 -9.416,0.997 -18.914,-1.355 -28.56,-0.627 -8.421,0.635 -16.856,0.387 -25.299,0.075 -10.314,-0.382 -20.645,-0.052 -30.968,-0.149 -2.302,-0.021 -4.693,0.334 -6.809,-1.03 -0.521,-0.389 -0.869,-0.898 -1.047,-1.523 0.033,-61.207 0.089,-122.414 0.026,-183.621 -0.003,-3.032 -1.06,-6.063 -1.625,-9.095 2.613,-3.388 0.065,-7.573 1.718,-11.11 0.053,-0.306 0.14,-0.602 0.263,-0.886 3.679,-4.236 2.496,-10.117 5.079,-14.808 2.216,-4.022 2.727,-8.794 4.707,-12.939 1.099,-1.085 2.34,-1.221 3.705,-0.727 2.676,1.736 3.048,4.637 3.628,7.383 2.271,10.751 4.979,21.398 7.576,32.071 0.466,1.913 1.27,3.782 2.794,6.464 11.633,1.486 23.763,0.505 35.342,0.498 2.163,-3.223 0.834,-6.253 2.459,-8.542 0.487,-0.616 1.336,-1.051 1.121,-2.034 -2.103,-9.583 1.03,-18.047 5.412,-26.327 1.833,-3.464 2.66,-7.446 5.324,-10.503 1.524,-1.631 2.717,-3.874 5.583,-3.023 2.515,1.329 2.943,3.803 3.554,6.256 3.009,12.115 5.26,24.396 8.098,36.547 1.865,7.984 3.066,8.712 11.29,8.836 11.492,0.174 22.919,-1.62 34.423,-1.066 1.32,0.063 2.678,-0.05 3.936,-1.037 1.791,-2.265 0.737,-4.996 0.806,-7.588 0.872,-7.924 -0.072,-16.028 2.313,-23.809 1.207,-6.338 5.566,-11.005 8.813,-16.227 1.154,-1.869 1.322,-5.758 5.367,-4.367 z"
   inkscape:connector-curvature="0"
   id="path65"
   style="fill:#f7f7f7" />
	<path
   d="m 126.525,278.9 c 0.103,-55.92 0.245,-111.839 0.252,-167.759 0.001,-6.473 -0.749,-12.944 -1.26,-21.18 10.836,0 21.478,0 32.118,0 13.074,-0.045 26.147,-0.181 39.221,0.056 2.976,0 5.951,0 10.063,0 0,62.176 0,123.83 0,185.483 -1.122,2.765 -3.583,1.874 -5.609,1.979 -23.089,1.205 -46.2,1.055 -69.309,1.024 -1.836,-10e-4 -3.653,0.229 -5.476,0.397 z"
   inkscape:connector-curvature="0"
   id="path67"
   style="fill:#4e669f" />
	<path
   d="m 208.581,364.373 c -4.525,-0.111 -9.05,-0.225 -13.575,-0.338 -2.867,2.193 -6.272,2.008 -9.57,2.023 -17.989,0.082 -35.978,0.131 -53.967,-0.045 -2.003,0.221 -3.9,-0.117 -5.687,-1.059 -0.908,-0.918 -2.152,-1.801 -0.314,-3.006 0.509,-24.355 1.02,-48.71 1.528,-73.066 1.935,-3.093 -0.456,-6.981 2.109,-10.242 1.163,-0.968 2.895,-0.626 4.521,-0.623 22.474,0.042 44.947,-0.016 67.418,-0.493 2.118,-0.045 4.366,-0.493 6.279,0.978 2.228,2.315 1.754,5.263 1.762,8.04 0.061,20.285 0.025,40.57 0.031,60.855 0,1.83 -0.021,3.658 0.014,5.487 0.128,6.882 1.059,7.841 7.773,7.979 2.66,0.056 5.321,-0.01 7.979,0.078 2.029,0.065 4.017,0.232 5.306,2.142 -0.124,1.355 -1.056,2.287 -2.187,2.395 -6.516,0.627 -13.107,2.02 -19.42,-1.105 z"
   inkscape:connector-curvature="0"
   id="path69"
   style="fill:#cc3e3e" />
	<path
   d="m 125.469,361.951 c 0.152,0.744 0.305,1.488 0.457,2.234 2.496,6.275 0.993,12.668 0.492,19.02 -0.074,0.936 -0.769,1.785 -0.907,2.813 -1.089,8.145 -1.177,8.348 -9.333,10.359 -13.426,3.311 -26.711,6.967 -39.095,13.348 -3.05,1.572 -3.758,1.42 -7.807,0.967 -2.487,-1.734 -3.441,-4.168 -3.278,-7.254 0.581,-10.943 0.712,-21.906 0.416,-32.854 -0.145,-5.33 -0.301,-10.605 0.613,-15.866 0.252,-1.453 0.228,-3.004 1.328,-4.164 2.032,-1.058 3.531,-0.327 4.777,1.313 l 0.006,0.044 c 0.174,0.496 0.516,0.788 1.041,0.854 2.262,1.429 4.524,2.857 6.786,4.286 0.943,1.313 3.056,0.488 3.833,2.102 13.083,7.809 27.02,3.222 40.671,2.798 z"
   inkscape:connector-curvature="0"
   id="path71"
   style="fill:#f7f7f7" />
	<path
   d="m 73.13,351.866 c -1.394,-0.31 -2.788,-0.617 -5.032,-1.114 0,19.988 0,39.287 0,58.978 18.727,-6.236 36.392,-12.121 55.535,-18.498 0.688,-8.117 1.49,-17.582 2.292,-27.047 1.704,0.039 3.407,0.076 5.111,0.113 3.257,0.365 3.876,2.707 3.965,5.379 0.154,4.66 0.01,9.322 0.092,13.982 0.035,1.973 -0.204,4.02 1.127,5.891 2.179,1.908 4.96,1.4 7.547,1.338 13.358,-0.324 26.596,0.346 39.52,4.135 4.328,1.27 8.57,2.682 11.953,5.863 -0.027,3.393 -0.055,6.785 -0.082,10.178 -3.64,2.387 -7.374,0.516 -10.547,-0.604 -8.481,-2.99 -17.376,-4.223 -25.984,-6.633 -7.155,-2.002 -15.042,-1.441 -23.437,0.357 -0.201,17.775 -0.159,35.117 -0.03,52.27 5.349,3.039 10.64,2.826 15.289,2.125 7.207,-1.088 14.244,0.26 21.358,0.035 6.427,-0.205 12.946,0.27 19.429,0.232 1.377,-0.008 2.651,0.143 3.707,1.115 0.076,2.402 0.151,4.803 0.229,7.205 -1.831,1.793 -4.139,2.006 -6.51,1.9 -13.795,-0.615 -27.584,1.246 -41.383,0.088 -3.955,-0.332 -7.505,1.105 -10.873,2.646 -1.633,2.002 -1.272,4.242 -1.292,6.369 -0.068,7.164 0.029,14.328 -0.059,21.492 -0.027,2.301 0.227,4.75 -2.066,6.336 -1.009,-12.611 -2.019,-25.223 -3.06,-38.23 3.75,-0.66 6.082,-1.07 6.607,-1.164 -14.438,-25.684 1.46,-54.852 -9.396,-85.176 0.377,9.783 -0.924,14.848 -5.129,18.154 1.857,2.137 3.301,3.799 5.265,6.059 -0.638,11.645 -1.293,23.631 -1.947,35.619 -0.56,-12.033 -1.122,-24.066 -1.719,-36.869 -19.936,-0.213 -36.588,9.039 -53.806,16.357 -7.766,-23.828 -2.994,-48.02 1.807,-76.07 0.507,2.398 1.013,4.794 1.519,7.189 z"
   inkscape:connector-curvature="0"
   id="path73"
   style="fill:#9cd2d2" />
	<path
   d="m 275.087,79.245 c 0.161,3.122 0.322,6.245 0.559,10.863 -14.103,0 -27.967,0 -42.147,0 -3.708,-15.936 -7.382,-31.722 -11.055,-47.508 -2.636,-1.408 -2.953,-3.387 -1.43,-5.817 -0.091,-0.646 -0.182,-1.292 -0.272,-1.938 -0.265,-0.343 -0.401,-0.729 -0.409,-1.162 0,0 0.16,-0.142 0.161,-0.141 -0.165,-1.707 -0.331,-3.416 -0.529,-5.46 1.371,-0.341 2.719,-0.676 4.067,-1.012 2.537,-1.737 5.171,-1.147 7.599,-0.566 1.445,1.563 0.366,3.438 1.313,4.829 3.872,15.686 7.744,31.372 11.663,47.251 10.018,0 19.928,0 29.838,0 0.254,-0.033 0.509,-0.066 0.764,-0.1 -0.041,0.253 -0.081,0.507 -0.122,0.761 z"
   inkscape:connector-curvature="0"
   id="path75"
   style="fill:#3f3f3f" />
	<path
   d="m 196.856,90.018 c -13.078,3.053 -26.151,3.045 -39.22,-0.056 -4.354,-20.572 -8.708,-41.145 -13.21,-62.423 4.07,-0.198 7.773,-0.379 11.706,-0.57 4.662,17.342 9.271,34.492 13.983,52.022 8.615,0 16.872,0 26.095,0 0.232,3.969 0.439,7.498 0.646,11.027 z"
   inkscape:connector-curvature="0"
   id="path77"
   style="fill:#3f3f3f" />
	<path
   d="m 206.896,278.925 c -25.595,0 -51.189,0 -76.93,0 -1.084,3.638 -2.027,6.8 -2.969,9.96 -0.157,-3.328 -0.314,-6.655 -0.471,-9.984 18.673,-0.855 37.346,-1.738 56.022,-2.553 8.121,-0.354 16.248,-0.567 24.372,-0.847 0.51,0.009 1.02,0.018 1.526,0.025 0.258,0.133 0.469,0.323 0.628,0.57 0.35,1.772 -0.668,2.49 -2.178,2.829 z"
   inkscape:connector-curvature="0"
   id="path79"
   style="fill:#3f3f3f" />
	<path
   d="m 221.015,36.783 c 0.478,1.939 0.954,3.881 1.431,5.819 -3.22,7.229 -6.371,14.494 -9.7,21.676 -1.063,2.291 -2.6,4.363 -3.92,6.534 2.628,-11.856 4.602,-23.948 12.189,-34.029 z"
   inkscape:connector-curvature="0"
   id="path81"
   style="fill:#9cd2d2" />
	<path
   d="m 66.754,425.83 c 0,7.605 0,15.213 0,26.311 -4.607,-5.432 -7.093,-8.361 -9.578,-11.293 2.168,1.342 4.335,2.688 6.866,4.254 0.943,-6.694 1.828,-12.983 2.712,-19.272 z"
   inkscape:connector-curvature="0"
   id="path83"
   style="fill:#9cd2d2" />
	<path
   d="m 55.075,438.898 c -3.673,-3.322 -7.345,-6.646 -11.019,-9.969 6.197,0.533 8.615,5.244 11.019,9.969 z"
   inkscape:connector-curvature="0"
   id="path85"
   style="fill:#9cd2d2" />
	<path
   d="m 208.562,71.698 c -0.573,3.704 -1.145,7.408 -1.718,11.111 0.572,-3.704 1.145,-7.407 1.718,-11.111 z"
   inkscape:connector-curvature="0"
   id="path87"
   style="fill:#9cd2d2" />
	<path
   d="m 44.049,428.925 c -1.941,-1.381 -3.882,-2.76 -5.822,-4.143 1.941,1.382 3.881,2.762 5.822,4.143 z"
   inkscape:connector-curvature="0"
   id="path89"
   style="fill:#9cd2d2" />
	<path
   d="m 84.796,359.15 c -1.277,-0.699 -2.555,-1.399 -3.833,-2.101 1.278,0.702 2.556,1.402 3.833,2.101 z"
   inkscape:connector-curvature="0"
   id="path91"
   style="fill:#9cd2d2" />
	<path
   d="m 38.164,424.726 c -0.611,0.061 -1.223,0.119 -2.35,0.229 0.439,-0.83 0.69,-1.305 0.94,-1.777 0.47,0.515 0.94,1.03 1.41,1.548 z"
   inkscape:connector-curvature="0"
   id="path93"
   style="fill:#9cd2d2" />
	<path
   d="m 57.152,440.82 c -0.685,-0.633 -1.367,-1.264 -2.05,-1.895 0.683,0.633 1.367,1.262 2.05,1.895 z"
   inkscape:connector-curvature="0"
   id="path95"
   style="fill:#9cd2d2" />
	<path
   d="m 220.333,33.683 c 0.137,0.388 0.273,0.776 0.409,1.163 -0.137,-0.389 -0.273,-0.776 -0.409,-1.163 z"
   inkscape:connector-curvature="0"
   id="path97"
   style="fill:#4e669f" />
	<path
   d="m 74.178,352.766 c -0.348,-0.285 -0.695,-0.569 -1.042,-0.854 0.348,0.283 0.695,0.568 1.042,0.854 z"
   inkscape:connector-curvature="0"
   id="path99"
   style="fill:#9cd2d2" />
	<path
   d="m 69.783,420.853 c -0.297,0.346 -0.594,0.689 -0.891,1.033 0.296,-0.345 0.594,-0.689 0.891,-1.033 z"
   inkscape:connector-curvature="0"
   id="path101"
   style="fill:#9cd2d2" />
	<path
   d="m 68.88,421.908 c -0.293,0.363 -0.585,0.729 -0.878,1.092 0.293,-0.364 0.585,-0.729 0.878,-1.092 z"
   inkscape:connector-curvature="0"
   id="path103"
   style="fill:#9cd2d2" />
	<path
   d="m 68,423.001 c -0.264,0.363 -0.527,0.725 -0.79,1.086 0.264,-0.361 0.527,-0.722 0.79,-1.086 z"
   inkscape:connector-curvature="0"
   id="path105"
   style="fill:#9cd2d2" />
	<path
   d="m 132.989,506 c 0,-12.08 0,-24.158 0,-38.836 21.121,0 41.65,0 62.183,0.002 -0.026,13.414 -0.053,26.828 -0.081,40.242 -8.711,-0.102 -17.422,-0.203 -26.133,-0.305 -4.862,-1.295 -9.816,-0.334 -14.722,-0.59 -7.071,-0.371 -14.176,0.615 -21.231,-0.502 L 132.989,506 z"
   inkscape:connector-curvature="0"
   id="path107"
   style="fill:#f7f7f7" />
	<path
   d="m 195.104,552.949 c 0.144,0.33 0.287,0.66 0.43,0.992 -22.688,1.006 -45.442,3.113 -68.478,-1.52 -19.492,0 -39.969,0 -60.011,0 0,-11.852 0,-24.266 0,-39.229 20.832,9.91 47.935,-12.92 63.642,16.258 0.188,-3.533 0.411,-7.723 0.769,-14.455 21.258,0 42.265,0 63.271,0 0.005,0.693 0.01,1.391 0.015,2.088 -1.826,2.297 -4.435,1.988 -6.901,2 -14.646,0.064 -29.292,-0.012 -43.938,0.045 -7.998,0.029 -8.862,0.824 -8.75,8.959 0.098,7.098 -0.697,14.252 0.522,20.9 2.509,2.336 5.115,1.859 7.554,1.871 14.813,0.066 29.625,0.006 44.438,0.045 2.659,0.009 5.39,-0.2 7.437,2.046 z"
   inkscape:connector-curvature="0"
   id="path109"
   style="fill:#9cd2d2" />
	<path
   d="m 124.125,468.837 c -18.215,0 -36.431,0 -54.621,0 -1.102,-2.723 -1.731,-4.277 -3.225,-7.971 19.916,0 38.457,0 56.666,0 1.078,-4.578 1.719,-7.305 2.361,-10.027 1.934,6.697 1.191,11.896 -8.649,12.756 3.157,2.217 5.313,3.729 7.468,5.242 z"
   inkscape:connector-curvature="0"
   id="path111"
   style="fill:#9cd2d2" />
	<path
   d="m 105.018,507.05 c 5.972,-0.559 11.944,-1.115 19.146,-1.787 0,-12.182 0,-24.289 0.001,-36.396 2.525,12.441 4.099,24.896 1.1,38.184 -7.159,-10e-4 -13.703,-10e-4 -20.247,-10e-4 z"
   inkscape:connector-curvature="0"
   id="path113"
   style="fill:#9cd2d2" />
	<path
   d="m 26.064,508.931 c 14.379,-0.563 28.759,-1.125 43.139,-1.688 -14.379,0.565 -28.759,1.126 -43.139,1.688 z"
   inkscape:connector-curvature="0"
   id="path115"
   style="fill:#9cd2d2" />
	<path
   d="m 133.005,506.011 c 11.984,0.363 23.969,0.729 35.953,1.092 -11.984,-0.363 -23.968,-0.728 -35.953,-1.092 z"
   inkscape:connector-curvature="0"
   id="path117"
   style="fill:#9cd2d2" />
	<path
   d="m 125.318,449.255 c -0.018,-1.492 -0.035,-2.986 -0.05,-4.48 0.018,1.494 0.034,2.986 0.05,4.48 z"
   inkscape:connector-curvature="0"
   id="path119"
   style="fill:#9cd2d2" />
	<path
   d="m 355.086,79.845 c 0,3.487 0,6.976 0,11.196 -17.132,0 -33.652,0 -50.785,0 -4.404,-17.559 -8.751,-34.896 -13.098,-52.232 -0.878,-0.837 -0.855,-1.977 -1.027,-3.053 -0.306,-1.365 0.066,-2.619 0.631,-3.841 1.792,-6.054 6.515,-1.221 10.218,-3.419 4.371,17.485 8.593,34.371 12.604,50.416 14.145,0 26.866,0 39.59,0 0.967,-0.38 1.263,0.582 1.867,0.933 z"
   inkscape:connector-curvature="0"
   id="path121"
   style="fill:#3f3f3f" />
	<path
   d="m 290.806,31.915 c 0.195,1.342 0.392,2.685 0.587,4.026 -1.758,1.808 -3.453,3.661 -4.396,6.06 -7.029,11.44 -12.589,23.35 -11.909,37.249 -0.356,-0.086 -0.569,-0.305 -0.643,-0.664 -4.201,-12.725 3.168,-22.945 7.658,-33.633 1.988,-4.729 5.748,-8.715 8.703,-13.038 z"
   inkscape:connector-curvature="0"
   id="path123"
   style="fill:#63acac" />
	<path
   d="m 370.154,35.87 c -4.484,6.62 -8.971,13.24 -13.455,19.86 -0.4,0.904 -0.979,0.817 -1.637,0.294 3.473,-7.337 6.945,-14.673 8.461,-17.875 3.953,-5.752 5.342,-7.773 7.738,-11.263 2.385,0.556 5.826,1.358 9.266,2.158 -3.285,-0.003 -6.566,-0.003 -10.373,-0.003 0,2.706 0,4.768 0,6.829 z"
   inkscape:connector-curvature="0"
   id="path125"
   style="fill:#63acac" />
	<path
   d="m 404.223,272.252 c -0.189,-13.075 -0.381,-26.15 -0.574,-39.224 0.627,11.734 1.255,23.469 1.882,35.203 4.877,0.851 9.756,1.7 14.635,2.549 -0.136,0.195 -0.271,0.392 -0.404,0.588 -5.015,3.22 -10.282,1.978 -15.539,0.884 z"
   inkscape:connector-curvature="0"
   id="path127"
   style="fill:#63acac" />
	<path
   d="m 355.063,56.024 c 0.547,-0.098 1.093,-0.195 1.639,-0.293 0.234,2.585 0.47,5.172 0.757,8.32 -5.283,3.992 -1.332,10.337 -2.371,15.793 -0.623,-0.311 -1.246,-0.621 -1.869,-0.933 -0.028,-6.286 -0.058,-12.573 -0.087,-18.859 0.573,-1.045 0.95,-2.197 1.727,-3.13 0.089,-0.293 0.159,-0.593 0.204,-0.898 z"
   inkscape:connector-curvature="0"
   id="path129"
   style="fill:#9cd2d2" />
	<path
   d="m 477.852,17.956 c 0.272,5.081 0.545,10.163 0.817,15.245 -0.273,-5.082 -0.546,-10.164 -0.817,-15.245 z"
   inkscape:connector-curvature="0"
   id="path131"
   style="fill:#63acac" />
	<path
   d="m 232.943,31.333 c -0.639,-1.311 -1.277,-2.62 -2.078,-4.263 -2.257,0 -4.546,0 -6.835,0 2.567,-0.918 5.135,-1.837 8.55,-3.06 0.175,3.528 0.27,5.426 0.363,7.323 z"
   inkscape:connector-curvature="0"
   id="path133"
   style="fill:#63acac" />
	<path
   d="m 354.855,56.923 c -0.576,1.043 -1.151,2.087 -1.728,3.13 0.578,-1.044 1.152,-2.087 1.728,-3.13 z"
   inkscape:connector-curvature="0"
   id="path135"
   style="fill:#63acac" />
	<path
   d="m 515.645,716.849 c 0.537,-0.018 1.074,-0.037 1.613,-0.055 -0.537,0.018 -1.076,0.036 -1.613,0.055 z"
   inkscape:connector-curvature="0"
   id="path137"
   style="fill:#3d8e8e" />
	<path
   d="m 459.008,586.175 c 0,7.943 0,15.887 0,24.359 -57.336,0 -114.293,0 -173,0 1.013,-16.771 2.002,-33.152 2.992,-49.535 h 10e-4 c 4.793,-0.822 9.585,-1.646 15.241,-2.617 0.174,-0.783 0.462,-2.08 0.75,-3.377 l 0.014,-0.014 c 0.373,-0.689 0.746,-1.381 1.12,-2.07 1.256,-0.074 2.511,-0.146 3.767,-0.219 3.854,-1.271 7.834,-1.221 11.828,-1.215 20.475,0.031 40.947,0.021 61.422,0.006 2.677,-0.002 5.332,-0.021 7.787,1.262 22.249,0 44.498,0 68.078,0 0,12.289 0,22.854 0,33.42 z"
   inkscape:connector-curvature="0"
   id="path139"
   style="fill:#4e669f" />
	<path
   d="m 206.896,278.925 c 0.726,-0.942 1.451,-1.885 2.177,-2.828 31.86,0 63.72,0 96.355,0 0,29.238 0,57.488 0.003,85.739 -0.728,0.559 -1.453,1.115 -2.181,1.672 -0.856,0.361 -1.59,0.969 -2.476,1.279 -0.598,0.201 -1.211,0.299 -1.84,0.318 -17.105,-0.68 -34.169,0.887 -51.263,1.025 -4.165,0.035 -8.269,-0.555 -12.41,-0.725 -1.976,-0.08 -3.994,-0.457 -5.326,-2.25 -19.711,3.951 -25.151,-4.358 -23.356,-23.527 1.883,-20.065 0.356,-40.454 0.317,-60.703 z"
   inkscape:connector-curvature="0"
   id="path141"
   style="fill:#cc3e3e" />
	<path
   d="m 312.055,551.507 c -0.166,-25.023 -0.334,-50.047 -0.501,-75.07 0.044,-4.514 -0.337,-9.031 0.198,-13.539 24.719,-13.789 50.013,-15.287 78.212,-2.965 0,30.113 0,60.842 0,91.57 -0.575,1.598 -1.958,0.963 -2.989,0.965 -23.976,0.039 -47.951,0.039 -71.928,0 -1.031,-0.002 -2.412,0.631 -2.992,-0.961 z"
   inkscape:connector-curvature="0"
   id="path143"
   style="fill:#cc9d3e" />
	<path
   d="m 309.016,362.605 c 0.099,-0.469 0.193,-0.936 0.291,-1.402 0.262,-20.777 0.496,-41.556 -0.147,-62.331 0,-7.449 0,-14.898 0,-24.087 27.006,0 53.45,0 79.895,-0.001 0.271,29.112 0.538,58.229 0.809,87.344 -2.147,2.984 -5.351,2.934 -8.522,2.945 -19.381,0.074 -38.763,-0.035 -58.145,0.066 -4.606,0.023 -9.312,0.977 -13.379,-2.172 -0.27,-0.12 -0.536,-0.241 -0.802,-0.362 z"
   inkscape:connector-curvature="0"
   id="path145"
   style="fill:#cc3e3e" />
	<path
   d="m 478.884,277.299 c 0,27.688 0,55.374 0,83.592 -24.501,0 -47.026,0 -70.419,0 0.557,-1.962 1.014,-3.569 1.49,-5.253 -1.604,0 -3.592,0 -5.579,0.003 -0.149,-26.902 -0.301,-53.81 -0.452,-80.715 4.082,-3.534 9.108,-1.882 13.401,-1.51 5.002,0.435 9.888,0.021 14.823,0.097 11.276,0.172 22.552,0.558 33.83,0.688 1.971,0.023 3.963,0.455 5.942,-0.105 3.211,-0.908 5.5,0.272 6.964,3.203 z"
   inkscape:connector-curvature="0"
   id="path147"
   style="fill:#9cd2d2" />
	<path
   d="m 300.338,363.091 c 0.971,0.137 1.942,0.275 2.913,0.416 0.001,12.086 0.001,24.172 0.001,36.256 -20.552,8.607 -37.487,21.256 -52.23,38.029 -11.569,-13.734 -26.485,-22.258 -41.888,-30.082 -1.142,-0.756 -0.469,-1.918 -0.643,-2.889 0.031,-13.486 0.061,-26.973 0.091,-40.453 7.119,-0.4 14.24,-0.809 21.357,-1.213 23.579,-0.021 47.161,-0.041 70.742,-0.063 l -0.343,-10e-4 z"
   inkscape:connector-curvature="0"
   id="path149"
   style="fill:#f7f7f7" />
	<path
   d="m 194.944,459.962 c -20.361,0 -40.723,0 -61.538,0 0,-19.488 0,-38.047 0,-57.516 21.644,-5.377 41.39,4.096 61.753,8.615 -0.071,16.302 -0.143,32.603 -0.215,48.901 z"
   inkscape:connector-curvature="0"
   id="path151"
   style="fill:#f7f7f7" />
	<path
   d="m 309.814,362.968 c 26.682,-0.279 53.362,-0.561 80.045,-0.84 0.001,9.891 0.001,19.783 0.001,30.227 -27.155,-5.795 -53.354,-3.627 -80.046,4.771 0,-12.031 0,-23.093 0,-34.158 z"
   inkscape:connector-curvature="0"
   id="path153"
   style="fill:#cc9d3e" />
	<path
   d="m 195.104,552.949 c -20.376,0 -40.752,0 -60.786,0 -8.281,-23.49 -0.253,-35.836 22.516,-35.941 12.636,-0.059 25.272,0.045 37.909,0.076 0.158,5.059 0.315,10.119 0.473,15.18 0.44,4.504 0.519,9.008 -0.057,13.508 -0.018,2.392 -0.036,4.784 -0.055,7.177 z"
   inkscape:connector-curvature="0"
   id="path155"
   style="fill:#f7f7f7" />
	<path
   d="m 195.241,400.886 c -18.841,-6.791 -38.375,-7.748 -58.202,-8.521 -7.997,-0.314 -2.726,-10.002 -4.046,-15.275 -1.042,-4.166 -1.331,-8.52 -1.955,-12.789 21.322,-0.088 42.645,-0.176 63.968,-0.264 0.078,12.283 0.157,24.566 0.235,36.849 z"
   inkscape:connector-curvature="0"
   id="path157"
   style="fill:#f7f7f7" />
	<path
   d="m 208.977,468.019 c 8.026,6.568 16.052,13.139 23.186,18.979 4.33,-8.018 10.503,-19.449 17.263,-31.965 11.169,16.301 17.498,32.895 22.143,50.838 -21.261,0 -41.668,0 -62.509,0 0,-12.744 0,-25.363 0,-37.982 l -0.083,0.13 z"
   inkscape:connector-curvature="0"
   id="path159"
   style="fill:#f7f7f7" />
	<path
   d="m 259.203,444.771 c 12.002,-13.063 26.236,-24.557 43.813,-33.133 0,15.322 0,30.115 0,44.588 -8.734,7.455 -17.435,14.879 -25.873,22.08 -5.678,-10.613 -11.609,-21.701 -17.94,-33.535 z"
   inkscape:connector-curvature="0"
   id="path161"
   style="fill:#f7f7f7" />
	<path
   d="m 345.932,399.72 c 0,14.586 0,28.35 0,41.428 -11.729,3.654 -23.087,7.191 -34.662,10.797 0,-14.111 0,-28.842 0,-43.926 10.362,-5.502 21.73,-8.426 34.662,-8.299 z"
   inkscape:connector-curvature="0"
   id="path163"
   style="fill:#cc9d3e" />
	<path
   d="m 387.852,402.806 c 0,14.973 0,29.707 0,44.068 -11.089,-1.982 -21.916,-3.92 -33.471,-5.984 0,-13.076 0,-26.939 0,-41.396 11.158,-1.549 22.32,-0.668 33.471,3.312 z"
   inkscape:connector-curvature="0"
   id="path165"
   style="fill:#cc9d3e" />
	<path
   d="m 509.775,558.521 c -7.938,-25.828 -20.437,-48.949 -37.229,-70.381 -7.304,-9.32 -1.979,-22.637 -1.409,-37.604 25.105,32.918 38.621,66.301 40.498,104.205 -0.299,1.419 0.119,3.188 -1.86,3.78 z"
   inkscape:connector-curvature="0"
   id="path167"
   style="fill:#cc9d3e" />
	<path
   d="m 238.849,515.97 c 0,11.449 0,22.521 0,34.279 -9.963,0 -19.654,0 -29.852,0 0,-10.969 0,-22.326 0,-34.279 9.582,0 19.403,0 29.852,0 z"
   inkscape:connector-curvature="0"
   id="path169"
   style="fill:#f7f7f7" />
	<path
   d="m 209.055,420.367 c 13.352,6.48 23.9,16.477 33.943,26.9 -5.106,8.938 -10.025,17.545 -14.391,25.184 -21.804,-10.846 -24.022,-30.209 -19.552,-52.084 z"
   inkscape:connector-curvature="0"
   id="path171"
   style="fill:#f7f7f7" />
	<path
   d="m 247.681,515.742 c 8.016,0 16.078,0 24.627,0 0,11.582 0,22.816 0,34.654 -8.024,0 -16.046,0 -24.627,0 0,-11.484 0,-22.85 0,-34.654 z"
   inkscape:connector-curvature="0"
   id="path173"
   style="fill:#f7f7f7" />
	<path
   d="m 304.355,546.234 c -0.228,1.605 -0.453,3.213 -0.834,5.91 -6.304,0 -12.535,0 -18.767,0.002 0,-11.912 0,-23.826 0,-36.15 6.324,0 12.39,0 18.929,0 0.199,1.189 0.434,2.57 0.666,3.951 l 0.041,0.211 c -0.023,2.576 -0.049,5.154 -0.072,7.73 l -0.002,0.217 c 0.014,6.043 0.028,12.086 0.039,18.129 z"
   inkscape:connector-curvature="0"
   id="path175"
   style="fill:#f7f7f7" />
	<path
   d="m 303.854,466.22 c 0,14.258 0,26.473 0,39.115 -6.785,0 -13.513,0 -20.834,0 -1.112,-5.178 -2.289,-10.656 -3.742,-17.42 7.539,-6.656 15.466,-13.652 24.576,-21.695 z"
   inkscape:connector-curvature="0"
   id="path177"
   style="fill:#f7f7f7" />
	<path
   d="m 478.884,277.299 c -1.317,-0.666 -2.637,-1.333 -4.689,-2.371 -22.962,0 -46.615,0 -70.271,-10e-4 0.1,-0.894 0.199,-1.786 0.299,-2.677 5.181,-0.293 10.357,-0.588 15.537,-0.882 19.577,0.273 39.154,0.547 58.742,0.825 0.135,1.705 0.258,3.406 0.382,5.106 z"
   inkscape:connector-curvature="0"
   id="path179"
   style="fill:#f7f7f7" />
	<path
   d="m 312.055,551.507 c 25.971,-0.002 51.939,-0.002 77.909,-0.004 0.322,0.418 0.644,0.836 0.966,1.254 -27.012,-0.02 -54.024,-0.037 -81.037,-0.055 0.72,-0.398 1.441,-0.796 2.162,-1.195 z"
   inkscape:connector-curvature="0"
   id="path181"
   style="fill:#51bd51" />
	<path
   d="m 509.775,558.521 c 0.621,-1.258 1.24,-2.518 1.86,-3.777 0.287,3.594 0.574,7.189 0.861,10.787 -0.412,0.074 -0.826,0.148 -1.238,0.225 -0.492,-2.411 -0.988,-4.823 -1.483,-7.235 z"
   inkscape:connector-curvature="0"
   id="path183"
   style="fill:#f7f7f7" />
	<path
   d="m 195.159,545.771 c 0.019,-4.512 0.038,-9.023 0.057,-13.521 -0.019,4.515 -0.038,9.019 -0.057,13.521 z"
   inkscape:connector-curvature="0"
   id="path185"
   style="fill:#63acac" />
	<path
   d="m 311.752,462.898 c -0.066,4.514 -0.132,9.025 -0.197,13.537 0.064,-4.51 0.131,-9.023 0.197,-13.537 z"
   inkscape:connector-curvature="0"
   id="path187"
   style="fill:#cc9d3e" />
	<path
   d="m 208.492,404.822 c 0.214,0.963 0.429,1.926 0.643,2.889 -0.215,-0.963 -0.429,-1.926 -0.643,-2.889 z"
   inkscape:connector-curvature="0"
   id="path189"
   style="fill:#ed6666" />
	<path
   d="m 304.393,520.158 c 0,0 -0.043,-0.215 -0.043,-0.213 0.063,-0.027 0.127,-0.057 0.189,-0.082 -0.049,0.097 -0.098,0.195 -0.146,0.295 z"
   inkscape:connector-curvature="0"
   id="path191"
   style="fill:#63acac" />
	<polygon
   points="304.318,527.888 304.498,528 304.316,528.105 304.122,527.994 "
   id="polygon193"
   style="fill:#63acac" />
	<path
   d="m 209.059,467.888 c -0.226,-0.016 -0.453,-0.031 -0.207,-0.014 -0.221,-0.262 -0.048,-0.059 0.125,0.145 l 0.082,-0.131 z"
   inkscape:connector-curvature="0"
   id="path195"
   style="fill:#f7f7f7" />
	<path
   d="m 304.992,555.005 c -0.098,-0.057 -0.193,-0.115 -0.291,-0.174 0.102,0.055 0.203,0.105 0.305,0.16 l -0.014,0.014 z"
   inkscape:connector-curvature="0"
   id="path197"
   style="fill:#4e669f" />
	<path
   d="m 309.158,298.872 c 0.049,20.776 0.098,41.554 0.146,62.331 -0.047,-20.777 -0.097,-41.555 -0.146,-62.331 z"
   inkscape:connector-curvature="0"
   id="path199"
   style="fill:#ff9393" />
	<path
   d="m 286.998,42.001 c 1.465,-2.019 2.931,-4.038 4.396,-6.058 -0.063,0.954 -0.127,1.91 -0.19,2.866 -1.403,1.064 -2.805,2.129 -4.206,3.192 z"
   inkscape:connector-curvature="0"
   id="path201"
   style="fill:#9cd2d2" />
	<path
   d="m 69.479,516.853 c 18.262,2.125 37.679,-5.73 52.806,3.809 6.804,4.291 3.545,20.725 0.895,31.967 -18.215,0 -35.737,0 -53.7,0 -0.001,-11.874 -0.001,-23.397 -0.001,-35.776 z"
   inkscape:connector-curvature="0"
   id="path203"
   style="fill:#f7f7f7" />
	<path
   d="m 289.001,561 c 1.107,0.193 2.215,0.386 0,0 1.938,1.125 0.968,0.562 0,0 l 0,0 z"
   inkscape:connector-curvature="0"
   id="path205"
   style="fill:#63acac" />
	<path
   d="m 300.338,363.091 c 0.113,0 0.227,0.002 0.342,0.002 0.002,0 -0.342,-0.002 -0.342,-0.002 z"
   inkscape:connector-curvature="0"
   id="path207"
   style="fill:#3f3f3f" />
</g>
</svg>