<?xml version="1.0" encoding="UTF-8" standalone="no"?>
<!-- Created with Inkscape (http://www.inkscape.org/) -->

<svg
   xmlns:dc="http://purl.org/dc/elements/1.1/"
   xmlns:cc="http://creativecommons.org/ns#"
   xmlns:rdf="http://www.w3.org/1999/02/22-rdf-syntax-ns#"
   xmlns:svg="http://www.w3.org/2000/svg"
   xmlns="http://www.w3.org/2000/svg"
   xmlns:inkscape="http://www.inkscape.org/namespaces/inkscape"
   version="1.1"
   width="700"
   height="262.146"
   viewBox="0 0 700 262.146"
   id="Layer_1"
   xml:space="preserve"><metadata
   id="metadata299"><rdf:RDF><cc:Work
       rdf:about=""><dc:format>image/svg+xml</dc:format><dc:type
         rdf:resource="http://purl.org/dc/dcmitype/StillImage" /></cc:Work></rdf:RDF></metadata><defs
   id="defs297" />
<path
   d="m 700,132.275 c -1.631,4.967 -3.416,9.89 -4.854,14.912 -2.058,7.181 -3.868,14.432 -5.767,21.657 -0.532,2.028 -1.109,4.063 2.311,3.808 5.849,-0.436 2.459,4.129 3.184,6.328 0.935,2.84 -1.309,2.925 -3.467,3.201 -7.214,0.924 -14.383,-0.476 -21.581,-0.192 -2.3,0.091 -4.478,-0.167 -4.44,3.071 -0.484,0.71 -1.172,0.83 -1.953,0.682 -3.732,-3.315 -12.625,-3.144 -17.125,0.346 -1.679,0.438 -3.282,0.549 -4.523,-0.984 0.686,-0.596 1.371,-1.192 2.057,-1.789 -0.74,-0.429 -1.436,-1.073 -2.229,-1.232 -1.125,-0.225 -2.357,-0.288 -3.479,-0.076 -4.348,0.819 -5.253,-1.11 -5.158,-5.15 0.088,-3.663 1.458,-3.962 4.527,-3.616 6.394,0.721 6.373,0.562 6.428,-5.744 0.32,-37.631 0.66,-75.262 0.993,-112.893 0.008,-0.833 -0.165,-1.729 0.089,-2.481 0.302,-0.896 0.974,-1.665 1.485,-2.489 0.492,0.888 1.38,1.764 1.409,2.666 0.131,4.155 0.033,8.319 0,12.479 -0.279,34.619 -0.567,69.238 -0.839,103.857 -0.018,2.254 -0.55,4.396 3.212,4.722 3.801,0.328 4.732,-0.465 4.749,-4.299 0.121,-27.644 0.489,-55.287 0.782,-82.931 0.012,-1.165 -0.129,-2.369 0.129,-3.479 0.129,-0.552 1.014,-1.302 1.534,-1.285 0.538,0.019 1.374,0.784 1.503,1.353 0.25,1.112 0.111,2.316 0.111,3.481 0.004,19.43 0.002,38.858 0.002,59.749 7.714,-16.642 14.86,-32.059 22.007,-47.476 0.354,0.07 0.708,0.141 1.062,0.211 -0.168,1.308 -0.15,2.672 -0.532,3.913 -6.91,22.46 -13.888,44.899 -20.72,67.383 -0.201,0.659 0.933,2.444 1.596,2.529 4.295,0.553 7.317,-0.322 9.73,-5.024 8.1,-15.78 16.957,-31.173 25.591,-46.677 0.389,-0.697 1.437,-1.028 2.177,-1.529 C 700,123.608 700,127.942 700,132.275 z"
   inkscape:connector-curvature="0"
   id="path3"
   style="fill:#3d8e8e;fill-rule:evenodd" />
<path
   d="m 0,186.275 c 6.328,0.42 12.656,0.84 18.984,1.261 0.536,0.959 0.826,1.904 -0.146,2.785 -6.279,-0.016 -12.559,-0.03 -18.838,-0.046 0,-1.333 0,-2.667 0,-4 z"
   inkscape:connector-curvature="0"
   id="path5"
   style="fill:#3d8e8e;fill-rule:evenodd" />
<path
   d="m 587.258,0.366 c 26.371,0.319 52.741,0.624 79.111,0.986 1.946,0.026 3.887,0.47 5.83,0.72 -2.386,2.151 -5.523,1.464 -8.285,2.192 -6.934,1.262 -13.879,2.458 -20.797,3.802 -11.043,2.146 -22.076,4.354 -33.101,6.6 -15.147,3.085 -29.805,7.898 -43.915,14.06 -9.356,4.086 -18.302,9.239 -27.055,14.537 -6.08,3.681 -11.52,8.419 -17.244,12.685 -2.172,-0.086 -1.924,-1.901 -2.164,-3.218 -0.328,-1.796 -0.272,-3.651 -0.176,-5.471 0.197,-3.68 -1.214,-5.354 -5.135,-5.51 -7.316,-0.289 -7.785,-0.974 -7.862,-8.298 -0.058,-5.481 -0.073,-10.966 0.001,-16.446 0.048,-3.434 -1.116,-5.092 -4.863,-5.233 -9.836,-0.372 -10.012,-0.303 -10.07,9.557 -0.041,6.803 0.233,13.602 -0.729,20.396 -0.692,4.884 0.375,5.634 5.365,6.039 4.152,0.337 10.02,-2.04 12.013,2.241 2.769,5.947 2.306,12.899 -0.078,19.354 -3.833,6.829 -8.282,13.395 -11.354,20.552 -4.459,10.392 -7.926,21.209 -11.816,31.845 1.245,1.245 1.236,2.799 0.513,4.137 -1.605,2.966 -1.706,6.375 -3.019,9.404 -2.258,4.966 -0.506,10.21 -1.041,15.293 0.074,1.328 -0.014,2.656 -0.058,3.984 -0.216,6.658 -2.066,7.954 -8.384,5.373 -15.483,-6.327 -29.193,-15.65 -42.531,-25.57 -0.256,-0.19 -0.401,-0.524 -0.595,-0.804 -0.48,-0.772 -0.802,-1.601 -0.982,-2.491 -0.236,-18.445 -0.739,-36.887 0.243,-55.319 1.642,-4.864 5.182,-6.525 10.068,-6.007 1.15,0.122 2.329,-0.044 3.489,0.009 3.269,0.149 4.983,-1.148 4.87,-4.644 -0.113,-3.488 -0.067,-6.984 -0.02,-10.475 0.045,-3.333 -1.455,-4.848 -4.798,-4.85 -4.489,-0.002 -8.981,0.096 -13.468,-0.06 -5.111,-0.178 -5.718,-0.813 -5.733,-5.847 -0.017,-5.155 0.005,-10.311 0.002,-15.465 -0.001,-1.33 0.054,-2.671 -0.25,-3.975 -0.274,-1.177 -0.708,-2.316 -2.239,-2.15 -1.3,0.142 -1.395,1.237 -1.494,2.228 -0.117,1.159 -0.016,2.326 -0.014,3.49 0.02,9.479 0.036,18.957 -0.014,28.436 -0.012,2.29 0.322,4.714 -1.533,6.599 -0.246,15.575 -0.492,31.149 -0.74,46.725 -1.428,-2.827 -0.608,-5.848 -0.648,-8.767 -0.119,-8.729 -0.051,-17.46 -0.055,-26.188 -0.019,13.095 0.02,26.189 -0.064,39.283 -0.012,1.719 0.829,3.66 -0.75,5.188 -16.508,-15.91 -26.422,-35.314 -30.592,-57.76 0.739,-3.484 0.555,-6.978 0.09,-10.474 2.209,-9.366 5.238,-18.561 13.709,-24.019 7.052,-4.544 14.526,-9.15 22.473,-11.433 14.926,-4.286 30.196,-7.877 45.566,-9.978 17.898,-2.445 36.057,-2.983 54.102,-4.349 1.727,-0.936 3.595,-0.464 5.389,-0.468 18.473,-0.04 36.945,-0.011 55.417,-0.045 1.803,-0.001 3.662,0.403 5.415,-0.401 z"
   inkscape:connector-curvature="0"
   id="path7"
   style="fill:#1f3871;fill-rule:evenodd" />
<path
   d="m 481.436,136.827 c 1.166,-5.022 2.332,-10.046 3.498,-15.07 7.061,-3.006 14.126,-5.997 21.178,-9.02 5.735,-2.457 11.457,-4.943 17.18,-7.432 3.197,-1.39 5.102,-1.169 5.847,3.017 1.854,10.416 4.222,20.739 6.216,31.132 0.215,1.125 -0.295,3.134 -1.111,3.599 -10.404,5.916 -21.025,11.449 -31.391,17.43 -13.139,7.58 -26.072,15.515 -39.155,23.193 -1.321,0.775 -3.06,0.843 -4.604,1.239 -2.608,-0.503 -3.042,1.545 -3.781,3.244 -4.05,4.585 -5.32,4.848 -9.011,1.893 -1.516,-4.627 -0.07,-9.509 -1.163,-14.826 -1.853,5.008 0.819,10.079 -2.18,14.258 -3.385,1.438 -3.806,-1.332 -4.761,-3.348 -0.066,-0.246 -0.131,-0.493 -0.194,-0.74 -0.993,-4.865 -1.634,-9.838 -3.072,-14.567 -1.597,-5.251 -3.92,-10.28 -5.927,-15.406 -2.705,-6.851 -1.35,-13.882 -0.836,-20.855 0.089,-1.213 1.137,-1.991 2.574,-1.411 9.118,5.968 18.057,12.236 27.42,17.792 5.734,3.403 12.234,5.492 18.171,8.591 3.854,2.012 3.81,-0.026 3.764,-2.759 -0.036,-2.165 0.023,-4.331 0.04,-6.497 1.162,-2.585 0.771,-5.218 0.503,-7.927 -0.18,-1.811 -0.926,-3.911 0.795,-5.53 z"
   inkscape:connector-curvature="0"
   id="path9"
   style="fill:#cc9d3e;fill-rule:evenodd" />
<path
   d="m 302.843,173.976 c 1.071,-1.729 2.141,-3.458 3.211,-5.187 0.381,-0.858 0.531,-1.877 1.572,-2.28 4.42,-6.384 8.885,-12.737 13.208,-19.187 0.599,-0.894 0.489,-2.262 0.707,-3.41 0.508,-1.21 1.415,-2.168 2.066,-3.292 3.539,-4.436 5.766,-9.752 9.458,-14.082 0.558,-0.534 1.116,-1.067 1.674,-1.602 -0.837,-0.234 -1.673,-0.665 -2.513,-0.673 -9.371,-0.095 -18.743,-0.123 -28.115,-0.17 -0.32,-0.624 -0.173,-1.107 0.435,-1.451 7.218,-1.781 14.561,-0.72 21.836,-0.751 4.414,-0.019 8.205,-0.536 10.794,-4.482 1.236,-0.976 2.962,-1.693 3.631,-2.967 5.527,-10.522 8.431,-21.417 5.259,-33.449 -2.555,-9.692 -4.435,-19.563 -6.711,-29.791 0.806,0.3 1.729,0.343 2.053,0.806 9.125,13.045 18.685,25.822 27.119,39.304 7.818,12.497 8.808,26.097 2.577,39.834 1.548,2.293 0.352,4.495 -0.319,6.657 -0.486,1.569 -1.411,3.009 -1.181,4.754 -1.569,4.468 -2.667,9.086 -4.252,13.55 -0.793,0.916 -2.002,1.712 -2.309,2.769 -1.485,5.11 -2.728,10.292 -4.056,15.448 -0.239,0.211 -0.479,0.421 -0.717,0.635 -2.515,1.212 -5.216,0.821 -7.857,0.885 -13.462,0.322 -26.942,-0.642 -40.393,0.579 -2.622,-0.136 -5.939,1.738 -7.177,-2.447 z"
   inkscape:connector-curvature="0"
   id="path11"
   style="fill:#3f3f3f;fill-rule:evenodd" />
<path
   d="m 259.629,98.54 c 3.229,-27.742 13.182,-52.512 31.294,-72.897 0.518,9.919 -0.262,20.356 1.841,30.176 5.004,23.366 17.165,42.58 37.192,56.316 0.674,0.462 1.21,1.125 1.812,1.694 -1.546,2.527 -4.115,1.804 -6.32,1.815 -15.314,0.085 -30.629,0.035 -45.943,0.049 -2.325,0.002 -4.666,-0.15 -6.942,0.519 -1.936,0.264 -3.76,-0.271 -5.587,-0.794 -1.791,-0.737 -3.582,-1.475 -5.373,-2.212 -2.917,-2.176 -2.004,-5.338 -2.067,-8.221 -0.049,-2.146 -0.138,-4.3 0.093,-6.445 z"
   inkscape:connector-curvature="0"
   id="path13"
   style="fill:#cc3e3e;fill-rule:evenodd" />
<path
   d="m 243.793,154.624 c 2.295,-1.557 4.591,-3.112 6.955,-4.716 0.229,4.354 0.467,8.865 0.705,13.376 0.207,0.634 0.155,-0.221 0.235,0.434 1.684,13.869 1.02,27.764 0.377,41.656 -0.03,0.65 -0.552,1.189 -1.055,1.642 0,6.235 0,12.47 0,19.643 -5.151,-4.749 -9.189,-8.951 -13.717,-12.535 -7.125,-5.641 -15.383,-8.979 -24.462,-9.769 -2.83,-0.246 -3.789,-1.113 -3.61,-3.853 0.205,-3.139 0.133,-6.295 0.181,-9.443 -1.154,-5.563 -0.869,-11.199 -0.759,-16.813 0.118,-6.03 2.231,-8.701 8.076,-8.205 11.223,0.952 19.209,-4.883 27.074,-11.417 z"
   inkscape:connector-curvature="0"
   id="path15"
   style="fill:#3f3f3f;fill-rule:evenodd" />
<path
   d="m 591.748,185.141 c 2.57,-0.358 6.729,0.066 7.373,-1.241 1.27,-2.576 0.684,-6.112 0.697,-9.251 0.058,-12.868 -0.008,-25.736 0.159,-38.602 0.017,-1.293 1.063,-3.424 2.038,-3.692 2.859,-0.787 3.025,1.399 3.007,3.602 -0.062,7.154 -0.022,14.31 0.692,21.636 2.736,-10.681 5.471,-21.362 8.521,-33.272 4.14,16.94 8.239,32.422 11.525,48.073 0.823,3.922 -0.967,8.393 -1.555,12.61 1.258,2.535 3.664,2.638 5.978,2.65 19.212,0.104 38.423,0.102 57.636,0.004 2.327,-0.012 4.69,-0.188 6.108,-2.521 2.364,4.279 1.985,5.176 -2.24,5.307 -8.14,0.252 -8.128,0.255 -10.24,8.091 -1.222,4.531 -2.493,9.05 -3.742,13.574 -0.416,-0.055 -0.833,-0.109 -1.249,-0.164 0,-1.123 -0.225,-2.302 0.039,-3.359 1.197,-4.813 2.371,-9.645 3.882,-14.364 0.861,-2.693 0.851,-3.882 -2.528,-3.859 -17.314,0.116 -34.631,-0.019 -51.943,0.187 -1.317,0.016 -3.423,1.768 -3.784,3.09 -2.507,9.165 -4.638,18.433 -6.933,27.657 -0.176,0.709 -0.678,1.337 -1.029,2.002 -0.637,-0.449 -1.654,-0.774 -1.847,-1.367 -0.915,-2.818 -1.686,-5.691 -2.361,-8.579 -1.685,-7.202 -3.29,-14.423 -5.489,-21.519 0,2.076 0.211,4.186 -0.102,6.215 -0.129,0.84 -1.357,2.07 -2.127,2.101 -0.828,0.032 -2.369,-1.068 -2.439,-1.788 -0.258,-2.63 -0.031,-5.308 0.012,-7.968 -0.759,-2.548 -2.186,-4.14 -5.128,-3.956 -1.083,0.065 -2.253,-0.192 -2.931,-1.297 z"
   inkscape:connector-curvature="0"
   id="path17"
   style="fill:#3d8e8e;fill-rule:evenodd" />
<path
   d="m 590.088,190.26 c -0.253,11.305 -0.464,22.61 -0.818,33.911 -0.039,1.261 -0.894,2.495 -1.37,3.741 -0.551,-1.173 -1.532,-2.33 -1.577,-3.522 -0.182,-4.806 -0.075,-9.623 -0.879,-14.835 -3.223,5.209 -6.447,10.418 -10.338,16.704 0,-10.54 0.066,-19.898 -0.049,-29.255 -0.026,-2.175 -0.395,-6.114 -1.071,-6.219 -3.726,-0.574 -7.63,-0.466 -11.39,0.035 -0.813,0.108 -1.36,2.765 -1.888,4.296 -0.737,2.14 -1.341,4.325 -2.071,6.72 -1.534,-3.984 -1.958,-9.105 -4.616,-10.882 -2.778,-1.856 -7.707,-0.524 -11.695,-0.536 -7.548,-0.021 -7.536,-0.004 -9.221,7.313 -0.571,2.48 -1.216,4.944 -2.976,7.453 -1.027,-3.542 -2.402,-7.028 -2.982,-10.643 -0.581,-3.619 -2.303,-4.391 -5.686,-4.295 -8.486,0.241 -16.984,0.141 -25.477,0.027 -1.617,-0.022 -3.226,-0.731 -4.838,-1.124 1.957,-1.697 4.359,-1.344 6.643,-1.365 7.877,-0.075 15.756,0.012 23.636,-0.433 -7.683,-0.767 -15.388,-0.428 -23.081,-0.585 -2.434,-0.05 -5.02,0.457 -7.126,-1.381 7.548,-0.232 15.103,-0.799 22.64,-0.62 10.754,0.256 10.743,0.488 13.962,-9.737 0.785,-2.494 1.618,-4.973 2.719,-8.345 1.688,5.094 3.086,9.317 4.487,13.54 0.366,1.103 0.524,2.353 1.158,3.271 1.871,2.713 16.921,0.976 18.203,-2.041 1.403,-3.301 2.764,-6.619 4.535,-10.87 1.447,4.055 2.855,7.177 3.666,10.447 1.555,6.269 6.489,3.117 9.892,3.542 3.976,0.496 2.515,-3.107 2.546,-5.043 0.148,-9.078 0.066,-18.16 1.004,-27.516 4.368,8.538 8.736,17.076 13.105,25.614 0.357,-0.069 0.714,-0.139 1.07,-0.208 0,-19.72 0.011,-39.44 -0.011,-59.16 -0.003,-2.973 -0.263,-5.949 -0.16,-8.915 0.026,-0.748 1.06,-2.105 1.511,-2.057 0.84,0.09 1.82,0.858 2.31,1.622 0.385,0.601 0.148,1.619 0.138,2.451 -0.287,21.312 -0.531,42.624 -0.979,63.933 -0.03,1.444 -1.965,2.762 -2.371,4.307 -0.52,1.981 -0.385,4.135 -0.533,6.213 1.122,1.489 1.084,2.97 -0.022,4.447 z"
   inkscape:connector-curvature="0"
   id="path19"
   style="fill:#3d8e8e;fill-rule:evenodd" />
<path
   d="m 399.738,188.341 c 0.203,2.167 0.407,4.333 0.611,6.5 -1.813,2.741 -4.648,1.535 -7.078,1.768 -1.768,0.169 -3.569,0.073 -5.281,0.037 3.642,0.966 7.393,-0.355 10.943,0.874 0.436,0.23 0.746,0.573 0.936,1.025 0.047,7.326 0.188,14.654 0.072,21.979 -0.028,1.841 -0.883,3.668 -1.358,5.501 -1.325,-0.762 -2.628,-1.566 -3.98,-2.278 -10.747,-5.652 -21.501,-11.292 -32.258,-16.925 -1.445,-0.757 -2.92,-1.458 -4.381,-2.185 -0.742,-0.646 -1.05,-1.506 -1.218,-2.438 0.111,-4.856 -1.59,-9.897 1.449,-14.467 1.491,-0.918 3.166,-0.845 4.809,-0.851 10.395,-0.037 20.789,-0.041 31.183,0.004 1.952,0.01 4.015,-0.223 5.551,1.456 z"
   inkscape:connector-curvature="0"
   id="path21"
   style="fill:#cc9d3e;fill-rule:evenodd" />
<path
   d="m 188.193,102.196 c 0.003,-23.086 0.005,-46.172 0.011,-69.258 0.001,-5.15 0.242,-10.313 -0.05,-15.447 -0.206,-3.613 1.186,-4.688 4.533,-4.355 2.306,0.229 4.645,0.131 6.968,0.179 2.168,1.464 1.811,3.783 1.843,5.869 0.413,26.048 -1.032,52.071 -1.064,78.116 -0.01,7.317 -4.639,9.023 -12.241,4.896 z"
   inkscape:connector-curvature="0"
   id="path23"
   style="fill:#cc3e3e;fill-rule:evenodd" />
<path
   d="m 508.104,69.359 c -0.089,-5.318 -0.396,-10.646 -0.188,-15.952 0.136,-3.428 -1.188,-4.329 -4.335,-4.152 -3.65,0.205 -7.326,-0.096 -10.98,0.073 -2.887,0.133 -3.795,-1.104 -3.714,-3.828 0.321,-10.801 0.456,-21.608 0.913,-32.403 0.042,-1.004 1.859,-1.939 2.871,-2.887 0.092,-0.086 0.324,-0.019 0.49,-0.029 15.277,-1.051 15.277,-1.051 15.176,14.237 -0.01,1.498 -0.045,2.997 -0.014,4.494 0.072,3.478 -1.006,7.794 0.666,10.151 1.217,1.718 6.143,0.573 9.286,1.278 1.212,0.272 2.8,2.039 2.953,3.28 0.502,4.071 0.425,8.214 0.571,12.327 -4.563,4.47 -9.129,8.941 -13.695,13.411 z"
   inkscape:connector-curvature="0"
   id="path25"
   style="fill:#3d8e8e;fill-rule:evenodd" />
<path
   d="m 274.359,220.861 c -0.785,-0.307 -1.981,-0.386 -2.294,-0.953 -4.766,-8.635 -9.873,-17.222 -9.811,-27.521 0.037,-6.233 -0.088,-12.598 1.105,-18.657 1.211,-6.148 3.956,-11.995 6.201,-18.473 -2.464,0 -5.048,-0.225 -7.576,0.057 -3.227,0.357 -3.847,-0.983 -3.838,-3.936 0.009,-3.096 -0.79,-6.193 -1.235,-9.29 -0.027,-0.864 0.513,-1.3 1.218,-1.616 0.469,-0.166 0.951,-0.268 1.444,-0.332 0.993,-0.104 1.987,-0.115 2.985,-0.065 2.461,0.37 4.951,0.631 7.222,1.769 1.584,4.203 2.144,8.714 6.77,11.526 2.462,1.498 2.715,5.542 4.044,8.402 0.535,2.007 1.782,3.846 1.443,6.059 0.641,6.216 1.851,12.439 1.766,18.646 -0.09,6.552 -1.417,13.088 -2.203,19.63 -1.135,5.545 -3.508,10.484 -7.241,14.754 z"
   inkscape:connector-curvature="0"
   id="path27"
   style="fill:#3f3f3f;fill-rule:evenodd" />
<path
   d="m 417.947,63.053 c -0.068,-11.957 -0.14,-23.914 -0.206,-35.872 -0.005,-0.996 -0.058,-2.001 0.041,-2.989 0.161,-1.608 -2.841,-4.491 1.8,-4.357 3.17,0.092 5.846,-0.028 5.555,4.648 -0.41,6.624 0.225,13.317 -0.283,19.927 -0.285,3.711 1.102,3.985 4.019,3.898 5.147,-0.152 10.308,0.126 15.453,-0.04 3.55,-0.115 5.19,0.996 4.964,4.833 -0.293,4.971 0.053,9.981 -0.321,14.941 -0.086,1.137 -1.822,2.709 -3.085,3.064 -1.847,0.521 -3.951,0.103 -5.945,0.122 -3.728,0.037 -7.835,-0.891 -9.804,3.752 -1.245,-0.88 -1.315,-2.235 -1.457,-3.561 0.632,-4.65 -0.796,-7.516 -6.098,-7.138 -0.636,0.045 -1.194,-0.426 -1.652,-0.901 -0.994,-0.109 -1.987,-0.218 -2.981,-0.327 z"
   inkscape:connector-curvature="0"
   id="path29"
   style="fill:#3d8e8e;fill-rule:evenodd" />
<path
   d="m 420.927,63.381 c 0.165,-0.002 0.331,10e-4 0.497,-0.007 8.441,-0.373 8.441,-0.373 8.317,7.807 -0.591,18.309 -0.089,36.622 -0.258,54.933 -0.02,2.156 0.21,4.337 -0.569,6.427 -0.916,5.784 -0.171,11.61 -0.445,17.409 -0.086,1.796 0.474,3.659 -0.479,5.38 -1.493,0.068 -2.992,0.071 -4.477,0.22 -2.565,0.255 -3.509,-0.793 -3.479,-3.401 0.343,-29.59 0.608,-59.179 0.893,-88.768 z"
   inkscape:connector-curvature="0"
   id="path31"
   style="fill:#cc3e3e;fill-rule:evenodd" />
<path
   d="m 188.193,102.196 c 10.842,0.706 10.692,0.705 10.757,-10.276 0.153,-26.203 0.462,-52.405 0.707,-78.606 6.397,-1.264 6.415,-1.264 6.4,4.961 -0.075,31.786 -0.16,63.572 -0.24,95.358 -0.004,1.435 0,2.869 0,4.129 -1.855,-0.4 -3.426,-0.74 -4.997,-1.08 -0.476,0.012 -0.885,-0.152 -1.239,-0.466 -1.022,-1.75 -2.169,-3.434 -2.939,-5.325 -2.817,-2.898 -5.633,-5.796 -8.449,-8.695 z"
   inkscape:connector-curvature="0"
   id="path33"
   style="fill:#3f3f3f;fill-rule:evenodd" />
<path
   d="m 184.935,175.709 c 1.664,-4.418 3.327,-8.836 5.421,-14.396 2.877,9.834 5.689,18.491 7.798,27.317 0.532,2.226 -1.08,5.021 -1.88,7.498 -2.126,6.582 -4.347,13.133 -6.703,20.216 -1.611,-4.612 -3.083,-8.654 -4.428,-12.738 -0.851,-2.584 -0.845,-5.836 -5.083,-5.179 -0.26,0.04 -1.165,-1.734 -1.157,-2.66 0.161,-19.647 0.375,-39.295 0.748,-58.938 0.018,-0.96 1.583,-1.892 2.427,-2.836 0.765,1.065 2.181,2.123 2.194,3.197 0.154,12.801 0.099,25.604 0.099,38.407 0.189,0.037 0.376,0.074 0.564,0.112 z"
   inkscape:connector-curvature="0"
   id="path35"
   style="fill:#3f3f3f;fill-rule:evenodd" />
<path
   d="m 133.081,154.751 c 4.164,12.735 7.942,24.231 11.638,35.753 0.214,0.667 -0.105,1.601 -0.397,2.32 -3.774,9.316 -7.588,18.617 -11.764,28.832 -3.787,-10.348 -7.269,-19.835 -10.715,-29.334 -0.263,-0.727 -0.576,-1.641 -0.36,-2.305 3.683,-11.361 7.446,-22.697 11.598,-35.266 z"
   inkscape:connector-curvature="0"
   id="path37"
   style="fill:#3f3f3f;fill-rule:evenodd" />
<path
   d="m 243.793,154.624 c -0.55,1.279 -0.739,3.145 -1.709,3.745 -7.526,4.656 -14.561,10.324 -24.528,8.999 -6.915,-0.92 -7.65,0.341 -7.735,7.39 -0.066,5.436 -0.275,10.87 -0.42,16.303 -0.521,-0.556 -1.141,-1.653 -1.549,-1.58 -4.84,0.871 -4.659,-1.968 -4.56,-5.435 0.284,-9.908 0.265,-19.825 0.365,-29.738 1.381,-2.046 3.553,-2.402 5.73,-2.472 7.996,-0.255 15.996,-0.155 23.994,-0.06 1.694,0.021 3.326,0.327 4.57,1.649 1.947,0.4 3.895,0.8 5.842,1.199 z"
   inkscape:connector-curvature="0"
   id="path39"
   style="fill:#1f3871;fill-rule:evenodd" />
<path
   d="m 170.747,157.686 c 1.657,5.157 3.478,10.269 4.939,15.481 4.786,17.07 1.598,32.837 -7.933,48.082 -7.095,-10.188 -8.219,-21.552 -10.009,-32.711 -1.218,-2.563 -0.733,-5.193 -0.268,-7.806 1.197,-6.709 2.949,-13.286 5.733,-19.5 1.36,-3.035 3.217,-6.237 7.538,-3.546 z"
   inkscape:connector-curvature="0"
   id="path41"
   style="fill:#3f3f3f;fill-rule:evenodd" />
<path
   d="m 151.741,13.236 c 0.333,0.004 0.666,0.019 0.997,10e-4 3.99,-0.208 6.008,-0.225 5.696,5.664 -0.924,17.399 -0.373,34.876 -0.5,52.321 -0.011,1.438 -0.789,2.87 -1.21,4.304 -1.392,-1.327 -3.729,-2.475 -4.021,-4.011 -1.724,-9.071 -2.953,-18.236 -4.385,-27.363 -1.231,-7.846 -2.423,-15.698 -3.794,-23.52 -1.295,-7.378 -1.287,-7.465 7.217,-7.396 z"
   inkscape:connector-curvature="0"
   id="path43"
   style="fill:#cc9d3e;fill-rule:evenodd" />
<path
   d="m 283.892,141.639 c 5.649,-0.058 5.649,-0.058 6.251,-11.502 3.977,2.123 9.248,2.427 8.081,9.156 -0.624,3.595 2.477,2.901 4.427,2.752 3.306,-0.253 4.862,0.607 4.41,4.305 -0.382,3.119 -0.153,6.314 -0.194,9.477 -5.208,0.41 -7.371,3.137 -6.534,8.347 0.202,1.257 -0.047,2.616 -0.886,3.731 -3.379,-0.021 -6.758,-0.04 -10.137,-0.061 -1.354,-0.977 -1.759,-2.533 -1.531,-3.922 0.891,-5.415 -1.819,-7.666 -6.743,-8.204 -1.087,-0.921 -1.484,-2.214 -1.911,-3.493 -0.645,-2.942 -0.555,-5.911 -0.292,-8.888 0.091,-0.545 0.282,-1.054 0.557,-1.532 0.192,-0.193 0.388,-0.385 0.584,-0.576 0.694,0.119 1.389,0.238 2.084,0.357 0.606,0.218 1.218,0.213 1.834,0.053 z"
   inkscape:connector-curvature="0"
   id="path45"
   style="fill:#3f3f3f;fill-rule:evenodd" />
<path
   d="m 270.102,142.27 c -3.046,-0.4 -6.091,-0.8 -9.137,-1.2 -2.59,-1.942 -1.695,-5.175 -2.844,-7.642 -0.47,-0.46 -1.075,-0.603 -1.697,-0.705 -3.517,-0.422 -5.041,1.215 -5.13,4.655 -0.04,1.521 0.183,3.305 -1.617,4.222 -1.417,-0.074 -2.837,-0.123 -4.253,-0.229 -1.792,-0.134 -3.58,-0.314 -5.37,-0.476 -1.322,-1.022 -1.447,-2.557 -1.299,-3.953 0.365,-3.435 -1.408,-4.581 -4.45,-4.618 -0.459,-0.186 -0.899,-0.406 -1.324,-0.656 -0.258,2.406 -0.339,4.852 -0.861,7.2 -0.211,0.95 -1.381,1.688 -2.115,2.523 -0.737,-0.834 -1.916,-1.571 -2.125,-2.521 -0.52,-2.36 -0.597,-4.818 -0.852,-7.236 -0.453,0.275 -0.93,0.498 -1.43,0.676 -1.842,0.341 -3.679,0.379 -5.505,-0.116 -0.46,-0.259 -0.927,-0.506 -1.403,-0.736 -0.161,1.15 -0.23,2.322 -0.501,3.446 -0.504,2.09 -0.922,5.831 -1.734,5.93 -3.298,0.399 -7.441,0.765 -9.955,-0.877 -4.119,-2.688 -7.212,-6.949 -10.738,-10.547 1.935,-1.9 4.019,-1.74 6.183,-0.444 2.605,0.015 5.21,0.03 7.816,0.046 2.493,-1.463 5.133,-1.365 7.824,-0.739 0.542,0.253 1.057,0.557 1.545,0.904 2.58,-0.019 5.159,-0.036 7.739,-0.054 2.059,-1.4 4.125,-1.472 6.201,-0.038 2.215,-0.042 4.43,-0.085 6.645,-0.127 0.228,0.003 0.455,0.006 0.682,0.006 2.948,0.088 5.896,0.09 8.844,0.045 0.227,0.022 0.454,0.048 0.68,0.073 2.909,0.009 5.817,0.018 8.726,0.026 2.874,-0.086 5.758,-0.934 8.617,0.109 1.521,0.731 3.042,1.462 4.562,2.193 1.413,2.771 0.167,5.729 0.612,8.571 -0.233,0.957 -0.842,1.616 -1.668,2.104 -0.222,0.064 -0.445,0.124 -0.668,0.185 z"
   inkscape:connector-curvature="0"
   id="path47"
   style="fill:#cc9d3e;fill-rule:evenodd" />
<path
   d="m 171.663,87.349 c -5.287,-0.762 -6.951,-3.983 -6.841,-9.074 0.425,-19.767 0.661,-39.537 0.889,-59.307 0.069,-5.993 -0.047,-5.995 6.104,-5.434 1.91,1.638 1.556,3.897 1.575,6.009 0.08,9.266 -0.039,18.531 0.078,27.798 0.349,11.555 0.14,23.111 0.096,34.666 -0.008,1.938 0.057,4.036 -1.901,5.342 z"
   inkscape:connector-curvature="0"
   id="path49"
   style="fill:#cc9d3e;fill-rule:evenodd" />
<path
   d="m 357.841,203.358 c 0.04,0.428 0.081,0.856 0.122,1.281 -0.086,8.667 -0.086,8.649 -8.875,8.651 -6.939,0.001 -13.878,0.054 -20.818,0.084 -0.243,-0.117 -0.485,-0.233 -0.73,-0.349 -0.725,-0.74 -1.381,-1.7 -1.065,-2.652 1.934,-5.819 0.864,-11.819 1.222,-17.729 0.295,-4.876 1.542,-5.827 5.833,-3.487 8.238,4.49 17.14,7.879 24.311,14.201 z"
   inkscape:connector-curvature="0"
   id="path51"
   style="fill:#cc3e3e;fill-rule:evenodd" />
<path
   d="m 266.975,115.418 c 1.653,-0.295 3.307,-0.59 4.96,-0.885 16.531,0.588 33.067,0.077 49.6,0.269 4.129,0.048 8.266,-0.271 12.389,0.201 1.083,0.802 2.167,1.604 3.252,2.406 0.098,4.781 -2.057,6.467 -6.954,6.228 -8.634,-0.423 -17.301,-0.158 -25.955,-0.181 -7.146,0.885 -14.348,-0.263 -21.495,0.595 -5.266,-2.877 -10.532,-5.755 -15.797,-8.633 z"
   inkscape:connector-curvature="0"
   id="path53"
   style="fill:#1f3871;fill-rule:evenodd" />
<path
   d="m 399.98,175.36 c 0.008,3.927 0.017,7.854 0.025,11.782 -2.682,1.267 -5.527,0.562 -8.281,0.575 -10.773,0.054 -21.547,0.145 -32.319,-0.034 -3.1,-3.693 -1.78,-7.799 -1.109,-11.846 0.347,-0.589 0.86,-0.927 1.538,-1.016 12.103,-0.074 24.207,-0.023 36.311,-0.014 1.287,0.003 2.668,-0.389 3.835,0.553 z"
   inkscape:connector-curvature="0"
   id="path55"
   style="fill:#1f3871;fill-rule:evenodd" />
<path
   d="m 18.838,190.321 c 0.049,-0.929 0.099,-1.857 0.147,-2.785 21.098,0.483 42.199,0.934 63.295,1.534 1.328,0.038 4.818,-1.451 3.355,2.638 -6.273,3.277 -12.298,7.042 -18.836,9.795 -4.06,1.71 -7.921,3.765 -11.691,6.019 -0.415,0.239 -0.83,0.479 -1.246,0.719 -10.98,6.622 -22.035,13.125 -32.137,21.098 -1.53,1.207 -3.537,3.088 -5.281,-0.004 0.79,-1.227 1.314,-2.806 2.408,-3.627 16.592,-12.463 34.1,-23.417 53.116,-31.85 0.701,-0.311 1.332,-0.777 3.154,-1.859 -19.634,-0.586 -37.958,-1.132 -56.284,-1.678 z"
   inkscape:connector-curvature="0"
   id="path57"
   style="fill:#3f3f3f;fill-rule:evenodd" />
<path
   d="m 441.631,188.863 c 0.453,-4.265 0.763,-8.552 1.437,-12.78 0.235,-1.479 1.366,-2.816 2.089,-4.219 0.689,1.398 1.906,2.771 1.973,4.199 0.225,4.796 0.037,9.611 0.008,14.419 0.935,1.451 1.272,3.104 1.609,4.759 0.143,1.006 0.095,1.966 -0.699,2.731 -0.369,3.647 -0.789,7.29 -1.086,10.943 -0.148,1.818 0.198,3.713 -0.181,5.465 -0.294,1.361 -1.366,2.555 -2.093,3.822 -0.76,-1.324 -2.104,-2.62 -2.171,-3.979 -0.194,-3.968 0.298,-7.968 0.139,-11.939 -0.056,-1.381 -1.371,-3.928 -1.874,-3.87 -2.605,0.298 -6.197,-2.306 -7.67,2.062 -1.669,4.949 -3.326,9.901 -5.26,15.665 -2.214,-6.548 -4.103,-12.137 -5.991,-17.726 -0.309,-0.503 -0.266,-0.973 0.128,-1.411 1.27,-0.754 2.43,-0.551 3.504,0.401 1.252,1.167 1.332,2.986 2.368,4.366 0.846,-1.115 0.704,-2.507 1.274,-3.64 0.654,-1.393 1.682,-2.634 1.72,-4.278 0.544,-2.3 0.657,-4.196 -2.622,-4.314 -2.869,-0.103 -3.765,1.188 -3.416,3.828 0.107,0.817 -0.196,1.593 -0.769,2.235 -1.253,0.71 -2.446,0.741 -3.552,-0.29 -0.739,-3.173 -1.479,-6.347 -2.311,-9.918 6.67,0 13.244,0 19.817,0 l -0.088,-0.091 c 1.48,1.515 0.295,3.047 0.034,4.576 -0.205,1.199 -1.353,2.846 0.295,3.442 1.997,0.724 2.189,-1.345 2.684,-2.656 0.229,-0.602 0.675,-1.122 0.704,-1.802 z"
   inkscape:connector-curvature="0"
   id="path59"
   style="fill:#3f3f3f;fill-rule:evenodd" />
<path
   d="m 333.064,126.538 c -3.132,4.968 -6.265,9.937 -9.397,14.905 -2.329,2.096 -4.857,0.234 -7.285,0.368 -9.317,-4.871 -18.635,-9.741 -29.217,-15.273 16.252,0 31.076,0 45.899,0 z"
   inkscape:connector-curvature="0"
   id="path61"
   style="fill:#3f3f3f;fill-rule:evenodd" />
<path
   d="m 365.352,156.106 c 0.529,-3.087 1.006,-6.185 1.609,-9.258 0.357,-1.815 0.916,-3.592 1.384,-5.386 1.233,-2.745 3.478,-3.656 6.345,-3.713 5.576,-0.109 11.133,-0.141 16.572,1.361 0.173,5.05 0.471,10.103 0.377,15.147 -0.014,0.706 -1.941,1.958 -2.996,1.972 -7.762,0.101 -15.528,-0.05 -23.291,-0.123 z"
   inkscape:connector-curvature="0"
   id="path63"
   style="fill:#cc3e3e;fill-rule:evenodd" />
<path
   d="m 552.013,208.866 c 1.314,0.002 2.629,0.004 3.944,0.005 0.561,-0.229 1.009,0.332 1.553,0.224 0.17,0.607 0.469,1.212 0.489,1.824 0.212,6.439 0.2,6.419 -6.104,6.408 -12.406,-0.021 -24.817,-0.179 -37.219,0.071 -4.208,0.084 -6.632,-0.566 -5.574,-5.436 0.17,-0.78 -0.047,-1.645 -0.086,-2.469 0.207,-0.243 0.412,-0.486 0.617,-0.731 1.322,-0.862 2.851,-1.023 4.306,-0.817 12.659,1.791 25.39,0.34 38.074,0.921 z"
   inkscape:connector-curvature="0"
   id="path65"
   style="fill:#1f3871;fill-rule:evenodd" />
<path
   d="m 251.009,207.016 c 0.148,-14.585 0.297,-29.171 0.444,-43.744 6.751,-2.623 8.373,-1.695 8.376,4.848 0.003,4.999 -0.036,9.998 -0.056,14.997 -0.653,6.373 -0.08,12.766 -0.312,19.144 -0.058,1.589 0.54,3.283 -0.563,4.757 -2.629,-0.001 -5.259,-0.001 -7.889,-0.002 z"
   inkscape:connector-curvature="0"
   id="path67"
   style="fill:#cc3e3e;fill-rule:evenodd" />
<path
   d="m 560.19,220.36 c 1.821,-0.029 3.748,-0.436 5.429,0.035 1.266,0.355 2.795,1.651 3.176,2.854 0.676,2.133 -0.042,3.683 -2.965,3.667 -18.057,-0.102 -36.115,-0.017 -54.171,-0.151 -0.897,-0.007 -2.413,-1.396 -2.543,-2.301 -0.269,-1.855 -1.122,-4.739 2.727,-4.112 7.712,1.003 15.458,0.384 23.183,0.378 8.386,-0.005 16.79,0.605 25.164,-0.37 z"
   inkscape:connector-curvature="0"
   id="path69"
   style="fill:#1f3871;fill-rule:evenodd" />
<path
   d="m 170.747,157.686 c -5.237,-1.628 -6.344,3.019 -7.172,5.826 -2.42,8.206 -3.949,16.675 -5.829,25.033 -3.341,-5.265 -6.936,-10.388 -9.829,-15.88 -0.669,-1.271 0.501,-4.339 1.777,-5.661 5.801,-6.015 11.94,-11.703 17.963,-17.503 0.93,-0.895 1.89,-1.758 3.695,-3.434 -0.236,4.524 -0.42,8.071 -0.605,11.619 z"
   inkscape:connector-curvature="0"
   id="path71"
   style="fill:#cc3e3e;fill-rule:evenodd" />
<path
   d="m 105.428,220.427 c 0.089,-1.333 0.177,-2.666 0.266,-3.999 -1.357,-3.829 -1.324,-7.807 -1.308,-11.795 0.038,-8.954 -0.031,-17.908 0.04,-26.862 0.019,-2.278 -0.313,-4.697 1.492,-6.599 0,-3.648 0,-7.296 0,-12.464 1.109,2.234 1.676,3.181 2.061,4.196 0.638,1.686 1.176,3.411 1.725,5.129 2.343,7.327 6.56,14.678 6.482,21.981 -0.078,7.362 -4.418,14.681 -6.905,22.014 -1,2.947 -2.037,5.883 -3.057,8.823 -0.236,-0.197 -0.501,-0.338 -0.796,-0.424 z"
   inkscape:connector-curvature="0"
   id="path73"
   style="fill:#3f3f3f;fill-rule:evenodd" />
<path
   d="m 237.95,153.426 c -8.646,0.041 -17.294,0.024 -25.939,0.154 -2.79,0.043 -5.574,0.473 -8.357,0.726 -2.155,-0.053 -4.329,-0.297 -6.466,-0.116 -3.332,0.281 -4.653,-0.906 -4.83,-4.382 -0.211,-4.155 2.338,-3.529 4.796,-3.478 11.62,0.243 23.243,0.768 34.857,0.605 5.149,-0.071 7.409,1.152 5.939,6.491 z"
   inkscape:connector-curvature="0"
   id="path75"
   style="fill:#3f3f3f;fill-rule:evenodd" />
<path
   d="m 299.188,174.476 c 0.891,0.279 1.781,0.558 2.672,0.836 1.991,1.241 2.63,3.295 3.318,5.362 1.673,5.026 3.116,10.145 5.641,14.853 0.577,1.869 0.545,3.743 0.055,5.622 -2.493,6.286 -4.972,12.577 -7.061,19.02 -0.476,1.467 -0.879,3.508 -2.999,3.459 -2.211,-0.051 -2.989,-1.977 -3.421,-3.726 -1.371,-5.56 -5.186,-10.477 -4.394,-16.602 0,-2.666 -0.001,-5.331 -0.001,-7.997 0.918,-1.396 0.831,-3.074 1.292,-4.6 0.347,-5.799 3.668,-10.696 4.898,-16.227 z"
   inkscape:connector-curvature="0"
   id="path77"
   style="fill:#3f3f3f;fill-rule:evenodd" />
<path
   d="m 650.23,195.003 c 2.12,8.429 5.232,15.441 5.261,22.468 0.028,6.606 -3.192,13.229 -5.097,19.811 -0.015,0.051 -2.232,-0.151 -2.375,-0.582 -1.759,-5.3 -3.625,-10.602 -4.772,-16.048 -0.406,-1.93 1.074,-4.25 1.67,-6.399 1.666,-6.011 3.319,-12.024 5.313,-19.25 z"
   inkscape:connector-curvature="0"
   id="path79"
   style="fill:#3d8e8e;fill-rule:evenodd" />
<path
   d="m 309.681,201.497 c 0.017,-1.967 0.034,-3.934 0.052,-5.9 -1.222,-5.392 -2.344,-10.784 -0.188,-16.218 2.413,-1.92 4.788,-1.743 7.133,0.129 1.539,1.743 1.689,3.892 1.686,6.061 -0.013,6.778 0.187,13.559 -0.111,20.332 -0.043,0.592 -0.156,1.175 -0.309,1.746 -1.353,5.061 0.046,10.287 -0.891,15.377 -0.185,0.564 -0.497,1.047 -0.928,1.453 -2.081,0.206 -4.162,0.412 -6.243,0.617 -2.75,-5.258 -1.223,-10.883 -1.252,-16.342 -0.013,-2.392 0.412,-4.877 1.051,-7.255 z"
   inkscape:connector-curvature="0"
   id="path81"
   style="fill:#cc3e3e;fill-rule:evenodd" />
<path
   d="m 316.125,224.477 c 0.042,-0.341 0.085,-0.683 0.128,-1.023 0.782,-5.363 -0.313,-10.799 0.613,-16.156 l -0.084,-0.425 c 1.591,-4.278 0.443,-8.71 0.696,-13.063 0.258,-4.431 -0.142,-8.882 0.166,-13.32 0.909,-1.118 2.063,-1.143 3.311,-0.747 2.369,1.473 2.553,3.843 2.184,6.18 -0.966,6.132 -0.341,12.305 -0.723,18.437 -0.275,4.42 1.102,7.369 5.476,8.635 0.131,0.122 0.257,0.25 0.378,0.382 -0.091,4.434 -0.377,8.876 -0.202,13.3 0.114,2.876 -0.863,3.93 -3.621,3.498 -0.161,-0.025 -0.333,-0.03 -0.493,-0.006 -4.488,0.685 -7.954,-0.032 -7.829,-5.692 z"
   inkscape:connector-curvature="0"
   id="path83"
   style="fill:#1f3871;fill-rule:evenodd" />
<path
   d="m 105.917,171.172 c -0.076,15.093 -0.151,30.186 -0.226,45.268 -3.063,-8.8 -6.963,-17.417 -8.816,-26.454 -0.843,-4.11 2.283,-9.078 3.762,-13.606 1.042,-3.188 2.342,-6.292 3.728,-9.963 0.664,2.032 1.108,3.394 1.552,4.755 z"
   inkscape:connector-curvature="0"
   id="path85"
   style="fill:#cc9d3e;fill-rule:evenodd" />
<path
   d="m 693.929,185.137 c 0.714,2.964 -0.277,4.296 -3.499,4.285 -20.99,-0.068 -41.98,-0.071 -62.97,0.017 -3.484,0.015 -3.877,-1.708 -3.255,-4.437 5.86,0.035 11.719,0.068 17.578,0.102 1.894,-0.027 3.787,-0.056 5.68,-0.084 5.023,-1.879 10.048,-1.868 15.073,-0.008 0.949,0.016 1.898,0.032 2.849,0.049 9.514,0.025 19.029,0.05 28.544,0.076 z"
   inkscape:connector-curvature="0"
   id="path87"
   style="fill:#1f3871;fill-rule:evenodd" />
<path
   d="m 171.663,87.349 c 0.198,-13.278 0.395,-26.558 0.592,-39.837 0.292,-0.526 0.505,-1.084 0.64,-1.672 0.25,-8.914 0.014,-17.828 0.13,-26.741 0.025,-1.929 -0.502,-4.003 1.026,-5.679 0.723,0.762 2.073,1.521 2.077,2.286 0.11,24.91 0.091,49.821 -1.054,75.276 -1.137,-1.211 -2.274,-2.422 -3.411,-3.633 z"
   inkscape:connector-curvature="0"
   id="path89"
   style="fill:#3d8e8e;fill-rule:evenodd" />
<path
   d="m 309.681,201.497 c 0.067,7.865 0.134,15.731 0.201,23.597 -4.941,0.018 -9.887,0.157 -14.818,-0.05 -1.021,-0.042 -2.853,-1.381 -2.845,-2.104 0.075,-6.549 0.476,-13.095 0.781,-19.641 2.379,6.569 4.758,13.139 7.511,20.74 3.336,-8.201 6.253,-15.371 9.17,-22.542 z"
   inkscape:connector-curvature="0"
   id="path91"
   style="fill:#1f3871;fill-rule:evenodd" />
<path
   d="m 429.728,260.912 c -0.833,0.409 -1.664,1.167 -2.501,1.174 -8.782,0.072 -17.568,0.131 -26.344,-0.143 -0.967,-0.03 -2.559,-2.129 -2.602,-3.313 -0.041,-1.121 1.569,-3.299 2.463,-3.305 9.75,-0.058 19.502,0.22 29.253,0.406 1.441,1.806 1.597,3.546 -0.269,5.181 z"
   inkscape:connector-curvature="0"
   id="path93"
   style="fill:#3f3f3f;fill-rule:evenodd" />
<path
   d="m 357.803,250.666 c 0.104,-3.255 1.121,-4.875 5.028,-4.536 6.431,0.558 12.929,0.335 19.399,0.442 1.767,3.129 1.832,6.193 -0.346,9.177 -7.746,1.587 -15.48,2.25 -23.158,-0.388 -0.248,0.031 -0.455,-0.048 -0.619,-0.236 -1.359,-1.4 -1.449,-2.888 -0.304,-4.459 z"
   inkscape:connector-curvature="0"
   id="path95"
   style="fill:#3f3f3f;fill-rule:evenodd" />
<path
   d="m 16.445,229.334 c 1.691,-0.554 3.599,-0.776 5.038,-1.717 8.717,-5.694 17.27,-11.641 26.019,-17.283 1.82,-1.173 4.237,-1.421 6.37,-2.095 -1.353,1.473 -2.442,3.377 -4.084,4.338 -5.724,3.348 -11.965,5.896 -17.396,9.639 -6.221,4.287 -11.743,9.579 -17.675,14.3 -1.134,0.902 -2.766,1.18 -4.168,1.745 0.163,-1.861 -0.29,-4.163 0.646,-5.471 1.139,-1.59 3.448,-2.342 5.25,-3.456 z"
   inkscape:connector-curvature="0"
   id="path97"
   style="fill:#cc9d3e;fill-rule:evenodd" />
<path
   d="m 358.727,255.361 c 7.664,-0.115 15.329,-0.231 22.994,-0.347 2.367,-1.229 4.679,-1.748 6.762,0.547 0.166,6.226 0.166,6.229 -6.134,6.158 -6.134,-0.069 -12.284,-0.46 -18.396,-0.121 -5.062,0.281 -6.605,-1.536 -5.226,-6.237 z"
   inkscape:connector-curvature="0"
   id="path99"
   style="fill:#3d8e8e;fill-rule:evenodd" />
<path
   d="m 509.016,209.494 c -8.875,-0.243 -17.754,-0.434 -26.627,-0.766 -2.158,-0.081 -5.029,0.323 -4.518,-3.451 1.864,-1.875 4.271,-1.413 6.534,-1.477 11.022,-0.307 22.063,0.582 33.074,-0.491 0.015,1.624 0.029,3.249 0.044,4.873 -2.479,1.661 -5.578,-0.585 -8.024,1.276 l -0.483,0.036 z"
   inkscape:connector-curvature="0"
   id="path101"
   style="fill:#cc9d3e;fill-rule:evenodd" />
<path
   d="m 357.803,250.666 c 0.102,1.486 0.203,2.973 0.305,4.458 -8.272,0.003 -16.546,0.061 -24.817,-0.07 -0.901,-0.015 -2.388,-0.98 -2.559,-1.74 -0.426,-1.897 0.227,-2.978 2.751,-2.891 8.1,0.278 16.212,0.189 24.32,0.243 z"
   inkscape:connector-curvature="0"
   id="path103"
   style="fill:#1f3871;fill-rule:evenodd" />
<path
   d="m 491.218,185.386 c 9.958,-0.002 19.918,-0.095 29.872,0.098 1.387,0.027 2.744,1.463 4.115,2.247 -1.229,0.529 -2.455,1.51 -3.688,1.519 -10.123,0.069 -20.248,-0.042 -30.371,-0.099 0.024,-1.256 0.047,-2.51 0.072,-3.765 z"
   inkscape:connector-curvature="0"
   id="path105"
   style="fill:#1f3871;fill-rule:evenodd" />
<path
   d="m 517.479,203.31 c -1.331,0.562 -2.654,1.586 -3.996,1.611 -11.868,0.22 -23.74,0.262 -35.612,0.356 0.214,-1.036 0.436,-2.98 0.642,-2.979 12.884,0.108 25.765,0.375 38.646,0.644 0.11,0.003 0.214,0.24 0.32,0.368 z"
   inkscape:connector-curvature="0"
   id="path107"
   style="fill:#3f3f3f;fill-rule:evenodd" />
<path
   d="m 239.714,128.958 c 0.135,-3.879 0.271,-7.758 0.406,-11.638 3.224,-2.115 6.462,-2.147 9.715,-0.067 0.028,3.943 0.057,7.886 0.085,11.829 l -0.338,0.213 c -3.125,0.759 -6.254,0.707 -9.385,0.037 -0.118,-0.179 -0.28,-0.304 -0.483,-0.374 z"
   inkscape:connector-curvature="0"
   id="path109"
   style="fill:#1f3871;fill-rule:evenodd" />
<path
   d="m 280.831,155.223 c 8.702,0.346 8.701,0.346 8.542,9.227 -0.021,1.133 -0.032,2.265 -0.055,3.396 -2.432,-0.003 -4.856,-0.005 -7.28,-0.01 -0.74,-1.854 -1.481,-3.704 -2.222,-5.554 -0.502,-2.162 -1.325,-4.304 -0.398,-6.554 0.332,-0.556 0.804,-0.724 1.413,-0.505 z"
   inkscape:connector-curvature="0"
   id="path111"
   style="fill:#cc3e3e;fill-rule:evenodd" />
<path
   d="m 55.108,207.521 c 2.428,-1.844 4.689,-3.98 7.317,-5.472 5.765,-3.271 11.665,-6.322 17.625,-9.224 1.653,-0.806 3.715,-0.771 5.587,-1.121 -0.406,1.053 -0.527,2.725 -1.257,3.056 -8.527,3.87 -17.145,7.538 -25.74,11.258 -1.174,0.508 -2.354,1.003 -3.532,1.503 z"
   inkscape:connector-curvature="0"
   id="path113"
   style="fill:#cc9d3e;fill-rule:evenodd" />
<path
   d="m 299.447,167.904 c -0.073,-1.626 -0.2,-3.253 -0.21,-4.879 -0.047,-7.701 -0.036,-7.701 7.63,-7.204 0.254,3.564 0.509,7.124 0.761,10.686 -0.527,0.765 -1.053,1.527 -1.576,2.286 -2.2,-0.299 -4.402,-0.594 -6.605,-0.889 z"
   inkscape:connector-curvature="0"
   id="path115"
   style="fill:#cc3e3e;fill-rule:evenodd" />
<path
   d="m 267.263,129.218 c -2.872,-0.036 -5.745,-0.072 -8.617,-0.109 0.12,-2.326 0.615,-4.708 0.28,-6.968 -0.67,-4.521 1.357,-5.278 5.283,-4.939 2.264,0.195 3.292,0.559 3.137,3.026 -0.189,2.986 -0.069,5.993 -0.083,8.99 z"
   inkscape:connector-curvature="0"
   id="path117"
   style="fill:#1f3871;fill-rule:evenodd" />
<path
   d="m 303.445,250.463 c 2.499,0 5.035,-0.246 7.478,0.125 0.926,0.141 1.636,1.702 2.444,2.615 -0.88,0.639 -1.744,1.801 -2.643,1.829 -4.826,0.15 -9.667,0.145 -14.486,-0.114 -1.047,-0.056 -2.026,-1.367 -3.037,-2.101 1.082,-0.833 2.076,-2.188 3.266,-2.39 2.268,-0.384 4.646,-0.111 6.979,-0.111 -0.001,0.049 -0.001,0.098 -0.001,0.147 z"
   inkscape:connector-curvature="0"
   id="path119"
   style="fill:#1f3871;fill-rule:evenodd" />
<path
   d="m 425.453,198.388 c -1.498,-0.387 -2.994,-0.772 -4.492,-1.159 -6.978,1.224 -14.013,0.19 -21.014,0.531 -5.223,-0.247 -10.475,0.514 -15.677,-0.436 1.062,-0.728 2.081,-1.998 3.192,-2.086 4.279,-0.338 8.588,-0.297 12.887,-0.397 6.715,0.158 13.432,0.315 20.146,0.473 1.381,-0.051 2.761,-0.102 4.142,-0.152 2.208,-1.501 4.557,-1.421 6.97,-0.62 -0.646,1.193 -1.29,2.387 -1.935,3.58 -1.314,1.552 -2.747,1.215 -4.219,0.266 z"
   inkscape:connector-curvature="0"
   id="path121"
   style="fill:#1f3871;fill-rule:evenodd" />
<path
   d="m 391.262,139.111 c -5.618,0.028 -11.248,-0.14 -16.848,0.19 -2.058,0.121 -4.046,1.421 -6.067,2.173 0.918,-3.451 1.837,-6.891 2.757,-10.33 6.719,2.657 13.439,5.312 20.158,7.967 z"
   inkscape:connector-curvature="0"
   id="path123"
   style="fill:#3f3f3f;fill-rule:evenodd" />
<path
   d="m 201.944,128.966 c -2.061,0.147 -4.121,0.296 -6.182,0.444 -0.644,-0.376 -1.858,-0.781 -1.84,-1.124 0.199,-3.923 0.585,-7.835 0.921,-11.751 1.702,-1.182 3.469,-0.949 5.257,-0.241 0.26,0.089 0.5,0.217 0.72,0.386 0.374,4.096 0.749,8.191 1.124,12.286 z"
   inkscape:connector-curvature="0"
   id="path125"
   style="fill:#1f3871;fill-rule:evenodd" />
<path
   d="m 218.101,129.094 c -2.78,-0.027 -5.561,-0.055 -8.341,-0.082 0.079,-3.941 0.157,-7.883 0.236,-11.824 2.669,-1.791 5.364,-1.837 8.084,-0.123 0.673,4.006 0.642,8.017 0.021,12.029 z"
   inkscape:connector-curvature="0"
   id="path127"
   style="fill:#1f3871;fill-rule:evenodd" />
<path
   d="m 310.095,179.652 c -0.121,5.313 -0.241,10.626 -0.362,15.942 -2.624,-6.76 -5.248,-13.521 -7.873,-20.283 0.327,-0.444 0.655,-0.89 0.982,-1.335 2.332,0.449 4.665,0.898 6.997,1.348 1.507,1.36 1.078,2.832 0.256,4.328 z"
   inkscape:connector-curvature="0"
   id="path129"
   style="fill:#1f3871;fill-rule:evenodd" />
<path
   d="m 271.754,139.884 c 0.024,-2.824 0.048,-5.648 0.072,-8.473 8.513,0.354 8.513,0.354 8.148,9.817 l 0.073,0.095 c -3.07,1.287 -6.234,3.11 -8.293,-1.439 z"
   inkscape:connector-curvature="0"
   id="path131"
   style="fill:#1f3871;fill-rule:evenodd" />
<path
   d="m 249.676,141.6 c 0.042,-0.811 0.114,-1.621 0.121,-2.433 0.072,-8.948 -0.602,-7.751 7.872,-7.825 2.083,3.235 1.777,6.552 0.341,9.907 -0.365,0.28 -0.73,0.561 -1.097,0.841 -2.413,-0.164 -4.825,-0.327 -7.237,-0.49 z"
   inkscape:connector-curvature="0"
   id="path133"
   style="fill:#1f3871;fill-rule:evenodd" />
<path
   d="m 9.093,195.188 c 2.426,-0.514 4.837,-1.123 7.283,-1.521 3.625,-0.589 7.265,-1.221 10.919,-1.39 0.881,-0.04 1.842,1.667 2.766,2.569 -0.989,0.791 -1.955,2.229 -2.972,2.267 -5.963,0.217 -11.938,0.106 -17.909,0.106 -0.028,-0.676 -0.057,-1.354 -0.087,-2.031 z"
   inkscape:connector-curvature="0"
   id="path135"
   style="fill:#3d8e8e;fill-rule:evenodd" />
<path
   d="m 274.359,220.861 c 2.416,-4.925 4.832,-9.851 7.244,-14.766 0.284,4.643 0.648,9.272 0.735,13.908 0.009,0.45 -1.675,1.286 -2.6,1.326 -1.782,0.078 -3.584,-0.286 -5.379,-0.468 z"
   inkscape:connector-curvature="0"
   id="path137"
   style="fill:#cc3e3e;fill-rule:evenodd" />
<path
   d="m 454.955,187.493 c 0.635,-1.47 1.271,-2.939 1.907,-4.409 0.743,0.612 1.487,1.225 2.23,1.834 0.02,3.443 0.04,6.889 0.06,10.335 0.227,0.918 0.106,1.875 0.323,2.794 -0.489,1.063 -1.03,2.104 -1.456,3.191 -0.518,1.324 -0.938,2.686 -1.401,4.03 -0.541,-1.424 -1.08,-2.85 -1.624,-4.273 -0.374,-0.979 -0.755,-1.958 -1.133,-2.937 -0.499,-1.231 -0.139,-2.508 -0.213,-3.765 -0.085,-2.366 0.276,-4.648 1.307,-6.8 z"
   inkscape:connector-curvature="0"
   id="path139"
   style="fill:#3f3f3f;fill-rule:evenodd" />
<path
   d="m 429.728,260.912 c 0.089,-1.728 0.179,-3.455 0.269,-5.182 2.793,-0.061 5.606,-0.342 8.367,-0.079 1.152,0.11 2.194,1.379 3.286,2.12 -0.968,1.3 -1.833,3.593 -2.925,3.707 -2.948,0.307 -5.992,-0.314 -8.997,-0.566 z"
   inkscape:connector-curvature="0"
   id="path141"
   style="fill:#cc9d3e;fill-rule:evenodd" />
<path
   d="m 233.069,129.085 c -2.067,0.013 -4.134,0.025 -6.201,0.038 0.073,-4.001 0.146,-8.002 0.218,-12.003 2.035,-1.397 4.004,-1.542 5.869,0.307 0.038,3.886 0.076,7.772 0.114,11.658 z"
   inkscape:connector-curvature="0"
   id="path143"
   style="fill:#1f3871;fill-rule:evenodd" />
<path
   d="m 388.482,255.562 c -2.254,-0.182 -4.508,-0.363 -6.762,-0.546 0.168,-2.815 0.336,-5.63 0.507,-8.444 1.315,-0.046 2.667,-0.311 3.929,-0.081 1.45,0.265 4.062,1.091 4.025,1.461 -0.254,2.567 -1.066,5.079 -1.699,7.61 z"
   inkscape:connector-curvature="0"
   id="path145"
   style="fill:#1f3871;fill-rule:evenodd" />
<path
   d="m 587.258,0.366 c -0.94,0.259 -1.881,0.74 -2.822,0.744 -21.133,0.089 -42.266,0.126 -63.398,0.172 14.102,-0.433 28.2,-0.991 42.305,-1.248 7.966,-0.145 15.942,0.205 23.915,0.332 z"
   inkscape:connector-curvature="0"
   id="path147"
   style="fill:#3d8e8e;fill-rule:evenodd" />
<path
   d="m 333.923,115.003 c -20.04,0.032 -40.079,0.07 -60.118,0.074 -0.625,0 -1.25,-0.348 -1.873,-0.539 5.299,-0.152 10.595,-0.382 15.893,-0.431 14.648,-0.132 29.296,-0.188 43.943,-0.277 0.718,0.39 1.437,0.781 2.155,1.173 z"
   inkscape:connector-curvature="0"
   id="path149"
   style="fill:#a95e20;fill-rule:evenodd" />
<path
   d="m 249.835,117.253 c -3.238,0.022 -6.477,0.045 -9.715,0.067 0.052,-2.918 -1.263,-6.07 4.114,-6.259 5.23,-0.182 6.157,1.935 5.601,6.192 z"
   inkscape:connector-curvature="0"
   id="path151"
   style="fill:#cc9d3e;fill-rule:evenodd" />
<path
   d="m 299.188,174.476 c 0.273,0.903 1.001,1.968 0.747,2.684 -1.688,4.748 -3.585,9.421 -5.414,14.119 -1.994,-5.252 -0.949,-10.606 -0.537,-15.938 1.734,-0.289 3.469,-0.577 5.204,-0.865 z"
   inkscape:connector-curvature="0"
   id="path153"
   style="fill:#1f3871;fill-rule:evenodd" />
<path
   d="m 219.918,131.528 c 2.034,0.027 4.068,0.055 6.102,0.082 0.673,3.221 0.921,6.434 -0.168,9.623 -1.801,0.021 -3.603,0.042 -5.404,0.063 -1.872,-3.163 -0.806,-6.487 -0.53,-9.768 z"
   inkscape:connector-curvature="0"
   id="path155"
   style="fill:#1f3871;fill-rule:evenodd" />
<path
   d="m 218.194,117.152 c -2.733,0.012 -5.465,0.023 -8.198,0.035 0.19,-3.051 -0.875,-6.327 4.651,-6.209 5.032,0.107 3.831,3.234 4.338,5.834 -0.064,0.579 -0.318,0.716 -0.791,0.34 z"
   inkscape:connector-curvature="0"
   id="path157"
   style="fill:#cc9d3e;fill-rule:evenodd" />
<path
   d="m 590.088,190.26 c 0.007,-1.481 0.014,-2.964 0.021,-4.445 0.547,-0.225 1.094,-0.449 1.64,-0.674 1.316,0.081 2.658,0.364 3.946,0.208 4.151,-0.504 5.402,1.196 4.113,5.045 -3.241,-0.046 -6.48,-0.09 -9.72,-0.134 z"
   inkscape:connector-curvature="0"
   id="path159"
   style="fill:#1f3871;fill-rule:evenodd" />
<path
   d="m 182.027,117.091 c -0.091,-1.753 -0.689,-3.731 -0.056,-5.166 0.314,-0.713 2.889,-0.429 4.44,-0.596 0.164,1.919 0.327,3.837 0.49,5.756 -0.189,0.396 -0.471,0.701 -0.861,0.908 -1.055,0.365 -2.11,0.346 -3.166,-10e-4 -0.396,-0.19 -0.679,-0.492 -0.847,-0.901 z"
   inkscape:connector-curvature="0"
   id="path161"
   style="fill:#cc9d3e;fill-rule:evenodd" />
<path
   d="m 415.689,119.293 c 0.152,-13.448 0.307,-26.896 0.453,-40.345 0.021,-1.804 0.004,-3.607 1.058,-5.404 0,12.089 0,24.178 0.004,36.25 0.025,3.059 0.063,6.135 0.003,9.209 -0.002,0.107 -0.99,0.194 -1.518,0.29 z"
   inkscape:connector-curvature="0"
   id="path163"
   style="fill:#3d8e8e;fill-rule:evenodd" />
<path
   d="m 232.955,117.427 c -1.957,-0.102 -3.913,-0.204 -5.869,-0.307 0.162,-2.213 -2.331,-5.497 2.45,-5.822 5.567,-0.377 4.012,3.122 3.419,6.129 z"
   inkscape:connector-curvature="0"
   id="path165"
   style="fill:#cc9d3e;fill-rule:evenodd" />
<path
   d="m 560.19,220.36 c -1.267,0.269 -2.532,0.765 -3.8,0.771 -13.757,0.058 -27.514,0.057 -41.27,0.005 -1.093,-0.004 -2.184,-0.511 -3.276,-0.783 16.115,0.002 32.23,0.004 48.346,0.007 z"
   inkscape:connector-curvature="0"
   id="path167"
   style="fill:#3d8e8e;fill-rule:evenodd" />
<path
   d="m 459.476,198.047 c -0.108,-0.932 -0.217,-1.863 -0.324,-2.795 3.944,0.011 7.894,-0.088 11.828,0.105 0.979,0.048 1.914,1.036 2.87,1.592 -1.022,0.466 -2.037,1.311 -3.067,1.33 -3.767,0.072 -7.539,-0.132 -11.307,-0.232 z"
   inkscape:connector-curvature="0"
   id="path169"
   style="fill:#1f3871;fill-rule:evenodd" />
<path
   d="m 509.499,209.459 c 2.677,-0.425 5.354,-0.85 8.028,-1.275 9.702,0.087 19.408,0.156 29.114,0.28 1.792,0.022 3.58,0.263 5.37,0.402 -10.373,0.156 -20.747,0.315 -31.121,0.465 -3.796,0.055 -7.593,0.086 -11.391,0.128 z"
   inkscape:connector-curvature="0"
   id="path171"
   style="fill:#3d8e8e;fill-rule:evenodd" />
<path
   d="m 358.972,187.065 c 13.679,0.026 27.356,0.052 41.034,0.077 -0.09,0.398 -0.178,0.798 -0.268,1.197 -13.854,0 -27.709,-0.001 -41.563,-0.002 -0.147,-0.154 -0.295,-0.309 -0.442,-0.463 0.03,-0.211 0.061,-0.422 0.091,-0.633 0.346,-0.298 0.727,-0.369 1.148,-0.176 z"
   inkscape:connector-curvature="0"
   id="path173"
   style="fill:#51bd51;fill-rule:evenodd" />
<path
   d="m 399.98,175.36 c -13.771,-0.105 -27.54,-0.211 -41.311,-0.317 -0.103,-0.391 0.033,-0.66 0.409,-0.809 l -0.093,0.089 c 12.693,-0.008 25.387,-0.04 38.08,0.021 0.974,0.005 1.944,0.662 2.915,1.016 z"
   inkscape:connector-curvature="0"
   id="path175"
   style="fill:#3d8e8e;fill-rule:evenodd" />
<path
   d="m 200.1,116.294 c -1.752,0.08 -3.504,0.16 -5.257,0.241 -3.011,-3.03 -2.784,-5.032 1.796,-5.649 1.155,1.806 2.308,3.607 3.461,5.408 z"
   inkscape:connector-curvature="0"
   id="path177"
   style="fill:#cc9d3e;fill-rule:evenodd" />
<path
   d="m 173.083,47.272 c -0.259,0.14 -0.535,0.22 -0.828,0.238 -0.146,-11.325 -0.292,-22.651 -0.439,-33.978 0.415,-0.052 0.832,-0.104 1.249,-0.156 0.713,11.299 0.671,22.598 0.018,33.896 z"
   inkscape:connector-curvature="0"
   id="path179"
   style="fill:#51bd51;fill-rule:evenodd" />
<path
   d="m 173.083,47.272 c -0.006,-11.299 -0.013,-22.597 -0.019,-33.896 0.329,0.015 0.657,0.028 0.985,0.042 -0.047,9.722 -0.059,19.443 -0.178,29.164 -0.018,1.567 -0.513,3.127 -0.788,4.69 z"
   inkscape:connector-curvature="0"
   id="path181"
   style="fill:#51bd51;fill-rule:evenodd" />
<path
   d="m 185.927,117.313 c 0.325,-0.075 0.65,-0.15 0.975,-0.228 0.076,3.115 0.379,6.251 0.103,9.336 -0.092,1.025 -1.818,2.799 -2.532,2.678 -1.259,-0.215 -3.246,-1.588 -3.283,-2.539 -0.12,-3.142 0.495,-6.312 0.832,-9.47 0.004,0 0.103,0.276 0.103,0.276 2.097,1.946 0.847,4.7 1.791,7.578 1.441,-2.703 0.098,-5.661 2.011,-7.631 z"
   inkscape:connector-curvature="0"
   id="path183"
   style="fill:#3d8e8e;fill-rule:evenodd" />
<path
   d="m 233.831,131.658 c 6.059,-0.881 6.205,-0.771 6.249,4.873 0.011,1.455 -0.017,2.91 -0.026,4.365 -2.022,0.203 -4.045,0.406 -6.067,0.61 0.111,-0.205 0.223,-0.409 0.332,-0.616 4.681,-3.296 4.624,-4.706 -0.3,-7.246 -0.512,-0.62 -0.555,-1.284 -0.188,-1.986 z"
   inkscape:connector-curvature="0"
   id="path185"
   style="fill:#3d8e8e;fill-rule:evenodd" />
<path
   d="m 427.989,155.329 c 0.062,-7.783 0.124,-15.566 0.185,-23.349 0.65,-0.232 1.284,-0.302 1.861,0.188 0.236,0.33 0.473,0.66 0.708,0.988 -0.579,1.34 -1.615,2.668 -1.656,4.026 -0.183,6.074 -0.081,12.157 -0.082,18.238 -0.339,-0.029 -0.677,-0.061 -1.016,-0.091 z"
   inkscape:connector-curvature="0"
   id="path187"
   style="fill:#cc3e3e;fill-rule:evenodd" />
<path
   d="m 258.898,207.017 c 0.292,-7.967 0.584,-15.934 0.876,-23.9 -0.292,7.966 -0.584,15.933 -0.876,23.9 z"
   inkscape:connector-curvature="0"
   id="path189"
   style="fill:#ffbdbd;fill-rule:evenodd" />
<path
   d="m 400.33,197.288 c 6.884,-0.02 13.768,-0.039 20.641,-0.059 0.29,0.395 0.59,0.791 0.89,1.187 -7.329,0.042 -14.659,0.085 -21.99,0.128 -10e-4,10e-4 -0.339,-0.347 -0.339,-0.347 0.118,-0.432 0.392,-0.729 0.798,-0.909 z"
   inkscape:connector-curvature="0"
   id="path191"
   style="fill:#3d8e8e;fill-rule:evenodd" />
<path
   d="m 293.983,175.34 c 0.182,5.313 0.362,10.625 0.54,15.938 -0.51,1.342 -1.018,2.684 -1.524,4.025 -0.088,-5.931 -0.22,-11.862 -0.208,-17.793 10e-4,-0.724 0.776,-1.447 1.192,-2.17 z"
   inkscape:connector-curvature="0"
   id="path193"
   style="fill:#3d8e8e;fill-rule:evenodd" />
<path
   d="m 282.771,124.051 c 7.164,-0.198 14.328,-0.397 21.494,-0.596 -0.078,0.207 -0.13,0.419 -0.155,0.639 -7.113,-0.014 -14.226,-0.029 -21.339,-0.043 z"
   inkscape:connector-curvature="0"
   id="path195"
   style="fill:#3d8e8e;fill-rule:evenodd" />
<path
   d="m 454.817,195.28 c -0.317,0.927 -0.636,1.853 -0.954,2.778 -1.941,-0.028 -3.88,-0.058 -5.817,-0.086 -0.055,-0.843 -0.111,-1.687 -0.167,-2.529 2.266,-2.043 4.582,-1.946 6.938,-0.163 z"
   inkscape:connector-curvature="0"
   id="path197"
   style="fill:#1f3871;fill-rule:evenodd" />
<path
   d="m 259.629,98.54 c 0.039,2.646 -0.148,5.321 0.186,7.93 0.293,2.285 1.171,4.495 1.789,6.737 -0.889,-1.107 -2.496,-2.191 -2.532,-3.324 -0.119,-3.772 0.327,-7.561 0.557,-11.343 z"
   inkscape:connector-curvature="0"
   id="path199"
   style="fill:#3d8e8e;fill-rule:evenodd" />
<path
   d="m 316.382,141.812 c 2.428,-0.123 4.857,-0.246 7.285,-0.369 -0.699,0.824 -1.398,1.648 -2.112,2.471 -1.734,-0.702 -3.453,-1.402 -5.173,-2.102 z"
   inkscape:connector-curvature="0"
   id="path201"
   style="fill:#cc3e3e;fill-rule:evenodd" />
<path
   d="m 663.914,4.265 c 2.762,-0.731 5.523,-1.463 8.286,-2.193 -0.001,10e-4 -0.134,0.071 -0.134,0.071 0.483,0.496 0.481,0.991 -0.006,1.483 -2.715,0.213 -5.431,0.426 -8.146,0.639 z"
   inkscape:connector-curvature="0"
   id="path203"
   style="fill:#3d8e8e;fill-rule:evenodd" />
<path
   d="m 218.194,117.152 c 0.178,-0.313 0.441,-0.426 0.791,-0.339 0.048,4.12 0.096,8.242 0.145,12.363 -0.344,-0.027 -0.688,-0.056 -1.031,-0.083 0.032,-3.98 0.064,-7.96 0.095,-11.941 z"
   inkscape:connector-curvature="0"
   id="path205"
   style="fill:#3d8e8e;fill-rule:evenodd" />
<path
   d="m 672.061,3.626 c 0.002,-0.494 0.003,-0.987 0.005,-1.482 3.253,-0.001 6.507,-0.001 9.759,-0.001 0.006,0.283 0.012,0.567 0.018,0.852 -3.262,0.21 -6.523,0.421 -9.782,0.631 z"
   inkscape:connector-curvature="0"
   id="path207"
   style="fill:#3f3f3f;fill-rule:evenodd" />
<path
   d="m 225.852,141.233 c 0.056,-3.208 0.112,-6.416 0.168,-9.623 0.335,0.007 0.67,0.014 1.006,0.022 -0.39,3.202 -0.782,6.402 -1.174,9.601 z"
   inkscape:connector-curvature="0"
   id="path209"
   style="fill:#3f3f3f;fill-rule:evenodd" />
<path
   d="m 233.831,131.658 c 0.065,0.68 0.13,1.359 0.194,2.038 1.766,2.373 1.742,4.756 0.039,7.147 l -0.281,0.303 c 0,0 0.203,0.36 0.203,0.36 -0.334,-3.281 -0.669,-6.563 -1.004,-9.842 0.283,0.061 0.566,0.058 0.849,-0.006 z"
   inkscape:connector-curvature="0"
   id="path211"
   style="fill:#3f3f3f;fill-rule:evenodd" />
<path
   d="m 219.918,131.528 c 0.174,3.256 0.349,6.513 0.526,9.769 -0.509,-1.366 -1.249,-2.696 -1.477,-4.108 -0.302,-1.877 -0.204,-3.818 -0.278,-5.731 0.41,0.023 0.82,0.047 1.229,0.07 z"
   inkscape:connector-curvature="0"
   id="path213"
   style="fill:#3f3f3f;fill-rule:evenodd" />
<path
   d="m 385.188,51.06 c -0.03,3.49 -0.061,6.979 -0.09,10.472 0.029,-3.49 0.059,-6.981 0.09,-10.472 z"
   inkscape:connector-curvature="0"
   id="path215"
   style="fill:#3d8e8e;fill-rule:evenodd" />
<path
   d="m 105.428,220.427 c 0.27,0.143 0.54,0.284 0.803,0.426 -0.273,-0.143 -0.538,-0.285 -0.803,-0.426 z"
   inkscape:connector-curvature="0"
   id="path217"
   style="fill:#cc9d3e;fill-rule:evenodd" />
<path
   d="m 283.892,141.639 c -0.613,-0.018 -1.226,-0.035 -1.836,-0.053 0.614,0.018 1.225,0.035 1.836,0.053 z"
   inkscape:connector-curvature="0"
   id="path219"
   style="fill:#3d8e8e;fill-rule:evenodd" />
<path
   d="m 557.51,209.095 c -0.518,-0.074 -1.035,-0.148 -1.553,-0.224 0.518,0.075 1.035,0.15 1.553,0.224 z"
   inkscape:connector-curvature="0"
   id="path221"
   style="fill:#3d8e8e;fill-rule:evenodd" />
<path
   d="m 698.203,127.102 c -2.61,9.712 -5.227,19.423 -7.828,29.138 -0.599,2.236 -1.135,4.489 -1.718,6.73 -2.675,10.292 -5.591,11.909 -16.954,9.269 8.486,-15.255 16.947,-30.465 25.408,-45.674 0.365,0.178 0.729,0.358 1.092,0.537 z"
   inkscape:connector-curvature="0"
   id="path223"
   style="fill:#f7f7f7;fill-rule:evenodd" />
<path
   d="m 671.098,128.111 c -3.813,12.877 -7.624,25.753 -11.552,39.021 -4.162,-15.641 6.285,-26.613 10.405,-39.422 0.383,0.135 0.765,0.268 1.147,0.401 z"
   inkscape:connector-curvature="0"
   id="path225"
   style="fill:#f7f7f7;fill-rule:evenodd" />
<path
   d="m 662.536,185.012 c -5.024,0.002 -10.05,0.004 -15.073,0.008 0.524,-1.014 0.953,-2.835 1.588,-2.91 4.207,-0.5 8.459,-0.691 12.696,-0.709 0.259,-0.002 0.526,2.352 0.789,3.611 z"
   inkscape:connector-curvature="0"
   id="path227"
   style="fill:#f7f7f7;fill-rule:evenodd" />
<path
   d="m 468.07,30.789 c 0.007,3.329 -0.007,6.658 0.01,9.986 0.045,9.271 -0.846,6.476 7.305,8.226 0.161,0.034 0.332,0.023 0.498,0.04 3.372,0.342 8.188,-0.517 9.735,1.344 1.755,2.108 0.626,6.653 0.669,10.139 0.049,3.994 -0.115,7.995 0.049,11.982 0.121,2.943 -0.787,4.23 -3.958,4.038 -3.979,-0.241 -7.988,-0.139 -11.978,0.012 -2.605,0.099 -3.521,-0.899 -3.465,-3.492 0.139,-6.321 -0.107,-12.654 0.136,-18.97 0.138,-3.557 -0.732,-5.359 -4.663,-4.897 -2.299,0.271 -4.706,-0.257 -6.975,0.119 -5.102,0.846 -6.494,-2.174 -6.57,-6.193 -0.168,-8.985 -0.172,-17.979 0.078,-26.959 0.029,-1.074 2.039,-2.1 3.149,-3.127 0.089,-0.083 0.329,-0.038 0.488,-0.003 5.099,1.141 12.155,-3.115 15.029,2.035 2.268,4.06 0.457,10.395 0.463,15.72 z"
   inkscape:connector-curvature="0"
   id="path229"
   style="fill:#3d8e8e;fill-rule:evenodd" />
<path
   d="m 448.35,90.054 c 0.244,-3.427 -1.045,-9.479 1.33,-11.83 2.344,-2.321 8.42,-0.674 12.812,-1.181 4.394,-0.507 5.895,0.925 5.579,5.44 -0.416,5.958 -0.219,11.966 -0.098,17.948 0.061,2.95 -0.87,4.202 -4.02,4.019 -4.309,-0.252 -8.652,0.09 -12.955,-0.209 -0.941,-0.065 -2.435,-1.698 -2.527,-2.715 -0.317,-3.457 -0.121,-6.962 -0.121,-11.472 z"
   inkscape:connector-curvature="0"
   id="path231"
   style="fill:#3d8e8e;fill-rule:evenodd" />
<path
   d="m 528.547,21.093 c 0.281,-3.08 -0.804,-8.717 1.496,-11.136 2.021,-2.127 7.858,-0.407 11.965,-0.829 4.666,-0.479 6.598,0.864 6.183,5.929 -0.489,5.96 -0.246,11.988 -0.151,17.984 0.041,2.592 -0.936,3.728 -3.512,3.475 -0.496,-0.048 -1,-0.026 -1.498,-0.055 -4.596,-0.261 -10.641,1.111 -13.348,-1.285 -2.333,-2.067 -0.866,-8.426 -1.135,-14.083 z"
   inkscape:connector-curvature="0"
   id="path233"
   style="fill:#3d8e8e;fill-rule:evenodd" />
<path
   d="m 396.692,70.401 c 0.002,-0.167 10e-4,-0.334 0.003,-0.5 0.152,-12.784 0.147,-12.705 12.967,-12 2.629,0.145 3.483,1.044 3.433,3.573 -0.123,6.16 -0.118,12.325 -0.053,18.486 0.026,2.473 -0.769,3.854 -3.458,3.523 -0.164,-0.021 -0.333,-0.011 -0.5,-0.007 -12.545,0.288 -12.545,0.288 -12.392,-13.075 z"
   inkscape:connector-curvature="0"
   id="path235"
   style="fill:#3d8e8e;fill-rule:evenodd" />
<path
   d="m 430.035,132.169 c -0.621,-0.062 -1.242,-0.123 -1.861,-0.187 0.258,-6.598 0.675,-13.191 0.738,-19.789 0.113,-11.916 -0.02,-23.834 0.041,-35.751 0.01,-1.755 0.514,-3.508 0.788,-5.261 0.13,1.269 0.261,2.537 0.392,3.803 -0.032,19.059 -0.065,38.122 -0.098,57.185 z"
   inkscape:connector-curvature="0"
   id="path237"
   style="fill:#a95e20;fill-rule:evenodd" />
<path
   d="m 481.436,136.827 c -0.433,4.493 -0.866,8.985 -1.299,13.467 0.055,-4.536 0.107,-9.061 0.17,-13.584 0.002,-0.156 0.084,-0.311 0.129,-0.466 0.334,0.194 0.667,0.389 1,0.583 z"
   inkscape:connector-curvature="0"
   id="path239"
   style="fill:#3f3f3f;fill-rule:evenodd" />
<path
   d="m 441.631,188.863 c 0.119,1.302 0.826,3.153 0.232,3.789 -1.186,1.27 -3.084,1.872 -4.689,2.75 -0.402,-1.22 -1.268,-2.505 -1.107,-3.645 0.31,-2.194 1.199,-4.307 1.849,-6.453 1.238,1.186 2.477,2.373 3.715,3.559 z"
   inkscape:connector-curvature="0"
   id="path241"
   style="fill:#f7f7f7;fill-rule:evenodd" />
<path
   d="m 454.817,195.28 c -2.313,0.055 -4.625,0.108 -6.938,0.163 -0.248,-1.654 -0.494,-3.308 -0.742,-4.961 3.986,2.613 5.567,-1.064 7.818,-2.99 -0.047,2.597 -0.092,5.193 -0.138,7.788 z"
   inkscape:connector-curvature="0"
   id="path243"
   style="fill:#f7f7f7;fill-rule:evenodd" />
<path
   d="m 359.079,174.234 c -0.136,0.269 -0.271,0.538 -0.408,0.808 -10e-4,0.001 0.131,0.141 0.131,0.141 -1.052,3.93 0.61,8.078 -0.964,11.966 l 0.178,0.089 c -0.768,0.648 -1.61,1.251 -2.621,1.285 -8.222,0.276 -16.449,0.842 -24.653,-0.369 -1.933,-0.285 -3.628,-0.903 -3.914,-3.076 -0.462,-3.523 -2.979,-4.391 -5.883,-4.874 -0.965,0.08 -1.93,0.159 -2.896,0.239 -0.721,0.423 -1.42,0.383 -2.1,-0.096 -1.952,-0.232 -3.903,-0.464 -5.855,-0.695 -0.085,-1.442 -0.17,-2.885 -0.255,-4.327 1.675,-0.352 3.348,-0.998 5.025,-1.008 14.739,-0.092 29.477,-0.071 44.215,-0.083 z"
   inkscape:connector-curvature="0"
   id="path245"
   style="fill:#f7f7f7;fill-rule:evenodd" />
<path
   d="m 543.983,189.34 c -1.832,0 -3.678,0.133 -5.49,-0.056 -0.919,-0.095 -1.778,-0.767 -2.665,-1.179 0.77,-0.89 1.5,-2.504 2.314,-2.548 4.482,-0.239 8.988,-0.188 13.477,0.002 0.855,0.036 1.664,1.146 2.493,1.76 -0.879,0.661 -1.706,1.79 -2.646,1.893 -2.469,0.269 -4.986,0.091 -7.483,0.091 0,0.012 0,0.024 0,0.037 z"
   inkscape:connector-curvature="0"
   id="path247"
   style="fill:#1f3871;fill-rule:evenodd" />
<path
   d="m 569.033,185.424 c 0.658,0 1.414,-0.211 1.955,0.042 1.346,0.63 2.594,1.47 3.882,2.226 -1.326,0.389 -2.636,0.857 -3.984,1.142 -1.245,0.263 -2.61,0.662 -3.782,0.392 -1.354,-0.312 -2.556,-1.29 -3.823,-1.979 1.095,-0.613 2.14,-1.362 3.303,-1.791 0.725,-0.267 1.627,-0.049 2.45,-0.049 -10e-4,0.005 -10e-4,0.011 -10e-4,0.017 z"
   inkscape:connector-curvature="0"
   id="path249"
   style="fill:#1f3871;fill-rule:evenodd" />
<path
   d="m 320.945,180.203 c 5.979,-2.034 6.919,-1.604 6.989,3.961 0.037,2.868 1.413,3.173 3.704,3.149 8.792,-0.087 17.584,-0.061 26.377,-0.076 0.053,0.367 0.106,0.733 0.16,1.101 -0.111,5.006 -0.223,10.012 -0.334,15.019 -8.258,-4.458 -16.598,-8.773 -24.733,-13.444 -3.633,-2.085 -4.826,-1.682 -4.788,2.658 0.061,6.806 -0.267,13.615 -0.43,20.423 -6.692,0.366 -6.858,0.364 -6.791,-6.167 0.073,-7.107 0.57,-14.21 0.717,-21.318 0.038,-1.763 -0.563,-3.537 -0.871,-5.306 z"
   inkscape:connector-curvature="0"
   id="path251"
   style="fill:#3f3f3f;fill-rule:evenodd" />
<path
   d="m 400.33,197.288 c -0.265,0.303 -0.529,0.606 -0.797,0.909 -5.09,-0.292 -10.177,-0.584 -15.264,-0.875 5.354,-0.01 10.708,-0.022 16.061,-0.034 z"
   inkscape:connector-curvature="0"
   id="path253"
   style="fill:#a95e20;fill-rule:evenodd" />
<path
   d="m 273.329,157.52 c 0,19.505 0,37.898 0,56.57 -9.309,-10.781 -11.42,-38.587 0,-56.57 z"
   inkscape:connector-curvature="0"
   id="path255"
   style="fill:#f7f7f7;fill-rule:evenodd" />
<path
   d="m 280.149,155.423 c -0.11,2.286 -0.221,4.572 -0.333,6.858 -1.898,-3.806 -3.796,-7.61 -5.987,-12.004 -1.127,1.363 -1.925,2.329 -3.728,4.51 0,-5.11 0,-8.814 0,-12.518 l -0.031,0.092 c 3.285,-1.032 6.574,-0.849 9.866,-0.033 0.074,3.308 0.147,6.616 0.222,9.924 0.431,1.059 0.487,2.115 -0.009,3.171 z"
   inkscape:connector-curvature="0"
   id="path257"
   style="fill:#f7f7f7;fill-rule:evenodd" />
<path
   d="m 259.233,132.842 c 0.583,2.742 1.167,5.484 1.741,8.227 -0.634,0.006 -1.259,0.011 -1.883,0.016 -0.787,-2.763 -1.176,-5.518 0.142,-8.243 z"
   inkscape:connector-curvature="0"
   id="path259"
   style="fill:#f7f7f7;fill-rule:evenodd" />
<path
   d="m 259.233,132.842 c -0.047,2.748 -0.094,5.496 -0.142,8.243 -0.361,0.055 -0.721,0.109 -1.082,0.164 -0.112,-3.302 -0.225,-6.604 -0.339,-9.906 0.52,0.499 1.041,0.999 1.563,1.499 z"
   inkscape:connector-curvature="0"
   id="path261"
   style="fill:#51bd51;fill-rule:evenodd" />
<path
   d="m 189.915,203.398 c -6.503,-10.275 -6.22,-19.673 0,-29.309 0,9.723 0,19.122 0,29.309 z"
   inkscape:connector-curvature="0"
   id="path263"
   style="fill:#f7f7f7;fill-rule:evenodd" />
<path
   d="m 130.613,177.965 c 0,7.891 0,16.049 0,24.709 -5.631,-9.268 -5.457,-17.553 0,-24.709 z"
   inkscape:connector-curvature="0"
   id="path265"
   style="fill:#f7f7f7;fill-rule:evenodd" />
<path
   d="m 135.255,202.37 c 0,-8.294 0,-16.311 0,-24.326 4.331,7.98 6.656,15.979 0,24.326 z"
   inkscape:connector-curvature="0"
   id="path267"
   style="fill:#f7f7f7;fill-rule:evenodd" />
<path
   d="m 162.673,199.119 c 0.49,-9.23 0.767,-18.481 1.663,-27.672 0.166,-1.704 2.829,-3.165 4.34,-4.738 0.854,1.162 1.797,2.273 2.51,3.517 0.228,0.397 -0.052,1.615 -0.271,1.663 -4.59,0.991 -2.754,4.637 -2.875,7.247 -0.293,6.312 -0.267,12.637 -0.37,18.957 -1.365,1.808 -3.193,1.356 -4.997,1.026 z"
   inkscape:connector-curvature="0"
   id="path269"
   style="fill:#cc3e3e;fill-rule:evenodd" />
<path
   d="m 162.673,199.119 c 1.667,-0.342 3.334,-0.684 4.999,-1.025 6.347,0.562 6.437,0.621 4.28,6.705 -1.143,3.223 -2.562,6.348 -3.855,9.517 -0.464,-0.021 -0.928,-0.044 -1.392,-0.066 -1.344,-5.044 -2.688,-10.088 -4.032,-15.131 z"
   inkscape:connector-curvature="0"
   id="path271"
   style="fill:#f7f7f7;fill-rule:evenodd" />
<path
   d="m 279.936,142.328 c -3.289,0.011 -6.577,0.022 -9.866,0.033 0.561,-0.824 1.121,-1.649 1.683,-2.476 2.766,0.479 5.53,0.958 8.294,1.438 -0.037,0.335 -0.074,0.67 -0.111,1.005 z"
   inkscape:connector-curvature="0"
   id="path273"
   style="fill:#3d8e8e;fill-rule:evenodd" />
<path
   d="m 280.149,155.423 c 0.003,-1.057 0.005,-2.114 0.008,-3.171 0.225,0.991 0.45,1.981 0.674,2.971 -0.217,0.101 -0.444,0.169 -0.682,0.2 z"
   inkscape:connector-curvature="0"
   id="path275"
   style="fill:#3d8e8e;fill-rule:evenodd" />
<path
   d="m 240.198,129.332 c 3.129,-0.013 6.258,-0.025 9.386,-0.037 -3.13,0.013 -6.258,0.024 -9.386,0.037 z"
   inkscape:connector-curvature="0"
   id="path277"
   style="fill:#51bd51;fill-rule:evenodd" />
<path
   d="m 357.838,187.148 c 0.321,-3.989 0.643,-7.978 0.964,-11.966 0.058,3.962 0.116,7.923 0.172,11.884 -0.38,0.028 -0.758,0.055 -1.136,0.082 z"
   inkscape:connector-curvature="0"
   id="path279"
   style="fill:#3d8e8e;fill-rule:evenodd" />
<path
   d="m 431.607,194.541 c -2.324,0.206 -4.648,0.413 -6.971,0.619 -0.461,-2.11 -0.924,-4.222 -1.386,-6.334 2.948,0.021 5.897,0.042 8.847,0.063 -0.163,1.883 -0.326,3.768 -0.49,5.652 z"
   inkscape:connector-curvature="0"
   id="path281"
   style="fill:#f7f7f7;fill-rule:evenodd" />
<path
   d="m 425.453,198.388 c 1.408,-0.088 2.817,-0.176 4.223,-0.265 -0.428,2.409 -0.854,4.821 -1.279,7.233 -0.346,-0.029 -0.693,-0.058 -1.039,-0.087 -0.635,-2.293 -1.27,-4.587 -1.905,-6.881 z"
   inkscape:connector-curvature="0"
   id="path283"
   style="fill:#f7f7f7;fill-rule:evenodd" />
<path
   d="m 301.226,213.234 c -4.379,-8.247 -6.019,-16.132 -1.782,-24.396 0.418,-0.815 0.955,-1.57 1.437,-2.353 0.765,0.776 2.016,1.447 2.214,2.349 1.113,5.063 4.899,9.813 1.324,15.47 -1.574,2.492 -2.069,5.666 -3.193,8.93 z"
   inkscape:connector-curvature="0"
   id="path285"
   style="fill:#1f3871;fill-rule:evenodd" />
<path
   d="m 315.95,180.347 c 0.7,0.031 1.399,0.063 2.1,0.096 -0.051,7.386 -0.047,14.773 -0.204,22.157 -0.031,1.434 -0.691,2.854 -1.063,4.276 -0.004,-7.075 0.047,-14.147 -0.047,-21.218 -0.024,-1.773 -0.512,-3.541 -0.786,-5.311 z"
   inkscape:connector-curvature="0"
   id="path287"
   style="fill:#a95e20;fill-rule:evenodd" />
<path
   d="m 316.866,207.297 c -0.205,5.385 -0.409,10.769 -0.613,16.154 0.205,-5.384 0.409,-10.769 0.613,-16.154 z"
   inkscape:connector-curvature="0"
   id="path289"
   style="fill:#344e89;fill-rule:evenodd" />
<path
   d="m 185.927,117.313 c 0.046,2.662 0.254,5.339 0.031,7.978 -0.061,0.72 -1.424,1.329 -2.189,1.988 -0.557,-0.683 -1.542,-1.334 -1.593,-2.053 -0.187,-2.607 -0.061,-5.237 -0.052,-7.859 1.269,-0.018 2.536,-0.036 3.803,-0.054 z"
   inkscape:connector-curvature="0"
   id="path291"
   style="fill:#1f3871;fill-rule:evenodd" />
<path
   d="m 234.064,140.844 c -0.012,-2.386 -0.023,-4.771 -0.037,-7.152 2.609,-0.786 4.966,-1.317 5.001,2.772 0.031,3.528 -1.02,5.51 -4.964,4.38 z"
   inkscape:connector-curvature="0"
   id="path293"
   style="fill:#1f3871;fill-rule:evenodd" />
</svg>