<?xml version="1.0" encoding="utf-8"?>
<!-- Generator: Adobe Illustrator 16.0.2, SVG Export Plug-In . SVG Version: 6.00 Build 0)  -->
<svg version="1.2" baseProfile="tiny" id="Layer_1" xmlns="http://www.w3.org/2000/svg" xmlns:xlink="http://www.w3.org/1999/xlink"
	 x="0px" y="0px" width="2048px" height="1338px" viewBox="0 0 2048 1338" xml:space="preserve">
<g>
	<path fill-rule="evenodd" fill="#2D5A9F" d="M2016.206,680.767c-19.488-0.164-38.976-0.286-58.465-0.583
		c-31.972-0.488-63.956-0.204-95.936-0.286c-43.15-0.109-86.302-0.29-129.453-0.378c-30.307-0.063-60.615-0.017-90.923-0.039
		c-1.783-0.001-3.702,0.559-5.819-1.519c-0.986-5.424-0.393-11.456-0.099-18.382c8.33,0,16.266-0.002,24.201,0.001
		c48.235,0.016,96.47,0.025,144.704,0.051c43.953,0.022,87.906-0.053,131.859,0.137c26.645,0.115,53.286,0.651,79.93,0.998
		C2016.206,667.434,2016.206,674.1,2016.206,680.767z"/>
	<path fill-rule="evenodd" fill="#131414" d="M395.581,518.76c-10.966,1.905-21.98,3.571-32.889,5.765
		c-24.078,4.84-47.835,10.832-71.48,17.63c-24.24,6.969-48.53,13.813-72.586,21.366c-17.086,5.364-33.695,12.246-50.518,18.451
		c-3.791,0.638-7.258,2.35-10.972,3.279c-4.938,1.237-7.594,0.525-9.898-3.942c-5.018-9.724-9.205-19.837-12.69-30.201
		c-1.175-3.492-2.52-6.882-4.156-10.129c-5.095-10.11-7.396-21.254-11.985-31.567c-4.104-9.227-7.335-18.828-10.747-28.347
		c-2.709-7.56-5.821-14.981-8.586-22.528c-2.564-6.999-0.481-11.865,6.088-15.367c11.704-6.237,24.608-9.575,36.541-15.181
		c10.075-4.732,20.535-8.446,30.966-12.106c13.025-4.571,25.595-10.425,39.117-13.684c7.636-1.84,15.014-4.921,22.606-6.871
		c6.498-1.669,12.728-4.161,19.44-5.395c8.365-1.536,16.674-3.989,24.908-6.372c4.782-1.384,9.779-1.524,14.485-3.224
		c7.868-2.841,16.649-1.895,24.319-5.724c1.19-0.595,2.626-0.315,3.955-0.338c5.297-0.091,10.452-0.278,15.741-1.717
		c10.212-2.776,20.937-2.832,31.384-4.409c8.174-1.233,16.309-2.54,24.558-3.261c3.631-0.317,7.256-0.351,10.877-0.617
		c13.72-1.007,27.424-2.222,41.13-3.343c5.31-0.434,10.796-0.615,16.203-0.639c15.493-0.066,30.988-0.191,46.478,0.038
		c10.412,0.153,20.773,1.602,31.174,2.017c11.7,0.468,23.157,2.88,34.795,3.751c3.33,0.249,6.66,0.11,9.987,0.186
		c18.023,2.733,36.078,5.379,53.909,9.162c12.765,2.709,25.688,4.986,38.177,8.659c14.11,4.15,27.989,9.183,41.94,13.915
		c15.709,5.33,30.937,11.888,46.506,17.57c7.145,2.608,14.158,5.733,21.221,8.621c9.327,3.813,18.693,7.537,27.711,12.012
		c20.627,10.233,41.656,19.628,61.813,30.853c21.188,11.799,41.387,25.183,62.154,37.645c4.652,2.792,8.772,6.55,13.155,9.832
		c8.349,6.253,17.17,11.846,25.577,18.029c9.632,7.084,18.724,14.846,28.171,22.159c12.351,9.562,24.108,19.891,36.859,28.925
		c4.86,3.443,6.767,7.675,6.746,13.516c-0.122,36.146-0.048,72.293-0.065,108.439c-0.001,3.008-0.294,6.087,2.523,8.23
		c1.581,1.87,3.703,1.941,5.924,1.934c11.152-0.035,22.304-0.039,33.455,0.002c2.413,0.01,4.67-0.174,6.353-2.292
		c2.211-4.537,2.315-9.453,2.289-14.465c-0.095-17.976-0.023-35.951-0.052-53.927c-0.005-3.343,0.282-6.408,4.164-7.543
		c1.961-0.295,3.53,0.461,4.934,1.801c13.197,12.591,27.225,24.287,40.16,37.161c7.767,7.729,15.56,15.434,23.247,23.243
		c4.356,4.426,4.425,8.529,0.067,12.922c-11.798,11.898-23.975,23.367-37.056,33.887c-4.614,3.711-8.968,7.898-12.599,12.672
		c-2.921,3.84-8.312,5.076-10.271,9.886c-6.177,5.04-11.583,10.918-17.595,16.146c-5.459,4.747-7.403,4.835-12.606-0.065
		c-17.017-16.025-34.818-31.154-52.759-46.125c-13.64-11.383-27.135-22.943-40.83-34.25c-8.411-6.943-17.415-13.222-25.798-20.213
		c-5.85-4.879-11.58-9.867-17.787-14.304c-2.467-1.763-6.205-2.05-7.084-5.789c-0.78-16.462-0.146-32.93-0.378-49.392
		c-0.037-2.623,0.335-5.341-1.74-8.634c-9.473-1.077-19.426-0.603-29.443-0.172c-2.219,6.074-2.276,11.669-2.483,17.287
		c-0.162,4.395,1.161,8.997-1.436,13.141c-2.224,1.761-4.157,0.608-5.801-0.848c-2.509-2.222-5.253-4.009-8.142-5.691
		c-2.988-1.741-4.373-4.37-4.889-8.105c-2.095-15.168-1.029-30.387-1.362-45.578c-0.188-8.577-2.156-10.714-10.657-10.747
		c-19.123-0.076-38.247-0.249-57.363-0.608c-20.897-0.394-41.776-1.69-62.684-1.853c-2.827-0.021-5.339-0.843-7.504-2.322
		c-7.631-5.214-16.277-7.893-24.857-10.986c-9.985-3.6-20.224-6.456-30.085-10.351c-11.472-4.53-23.715-5.779-35.513-8.898
		c-16.188-4.278-32.665-7.282-49.19-9.789c-12.28-1.862-24.603-3.564-36.985-4.839c-13.063-1.344-26.165-1.376-39.232-2.269
		c-0.611-0.044-1.222-0.087-1.832-0.131c-9.59-1.11-19.223-0.158-28.83-0.581c-4.301-0.188-8.62,0.134-12.93,0.09
		c-18.124-0.187-36.201,0.681-54.284,1.857c-5.09,0.33-10.106,0.851-15.125,1.604l-0.459,0.195l-0.496-0.042
		C406.98,517.499,401.251,517.859,395.581,518.76z"/>
	<path fill-rule="evenodd" fill="#1B1B1C" d="M1432.763,737.432c19.291,9.249,37.483,20.438,55.805,31.421
		c24.468,14.667,47.733,31.145,71.021,47.531c18.043,12.696,35.841,25.83,51.957,41.097c17.148,16.245,35.071,31.678,52.132,48.012
		c12.741,12.198,24.774,25.148,36.899,37.974c18.53,19.599,35.704,40.406,53.044,61.034c16.136,19.194,31.532,39.03,46.755,58.966
		c12.285,16.089,23.836,32.738,35.677,49.164c0.954,1.324,1.631,2.848,2.556,4.488c-4.459,5.332-11.053,6.791-16.52,10.484
		c-4.818-4.228-8.11-9.494-11.587-14.412c-11.222-15.874-23.602-30.845-35.28-46.355c-13.595-18.055-27.65-35.744-41.996-53.205
		c-9.938-12.095-20.629-23.506-31.403-34.851c-16.053-16.902-32.179-33.743-47.844-51.001c-4.843-5.334-10.959-6.55-17.138-8.03
		c-38.645-9.262-78.139-10.33-117.572-11.82c-10.818-0.409-21.66-0.187-32.486-0.433c-4.794-0.108-8.826,0.924-13.002,3.746
		c-14.166,9.575-28.342,19.133-42.236,29.101c-0.93,0.667-1.709,1.543-2.559,2.321c-0.579,2.565-2.176,3.688-4.784,3.377
		c-4.102,1.993-7.917,4.403-11.166,7.643c-0.306,0.875-0.96,1.162-1.829,1.083c-1.969,1.345-3.938,2.688-5.907,4.033
		c-14.95,10.47-29.919,20.913-44.848,31.415c-28.76,20.23-57.397,40.638-86.288,60.68c-12.974,9.001-26.309,17.483-39.051,26.827
		c-0.813,0.9-2.157,1.033-2.91,2.02c-2.758,1.973-5.518,3.945-8.276,5.918c-1.639,0.91-3.206,1.933-4.72,3.038
		c-0.982,0.708-1.964,1.416-2.945,2.123c-1.375,0.63-2.355,1.837-3.739,2.475c-4.421,2.04-7.989,0.252-8.806-4.567
		c-1.223-7.221-1.039-14.542-0.905-21.799c0.2-10.788-0.172-21.563-0.146-32.345c0.026-11.124,0.382-22.255,0.006-33.373
		c-0.534-15.813-0.653-31.631-0.394-47.441c0.201-12.25,0.077-24.5,0.316-36.752c0.242-12.443-0.259-24.908-0.295-37.36
		c-0.057-19.616,0.842-39.243,0.313-58.849c-0.724-26.812,0.014-53.62-0.453-80.424c-0.23-13.291,0.303-26.557,0.544-39.833
		c0.075-4.156-0.58-8.26-0.804-12.919c-7.443-4.433-17.087-3.196-24.08-8.104c-0.861-3.9,1.184-5.514,3.783-6.611
		c7.244-3.058,14.934-4.356,22.676-5.095c12.276-1.171,24.596-0.489,36.751,1.109c11.575,1.521,23.037,3.875,34.43,6.727
		c11.72,2.934,23.101,6.864,34.619,10.346c11.241,3.398,22.331,7.438,33.198,11.989c4.581,1.918,9.223,3.687,13.916,5.311
		c10.381,3.592,20.09,8.612,29.655,13.93c2.477,1.376,4.864,2.938,5.831,5.859c1.025,2.525,0.099,5.256,0.853,8.262
		c3.72,3.374,8.519,2.572,12.939,1.909c7.153-1.073,14.147-0.456,21.204,0.508C1430.134,734.106,1431.132,736.128,1432.763,737.432z
		"/>
	<path fill-rule="evenodd" fill="#2660AC" d="M1343.141,363.839c6.472,2.615,13.425,1.938,20.138,2.753
		c29.607,3.597,58.827,8.798,86.346,20.788c9.241,4.026,18.26,8.603,26.613,14.561c5.926,4.227,11.87,8.412,17.574,12.935
		c8.156,6.465,14.883,14.193,20.289,23.077c1.945,2.073,0.588,4.073-0.253,5.976c-3.361,7.616-9.856,12.38-16.168,17.218
		c-1.757,1.347-3.304,2.709-4.446,4.573c-12.072,10.325-25.16,18.871-39.912,25.104c-12.116,5.121-24.403,9.702-36.917,13.574
		c-11.255,3.482-22.9,5.591-34.564,7.451c-13.622,2.172-27.323,3.587-41.051,4.822c-0.663,0.06-1.329,0.148-1.992,0.131
		c-14.817-0.379-29.577,1.546-44.4,1.113c-5.991-0.176-11.897-1.404-17.913-1.226c-5.195-1.381-10.387-1.522-15.763-0.917
		c-6.261,0.706-12.565,0.08-18.823-0.89c-2.321-0.359-3.72-2.085-5.658-2.956c-26.129-3.328-52.069-7.497-76.712-17.372
		c-28.44-11.396-52.593-28.201-69.078-55.045c2.136-7.979,8.416-13.355,13.878-18.918c9.07-9.236,18.977-17.622,29.961-24.695
		c14.541-9.363,30.491-15.135,46.926-20.046c19.72-5.893,39.986-8.578,60.285-11.109c26.328-3.284,52.767-3.718,79.239-2.247
		C1328.206,362.908,1335.744,362.223,1343.141,363.839z"/>
	<path fill-rule="evenodd" fill="#1866B3" d="M35.02,559.549c19.631,23.052,39.275,45.881,59.104,68.367
		c0.734,19.253,0.87,38.226,0.713,57.203c-0.184,22.136-0.38,44.271-0.492,66.407c-0.145,28.306-0.209,56.611-0.313,84.917
		c-0.014,3.805-1.347,6.914-3.884,9.922c-10.06,11.926-19.709,24.196-29.773,36.118c-8.569,10.151-17.332,20.136-25.296,30.784
		c-0.557,0.743-1.11,1.728-3.02,1.501C30.598,796.52,35.691,678.25,35.02,559.549z"/>
	<path fill-rule="evenodd" fill="#1C6AB9" d="M467.599,867.743c12.097-6.159,23.069-14.134,34.43-21.472
		c5.128-3.313,10.105-6.815,15.868-8.977c4.056-2.604,7.107-6.175,9.757-10.141c7.674-4.996,15.727-9.393,23.212-14.696
		c3.896,2.042,2.984,6.427,4.337,9.615c3.943,9.296,8.204,18.432,12.5,27.558c1.107,2.353,2.501,4.503,4.49,6.172
		c2.436-1.785,1.827-3.958,1.869-5.829c0.316-14.14,0.091-28.281,0.133-42.423c0.01-3.333,0.243-6.628,1.003-9.883
		c3.989-3.983,7.891-8.136,14.306-7.479c2.469,0.195,3.667,1.681,4.579,3.901c5.958,14.504,9.326,29.87,14.912,44.511
		c1.646,4.313,3.865,8.895,2.356,13.905c-0.253,0.488-0.527,0.964-0.821,1.429c-11.372,5.305-20.936,13.437-31.425,20.122
		c-17.898,11.406-35.86,22.717-53.622,34.334c-20.125,13.163-41.074,24.988-61.065,38.392
		c-15.092,10.118-31.104,18.861-46.673,28.271c-2.396,1.448-4.612,3.195-7.666,5.332c-12.104-17.162-21.986-35.481-33.852-53.43
		c28.225-19.141,57.451-36.037,85.298-55.055c1.464-1.083,0.817-2.624,0.747-4.075C464.036,867.113,465.84,868.847,467.599,867.743z
		"/>
	<path fill-rule="evenodd" fill="#1D6ABA" d="M879.829,626.347c-13.129-1.173-26.299-0.556-39.447-0.823
		c-44.302-0.902-88.608-1.606-132.913-2.342c-7.302-0.121-14.606-0.017-20.813-0.017c-4.071-3.307-3.191-6.657-3.219-9.731
		c-0.138-15.314-0.221-30.629-0.31-45.943c-0.01-1.813-0.329-3.677,0.97-5.89c4.105-1.66,8.813-0.929,13.332-0.551
		c12.316,1.031,24.651,0.257,36.966,0.785c2.098,0.09,3.93-0.569,5.496-1.968c9.183,4.61,19.086,3.991,28.89,3.88
		c19.266-0.219,38.486,1.385,57.766,1.148c14.176-0.175,28.361,0.889,42.556,0.884c9.634-0.004,11.843,2.646,12.013,12.136
		c0.254,14.231-0.641,28.496,1.017,42.695C882.398,622.901,881.727,624.888,879.829,626.347z"/>
	<path fill-rule="evenodd" fill="#2066B5" d="M1045.63,585.314c2.149-1.995,2.404-4.562,2.409-7.313
		c0.026-13.83,0.117-27.661,0.233-41.49c0.023-2.628-0.334-5.314,0.893-8.375c15.93,0,31.977,0,49.105,0
		c0,33.683,0,67.229,0,100.777c0.672,1.106,1.209,2.263,1.331,3.575c-2.979,23.177-0.663,46.459-1.393,69.68
		c-0.058,1.826,0.159,3.671-0.153,5.479c-1.131,6.573-2.926,8.093-9.623,8.11c-10.477,0.027-20.953,0.05-31.429-0.009
		c-6.185-0.034-7.937-1.731-8.272-7.955c-0.127-2.354-0.531-4.616-1.353-6.812c0.06-13.764,0.51-27.576,0.238-41.283
		c-0.44-22.25,0.066-44.493-0.416-66.733C1047.143,590.271,1044.979,588.098,1045.63,585.314z"/>
	<path fill-rule="evenodd" fill="#C95432" d="M899.91,636.854c1.375-8.922-0.249-17.979,1.221-26.904
		c0.321-1.951,0.073-4.034,2.317-6.041c9.896,0,20.354-0.123,30.807,0.069c3.529,0.064,3.911,2.938,3.898,5.827
		c-0.063,14.662-0.118,29.325-0.088,43.988c0.008,4.15-0.425,8.339,0.613,12.444c0.364,1.025,1.481,1.804,1.014,3.102
		c-1.278,1.066-1.454,2.545-1.492,4.061c-0.391,15.422-0.472,30.843,0.121,46.262c-0.17,0.252-0.34,0.504-0.508,0.757
		c-1.873,1.472-4.51,1.178-6.479,2.796c-4.356,7.997-3.501,16.792-2.417,25.241c0.662,5.162,1.463,9.976,0.193,15.159
		c-0.896,3.661-0.761,7.573-0.752,11.407c0.063,28.757-0.25,57.515,0.084,86.27c0.091,7.837-0.806,15.585-1.153,23.378
		c-0.104,2.339-1.099,4.118-2.767,5.628c-5.115,0.98-10.291,0.592-15.407,0.317c-5.01-0.27-6.974-2.653-6.872-7.921
		c0.665-34.375,0.045-68.759,0.596-103.129c0.344-21.438-0.394-42.897,0.644-64.292c0.464-9.574-1.286-19.086,0.185-28.634
		c0.441-2.868-0.331-5.927-0.514-8.898c-0.545-8.832,1.484-17.535,1.046-26.342c-0.164-3.295,0.062-6.684-2.06-9.562
		c-0.693-0.317-1.388-0.636-2.081-0.953C899.125,639.574,898.845,638.239,899.91,636.854z"/>
	<path fill-rule="evenodd" fill="#0F1010" d="M466.092,753.199c0.024,3.05,0.05,6.099,0.074,9.147
		c-0.91,1.731-0.434,3.597-0.436,5.391c-0.036,28.482-0.018,56.965-0.042,85.447c-0.002,1.809,0.337,3.66-0.419,5.588
		c-3.616,0.999-5.471-1.3-7.05-3.937c-7.266-12.136-12.899-25.14-19.895-37.423c-5.724-10.053-10.526-20.604-16.524-30.513
		c-3.706-6.122-6.739-12.623-9.691-19.109c-3.364-7.393-8.292-13.968-10.855-21.772c-1.292-3.935-1.021-7.296,0.997-10.946
		c6.969-12.61,13.855-25.266,20.623-37.987c5.492-10.325,11.203-20.548,17.129-30.638c5.625-9.576,10.03-19.846,16.437-28.969
		c1.864-2.655,4.015-5.036,7.784-2.966c0.742,2.206,0.476,4.356,0.513,6.501c0.639,36.917,1.277,73.834,0.979,110.76
		C465.712,752.29,465.878,752.747,466.092,753.199z"/>
	<path fill-rule="evenodd" fill="#1866B5" d="M337.189,655.052c6.919,11.903,12.385,24.521,17.931,37.079
		c6.688,15.146,12.952,30.479,19.492,45.692c1.786,4.155,0.902,7.994-0.428,12.028c-8.565,25.986-16.925,52.041-25.563,78.003
		c-4.543,13.654-8.642,27.473-14.254,40.757c-4.228,0.423-4.756-2.749-4.449-5.473c0.636-5.647-0.354-11.334,0.713-16.931
		c0.438-2.296-0.707-4.185-1.495-6.263c1.294-4.131,1.584-8.422,1.573-12.754c-0.031-12.479-0.224-24.956-0.42-37.434
		c-0.373-23.629,0.787-47.258,0.415-70.893c-0.207-13.142,0.108-26.283,0-39.425c-0.062-7.452,2.341-14.722,1.606-22.236
		c-0.15-1.532,0.629-2.898,2.029-3.607C335.951,652.985,336.516,654.118,337.189,655.052z"/>
	<path fill-rule="evenodd" fill="#1B67B5" d="M249.23,746.746c-2.637-1.3-3.048,1.026-3.942,2.465
		c-11.396,18.328-22.755,36.68-34.169,54.996c-4.292,6.888-8.695,13.706-13.071,20.541c-0.605,0.946-1.04,2.135-3.646,2.444
		c1.902-58.323,0.859-116.512,3.44-174.632c0.531-0.101,1.063-0.2,1.594-0.3c2.854,5.091,5.762,10.153,8.552,15.279
		c10.069,18.501,20.116,37.014,30.132,55.544c2.604,4.819,5.067,9.716,7.59,14.579c1.009,1.945,2.021,3.881,4.495,4.286
		C251.154,743.808,250.841,745.408,249.23,746.746z"/>
	<path fill-rule="evenodd" fill="#356FB6" d="M940.494,720.452c4.229-0.724,8.449-0.931,13.095,0.169
		c1.628,6.597,0.421,13.334,0.791,19.972c2.007,4.024,1.721,8.037,0.024,11.375c-0.265,2.243,1.021,3.448,1.002,5.513
		c-1.116,2.818-1.232,6.263-1.229,9.768c0.045,38.812,0.008,77.622,0.048,116.434c0.007,6.647-0.053,13.361-0.478,19.916
		c-0.338,5.214-0.695,10.536-1.197,15.795c0.466,12.913,0.115,25.806-0.578,39.047c-8.994,0.922-17.551,0.487-25.713,0.248
		c-1.504-1.642-1.692-3.154-1.739-4.633c-0.608-19.479,0.753-38.927,0.928-58.395c0.006-0.632,0.387-1.26,0.594-1.89
		c1.203-1.91,2.782-3.209,5.123-3.551c3.526-0.516,5.097-2.642,5.053-6.209c-0.148-12.117,0.201-24.236-0.027-36.354
		c-0.089-4.662,0.389-9.292,0.59-13.933c0.691-15.97-1.253-32.028,0.206-47.864c1.834-19.907,0.586-39.756,1.211-59.617
		C938.269,724,938.613,721.94,940.494,720.452z"/>
	<path fill-rule="evenodd" fill="#3F4A57" d="M1237.262,624.229c-9.332-1.097-18.688-0.876-28.047-0.512
		c-2.694-0.179-3.14-1.945-3.021-4.186c0.105-1.996,0.11-3.997,0.16-5.995c0.693-1.529,2.139-2.08,3.524-2.709
		c9.092-3.354,18.594-5.601,27.277-10.063c4.209-4.612,10.348-5.384,15.604-7.928c4.736-2.294,10.189-2.12,14.768-4.741
		c16.314-5.236,32.35-11.291,48.488-17.032c18.316-6.516,36.61-13.128,54.859-19.834c18.886-6.941,37.523-14.545,56.529-21.182
		c22.145-7.733,43.627-17.23,65.233-26.33c18.555-7.814,37.216-15.331,55.972-22.625c2.045-0.795,3.754-2.147,5.794-2.879
		c6.801-2.646,13.614-5.269,20.406-7.93c3.149-1.233,6.17-2.258,9.532-2.233c12.739-3.982,24.521-10.28,36.561-15.824
		c13.719-6.317,27.648-12.121,41.463-18.19c24.477-10.755,48.443-22.372,71.583-35.86c19.662-11.461,39.56-22.564,58.608-34.983
		c28.92-18.854,55.656-40.538,79.799-65.321c17.73-18.201,32.902-38.297,45.53-60.354c2.371-4.143,4.855-8.326,8.365-11.713
		c2.361,2.264,1.456,4.816-0.019,6.791c-6.563,8.784-10.563,19.144-17.569,27.706c-3.196,3.906-5.313,8.762-8.278,12.997
		c-4.507,6.437-10.372,11.616-15.402,17.55c-5.161,6.087-10.967,11.539-16.401,17.345c-7.064,7.548-14.888,14.284-22.716,20.892
		c-7.205,6.08-14.193,12.477-21.969,17.957c-17.791,12.539-35.537,25.129-54.434,35.97c-12.257,7.031-24.326,14.392-36.544,21.484
		c-21.762,12.633-44.306,23.522-67.246,33.671c-17.178,7.6-34.337,15.216-51.371,23.14c-10.053,4.677-20.595,8.413-30.79,12.767
		c-9.886,4.222-20.14,7.674-29.646,12.86c-5.975,3.259-12.648,5.055-19.001,7.488c-13.209,5.061-26.004,11.046-39.048,16.462
		c-10.439,4.334-21.203,7.934-31.47,12.641c-17.714,8.121-36.323,13.876-54.311,21.264c-13.794,5.665-27.817,10.85-41.878,15.748
		c-19.266,6.711-38.419,13.749-57.675,20.482c-16.767,5.863-33.479,11.831-50.372,17.351c-13.545,4.426-26.568,10.455-39.826,15.765
		c-0.949,0.38-1.764,0.947-2.012,2.055c0.232,1.333,1.328,1.299,2.294,1.402c18.884,2.027,37.849,2.875,56.791,1.897
		c9.8-0.507,19.66,0.711,29.31-0.578c13.285-1.774,26.503,1.602,39.63-0.222c14.507-2.016,29.029-0.682,43.511-1.371
		c7.407-0.353,14.781,0.3,22.299-0.693c9.404-1.242,19.125-1.691,28.72-1.119c11.843,0.706,23.499-1.282,35.245-1.947
		c8.141-0.462,16.113-1.679,24.003-3.636c0.81-0.201,1.662-0.244,2.487-0.175c12.356,1.038,24.199-3.918,36.496-3.214
		c15.188,0.869,29.414-4.575,44.186-6.463c16.289-2.081,32.371-5.619,48.498-8.724c5.643-1.087,11.305-2.678,16.893-4.293
		c2.518-0.728,4.961-0.99,6.563,1.769c-8.209,3.037-16.687,5.078-25.264,6.714c-16.886,3.221-33.786,6.367-50.673,9.579
		c-0.414,0.079-0.748,0.575-1.118,0.877c-4.54,4.5-10.74,3.423-16.21,4.755c-3.658,0.892-7.443,1.104-11.223,1.112
		c-16.178,1.843-32.301,4.118-48.518,5.573c-13.396,1.201-26.764,2.706-40.191,3.529c-27.537,1.688-55.109,2.361-82.678,3.274
		c-9.131,0.303-18.291,0.155-27.396,0.795c-22.107,1.554-44.245,0.339-66.344,1.13c-7.137,0.255-14.258-0.959-21.359,0.186
		c-7.248,1.13-14.535,0.482-21.809,0.496C1240.232,626.847,1238.691,625.669,1237.262,624.229z"/>
	<path fill-rule="evenodd" fill="#67462A" d="M761.396,757.709c-0.483,0.74-0.967,1.479-1.45,2.22
		c-0.885,2.64-2.475,4.717-5.018,5.912c-7.257,3.412-13.34,8.698-20.289,12.613c-4.281,2.412-6.47,5.895-6.422,11.343
		c0.143,16.118,0.305,32.243,0.104,48.364c-0.175,13.919-1.485,27.817-0.66,41.759c0.139,2.33-0.9,4.218-3.504,4.738
		c-4.682-0.873-2.549-5.697-4.65-8.178c-0.878-1.036-1.014-3.029-0.588-4.677c2.459-3.306,2.834-7.766,2.188-10.97
		c-1.452-7.2,1.106-13.863,1.022-20.802c-0.206-17.161-0.277-34.329,0.014-51.487c0.168-9.925,0.884-19.895,0.657-29.777
		c-0.402-17.61,1.317-35.194,0.177-52.784c-0.268-4.141-1.366-8.224-0.647-12.84c-10.498,20.425-19.885,40.805-26.029,62.53
		c-0.952,3.366-1.704,6.879-3.507,9.853c-2.866,4.73-1.73,10.021-2.724,14.999c-2.455,3.95-4.539,8.092-6.63,12.239
		c-1.204,2.391-2.86,4.813-6.149,3.868c-3.024-0.869-3.08-3.539-3.081-6.107c-0.006-16.449,0.009-32.898-0.019-49.348
		c-0.003-1.686,0.438-3.286,0.612-4.922c0.699-3.163,3.08-5.066,5.478-6.808c8.962-6.506,18.884-11.637,27.265-18.986
		c0.342-0.299,0.941-0.285,1.428-0.387c4.886-5.787,5.657-13.273,8.192-20.021c3.014-8.021,5.739-16.152,8.59-24.235
		c2.8,1.155,2.425,3.735,2.498,5.962c0.203,6.146,0.02,12.301,0.104,18.451c0.026,1.942-0.246,3.992,1.244,5.807
		c3.771,0.075,6.799-4.265,10.83-1.793c2.635,6.578,5.507,13.089,7.619,19.842c1.337,4.274,2.54,8.478,4.603,12.529
		c2.709,5.323,2.927,11.518,4.938,17.156c1.063,2.979,2.087,5.944,3.512,8.771C761.939,754.205,762.67,755.91,761.396,757.709z"/>
	<path fill-rule="evenodd" fill="#C0533F" d="M528.45,828.021c-1.834,5.997-5.637,9.341-10.552,9.275
		c-1.727-7.062-6.902-12.295-9.89-18.699c-7.143-15.312-14.114-30.672-17.809-47.28c-5.32-23.921-6.384-47.991-1.732-72.092
		c1.484-7.691,3.877-15.199,6.654-22.674c3.825-10.296,8.863-19.841,13.819-29.514c2.73-5.329,6.27-10.112,9.691-14.979
		c0.684-0.972,1.749-1.521,3.036-1.585c2.201,0.739,3.252,2.614,4.409,4.47c9.774,15.679,16.763,32.594,22.34,50.138
		c0.28,0.884,0.804,1.411,1.623,1.724c1.171,1.645-0.66,3.083-0.311,4.676c-0.44,3.64-3.257,6.095-4.603,9.291
		c-1.339,1.626-2.915,2.546-5.079,1.714c-4.3-2.537-3.575-7.203-4.593-11.089c-2.482-9.478-6.952-18.156-10.621-27.159
		c-0.807-1.979-2.162-3.788-2.151-6.062c-0.179-1.293-0.073-2.748-2.996-3.426c-11.66,18.525-18.516,39.404-21.121,60.991
		c-4.025,33.345,2.87,65.056,19.995,94.837c2.39-2.118,3.282-3.856,4.14-5.612c0.064-0.464,0.177-0.922,0.321-1.369
		c1.357-1.583,1.806-3.489,1.908-5.518c0.118-0.441,0.311-0.849,0.544-1.237c1.441-1.371,1.013-3.392,1.719-5.021
		c0.226-0.415,0.52-0.775,0.862-1.097c1.376-0.874,2.406-1.817,2.866-3.627c0.683-2.681,2.398-4.574,5.641-3.956
		c4.375,3.281,5.95,8.344,8.248,12.955c0.296,1.225,0.658,2.455-0.034,3.668c-2.487,1.545-3.652,3.992-4.756,6.593
		C536.81,813.916,533.571,821.477,528.45,828.021z"/>
	<path fill-rule="evenodd" fill="#364752" d="M1045.63,585.314c2.496,1.765,2.623,4.324,2.621,7.083
		c-0.005,18.97,0.089,37.939,0.117,56.908c0.005,3.318-0.26,6.654,1.836,9.616c-2.347,3.918-1.856,8.122-1.867,12.249
		c-0.027,9.817-0.017,19.635-0.021,29.452c1.168,4.721,1.789,9.435-0.162,14.118c-2.734-1.664-1.915-4.408-1.921-6.79
		c-0.094-36.819-0.192-73.638-0.122-110.457c0.012-6.309-2.419-10.383-7.791-13.879c-9.313-6.062-17.623-13.539-26.271-20.538
		c-13.938-11.282-27.613-23.039-42.468-33c-14.719-9.87-28.055-21.669-43.744-30.21c-11.194-6.095-21.321-14.142-32.476-20.322
		c-16.344-9.056-32.446-18.534-49.479-26.42c-12.298-5.694-24.314-12.193-36.663-17.787c-16.716-7.571-33.63-14.811-51.09-20.66
		c-7.977-2.673-15.682-6.156-23.512-9.27c-14.836-5.901-30.159-10.399-45.197-15.708c-14.735-5.201-30.122-7.417-45.187-11.098
		c-16.471-4.023-33.223-6.24-49.907-8.954c-2.735-0.444-5.184-2.298-8.149-1.858c-8.287-1.726-16.78-1.799-25.111-3.072
		c-12.442-1.899-25.021-2.049-37.516-3.271c-12.711-1.243-25.542-0.968-38.328-0.873c-4.156,0.03-8.291-0.473-12.45-0.315
		c-11.911,0.448-23.803,1.225-35.691,1.967c-9.92,0.619-19.801,1.939-29.771,2.131c-14.097,0.272-28.018,2.609-41.971,4.523
		c-10.331,1.416-20.739,2.174-30.888,4.879c-2.994,0.798-6.543,1.899-9.293-1.155c14.012-3.868,28.462-4.985,42.792-6.915
		c35.184-4.737,70.554-7.279,106.001-8.344c24.143-0.725,48.269,0.972,72.363,2.817c22.602,1.731,44.985,5.102,67.339,8.597
		c21.706,3.395,43.292,7.819,64.456,13.604c18.017,4.924,35.429,12.039,53.159,18.032c17.286,5.843,33.95,13.275,51.024,19.661
		c16.77,6.271,32.755,14.333,48.982,21.854c18.311,8.487,36.36,17.471,53.761,27.657c17.038,9.974,33.974,20.179,50.439,31.062
		c17.58,11.62,34.852,23.749,51.402,36.838c18.791,14.859,37.521,29.794,56.291,44.678
		C1042.597,583.276,1044.14,584.262,1045.63,585.314z"/>
	<path fill-rule="evenodd" fill="#C76657" d="M800.599,838.97c-1.37,0.953-2.446,0.963-4.217-0.192
		c-2.681-10.079-5.441-20.764-8.381-31.399c-2.021-7.309-4.412-14.517-6.418-21.829c-2.603-9.485-4.665-18.492-2.129-28.99
		c3.443-14.26,8.942-27.8,12.413-41.977c1.734-7.082,3.565-14.144,5.507-21.171c0.572-2.071,0.427-4.816,3.515-5.451
		c2.152,1.187,2.49,3.408,3.177,5.402c4.202,12.194,5.882,25.06,10.032,37.289c2.959,8.717,5.508,17.596,7.753,26.525
		c2.364,9.4-1.609,17.982-4.317,26.696c-4.559,14.668-8.866,29.414-13.563,44.036C802.766,831.663,801.356,835.362,800.599,838.97z"
		/>
	<path fill-rule="evenodd" fill="#C95E42" d="M968.176,743.618c4.165,0.205,2.888,3.415,2.869,5.602
		c-0.316,36.694-0.623,73.389-1.152,110.079c-0.203,14.054-0.949,28.1-1.481,42.147c-0.042,1.133-0.34,2.257-0.52,3.391
		c-3.006,1.547-6.015,0.575-8.938,0.664c-1.206-0.915-2.954-0.656-4.697-2.641c-1.961-2.783-1.337-6.918-0.747-10.745
		c0.459-2.982,0.688-5.916,0.688-8.894c0.013-39.104-0.12-78.21,0.124-117.313c0.045-7.308-0.281-14.754,1.515-22.256
		C960.007,743.073,964.083,743.025,968.176,743.618z"/>
	<path fill-rule="evenodd" fill="#C95131" d="M724.437,883.688c0.846-0.598,1.569-1.324,1.48-2.435
		c-1.845-23.051,1.3-46.095,0.107-69.133c-0.396-7.645,0.931-15.285,0.041-22.846c-0.786-6.677,2.984-10.079,7.722-13.081
		c8.675-5.495,17.436-10.853,26.16-16.267c5.723,12.257-1.908,22.857-4.589,33.924c-3.391,13.995-8.049,27.685-12.182,41.5
		c-4.932,16.489-9.869,32.976-14.868,49.444c-0.372,1.224-1.261,2.29-1.91,3.43C723.706,887.595,722.641,886.261,724.437,883.688z"
		/>
	<path fill-rule="evenodd" fill="#C8583B" d="M575.535,743.361c4.159,0.809,5.08-2.779,6.198-5.19
		c3.726-8.035,6.481-16.505,9.711-24.736c4.196-10.698,8.325-21.48,12.337-32.28c4.36-11.739,8.904-23.413,13.596-35.023
		c0.964-2.384,0.135-5.977,4.388-7.095c3.227,3.345,4.077,8.009,5.696,12.198c3.039,7.863,5.802,15.834,8.623,23.78
		c0.394,1.107,0.449,2.343,2.02,2.387c0.755,0.428,1.112,1.117,1.282,1.934c-0.13,3.545-1.72,6.539-3.571,9.439
		c-1.587,1.162-2.292,3.62-4.86,3.373c-3.842-1.827-4.948-5.656-6.47-9.108c-0.991-2.249-1.818-4.556-3.428-7.177
		c-3.872,4.484-4.688,9.873-6.437,14.69c-4.877,13.431-10.241,26.672-15.22,40.062c-1.328,3.573-2.489,7.201-4.119,10.677
		c-1.828,3.897-1.838,7.938-0.351,12.094c2.633,7.356,4.883,14.845,7.08,22.344c0.507,1.729,1.348,3.444,0.813,5.356
		c-3.788,6.09-8.255,8.433-13.256,6.977c-4.091-5.827-4.251-13.149-7.326-19.375c-1.668-3.378-2.365-7.162-4.664-11.575
		c-0.453,8.191-0.164,15.266-0.24,22.329c-0.046,4.313,0.05,8.626-0.052,12.938c-0.055,2.307-0.093,4.659-2.929,5.511
		c-2.2-1.509-1.537-3.833-1.628-5.897c-0.313-7.084,0.627-14.213-0.804-21.255c-0.152-0.903-0.152-1.813-0.09-2.721
		c0.18-1.695,0.343-3.395,0.115-5.107c0.009-1.421,0.014-2.841,0.008-4.263c0.252-2.228,0.988-4.422,0.402-6.705
		c-0.074-0.584-0.046-1.163,0.032-1.742C573.16,747.794,573.075,744.988,575.535,743.361z"/>
	<path fill-rule="evenodd" fill="#64A1CB" d="M1268.124,589.878c-10.322,3.629-20.645,7.258-30.969,10.888
		c1.193-2.155,0.986-4.517,0.985-6.841c-0.005-24.992-0.042-49.983,0.009-74.976c0.006-2.584-0.253-4.959-1.911-7.023
		c11.6,2.041,23.306,1.999,35.022,1.893c1.939-0.018,3.99-0.438,5.787,0.781c-2.138,3.804-6.723,1.112-9.539,3.697
		c-1.403,1.67-1.108,3.913-1.096,6.039c0.113,18.948-0.392,37.896-0.078,56.847C1266.386,584.263,1267.256,587.037,1268.124,589.878
		z"/>
	<path fill-rule="evenodd" fill="#24344D" d="M323.158,372.604c10.396,0.253,20.271-3.391,30.52-4.118
		c14.024-0.996,27.806-3.981,41.858-4.783c10.591-0.604,21.136-2.125,31.728-2.527c5.598-0.212,11.052-1.377,16.653-1.438
		c14.094-0.153,28.254-1.604,42.259-0.646c13.718,0.939,27.479-0.348,41.235,2.087c7.437,1.315,15.434,0.765,23.152,1.588
		c9.892,1.054,19.788,2.063,29.682,3.098c1.54,0.161,2.9,0.715,3.934,1.926c-12.418-0.346-24.689-1.942-37.015-3.454
		c-9.954-1.222-20.128-1.626-30.202-1.997c-16.944-0.624-33.932-0.872-50.878-0.427c-17.188,0.452-34.384,1.216-51.48,3.575
		c-7.687,1.061-15.55,0.586-23.338,1.146c-11.129,0.799-21.964,3.776-33.058,4.26c-12.772,0.556-24.813,6.013-37.784,5.099
		c-2.493-0.175-5.091,1.175-7.645,1.802c-13.737,3.373-27.671,5.813-41.373,9.458c-11.433,3.041-23.02,5.643-34.451,8.74
		c-9.062,2.456-17.778,6.252-26.895,8.42c-11.934,2.837-22.697,8.886-34.61,11.688c-3.348,0.787-6.391,2.79-9.67,3.965
		c-17.381,6.229-34.006,14.369-51.5,20.323c-3.089,1.052-5.914,2.93-8.779,4.568c-5.269,3.015-6.955,7.841-4.668,13.591
		c3.504,8.81,7.954,17.338,10.522,26.404c4.349,15.35,11.448,29.588,16.671,44.571c4.543,13.034,10.368,25.616,15.309,38.52
		c1.488,3.887,3.333,7.546,5.136,11.254c1.034,2.127,2.258,4.086,4.415,5.064c5.359,0.447,9.936-3.2,15.225-2.39
		c-6.037,3.903-13.04,5.255-19.912,8.023c-3.322-6.332-5.413-12.814-7.938-19.016c-8.456-20.76-16.166-41.822-24.261-62.731
		c-3.387-8.749-7.46-17.238-9.896-26.344c-0.529-1.709-0.516-3.601-1.717-5.082c-2.124-3.348-4.354-6.653-4.305-10.862
		c-0.552-1.731-1.029-3.49-1.863-5.118l-0.055-0.146c-0.672-1.589-0.56-3.465-1.775-4.855l-0.174-0.281
		c-1.333-1.294,0.458-3.42-1.231-4.619c-2.062-2.269-1.179-3.927,1.099-5.296c1.426-0.433,2.864-0.838,4.073-1.771
		c1.125-1.078,2.401-1.89,3.942-2.236c1.414-0.449,2.881-0.785,4.024-1.83l0.156-0.093c2.741-1.083,5.766-1.596,7.899-3.907
		c1.073-0.906,2.267-1.445,3.712-1.212c2.031-1.058,4.389-1.371,6.28-2.75c0.192-0.241,0.438-0.321,0.735-0.241
		c4.246-1.211,8.44-2.548,12.2-4.956l0.028-0.007c2.314-1.039,5.053-1.088,6.995-2.994l-0.009,0.013
		c2.011-0.659,4.307-0.528,5.968-2.154l-0.076,0.054c1.382-0.607,2.784-1.167,4.167-1.774l0.043-0.038
		c1.93-0.8,4.172-0.707,5.905-2.067l0.033-0.017c1.61-0.791,3.632-0.563,4.979-2.009l-0.013,0.019c1.91-0.934,4.091-1.07,5.988-2.04
		l0.005-0.013c3.686-1.268,7.335-2.638,11.009-3.942l0.034-0.013c3.413-1.005,6.63-2.534,9.981-3.703
		c1.978-1.491,4.125-2.505,6.678-2.384c1.73-0.735,3.686-0.847,5.302-1.901l0.04-0.019c4.798-0.432,9.072-2.7,13.573-4.112
		c2.107-0.661,4.46-0.719,6.385-1.985l-0.06,0.029c2.079-0.467,4.275-0.576,6.051-1.972l0.002,0.009
		c2.64-0.797,5.468-0.887,7.991-2.122l-0.081,0.055c3.1-0.705,6.167-1.524,9.149-2.637l0.191-0.13
		c6.188-1.974,12.781-2.392,18.829-4.904c0.259-0.219,0.552-0.289,0.882-0.21c14.701-3.586,29.705-5.724,44.41-9.287
		c3.183-0.771,6.487-0.811,9.637-1.736L323.158,372.604z"/>
	<path fill-rule="evenodd" fill="#243D5D" d="M249.23,746.746c-0.733-1.814-0.229-3.378,0.976-4.798
		c26.315-33.604,54.387-65.771,80.815-100.265c3.213,4.76,5.146,8.841,6.168,13.367c-0.761-0.207-1.522-0.414-2.465-0.672
		c-0.183,0.734-0.436,1.349-0.477,1.977c-1.104,17.008-2.179,33.997-2.08,51.078c0.239,41.252,0.228,82.509-0.23,123.759
		c-0.118,10.665,1.142,21.346-0.207,32.014c-0.266,2.103,0.192,4.371,2.636,5.406c-1.339,5.219-2.622,10.461-5.18,15.066
		c-2.986-0.135-3.715-2.177-4.67-3.862c-10.073-17.769-20.108-35.559-30.164-53.336C279.316,799.899,264.271,773.324,249.23,746.746
		z"/>
	<path fill-rule="evenodd" fill="#CB5637" d="M708.973,710.075c-3.083,6.879-10.063,9.362-15.625,13.213
		c-5.638,3.902-11.549,7.425-16.907,11.752c-0.533-0.312-0.887-0.764-1.062-1.354c-0.449-6.325,1.693-12.601,0.746-18.87
		c-1.727-11.428-0.801-22.893-0.813-34.324c-0.017-15.377-0.047-30.746-0.573-46.116c-0.104-3.021-0.778-6.767,4.894-6.162
		c3.741,7.751,5.62,16.295,8.569,24.441c6.048,17.597,12.146,35.177,18.071,52.814C706.885,707.288,707.728,708.741,708.973,710.075
		z"/>
	<path fill-rule="evenodd" fill="#614A3B" d="M590.72,787.732c4.645-0.912,7.659-4.343,11.066-7.167
		c0.623-0.609,1.361-0.648,2.149-0.441c3.209,4.853,5.254,10.309,6.137,15.916c1.513,9.614,5.874,18.17,9.116,27.553
		c3.948-5.278,3.903-12.428,8.723-16.98c3.294-0.28,3.8,2.287,4.184,4.502c1.168,6.724,4.2,12.413,8.216,17.906
		c4.865,6.656,9.35,13.64,12.285,21.707c1.991-1.694,1.54-3.479,1.474-5.017c-0.294-6.827,0.52-13.608,0.739-20.412
		c0.093-2.856-0.123-6.174,3.218-7.855c2.533,0.295,3.161,1.688,2.271,3.95c-2.372,1.905-2.349,4.549-2.375,7.261
		c-0.138,14.141-0.324,28.28-0.563,42.419c-0.022,1.383,0.445,3.039-1.627,4.418c-5.993-13.33-9.673-27.599-17.487-40.461
		c-3.706,2.694-6.625,4.815-9.544,6.937c-2.583,5.566-8.172,7.486-12.849,10.473c-1.547,0.987-3.424,1.625-5.103-0.055
		c-2.729-9.916-5.979-19.638-9.705-29.242c-2.152-5.547-2.368-11.786-4.947-17.305c-1.787-3.822-4.612-7.254-4.146-11.914
		c0.166-1.661-1.263-2.13-2.682-2.288C588.529,789.88,588.503,788.391,590.72,787.732z"/>
	<path fill-rule="evenodd" fill="#2C4360" d="M466.092,753.199c-1.541-1.297-0.973-3.095-0.98-4.673
		c-0.107-21.811,0.299-43.634-0.374-65.425c-0.452-14.644-0.211-29.275-0.548-43.907c-0.033-1.442,0.308-3.064-2.492-4.798
		c-11.855,14.004-17.103,32.348-29.018,47.913c-1.019,4.776-3.857,10.168-8.099,15.913c0.086,3.76-3.682,6.633-5.519,10.463
		c-3.485,7.269-6.8,14.991-11.531,21.135c-8.024,10.418-4.102,18.991,1.375,27.635c4.188,6.61,7.241,13.772,10.722,20.652
		c4.482,8.863,9.627,17.348,14.064,26.227c6.657,13.319,13.596,26.511,20.856,39.511c2.723,4.875,4.559,10.565,10.479,15.086
		c0-3.941-0.004-6.682,0-9.423c0.047-27.326,0.078-54.652,0.182-81.979c0.007-1.737-0.609-3.702,0.956-5.19
		c0.021,15.291,0.065,30.574,0.054,45.857c-0.015,18.133-0.069,36.267-0.133,54.4c-0.007,1.889,0.284,3.639,1.508,5.145
		c0.012,1.481,0.255,3.067-1.729,3.715c-2.339-0.021-2.09-2.72-3.596-3.63c-6.152-11.959-12.206-23.972-18.483-35.867
		c-9.372-17.76-18.986-35.393-28.332-53.166c-5.788-11.011-11.17-22.234-16.945-33.251c-1.856-3.541-1.469-6.408,0.497-9.742
		c10.883-18.451,20.227-37.769,30.91-56.305c10.604-18.396,19.578-37.712,31.366-55.427c0.878-1.318,1.254-3.141,3.645-3.438
		c1.142,6.078,0.659,12.194,0.714,18.246c0.339,37.462,0.549,74.925,0.784,112.389C466.43,751.909,466.208,752.555,466.092,753.199z
		"/>
	<path fill-rule="evenodd" fill="#3862A3" d="M148.081,820.789c-4.035,1.518-7.096,1.176-11.02,0.396
		c-1.118-42.176,1.271-84.291,1.054-126.333c3.791-2.206,7.27,0.234,11.891-1.163C148.186,736.438,149.818,778.563,148.081,820.789z
		"/>
	<path fill-rule="evenodd" fill="#495459" d="M1390.779,723.696c-1.775-6.451-7.989-7.933-12.765-10.201
		c-17.785-8.452-36.23-15.381-54.886-21.709c-10.941-3.711-21.802-7.73-32.909-10.863c-11.242-3.171-22.539-6.181-34.082-8.313
		c-14.025-2.59-28.124-4.08-42.327-4.228c-6.049-0.063-12.151,0.547-18.183,2.209c-4.563,1.257-9.365,1.57-13.502,4.208
		c-1.232,0.786-2.854,1.065-3.666,3.379c3.868,3.539,9.089,4.618,14.035,5.343c9.474,1.389,10.637,2.196,10.761,11.738
		c0.169,12.971-0.749,25.971-0.425,38.892c0.78,31.128,0.223,62.248,0.465,93.368c0.267,34.467,0.026,68.937,0.031,103.405
		c0.004,22.462,0.056,44.924,0.078,67.386c0.018,18.94-0.383,37.894,0.209,56.816c0.299,9.573-0.904,19.182,0.617,28.721
		c0.418,2.619,0.692,5.266,2.088,7.518c1.695,1.203,3.539,1.135,5.123,1.232c1.749-0.645,3.283-1.211,4.818-1.777
		c-3.458,3.704-7.811,5.937-13.926,8.496c-1.004-137.761-0.685-274.648-0.9-411.464c-11.895-3.91-23.546-5.593-34.914-9.255
		c3.569-3.44,7.521-5.526,11.854-6.9c21.571-6.841,43.547-6.397,65.629-3.469c26.51,3.516,51.836,11.53,76.922,20.44
		c1.396,0.496,2.89,0.724,4.338,1.076c14.311,5.641,28.692,11.106,42.898,16.999c6.543,2.714,12.789,6.171,19.062,9.494
		c1.513,0.802,2.984,1.363,4.624,1.632C1394.267,720.32,1393.47,722.182,1390.779,723.696z"/>
	<path fill-rule="evenodd" fill="#226CB5" d="M660.298,821.394c-0.436-1.343-0.867-2.688-2.103-3.558
		c-2.028-1.228-2.094-3.279-2.108-5.276c-0.15-21.095-0.14-42.19-0.006-63.286c0.009-1.486,0.016-3.01,0.967-4.304
		c0.434-0.525,0.976-0.893,1.624-1.102c4.352,1.115,6.486-3.196,10.018-4.09c3.512-1.653,4.916,0.166,5.443,3.343
		c0.135,0.817,0.067,1.662,0.069,2.495c0.048,19.819-0.112,39.641,0.18,59.46c0.044,2.979,0.264,6.052-2.198,8.868
		c-1.727,1.088-4.463,1.313-5.971,3.54C664.54,819.239,662.503,820.444,660.298,821.394z"/>
	<path fill-rule="evenodd" fill="#1C3769" d="M899.91,636.854c0.051,1.344,0.102,2.688,0.15,4.03
		c-6.966-4.533-13.847-9.183-20.228-14.536c-0.032-16.253-0.198-32.505,0.016-48.752c0.049-3.673-1.805-6.213-3.392-9.874
		c-6.807,0-13.76,0.021-20.714-0.01c-3.137-0.014-6.278,0.229-9.248-1.388c-1.073-0.584-2.655-0.655-3.907-0.424
		c-13.783,2.542-27.509-0.899-41.304-0.281c-13.945,0.625-27.946-0.108-41.914,0.167c-5.596,0.109-10.573-2.773-15.481-2.167
		c-1.645-1.541-2.827-2.649-4.004-3.755c-17.372-8.333-35.919-13.491-54.018-19.864c-16.656-5.865-34.191-8.104-51.268-12.245
		c-20.691-5.02-41.785-7.733-62.875-10.226c-13.024-1.54-26.188-1.895-39.291-2.762c-1.968-0.13-4.009,0.282-5.805-0.895
		c12.625-0.418,25.167,0.104,37.756,1.444c12.229,1.302,24.479,2.565,36.571,4.614c12.565,2.13,25.26,3.643,37.654,6.832
		c17.776,4.574,35.998,7.308,53.431,13.356c10.768,3.736,21.46,7.702,32.444,10.857c5.661,1.625,11.132,4.316,16.264,7.265
		c4.849,2.787,9.764,3.824,15.212,3.596c4.49-0.188,9.013-0.281,13.49,0.027c33.694,2.321,67.442,1.676,101.173,2.054
		c4.274,0.048,8.572,1.085,11.712,5.412c0,10.318-0.07,20.972,0.024,31.624c0.068,7.732,0.271,15.47,1.898,23.082
		c0.357,1.67,0.866,3.414,2.257,4.346C890.903,631.322,895.435,634.047,899.91,636.854z"/>
	<path fill-rule="evenodd" fill="#4B5D8A" d="M666.213,817.484c0.462-3.063,3.314-3.358,5.7-4.71c0-23.881,0-47.861,0-71.628
		c-0.86-1.437-2.102-1.251-3.228-1.368c0.539-1.391,1.876-1.807,3.009-2.472c1.82-0.523,2.321-3.11,4.589-2.936
		c0.017,0.229,0.068,0.451,0.155,0.667c0.027,19.713,0.044,39.425,0.125,59.136c0.002,0.486,0.72,0.971,1.474,1.923
		c5.47-4.611,5.134-12.74,10.875-16.688c2.373-0.549,3.791,0.821,4.886,2.584c1.225,1.971,2.312,4.032,2.86,6.32
		c2.014,8.391,7.376,15.595,9.005,24.024c2.048,10.601,5.316,20.836,8.87,30.925c2.481,7.047,4.135,14.245,6.148,21.378
		c0.688,2.437,0.932,4.882-0.188,7.282c0.11,4.326,0.841,8.443,3.941,11.767c-0.387,1.96,0.956,3.173,1.963,4.534
		c0.013,1.988-0.104,3.926-2.69,6.336c-9.24-31.841-18.24-62.855-27.435-94.537C685.003,805.352,676.645,813.256,666.213,817.484z"
		/>
	<path fill-rule="evenodd" fill="#4C7BB6" d="M884.139,763.759c-3.408,2.384-5.676,2.613-8.331,0.876
		c-2.538-38.157-0.348-76.421-0.586-114.189c2.706-2.001,4.754-1.753,8.01-0.53C884.217,687.714,882.568,725.928,884.139,763.759z"
		/>
	<path fill-rule="evenodd" fill="#2C77BC" d="M761.396,757.709c-5.497-8.651-7.613-18.446-9.393-26.411
		c-5.341-12.996-9.475-24.477-12.542-36.341c-0.195-0.856,0.049-1.612,0.531-2.313c2.485-1.477,4.077-0.215,5.361,1.805
		c10.86,17.08,21.711,34.166,32.547,51.262c0.159,0.252,0.104,0.642,0.242,1.658C773.07,751.226,767.929,755.518,761.396,757.709z"
		/>
	<path fill-rule="evenodd" fill="#C7787D" d="M902.141,641.838c2.667,0.287,3.011,2.575,3.285,4.412
		c0.904,6.054,0.967,12-0.351,18.181c-1.507,7.068-1.366,14.451,0.257,20.656c-1.631,67.786-0.864,134.648-1.16,201.387
		c6.292,5.231,13.342,2.757,19.952,3.135c1.12-0.477,1.812,0.089,2.37,0.977c0.139,1.135-0.271,1.851-1.488,1.952
		c-5.902-1.606-11.924-0.405-17.884-0.726c-5.925-0.319-6.922-0.946-6.774-6.622c0.905-34.854,0.309-69.728,1.079-104.572
		C902.449,734.354,901.98,688.098,902.141,641.838z"/>
	<path fill-rule="evenodd" fill="#90607A" d="M968.176,743.618c-3.627,0-7.254,0-10.395,0c-2.098,2.764-1.469,5.182-1.474,7.43
		c-0.103,44.717-0.146,89.434-0.213,134.15c-0.004,2.467-0.151,4.803-1.117,7.263c-2.021,5.152-0.246,9.575,3.979,13.04
		c-4.451,0.008-5.999,2.425-5.853,6.628c0.084,2.415,0.503,4.922-0.557,7.27c-0.094-18.631-0.261-37.257-0.27-55.882
		c-0.015-32.938,0.074-65.874,0.095-98.811c0.002-2.506-0.079-4.992,1.402-7.103c-3.005-5.87,1.515-11.333,0.604-17.01
		c2.457,2.173,5.488,2.058,8.485,2.206C964.649,742.888,966.556,742.394,968.176,743.618z"/>
	<path fill-rule="evenodd" fill="#4A5C77" d="M925.006,892.537c0.378-0.621,0.755-1.241,1.133-1.862
		c-0.037-0.696,0.087-1.521,0.672-1.775c5.378-2.333,5.362-6.949,5.224-11.754c-0.297-10.309-0.715-20.723,0.252-30.913
		c3.734-39.347,0.625-78.747,1.732-118.101c0.095-3.355,0.632-6.272,3.752-8.118c0.176-0.128,0.359-0.245,0.551-0.351
		c0.723,0.26,1.446,0.521,2.172,0.785c-0.116,16.313-0.404,32.622-0.285,48.929c0.069,9.449-3.109,18.622-1.95,28.144
		c0.435,3.576-0.419,7.259,1.515,10.716c0.65,1.161,0.694,3.122,0.192,4.392c-2.871,7.263-1.467,14.803-1.599,22.206
		c-0.259,14.486-0.314,28.981-0.111,43.469c0.176,12.486-1.313,11.802-12.217,15.468
		C925.696,893.359,925.352,892.948,925.006,892.537z"/>
	<path fill-rule="evenodd" fill="#535758" d="M1098.38,632.017c-0.037-1.035-0.074-2.07-0.109-3.104
		c5.023,4.609,10.078,9.183,15.063,13.831c19.718,18.387,39.836,36.355,58.485,55.86c2.3,2.405,4.644,4.778,6.585,8.524
		c-16.848,18.058-36.482,33.465-54.438,50.638c-2.756,2.162-4.879,5.017-7.734,7.069c-1.055,0.979-2.109,1.958-3.163,2.937
		c-0.904,0.511-1.585,1.671-2.897,0.993c0.156-1.831,1.433-2.977,2.643-4.096c6.805-6.295,12.93-13.547,20.182-19.062
		c9.722-7.395,17.287-17.008,27.131-24.097c3.71-2.671,6.369-6.285,9.367-9.597c3.828-4.228,3.694-7.521-0.336-11.685
		c-16.292-16.832-33.17-33.052-50.709-48.585c-4.843-4.288-9.567-8.71-14.346-13.07c-1.244-0.729-2.795-0.925-4.451-3.038
		C1099.331,635.116,1099.364,633.339,1098.38,632.017z"/>
	<path fill-rule="evenodd" fill="#5B606B" d="M1110.171,768.765c0.967-0.331,1.933-0.662,2.898-0.993
		c-8.387,8.023-16.771,16.046-24.728,23.657c-2.604,0.598-3.773-0.642-4.968-1.818c-19.109-18.813-39.641-36.021-60.184-53.21
		c-15.301-12.804-30.337-25.966-46.183-38.063c-11.239-8.581-21.455-18.401-33.085-26.458c-1.351-0.937-2.824-1.694-4.236-2.537
		c-0.619-0.946-1.375-1.848-1.012-3.109c9.951,5.206,17.855,13.117,26.531,20.005c10.892,8.649,21.975,17.073,32.613,26.024
		c9.139,7.689,18.116,15.561,27.404,23.085c11.567,9.371,22.859,19.091,34.094,28.863c7.449,6.479,14.594,13.311,21.864,19.996
		c1.346,1.237,2.583,2.612,4.969,3.211c6.683-0.726,10.275-6.825,15.093-10.823C1104.252,774.097,1107.145,771.323,1110.171,768.765
		z"/>
	<path fill-rule="evenodd" fill="#C38083" d="M676.283,734.371c-1.482,1.062-2.364,3.061-4.595,2.939
		c1.896-2.041,2.615-4.337,2.598-7.216c-0.155-25.962-0.201-51.925-0.166-77.887c0.013-9.775-1.484-19.502-0.523-29.329
		c0.299-3.057-2.418-6.198-0.561-9.493c1.791-0.692,2.684,0.379,3.197,1.632c4.709,11.48,8.174,23.391,12.028,35.166
		c0.241,0.739-0.028,1.646-0.06,2.472c-3.437-4.754-4.122-10.563-6.064-15.888c-1.047-2.868-1.516-6.022-4.436-7.685
		c-0.41,0.249-0.67,0.326-0.678,0.423c-0.991,12.172-1.562,24.347,0.411,36.475c0.182,1.116,0.821,2.214,0.502,3.362
		c-3.441,12.392-2.186,25.212-1.029,37.482C677.798,716.263,676.883,725.208,676.283,734.371z"/>
	<path fill-rule="evenodd" fill="#5A6068" d="M575.535,743.361c-0.891,2.312,0.51,5.063-1.38,7.182
		c-2.843-2.023-2.017-5.087-2.055-7.796c-0.352-25.25,1.717-50.472,0.945-75.728c-0.06-1.95,0.41-3.968-0.708-6.248
		c-4.911,4.854-7.247,10.987-10.059,16.809c-2.109,4.369-4.97,8.208-8.253,11.708c-1.413,1.507-3.197,3.116-5.547,1.234
		c-0.487-1.664,0.758-2.6,1.563-3.718c5.878-9.064,10.041-19.053,15.3-28.442c3.187-5.688,5.825-11.771,9.975-16.947
		c2.471,1.398,1.835,3.418,1.816,5.103c-0.328,30.292-0.702,60.584-1.101,90.875C576.006,739.384,575.707,741.372,575.535,743.361z"
		/>
	<path fill-rule="evenodd" fill="#4B5E79" d="M638.298,679.72c-0.065-0.771-0.13-1.543-0.195-2.316
		c6.013-11.455,10.087-23.756,15.533-35.455c0.817-1.757,1.263-3.827,3.276-4.884c2.217,0.93,1.852,2.991,1.883,4.681
		c0.586,32.06-0.256,64.112-0.403,96.169c-0.009,1.984,0.182,3.969,0.28,5.953c-0.082,0.213-0.233,0.344-0.455,0.395
		c-2.78-0.597-3.08-2.837-3.054-5.02c0.181-14.792-0.938-29.6,0.699-44.379c0.605-5.466-0.193-10.93-0.617-16.405
		c-0.615-7.95-0.122-15.957-0.407-24.009c-1.957,7.375-6.175,13.719-9.212,20.598C644.376,677.876,642.79,681.411,638.298,679.72z"
		/>
	<path fill-rule="evenodd" fill="#B15341" d="M739.993,692.644c-0.173,0.77-0.346,1.54-0.524,2.312
		c-4.209-0.627-5.928,3.954-9.869,4.562c-3.322-0.543-3.127-3.3-3.233-5.985c-0.369-9.234,0.545-18.497-0.613-27.713
		c-0.401-1.51,0.187-2.503,2.245-3.549c2.809,8.569,5.6,16.889,8.235,25.257C736.93,689.737,737.064,692.158,739.993,692.644z"/>
	<path fill-rule="evenodd" fill="#BE654F" d="M610.751,852.385c6.602-2.415,12.239-6.492,17.956-10.42
		c-3.068,8.925-5.072,18.265-9.722,26.641c-3.22-1.122-3.054-3.493-3.736-5.454c-1.142-3.274-0.492-7.518-4.721-9.217
		C610.603,853.418,610.677,852.901,610.751,852.385z"/>
	<path fill-rule="evenodd" fill="#1C3769" d="M413.635,516.714c2.214-2.024,5.597-0.569,8.146-3.418c9.78,0,19.907,0.311,30-0.139
		c4.647-0.207,9.313-0.447,13.954-0.48c17.961-0.128,35.924-0.031,53.886,0.049c1.751,0.008,3.711-0.561,5.188,1.019
		c-10.635-0.005-21.265,0.018-31.894-0.021c-25.813-0.093-51.59,0.662-77.305,3.046C414.96,516.83,414.294,516.735,413.635,516.714z
		"/>
	<path fill-rule="evenodd" fill="#364752" d="M323.123,372.653c-10.364,3.276-21.062,5.066-31.704,7.101
		c-5.5,1.051-10.997,2.125-16.461,3.343c-1.963,0.438-3.871,0.887-5.883,0.581C286.84,378.77,304.79,374.772,323.123,372.653z"/>
	<path fill-rule="evenodd" fill="#364752" d="M268.194,383.887c-5.746,3.67-12.312,4.201-18.83,4.905
		C255.357,386.065,261.783,385.002,268.194,383.887z"/>
	<path fill-rule="evenodd" fill="#364752" d="M226.121,395.559c-6.432,2.755-12.714,6.004-19.958,6.098
		C212.598,398.909,219.248,396.87,226.121,395.559z"/>
	<path fill-rule="evenodd" fill="#1C3769" d="M395.581,518.76c5.563-1.911,11.268-2.536,17.106-1.894
		C407.01,517.766,401.412,519.312,395.581,518.76z"/>
	<path fill-rule="evenodd" fill="#364752" d="M139.105,426.646c-3.455,3.157-7.423,5.052-12.2,4.956
		C130.699,429.277,134.989,428.177,139.105,426.646z"/>
	<path fill-rule="evenodd" fill="#364752" d="M184.128,409.676c-3.369,2.156-6.906,3.84-11.01,3.943
		C176.461,411.391,180.136,410.09,184.128,409.676z"/>
	<path fill-rule="evenodd" fill="#364752" d="M116.178,435.806c-1.717,3.156-4.381,4.398-7.9,3.908
		C110.312,437.198,113.738,437.501,116.178,435.806z"/>
	<path fill-rule="evenodd" fill="#5B606B" d="M1116.231,764.835c2.138-2.839,4.285-5.667,7.734-7.069
		C1121.877,760.657,1119.593,763.336,1116.231,764.835z"/>
	<path fill-rule="evenodd" fill="#364752" d="M194.144,405.96c-2.977,2.181-6.233,3.604-9.981,3.703
		C187.236,407.745,190.386,406.035,194.144,405.96z"/>
	<path fill-rule="evenodd" fill="#364752" d="M249.174,388.921c-2.705,2.075-5.738,3.01-9.148,2.638
		C242.768,389.615,246.016,389.425,249.174,388.921z"/>
	<path fill-rule="evenodd" fill="#364752" d="M146.129,423.646c-1.616,2.67-4.281,2.891-6.995,2.995
		C141.22,425.066,143.591,424.16,146.129,423.646z"/>
	<path fill-rule="evenodd" fill="#364752" d="M240.105,391.503c-2.325,1.985-5.104,2.261-7.991,2.123
		C234.585,392.189,237.184,391.237,240.105,391.503z"/>
	<path fill-rule="evenodd" fill="#364752" d="M126.17,431.844c-1.482,2.313-3.911,2.463-6.281,2.75
		C121.478,432.522,123.919,432.399,126.17,431.844z"/>
	<path fill-rule="evenodd" fill="#364752" d="M167.139,415.652c-1.021,2.252-2.981,2.177-4.979,2.009
		C163.489,416.172,165.25,415.752,167.139,415.652z"/>
	<path fill-rule="evenodd" fill="#364752" d="M162.127,417.678c-1.504,2.018-3.652,2.192-5.905,2.068
		C157.835,418.042,160.042,418.033,162.127,417.678z"/>
	<path fill-rule="evenodd" fill="#364752" d="M206.123,401.675c-1.334,1.842-3.222,2.141-5.302,1.901
		C202.15,401.72,204.26,402.041,206.123,401.675z"/>
	<path fill-rule="evenodd" fill="#364752" d="M152.088,421.504c-1.429,2.271-3.637,2.382-5.968,2.154
		C147.871,422.281,149.929,421.752,152.088,421.504z"/>
	<path fill-rule="evenodd" fill="#364752" d="M173.114,413.631c-1.655,1.682-3.741,2.098-5.988,2.04
		C168.89,414.309,170.902,413.678,173.114,413.631z"/>
	<path fill-rule="evenodd" fill="#495459" d="M1219.206,1088.696c1.027-1.862,2.342-3.275,4.72-3.039
		C1222.583,1087.029,1221.247,1088.41,1219.206,1088.696z"/>
	<path fill-rule="evenodd" fill="#364752" d="M232.112,393.616c-1.527,2.156-3.704,2.324-6.05,1.973
		C227.898,394.377,230.028,394.067,232.112,393.616z"/>
	<path fill-rule="evenodd" fill="#364752" d="M104.387,476.82c1.972,1.222,1.905,3.132,1.717,5.082
		C105.531,480.208,104.959,478.515,104.387,476.82z"/>
	<path fill-rule="evenodd" fill="#364752" d="M96.389,455.839c1.932,1.13,1.883,2.982,1.776,4.856
		C96.947,459.305,96.706,457.558,96.389,455.839z"/>
	<path fill-rule="evenodd" fill="#364752" d="M98.219,460.84c1.588,1.354,2.091,3.104,1.864,5.118
		C99.014,464.415,98.277,462.751,98.219,460.84z"/>
	<path fill-rule="evenodd" fill="#5D9CC7" d="M1209.878,610.828c-1.176,0.905-2.352,1.811-3.525,2.712
		C1206.542,611.352,1207.999,610.815,1209.878,610.828z"/>
	<path fill-rule="evenodd" fill="#364752" d="M156.179,419.783c-1.059,1.365-2.482,1.876-4.166,1.775
		C153.03,420.098,154.64,420.023,156.179,419.783z"/>
	<path fill-rule="evenodd" fill="#364752" d="M108.122,439.806c-0.82,1.759-2.299,2.07-4.026,1.831
		C105.233,440.573,106.637,440.101,108.122,439.806z"/>
	<path fill-rule="evenodd" fill="#364752" d="M100.155,443.872c-0.889,1.672-2.322,2.089-4.074,1.771
		C97.439,445.053,98.798,444.463,100.155,443.872z"/>
	<path fill-rule="evenodd" fill="#495459" d="M1232.202,1079.74c0.267-1.688,1.453-2.05,2.91-2.02
		C1234.729,1079.24,1233.764,1079.918,1232.202,1079.74z"/>
	<path fill-rule="evenodd" fill="#364752" d="M94.983,450.938c1.755,1.182,1.163,2.99,1.232,4.62
		C95.108,454.204,95.387,452.48,94.983,450.938z"/>
	<path fill-rule="evenodd" fill="#0F0F0F" d="M1655.197,588.822c-6.479-1.019-12.291,1.917-18.311,3.333
		c-7.26,1.708-14.534,3.078-21.88,4.339c-6.118,1.051-12.403,1.498-18.393,3.661c-6.563,2.371-13.697,2.17-20.545,3.346
		c-7.656,1.314-15.17,3.442-22.88,4.273c-6.837,0.736-13.761,0.611-20.622,1.167c-5.781,0.468-11.658,0.854-17.238,2.276
		c-3.168,0.808-5.963,1.265-9.174,0.702c-6.516-1.141-12.69,1.711-19.016,2.526c-8.139,1.05-16.328,1.172-24.416,2.312
		c-8.736,1.231-17.521,0.555-26.25,1.225c-2.328,0.178-4.161-1.046-6.594-1.061c-3.798,1.668-7.901,2.147-12.33,1.27
		c-4.618-0.916-9.057,1.55-13.723,1.429c-8.235-0.214-16.474-0.309-24.711-0.357c-2.135-0.013-4.285,0.594-6.403,0.47
		c-11.351-0.664-22.576,0.483-33.839,1.688c-4.654,0.498-9.446-1.944-14.374,0.167c-3.216-2.095-6.696-1.756-10.435-1.1
		c-6.972,1.224-14.035,0.949-21.107,0.558c-4.417-0.245-8.912,0.485-13.319,0.517c-13.306,0.096-26.613,0.561-39.942-0.24
		c-6.748-0.405-13.337-2.611-20.199-1.631c-1.99,0.284-3.973-0.271-5.587-2.21c0.962-2.52,2.822-4.401,5.276-5.393
		c9.533-3.848,19.087-7.626,28.566-11.621c10.606-4.469,21.91-7.261,32.833-11.01c11.897-4.084,23.606-8.74,35.581-12.575
		c11.814-3.783,23.208-8.682,34.989-12.587c9.187-3.044,18.352-6.569,27.43-10.106c9.73-3.791,19.81-7.027,29.474-10.959
		c11.986-4.876,24.357-8.643,36.273-13.65c18.35-7.712,37.013-14.711,55.278-22.558c14.599-6.271,29.361-12.142,43.944-18.438
		c12.258-5.292,24.527-10.594,36.804-15.799c10.12-4.291,20.495-8.198,30.739-12.311c6.616-2.655,12.909-6.107,19.426-9.026
		c17.863-8,35.834-15.766,53.635-23.901c12.221-5.585,24.186-11.719,35.918-18.288c8.054-4.509,16.279-8.722,24.221-13.415
		c12.57-7.429,25.021-15.063,37.42-22.774c8.039-4.999,16.283-9.789,23.74-15.57c10.415-8.074,21.615-14.998,31.51-23.949
		c8.139-7.362,16.578-14.569,24.962-21.75c4.233-3.625,7.595-8.271,11.837-11.883c4.263-3.63,7.654-8.043,11.373-12.084
		c7.331-7.967,15.035-15.818,19.895-25.721c0.819-1.67,1.663-3.167,2.857-4.573c7.193-8.467,11.053-19.068,17.727-27.889
		c0.693-0.917,0.443-2.547,0.632-3.846c2.401-4.832,3.925-10.108,6.956-14.558c17.893-1.158,35.441-0.909,53.885-0.55
		c-2.084,80.083-4.146,159.376-6.214,238.85c-9.941,8.587-21.454,14.973-32.534,21.91c-6.721,4.207-13.355,8.588-20.311,12.479
		c-19.248,10.77-38.408,21.719-58.18,31.481c-24.696,12.194-50.172,22.62-75.75,32.87c-25.966,10.404-52.658,18.426-79.465,25.966
		c-17.695,4.978-35.404,10.31-53.645,13.269C1659.042,587.838,1657.129,588.383,1655.197,588.822z"/>
	<path fill-rule="evenodd" fill="#B54029" d="M1390.779,723.696c0.668-1.886,1.358-3.768,1.07-5.828
		c-0.003-9.3-0.003-18.601-0.003-27.901c2.306-2.299,4.583-2.027,6.732-2.026c32.32,0.009,64.643-0.084,96.962,0.095
		c17.069,0.094,34.149-0.001,51.206,0.279c49.72,0.816,99.438,0.309,149.155,0.547c25.772,0.123,51.545-0.056,77.317,0.041
		c26.577,0.1,53.154,0.413,79.731,0.548c25.616,0.13,51.231,0.146,76.849,0.228c1.646,0.005,3.343-0.271,5.375,0.823
		c0,14.933,0,30.109,0,44.94c-2.773,2.053-5.238,1.589-7.72,1.649c-9.12,0.224-18.271-1.54-27.36,0.396
		c-2.715-0.089-4.186-1.981-5.149-4.072c-1.468-3.184-4.243-5.434-5.399-8.897c-3.907,0.984-4.214,4.24-5.338,6.804
		c-1.194,2.727-1.967,5.85-6.078,4.928c-14.215,0.407-28.415,0.502-42.643-0.077c-12.738-0.519-25.516-0.104-38.275-0.103
		c-3.652-0.868-2.779-3.93-3.124-6.415c-0.505-3.629,1.132-7.589-1.581-11.146c-3.809,1.48-3.924,4.56-4.191,7.731
		c-0.266,3.16,1.186,6.765-2.063,9.277c-4.065,0.213-8.131,0.426-12.197,0.639c-3.473-1.248-3.886-4.155-3.958-7.264
		c-0.151-6.457,0.156-12.921-0.165-19.37c-0.225-4.493-1.428-5.283-5.945-4.482c-1.841,1.64-1.544,3.896-1.58,6.008
		c-0.111,6.291,0.052,12.585-0.099,18.876c-0.051,2.126,0.103,4.405-2.292,5.604c-6.645,0.25-13.289,0.5-19.934,0.749
		c-2.994,0.846-4.292-1.224-5.264-3.344c-4.122-8.988-9.045-17.578-13.119-26.587c-0.213-0.471-0.623-0.758-1.102-0.939
		c-0.709-0.204-1.475-0.056-1.761,0.542c-3.28,6.848-7.956,12.905-10.919,19.967c-1.713,4.081-3.193,8.819-8.436,10.178
		c-5.069-0.408-10.177-1.427-15.201-1.11c-14.303,0.901-28.596-0.019-42.859,0.294c-11.262,0.248-22.534,0.025-33.744-0.177
		c-15.628-0.282-31.26-0.125-46.885-0.488c-40.898-0.952-81.801-1.015-122.705-0.568c-2.158,0.023-5.969-1.479-5.322,3.392
		c-7.969-2.882-16.17-3.064-24.479-2.23c-5.444,0.547-10.918,1.21-15.879-0.849C1388.638,731.012,1392.069,727.05,1390.779,723.696z
		"/>
	<path fill-rule="evenodd" fill="#5D9CC7" d="M1237.262,624.229c8.872,1.274,17.79,0.468,26.687,0.594
		c3.912,2.101,1.259,6.644,3.874,9.827c1.002,1.132,2.896,0.988,4.709,0.94c7.435-0.194,14.841,0.412,22.308,0.237
		c26.136-0.61,52.293-0.251,78.441-0.233c5.516,0.004,10.626,2.358,16.255,2.067c18.264-0.943,36.559,0.557,54.82-0.179
		c12.782-0.515,25.56,0.928,38.358-0.647c6.211-0.765,12.553,1.129,18.902,0.755c13.455-0.793,26.916,0.39,40.375-0.032
		c2.29-0.072,4.699,0.346,7.193-1.655c1.668-4.893,0.43-10.423,0.852-15.816c0.267-3.401-0.969-7.044,1.503-10.122
		c8.868-1.325,17.737-2.651,26.604-3.975c0.597,18.19,0.921,36.376-0.16,54.722c-6.017,1.665-11.578,3.137-17.45,2.037
		c-9.578-1.794-19.258-0.86-28.874-0.906c-43.48-0.211-86.963,0.008-130.443-0.167c-14.93-0.061-29.848,0.147-44.79-1.557
		c-10.465-1.193-21.175-0.237-31.775-0.249c-26.469-0.029-52.937-0.059-79.405-0.108c-1.98-0.004-4.005,0.326-5.98-0.512
		c-1.707-1.777-1.004-4.054-1.113-6.146C1237.646,643.485,1239.178,633.805,1237.262,624.229z"/>
	<path fill-rule="evenodd" fill="#345B9D" d="M1699.483,736.093c5.523-10.031,11.104-20.033,16.521-30.122
		c0.991-1.846,1.921-3.434,4.074-3.96c2.037,0.377,3.134,1.754,3.863,3.505c3.299,7.914,7.406,15.419,11.369,23.008
		c1.426,2.73,1.664,6.077,4.773,7.751c0.712,5.763,4.395,10.27,6.578,15.408c1.038,2.44,1.633,4.666,0.481,7.146
		c-8.509,18.328-17.011,36.658-25.53,54.98c-0.271,0.585-0.693,1.1-1.746,2.735c-9.939-20.633-19.543-40.567-29.172-60.554
		C1692.736,748.973,1697.641,743.203,1699.483,736.093z"/>
	<path fill-rule="evenodd" fill="#5897C1" d="M1584.341,468.052c-9.287,4.911-19.172,8.338-29.083,11.697
		c-2.236-3.717-0.853-7.81-1.173-11.721c-0.385-4.708-1.567-6.412-6.031-5.952c-14.932,1.54-29.865,0.318-44.793,0.412
		c-2.378,0.015-4.618,0.266-6.759,1.374c-1.36,0.704-2.815,1.124-4.15-0.156c3.073-4.313,7.958-6.559,11.671-10.234
		c4.594-4.546,8.273-9.33,10.078-15.52c20.916-0.03,41.833-0.049,62.749-0.108c2.333-0.007,4.178,0.848,5.899,2.746
		c1.168,6.173,0.534,12.527-0.125,18.925C1582.326,462.409,1580.698,465.842,1584.341,468.052z"/>
	<path fill-rule="evenodd" fill="#3A5797" d="M1878.13,736.248c4.408-2.202,4.16-7.153,6.25-10.722
		c1.711-2.922,3.519-4.757,7.004-3.159c2.145,5.585,5.365,10.386,8.712,15.116c2.915,8.802,7.863,16.675,11.474,25.158
		c0.129,0.305,0.307,0.592,0.483,0.874c3.894,6.229,4.505,11.651-0.106,18.619c-8.007,12.098-14.43,25.244-21.961,38.75
		c-9.423-17.771-18.55-34.982-27.876-52.571c4.685-8.616,9.437-17.33,14.157-26.062
		C1877.276,740.385,1878.757,738.635,1878.13,736.248z"/>
	<path fill-rule="evenodd" fill="#365697" d="M1760.017,735.527c0-10.431,0-20.861,0-30.316c2.734-4.38,6.041-3.418,8.756-3.497
		c2.914,1.51,3.515,3.741,3.496,6.417c-0.039,5.802,0.135,11.604,0.07,17.405c-0.04,3.661,0.024,7.258,1.717,10.618
		c-1.311,1.762-0.965,3.825-1.001,5.793c-0.344,18.636-0.652,37.272-0.981,55.908c-0.023,1.309-0.127,2.615-0.2,4.067
		c-3.715,1.316-7.313,0.255-11.706,0.713c0-6.041-0.024-11.623,0.005-17.204c0.077-14.648,0.195-29.297,0.249-43.945
		C1760.428,739.5,1760.159,737.514,1760.017,735.527z"/>
	<path fill-rule="evenodd" fill="#3B5793" d="M1786.253,735.517c0.627-6.349-1.369-13.038,2.65-19.158
		c2.003-1.131,4.201-0.825,6.557-0.059c2.074,6.569-0.59,13.412,1.754,19.768c-1.675,5.719-0.608,11.563-0.723,17.342
		c-0.179,9.091-0.047,18.187-0.047,26.899c-3.719,1.894-6.449,0.577-9.534,1.152c-1.021-5.459-0.311-10.397-0.231-15.305
		c0.145-8.965,0.337-17.929,0.487-26.894C1787.188,737.95,1787.325,736.577,1786.253,735.517z"/>
	<path fill-rule="evenodd" fill="#0D0D0D" d="M804.232,539.616c-1.684,0.202-2.829,0.339-4.438,0.532
		c-0.856,4.705-2.086,9.399-7.444,12.142c-5.015-4.084-9.807,2.996-15.403,1.03c-1.604-3.542,1.679-7.896-2.399-11.123
		c-1.487-0.296-3.431-0.683-5.269-1.048c-2.207,0.65-3.218,2.458-4.172,3.393c-1.259,2.02,0.056,3.452-0.321,5.319
		c-2.66,0.325-4.062,2.193-4.223,5.34c-3.32-0.933-4.729-3.17-5.155-5.777c-0.748-4.574-3.674-5.908-7.72-6.167
		c-2.416,2.108-0.944,5.673-3.345,7.885c-8.947-3.343-7.898-11.748-9.018-19.936c-3.926,4.836-7.845,3.869-12.668,3.364
		c-6.587-0.689-12.548-5.722-19.609-2.917c-0.902,0.358-2.228-0.346-3.169-0.522c-4.542-6.78-11.38-8.975-18.57-10.414
		c-9.239-1.851-18.307-4.283-26.96-8.022c-1.737-0.751-3.05-2.486-4.804-3.976c-2.787,1.747-5.609,4.202-9.815,3.751
		c-1.594-4.243-6.437-3.625-9.117-6.2c-2.042,0.874-0.999,3.54-3.102,4.03c-3.505,0.859-3.421-3.681-6.095-4.171
		c-3.626-0.922-8.519,3.562-10.731-2.692c-2.15,0.438-1.543,3.223-5.077,3.374c-3.146-0.819-5.597-4.718-8.225-7.584
		c-2.815-0.974-3.962,1.432-5.322,1.79c-4.052-0.058-3.32-3.654-4.877-5.372c-2.702-0.362-3.771,1.696-5.229,3.233
		c-1.498,1.579-3.278,2.818-5.691,3.649c-27.947-2.962-56.199-6.358-84.018-1.17c-2.47-0.426-3.629-1.938-4.979-3.348
		c-2.897,1.521-5.217-0.158-7.788-1.195c-10.873,8.122-23.631,1.367-35.714,4.479c-0.783-0.038-1.488-1.042-2.341-1.812
		c-4.213-3.803-6.126-3.81-9.911,0.616c-2.104,2.46-4.217,4.245-8.528,3.268c-1.089-0.309-1.786-2.865-4.787-2.868
		c-3.826,6.102-10.935,4.159-16.871,5.01c-7.841,1.123-15.865,0.886-23.637,3.021c-2.001,0.55-4.483,0.575-6.415-0.101
		c-4.357-1.525-8.145-0.194-11.217,2.313c-5.818,4.748-12.911,4.858-19.608,5.845c-6.477,0.954-6.572,0.304-10.952,4.822
		c-2.643,0.412-5.413,0.844-8.958,1.396c-0.713-1.142-1.597-2.558-2.227-3.567c-4.256,0.237-3.627,3.617-5.224,5.968
		c-4.666,2.607-10.199,1.601-15.542,1.874c-7.285,4.41-15.659,5.499-23.659,7.852c-9.511,2.798-19.562,3.528-28.606,8.358
		c-4.212,2.249-9.552,2.397-14.39,3.457c-0.805,0.177-1.915-0.174-2.445,0.258c-6.496,5.291-14.869,5.929-22.256,8.984
		c-6.616,2.737-13.27,5.568-20.407,6.884c-2.774,0.512-5.49,1.319-7.608,2.613c-7.277-0.898-13.962,3.406-20.729,0.835
		c-4.969-2.694-5.37-9.297-11.14-11.825c0.212-6.345-3.795-11.58-5.396-17.688c-1.035-3.951-4.297-7.342-6.66-10.917
		c-1.686-2.551-3.294-5.232-2.964-8.311c0.679-6.328-0.77-12.083-3.475-17.737c-1.084-2.264-1.871-4.477-3.997-6.127
		c-4.203-3.265-3.363-8.484-4.216-12.905c-0.624-3.235-1.394-6.084-4.068-8.407c1.514-4.154-0.311-8.178-0.343-12.3
		c-0.06-7.786,2.236-10.705,9.894-12.245c0.972-0.195,1.978-0.22,3.092-0.336c4.795-7.936,12.791-8.116,20.644-8.221
		c3.506-6.768,3.506-6.768,10.336-6.007c3.792-2.525,7.663-5.407,11.821-7.787c4.2-2.404,9.603-1.313,13.61-4.494
		c1.87,0.577,3.587,1.107,5.869,1.812c6.432-6.646,15.663-8.529,23.824-12.64c8.21,1.422,14.413-4.894,22.03-6.005
		c1.936-0.298,2.33,2.223,5.04,2.336c3.288-4.538,9.886-3.977,14.301-7.264c1.974-0.74,3.021,0.916,5.069,1.109
		c7.916-5.892,17.552-7.99,27.702-8.541c1.613-0.822,3.226-1.644,5.117-2.607c1.211,0.127,2.68,0.28,4.386,0.46
		c1.393-0.868,2.924-1.822,4.564-2.844c1.604,0.272,3.229,0.548,5.117,0.869c7.301-4.353,15.789-4.815,24.108-5.97
		c14.876-2.063,29.772-3.959,44.765-4.954c1.945-0.129,3.359-1.394,5.361-1.873c3.063,0.476,6.336,0.984,9.502,1.477
		c6.467-2.547,6.467-2.547,14.495,0.148c2.718-1.374,2.718-1.374,4.911-4.441c8.492-1.365,17.391,4.731,25.994-0.686
		c3.667,3.516,7.416,4.765,12.089,2.909c2.227-0.885,4.573,2.027,6.816,0.984c1.938-1.297,0.399-3.14,1.357-4.371
		c0.247-0.223,0.496-0.643,0.733-0.637c6.54,0.182,13.396-1.45,19.521,0.985c4.407,1.752,8.937,2.266,13.327,3.607
		c4.337,1.325,7.19,0.443,7.727-4.726c4.962-0.603,9.697-0.608,13.567-0.025c2.73,1.66,2.577,4.643,5.329,5.213
		c1.569,0.104,2.789-1.272,4.529-2.002c1.887,1.7,4.124,2.525,6.253,1.707c2.686,0.677,2.749,3.261,4.375,4.403
		c4.282,0.675,2.525-3.421,3.385-4.509c2.79-2.056,4.176,0.772,6.533,0.554c0.934-0.572,2.182-1.337,2.167-1.328
		c11.445,0.643,20.484,6.349,30.829,6.647c2.255-0.571,3.217-4.053,6.756-2.263c0.729,0.83,1.921,2.187,2.711,3.085
		c6.928,3.095,13.574,3.21,20.367,2.16c4.692-0.726,9.135,0.563,12.676,3.473c5.027,4.133,11.276,5.873,17.029,6.412
		c6.688,0.626,12.805,2.781,19.23,3.932c2.533,0.454,4.7,1.609,7.609,2.648c9.12-5.379,14.613,5.422,23.113,5.978
		c0.652,0.843,1.445,1.866,2.229,2.879c1.535,0.556,2.813-1.25,4.485-0.335c1.506,0.738,1.501,2.638,2.351,4.375
		c1.051-1.314,1.838-2.299,2.598-3.249c4.313-0.207,6.295,1.88,6.779,5.803c0.607,4.918,2.088,9.331,7.323,11.797
		c2.597-3.914-5.484-5.8-1.402-9.626c2.409-1.853,5.134-1.016,7.938-0.712c0.751,1.773,1.385,3.271,2.032,4.798
		c5.274,2.499,10.693,3.319,16.473,3.032c6.899-0.342,12.615,2.386,16.692,8.151c2.503,0.466,5.604-1.645,6.962,1.368
		c1.443,1.874-0.179,3.67,1.051,5.597c8.517,2.342,18.735,1.463,25.375,10.329c4.206-0.269,7.988,1.699,12.051,4.47
		c0.248,0.958,0.653,2.522,1.067,4.125c2.794,0.994,5.709-1.498,8.681,0.892c1.284,1.504,0.621,5.171,4.175,5.566
		c1.938,0.153,2.386-2.284,4.451-2.43c3.283,1.437,1.712,4.269,1.958,6.286c-2.202,2.47-4.531,0.342-6.615,1.161
		c-1.872,1.926-1.183,4.237-0.895,6.551c2.655,3.53,7.731,4.045,9.999,8.619c1.554-2.099-0.181-4.334,2.045-6.523
		c4.39-2.423,5.599,3.095,8.33,5.229c2.218-2.221,2.218-2.221-1.283-9.114c2.906-2.613,4.691-0.744,5.276,1.865
		c0.549,2.453,1.648,3.862,3.661,4.203c0.727,1.962,0.87,3.389-0.24,4.796c-2.553,1.472-6.082-0.419-8.655,2.557
		c-0.751,1.724-0.613,3.745,0.435,6.356c5.203-0.906,10.156,0.799,15.312,0.694c2.025,2.062-0.729,5.824,2.962,7.698
		c3.292-2.638,2.435-8.472,7.735-10.087c2.022,1.356,4.649,0.562,7.023-0.268c2.188,2.284-0.485,3.906-0.278,5.762
		c9.134,3.593,10.382,11.865,11.506,19.891c0.549,3.917,3.337,4.547,6.125,5.821c0.76,3.862,4.38,5.684,6.42,8.905
		c-2.531,4.208-5.058,8.406-7.567,12.578c0.944,3.123,3.335,3.813,5.916,3.571c5.094-0.478,3.187-5.375,4.769-8.506
		c3.474,1.872,5.98,3.867,4.695,8.44c-1.198,0.867-2.53,1.831-3.408,2.466c-2.013,0.731-2.9-0.966-4.278-0.775
		c-2.026,0.274-2.354,2.791-4.208,3.229c-6.675-1.251-4.348-9.387-10.309-12.047c9.014-6.921,2.951-13.389-0.715-20.848
		c-2.791-1.402-4.472-5.063-5.479-10.265c-4.111,5.123,1.51,10.852-3.569,15.193c-1.009,0.461-2.809,2.105-4.897-0.021
		c-0.729-2.11,2.354-3.56,0.344-6.207c-2.244-1.295-5.678,0.665-8.154-1.186c-2.697,0.927-3.976,2.68-3.629,5.068
		c0.58,4.004,4.363,3.354,7.08,4.034c1.516,4.642,0.07,9.221,1.038,13.588c0.419,1.693,2.413,1.698,3.345,3.221
		c-0.121,1.57-0.258,3.352-0.391,5.072c-1.538,0.943-2.969,0.771-4.243,0.273c-2.115-1.262-1.61-3.751-2.58-4.858
		c-2.387-2.402-5.718-1.027-7.961-3.57c-0.292-1.697-0.651-3.788-1.029-5.984c-4.077-2.158-7.812-2.767-10.879,1.06
		c-0.597,2.744,4.012,4.002,1.323,6.933c-2.445,0.087-3.136-3.016-5.401-2.983c-1.734-0.358-2.843,0.983-4.608,1.43
		c-4.318-2.989-10.607-1.847-13.877-6.345C805.26,536.393,804.107,537.515,804.232,539.616z"/>
	<path fill-rule="evenodd" fill="#19376B" d="M1098.38,632.017c2.725,1.475,3.715,4.464,5.724,6.56
		c-1.269,0.326-2.698,0.346-3.942,3.084c0,11.117,0,23.556,0,35.993c-0.001,6.809-0.045,13.618,0.007,20.427
		c0.043,5.628,0.317,11.274-3.177,17.086c-1.695,1.837-4.531,2.665-7.896,2.627c-11.125-0.126-22.253-0.129-33.379-0.044
		c-3.021,0.022-5.534-0.761-7.563-3.007c0.054-4.706,0.107-9.412,0.162-14.118c2.623,1.279,1.721,3.725,1.789,5.753
		c0.221,6.646,0.871,7.392,7.645,7.423c10.328,0.047,20.656,0.048,30.984-0.005c6.376-0.033,7.454-1.172,7.467-7.717
		c0.041-20.656,0.125-41.313,0.013-61.97C1096.189,639.876,1096.59,635.857,1098.38,632.017z"/>
	<path fill-rule="evenodd" fill="#0D0D0D" d="M804.106,539.719c2.196,0.297,4.419-0.497,6.389,0.755
		c-0.109,6.332-2.549,8.126-8.749,6.41C800.471,543.81,804.6,542.543,804.106,539.719z"/>
	<path fill-rule="evenodd" fill="#0D0D0D" d="M771.043,435.262c-1.18,2.634-2.484,2.782-4.449,1.099
		C767.503,434.245,768.65,433.595,771.043,435.262z"/>
	<path fill-rule="evenodd" fill="#0F1110" d="M1213.427,991.39c-1.986-15.683,2.213-29.605,1.379-44.56
		c-1.918-3.08-0.848-6.92,0.265-10.761c0.368-1.27,1.241-2.64,1.019-3.798c-2.468-12.798-1.686-25.479-0.338-38.383
		c0.598-5.709-0.258-11.808,0.399-17.773c0.968-8.784,1.526-17.613,2.358-27.62c-0.525-1.806-3.068-5.086,1.459-7.354
		c1.785-0.837,2.926,1.644,4.677,0.907c1.92-2.055,0.047-2.882-1.219-3.864c-1.329-1.032-0.982-2.784-1.798-4.027
		c-0.984-1.46-3.063,0.179-4.09-1.591c-1.016-3.445,3.789-2.703,4.146-6.211c-0.976-2.193-1.962-5.383-3.692-8.1
		c-3.957-6.211-3.76-7.768,2.508-11.73c1.184-5.186,1.184-5.186-2.197-9.52c-3.186-16.135,5.049-29.391,10.043-43.25
		c-1.503-1.38-2.59-2.377-3.602-3.307c-0.437-5.5-0.79-10.854-2.469-16.028c-2.058-6.338,6.5-8.814,5.587-13.519
		c-0.729-5.98-4.385-8.99-6.397-11.984c-0.399-3.164,1.864-4.232,2.421-5.991c0.337-4.684-4.216-8.072-3.431-12.41
		c2.393-2.639,5.203-1.196,7.866-2.208c1.327-0.584,1.876-2.784,4.293-3.291c1.984,0.74,3.521,3.731,6.388,2.435
		c1.172,1.879-0.751,3.084-0.196,5c1.16,2.446,3.901,2.849,6.501,3.19c3.764,0.494,4.494-2.678,5.674-5.36
		c6.505-1.588,12.865,0.417,19.249,0.895c2.837,0.212,3.07,4.27,5.992,5.32c3.908,0.079,4.652-2.567,4.278-6.169
		c5.947-0.654,6.747,4.732,9.605,7.461c1.334,1.293,2.906-0.294,5.628,1.085c0.017,0.021,0.98,1.146,2.457,2.873
		c6.718-1.958,12.047,0.564,14.696,7.253c5.321,1.932,10.984-1.239,15.54,2.989c-0.302,1.054-0.649,2.271-0.969,3.391
		c1.216,1.878,2.614,1.243,4.329,0.87c0-1.604,0-3.023,0-4.327c5.697-2.021,7.228-1.685,10.523,2.513
		c5.302-2.241,9.58,0.387,13.2,4.203c1.831-0.596,3.235-1.053,4.397-1.431c2.047,0.215,2.264,2.174,4.216,3.242
		c11.304,0.658,16.73,11.054,25.751,17.839c3.404,0.58,7.492,1.885,11.373,3.864c0.965,0.492,2.498,0.83,3.364,0.407
		c7.163-3.492,14.394-0.901,21.718-0.543c4.325,4.137,9.656,6.717,15.117,9.079c0.152,0.065,0.334,0.101,0.453,0.206
		c11.807,10.413,27.7,14.613,39.067,25.698c2.222,2.166,5.284,2.775,7.977,4.013c3.229,1.483,6.313,2.92,8.265,6.099
		c0.5,0.813,1.334,1.701,2.197,1.971c11.273,3.519,19.67,11.944,29.559,17.785c4.613,2.725,9.278,6.08,13.846,9.251
		c2.011,1.396,3.086,3.43,4.318,5.531c10.447,3.757,18.601,10.883,26.956,17.999c4.337,3.692,9.126,7.128,13.79,10.555
		c11.79,8.663,22.001,19.15,31.361,30.371c2.684,3.218,6.428,4.896,9.106,8.233c4.599,5.729,6.528,8.504,7.23,16.443
		c-8.446,4.271-16.649-6.975-24.315-0.864c-5.22,0.897-5.676-4.331-7.563-5.031c-3.272-0.663-4.391,1.148-6.058,1.016
		c-13.998,0.857-28.027,2.051-41.271-3.457c-8.332,3.187-16.775,1.013-25.067,1.506c-8.629,0.514-17.158-1.34-25.76-0.502
		c-3.28,0.319-6.628,1.096-9.843,0.741c-10.098-1.114-19.328,2.06-28.674,4.974c-3.094,0.965-5.582,2.583-8.047,4.717
		c-5.425,4.695-10.899,9.456-17.938,11.762c-0.608,0.199-1.239,0.591-1.66,1.068c-6.684,7.608-15.859,11.573-24.237,16.715
		c-1.535,0.941-2.763,2.38-4.141,3.578c-1.253,1.089-2.447,2.99-3.791,3.106c-7.648,0.662-10.017,8.055-15.356,11.479
		c-5.205,3.338-10.519,6.758-17.49,8.676c-4.037,6.7-11.688,10.23-18.542,14.9c-6.764,4.608-13.727,9.037-19.731,14.723
		c-3.039,2.877-6.589,5.138-10.616,6.323c-2.947,0.867-4.083,3.69-6.553,5.171c-5.713,3.424-12.027,5.961-16.25,11.756
		c-3.265,4.479-8.535,6.139-14.49,6.564c-1.983,7.301-11.934,7.06-13.663,14.528c-3.476,2.444-7.241,1.995-10.444,2.13
		c-2.212,1.004-0.533,3.129-1.777,4.022c-2.146,1.999-4.553,2.136-7.367,1.154c-1.125,5.725-8.637,5.251-9.343,11.178
		c-4.205,0.073-7.001,2.374-9.506,4.953c-3.091-0.71-3.034-4.736-6.584-5.108c-2.403,1.101-5.224,2.392-8.427,3.859
		c-4.91-5.909-3.316-13.033-4.588-19.591c4.448-3.994,2.729-8.059-0.032-12.029c0.554-1.707,1.061-3.271,1.526-4.71
		c-0.479-3.619-1.556-6.71-3.527-9.788c-2.605-4.065-0.438-8.866,0.284-13.071C1215.468,997.391,1215.348,993.87,1213.427,991.39z"
		/>
	<path fill-rule="evenodd" fill="#0F1110" d="M1642.643,908.254c-1.782,0.015-2.681-0.928-2.975-2.609
		c0.752-1.809,2.067-2.218,3.46-1.015C1644.542,905.852,1644.23,907.217,1642.643,908.254z"/>
	<path fill-rule="evenodd" fill="#0F1110" d="M1225.657,723.01c-0.816,0.608-1.465,0.627-1.82-0.025
		c-0.375-0.688,0.027-1.298,0.759-1.39C1225.338,721.501,1225.673,722.037,1225.657,723.01z"/>
	<path fill-rule="evenodd" fill="#0F1110" d="M1230.78,1062.805c-0.678,0.786-1.304,0.889-1.793,0.339
		c-0.51-0.574-0.268-1.233,0.404-1.493C1230.128,1061.366,1230.558,1061.837,1230.78,1062.805z"/>
	<path fill-rule="evenodd" fill="#C0BFC0" d="M1232.24,481.832c-28.831-2.32-56.349-9.53-81.911-23.152
		c-8.302-4.424-15.754-10.453-22.432-17.235c-0.807-0.818-1.453-1.836-1.393-3.445c6.197-7.675,14.43-13.184,22.928-18.43
		c15.008-9.266,31.811-13.502,48.586-18.017c16.113-4.336,32.536-6.792,49.033-8.66c26.857-3.039,53.805-2.959,80.769-1.26
		c29.143,1.837,57.889,6.287,86.153,13.498c20.586,5.252,39.844,13.679,56.791,26.8c1.551,1.2,2.881,2.686,4.314,4.038
		c1.083,2.844-1.223,2.908-2.852,3.31c-3.927,0.969-7.954,0.682-11.946,0.683c-68.161,0.016-136.323,0.011-204.484,0.015
		c-15.323,0-15.376,0.069-15.388,15.226c-0.005,6.833,0.084,13.667-0.063,20.498c-0.047,2.135,0.146,4.396-1.967,6.119
		C1236.458,482.474,1234.359,482.544,1232.24,481.832z"/>
	<path fill-rule="evenodd" fill="#BEBDBD" d="M1492.352,463.706c7.2-6.025,15.914-3.456,23.796-3.315
		c9.791,0.175,19.533,0.098,29.3-0.346c3.589-0.163,7.417-1.05,10.513,2.924c0.013,5.292,0.983,11.063-0.703,16.78
		c-7.871,5.446-17.109,7.779-25.885,11.076c-11.655,4.38-22.906,9.68-34.431,14.338c-27.643,11.171-55.132,22.697-83.123,33.039
		c-18.161,6.711-36.251,13.703-54.39,20.498c-25.946,9.721-52.232,18.535-78.386,27.701c-3.603,1.262-7.274,2.321-10.917,3.476
		c-1.119-0.206-2.364,0.063-4.003-1.58c0-23.643,0-47.996,0-72.113c4.62-2.546,8.946-0.526,12.928-1.583
		c33.478,1.711,66.802,0.734,100.015-4.454c15.809-2.469,31.472-5.293,46.611-10.444c17.113-5.824,34.213-11.847,49.549-21.678
		C1479.916,473.735,1486.456,469.12,1492.352,463.706z"/>
	<path fill-rule="evenodd" fill="#66A0C7" d="M1232.24,481.832c1.642-0.151,3.283-0.304,5.749-0.531c0-13.604,0-27.136,0-40.365
		c4.558-2.251,8.438-3.159,12.723-3.155c61.275,0.069,122.55,0.189,183.822-0.112c12.752-0.063,25.545,1.083,38.291-0.505
		c1.064-0.133,1.941,0.066,2.253-1.195c3.485,1.821,1.555,3.64-0.024,5.419c-5.758,6.488-12.537,11.804-19.9,16.261
		c-5.777,3.496-11.968,6.308-17.967,9.438c-1.539,0.804-3.178,0.801-4.838,0.722c-0.709-1.055,0.592-2.271-0.217-3.281
		c-54.847-1.977-109.559,1.732-164.433,1.664c-1.937,5.376-1.587,10.022-0.651,14.136c1.523,1.826,3.006,2.145,4.519,2.141
		c16.116-0.041,32.151,1.796,48.368,0.507c14.734-1.172,29.49-2.259,44.23-3.469c5.131-0.421,10.084-2.294,15.325-1.862
		c2.139,0.176,4.426-0.098,5.696,2.248c-5.533,2.967-11.748,2.071-17.601,2.671c-14.368,1.473-28.777,2.676-43.202,3.68
		c-18.969,1.321-37.791,0.008-56.658-0.559c-10.936-0.328-21.836-1.84-32.746-2.88
		C1234.044,482.713,1233.152,482.166,1232.24,481.832z"/>
	<path fill-rule="evenodd" fill="#BDBDBF" d="M1385.187,479.89c-11.362-0.396-22.451,2.206-33.698,3.076
		c-22.042,1.703-44.063,3.918-66.225,2.014c-4.47-0.385-8.989-0.186-13.486-0.251c-2.347-0.034-4.669-0.177-7.342-1.851
		c-0.562-5.824-0.49-12.032-0.009-17.965c2.193-1.678,4.267-1.176,6.206-1.185c18.483-0.086,37.012,0.664,55.438-0.382
		c18.287-1.037,36.555-1.843,54.836-1.377c17.072,0.436,34.123-0.245,51.184-0.138c3.637,0.023,3.637,0.03,6.146,2.041
		c-0.843,2.988-4.274,2.104-5.89,3.935C1417.183,474,1401.283,477.328,1385.187,479.89z"/>
	<path fill-rule="evenodd" fill="#2E4869" d="M573.89,769.842c0.073,7.083,0.125,14.165,0.232,21.247
		c0.032,2.123-0.276,4.304,0.737,6.319c0.325,0.003,0.65,0.006,0.977,0.009c0.141,0.293,0.282,0.586,0.424,0.88
		c0,19.569,0,39.14,0,57.803c-1.22,2.369-2.462,3.057-5.233,3.381c-8.186-14.669-15.38-30.186-20.493-46.673
		c-4.488-2.009-7.473-7.974-6.526-13.043c-0.132-0.976-0.265-1.952-0.397-2.928c3.089-1.596,4.842,0.619,6.083,2.64
		c3.018,4.911,5.998,9.709,6.961,15.784c1.028,6.488,4.31,12.516,7.327,18.367c1.7,3.299,3.29,6.738,5.295,10.158
		c1.283-1.905,0.812-3.77,0.758-5.494c-0.648-20.783,1.223-41.521,1.106-62.294C571.127,773.664,570.548,770.8,573.89,769.842z"/>
	<path fill-rule="evenodd" fill="#C9BFB6" d="M576.26,798.297c-0.465-0.294-0.93-0.587-1.397-0.885
		c-0.003-14.978-0.003-29.951-0.003-44.925c0.786-0.141,1.572-0.282,2.358-0.423c6.914,10.891,9.43,23.602,13.502,35.668
		c-0.484,1.302-0.968,2.604-1.45,3.904C583.842,791.723,580.642,796.164,576.26,798.297z"/>
	<path fill-rule="evenodd" fill="#C1BEC1" d="M544.007,799.765c2.74,4.064,3.456,9.141,6.525,13.041
		c-0.287,1.295-0.44,2.737-1.646,3.507c-6.623,4.231-12.863,9.139-20.438,11.709c-0.396-1.352-0.313-2.772,0.449-3.861
		c5.369-7.678,8.027-16.69,12.054-24.639C542.347,798.485,543.108,799.521,544.007,799.765z"/>
	<path fill-rule="evenodd" fill="#734B2F" d="M937.771,720.014c-1.573,4.094-1.553,8.36-1.552,12.665
		c0.01,31.819-0.023,63.639-0.108,95.459c-0.013,4.774,0.242,9.498-1.485,14.256c-1.141,3.141-0.774,6.918,1.114,10.255
		c-1.856,2.496-1.431,5.378-1.445,8.184c-0.032,6.164-0.021,12.328-0.05,18.492c-0.042,8.791-0.051,8.791-8.104,11.353
		c-0.672-0.356-1.344-0.711-2.016-1.066c1.846-5.95,1.638-12.191,1.85-18.242c0.526-15.091,0.147-30.213,0.212-45.321
		c0.086-20.396-0.774-40.873,0.822-61.153c0.752-9.545-1.637-18.577-0.974-27.951c0.401-5.67,1.752-10.973,2.73-16.572
		C931.866,719.501,934.811,719.636,937.771,720.014z"/>
	<path fill-rule="evenodd" fill="#B8B8B9" d="M1551.539,609.965c1.296,9.583,0.465,19.146,0.516,29.239
		c-96.253,2.145-191.676-2.218-286.992-1.125c-1.585-4.959-0.667-9.163-1.112-13.257c9.381-1.484,18.868-0.908,28.271-0.912
		c32.44-0.014,64.843-1.348,97.262-2.07c51.403-1.146,102.635-4.481,153.609-11.384
		C1545.88,610.078,1548.723,610.119,1551.539,609.965z"/>
	<path fill-rule="evenodd" fill="#161616" d="M720.494,871.923c-1.414-8.121-4.204-15.865-6.632-23.697
		c-3.458-11.158-7.513-22.115-9.917-33.608c-1.156-5.525-2.718-11.089-6.132-15.839c-2.398-3.338-1.548-7.695-3.548-11.222
		c-1.612-2.843-2.188-6.321-5.351-8.145c-1.166-4.842-0.349-9.273,1.415-14.011c4.929-13.235,9.314-26.678,13.675-40.117
		c1.351-4.162,3.467-7.936,5.742-11.473c4.874-7.576,7.43-16.044,10.546-24.312c0.558-1.48,1.083-2.72,2.668-3.126
		c1.628,0.927,1.129,2.404,1.209,3.646c0.601,9.276,1.847,18.58,1.526,27.828c-0.3,8.633-0.399,17.278-0.696,25.913
		c-0.3,8.724-0.375,17.483,0.063,26.196c0.289,5.715-1.043,11.222-0.975,16.902c0.215,17.984,0.017,35.973-0.007,53.959
		c-0.004,3.666,0.124,7.338-1.306,10.831c-0.827,2.021,0.019,3.894,0.467,5.839C724.437,862.675,722.421,867.302,720.494,871.923z"
		/>
	<path fill-rule="evenodd" fill="#111112" d="M573.89,769.842c-0.206,1.469-0.592,2.938-0.591,4.406
		c0.011,23.275-1.743,46.522-1.137,69.809c0.048,1.851,0.672,4.094-1.765,5.189c-2.374-0.282-2.724-2.537-3.4-3.956
		c-4.162-8.732-8.838-17.352-11.71-26.521c-1.883-6.01-3.354-12.002-6.747-17.379c-1.257-1.993-2.367-4.037-4.935-4.557
		c-3.24-3.902-4.993-8.65-7.369-13.046c-0.763-0.795-1.55-1.574-1.687-2.752c-0.967-7.59-3.59-14.812-6.927-21.483
		c-5.208-10.411-3.149-19.465,2.936-28.319c2.677-3.895,3.759-8.31,5.178-12.685c2.071-6.388,5.505-12.209,8.315-18.292
		c-0.302-4.051,4.115-5.955,4.427-9.731c6.147-2.502,8.944-8.214,11.49-13.482c3.726-7.71,7.749-15.094,13.057-22.067
		c2.855,1.787,2.037,4.319,2.074,6.434c0.509,28.729-0.721,57.438-1.05,86.157c-0.011,0.993,0.068,1.987,0.105,2.979
		c-0.11,0.496-0.221,0.994-0.331,1.493c-0.139,2.218-0.305,4.437,0.103,6.646c-0.003,1.394-0.007,2.786-0.01,4.18
		c-0.343,1.61-0.288,3.224-0.037,4.838C573.884,768.416,573.887,769.129,573.89,769.842z"/>
	<path fill-rule="evenodd" fill="#2A6AB4" d="M524.234,657.618c3.041,6.621,5.394,13.679,8.665,20.015
		c4.047,7.838,3.867,16.565,7.558,24.235c2.618,2.984,0.304,5.889-0.822,8.197c-1.994,4.091-3.965,8.117-5.135,12.53
		c-0.413,1.557-1.448,2.558-3.261,2.266c-2.918-2.413-2.392-6.017-3.028-9.169c-1.866-9.243-3.063-18.65-7.016-27.459
		c-9.251,11.073-13.759,64.383-2.066,85.51c2.235-1.022,2.382-3.304,3.286-5.124c1.459-2.934,0.897-6.682,3.699-9.057
		c0.917-0.146,1.798,0.218,2.043,0.99c1.812,5.714,5.316,10.886,5.516,17.114c-0.056,1.62,0.311,3.24-0.018,5.116
		c-2.281,2.493-2.83,6.215-5.09,8.989l-0.301,0.357c-1.978,1.37-0.255,4.023-1.908,5.506l-0.187,0.357
		c-1.799,1.444-0.162,4.028-1.831,5.516c-0.058,0.174-0.151,0.326-0.28,0.457c-2.222,2.245-3.331,6.745-7.866,4.195
		c-3.148-8.543-7.588-16.245-10.199-24.736c-3.896-12.677-7.741-25.316-7.83-38.766c-0.027-4.121-0.944-8.179-1.057-12.346
		c-0.295-10.859,1.759-21.365,4.462-31.721c2.415-9.25,4.288-18.697,8.617-27.397c2.39-4.802,5.007-9.496,6.845-14.603
		C518.217,655.298,520.665,655.212,524.234,657.618z"/>
	<path fill-rule="evenodd" fill="#4F5270" d="M524.234,657.618c-1.595,0.175-3.257-1.16-5.201,0.612
		c-1.681,3.975-2.103,9.213-5.164,11.483c-21.66,47.165-18.798,92.583,4.142,137.916c2.619,1.253,2.936-4.331,6.05-3.667
		c-0.546,4.151-1.721,7.885-6.067,9.778c-18.651-31.771-25.248-65.988-21.222-101.805c2.549-22.665,17.112-56.142,23.518-60.161
		C522.906,652.77,524.704,654.374,524.234,657.618z"/>
	<path fill-rule="evenodd" fill="#294264" d="M532.545,777.795c-0.962-6.422-4.272-12.027-6.287-18.083
		c-4.966-1.928-8.909-11.434-6.436-16.595c2.065-4.308,3.796-8.815,6.489-12.813c1.903-1.383,2.936-3.473,4.253-5.334
		c0.207-0.095,0.416-0.188,0.625-0.281c2.29-5.131,4.735-10.2,6.8-15.421c0.948-2.398,2.457-4.671,2.466-7.401
		c1.202-0.539,2.401-1.079,3.599-1.615c-0.451,4.655-1.516,8.964-4.458,12.891c-1.7,2.27-2.925,5.395-3.078,8.205
		c-0.208,3.789-1.906,6.62-3.867,9.458c-7.274,10.525-7.365,21.254-1.802,32.612c2.637,5.383,4.884,11.096,5.222,17.274
		C533.389,781.561,533.468,779.067,532.545,777.795z"/>
	<path fill-rule="evenodd" fill="#4F5270" d="M532.545,777.795c1.176,0.967,2.352,1.934,3.526,2.899
		c0.055,1.03,0.109,2.062,0.165,3.094c-3.534,0.947-4.367,3.673-4.258,6.695c-1.193,0.859-2.171,1.452-3.415,1.291
		c-0.884-2.394,0.727-4.175,1.675-6.001C531.56,783.232,532.437,780.646,532.545,777.795z"/>
	<path fill-rule="evenodd" fill="#4F5270" d="M526.356,797.636c0.132-2.012-1.316-4.572,1.91-5.508
		C528.057,794.114,529.451,796.652,526.356,797.636z"/>
	<path fill-rule="evenodd" fill="#4F5270" d="M524.339,803.509c0.106-2.008-1.313-4.521,1.832-5.519
		C526.002,799.979,527.41,802.486,524.339,803.509z"/>
	<path fill-rule="evenodd" fill="#CFCAC9" d="M801.709,807.28c-2.005,0.977-3.41,1.228-4.977-0.07
		c-3.689-11.994-6.161-24.56-10.313-36.654c-1.745-5.085,1.15-9.819,2.23-14.534c2.255-9.84,5.493-19.461,8.516-29.112
		c0.596-1.9,0.808-4.448,3.636-4.957c2.544,0.613,2.854,2.685,3.427,4.865c2.263,8.604,4.578,17.201,7.172,25.71
		c2.413,7.913,2.553,15.517-0.238,23.491C807.566,786.292,804.815,796.862,801.709,807.28z"/>
	<path fill-rule="evenodd" fill="#131313" d="M638.298,679.72c2.935-0.401,4.271-2.798,5.117-5.006
		c2.662-6.942,7.08-13.091,9.009-20.352c0.607-2.287,1.962-4.145,4.763-5.837c0,2.859-0.067,5.251,0.011,7.638
		c0.894,27.289-0.168,54.576-0.067,81.864c0.008,2.114-0.497,4.367,1.086,6.231c-0.006,24.527-0.013,49.052-0.021,73.576
		c-2.438,8.082-1.608,16.435-2.032,24.682c-0.137,2.658-0.035,5.329-0.202,7.985c-0.152,2.433-1.204,4.127-4.706,3.85
		c-1.822-7.952-6.339-14.827-10.963-21.601c-3.539-5.185-7.348-10.104-9.274-16.271c-0.981-3.145,0.102-6.81-2.48-9.49
		c-3.838-3.893-5.69-8.678-6.318-14.02c0.634-2.503,0.641-5.005-0.713-7.258c-3.623-6.033-4.461-13.021-6.775-19.5
		c-0.665-1.859-1.246-3.697-2.1-5.516c-2.533-5.396-3.219-10.729-0.431-16.623c7.121-15.057,13.551-30.435,19.89-45.84
		c1.26-3.062,0.259-6.669,1.987-9.685C635.725,685.721,636.099,682.284,638.298,679.72z"/>
	<path fill-rule="evenodd" fill="#CAC8C8" d="M604.028,780.793c-0.746-0.075-1.491-0.15-2.24-0.227
		c-3.322-10.229-6.687-20.443-9.938-30.693c-1.202-3.789,0.586-7.257,1.901-10.587c7.837-19.845,15.518-39.745,22.638-59.861
		c0.908-2.565,1.605-5.434,4.663-7.543c5.351,5.65,5.322,14.19,10.6,19.676c3.291,4.982-0.595,9.091-2.255,12.971
		c-5.649,13.196-10.805,26.631-17.16,39.499c-3.009,6.093-1.982,11.438,0.511,17.017c1.678,3.752,3.257,7.52,3.789,11.641
		C614.079,778.024,609.449,780.02,604.028,780.793z"/>
	<path fill-rule="evenodd" fill="#3A5070" d="M615.26,772.621c-2.211-5.696-4.349-11.423-6.665-17.076
		c-1.077-2.628-1.099-5.087,0.011-7.673c6.834-15.93,13.559-31.907,20.522-47.78c1.226-2.792,1.555-5.728,2.521-8.532
		c0.891-0.948,0.938-2.568,2.431-3.02c1.348,9.748-2.947,18.046-6.695,26.509c-3.788,8.556-7.444,17.17-11.145,25.765
		c-0.385,0.892-0.441,2.034-1.045,2.703c-4.516,5.002-3.74,10.777-1.205,15.86c4.434,8.893,4.529,19.228,9.873,27.772
		c0.83,1.326,0.192,3.571,0.232,5.392c-1.79,0.928-3.104-0.219-3.743-1.45C617.358,785.316,613.864,779.624,615.26,772.621z"/>
	<path fill-rule="evenodd" fill="#2E4869" d="M573.927,758.685c-0.871-2.205-0.89-4.424-0.102-6.65
		C574.399,754.246,574.377,756.462,573.927,758.685z"/>
	<path fill-rule="evenodd" fill="#2E4869" d="M573.88,767.702c-0.773-1.62-0.814-3.235,0.038-4.841
		C574.396,764.48,574.377,766.094,573.88,767.702z"/>
	<path fill-rule="evenodd" fill="#0C0E0E" d="M325.865,870.577c-9.728-8.833-11.783-22.771-19.192-30.158
		c-18.367-32.688-35.594-63.348-53.309-94.875c24.173-30.856,49.285-60.746,74.336-90.93c3.142,3.876,3.349,45.886,0.744,52.767
		c1.394,2.514,1.641,5.426,1.624,8.458c-0.075,13.659,1.143,27.45-0.377,40.938c-1.365,12.121-2.16,24.242-1.085,36.169
		c0.984,10.933,2.234,21.883,1.205,32.697c-1.303,13.694-1.349,27.363-1.66,41.057C328.121,868.032,328.129,869.404,325.865,870.577
		z"/>
	<path fill-rule="evenodd" fill="#216DB5" d="M615.26,772.621c2.871,6.675,3.167,14.492,8.836,19.923
		c0.165,5.215,4.741,9.076,4.441,14.441c-3.235,6.664-3.387,14.712-8.316,20.387c-3.047-0.374-3.417-2.13-4.115-3.879
		c-2.664-6.68-5.454-13.64-6.712-20.399c-1.411-7.578-5.851-14.38-5.364-22.302C606.907,776.88,612.769,777.067,615.26,772.621z"/>
	<path fill-rule="evenodd" fill="#B2B2B3" d="M1719.626,732.897c4.827,1.212,8.215,3.715,9.885,8.373
		c0.837,2.334,1.611,4.813,3.02,6.798c4.127,5.816,3.227,11.112-0.105,17.048c-3.801,6.771-6.659,14.07-9.957,21.126
		c-0.551,1.178-0.995,2.507-2.909,3.045c-4.931-9.941-9.946-19.922-14.819-29.971c-1.188-2.448-0.197-4.92,0.979-7.154
		c2.395-4.546,5.057-8.958,7.3-13.575C1714.479,735.58,1717.468,734.813,1719.626,732.897z"/>
	<path fill-rule="evenodd" fill="#B0AFAF" d="M1889.834,798.614c-5.628-10.867-10.526-20.323-15.603-30.124
		c4.118-9.238,9.2-17.965,14.496-27.22c3.7,3.895,4.4,8.331,6.621,11.94c2.67,4.341,4.525,9.185,6.709,13.822
		c1.818,3.863,1.759,7.332-0.748,11.201C1897.39,784.286,1894.18,790.797,1889.834,798.614z"/>
	<path fill-rule="evenodd" fill="#131414" d="M861.938,502.916c2.684,2.238,2.479,4.754,1.837,7.299
		c-1.58,2.011-3.403,2.612-5.711,1.616c-2.362-1.021-2.966-2.845-2.552-5.288C856.98,504.392,859.266,503.606,861.938,502.916z"/>
	<path fill-rule="evenodd" fill="#C4C4C5" d="M528.324,730.675c-2.537,4.964-5.074,9.928-7.646,14.96
		c0.479,5.225,3.571,9.44,5.579,14.077c0.101,7.09-2.489,13.175-6.613,18.853c-13.56-12.156-12.517-83.052,1.898-95.81
		c5.756,13.678,8.67,27.561,9.646,41.936c0-0.001-0.048,0.094-0.048,0.094C530.451,726.866,529.228,728.693,528.324,730.675z"/>
	<path fill-rule="evenodd" fill="#2A6AB4" d="M528.324,730.675c-0.149-2.485,1.514-4.103,2.817-5.892
		C531.257,727.252,530.424,729.266,528.324,730.675z"/>
</g>
</svg>
