<?xml version="1.0" encoding="UTF-8" standalone="no"?>
<!-- Created with Inkscape (http://www.inkscape.org/) -->

<svg
   xmlns:dc="http://purl.org/dc/elements/1.1/"
   xmlns:cc="http://creativecommons.org/ns#"
   xmlns:rdf="http://www.w3.org/1999/02/22-rdf-syntax-ns#"
   xmlns:svg="http://www.w3.org/2000/svg"
   xmlns="http://www.w3.org/2000/svg"
   version="1.1"
   width="1300"
   height="1390"
   id="svg3979">
  <metadata
     id="metadata3985">
    <rdf:RDF>
      <cc:Work
         rdf:about="">
        <dc:format>image/svg+xml</dc:format>
        <dc:type
           rdf:resource="http://purl.org/dc/dcmitype/StillImage" />
        <dc:title></dc:title>
      </cc:Work>
    </rdf:RDF>
  </metadata>
  <defs
     id="defs3983" />
  <path
     d="m 833.71679,1308.1465 c -1.4258,-0.8811 -0.8941,-9.6644 3.1143,-51.4477 1.108,-11.55 2.6817,-28.875 3.4971,-38.5 0.8154,-9.625 2.1297,-23.575 2.9206,-31 0.791,-7.425 2.1327,-21.15 2.9817,-30.5 2.8234,-31.095 5.5152,-59.7645 7.6522,-81.5001 1.1626,-11.8251 2.2892,-23.9751 2.5036,-27.0001 0.7492,-10.5709 1.4806,-14 2.9861,-14 0.7967,0 5.8316,3.5138 11.1887,7.8083 14.6292,11.7274 51.87958,40.9584 59.00338,46.3007 3.9025,2.9266 6.9506,4.5172 8.0868,4.2201 2.6216,-0.6856 28.34,-26.8892 39.0576,-39.7946 14.9374,-17.9867 30.45143,-41.3624 39.80053,-59.96968 27.8493,-55.42735 40.6251,-109.31637 43.8744,-185.06475 0.654,-15.24606 -0.7877,-54.64032 -2.5983,-71 -10.0541,-90.84123 -44.8376,-167.42266 -106.98423,-235.54286 -14.0455,-15.39553 -38.1981,-37.56887 -56.05038,-51.45714 -16.5822,-12.90028 -20.311,-15.66429 -32.706,-24.2436 -7.291,-5.04658 -17.5305,-11.74802 -22.7544,-14.89211 -5.2238,-3.14408 -10.2594,-6.55793 -11.1901,-7.58634 -1.9157,-2.11688 -2.6523,-0.41868 14.2179,-32.77795 11.2737,-21.62437 24.1827,-46.54632 34.7047,-67 41.77808,-81.21314 47.25578,-91.43887 49.18928,-91.82719 4.482,-0.90015 63.4962,34.21869 80.58903,47.95776 1.925,1.54731 10.4572,8.33519 18.9604,15.08418 16.3137,12.94815 40.242,35.53357 55.4459,52.33401 54.0081,59.67988 99.6122,140.08465 124.638,219.74945 14.4312,45.93881 22.207,86.2922 27.1123,140.70179 1.6089,17.84571 1.6811,75.31537 0.1125,89.5 -0.669,6.05 -1.7076,16.175 -2.308,22.5 -3.141,33.09066 -13.4025,79.54448 -25.6241,116 -14.361,42.83718 -40.2467,96.42023 -59.1792,122.49993 -1.5971,2.2 -3.4848,5.121 -4.195,6.4911 -4.8337,9.3255 -31.2948,42.8367 -46.9621,59.4742 -18.5329,19.6805 -41.8362,40.9616 -58.7507,53.6525 -5.7129,4.2863 -9.25,7.6334 -9.25,8.7531 0,1.143 5.2656,5.9414 14.25,12.9856 26.6764,20.9157 50.2324,39.2478 58.25,45.3321 8.9122,6.7631 10.8953,8.8163 9.6846,10.027 -0.9905,0.9905 -18.5657,6.1604 -29.6846,8.732 -7.6978,1.7804 -15.6503,3.9491 -29.5,8.045 -3.575,1.0572 -13.25,3.6871 -21.5,5.844 -11.5003,3.0067 -66.20133,17.6723 -94.00003,25.2019 -1.65,0.4469 -10.875,2.8881 -20.5,5.4249 -9.625,2.5368 -20.42498,5.4703 -23.99988,6.5189 -3.575,1.0485 -11.675,3.2624 -18,4.9196 -6.325,1.6573 -17.1881,4.552 -24.1402,6.4326 -7.3279,1.9824 -13.1883,3.0807 -13.9444,2.6134 z"
     id="path3999"
     style="fill:#000000;fill-opacity:1" />
</svg>
