<?xml version="1.0" encoding="utf-8"?>
<!-- Generator: Adobe Illustrator 16.0.2, SVG Export Plug-In . SVG Version: 6.00 Build 0)  -->
<!DOCTYPE svg PUBLIC "-//W3C//DTD SVG 1.1//EN" "http://www.w3.org/Graphics/SVG/1.1/DTD/svg11.dtd">
<svg version="1.1" id="vectorportal.com" xmlns="http://www.w3.org/2000/svg" xmlns:xlink="http://www.w3.org/1999/xlink" x="0px"
	 y="0px" width="600px" height="600px" viewBox="0 0 600 600" enable-background="new 0 0 600 600" xml:space="preserve">
<g id="a5">
	<g>
		<path d="M454.944,343.053c-35.487,53.105,66.294,49.515,84.674,111.252c8.32,27.951-10.301,54.787-19.901,48.813
			c-11.17-6.949,11.977-23.98,11.456-38.469c-2.028-56.826-101.542-83.38-107.745-36.974
			c-30.771-44.174-106.723-9.428-140.021-98.75c-31.269-83.879,6.343-280.998,71.952-307.906
			c39.783-16.316-12.586,103.896,56.818,107.867c-29.117,38.713,32.842,120.152-14.562,160.148c-0.931,0.785-1.048,1.314,0,1.406
			c52.334,4.555,31.985,46.299,59.313,51.369"/>
		<path fill="#FCEE21" d="M346.248,47.986c-10.118,3.389-19.605,32.508-18.116,38.961c1.489,6.453,10.423,25.561,18.116,23.08
			c7.693-2.482,17.867-30.524,15.634-37.722C359.648,65.109,349.859,46.775,346.248,47.986"/>
		<rect y="-0.54" fill="none" width="600" height="601.081"/>
	</g>
	<g>
		<path d="M218.795,411.289c49.266,14.217,9.603,57.289,45.074,100.234c16.059,19.452,41.203,26.334,40.637,18.711
			c-0.664-8.869-20.762-8.213-30.478-16.615c-38.098-32.937-19.863-92,14.115-68.588c-18.936-38.535,32.57-52.601-16.3-117.711
			C225.951,266.176,77.498,171.711,35.124,185.611c-25.693,8.428,75.605,52.995,52.946,85.988
			c37.099,8.924,70.104,82.292,114.765,83.835c0.877,0.031,1.281,0.277,0.96,0.793c-16.016,25.757,19.95,40.273,13.426,55.242"/>
		<path fill="#FCEE21" d="M56.884,196.775c6.013-2.569,29.379,9.643,33.247,13.938c3.866,4.298,13.657,19.029,9.149,21.041
			c-4.506,2.008-27.391-9.291-31.492-14.34C63.686,212.369,54.736,197.695,56.884,196.775"/>
		<rect y="-0.54" fill="none" width="600" height="601.081"/>
	</g>
</g>
<g id="a4">
	<g>
		<g>
			<path fill="#F36D23" d="M299.305,338.338c17.496-16.463,50.542-14.52,57.117-12.41c6.577,2.109,19.357,1.738,30.36,9.101
				c30.116,20.153,38.258,34.455,34.163,35.942c-27.144,9.869-93.311-6.645-120.607-26.844c8.686,0.414,32.882,3.268,43.553,6.99
				c0,0-7.082-6.146-44.958-8.563c-2.916-0.186-6.143-3.535,0-2.977c0,0,45.042,0.744,53.355,2.356
				C352.288,341.936,340.128,338.338,299.305,338.338"/>
			<path fill="#F36D23" d="M305.965,331.223c27.958-14.063,53.555-5.36,62.407-4.535c8.425,0.787,40.269,1.435,38.157-15.315
				C401.477,285.442,317.834,310.295,305.965,331.223"/>
			<path fill="#F36D23" d="M298.685,344.045c8.87,6.455,31.055,19.217,57.87,25.441c7.84,1.819,23.859,17.407,21.047,17.821
				c-32.926,4.964-64.033-20.313-81.398-43.141C294.692,342.184,296.092,342.158,298.685,344.045"/>
			<path fill="#F36D23" d="M367.218,371.652c8.994,2.614,40.823,6.762,53.107,0.559c-22.459,41.568-43.75,7.816-53.107,2.234
				C364.604,372.887,358.471,369.109,367.218,371.652"/>
			<path fill="#F36D23" d="M375.574,328.865c26.646,7.91,46.357,38.135,47.854,36.459c6.279-7.166-7.609-34.103-14.724-40.142
				c-4.216-3.575-13.817,3.785-32.862,2.793C374.376,327.898,370.109,327.242,375.574,328.865"/>
		</g>
		<g>
			<path fill="#C01408" d="M335.577,71.976c-0.866,6.548-0.458,37.554,8.272,34.577l0,0c8.731-2.977,9.762-13.865,11.414-17.188l0,0
				c1.416-2.846-13.307-18.896-18.185-18.896l0,0C336.258,70.469,335.716,70.924,335.577,71.976"/>
			<path fill="#C01408" d="M405.475,368.283c-7.939-6.039-94.713-22.787-102.57-23.162l0,0
				C326.643,360.588,378.05,373.863,405.475,368.283"/>
			<path fill="#C01408" d="M304.966,337.262c24.616-0.01,40.728,2.158,50.5,4.328l0,0c10.606,2.355,13.751,4.707,12.207,4.275l0,0
				c-2.567-0.722-4.052-3.808-63.364-5.109l0,0c-6.079-0.133-5.311,0.795-2.67,0.961l0,0
				c34.266,2.189,103.836,20.113,103.836,20.113l0,0c-5.076-4.947-7.856-22.666-48.058-31.932l0,0
				c-3.769-0.869-12.192-2.605-21.702-2.605l0,0C325.168,327.293,313.289,329.43,304.966,337.262"/>
			<path fill="#C01408" d="M307.907,329.898c25.565-12.859,51.336-4.904,59.432-4.146l0,0c7.704,0.719,29.038,0.301,27.304-13.223
				l0,0c-1.813-6.5-9.338-9.133-19.295-9.133l0,0C352.602,303.395,317.141,317.127,307.907,329.898"/>
			<path fill="#C01408" d="M297.691,345.328c16.213,17.822,38.382,39.156,68.784,38.67l0,0c2.422-0.355-7.152-12.205-13.904-13.771
				l0,0c-23.094-5.36-43.588-17.827-51.229-23.387l0,0c-1.556-1.133-3.42-2.192-3.916-2.192l0,0
				C297.211,344.646,297.253,344.846,297.691,345.328"/>
			<path fill="#C01408" d="M370.01,375.004c7.693,4.922,25.458,29.51,41.281,1.164l0,0c-8.378,2.453-33.371-0.963-41.404-2.963l0,0
				c-2.219-0.553-3.375-0.775-3.841-0.775l0,0C364.826,372.432,368.369,373.953,370.01,375.004"/>
			<path fill="#C01408" d="M395.374,327.049c-4.06,0.965-9.356,1.933-16.306,1.58l0,0c-1.231-0.061-4.588-0.602,0,0.711l0,0
				c22.369,6.41,37.877,30.717,39.132,29.359l0,0c5.271-5.808-6.39-27.631-12.36-32.523l0,0c-0.683-0.559-1.504-0.781-2.499-0.781
				l0,0C401.421,325.395,398.852,326.221,395.374,327.049"/>
		</g>
	</g>
	<g>
		<g>
			<path fill="#F36D23" d="M272.464,339.67c-17.645-1.529-28.396,14.209-29.361,18.312c-0.966,4.104-5.884,9.561-4.879,18.584
				c2.77,24.707,9.562,36.377,12.078,35.397c16.666-6.461,29.563-45.088,25.738-68.57c-2.893,4.08-9.786,16.41-11.141,23.238
				c0,0-1.607-6.604,10.584-24.748c0.94-1.395-0.171-4.713-2.034-1.678c0,0-15.958,20.375-17.892,24.971
				C255.557,365.176,257.54,357.756,272.464,339.67"/>
			<path fill="#F36D23" d="M265.168,338.613c-19.832,4.457-23.238,20.703-25.916,25.092c-2.541,4.178-13.736,18.65-24.411,8.271
				C198.971,355.119,246.525,332.068,265.168,338.613"/>
			<path fill="#F36D23" d="M276.59,342.613c1.171,7.569,1.78,24.592-3.769,39.983c-1.618,4.5,3.178,20.388,4.486,19.373
				c15.431-11.789,9.523-39.823,0.277-60.387C276.779,339.793,276.247,340.4,276.59,342.613"/>
			<path fill="#F36D23" d="M270.407,388.543c-1.497,5.459-10.301,21.9-19.031,23.848c36.614,13.482,21.335-14.979,20.941-22.271
				C272.206,388.08,271.864,383.232,270.407,388.543"/>
			<path fill="#F36D23" d="M238.109,368.125c-4.331,16.266,9.121,42.037,7.427,41.756c-7.194-1.258-20.525-22.598-22.049-29.152
				c-0.903-3.887,7.635-3.987,13.916-12.987C237.888,367.049,239.005,364.789,238.109,368.125"/>
		</g>
		<g>
			<path fill="#C01408" d="M81.864,224.099c2.876,1.142,10.689,6.821,15.918,4.637l0,0c5.228-2.194-15.814-19.856-20.605-23.163l0,0
				c-0.428-0.296-0.775-0.432-1.05-0.431l0,0C72.964,205.143,79.217,223.049,81.864,224.099"/>
			<path fill="#C01408" d="M254.119,403.594c13.84-9.006,23.559-39.266,21.668-58.506l0,0
				C273.17,348.781,252.895,396.672,254.119,403.594"/>
			<path fill="#C01408" d="M272.29,343.252c-20.79,27.012-19.227,29.412-19.675,30.955l0,0c-0.513,1.783-1.731-9.902,17.039-32.635
				l0,0c-15.958-1.386-22.543,14.537-24.202,19.09l0,0c-8.357,23.037,2.735,34.256,4.26,39.295l0,0c0,0,13.178-40.932,24.206-57.35
				l0,0c0.44-0.648,0.56-1.191,0.284-1.191l0,0C273.941,341.416,273.325,341.904,272.29,343.252"/>
			<path fill="#C01408" d="M219.978,367.363c8.61,8.393,16.693-0.826,19.015-4.646l0,0c2.445-4.01,6.43-19.914,24.56-23.994l0,0
				c-1.808-0.463-3.842-0.682-6.026-0.682l0,0C238.687,338.043,208.859,354.215,219.978,367.363"/>
			<path fill="#C01408" d="M277.529,345.367c1.007,6.518,2.034,22.629-2.74,35.881l0,0c-1.401,3.875,3.193,14.797,4.327,13.928l0,0
				c11.443-13.196,4.969-35.049-1.285-52.278l0,0c-0.135-0.371-0.24-0.531-0.317-0.531l0,0
				C277.273,342.365,277.305,343.922,277.529,345.367"/>
			<path fill="#C01408" d="M270.49,390.6c-1.564,4.691-8.37,17.687-13.102,20.021l0,0c25.152,8.969,14.84-12.767,14.287-18.953l0,0
				c-0.107-1.189,0.091-3.279-0.197-3.279l0,0C271.325,388.387,271.035,388.975,270.49,390.6"/>
			<path fill="#C01408" d="M236.674,369.539c-5.295,7.537-12.15,7.275-11.462,10.479l0,0c1.156,5.404,11.811,22.873,17.707,23.812
				l0,0c1.39,0.213-9.558-20.367-5.764-33.891l0,0c0.321-1.14,0.367-1.509,0.281-1.509l0,0
				C237.312,368.432,236.916,369.197,236.674,369.539"/>
		</g>
	</g>
</g>
<g id="a3">
	<g>
		<path fill="#A76900" d="M412.178,400.295c0.581,7.445,4.055,11.002,7.032,10.92l0,0c2.979-0.084,8.438-5.791,8.686-10.092l0,0
			c0.247-4.301-2.484-15.055-7.569-15.303l0,0c-0.09-0.004-0.182-0.008-0.271-0.008l0,0
			C414.938,385.813,411.609,392.977,412.178,400.295"/>
		<path fill="#A76900" d="M393.482,399.303c0.744,2.896,3.229,5.625,8.107,4.961l0,0c4.881-0.662,5.87-3.639,5.541-6.203l0,0
			c-0.33-2.563-1.656-5.459-8.189-5.459l0,0C393.967,392.602,392.736,396.408,393.482,399.303"/>
		<path fill="#A76900" d="M374.663,394.545c0.497,3.228,1.86,4.281,5.771,5.213l0,0c3.907,0.928,6.823-1.055,7.135-3.6l0,0
			c0.311-2.543-0.312-6.142-6.267-7.568l0,0c-0.536-0.129-1.047-0.188-1.526-0.188l0,0
			C376.199,388.402,374.227,391.701,374.663,394.545"/>
		<path fill="#A76900" d="M450.806,382.881c-4.177,0.621-7.523,4.926-7.152,9.353l0,0c0.363,4.327,1.612,6.526,8.809,6.28l0,0
			c7.198-0.246,5.212-4.961,5.337-7.44l0,0c0.118-2.367-2.55-8.232-6.42-8.232l0,0C451.19,382.84,451,382.854,450.806,382.881"/>
		<path fill="#A76900" d="M429.218,365.391c-13.729,12.652-1.736,28.533,2.729,33.144l0,0c4.468,4.604,12.495-19.297,12.261-23.219
			l0,0c-0.238-4.023-10.593-10.185-14.081-10.185l0,0C429.724,365.131,429.411,365.213,429.218,365.391"/>
		<path fill="#A76900" d="M409.117,298.299c-5.211,1.49,0.248,13.898,1.488,18.351l0,0c0,0,8.106,2.414,13.731-3.375l0,0
			c6.838-7.041-7.534-15.14-13.854-15.14l0,0C409.971,298.135,409.509,298.188,409.117,298.299"/>
		<path fill="#A76900" d="M416.521,324.164c0.291,3.322,4.299,12.063,7.029,16.654l0,0c2.729,4.592,10.67-0.248,14.642-1.488l0,0
			c3.971-1.242-3.352-17-9.184-22.184l0,0c-1.277-1.138-2.61-1.604-3.911-1.604l0,0
			C420.477,315.543,416.285,321.461,416.521,324.164"/>
		<path fill="#A76900" d="M429.631,346.775c-1.821,1.733,0.387,15.1,2.149,17.551l0,0c0.828,1.149,5.627,1.641,7.543,0l0,0
			c1.915-1.642,1.888-13.994-1.254-18.461l0,0c-1.107-1.572-2.254-2.142-3.356-2.142l0,0
			C432.685,343.725,430.81,345.648,429.631,346.775"/>
	</g>
	<g>
		<path fill="#A76900" d="M260.678,420.061c-1.695,2.396,4.657,9.666,7.685,11.982l0,0c3.033,2.316,8.929,3.115,10.078,1.84l0,0
			c1.144-1.271-0.019-4.813-4.897-9.268l0,0c-3.571-3.265-7.874-5.521-10.608-5.521l0,0
			C261.936,419.096,261.146,419.398,260.678,420.061"/>
		<path fill="#A76900" d="M273.129,414.41c-2.389,2.895-0.895,5.117,0.736,6.711l0,0c1.629,1.586,4.029,2.83,6.264,1.039l0,0
			c2.238-1.787,1.277-4.43-0.428-6.394l0,0c-1.119-1.289-2.821-2.422-4.371-2.422l0,0
			C274.52,413.346,273.752,413.654,273.129,414.41"/>
		<path fill="#A76900" d="M276.835,404.336c-1.207,3.441,1.026,5.744,2.879,7.039l0,0c1.854,1.301,4.276,1.125,5.069-1.131l0,0
			c0.791-2.258,0.57-3.455-1.454-5.494l0,0c-1.162-1.17-2.822-1.994-4.201-1.994l0,0
			C278.099,402.756,277.226,403.215,276.835,404.336"/>
		<path fill="#A76900" d="M247.53,431.912c-1.954,1.498,1.297,6.371,3.037,7.715l0,0c1.737,1.34,4.238,4.881,7.04,1.832l0,0
			c2.795-3.051,1.748-4.846-1.078-7.449l0,0c-1.957-1.799-4.499-2.813-6.54-2.813l0,0
			C249.017,431.197,248.158,431.428,247.53,431.912"/>
		<path fill="#A76900" d="M244.767,424.721c2.592,2.313,21.862,12.232,20.348,7.658l0,0c-1.516-4.578-7.987-18.844-21.651-19.893
			l0,0c-0.014-0.002-0.027-0.002-0.04-0.002l0,0C241.616,412.484,241.815,422.092,244.767,424.721"/>
		<path fill="#A76900" d="M204.962,365.754c-2.923,1.471-3.238,14.17,4.666,15.187l0,0c6.015,0.771,7.327-4.183,7.327-4.183l0,0
			c-2.401-2.84-8.163-11.158-11.314-11.158l0,0C205.398,365.6,205.171,365.648,204.962,365.754"/>
		<path fill="#A76900" d="M210.573,385.193c1.407,5.508,9.498,17.635,11.799,16.573l0,0c2.299-1.059,8.51-1.85,6.369-5.647l0,0
			c-2.133-3.797-6.644-10.502-8.812-12.506l0,0c-1.147-1.062-3.913-2.06-6.168-2.06l0,0
			C211.581,381.555,209.878,382.488,210.573,385.193"/>
		<path fill="#A76900" d="M226.887,405.398c1.905,3.911,10.331,10.887,12.155,10.963l0,0c1.824,0.078,3.24-2.326,2.76-3.34l0,0
			c-1.031-2.164-9.355-10.675-11.212-10.851l0,0c-0.508-0.049-1.161-0.121-1.8-0.121l0,0
			C227.101,402.051,225.503,402.561,226.887,405.398"/>
	</g>
</g>
<g id="a2">
	<g>
		<path fill="#A76900" d="M380.992,256.195c-3.725,2.729-8.387,28.061-1.986,28.29l0,0c27.794,0.992,27.051-33.751,26.469-38.466
			l0,0c-0.092-0.752-0.683-1.074-1.627-1.074l0,0C398.875,244.945,384.12,253.9,380.992,256.195"/>
		<path fill="#A76900" d="M380.411,224.016c-2.978,2.979-4.796,21.343-1.489,23.494l0,0c6.618,4.301,22.17-10.754,24.651-13.567l0,0
			c2.481-2.813,3.971-14.394-2.646-20.019l0,0c-1.172-0.996-2.479-1.416-3.854-1.416l0,0
			C390.689,212.508,382.861,221.565,380.411,224.016"/>
		<path fill="#A76900" d="M367.673,182.16c-5.788,5.129,6.634,35.286,11.085,35.899l0,0c4.799,0.662,12.905-13.233,14.889-17.868
			l0,0c1.985-4.632,4.965-20.018-2.229-26.635l0,0c-1.679-1.545-3.551-2.18-5.51-2.18l0,0
			C379.471,171.379,372.111,178.228,367.673,182.16"/>
		<path fill="#A76900" d="M385.375,158.666c7.445,3.806,12.407-14.724,13.07-17.537l0,0c0.664-2.813-0.331-5.459-7.029-6.948l0,0
			c-0.195-0.044-0.389-0.065-0.576-0.065l0,0C384.607,134.115,382.846,157.373,385.375,158.666"/>
		<path fill="#A76900" d="M321.307,72.058c-3.998,3.04-15.271,26.224-12.529,28.787l0,0c3.846,3.598,11.043-6.948,12.406-8.562l0,0
			c1.279-1.515,3.545-20.484,0.744-20.482l0,0C321.743,71.801,321.537,71.883,321.307,72.058"/>
		<path fill="#A76900" d="M348.979,42.444c-1.568,4.882,7.448,13.548,9.929,12.407l0,0c3.061-1.406,3.142-14.063,0.827-19.191l0,0
			c-0.572-1.266-1.422-1.791-2.398-1.791l0,0C354.352,33.869,350.163,38.768,348.979,42.444"/>
		<path fill="#A76900" d="M348.605,120.326c-2.729,7.196,0.69,21.762,5.088,24.195l0,0c5.832,3.227,17.619-18.859,19.231-24.568l0,0
			c1.613-5.707,0.371-10.299-7.567-17.123l0,0c-1.277-1.098-2.506-1.576-3.682-1.576l0,0
			C355.548,101.256,350.896,114.287,348.605,120.326"/>
		<path fill="#A76900" d="M359.275,145.638c-5.582,4.963-9.767,24.171-4.713,28.788l0,0c7.194,6.576,18.238-3.227,21.838-9.68l0,0
			c3.599-6.451,9.306-31.516,4.673-35.363l0,0c-0.515-0.426-1.111-0.618-1.778-0.618l0,0
			C373.948,128.766,364.241,141.224,359.275,145.638"/>
	</g>
	<g>
		<path fill="#A76900" d="M186.468,329.553c-3.225,0.111-18.914,2.199-15.904,5.111l0,0c3.011,2.918,26.483,22.834,35.968,9.959l0,0
			c2.168-2.949-16.667-15.07-20.02-15.072l0,0C186.497,329.551,186.483,329.551,186.468,329.553"/>
		<path fill="#A76900" d="M150.297,314.557c1.423,6.103,9.881,11.974,12.71,12.459l0,0c2.83,0.484,18.802,2.082,18.285-3.276l0,0
			c-0.26-2.679-13.479-12.226-16.602-12.58l0,0c-1.424-0.166-4.837-0.742-7.994-0.742l0,0
			C152.927,310.416,149.521,311.236,150.297,314.557"/>
		<path fill="#A76900" d="M126.185,287.582c1.89,6.92,13.497,14.277,17.388,16.008l0,0c3.893,1.732,16.352,5.976,17.652,3.476l0,0
			c1.21-2.318-14.861-24.822-20.482-25.152l0,0c-1.572-0.091-3.551-0.229-5.545-0.229l0,0
			C130.059,281.684,124.82,282.599,126.185,287.582"/>
		<path fill="#A76900" d="M99.277,265.385c-1.43,3.807,0.012,5.742,2.177,7.031l0,0c2.166,1.295,16.641,9.539,16.762,4.098l0,0
			c0.038-1.667-13.352-11.821-17.692-11.822l0,0C99.896,264.691,99.458,264.903,99.277,265.385"/>
		<path fill="#A76900" d="M82.449,199.295c-3.292,0.057,12.267,11.045,13.868,11.351l0,0c1.602,0.304,11.439,3.062,10.386-0.673l0,0
			c-0.747-2.648-20.577-10.678-24.217-10.678l0,0C82.473,199.295,82.461,199.295,82.449,199.295"/>
		<path fill="#A76900" d="M43.532,195.801c2.657,3.922,11.337,11.019,13.416,10.455l0,0c1.683-0.457-0.94-9.342-4.849-11.393l0,0
			c-1.952-1.027-4.755-1.771-6.739-1.771l0,0C43.369,193.092,42.201,193.84,43.532,195.801"/>
		<path fill="#A76900" d="M87.375,236.164c1.761,7.363,4.448,10.504,8.939,13.006l0,0c4.49,2.502,23.888,9.73,23.818,5.328l0,0
			c-0.055-3.318-8.761-13.047-14.674-15.896l0,0c-3.993-1.921-11.633-5.715-15.639-5.716l0,0
			C87.889,232.887,86.803,233.768,87.375,236.164"/>
		<path fill="#A76900" d="M99.779,258.096c0.935,4.222,20.15,15.822,25.875,17.867l0,0c5.724,2.043,16.461,2.678,14.596-4.219l0,0
			c-1.307-4.844-15.962-13.816-21.395-14.141l0,0c-3.391-0.201-10.343-1.604-14.864-1.604l0,0
			C101.268,256,99.427,256.508,99.779,258.096"/>
	</g>
</g>
<g id="a1">
	<g>
		<path fill="#F36D23" d="M284.125,264.726c1.281-18.528,20.516-56.757,24.227-65.029l0,0c6.217-5.956,29.047-60.552,31.363-65.581
			l0,0c2.317-5.029,3.309-22.434-16.449-32.861l0,0c-0.771-0.407-1.545-0.604-2.317-0.604l0,0
			C301.926,100.662,282.853,219.908,284.125,264.726"/>
		<path fill="#F36D23" d="M344.511,176.604c-63.776,28.51-60.883,117.893-61.214,129.473l0,0c-0.329,11.58,3.807,6.617,4.136,4.467
			l0,0c0.33-2.149,11.667-55.424,12.492-53.521l0,0c0.826,1.903-9.479,46.082-11.974,58.722l0,0
			c-0.661,3.35-1.635,10.184,0.35,3.484l0,0c1.986-6.699,20.559-59.644,24.942-63.962l0,0c2.215-2.183-19.285,46.853-23.907,67.685
			l0,0c-1.332,6.006,0,7.762,3.971,0.578l0,0c3.971-7.185,41.277-58.648,45.993-85.451l0,0c4.507-25.619,7.154-47.479,6.843-53.088
			l0,0c-0.3-5.396,1.522-8.837-0.123-8.838l0,0C345.68,176.152,345.193,176.299,344.511,176.604"/>
		<path fill="#F36D23" d="M311.878,196.015c-1.584,2.135-6.078,15.841-0.123,4.426l0,0c5.956-11.416,28.295-22.946,32.938-25.759
			l0,0c4.644-2.813,5.272-37.903-0.059-39.467l0,0c-0.189-0.055-0.383-0.082-0.576-0.082l0,0
			C336.452,135.135,325.911,177.088,311.878,196.015"/>
		<path fill="#F36D23" d="M341.425,276.731c-9.034,2.929-17.18,5.856-19.498,4.899l0,0c-1.735,4.716-25.87,41.135-30.213,46.965l0,0
			c3.536,1.306,46.841-36.293,75.876-36.789l0,0c3.614-0.063,3.76-4.469,3.723-15.758l0,0c-0.629-3.209-3.504-4.402-7.582-4.402l0,0
			C357.779,271.646,349.268,274.189,341.425,276.731"/>
		<path fill="#F36D23" d="M340.923,238.078c-2.597,12.532-12.047,30.648-18.003,41.444l0,0l1.613,0.62
			c70.208-13.479,43.971-57.775,43.969-57.78l0,0c-0.542-1.916-1.712-2.709-3.279-2.708l0,0
			C357.673,219.656,340.923,238.078,340.923,238.078"/>
		<path fill="#F36D23" d="M349.727,181.377c-3.672,0.125-5.25,36.639-8.804,53.476l0,0c-0.175,0.826,0.278,2.265,1.045,0.806l0,0
			c2.411-4.587,20.907-18.178,20.907-18.178l0,0c7.28-24.925-9.291-36.104-13.087-36.104l0,0
			C349.768,181.377,349.747,181.377,349.727,181.377"/>
	</g>
	<g>
		<path fill="#F36D23" d="M101.683,216.623c-0.094,14.635,12.165,24.008,16.449,25.815l0,0c4.281,1.81,49.938,22.476,56.278,23.076
			l0,0c7.013,3.019,40.164,16.049,53.294,25.93l0,0c-28.172-24.13-107.213-77.002-123.188-77.008l0,0
			C102.692,214.436,101.693,215.123,101.683,216.623"/>
		<path fill="#F36D23" d="M145.414,268.517c-2.68,0.765,0.82,1.623,5.135,5.452l0,0c3.717,3.299,19.626,14.453,38.779,26.898l0,0
			c20.043,13.021,68.85,25.508,75.21,27.799l0,0c6.356,2.287,5.644,0.707,1.055-2.086l0,0c-15.927-9.697-57.294-27.817-54.993-27.57
			l0,0c4.556,0.498,47.521,22.113,52.825,25.013l0,0c5.305,2.896,0.284-0.523-2.25-2.119l0,0
			c-9.555-6.021-43.508-26.361-44.507-27.801l0,0c-0.998-1.438,39.55,23.574,41.136,24.637l0,0c1.592,1.067,6.498,2.033-1.537-4.349
			l0,0c-7.192-5.715-56.051-47.729-96.915-47.727l0,0C154.572,266.664,149.896,267.24,145.414,268.517"/>
		<path fill="#F36D23" d="M117.084,245.24c-0.88,3.242,23.33,22.746,26.947,22.275l0,0c3.622-0.471,19.666-3.869,29.646-0.073l0,0
			c9.975,3.8-1.028-1.938-3.069-2.44l0,0c-16.607-4.092-45.429-20.463-52.138-20.463l0,0
			C117.694,244.537,117.215,244.756,117.084,245.24"/>
		<path fill="#F36D23" d="M203.574,336.459c7.705,6.381,10.765,8.801,12.131,7.234l0,0c10.955-12.582,52.472-10.578,52.878-12.875
			l0,0c-5.575-1.365-39.285-11.205-43.142-13.095l0,0C224.964,321.582,195.454,327.818,203.574,336.459"/>
		<path fill="#F36D23" d="M167.914,304.945c0.003,0.006,22.003,37.348,55.559,13.094l0,0l0.167-1.068
			c-9.554-3.442-25.393-9.469-34.905-15.387l0,0c0,0-7.648-1.211-13.886-1.211l0,0C169.304,300.373,164.873,301.33,167.914,304.945"
			/>
		<path fill="#F36D23" d="M146.769,273.522c-1.428,1.556,0.061,15.292,19.867,26.179l0,0c0,0,16.048-0.531,20.066,0.983l0,0
			c1.276,0.484,0.459-0.526-0.171-0.918l0,0c-12.325-7.623-36.443-26.333-39.502-26.331l0,0
			C146.91,273.437,146.823,273.465,146.769,273.522"/>
	</g>
</g>
<path fill="#666666" d="M266.753,316.648c1.084,0.748,1.401-1.017,1.744-2.779l0,0c0.334-1.721,0.693-3.443,1.813-2.83l0,0
	c-3.474,67.5,39.211,64.77,66.444,90.828l0,0c24.385,24.815,20.827,37.721,29.041,40.037l0,0c9.4,2.647,18.091-15.883-27.24-50.625
	l0,0c-56.562-27.793-62.033-88.019-62.75-92.089l0,0c-0.658-3.735-2.479-5.253-4.62-5.253l0,0
	C264.614,293.938,255.025,308.238,266.753,316.648"/>
<path fill="#333333" d="M263.121,305.568c-0.938,5.719,3.839,12.604,4.211,3.731l0,0c0.195-4.637,3.266-1.86,5.831,0.912l0,0
	c2.362,2.553,4.295,5.107,3.166,1.881l0,0c-1.676-4.776-2.172-13.959-4.282-16.44l0,0c-0.293-0.346-0.662-0.503-1.081-0.503l0,0
	C268.374,295.15,263.847,301.142,263.121,305.568"/>
<g>
	<path d="M263.04,194.078c0.181,0.307,0.866,0.536,1.689,0.536c0.961,0,1.74-0.312,1.74-0.695s-0.779-0.694-1.74-0.694
		c-0.462,0-0.88,0.072-1.192,0.189c-1.956,0.423-3.544,1.997-3.857,4.094c-0.508,3.381,1.839,6.43,5.357,5.518
		c3.35-0.868,5.632-4.07,6.266-8.297c0.793-5.281-3.66-12.922-11.168-10.321c-6.308,2.183-7.988,9.019-8.976,15.62
		c-1.237,8.255-2.253,53.74,18.852,90.332c-17.152-34.127-19.927-79.826-17.817-90.373c1.259-6.289,2.859-11.697,7.862-14.031
		c6.019-2.811,10.719,3.611,10.089,8.529c-0.508,3.936-3.344,7.055-5.554,7.277c-2.718,0.271-3.769-0.783-4.124-3.472
		C260.23,196.489,261.338,194.964,263.04,194.078"/>
	<path d="M225.224,218.438c-1.361-5.912-2.209-11.111,0.093-14.336c2.769-3.881,7.866,0.791,9.149,5.332
		c1.026,3.633,0.332,7.069-0.963,7.771c-1.588,0.861-2.596,0.156-3.732-2.167c-0.628-1.284-0.614-2.604-0.172-3.692
		c0.357,0.065,0.971-0.143,1.573-0.566c0.785-0.553,1.243-1.256,1.022-1.57c-0.221-0.314-1.037-0.12-1.823,0.434
		c-0.394,0.277-0.705,0.592-0.889,0.877c-0.674,0.938-0.891,2.412-0.466,3.998c0.836,3.142,3.327,5.334,5.195,3.717
		c1.779-1.539,2.101-4.922,1.056-8.846c-1.308-4.902-6.666-10.724-10.429-6.691c-3.161,3.388-1.874,9.883-0.238,16.011
		c2.045,7.665,16.898,48.575,42.422,76.499C244.785,268.586,227.51,228.348,225.224,218.438"/>
	<rect y="-0.54" fill="none" width="600" height="601.081"/>
</g>
<path d="M267.25,302.125c0,1.174,0.993,2.125,2.219,2.125l0,0c1.225,0,2.219-0.951,2.219-2.125l0,0c0-1.172-0.994-2.125-2.219-2.125
	l0,0C268.243,300,267.25,300.953,267.25,302.125"/>
</svg>
