<?xml version="1.0" encoding="utf-8"?>
<!-- Generator: Adobe Illustrator 16.0.2, SVG Export Plug-In . SVG Version: 6.00 Build 0)  -->
<!DOCTYPE svg PUBLIC "-//W3C//DTD SVG 1.1//EN" "http://www.w3.org/Graphics/SVG/1.1/DTD/svg11.dtd">
<svg version="1.1" id="ladybug" xmlns="http://www.w3.org/2000/svg" xmlns:xlink="http://www.w3.org/1999/xlink" x="0px" y="0px"
	 width="600px" height="600px" viewBox="0 0 600 600" enable-background="new 0 0 600 600" xml:space="preserve">
<path id="corpo" d="M22.601,292.133c11.607,15.91,25.95-0.202,37.608-8.731c10.316,9.44,27.7,9.7,36.411,9.144
	c4.7-36.497,18.641-75.858,48.445-114.363c4.213-5.445,8.989-10.888,14.217-16.253c-5.827-7.807-14.646-21.577-15.844-34.749
	c-15.051-0.215-32.005-2.829-29.75-23.561c0,0-4.578-2.785-0.93-7.726c-1.463,3.981,4.529,5.08,4.529,5.08
	c-2.253,20.735,20.23,16.279,35.279,16.497c1.297,14.289,14.25,25.429,21.448,30.574c27.199-23.643,62.046-44.258,94.817-54.557
	c0.556-7.712,3.131-28.892,14.962-41.945c-13.101-10.087-25.921-23.232-6.987-37.372c0,0-1.763-5.114,5.494-6.433
	c-4.548,2.034-0.159,6.814-0.159,6.814c-18.934,14.139,4.538,25.605,17.638,35.692c-10.638,11.739-8.167,28.886-6.007,37.428
	c8.481-1.215,16.619-1.518,24.212-0.76c45.451-36.612,105.755-6.586,105.755-6.586c3.127-4.478,7.87-6.057,15-5.266
	c10.254-13.829,28.791-4.873,31.951,1.975c4.609-2.708,15.542,1.579,19.876,3.291c0.164-0.088,0.419-0.231,0.747-0.408
	c-32.478-16.226-38.997-36.419-38.899-43.403c0.078-5.553,3.945-17.43,9.653-14.506c7.274,3.725-1.235,4.239-2.89,20.186
	c-1.156,11.151,15.753,26.881,33.933,36.832c5.061-2.311,16.271-5.702,27.034,4.653c9.196,8.847,8.218,18.432,3.271,25.803
	c7.709,20.32,22.451,40.881,35.885,42.791c19.303,2.743,21.853-5.405,24.62,2.695c2.169,6.354-12.809,6.881-19.417,5.439
	c-8.261-1.799-30.52-13.536-42.445-49.076c-0.152,0.191-0.308,0.383-0.465,0.57c0.61,4.642,1.087,7.804-0.395,10.964
	c8.434,8.672,8.495,22.323-3.852,28.149c2.104,2.372,4.116,14.126-3.523,25.189c15.08,32.2,1.541,67.921-14.563,88.106
	c0.702,7.443,0.981,15.71,0.725,24.568c9.282,0.596,24.267-0.443,33.405-11.417c11.818,11.561,26.45,33.203,37.807,12.479
	c0,0,5.346,3.679,6.726-1.108c-0.292,7.369-5.603,6.34-5.603,6.34c-11.356,20.722-26.165,9.863-37.982-1.7
	c-9.984,11.988-27.294,17.681-36.376,19.956c-4.447,33.005-16.466,70.738-41.147,104.926c6.754,6.429,18.097,14.886,30.568,14.267
	c2.317,14.871,1.047,37.755,21.261,32.63c0,0,1.927,5.782,5.664,3.774c-4.383,4.303-7.777,0.158-7.777,0.158
	c-20.216,5.128-25.17-11.295-27.486-26.169c-12.039,0.596-25.452-5.007-34.204-9.547c-25.223,29.048-60.89,54.369-110.524,70.271
	c-4.276,1.373-8.505,2.565-12.694,3.627c-0.007,2.634,0.296,28.288,14.355,39.882c-6.818,12.734-20.77,29.188-3.396,38.459
	c0,0-1.92,5.618,1.897,6.533c-5.584,0.397-5.65-4.937-5.65-4.937c-17.375-9.273-11.557-24.893-4.735-37.629
	c-12.791-10.548-20.371-32.481-22.214-38.317c-92.333,13.907-159.004-42.488-171.301-57.625
	c-5.736-7.059-39.275-66.809-35.595-142.651c-9.339-2.028-25.776-6.662-35.517-15.574c-11.659,8.533-26.313,16.475-37.92,0.566
	c0,0-5.292,0.68-5.677-4.907C17.307,294.82,22.601,292.133,22.601,292.133"/>
<g id="olhos">
	<path id="o2" fill="#FFFFFF" d="M499.179,140.188c4.477,6.805,12.735,9.271,18.447,5.515c5.712-3.758,6.714-12.319,2.237-19.124
		c-4.476-6.803-12.735-9.271-18.447-5.515C495.705,124.823,494.703,133.385,499.179,140.188"/>
	<path id="o1" fill="#FFFFFF" d="M453.199,96.057c8.143,0.188,14.87-5.202,15.025-12.037c0.157-6.838-6.316-12.53-14.458-12.716
		c-8.141-0.188-14.868,5.205-15.024,12.04C438.584,90.179,445.058,95.871,453.199,96.057"/>
</g>
<g id="asa2">
	<path id="a2a" fill="#FF0000" d="M363.027,206.364c-4.474,0.206-8.43-0.791-11.978-3.989l0,0
		c-50.59,38.054-191.081,152.92-205.984,248.028l0,0c0,0,112.206,109.837,252.819,5.473l0,0
		c75.859-56.303,92.693-124.792,91.112-187.343l0,0c-27.896-7.67-84.861-42.472-114.419-66.862l0,0
		C372.509,205.047,367.097,206.177,363.027,206.364"/>
	<path id="a2d0" d="M351.832,290.591c0,12.179,11.792,22.056,26.339,22.056c14.548,0,26.341-9.877,26.341-22.056
		c0-12.182-11.793-22.056-26.341-22.056C363.624,268.535,351.832,278.409,351.832,290.591"/>
	<path id="a2d9" d="M241.414,317.542c-4.73,21.302,3.406,41.229,18.176,44.508c14.77,3.281,30.577-11.329,35.31-32.629
		c4.729-21.304-3.408-41.23-18.178-44.51C261.951,281.631,246.144,296.241,241.414,317.542"/>
	<path id="a2d8" d="M296.245,382.183c0,16.583,16.686,30.027,37.271,30.027c20.584,0,37.271-13.444,37.271-30.027
		c0-16.582-16.687-30.026-37.271-30.026C312.93,352.156,296.245,365.601,296.245,382.183"/>
	<path id="a2d7" d="M176.934,408.523c0,14.547,14.86,26.34,33.189,26.34c18.33,0,33.188-11.793,33.188-26.34
		s-14.858-26.341-33.188-26.341C191.794,382.183,176.934,393.977,176.934,408.523"/>
	<path id="a2d6" d="M242.803,453.733c0,6.691,11.352,12.116,25.353,12.116c14.003,0,25.354-5.425,25.354-12.116
		s-11.352-12.116-25.354-12.116C254.154,441.617,242.803,447.042,242.803,453.733"/>
	<path id="a2d5" d="M162.274,445.445c1.945-4.547,12.195-4.522,22.896,0.056c10.698,4.577,17.796,11.975,15.85,16.522
		c-1.947,4.546-12.197,4.521-22.896-0.058C167.424,457.39,160.328,449.991,162.274,445.445"/>
	<path id="a2d4" d="M430.045,320.021c0,9.894,7.312,17.911,16.331,17.911s16.33-8.018,16.33-17.911
		c0-9.893-7.311-17.912-16.33-17.912S430.045,310.129,430.045,320.021"/>
	<path id="a2d3_1_" d="M295.688,480.227c1.97,6.395,15.907,7.778,31.131,3.091c15.222-4.686,25.968-13.67,24-20.065
		c-1.97-6.396-15.907-7.78-31.13-3.093C304.464,464.845,293.719,473.831,295.688,480.227"/>
	<path id="a2d2" d="M337.166,241.872c2.641,3.834,10.998,2.66,18.665-2.62c7.668-5.281,11.743-12.67,9.104-16.504
		c-2.642-3.833-10.998-2.662-18.664,2.621C338.602,230.647,334.527,238.036,337.166,241.872"/>
	<path id="a2d1" d="M391.726,401.918c-12.576,13.188-17.199,29.193-10.328,35.745c6.873,6.554,22.639,1.178,35.214-12.013
		c12.575-13.186,17.2-29.189,10.327-35.743C420.068,383.354,404.302,388.732,391.726,401.918"/>
</g>
<g id="asa1">
	<path id="a1a" fill="#FF0000" d="M354.458,176.914c-1.678,0.831-7.104,5.612-7.895,10.782c-0.389,2.559-0.592,8.362,1.458,11.689
		c-50.272,36.665-168.044,124.096-209.543,242.326c-25.55-20.546-69.284-178.927,33.057-273.216
		c86.405-79.607,139.074-72.434,141.84-72.434C315.482,103.508,330.232,138.539,354.458,176.914"/>
	<path id="a1d6" d="M190.333,281.316c8.104,11.908,27.836,12.599,44.078,1.549c16.243-11.05,22.842-29.662,14.741-41.569
		c-8.103-11.907-27.836-12.601-44.079-1.549C188.832,250.799,182.233,269.409,190.333,281.316"/>
	<path id="a1d5" d="M145.171,220.945c-7.735,16.909-6.121,34.224,3.602,38.67c9.723,4.448,23.874-5.654,31.609-22.564
		c7.736-16.909,6.123-34.222-3.601-38.67C167.059,193.935,152.906,204.036,145.171,220.945"/>
	<path id="a1d4" d="M128.47,343.2c0,17.458,9.199,31.609,20.544,31.609c11.347,0,20.545-14.151,20.545-31.609
		c0-17.456-9.199-31.608-20.545-31.608C137.669,311.592,128.47,325.744,128.47,343.2"/>
	<path id="a2d3" d="M115.727,297.548c-0.673,12.2,1.608,22.247,5.093,22.438c3.486,0.193,6.859-9.541,7.532-21.743
		c0.673-12.2-1.607-22.247-5.093-22.44C119.771,275.611,116.401,285.348,115.727,297.548"/>
	<path id="a1d2" d="M250.364,158.244c-6.01,10.765-2.662,24.081,7.48,29.743c10.14,5.662,23.232,1.523,29.243-9.241
		c6.009-10.765,2.66-24.081-7.48-29.741C269.468,143.344,256.374,147.479,250.364,158.244"/>
	<path id="a1d1" d="M240.185,134.558c1.424,2.705,10.525,0.714,20.33-4.444c9.807-5.158,16.604-11.532,15.18-14.236
		c-1.422-2.703-10.524-0.714-20.33,4.446C245.559,125.481,238.762,131.855,240.185,134.558"/>
</g>
</svg>
