<?xml version="1.0" encoding="utf-8"?>
<!-- Generator: Adobe Illustrator 16.0.2, SVG Export Plug-In . SVG Version: 6.00 Build 0)  -->
<!DOCTYPE svg PUBLIC "-//W3C//DTD SVG 1.1//EN" "http://www.w3.org/Graphics/SVG/1.1/DTD/svg11.dtd">
<svg version="1.1" id="Layer_1" xmlns="http://www.w3.org/2000/svg" xmlns:xlink="http://www.w3.org/1999/xlink" x="0px" y="0px"
	 width="500px" height="600px" viewBox="0 0 500 600" enable-background="new 0 0 500 600" xml:space="preserve">
<g>
	<linearGradient id="SVGID_1_" gradientUnits="userSpaceOnUse" x1="64.6089" y1="567.8945" x2="64.6089" y2="501.743">
		<stop  offset="0" style="stop-color:#278EC6"/>
		<stop  offset="1" style="stop-color:#733D42"/>
	</linearGradient>
	<path fill="url(#SVGID_1_)" d="M35.452,547.789c0,0,15.516-20.75,26.91-49.637c0,0-6.5,41.801-5.209,51.574
		c0,0,22.348-49.371,38.543-71.064c0,0,9.605,17.607,4.445,28.469c-6.176,12.484-11.432,25.406-18.191,37.605
		c-1.959,3.531-6.396,13.914-9.527,15.943c-4.486,2.912-9.225-3.301-13.98-1.176c-4.08,1.822-6.4,7.848-8.277,11.516
		c-3.426,6.691-8.047,20.557-18.73,18.51c-7.393-1.416-2.947-22.596,2.734-42.117L35.452,547.789z"/>
	<linearGradient id="SVGID_2_" gradientUnits="userSpaceOnUse" x1="35.4521" y1="454.3521" x2="206.8994" y2="454.3521">
		<stop  offset="0" style="stop-color:#BA2025"/>
		<stop  offset="0.0418" style="stop-color:#B31F24"/>
		<stop  offset="0.175" style="stop-color:#A21D20"/>
		<stop  offset="0.3211" style="stop-color:#981B1F"/>
		<stop  offset="0.503" style="stop-color:#951B1E"/>
		<stop  offset="0.6828" style="stop-color:#981B1F"/>
		<stop  offset="0.8271" style="stop-color:#A21D20"/>
		<stop  offset="0.9587" style="stop-color:#B31F24"/>
		<stop  offset="1" style="stop-color:#BA2025"/>
	</linearGradient>
	<path fill="url(#SVGID_2_)" d="M206.899,358.978c-0.498,0.406-1.002,0.813-1.498,1.217
		c-47.129,38.629-78.596,93.055-105.26,146.936c5.16-10.861-4.445-28.469-4.445-28.469c-16.195,21.693-38.543,71.064-38.543,71.064
		c-1.291-9.773,5.209-51.574,5.209-51.574c-11.395,28.887-26.91,49.637-26.91,49.637l8.986-31.988
		c6.678-20.289,13.965-40.379,21.396-60.4c10.041-27.041,20.387-53.979,31.109-80.752l52.863-8.277L206.899,358.978z"/>
	<path fill="#278EC6" d="M173.194,366.371c-29.781,42.619-47.932,21.186-47.932,21.186C99.62,447.449,75.202,430.46,75.202,430.46
		c7.078-18.674,14.322-37.279,21.742-55.813v0.006c8.594-0.508,17.15-1.283,25.492-1.992c15.855-1.35,31.707-3.117,47.408-5.709
		L173.194,366.371z"/>
	<linearGradient id="SVGID_3_" gradientUnits="userSpaceOnUse" x1="215.6313" y1="351.9946" x2="368.1025" y2="351.9946">
		<stop  offset="0" style="stop-color:#6A6A6A"/>
		<stop  offset="1" style="stop-color:#787878"/>
	</linearGradient>
	<path fill="url(#SVGID_3_)" d="M216.353,356.265c46.99-0.986,105.334-17.691,146.656-48.945l-0.006-0.006
		c6.982,12.539,4.766,28.238,4.766,28.238c-6.654,3.906-52.846,16.203-52.846,16.203c6.484,7.156,23.391,23.91,23.391,23.91
		c2.535,7.635-23.391,21.01-23.391,21.01c-24.764-53.385-98.57-24.014-98.57-24.014c-3.152-7.488,5.051-18.006,5.051-18.006
		L216.353,356.265z"/>
	<g>
		<path fill="#101719" d="M314.923,351.755c2.164-0.829,4.335-1.626,6.515-2.394c2.179-0.766,4.358-1.527,6.548-2.252
			c2.183-0.747,4.374-1.463,6.566-2.17c2.187-0.729,4.382-1.426,6.578-2.113c2.199-0.68,4.376-1.425,6.581-2.079
			c2.191-0.69,4.389-1.366,6.566-2.084l3.274-1.042c1.085-0.356,2.186-0.691,3.252-1.074c1.068-0.377,2.164-0.73,3.188-1.149
			c0.516-0.2,1.063-0.383,1.556-0.589l1.41-0.639l-0.776,1.159c0.08-0.524,0.153-1.127,0.21-1.703
			c0.061-0.583,0.105-1.169,0.144-1.757c0.072-1.176,0.124-2.356,0.154-3.54c0.013-1.183,0.008-2.368-0.05-3.552
			c-0.009-0.594-0.07-1.182-0.104-1.775c-0.035-0.592-0.065-1.187-0.138-1.775l-0.193-1.772l-0.272-1.762
			c-0.07-0.594-0.213-1.17-0.319-1.758c-0.118-0.584-0.214-1.177-0.38-1.75l-0.443-1.741c-0.162-0.577-0.357-1.143-0.536-1.719
			c-0.176-0.577-0.367-1.149-0.595-1.708l-0.655-1.702l0.983,1.541l0.491,0.779l0.42,0.816c0.276,0.546,0.571,1.089,0.834,1.646
			l0.714,1.703c0.252,0.566,0.434,1.153,0.638,1.736c0.19,0.586,0.426,1.165,0.575,1.763l0.479,1.792l0.399,1.812
			c0.259,1.21,0.464,2.435,0.607,3.665c0.156,1.229,0.259,2.464,0.342,3.703c0.068,1.238,0.113,2.48,0.081,3.725
			c-0.011,0.622-0.029,1.245-0.064,1.87c-0.033,0.632-0.075,1.235-0.146,1.913l-0.776,1.159l-1.697,0.878
			c-0.558,0.262-1.096,0.476-1.646,0.712c-1.104,0.469-2.199,0.84-3.298,1.248c-1.098,0.413-2.197,0.766-3.297,1.146
			c-1.101,0.375-2.196,0.751-3.306,1.082c-4.427,1.366-8.857,2.675-13.331,3.833c-2.229,0.606-4.467,1.173-6.714,1.708
			c-2.244,0.547-4.488,1.086-6.748,1.57c-2.252,0.513-4.518,0.974-6.784,1.426C319.49,350.984,317.212,351.394,314.923,351.755z"/>
	</g>
	<g>
		<path fill="#101719" d="M221.543,354.763c-0.436,0.677-0.833,1.382-1.213,2.091c-0.384,0.707-0.753,1.421-1.089,2.147
			c-0.342,0.724-0.653,1.458-0.956,2.192c-0.278,0.744-0.554,1.485-0.765,2.241c-0.123,0.374-0.221,0.751-0.308,1.131
			c-0.083,0.379-0.206,0.752-0.25,1.134l-0.181,1.136l-0.066,1.131c-0.046,0.377,0.023,0.743,0.03,1.112l0.024,0.55l0.101,0.532
			c0.088,0.347,0.088,0.721,0.239,1.042l0.358,0.989l-1.564-0.656c2.218-0.943,4.422-1.731,6.673-2.467
			c2.245-0.732,4.502-1.43,6.792-2.006c2.283-0.6,4.581-1.153,6.899-1.613c2.32-0.445,4.648-0.863,6.999-1.128
			c2.346-0.296,4.704-0.499,7.067-0.597c1.18-0.065,2.361-0.101,3.544-0.095c1.182,0.001,2.361-0.042,3.542,0.015
			c1.181,0.046,2.359,0.049,3.537,0.13l3.527,0.259l3.514,0.363c1.171,0.112,2.331,0.333,3.498,0.477
			c1.168,0.139,2.323,0.372,3.476,0.608c1.157,0.213,2.319,0.409,3.456,0.722c1.138,0.302,2.296,0.532,3.423,0.878l3.384,1.042
			l3.327,1.236l0.833,0.312l0.806,0.375l1.614,0.751l1.615,0.759l1.553,0.881c1.022,0.609,2.115,1.119,3.072,1.835l2.959,2.038
			l2.757,2.313c0.952,0.742,1.74,1.653,2.59,2.504c0.835,0.865,1.696,1.711,2.414,2.677l2.247,2.826l1.978,3.014
			c0.325,0.506,0.666,1.003,0.979,1.516l0.85,1.587l1.697,3.179l-2.415-0.827c1.156-0.627,2.341-1.306,3.498-1.987l3.459-2.089
			c2.296-1.406,4.54-2.885,6.7-4.446c2.167-1.542,4.27-3.18,6.064-4.998c0.451-0.453,0.861-0.922,1.262-1.394l0.556-0.715
			l0.48-0.726c0.265-0.483,0.511-0.971,0.605-1.41c0.15-0.457,0.078-0.808,0.035-1.163l0.398,0.642
			c-1.937-2.011-3.843-4.051-5.756-6.084l-2.858-3.059c-0.945-1.028-1.868-2.083-2.803-3.122c-1.853-2.096-3.711-4.185-5.529-6.307
			c-1.816-2.124-3.656-4.222-5.432-6.374l-0.112-0.136l0.24-0.218l0.132,0.117c2.096,1.86,4.127,3.773,6.182,5.661
			c2.054,1.889,4.066,3.813,6.086,5.728c1.007,0.96,2,1.932,3.019,2.882l3.052,2.856c2.027,1.911,4.062,3.814,6.065,5.748
			l0.398,0.642c0.288,0.961,0.363,2.01,0.146,2.883c-0.17,0.904-0.517,1.664-0.88,2.39l-0.605,1.011l-0.661,0.933
			c-0.467,0.583-0.944,1.152-1.445,1.679c-1.999,2.119-4.19,3.895-6.43,5.574c-2.263,1.646-4.596,3.155-6.961,4.598
			c-1.181,0.726-2.389,1.402-3.6,2.073c-1.217,0.669-2.422,1.315-3.686,1.954l-2.415-0.827l-1.519-3.048l-0.759-1.527
			c-0.28-0.492-0.589-0.968-0.882-1.453l-1.782-2.9l-2.028-2.728c-0.638-0.944-1.416-1.768-2.169-2.615
			c-0.775-0.826-1.451-1.754-2.312-2.498l-2.464-2.361l-2.661-2.149c-0.861-0.759-1.865-1.317-2.801-1.979l-1.431-0.958
			l-1.506-0.833c-1.983-1.171-4.101-2.086-6.217-3.017l-3.274-1.145c-1.089-0.394-2.229-0.625-3.343-0.937
			c-1.114-0.322-2.255-0.532-3.394-0.75c-1.14-0.213-2.279-0.424-3.435-0.54c-2.294-0.349-4.619-0.425-6.932-0.545l-3.478,0.033
			c-1.157,0.016-2.315,0.11-3.47,0.16c-1.156,0.04-2.309,0.177-3.46,0.28c-1.152,0.093-2.3,0.239-3.447,0.393
			c-1.147,0.135-2.293,0.277-3.433,0.471c-1.141,0.188-2.287,0.315-3.423,0.532c-2.275,0.394-4.551,0.778-6.814,1.242
			c-2.264,0.456-4.53,0.911-6.774,1.464c-2.248,0.538-4.484,1.125-6.714,1.738c-2.218,0.626-4.452,1.312-6.597,2.039l-1.564-0.655
			l-0.388-1.326c-0.154-0.437-0.142-0.896-0.216-1.341l-0.074-0.671l0.011-0.665c0.024-0.441-0.004-0.89,0.082-1.316l0.194-1.288
			l0.313-1.245c0.089-0.419,0.255-0.809,0.383-1.212c0.132-0.402,0.271-0.799,0.447-1.18c0.315-0.778,0.691-1.522,1.067-2.262
			l0.606-1.084c0.195-0.365,0.434-0.704,0.648-1.055c0.889-1.389,1.862-2.711,2.954-3.937l0.117-0.131l0.257,0.197L221.543,354.763z
			"/>
	</g>
	<linearGradient id="SVGID_4_" gradientUnits="userSpaceOnUse" x1="306.0703" y1="61.5308" x2="313.2601" y2="290.316">
		<stop  offset="0" style="stop-color:#EC2224"/>
		<stop  offset="0.5091" style="stop-color:#D51F26"/>
		<stop  offset="1" style="stop-color:#B52025"/>
	</linearGradient>
	<path fill="url(#SVGID_4_)" d="M216.353,356.265c93.605-1.955,232.27-66.309,191.68-183.785
		c-11.068-23.686,0.352-39.461,0.352-39.461s-35.826-21.51,1.609-58.113c0,0-8.391-36.76,13.152-33.732l-0.146-0.672
		c0,0-22.348-45.539-104.322-24.84c-24.199,4.713-46.766,21.451-56.701,44.26c-8.76,20.117-8.016,41.141-19.494,60.959
		c-11.861,20.473-29.051,35.498-47.021,49.91l-1.404,1.127c-16.324,66.619,84.34,64.957,113.082,27.688
		c0,0,3.613,31.346,38.266,14.605h0.006c2.566,21.693-5.861,42.754-5.861,42.754c-15.094,31.314-36.449,55.865-66.189,74.289
		C255.653,342.212,236.218,350.193,216.353,356.265z"/>
	<linearGradient id="SVGID_5_" gradientUnits="userSpaceOnUse" x1="285.7832" y1="138.5176" x2="180.6938" y2="332.4175">
		<stop  offset="0" style="stop-color:#5C9240"/>
		<stop  offset="1" style="stop-color:#70BE44"/>
	</linearGradient>
	<path fill="url(#SVGID_5_)" d="M191.606,173.871c-16.77,13.328-33.922,26.426-47.836,43.17c-6.398,7.707-12.303,15.879-17.5,24.449
		l0.002,0.002c-1.846,9.66-1.125,20.086,1.777,29.453c11.52,37.18,59.551,49.805,93.445,40.746
		c38.186-10.201,68.301-42.139,89.965-73.705c2.09-3.049,4.123-6.139,6.092-9.27c0,0,5.57,19.887,27.852-9.584l0.404-0.018
		c-0.078-1.623-0.205-3.264-0.404-4.904l0,0c-34.652,16.74-38.266-14.605-38.266-14.605
		c-28.742,37.27-129.406,38.932-113.082-27.688L191.606,173.871z"/>
	<linearGradient id="SVGID_6_" gradientUnits="userSpaceOnUse" x1="302.7227" y1="174.042" x2="124.0336" y2="379.5836">
		<stop  offset="0" style="stop-color:#2F98CD"/>
		<stop  offset="1" style="stop-color:#266AB0"/>
	</linearGradient>
	<path fill="url(#SVGID_6_)" d="M345.403,219.132c-22.281,29.471-27.852,9.584-27.852,9.584c-1.969,3.131-4.002,6.221-6.092,9.27
		c-21.664,31.566-51.779,63.504-89.965,73.705c-33.895,9.059-81.926-3.566-93.445-40.746c-2.902-9.367-3.623-19.793-1.777-29.453
		l-0.002-0.002c-11.611,19.139-19.748,40.281-22.248,62.742c0,0-0.164,1.465-0.807,3.621c-1.137,3.844-83.82,62.781-40.855,66.686
		c19.699,1.793,40.475-0.211,60.076-1.877c31.709-2.693,63.402-7.064,93.916-16.396c19.865-6.072,39.301-14.053,57.006-25.012
		c29.74-18.424,51.096-42.975,66.189-74.289c0,0,7.199-17.99,6.26-37.85L345.403,219.132z"/>
	<path fill="#FCF9F5" d="M409.993,131.146l-6.738-19l3.543-17.195l4.244-18.412l-3.01-7.811c0,0-22.91,56.635-69.719,57.531
		c0,0,19.18,44.266,64.941,23.988h-0.012c0.49-10.805,5.141-17.229,5.141-17.229L409.993,131.146z"/>
	<path fill="#15282A" d="M465.569,148.91c0.988-3.23-7.416-25.701-31.277-17.926c-8.768,2.859-16.584,4.359-25.908,2.035
		c0,0-35.826-21.51,1.609-58.113c3.18-0.336,6.553,0.336,9.35,1.871c2.719,1.486,4.813,3.799,6.23,6.537
		c0.98,1.9,1.604,3.971,2.021,6.068c0.764,3.885-0.012,7.561,3.137,10.49c3.016,2.807,7.217,3.854,11.244,3.854
		C441.976,103.726,464.892,99.134,465.569,148.91z"/>
	<path fill="#FCF9F5" d="M465.569,148.91c25.859-84.607-29.533-102.863-29.533-102.863c-5.184-2.869-9.422-4.387-12.891-4.873
		c-21.543-3.027-13.152,33.732-13.152,33.732c3.18-0.336,6.553,0.336,9.35,1.871c2.719,1.486,4.813,3.799,6.23,6.537
		c0.98,1.9,1.604,3.971,2.021,6.068c0.764,3.885-0.012,7.561,3.137,10.49c3.016,2.807,7.217,3.854,11.244,3.854
		C441.976,103.726,464.892,99.134,465.569,148.91z"/>
	<g>
		<path fill="#101719" d="M122.418,372.467c0,0,1.349-0.137,3.877-0.393c2.525-0.277,6.243-0.583,10.949-1.157
			c2.354-0.277,4.959-0.584,7.796-0.918c2.835-0.347,5.892-0.801,9.163-1.242c3.274-0.418,6.738-0.999,10.392-1.59
			c1.826-0.299,3.699-0.606,5.617-0.92c1.909-0.36,3.862-0.729,5.856-1.106c1.992-0.386,4.034-0.74,6.1-1.175
			c2.061-0.453,4.162-0.916,6.298-1.385c4.287-0.877,8.653-2.054,13.157-3.195c1.124-0.294,2.263-0.562,3.395-0.882
			c1.129-0.332,2.265-0.666,3.408-1.002c2.287-0.668,4.602-1.344,6.942-2.028c2.31-0.707,4.671-1.512,7.041-2.274
			c2.369-0.782,4.71-1.656,7.098-2.49c9.504-3.47,19.146-7.565,28.568-12.437c2.366-1.196,4.669-2.534,7.018-3.799
			c2.326-1.307,4.591-2.732,6.896-4.097c1.106-0.66,2.255-1.456,3.381-2.178c1.121-0.749,2.292-1.459,3.372-2.24
			c2.179-1.555,4.398-3.04,6.515-4.704c4.322-3.195,8.381-6.721,12.368-10.278c3.887-3.667,7.708-7.38,11.192-11.347
			c7.078-7.833,13.242-16.237,18.54-24.776c2.711-4.233,5.125-8.554,7.424-12.815c0.549-1.08,1.095-2.153,1.637-3.221l0.81-1.599
			l0.402-0.795l0.101-0.199l0.05-0.099c-0.102,0.233-0.004,0.004-0.017,0.03l0.151-0.393c0.813-2.152,1.543-4.372,2.188-6.561
			c1.29-4.393,2.275-8.751,2.966-13.004c0.713-4.249,1.133-8.398,1.243-12.385c0.207-7.964-0.682-15.311-2.744-21.443
			c-1.981-6.164-4.953-11.07-7.891-14.69c-0.768-0.878-1.442-1.763-2.174-2.504c-0.74-0.736-1.435-1.426-2.08-2.068
			c-0.652-0.637-1.332-1.141-1.915-1.65c-0.6-0.489-1.114-0.977-1.624-1.348c-2.057-1.473-3.153-2.258-3.153-2.258l-0.159-0.114
			l0.193-0.322l0.167,0.101c0,0,1.165,0.708,3.35,2.036c1.053,0.723,2.337,1.651,3.796,2.808c0.699,0.617,1.451,1.279,2.253,1.986
			c0.797,0.716,1.543,1.579,2.389,2.438c0.431,0.424,0.83,0.896,1.22,1.398c0.399,0.495,0.809,1.001,1.228,1.521
			c0.438,0.506,0.806,1.082,1.2,1.658c0.393,0.58,0.793,1.171,1.202,1.775c1.466,2.515,2.983,5.309,4.109,8.496
			c2.399,6.314,3.748,13.938,3.759,22.224c0.017,8.292-1.209,17.235-3.698,26.377c-0.632,2.29-1.314,4.58-2.164,6.911l-0.168,0.445
			l-0.1,0.238l-0.051,0.102l-0.101,0.203l-0.404,0.814l-0.813,1.635c-0.546,1.092-1.095,2.19-1.646,3.295
			c-2.313,4.364-4.748,8.792-7.488,13.139c-5.5,8.676-11.877,17.233-19.271,25.099c-3.632,3.992-7.598,7.72-11.628,11.392
			c-4.129,3.562-8.329,7.081-12.783,10.259c-2.169,1.658-4.477,3.161-6.729,4.72c-1.127,0.789-2.282,1.467-3.42,2.206
			c-1.16,0.721-2.243,1.454-3.464,2.165c-2.359,1.354-4.678,2.768-7.053,4.062c-2.398,1.251-4.75,2.574-7.162,3.753
			c-9.608,4.804-19.395,8.804-29.029,12.176c-2.421,0.81-4.815,1.666-7.198,2.416c-2.392,0.735-4.723,1.495-7.099,2.188
			c-2.365,0.656-4.703,1.305-7.014,1.947c-1.156,0.318-2.304,0.635-3.445,0.949c-1.145,0.302-2.294,0.551-3.43,0.826
			c-4.548,1.066-8.956,2.168-13.277,2.972c-2.153,0.433-4.27,0.859-6.347,1.277c-2.081,0.399-4.136,0.717-6.142,1.068
			c-2.007,0.342-3.973,0.676-5.894,1.003c-1.928,0.28-3.811,0.554-5.647,0.821c-3.673,0.526-7.153,1.046-10.441,1.406
			c-3.284,0.383-6.353,0.782-9.198,1.078c-2.847,0.284-5.462,0.544-7.824,0.78c-4.722,0.49-8.44,0.728-10.971,0.96
			c-2.532,0.21-3.883,0.322-3.883,0.322l-0.195,0.016l-0.036-0.385L122.418,372.467z"/>
	</g>
	<g>
		<path fill="#101719" d="M104.215,304.261c0,0-0.022,0.155-0.064,0.456c-0.032,0.302-0.11,0.747-0.253,1.326
			c-0.065,0.29-0.139,0.614-0.219,0.971c-0.041,0.179-0.083,0.366-0.127,0.561c-0.022,0.098-0.044,0.197-0.067,0.298
			c-0.049,0.175-0.089,0.208-0.141,0.324c-0.58,0.823-1.263,1.435-2.071,2.219c-3.218,3.018-7.997,7.082-13.618,12.083
			c-2.811,2.498-5.837,5.224-8.983,8.16c-3.139,2.943-6.438,6.055-9.711,9.401c-3.271,3.343-6.563,6.887-9.597,10.696
			c-1.513,1.905-2.959,3.88-4.238,5.938c-1.268,2.053-2.414,4.203-3.05,6.392c-0.645,2.178-0.684,4.382,0.408,5.851
			c1.063,1.506,3.122,2.45,5.298,2.979c1.103,0.257,2.235,0.45,3.388,0.568c0.569,0.047,1.178,0.125,1.708,0.147
			c0.608,0.035,1.214,0.069,1.818,0.103c2.408,0.11,4.829,0.338,7.126,0.325c2.318,0.05,4.576,0.162,6.825,0.167
			c2.247,0.015,4.444,0.029,6.584,0.042c4.285-0.062,8.342-0.104,12.094-0.218c3.756-0.105,7.2-0.202,10.252-0.288
			c3.057-0.103,5.724-0.168,7.924-0.197c2.2-0.039,3.927-0.093,5.107-0.09c1.18-0.004,1.81-0.007,1.81-0.007l0.196,0l0.031,0.357
			l-0.193,0.033c0,0-0.621,0.104-1.785,0.3c-1.163,0.203-2.874,0.442-5.049,0.777c-2.175,0.338-4.823,0.705-7.861,1.105
			c-1.523,0.179-3.144,0.37-4.852,0.572c-1.708,0.205-3.507,0.407-5.392,0.559c-1.883,0.161-3.841,0.364-5.877,0.508
			c-2.038,0.119-4.145,0.241-6.311,0.367c-2.17,0.098-4.404,0.13-6.687,0.179c-2.279,0.072-4.645-0.069-7.031-0.101
			c-2.41-0.039-4.753-0.319-7.179-0.481c-0.604-0.047-1.208-0.095-1.815-0.143c-0.686-0.043-1.286-0.159-1.934-0.237
			c-1.275-0.185-2.563-0.455-3.853-0.813c-1.287-0.398-2.587-0.848-3.833-1.6c-1.237-0.723-2.457-1.7-3.324-3.04
			c-0.875-1.329-1.295-2.944-1.297-4.435c-0.012-1.501,0.298-2.898,0.715-4.205c0.853-2.616,2.181-4.891,3.593-7.045
			c1.425-2.148,2.988-4.152,4.603-6.069c3.237-3.828,6.678-7.32,10.084-10.603c3.414-3.275,6.797-6.338,10.074-9.161
			c3.273-2.825,6.412-5.439,9.324-7.831c5.819-4.786,10.757-8.665,14.062-11.531c0.803-0.702,1.582-1.416,2.022-1.964
			c0.04-0.074,0.126-0.217,0.123-0.242c0.026-0.098,0.052-0.194,0.077-0.288c0.05-0.188,0.098-0.368,0.144-0.541
			c0.092-0.345,0.176-0.658,0.251-0.939c0.163-0.558,0.258-0.997,0.301-1.3c0.055-0.299,0.083-0.454,0.083-0.454l0.035-0.192
			l0.379,0.057L104.215,304.261z"/>
	</g>
	<g>
		<path fill="#101719" d="M422.825,40.59c0,0-0.886-1.687-3.144-4.445c-2.223-2.763-5.846-6.586-11.242-10.407
			c-5.369-3.844-12.581-7.536-21.376-10.144c-8.815-2.513-19.181-3.946-30.502-3.624c-11.326,0.167-23.542,2.07-36.22,5.062
			c-1.615,0.352-3.241,0.707-4.878,1.064c-0.83,0.158-1.599,0.388-2.378,0.607c-0.781,0.219-1.565,0.438-2.352,0.658
			c-1.57,0.468-3.143,1.038-4.731,1.556c-1.556,0.614-3.126,1.228-4.687,1.888c-6.2,2.74-12.209,6.326-17.757,10.716
			c-5.531,4.396-10.677,9.569-14.794,15.613c-1.016,1.517-2.076,3.016-2.949,4.635c-0.45,0.801-0.922,1.592-1.356,2.405
			l-1.203,2.493c-0.849,1.639-1.474,3.386-2.21,5.119c-0.623,1.752-1.297,3.477-1.817,5.281c-2.269,7.141-3.735,14.579-5.371,22.026
			c-0.797,3.73-1.674,7.462-2.675,11.175c-1.06,3.699-2.236,7.382-3.71,10.967c-1.511,3.563-3.137,7.107-5.231,10.395l-2.972,4.895
			c-1.037,1.612-2.216,3.17-3.322,4.756c-2.183,3.227-4.742,6.075-7.146,9.066c-1.233,1.465-2.57,2.831-3.847,4.248
			c-1.294,1.401-2.559,2.829-3.934,4.137c-10.729,10.766-22.417,20.048-33.575,29.021c-11.16,8.979-21.919,17.624-31.185,26.758
			c-4.634,4.568-8.872,9.232-12.787,13.939c-2.01,2.373-3.811,4.748-5.63,7.068c-1.741,2.387-3.513,4.691-5.092,7.054
			c-6.501,9.336-11.556,18.492-15.51,26.848c-3.954,8.366-6.619,16.01-8.514,22.386c-0.239,0.797-0.472,1.573-0.698,2.328
			c-0.218,0.757-0.388,1.502-0.576,2.219c-0.363,1.439-0.704,2.788-1.021,4.042c-0.516,2.535-0.996,4.688-1.314,6.447
			c-0.59,3.53-0.905,5.412-0.905,5.412l-0.033,0.193l-0.375-0.042l0.02-0.194c0,0,0.195-1.907,0.56-5.481
			c0.208-1.786,0.592-3.969,0.975-6.552c0.253-1.28,0.526-2.656,0.816-4.124c0.152-0.733,0.285-1.495,0.465-2.269
			c0.188-0.772,0.382-1.567,0.582-2.384c1.562-6.543,4.044-14.365,7.71-23.012c0.463-1.079,0.933-2.175,1.411-3.289
			c0.516-1.096,1.04-2.208,1.571-3.337c1.021-2.28,2.265-4.527,3.476-6.869c2.541-4.615,5.317-9.421,8.535-14.229
			c1.552-2.443,3.296-4.824,5.015-7.297c1.804-2.419,3.624-4.928,5.557-7.319c3.871-4.899,8.234-9.709,12.897-14.43
			c2.338-2.356,4.818-4.623,7.277-6.975c2.56-2.228,5.112-4.539,7.775-6.759c5.31-4.462,10.82-8.904,16.481-13.3
			c11.3-8.828,22.951-17.904,33.669-28.296c1.384-1.257,2.65-2.625,3.95-3.97c1.282-1.359,2.628-2.67,3.866-4.077
			c2.407-2.863,5.004-5.625,7.16-8.67c1.119-1.503,2.304-2.944,3.384-4.502l3.139-4.79c2.125-3.088,3.817-6.47,5.408-9.884
			c1.54-3.446,2.801-7.02,3.954-10.631c1.094-3.632,2.08-7.303,2.979-10.998c1.778-7.392,3.352-14.846,5.656-22.059
			c0.272-0.905,0.57-1.803,0.902-2.693l0.947-2.677c0.715-1.72,1.341-3.507,2.195-5.191l1.206-2.549
			c0.436-0.831,0.909-1.64,1.361-2.459c0.862-1.666,1.899-3.219,2.903-4.789c4.096-6.225,9.094-11.736,14.612-16.452
			c5.521-4.718,11.577-8.636,17.893-11.702c1.59-0.742,3.193-1.437,4.787-2.131c1.635-0.595,3.228-1.255,4.876-1.787
			c0.832-0.25,1.662-0.5,2.489-0.749c0.828-0.25,1.658-0.509,2.462-0.679c1.609-0.384,3.208-0.766,4.796-1.145
			c3.221-0.775,6.393-1.563,9.566-2.132c1.584-0.295,3.145-0.643,4.713-0.888c1.571-0.233,3.129-0.464,4.674-0.694
			c6.194-0.798,12.225-1.34,18.038-1.34c11.618-0.123,22.306,1.545,31.314,4.455c4.502,1.473,8.578,3.25,12.185,5.187
			c3.611,1.928,6.762,4.008,9.405,6.131c5.315,4.223,8.802,8.3,10.885,11.247c2.087,2.955,2.868,4.741,2.868,4.741l0.079,0.179
			l-0.336,0.17L422.825,40.59z"/>
	</g>
	<g>
		<path fill="#101719" d="M423.185,40.982l1.704,0.302l0.853,0.151c0.286,0.037,0.563,0.15,0.844,0.222l1.687,0.492l0.844,0.251
			l0.813,0.318c1.073,0.444,2.191,0.806,3.229,1.331l3.143,1.522l-0.093-0.041c2.407,0.819,4.641,1.891,6.83,3.099
			c2.186,1.204,4.268,2.589,6.274,4.077c2.025,1.468,3.889,3.145,5.708,4.865c1.762,1.778,3.472,3.62,5.01,5.603
			c0.767,0.993,1.554,1.974,2.237,3.028c0.713,1.034,1.427,2.069,2.046,3.163c0.648,1.076,1.302,2.152,1.852,3.283
			c0.57,1.12,1.181,2.224,1.654,3.389c1.063,2.283,1.913,4.651,2.734,7.03l1.074,3.618c0.344,1.21,0.581,2.445,0.877,3.668
			c0.31,1.223,0.516,2.461,0.72,3.702c0.188,1.241,0.472,2.476,0.58,3.727l0.396,3.75c0.144,1.251,0.137,2.506,0.193,3.761
			c0.152,2.512,0.011,5.017-0.084,7.521c-0.111,2.503-0.464,4.983-0.725,7.467c-0.399,2.464-0.778,4.931-1.277,7.371
			c-0.56,2.426-1.082,4.859-1.746,7.252c-0.701,2.383-1.391,4.767-2.181,7.113c-0.846,2.332-1.706,4.654-2.624,6.948l-0.072,0.182
			l-0.335-0.103l0.034-0.194c0.422-2.44,0.901-4.853,1.396-7.256l1.271-7.238c0.24-1.197,0.348-2.418,0.528-3.624l0.528-3.616
			l0.78-7.246l0.213-3.627c0.076-1.207,0.201-2.413,0.189-3.621c0.048-2.414,0.167-4.827,0.077-7.234
			c-0.044-1.203,0.015-2.414-0.08-3.612l-0.221-3.604c-0.044-1.207-0.259-2.391-0.379-3.589l-0.214-1.794
			c-0.074-0.598-0.212-1.183-0.314-1.776c-0.234-1.178-0.412-2.373-0.693-3.542l-0.886-3.498c-0.706-2.297-1.437-4.593-2.375-6.81
			c-0.412-1.133-0.959-2.205-1.467-3.296c-0.486-1.104-1.075-2.152-1.659-3.205c-0.556-1.071-1.204-2.085-1.854-3.1
			c-0.618-1.037-1.341-2.001-2.043-2.982c-1.409-1.958-2.991-3.786-4.629-5.563c-1.702-1.712-3.427-3.418-5.322-4.929
			c-1.877-1.529-3.839-2.968-5.911-4.234c-2.06-1.267-4.236-2.426-6.453-3.295l-0.093-0.041l-3.02-1.636
			c-0.498-0.289-1.02-0.52-1.543-0.751l-1.563-0.709l-0.782-0.356l-0.802-0.286l-1.611-0.566c-0.272-0.085-0.529-0.21-0.815-0.263
			l-0.844-0.196l-1.688-0.393l-0.189-0.044l0.075-0.373L423.185,40.982z"/>
	</g>
	<g>
		<path fill="#101719" d="M408.281,133.186c-1.354-0.576-2.629-1.311-3.848-2.134c-1.23-0.809-2.384-1.733-3.492-2.716
			c-1.109-0.984-2.123-2.076-3.112-3.199c-0.932-1.168-1.834-2.373-2.623-3.663c-0.384-0.65-0.774-1.298-1.099-1.985
			c-0.35-0.674-0.667-1.364-0.937-2.077l-0.423-1.061l-0.334-1.095l-0.315-1.1l-0.222-1.124l-0.205-1.125l-0.099-1.141
			c-0.079-0.758-0.103-1.518-0.067-2.278c0.014-0.758,0.021-1.514,0.143-2.262c0.113-0.747,0.146-1.497,0.328-2.226l0.48-2.181
			l0.634-2.124c0.176-0.714,0.482-1.387,0.717-2.079l0.368-1.032c0.129-0.341,0.285-0.671,0.427-1.007l0.832-2.019l0.944-1.965
			c0.575-1.342,1.366-2.561,2.006-3.877c0.733-1.254,1.469-2.517,2.229-3.769c0.817-1.204,1.599-2.451,2.459-3.635
			c0.886-1.16,1.766-2.337,2.711-3.452l2.943-3.25l-0.5,1.699c-0.235-0.938-0.426-1.813-0.611-2.721
			c-0.185-0.9-0.353-1.802-0.496-2.709c-0.285-1.813-0.547-3.636-0.674-5.479c-0.138-1.841-0.197-3.695-0.108-5.561
			c0.044-0.934,0.092-1.866,0.216-2.802c0.095-0.933,0.246-1.871,0.423-2.801c0.2-0.932,0.417-1.86,0.703-2.782
			c0.29-0.919,0.595-1.84,1.041-2.722c0.202-0.445,0.415-0.886,0.682-1.311c0.254-0.427,0.484-0.86,0.801-1.258
			c0.563-0.824,1.267-1.568,2.027-2.229c0.769-0.66,1.63-1.21,2.543-1.62c0.471-0.174,0.928-0.375,1.399-0.51
			c0.482-0.106,0.959-0.217,1.434-0.307c0.968-0.072,1.915-0.155,2.849-0.023c0.936,0.028,1.832,0.324,2.719,0.505l0.191,0.039
			l-0.047,0.337l-0.199,0.011l-1.336,0.072c-0.441,0.001-0.876,0.059-1.306,0.136c-0.865,0.092-1.686,0.334-2.482,0.57l-1.135,0.484
			c-0.363,0.182-0.695,0.417-1.039,0.615c-0.646,0.467-1.247,0.972-1.755,1.572c-0.512,0.595-0.941,1.257-1.317,1.958
			c-0.211,0.331-0.354,0.716-0.517,1.081c-0.173,0.358-0.304,0.745-0.426,1.135c-0.137,0.382-0.254,0.771-0.35,1.175
			c-0.101,0.401-0.228,0.787-0.295,1.202c-0.178,0.811-0.296,1.642-0.402,2.476c-0.073,0.844-0.176,1.681-0.208,2.536
			c-0.057,0.847-0.06,1.708-0.079,2.565c-0.018,1.717,0.051,3.449,0.141,5.183c0.047,0.867,0.11,1.736,0.172,2.606
			c0.066,0.87,0.149,1.74,0.247,2.609c0.099,0.869,0.203,1.738,0.323,2.604c0.119,0.858,0.256,1.745,0.405,2.558l-0.5,1.699
			l-3.06,2.914l-2.991,2.988c-0.992,1.004-1.908,2.073-2.874,3.114c-0.901,1.084-1.787,2.19-2.627,3.331
			c-0.398,0.583-0.779,1.179-1.16,1.775l-0.574,0.895c-0.175,0.307-0.335,0.622-0.495,0.937l-0.967,1.889
			c-0.283,0.646-0.524,1.311-0.786,1.966c-0.265,0.655-0.477,1.327-0.634,2.015c-0.158,0.686-0.389,1.353-0.487,2.048l-0.295,2.076
			c-0.054,0.695-0.062,1.393-0.095,2.082c-0.003,1.382,0.063,2.754,0.257,4.1c0.045,0.336,0.071,0.674,0.129,1.007l0.201,0.994
			l0.184,0.992l0.253,0.976l0.236,0.978l0.304,0.959l0.291,0.963l0.354,0.945c0.214,0.638,0.488,1.253,0.77,1.869
			c0.253,0.627,0.575,1.225,0.888,1.828c0.605,1.218,1.33,2.381,2.09,3.526c0.774,1.137,1.582,2.267,2.478,3.334
			c0.862,1.1,1.812,2.134,2.778,3.167c0.982,1.013,1.986,2.033,3.06,2.984l0.148,0.131l-0.172,0.279L408.281,133.186z"/>
	</g>
	<g>
		<path fill="#101719" d="M408.544,133.13c-0.435,0.728-0.827,1.477-1.167,2.256c-0.368,0.763-0.645,1.57-0.96,2.353
			c-0.265,0.805-0.577,1.59-0.78,2.413c-0.231,0.813-0.459,1.625-0.609,2.457c-0.181,0.823-0.349,1.647-0.439,2.486
			c-0.11,0.834-0.25,1.662-0.274,2.505c-0.034,0.84-0.14,1.672-0.117,2.512l0.018,2.511c0.043,0.835,0.141,1.668,0.207,2.5
			c0.043,0.416,0.06,0.833,0.123,1.246l0.216,1.236c0.151,0.822,0.266,1.648,0.446,2.463l0.62,2.428l0.313,1.21l0.413,1.185
			l0.821,2.366c0.272,0.788,0.662,1.536,0.986,2.305l1.009,2.293l0.058,0.143c2.187,6.148,4.039,12.438,5.312,18.866l0.482,2.409
			c0.154,0.804,0.262,1.617,0.395,2.426c0.25,1.62,0.531,3.236,0.684,4.87c0.373,3.259,0.583,6.539,0.663,9.819
			c0.049,3.283-0.053,6.568-0.319,9.838c-0.294,3.269-0.73,6.522-1.338,9.741c-1.194,6.442-3.021,12.749-5.407,18.814
			c-4.758,12.142-11.473,23.412-19.582,33.565c-4.043,5.089-8.415,9.923-13.083,14.461c-4.663,4.541-9.567,8.853-14.752,12.802
			c-5.182,3.951-10.536,7.687-16.101,11.081c-5.554,3.412-11.258,6.575-17.076,9.509c-5.814,2.941-11.751,5.644-17.801,8.06
			c-6.034,2.456-12.184,4.617-18.394,6.567c-6.203,1.977-12.498,3.65-18.832,5.125c-6.335,1.469-12.713,2.749-19.132,3.763
			c-6.426,0.973-12.881,1.723-19.352,2.227c-6.474,0.45-12.962,0.682-19.438,0.519l-0.195-0.005l-0.008-0.372l0.195-0.014
			c6.449-0.446,12.872-1.068,19.255-1.958c6.388-0.838,12.739-1.917,19.039-3.214c6.307-1.257,12.577-2.69,18.783-4.354
			c6.208-1.659,12.35-3.54,18.45-5.534c6.092-2.021,12.11-4.251,18.072-6.615c5.947-2.401,11.829-4.963,17.609-7.738
			c5.776-2.783,11.443-5.794,16.965-9.05c5.51-3.274,10.936-6.699,16.14-10.448c5.198-3.75,10.283-7.675,15.073-11.953
			c4.785-4.279,9.33-8.844,13.486-13.752c8.281-9.822,14.985-21.083,19.066-33.256c2.038-6.079,3.491-12.335,4.345-18.656
			c0.434-3.16,0.698-6.339,0.825-9.52c0.154-3.178,0.171-6.362,0.045-9.541c-0.096-3.178-0.317-6.355-0.695-9.516
			c-0.127-1.587-0.381-3.161-0.604-4.738c-0.119-0.787-0.213-1.579-0.353-2.363l-0.44-2.35c-1.199-6.262-2.783-12.463-4.772-18.549
			l0.058,0.143l-0.978-2.45c-0.308-0.823-0.678-1.621-0.933-2.463l-0.762-2.527l-0.379-1.262l-0.279-1.291l-0.544-2.582
			c-0.151-0.866-0.219-1.748-0.331-2.619l-0.151-1.309c-0.042-0.437-0.037-0.879-0.058-1.318c-0.021-0.879-0.072-1.756-0.068-2.633
			l0.129-2.63c0.044-0.875,0.217-1.742,0.319-2.609c0.093-0.871,0.301-1.724,0.481-2.579c0.16-0.859,0.397-1.7,0.648-2.536
			c0.221-0.844,0.519-1.664,0.819-2.481c0.271-0.826,0.654-1.613,0.987-2.414c0.377-0.784,0.758-1.564,1.205-2.31
			c0.423-0.754,0.903-1.486,1.421-2.183l0.116-0.157l0.305,0.212L408.544,133.13z"/>
	</g>
	<path fill="#FCF9F5" d="M385.866,85.332c-10.492,18.238-36.17,24.012-54.893,17.102c-10.945-4.037-19.24-12.941-25.139-22.746
		c0,0-13.023-25.551,14.326-38.514c0,0,66.59-25.996,72.771,10.475C393.628,63.009,391.575,75.406,385.866,85.332"/>
	<g>
		<path fill="#101719" d="M465.378,148.872c-0.014,0.009,0.074-0.291,0.029-0.72c-0.042-0.467-0.179-1.174-0.463-2.039
			c-0.569-1.727-1.688-4.139-3.573-6.62c-1.875-2.472-4.564-4.998-7.965-6.664c-1.697-0.83-3.563-1.425-5.507-1.727
			c-1.944-0.306-3.959-0.318-5.952-0.096c-1.993,0.22-3.969,0.694-5.852,1.355c-0.979,0.343-1.948,0.685-2.907,1.021
			c-0.486,0.166-0.971,0.331-1.45,0.494c-0.505,0.145-1.006,0.288-1.503,0.43c-1.006,0.254-1.985,0.549-2.974,0.694
			c-0.985,0.164-1.928,0.392-2.888,0.449c-0.953,0.084-1.874,0.181-2.769,0.243c-0.899-0.007-1.77-0.013-2.604-0.02
			c-0.83,0.029-1.63-0.136-2.382-0.203c-0.752-0.108-1.467-0.122-2.123-0.311c-1.314-0.32-2.458-0.521-3.36-0.869
			c-1.813-0.65-2.799-1.084-2.799-1.084l-0.182-0.08l0.074-0.297l0.201-0.002c0,0,1.101-0.01,2.941,0.083
			c0.457,0.044,0.972,0.017,1.526-0.002c0.55-0.008,1.145-0.016,1.779-0.025c0.63,0.013,1.303-0.08,2.005-0.127
			c0.703-0.081,1.437-0.072,2.2-0.206c0.759-0.109,1.55-0.223,2.368-0.341c0.813-0.158,1.651-0.321,2.515-0.489
			c1.712-0.402,3.534-0.812,5.377-1.334c0.468-0.117,0.938-0.235,1.413-0.354c0.488-0.136,0.98-0.273,1.476-0.411
			c1.008-0.283,1.962-0.515,3.059-0.78c2.141-0.507,4.364-0.891,6.624-0.953c2.251-0.095,4.528,0.076,6.701,0.574
			c2.174,0.493,4.232,1.313,6.057,2.366c1.823,1.056,3.428,2.318,4.754,3.686c1.331,1.364,2.415,2.797,3.29,4.185
			c1.742,2.788,2.699,5.365,3.096,7.23c0.203,0.934,0.273,1.685,0.266,2.215c-0.018,0.574-0.129,0.787-0.116,0.799l-0.037,0.191
			l-0.384-0.075L465.378,148.872z"/>
	</g>
	<g>
		<path fill="#101719" d="M465.374,148.915c0,0-0.079-0.883-0.219-2.429c-0.082-0.771-0.13-1.717-0.26-2.784
			c-0.121-1.066-0.259-2.27-0.409-3.582c-0.2-1.308-0.382-2.727-0.638-4.215c-0.284-1.483-0.515-3.057-0.893-4.652
			c-0.321-1.608-0.772-3.236-1.199-4.891c-0.246-0.816-0.494-1.638-0.742-2.464c-0.287-0.809-0.574-1.62-0.861-2.432
			c-0.336-0.787-0.671-1.574-1.006-2.357c-0.382-0.755-0.738-1.521-1.15-2.24c-0.428-0.709-0.817-1.434-1.271-2.092
			c-0.217-0.335-0.432-0.669-0.645-1c-0.228-0.317-0.453-0.632-0.677-0.945c-0.884-1.251-1.799-2.398-2.748-3.396
			c-0.457-0.524-0.968-0.953-1.452-1.384c-0.247-0.211-0.49-0.418-0.729-0.622c-0.253-0.185-0.501-0.366-0.744-0.544
			c-0.993-0.682-1.968-1.24-2.89-1.648c-0.916-0.423-1.771-0.686-2.491-0.886c-0.721-0.192-1.312-0.302-1.717-0.362
			c-0.407-0.063-0.621-0.073-0.621-0.073l-0.201-0.01l-0.059-0.294l0.184-0.079c0,0,0.222-0.095,0.642-0.227
			c0.421-0.133,1.052-0.273,1.876-0.353c0.822-0.078,1.843-0.093,3.002,0.083c1.154,0.18,2.458,0.517,3.792,1.116
			c1.35,0.573,2.692,1.441,3.974,2.507c1.312,1.041,2.471,2.37,3.506,3.823c1.039,1.46,1.844,3.106,2.563,4.792
			c0.357,0.844,0.65,1.713,0.989,2.567c0.276,0.871,0.555,1.745,0.832,2.619c0.239,0.878,0.479,1.757,0.717,2.632
			c0.196,0.881,0.391,1.759,0.584,2.63c0.328,1.748,0.625,3.47,0.806,5.145c0.442,3.341,0.561,6.471,0.655,9.143
			c0.011,1.338,0.021,2.565,0.029,3.653c0.021,1.086-0.038,2.023-0.058,2.801c-0.052,1.551-0.081,2.438-0.081,2.438l-0.007,0.195
			l-0.366,0.011L465.374,148.915z"/>
	</g>
	<g>
		<path fill="#101719" d="M409.987,74.71c0,0,0.759-0.075,2.085-0.207c0.662-0.065,1.508,0.05,2.476,0.096
			c0.496-0.001,0.971,0.177,1.505,0.268c0.52,0.135,1.101,0.186,1.652,0.411c0.559,0.213,1.142,0.436,1.745,0.666l0.229,0.088
			l0.058,0.022l0.08,0.043l0.104,0.054l0.42,0.219c0.279,0.138,0.568,0.296,0.875,0.501c1.225,0.755,2.337,1.698,3.371,2.839
			c1.011,1.139,1.94,2.459,2.624,3.893c0.354,0.621,0.656,1.463,0.978,2.222c0.245,0.76,0.536,1.523,0.724,2.297
			c0.106,0.409,0.223,0.717,0.321,1.212l0.237,1.114c0.128,0.783,0.255,1.563,0.382,2.336c0.256,1.448,0.474,2.736,0.933,3.67
			c0.063,0.273,0.235,0.462,0.351,0.689c0.128,0.217,0.222,0.455,0.406,0.638c0.159,0.201,0.316,0.401,0.472,0.598l0.028,0.038
			l0.015,0.019c-0.038-0.032,0.095,0.085-0.084-0.07l0.012,0.011l0.091,0.086l0.182,0.172l0.357,0.341
			c0.503,0.516,0.868,0.721,1.262,1.044c0.389,0.317,0.878,0.584,1.295,0.872c0.463,0.22,0.894,0.481,1.325,0.697
			c0.446,0.197,0.87,0.383,1.269,0.559c0.822,0.312,1.563,0.587,2.192,0.774c0.624,0.222,1.135,0.33,1.481,0.446
			c0.352,0.107,0.538,0.165,0.538,0.165l0.195,0.06v0.285l-0.195,0.045c0,0-0.192,0.045-0.554,0.129
			c-0.364,0.075-0.902,0.214-1.599,0.263c-0.348,0.026-0.737,0.08-1.163,0.089c-0.428-0.008-0.891-0.017-1.385-0.026
			c-0.498-0.029-1.021-0.125-1.583-0.195c-0.557-0.101-1.141-0.251-1.75-0.417c-0.595-0.236-1.212-0.419-1.869-0.744
			c-0.633-0.352-1.39-0.759-1.857-1.126l-0.404-0.285l-0.204-0.144l-0.102-0.072l-0.013-0.009l-0.104-0.093l-0.027-0.028
			l-0.056-0.056c-0.29-0.304-0.583-0.611-0.88-0.922c-0.316-0.296-0.545-0.677-0.771-1.064c-0.218-0.387-0.49-0.766-0.621-1.186
			c-0.723-1.685-0.77-3.387-0.825-4.898c-0.022-0.802-0.032-1.429-0.076-2.158l-0.112-1.134c-0.013-0.256-0.104-0.682-0.153-1.017
			c-0.107-0.719-0.308-1.398-0.464-2.098c-0.224-0.653-0.348-1.264-0.673-1.98c-0.501-1.314-1.156-2.509-1.927-3.592
			c-0.767-1.07-1.701-2.009-2.614-2.752c-0.213-0.191-0.467-0.377-0.739-0.556l-0.39-0.269l-0.097-0.066
			c-0.003-0.003-0.06-0.039-0.02-0.017l-0.049-0.025l-0.193-0.102c-0.518-0.274-1.018-0.539-1.497-0.793
			c-0.479-0.271-1-0.375-1.466-0.561c-0.476-0.142-0.921-0.375-1.357-0.421c-0.873-0.14-1.623-0.363-2.29-0.399
			c-1.332-0.059-2.093-0.093-2.093-0.093l-0.196-0.009l-0.01-0.362L409.987,74.71z"/>
	</g>
	<path fill="#FCF9F5" d="M382.735,70.054c0,16.887-14.01,30.57-31.291,30.57c-17.279,0-31.283-13.684-31.283-30.57
		c0-16.885,14.004-30.57,31.283-30.57C368.726,39.484,382.735,53.169,382.735,70.054z"/>
	<g>
		<g>
			<path fill="#101719" d="M382.911,70.063c0,0-0.033,0.758-0.094,2.18c0.004,0.711-0.125,1.587-0.286,2.619
				c-0.092,0.512-0.126,1.078-0.252,1.661c-0.135,0.582-0.278,1.2-0.43,1.853c-0.705,2.575-1.71,5.737-3.703,8.983
				c-1.961,3.232-4.766,6.667-8.703,9.368c-3.895,2.729-8.882,4.665-14.326,5.227c-0.678,0.082-1.37,0.058-2.061,0.091l-1.039,0.028
				l-0.521,0.014c-0.054,0,0.027,0.004-0.138-0.001l-0.063-0.004l-0.125-0.009l-0.25-0.018c-1.345-0.128-2.651-0.159-4.118-0.48
				c-2.898-0.443-5.599-1.459-8.281-2.656c-2.659-1.258-5.105-2.964-7.43-4.834c-2.245-1.979-4.296-4.2-6.061-6.682
				c-1.7-2.523-3.091-5.276-4.124-8.191c-0.996-2.932-1.54-6.022-1.708-9.155c0.049-1.631-0.048-3.027,0.211-4.671
				c0.125-1.618,0.521-3.137,0.866-4.682c0.893-3.03,2.205-5.931,3.916-8.572c1.771-2.596,3.882-4.921,6.229-6.931
				c2.41-1.927,4.997-3.59,7.755-4.811c2.764-1.175,5.624-2.075,8.509-2.411c1.429-0.274,2.867-0.27,4.28-0.351l0.266-0.009
				l0.132-0.005l0.066-0.002l0.156,0.004l0.498,0.031l0.993,0.061c0.67,0.055,1.292,0.049,1.99,0.153
				c0.699,0.11,1.395,0.219,2.085,0.328c0.343,0.059,0.69,0.105,1.025,0.174l0.976,0.255c0.646,0.171,1.289,0.34,1.926,0.508
				c0.63,0.19,1.23,0.458,1.837,0.682c2.433,0.893,4.606,2.162,6.573,3.504c3.919,2.749,6.715,6.189,8.685,9.42
				c1.991,3.252,2.999,6.417,3.699,8.996c0.15,0.654,0.293,1.273,0.427,1.855c0.125,0.583,0.157,1.146,0.247,1.658
				c0.157,1.028,0.283,1.902,0.277,2.622c0.057,1.431,0.087,2.194,0.087,2.194V70.063z M382.56,70.054c0,0-0.048-0.753-0.139-2.165
				c-0.011-0.708-0.156-1.568-0.336-2.577c-0.093-0.503-0.156-1.051-0.318-1.615c-0.167-0.562-0.345-1.158-0.532-1.789
				c-0.1-0.313-0.177-0.642-0.302-0.964c-0.131-0.319-0.267-0.647-0.404-0.982c-0.309-0.657-0.539-1.381-0.943-2.062
				c-0.383-0.686-0.782-1.4-1.195-2.142c-0.488-0.69-0.995-1.405-1.518-2.144c-2.205-2.854-5.215-5.657-8.99-7.818
				c-1.908-1.035-3.918-2.068-6.14-2.757c-0.554-0.175-1.104-0.372-1.669-0.536c-0.573-0.136-1.151-0.272-1.733-0.41l-0.875-0.21
				c-0.292-0.053-0.582-0.081-0.873-0.123c-0.582-0.081-1.169-0.163-1.759-0.245c-0.593-0.082-1.292-0.065-1.939-0.103l-0.994-0.037
				l-0.499-0.019c0.021,0-0.135-0.005,0.031,0.001l-0.06,0.004l-0.117,0.008l-0.236,0.015c-1.257,0.089-2.541,0.057-3.81,0.308
				c-2.57,0.283-5.094,1.103-7.598,2.041c-2.487,1.014-4.84,2.435-7.058,4.095c-2.161,1.739-4.103,3.787-5.802,6.063
				c-1.623,2.328-2.958,4.881-3.963,7.596c-0.415,1.382-0.901,2.77-1.115,4.175c-0.352,1.337-0.392,2.995-0.551,4.391
				c-0.036,2.939,0.269,5.898,1.035,8.763c0.864,2.83,2.122,5.531,3.755,7.976c1.705,2.39,3.707,4.542,5.971,6.312
				c2.304,1.717,4.797,3.094,7.384,4.071c2.584,0.917,5.27,1.621,7.825,1.796c1.23,0.203,2.646,0.135,3.972,0.178l0.251,0.006
				l0.125,0.003l0.063,0.002c-0.123-0.002,0-0.003-0.012-0.005l0.477-0.036l0.946-0.07c0.628-0.059,1.257-0.06,1.869-0.164
				c4.935-0.636,9.384-2.321,13.146-4.506c3.757-2.209,6.758-5.018,8.972-7.871c0.522-0.74,1.028-1.457,1.517-2.148
				c0.413-0.742,0.812-1.458,1.194-2.145c0.404-0.682,0.635-1.407,0.943-2.064c0.138-0.336,0.271-0.664,0.403-0.984
				c0.124-0.323,0.2-0.652,0.299-0.965c0.187-0.631,0.363-1.229,0.53-1.791c0.161-0.564,0.223-1.109,0.313-1.612
				c0.083-0.504,0.161-0.97,0.231-1.397c0.076-0.426,0.063-0.83,0.097-1.183c0.085-1.42,0.131-2.178,0.131-2.178V70.054z"/>
		</g>
	</g>
	<path fill="#15282A" d="M372.212,68.939c0,11.232-9.111,20.336-20.344,20.336c-11.242,0-20.35-9.104-20.35-20.336
		c0-11.23,9.107-20.332,20.35-20.332C363.101,48.607,372.212,57.708,372.212,68.939z"/>
	<g>
		<g>
			<path fill="#101719" d="M372.388,68.948c0,0-0.022,0.499-0.065,1.434c-0.004,0.466-0.067,1.045-0.166,1.729
				c-0.053,0.34-0.078,0.713-0.147,1.102c-0.083,0.385-0.171,0.795-0.264,1.228c-0.403,1.719-1.008,3.832-2.238,6.052
				c-1.205,2.215-2.987,4.59-5.56,6.523c-2.566,1.909-5.921,3.309-9.604,3.653c-0.458,0.056-0.926,0.033-1.391,0.052l-0.701,0.013
				l-0.352,0.005l-0.117-0.002l-0.041-0.003l-0.082-0.007l-0.165-0.014c-0.886-0.098-1.729-0.14-2.737-0.375
				c-1.965-0.35-3.746-1.079-5.509-1.957c-1.752-0.891-3.344-2.086-4.849-3.374c-1.461-1.351-2.771-2.868-3.927-4.521
				c-1.117-1.681-2.013-3.521-2.705-5.455c-0.668-1.947-1.043-3.998-1.211-6.087c0.014-1.112-0.078-1.985,0.072-3.115
				c0.063-1.097,0.293-2.123,0.505-3.164c0.549-2.046,1.363-4.031,2.489-5.828c1.147-1.776,2.517-3.397,4.082-4.783
				c1.59-1.348,3.318-2.518,5.179-3.364c1.857-0.832,3.793-1.47,5.749-1.712c0.97-0.185,1.945-0.185,2.904-0.235l0.18-0.006
				l0.09-0.003l0.045-0.001l0.138,0.003l0.327,0.021l0.653,0.042c0.446,0.038,0.837,0.031,1.32,0.106
				c0.952,0.165,1.943,0.275,2.792,0.553c0.437,0.123,0.87,0.245,1.3,0.365c0.421,0.148,0.828,0.325,1.235,0.484
				c1.638,0.632,3.072,1.555,4.37,2.497c2.57,1.957,4.34,4.35,5.547,6.567c1.229,2.226,1.835,4.341,2.234,6.063
				c0.092,0.434,0.179,0.844,0.261,1.23c0.068,0.388,0.092,0.758,0.143,1.098c0.096,0.68,0.157,1.258,0.159,1.732
				c0.037,0.943,0.057,1.446,0.057,1.446V68.948z M372.036,68.939c0,0-0.03-0.494-0.088-1.42c-0.003-0.465-0.106-1.028-0.231-1.688
				c-0.063-0.33-0.113-0.687-0.213-1.058c-0.111-0.367-0.23-0.757-0.356-1.169c-0.553-1.62-1.431-3.548-2.929-5.371
				c-1.468-1.833-3.46-3.588-5.877-4.97c-1.233-0.649-2.527-1.281-3.938-1.726c-0.351-0.114-0.705-0.228-1.062-0.344
				c-0.364-0.083-0.732-0.167-1.104-0.252c-0.749-0.216-1.46-0.22-2.196-0.353c-0.363-0.057-0.842-0.043-1.262-0.069l-0.654-0.024
				l-0.328-0.013c-0.099-0.002,0.088,0.002,0.056,0.002l-0.038,0.003l-0.074,0.005l-0.149,0.01c-0.798,0.06-1.612,0.046-2.415,0.213
				c-1.627,0.188-3.229,0.697-4.813,1.313c-1.583,0.64-3.059,1.579-4.469,2.638c-1.385,1.102-2.603,2.433-3.687,3.89
				c-1.044,1.487-1.89,3.13-2.556,4.869c-0.286,0.884-0.605,1.777-0.762,2.669c-0.244,0.832-0.288,1.968-0.411,2.846
				c-0.076,1.903,0.068,3.835,0.541,5.707c0.525,1.85,1.29,3.638,2.342,5.241c1.075,1.581,2.355,3.014,3.843,4.151
				c1.495,1.119,3.108,2.032,4.799,2.628c1.678,0.569,3.436,0.988,5.054,1.067c0.766,0.116,1.711,0.06,2.582,0.072
				c0.304,0.02,0.785-0.058,1.163-0.08c0.4-0.045,0.803-0.046,1.192-0.124c3.14-0.47,5.97-1.526,8.389-2.924
				c2.415-1.406,4.393-3.18,5.862-5.016c1.496-1.829,2.374-3.76,2.923-5.383c0.125-0.413,0.243-0.804,0.354-1.172
				c0.098-0.371,0.146-0.726,0.207-1.054c0.122-0.656,0.225-1.219,0.225-1.692c0.052-0.935,0.079-1.433,0.079-1.433V68.939z"/>
		</g>
	</g>
	<path fill="#FCF9F5" d="M354.661,60.986c0,4.393-3.658,7.953-8.174,7.953c-4.518,0-8.174-3.561-8.174-7.953
		s3.656-7.951,8.174-7.951C351.003,53.035,354.661,56.593,354.661,60.986z"/>
	
		<path fill="none" stroke="#101719" stroke-width="2.3436" stroke-linecap="square" stroke-linejoin="bevel" stroke-miterlimit="10" d="
		M354.661,60.986c0,4.393-3.658,7.953-8.174,7.953c-4.518,0-8.174-3.561-8.174-7.953s3.656-7.951,8.174-7.951
		C351.003,53.035,354.661,56.593,354.661,60.986z"/>
	<g>
		<path fill="#101719" d="M385.989,85.412c-1.027,1.737-1.955,3.517-3.291,5.092l-0.937,1.223c-0.316,0.405-0.691,0.749-1.036,1.126
			c-0.716,0.725-1.379,1.517-2.147,2.191c-0.771,0.67-1.559,1.328-2.349,1.983c-0.802,0.638-1.679,1.174-2.517,1.766
			c-0.83,0.61-1.73,1.103-2.631,1.596c-0.903,0.486-1.776,1.042-2.729,1.427l-2.815,1.26l-2.91,1.026
			c-0.964,0.37-1.979,0.557-2.971,0.833c-0.995,0.265-1.993,0.521-3.013,0.67c-1.015,0.167-2.024,0.383-3.047,0.508l-3.077,0.291
			c-1.025,0.102-2.06,0.058-3.09,0.094l-1.547,0.02l-1.545-0.092c-1.028-0.085-2.065-0.07-3.087-0.241l-3.068-0.446
			c-2.017-0.458-4.053-0.852-6.003-1.572l-1.474-0.494l-0.092-0.031l-0.046-0.016l-0.112-0.043l-0.172-0.078l-0.344-0.156
			l-0.688-0.311l-2.751-1.247l-2.702-1.631c-0.441-0.28-0.913-0.527-1.327-0.835l-1.235-0.932c-0.81-0.636-1.67-1.209-2.434-1.896
			l-2.274-2.075c-0.784-0.663-1.424-1.469-2.135-2.202c-0.682-0.761-1.42-1.47-2.028-2.291l-1.901-2.39
			c-0.624-0.802-1.168-1.665-1.758-2.49c-1.219-1.626-2.2-3.408-3.289-5.114l-0.017-0.03c-0.43-0.915-0.782-1.813-1.108-2.741
			c-0.328-0.922-0.604-1.861-0.854-2.806c-0.479-1.895-0.848-3.82-1.028-5.771c-0.182-1.95-0.177-3.92,0.018-5.877
			c0.034-0.491,0.116-0.976,0.191-1.463c0.064-0.489,0.159-0.972,0.274-1.452c0.194-0.967,0.485-1.913,0.787-2.853l0.511-1.394
			l0.608-1.356c0.453-0.879,0.896-1.774,1.458-2.592c0.516-0.852,1.134-1.628,1.739-2.417c0.654-0.743,1.285-1.52,2.01-2.197
			l1.07-1.036l1.138-0.958c0.745-0.662,1.571-1.207,2.37-1.795c0.806-0.579,1.667-1.065,2.501-1.602
			c0.859-0.486,1.733-0.948,2.604-1.418l0.071-0.031c3.285-1.302,6.576-2.431,9.916-3.493c1.669-0.526,3.345-1.033,5.034-1.492
			c1.688-0.46,3.382-0.909,5.089-1.308c1.701-0.42,3.418-0.783,5.137-1.137l2.586-0.5l2.602-0.433
			c0.864-0.156,1.742-0.249,2.613-0.376c0.871-0.128,1.746-0.234,2.625-0.315c1.752-0.207,3.52-0.314,5.286-0.408
			c1.774-0.031,3.547-0.083,5.329,0.012l1.335,0.047l1.336,0.119c0.891,0.09,1.783,0.129,2.67,0.294
			c0.887,0.156,1.777,0.263,2.658,0.462l2.638,0.635l2.591,0.863c0.854,0.317,1.681,0.73,2.521,1.093
			c1.638,0.829,3.235,1.781,4.653,2.99c0.764,0.531,1.356,1.27,2.018,1.919c0.688,0.633,1.193,1.422,1.744,2.168
			c0.261,0.383,0.568,0.738,0.788,1.145l0.646,1.228l0.641,1.228c0.183,0.421,0.319,0.86,0.48,1.29c0.712,1.704,1.015,3.5,1.4,5.27
			l0.015,0.125l0.06,4.432l-0.252,4.42l-0.537,4.39l-0.822,4.34l-1.125,4.267l-1.474,4.154l-1.801,4.012
			c-0.705,1.286-1.449,2.547-2.168,3.813l-0.072,0.127l-0.243-0.14l0.062-0.134l1.813-3.945l1.48-4.067l1.146-4.164l0.869-4.223
			l0.576-4.268l0.295-4.292l0.031-4.295l-0.197-4.285l0.015,0.125c-0.415-1.608-0.736-3.244-1.428-4.736
			c-0.156-0.378-0.287-0.769-0.461-1.137l-0.604-1.061l-0.599-1.061c-0.201-0.352-0.485-0.646-0.723-0.973
			c-0.503-0.632-0.952-1.308-1.574-1.832c-0.598-0.542-1.112-1.17-1.804-1.607c-1.27-0.999-2.675-1.825-4.142-2.539
			c-0.76-0.31-1.495-0.67-2.271-0.945l-2.363-0.749l-2.437-0.547c-0.814-0.173-1.653-0.258-2.479-0.393
			c-0.822-0.153-1.669-0.193-2.506-0.279l-1.258-0.116l-1.269-0.046c-1.688-0.095-3.389-0.047-5.087-0.023
			c-1.7,0.1-3.403,0.157-5.105,0.329c-0.852,0.063-1.702,0.149-2.552,0.259c-0.849,0.108-1.702,0.182-2.549,0.319l-2.545,0.376
			l-2.537,0.443c-1.688,0.316-3.377,0.641-5.056,1.023c-3.361,0.737-6.697,1.606-10.019,2.529c-3.312,0.937-6.63,1.96-9.842,3.116
			l0.071-0.03l-2.544,1.234c-0.812,0.471-1.659,0.895-2.447,1.405c-0.779,0.521-1.596,1-2.325,1.59l-1.12,0.854l-1.057,0.929
			c-0.363,0.3-0.694,0.63-1.016,0.972c-0.322,0.34-0.665,0.664-0.972,1.017c-0.6,0.719-1.218,1.428-1.735,2.211
			c-0.566,0.75-1.017,1.577-1.482,2.392l-0.632,1.261l-0.54,1.304c-0.331,0.881-0.633,1.778-0.839,2.7
			c-0.121,0.457-0.223,0.918-0.296,1.386c-0.083,0.466-0.174,0.931-0.217,1.403c-0.245,1.879-0.256,3.79-0.096,5.685
			c0.083,0.948,0.201,1.894,0.369,2.831c0.152,0.941,0.383,1.868,0.626,2.789c0.254,0.918,0.533,1.831,0.861,2.725
			c0.327,0.888,0.681,1.791,1.098,2.611l-0.017-0.03c1.131,1.65,2.15,3.375,3.4,4.935c0.617,0.784,1.196,1.598,1.848,2.352
			l1.979,2.236c0.633,0.769,1.389,1.42,2.088,2.123c0.727,0.675,1.383,1.423,2.175,2.021l2.286,1.884
			c0.765,0.622,1.616,1.125,2.418,1.693l1.217,0.828c0.407,0.273,0.847,0.47,1.267,0.708l2.533,1.375l2.784,1.167l0.696,0.292
			l0.348,0.146l0.175,0.073c0.066,0.027-0.067-0.026-0.045-0.019l0.021,0.007l0.044,0.013l0.088,0.027l1.402,0.425
			c1.847,0.64,3.771,1.018,5.68,1.438l2.907,0.421c0.965,0.177,1.952,0.17,2.928,0.266l1.468,0.108l1.472-0.002
			c0.98-0.022,1.965,0.036,2.944-0.05l2.938-0.224c0.979-0.092,1.945-0.273,2.92-0.405c0.979-0.114,1.938-0.333,2.895-0.561
			c0.954-0.237,1.935-0.387,2.862-0.716l2.828-0.854l2.752-1.075c0.937-0.324,1.791-0.816,2.682-1.241
			c0.889-0.432,1.779-0.862,2.601-1.409c0.831-0.53,1.704-1.004,2.505-1.581c0.786-0.597,1.575-1.191,2.379-1.773
			c0.792-0.595,1.483-1.308,2.233-1.958c0.36-0.34,0.758-0.651,1.089-1.016l0.986-1.104c1.385-1.413,2.502-3.118,3.699-4.734
			l0.088-0.118l0.232,0.152L385.989,85.412z"/>
	</g>
	<g>
		<path fill="#101719" d="M338.447,126.2c0,0,0.514,1.094,1.6,2.915c1.094,1.811,2.737,4.359,5.037,7.152
			c1.131,1.411,2.457,2.853,3.902,4.323c1.473,1.445,3.061,2.928,4.825,4.311c1.77,1.37,3.656,2.711,5.704,3.843
			c2.016,1.187,4.193,2.14,6.4,2.971c1.129,0.347,2.228,0.779,3.379,1.021l1.702,0.42c0.575,0.096,1.148,0.191,1.719,0.287
			c1.135,0.226,2.282,0.289,3.406,0.408c1.121,0.157,2.246,0.103,3.342,0.154c2.197,0.041,4.327-0.036,6.348-0.222
			c0.506-0.044,1.008-0.062,1.497-0.127c0.488-0.074,0.97-0.146,1.443-0.218c0.946-0.148,1.88-0.205,2.748-0.419
			c1.747-0.368,3.379-0.627,4.786-1.036c1.419-0.36,2.679-0.632,3.688-0.954c2.027-0.61,3.222-0.914,3.222-0.914l0.145-0.037
			l0.102,0.23l-0.127,0.074c0,0-1.057,0.613-2.967,1.606c-0.938,0.543-2.145,1.038-3.532,1.623
			c-1.375,0.621-2.998,1.129-4.775,1.688c-0.881,0.31-1.843,0.471-2.818,0.722c-0.493,0.109-0.993,0.219-1.502,0.332
			c-0.511,0.103-1.038,0.16-1.568,0.243c-2.12,0.36-4.4,0.498-6.755,0.459c-1.177-0.086-2.378-0.08-3.578-0.284
			c-1.205-0.152-2.421-0.325-3.621-0.634c-0.602-0.141-1.206-0.281-1.812-0.423l-1.79-0.543c-1.206-0.323-2.354-0.839-3.525-1.271
			c-2.297-0.983-4.539-2.093-6.592-3.428c-2.087-1.281-3.985-2.764-5.75-4.263c-1.751-1.518-3.338-3.096-4.747-4.673
			c-1.389-1.594-2.648-3.143-3.71-4.645c-2.163-2.976-3.665-5.646-4.656-7.537c-0.982-1.896-1.436-3.037-1.436-3.036l-0.055-0.136
			l0.26-0.115L338.447,126.2z"/>
	</g>
	<g>
		<path fill="#101719" d="M408.168,68.784c-0.001,0-2.113,5.606-6.486,13.451c-1.109,1.949-2.322,4.059-3.714,6.226
			c-1.36,2.187-2.928,4.407-4.578,6.686c-1.691,2.247-3.467,4.556-5.425,6.779c-1.918,2.257-4.019,4.42-6.166,6.54
			c-2.191,2.076-4.448,4.093-6.804,5.927c-1.175,0.921-2.342,1.837-3.575,2.632c-0.609,0.409-1.205,0.829-1.813,1.221
			c-0.621,0.374-1.237,0.745-1.849,1.113c-1.22,0.742-2.478,1.373-3.717,1.968c-1.219,0.639-2.48,1.12-3.695,1.607
			c-1.202,0.519-2.425,0.89-3.594,1.274c-0.589,0.181-1.163,0.372-1.733,0.535c-0.577,0.139-1.145,0.275-1.699,0.408
			c-2.203,0.596-4.291,0.824-6.109,1.106c-1.841,0.161-3.444,0.255-4.761,0.285c-2.644-0.05-4.133-0.136-4.133-0.136l-0.146-0.008
			l-0.005-0.26l0.146-0.025c0,0,1.484-0.253,4.047-0.598c1.264-0.262,2.798-0.581,4.559-0.946c1.73-0.481,3.691-0.929,5.759-1.672
			c0.52-0.17,1.051-0.344,1.592-0.521c0.528-0.212,1.067-0.427,1.615-0.646c1.097-0.43,2.24-0.845,3.362-1.408
			c1.129-0.541,2.313-1.037,3.461-1.68c1.158-0.62,2.367-1.201,3.526-1.927c0.595-0.336,1.193-0.676,1.797-1.018
			c0.594-0.36,1.177-0.748,1.771-1.124c0.589-0.386,1.197-0.75,1.787-1.151c0.586-0.408,1.174-0.818,1.765-1.229
			c2.371-1.641,4.629-3.522,6.853-5.447c2.167-1.988,4.3-4.025,6.261-6.168c2-2.108,3.828-4.314,5.577-6.466
			c1.716-2.179,3.319-4.332,4.778-6.419c1.48-2.074,2.784-4.102,3.979-5.981c2.355-3.779,4.135-7.046,5.322-9.359
			c1.183-2.319,1.775-3.681,1.775-3.681l0.059-0.134l0.265,0.108L408.168,68.784z"/>
	</g>
	<path fill="#FCF9F5" d="M312.229,97.494c0,0,82.984,42.389,82.984-51.215C395.214,46.279,405.345,141.958,312.229,97.494z"/>
	<path fill="#FCF9F5" d="M314.923,105.261c0,0,81.176,37.328,84.656-56.654C399.579,48.607,401.481,145.205,314.923,105.261z"/>
	<path fill="#FCF9F5" d="M322.759,114.939c0,0,66.596,25.242,80.496-58.738C403.255,56.201,391.14,144.386,322.759,114.939z"/>
	<path fill="#FCF9F5" d="M329.382,120.958c0,0,17.105,4.559,33.621,0C363.003,120.958,342.454,129.359,329.382,120.958z"/>
	
		<path fill="none" stroke="#101719" stroke-width="1.953" stroke-linecap="square" stroke-linejoin="bevel" stroke-miterlimit="10" d="
		M312.229,97.494c0,0,82.984,42.389,82.984-51.215C395.214,46.279,405.345,141.958,312.229,97.494z"/>
	
		<path fill="none" stroke="#101719" stroke-width="1.953" stroke-linecap="square" stroke-linejoin="bevel" stroke-miterlimit="10" d="
		M314.923,105.261c0,0,81.176,37.328,84.656-56.654C399.579,48.607,401.481,145.205,314.923,105.261z"/>
	
		<path fill="none" stroke="#101719" stroke-width="1.953" stroke-linecap="square" stroke-linejoin="bevel" stroke-miterlimit="10" d="
		M322.759,114.939c0,0,66.596,25.242,80.496-58.738C403.255,56.201,391.14,144.386,322.759,114.939z"/>
	
		<path fill="none" stroke="#101719" stroke-width="1.5624" stroke-linecap="square" stroke-linejoin="bevel" stroke-miterlimit="10" d="
		M329.382,120.958c0,0,17.105,4.559,33.621,0C363.003,120.958,342.454,129.359,329.382,120.958z"/>
	<path fill="#FCF9F5" d="M388.796,99.47c0,0,12.002-17.961,15.664-32.85C404.46,66.621,403.993,85.197,388.796,99.47z"/>
	
		<path fill="none" stroke="#101719" stroke-width="1.5624" stroke-linecap="square" stroke-linejoin="bevel" stroke-miterlimit="10" d="
		M388.796,99.47c0,0,12.002-17.961,15.664-32.85C404.46,66.621,403.993,85.197,388.796,99.47z"/>
	<g>
		<path fill="#101719" d="M44.624,515.862c0,0-0.413,1.427-1.188,4.104c-0.796,2.665-1.963,6.574-3.449,11.55
			c-1.451,4.981-3.212,11.027-5.065,17.993c-1.793,6.968-3.846,14.867-5.06,23.538c-0.297,2.162-0.533,4.374-0.59,6.592
			c-0.044,2.188,0.052,4.508,0.73,6.317c0.34,0.905,0.83,1.497,1.351,1.721c0.118,0.062,0.328,0.111,0.417,0.13l0.909,0.137
			l0.699,0.04l0.765-0.019c2.039-0.129,3.953-1.145,5.634-2.686c1.687-1.542,3.112-3.565,4.383-5.739
			c1.293-2.174,2.443-4.515,3.64-6.926c0.59-1.213,1.271-2.44,1.864-3.6c0.614-1.198,1.238-2.434,1.935-3.657
			c0.698-1.223,1.466-2.441,2.404-3.583c0.936-1.135,2.055-2.223,3.482-2.961c0.194-0.102,0.32-0.154,0.587-0.274l0.506-0.181
			c0.447-0.135,0.854-0.221,1.265-0.255c0.826-0.079,1.64,0.006,2.393,0.181c1.508,0.355,2.82,0.984,4.1,1.509
			c1.271,0.522,2.548,0.988,3.763,0.905c0.605-0.028,1.182-0.205,1.719-0.504c0.268-0.129,0.535-0.351,0.74-0.524
			c0.234-0.218,0.467-0.452,0.688-0.708c1.769-2.085,3.135-4.659,4.472-7.192c1.34-2.551,2.569-5.187,3.961-7.785
			c2.824-5.127,5.318-10.413,7.772-15.794c2.389-5.41,4.788-10.841,7.186-16.273c2.446-5.438,4.992-10.792,7.553-16.136
			c2.6-5.318,5.245-10.591,7.914-15.802c5.387-10.396,10.963-20.494,16.628-30.118c5.679-9.616,11.527-18.712,17.452-27.076
			c5.884-8.394,11.875-16.028,17.625-22.88c5.75-6.854,11.304-12.899,16.464-18.016c5.142-5.133,9.785-9.441,13.758-12.813
			c3.95-3.397,7.147-5.949,9.358-7.646c2.209-1.697,3.387-2.602,3.387-2.602l0.155-0.119l0.243,0.298l-0.151,0.124
			c0,0-1.147,0.943-3.188,2.833c-2.061,1.865-5.088,4.594-8.776,8.233c-1.861,1.802-3.864,3.854-6.066,6.061
			c-1.078,1.127-2.199,2.3-3.363,3.517c-1.141,1.236-2.324,2.518-3.546,3.841c-4.815,5.357-10.151,11.484-15.645,18.435
			c-5.485,6.957-11.154,14.702-16.918,23.056c-2.862,4.191-5.735,8.543-8.647,13.009c-2.882,4.486-5.771,9.105-8.668,13.831
			c-5.794,9.453-11.471,19.418-17.056,29.652c-2.809,5.109-5.598,10.284-8.344,15.51c-2.77,5.208-5.568,10.453-8.226,15.73
			c-2.605,5.331-5.21,10.662-7.805,15.972c-1.279,2.669-2.595,5.314-3.937,7.943c-0.675,1.313-1.349,2.624-2.021,3.932
			c-0.697,1.29-1.393,2.577-2.088,3.861c-2.783,5.097-4.845,10.552-8.424,15.313c-0.237,0.293-0.5,0.577-0.782,0.853
			c-0.331,0.298-0.615,0.538-0.981,0.741c-0.695,0.417-1.509,0.692-2.325,0.755c-1.651,0.134-3.139-0.367-4.487-0.838
			c-1.353-0.486-2.632-1.008-3.875-1.233c-0.619-0.112-1.218-0.135-1.78-0.054c-0.285,0.035-0.559,0.118-0.776,0.188
			c-0.135,0.048-0.314,0.13-0.469,0.193c-0.045,0.035-0.24,0.121-0.348,0.19c-2.069,1.222-3.494,3.562-4.693,5.886
			c-0.603,1.181-1.15,2.401-1.714,3.639c-0.581,1.278-1.156,2.433-1.682,3.654c-2.151,4.856-4.231,9.958-8.272,13.939
			c-1.992,1.963-4.767,3.469-7.714,3.673l-1.089,0.033l-1.146-0.071l-0.912-0.132c-0.512-0.088-0.896-0.199-1.334-0.392
			c-0.848-0.37-1.569-0.984-2.076-1.649c-0.512-0.666-0.854-1.366-1.106-2.046c-0.948-2.734-0.918-5.24-0.869-7.655
			c0.092-2.411,0.369-4.722,0.704-6.964c1.464-8.94,3.724-16.83,5.84-23.776c1.058-3.473,2.121-6.697,3.138-9.665
			c1.012-2.97,1.964-5.688,2.874-8.125c1.803-4.88,3.258-8.696,4.266-11.291c1.016-2.591,1.558-3.973,1.558-3.973l0.071-0.182
			l0.354,0.117L44.624,515.862z"/>
	</g>
	<g>
		<path fill="#101719" d="M44.254,515.737c0,0,2.875-8.965,7.188-22.414c1.102-3.355,2.195-7.021,3.534-10.841
			c1.324-3.825,2.72-7.859,4.164-12.032c1.449-4.173,2.947-8.485,4.468-12.867c1.518-4.422,3.2-8.788,4.806-13.223
			c1.608-4.424,3.217-8.849,4.8-13.204c1.554-4.367,3.162-8.633,4.7-12.77c1.59-4.116,3.155-8.084,4.709-11.82
			c1.53-3.745,3.008-7.274,4.403-10.52c5.542-12.997,9.735-21.469,9.736-21.469l0.087-0.176l0.331,0.127l-0.054,0.189
			c0.001,0-2.574,9.097-7.185,22.453c-1.144,3.342-2.415,6.951-3.793,10.754c-1.354,3.813-2.856,7.806-4.438,11.925
			c-1.635,4.099-3.305,8.342-5.083,12.622c-1.748,4.292-3.523,8.652-5.299,13.012c-1.736,4.365-3.575,8.733-5.199,13.028
			c-1.654,4.324-3.282,8.579-4.857,12.697c-1.581,4.118-3.108,8.098-4.557,11.873c-1.495,3.758-2.741,7.378-3.98,10.684
			c-4.867,13.258-8.112,22.098-8.112,22.098l-0.067,0.183l-0.362-0.124L44.254,515.737z"/>
	</g>
	<g>
		<path fill="#101719" d="M307.138,199.605c0,0,0.214,0.759,0.678,2.033c0.47,1.271,1.19,3.061,2.278,5.052
			c0.543,0.995,1.189,2.031,1.938,3.062c0.738,1.04,1.628,2.037,2.604,2.981c0.964,0.963,2.109,1.769,3.309,2.494
			c1.189,0.75,2.535,1.261,3.899,1.676c0.694,0.175,1.376,0.403,2.094,0.492l1.063,0.18l1.076,0.083
			c1.428,0.097,2.862,0.116,4.252-0.012c0.698-0.02,1.378-0.146,2.051-0.224c0.673-0.079,1.335-0.154,1.97-0.298
			c0.641-0.124,1.264-0.244,1.865-0.36c0.601-0.145,1.182-0.284,1.738-0.418c1.123-0.249,2.13-0.574,3.042-0.818
			c0.911-0.245,1.698-0.492,2.346-0.703c1.3-0.409,2.064-0.615,2.064-0.615s-0.65,0.435-1.827,1.148
			c-0.588,0.358-1.302,0.801-2.168,1.211c-0.859,0.427-1.813,0.958-2.928,1.374c-0.551,0.226-1.126,0.46-1.721,0.704
			c-0.608,0.208-1.248,0.396-1.903,0.604c-0.65,0.223-1.341,0.382-2.049,0.546c-0.705,0.178-1.434,0.325-2.19,0.412
			c-0.755,0.095-1.518,0.233-2.31,0.249c-0.788,0.046-1.588,0.102-2.4,0.023l-1.222-0.069l-1.227-0.177
			c-0.823-0.09-1.631-0.324-2.443-0.523c-1.592-0.518-3.163-1.164-4.549-2.075c-1.409-0.867-2.637-1.957-3.676-3.109
			c-1.064-1.135-1.908-2.378-2.593-3.597c-0.712-1.206-1.228-2.421-1.633-3.554c-0.83-2.263-1.156-4.235-1.314-5.605
			C307.099,200.394,307.138,199.605,307.138,199.605z"/>
	</g>
	<g>
		<path fill="#101719" d="M194.056,171.917c0,0-0.106,0.607-0.305,1.745c-0.225,1.135-0.434,2.815-0.68,4.941
			c-0.218,2.133-0.36,4.734-0.246,7.7c0.163,2.959,0.597,6.286,1.629,9.745c0.554,1.714,1.168,3.491,2.062,5.208
			c0.396,0.882,0.928,1.712,1.401,2.586c0.555,0.828,1.066,1.7,1.707,2.501c1.207,1.652,2.631,3.211,4.22,4.656
			c1.581,1.453,3.314,2.814,5.204,4.015c3.748,2.454,8.058,4.297,12.57,5.71c4.525,1.396,9.295,2.285,14.108,2.739
			c4.812,0.479,9.675,0.563,14.442,0.26c4.767-0.293,9.447-0.875,13.917-1.762c4.47-0.885,8.736-2.027,12.703-3.348
			c3.962-1.336,7.62-2.863,10.899-4.472c3.271-1.626,6.173-3.317,8.638-4.982c2.465-1.667,4.487-3.307,6.09-4.73
			c1.568-1.458,2.772-2.645,3.545-3.501c0.768-0.862,1.177-1.322,1.177-1.322s-0.367,0.495-1.056,1.424
			c-0.703,0.917-1.77,2.245-3.271,3.81c-3.026,3.083-7.781,7.196-14.343,10.792c-3.264,1.811-6.931,3.554-10.946,5.042
			c-4.012,1.492-8.339,2.833-12.911,3.813c-4.568,0.983-9.354,1.755-14.264,2.059c-4.904,0.343-9.92,0.299-14.908-0.17
			c-4.984-0.505-9.938-1.461-14.667-2.956c-4.726-1.493-9.209-3.59-13.146-6.262c-1.975-1.322-3.813-2.794-5.438-4.416
			c-1.643-1.602-3.106-3.321-4.335-5.128c-2.542-3.568-4.075-7.476-5.015-11.124c-0.931-3.67-1.139-7.14-1.099-10.171
			c0.084-3.038,0.405-5.658,0.768-7.792c0.373-2.136,0.777-3.788,1.088-4.898C193.896,172.512,194.056,171.917,194.056,171.917z"/>
	</g>
	<g>
		<path fill="#101719" d="M345.519,219.222c0,0-0.326,0.486-0.897,1.337c-0.555,0.862-1.412,2.046-2.469,3.47
			c-0.52,0.718-1.131,1.453-1.754,2.255c-0.629,0.798-1.359,1.585-2.093,2.421c-0.772,0.803-1.553,1.654-2.429,2.449
			c-0.421,0.413-0.865,0.812-1.333,1.193c-0.458,0.392-0.92,0.784-1.421,1.138c-0.484,0.374-0.979,0.738-1.511,1.061
			c-0.511,0.347-1.057,0.653-1.611,0.947c-1.105,0.586-2.311,1.056-3.593,1.216c-1.269,0.164-2.594,0.053-3.737-0.391
			c-1.154-0.422-2.091-1.114-2.785-1.843c-0.705-0.724-1.178-1.496-1.529-2.185c-0.347-0.696-0.55-1.331-0.688-1.855
			c-0.271-1.052-0.258-1.679-0.258-1.679l0.003-0.153l0.198-0.056l0.08,0.13c0,0,0.315,0.51,0.925,1.305
			c0.311,0.392,0.68,0.864,1.149,1.336c0.462,0.478,1.018,0.957,1.642,1.375c0.632,0.409,1.339,0.746,2.109,0.92
			c0.776,0.156,1.609,0.186,2.509,0.067c0.898-0.083,1.868-0.338,2.854-0.693c0.493-0.182,0.992-0.378,1.474-0.641
			c0.495-0.229,0.975-0.508,1.451-0.8c0.484-0.275,0.946-0.599,1.406-0.923c0.468-0.312,0.92-0.647,1.356-1.001
			c0.898-0.672,1.724-1.419,2.542-2.122c0.789-0.736,1.554-1.452,2.266-2.148c0.699-0.708,1.39-1.357,1.979-1.996
			c0.597-0.637,1.144-1.22,1.628-1.737c0.475-0.532,0.888-0.997,1.229-1.379c0.685-0.762,1.076-1.198,1.076-1.198l0.098-0.109
			l0.215,0.167L345.519,219.222z"/>
	</g>
	<g>
		<path fill="#101719" d="M126.417,241.515c0,0-0.113,1.055-0.326,3.033c-0.127,0.99-0.138,2.205-0.231,3.628
			c-0.06,0.709-0.024,1.482-0.023,2.301c0.021,0.82-0.016,1.689,0.053,2.607c0.171,3.668,0.646,8.119,1.889,13.059
			c0.258,1.247,0.71,2.484,1.08,3.781l0.147,0.485l0.064,0.21l0.091,0.244c0.121,0.326,0.243,0.655,0.366,0.986
			c0.241,0.664,0.484,1.336,0.731,2.018c1.098,2.576,2.336,5.289,4.01,7.917c0.76,1.355,1.722,2.622,2.629,3.957
			c1.011,1.259,1.977,2.596,3.132,3.812c1.093,1.27,2.315,2.458,3.535,3.686c1.286,1.16,2.577,2.354,3.984,3.455
			c5.534,4.51,12.13,8.396,19.438,11.341c7.305,2.956,15.34,4.884,23.616,5.635c8.277,0.74,16.792,0.245,25.014-1.477
			c2.042-0.434,4.114-0.962,6.064-1.55c2.011-0.667,4.02-1.333,6.025-1.997c3.904-1.491,7.735-3,11.431-4.881
			c7.416-3.625,14.362-7.897,20.697-12.568c3.105-2.419,6.221-4.716,9.075-7.217c1.448-1.223,2.896-2.415,4.243-3.69
			c1.375-1.244,2.733-2.473,4.073-3.685c2.576-2.537,5.138-4.95,7.471-7.434c1.178-1.23,2.37-2.409,3.479-3.623
			c1.105-1.218,2.19-2.414,3.253-3.585c2.139-2.332,4.046-4.693,5.939-6.872c1.826-2.238,3.557-4.361,5.185-6.356
			c1.582-2.035,3.062-3.939,4.431-5.7c1.336-1.788,2.563-3.43,3.673-4.914c4.313-6.035,6.777-9.483,6.777-9.483l0.085-0.119
			l0.234,0.154l-0.075,0.126c0,0-0.543,0.911-1.563,2.619c-1.036,1.704-2.524,4.192-4.496,7.366c-1.025,1.552-2.16,3.27-3.396,5.14
			c-1.284,1.839-2.673,3.828-4.156,5.954c-1.524,2.097-3.158,4.324-4.928,6.635c-1.839,2.256-3.689,4.7-5.775,7.123
			c-4.079,4.926-8.787,10.029-14.026,15.177c-2.696,2.495-5.399,5.135-8.41,7.558c-2.91,2.538-6.085,4.894-9.309,7.281
			c-6.552,4.644-13.712,8.918-21.378,12.446c-0.964,0.427-1.931,0.855-2.899,1.284l-1.454,0.642l-1.504,0.552
			c-2.008,0.719-4.012,1.511-6.033,2.167c-2.033,0.571-4.071,1.144-6.111,1.717c-2.133,0.537-4.197,0.957-6.321,1.309
			c-4.224,0.707-8.49,1.085-12.737,1.183c-4.246,0.123-8.478-0.021-12.654-0.392c-8.348-0.79-16.481-2.47-24.087-5.045
			c-7.559-2.659-14.635-6.196-20.483-10.807c-2.936-2.277-5.601-4.762-7.883-7.427c-1.191-1.289-2.191-2.702-3.23-4.036
			c-0.938-1.411-1.923-2.751-2.706-4.182c-1.687-2.781-2.909-5.671-4.003-8.455c-0.446-1.401-0.934-2.655-1.287-4.085
			c-0.321-1.359-0.724-2.656-0.931-3.955c-1.015-5.147-1.37-9.721-1.25-13.469c-0.001-0.937,0.1-1.822,0.14-2.654
			c0.06-0.832,0.082-1.61,0.196-2.334c0.205-1.442,0.295-2.683,0.515-3.652c0.402-1.949,0.617-2.988,0.617-2.988l0.029-0.144
			l0.275,0.043L126.417,241.515z"/>
	</g>
	<g>
		<path fill="#101719" d="M173.313,366.457c-0.626,1.087-1.271,2.161-1.922,3.229c-0.642,1.07-1.378,2.099-2.085,3.141
			c-0.708,1.045-1.455,2.06-2.231,3.052l-1.159,1.495l-1.221,1.45l-1.241,1.434l-1.307,1.38c-0.44,0.457-0.867,0.926-1.319,1.373
			l-1.399,1.297c-0.912,0.887-1.924,1.672-2.899,2.498c-0.48,0.422-1.032,0.76-1.545,1.143c-0.527,0.366-1.03,0.763-1.587,1.09
			c-0.543,0.347-1.104,0.665-1.654,0.997c-0.564,0.312-1.148,0.593-1.72,0.89c-0.569,0.303-1.18,0.529-1.778,0.775
			c-0.595,0.251-1.197,0.488-1.825,0.664c-0.62,0.192-1.23,0.399-1.87,0.526c-0.634,0.141-1.257,0.309-1.904,0.382
			c-0.641,0.095-1.277,0.2-1.927,0.223l-0.965,0.07l-0.969-0.003c-1.289-0.002-2.573-0.148-3.833-0.377
			c-1.254-0.272-2.492-0.604-3.681-1.083c-1.176-0.5-2.329-1.06-3.4-1.764c-1.072-0.712-2.091-1.453-3.017-2.435l0.901-0.135
			l-1.713,4.266c-0.54,1.437-1.176,2.834-1.766,4.253l-0.903,2.122l-0.979,2.09c-0.656,1.393-1.312,2.787-2.064,4.134
			c-0.727,1.36-1.442,2.727-2.251,4.045c-0.786,1.331-1.56,2.67-2.428,3.956l-1.274,1.946l-1.36,1.894
			c-0.875,1.286-1.906,2.463-2.883,3.679c-0.484,0.611-1.039,1.169-1.555,1.757c-0.523,0.583-1.055,1.156-1.633,1.691l-1.707,1.625
			l-1.802,1.533c-1.236,0.983-2.521,1.911-3.879,2.736c-1.342,0.845-2.766,1.575-4.24,2.186c-0.725,0.329-1.502,0.549-2.248,0.826
			c-0.773,0.21-1.538,0.443-2.327,0.58c-1.565,0.326-3.174,0.441-4.764,0.389c-1.592-0.046-3.17-0.323-4.671-0.804
			c-1.496-0.493-2.939-1.129-4.188-2.088l-0.117-0.089l0.151-0.217l0.132,0.066c1.338,0.67,2.802,1.094,4.259,1.352
			c1.468,0.233,2.95,0.301,4.411,0.186c1.458-0.137,2.904-0.358,4.298-0.797c0.702-0.19,1.378-0.477,2.064-0.71
			c0.664-0.308,1.348-0.553,1.99-0.907c1.297-0.668,2.558-1.414,3.759-2.256c1.216-0.82,2.344-1.772,3.472-2.718l1.645-1.484
			l1.564-1.58c0.536-0.512,1.007-1.091,1.514-1.635c0.494-0.557,1.022-1.08,1.488-1.665c0.948-1.154,1.91-2.293,2.807-3.497
			l1.368-1.785l1.293-1.847c0.887-1.215,1.695-2.488,2.513-3.756c0.841-1.252,1.589-2.567,2.376-3.858
			c0.793-1.288,1.533-2.61,2.286-3.926l1.142-1.97l1.086-2.003c0.715-1.341,1.475-2.663,2.137-4.034l2.011-4.104l0.901-0.135
			c0.756,0.864,1.704,1.691,2.709,2.356c1.012,0.671,2.084,1.263,3.221,1.7c1.143,0.416,2.316,0.753,3.52,0.919
			c1.205,0.135,2.418,0.224,3.623,0.093l0.901-0.081l0.893-0.151c0.596-0.083,1.179-0.252,1.76-0.404
			c0.585-0.131,1.15-0.356,1.718-0.549c0.573-0.178,1.121-0.436,1.672-0.675c0.555-0.228,1.098-0.486,1.628-0.773
			c0.535-0.277,1.075-0.536,1.585-0.862c0.519-0.307,1.046-0.596,1.557-0.916c0.504-0.334,0.999-0.683,1.51-1.003
			c1.008-0.666,1.976-1.402,2.946-2.131c0.948-0.764,1.931-1.484,2.83-2.316c0.922-0.803,1.838-1.615,2.721-2.47l1.339-1.267
			l1.287-1.326l1.306-1.312l1.253-1.367c0.841-0.908,1.701-1.803,2.497-2.75c0.804-0.943,1.675-1.828,2.461-2.806
			c0.811-0.953,1.63-1.9,2.466-2.835l0.098-0.11l0.213,0.154L173.313,366.457z"/>
	</g>
	<g>
		<path fill="#101719" d="M95.696,478.662c0,0,0.334,0.346,0.838,1.009c0.512,0.658,1.193,1.632,1.908,2.861
			c0.357,0.614,0.732,1.289,1.097,2.018c0.341,0.739,0.731,1.509,1.046,2.343c0.331,0.828,0.664,1.688,0.927,2.592
			c0.302,0.89,0.526,1.822,0.739,2.758c0.23,0.929,0.344,1.894,0.479,2.831c0.132,0.939,0.129,1.891,0.175,2.793
			c-0.014,0.913-0.094,1.799-0.156,2.627c-0.145,0.834-0.317,1.612-0.476,2.319c-0.209,0.705-0.473,1.331-0.686,1.877
			c-0.174,0.558-0.515,0.985-0.72,1.348c-0.447,0.718-0.726,1.092-0.726,1.092s0.051-0.493,0.179-1.294
			c0.051-0.405,0.182-0.864,0.183-1.431c0.02-0.56,0.064-1.175,0.105-1.837c-0.032-0.679-0.059-1.403-0.064-2.157
			c-0.074-0.759-0.152-1.561-0.233-2.389c-0.146-0.827-0.23-1.677-0.395-2.541c-0.19-0.861-0.294-1.744-0.527-2.615
			c-0.184-0.878-0.384-1.752-0.609-2.613c-0.201-0.865-0.437-1.71-0.651-2.536c-0.203-0.828-0.452-1.617-0.642-2.381
			c-0.208-0.763-0.405-1.484-0.587-2.15c-0.204-0.659-0.348-1.286-0.505-1.831c-0.147-0.552-0.276-1.033-0.381-1.428
			C95.812,479.122,95.696,478.662,95.696,478.662z"/>
	</g>
	<g>
		<path fill="#101719" d="M95.815,478.747l-2.854,4.179l-2.694,4.27c-0.906,1.416-1.723,2.894-2.588,4.337
			c-0.866,1.444-1.694,2.91-2.508,4.385c-0.813,1.475-1.662,2.929-2.444,4.421l-2.385,4.454c-1.543,2.996-3.135,5.963-4.642,8.977
			c-3.059,6.003-6.011,12.061-8.89,18.152c-2.877,6.089-5.699,12.219-8.37,18.386l-2.686-0.397
			c-0.094-1.142-0.246-2.319-0.214-3.412c-0.017-1.115-0.016-2.224,0.038-3.314c0.035-1.097,0.071-2.194,0.148-3.28
			c0.084-1.086,0.144-2.179,0.251-3.26c0.194-2.168,0.426-4.33,0.692-6.484c0.266-2.155,0.561-4.304,0.856-6.452
			c0.623-4.292,1.325-8.569,2.091-12.835c0.399-2.13,0.786-4.262,1.233-6.384c0.442-2.123,0.865-4.247,1.367-6.359l0.034-0.143
			l0.266,0.042l-0.011,0.146c-0.157,2.163-0.363,4.318-0.545,6.476l-0.581,6.466l-1.233,12.905
			c-0.208,2.147-0.417,4.295-0.595,6.443l-0.287,3.218l-0.26,3.215c-0.102,1.072-0.154,2.14-0.234,3.209
			c-0.098,1.07-0.153,2.134-0.208,3.198c-0.074,1.07-0.095,2.123-0.1,3.172c-0.044,1.072,0.053,2.048,0.089,3.065l-2.686-0.397
			c2.933-6.106,5.927-12.152,8.973-18.186c3.047-6.029,6.167-12.022,9.392-17.958c1.596-2.977,3.25-5.924,4.914-8.864l2.548-4.38
			c0.836-1.467,1.74-2.897,2.606-4.347c0.869-1.449,1.75-2.89,2.67-4.308c0.92-1.418,1.787-2.865,2.75-4.258l2.856-4.191l3-4.075
			l0.086-0.118l0.235,0.167L95.815,478.747z"/>
	</g>
	<g>
		<path fill="#101719" d="M35.452,547.789c0,0,0.427-0.782,1.173-2.15c0.765-1.348,1.802-3.307,3.113-5.606
			c0.665-1.143,1.307-2.431,2.063-3.742c0.725-1.331,1.536-2.704,2.315-4.159c0.794-1.447,1.579-2.962,2.442-4.462
			c0.876-1.494,1.681-3.057,2.49-4.619c0.842-1.543,1.684-3.087,2.513-4.607c0.834-1.518,1.59-3.043,2.358-4.503
			c0.748-1.47,1.518-2.869,2.242-4.201c0.739-1.325,1.377-2.606,1.974-3.787c2.384-4.723,4.227-7.8,4.226-7.8
			s-0.923,3.435-2.687,8.479c-0.22,0.631-0.448,1.289-0.685,1.969c-0.233,0.682-0.557,1.351-0.844,2.059
			c-0.596,1.406-1.216,2.896-1.907,4.413c-0.34,0.762-0.686,1.536-1.036,2.32c-0.34,0.789-0.704,1.578-1.125,2.346
			c-0.81,1.553-1.632,3.13-2.454,4.707c-0.848,1.564-1.693,3.129-2.608,4.623c-0.884,1.512-1.819,2.96-2.688,4.382
			c-0.848,1.435-1.823,2.728-2.676,3.995c-0.87,1.257-1.684,2.449-2.509,3.501c-0.801,1.068-1.563,2.026-2.237,2.875
			c-0.66,0.858-1.307,1.561-1.808,2.155c-0.503,0.595-0.923,1.042-1.208,1.346S35.452,547.789,35.452,547.789z"/>
	</g>
</g>
</svg>
