<?xml version="1.0" encoding="utf-8"?>
<!-- Generator: Adobe Illustrator 16.0.2, SVG Export Plug-In . SVG Version: 6.00 Build 0)  -->
<!DOCTYPE svg PUBLIC "-//W3C//DTD SVG 1.1//EN" "http://www.w3.org/Graphics/SVG/1.1/DTD/svg11.dtd">
<svg version="1.1" id="lay" xmlns="http://www.w3.org/2000/svg" xmlns:xlink="http://www.w3.org/1999/xlink" x="0px" y="0px"
	 width="600px" height="600px" viewBox="0 0 600 600" enable-background="new 0 0 600 600" xml:space="preserve">
<radialGradient id="SVGID_1_" cx="210.0122" cy="157.4004" r="139.5767" gradientUnits="userSpaceOnUse">
	<stop  offset="0" style="stop-color:#0CA3DD"/>
	<stop  offset="1" style="stop-color:#0B86C5"/>
</radialGradient>
<path fill="url(#SVGID_1_)" d="M311.012,295.344c2.16-6.805,7.672-13.02,11.332-19.094c4.172-6.938,7.805-14.207,10.781-21.742
	c5.301-13.422,8.453-27.656,9.332-42.063c1.457-23.934-3.313-47.945-12.199-70.121c-4.996-12.473-11.191-24.727-18.973-35.715
	c-0.32-0.453-0.645-0.906-0.977-1.352c-20-54.086-39.492-25.902-39.492-25.902l-0.832,0.344
	c-15.473-37.219-11.422-68.426-11.422-68.426c-2.023,45.129-26.055,59.789-26.055,59.789l-0.324-0.371
	c-23.859-28.07-31.566-53.93-31.566-53.93c-4.766,18.852-6.449,32.23-6.398,41.727l-0.848,0.793
	C98.172,40.508,77.309,129.813,77.309,129.813s16.34,44.094,25.445,47.352c0,0,101.047,93.191,136.262,91.914
	c0,0,24.539,34.316,48.25,34.449l23.633-3.672L311.012,295.344z"/>
<path fill="#ECA775" d="M203.219,530.41c-7.242-6.164-27.262-12.211-76.234-2.445c64.023-49.555,92.469-39.117,92.469-39.117
	c-3.91-11.742-6.477-36.289-6.477-36.289l44.98,3.48l3.309,48.875L203.219,530.41z"/>
<path fill="#ECA775" d="M290.563,456.039l5.953,42.539c0,0,24.07,15.578,42.664,15.309c1.199-0.027,2.367-0.105,3.516-0.27
	c0,0-14.75,6.523-26.059,14.348c0,0,16.32,36.516,26.082,46.945c0,0-41.844-12.777-55.574-34.941c0,0-48.129,34.949-73.34,49.73
	c0,0,10.434-30.43,35.645-56.523c0,0-49.898,21.742-79.719,22.613c0,0,25.828-27.824,86.492-51.301c0,0-6.27-34.344,0-45.863
	L290.563,456.039z"/>
<path fill="#ECA775" d="M156.426,276.711c-27.816,12.637-39.992,25.246-39.992,25.246c-13.039-21.266-88.684,13.438-88.684,13.438
	c6.109-14.648,33.434-54.992,36.871-60.047c0.234-0.336,0.355-0.516,0.355-0.516c36.465-14.414,51.516-35.898,57.703-51.762
	l-0.164,4.961c0,28.988,15.98,53.859,38.758,64.484L156.426,276.711z"/>
<linearGradient id="SVGID_2_" gradientUnits="userSpaceOnUse" x1="111.2471" y1="367.6914" x2="377.793" y2="367.6914">
	<stop  offset="0" style="stop-color:#D76098"/>
	<stop  offset="0.503" style="stop-color:#A66FA5"/>
	<stop  offset="1" style="stop-color:#6B70A4"/>
</linearGradient>
<path fill="url(#SVGID_2_)" d="M377.793,398.203c-21.965,5.688-45.434,5.375-63.727-6.719
	c-17.414-11.508-23.301-32.254-23.504-52.199v0.008c-19.266,15.535-52.254,29.289-97.191,1.754c0,0-41.297-21.734-36.945-64.336
	c-27.816,12.637-39.992,25.246-39.992,25.246c-13.121,42.035-1.039,89.859,32.77,118.539
	c61.645,52.305,181.871,55.711,228.051-20.332L377.793,398.203z"/>
<radialGradient id="SVGID_3_" cx="430.2656" cy="196.8496" r="139.6461" gradientUnits="userSpaceOnUse">
	<stop  offset="0" style="stop-color:#0CA3DD"/>
	<stop  offset="1" style="stop-color:#0B86C5"/>
</radialGradient>
<path fill="url(#SVGID_3_)" d="M342.695,205.199c0,0,51.508-50.203,91.938-28.035c0,0,1.297-51.273,16.945-91.492
	c0,0,5.219,44.988,16.957,59.766c0,0,0-32.516,63.902-73.422c0,0-11.734,42.77-22.168,57.008c0,0,33.906-20.57,73.027-35.773
	c0,0-40.43,63.578-59.988,78.965c0,0,14.344-5.48,24.773-5.48c0,0,0,35.363-57.371,38.547c-0.395,21.879-1.82,43.668-5.637,64.527
	l-158.559,51.875l-49.281-11.93l22.488-88.25L342.695,205.199z"/>
<radialGradient id="SVGID_4_" cx="396.6387" cy="299.1108" r="96.5608" gradientUnits="userSpaceOnUse">
	<stop  offset="0" style="stop-color:#0CA3DD"/>
	<stop  offset="1" style="stop-color:#0B86C5"/>
</radialGradient>
<path fill="url(#SVGID_4_)" d="M290.563,339.285c0.203,19.945,6.09,40.691,23.504,52.199c32.484,21.465,81.27,5.813,109.055-14.672
	c32.832-24.203,50.016-56.539,58.836-92.398l1.75-7.703c10.621-35.25-7.348-59.121-7.348-59.121
	c-3.91-15.652-33.902,40.223-33.902,40.223c13.039-21.066,0-45.438,0-45.438c-14.352-5.215-45.645,64.336-45.645,64.336
	c15.648-23.035,0-55.207,0-55.207c-50.082,74.48-81.523,92.832-85.914,95.141L290.563,339.285z"/>
<radialGradient id="SVGID_5_" cx="243.9785" cy="301.957" r="67.1083" gradientUnits="userSpaceOnUse">
	<stop  offset="0" style="stop-color:#0CA3DD"/>
	<stop  offset="1" style="stop-color:#0B86C5"/>
</radialGradient>
<path fill="url(#SVGID_5_)" d="M310.598,317.418c-0.191,0.105-0.289,0.152-0.289,0.152s-41.734,69.559-116.938,23.477
	c0,0-41.297-21.734-36.945-64.336c0,0,165.93-88.379,153.941,40.203c0,0,0.18-0.082,0.531-0.27"/>
<g>
	<path fill="#101719" d="M77.309,129.813c0,0,0.085-0.587,0.303-1.679c0.218-1.091,0.542-2.697,1.092-4.706
		c0.543-2.01,1.256-4.444,2.24-7.182c0.99-2.733,2.162-5.813,3.718-9.051c0.735-1.641,1.607-3.298,2.488-5.03
		c0.431-0.871,0.954-1.709,1.444-2.585c0.505-0.867,0.991-1.764,1.558-2.629c2.147-3.535,4.66-7.125,7.515-10.648
		c0.715-0.879,1.485-1.727,2.235-2.602c0.752-0.874,1.51-1.754,2.341-2.579c0.814-0.841,1.633-1.687,2.457-2.538
		c0.849-0.826,1.757-1.598,2.64-2.405c1.736-1.648,3.695-3.069,5.576-4.597c0.958-0.741,1.982-1.401,2.973-2.105
		c1.007-0.682,1.976-1.426,3.04-2.023c2.106-1.226,4.179-2.513,6.388-3.526c1.089-0.534,2.177-1.066,3.261-1.597
		c1.117-0.456,2.231-0.911,3.34-1.364c2.19-0.983,4.484-1.626,6.721-2.327c0.56-0.173,1.117-0.347,1.673-0.52
		c0.566-0.133,1.131-0.265,1.694-0.397c1.125-0.261,2.242-0.521,3.349-0.778c4.445-0.936,8.806-1.489,12.943-1.698
		c1.033-0.059,2.049-0.173,3.054-0.184c1.004,0.003,1.994,0.007,2.966,0.011c0.971,0.013,1.925,0.025,2.862,0.037
		c0.467,0.007,0.931,0.015,1.389,0.022c0.458,0.037,0.911,0.074,1.359,0.11c1.789,0.149,3.503,0.292,5.134,0.428
		c1.63,0.105,3.153,0.436,4.591,0.643c2.873,0.454,5.368,0.843,7.384,1.388c2.028,0.47,3.605,0.896,4.683,1.162
		c1.076,0.272,1.65,0.418,1.65,0.418s-0.592-0.048-1.701-0.14c-1.107-0.098-2.735-0.206-4.787-0.414
		c-2.045-0.263-4.561-0.279-7.417-0.427c-2.854-0.213-6.083-0.067-9.581-0.063c-0.438,0.003-0.879,0.007-1.325,0.011
		c-0.445,0.033-0.895,0.067-1.349,0.101c-0.906,0.07-1.829,0.141-2.768,0.213c-0.938,0.063-1.891,0.128-2.858,0.193
		c-0.966,0.072-1.938,0.247-2.926,0.368c-3.959,0.456-8.073,1.287-12.267,2.295c-4.185,1.064-8.417,2.473-12.578,4.212
		c-1.039,0.439-2.082,0.88-3.128,1.322c-1.013,0.513-2.028,1.028-3.045,1.543c-2.067,0.973-3.992,2.223-5.963,3.385
		c-1.009,0.545-1.926,1.237-2.881,1.865c-0.94,0.652-1.913,1.257-2.825,1.944c-1.787,1.421-3.656,2.729-5.315,4.271
		c-3.457,2.915-6.587,6.107-9.499,9.308c-1.392,1.657-2.806,3.252-4.078,4.912c-0.641,0.824-1.308,1.617-1.91,2.444
		c-0.6,0.829-1.192,1.648-1.776,2.456c-2.273,3.278-4.346,6.453-6.087,9.492c-1.766,3.026-3.253,5.884-4.532,8.443
		c-1.242,2.575-2.292,4.846-3.094,6.747c-0.79,1.903-1.419,3.405-1.797,4.447C77.489,129.247,77.309,129.813,77.309,129.813z"/>
</g>
<g>
	<path fill="#101719" d="M206.414,81.598c-1.475,0.229-3.043-0.053-4.446-0.693c-1.41-0.645-2.646-1.662-3.667-2.837
		c-1.018-1.18-1.877-2.51-2.507-3.922c-0.68-1.399-1.168-2.864-1.615-4.339l-0.561-2.235c-0.151-0.75-0.271-1.504-0.408-2.259
		c-0.216-1.508-0.431-3.026-0.523-4.542c-0.14-1.519-0.187-3.033-0.227-4.551c-0.021-1.517,0.03-3.026,0.058-4.541
		c0.087-1.505,0.135-3.019,0.255-4.521c0.138-1.499,0.225-3.01,0.405-4.502c0.194-1.491,0.36-2.989,0.578-4.476l0.68-4.455
		l0.787-4.432c0.241-1.483,0.588-2.938,0.894-4.406c0.6-2.938,1.337-5.836,2.011-8.754l2.061-8.927l2.89,8.822
		c0.493,1.505,1.09,3.146,1.719,4.71c0.614,1.582,1.268,3.164,1.927,4.737c0.697,1.561,1.35,3.141,2.105,4.679
		c0.731,1.548,1.456,3.1,2.256,4.617c0.781,1.526,1.551,3.057,2.375,4.563c0.826,1.503,1.583,3.047,2.471,4.518l2.592,4.455
		c0.917,1.453,1.833,2.908,2.723,4.381c0.871,1.487,1.878,2.883,2.815,4.329c0.958,1.431,1.885,2.887,2.92,4.265l2.99,4.227
		c1.009,1.401,2.095,2.744,3.14,4.122c1.068,1.358,2.058,2.789,3.188,4.098l3.3,4.021c1.062,1.381,2.255,2.64,3.396,3.954
		l3.414,3.968l-4.01-3.37c-1.312-1.153-2.681-2.256-3.924-3.486l-3.776-3.653c-1.28-1.202-2.46-2.497-3.652-3.784
		c-1.178-1.298-2.399-2.564-3.545-3.894l-3.397-4.029c-1.143-1.338-2.179-2.757-3.248-4.155c-1.048-1.412-2.167-2.776-3.151-4.235
		c-1.018-1.436-2.011-2.89-3.003-4.346l-2.832-4.464c-0.966-1.476-1.806-3.028-2.713-4.541c-0.919-1.507-1.726-3.078-2.548-4.64
		c-0.842-1.552-1.611-3.143-2.386-4.731c-0.797-1.577-1.496-3.205-2.238-4.812c-0.694-1.631-1.43-3.242-2.041-4.917
		c-0.645-1.673-1.225-3.31-1.79-5.119l4.951-0.104c-0.698,2.86-1.462,5.709-2.085,8.583c-0.313,1.437-0.675,2.866-0.979,4.302
		l-0.935,4.309l-0.829,4.324c-0.267,1.442-0.482,2.89-0.727,4.335c-0.251,1.444-0.437,2.892-0.659,4.34
		c-0.209,1.449-0.345,2.899-0.521,4.352c-0.117,1.45-0.259,2.905-0.329,4.357c-0.074,1.452-0.167,2.906-0.156,4.355
		c-0.039,1.454,0.042,2.896,0.12,4.339l0.197,2.153l0.293,2.136c0.262,1.406,0.561,2.813,1.039,4.152
		c0.442,1.356,1.062,2.636,1.824,3.826c0.771,1.185,1.761,2.226,2.954,3.017C203.498,81.065,204.924,81.585,206.414,81.598z"/>
</g>
<g>
	<path fill="#101719" d="M258.563,11.273c0,0,0.013,0.39,0.037,1.121c0.007,0.726,0.095,1.795,0.146,3.146
		c0.09,1.353,0.191,2.989,0.347,4.86c0.083,0.934,0.17,1.928,0.262,2.975c0.111,1.044,0.228,2.142,0.349,3.287
		c0.06,0.571,0.121,1.155,0.183,1.749c0.084,0.593,0.169,1.196,0.256,1.811c0.16,1.226,0.325,2.494,0.496,3.796
		c0.209,1.297,0.423,2.628,0.643,3.99c0.105,0.68,0.212,1.367,0.319,2.061c0.131,0.69,0.264,1.387,0.397,2.089
		c0.263,1.404,0.531,2.831,0.801,4.276c0.285,1.441,0.655,2.884,0.961,4.35c0.598,2.937,1.398,5.873,2.173,8.814l0.558,2.212
		l0.672,2.174c0.437,1.452,0.872,2.897,1.303,4.332c0.854,2.873,1.937,5.618,2.82,8.339c0.419,1.371,0.984,2.657,1.482,3.941
		c0.502,1.284,0.994,2.54,1.472,3.762c0.889,2.482,1.961,4.723,2.87,6.84c0.46,1.058,0.902,2.071,1.322,3.035
		c0.398,0.978,0.786,1.902,1.224,2.73c0.845,1.673,1.538,3.166,2.12,4.392c1.158,2.456,1.775,3.903,1.775,3.903
		s-0.995-1.193-2.657-3.357c-0.828-1.084-1.848-2.397-2.967-3.941c-1.167-1.517-2.226-3.382-3.471-5.374
		c-1.22-2.005-2.625-4.146-3.78-6.579c-0.605-1.205-1.228-2.442-1.863-3.707c-0.641-1.265-1.286-2.563-1.824-3.933
		c-0.559-1.363-1.126-2.748-1.7-4.15c-0.569-1.406-1.176-2.819-1.623-4.302c-0.481-1.471-0.967-2.953-1.454-4.441l-0.716-2.242
		l-0.598-2.28c-0.384-1.524-0.768-3.049-1.15-4.568c-0.207-0.756-0.366-1.521-0.5-2.289c-0.146-0.766-0.291-1.529-0.435-2.289
		c-0.283-1.521-0.592-3.024-0.807-4.525c-0.193-1.504-0.384-2.989-0.571-4.45c-0.086-0.73-0.172-1.455-0.258-2.173
		c-0.053-0.721-0.105-1.436-0.157-2.143c-0.094-1.412-0.187-2.794-0.276-4.139c-0.04-2.701-0.142-5.242-0.018-7.595
		c0.044-1.175,0.057-2.298,0.124-3.367c0.091-1.067,0.177-2.079,0.258-3.031c0.146-1.899,0.418-3.547,0.608-4.898
		C258.147,12.782,258.563,11.273,258.563,11.273z"/>
</g>
<g>
	<path fill="#101719" d="M232.508,71.063c0,0,0.188-0.191,0.541-0.549c0.356-0.339,0.826-0.912,1.452-1.577
		c0.598-0.704,1.317-1.545,2.101-2.544c0.813-0.964,1.6-2.169,2.528-3.392c0.837-1.308,1.831-2.634,2.705-4.168
		c0.439-0.764,0.959-1.495,1.394-2.309c0.429-0.818,0.894-1.633,1.353-2.469c0.933-1.661,1.714-3.484,2.632-5.256
		c0.393-0.922,0.771-1.86,1.185-2.784c0.4-0.931,0.849-1.844,1.163-2.818c0.358-0.955,0.717-1.909,1.074-2.86l0.545-1.42
		c0.153-0.483,0.306-0.964,0.458-1.444c0.56-1.934,1.313-3.782,1.778-5.654c0.496-1.863,1.011-3.662,1.516-5.372
		c0.389-1.734,0.782-3.376,1.165-4.896c0.199-0.761,0.39-1.49,0.571-2.183c0.163-0.698,0.29-1.365,0.424-1.991
		c0.249-1.254,0.52-2.348,0.732-3.252c0.432-1.809,0.74-2.851,0.74-2.851s0.146,1.058,0.295,2.921
		c0.07,0.931,0.169,2.067,0.22,3.371c0.028,0.652,0.074,1.349,0.093,2.083c-0.025,0.73-0.051,1.499-0.079,2.301
		c-0.069,1.605-0.167,3.348-0.296,5.194c-0.256,1.827-0.546,3.758-0.882,5.753c-0.131,1.006-0.392,2.002-0.651,3.012
		c-0.249,1.013-0.514,2.036-0.793,3.064c-0.139,0.515-0.279,1.031-0.419,1.549l-0.537,1.526c-0.366,1.017-0.734,2.038-1.102,3.06
		c-0.764,2.031-1.762,3.978-2.663,5.915c-0.505,0.946-1.049,1.863-1.576,2.771c-0.529,0.907-1.027,1.815-1.641,2.639
		c-0.586,0.838-1.15,1.668-1.728,2.462c-0.578,0.792-1.214,1.522-1.81,2.242c-1.16,1.463-2.464,2.684-3.597,3.841
		c-1.227,1.084-2.331,2.077-3.417,2.843c-1.03,0.82-2.03,1.411-2.824,1.913C233.52,70.691,232.508,71.063,232.508,71.063z"/>
</g>
<g>
	<path fill="#101719" d="M270.816,79.355c0,0,0.084-0.227,0.292-0.63c0.213-0.397,0.513-1.001,1.003-1.696
		c0.481-0.703,1.094-1.556,1.951-2.412c0.846-0.865,1.875-1.815,3.208-2.623c1.326-0.806,2.939-1.506,4.793-1.839
		c1.842-0.328,3.923-0.292,5.912,0.266c1.98,0.554,3.889,1.484,5.582,2.673c0.442,0.281,0.815,0.623,1.228,0.936
		c0.394,0.326,0.83,0.627,1.18,0.992c0.709,0.72,1.508,1.394,2.141,2.166c1.341,1.509,2.534,3.1,3.588,4.724
		c0.516,0.816,1.029,1.626,1.499,2.443c0.443,0.828,0.886,1.641,1.296,2.453c0.824,1.62,1.496,3.233,2.131,4.757
		c0.57,1.549,1.121,3.006,1.545,4.377c0.415,1.375,0.754,2.646,1.052,3.771c0.299,1.123,0.472,2.132,0.643,2.95
		c0.324,1.642,0.449,2.595,0.449,2.595s-0.554-0.798-1.417-2.22c-0.433-0.71-0.948-1.575-1.521-2.568
		c-0.602-0.981-1.276-2.084-1.968-3.3c-0.714-1.197-1.486-2.493-2.304-3.865c-0.842-1.343-1.698-2.775-2.629-4.208
		c-0.481-0.706-0.946-1.436-1.421-2.17c-0.502-0.708-1.01-1.424-1.522-2.146c-1.05-1.412-2.123-2.826-3.298-4.106
		c-0.544-0.696-1.193-1.237-1.78-1.865c-0.622-0.57-1.241-1.13-1.879-1.641c-1.29-1-2.629-1.786-3.987-2.35
		c-2.719-1.094-5.571-0.924-8.011-0.111c-1.217,0.4-2.321,0.936-3.281,1.47c-0.952,0.548-1.778,1.085-2.435,1.566
		C271.532,78.701,270.816,79.355,270.816,79.355z"/>
</g>
<g>
	<path fill="#101719" d="M311.012,295.344c0,0,0.236-0.762,0.68-2.189c0.214-0.715,0.621-1.554,1.028-2.576
		c0.442-1.004,1.017-2.119,1.69-3.354c1.35-2.469,3.208-5.333,5.231-8.61c0.521-0.815,0.983-1.68,1.498-2.555
		c0.479-0.84,0.966-1.836,1.47-2.786c0.508-0.963,1.029-1.951,1.563-2.962c0.488-1.017,0.988-2.057,1.498-3.119
		c2.057-4.218,4.003-9.021,5.879-14.011c0.446-1.293,0.899-2.604,1.357-3.932c0.445-1.325,0.809-2.649,1.225-3.995
		c0.423-1.333,0.771-2.722,1.148-4.115c0.375-1.393,0.77-2.794,1.07-4.231c0.312-1.435,0.683-2.868,0.953-4.333
		c0.272-1.464,0.547-2.939,0.823-4.423c0.443-2.986,0.893-6.005,1.211-9.067c0.204-1.525,0.284-3.069,0.409-4.612l0.166-2.241
		l0.058-2.375c0.048-3.158,0.249-6.396,0.036-9.453l-0.137-4.644c-0.005-0.772-0.06-1.549-0.141-2.328l-0.207-2.332
		c-0.138-1.553-0.275-3.104-0.412-4.649c-0.162-1.543-0.434-3.07-0.643-4.598c-0.224-1.526-0.446-3.046-0.668-4.559
		c-0.288-1.503-0.574-2.998-0.859-4.484c-0.288-1.487-0.575-2.964-0.86-4.431c-0.36-1.451-0.719-2.892-1.073-4.321
		c-0.356-1.43-0.71-2.847-1.061-4.252c-0.424-1.384-0.833-2.758-1.227-4.123c-0.398-1.364-0.793-2.712-1.182-4.045
		c-0.431-1.319-0.896-2.61-1.334-3.892c-0.443-1.28-0.88-2.543-1.311-3.788l-0.321-0.93l-0.348-0.875
		c-0.24-0.609-0.478-1.213-0.714-1.813c-0.938-2.398-1.843-4.715-2.713-6.939c-0.964-2.156-1.889-4.223-2.768-6.188
		c-0.435-0.988-0.859-1.951-1.271-2.887c-0.465-0.913-0.916-1.799-1.354-2.658c-1.775-3.423-3.189-6.502-4.672-8.85
		c-1.411-2.392-2.475-4.311-3.223-5.607c-0.36-0.657-0.687-1.126-0.888-1.457c-0.207-0.327-0.313-0.495-0.313-0.495
		s0.127,0.154,0.372,0.453c0.238,0.302,0.624,0.731,1.061,1.337c0.889,1.201,2.224,2.944,3.866,5.212
		c1.733,2.214,3.482,5.126,5.547,8.446c0.516,0.831,1.048,1.689,1.596,2.572c0.499,0.913,1.012,1.853,1.538,2.816
		c1.035,1.944,2.124,3.988,3.26,6.122c1.017,2.163,2.075,4.417,3.171,6.749c0.271,0.584,0.543,1.173,0.818,1.768l0.425,0.937
		l0.373,0.931c0.5,1.247,1.007,2.512,1.521,3.795c0.509,1.286,1.048,2.581,1.552,3.909c0.463,1.342,0.933,2.701,1.406,4.075
		c0.468,1.377,0.94,2.769,1.418,4.175c0.401,1.43,0.807,2.873,1.215,4.329c0.406,1.457,0.816,2.926,1.229,4.406
		c0.337,1.5,0.677,3.011,1.019,4.531c0.337,1.522,0.677,3.053,1.018,4.592c0.244,1.559,0.489,3.125,0.736,4.697
		c0.231,1.575,0.524,3.147,0.708,4.74c0.157,1.597,0.314,3.198,0.473,4.802l0.236,2.409c0.091,0.801,0.156,1.609,0.171,2.428
		l0.183,4.899c0.181,3.307-0.051,6.435-0.129,9.617l-0.08,2.375l-0.009,0.229l-0.013,0.15l-0.026,0.301l-0.051,0.602l-0.103,1.202
		c-0.146,1.601-0.245,3.201-0.472,4.781c-0.699,6.347-1.979,12.514-3.543,18.376c-0.354,1.476-0.803,2.913-1.231,4.34
		c-0.42,1.429-0.848,2.839-1.362,4.223c-0.498,1.378-0.96,2.775-1.472,4.089c-0.521,1.304-1.036,2.592-1.544,3.863
		c-0.534,1.342-1.117,2.537-1.661,3.782c-0.56,1.225-1.063,2.453-1.685,3.601c-1.192,2.32-2.3,4.573-3.533,6.669
		c-0.596,1.054-1.18,2.086-1.75,3.094c-0.605,0.97-1.196,1.917-1.773,2.841c-0.597,0.928-1.116,1.801-1.733,2.706
		c-0.604,0.856-1.164,1.715-1.757,2.49c-2.308,3.162-4.44,5.767-6.005,8.052c-0.416,0.557-0.741,1.121-1.086,1.633
		c-0.326,0.52-0.686,0.987-0.93,1.458c-0.513,0.936-1.016,1.708-1.317,2.393C311.34,294.617,311.012,295.344,311.012,295.344z"/>
</g>
<g>
	<path fill="#101719" d="M476.359,217.59c0,0,0.757,0.637,1.889,1.942c0.549,0.661,1.247,1.457,1.926,2.446
		c0.346,0.493,0.714,1.019,1.103,1.572c0.373,0.564,0.723,1.179,1.112,1.813c0.796,1.262,1.462,2.721,2.237,4.247
		c0.329,0.786,0.668,1.594,1.015,2.419c0.169,0.416,0.34,0.836,0.513,1.261c0.144,0.434,0.289,0.872,0.436,1.314
		c0.299,0.883,0.581,1.789,0.867,2.707c0.25,0.926,0.468,1.874,0.686,2.83c0.508,1.9,0.717,3.886,1.011,5.858
		c0.157,0.985,0.193,1.982,0.248,2.973c0.063,0.99,0.09,1.979,0.131,2.957c0.061,0.979-0.045,1.951-0.079,2.909
		c-0.05,0.958-0.092,1.904-0.161,2.832c-0.165,1.853-0.517,3.625-0.781,5.3c-0.074,0.417-0.147,0.83-0.22,1.235
		c-0.093,0.402-0.2,0.796-0.307,1.182c-0.215,0.769-0.423,1.513-0.622,2.226c-0.432,1.416-0.756,2.721-1.265,3.821
		c-0.443,1.115-0.881,2.068-1.229,2.851c-0.704,1.564-1.161,2.426-1.161,2.426s0.022-1,0.158-2.693
		c0.071-0.846,0.144-1.872,0.285-3.025c0.073-0.576,0.135-1.191,0.135-1.851c0.031-0.65,0.063-1.335,0.098-2.049
		c0.045-0.708,0.092-1.444,0.141-2.207c0.027-0.379,0.055-0.765,0.083-1.156c0-0.394,0-0.793,0-1.198
		c-0.009-1.618,0.088-3.309,0.063-5.056c-0.094-1.749-0.094-3.548-0.194-5.37c-0.079-0.91-0.173-1.826-0.23-2.747
		c-0.064-0.92-0.113-1.846-0.271-2.759c-0.248-1.834-0.42-3.682-0.786-5.47c-0.155-0.9-0.31-1.793-0.462-2.676
		c-0.2-0.872-0.398-1.734-0.573-2.59c-0.09-0.428-0.179-0.852-0.268-1.272c-0.108-0.415-0.217-0.826-0.324-1.232
		c-0.206-0.819-0.408-1.62-0.605-2.4c-0.228-0.773-0.449-1.525-0.663-2.252c-0.192-0.74-0.419-1.439-0.646-2.109
		c-0.423-1.354-0.832-2.595-1.227-3.69c-0.394-1.093-0.753-2.049-1.053-2.84c-0.325-0.775-0.545-1.414-0.734-1.826
		C476.454,217.817,476.359,217.59,476.359,217.59z"/>
</g>
<g>
	<path fill="#101719" d="M442.457,257.813c0,0,0.229-0.906,0.744-2.438c0.509-1.535,1.304-3.693,2.372-6.228
		c1.075-2.53,2.438-5.429,4.046-8.457c0.802-1.515,1.661-3.064,2.581-4.613c0.907-1.557,1.888-3.104,2.883-4.646
		c1.019-1.525,2.05-3.047,3.137-4.501c1.07-1.465,2.189-2.866,3.318-4.193c2.265-2.647,4.596-4.988,6.977-6.687
		c1.202-0.837,2.397-1.535,3.696-1.871c0.636-0.163,1.316-0.261,1.961-0.083c0.633,0.162,1.15,0.525,1.436,0.919
		c0.604,0.778,0.613,1.479,0.709,1.902c0.028,0.439,0.043,0.673,0.043,0.673s-0.114-0.201-0.327-0.577
		c-0.227-0.344-0.577-0.911-1.136-1.243c-0.566-0.327-1.168-0.229-1.95,0.264c-0.769,0.476-1.582,1.325-2.421,2.272
		c-0.841,0.96-1.698,2.093-2.582,3.313c-0.887,1.22-1.792,2.542-2.726,3.92c-0.924,1.39-1.879,2.827-2.85,4.287
		c-0.965,1.473-1.946,2.97-2.927,4.466c-0.992,1.497-1.984,2.994-2.961,4.468c-0.978,1.476-1.957,2.921-2.915,4.316
		c-1.911,2.792-3.751,5.376-5.382,7.566c-1.638,2.186-3.053,3.986-4.079,5.23C443.085,257.121,442.457,257.813,442.457,257.813z"/>
</g>
<g>
	<path fill="#101719" d="M442.457,212.375c0,0,0.551,0.548,1.347,1.628c0.805,1.075,1.865,2.679,2.89,4.738
		c1.035,2.053,2.038,4.561,2.785,7.358c0.762,2.793,1.246,5.88,1.348,9.001c0.047,1.559-0.002,3.127-0.147,4.662
		c-0.137,1.536-0.406,3.036-0.727,4.469c-0.192,0.711-0.357,1.414-0.564,2.089c-0.23,0.668-0.456,1.321-0.675,1.957
		c-0.263,0.618-0.52,1.218-0.767,1.799c-0.261,0.573-0.556,1.11-0.825,1.625c-0.538,1.032-1.151,1.916-1.672,2.693
		c-0.569,0.756-1.071,1.399-1.518,1.903c-0.912,0.997-1.475,1.514-1.475,1.514s0.18-0.766,0.564-2.012
		c0.188-0.625,0.353-1.41,0.604-2.262c0.192-0.878,0.467-1.833,0.666-2.898c0.236-1.051,0.425-2.197,0.632-3.393
		c0.083-0.601,0.169-1.218,0.257-1.848c0.068-0.63,0.138-1.273,0.209-1.927c0.05-0.654,0.101-1.319,0.152-1.993
		c0.029-0.673,0.059-1.355,0.088-2.042c0.018-1.376,0.055-2.772-0.016-4.174c-0.013-1.401-0.138-2.803-0.229-4.188
		c-0.129-1.383-0.258-2.75-0.429-4.076c-0.329-2.652-0.731-5.145-1.115-7.302c-0.378-2.158-0.733-3.98-0.979-5.274
		C442.604,213.12,442.457,212.375,442.457,212.375z"/>
</g>
<g>
	<path fill="#101719" d="M396.813,276.711c0,0,0.316-1.254,0.999-3.397c0.682-2.143,1.71-5.185,3.127-8.757
		c2.763-7.176,7.077-16.482,12.268-25.358c1.312-2.21,2.647-4.41,4.05-6.525c1.385-2.126,2.83-4.171,4.289-6.113
		c2.918-3.879,5.961-7.314,8.949-9.919c1.491-1.304,2.98-2.384,4.4-3.202c1.408-0.833,2.797-1.337,3.974-1.542
		c1.181-0.213,2.138-0.087,2.724,0.115c0.303,0.062,0.507,0.21,0.651,0.262c0.142,0.066,0.214,0.101,0.214,0.101
		s-0.081-0.008-0.236-0.025c-0.158-0.003-0.377-0.066-0.674-0.041c-0.584-0.032-1.426,0.159-2.378,0.582
		c-0.956,0.437-2.006,1.185-3.109,2.17c-1.098,0.999-2.228,2.258-3.399,3.69c-2.338,2.872-4.799,6.481-7.314,10.447
		c-1.26,1.981-2.522,4.06-3.809,6.173c-1.27,2.125-2.569,4.281-3.832,6.464c-2.541,4.37-5.083,8.739-7.466,12.835
		c-1.2,2.053-2.361,4.037-3.462,5.918c-1.123,1.875-2.185,3.648-3.164,5.285c-1.957,3.28-3.661,5.985-4.867,7.877
		C397.541,275.643,396.813,276.711,396.813,276.711z"/>
</g>
<g>
	<path fill="#101719" d="M396.813,221.504c0,0,0.597,0.712,1.471,2.068c0.428,0.681,0.964,1.507,1.484,2.498
		c0.543,0.982,1.129,2.107,1.7,3.366c1.14,2.517,2.286,5.55,3.153,8.918c0.218,0.842,0.432,1.701,0.603,2.582
		c0.194,0.876,0.358,1.77,0.491,2.678c0.304,1.81,0.467,3.675,0.584,5.544c0.058,1.874,0.086,3.755-0.071,5.605
		c-0.034,0.462-0.068,0.922-0.102,1.38c-0.061,0.457-0.121,0.911-0.182,1.362c-0.106,0.903-0.263,1.791-0.449,2.657
		c-0.345,1.736-0.813,3.389-1.354,4.918c-0.252,0.769-0.563,1.498-0.863,2.198c-0.291,0.703-0.604,1.368-0.942,1.989
		c-0.616,1.266-1.354,2.338-1.967,3.289c-0.648,0.935-1.281,1.7-1.79,2.325c-1.101,1.203-1.766,1.83-1.766,1.83
		s0.294-0.895,0.871-2.355c0.247-0.742,0.548-1.644,0.893-2.678c0.287-1.048,0.647-2.196,0.93-3.478
		c0.164-0.631,0.325-1.289,0.441-1.984c0.132-0.689,0.303-1.386,0.393-2.126c0.248-1.459,0.442-3.004,0.579-4.605
		c0.147-1.6,0.229-3.258,0.254-4.947c0.032-1.687-0.004-3.407-0.083-5.127c-0.157-3.443-0.539-6.895-0.99-10.143
		c-0.453-3.248-1.007-6.287-1.497-8.913c-0.488-2.627-0.955-4.829-1.273-6.388C397,222.399,396.813,221.504,396.813,221.504z"/>
</g>
<g>
	<path fill="#101719" d="M310.898,316.645c0,0,0.415-0.291,1.192-0.838c0.379-0.281,0.847-0.628,1.396-1.036
		c0.538-0.423,1.156-0.908,1.849-1.452c0.7-0.527,1.429-1.185,2.244-1.856c0.814-0.675,1.683-1.42,2.596-2.233
		c1.854-1.588,3.84-3.51,6.049-5.536c2.152-2.101,4.485-4.359,6.875-6.837c2.449-2.408,4.871-5.121,7.474-7.815
		c2.503-2.799,5.159-5.621,7.749-8.593c2.571-2.99,5.279-5.937,7.817-9.042c2.601-3.05,5.205-6.095,7.687-9.169
		c2.49-3.064,5.025-6.013,7.345-8.98c2.369-2.931,4.659-5.764,6.83-8.45c2.13-2.722,4.184-5.269,6.084-7.619
		c1.904-2.348,3.637-4.512,5.156-6.444c1.516-1.935,2.883-3.592,3.999-4.964c2.24-2.74,3.573-4.274,3.573-4.274
		s-0.954,1.787-2.716,4.86c-0.885,1.534-1.947,3.406-3.219,5.519c-0.631,1.061-1.302,2.189-2.009,3.379
		c-0.722,1.181-1.531,2.387-2.349,3.667c-1.644,2.552-3.43,5.315-5.361,8.21c-1.954,2.878-4.107,5.851-6.321,8.937
		c-2.189,3.104-4.617,6.192-7.074,9.336c-2.414,3.178-5.045,6.269-7.655,9.375c-2.591,3.121-5.353,6.104-8.046,9.057
		c-1.325,1.495-2.731,2.898-4.105,4.298c-1.376,1.397-2.72,2.791-4.084,4.121c-2.781,2.613-5.416,5.185-8.094,7.443
		c-1.337,1.13-2.582,2.284-3.884,3.298c-1.29,1.021-2.537,2.009-3.734,2.957c-2.436,1.847-4.691,3.5-6.781,4.848
		c-2.04,1.407-3.93,2.48-5.47,3.368c-1.545,0.883-2.817,1.482-3.675,1.893C311.363,316.443,310.898,316.645,310.898,316.645z"/>
</g>
<g>
	<path fill="#101719" d="M310.717,317.649l-0.28,0.169l0.111-0.104c-2.177,3.905-4.771,7.547-7.594,11.013
		c-2.838,3.454-5.908,6.734-9.23,9.762c-3.296,3.057-6.88,5.813-10.654,8.299c-1.867,1.278-3.843,2.384-5.805,3.522
		c-0.999,0.535-2.023,1.024-3.037,1.534c-1.006,0.529-2.053,0.97-3.102,1.408c-4.158,1.844-8.532,3.206-12.98,4.215l-3.361,0.656
		c-1.12,0.228-2.263,0.302-3.394,0.459c-2.263,0.344-4.547,0.399-6.829,0.508c-1.142,0.089-2.282,0.019-3.423-0.007l-3.422-0.121
		l-3.398-0.38c-1.128-0.154-2.275-0.198-3.387-0.446c-4.492-0.749-8.898-1.908-13.185-3.354c-4.284-1.471-8.428-3.271-12.455-5.27
		c-1.981-1.063-3.973-2.102-5.936-3.183l-5.729-3.506l-1.385-0.838l-1.446-0.905c-0.949-0.615-1.876-1.253-2.791-1.906
		c-1.83-1.307-3.593-2.693-5.313-4.128c-3.476-2.827-6.672-5.973-9.7-9.261c-3.027-3.293-5.716-6.889-8.144-10.648
		c-2.401-3.778-4.438-7.797-6.052-11.99c-1.584-4.202-2.758-8.578-3.401-13.048c-0.648-4.47-0.76-9.018-0.442-13.539l0.776-1.155
		c3.85-2.141,7.716-4.124,11.637-6.06c3.912-1.941,7.878-3.768,11.876-5.529c8.004-3.502,16.167-6.662,24.476-9.433
		c8.313-2.759,16.761-5.181,25.383-7.001c4.308-0.924,8.67-1.627,13.063-2.164c4.393-0.528,8.828-0.884,13.288-0.885
		c4.458-0.004,8.938,0.265,13.39,0.932c4.449,0.664,8.878,1.738,13.121,3.407c4.242,1.653,8.304,3.878,11.917,6.709
		c3.608,2.836,6.725,6.281,9.216,10.085c2.51,3.8,4.36,7.963,5.728,12.223c1.321,4.281,2.123,8.662,2.625,13.048
		c0.16,2.201,0.422,4.391,0.412,6.591c0.014,1.099,0.066,2.195,0.048,3.292l-0.09,3.285l-0.048,1.64l-0.118,1.636l-0.236,3.266
		c-0.186,2.174-0.513,4.334-0.762,6.494l-0.409-0.292l0.528-0.235l0.239-0.106l0.233,0.438l-0.227,0.129l-0.533,0.303l-0.41-0.291
		l0.145-6.497l-0.025-3.242l-0.013-1.619l-0.083-1.616l-0.17-3.227c-0.068-1.074-0.207-2.141-0.307-3.21
		c-0.173-2.142-0.535-4.254-0.836-6.369c-0.771-4.201-1.799-8.332-3.238-12.292c-1.499-3.934-3.436-7.664-5.839-11.023
		c-2.406-3.359-5.328-6.301-8.639-8.706c-3.299-2.424-6.988-4.306-10.875-5.686c-7.797-2.745-16.254-3.671-24.687-3.512
		c-4.223,0.072-8.462,0.34-12.688,0.857c-4.228,0.497-8.438,1.208-12.643,1.987c-8.406,1.599-16.725,3.801-24.944,6.347
		c-8.214,2.571-16.327,5.507-24.358,8.666c-4.021,1.569-8.008,3.228-11.982,4.919c-3.963,1.7-7.928,3.474-11.774,5.352l0.775-1.154
		c-1.047,8.569-0.326,17.436,2.607,25.661c1.43,4.118,3.381,8.056,5.701,11.761c2.306,3.717,5.029,7.174,8.021,10.37
		c2.984,3.207,6.286,6.11,9.755,8.771c1.748,1.313,3.549,2.556,5.391,3.721c0.921,0.582,1.853,1.146,2.794,1.682l1.416,0.776
		l1.503,0.797l5.789,3.1l5.95,2.732c0.979,0.483,2.011,0.834,3.023,1.231l3.04,1.178l1.519,0.585l1.553,0.482l3.1,0.97l1.543,0.499
		l1.573,0.387l3.142,0.773c0.525,0.12,1.043,0.276,1.573,0.368l1.592,0.27l3.173,0.577c1.053,0.232,2.131,0.26,3.195,0.4
		l3.201,0.341l3.212,0.11c1.07,0.04,2.142,0.125,3.211,0.054c2.139-0.073,4.285-0.089,6.409-0.385
		c1.062-0.134,2.137-0.183,3.189-0.384l3.163-0.571c1.062-0.157,2.09-0.469,3.135-0.709c1.036-0.276,2.098-0.463,3.114-0.811
		l3.072-0.975c1.03-0.31,2.012-0.758,3.021-1.13c2.031-0.723,3.948-1.721,5.921-2.596c1.914-0.998,3.853-1.963,5.695-3.104
		l1.401-0.825l1.362-0.889c0.898-0.608,1.833-1.165,2.704-1.816l2.655-1.897l2.578-2.01c3.382-2.752,6.625-5.701,9.668-8.862
		c0.764-0.788,1.498-1.603,2.255-2.401c0.721-0.826,1.473-1.632,2.17-2.481c1.417-1.68,2.822-3.39,4.082-5.185l0.111-0.104
		l0.298-0.136l0.237-0.109l0.226,0.438L310.717,317.649z"/>
</g>
<radialGradient id="SVGID_6_" cx="185.9824" cy="205.2793" r="65.3787" gradientUnits="userSpaceOnUse">
	<stop  offset="0" style="stop-color:#F3F7F7"/>
	<stop  offset="0.1945" style="stop-color:#EDF3F5"/>
	<stop  offset="0.4649" style="stop-color:#DBE8F1"/>
	<stop  offset="0.7785" style="stop-color:#BDD5E9"/>
	<stop  offset="1" style="stop-color:#A4C5E2"/>
</radialGradient>
<path fill="url(#SVGID_6_)" d="M237.672,248.645c7.418-11.457,11.777-25.473,11.777-40.613c0-38.656-28.414-69.988-63.469-69.988
	c-35.051,0-63.465,31.332-63.465,69.988c0,28.988,15.98,53.859,38.758,64.484"/>
<g>
	<path fill="#101719" d="M237.448,248.511c0,0,0.587-1.16,1.687-3.335c0.594-1.073,1.16-2.449,1.846-4.045
		c0.172-0.398,0.35-0.812,0.534-1.239c0.196-0.421,0.38-0.866,0.538-1.343c0.337-0.939,0.695-1.937,1.074-2.992
		c1.391-4.247,2.896-9.474,3.62-15.625c0.136-0.76,0.207-1.542,0.256-2.338c0.062-0.794,0.124-1.6,0.188-2.417
		c0.176-1.63,0.133-3.32,0.177-5.046c0-0.849,0.06-1.771,0.012-2.589c-0.039-0.908-0.077-1.828-0.117-2.758
		c-0.146-1.811-0.279-3.596-0.552-5.484c-0.926-7.497-3.132-15.462-6.812-23.274c-3.656-7.804-8.779-15.563-15.754-22.08
		c-6.906-6.551-15.868-11.555-25.719-13.739c-2.468-0.489-4.964-0.926-7.494-1.084c-0.632-0.038-1.264-0.094-1.897-0.118
		l-1.903-0.021l-0.952-0.011c-0.264-0.009-0.628,0.022-0.938,0.032l-1.935,0.086c-5.039,0.322-10.075,1.455-14.828,3.167
		c-4.773,1.696-9.257,4.103-13.375,6.944c-4.143,2.813-7.886,6.142-11.223,9.768c-6.713,7.243-11.544,15.891-14.547,24.753
		c-1.482,4.443-2.574,8.934-3.224,13.397c-0.322,2.232-0.538,4.454-0.669,6.655c-0.111,1.098-0.093,2.197-0.147,3.285l-0.028,0.815
		l-0.003,0.102c0,0.118-0.004-0.047-0.002,0.009l0.005,0.211l0.01,0.421c0.014,0.561,0.027,1.12,0.04,1.677
		c0.036,1.107,0.034,2.237,0.099,3.303c0.098,1.037,0.195,2.066,0.291,3.088c0.047,0.511,0.093,1.021,0.14,1.529
		c0.067,0.51,0.162,1.021,0.241,1.528c0.158,1.018,0.315,2.027,0.47,3.029c0.147,1.004,0.422,1.972,0.623,2.948
		c0.231,0.969,0.403,1.946,0.677,2.885c0.279,0.938,0.556,1.868,0.83,2.788c0.137,0.461,0.273,0.92,0.408,1.376
		c0.148,0.452,0.328,0.89,0.489,1.333c2.491,7.119,5.891,13.24,9.477,18.25c3.606,5.01,7.406,8.892,10.744,11.868
		c3.413,2.885,6.334,4.896,8.393,6.154c2.08,1.243,3.188,1.906,3.188,1.906l-0.221,0.473c0,0-1.197-0.524-3.441-1.507
		c-2.226-1.036-5.387-2.785-9.205-5.391c-3.731-2.708-8.03-6.411-12.164-11.409c-4.15-4.973-8.087-11.261-11.123-18.698
		c-0.189-0.465-0.397-0.926-0.574-1.4c-0.164-0.48-0.328-0.962-0.493-1.447c-0.33-0.971-0.663-1.951-1-2.94
		c-0.33-0.992-0.557-2.023-0.844-3.049c-0.256-1.033-0.586-2.062-0.787-3.126c-0.204-1.065-0.409-2.139-0.615-3.222
		c-0.096-0.544-0.208-1.084-0.292-1.637c-0.064-0.561-0.129-1.125-0.193-1.69c-0.127-1.132-0.255-2.273-0.384-3.422
		c-0.09-1.125-0.11-2.211-0.169-3.331c-0.255-4.629-0.003-9.374,0.72-14.175c0.713-4.797,1.879-9.644,3.618-14.377
		c3.423-9.472,8.891-18.611,16.322-26.14c7.345-7.594,16.834-13.324,27.058-16.25l1.919-0.534c0.642-0.168,1.295-0.294,1.941-0.442
		c1.288-0.315,2.601-0.507,3.905-0.724c1.301-0.234,2.623-0.324,3.929-0.491c1.321-0.074,2.666-0.187,3.96-0.204l1.937-0.021
		c0.335,0.001,0.616-0.018,0.997,0l0.981,0.043l1.96,0.087c0.651,0.046,1.3,0.125,1.949,0.186c2.6,0.217,5.164,0.676,7.694,1.213
		c10.1,2.296,19.442,6.965,27.187,13.19c7.778,6.194,13.963,13.944,18.055,22.182c2.044,4.118,3.657,8.316,4.8,12.487
		c1.135,4.175,1.873,8.296,2.299,12.274c0.239,1.97,0.293,3.994,0.374,5.898c0.003,0.931,0.006,1.851,0.009,2.76
		c0.014,0.999-0.082,1.872-0.118,2.794c-0.108,1.816-0.145,3.588-0.44,5.29c-0.117,0.852-0.232,1.692-0.347,2.519
		c-0.103,0.828-0.225,1.64-0.414,2.429c-0.342,1.582-0.64,3.117-0.99,4.583c-0.431,1.445-0.847,2.837-1.246,4.176
		c-0.182,0.673-0.418,1.314-0.663,1.937c-0.236,0.625-0.468,1.236-0.694,1.833c-0.447,1.195-0.879,2.33-1.403,3.362
		c-0.99,2.084-1.828,3.956-2.79,5.485c-0.903,1.551-1.628,2.884-2.359,3.856c-1.394,2-2.136,3.067-2.136,3.067L237.448,248.511z"/>
</g>
<g>
	<path fill="#101719" d="M27.75,315.395c1.708-0.98,3.442-1.919,5.193-2.817c1.754-0.892,3.504-1.802,5.287-2.638
		c3.551-1.705,7.141-3.334,10.782-4.848c7.263-3.077,14.7-5.775,22.318-8.003c3.815-1.093,7.671-2.088,11.595-2.866
		c3.919-0.797,7.905-1.374,11.968-1.646c4.059-0.221,8.224-0.188,12.424,0.789c2.091,0.493,4.208,1.228,6.177,2.42
		c1.964,1.183,3.753,2.878,4.963,4.93l-3.73-0.408c0.823-0.802,1.565-1.424,2.357-2.101c0.787-0.651,1.573-1.298,2.376-1.914
		c0.793-0.633,1.611-1.225,2.427-1.82c0.811-0.603,1.648-1.16,2.471-1.741c0.824-0.578,1.672-1.116,2.512-1.668
		c0.835-0.559,1.702-1.066,2.55-1.6c0.847-0.538,1.711-1.044,2.585-1.535c0.873-0.491,1.729-1.01,2.614-1.476
		c1.759-0.953,3.512-1.909,5.305-2.788c0.899-0.435,1.784-0.894,2.696-1.3l2.717-1.249c1.801-0.847,3.671-1.551,5.5-2.329
		c1.849-0.733,3.724-1.405,5.591-2.079c-1.711,1.017-3.431,2.004-5.146,2.99c-1.697,1.022-3.401,2.022-5.085,3.052l-2.518,1.552
		c-0.844,0.506-1.659,1.064-2.486,1.597c-0.824,0.539-1.667,1.043-2.481,1.594l-2.447,1.639c-0.821,0.537-1.608,1.125-2.412,1.683
		c-0.801,0.564-1.601,1.128-2.388,1.709c-0.786,0.582-1.59,1.138-2.357,1.741l-2.32,1.78c-0.758,0.61-1.535,1.199-2.275,1.825
		c-0.746,0.621-1.495,1.238-2.222,1.872c-0.739,0.625-1.45,1.272-2.158,1.918c-0.685,0.64-1.418,1.338-1.989,1.942l-2.059,2.178
		l-1.671-2.586c-0.841-1.301-2.01-2.349-3.429-3.143c-1.42-0.789-3.051-1.36-4.783-1.72c-3.472-0.714-7.232-0.797-10.986-0.553
		c-3.766,0.216-7.557,0.769-11.339,1.432c-3.781,0.689-7.56,1.505-11.32,2.44c-7.53,1.841-15.004,4.057-22.469,6.367
		c-3.722,1.185-7.449,2.38-11.168,3.615L27.75,315.395z"/>
</g>
<g>
	<path fill="#101719" d="M27.75,315.395c0,0,0.396-0.396,1.175-1.1c0.787-0.692,1.928-1.734,3.46-2.957
		c1.526-1.23,3.39-2.72,5.617-4.306c2.209-1.611,4.748-3.371,7.595-5.169c2.83-1.83,5.967-3.699,9.337-5.592
		c3.391-1.849,6.994-3.764,10.818-5.545c3.804-1.826,7.816-3.54,11.931-5.188c4.129-1.61,8.366-3.146,12.66-4.507l3.223-1.009
		c1.082-0.31,2.162-0.619,3.24-0.928c2.149-0.643,4.32-1.177,6.472-1.708c2.143-0.565,4.296-1.016,6.421-1.465
		c2.119-0.479,4.232-0.853,6.31-1.218c2.074-0.388,4.125-0.701,6.136-0.975c1.004-0.142,1.998-0.283,2.979-0.422
		c0.986-0.108,1.959-0.216,2.92-0.321c3.835-0.464,7.486-0.654,10.844-0.871c3.366-0.121,6.446-0.248,9.18-0.196
		c2.733,0.038,5.109,0.043,7.067,0.179c3.914,0.227,6.139,0.418,6.139,0.418s-2.229,0.264-6.111,0.619
		c-1.941,0.148-4.289,0.514-6.98,0.777c-1.346,0.13-2.773,0.337-4.275,0.555c-1.502,0.199-3.081,0.409-4.729,0.628
		c-3.282,0.539-6.837,1.063-10.569,1.777c-0.935,0.167-1.881,0.335-2.84,0.506c-0.954,0.196-1.919,0.395-2.896,0.595
		c-1.951,0.404-3.95,0.778-5.961,1.267c-4.039,0.89-8.185,1.918-12.373,3.047c-2.097,0.558-4.201,1.146-6.303,1.777
		c-1.053,0.31-2.107,0.619-3.163,0.93L91.928,286c-4.209,1.303-8.358,2.791-12.441,4.258c-2.023,0.78-4.045,1.522-6.023,2.304
		c-1.972,0.798-3.93,1.563-5.832,2.376c-3.824,1.579-7.466,3.235-10.919,4.818c-3.428,1.631-6.681,3.167-9.631,4.692
		c-5.912,3.03-10.752,5.755-14.106,7.736C29.623,314.167,27.75,315.395,27.75,315.395z"/>
</g>
<g>
	<path fill="#101719" d="M64.621,255.348c0,0-0.434,1.038-1.271,2.798c-0.833,1.763-2.07,4.249-3.623,7.182
		c-1.557,2.931-3.443,6.299-5.535,9.859c-1.043,1.781-2.142,3.608-3.271,5.454c-1.142,1.837-2.302,3.704-3.462,5.571
		c-1.196,1.844-2.353,3.709-3.55,5.51c-1.177,1.813-2.346,3.587-3.504,5.292c-1.133,1.716-2.262,3.356-3.331,4.913
		c-1.073,1.554-2.087,3.023-3.024,4.379c-0.917,1.364-1.839,2.582-2.586,3.691c-0.734,1.117-1.45,2.063-1.989,2.865
		c-1.055,1.613-1.725,2.532-1.725,2.532s0.245-1.086,0.79-2.982c0.291-0.938,0.677-2.06,1.155-3.34
		c0.462-1.289,1.06-2.695,1.715-4.239c1.337-3.066,3.056-6.558,5.037-10.214c1.006-1.815,2.042-3.699,3.163-5.566
		c1.106-1.876,2.265-3.762,3.444-5.632c1.195-1.86,2.389-3.721,3.619-5.515c1.21-1.808,2.445-3.558,3.657-5.239
		c2.421-3.365,4.79-6.43,6.893-9.006c2.114-2.569,3.946-4.66,5.272-6.092C63.814,256.13,64.621,255.348,64.621,255.348z"/>
</g>
<radialGradient id="SVGID_7_" cx="72.1509" cy="192.5801" r="58.9347" gradientUnits="userSpaceOnUse">
	<stop  offset="0" style="stop-color:#F3F7F7"/>
	<stop  offset="0.1945" style="stop-color:#EDF3F5"/>
	<stop  offset="0.4649" style="stop-color:#DBE8F1"/>
	<stop  offset="0.7785" style="stop-color:#BDD5E9"/>
	<stop  offset="1" style="stop-color:#A4C5E2"/>
</radialGradient>
<path fill="url(#SVGID_7_)" d="M64.977,254.832c-26.918-4.188-47.66-30.453-47.66-62.223c0-34.68,24.719-62.797,55.207-62.797
	c27.375,0,50.098,22.668,54.453,52.398C126.977,182.211,129.152,229.469,64.977,254.832c0,0-0.121,0.18-0.355,0.516"/>
<g>
	<path fill="#101719" d="M64.93,255.089c-5.397-0.614-10.79-2.131-15.752-4.537c-4.988-2.374-9.586-5.585-13.648-9.37
		c-2.021-1.904-3.925-3.937-5.692-6.087c-1.74-2.172-3.334-4.459-4.802-6.829c-1.444-2.383-2.736-4.857-3.9-7.393
		c-1.148-2.544-2.098-5.173-2.94-7.834c-1.609-5.347-2.64-10.875-2.977-16.458c-0.057-0.697-0.079-1.395-0.092-2.094
		c-0.014-0.718-0.046-1.354-0.044-2.139c0.042-1.375,0-2.667,0.115-4.115l0.13-2.126l0.216-2.09c0.12-1.395,0.373-2.774,0.572-4.16
		c0.939-5.521,2.545-10.943,4.819-16.075c1.108-2.58,2.437-5.061,3.875-7.471c1.493-2.379,3.079-4.7,4.849-6.882
		c3.544-4.354,7.677-8.241,12.308-11.406c2.314-1.582,4.733-3.012,7.268-4.202c2.52-1.214,5.129-2.245,7.813-3.018
		c1.328-0.431,2.699-0.709,4.051-1.041c1.375-0.237,2.737-0.531,4.124-0.664c2.761-0.366,5.54-0.447,8.319-0.334
		c5.53,0.171,11.018,1.343,16.181,3.261c5.169,1.929,10.004,4.688,14.35,8.057c4.382,3.335,8.187,7.371,11.521,11.74
		c3.294,4.408,6.029,9.227,8.2,14.296c1.073,2.541,1.978,5.152,2.762,7.801c0.76,2.656,1.354,5.359,1.829,8.085l0.011,0.062
		l0.002,0.08c0.082,2.303-0.075,4.409-0.326,6.581c-0.248,2.155-0.639,4.285-1.113,6.395c-0.458,2.116-1.076,4.19-1.727,6.254
		c-0.348,1.023-0.709,2.044-1.082,3.06c-0.409,1.001-0.786,2.018-1.223,3.008c-0.867,1.984-1.824,3.928-2.851,5.835
		c-0.536,0.94-1.052,1.894-1.607,2.824l-1.722,2.756c-1.213,1.794-2.459,3.568-3.81,5.261c-0.646,0.871-1.351,1.692-2.054,2.515
		c-0.705,0.821-1.386,1.666-2.141,2.44l-2.218,2.37l-2.33,2.257c-0.764,0.767-1.586,1.467-2.398,2.18
		c-0.82,0.703-1.607,1.446-2.455,2.114c-1.693,1.337-3.353,2.724-5.126,3.951c-0.877,0.626-1.741,1.274-2.631,1.881l-2.704,1.769
		c-1.781,1.219-3.676,2.238-5.518,3.354c-1.859,1.083-3.783,2.042-5.673,3.067l-5.806,2.792l-5.916,2.531l1.246-1.001
		c0.046,0.064,0.039,0.093,0.022,0.116l-0.015,0.04c-0.001,0.016-0.047,0.002-0.068,0.005c-0.056-0.004-0.103-0.003-0.166-0.012
		l-0.258-0.076c-0.094-0.031-0.22-0.084-0.329-0.125c-0.119-0.048-0.271-0.12-0.406-0.181l-0.522-0.264l-0.639-0.347l-0.428-0.299
		l-0.55-0.476l-0.433-0.393l-0.317-0.31c-0.079-0.084-0.175-0.18-0.24-0.254l-0.169-0.205c-0.033-0.052-0.051-0.093-0.077-0.14
		c-0.006-0.019-0.037-0.055-0.023-0.06l0.029-0.024c0.013-0.021,0.036-0.035,0.111-0.013l1.246-1.001l5.75-2.357l5.633-2.604
		c1.829-0.959,3.698-1.853,5.497-2.864c1.779-1.044,3.62-1.994,5.337-3.134l2.615-1.652c0.86-0.567,1.692-1.174,2.54-1.759
		c1.715-1.146,3.312-2.443,4.948-3.692c0.819-0.624,1.575-1.32,2.366-1.977c0.783-0.666,1.578-1.32,2.313-2.037l2.253-2.101
		l2.152-2.201c0.735-0.719,1.394-1.505,2.08-2.268c0.684-0.765,1.371-1.528,1.998-2.338c0.634-0.806,1.31-1.58,1.91-2.411
		l1.821-2.479l1.713-2.554c0.553-0.863,1.069-1.749,1.606-2.623c1.031-1.772,1.991-3.586,2.88-5.435
		c0.452-0.921,0.847-1.868,1.274-2.802c0.392-0.948,0.773-1.901,1.144-2.858c0.695-1.93,1.365-3.876,1.879-5.864
		c0.532-1.982,0.986-3.989,1.302-6.014c0.321-2.002,0.547-4.109,0.557-6.024l0.013,0.141c-0.359-2.633-0.831-5.253-1.467-7.839
		c-0.66-2.579-1.438-5.131-2.382-7.625c-0.963-2.487-2.051-4.928-3.297-7.292c-1.283-2.343-2.699-4.613-4.25-6.791
		c-3.123-4.338-6.85-8.253-11.07-11.534c-4.197-3.318-8.958-5.886-13.959-7.721c-2.506-0.915-5.106-1.543-7.721-2.012
		c-1.307-0.247-2.631-0.381-3.95-0.531c-1.312-0.083-2.609-0.189-3.984-0.159c-2.64,0.017-5.299,0.217-7.897,0.688
		c-1.309,0.186-2.587,0.528-3.875,0.81c-1.265,0.376-2.544,0.695-3.777,1.163c-2.493,0.846-4.902,1.924-7.207,3.183
		c-2.32,1.231-4.516,2.685-6.603,4.269c-4.194,3.148-7.876,6.937-11.055,11.088c-1.599,2.071-3.021,4.273-4.358,6.52
		c-1.263,2.291-2.503,4.596-3.523,7.008c-1.033,2.403-1.951,4.861-2.676,7.377c-0.771,2.503-1.358,5.061-1.851,7.636
		c-0.2,1.296-0.455,2.584-0.581,3.892l-0.226,1.954l-0.141,1.932c-0.125,1.256-0.103,2.68-0.159,4.015l0.021,1.928
		c0.005,0.658,0.017,1.314,0.064,1.97c0.087,2.628,0.391,5.243,0.766,7.846c0.408,2.599,0.98,5.169,1.665,7.712
		c0.726,2.53,1.584,5.021,2.562,7.468c1.009,2.434,2.14,4.819,3.422,7.126c2.598,4.591,5.733,8.894,9.415,12.704
		c3.703,3.776,7.882,7.144,12.547,9.732c4.64,2.649,9.695,4.525,15.003,5.643L64.93,255.089z"/>
</g>
<path fill="#15282A" d="M200.676,228.219c0,16.348-13.848,29.594-30.945,29.594c-17.094,0-30.949-13.246-30.949-29.594
	c0-16.344,13.855-29.594,30.949-29.594C186.828,198.625,200.676,211.875,200.676,228.219z"/>
<g>
	<g>
		<path fill="#101719" d="M200.91,228.231c0,0-0.036,0.742-0.103,2.133c-0.004,0.695-0.122,1.555-0.272,2.57
			c-0.088,0.503-0.111,1.063-0.249,1.632c-0.132,0.572-0.272,1.179-0.42,1.821c-0.664,2.542-1.674,5.642-3.602,8.88
			c-1.919,3.209-4.698,6.627-8.624,9.294c-3.87,2.708-8.849,4.624-14.267,5.107c-0.675,0.067-1.361,0.044-2.047,0.069l-1.033,0.019
			l-0.518,0.009l-0.158-0.003l-0.062-0.005l-0.122-0.009l-0.245-0.02c-1.321-0.141-2.579-0.184-4.053-0.513
			c-0.711-0.14-1.436-0.266-2.133-0.445c-0.681-0.21-1.365-0.421-2.053-0.633c-0.692-0.187-1.357-0.468-2.021-0.753
			c-0.662-0.29-1.343-0.533-1.989-0.865c-2.61-1.279-5.053-2.909-7.348-4.754l-1.629-1.5c-0.571-0.471-1.066-1.024-1.57-1.57
			c-1.061-1.045-1.907-2.28-2.854-3.44c-1.708-2.461-3.142-5.141-4.212-8.004c-1.008-2.884-1.611-5.926-1.833-9.031
			c0.028-1.64-0.084-2.96,0.159-4.629c0.11-1.627,0.505-3.13,0.834-4.675c0.885-3.021,2.218-5.902,3.944-8.521
			c1.774-2.584,3.923-4.862,6.273-6.854c2.409-1.92,5.031-3.51,7.779-4.723c2.769-1.139,5.624-2.021,8.499-2.343
			c1.425-0.268,2.858-0.26,4.266-0.341l0.264-0.009l0.132-0.004l0.066-0.002l0.184,0.005l0.488,0.029l0.972,0.059
			c0.658,0.051,1.26,0.05,1.953,0.143c0.703,0.111,1.401,0.221,2.095,0.33l1.032,0.173l0.972,0.257
			c0.644,0.172,1.283,0.342,1.917,0.512c0.633,0.172,1.227,0.453,1.832,0.672c2.423,0.882,4.597,2.135,6.545,3.482
			c3.91,2.718,6.681,6.147,8.6,9.365c0.44,0.828,0.866,1.628,1.278,2.402c0.369,0.79,0.681,1.572,1,2.307
			c0.348,0.723,0.508,1.489,0.746,2.18c0.235,0.693,0.468,1.349,0.586,2.003c0.144,0.644,0.28,1.253,0.409,1.826
			c0.132,0.571,0.15,1.127,0.237,1.629c0.146,1.011,0.262,1.87,0.262,2.575c0.06,1.403,0.092,2.152,0.092,2.152L200.91,228.231z
			 M200.441,228.219c0,0-0.046-0.735-0.133-2.114c-0.003-0.693-0.174-1.53-0.359-2.512c-0.101-0.489-0.16-1.025-0.341-1.569
			c-0.172-0.545-0.355-1.124-0.549-1.735c-0.166-0.619-0.447-1.234-0.731-1.881c-0.316-0.633-0.555-1.332-0.979-1.978
			c-0.399-0.657-0.778-1.356-1.229-2.043c-0.496-0.655-1.009-1.333-1.54-2.034c-2.249-2.688-5.283-5.254-8.979-7.22
			c-0.952-0.441-1.857-1.001-2.883-1.362c-0.498-0.207-1.001-0.415-1.508-0.625c-0.504-0.215-1.051-0.336-1.579-0.512
			c-2.112-0.715-4.423-1.097-6.624-1.355c-0.572-0.071-1.262-0.06-1.894-0.094l-0.973-0.036l-0.489-0.018
			c-0.128-0.003,0.106,0,0.062,0.002l-0.057,0.004l-0.113,0.007l-0.227,0.015c-1.206,0.087-2.438,0.047-3.655,0.284
			c-0.61,0.095-1.231,0.159-1.843,0.277c-0.606,0.148-1.216,0.296-1.829,0.446c-0.62,0.126-1.217,0.336-1.82,0.538
			c-0.6,0.21-1.223,0.373-1.815,0.622c-2.389,0.956-4.676,2.254-6.837,3.801c-2.101,1.625-4.033,3.521-5.703,5.676
			c-1.6,2.2-2.953,4.609-3.981,7.197c-0.418,1.318-0.933,2.649-1.159,3.982c-0.365,1.248-0.436,2.917-0.609,4.239
			c-0.104,2.841,0.186,5.712,0.929,8.492c0.485,1.347,0.891,2.733,1.561,4.005c0.57,1.322,1.404,2.495,2.151,3.708
			c0.863,1.137,1.732,2.267,2.758,3.245c0.938,1.062,2.083,1.901,3.165,2.774c2.276,1.622,4.741,2.879,7.269,3.769
			c0.628,0.23,1.286,0.372,1.918,0.561c0.635,0.183,1.265,0.365,1.917,0.455c0.641,0.115,1.279,0.229,1.914,0.342
			c0.63,0.081,1.25,0.103,1.862,0.171c1.167,0.174,2.576,0.083,3.868,0.111l0.246,0.004l0.123,0.002l0.062,0.001
			c0.042,0.001-0.14-0.007-0.036-0.006l0.459-0.038l0.913-0.075c0.604-0.06,1.209-0.071,1.799-0.167
			c4.744-0.651,9.031-2.174,12.721-4.172c3.681-2.018,6.706-4.595,8.954-7.291c0.53-0.703,1.043-1.383,1.539-2.04
			c0.451-0.688,0.83-1.389,1.228-2.047c0.425-0.647,0.663-1.348,0.979-1.982c0.287-0.646,0.572-1.261,0.74-1.88
			c0.189-0.614,0.369-1.194,0.538-1.741c0.176-0.546,0.229-1.079,0.33-1.566c0.18-0.978,0.349-1.812,0.348-2.516
			c0.08-1.391,0.122-2.132,0.122-2.132L200.441,228.219z"/>
	</g>
</g>
<path fill="#15282A" d="M98.824,205.199c0,15.492-12.695,28.043-28.363,28.043c-15.664,0-28.359-12.551-28.359-28.043
	c0-15.484,12.695-28.035,28.359-28.035C86.129,177.164,98.824,189.715,98.824,205.199z"/>
<g>
	<g>
		<path fill="#101719" d="M99.059,205.211c0,0-0.032,0.691-0.092,1.987c-0.025,0.324-0.012,0.685-0.063,1.085
			c-0.053,0.401-0.111,0.838-0.173,1.311c-0.075,0.47-0.107,0.988-0.21,1.524c-0.117,0.534-0.241,1.102-0.373,1.701
			c-0.579,2.377-1.433,5.301-3.169,8.357c-1.706,3.043-4.196,6.322-7.796,8.931c-3.559,2.628-8.211,4.515-13.295,4.99
			c-0.633,0.075-1.278,0.045-1.921,0.071l-0.969,0.018l-0.486,0.008l-0.158-0.002l-0.057-0.004l-0.114-0.009l-0.228-0.019
			c-1.229-0.135-2.399-0.186-3.789-0.507c-2.716-0.47-5.183-1.466-7.634-2.655c-2.43-1.222-4.652-2.843-6.755-4.609
			c-2.035-1.856-3.889-3.923-5.492-6.216c-0.744-1.183-1.521-2.354-2.109-3.639c-0.332-0.623-0.662-1.249-0.902-1.916
			c-0.257-0.659-0.544-1.311-0.776-1.983c-0.927-2.695-1.456-5.536-1.681-8.429c0.021-1.538-0.099-2.753,0.114-4.315
			c0.093-1.518,0.422-2.934,0.72-4.375c0.777-2.83,1.936-5.562,3.503-8.041c1.609-2.445,3.531-4.66,5.702-6.564
			c2.215-1.844,4.62-3.432,7.193-4.592c2.572-1.135,5.252-1.983,7.951-2.311c1.338-0.258,2.685-0.262,4.008-0.336l0.248-0.009
			l0.124-0.004l0.062-0.002l0.184,0.005l0.455,0.029l0.905,0.056c0.617,0.052,1.164,0.044,1.828,0.144
			c0.663,0.108,1.321,0.216,1.975,0.323c0.324,0.06,0.656,0.104,0.967,0.178l0.911,0.249c0.603,0.167,1.202,0.333,1.796,0.498
			c0.585,0.192,1.145,0.446,1.708,0.665c2.26,0.872,4.269,2.095,6.068,3.395c3.586,2.659,6.068,5.948,7.774,8.999
			c0.394,0.781,0.775,1.537,1.143,2.267c0.305,0.752,0.598,1.478,0.88,2.175c0.289,0.689,0.438,1.401,0.647,2.049
			c0.104,0.325,0.205,0.642,0.303,0.951c0.083,0.313,0.138,0.627,0.206,0.927c0.127,0.602,0.248,1.17,0.361,1.706
			c0.099,0.537,0.125,1.052,0.199,1.521c0.061,0.472,0.117,0.908,0.168,1.307c0.05,0.399,0.035,0.768,0.059,1.094
			c0.053,1.308,0.081,2.005,0.081,2.005L99.059,205.211z M98.589,205.199c0,0-0.042-0.685-0.122-1.969
			c-0.004-0.645-0.151-1.426-0.324-2.341c-0.088-0.457-0.156-0.953-0.304-1.464c-0.158-0.508-0.326-1.048-0.503-1.619
			c-0.092-0.284-0.171-0.579-0.279-0.873c-0.123-0.289-0.249-0.584-0.377-0.888c-0.289-0.592-0.518-1.239-0.886-1.854
			c-0.357-0.615-0.729-1.255-1.116-1.919c-0.455-0.614-0.927-1.25-1.414-1.908c-2.05-2.533-4.821-4.967-8.2-6.862
			c-1.722-0.888-3.511-1.792-5.486-2.388c-0.49-0.153-0.984-0.308-1.482-0.464c-0.509-0.116-1.021-0.232-1.538-0.35
			c-1.043-0.298-2.038-0.301-3.067-0.487c-0.512-0.076-1.17-0.059-1.754-0.094l-0.906-0.034l-0.455-0.017
			c-0.131-0.003,0.114,0.001,0.07,0.002l-0.052,0.004l-0.104,0.007l-0.208,0.014c-1.111,0.08-2.247,0.05-3.368,0.274
			c-2.271,0.254-4.5,0.986-6.712,1.821c-2.205,0.89-4.272,2.172-6.245,3.634c-1.928,1.529-3.645,3.357-5.163,5.375
			c-1.456,2.063-2.651,4.335-3.581,6.749c-0.395,1.228-0.844,2.468-1.059,3.707c-0.338,1.158-0.399,2.727-0.567,3.949
			c-0.101,2.643,0.118,5.321,0.784,7.916c0.742,2.564,1.833,5.031,3.3,7.25c0.779,1.072,1.552,2.154,2.491,3.079
			c0.463,0.466,0.871,0.985,1.385,1.394l1.5,1.25c2.087,1.541,4.337,2.787,6.685,3.615c2.336,0.778,4.776,1.362,7.031,1.473
			c1.069,0.162,2.381,0.082,3.587,0.103l0.229,0.004l0.114,0.002l0.057,0.001c-0.176-0.005-0.019-0.004-0.044-0.006l0.424-0.037
			l0.842-0.073c0.558-0.061,1.118-0.064,1.661-0.168c4.376-0.636,8.314-2.103,11.701-4.011c3.362-1.948,6.123-4.394,8.171-6.935
			c0.487-0.659,0.958-1.297,1.413-1.913c0.386-0.666,0.757-1.307,1.115-1.924c0.367-0.617,0.596-1.265,0.884-1.858
			c0.13-0.303,0.258-0.599,0.382-0.888c0.109-0.294,0.19-0.589,0.284-0.873c0.173-0.573,0.337-1.114,0.492-1.625
			c0.142-0.513,0.206-1.006,0.292-1.461c0.168-0.91,0.313-1.69,0.313-2.345c0.072-1.296,0.111-1.987,0.111-1.987L98.589,205.199z"/>
	</g>
</g>
<g>
	<path fill="#101719" d="M116.685,302.025c0,0-0.31,1.481-0.89,4.259c-0.15,0.693-0.317,1.468-0.501,2.319
		c-0.093,0.426-0.191,0.871-0.292,1.335c-0.09,0.466-0.144,0.954-0.221,1.458c-0.298,2.009-0.64,4.318-1.024,6.904
		c-0.107,1.306-0.22,2.682-0.338,4.124c-0.103,1.441-0.315,2.939-0.346,4.515c-0.028,1.573-0.057,3.211-0.087,4.91
		c-0.008,0.848-0.06,1.71-0.049,2.588c0.039,0.877,0.078,1.77,0.118,2.677c0.096,1.812,0.125,3.684,0.281,5.601
		c0.226,1.914,0.437,3.881,0.645,5.899c0.053,0.505,0.106,1.012,0.16,1.522c0.09,0.507,0.18,1.016,0.271,1.528
		c0.181,1.024,0.364,2.061,0.55,3.109c0.185,1.048,0.372,2.107,0.561,3.18c0.262,1.056,0.527,2.124,0.795,3.203
		c2.013,8.651,5.247,17.777,9.859,26.842c4.615,9.046,10.562,18.14,18.295,26.237c2.002,1.928,3.993,3.985,6.063,5.87
		c1.097,0.932,2.188,1.879,3.306,2.799l1.673,1.392c0.561,0.46,1.151,0.865,1.726,1.303c2.319,1.716,4.617,3.497,7.127,5.022
		c1.232,0.794,2.467,1.591,3.705,2.389c1.254,0.772,2.557,1.47,3.845,2.197c1.298,0.71,2.568,1.478,3.896,2.142
		c1.331,0.659,2.665,1.319,4,1.98c2.652,1.359,5.446,2.438,8.186,3.638c1.369,0.604,2.787,1.093,4.197,1.601l4.229,1.526
		c2.845,0.946,5.722,1.807,8.585,2.688c11.562,3.219,23.396,5.244,35.082,6.409c11.694,1.142,23.291,1.198,34.396,0.167
		c5.551-0.521,10.984-1.248,16.255-2.213c5.263-0.993,10.372-2.168,15.28-3.544c9.802-2.798,18.786-6.398,26.67-10.518
		c3.995-1.972,7.603-4.256,11.049-6.403c1.669-1.157,3.296-2.286,4.877-3.383c0.811-0.525,1.545-1.124,2.274-1.708
		c0.732-0.582,1.454-1.154,2.164-1.719c1.424-1.125,2.818-2.2,4.039-3.379c1.26-1.14,2.476-2.237,3.643-3.293
		c0.601-0.513,1.131-1.072,1.649-1.621c0.522-0.545,1.033-1.079,1.533-1.601c1.009-1.038,1.971-2.028,2.883-2.969
		c1.712-1.98,3.203-3.79,4.525-5.349c0.324-0.395,0.657-0.76,0.94-1.137c0.276-0.383,0.541-0.749,0.795-1.1
		c0.51-0.701,0.974-1.337,1.388-1.907c1.683-2.275,2.58-3.489,2.58-3.489l0.445,0.271c0,0-0.765,1.31-2.198,3.765
		c-0.363,0.613-0.771,1.297-1.218,2.051c-0.225,0.376-0.46,0.77-0.706,1.181c-0.252,0.405-0.554,0.802-0.846,1.228
		c-1.193,1.687-2.542,3.651-4.107,5.817c-1.702,2.051-3.524,4.396-5.693,6.782c-2.26,2.296-4.564,4.95-7.432,7.353
		c-0.697,0.624-1.406,1.257-2.125,1.9c-0.718,0.646-1.442,1.308-2.242,1.897c-1.574,1.217-3.194,2.468-4.856,3.752
		c-3.455,2.379-7.084,4.93-11.135,7.146c-8.023,4.554-17.232,8.624-27.37,11.651c-1.271,0.365-2.549,0.733-3.837,1.104
		c-0.644,0.186-1.29,0.371-1.938,0.558c-0.656,0.152-1.314,0.307-1.975,0.46c-1.323,0.295-2.655,0.591-3.994,0.89
		c-0.67,0.147-1.342,0.296-2.016,0.444c-0.68,0.116-1.361,0.231-2.044,0.348c-5.458,0.984-11.078,1.752-16.82,2.119
		c-11.477,0.802-23.394,0.515-35.344-0.968c-11.957-1.454-23.899-4.324-35.424-8.267c-2.863-1.042-5.732-2.062-8.563-3.165
		l-4.202-1.761c-1.4-0.585-2.802-1.157-4.161-1.828c-2.738-1.293-5.524-2.463-8.166-3.913c-1.341-0.685-2.679-1.367-4.015-2.049
		c-1.334-0.685-2.611-1.473-3.916-2.201c-1.297-0.742-2.592-1.482-3.884-2.222c-1.261-0.79-2.52-1.578-3.776-2.365
		c-2.542-1.521-4.925-3.285-7.372-4.927c-0.602-0.422-1.228-0.821-1.808-1.261l-1.725-1.327c-1.143-0.89-2.306-1.747-3.455-2.612
		c-2.307-1.846-4.418-3.774-6.617-5.644c-8.431-7.804-15.378-16.752-20.373-26.111c-5.027-9.354-8.182-18.975-10.131-27.99
		c-1.853-9.042-2.69-17.512-2.414-24.99c0.007-0.934,0.014-1.853,0.021-2.756c0.038-0.903,0.125-1.789,0.192-2.658
		c0.149-1.737,0.293-3.411,0.431-5.02c0.391-3.203,0.927-6.121,1.35-8.754c0.605-2.615,1.166-4.94,1.671-6.949
		c0.13-0.501,0.235-0.99,0.373-1.446c0.148-0.451,0.29-0.885,0.425-1.299c0.274-0.827,0.522-1.579,0.745-2.252
		c0.91-2.688,1.395-4.121,1.395-4.121L116.685,302.025z"/>
</g>
<g>
	<path fill="#101719" d="M490.711,205.281c0,0,0.017,1.437,0.048,4.132c0.008,1.348,0.018,3.01,0.028,4.964
		c0.016,1.956,0,4.203-0.051,6.72c-0.077,5.034-0.233,11.15-0.684,18.158c-0.432,7.008-1.093,14.916-2.286,23.498
		c-1.185,8.58-2.805,17.857-5.325,27.501c-2.533,9.63-5.751,19.704-10.311,29.638c-2.216,4.992-4.786,9.93-7.612,14.8
		c-2.781,4.901-6.02,9.614-9.452,14.229c-3.453,4.605-7.276,8.98-11.265,13.224c-4.085,4.149-8.333,8.18-12.868,11.87
		c-9.016,7.489-19.108,13.647-29.588,18.406c-10.461,4.814-21.39,8.153-32.223,10.005c-10.827,1.854-21.651,1.999-31.635,0.146
		c-4.985-0.924-9.755-2.332-14.144-4.232c-4.386-1.908-8.403-4.235-11.929-6.924c-0.431-0.324-0.859-0.646-1.285-0.966
		c-0.419-0.369-0.836-0.735-1.251-1.1c-0.809-0.747-1.686-1.428-2.385-2.222c-0.729-0.774-1.469-1.52-2.157-2.291
		c-0.649-0.807-1.29-1.603-1.923-2.389c-2.402-3.24-4.321-6.547-5.811-9.786c-2.944-6.506-4.309-12.584-5.093-17.571
		c-0.772-5.006-0.882-8.979-0.959-11.673c0.007-2.696,0.01-4.135,0.01-4.135s0.095,1.434,0.272,4.12
		c0.246,2.679,0.678,6.606,1.697,11.5c1.05,4.875,2.758,10.74,5.867,16.886c1.583,3.056,3.572,6.131,5.99,9.094
		c0.631,0.717,1.269,1.444,1.915,2.18c0.679,0.704,1.403,1.38,2.113,2.083c0.693,0.734,1.503,1.301,2.264,1.96
		c0.388,0.319,0.777,0.642,1.169,0.964c0.438,0.305,0.878,0.61,1.32,0.918c6.855,4.823,15.489,8.258,24.978,9.746
		c9.503,1.503,19.804,1.071,30.175-0.832c10.386-1.907,20.834-5.412,30.92-10.059c10.092-4.645,19.749-10.621,28.389-17.863
		c4.401-3.542,8.52-7.412,12.486-11.396c3.87-4.077,7.583-8.277,10.942-12.708c6.712-8.854,12.433-18.266,16.909-27.904
		c4.547-9.605,7.996-19.345,10.729-28.739c2.688-9.412,4.631-18.497,6.122-26.94c1.461-8.451,2.493-16.263,3.254-23.208
		c0.746-6.947,1.274-13.024,1.631-18.036c0.362-5.012,0.624-8.952,0.772-11.645C490.63,206.716,490.711,205.281,490.711,205.281z"/>
</g>
<g>
	<path fill="#101719" d="M523.309,172.215c1.891-1.003,3.847-1.895,5.83-2.71c0.993-0.407,1.988-0.816,3.003-1.169l3.051-1.071
		c0.513-0.17,1.038-0.299,1.557-0.451l1.564-0.439c0.525-0.137,1.039-0.314,1.575-0.418l1.604-0.344l1.61-0.337
		c0.533-0.124,1.084-0.193,1.641-0.245l3.339-0.349l2.031-0.212l0.021,2.265c0.01,1.017-0.058,1.795-0.143,2.67
		c-0.097,0.846-0.227,1.685-0.397,2.512c-0.339,1.655-0.776,3.289-1.373,4.866c-0.574,1.584-1.261,3.128-2.062,4.611
		c-0.405,0.739-0.813,1.477-1.275,2.181c-0.436,0.723-0.915,1.414-1.41,2.095c-0.984,1.366-2.074,2.65-3.224,3.871
		c-1.147,1.223-2.375,2.368-3.669,3.421c-0.63,0.55-1.29,1.057-1.966,1.542c-0.669,0.495-1.338,0.991-2.046,1.421
		c-0.703,0.438-1.389,0.908-2.105,1.317l-2.167,1.196c-0.726,0.393-1.481,0.715-2.22,1.074c-0.74,0.358-1.484,0.702-2.252,0.986
		l-2.281,0.896l-2.317,0.768c-1.538,0.535-3.125,0.879-4.684,1.306c-1.578,0.349-3.157,0.678-4.742,0.952
		c-1.596,0.21-3.179,0.469-4.771,0.634c-1.594,0.149-3.188,0.283-4.781,0.349c-1.595,0.051-3.186,0.107-4.776,0.08
		c-1.591-0.037-3.181-0.11-4.763-0.203c1.559-0.329,3.111-0.637,4.661-0.909l4.615-0.968c1.534-0.313,3.039-0.762,4.56-1.084
		c1.513-0.366,3-0.821,4.493-1.225c1.472-0.484,2.952-0.916,4.406-1.417c1.433-0.555,2.907-0.993,4.298-1.626l2.114-0.87
		l2.057-0.977c0.691-0.313,1.366-0.652,2.025-1.019c0.66-0.364,1.343-0.691,1.984-1.082l1.928-1.162
		c0.64-0.39,1.241-0.833,1.863-1.245c0.631-0.402,1.205-0.875,1.8-1.321c0.601-0.438,1.186-0.896,1.737-1.389
		c1.143-0.944,2.201-1.975,3.228-3.029c1.021-1.06,1.98-2.178,2.857-3.353c0.449-0.58,0.887-1.169,1.281-1.787
		c0.423-0.6,0.794-1.231,1.165-1.863c0.385-0.625,0.704-1.284,1.062-1.925c0.305-0.665,0.651-1.315,0.917-1.997
		c0.574-1.348,1.078-2.73,1.459-4.142c0.195-0.705,0.355-1.415,0.507-2.124c0.133-0.685,0.252-1.473,0.301-2.032l2.053,2.053
		l-3.021,0.02c-0.505-0.009-1.013-0.001-1.526,0.064l-1.541,0.127l-1.548,0.12c-0.517,0.028-1.031,0.134-1.548,0.197l-3.107,0.443
		l-3.115,0.53c-1.044,0.166-2.067,0.424-3.115,0.602c-1.048,0.183-2.078,0.429-3.121,0.646
		C525.392,171.74,524.359,171.99,523.309,172.215z"/>
</g>
<g>
	<path fill="#101719" d="M510.27,129.023l4.213-2.875c1.406-0.962,2.852-1.855,4.281-2.776c1.435-0.913,2.862-1.841,4.317-2.721
		l4.372-2.629c1.459-0.875,2.912-1.762,4.391-2.604l4.45-2.498l4.453-2.499c1.48-0.842,3.006-1.596,4.515-2.386l9.074-4.698
		c3.072-1.471,6.163-2.905,9.246-4.359l4.633-2.167c1.568-0.668,3.129-1.358,4.707-2.007l9.448-3.939l7.45-3.106l-4.365,6.863
		c-2.239,3.522-4.455,7.023-6.778,10.47c-2.311,3.452-4.644,6.887-6.988,10.315c-2.348,3.426-4.745,6.818-7.192,10.177
		c-1.212,1.687-2.432,3.368-3.672,5.037c-1.242,1.666-2.445,3.359-3.723,5.001l-3.816,4.933c-1.264,1.649-2.587,3.259-3.877,4.889
		c-1.285,1.634-2.622,3.229-3.976,4.812c-1.356,1.582-2.674,3.189-4.06,4.746c-1.38,1.562-2.798,3.09-4.195,4.631
		c-1.44,1.509-2.905,2.996-4.364,4.48c-1.465,1.48-3.069,2.836-4.59,4.252c-0.747,0.722-1.616,1.322-2.437,1.961l-2.479,1.888
		l2.19-2.212c0.723-0.741,1.472-1.443,2.126-2.251c1.343-1.577,2.75-3.075,4.025-4.702l3.865-4.832
		c1.244-1.65,2.468-3.313,3.729-4.942c1.252-1.638,2.439-3.332,3.661-4.994c1.229-1.655,2.4-3.358,3.6-5.039
		c1.191-1.686,2.414-3.347,3.58-5.053l3.521-5.097c2.32-3.418,4.704-6.79,6.992-10.231l6.912-10.289
		c2.296-3.436,4.581-6.879,6.843-10.338l6.785-10.358l3.085,3.757l-9.376,3.792c-1.56,0.64-3.137,1.238-4.705,1.858l-4.652,1.996
		l-9.305,4.005l-9.241,4.172c-1.54,0.699-3.089,1.379-4.609,2.117l-4.599,2.147l-4.603,2.149l-4.575,2.206l-4.587,2.196
		l-4.566,2.239C516.355,126.002,513.311,127.496,510.27,129.023z"/>
</g>
<g>
	<path fill="#101719" d="M468.535,145.438c-0.073-2.098,0.264-4.194,0.673-6.262c0.257-1.02,0.473-2.061,0.768-3.075l0.968-3.023
		c0.342-1.003,0.782-1.962,1.17-2.949c0.402-0.98,0.784-1.975,1.277-2.91c0.941-1.893,1.838-3.83,2.97-5.618
		c1.096-1.81,2.116-3.685,3.363-5.394l1.821-2.606c0.607-0.87,1.211-1.744,1.894-2.551l3.979-4.953
		c1.372-1.61,2.846-3.126,4.277-4.684l2.163-2.324l2.285-2.192l4.579-4.384c1.574-1.406,3.22-2.724,4.827-4.09
		c1.627-1.339,3.208-2.744,4.876-4.03l5.044-3.801c1.709-1.229,3.365-2.538,5.117-3.7l10.511-6.97l5.685-3.769l-1.948,6.52
		c-1.481,4.958-3.053,9.831-4.691,14.708c-0.849,2.426-1.72,4.845-2.613,7.255l-1.36,3.609c-0.459,1.201-0.904,2.406-1.409,3.592
		l-1.474,3.567l-1.537,3.543c-0.499,1.185-1.057,2.35-1.609,3.513c-0.55,1.165-1.099,2.329-1.699,3.472
		c-0.597,1.145-1.149,2.305-1.78,3.432l-1.927,3.355c-0.699,1.089-1.395,2.176-2.112,3.243c-0.761,1.044-1.575,2.047-2.352,3.06
		c0.616-1.131,1.256-2.235,1.837-3.366l1.622-3.459l1.458-3.53c0.492-1.17,0.921-2.374,1.383-3.557
		c0.468-1.181,0.884-2.385,1.302-3.587c0.409-1.206,0.867-2.389,1.262-3.601l1.22-3.616l1.157-3.64
		c0.766-2.427,1.541-4.852,2.275-7.29c0.741-2.436,1.45-4.881,2.154-7.328c1.442-4.876,2.832-9.797,4.102-14.691l3.736,2.75
		l-10.237,6.986c-1.708,1.162-3.31,2.462-4.969,3.687l-4.981,3.668c-1.647,1.238-3.201,2.588-4.807,3.877
		c-1.583,1.314-3.21,2.583-4.76,3.933l-4.603,4.103l-2.304,2.052l-2.176,2.177l-4.357,4.355l-4.136,4.558
		c-0.712,0.745-1.342,1.551-1.978,2.354l-1.927,2.397c-1.353,1.556-2.472,3.268-3.679,4.93c-1.252,1.639-2.232,3.434-3.359,5.158
		c-0.576,0.856-1.041,1.769-1.529,2.672c-0.474,0.909-1.005,1.799-1.436,2.73l-1.296,2.804c-0.413,0.944-0.748,1.917-1.129,2.88
		C469.461,141.38,468.774,143.36,468.535,145.438z"/>
</g>
<g>
	<path fill="#101719" d="M434.633,177.164c-0.194-3.902-0.233-7.814-0.17-11.722c0.023-1.955,0.115-3.906,0.17-5.861
		c0.059-1.956,0.19-3.905,0.304-5.858c0.117-1.953,0.286-3.901,0.428-5.853c0.12-1.955,0.372-3.896,0.566-5.844
		c0.192-1.948,0.427-3.892,0.683-5.834c0.259-1.941,0.454-3.894,0.799-5.824l0.94-5.806l1.082-5.787
		c0.331-1.936,0.79-3.846,1.235-5.76c0.46-1.911,0.849-3.837,1.366-5.736l1.518-5.706c0.482-1.908,1.147-3.77,1.731-5.651
		c0.598-1.878,1.185-3.759,1.9-5.603l2.051-5.558l3.59-9.735l1.248,10.356l0.462,3.831l0.489,3.853
		c0.343,2.568,0.718,5.133,1.124,7.692c0.418,2.557,0.813,5.12,1.261,7.672c0.444,2.553,0.923,5.099,1.457,7.632
		c0.508,2.539,1.039,5.075,1.656,7.588c0.292,1.262,0.635,2.507,0.957,3.761c0.328,1.25,0.667,2.5,1.038,3.738
		c0.368,1.239,0.756,2.474,1.184,3.693c0.411,1.227,0.859,2.439,1.329,3.646l0.756,1.789l0.821,1.762
		c0.289,0.581,0.603,1.148,0.905,1.728c0.327,0.562,0.68,1.11,1.021,1.671c-0.425-0.495-0.865-0.984-1.283-1.494
		c-0.394-0.525-0.802-1.045-1.188-1.582c-0.368-0.546-0.741-1.093-1.096-1.651l-1.008-1.707c-0.635-1.157-1.271-2.321-1.833-3.516
		c-0.573-1.191-1.105-2.401-1.619-3.618c-0.518-1.216-1.001-2.444-1.476-3.677c-0.454-1.238-0.901-2.481-1.313-3.733
		c-0.426-1.249-0.821-2.506-1.218-3.764c-0.38-1.261-0.776-2.52-1.124-3.79c-0.703-2.539-1.351-5.091-1.963-7.65
		c-0.611-2.56-1.205-5.125-1.699-7.708c-0.51-2.58-0.988-5.166-1.436-7.758c-0.443-2.6-0.876-5.174-1.199-7.829l4.838,0.622
		l-1.922,5.424c-0.673,1.795-1.223,3.638-1.781,5.477c-0.542,1.845-1.164,3.661-1.677,5.517l-1.554,5.562
		c-0.531,1.851-0.936,3.739-1.409,5.606c-0.466,1.871-0.914,3.746-1.331,5.631l-1.277,5.65l-1.142,5.685
		c-0.393,1.894-0.721,3.8-1.094,5.7c-0.372,1.9-0.723,3.805-1.032,5.717l-0.966,5.733c-0.306,1.915-0.641,3.827-0.923,5.747
		c-0.554,3.84-1.175,7.68-1.669,11.537c-0.271,1.927-0.54,3.855-0.779,5.789C435.114,173.291,434.849,175.223,434.633,177.164z"/>
</g>
<g>
	<path fill="#101719" d="M342.695,205.199c0,0,0.245-0.32,0.734-0.896c0.492-0.573,1.207-1.424,2.175-2.45
		c0.962-1.031,2.14-2.28,3.561-3.637c1.414-1.365,3.022-2.901,4.874-4.462c1.827-1.593,3.861-3.259,6.075-4.947
		c2.232-1.662,4.615-3.387,7.186-5.022c1.268-0.845,2.597-1.643,3.951-2.439c1.336-0.825,2.751-1.559,4.157-2.332
		c1.428-0.735,2.868-1.479,4.344-2.169c1.496-0.649,2.962-1.375,4.498-1.958c1.522-0.609,3.053-1.2,4.612-1.708
		c1.536-0.564,3.117-0.991,4.68-1.425c1.548-0.48,3.15-0.749,4.699-1.104c1.563-0.308,3.132-0.521,4.662-0.749
		c1.553-0.117,3.067-0.307,4.563-0.35c1.501,0.011,2.959-0.088,4.384,0.02c0.711,0.051,1.412,0.102,2.103,0.152
		c0.688,0.051,1.367,0.082,2.028,0.216c1.322,0.236,2.604,0.388,3.81,0.674c1.197,0.307,2.345,0.601,3.437,0.88
		c1.056,0.386,2.057,0.753,2.997,1.098c0.944,0.316,1.784,0.734,2.554,1.123c0.767,0.383,1.472,0.735,2.108,1.053
		c1.229,0.72,2.146,1.359,2.784,1.758c0.628,0.416,0.963,0.638,0.963,0.638s-1.548-0.518-4.156-1.443
		c-0.671-0.178-1.414-0.375-2.223-0.589c-0.808-0.203-1.653-0.492-2.607-0.63c-0.936-0.173-1.932-0.357-2.982-0.552
		c-1.057-0.119-2.167-0.245-3.326-0.375c-2.323-0.163-4.834-0.21-7.48-0.076c-1.321,0.039-2.679,0.235-4.059,0.347
		c-1.379,0.173-2.782,0.421-4.207,0.63c-1.413,0.326-2.858,0.579-4.304,0.939c-0.721,0.192-1.445,0.387-2.174,0.582
		c-0.731,0.174-1.46,0.384-2.186,0.624c-1.458,0.445-2.921,0.908-4.373,1.444c-1.465,0.489-2.908,1.069-4.35,1.655
		c-2.896,1.14-5.726,2.463-8.502,3.795c-2.754,1.382-5.46,2.766-8.025,4.222c-2.582,1.426-5.031,2.898-7.357,4.3
		c-2.304,1.436-4.498,2.786-6.485,4.097c-1.988,1.309-3.805,2.527-5.413,3.619c-1.598,1.111-2.991,2.08-4.139,2.877
		C344,204.265,342.695,205.199,342.695,205.199z"/>
</g>
<g>
	<path fill="#101719" d="M249.553,533.415c-3.044,1.719-6.166,3.267-9.311,4.769c-1.567,0.765-3.162,1.464-4.749,2.183
		c-1.589,0.717-3.185,1.416-4.796,2.078c-3.212,1.353-6.451,2.644-9.725,3.845c-1.636,0.603-3.27,1.216-4.921,1.78l-4.971,1.647
		c-3.319,1.086-6.668,2.098-10.062,2.954c-1.693,0.439-3.407,0.809-5.117,1.189c-1.711,0.379-3.436,0.692-5.167,0.987
		c-1.725,0.313-3.468,0.547-5.207,0.785c-1.746,0.212-3.486,0.431-5.24,0.572c-1.748,0.166-3.504,0.285-5.258,0.38
		c-1.756,0.08-3.514,0.127-5.271,0.147l-0.065,0.001c-0.51,0.006-0.929-0.402-0.935-0.912c-0.003-0.264,0.106-0.504,0.28-0.675
		c1.567-1.52,3.142-2.905,4.743-4.311c1.6-1.394,3.212-2.769,4.836-4.129l4.934-4.006c1.659-1.316,3.322-2.631,5-3.928
		c1.684-1.288,3.357-2.594,5.068-3.851c1.698-1.274,3.423-2.513,5.156-3.742c1.737-1.224,3.479-2.441,5.257-3.606
		c1.785-1.151,3.554-2.335,5.382-3.418c1.815-1.106,3.638-2.199,5.487-3.247c1.84-1.063,3.707-2.079,5.566-3.11
		c1.877-0.994,3.735-2.032,5.636-2.98c1.89-0.974,3.787-1.932,5.7-2.857c1.899-0.957,3.836-1.832,5.767-2.72
		c1.924-0.905,3.895-1.7,5.84-2.556c1.958-0.823,3.938-1.595,5.906-2.393l5.964-2.239l-1.625,2.903l-0.409-2.936l-0.356-2.915
		c-0.219-1.944-0.43-3.888-0.585-5.837c-0.287-3.901-0.53-7.809-0.513-11.732c-0.003-1.96,0.029-3.925,0.142-5.887
		c0.053-0.981,0.13-1.963,0.215-2.943c0.099-0.98,0.185-1.96,0.33-2.938c0.13-0.977,0.306-1.952,0.486-2.922
		c0.195-0.971,0.41-1.937,0.684-2.891c0.278-0.954,0.588-1.897,0.966-2.817c0.384-0.918,0.854-1.801,1.38-2.639
		c0.077-0.122,0.238-0.158,0.36-0.082c0.108,0.068,0.149,0.203,0.104,0.318l-0.005,0.014c-0.354,0.885-0.64,1.785-0.843,2.711
		c-0.213,0.922-0.367,1.856-0.486,2.795c-0.107,0.943-0.195,1.886-0.25,2.834c-0.042,0.949-0.082,1.896-0.076,2.85
		c-0.018,1.901,0.029,3.806,0.151,5.711c0.118,1.904,0.243,3.808,0.441,5.71c0.394,3.802,0.85,7.601,1.444,11.384
		c0.293,1.891,0.58,3.783,0.908,5.668c0.323,1.877,0.674,3.781,1.05,5.607c0.25,1.213-0.411,2.401-1.514,2.857l-0.112,0.046
		c-7.739,3.208-15.41,6.544-23.035,9.983c-1.912,0.851-3.808,1.732-5.696,2.631c-1.898,0.881-3.769,1.813-5.656,2.719
		c-1.869,0.938-3.747,1.861-5.599,2.834c-1.855,0.967-3.717,1.923-5.555,2.923l-5.525,2.986c-1.83,1.019-3.676,2.012-5.494,3.057
		c-1.82,1.041-3.638,2.09-5.429,3.183c-1.796,1.085-3.584,2.187-5.333,3.348c-1.757,1.147-3.498,2.323-5.189,3.565
		c-1.713,1.215-3.378,2.494-5.012,3.81c-1.639,1.31-3.245,2.66-4.796,4.068c-1.541,1.406-3.069,2.88-4.423,4.402l-0.719-1.586
		l2.559-0.21c0.852-0.082,1.701-0.223,2.549-0.33c1.695-0.258,3.388-0.525,5.067-0.895c3.363-0.685,6.693-1.533,10.009-2.431
		c1.662-0.428,3.307-0.937,4.966-1.371l4.956-1.418l9.921-2.844l9.897-3.006l9.885-3.114l9.895-3.159l9.938-3.132
		c0.138-0.044,0.286,0.033,0.329,0.171C249.712,533.229,249.659,533.355,249.553,533.415z"/>
</g>
<g>
	<path fill="#101719" d="M287.297,540.18c-2.656,2.627-5.44,5.09-8.28,7.474c-1.405,1.211-2.868,2.344-4.299,3.52
		c-1.435,1.173-2.914,2.282-4.379,3.412c-1.458,1.14-2.963,2.214-4.453,3.309c-1.493,1.092-2.979,2.192-4.5,3.242
		c-1.525,1.047-3.093,2.03-4.66,3.016c-1.573,0.976-3.168,1.919-4.774,2.847c-1.608,0.925-3.213,1.852-4.839,2.749
		c-1.605,0.927-3.233,1.819-4.803,2.797c-1.586,0.954-3.16,1.925-4.696,2.951l-4.612,3.078c-1.515,1.063-3.043,2.104-4.53,3.209
		c-1.507,1.077-2.963,2.229-4.478,3.304c-3.023,2.156-6.028,4.361-9.103,6.466c-0.953,0.652-2.255,0.408-2.907-0.545
		c-0.372-0.543-0.453-1.199-0.277-1.783l0.068-0.221c0.437-1.431,0.902-2.755,1.398-4.102c0.48-1.348,1.03-2.659,1.552-3.986
		c0.556-1.31,1.093-2.63,1.673-3.93c0.591-1.293,1.159-2.6,1.788-3.876c0.631-1.274,1.22-2.572,1.887-3.829
		c0.676-1.252,1.33-2.517,2.029-3.755c0.718-1.229,1.438-2.456,2.18-3.67c0.724-1.225,1.532-2.399,2.313-3.588l1.179-1.777
		l1.253-1.729c0.844-1.146,1.665-2.306,2.526-3.437c0.869-1.126,1.779-2.222,2.669-3.328c0.881-1.113,1.819-2.184,2.773-3.237
		c0.96-1.05,1.881-2.127,2.869-3.146l3.019-3.005c0.994-1.007,2.066-1.942,3.135-2.873c1.072-0.93,2.152-1.845,3.246-2.74
		c0.112-0.092,0.277-0.075,0.369,0.037c0.076,0.093,0.078,0.222,0.013,0.315l-0.007,0.011c-0.807,1.164-1.628,2.309-2.457,3.438
		c-0.838,1.122-1.678,2.237-2.457,3.402l-2.41,3.416c-0.813,1.127-1.557,2.308-2.336,3.456c-0.761,1.161-1.584,2.273-2.305,3.462
		c-0.748,1.167-1.476,2.346-2.245,3.494c-0.745,1.165-1.448,2.358-2.173,3.534c-0.727,1.175-1.439,2.357-2.127,3.556
		c-0.682,1.201-1.421,2.367-2.093,3.573c-0.669,1.207-1.362,2.4-2.056,3.593c-1.328,2.419-2.697,4.814-4.002,7.248
		c-0.672,1.207-1.27,2.45-1.918,3.671c-0.639,1.225-1.233,2.469-1.85,3.704c-0.584,1.248-1.18,2.495-1.74,3.75
		c-0.581,1.241-1.12,2.534-1.632,3.74l-3.117-2.549c3.22-1.761,6.509-3.422,9.78-5.13c1.643-0.841,3.235-1.778,4.837-2.694
		c1.607-0.91,3.173-1.885,4.753-2.839c1.546-1.005,3.14-1.938,4.643-3.01c1.525-1.039,3.013-2.135,4.488-3.246
		c1.492-1.088,2.925-2.262,4.381-3.4l4.303-3.51c1.433-1.172,2.876-2.327,4.342-3.449c1.472-1.115,2.944-2.228,4.456-3.283
		c1.5-1.072,3.037-2.094,4.566-3.125c1.533-1.027,3.05-2.076,4.614-3.059c1.563-0.984,3.086-2.025,4.663-2.991
		c1.578-0.964,3.125-1.972,4.73-2.9c1.592-0.945,3.179-1.896,4.801-2.802c1.614-0.916,3.25-1.804,4.917-2.65
		c0.13-0.066,0.289-0.016,0.355,0.114C287.4,539.977,287.376,540.102,287.297,540.18z"/>
</g>
<g>
	<path fill="#101719" d="M316.875,527.858c1.348,1.85,2.558,3.756,3.757,5.666c1.182,1.917,2.354,3.835,3.459,5.783
		c1.114,1.943,2.21,3.893,3.271,5.857c1.056,1.967,2.132,3.921,3.114,5.922c1.002,1.989,1.882,4.044,2.783,6.09
		c0.426,1.039,0.876,2.062,1.329,3.085c0.455,1.021,0.885,2.064,1.395,3.055c0.488,1.005,0.989,2.005,1.527,2.983
		c0.559,0.961,1.138,1.911,1.74,2.847c0.612,0.927,1.293,1.799,1.957,2.685c0.685,0.865,1.45,1.643,2.188,2.444
		c0.348,0.378,0.323,0.967-0.055,1.314c-0.239,0.221-0.563,0.291-0.855,0.219l-0.039-0.011c-2.741-0.705-5.45-1.406-8.173-2.156
		c-1.356-0.381-2.716-0.766-4.061-1.191c-1.34-0.437-2.682-0.879-3.996-1.389c-2.644-0.985-5.239-2.101-7.827-3.246
		c-2.572-1.175-5.129-2.411-7.606-3.807c-2.474-1.397-4.879-2.936-7.185-4.625c-1.17-0.816-2.271-1.741-3.393-2.624
		c-1.098-0.924-2.199-1.836-3.224-2.847c-1.05-0.974-2.059-2.004-3.026-3.063c-0.947-1.086-1.9-2.157-2.743-3.328
		c-0.867-1.144-1.674-2.338-2.387-3.582c-0.743-1.223-1.345-2.532-1.903-3.833c-0.058-0.134,0.004-0.289,0.138-0.347
		c0.104-0.045,0.221-0.017,0.294,0.061l0.011,0.011c0.972,1.023,1.904,2.036,2.903,2.986c0.471,0.494,0.994,0.945,1.503,1.402
		c0.5,0.465,0.993,0.931,1.528,1.358l1.563,1.309l1.596,1.263c1.104,0.796,2.15,1.646,3.279,2.403
		c1.103,0.782,2.243,1.521,3.355,2.287c1.144,0.73,2.289,1.45,3.448,2.156c1.144,0.725,2.331,1.39,3.486,2.099l3.532,2.039
		c1.167,0.7,2.371,1.343,3.546,2.037c1.188,0.674,2.383,1.337,3.592,1.979c2.402,1.316,4.857,2.542,7.316,3.775l7.401,3.719
		c1.241,0.615,2.494,1.206,3.753,1.787c1.263,0.559,2.543,1.117,3.821,1.591l-0.949,1.522c-0.69-0.928-1.442-1.809-2.113-2.729
		l-1.987-2.77c-0.634-0.937-1.291-1.858-1.968-2.77c-0.646-0.929-1.308-1.846-1.993-2.754l-2.012-2.749
		c-0.677-0.916-1.343-1.839-1.987-2.772c-0.634-0.94-1.278-1.878-1.889-2.832c-0.596-0.962-1.177-1.933-1.729-2.919
		c-0.563-0.981-1.065-1.991-1.572-3c-0.499-1.013-1.005-2.021-1.468-3.051c-0.966-2.039-1.845-4.118-2.703-6.206
		c-0.848-2.092-1.615-4.22-2.343-6.363c-0.364-1.071-0.687-2.161-1.02-3.245c-0.308-1.095-0.617-2.191-0.859-3.313
		c-0.031-0.144,0.061-0.285,0.204-0.316C316.709,527.731,316.814,527.775,316.875,527.858z"/>
</g>
<g>
	<path fill="#101719" d="M316.637,527.965c0.922-0.856,1.854-1.697,2.807-2.508c0.479-0.403,0.938-0.827,1.433-1.214l1.503-1.14
		c1.013-0.742,2.001-1.562,3.05-2.243l3.126-2.104c1.041-0.708,2.129-1.326,3.193-1.995c1.068-0.662,2.164-1.271,3.253-1.896
		c1.091-0.621,2.199-1.21,3.309-1.8c1.112-0.594,2.229-1.14,3.386-1.709l1.35,4.706c-1.105,0.129-2.219,0.222-3.331,0.327
		l-0.418,0.037l-0.052,0.005l-0.193-0.001l-0.097-0.002l-0.192-0.003l-0.771-0.014l-1.543-0.038
		c-0.987,0.014-2.173-0.188-3.269-0.299c-0.557-0.065-1.119-0.132-1.667-0.217l-1.581-0.323c-1.05-0.23-2.121-0.396-3.137-0.719
		c-1.025-0.295-2.059-0.568-3.074-0.883l-3.002-1.05c-0.998-0.353-1.963-0.778-2.938-1.178c-0.979-0.394-1.935-0.832-2.882-1.287
		c-0.951-0.447-1.9-0.893-2.822-1.391c-0.924-0.496-1.861-0.96-2.764-1.491c-0.9-0.532-1.817-1.03-2.7-1.59
		c-0.88-0.565-1.78-1.089-2.636-1.69c-0.86-0.592-1.727-1.168-2.571-1.779c-1.688-1.222-3.338-2.502-4.889-3.9l5.74,2.373
		c1.893,0.804,3.811,1.539,5.706,2.297c0.944,0.385,1.903,0.735,2.852,1.104c0.943,0.381,1.904,0.712,2.854,1.064
		c0.947,0.361,1.9,0.699,2.858,1.02c0.957,0.322,1.899,0.683,2.863,0.968c0.962,0.29,1.91,0.626,2.87,0.905l2.879,0.821
		c0.96,0.258,1.927,0.473,2.888,0.712c0.961,0.257,1.927,0.409,2.89,0.603l1.445,0.28l1.394,0.176
		c0.949,0.104,1.793,0.305,2.868,0.308l1.542,0.073l0.771,0.042l0.192,0.011l0.097,0.005l0.023,0.001l0.013,0.001
		c0.134,0.001-0.169-0.001-0.134-0.001l0.044-0.003l0.352-0.021c0.939-0.053,1.877-0.117,2.823-0.146l0.313-0.01
		c1.356-0.04,2.488,1.025,2.529,2.382c0.031,1.039-0.592,1.948-1.493,2.334l-3.363,1.433c-1.131,0.478-2.259,0.967-3.381,1.469
		c-1.131,0.485-2.261,0.975-3.381,1.484l-3.386,1.491l-3.379,1.52l-3.36,1.542l-1.691,0.772c-0.574,0.243-1.131,0.536-1.696,0.802
		C318.934,526.94,317.79,527.461,316.637,527.965z"/>
</g>
<g>
	<path fill="#101719" d="M296.516,498.578c0,0-0.317-0.634-0.767-1.756c-0.46-1.122-1.056-2.733-1.653-4.683
		c-0.602-1.948-1.209-4.235-1.748-6.701c-0.271-1.233-0.529-2.51-0.756-3.813c-0.241-1.301-0.435-2.629-0.635-3.956
		c-0.172-1.331-0.354-2.661-0.479-3.978c-0.145-1.314-0.241-2.614-0.323-3.873c-0.161-2.519-0.204-4.885-0.16-6.924
		c0.041-2.039,0.172-3.752,0.309-4.957c0.125-1.203,0.258-1.899,0.258-1.899s0.318,0.633,0.77,1.756
		c0.462,1.121,1.059,2.732,1.658,4.682c0.603,1.948,1.21,4.235,1.747,6.701c0.267,1.233,0.532,2.51,0.753,3.813
		c0.241,1.301,0.432,2.63,0.631,3.957c0.172,1.331,0.35,2.662,0.475,3.979c0.14,1.314,0.242,2.613,0.32,3.873
		c0.16,2.52,0.203,4.885,0.159,6.924c-0.04,2.039-0.17,3.751-0.304,4.956C296.646,497.882,296.516,498.578,296.516,498.578z"/>
</g>
<g>
	<path fill="#101719" d="M219.368,489.094c-2.076-0.319-4.211-0.259-6.3-0.142c-2.096,0.146-4.178,0.408-6.242,0.763
		c-2.063,0.365-4.114,0.789-6.145,1.306l-3.04,0.795l-3.015,0.898c-0.995,0.34-1.996,0.65-2.996,0.967l-2.979,1.026l-5.897,2.26
		c-1.964,0.761-3.943,1.507-5.901,2.31c-1.978,0.762-3.946,1.556-5.915,2.369c-1.981,0.784-3.922,1.669-5.879,2.529
		c-1.936,0.9-3.858,1.838-5.746,2.841c-1.883,1.012-3.749,2.058-5.562,3.191c-1.789,1.171-3.628,2.264-5.361,3.521
		c-1.745,1.237-3.506,2.448-5.182,3.783c-1.687,1.318-3.384,2.617-5.023,3.995c-1.643,1.372-3.306,2.713-4.927,4.107
		c-1.634,1.378-3.254,2.77-4.913,4.109l-1.796-3.939c3.188-0.745,6.393-1.428,9.611-2.058c1.612-0.302,3.218-0.637,4.839-0.903
		c1.617-0.283,3.236-0.556,4.862-0.802c3.245-0.524,6.516-0.92,9.799-1.216c1.641-0.156,3.288-0.264,4.937-0.352
		c1.648-0.104,3.302-0.136,4.956-0.167c1.653-0.037,3.311-0.008,4.968,0.033c1.658,0.056,3.315,0.126,4.973,0.242
		c1.658,0.118,3.313,0.304,4.965,0.513c1.651,0.216,3.301,0.471,4.938,0.808c1.636,0.352,3.266,0.714,4.875,1.192
		c1.605,0.481,3.194,1.024,4.743,1.678c1.543,0.663,3.053,1.414,4.476,2.31c1.421,0.896,2.752,1.94,3.896,3.149
		c0.1,0.104,0.095,0.271-0.01,0.37c-0.09,0.086-0.229,0.092-0.328,0.026c-1.351-0.882-2.788-1.583-4.263-2.166
		c-1.476-0.583-2.994-1.045-4.533-1.418c-1.531-0.396-3.093-0.683-4.661-0.911c-1.562-0.257-3.145-0.415-4.724-0.558
		c-1.586-0.11-3.169-0.224-4.76-0.273c-1.59-0.057-3.184-0.057-4.777-0.052c-3.188-0.007-6.38,0.154-9.573,0.357
		c-1.597,0.101-3.192,0.229-4.789,0.358l-4.79,0.433c-3.194,0.318-6.39,0.654-9.589,1.023c-3.199,0.359-6.394,0.808-9.591,1.252
		c-3.196,0.46-6.385,0.982-9.581,1.491l-0.174,0.028c-1.2,0.19-2.329-0.628-2.52-1.828c-0.136-0.853,0.24-1.67,0.897-2.14
		c1.76-1.252,3.558-2.451,5.341-3.665c1.802-1.19,3.645-2.325,5.461-3.487c1.807-1.177,3.689-2.245,5.508-3.398l5.503-3.384
		l5.488-3.398c1.808-1.167,3.671-2.244,5.458-3.453l2.739-1.72c0.909-0.582,1.806-1.188,2.727-1.753
		c1.844-1.128,3.652-2.331,5.537-3.407c0.938-0.546,1.863-1.12,2.819-1.636l2.876-1.541c0.963-0.505,1.96-0.946,2.942-1.417
		c0.981-0.476,1.976-0.921,2.99-1.323c1.013-0.407,2.021-0.822,3.05-1.192l3.104-1.058c2.091-0.646,4.178-1.313,6.317-1.805
		l3.215-0.709c1.083-0.191,2.157-0.42,3.249-0.564c2.183-0.284,4.368-0.557,6.576-0.604c2.204-0.058,4.415-0.011,6.607,0.272
		c2.187,0.279,4.37,0.708,6.406,1.638c0.131,0.06,0.189,0.215,0.129,0.346c-0.05,0.109-0.165,0.168-0.277,0.15L219.368,489.094z"/>
</g>
<g>
	<path fill="#101719" d="M212.977,452.559c0,0,0.284,0.551,0.689,1.52c0.417,0.968,0.939,2.35,1.483,4.02
		c0.532,1.67,1.083,3.622,1.58,5.722c0.248,1.05,0.471,2.14,0.699,3.242c0.234,1.103,0.421,2.23,0.615,3.357
		c0.17,1.128,0.339,2.257,0.507,3.367c0.165,1.11,0.28,2.212,0.382,3.281c0.103,1.066,0.202,2.098,0.296,3.075
		c0.077,0.982,0.127,1.919,0.155,2.792c0.002,0.883,0.1,1.65,0.111,2.368c0.031,0.709,0.021,1.344,0.022,1.867
		c-0.005,1.049-0.063,1.678-0.063,1.678s-0.373-0.48-0.93-1.374c-0.275-0.447-0.62-0.991-0.973-1.635
		c-0.341-0.643-0.78-1.374-1.106-2.192c-0.346-0.816-0.701-1.709-1.053-2.662c-0.335-0.955-0.724-1.967-1-3.025
		c-0.289-1.057-0.578-2.153-0.823-3.277c-0.267-1.119-0.487-2.268-0.672-3.415c-0.168-1.151-0.342-2.302-0.464-3.442
		c-0.145-1.137-0.214-2.264-0.271-3.354c-0.122-2.182-0.111-4.231,0.001-5.996c0.094-1.762,0.297-3.245,0.477-4.282
		c0.071-0.517,0.181-0.927,0.233-1.205C212.941,452.707,212.977,452.559,212.977,452.559z"/>
</g>
<path fill="#101719" d="M115.555,242.348c-0.891-1.902-4.441-2.121-7.918-0.488c-3.477,1.637-5.57,4.5-4.676,6.402
	s4.434,2.117,7.91,0.492C114.348,247.117,116.445,244.25,115.555,242.348z"/>
<path fill="#F3F7F7" d="M177.977,235.25c-2.648,1.527-7.938-2.676-11.805-9.391c-3.883-6.711-4.879-13.391-2.234-14.918
	c2.648-1.527,7.934,2.672,11.813,9.391C179.625,227.043,180.617,233.719,177.977,235.25z"/>
<path fill="none" stroke="#101719" stroke-width="3.3907" stroke-miterlimit="10" d="M177.977,235.25
	c-2.648,1.527-7.938-2.676-11.805-9.391c-3.883-6.711-4.879-13.391-2.234-14.918c2.648-1.527,7.934,2.672,11.813,9.391
	C179.625,227.043,180.617,233.719,177.977,235.25z"/>
<path fill="#F3F7F7" d="M80.852,214.121c-2.645,1.523-7.938-2.676-11.809-9.387c-3.875-6.719-4.867-13.391-2.227-14.926
	c2.648-1.527,7.934,2.68,11.805,9.391C82.504,205.914,83.5,212.59,80.852,214.121z"/>
<path fill="none" stroke="#101719" stroke-width="3.3907" stroke-miterlimit="10" d="M80.852,214.121
	c-2.645,1.523-7.938-2.676-11.809-9.387c-3.875-6.719-4.867-13.391-2.227-14.926c2.648-1.527,7.934,2.68,11.805,9.391
	C82.504,205.914,83.5,212.59,80.852,214.121z"/>
</svg>
