<?xml version="1.0" encoding="utf-8"?>
<!-- Generator: Adobe Illustrator 16.0.2, SVG Export Plug-In . SVG Version: 6.00 Build 0)  -->
<!DOCTYPE svg PUBLIC "-//W3C//DTD SVG 1.1//EN" "http://www.w3.org/Graphics/SVG/1.1/DTD/svg11.dtd">
<svg version="1.1" id="lay" xmlns="http://www.w3.org/2000/svg" xmlns:xlink="http://www.w3.org/1999/xlink" x="0px" y="0px"
	 width="500px" height="500px" viewBox="0 0 500 500" enable-background="new 0 0 500 500" xml:space="preserve">
<path fill="#F4F6F8" d="M320.114,195.265c30.57-17.003,57.42-42.144,69.814-75.478C400.065,92.543,407.186-9.048,350.952,9.526
	c-34.662,6.783-54.74,19.326-66.133,30.11l0.332,0.332c-10.501-13.714-26.843-35.202-46.828-29.5
	c-16.708,4.77-55.805,67.313-59.11,82.419c-10.973,50.173,77.238,107.329,77.238,107.329L320.114,195.265z"/>
<path fill="#E6E9E9" d="M359.3,166.185c-15.958,3.979-46.104,10.698-57.365-6.739c-3.954-6.127-1.389-11.67-3.033-18.149
	c-1.086-4.266-3.939-7.629-7.583-9.987c-6.521-4.219-14.863-5.547-22.5-5.846c-1.078-0.044-2.157-0.063-3.238-0.036l6.28,28.284
	l8.579,26.829c0,0,3.403,12.193,4.713,14.011l34.963,0.714c0,0,15.27-9.017,21.331-13.733L359.3,166.185z"/>
<path fill="#E6E9E9" d="M274,161.39c-23.206,14.411-28.692-5.092-28.692-5.092c-13.483-20.863-40.186,0-40.186,0
	s26.68,25.444,26.586,25.361c-0.094-0.08,21.135,17.594,26.28,18.557l27.163-5.666L274,161.39z"/>
<g>
	<path fill="#101719" d="M256.302,200.447c0,0-1.031-0.578-2.962-1.662c-1.91-1.117-4.693-2.791-8.142-5.064
		c-1.734-1.124-3.619-2.419-5.656-3.853c-2.042-1.427-4.228-3.005-6.515-4.755c-4.607-3.461-9.644-7.584-14.946-12.32
		c-5.25-4.787-10.808-10.16-16.104-16.398c-5.288-6.234-10.294-13.345-14.521-21.225c-2.125-3.93-4.047-8.052-5.678-12.347
		c-0.808-2.149-1.536-4.344-2.179-6.576c-0.664-2.229-1.097-4.53-1.531-6.836c-0.759-4.635-0.941-9.431-0.324-14.194l0.273-1.78
		c0.055-0.314,0.076-0.556,0.158-0.931l0.2-0.856c0.114-0.562,0.312-1.163,0.491-1.755c0.175-0.605,0.375-1.173,0.579-1.733
		c0.781-2.273,1.696-4.468,2.644-6.648c3.836-8.69,8.269-17.063,13.092-25.031c4.827-7.962,9.862-15.632,15.143-22.804
		c2.625-3.599,5.363-7.032,8.175-10.311c2.802-3.289,5.72-6.387,8.904-9.168c1.614-1.379,3.224-2.725,5.063-3.887
		c0.871-0.61,1.886-1.123,2.881-1.627c0.506-0.248,1.104-0.43,1.652-0.629l0.419-0.144l0.104-0.036
		c-0.054,0.011,0.192-0.056,0.197-0.055l0.175-0.039l0.697-0.154c0.854-0.22,2.02-0.375,3.081-0.525
		c1.038-0.069,2.059-0.169,3.077-0.127c2.031,0.014,4.016,0.271,5.886,0.731c1.877,0.439,3.644,1.08,5.287,1.829
		c1.658,0.726,3.179,1.594,4.617,2.483c2.863,1.802,5.301,3.833,7.459,5.831c2.156,2.004,4.014,4.013,5.654,5.92
		c1.644,1.904,3.08,3.703,4.32,5.365c2.498,3.31,4.305,6.002,5.538,7.836c1.213,1.846,1.86,2.83,1.86,2.83
		c0.083,0.127,0.048,0.298-0.079,0.381c-0.116,0.076-0.268,0.053-0.357-0.047c0,0-0.783-0.879-2.25-2.526
		c-1.465-1.646-3.6-4.072-6.396-7.051c-2.803-2.965-6.29-6.491-10.64-9.981c-2.178-1.735-4.617-3.393-7.277-4.871
		c-1.34-0.716-2.734-1.401-4.205-1.935c-1.46-0.565-2.991-0.994-4.561-1.278c-1.565-0.313-3.182-0.444-4.814-0.379
		c-0.817-0.002-1.636,0.127-2.458,0.211c-0.778,0.164-1.485,0.247-2.462,0.54l-0.689,0.186l-0.172,0.046
		c-0.054,0.013,0.136-0.034,0.027-0.001l-0.063,0.027l-0.252,0.108c-0.338,0.158-0.67,0.248-1.025,0.432
		c-0.712,0.399-1.437,0.765-2.161,1.304c-1.459,0.964-2.888,2.212-4.31,3.488c-0.707,0.65-1.397,1.35-2.104,2.028
		c-0.686,0.714-1.375,1.433-2.07,2.157c-1.375,1.472-2.761,2.978-4.117,4.555c-2.718,3.146-5.373,6.494-8.059,9.919
		c-5.327,6.89-10.543,14.278-15.588,21.953c-2.511,3.845-5.015,7.741-7.454,11.697c-2.458,3.944-4.844,7.957-7.04,12.056
		c-1.084,2.053-2.144,4.125-3.044,6.233c-0.231,0.53-0.452,1.056-0.634,1.569c-0.192,0.52-0.401,1.019-0.557,1.6l-0.252,0.842
		c-0.057,0.193-0.121,0.533-0.181,0.792c-0.119,0.557-0.255,1.112-0.359,1.672c-0.379,2.25-0.567,4.529-0.606,6.81
		c0.031,2.282,0.215,4.557,0.559,6.806c1.468,9.013,5.45,17.313,10.245,24.53c4.792,7.264,10.324,13.622,15.633,19.552
		c5.338,5.914,10.599,11.341,15.659,16.154c5.014,4.864,9.808,9.131,14.078,12.898c2.158,1.86,4.179,3.602,6.046,5.211
		c1.892,1.587,3.63,3.045,5.199,4.362c3.16,2.614,5.665,4.649,7.382,6.028c1.721,1.375,2.639,2.108,2.639,2.108l0.007,0.005
		c0.119,0.095,0.138,0.268,0.043,0.386C256.565,200.485,256.417,200.512,256.302,200.447z"/>
</g>
<g>
	<path fill="#101719" d="M284.896,194.653c-2.391-5.331-4.562-10.751-6.607-16.223c-2.038-5.474-3.957-10.995-5.717-16.571
		c-1.785-5.569-3.404-11.194-4.875-16.863c-0.734-2.835-1.443-5.679-2.101-8.536c-0.639-2.862-1.242-5.733-1.801-8.616
		c-1.098-5.768-2.054-11.577-2.659-17.444c-0.609-5.865-0.977-11.775-0.906-17.719c0.023-2.971,0.202-5.948,0.509-8.922
		c0.312-2.973,0.751-5.946,1.395-8.892c1.338-5.861,3.386-11.72,6.839-16.861l-0.242,0.52c0.435-1.202,0.874-2.099,1.374-3.085
		c0.488-0.963,1.021-1.887,1.572-2.798c1.103-1.819,2.334-3.537,3.623-5.199c1.307-1.647,2.672-3.24,4.115-4.751
		c1.433-1.521,2.941-2.961,4.477-4.363l2.358-2.038l2.429-1.945c1.651-1.252,3.32-2.477,5.042-3.62
		c0.844-0.596,1.727-1.132,2.599-1.684c0.871-0.553,1.743-1.104,2.643-1.607l2.677-1.542l2.713-1.472
		c0.896-0.506,1.835-0.928,2.75-1.396c0.923-0.452,1.833-0.929,2.775-1.338c1.87-0.851,3.737-1.701,5.637-2.479
		c1.879-0.824,3.802-1.539,5.718-2.269c1.909-0.748,3.869-1.354,5.8-2.037l5.856-1.862l5.918-1.651l5.961-1.485l5.996-1.334
		l-0.119,0.031c4.949-1.668,10.217-2.808,15.607-2.452c2.683,0.18,5.37,0.744,7.908,1.742c2.541,0.99,4.913,2.417,7.021,4.139
		c4.234,3.461,7.357,8.016,9.713,12.784c2.373,4.787,4.012,9.855,5.24,14.976c1.236,5.124,2.018,10.326,2.54,15.534
		c0.526,5.21,0.745,10.437,0.765,15.656c0.021,10.441-0.737,20.863-2.339,31.209c-0.831,5.172-1.808,10.333-3.373,15.464
		c-0.393,1.28-0.828,2.577-1.328,3.848c-0.472,1.206-0.902,2.387-1.442,3.633c-0.511,1.239-1.035,2.463-1.59,3.654
		c-0.532,1.208-1.115,2.392-1.695,3.577c-2.375,4.713-5.084,9.248-8.038,13.602c-2.942,4.364-6.201,8.501-9.659,12.442
		c-3.45,3.95-7.151,7.664-11.005,11.189c-3.846,3.537-7.921,6.804-12.092,9.913c-4.19,3.086-8.503,5.991-12.967,8.633
		c-4.463,2.641-8.994,5.147-13.663,7.363c-0.138,0.065-0.302,0.007-0.367-0.13c-0.06-0.126-0.015-0.275,0.1-0.349
		c4.326-2.801,8.606-5.644,12.731-8.691c4.129-3.039,8.164-6.185,12.038-9.507c3.891-3.301,7.617-6.777,11.197-10.38
		c3.568-3.616,6.942-7.406,10.148-11.317c3.209-3.912,6.126-8.041,8.892-12.25c2.747-4.224,5.236-8.606,7.418-13.132
		c0.555-1.126,1.114-2.251,1.623-3.399c0.536-1.142,1.028-2.284,1.503-3.424c0.491-1.114,0.949-2.351,1.419-3.542
		c0.446-1.124,0.834-2.27,1.199-3.451c1.439-4.725,2.538-9.679,3.401-14.662c1.719-9.985,2.632-20.161,2.781-30.318
		c0.115-10.152-0.494-20.338-2.471-30.217c-1.015-4.924-2.383-9.775-4.376-14.327c-1.993-4.534-4.668-8.79-8.299-12.035
		c-3.606-3.264-8.241-5.27-13.145-5.762c-4.907-0.503-9.977,0.292-14.783,1.843l-0.061,0.019l-0.059,0.012l-5.971,1.192
		c-1.982,0.435-3.954,0.916-5.928,1.388l-5.875,1.593c-1.937,0.602-3.883,1.176-5.811,1.808c-1.904,0.696-3.838,1.314-5.718,2.072
		c-1.887,0.741-3.78,1.465-5.627,2.298c-0.925,0.413-1.868,0.783-2.777,1.23l-2.729,1.332c-0.916,0.429-1.799,0.925-2.693,1.396
		c-0.886,0.486-1.797,0.927-2.662,1.45l-2.619,1.521c-0.87,0.512-1.704,1.083-2.556,1.622c-0.855,0.534-1.681,1.112-2.505,1.692
		c-0.825,0.579-1.659,1.142-2.452,1.761c-1.621,1.192-3.182,2.458-4.72,3.744l-2.254,1.988l-2.173,2.068
		c-1.408,1.417-2.787,2.86-4.072,4.377c-1.298,1.507-2.51,3.079-3.658,4.687c-1.129,1.62-2.185,3.283-3.133,4.988
		c-0.469,0.854-0.921,1.717-1.317,2.59c-0.393,0.845-0.792,1.812-1.019,2.538l-0.077,0.245l-0.166,0.275
		c-2.832,4.7-4.67,10.029-5.75,15.538c-0.567,2.75-0.981,5.547-1.257,8.368c-0.292,2.819-0.402,5.665-0.473,8.516
		c-0.136,5.705,0.15,11.444,0.676,17.169c0.558,5.724,1.286,11.448,2.239,17.146c0.963,5.696,2.08,11.375,3.309,17.036
		c1.248,5.657,2.63,11.29,4.086,16.909c1.485,5.611,3.041,11.209,4.703,16.781c0.839,2.783,1.668,5.571,2.55,8.343
		c0.883,2.771,1.748,5.554,2.696,8.302c0.05,0.143-0.025,0.3-0.168,0.351C285.103,194.847,284.955,194.78,284.896,194.653z"/>
</g>
<g>
	<g>
		<path fill="#101719" d="M302.566,486.596c-2.374-0.498-4.658-1.189-6.944-1.878c-2.272-0.709-4.508-1.659-6.737-2.577
			c-1.123-0.453-2.221-0.954-3.287-1.505c-1.072-0.544-2.15-1.081-3.211-1.648l-1.598-0.843c-0.523-0.298-1.032-0.624-1.549-0.936
			c-1.032-0.624-2.052-1.271-3.058-1.938c-1.018-0.647-1.98-1.384-2.913-2.161c-0.941-0.765-1.863-1.552-2.77-2.353
			c-0.916-0.787-1.733-1.709-2.598-2.554c-0.845-0.872-1.712-1.706-2.527-2.601c-1.596-1.827-3.301-3.502-4.872-5.317
			c-0.792-0.898-1.669-1.716-2.437-2.638c-0.78-0.909-1.576-1.806-2.389-2.691c-1.523-1.855-3.149-3.656-4.575-5.639l-1.108-1.466
			c-0.353-0.501-0.671-1.024-1.01-1.539c-0.662-1.038-1.37-2.061-1.925-3.172c-1.181-2.183-2.188-4.488-2.909-6.893
			c-0.347-1.207-0.737-2.407-0.961-3.649l-0.391-1.854c-0.116-0.621-0.182-1.25-0.272-1.877c-0.376-2.507-0.428-5.057-0.327-7.593
			c0.174-2.529,0.513-5.059,1.173-7.502c0.636-2.449,1.473-4.838,2.529-7.125c0.537-1.141,1.115-2.259,1.747-3.354
			c0.66-1.105,1.289-2.114,2.157-3.25l-0.104,0.165c0.884-1.297,1.812-2.568,2.724-3.848c0.902-1.286,1.871-2.534,2.808-3.8
			l0.116-0.172c1.693-1.628,3.384-3.258,5.193-4.795c0.129-0.109,0.324-0.094,0.434,0.035c0.083,0.098,0.094,0.232,0.04,0.34
			c-1.077,2.115-2.27,4.138-3.462,6.161l0.116-0.171c-0.621,1.447-1.209,2.913-1.865,4.341c-0.645,1.434-1.275,2.876-1.948,4.293
			l-0.104,0.165c-0.422,0.846-0.933,1.915-1.332,2.922l-0.61,1.546l-0.551,1.57c-0.705,2.104-1.252,4.252-1.69,6.407
			c-0.473,2.152-0.702,4.335-0.938,6.512c-0.129,2.184-0.263,4.381-0.097,6.576c0.037,0.549,0.041,1.102,0.098,1.65l0.207,1.642
			c0.098,1.104,0.359,2.183,0.573,3.272c0.176,1.102,0.541,2.157,0.801,3.247c0.231,1.102,0.643,2.149,0.979,3.231
			c0.292,1.102,0.746,2.144,1.157,3.213c0.213,0.531,0.407,1.074,0.638,1.601l0.755,1.553c0.502,1.04,0.993,2.097,1.636,3.063
			c0.611,0.986,1.197,1.998,1.889,2.935c0.708,0.924,1.434,1.838,2.175,2.738c0.722,0.918,1.597,1.704,2.413,2.538
			c1.615,1.688,3.546,3.056,5.415,4.446c0.936,0.694,1.977,1.266,2.954,1.9c1,0.61,1.954,1.265,2.978,1.83
			c1.017,0.574,2.019,1.163,3.002,1.774c0.496,0.298,0.978,0.617,1.463,0.93l1.488,0.896c1.989,1.19,3.853,2.567,5.86,3.745
			c0.993,0.604,1.97,1.238,2.952,1.865l1.465,0.958l1.491,0.901c2.003,1.193,3.915,2.529,5.943,3.787
			c2.013,1.283,4.027,2.563,5.953,4.037c0.136,0.104,0.161,0.298,0.058,0.434C302.801,486.578,302.68,486.619,302.566,486.596z"/>
	</g>
	<g>
		<path fill="#101719" d="M358.209,493.016c-2.705-0.196-5.349-0.603-7.984-1.03c-2.63-0.514-5.254-1.2-7.871-1.895
			c-2.588-0.767-5.115-1.7-7.658-2.611c-2.474-1.089-4.988-2.099-7.34-3.457c-2.342-1.379-4.646-2.809-6.773-4.523
			c-1.074-0.835-2.173-1.617-3.21-2.492c-1.043-0.867-2.067-1.75-3.123-2.579c-0.532-0.409-1.051-0.835-1.548-1.291l-1.536-1.303
			l-1.564-1.265c-0.515-0.429-1.003-0.892-1.508-1.333c-2.058-1.729-4.017-3.574-6.003-5.435l-2.866-2.932l-2.667-3.162
			c-0.83-1.106-1.609-2.258-2.397-3.411c-0.696-1.205-1.405-2.417-2.025-3.673c-1.171-2.545-2.223-5.171-2.949-7.902
			c-0.181-0.683-0.375-1.364-0.54-2.052l-0.403-2.083c-0.299-1.388-0.384-2.805-0.547-4.212c-0.183-2.826-0.1-5.664,0.246-8.464
			c0.394-2.793,1.005-5.546,1.889-8.213c0.432-1.336,0.942-2.647,1.519-3.939c0.289-0.651,0.591-1.283,0.948-1.942l0.981-1.747
			l1.997-3.459l2.068-3.427l-0.082,0.236c0.853-2.14,1.691-4.282,2.671-6.391c0.071-0.154,0.254-0.221,0.408-0.149
			c0.117,0.055,0.184,0.173,0.178,0.294c-0.114,2.322-0.37,4.609-0.61,6.899l-0.082,0.237l-1.219,3.813l-1.29,3.779l-0.664,1.873
			c-0.185,0.55-0.364,1.152-0.535,1.744c-0.329,1.197-0.63,2.412-0.872,3.64c-0.491,2.451-0.83,4.928-1.011,7.402
			c-0.184,2.478-0.168,4.949-0.097,7.417c0.192,2.455,0.354,4.932,0.89,7.353c0.431,2.444,1.185,4.82,2.019,7.179
			c0.453,1.165,0.962,2.311,1.404,3.498c0.554,1.131,1.095,2.278,1.63,3.442l1.869,3.366l2.159,3.229
			c0.783,1.033,1.619,2.034,2.463,3.029c0.818,1.022,1.827,1.863,2.753,2.785c0.481,0.442,0.951,0.897,1.445,1.325l1.555,1.201
			c1.066,0.762,2.071,1.601,3.225,2.238c1.127,0.674,2.286,1.294,3.426,1.93c1.146,0.626,2.385,1.107,3.563,1.667
			c2.35,1.132,4.826,2.01,7.163,3.117c1.158,0.573,2.389,1.017,3.558,1.577c1.186,0.526,2.346,1.111,3.52,1.665
			c2.393,1.022,4.77,2.104,7.145,3.192c2.404,1.001,4.773,2.098,7.188,3.207c2.448,1.067,4.89,2.157,7.27,3.457
			c0.15,0.081,0.205,0.269,0.123,0.419C358.442,492.966,358.325,493.024,358.209,493.016z"/>
	</g>
	<g>
		<path fill="#101719" d="M389.834,486.605c-2.263-0.222-4.452-0.647-6.637-1.085c-2.176-0.464-4.334-1.146-6.486-1.802
			c-1.079-0.334-2.138-0.707-3.174-1.13c-1.047-0.399-2.083-0.829-3.121-1.255c-2.081-0.834-4.08-1.884-6.044-2.969
			c-1.963-1.095-3.774-2.48-5.58-3.821c-0.895-0.687-1.747-1.443-2.614-2.16c-0.85-0.748-1.76-1.393-2.588-2.159
			c-1.673-1.505-3.46-2.821-5.163-4.262l-5.241-4.174c-0.904-0.672-1.709-1.457-2.602-2.158l-1.311-1.087l-1.249-1.161
			c-1.712-1.516-3.273-3.205-4.755-4.977c-0.697-0.918-1.403-1.837-2.06-2.792l-1.851-2.957c-0.55-1.027-1.129-2.046-1.653-3.093
			c-0.473-1.072-1.004-2.124-1.416-3.228c-0.845-2.196-1.542-4.466-1.959-6.796c-0.241-1.158-0.355-2.339-0.492-3.513
			c-0.078-1.18-0.157-2.36-0.143-3.541c0.001-2.362,0.241-4.72,0.699-7.028c0.215-1.156,0.523-2.297,0.858-3.426
			c0.382-1.145,0.757-2.189,1.314-3.395l-0.101,0.378c0.211-0.783,0.461-1.56,0.689-2.34c0.23-0.78,0.467-1.56,0.727-2.335
			c0.497-1.554,1.028-3.104,1.628-4.642c0.062-0.159,0.241-0.237,0.399-0.176c0.116,0.046,0.189,0.153,0.196,0.27
			c0.102,1.647,0.135,3.285,0.133,4.917c0.01,0.817-0.002,1.632-0.021,2.444c-0.021,0.813-0.02,1.629-0.058,2.439l-0.101,0.378
			c-0.176,0.874-0.325,1.974-0.415,2.98c-0.095,1.032-0.156,2.065-0.183,3.1c-0.039,2.068,0.005,4.13,0.241,6.17
			c0.213,2.038,0.518,4.062,0.973,6.053c0.387,2.005,0.977,3.965,1.564,5.932c0.306,0.98,0.687,1.938,1.019,2.917l1.205,2.867
			l1.402,2.798l1.553,2.742c0.503,0.93,1.106,1.802,1.647,2.723c0.515,0.941,1.159,1.796,1.752,2.696l0.91,1.341l0.995,1.28
			c0.672,0.85,1.33,1.721,2.073,2.514c0.738,0.798,1.507,1.569,2.281,2.337c0.774,0.766,1.645,1.428,2.48,2.126
			c1.662,1.412,3.55,2.541,5.437,3.634c1.928,1.035,3.937,1.929,5.917,2.826c2.045,0.801,3.981,1.748,5.954,2.639
			c0.982,0.452,1.949,0.932,2.907,1.43l1.428,0.769l1.457,0.717c1.948,0.937,3.84,2.04,5.787,2.979
			c1.943,0.969,3.829,2.048,5.792,3.096c1.961,1.058,3.918,2.127,5.801,3.4c0.143,0.097,0.18,0.29,0.083,0.433
			C390.057,486.567,389.943,486.615,389.834,486.605z"/>
	</g>
	<g>
		<path fill="#101719" d="M428.899,468.326c-2.312,0.425-4.609,0.631-6.905,0.819c-2.295,0.161-4.639,0.09-6.968,0.049
			c-0.582-0.023-1.168-0.031-1.749-0.067l-1.732-0.16c-1.157-0.102-2.309-0.246-3.464-0.372c-2.31-0.248-4.594-0.757-6.855-1.3
			c-2.259-0.567-4.448-1.457-6.617-2.303c-1.077-0.459-2.137-0.973-3.197-1.455c-1.059-0.491-2.137-0.906-3.17-1.452
			c-2.091-1.015-4.221-1.875-6.31-2.862c-2.139-0.874-4.185-1.945-6.343-2.844c-2.064-1.07-4.23-2.018-6.248-3.266l-1.543-0.896
			c-0.494-0.33-0.988-0.664-1.473-1.013c-0.975-0.688-1.97-1.364-2.854-2.177c-0.902-0.79-1.834-1.558-2.649-2.449
			c-0.83-0.874-1.714-1.707-2.466-2.659c-0.777-0.931-1.586-1.843-2.268-2.854c-0.726-0.98-1.417-1.986-2.026-3.046
			c-0.313-0.525-0.628-1.049-0.92-1.586c-0.272-0.547-0.554-1.09-0.813-1.644c-0.555-1.091-0.974-2.244-1.411-3.384
			c-0.801-2.308-1.442-4.672-1.796-7.079c-0.382-2.399-0.567-4.822-0.496-7.238l0.088-1.808l0.191-1.802
			c0.162-1.215,0.337-2.355,0.684-3.634l-0.021,0.271c0.174-1.362,0.368-2.725,0.594-4.087c0.218-1.362,0.464-2.725,0.758-4.087
			c0.036-0.167,0.2-0.272,0.367-0.236c0.122,0.025,0.212,0.121,0.236,0.236c0.294,1.362,0.54,2.725,0.758,4.087
			c0.226,1.362,0.42,2.725,0.594,4.087l-0.021,0.271c0.029,0.98,0.072,2.12,0.176,3.185c0.109,1.081,0.258,2.157,0.417,3.227
			c0.325,2.14,0.818,4.241,1.391,6.298c0.276,1.032,0.62,2.042,0.951,3.052c0.149,0.51,0.376,0.994,0.557,1.492
			c0.191,0.494,0.347,1.001,0.566,1.483c0.45,0.96,0.79,1.964,1.288,2.899c0.237,0.472,0.451,0.955,0.675,1.436
			c0.236,0.473,0.508,0.928,0.751,1.397c0.253,0.466,0.477,0.948,0.752,1.401l0.827,1.362c0.519,0.932,1.16,1.784,1.762,2.669
			c0.579,0.903,1.296,1.704,1.96,2.552c0.646,0.864,1.419,1.62,2.135,2.435c0.705,0.827,1.472,1.6,2.247,2.374
			c0.389,0.386,0.767,0.786,1.145,1.19l1.217,1.123c1.598,1.542,3.363,2.917,5.168,4.26c1.876,1.226,3.783,2.444,5.855,3.338
			c0.509,0.242,1.022,0.473,1.54,0.696l0.773,0.339l0.802,0.272c1.068,0.366,2.151,0.69,3.235,0.998
			c2.184,0.574,4.44,0.904,6.651,1.287c2.261,0.232,4.452,0.636,6.663,0.97c1.107,0.164,2.204,0.364,3.297,0.591
			c0.548,0.104,1.091,0.239,1.637,0.357l1.651,0.297c1.1,0.214,2.202,0.409,3.3,0.647c1.101,0.232,2.198,0.474,3.301,0.654
			c2.21,0.395,4.392,0.923,6.646,1.387c2.255,0.472,4.509,0.961,6.749,1.668c0.164,0.051,0.255,0.226,0.203,0.39
			C429.104,468.228,429.009,468.307,428.899,468.326z"/>
	</g>
</g>
<path fill="#15282A" d="M447.782,303.895c0,0,35.104,6.564,43.332-25.323c0,0,5.967,49.026-44.551,46.052"/>
<g>
	<path fill="#101719" d="M447.831,303.624c1.162-0.043,2.32-0.107,3.467-0.194c1.146-0.074,2.285-0.188,3.415-0.314
		c2.26-0.256,4.484-0.595,6.665-1.037c1.089-0.228,2.17-0.465,3.231-0.759c1.069-0.265,2.111-0.606,3.149-0.935l1.537-0.545
		l1.505-0.604c0.983-0.441,1.97-0.873,2.913-1.378c0.485-0.231,0.96-0.477,1.418-0.752c0.461-0.27,0.954-0.491,1.395-0.794
		l1.373-0.839l1.343-0.898c0.457-0.294,0.854-0.659,1.297-0.977c0.447-0.314,0.868-0.662,1.271-1.031
		c0.85-0.698,1.612-1.49,2.388-2.291c0.395-0.395,0.709-0.854,1.07-1.28c0.354-0.433,0.711-0.867,1.014-1.34l0.921-1.414
		c0.279-0.489,0.531-0.994,0.793-1.495c0.548-0.991,0.912-2.069,1.327-3.124c0.38-1.067,0.644-2.178,0.948-3.269
		c0.127-0.466,0.608-0.74,1.074-0.612c0.347,0.095,0.587,0.391,0.635,0.725c0.222,1.621,0.324,3.18,0.453,4.776
		c0.103,1.589,0.157,3.185,0.185,4.791c-0.004,1.604-0.036,3.217-0.169,4.831c-0.065,0.807-0.118,1.62-0.252,2.422
		c-0.105,0.807-0.231,1.613-0.395,2.415c-0.145,0.806-0.342,1.6-0.561,2.393c-0.196,0.798-0.423,1.59-0.7,2.369l-0.393,1.176
		l-0.459,1.157c-0.299,0.775-0.617,1.544-0.992,2.293c-0.357,0.755-0.705,1.518-1.145,2.236c-0.426,0.726-0.813,1.475-1.308,2.162
		c-0.911,1.424-1.958,2.767-3.089,4.04c-0.59,0.613-1.188,1.223-1.796,1.819c-0.64,0.562-1.297,1.106-1.955,1.646
		c-0.648,0.556-1.393,0.979-2.085,1.472c-0.354,0.234-0.699,0.484-1.067,0.693l-1.12,0.602c-1.465,0.858-3.044,1.451-4.592,2.087
		c-0.79,0.271-1.595,0.493-2.388,0.738c-0.399,0.115-0.792,0.251-1.195,0.346l-1.216,0.242c-0.811,0.155-1.615,0.329-2.422,0.464
		c-0.813,0.094-1.624,0.193-2.436,0.265l-1.214,0.114l-1.215,0.029c-0.81,0.019-1.615,0.032-2.42,0.026
		c-1.608-0.033-3.208-0.201-4.792-0.34c-1.58-0.229-3.148-0.523-4.697-0.835c-0.149-0.029-0.246-0.176-0.217-0.325
		c0.024-0.118,0.119-0.203,0.231-0.22l0.019-0.002c1.568-0.229,3.118-0.417,4.654-0.584l2.288-0.38
		c0.757-0.13,1.521-0.19,2.265-0.377c1.483-0.378,2.992-0.537,4.426-1.015c0.721-0.213,1.444-0.396,2.164-0.585
		c0.708-0.228,1.402-0.489,2.101-0.729l1.043-0.365l1.01-0.432l2.004-0.87c1.275-0.687,2.576-1.307,3.759-2.111l0.906-0.567
		c0.294-0.2,0.569-0.427,0.858-0.632c0.558-0.438,1.171-0.804,1.686-1.292l1.606-1.384c0.492-0.509,0.994-1.005,1.504-1.496
		c0.946-1.052,1.904-2.103,2.744-3.263c0.456-0.551,0.818-1.175,1.22-1.771c0.41-0.591,0.765-1.222,1.122-1.853
		c0.376-0.62,0.703-1.27,1.016-1.93l0.482-0.983l0.426-1.016l0.433-1.015l0.386-1.038l0.387-1.042
		c0.114-0.353,0.217-0.709,0.342-1.061c0.253-0.702,0.473-1.416,0.675-2.139c0.216-0.718,0.419-1.443,0.61-2.174
		c0.394-1.46,0.699-2.949,0.976-4.451c0.247-1.505,0.462-3.025,0.558-4.555c0.116-1.521,0.126-3.085,0.021-4.565l1.709,0.112
		c-0.379,1.121-0.677,2.263-1.079,3.373c-0.42,1.105-0.764,2.239-1.256,3.321c-0.23,0.547-0.435,1.107-0.679,1.65l-0.768,1.621
		c-0.229,0.558-0.521,1.083-0.813,1.611c-0.295,0.526-0.565,1.072-0.887,1.588c-0.642,1.032-1.288,2.078-2.056,3.042
		c-0.361,0.503-0.746,0.987-1.165,1.442c-0.415,0.459-0.816,0.938-1.269,1.363l-1.359,1.284c-0.479,0.397-0.973,0.777-1.468,1.159
		c-0.49,0.39-1.022,0.712-1.546,1.051c-0.523,0.341-1.059,0.661-1.615,0.938c-1.093,0.6-2.238,1.079-3.391,1.531l-1.746,0.616
		l-1.773,0.505c-1.188,0.307-2.389,0.549-3.591,0.741c-1.205,0.175-2.409,0.323-3.618,0.381c-2.413,0.146-4.822,0.066-7.193-0.224
		c-1.186-0.167-2.361-0.354-3.523-0.613c-1.162-0.272-2.31-0.571-3.431-1.007c-0.144-0.057-0.215-0.219-0.159-0.362
		c0.042-0.107,0.143-0.174,0.25-0.178L447.831,303.624z"/>
</g>
<path fill="#FADA00" d="M167.526,287.476c7.043-60,75.362-101.277,152.588-92.21c77.229,9.074,134.127,65.057,127.079,125.055
	c-7.048,59.993-75.366,101.266-152.593,92.197C217.372,403.445,160.478,347.466,167.526,287.476"/>
<path fill="#15282A" d="M376.852,211.793c0,0,44.288,112.635-1.439,191.954l-61.515,10.022
	c78.857-76.498,8.248-218.254,8.248-218.254l29.697,6.389L376.852,211.793z"/>
<path fill="#15282A" d="M265.371,197.972c49.218,142.007-8.919,205.775-8.919,205.775l-38.042-19.093
	c48.085-74.876,6.194-171.816,6.194-171.816l16.909-8.864L265.371,197.972z"/>
<g>
	<path fill="#101719" d="M167.254,287.435c0,0,0.091-0.766,0.268-2.249c0.088-0.741,0.198-1.662,0.328-2.757
		c0.125-1.095,0.415-2.354,0.664-3.79c1.119-5.702,3.353-14.049,8.372-23.779c2.515-4.852,5.818-9.956,9.906-15.133
		c4.091-5.174,9.027-10.388,14.872-15.299c5.836-4.913,12.502-9.622,19.992-13.77c7.48-4.162,15.741-7.825,24.647-10.792
		c8.914-2.94,18.461-5.197,28.473-6.621c10.011-1.422,20.495-1.944,31.221-1.493c2.677,0.195,5.377,0.318,8.083,0.576
		c1.352,0.144,2.707,0.287,4.067,0.431l2.043,0.217l2.063,0.293c2.691,0.407,5.378,0.774,8.142,1.353
		c1.374,0.266,2.752,0.533,4.133,0.801c1.363,0.317,2.73,0.635,4.101,0.954c5.486,1.247,10.932,2.905,16.38,4.687
		c5.403,1.918,10.823,3.963,16.102,6.449c5.321,2.386,10.5,5.187,15.597,8.183c2.521,1.549,5.053,3.093,7.506,4.782
		c2.506,1.606,4.879,3.425,7.302,5.181c1.19,0.908,2.347,1.865,3.523,2.796l1.757,1.41l1.7,1.484c1.131,0.994,2.3,1.947,3.402,2.979
		l3.294,3.117c4.302,4.257,8.386,8.781,12.126,13.616c3.71,4.856,7.08,10.005,10.033,15.415c2.938,5.419,5.369,11.135,7.282,17.038
		c0.438,1.488,0.994,2.945,1.346,4.46l1.134,4.529l0.859,4.596c0.294,1.533,0.409,3.093,0.622,4.641
		c0.673,6.21,0.704,12.503,0.095,18.748c-0.668,6.152-2.006,12.439-3.942,18.385c-0.527,1.479-0.966,2.994-1.568,4.444l-1.797,4.357
		l-2.056,4.239c-0.328,0.715-0.708,1.401-1.101,2.081l-1.157,2.05c-3.171,5.412-6.818,10.534-10.905,15.254
		c-4.112,4.696-8.596,9.029-13.344,13.007c-4.76,3.969-9.869,7.443-15.091,10.649c-5.244,3.184-10.711,5.898-16.233,8.384
		c-5.566,2.385-11.212,4.488-16.93,6.22c-5.725,1.691-11.478,3.167-17.264,4.205c-5.77,1.135-11.563,1.84-17.312,2.361
		c-5.757,0.389-11.474,0.656-17.126,0.516c-1.413-0.028-2.822-0.057-4.228-0.085c-1.403-0.08-2.802-0.16-4.197-0.24
		c-2.794-0.115-5.555-0.429-8.303-0.697l-2.111-0.225l-2.009-0.286c-1.337-0.189-2.67-0.379-3.999-0.568
		c-2.67-0.406-5.381-0.956-8.041-1.425c-10.546-2.154-20.626-5.134-30.026-8.906c-9.401-3.766-18.148-8.229-26.112-13.204
		c-7.964-4.976-15.151-10.455-21.455-16.248c-6.324-5.775-11.688-11.929-16.208-18.069c-9.032-12.326-14.351-24.767-17.043-35.328
		c-2.639-10.614-2.883-19.258-2.663-25.048c0.086-1.451,0.091-2.735,0.22-3.837c0.124-1.1,0.228-2.025,0.312-2.771
		c0.167-1.488,0.254-2.257,0.254-2.257c0.017-0.15,0.153-0.259,0.303-0.241c0.145,0.017,0.25,0.143,0.243,0.287l-0.001,0.019
		c0,0-0.043,0.768-0.127,2.254c-0.042,0.742-0.094,1.664-0.156,2.759c-0.067,1.095,0,2.368-0.005,3.804
		c0.068,5.723,0.68,14.213,3.729,24.449c1.555,5.1,3.711,10.605,6.603,16.326c2.904,5.712,6.587,11.621,11.163,17.44
		c9.152,11.615,21.667,23.064,37.333,32.377c7.816,4.665,16.38,8.818,25.559,12.281c9.179,3.454,18.942,6.334,29.184,8.3
		c20.478,3.813,42.806,4.711,65.198,0.671c5.604-0.938,11.174-2.302,16.722-3.872c5.538-1.609,11.007-3.578,16.401-5.815
		c5.348-2.337,10.647-4.892,15.726-7.897c5.063-3.02,9.987-6.333,14.643-10.032c4.629-3.727,9.009-7.795,13.039-12.216
		c4.004-4.443,7.589-9.275,10.727-14.394c0.747-1.301,1.604-2.544,2.275-3.89l2.09-3.999l1.847-4.123
		c0.621-1.373,1.081-2.812,1.631-4.216c2.039-5.709,3.47-11.492,4.325-17.579c0.744-6.014,0.875-12.104,0.379-18.153
		c-0.168-1.507-0.239-3.028-0.486-4.525l-0.719-4.497l-0.991-4.446c-0.149-0.745-0.356-1.476-0.574-2.203l-0.633-2.188
		c-1.786-5.802-4.087-11.444-6.896-16.814c-2.856-5.344-6.165-10.422-9.793-15.23c-7.359-9.549-16.116-17.872-25.649-24.847
		c-4.799-3.445-9.723-6.656-14.828-9.467c-5.113-2.787-10.291-5.374-15.593-7.547c-21.094-8.99-43.309-12.863-64.11-13.657
		c-20.899-0.669-40.721,2.165-58.06,7.737c-17.388,5.474-32.215,13.723-43.762,22.952c-5.772,4.627-10.719,9.517-14.874,14.389
		c-4.14,4.887-7.515,9.738-10.212,14.333c-5.343,9.237-7.911,17.359-9.311,22.893c-0.332,1.394-0.695,2.607-0.887,3.693
		c-0.198,1.085-0.364,1.997-0.499,2.732c-0.268,1.469-0.406,2.228-0.406,2.228c-0.027,0.149-0.17,0.248-0.319,0.221
		C167.334,287.711,167.238,287.577,167.254,287.435z"/>
</g>
<path fill="#FADA00" d="M53.107,285.533c2.287,43.807,37.908,78.601,81.516,78.601c45.089,0,81.637-37.194,81.637-83.076
	c0-45.884-36.547-83.086-81.637-83.086c-24.684,0-46.811,11.155-61.78,28.774"/>
<g>
	<path fill="#101719" d="M53.38,285.513c0,0,0.058,0.439,0.169,1.293c0.133,0.847,0.23,2.133,0.541,3.755
		c0.503,3.247,1.494,8.017,3.389,13.838c1.938,5.799,4.886,12.668,9.506,19.761c4.614,7.069,10.853,14.43,19.077,20.725
		c8.155,6.343,18.282,11.571,29.733,14.545c11.424,2.905,24.256,3.784,37.067,1.08c12.818-2.515,25.422-8.833,35.627-18.168
		c5.098-4.667,9.601-10.062,13.329-15.961c3.657-5.944,6.627-12.33,8.65-19.001c1.062-3.319,1.787-6.731,2.424-10.138
		c0.227-1.722,0.569-3.422,0.695-5.15l0.253-2.58l0.133-2.586c0.131-1.719,0.086-3.444,0.104-5.161l0.002-0.645l-0.026-0.604
		l-0.06-1.319c-0.046-0.874-0.066-1.771-0.134-2.624c-0.294-3.343-0.641-6.752-1.339-10.074
		c-2.504-13.338-8.41-25.707-16.485-35.688c-4.016-5.014-8.576-9.432-13.416-13.257c-4.854-3.814-10.042-6.97-15.346-9.5
		c-10.638-5.029-21.764-7.413-32.077-7.618c-10.335-0.311-19.812,1.502-27.809,4.198c-4,1.365-7.65,2.944-10.924,4.614
		c-3.271,1.678-6.167,3.438-8.72,5.134c-5.096,3.417-8.706,6.679-11.103,8.95c-1.202,1.137-2.1,2.037-2.689,2.657
		c-0.594,0.618-0.901,0.937-0.901,0.937l-0.005,0.005c-0.105,0.109-0.279,0.112-0.388,0.007c-0.103-0.099-0.111-0.259-0.025-0.368
		c0,0,0.276-0.349,0.812-1.026c0.531-0.681,1.345-1.671,2.444-2.935c2.219-2.502,5.628-6.081,10.565-9.994
		c4.935-3.887,11.462-8.079,19.686-11.357c8.191-3.293,18.118-5.614,29.092-5.716c5.479-0.047,11.208,0.452,17.021,1.628
		c5.814,1.169,11.684,3.092,17.432,5.696c2.887,1.279,5.7,2.815,8.495,4.453c1.376,0.853,2.739,1.751,4.093,2.673
		c1.313,0.981,2.695,1.886,3.965,2.952c5.187,4.117,10.098,8.858,14.258,14.343c8.423,10.857,14.478,24.161,16.801,38.356
		c0.631,3.538,0.919,7.126,1.107,10.794c0.032,0.899,0.016,1.765,0.025,2.649l0.006,1.321v0.716l-0.03,0.678
		c-0.091,1.806-0.122,3.614-0.332,5.414l-0.278,2.699l-0.405,2.686c-0.228,1.796-0.675,3.559-1.007,5.335
		c-0.847,3.519-1.789,7.018-3.066,10.399c-2.407,6.813-5.773,13.246-9.786,19.165c-2.013,2.954-4.148,5.82-6.512,8.476
		c-2.297,2.712-4.807,5.221-7.404,7.604c-2.637,2.341-5.342,4.588-8.199,6.606c-2.863,2.005-5.804,3.878-8.847,5.533
		c-3.014,1.716-6.184,3.081-9.33,4.442c-3.193,1.242-6.413,2.393-9.697,3.225c-13.094,3.531-26.684,3.612-38.907,0.715
		c-1.527-0.362-3.028-0.79-4.515-1.221c-1.465-0.501-2.946-0.925-4.367-1.482c-1.421-0.556-2.852-1.058-4.215-1.691
		c-1.383-0.588-2.731-1.224-4.038-1.914c-5.265-2.685-10.058-5.83-14.329-9.248c-8.516-6.895-14.868-14.834-19.3-22.465
		c-1.142-1.892-2.104-3.803-3.04-5.637c-0.85-1.879-1.695-3.674-2.364-5.459c-0.739-1.756-1.287-3.502-1.863-5.145
		c-0.514-1.666-0.973-3.263-1.358-4.788c-1.516-6.119-2.063-11.024-2.252-14.385c-0.135-1.675-0.092-2.943-0.133-3.806
		c-0.019-0.86-0.029-1.305-0.029-1.305c-0.003-0.151,0.117-0.277,0.269-0.28C53.243,285.271,53.362,285.375,53.38,285.513z"/>
</g>
<path fill="#FFFFFF" d="M68.48,277.982c4.014-5.835,6.958-14.149,7.876-23.561c1.837-18.82-5.104-34.906-15.513-35.92
	c-10.411-1.015-20.335,13.416-22.175,32.242c-1.837,18.818,5.109,34.902,15.514,35.92C59.387,287.173,64.469,283.818,68.48,277.982"
	/>
<g>
	<path fill="#101719" d="M68.249,277.836c0,0,0.339-0.574,0.976-1.649c0.339-0.529,0.673-1.215,1.065-2.017
		c0.196-0.399,0.407-0.83,0.632-1.289c0.197-0.476,0.406-0.98,0.626-1.514c0.892-2.127,1.755-4.802,2.493-7.922
		c0.775-3.119,1.22-6.711,1.471-10.655c0.178-3.908,0.014-8.2-0.772-12.593c-0.799-4.372-2.146-8.956-4.625-12.964
		c-1.25-1.971-2.771-3.815-4.634-5.091c-1.857-1.291-3.979-1.962-6.198-1.777c-2.108,0.161-4.264,1.162-6.101,2.626
		c-1.864,1.457-3.457,3.372-4.832,5.435c-2.707,4.188-4.526,9.026-5.615,13.908c-0.556,2.443-0.922,4.91-1.169,7.355l-0.083,0.917
		l-0.037,0.42l-0.03,0.479c-0.037,0.636-0.098,1.288-0.113,1.86c-0.06,1.167-0.083,2.395-0.064,3.575
		c0.004,4.758,0.576,9.331,1.637,13.485c0.532,2.078,1.245,4.027,2.091,5.808c0.815,1.8,1.828,3.392,2.954,4.743
		c1.153,1.312,2.409,2.403,3.772,3.083c1.338,0.723,2.813,0.985,4.19,1.022c2.777,0.011,5.261-1.228,7.088-2.438
		c1.834-1.265,3.133-2.535,3.994-3.416c0.439-0.437,0.748-0.799,0.964-1.036c0.215-0.239,0.326-0.363,0.326-0.363l0.008-0.009
		c0.102-0.113,0.275-0.123,0.389-0.021c0.098,0.088,0.118,0.23,0.056,0.341c0,0-0.083,0.147-0.245,0.432
		c-0.164,0.284-0.394,0.715-0.74,1.25c-0.677,1.079-1.75,2.64-3.512,4.353c-1.773,1.646-4.349,3.589-8.12,4.111
		c-1.854,0.238-3.907,0.048-5.904-0.72c-2.005-0.731-3.861-2.008-5.463-3.58c-1.581-1.589-2.975-3.441-4.119-5.479
		c-1.127-2.049-2.076-4.256-2.818-6.578c-1.518-4.639-2.244-9.732-2.262-14.965c-0.001-1.316,0.051-2.609,0.145-3.975
		c0.04-0.695,0.099-1.311,0.167-1.948l0.049-0.477l0.067-0.535l0.13-0.997c0.356-2.661,0.929-5.326,1.674-7.964
		c1.508-5.264,3.672-10.492,6.979-15.127c1.667-2.3,3.601-4.475,5.994-6.208c2.373-1.728,5.239-3.022,8.4-3.139
		c0.403-0.007,0.869-0.025,1.156,0.01l0.489,0.035l0.123,0.009l0.148,0.012l0.071,0.011l0.284,0.044
		c0.758,0.106,1.505,0.286,2.22,0.531c1.436,0.484,2.75,1.216,3.904,2.084c2.324,1.743,3.995,3.991,5.326,6.276
		c1.305,2.31,2.26,4.707,2.967,7.097c0.721,2.388,1.191,4.771,1.486,7.102c0.596,4.667,0.544,9.089,0.158,13.15
		c-0.454,4.012-1.098,7.696-2.048,10.846c-0.907,3.161-1.933,5.846-2.975,7.961c-0.256,0.53-0.499,1.032-0.727,1.504
		c-0.259,0.46-0.502,0.891-0.728,1.291c-0.453,0.802-0.835,1.48-1.201,1.984c-0.697,1.037-1.069,1.59-1.069,1.59
		c-0.084,0.126-0.255,0.159-0.381,0.075C68.21,278.122,68.175,277.96,68.249,277.836z"/>
</g>
<path fill="#FFFFFF" d="M124.048,241.591c1.719,5.145,2.54,11.055,2.191,17.284c-1.058,18.945-12.495,33.711-25.537,32.982
	c-13.048-0.73-22.764-16.682-21.709-35.619c1.059-18.935,12.493-33.7,25.542-32.971
	C113.285,223.758,120.538,231.096,124.048,241.591"/>
<g>
	<path fill="#101719" d="M124.312,241.517c0,0,0.212,0.686,0.608,1.973c0.183,0.649,0.479,1.423,0.695,2.382
		c0.2,0.97,0.429,2.084,0.685,3.332c0.243,1.252,0.322,2.654,0.509,4.179c0.11,0.762,0.1,1.56,0.111,2.388
		c0.01,0.828,0.021,1.687,0.032,2.574c0.027,0.942-0.096,1.793-0.14,2.736c-0.032,0.464-0.065,0.935-0.099,1.411
		c-0.067,0.485-0.135,0.977-0.203,1.475c-0.142,0.995-0.255,2.029-0.502,3.047c-0.236,1.022-0.393,2.092-0.732,3.141
		c-1.148,4.239-3.008,8.728-5.965,12.93c-1.517,2.063-3.25,4.111-5.441,5.784c-2.153,1.682-4.635,3.197-7.491,3.949l-0.524,0.168
		l-0.544,0.102l-1.095,0.198c-0.367,0.056-0.731,0.151-1.104,0.173l-1.125,0.041l-1.13,0.035l-0.142,0.004l-0.071,0.002
		c0.002,0.004-0.28-0.021-0.19-0.015l-0.256-0.028l-0.513-0.057l-1.027-0.115l-0.515-0.058c-0.176-0.024-0.382-0.088-0.572-0.132
		c-0.769-0.199-1.567-0.384-2.318-0.627c-0.707-0.296-1.416-0.593-2.126-0.891c-1.351-0.72-2.698-1.489-3.881-2.468
		c-4.863-3.806-8.101-9.26-10.118-14.935c-2.067-5.704-2.788-11.782-2.708-17.711l0-0.278v-0.069
		c0.003-0.063-0.007,0.043,0.007-0.16l0.009-0.132l0.035-0.528l0.069-1.055c0.057-0.712,0.067-1.38,0.163-2.125
		c0.104-0.751,0.207-1.5,0.309-2.247l0.166-1.118l0.232-1.076c0.156-0.717,0.312-1.432,0.467-2.144
		c0.173-0.709,0.41-1.4,0.613-2.097c0.381-1.402,0.946-2.74,1.459-4.082c1.169-2.625,2.469-5.173,4.169-7.42
		c0.786-1.161,1.728-2.203,2.642-3.239c0.437-0.533,0.998-0.965,1.487-1.444c0.51-0.463,0.988-0.945,1.557-1.338
		c0.548-0.41,1.092-0.816,1.633-1.22c0.567-0.371,1.165-0.699,1.739-1.042c0.291-0.166,0.574-0.342,0.869-0.497l0.92-0.403
		c0.617-0.253,1.204-0.554,1.832-0.752c1.275-0.354,2.509-0.74,3.792-0.837c1.257-0.231,2.517-0.142,3.733-0.124l0.228,0.005
		l0.057,0.001l0.164,0.011l0.1,0.015l0.397,0.058l0.787,0.115c0.243,0.026,0.549,0.094,0.857,0.168
		c0.301,0.074,0.601,0.147,0.898,0.221c1.159,0.331,2.184,0.716,3.167,1.205c1.953,0.957,3.624,2.139,5.008,3.412
		c2.731,2.593,4.484,5.306,5.639,7.626c1.172,2.321,1.76,4.26,2.169,5.562c0.338,1.323,0.518,2.028,0.518,2.028
		c0.038,0.147-0.051,0.297-0.198,0.334c-0.129,0.033-0.26-0.031-0.316-0.147l-0.006-0.014c0,0-0.311-0.644-0.893-1.85
		c-0.646-1.17-1.532-2.912-2.96-4.9c-1.415-1.983-3.374-4.224-5.991-6.162c-1.339-0.921-2.814-1.789-4.469-2.381
		c-0.811-0.308-1.713-0.534-2.555-0.683l-0.624-0.093c-0.201-0.038-0.408-0.075-0.692-0.085l-0.793-0.052l-0.4-0.026l-0.101-0.006
		c0.199,0.017,0.03,0.006,0.063,0.011l-0.044,0.003l-0.175,0.013c-0.935,0.078-1.886,0.059-2.827,0.328
		c-0.958,0.134-1.878,0.531-2.822,0.859c-0.47,0.172-0.914,0.447-1.378,0.662l-0.693,0.342c-0.223,0.135-0.439,0.291-0.66,0.435
		c-0.437,0.299-0.89,0.573-1.324,0.89c-0.416,0.349-0.833,0.7-1.255,1.054c-1.624,1.486-3.185,3.187-4.49,5.177
		c-0.704,0.953-1.263,2.031-1.889,3.076c-0.323,0.516-0.547,1.099-0.829,1.648c-0.254,0.565-0.573,1.1-0.78,1.696
		c-0.458,1.168-0.985,2.321-1.337,3.557c-0.192,0.611-0.404,1.218-0.586,1.838c-0.16,0.627-0.321,1.257-0.482,1.888l-0.244,0.949
		l-0.172,0.94c-0.12,0.628-0.24,1.258-0.36,1.89c-0.12,0.639-0.173,1.378-0.263,2.063l-0.122,1.05l-0.061,0.526l-0.015,0.131
		c0.011-0.159,0.001-0.008,0.003-0.027l-0.003,0.063l-0.011,0.251l-0.095,2.015l-0.044,1.012l0.024,1.012l0.052,2.03
		c0.045,0.676,0.128,1.349,0.189,2.025c0.086,1.36,0.383,2.687,0.595,4.032c0.12,0.67,0.316,1.32,0.469,1.983
		c0.163,0.66,0.313,1.326,0.546,1.962c1.618,5.155,4.35,10.058,8.327,13.391c0.967,0.867,2.058,1.527,3.148,2.172l1.711,0.792
		c0.565,0.2,1.123,0.344,1.681,0.533c0.145,0.042,0.267,0.101,0.431,0.13l0.513,0.076l1.023,0.151l0.51,0.075l0.255,0.038
		c0.132,0.015-0.108-0.008-0.063-0.007h0.058l0.116-0.001l0.923-0.001l0.922,0.006c0.307-0.003,0.607-0.079,0.912-0.113l0.909-0.13
		l0.455-0.063l0.441-0.128c2.399-0.529,4.588-1.758,6.547-3.175c1.99-1.406,3.637-3.212,5.129-5.039
		c2.907-3.752,4.883-7.924,6.165-11.93c0.373-0.988,0.567-2.007,0.841-2.979c0.285-0.977,0.433-1.941,0.613-2.882
		c0.088-0.471,0.175-0.936,0.261-1.395c0.055-0.475,0.11-0.942,0.163-1.403c0.084-0.91,0.255-1.852,0.259-2.66
		c0.029-0.862,0.057-1.697,0.083-2.503c0.027-0.807,0.074-1.586,0-2.331c-0.108-1.487-0.108-2.877-0.28-4.101
		c-0.183-1.225-0.347-2.319-0.489-3.271c-0.161-0.954-0.418-1.754-0.565-2.408c-0.328-1.306-0.502-2.002-0.502-2.002
		c-0.037-0.147,0.052-0.296,0.199-0.333C124.125,241.296,124.269,241.379,124.312,241.517z"/>
</g>
<g>
	<path fill="#101719" d="M150.551,291.982c0,0-0.448,1.378-1.232,3.789c-0.197,0.604-0.414,1.271-0.651,1.997
		c-0.275,0.718-0.572,1.493-0.89,2.322c-0.64,1.66-1.342,3.551-2.268,5.534c-0.451,0.999-0.894,2.054-1.405,3.122
		c-0.538,1.057-1.093,2.149-1.664,3.272c-0.542,1.143-1.236,2.241-1.902,3.391c-0.337,0.573-0.678,1.152-1.022,1.737
		c-0.352,0.581-0.751,1.14-1.13,1.719c-1.507,2.324-3.216,4.644-5.122,6.871c-0.972,1.098-1.91,2.246-2.991,3.276l-1.581,1.591
		c-0.538,0.521-1.118,1.001-1.676,1.505c-2.222,2.031-4.677,3.813-7.154,5.502c-2.545,1.579-5.155,3.035-7.869,4.01
		c-2.704,0.981-5.415,1.685-8.029,2.012c-1.296,0.225-2.582,0.264-3.807,0.367c-1.236,0.012-2.423,0.046-3.563-0.021
		c-2.276-0.073-4.342-0.388-6.139-0.753c-1.799-0.365-3.331-0.826-4.564-1.269c-1.237-0.431-2.174-0.867-2.803-1.175
		c-0.628-0.312-0.954-0.515-0.954-0.515c-0.131-0.082-0.171-0.255-0.089-0.386c0.058-0.094,0.163-0.142,0.265-0.131l0.011,0.001
		c0,0,0.359,0.035,1.033,0.101c0.678,0.051,1.664,0.135,2.917,0.173c1.251,0.037,2.759,0.074,4.475,0.004
		c0.857-0.026,1.766-0.077,2.716-0.132c0.953-0.101,1.947-0.174,2.978-0.307c2.063-0.238,4.265-0.65,6.546-1.197
		c2.287-0.531,4.64-1.269,7.032-2.139c2.417-0.815,4.816-1.923,7.258-3.088c2.373-1.29,4.772-2.697,6.943-4.442
		c0.545-0.432,1.111-0.839,1.641-1.291l1.565-1.386c1.071-0.894,2.017-1.918,3-2.892c1.008-0.951,1.855-2.042,2.78-3.042
		c0.936-0.993,1.727-2.09,2.561-3.125c0.406-0.526,0.832-1.032,1.213-1.563c0.375-0.537,0.746-1.069,1.114-1.595
		c0.726-1.06,1.484-2.067,2.113-3.122c0.654-1.041,1.291-2.053,1.906-3.032c0.593-0.995,1.118-1.984,1.649-2.921
		c1.087-1.865,1.936-3.642,2.712-5.212c0.387-0.787,0.75-1.523,1.085-2.205c0.312-0.697,0.598-1.338,0.856-1.917
		c1.035-2.315,1.626-3.638,1.626-3.638c0.062-0.139,0.224-0.201,0.363-0.139C150.532,291.704,150.594,291.851,150.551,291.982z"/>
</g>
<path fill="#15282A" d="M47.767,253.719c-1.206,8.232,0.146,15.248,3.019,15.669c2.871,0.415,6.173-5.915,7.379-14.149
	c1.209-8.227-0.144-15.24-3.015-15.661C52.276,239.162,48.977,245.492,47.767,253.719z"/>
<path fill="none" stroke="#101719" stroke-width="2.744" stroke-miterlimit="10" d="M47.767,253.719
	c-1.206,8.232,0.146,15.248,3.019,15.669c2.871,0.415,6.173-5.915,7.379-14.149c1.209-8.227-0.144-15.24-3.015-15.661
	C52.276,239.162,48.977,245.492,47.767,253.719z"/>
<path fill="#15282A" d="M106.88,265c-1.085,8.024-5.281,14.096-9.375,13.533c-4.09-0.551-6.525-7.512-5.439-15.543
	c1.085-8.027,5.279-14.089,9.373-13.532C105.535,250.013,107.97,256.967,106.88,265z"/>
<path fill="none" stroke="#101719" stroke-width="2.744" stroke-miterlimit="10" d="M106.88,265
	c-1.085,8.024-5.281,14.096-9.375,13.533c-4.09-0.551-6.525-7.512-5.439-15.543c1.085-8.027,5.279-14.089,9.373-13.532
	C105.535,250.013,107.97,256.967,106.88,265z"/>
<g>
	<path fill="#101719" d="M122.306,207.88c0,0-1.311-1.28-3.408-3.686c-2.097-2.408-4.934-5.993-7.986-10.564
		c-1.488-2.307-3.097-4.823-4.583-7.614c-0.793-1.369-1.469-2.849-2.224-4.332c-0.673-1.521-1.423-3.052-2.046-4.67
		c-0.319-0.807-0.64-1.621-0.964-2.441c-0.308-0.826-0.577-1.674-0.871-2.52c-0.622-1.682-1.034-3.455-1.539-5.217
		c-0.833-3.569-1.57-7.252-1.814-11.007c-0.224-1.87-0.218-3.755-0.254-5.638c-0.049-0.942,0.051-1.879,0.088-2.816
		c0.052-0.937,0.082-1.875,0.155-2.807c0.12-0.928,0.239-1.852,0.358-2.771c0.116-0.922,0.229-1.841,0.459-2.731
		c0.415-1.789,0.759-3.583,1.382-5.261c0.598-1.684,1.119-3.368,1.919-4.894c0.366-0.775,0.729-1.543,1.086-2.301
		c0.334-0.77,0.825-1.445,1.226-2.152c0.42-0.696,0.835-1.383,1.244-2.059c0.205-0.337,0.408-0.671,0.61-1.002
		c0.227-0.314,0.452-0.626,0.675-0.936c0.915-1.214,1.798-2.388,2.647-3.515c0.924-1.062,1.84-2.049,2.706-2.986
		c0.432-0.467,0.853-0.922,1.262-1.365c0.439-0.414,0.872-0.809,1.297-1.186c1.704-1.5,3.103-2.873,4.455-3.784
		c2.607-1.924,4.139-2.926,4.139-2.926c0.128-0.083,0.299-0.048,0.383,0.08c0.065,0.1,0.058,0.226-0.009,0.317l-0.012,0.015
		c0,0-1.109,1.487-3.123,3.918c-0.252,0.302-0.518,0.621-0.796,0.955c-0.274,0.337-0.524,0.725-0.81,1.103
		c-0.564,0.757-1.175,1.577-1.827,2.452c-0.322,0.438-0.661,0.884-1.015,1.335c-0.316,0.481-0.642,0.976-0.977,1.483
		c-0.665,1.015-1.36,2.077-2.114,3.159c-1.293,2.307-2.802,4.714-4.047,7.431c-0.701,1.319-1.238,2.752-1.842,4.187
		c-0.149,0.36-0.299,0.721-0.45,1.084c-0.164,0.358-0.31,0.725-0.425,1.104c-0.255,0.75-0.513,1.508-0.772,2.272
		c-1.082,3.043-1.862,6.29-2.53,9.636c-0.511,3.367-0.839,6.849-0.704,10.349c0.044,3.502,0.563,6.995,1.175,10.413
		c0.392,1.693,0.707,3.395,1.193,5.037c0.229,0.824,0.436,1.651,0.681,2.46c0.261,0.805,0.521,1.605,0.778,2.398
		c0.5,1.593,1.133,3.113,1.691,4.625c0.644,1.477,1.206,2.956,1.875,4.342c1.246,2.817,2.637,5.386,3.931,7.753
		c1.342,2.34,2.621,4.465,3.84,6.293c1.2,1.842,2.319,3.4,3.238,4.687c1.872,2.553,3.051,3.917,3.051,3.917
		c0.099,0.115,0.086,0.288-0.028,0.387C122.571,207.987,122.407,207.978,122.306,207.88z"/>
</g>
<path fill="#15282A" d="M136.914,103.011c0,5.587-4.623,10.122-10.326,10.122c-5.702,0-10.325-4.535-10.325-10.122
	c0-5.591,4.623-10.127,10.325-10.127C132.292,92.884,136.914,97.42,136.914,103.011z"/>
<path fill="none" stroke="#101719" stroke-width="2.744" stroke-miterlimit="10" d="M136.914,103.011
	c0,5.587-4.623,10.122-10.326,10.122c-5.702,0-10.325-4.535-10.325-10.122c0-5.591,4.623-10.127,10.325-10.127
	C132.292,92.884,136.914,97.42,136.914,103.011z"/>
<g>
	<path fill="#101719" d="M98.654,212.873c0,0-0.298-1.79-1.035-4.887c-0.376-1.545-0.847-3.417-1.448-5.545
		c-0.596-2.13-1.335-4.513-2.216-7.083c-0.433-1.287-0.939-2.609-1.438-3.982c-0.553-1.354-1.067-2.775-1.699-4.193
		c-1.203-2.859-2.586-5.819-4.144-8.806c-0.785-1.489-1.629-2.977-2.496-4.47c-0.925-1.459-1.776-2.986-2.793-4.419
		c-1.905-2.955-4.146-5.722-6.444-8.407c-2.421-2.571-4.908-5.08-7.669-7.138c-0.686-0.518-1.346-1.063-2.039-1.552
		c-0.706-0.47-1.408-0.937-2.106-1.401c-1.359-0.981-2.836-1.725-4.22-2.567c-1.379-0.853-2.865-1.441-4.224-2.21
		c-0.688-0.368-1.423-0.612-2.121-0.92c-0.701-0.307-1.393-0.609-2.075-0.908c-1.392-0.53-2.784-0.951-4.117-1.416
		c-1.334-0.466-2.679-0.728-3.949-1.087c-1.269-0.373-2.521-0.563-3.711-0.793c-1.192-0.204-2.321-0.482-3.401-0.594
		c-1.084-0.128-2.098-0.248-3.036-0.359c-0.942-0.12-1.813-0.27-2.602-0.279c-3.156-0.178-5.012-0.377-5.012-0.377l-0.021-0.002
		c-0.152-0.016-0.262-0.152-0.246-0.304c0.013-0.119,0.1-0.212,0.209-0.239c0,0,1.784-0.441,4.995-1.043
		c1.605-0.322,3.582-0.394,5.867-0.601c0.573-0.069,1.162-0.061,1.77-0.038c0.609,0.014,1.236,0.028,1.879,0.043
		c1.29,0.034,2.658,0.018,4.06,0.261c1.404,0.21,2.896,0.321,4.403,0.643c1.493,0.376,3.059,0.712,4.639,1.166
		c1.554,0.533,3.172,1.054,4.768,1.724c0.787,0.36,1.582,0.729,2.374,1.122c0.792,0.393,1.612,0.752,2.37,1.239
		c1.514,0.971,3.139,1.831,4.566,3.01c0.731,0.561,1.468,1.125,2.208,1.692c0.715,0.595,1.391,1.243,2.09,1.865
		c2.8,2.492,5.323,5.322,7.704,8.231c2.298,2.972,4.502,6.009,6.335,9.191c0.98,1.553,1.8,3.177,2.654,4.753
		c0.803,1.602,1.578,3.193,2.291,4.776c0.688,1.595,1.391,3.148,1.976,4.711c0.628,1.545,1.178,3.079,1.688,4.58
		c0.539,1.49,0.958,2.975,1.419,4.389c0.407,1.433,0.822,2.808,1.166,4.143c0.704,2.666,1.276,5.125,1.722,7.316
		c0.458,2.188,0.787,4.108,1.026,5.694c0.478,3.169,0.626,5.002,0.626,5.002c0.014,0.151-0.098,0.285-0.249,0.298
		C98.806,213.114,98.678,213.012,98.654,212.873z"/>
</g>
<path fill="#15282A" d="M28.521,139.644c0,5.568-4.445,10.08-9.925,10.08c-5.483,0-9.928-4.511-9.928-10.08
	c0-5.562,4.445-10.077,9.928-10.077C24.076,129.567,28.521,134.082,28.521,139.644z"/>
<path fill="none" stroke="#101719" stroke-width="2.744" stroke-miterlimit="10" d="M28.521,139.644
	c0,5.568-4.445,10.08-9.925,10.08c-5.483,0-9.928-4.511-9.928-10.08c0-5.562,4.445-10.077,9.928-10.077
	C24.076,129.567,28.521,134.082,28.521,139.644z"/>
<g>
	<path fill="#101719" d="M224.603,212.838c0,0,0.311,0.626,0.893,1.799c0.567,1.182,1.408,2.914,2.361,5.169
		c0.959,2.252,2.103,5,3.273,8.207c0.597,1.599,1.195,3.314,1.833,5.122c0.604,1.817,1.243,3.73,1.843,5.745
		c1.266,4.013,2.463,8.415,3.596,13.107c1.092,4.7,2.212,9.677,3.019,14.891c0.208,1.302,0.44,2.612,0.631,3.938
		c0.181,1.328,0.364,2.665,0.547,4.011c0.408,2.688,0.619,5.434,0.897,8.192c0.195,2.768,0.407,5.558,0.531,8.364
		c0.074,2.809,0.247,5.626,0.201,8.45l-0.047,4.233c-0.035,1.41-0.126,2.817-0.187,4.223c-0.08,1.405-0.108,2.809-0.23,4.204
		c-0.121,1.396-0.242,2.786-0.362,4.172c-0.462,5.546-1.401,10.954-2.394,16.157c-0.214,1.307-0.553,2.58-0.839,3.85
		c-0.291,1.269-0.59,2.521-0.899,3.759c-0.622,2.472-1.409,4.846-2.078,7.176c-1.485,4.62-3.052,8.935-4.795,12.79
		c-0.417,0.97-0.825,1.92-1.223,2.849c-0.406,0.925-0.873,1.798-1.305,2.658c-0.875,1.711-1.705,3.334-2.485,4.859
		c-1.729,2.961-3.238,5.53-4.559,7.593c-1.379,2.03-2.511,3.588-3.259,4.661c-0.754,1.068-1.157,1.638-1.157,1.638
		s0.314-0.624,0.903-1.795c0.595-1.166,1.434-2.893,2.562-5.042c1.052-2.192,2.201-4.916,3.619-7.969
		c0.611-1.571,1.261-3.243,1.946-5.006c0.327-0.886,0.727-1.766,1.048-2.703c0.316-0.938,0.64-1.899,0.971-2.88
		c0.646-1.965,1.403-3.977,1.95-6.141c0.57-2.153,1.326-4.324,1.843-6.633c0.519-2.307,1.15-4.647,1.616-7.082
		c0.411-2.447,1.01-4.905,1.387-7.452c0.19-1.273,0.381-2.557,0.574-3.849c0.2-1.291,0.394-2.592,0.51-3.912
		c0.138-1.316,0.277-2.642,0.417-3.973c0.177-1.327,0.271-2.67,0.369-4.018c0.102-1.347,0.204-2.699,0.306-4.056
		c0.103-1.356,0.114-2.724,0.176-4.089c0.043-1.367,0.116-2.735,0.135-4.107l0.003-4.12c0.078-2.747-0.061-5.495-0.101-8.233
		c-0.089-2.737-0.266-5.463-0.424-8.167c-0.456-5.398-0.844-10.727-1.566-15.849c-0.662-5.129-1.43-10.075-2.245-14.757
		c-0.446-2.332-0.853-4.609-1.31-6.799c-0.218-1.098-0.433-2.177-0.643-3.237c-0.231-1.056-0.458-2.091-0.681-3.105
		c-0.908-4.055-1.796-7.766-2.637-11.044c-0.859-3.272-1.625-6.127-2.302-8.467c-0.69-2.333-1.212-4.181-1.613-5.425
		C224.818,213.501,224.603,212.838,224.603,212.838z"/>
</g>
<g>
	<path fill="#101719" d="M256.451,403.747c0,0,0.521-0.657,1.405-1.95c0.894-1.286,2.093-3.247,3.558-5.763
		c1.469-2.515,3.063-5.676,4.789-9.331c1.728-3.656,3.414-7.899,5.117-12.561c0.409-1.171,0.826-2.367,1.25-3.586
		c0.383-1.233,0.772-2.489,1.168-3.767c0.411-1.271,0.771-2.583,1.144-3.912c0.36-1.333,0.783-2.667,1.107-4.051
		c0.67-2.762,1.388-5.587,1.938-8.519c0.629-2.912,1.136-5.916,1.667-8.965c0.293-1.52,0.443-3.078,0.675-4.632
		c0.197-1.56,0.462-3.121,0.607-4.709c0.156-1.585,0.313-3.181,0.47-4.784c0.187-1.599,0.304-3.214,0.408-4.837
		c0.114-1.622,0.228-3.25,0.342-4.883c0.081-1.636,0.112-3.279,0.171-4.923c0.037-1.646,0.142-3.292,0.124-4.944l-0.028-4.957
		c0-6.612-0.303-13.229-0.814-19.728c-0.563-6.492-1.125-12.895-2.033-19.051c-0.207-1.542-0.412-3.07-0.614-4.585
		c-0.249-1.509-0.496-3.002-0.74-4.48c-0.238-1.479-0.473-2.944-0.705-4.39c-0.224-1.449-0.458-2.877-0.752-4.275
		c-1.112-5.604-2.078-10.928-3.228-15.792c-0.547-2.439-1.071-4.777-1.57-7.001c-0.548-2.213-1.068-4.313-1.558-6.286
		c-0.485-1.977-0.939-3.828-1.359-5.539c-0.46-1.701-0.884-3.263-1.266-4.673c-0.782-2.818-1.339-5.055-1.745-6.572
		c-0.397-1.521-0.61-2.331-0.61-2.331s0.31,0.777,0.892,2.235c0.575,1.46,1.455,3.592,2.501,6.333
		c0.527,1.37,1.111,2.886,1.746,4.538c0.573,1.673,1.193,3.482,1.855,5.416c0.658,1.938,1.359,3.999,2.098,6.172
		c0.709,2.183,1.343,4.512,2.067,6.926c0.684,2.424,1.506,4.924,2.156,7.563c0.655,2.64,1.333,5.368,2.029,8.174
		c0.365,1.399,0.671,2.833,0.969,4.287c0.306,1.453,0.615,2.923,0.927,4.41c0.316,1.486,0.628,2.991,0.924,4.514
		c0.25,1.531,0.504,3.077,0.759,4.636c0.501,3.119,1.076,6.283,1.437,9.52c0.386,3.231,0.901,6.49,1.099,9.811
		c0.582,6.621,0.966,13.372,1.019,20.135l-0.021,5.07c0.002,1.689-0.12,3.376-0.174,5.06c-0.077,1.684-0.126,3.364-0.225,5.038
		c-0.133,1.672-0.266,3.34-0.397,5c-0.195,3.327-0.708,6.602-1.1,9.842c-0.196,1.621-0.513,3.217-0.761,4.81
		c-0.283,1.587-0.484,3.175-0.829,4.727c-0.646,3.109-1.21,6.179-2.023,9.129c-0.708,2.972-1.581,5.834-2.401,8.624
		c-1.742,5.551-3.608,10.729-5.682,15.361c-2.021,4.651-4.107,8.809-6.178,12.364c-2.038,3.572-3.996,6.576-5.731,8.959
		c-1.714,2.396-3.2,4.173-4.237,5.356C257.048,403.159,256.451,403.747,256.451,403.747z"/>
</g>
<g>
	<path fill="#101719" d="M313.897,413.77c0,0,0.602-0.683,1.729-1.962c0.554-0.647,1.281-1.411,2.055-2.373
		c0.778-0.952,1.672-2.048,2.674-3.273c0.951-1.264,2.006-2.662,3.152-4.185c1.053-1.592,2.317-3.214,3.472-5.085
		c0.591-0.925,1.199-1.878,1.826-2.86c0.586-1.007,1.188-2.042,1.807-3.104c0.635-1.051,1.199-2.18,1.82-3.308
		c0.306-0.566,0.614-1.14,0.927-1.719c0.289-0.592,0.581-1.19,0.877-1.795c2.375-4.825,4.602-10.212,6.561-16.036
		c1.948-5.829,3.531-12.123,4.8-18.7c1.264-6.582,2.042-13.477,2.528-20.503c0.451-7.031,0.488-14.206,0.168-21.37
		c-0.257-7.168-0.912-14.329-1.816-21.349c-0.931-7.015-2.016-13.909-3.352-20.532c-1.334-6.623-2.773-13.004-4.312-19.018
		c-1.551-6.009-3.129-11.669-4.695-16.865c-1.584-5.19-3.102-9.934-4.524-14.115c-1.438-4.175-2.717-7.813-3.83-10.788
		c-1.121-2.97-1.993-5.313-2.631-6.894c-0.644-1.578-0.987-2.42-0.987-2.42s0.438,0.798,1.258,2.294
		c0.8,1.507,1.984,3.717,3.364,6.59c1.392,2.869,3.04,6.375,4.786,10.462c1.765,4.08,3.666,8.725,5.552,13.866
		c1.912,5.132,3.854,10.746,5.654,16.767c1.823,6.013,3.604,12.407,5.092,19.112c1.495,6.7,2.924,13.668,3.877,20.832
		c0.983,7.158,1.729,14.477,2.045,21.829c0.264,7.354,0.161,14.729-0.368,21.969c-0.523,7.242-1.637,14.326-3.085,21.093
		c-1.441,6.772-3.414,13.192-5.681,19.116c-2.248,5.935-4.889,11.338-7.633,16.13c-2.742,4.795-5.556,9.008-8.322,12.523
		c-0.659,0.901-1.341,1.742-2.012,2.542c-0.666,0.802-1.309,1.574-1.926,2.316c-1.3,1.425-2.494,2.733-3.573,3.916
		c-2.244,2.294-4.051,4.021-5.336,5.142C314.572,413.159,313.897,413.77,313.897,413.77z"/>
</g>
<g>
	<path fill="#101719" d="M376.852,211.793c0,0,0.318,0.706,0.915,2.029c0.583,1.33,1.444,3.281,2.434,5.806
		c0.983,2.526,2.188,5.597,3.401,9.176c0.636,1.781,1.248,3.696,1.926,5.708c0.648,2.02,1.299,4.154,1.958,6.387
		c1.31,4.468,2.673,9.332,3.875,14.537c0.65,2.592,1.191,5.282,1.815,8.02c0.568,2.748,1.109,5.565,1.609,8.439
		c0.477,2.878,1.004,5.799,1.404,8.777c0.213,1.487,0.428,2.984,0.644,4.488c0.166,1.511,0.334,3.029,0.502,4.554
		c0.37,3.046,0.565,6.135,0.836,9.229c0.236,3.098,0.365,6.217,0.536,9.332c0.131,6.241,0.143,12.489-0.182,18.634
		c-0.081,1.536-0.163,3.065-0.244,4.588c-0.091,1.521-0.287,3.029-0.425,4.53c-0.152,1.5-0.303,2.991-0.452,4.472
		c-0.208,1.475-0.414,2.938-0.618,4.39c-0.214,1.45-0.392,2.893-0.629,4.313c-0.258,1.417-0.524,2.818-0.801,4.202
		c-0.282,1.383-0.517,2.757-0.829,4.101c-0.326,1.34-0.649,2.663-0.968,3.969c-0.321,1.303-0.639,2.588-0.951,3.854
		c-0.375,1.25-0.744,2.481-1.106,3.692c-0.372,1.207-0.737,2.394-1.096,3.558c-0.354,1.165-0.812,2.274-1.199,3.379
		c-0.401,1.099-0.796,2.175-1.181,3.227c-0.387,1.05-0.737,2.084-1.197,3.051c-0.861,1.948-1.679,3.797-2.446,5.534
		c-0.365,0.875-0.778,1.695-1.193,2.48c-0.409,0.786-0.803,1.544-1.183,2.271c-0.764,1.449-1.466,2.779-2.1,3.981
		c-1.403,2.332-2.557,4.127-3.317,5.361c-0.769,1.23-1.178,1.886-1.178,1.886s0.319-0.706,0.917-2.03
		c0.604-1.318,1.454-3.268,2.6-5.702c0.493-1.254,1.038-2.644,1.632-4.156c0.3-0.753,0.61-1.536,0.934-2.349
		c0.336-0.807,0.667-1.648,0.947-2.543c0.596-1.771,1.229-3.657,1.897-5.645c0.681-1.979,1.211-4.123,1.864-6.319
		c0.302-1.107,0.67-2.218,0.934-3.383c0.268-1.163,0.54-2.348,0.817-3.553c0.286-1.201,0.577-2.422,0.872-3.662
		c0.24-1.253,0.484-2.524,0.731-3.813c0.245-1.288,0.493-2.594,0.743-3.916c0.237-1.324,0.396-2.681,0.6-4.042
		c0.189-1.364,0.394-2.74,0.611-4.127c0.188-1.393,0.316-2.808,0.48-4.228c0.155-1.422,0.312-2.854,0.469-4.299
		c0.101-1.449,0.201-2.91,0.303-4.379c0.238-2.935,0.339-5.914,0.468-8.916c0.257-6.005,0.172-12.119-0.006-18.227
		c-0.138-3.054-0.23-6.11-0.431-9.149c-0.235-3.038-0.395-6.07-0.728-9.066c-0.555-6-1.234-11.899-2.042-17.591
		c-0.392-2.848-0.884-5.633-1.277-8.374c-0.476-2.728-0.872-5.411-1.382-8c-0.472-2.598-0.972-5.116-1.463-7.553
		c-0.46-2.444-0.979-4.789-1.456-7.047c-1.005-4.503-1.943-8.634-2.849-12.279c-0.902-3.646-1.729-6.818-2.429-9.428
		c-0.726-2.601-1.266-4.659-1.681-6.047C377.073,212.534,376.852,211.793,376.852,211.793z"/>
</g>
<g>
	<path fill="#101719" d="M274.069,161.508c-0.562,0.466-1.131,0.917-1.707,1.358c-0.582,0.433-1.208,0.828-1.823,1.237
		c-0.621,0.404-1.272,0.739-1.914,1.109c-0.649,0.353-1.335,0.638-2.006,0.96c-0.684,0.296-1.393,0.537-2.102,0.784
		c-0.727,0.196-1.436,0.463-2.192,0.575c-0.742,0.164-1.502,0.256-2.268,0.332c-0.767,0.054-1.543,0.093-2.319,0.007
		c-0.777-0.034-1.551-0.186-2.309-0.377c-0.375-0.115-0.755-0.209-1.122-0.346l-1.079-0.462c-0.346-0.184-0.694-0.359-1.027-0.558
		c-0.323-0.217-0.652-0.421-0.963-0.649c-0.616-0.465-1.198-0.963-1.724-1.51c-0.538-0.533-1.02-1.113-1.471-1.706
		c-0.464-0.584-0.858-1.215-1.251-1.84c-0.4-0.622-0.728-1.284-1.057-1.943c-0.329-0.666-0.613-1.329-0.858-2.063l0.055,0.122
		c-0.589-0.727-1.09-1.523-1.759-2.173l-0.969-0.995c-0.346-0.306-0.708-0.592-1.059-0.887c-0.342-0.306-0.718-0.566-1.102-0.811
		c-0.387-0.241-0.737-0.531-1.146-0.729c-0.401-0.208-0.796-0.421-1.186-0.639c-0.406-0.188-0.824-0.348-1.229-0.529
		c-0.396-0.202-0.834-0.305-1.25-0.453l-0.63-0.209l-0.647-0.152c-0.854-0.232-1.739-0.338-2.617-0.442l-1.331-0.081l-1.338,0.013
		c-0.892,0.048-1.785,0.107-2.678,0.231c-0.895,0.091-1.781,0.291-2.672,0.46c-0.892,0.173-1.777,0.396-2.661,0.637
		c-0.876,0.269-1.763,0.517-2.637,0.818c-0.876,0.294-1.744,0.621-2.611,0.957c-0.872,0.327-1.726,0.704-2.585,1.074
		c-0.865,0.362-1.708,0.775-2.562,1.172c-1.697,0.815-3.396,1.667-5.057,2.601c-0.066,0.039-0.151,0.017-0.189-0.049
		c-0.032-0.054-0.021-0.123,0.021-0.167c0.678-0.694,1.409-1.319,2.152-1.935c0.739-0.622,1.508-1.208,2.297-1.765
		c0.783-0.568,1.597-1.092,2.422-1.603c0.822-0.517,1.673-0.987,2.535-1.44c0.856-0.467,1.746-0.872,2.643-1.264
		c0.896-0.396,1.814-0.751,2.747-1.067c0.939-0.303,1.886-0.588,2.853-0.822c0.969-0.221,1.95-0.402,2.947-0.509
		c0.99-0.145,2.002-0.17,3.008-0.167l1.514,0.06l1.511,0.176c1,0.178,2,0.367,2.967,0.692l0.729,0.223l0.705,0.295
		c0.465,0.207,0.947,0.369,1.384,0.632c0.442,0.25,0.887,0.492,1.317,0.756c0.414,0.291,0.823,0.585,1.226,0.885
		c0.413,0.285,0.757,0.659,1.135,0.982c0.376,0.328,0.736,0.669,1.056,1.049c0.33,0.37,0.669,0.728,0.985,1.103l0.886,1.172
		c0.604,0.767,1.078,1.62,1.627,2.414l0.036,0.052l0.02,0.07c0.177,0.644,0.455,1.312,0.747,1.945
		c0.303,0.634,0.659,1.243,1.052,1.824c0.386,0.586,0.845,1.12,1.319,1.627c0.476,0.508,1.01,0.956,1.559,1.367
		c0.552,0.409,1.143,0.752,1.741,1.063c0.301,0.15,0.615,0.274,0.917,0.413l0.939,0.338c0.637,0.19,1.277,0.34,1.924,0.462
		c0.653,0.092,1.303,0.182,1.966,0.213c0.329,0.032,0.66,0.038,0.995,0.021c0.333-0.015,0.665,0.025,1.001-0.014
		c0.671-0.04,1.343-0.092,2.015-0.214c0.673-0.084,1.344-0.249,2.02-0.376c0.671-0.163,1.336-0.359,2.01-0.54
		c0.662-0.221,1.342-0.402,1.999-0.658c0.657-0.25,1.343-0.458,1.99-0.738c0.654-0.272,1.323-0.51,1.987-0.801
		s1.334-0.571,2.014-0.837c0.072-0.028,0.152,0.007,0.18,0.079C274.132,161.408,274.114,161.471,274.069,161.508z"/>
</g>
<g>
	<path fill="#101719" d="M265.581,125.29c0,0,0.467-0.042,1.344-0.123c0.438-0.034,0.979-0.075,1.614-0.124
		c0.679-0.048,1.38-0.032,2.209-0.053c0.816-0.032,1.732,0.01,2.734,0.052c1.005,0.017,2.082,0.116,3.232,0.242
		c1.155,0.09,2.373,0.316,3.66,0.533c0.644,0.106,1.291,0.294,1.962,0.445c0.667,0.167,1.361,0.299,2.042,0.548
		c2.771,0.811,5.673,2.142,8.433,4.085c0.321,0.253,0.641,0.463,0.969,0.755c0.326,0.299,0.655,0.6,0.985,0.903
		c0.341,0.295,0.638,0.625,0.914,0.971c0.284,0.338,0.57,0.678,0.857,1.02c0.269,0.356,0.499,0.749,0.747,1.125l0.365,0.571
		l0.091,0.143l0.023,0.036c0.061,0.103,0.027,0.05,0.045,0.082l0.035,0.073l0.139,0.291c0.178,0.405,0.388,0.744,0.546,1.206
		c0.156,0.449,0.335,0.899,0.461,1.347c0.976,3.583,0.703,7.266,0.949,10.904c0.114,1.82,0.347,3.645,0.894,5.365
		c0.277,0.858,0.648,1.677,1.088,2.447c0.24,0.364,0.46,0.779,0.711,1.098l0.859,1.108c1.176,1.352,2.466,2.582,3.937,3.602
		c1.46,1.014,3.003,1.882,4.614,2.582c3.234,1.383,6.673,2.155,10.053,2.496c1.688,0.179,3.363,0.28,5.007,0.334
		c1.646,0.02,3.26,0.037,4.837-0.012c3.149-0.103,6.14-0.329,8.897-0.631c5.52-0.585,10.117-1.355,13.348-1.853
		c3.236-0.513,5.085-0.806,5.085-0.806c0.075-0.012,0.146,0.04,0.157,0.115c0.011,0.066-0.03,0.13-0.091,0.152
		c0,0-1.765,0.638-4.904,1.605c-1.569,0.485-3.488,1.036-5.712,1.592c-2.222,0.567-4.753,1.122-7.543,1.618
		c-2.793,0.474-5.848,0.891-9.115,1.065c-1.631,0.115-3.317,0.133-5.042,0.083c-1.725-0.064-3.493-0.162-5.278-0.443
		c-3.566-0.502-7.249-1.444-10.717-3.115c-1.729-0.844-3.364-1.921-4.862-3.164c-1.481-1.256-2.776-2.761-3.895-4.352l-0.762-1.178
		c-0.287-0.444-0.468-0.879-0.704-1.317c-0.411-0.888-0.731-1.812-0.952-2.746c-0.477-1.862-0.636-3.75-0.745-5.596
		c-0.206-3.67-0.223-7.368-1.514-10.482c-1.279-3.138-3.662-5.292-6.175-7.036l-0.496-0.337l-0.244-0.172l-0.061-0.043
		c0.072,0.05-0.016-0.006-0.016-0.004l-0.124-0.069c-0.33-0.187-0.657-0.371-0.981-0.555c-0.652-0.362-1.274-0.752-1.946-1.036
		c-0.659-0.305-1.308-0.605-1.944-0.9c-0.663-0.242-1.313-0.48-1.949-0.712c-0.628-0.258-1.276-0.429-1.9-0.62
		c-0.628-0.178-1.231-0.393-1.841-0.53c-1.223-0.258-2.362-0.612-3.472-0.785c-2.208-0.439-4.124-0.727-5.756-0.94
		c-0.805-0.103-1.524-0.194-2.149-0.274c-0.634-0.063-1.174-0.116-1.612-0.16c-0.875-0.1-1.341-0.153-1.341-0.153
		c-0.076-0.008-0.13-0.076-0.123-0.152C265.463,125.346,265.517,125.296,265.581,125.29z"/>
</g>
</svg>
