<?xml version="1.0" encoding="utf-8"?>
<!-- Generator: Adobe Illustrator 16.0.2, SVG Export Plug-In . SVG Version: 6.00 Build 0)  -->
<!DOCTYPE svg PUBLIC "-//W3C//DTD SVG 1.1//EN" "http://www.w3.org/Graphics/SVG/1.1/DTD/svg11.dtd">
<svg version="1.1" id="lay" xmlns="http://www.w3.org/2000/svg" xmlns:xlink="http://www.w3.org/1999/xlink" x="0px" y="0px"
	 width="600px" height="600px" viewBox="0 0 600 600" enable-background="new 0 0 600 600" xml:space="preserve">
<g>
	<g>
		<path fill="#90D7ED" d="M454.16,290.453c0,0,34.176,4.289,68.34,39.555c34.16,35.27,40.773,40.641,40.773,40.641
			s38.57,18.883-11.031,45.328c0,0-50.691,33.063-125.645,6.613L454.16,290.453z"/>
		<g>
			<path fill="#47969D" d="M480.047,366.402c15.703,29.395,52.469,40.285,83.914,38.586c2.766-0.16,8.227-4.578,3.023-4.293
				c-29.543,1.602-64.406-8.637-79.207-36.371C486.406,361.75,478.93,364.305,480.047,366.402z"/>
			<path fill="#47969D" d="M506.148,359.348c21.695,7.902,41.664,19.52,62.828,28.652c1.969,0.867,9.078-2.164,6.234-3.387
				c-21.152-9.137-41.133-20.758-62.832-28.652C510.359,355.215,503.328,358.32,506.148,359.348z"/>
		</g>
		<g>
			<defs>
				<path id="SVGID_1_" d="M454.16,290.453c0,0,34.176,4.289,68.34,39.555c34.16,35.27,40.773,40.641,40.773,40.641
					s38.57,18.883-11.031,45.328c0,0-50.691,33.063-125.645,6.613L454.16,290.453z"/>
			</defs>
			<clipPath id="SVGID_2_">
				<use xlink:href="#SVGID_1_"  overflow="visible"/>
			</clipPath>
			<g clip-path="url(#SVGID_2_)">
				<g>
					<path fill="#74A8BD" d="M406.055,423.789c21.609,6.082,43.117,7.766,65.473,7.891c23.145,0.129,44.598,4.215,67.715,0.313
						c11.77-1.992,27.969-13.668,6.121-9.98c-19.465,3.289-40.563-1.816-60.305-1.93c-18.305-0.102-35.801-2.563-53.383-7.504
						C425.012,410.703,398.199,421.582,406.055,423.789z"/>
				</g>
			</g>
		</g>
	</g>
	<g>
		<path fill="#90D7ED" d="M174.367,260.863c0,0-54.934,17.668-89.973,52.934c-35.012,35.27-41.793,40.641-41.793,40.641
			S3.055,373.313,53.902,399.77c0,0,51.973,33.059,128.793,6.602L174.367,260.863z"/>
		<g>
			<path fill="#47969D" d="M120.359,349.098c-14.977,27.383-49.117,36.938-78.492,35.387c-2.883-0.152-8.266,4-3.035,4.281
				c32.461,1.719,72.082-9.195,88.715-39.563C129.285,346.031,121.543,346.945,120.359,349.098z"/>
			<path fill="#47969D" d="M96.52,340.18c-22.203,7.906-42.719,19.512-64.402,28.652c-5.016,2.121-0.332,3.871,2.895,2.512
				c21.656-9.141,42.199-20.742,64.379-28.652C104.543,340.859,99.758,339.023,96.52,340.18z"/>
		</g>
		<g>
			<defs>
				<path id="SVGID_3_" d="M182.695,257.992c0,0-63.262,20.539-98.301,55.805c-35.012,35.27-41.793,40.641-41.793,40.641
					S3.055,373.313,53.902,399.77c0,0,51.973,33.059,128.793,6.602V257.992z"/>
			</defs>
			<clipPath id="SVGID_4_">
				<use xlink:href="#SVGID_3_"  overflow="visible"/>
			</clipPath>
			<g clip-path="url(#SVGID_4_)">
				<g>
					<path fill="#74A8BD" d="M203.77,407.578c-22.168,6.07-44.207,7.762-67.105,7.883c-23.742,0.129-45.73,4.215-69.422,0.313
						c-12.07-1.988-28.676-13.668-6.297-9.973c19.961,3.289,41.594-1.828,61.828-1.93c18.766-0.102,36.703-2.566,54.742-7.508
						C184.332,394.488,211.832,405.367,203.77,407.578z"/>
				</g>
			</g>
		</g>
	</g>
	<g>
		<path fill="#F6921E" d="M332.219,472.398c-13.758,10.984-11.68,34.469-10.461,50.109c0.664,8.52,4.699,17,7.469,24.973
			c3.703,10.727,3.527,21.809,5.191,32.879c0.531,3.543-7.238,2.324-7.707-0.758c-2.055-13.605-2.844-26.055-7.375-39.203
			c-3.746-10.82-5.676-20.453-5.953-31.855c-0.359-14.355,1-30.824,12.859-40.273C328.578,466.406,335.469,469.813,332.219,472.398z
			"/>
		<path fill="#F6921E" d="M326.078,541.965c-10.223,11.465-21.711,29.66-16.531,45.703c1.344,4.168-6.285,3.883-7.301,0.773
			c-5.711-17.715,5.32-36.941,16.809-49.824C321.289,536.105,328.578,539.164,326.078,541.965z"/>
		<path fill="#F6921E" d="M320.516,541.246c-7.859,0.793-14.258,9.219-18.953,14.879c-6.477,7.816-8.926,16.023-9.09,26.117
			c-0.066,4.258-7.848,3.234-7.797-0.484c0.203-12.148,3.441-21.348,11.184-30.684c5.602-6.762,12.898-14.84,22.094-15.773
			C321.914,534.898,325.684,540.727,320.516,541.246z"/>
	</g>
	<g>
		<path fill="#F6921E" d="M212.859,472.398c13,10.984,11.047,34.469,9.891,50.109c-0.625,8.52-4.457,17-7.059,24.973
			c-3.504,10.727-3.34,21.809-4.914,32.879c-0.508,3.543,6.844,2.324,7.301-0.758c1.93-13.605,2.68-26.055,6.969-39.203
			c3.543-10.82,5.371-20.453,5.625-31.855c0.344-14.355-0.953-30.824-12.148-40.273
			C216.313,466.406,209.773,469.813,212.859,472.398z"/>
		<path fill="#F6921E" d="M218.66,541.965c9.688,11.465,20.543,29.66,15.641,45.703c-1.281,4.168,5.957,3.883,6.906,0.773
			c5.41-17.715-5.027-36.941-15.895-49.824C223.195,536.105,216.301,539.164,218.66,541.965z"/>
		<path fill="#F6921E" d="M223.918,541.246c7.449,0.793,13.496,9.219,17.938,14.879c6.133,7.816,8.457,16.023,8.594,26.117
			c0.078,4.258,7.426,3.234,7.379-0.484c-0.18-12.148-3.25-21.348-10.578-30.684c-5.305-6.762-12.199-14.84-20.906-15.773
			C222.598,534.898,219.043,540.727,223.918,541.246z"/>
	</g>
	<g>
		<g>
			<path fill="#60B4CC" d="M341.449,15.188c0,0,96.27-3.254,115.781,106.012c9.762,54.676,12.125,109.973,13.051,165.402
				c0.789,46.539-1.203,91.613-34.402,127.566c-15.059,16.301-35.484,32.664-55.555,42.375
				c-19.145,9.254-39.355,14.504-60.531,16.43c0,0-139.613,4.328-143.926,0c-4.344-4.332-64.953-5.41-27.07-74.676
				c0,0,16.238-18.395,9.738-61.688C158.535,336.609,167.195-7.539,341.449,15.188z"/>
			<g>
				<defs>
					<path id="SVGID_5_" d="M341.449,15.188c0,0,96.27-3.254,115.781,106.012c9.762,54.676,12.125,109.973,13.051,165.402
						c0.789,46.539-1.203,91.613-34.402,127.566c-15.059,16.301-35.484,32.664-55.555,42.375
						c-19.145,9.254-39.355,14.504-60.531,16.43c0,0-139.613,4.328-143.926,0c-4.344-4.332-64.953-5.41-27.07-74.676
						c0,0,16.238-18.395,9.738-61.688C158.535,336.609,167.195-7.539,341.449,15.188z"/>
				</defs>
				<clipPath id="SVGID_6_">
					<use xlink:href="#SVGID_5_"  overflow="visible"/>
				</clipPath>
				<path clip-path="url(#SVGID_6_)" fill="#4991A7" d="M136.867,411.285c0,0,8.633,0,8.645,0c0.57,0,11.094,14.785,12.391,15.855
					c18.953,15.73,47.402,16.055,70.648,15.027c64.809-2.871,121.988-13.629,175.348-51.754
					c10.348-7.391,20.516-15.082,30.344-23.156c4.82-3.953,32.547-23.207,32.207-28.984l3.961,67.68l-67.324,118.969
					l-156.914-22.727L83.824,472.973L136.867,411.285z"/>
			</g>
		</g>
		<path fill="#584646" d="M412.824,113.082c0,13.598-9.699,24.621-21.684,24.621c-11.973,0-21.684-11.023-21.684-24.621
			c0-13.602,9.711-24.621,21.684-24.621C403.125,88.461,412.824,99.48,412.824,113.082z"/>
		<path fill="#584646" d="M320.504,113.082c0,13.598-7.656,24.621-17.102,24.621s-17.102-11.023-17.102-24.621
			c0-13.602,7.656-24.621,17.102-24.621S320.504,99.48,320.504,113.082z"/>
		<path fill="#FFFFFF" d="M315.719,103.328c0,3.398-2.758,6.16-6.16,6.16c-3.387,0-6.156-2.762-6.156-6.16s2.77-6.152,6.156-6.152
			C312.961,97.176,315.719,99.93,315.719,103.328z"/>
		<path fill="#FFFFFF" d="M406.527,103.328c0,3.398-2.754,6.16-6.16,6.16c-3.398,0-6.156-2.762-6.156-6.16s2.758-6.152,6.156-6.152
			C403.773,97.176,406.527,99.93,406.527,103.328z"/>
		<path fill="#EC5413" d="M292.992,150.305c-1.484,9.352-12.656,15.359-24.973,13.414c-12.313-1.945-21.098-11.105-19.613-20.449
			c1.473-9.355,12.645-15.359,24.973-13.418C285.68,131.793,294.465,140.953,292.992,150.305z"/>
		<path fill="#EC5413" d="M446.566,145.117c1.59,9.34-7.844,18.734-21.074,20.996c-13.254,2.258-25.262-3.48-26.852-12.816
			c-1.598-9.328,7.848-18.727,21.078-20.992C432.957,130.051,444.969,135.789,446.566,145.117z"/>
		<g>
			<path fill="#4F453B" d="M366.625,174.25c0,0,1.445,18.832-3.098,22.055l-33.504,10.914l-20.438-9.895l-2.184-2.965l0.785-3.625
				l25.785-26.648L366.625,174.25z"/>
			<path fill="#F49E31" d="M307.402,191.363c0,0,19.793-16.676,43.797-16.676c24.008,0,36.664,8.336,36.664,8.336
				s-0.66-35.469-32.004-36.234C324.516,146.02,307.402,191.363,307.402,191.363z"/>
			<path fill="#F49E31" d="M301.281,188.906c0,0,26.422,15.199,65.344,3.984c0,0-8.711,20.113-32.68,21.105
				C309.977,214.98,301.281,188.906,301.281,188.906z"/>
		</g>
	</g>
</g>
<g>
	<path fill="#231F20" d="M77.008,190.609c-0.078,0.074-12.316,11.641-24.578,30.117c-12.266,18.469-24.605,43.867-24.617,71.684
		c0,3.387,0.18,6.813,0.57,10.266c0.129,1.098,1.105,1.879,2.211,1.758c1.102-0.125,1.891-1.117,1.777-2.215
		c-0.383-3.293-0.559-6.563-0.559-9.809c-0.016-26.598,11.922-51.375,23.941-69.473c6.02-9.047,12.035-16.422,16.531-21.523
		c2.258-2.551,4.137-4.535,5.434-5.875c0.66-0.672,1.168-1.18,1.523-1.52l0.508-0.504c0.813-0.762,0.852-2.023,0.086-2.828
		C79.063,189.887,77.805,189.848,77.008,190.609z"/>
	<path fill="#231F20" d="M77.719,165.414c-0.129,0.051-11.188,3.895-23.691,13.539c-12.48,9.621-26.43,25.117-32.016,48.344
		c-0.27,1.074,0.395,2.156,1.473,2.414c1.066,0.258,2.145-0.398,2.41-1.477c5.332-22.113,18.586-36.852,30.582-46.117
		c6.008-4.625,11.668-7.871,15.82-9.949c2.082-1.039,3.781-1.789,4.953-2.273c0.594-0.246,1.039-0.422,1.344-0.535l0.445-0.164
		c1.039-0.363,1.586-1.504,1.23-2.547C79.914,165.602,78.773,165.055,77.719,165.414z"/>
</g>
</svg>
