<?xml version="1.0" encoding="utf-8"?>
<!-- Generator: Adobe Illustrator 16.0.2, SVG Export Plug-In . SVG Version: 6.00 Build 0)  -->
<!DOCTYPE svg PUBLIC "-//W3C//DTD SVG 1.1//EN" "http://www.w3.org/Graphics/SVG/1.1/DTD/svg11.dtd">
<svg version="1.1" id="lay" xmlns="http://www.w3.org/2000/svg" xmlns:xlink="http://www.w3.org/1999/xlink" x="0px" y="0px"
	 width="600px" height="600px" viewBox="0 0 600 600" enable-background="new 0 0 600 600" xml:space="preserve">
<g>
	<g>
		<g>
			<defs>
				<path id="SVGID_1_" d="M225.008,304.544l38.867-37.469c0,0,40.246-37.477,16.656-127.691
					c-23.605-90.219,120.75-119.777,120.75-119.777S541.469-24.776,583.172,151.47c44.891,189.734-191.613,347.383-356.781,296.023
					c0,0-101.461-29.832-108.406-60.875c-6.938-31.035-6.883-1.504-6.883-1.504L225.008,304.544z"/>
			</defs>
			<clipPath id="SVGID_2_">
				<use xlink:href="#SVGID_1_"  overflow="visible"/>
			</clipPath>
			<path clip-path="url(#SVGID_2_)" fill="#177398" d="M560.172,89.31l-59.973-74.68H384.422c0,0-110.211,57.602-115.789,59.316
				c-5.578,1.707-31.93,69.633-31.93,69.633L560.172,89.31z"/>
			<path clip-path="url(#SVGID_2_)" fill="#DEDFE1" d="M280.645,129.071c0,0,16.262-64.816,124.578-70.234
				c108.332-5.418,152.711,23.938,152.711,23.938l31.305,90.738l-72.063,55.051l-160.898,29.875l-68.418-20.93l-24.371-59.504
				L280.645,129.071z"/>
			<path clip-path="url(#SVGID_2_)" fill="#FDC238" d="M110.922,416.337c0-7.223-9.031-54.172,0-52.367
				c9.031,1.809,169.723-15.789,169.723-15.789l25.281-81.699l22.973-14.066l86.66,9.023l96.191-32.875l65-41.535h30.703
				l-16.426,128.008l-90.102,112.129l-213.066,54.172l-146.234-34.316L110.922,416.337z"/>
			<polygon clip-path="url(#SVGID_2_)" fill="#186E91" points="342.027,244.81 311.348,279.114 233.695,258.438 260.789,201.478 			
				"/>
			<path clip-path="url(#SVGID_2_)" fill="#302D26" d="M285.699,215.774c0,0,51.336,32.637,109.648,28.473V209.56l18.039-24.984
				l16.656,16.641c0,0,31.918,47.566,79.109,13.375c0,0,40.262-21.688,68.008-59.168l13.867,8.328l-6.934,37.465
				c0,0-132.434,139.367-306.738,34.707l-13.867-20.148H285.699z"/>
			<path clip-path="url(#SVGID_2_)" fill="#31302C" d="M455.281,98.821c0,0,0.141-28.891,104.789-9.934l46.887,29.801h-33.531
				C573.426,118.688,482.379,100.634,455.281,98.821z"/>
			<path clip-path="url(#SVGID_2_)" fill="#31302C" d="M274.734,180.563h5.41h7.332c0,0,41.422-34.793,50.441-36.602
				c9.031-1.805,16.07-9.023,16.07-9.023l-16.07-7.41c0,0-61.391,5.605-72.215,34.492"/>
		</g>
		<g>
			<path fill="#4C91A1" d="M126.859,401.435L81.508,422.88c0,0-28.859,23.094-40.41,3.297
				c-11.539-19.801,20.621-24.742,20.621-24.742l35.461-14.836c0,0-74.234,23.906-84.957,0
				C1.516,362.677,83.98,366.798,83.98,366.798s-59.375-5.77-65.977-28.039c-6.602-22.266,62.688,3.301,62.688,3.301
				s-36.293-27.223-18.152-37.117c18.152-9.895,78.355,41.176,78.355,41.176s42.129-30.457,48.305-42.402
				c7.063-13.695,26.789-24.563,39.684-31.191c21.098-10.859,49.496-17.578,70.723-3.363c11.832,7.918,20.43,23.578,24.973,36.656
				c7.305,21.059-8.137,47.77-19.18,65.227c-11.371,17.949-27.594,31.488-47.574,38.871c-20.547,7.586-47.348,7.984-68.625,3.063
				c0,0-49.953-11.543-63.988-35.453C125.211,377.524,118.621,378.341,126.859,401.435z"/>
			<g>
				<defs>
					<path id="SVGID_3_" d="M126.859,401.435L81.508,422.88c0,0-28.859,23.094-40.41,3.297
						c-11.539-19.801,20.621-24.742,20.621-24.742l35.461-14.836c0,0-74.234,23.906-84.957,0
						C1.516,362.677,83.98,366.798,83.98,366.798s-59.375-5.77-65.977-28.039c-6.602-22.266,62.688,3.301,62.688,3.301
						s-36.293-27.223-18.152-37.117c18.152-9.895,78.355,41.176,78.355,41.176s42.129-30.457,48.305-42.402
						c7.063-13.695,26.789-24.563,39.684-31.191c21.098-10.859,49.496-17.578,70.723-3.363c11.832,7.918,20.43,23.578,24.973,36.656
						c7.305,21.059-8.137,47.77-19.18,65.227c-11.371,17.949-27.594,31.488-47.574,38.871c-20.547,7.586-47.348,7.984-68.625,3.063
						c0,0-49.953-11.543-63.988-35.453C125.211,377.524,118.621,378.341,126.859,401.435z"/>
				</defs>
				<clipPath id="SVGID_4_">
					<use xlink:href="#SVGID_3_"  overflow="visible"/>
				</clipPath>
				<g clip-path="url(#SVGID_4_)">
					<polygon fill="#15759B" points="32.895,372.431 72.516,418.622 123.625,390.591 132.68,395.528 125.262,404.599 
						41.148,439.825 0.734,379.704 					"/>
					<g>
						<path fill="#15759B" d="M214.75,346.47c-10.199,32.273-55.895,42.438-85.652,38.883c-3.734-0.453-7.992,4.895-2.723,5.516
							c32.914,3.965,84.473-7.684,95.793-43.586C223.512,343.032,215.746,343.278,214.75,346.47z"/>
						<path fill="#15759B" d="M195.648,336.606c-17.578,5.098-33.605,21.887-52.398,21.191c-3.02-0.109-8.266,4.348-2.996,4.539
							c21.391,0.793,36.961-16.043,56.469-21.688C201.379,339.306,200.332,335.247,195.648,336.606z"/>
					</g>
				</g>
			</g>
		</g>
		<path fill="#544039" d="M370.094,128.431c2.621,12.348-3.313,24.063-13.242,26.156c-9.926,2.105-20.098-6.203-22.695-18.555
			c-2.609-12.348,3.316-24.059,13.242-26.156C357.328,107.778,367.496,116.087,370.094,128.431z"/>
		<path fill="#544039" d="M460.898,106.228c2.852,13.453-4.555,26.414-16.527,28.938c-11.977,2.535-23.988-6.316-26.828-19.762
			c-2.852-13.461,4.555-26.418,16.527-28.945C446.047,83.923,458.059,92.778,460.898,106.228z"/>
		<path fill="#FFFFFF" d="M362.57,125.72c0,3.832-3.109,6.926-6.934,6.926s-6.922-3.094-6.922-6.926
			c0-3.824,3.098-6.934,6.922-6.934S362.57,121.896,362.57,125.72z"/>
		<path fill="#F0580D" d="M359.016,172.31c0,8.859-11.41,16.043-25.473,16.043c-14.086,0-25.484-7.184-25.484-16.043
			s11.398-16.039,25.484-16.039C347.605,156.271,359.016,163.45,359.016,172.31z"/>
		<path fill="#F0580D" d="M504.344,125.649c3.453,8.16-4.234,19.227-17.195,24.723c-12.945,5.492-26.25,3.332-29.719-4.816
			c-3.453-8.156,4.234-19.223,17.195-24.723C487.57,115.337,500.875,117.501,504.344,125.649z"/>
	</g>
	<path fill="#FFFFFF" d="M451.879,101.306c0,3.824-3.098,6.926-6.922,6.926s-6.934-3.102-6.934-6.926c0-3.828,3.109-6.93,6.934-6.93
		S451.879,97.478,451.879,101.306z"/>
	<g>
		<path fill="#97928C" d="M394.488,165.2c16.02-7.129,36.602-3.539,44.57,13.496c6.59,14.082-4.477,24.316-17.102,29.449
			c-16.926,6.895-35.129,2.91-52.719,3.324c-5.195,0.137,9.313-32.852,10.578-34.598C383.59,171.692,388.758,167.751,394.488,165.2z
			"/>
		<g>
			<defs>
				<path id="SVGID_5_" d="M394.488,165.2c16.02-7.129,36.602-3.539,44.57,13.496c6.59,14.082-4.477,24.316-17.102,29.449
					c-16.926,6.895-70.297,3.754-52.719,3.324c2.824-0.059-16.375,2.457,10.578-34.598
					C383.59,171.692,388.758,167.751,394.488,165.2z"/>
			</defs>
			<clipPath id="SVGID_6_">
				<use xlink:href="#SVGID_5_"  overflow="visible"/>
			</clipPath>
			<path clip-path="url(#SVGID_6_)" fill="#312E29" d="M439.059,178.696c0,0-11.922,21.465-71.691,32.082l-2.148,11.766
				l39.785-2.457l42.563-14.93L439.059,178.696z"/>
		</g>
	</g>
	<polygon fill="#2E2D28" points="395.563,208.868 395.563,217.978 433.035,216.204 433.035,205.075 426.703,198.485 	"/>
	<g>
		<path fill="#404041" d="M324.117,451.919c13.395,20.156,20.762,39.348,17.332,63.879c-2.789,19.961-14.262,37.27-16.207,57.648
			c-0.102,1.102,7.574,0.289,7.789-2.098c2.113-22.148,13.934-41.277,16.988-63.223c3.008-21.543-6.574-40.91-18.113-58.277
			C330.59,447.872,323.465,450.935,324.117,451.919z"/>
		<path fill="#404041" d="M336.871,536.392c9.121,11.758,16.273,25.848,15.656,41.086c-0.125,2.941,7.652,1.262,7.742-1.082
			c0.664-16.055-6.5-30.516-16.145-42.945C342.629,531.524,335.129,534.161,336.871,536.392z"/>
		<path fill="#404041" d="M335.68,529.396c17.961,8.738,35.246,23.758,39.543,44.051c0.32,1.535,8.148-0.355,7.777-2.098
			c-4.324-20.438-21.887-35.754-39.949-44.539C341.027,525.825,334.965,529.044,335.68,529.396z"/>
		<path fill="#404041" d="M367.586,448.021c17.668,31.547,27.672,61.617,6.68,94.48c-1.422,2.234,1.867,3.07,3.324,3.07
			c15.441-0.008,12.449,27.73,12.344,37.375c-0.023,3.934,7.844,2.629,7.871-0.672c0.164-15.863,2.352-42.125-19.445-42.102
			c1.098,1.016,2.211,2.039,3.324,3.059c21.699-33.984,11.516-65.598-6.945-98.57C373.125,441.81,365.668,444.583,367.586,448.021z"
			/>
		<path fill="#404041" d="M379.063,542.954c17.68,3.5,34.145,16.281,34.746,35.516c0.102,3.691,7.918,2.168,7.828-0.801
			c-0.664-21.219-18.168-35.5-37.93-39.426C380.828,537.677,374.469,542.036,379.063,542.954z"/>
	</g>
</g>
</svg>
