<?xml version="1.0" encoding="utf-8"?>
<!-- Generator: Adobe Illustrator 16.0.2, SVG Export Plug-In . SVG Version: 6.00 Build 0)  -->
<!DOCTYPE svg PUBLIC "-//W3C//DTD SVG 1.1//EN" "http://www.w3.org/Graphics/SVG/1.1/DTD/svg11.dtd">
<svg version="1.1" id="lay" xmlns="http://www.w3.org/2000/svg" xmlns:xlink="http://www.w3.org/1999/xlink" x="0px" y="0px"
	 width="600px" height="600px" viewBox="0 0 600 600" enable-background="new 0 0 600 600" xml:space="preserve">
<g>
	<g>
		<path fill="#BD651B" d="M398.188,260.566c12.758-7.418,25.477-14.906,38.262-22.273c4.23-2.438,8.734-4.473,12.559-7.543
			c4.059-3.254,6.551-7.707,9.805-11.688c9.121-11.117,16.684-24.543,23.289-37.254c5.277-10.141,8.422-22.316,14.547-31.871
			c0.012-0.02,40.156-62.641,61.102-55.305c20.98,7.332,12.57,83.215-69.277,150.523c0,0,50.875-19.535,69.652-40.863
			c0,0,29.992-37.332,28.875,10.727s-108.816,77.871-108.816,77.871s-6.309,5.602,5.047,9.289c0,0,72.309-34.168,69.676-13.98
			c-2.645,20.188-57.742,39.109-84.125,42.391c0,0-16.883,3.922-7.453,8.238c0,0,34.559-7.625,33.773,8.836
			c-0.785,16.457-83.844,34.543-83.844,34.543l-23.063-6.027L398.188,260.566z"/>
		<g>
			<defs>
				<path id="SVGID_1_" d="M398.188,260.566L449.051,231c0,0,25.223-25.816,47.586-81.063c0,0,40.156-62.641,61.113-55.305
					c20.98,7.332,12.57,83.215-69.277,150.52c0,0,50.875-19.531,69.645-40.859c0,0,30-37.332,28.883,10.727
					c-1.125,48.059-108.816,77.871-108.816,77.871s-6.309,5.602,5.047,9.289c0,0,72.309-34.168,69.664-13.98
					c-2.633,20.188-57.73,39.109-84.113,42.391c0,0-16.883,3.922-7.453,8.238c0,0,34.559-7.625,33.773,8.836
					c-0.797,16.453-83.844,34.543-83.844,34.543l-23.063-6.027L398.188,260.566z"/>
			</defs>
			<clipPath id="SVGID_2_">
				<use xlink:href="#SVGID_1_"  overflow="visible"/>
			</clipPath>
			<path clip-path="url(#SVGID_2_)" fill="none" d="M398.188,260.566L449.051,231c0,0,25.223-25.816,47.586-81.063
				c0,0,40.156-62.641,61.113-55.305c20.98,7.332,12.57,83.215-69.277,150.52c0,0,50.875-19.531,69.645-40.859
				c0,0,30-37.332,28.883,10.727c-1.125,48.059-108.816,77.871-108.816,77.871s-6.309,5.602,5.047,9.289
				c0,0,72.309-34.168,69.664-13.98c-2.633,20.188-57.73,39.109-84.113,42.391c0,0-16.883,3.922-7.453,8.238
				c0,0,34.559-7.625,33.773,8.836c-0.797,16.453-83.844,34.543-83.844,34.543l-23.063-6.027L398.188,260.566z"/>
			<g clip-path="url(#SVGID_2_)">
				<g>
					<path fill="#94510B" d="M569.727,93.523c6.918,40.984-9.055,87.891-33.246,120.754c-2.449,3.316-14.684-4.918-12.785-7.504
						c23.977-32.535,39.887-78.742,33.047-119.281C556.266,84.672,569.008,89.293,569.727,93.523z"/>
					<path fill="#94510B" d="M588.473,174.168c18.262,22.961-1.699,65.934-11.258,89.648c-2.59,6.406-15.48-0.824-12.785-7.492
						c4.879-12.113,9.305-24.371,12.711-36.996c3.102-11.484,8.551-30.902,0.492-41.02
						C571.512,170.586,584.078,168.633,588.473,174.168z"/>
					<path fill="#94510B" d="M561.734,279.215c-3.672,14.742-5.992,28.121-19.602,36.281c-2.859,1.707-13.977-4.246-12.203-8.027
						c4.125-8.793,8.559-17.285,11.375-26.641c0.965-3.266,13.641,3.098,12.773,7.492c-5.234,26.488-29.352,40.727-53.648,41.73
						c-3.695,0.145-39.863,1.688-34.953,1.48c23.383-0.973,70.844-25.52,75.828-50.703c4.266,2.496,8.516,4.992,12.773,7.492
						c-2.797,9.359-7.242,17.852-11.367,26.648c-4.063-2.672-8.133-5.344-12.191-8.012c13.094-7.852,14.965-21.27,18.441-35.238
						C549.695,268.758,562.895,274.574,561.734,279.215z"/>
					<path fill="#94510B" d="M503.168,341.66c-6.402,17.066-28.391,32.844-45.16,35.91c-4.145,0.75-15.305-8.383-9.387-9.465
						c15.605-2.852,35.887-18.25,41.754-33.938C491.91,330.094,504.973,336.82,503.168,341.66z"/>
				</g>
			</g>
		</g>
	</g>
	<g>
		<path fill="#BD651B" d="M305.492,267.387c-17.82-13.508-35.578-27.105-53.465-40.574c-5.91-4.449-12.461-8.484-17.457-13.609
			c-5.297-5.445-7.531-11.918-11.227-18.031c-10.313-17.086-17.133-36.617-22.688-54.945c-4.438-14.621-4.523-31.164-10.586-45.309
			c-0.012-0.02-39.789-92.699-77.199-89.984c-37.43,2.715-55.188,102.262,51.016,214.156c0,0-75.281-41.078-97.199-74.266
			c0,0-33.664-57.168-51.797,4.555c-18.145,61.699,146.012,133.914,146.012,133.914s8.02,9.156-12.133,10.27
			c0,0-104.336-66.559-108.402-39.953c-4.063,26.609,78.383,68.242,120.297,80.805c0,0,26.043,10.344,8.785,12.867
			c0,0-53.484-20.684-59.039,0.582c-5.563,21.262,123.098,70.688,123.098,70.688l40.316-0.391L305.492,267.387z"/>
		<g>
			<defs>
				<path id="SVGID_3_" d="M305.512,267.387l-71.102-53.871c0,0-30.637-40.961-44.336-118.59c0,0-39.789-92.703-77.203-89.992
					c-37.43,2.715-55.18,102.262,51.031,214.156c0,0-75.297-41.078-97.207-74.262c0,0-33.672-57.172-51.805,4.551
					c-18.129,61.699,146.012,133.914,146.012,133.914s8.02,9.156-12.125,10.27c0,0-104.344-66.559-108.398-39.953
					c-4.074,26.609,78.371,68.242,120.285,80.805c0,0,26.043,10.344,8.785,12.867c0,0-53.484-20.684-59.039,0.582
					c-5.555,21.262,123.098,70.688,123.098,70.688l40.316-0.391L305.512,267.387z"/>
			</defs>
			<clipPath id="SVGID_4_">
				<use xlink:href="#SVGID_3_"  overflow="visible"/>
			</clipPath>
			<path clip-path="url(#SVGID_4_)" fill="none" d="M305.512,267.387l-71.102-53.871c0,0-30.637-40.961-44.336-118.59
				c0,0-39.789-92.703-77.203-89.992c-37.43,2.715-55.18,102.262,51.031,214.156c0,0-75.297-41.078-97.207-74.262
				c0,0-33.672-57.172-51.805,4.551c-18.129,61.699,146.012,133.914,146.012,133.914s8.02,9.156-12.125,10.27
				c0,0-104.344-66.559-108.398-39.953c-4.074,26.609,78.371,68.242,120.285,80.805c0,0,26.043,10.344,8.785,12.867
				c0,0-53.484-20.684-59.039,0.582c-5.555,21.262,123.098,70.688,123.098,70.688l40.316-0.391L305.512,267.387z"/>
			<g clip-path="url(#SVGID_4_)">
				<g>
					<path fill="#94510B" d="M93.699-0.27c-28.383,50.133-21.688,115.078,4.32,164.711c2.633,5.012,26.113-1.625,24.074-5.52
						C96.32,109.766,89.43,45.723,117.5-3.859C119.445-7.309,96.641-5.457,93.699-0.27z"/>
					<path fill="#94510B" d="M29.445,96.738c-39.473,23.523-24.609,84.727-18.793,118.043c1.57,8.988,25.707,3.848,24.066-5.523
						c-2.961-17.012-5.125-34.066-5.469-51.262c-0.324-15.656-1.164-42.16,16.234-52.527C58.754,97.543,38.961,91.078,29.445,96.738
						z"/>
					<path fill="#94510B" d="M29.621,239.336c-0.105,19.996-1.859,37.813,17.07,52.551c3.98,3.074,24.664-0.996,23.328-6.387
						c-3.113-12.539-6.859-24.781-7.566-37.625c-0.242-4.469-23.656-0.359-24.063,5.516c-2.434,35.477,31.191,61.305,70.602,70.293
						c6.012,1.367,64.656,14.785,56.703,12.977C127.758,328,60.141,281.609,62.453,247.875c-8.027,1.836-16.035,3.68-24.063,5.516
						c0.695,12.848,4.449,25.094,7.563,37.637c7.77-2.129,15.543-4.254,23.316-6.379c-18.223-14.18-15.684-31.887-15.59-50.828
						C53.707,229.805,29.633,233.051,29.621,239.336z"/>
					<path fill="#94510B" d="M99.688,337.641c3.387,23.82,32.883,50.934,59.102,60.164c6.48,2.277,28.582-5.852,19.313-9.109
						c-24.41-8.59-51.238-34.676-54.34-56.574C122.945,326.461,98.73,330.883,99.688,337.641z"/>
				</g>
			</g>
		</g>
	</g>
	<path fill="#BD651B" d="M274.703,466.074l-22.387,18.758c0,0-60.664,49.285-45.652,66.301c0,0,8.613,10.004,32.828-20.008
		c0,0-27.082,46.023-13.945,56.031c13.129,10,34.148-52.035,34.148-52.035s-3.008,63.027,15.008,63.027s5.996-66.031,5.996-66.031
		s8.012,50.031,31.035,42.023C334.742,566.145,274.703,466.074,274.703,466.074"/>
	<g>
		<path fill="#CEB3BA" d="M321.711,90.344c0,0-80.5-8.477-108.742,62.141c-28.25,70.617-22.598,251.102-9.883,269.605
			c0,0,12.707,58.051,72.027,70.762c59.316,12.711,107.336-93.219,107.336-93.219S503.898,97.402,321.711,90.344z"/>
		<g>
			<defs>
				<path id="SVGID_5_" d="M321.711,90.344c0,0-80.5-8.477-108.742,62.141c-28.25,70.617-22.598,251.102-9.883,269.605
					c0,0,12.707,58.051,72.027,70.762c59.316,12.711,107.336-93.219,107.336-93.219S503.898,97.402,321.711,90.344z"/>
			</defs>
			<clipPath id="SVGID_6_">
				<use xlink:href="#SVGID_5_"  overflow="visible"/>
			</clipPath>
			<path clip-path="url(#SVGID_6_)" fill="#96500B" d="M196.781,413.223c0,0,7.066-207.637,32.484-201.973l230.406-40.836
				L343.668,65.801L202.43,92.625l-32.48,303.648L196.781,413.223z"/>
		</g>
	</g>
	<g>
		<path fill="#F06141" d="M292.719,130.727c0,0-33.418-5.816-37.051,25.426c-1.375,11.863-7.27,22.688-17.152,29.563
			c-7.047,4.879-15,3.656-12.508,13.965c1.816,7.504,7.629,16.297,11.527,23.031c13.75,23.793,30.348,45.027,53.348,60.531
			c11.332,7.629,24.609,13.605,36.801,19.777c14.676,7.43,17.91,10.121,32.637,1.719c9.078-5.184,17.852-8.254,25.242-16.137
			c9.742-10.387,17.145-23.813,23.602-36.391c5.113-9.938,9.227-20.305,12.352-31.035c3.227-11.129,12.797-26.137,8.508-37.941
			c-4.23-11.625-21.805-18.105-21.805-32.172c0-10.172-42.859-43.586-57.383-2.176c0,0-10.176,11.609-24.332,0
			C326.504,148.887,321.777,131.457,292.719,130.727z"/>
		<path fill="#F06141" d="M292.719,130.727c0,0-33.418-5.816-37.051,25.426c-1.375,11.863-7.27,22.688-17.152,29.563
			c-7.047,4.879-15,3.656-12.508,13.965c1.816,7.504,7.629,16.297,11.527,23.031c13.75,23.793,30.348,45.027,53.348,60.531
			c11.332,7.629,24.609,13.605,36.801,19.777c14.676,7.43,17.91,10.121,32.637,1.719c9.078-5.184,17.852-8.254,25.242-16.137
			c9.742-10.387,17.145-23.813,23.602-36.391c5.113-9.938,9.227-20.305,12.352-31.035c3.227-11.129,12.797-26.137,8.508-37.941
			c-4.23-11.625-21.805-18.105-21.805-32.172c0-10.172-42.859-43.586-57.383-2.176c0,0-10.176,11.609-24.332,0
			C326.504,148.887,321.777,131.457,292.719,130.727z"/>
		<path fill="#F06141" d="M292.719,130.727c0,0-33.418-5.816-37.051,25.426c-1.375,11.863-7.27,22.688-17.152,29.563
			c-7.047,4.879-15,3.656-12.508,13.965c1.816,7.504,7.629,16.297,11.527,23.031c13.75,23.793,30.348,45.027,53.348,60.531
			c11.332,7.629,24.609,13.605,36.801,19.777c14.676,7.43,17.91,10.121,32.637,1.719c9.078-5.184,17.852-8.254,25.242-16.137
			c9.742-10.387,17.145-23.813,23.602-36.391c5.113-9.938,9.227-20.305,12.352-31.035c3.227-11.129,12.797-26.137,8.508-37.941
			c-4.23-11.625-21.805-18.105-21.805-32.172c0-10.172-42.859-43.586-57.383-2.176c0,0-10.176,11.609-24.332,0
			C326.504,148.887,321.777,131.457,292.719,130.727z"/>
		<path fill="#F06141" d="M292.719,130.727c0,0-33.418-5.816-37.051,25.426c-1.375,11.863-7.27,22.688-17.152,29.563
			c-7.047,4.879-15,3.656-12.508,13.965c1.816,7.504,7.629,16.297,11.527,23.031c13.75,23.793,30.348,45.027,53.348,60.531
			c11.332,7.629,24.609,13.605,36.801,19.777c14.676,7.43,17.91,10.121,32.637,1.719c9.078-5.184,17.852-8.254,25.242-16.137
			c9.742-10.387,17.145-23.813,23.602-36.391c5.113-9.938,9.227-20.305,12.352-31.035c3.227-11.129,12.797-26.137,8.508-37.941
			c-4.23-11.625-21.805-18.105-21.805-32.172c0-10.172-42.859-43.586-57.383-2.176c0,0-10.176,11.609-24.332,0
			C326.504,148.887,321.777,131.457,292.719,130.727z"/>
	</g>
	<g>
		<g>
			<path fill="#4D4135" d="M321.102,162.512c0,11.656-9.445,21.109-21.102,21.109c-11.664,0-21.105-9.453-21.105-21.109
				c0-4.039,1.137-7.816,3.105-11.02c3.703-6.051,10.387-10.09,18-10.09C311.656,141.402,321.102,150.855,321.102,162.512z"/>
			<path fill="#4D4135" d="M282,151.492c0,0-8.047,2.742-12.988-7.383c0,0,1.387,26.566,22.957,37.914l1.48-15.453L282,151.492z"/>
		</g>
	</g>
	<g>
		<g>
			<path fill="#4D4135" d="M359.504,163.047c0,10.016,8.121,18.129,18.121,18.129c10.023,0,18.133-8.113,18.133-18.129
				c0-3.469-0.969-6.711-2.652-9.469c-3.191-5.191-8.926-8.664-15.48-8.664C367.625,144.914,359.504,153.031,359.504,163.047z"/>
			<path fill="#4D4135" d="M393.105,153.578c0,0,6.895,2.359,11.148-6.332c0,0,2.461,20.766-16.059,30.52l-4.93-11.227
				L393.105,153.578z"/>
		</g>
	</g>
	<path fill="#FFFFFF" d="M376.035,155.398c0,2.684-2.18,4.867-4.867,4.867c-2.684,0-4.855-2.184-4.855-4.867
		s2.172-4.863,4.855-4.863C373.855,150.535,376.035,152.715,376.035,155.398z"/>
	<path fill="#FFFFFF" d="M301.688,155.398c0,2.684-2.168,4.867-4.855,4.867c-2.684,0-4.863-2.184-4.863-4.867
		s2.18-4.863,4.863-4.863C299.52,150.535,301.688,152.715,301.688,155.398z"/>
	<g>
		<path fill="#97928C" d="M350.941,175.508c-14.199-1.191-29.027,7.375-30.563,23.086c-1.254,12.988,9.98,18.02,21.055,18.578
			c14.848,0.758,27.738-7.461,41.348-12.008c4.016-1.344-15.984-23.449-17.434-24.48
			C361.063,177.621,356.031,175.945,350.941,175.508z"/>
		<g>
			<defs>
				<path id="SVGID_7_" d="M350.941,175.508c-14.199-1.191-29.027,7.375-30.563,23.086c-1.254,12.988,9.98,18.02,21.055,18.578
					c14.848,0.758,54.949-16.559,41.348-12.008c-2.191,0.73,13.211-2.617-17.434-24.48
					C361.063,177.621,356.031,175.945,350.941,175.508z"/>
			</defs>
			<clipPath id="SVGID_8_">
				<use xlink:href="#SVGID_7_"  overflow="visible"/>
			</clipPath>
			<path clip-path="url(#SVGID_8_)" fill="#302F2D" d="M320.379,198.594c0,0,14.941,13.695,63.648,5.492l4.813,8.738l-31.195,9.102
				H320.98L320.379,198.594z"/>
		</g>
	</g>
	<path fill="#EF5813" d="M295.082,194.48c0,8.164-9.551,14.785-21.344,14.785c-11.797,0-21.348-6.621-21.348-14.785
		c0-8.152,9.551-14.777,21.348-14.777C285.531,179.703,295.082,186.328,295.082,194.48z"/>
	<path fill="#EF5813" d="M426.008,192.547c0,8.16-9.551,14.781-21.344,14.781c-11.797,0-21.355-6.621-21.355-14.781
		c0-8.164,9.559-14.781,21.355-14.781C416.457,177.766,426.008,184.383,426.008,192.547z"/>
</g>
</svg>
