<?xml version="1.0" encoding="utf-8"?>
<!-- Generator: Adobe Illustrator 16.0.2, SVG Export Plug-In . SVG Version: 6.00 Build 0)  -->
<!DOCTYPE svg PUBLIC "-//W3C//DTD SVG 1.1//EN" "http://www.w3.org/Graphics/SVG/1.1/DTD/svg11.dtd">
<svg version="1.1" id="lay" xmlns="http://www.w3.org/2000/svg" xmlns:xlink="http://www.w3.org/1999/xlink" x="0px" y="0px"
	 width="600px" height="600px" viewBox="0 0 600 600" enable-background="new 0 0 600 600" xml:space="preserve">
<g>
	<g>
		<path fill="#E6DEBA" d="M145.067,423.221l-10.742,5.969c0,0-79.363,65.043-87.117,89.504c0,0-16.707,21.492-6.563,31.035
			c10.141,9.543,48.93-11.348,58.473-31.625c0,0-24.148,48.922-7.898,58.473c16.254,9.547,49.07-23.867,74.73-90.691
			L145.067,423.221z"/>
		<g>
			<defs>
				<path id="SVGID_1_" d="M145.067,423.221l-10.742,5.969c0,0-79.363,65.043-87.117,89.504c0,0-16.707,21.492-6.563,31.035
					c10.141,9.543,48.93-11.348,58.473-31.625c0,0-24.148,48.922-7.898,58.473c16.254,9.547,49.07-23.867,74.73-90.691
					L145.067,423.221z"/>
			</defs>
			<clipPath id="SVGID_2_">
				<use xlink:href="#SVGID_1_"  overflow="visible"/>
			</clipPath>
			<path clip-path="url(#SVGID_2_)" fill="#C2C0B4" d="M43.629,510.936c0,0,3.578,31.023,25.656,39.383
				c22.074,8.352-29.238,8.352-29.238,8.352l-20.883-20.969L43.629,510.936z"/>
			<path clip-path="url(#SVGID_2_)" fill="#C2C0B4" d="M89.575,537.701c0,0,1.188,31.113,33.414,8.445
				c0,0,19.094-20.293,28.043-31.625l3.582,73.984l-56.688,3.574l-13.723-8.348l-5.371-20.289L89.575,537.701z"/>
		</g>
	</g>
	<path fill="#E5DCBB" d="M502.477,217.826c0,0,73.719,42.125,57.93,143.489c0,0-10.539,103.992-40.816,144.801
		c0,0-26.324,44.766-92.148,46.07c0,0-102.68,18.438-202.722-25.004c0,0-88.203-46.078-94.785-106.637
		c0,0-11.852-48.699,18.43-92.137c0,0,39.883-98.735,129.203-204.051L393.219,82.24l100.047,25.004
		C493.266,107.244,518.273,173.072,502.477,217.826z"/>
	<g>
		<defs>
			<path id="SVGID_3_" d="M363.254,25.388c0,0-27.633,42.41-50.242,57.633c0,0-35.8,17.391-35.73,44.574
				c0,0-6.453,64.156,51.183,97.859c-2.793-41.746-14.625-114.43,50.012-116.34c5.848-0.168,13.387,2.109,18.586,4.641
				c5.59,2.723,10.016,7.086,13.52,12.168c6.773,9.824,11.922,22.258,13.223,34.16c0.82,7.406-0.328,14.824-0.473,22.242
				c-0.137,7.203,0.473,14.426,0.727,21.613c0.059,1.738,0.121,3.473,0.184,5.211l22.742-3.262c0,0-10.875-83.727,41.324-93.508
				c0,0-1.391-53.285-105.625-101.129c0,0,8.848,31.535-15.074,47.844L363.254,25.388z"/>
		</defs>
		<clipPath id="SVGID_4_">
			<use xlink:href="#SVGID_3_"  overflow="visible"/>
		</clipPath>
		<path clip-path="url(#SVGID_4_)" fill="#98948B" d="M363.254,25.388c0,0-27.633,42.41-50.242,57.633c0,0-35.8,17.391-35.73,44.574
			c0,0-6.453,64.156,51.183,97.859c-2.793-41.746-14.625-114.43,50.012-116.34c36.977-1.09,50.023,51.105,44.586,68.504l1.18,31.531
			l22.742-3.262c0,0-10.875-83.727,41.324-93.508c0,0-1.391-53.285-105.625-101.129c0,0,8.848,31.535-15.074,47.844L363.254,25.388z
			"/>
		<polygon clip-path="url(#SVGID_4_)" fill="#494A44" points="417.047,164.298 451.293,161.033 451.293,199.638 420.848,202.353 		
			"/>
	</g>
	<g>
		<path fill="#5F4842" d="M395.855,179.681c0,10.355-7.668,18.75-17.125,18.75s-17.121-8.395-17.121-18.75
			c0-10.363,7.664-18.762,17.121-18.762S395.855,169.318,395.855,179.681z"/>
		<path fill="#FFFFFF" d="M376.344,172.291c0,2.238-1.82,4.063-4.063,4.063s-4.063-1.824-4.063-4.063
			c0-2.246,1.82-4.066,4.063-4.066S376.344,170.044,376.344,172.291z"/>
	</g>
	<g>
		<ellipse fill="#5F4842" cx="480.266" cy="170.236" rx="13.457" ry="15.965"/>
		<path fill="#FFFFFF" d="M478.5,166.169c0,2.246-1.816,4.066-4.055,4.066c-2.246,0-4.066-1.82-4.066-4.066
			c0-2.234,1.82-4.063,4.066-4.063C476.684,162.107,478.5,163.935,478.5,166.169z"/>
	</g>
	<path fill="#F15B0F" d="M362.629,204.99c0,8.586-8.785,15.555-19.617,15.555c-10.828,0-19.609-6.969-19.609-15.555
		c0-8.594,8.781-15.555,19.609-15.555C353.844,189.435,362.629,196.396,362.629,204.99z"/>
	<path fill="#F15B0F" d="M506.363,201.849c0,6.746-6.906,12.223-15.426,12.223s-15.426-5.477-15.426-12.223
		c0-6.766,6.906-12.242,15.426-12.242S506.363,195.083,506.363,201.849z"/>
	<g>
		<path fill="#97928C" d="M445.617,196.083c-14.895-1.254-30.453,7.734-32.059,24.215c-1.332,13.629,10.477,18.918,22.09,19.508
			c15.578,0.789,29.098-7.84,43.375-12.617c4.223-1.41-16.777-24.602-18.289-25.676
			C456.234,198.298,450.969,196.533,445.617,196.083z"/>
		<g>
			<defs>
				<path id="SVGID_5_" d="M445.617,196.083c-14.895-1.254-30.453,7.734-32.059,24.215c-1.332,13.629,10.477,18.918,22.09,19.508
					c15.578,0.789,29.098-7.84,43.375-12.617c4.223-1.41-16.777-24.602-18.289-25.676
					C456.234,198.298,450.969,196.533,445.617,196.083z"/>
			</defs>
			<clipPath id="SVGID_6_">
				<use xlink:href="#SVGID_5_"  overflow="visible"/>
			</clipPath>
			<path clip-path="url(#SVGID_6_)" fill="#302F2D" d="M414.176,212.267c0,0,13.781,20.094,64.891,11.48l6.316,11.484l-32.727,9.551
				h-38.48V212.267z"/>
		</g>
	</g>
	<g>
		<defs>
			<path id="SVGID_7_" d="M502.477,217.826c0,0,73.719,42.125,57.93,143.489c0,0-10.539,103.992-40.816,144.801
				c0,0-26.324,44.766-92.148,46.07c0,0-102.68,18.438-202.722-25.004c0,0-88.203-46.078-94.785-106.637
				c0,0-11.852-48.699,18.43-92.137c0,0,39.883-98.735,129.203-204.051L393.219,82.24l100.047,25.004
				C493.266,107.244,518.273,173.072,502.477,217.826z"/>
		</defs>
		<clipPath id="SVGID_8_">
			<use xlink:href="#SVGID_7_"  overflow="visible"/>
		</clipPath>
		<path clip-path="url(#SVGID_8_)" fill="#C1BEB7" d="M132.879,354.584c0,0,47.141,176.605,228.91,170.297
			c0,0,126.59,17.348,194.383-116.684v134.031l-162.406,37.844l-184.484-41.012L91.024,428.697L132.879,354.584z"/>
	</g>
	<g>
		<path fill="#98948B" d="M201.356,243.115c0,0,125.601-80.789,123.511,15.391c-2.094,96.188-77.781,227.059-137.699,241.254
			C187.168,499.76,100.442,352.291,201.356,243.115z"/>
		<g>
			<defs>
				<path id="SVGID_9_" d="M201.356,243.115c0,0,125.601-80.789,123.511,15.391c-2.094,96.188-77.781,227.059-137.699,241.254
					C187.168,499.76,100.442,352.291,201.356,243.115z"/>
			</defs>
			<clipPath id="SVGID_10_">
				<use xlink:href="#SVGID_9_"  overflow="visible"/>
			</clipPath>
			<path clip-path="url(#SVGID_10_)" fill="#827F78" d="M149.735,401.99c0,0,7.887,59.926,53.613,59.926
				c45.723,0,102.957-107.223,121.648-160.832l53.754,99.332L222.27,559.334L79.489,499.756L149.735,401.99z"/>
		</g>
	</g>
	<g>
		<path fill="#464540" d="M277.879,292.99c-33.492,15.766-52.746,53.805-66.758,86.071c-15.383,35.441-28.621,76.539-26.844,115.648
			c0.207,4.559,12.844,1.852,12.602-3.379c-1.551-34.125,9.734-69.535,21.738-101.012c12.195-31.945,31.492-75.969,64.422-91.477
			C290.938,295.126,283.747,290.228,277.879,292.99z"/>
		<path fill="#464540" d="M202.383,300.181c-35.02,35.399-34.133,96.551-34.191,142.79c-0.008,6.895,12.797,5.199,12.805-0.82
			c0.055-44.367-1.504-103.988,32.035-137.883C218.653,298.58,206.563,295.958,202.383,300.181z"/>
	</g>
	<g>
		<g>
			<path fill="#1A171B" d="M320.512,552.146c4.285,2.363,5.762,10.113,6.586,14.496c1.035,5.512-3.379,12.23-7.852,15.188
				c-5.359,3.555,2.641,5.805,6.059,3.543c5.484-3.621,12.035-11.719,11.516-18.672c-0.453-6.273-2.855-16.238-8.902-19.555
				C324.785,545.416,316.223,549.791,320.512,552.146z"/>
			<path fill="#1A171B" d="M340.547,554.17c6.066,7.742,5.547,22.512-2.078,29.051c-1.617,1.391-0.855,3.344,1.035,3.852
				c2.34,0.621,4.895-0.27,6.676-1.797c9.398-8.063,10.672-25.332,3.094-34.988C347.012,547.408,337.93,550.842,340.547,554.17z"/>
			<path fill="#1A171B" d="M357.023,553.451c5.883,10.305-1.031,22-4.23,32.027c-1.086,3.395,8.43,2.109,9.465-1.156
				c3.668-11.48,10.164-22.984,3.527-34.609C364.207,546.943,355.012,549.936,357.023,553.451z"/>
			<path fill="#1A171B" d="M381.902,549.939c0.332,4.984,2.277,9.43,3.805,14.121c2.043,6.32,0.43,12.805-1.949,18.773
				c-1.965,4.922,7.523,4.547,8.984,0.887c2.359-5.918,3.742-11.648,3.332-18.051c-0.402-6.309-4.285-11.867-4.715-18.262
				C391.086,543.361,381.613,545.572,381.902,549.939z"/>
			<path fill="#1A171B" d="M400.02,554.146c3.25,9.375,9.414,23.895,2.316,32.801c-2.34,2.93,7.035,1.867,8.695-0.219
				c7.922-9.941,2.102-24.563-1.566-35.117C408.477,548.764,399.117,551.545,400.02,554.146z"/>
			<path fill="#1A171B" d="M414.18,554.146c3.254,9.375,9.414,23.895,2.32,32.801c-2.34,2.93,7.031,1.867,8.688-0.219
				c7.93-9.941,2.105-24.563-1.559-35.117C422.648,548.764,413.273,551.545,414.18,554.146z"/>
		</g>
		<g>
			<path fill="#1A171B" d="M320.512,552.146c4.285,2.363,5.762,10.113,6.586,14.496c1.035,5.512-3.379,12.23-7.852,15.188
				c-5.359,3.555,2.641,5.805,6.059,3.543c5.484-3.621,12.035-11.719,11.516-18.672c-0.453-6.273-2.855-16.238-8.902-19.555
				C324.785,545.416,316.223,549.791,320.512,552.146z"/>
			<path fill="#1A171B" d="M340.547,554.17c6.066,7.742,5.547,22.512-2.078,29.051c-1.617,1.391-0.855,3.344,1.035,3.852
				c2.34,0.621,4.895-0.27,6.676-1.797c9.398-8.063,10.672-25.332,3.094-34.988C347.012,547.408,337.93,550.842,340.547,554.17z"/>
			<path fill="#1A171B" d="M357.023,553.451c5.883,10.305-1.031,22-4.23,32.027c-1.086,3.395,8.43,2.109,9.465-1.156
				c3.668-11.48,10.164-22.984,3.527-34.609C364.207,546.943,355.012,549.936,357.023,553.451z"/>
			<path fill="#1A171B" d="M381.902,549.939c0.332,4.984,2.277,9.43,3.805,14.121c2.043,6.32,0.43,12.805-1.949,18.773
				c-1.965,4.922,7.523,4.547,8.984,0.887c2.359-5.918,3.742-11.648,3.332-18.051c-0.402-6.309-4.285-11.867-4.715-18.262
				C391.086,543.361,381.613,545.572,381.902,549.939z"/>
			<path fill="#1A171B" d="M400.02,554.146c3.25,9.375,9.414,23.895,2.316,32.801c-2.34,2.93,7.035,1.867,8.695-0.219
				c7.922-9.941,2.102-24.563-1.566-35.117C408.477,548.764,399.117,551.545,400.02,554.146z"/>
			<path fill="#1A171B" d="M414.18,554.146c3.254,9.375,9.414,23.895,2.32,32.801c-2.34,2.93,7.031,1.867,8.688-0.219
				c7.93-9.941,2.105-24.563-1.559-35.117C422.648,548.764,413.273,551.545,414.18,554.146z"/>
		</g>
		<g>
			<path fill="#1A171B" d="M320.512,552.146c4.285,2.363,5.762,10.113,6.586,14.496c1.035,5.512-3.379,12.23-7.852,15.188
				c-5.359,3.555,2.641,5.805,6.059,3.543c5.484-3.621,12.035-11.719,11.516-18.672c-0.453-6.273-2.855-16.238-8.902-19.555
				C324.785,545.416,316.223,549.791,320.512,552.146z"/>
			<path fill="#1A171B" d="M340.547,554.17c6.066,7.742,5.547,22.512-2.078,29.051c-1.617,1.391-0.855,3.344,1.035,3.852
				c2.34,0.621,4.895-0.27,6.676-1.797c9.398-8.063,10.672-25.332,3.094-34.988C347.012,547.408,337.93,550.842,340.547,554.17z"/>
			<path fill="#1A171B" d="M357.023,553.451c5.883,10.305-1.031,22-4.23,32.027c-1.086,3.395,8.43,2.109,9.465-1.156
				c3.668-11.48,10.164-22.984,3.527-34.609C364.207,546.943,355.012,549.936,357.023,553.451z"/>
			<path fill="#1A171B" d="M381.902,549.939c0.332,4.984,2.277,9.43,3.805,14.121c2.043,6.32,0.43,12.805-1.949,18.773
				c-1.965,4.922,7.523,4.547,8.984,0.887c2.359-5.918,3.742-11.648,3.332-18.051c-0.402-6.309-4.285-11.867-4.715-18.262
				C391.086,543.361,381.613,545.572,381.902,549.939z"/>
			<path fill="#1A171B" d="M400.02,554.146c3.25,9.375,9.414,23.895,2.316,32.801c-2.34,2.93,7.035,1.867,8.695-0.219
				c7.922-9.941,2.102-24.563-1.566-35.117C408.477,548.764,399.117,551.545,400.02,554.146z"/>
			<path fill="#1A171B" d="M414.18,554.146c3.254,9.375,9.414,23.895,2.32,32.801c-2.34,2.93,7.031,1.867,8.688-0.219
				c7.93-9.941,2.105-24.563-1.559-35.117C422.648,548.764,413.273,551.545,414.18,554.146z"/>
		</g>
		<g>
			<path fill="#1A171B" d="M320.512,552.146c4.285,2.363,5.762,10.113,6.586,14.496c1.035,5.512-3.379,12.23-7.852,15.188
				c-5.359,3.555,2.641,5.805,6.059,3.543c5.484-3.621,12.035-11.719,11.516-18.672c-0.453-6.273-2.855-16.238-8.902-19.555
				C324.785,545.416,316.223,549.791,320.512,552.146z"/>
			<path fill="#1A171B" d="M340.547,554.17c6.066,7.742,5.547,22.512-2.078,29.051c-1.617,1.391-0.855,3.344,1.035,3.852
				c2.34,0.621,4.895-0.27,6.676-1.797c9.398-8.063,10.672-25.332,3.094-34.988C347.012,547.408,337.93,550.842,340.547,554.17z"/>
			<path fill="#1A171B" d="M357.023,553.451c5.883,10.305-1.031,22-4.23,32.027c-1.086,3.395,8.43,2.109,9.465-1.156
				c3.668-11.48,10.164-22.984,3.527-34.609C364.207,546.943,355.012,549.936,357.023,553.451z"/>
			<path fill="#1A171B" d="M381.902,549.939c0.332,4.984,2.277,9.43,3.805,14.121c2.043,6.32,0.43,12.805-1.949,18.773
				c-1.965,4.922,7.523,4.547,8.984,0.887c2.359-5.918,3.742-11.648,3.332-18.051c-0.402-6.309-4.285-11.867-4.715-18.262
				C391.086,543.361,381.613,545.572,381.902,549.939z"/>
			<path fill="#1A171B" d="M400.02,554.146c3.25,9.375,9.414,23.895,2.316,32.801c-2.34,2.93,7.035,1.867,8.695-0.219
				c7.922-9.941,2.102-24.563-1.566-35.117C408.477,548.764,399.117,551.545,400.02,554.146z"/>
			<path fill="#1A171B" d="M414.18,554.146c3.254,9.375,9.414,23.895,2.32,32.801c-2.34,2.93,7.031,1.867,8.688-0.219
				c7.93-9.941,2.105-24.563-1.559-35.117C422.648,548.764,413.273,551.545,414.18,554.146z"/>
		</g>
	</g>
</g>
</svg>
