<?xml version="1.0" encoding="utf-8"?>
<!-- Generator: Adobe Illustrator 16.0.2, SVG Export Plug-In . SVG Version: 6.00 Build 0)  -->
<!DOCTYPE svg PUBLIC "-//W3C//DTD SVG 1.1//EN" "http://www.w3.org/Graphics/SVG/1.1/DTD/svg11.dtd">
<svg version="1.1" id="lay" xmlns="http://www.w3.org/2000/svg" xmlns:xlink="http://www.w3.org/1999/xlink" x="0px" y="0px"
	 width="600px" height="600px" viewBox="0 0 600 600" enable-background="new 0 0 600 600" xml:space="preserve">
<g>
	<linearGradient id="SVGID_1_" gradientUnits="userSpaceOnUse" x1="196.0596" y1="499.7549" x2="297.3843" y2="499.7549">
		<stop  offset="0.5169" style="stop-color:#00675A"/>
		<stop  offset="1" style="stop-color:#3B7E74"/>
	</linearGradient>
	<path fill="url(#SVGID_1_)" d="M292.938,515.701c-7.82-15.471-21.754-20.229-30.516-22.378c9.898-11.44,19.83-38.111,19.021-46.282
		l-5.107-3.461l-3.325-0.132l-2.122-0.082l0.132,2.105c0.574,9.909-8.674,27.032-18.354,40.075
		c-8.028-2.494-38.401-9.236-47.808-9.631c-5.874-0.229-8.641,3.068-8.794,6.448c-0.164,3.959,3.347,8.399,9.297,8.63
		c1.92,0.082,4.135-0.044,6.475-0.181c8.865-0.487,21.012-1.148,33.349,7.875c10.643,7.771,13.415,24.445,15.449,36.618
		c0.957,5.775,1.723,10.353,3.112,13.109c2.832,5.61,6.113,8.383,9.034,7.596c2.701-0.738,3.899-4.036,3.544-9.811
		c-0.58-10.09-6.968-25.217-12.601-38.571l-0.235-0.574c6.886,4.823,19.485,14.716,23.871,18.817c3.96,3.708,6.842,5.71,8.909,4.151
		C298.101,528.662,298.112,525.972,292.938,515.701z"/>
	<linearGradient id="SVGID_2_" gradientUnits="userSpaceOnUse" x1="136.0288" y1="249.2637" x2="535.7471" y2="249.2637">
		<stop  offset="0.0112" style="stop-color:#029B7F"/>
		<stop  offset="0.5" style="stop-color:#008765"/>
		<stop  offset="1" style="stop-color:#006450"/>
	</linearGradient>
	<path fill="url(#SVGID_2_)" d="M263.451,179.799c27.245-8.498,30.686,1.236,45.128-23.165
		c14.449-24.396,32.419-89.004,71.264-98.963c38.834-9.959,75.452-12.321,97.842,3.954c22.41,16.274,52.391,34.798,48.146,92.269
		c-4.232,57.471-3.254,80.571,5.097,111.661s7.351,56.028-15.083,87.791c-22.422,31.751-61.337,91.667-147.82,92.022
		c-86.494,0.345-100.625,17.067-156.477-27.464c-55.853-44.527-75.519-175.991-75.519-175.991L263.451,179.799z"/>
	<linearGradient id="SVGID_3_" gradientUnits="userSpaceOnUse" x1="390.7119" y1="122.8057" x2="871.4658" y2="61.1705">
		<stop  offset="0" style="stop-color:#3B7E74"/>
		<stop  offset="0.5169" style="stop-color:#00675A"/>
		<stop  offset="1" style="stop-color:#00463A"/>
	</linearGradient>
	<path fill="url(#SVGID_3_)" d="M514.505,101.552c9.828-5.375,43.674-34.748,46.528-57.695c2.894,23.183,15.8,37.16-18.769,83.793
		l23.783,29.788l-40.217-3.544C528.45,136.701,523.233,123.034,514.505,101.552z"/>
	<linearGradient id="SVGID_4_" gradientUnits="userSpaceOnUse" x1="459.9053" y1="452.8252" x2="586.0527" y2="452.8252">
		<stop  offset="0" style="stop-color:#00463A"/>
		<stop  offset="0.5169" style="stop-color:#00675A"/>
		<stop  offset="1" style="stop-color:#3B7E74"/>
	</linearGradient>
	<path fill="url(#SVGID_4_)" d="M576.789,446.123c-1.903-0.071-5.054-0.328-9.062-0.641c-13.918-1.082-36.8-2.871-48.754-0.722
		c-6.24-13.683-44.139-43.728-49.307-47.49l-1.662-1.203l-1.105,1.739l-5.469,8.744l-1.525,2.455l2.838,0.465
		c8.98,1.493,36.729,37.707,38.861,45.102c1.553,5.402-1.471,17.368-4.156,27.891c-0.896,3.555-1.826,7.219-2.581,10.598
		c-1.718,7.662,0.24,13.398,2.789,15.472c1.329,1.088,2.92,1.345,4.314,0.705c1.739-0.787,3.872-3.199,4.162-10.248
		c0.503-12.507,10.259-31.21,13.234-36.663c9.937,5.185,32.243,19.939,37.92,24.861c4.238,3.691,8.882,4.846,11.276,2.822
		c1.198-1.001,2.691-3.479-0.547-8.794c-4.178-6.858-14-15.11-27.327-23.084l34.612-1.837c8.914-0.525,10.768-3.117,10.751-5.18
		C586.021,448.321,582.395,446.353,576.789,446.123z"/>
	<path d="M445.337,101.312c-1.438,1.849-2.133,5.037-5.289,3.954c-3.16-1.1-2.056-4.562-0.355-7.061
		c1.701-2.493,10.112-11.889,17.134-12.118c8.985-0.279,16.472,4.84,19.513,8.793c3.041,3.971-0.421,7.81-2.756,5.021
		c-3.063-3.658-7.372-7.989-16.023-8.017C452.752,91.862,447.037,99.146,445.337,101.312z"/>
	<linearGradient id="SVGID_5_" gradientUnits="userSpaceOnUse" x1="13.9473" y1="281.6143" x2="369.2061" y2="281.6143">
		<stop  offset="0" style="stop-color:#3B7E74"/>
		<stop  offset="0.5169" style="stop-color:#00675A"/>
		<stop  offset="1" style="stop-color:#00463A"/>
	</linearGradient>
	<path fill="url(#SVGID_5_)" d="M369.206,293.955c-11.55,41.492,9.253,60.063-74.447,71.023
		c-71.952,9.45-137.14,7.612-261.138-72.253c-40.901-26.316-12.59-54.792,35.186-15.844c-21.284-23.072-22.553-52.734,48.005-27.683
		c-41.081-21.394-34.804-51.865-0.263-54.305c44.537-3.117,95.977,6.35,161.607,31.216"/>
</g>
</svg>
