<?xml version="1.0" encoding="utf-8"?>
<!-- Generator: Adobe Illustrator 16.0.2, SVG Export Plug-In . SVG Version: 6.00 Build 0)  -->
<!DOCTYPE svg PUBLIC "-//W3C//DTD SVG 1.1//EN" "http://www.w3.org/Graphics/SVG/1.1/DTD/svg11.dtd">
<svg version="1.1" id="lay" xmlns="http://www.w3.org/2000/svg" xmlns:xlink="http://www.w3.org/1999/xlink" x="0px" y="0px"
	 width="600px" height="600px" viewBox="0 0 600 600" enable-background="new 0 0 600 600" xml:space="preserve">
<g>
	<linearGradient id="SVGID_1_" gradientUnits="userSpaceOnUse" x1="206.4365" y1="496.2334" x2="336.0635" y2="496.2334">
		<stop  offset="0" style="stop-color:#64831B"/>
		<stop  offset="0.5" style="stop-color:#85A91E"/>
		<stop  offset="1" style="stop-color:#A8BD5C"/>
	</linearGradient>
	<path fill="url(#SVGID_1_)" d="M330.041,510.254c-10.012-13.608-27.264-18.116-38.419-20.204
		c12.449-10.631,23.966-33.342,22.785-40.79l-6.238-3.404l-4.262-0.164l-2.461-0.106l0.25,2.452
		c0.865,8.536-11.07,23.888-22.813,34.921c-9.102-2.182-49.358-8.925-61.618-9.417c-6.624-0.274-9.13,2.096-10.032,3.523
		c-1.013,1.607-1.066,3.56-0.114,5.36c1.636,3.117,5.849,5.192,11.004,5.406c2.396,0.094,5.205,0.017,8.175-0.065
		c11.472-0.296,27.177-0.71,43.337,7.645c13.683,7.071,17.456,21.829,20.213,32.596c1.349,5.246,2.399,9.396,4.298,11.973
		c3.941,5.348,8.479,7.866,11.836,6.566c1.92-0.738,4.078-2.9,3.451-9.007c-0.924-9.118-9.229-22.588-16.625-34.556
		c8.876,4.389,25.5,13.58,31.205,17.32c6.414,4.221,9.463,5.082,11.227,3.229C337.158,521.496,335.85,518.149,330.041,510.254z"/>
	<linearGradient id="SVGID_2_" gradientUnits="userSpaceOnUse" x1="460.1914" y1="417.8213" x2="579.1396" y2="417.8213">
		<stop  offset="0" style="stop-color:#64831B"/>
		<stop  offset="0.5" style="stop-color:#85A91E"/>
		<stop  offset="1" style="stop-color:#A8BD5C"/>
	</linearGradient>
	<path fill="url(#SVGID_2_)" d="M578.621,386.596c-0.988-3.617-3.068-4.564-4.234-4.807c-2.369-0.505-4.908,0.886-7.551,4.135
		c-6.496,7.948-18.584,22.788-25.754,25.327c-3.863,1.357-8.686,1.488-10.766,1.054c0.471-0.427,1.309-1.033,2.744-1.85
		c12.025-6.87,27.623-23.994,28.014-33.478c0.064-1.645,0.262-6.681-3.166-7.378c-3.832-0.788-6.793,5.368-8.195,9.101
		c-3.191,8.413-19.27,25.106-26.447,26c-7.719,0.977-46.076-11.406-53.838-14.88l-8.699,1.636l-0.459,11.374l-0.078,1.895
		l1.863,0.313c15.52,2.575,46.836,8.69,54.238,13.33c4.605,2.883-0.295,12.838-3.881,20.122c-3.01,6.144-4.699,9.758-4.146,12.419
		c0.275,1.28,0.373,2.945,0.473,4.521c0.262,3.962,0.533,8.056,3.273,9.872c1.5,0.98,3.404,1.07,5.66,0.279
		c6.184-2.194,6.029-6.202,5.881-10.094c-0.082-1.994-0.172-4.262,0.402-6.969c0.549-2.679,0.504-6.214,0.459-9.955
		c-0.078-5.569-0.172-12.501,2.227-14.564c0.25-0.222,1.047-0.882,3.072-0.554c22.502,3.749,35.344-10.549,42.246-18.228
		c1.238-1.378,2.305-2.559,3.154-3.347C578.801,398.475,579.916,391.227,578.621,386.596z"/>
	<linearGradient id="SVGID_3_" gradientUnits="userSpaceOnUse" x1="20.8608" y1="255.0332" x2="526.2559" y2="255.0332">
		<stop  offset="0" style="stop-color:#9AC067"/>
		<stop  offset="0.5" style="stop-color:#699427"/>
		<stop  offset="1" style="stop-color:#4F7A21"/>
	</linearGradient>
	<path fill="url(#SVGID_3_)" d="M109.861,292.481l-67.868-13.438l-21.132,99.628l121.078-33.592
		c27.896,50.302,106.928,104.795,158.234,104.729c51.315-0.065,124.129-3.536,162.225-46.877
		c38.104-43.361,79.25-56.663,52.406-186.002c-11.928-57.554,21.885-65.392,8.076-93.746
		c-13.822-28.342-44.199-70.193-102.252-61.847c-58.055,8.338-107.055,4.22-109.758,123.83
		c-1.445,64.104-48.013,77.15-67.393,80.641C224.098,269.303,149.051,274.824,109.861,292.481z"/>
	<linearGradient id="SVGID_4_" gradientUnits="userSpaceOnUse" x1="97.7808" y1="265.9468" x2="405.5098" y2="265.9468">
		<stop  offset="0.0112" style="stop-color:#A8BD5C"/>
		<stop  offset="0.5" style="stop-color:#85A91E"/>
		<stop  offset="1" style="stop-color:#64831B"/>
	</linearGradient>
	<path fill="url(#SVGID_4_)" d="M405.51,276.633c-10.008,35.946,8.023,52.024-64.484,61.528
		c-62.32,8.183-118.786,6.591-226.202-62.591c-35.429-22.797-10.91-47.459,30.475-13.724c-18.428-19.983-19.531-45.68,41.586-23.974
		c-35.589-18.539-30.143-44.933-0.229-47.045c38.592-2.711,83.146,5.5,139.998,27.033"/>
	<linearGradient id="SVGID_5_" gradientUnits="userSpaceOnUse" x1="511.9531" y1="116.0811" x2="573.2324" y2="116.0811">
		<stop  offset="0.0112" style="stop-color:#A8BD5C"/>
		<stop  offset="0.5" style="stop-color:#85A91E"/>
		<stop  offset="1" style="stop-color:#64831B"/>
	</linearGradient>
	<path fill="url(#SVGID_5_)" d="M511.953,109.634c11.656-4.422,53.42-31.664,60.039-56.516
		c-0.32,25.975,11.771,43.333-33.387,89.492l21.686,36.434l-43.768-10.004C522.002,150.493,518.328,134.645,511.953,109.634z"/>
	<path d="M424.877,131.314c-1.596,2.051-2.361,5.603-5.881,4.389c-3.512-1.206-2.289-5.074-0.395-7.851
		c1.895-2.772,11.238-13.235,19.064-13.474c9.992-0.308,18.318,5.377,21.705,9.782c3.371,4.417-0.475,8.688-3.072,5.57
		c-3.4-4.053-8.199-8.876-17.813-8.905C433.129,120.806,426.756,128.902,424.877,131.314z"/>
</g>
</svg>
