<?xml version="1.0" encoding="utf-8"?>
<!-- Generator: Adobe Illustrator 16.0.2, SVG Export Plug-In . SVG Version: 6.00 Build 0)  -->
<!DOCTYPE svg PUBLIC "-//W3C//DTD SVG 1.1//EN" "http://www.w3.org/Graphics/SVG/1.1/DTD/svg11.dtd">
<svg version="1.1" id="lay" xmlns="http://www.w3.org/2000/svg" xmlns:xlink="http://www.w3.org/1999/xlink" x="0px" y="0px"
	 width="600px" height="600px" viewBox="0 0 600 600" enable-background="new 0 0 600 600" xml:space="preserve">
<g>
	<path fill="#F5A700" d="M484.977,138.359c-3.758,6.82,8.242,50.594,12.773,56.523c4.539,5.938,50.055,9.852,59.102,10.125
		c9.031,0.281,0.547-6.508-8.5-18.367c-9.063-11.859-24.188-8.875-16.281-30.375c7.883-21.492,17.625-38.039,21.43-50.047
		c3.805-12.031-1.289-23.055-11.883-14.141C531.023,101,497.813,115.031,484.977,138.359z"/>
	
		<linearGradient id="SVGID_1_" gradientUnits="userSpaceOnUse" x1="159.9829" y1="518.373" x2="159.9829" y2="409.1953" gradientTransform="matrix(0.9885 -0.1514 0.1514 0.9885 -45.0938 46.8374)">
		<stop  offset="0" style="stop-color:#A09B18"/>
		<stop  offset="1" style="stop-color:#777416"/>
	</linearGradient>
	<path fill="url(#SVGID_1_)" d="M236.742,422.297c0.359,8.445-19.234,37.297-35.508,44.844
		c12.867,3.672,35.297,10.516,45.867,28.938c10.563,18.43,2.883,13.875-4.563,7.688c-7.422-6.195-37.664-27.672-40.938-28.172
		c7.547,16.273,17.859,36.352,17.711,48.078c-0.141,11.719-8.086,8.805-13.367-0.406c-5.289-9.211-0.445-40.352-23.25-55.656
		c-22.805-15.281-46.523-13.93-59.625-15.977c-13.117-2.031-14.617-14.016,0.125-11.727c14.758,2.297,64.563,16.742,70.859,19.398
		c15.148-11.078,32.961-28.453,33.102-40.188l4.922,0.773"/>
	
		<linearGradient id="SVGID_2_" gradientUnits="userSpaceOnUse" x1="494.2588" y1="499.2061" x2="494.2588" y2="366.4629" gradientTransform="matrix(0.9885 -0.1514 0.1514 0.9885 -45.0938 46.8374)">
		<stop  offset="0" style="stop-color:#A09B18"/>
		<stop  offset="1" style="stop-color:#777416"/>
	</linearGradient>
	<path fill="url(#SVGID_2_)" d="M430.625,373.969c10.633,2.93,69.438,12.828,81.43,9.422c11.984-3.414,31.398-32.367,34.094-45.039
		c2.711-12.664,8.359-17.414,9.734-5.203c1.359,12.211-16.258,38.906-31.391,50.906c-15.141,12,5.203,9.727,14.938,4.5
		c9.711-5.203,21.906-25.109,32.297-42.766c10.375-17.656,17.422,8.352,10.188,17.406c-7.227,9.047-20.492,39.883-57.406,39.406
		c-16.516-0.203-5.18,27.375-5.844,39.805c-0.664,12.445,6.125,17.867-3.602,23.07c-9.719,5.227-9.281-9.25-12.227-17.164
		c-2.938-7.922,17.828-43.219,2.664-49.758c-15.148-6.547-81.195-7.391-81.195-7.391l-1.82-16.297"/>
	
		<linearGradient id="SVGID_3_" gradientUnits="userSpaceOnUse" x1="10.1211" y1="270.3232" x2="524.1338" y2="270.3232" gradientTransform="matrix(0.9885 -0.1514 0.1514 0.9885 -45.0938 46.8374)">
		<stop  offset="0" style="stop-color:#FFEBA8"/>
		<stop  offset="0.5" style="stop-color:#FFCB00"/>
		<stop  offset="1" style="stop-color:#F7AF00"/>
	</linearGradient>
	<path fill="url(#SVGID_3_)" d="M31.438,343.734c-8.375,15-36.711,40.18,9.352,37.602c46.078-2.602,54.547-19,82.563,1.055
		c28,20.039,48.656,43.477,115.109,61.805c66.453,18.313,112.758,9.531,167.617-21.375
		c79.969-45.023,127.148-83.789,107.836-187.242c-19.328-103.453-44.195-157.086-98.266-164.156
		c-51.336-6.711-114.211-7.805-141,75.047c-26.773,82.859-125.953,140.344-161.859,141.781
		c-35.891,1.453-63.617-16.047-74.914-1.906C26.578,300.492,42.148,324.508,31.438,343.734z"/>
	
		<linearGradient id="SVGID_4_" gradientUnits="userSpaceOnUse" x1="83.6519" y1="219.415" x2="337.9277" y2="219.415" gradientTransform="matrix(0.9885 -0.1514 0.1514 0.9885 -45.0938 46.8374)">
		<stop  offset="0" style="stop-color:#FFF6AD"/>
		<stop  offset="0.5" style="stop-color:#FFEC00"/>
		<stop  offset="1" style="stop-color:#FFD700"/>
	</linearGradient>
	<path fill="url(#SVGID_4_)" d="M250.242,342.406c-48.906-0.781-85.398-26.492-111.438-51.914
		c-26.031-25.414-49.5-27.938-61.375-42.055c-11.898-14.141-27.617-51.016,43.219-28.031c17.219,5.586,25.727-0.313,5.063-23.758
		c-20.656-23.438-13.047-47.484,22.594-28.297c35.641,19.195,54.297,24.836,33.078-3.695
		c-21.234-28.531-20.984-72.352,26.531-39.047c47.531,33.32,89.961,67.203,108.656,96.016
		C335.242,250.453,350.891,344.008,250.242,342.406z"/>
	<path fill="#76561A" d="M395.836,138.766c2.789-12.383,16.336-15.031,26.07-8.711c3,0.945,6.258-0.797,7.141-3.773
		c0.938-3.086-0.711-6.297-3.789-7.234c-14.602-8.18-34.664-2.547-39.703,14.281l0,0c-1.453,2.813-0.336,6.313,2.414,7.844
		C390.789,142.641,394.289,141.523,395.836,138.766L395.836,138.766z"/>
</g>
</svg>
