<?xml version="1.0" encoding="utf-8"?>
<!-- Generator: Adobe Illustrator 16.0.2, SVG Export Plug-In . SVG Version: 6.00 Build 0)  -->
<!DOCTYPE svg PUBLIC "-//W3C//DTD SVG 1.1//EN" "http://www.w3.org/Graphics/SVG/1.1/DTD/svg11.dtd">
<svg version="1.1" id="lay" xmlns="http://www.w3.org/2000/svg" xmlns:xlink="http://www.w3.org/1999/xlink" x="0px" y="0px"
	 width="600px" height="600px" viewBox="0 0 600 600" enable-background="new 0 0 600 600" xml:space="preserve">
<g>
	
		<linearGradient id="SVGID_1_" gradientUnits="userSpaceOnUse" x1="184.4497" y1="458.9258" x2="184.4497" y2="356.5742" gradientTransform="matrix(0.9873 -0.1586 0.1586 0.9873 -29.5771 105.9448)">
		<stop  offset="0" style="stop-color:#A09B18"/>
		<stop  offset="1" style="stop-color:#777416"/>
	</linearGradient>
	<path fill="url(#SVGID_1_)" d="M266.938,423.789c0.391,7.922-17.781,35.102-32.984,42.289c12.07,3.359,33.156,9.609,43.195,26.828
		c10.023,17.188,2.797,12.984-4.219,7.242c-7.008-5.766-35.5-25.695-38.578-26.148c7.18,15.219,16.992,33.945,16.938,44.938
		c-0.055,11.008-7.531,8.328-12.539-0.273c-5.016-8.602-0.695-37.836-22.18-52.023c-21.484-14.18-43.703-12.742-56.008-14.57
		c-12.313-1.805-13.797-13.039,0.047-10.992s60.633,15.258,66.563,17.711c14.125-10.492,30.703-26.906,30.75-37.898l4.617,0.688"/>
	
		<linearGradient id="SVGID_2_" gradientUnits="userSpaceOnUse" x1="497.8574" y1="440.9609" x2="497.8574" y2="316.4951" gradientTransform="matrix(0.9873 -0.1586 0.1586 0.9873 -29.5771 105.9448)">
		<stop  offset="0" style="stop-color:#A09B18"/>
		<stop  offset="1" style="stop-color:#777416"/>
	</linearGradient>
	<path fill="url(#SVGID_2_)" d="M448.359,377.164c9.984,2.68,65.195,11.547,76.406,8.281c11.203-3.281,29.211-30.563,31.664-42.461
		c2.453-11.906,7.711-16.383,9.078-4.961c1.359,11.445-14.961,36.602-29.086,47.953c-14.109,11.359,4.961,9.078,14.031,4.133
		c9.086-4.953,20.383-23.711,30-40.328c9.609-16.617,16.375,7.711,9.664,16.25s-18.93,37.523-53.539,37.344
		c-15.492-0.102-4.672,25.68-5.219,37.344c-0.531,11.672,5.875,16.719-3.211,21.664c-9.063,4.945-8.758-8.625-11.586-16.023
		c-2.805-7.391,16.422-40.633,2.172-46.672c-14.266-6.008-76.18-6.359-76.18-6.359l-1.82-15.25"/>
	
		<linearGradient id="SVGID_3_" gradientUnits="userSpaceOnUse" x1="1.8657" y1="220.1216" x2="547.7998" y2="220.1216" gradientTransform="matrix(0.9873 -0.1586 0.1586 0.9873 -29.5771 105.9448)">
		<stop  offset="0.0112" style="stop-color:#F9E69D"/>
		<stop  offset="1" style="stop-color:#EFCB00"/>
	</linearGradient>
	<path fill="url(#SVGID_3_)" d="M57.859,252.563c11.406-12.578,58.305,27.781,91.961,26.172
		c33.648-1.594,154.523-24.188,179.055-102.047c24.531-77.867,57.219-87.508,105.734-86.055
		c48.531,1.461,119.375,53.242,104.117,150.711c-4.633,29.57-28.492,46.969-29.695,62.453
		c-4.617,59.266-24.016,73.938-83.203,107.844c-51.219,29.344-95.32,24.445-137.828,14.656
		c-67.547-15.57-86.719-30.023-105.836-45.883c-24.852-20.602-21.664-71.68-140.148-32.906c-11.633,3.805-44.453-7.977-29.352-23.07
		c15.117-15.117,21.078-15.82,36.617-27.344C63.188,286.781,45.578,266.109,57.859,252.563z"/>
	
		<linearGradient id="SVGID_4_" gradientUnits="userSpaceOnUse" x1="122.9995" y1="213.4131" x2="363.583" y2="213.4131" gradientTransform="matrix(0.9873 -0.1586 0.1586 0.9873 -29.5771 105.9448)">
		<stop  offset="0" style="stop-color:#FFEBA8"/>
		<stop  offset="0.5" style="stop-color:#FFCB00"/>
		<stop  offset="1" style="stop-color:#F7AF00"/>
	</linearGradient>
	<path fill="url(#SVGID_4_)" d="M302.836,345.664c-45.656,4.25-87.664-4.258-114.508-25.305
		c-26.852-21.023-45.406-32.781-57.914-44.742c-12.516-11.945-28.742-46.68,36.398-21.563c16.148,6.227,30.734,12.313,9.078-7.438
		c-21.641-19.742-13.633-31.32,21.531-17.07c35.164,14.258,65.672,21.656,37.602,3.656c-33.375-21.391-21.242-39.281,31.391-25.5
		c30.883,8.102,60.852,9.508,81.195,34.469C367.953,267.125,396.797,336.906,302.836,345.664z"/>
	<path fill="#76561A" d="M388.859,162.844c7.883-3.781,16.391-8.422,25.047-4.641c5.797,2.531,9.445,7.922,12.617,13.164
		c-0.102,0-0.281-0.023-0.391-0.008c0.477,2.945,3.25,4.93,6.203,4.469c2.945-0.469,4.93-3.266,4.461-6.203
		c-1.813-8.109-8.109-14.328-14.688-19.086c-11.578-8.32-27.18-4.242-38.188,3.25c0.039-0.18,0.125-0.406,0.164-0.578
		c-2.68,1.281-3.766,4.523-2.43,7.188C382.938,163.086,386.188,164.18,388.859,162.844L388.859,162.844z"/>
	<path fill="#F5A700" d="M317.242,200.734c6.625-5.328,19.805-46.789,19.805-46.789s-28.875-29.18-44.813-33.625l16.445,54.234
		l-34.031,18.57C274.648,193.125,301.953,201.656,317.242,200.734z"/>
</g>
</svg>
