<?xml version="1.0" encoding="UTF-8" standalone="no"?>
<!-- Generator: Adobe Illustrator 16.0.2, SVG Export Plug-In . SVG Version: 6.00 Build 0)  -->

<svg
   xmlns:dc="http://purl.org/dc/elements/1.1/"
   xmlns:cc="http://creativecommons.org/ns#"
   xmlns:rdf="http://www.w3.org/1999/02/22-rdf-syntax-ns#"
   xmlns:svg="http://www.w3.org/2000/svg"
   xmlns="http://www.w3.org/2000/svg"
   xmlns:sodipodi="http://sodipodi.sourceforge.net/DTD/sodipodi-0.dtd"
   xmlns:inkscape="http://www.inkscape.org/namespaces/inkscape"
   version="1.1"
   id="lay"
   x="0px"
   y="0px"
   width="143px"
   height="59px"
   viewBox="0 0 143 59"
   enable-background="new 0 0 143 59"
   xml:space="preserve"
   inkscape:version="0.48.3.1 r9886"
   sodipodi:docname="cf.svg"><metadata
   id="metadata93"><rdf:RDF><cc:Work
       rdf:about=""><dc:format>image/svg+xml</dc:format><dc:type
         rdf:resource="http://purl.org/dc/dcmitype/StillImage" /><dc:title /></cc:Work></rdf:RDF></metadata><defs
   id="defs91">
	
	
	
	
	
	
	
	
	
	
	
	
	
	
	
	
	
	
	
	
	
	
	
	
	
</defs><sodipodi:namedview
   pagecolor="#ffffff"
   bordercolor="#666666"
   borderopacity="1"
   objecttolerance="10"
   gridtolerance="10"
   guidetolerance="10"
   inkscape:pageopacity="0"
   inkscape:pageshadow="2"
   inkscape:window-width="1231"
   inkscape:window-height="744"
   id="namedview89"
   showgrid="false"
   inkscape:zoom="7.4545455"
   inkscape:cx="71.5"
   inkscape:cy="29.5"
   inkscape:window-x="49"
   inkscape:window-y="24"
   inkscape:window-maximized="1"
   inkscape:current-layer="lay"
   showguides="true"
   inkscape:guide-bbox="true" />




<text
   xml:space="preserve"
   style="font-size:56px;font-style:normal;font-variant:normal;font-weight:bold;font-stretch:normal;text-align:start;line-height:100%;letter-spacing:0px;word-spacing:0px;writing-mode:lr-tb;text-anchor:start;fill:#000000;fill-opacity:1;stroke:none;font-family:Berlin Sans FB Demi;-inkscape-font-specification:Berlin Sans FB Demi Bold"
   x="3.6931818"
   y="29.738636"
   id="text3042"
   sodipodi:linespacing="100%"><tspan
     sodipodi:role="line"
     id="tspan3044"
     x="3.6931818"
     y="29.738636" /></text>


<text
   xml:space="preserve"
   style="font-size:56px;font-style:normal;font-variant:normal;font-weight:bold;font-stretch:normal;text-align:start;line-height:100%;letter-spacing:0px;word-spacing:0px;writing-mode:lr-tb;text-anchor:start;fill:#000000;fill-opacity:1;stroke:none;font-family:Berlin Sans FB Demi;-inkscape-font-specification:Berlin Sans FB Demi Bold"
   x="6.534091"
   y="28.602274"
   id="text3046"
   sodipodi:linespacing="100%"><tspan
     sodipodi:role="line"
     id="tspan3048"
     x="6.534091"
     y="28.602274" /></text>


<g
   id="g3677"
   transform="matrix(1.0344265,0,0,1.0015372,0.18239291,0.38358303)"><g
     id="text4066"
     style="font-size:56px;font-style:normal;font-variant:normal;font-weight:bold;font-stretch:normal;text-align:start;line-height:100%;letter-spacing:0px;word-spacing:0px;writing-mode:lr-tb;text-anchor:start;fill:#3d8e8e;fill-opacity:1;stroke:none;font-family:Berlin Sans FB Demi;-inkscape-font-specification:Berlin Sans FB Demi Bold"><path
       id="path4126"
       d="m 19.274772,23.119377 c -2e-5,0.437517 -0.236999,0.656267 -0.710938,0.65625 -1.968766,1.7e-5 -3.518244,-0.05467 -4.648437,-0.164062 0.05467,1.367203 0.109361,3.272149 0.164062,5.714843 0.01821,1.039073 0.100246,2.843759 0.246094,5.414063 0.12759,2.315108 0.191392,4.119793 0.191406,5.414062 -1.4e-5,0.382813 -0.255222,0.601563 -0.765625,0.65625 -0.619805,0.07292 -2.169282,0.109375 -4.6484375,0.109375 -2.0599027,0 -3.3997451,-0.05469 -4.0195312,-0.164062 -0.619796,-0.109375 -0.9296916,-0.483073 -0.9296875,-1.121094 l 0,-15.066406 c -4.1e-6,-0.528629 -0.364587,-0.792952 -1.09375,-0.792969 -0.127607,1.7e-5 -0.3372422,0.0091 -0.6289063,0.02734 -0.2734395,0.01825 -0.4739601,0.02736 -0.6015625,0.02734 -0.5104178,1.7e-5 -0.7747405,-0.145817 -0.7929687,-0.4375 C 0.87242702,21.806896 0.79039586,19.500909 0.79039651,16.474846 0.79039586,15.800392 1.1367497,15.390236 1.829459,15.244377 2.4492484,15.189715 3.078154,15.144142 3.7161778,15.107658 3.6250284,13.649352 3.5794556,12.51003 3.579459,11.68969 3.5794556,8.5543052 4.190132,6.2756616 5.4114903,4.8537521 7.8359617,2.02827 11.755229,0.61551103 17.169303,0.61547089 c 0.364566,4.014e-5 0.583315,0.10941503 0.65625,0.328125 0.145815,0.82035151 0.35545,2.03258981 0.628906,3.63671871 0.01821,0.1458694 0.1367,0.6562856 0.355469,1.53125 0.164043,0.6745132 0.246075,1.1940439 0.246094,1.5585938 -1.9e-5,0.4375326 -0.647154,0.7200844 -1.941407,0.8476562 -1.494807,0.1640946 -2.415379,0.4375318 -2.761718,0.8203125 -0.601577,0.6562808 -0.902358,1.9414359 -0.902344,3.8554689 -1.4e-5,0.601589 0.04556,1.166693 0.136719,1.695312 0.510402,2.6e-5 1.30337,-0.0182 2.378906,-0.05469 1.075504,-0.03643 1.886701,-0.05466 2.433594,-0.05469 0.546856,2.6e-5 0.820293,0.200547 0.820312,0.601563 -1.9e-5,0.856795 0.0091,2.151065 0.02734,3.882812 0.01821,1.713562 0.02732,2.998717 0.02734,3.855469"
       inkscape:connector-curvature="0" /><path
       id="path4128"
       d="m 40.384147,23.72094 c -2.1e-5,0.710953 -0.391948,1.066422 -1.175782,1.066406 -0.346373,1.6e-5 -0.856789,-0.01821 -1.53125,-0.05469 -0.656267,-0.05467 -1.148454,-0.08202 -1.476562,-0.08203 -1.513036,1.6e-5 -2.542983,0.236995 -3.089844,0.710938 -0.546888,0.473973 -0.820325,1.431003 -0.820312,2.871093 -1.3e-5,0.783866 0.0091,1.977876 0.02734,3.582032 0.03645,1.585944 0.05467,2.770839 0.05469,3.554687 -1.3e-5,0.528651 0.03645,1.321619 0.109375,2.378906 0.0729,1.039065 0.109362,1.813804 0.109375,2.324219 -1.3e-5,0.4375 -0.300794,0.683594 -0.902344,0.738281 -0.875011,0.07292 -2.214853,0.109375 -4.019531,0.109375 -1.731777,0 -3.117192,-0.05469 -4.15625,-0.164062 -0.601566,-0.07292 -0.902347,-0.373698 -0.902344,-0.902344 -3e-6,-1.458331 0.0091,-3.636714 0.02734,-6.535156 0.01823,-2.916656 0.02734,-5.104154 0.02734,-6.5625 -3e-6,-4.283836 -0.39193,-7.811176 -1.175782,-10.582031 -0.03646,-0.164038 -0.05469,-0.300757 -0.05469,-0.410157 -2e-6,-0.273412 0.136717,-0.455703 0.410156,-0.546875 1.002601,-0.109349 2.470048,-0.30987 4.402344,-0.601562 2.880199,-0.565078 4.365874,-0.847629 4.457031,-0.847656 0.328114,2.7e-5 0.537749,0.574245 0.628906,1.722656 0.09113,1.148462 0.255197,1.72268 0.492188,1.722656 -0.25522,2.4e-5 0.492175,-0.473934 2.242187,-1.421875 1.749984,-0.96612 3.436181,-1.449192 5.058594,-1.449219 1.020813,2.7e-5 1.531229,0.218777 1.53125,0.65625 -2.1e-5,0.528671 -0.05471,1.276067 -0.164062,2.242188 -0.109396,1.039085 -0.173198,1.78648 -0.191407,2.242187 -2e-5,0.528667 0.0091,1.230489 0.02734,2.105469 0.03644,1.075539 0.05467,1.786476 0.05469,2.132813"
       inkscape:connector-curvature="0" /><path
       id="path4130"
       d="m 71.720084,15.900627 c -3e-5,1.348982 -0.06383,3.372417 -0.191406,6.070313 -0.127635,2.697932 -0.191437,4.721368 -0.191406,6.070312 -3.1e-5,1.312512 0.04554,3.28126 0.136718,5.90625 0.09112,2.625004 0.136689,4.584638 0.136719,5.878906 -3e-5,0.492188 -0.227895,0.802084 -0.683594,0.929688 -0.692737,0.182291 -2.160183,0.273437 -4.402343,0.273437 -1.987003,0 -3.372418,-0.05469 -4.15625,-0.164062 -0.346375,-0.05469 -0.565125,-0.273437 -0.65625,-0.65625 -0.05471,-0.546874 -0.109396,-1.093748 -0.164063,-1.640625 -0.09117,-0.838539 -0.21877,-1.257809 -0.382812,-1.257813 0.255188,4e-6 -0.665384,0.619795 -2.761719,1.859375 -2.096369,1.239584 -4.001315,1.859375 -5.714844,1.859375 -4.830736,0 -7.692712,-2.178383 -8.585937,-6.535156 -0.401045,-2.023429 -0.601565,-4.958322 -0.601563,-8.804687 -2e-6,-4.156231 0.337237,-7.437478 1.011719,-9.84375 0.200517,-0.747371 0.574215,-1.121068 1.121094,-1.121094 0.838536,2.6e-5 2.114576,0.0091 3.828125,0.02734 1.713531,0.01825 2.989572,0.02737 3.828125,0.02734 0.565091,2.6e-5 0.847643,0.237005 0.847656,0.710938 -1.3e-5,0.127629 -0.01824,0.319035 -0.05469,0.574219 -0.382825,2.479189 -0.574231,4.994811 -0.574218,7.546875 -1.3e-5,3.171889 0.100248,5.341157 0.300781,6.507812 0.328112,2.005217 1.522121,3.00782 3.582031,3.007813 0.802066,7e-6 1.667951,-0.355461 2.597656,-1.066407 0.947897,-0.710928 1.440084,-1.449208 1.476563,-2.214843 0.03644,-0.674468 0.05467,-5.249984 0.05469,-13.726563 -2e-5,-0.601537 0.04555,-0.957006 0.136719,-1.066406 0.109355,-0.182266 0.437479,-0.273412 0.984375,-0.273438 0.893207,2.6e-5 2.233049,0.0091 4.019531,0.02734 1.804661,0.01825 3.153618,0.02737 4.046875,0.02734 0.546845,2.6e-5 0.865855,0.136744 0.957032,0.410156 0.03643,0.145859 0.05466,0.364609 0.05469,0.65625"
       inkscape:connector-curvature="0" /><path
       id="path4132"
       d="m 103.52087,33.646721 c -3e-5,5.195314 -1.09378,8.923175 -3.28125,11.183594 -2.260445,2.315097 -6.01565,3.472648 -11.26563,3.472656 -1.531263,-8e-6 -3.618501,-0.246101 -6.261718,-0.738281 -3.372402,-0.619798 -5.058598,-1.348964 -5.058594,-2.1875 -4e-6,-0.346359 0.391923,-2.132815 1.175781,-5.359375 0.127599,-0.510416 0.32812,-0.765624 0.601563,-0.765625 0.09114,0.01823 0.1914,0.05469 0.300781,0.109375 2.807283,1.385416 5.404937,2.078124 7.792969,2.078125 1.312485,-10e-7 2.615869,-0.328126 3.910156,-0.984375 1.567689,-0.783853 2.351542,-1.768227 2.351562,-2.953125 l 0,-1.832032 c -1.859393,1.750004 -4.247411,2.625003 -7.164062,2.625 -3.427093,3e-6 -6.243496,-1.230465 -8.449219,-3.691406 -2.132815,-2.369783 -3.19922,-5.286447 -3.199219,-8.75 -10e-7,-3.481752 1.020832,-6.371072 3.0625,-8.667969 2.132807,-2.387994 4.921866,-3.582004 8.367188,-3.582031 2.752589,2.7e-5 4.858055,0.984401 6.316406,2.953125 0.291648,0.401066 0.492168,0.601586 0.601563,0.601563 0.164042,2.3e-5 0.246074,-0.328101 0.246093,-0.984375 -1.9e-5,-1.458308 0.164043,-2.187474 0.492188,-2.1875 0.291646,2.6e-5 1.868467,0.154974 4.730469,0.464843 2.861953,0.291693 4.347623,0.455755 4.457033,0.492188 0.30986,0.109401 0.46481,0.34638 0.46484,0.710937 -3e-5,1.257837 -0.0456,3.135439 -0.13672,5.632813 -0.0729,2.497413 -0.1094,4.375015 -0.10937,5.632812 -3e-5,0.747409 0.009,1.868502 0.0273,3.363282 0.0182,1.4948 0.0273,2.615893 0.0273,3.363281 m -9.460942,-7.574219 c -2e-5,-1.330713 -0.446634,-2.479149 -1.339844,-3.445312 -0.875018,-0.984356 -1.977881,-1.476543 -3.308594,-1.476563 -1.330743,2e-5 -2.442721,0.501321 -3.335937,1.503906 -0.875011,0.984393 -1.312511,2.141943 -1.3125,3.472657 -1.1e-5,1.330742 0.446603,2.479178 1.339844,3.445312 0.911445,0.966156 2.014308,1.449229 3.308593,1.449219 1.330713,10e-6 2.433576,-0.492177 3.308594,-1.476563 0.89321,-0.984362 1.339824,-2.141913 1.339844,-3.472656"
       inkscape:connector-curvature="0" /><path
       id="path4134"
       d="m 135.70446,27.084221 c -3e-5,1.403658 0.082,3.490895 0.24609,6.261719 0.16404,2.770838 0.24607,4.848961 0.2461,6.234375 -3e-5,0.729167 -0.31904,1.121093 -0.95703,1.175781 -2.26045,0.164062 -4.84899,0.246093 -7.76563,0.246094 -0.34638,-10e-7 -0.58335,-0.519531 -0.71094,-1.558594 -0.10939,-1.057289 -0.24611,-1.595049 -0.41015,-1.613281 -0.14586,0.07292 -0.33726,0.227867 -0.57422,0.464843 -2.04169,2.059897 -4.22918,3.089844 -6.5625,3.089844 -3.5547,0 -6.49871,-1.403645 -8.83203,-4.210937 -2.20573,-2.624994 -3.3086,-5.760408 -3.3086,-9.40625 0,-4.210921 1.13932,-7.601542 3.41797,-10.171875 2.36979,-2.661433 5.61457,-3.992161 9.73438,-3.992188 2.86196,2.7e-5 5.12237,1.00263 6.78125,3.007813 0.0729,0.09117 0.13669,0.136742 0.1914,0.136718 0.16404,2.4e-5 0.34634,-0.437475 0.54688,-1.3125 0.21873,-0.893203 0.47393,-1.339817 0.76562,-1.339843 0.67446,2.6e-5 1.95961,0.191432 3.85547,0.574218 1.80466,0.364609 3.09893,0.674505 3.88281,0.929688 0.27341,0.1094 0.41013,0.255233 0.41016,0.4375 -3e-5,0.07294 -0.0274,0.264347 -0.082,0.574219 -0.58336,3.2995 -0.87503,6.790382 -0.875,10.472656 m -8.80469,0.164062 c -2e-5,-1.549464 -0.49221,-2.825504 -1.47656,-3.828125 -0.96617,-1.020815 -2.23309,-1.531231 -3.80078,-1.53125 -1.56772,1.9e-5 -2.83465,0.501321 -3.80078,1.503907 -0.96616,1.00262 -1.44923,2.287775 -1.44922,3.855468 -1e-5,1.476575 0.5104,2.743501 1.53125,3.800782 1.02082,1.0573 2.2604,1.585945 3.71875,1.585937 1.54946,8e-6 2.81639,-0.501293 3.80078,-1.503906 0.98435,-1.020823 1.47654,-2.315092 1.47656,-3.882813"
       inkscape:connector-curvature="0" /></g><g
     id="text4074"
     style="font-size:12px;font-style:normal;font-variant:normal;font-weight:bold;font-stretch:normal;text-align:start;line-height:100%;letter-spacing:0px;word-spacing:0px;writing-mode:lr-tb;text-anchor:start;fill:#000000;fill-opacity:1;stroke:none;font-family:Berlin Sans FB Demi;-inkscape-font-specification:Berlin Sans FB Demi Bold"><path
       id="path4087"
       d="m 24.181879,5.1919222 c -4e-6,0.039067 -0.0293,0.091802 -0.08789,0.1582031 -0.109378,-0.027339 -0.218753,-0.041011 -0.328125,-0.041016 -0.230472,4.6e-6 -0.423831,0.050786 -0.580078,0.1523437 -0.187502,0.1171919 -0.281252,0.2832074 -0.28125,0.4980469 -2e-6,0.1367226 0.09961,0.3105505 0.298828,0.5214844 0.300778,0.3164094 0.486325,0.5292998 0.556641,0.6386719 0.199215,0.2968775 0.298824,0.6152365 0.298828,0.9550781 -4e-6,0.1992204 -0.03907,0.4101577 -0.117187,0.6328125 -0.08985,0.2460947 -0.203129,0.425782 -0.339844,0.5390625 -0.289066,0.2500004 -0.626956,0.4609377 -1.013672,0.6328125 -0.417971,0.1796882 -0.802736,0.2695312 -1.154297,0.2695312 -0.07813,0 -0.253907,-0.2109375 -0.527344,-0.6328125 -0.269531,-0.4257804 -0.404297,-0.6855457 -0.404296,-0.7792968 -10e-7,-0.035155 0.02148,-0.056639 0.06445,-0.064453 0.273437,-0.05078 0.548827,-0.1015611 0.826172,-0.1523437 0.343748,-0.1093735 0.515623,-0.2890608 0.515625,-0.5390625 -2e-6,-0.1718729 -0.09961,-0.3710914 -0.298829,-0.5976563 -0.355469,-0.3945283 -0.541016,-0.6035124 -0.55664,-0.6269531 -0.19922,-0.2812465 -0.298829,-0.5781212 -0.298828,-0.890625 -10e-7,-0.5859328 0.296874,-1.0839792 0.890625,-1.4941406 0.531248,-0.3632753 1.099607,-0.5449158 1.705078,-0.5449219 0.0625,6.1e-6 0.216793,0.2109434 0.46289,0.6328125 0.24609,0.4179738 0.369137,0.6621142 0.369141,0.7324219"
       inkscape:connector-curvature="0" /><path
       id="path4089"
       d="m 30.656488,7.0493441 c -6e-6,0.890627 -0.273443,1.6132825 -0.820312,2.1679687 -0.542974,0.5546877 -1.257817,0.8320312 -2.144531,0.8320312 -0.859378,0 -1.566408,-0.2734373 -2.121094,-0.8203124 -0.554688,-0.5468738 -0.832032,-1.2499981 -0.832031,-2.109375 -1e-6,-0.9062463 0.265624,-1.6406206 0.796875,-2.203125 0.531248,-0.5664007 1.249997,-0.8496035 2.15625,-0.8496094 0.882808,5.9e-6 1.597651,0.2773493 2.144531,0.8320312 0.546869,0.5507858 0.820306,1.2675819 0.820312,2.1503907 m -1.921875,0 c -4e-6,-0.3085906 -0.09571,-0.5800747 -0.287109,-0.8144532 -0.19141,-0.2382773 -0.439457,-0.3574178 -0.744141,-0.3574218 -0.308596,4e-6 -0.562502,0.1210976 -0.761718,0.3632812 -0.187503,0.226566 -0.281252,0.496097 -0.28125,0.8085938 -2e-6,0.3164088 0.09375,0.5878929 0.28125,0.8144531 0.199216,0.2421893 0.453122,0.3632829 0.761718,0.3632812 0.304684,1.7e-6 0.556637,-0.1210919 0.75586,-0.3632812 0.183589,-0.2265602 0.275386,-0.4980443 0.27539,-0.8144531 M 26.472895,3.6567659 c -0.07422,0.00391 -0.11133,-0.037103 -0.111328,-0.1230468 -2e-6,-0.031244 0.0039,-0.080072 0.01172,-0.1464844 0.0078,-0.0664 0.01172,-0.1171809 0.01172,-0.1523438 -2e-6,-0.046868 -0.0078,-0.1191338 -0.02344,-0.2167968 -0.01172,-0.097649 -0.01758,-0.1699148 -0.01758,-0.2167969 -10e-7,-0.05468 0.04101,-0.097649 0.123047,-0.1289063 0.191404,-0.074211 0.562498,-0.2675706 1.113282,-0.5800781 0.238277,-0.171867 0.599605,-0.4277261 1.083984,-0.7675781 0.02343,-0.019523 0.0625,-0.039054 0.117187,-0.058594 0.02734,0.00782 0.06054,0.027352 0.09961,0.058594 0.08984,0.093758 0.232417,0.2265709 0.427734,0.3984375 0.10937,0.062508 0.269526,0.1621174 0.480469,0.2988281 0.0625,0.042977 0.09375,0.082039 0.09375,0.1171875 -5e-6,0.031258 -0.02735,0.072273 -0.08203,0.1230469 -0.343755,0.3242261 -0.85938,0.6328195 -1.546875,0.9257812 -0.687503,0.289069 -1.263675,0.4453188 -1.728516,0.46875 l -0.05273,0"
       inkscape:connector-curvature="0" /><path
       id="path4091"
       d="m 37.722895,7.0669222 c -7e-6,0.8203145 -0.234382,1.5058607 -0.703125,2.0566406 -0.500006,0.5859377 -1.152349,0.8789062 -1.957032,0.8789062 -0.585941,0 -1.058596,-0.1679686 -1.417968,-0.5039062 -0.02735,-0.023437 -0.05078,-0.035156 -0.07031,-0.035156 -0.03907,4e-7 -0.07617,0.072266 -0.111328,0.2167968 -0.03125,0.1445314 -0.07032,0.2246094 -0.117187,0.2402344 -0.06641,0.019531 -0.623049,0.029297 -1.669922,0.029297 -0.246095,0 -0.369141,-0.044922 -0.369141,-0.1347656 0,-0.011719 0.0039,-0.041016 0.01172,-0.087891 0.07812,-0.6210929 0.117187,-1.8046855 0.117187,-3.5507812 0,-1.6679633 -0.05859,-3.1191338 -0.175781,-4.3535156 l -0.0059,-0.064453 c -10e-7,-0.062492 0.06055,-0.097648 0.18164,-0.1054687 0.08594,-0.0039 0.425781,-0.033195 1.019532,-0.087891 0.417966,-0.039054 0.75781,-0.058585 1.019531,-0.058594 0.07422,8.4e-6 0.111325,0.064461 0.111328,0.1933594 -3e-6,0.1523518 -0.0098,0.3535235 -0.0293,0.6035156 -0.02344,0.3086011 -0.03711,0.5117259 -0.04102,0.609375 -0.01953,0.3867254 -0.0293,0.9140686 -0.0293,1.5820313 -3e-6,0.121099 0.03125,0.1816458 0.09375,0.1816406 0.03125,5.2e-6 0.06054,-0.01562 0.08789,-0.046875 0.35156,-0.3749943 0.812497,-0.5624941 1.382813,-0.5625 0.855463,5.9e-6 1.523431,0.2910212 2.003906,0.8730469 0.445306,0.5390669 0.667962,1.2480506 0.667969,2.1269531 M 35.601801,7.0024691 C 35.601796,6.6782536 35.502187,6.4048163 35.302973,6.1821566 35.10375,5.955598 34.843984,5.8423169 34.523676,5.8423128 c -0.328128,4.1e-6 -0.587894,0.1132852 -0.779297,0.3398438 -0.187503,0.2226597 -0.281253,0.5000032 -0.28125,0.8320312 -3e-6,0.3437526 0.09179,0.6210961 0.275391,0.8320313 0.195309,0.2226581 0.460934,0.3339861 0.796875,0.3339843 0.332027,1.8e-6 0.595699,-0.1152325 0.791015,-0.3457031 0.183589,-0.2148414 0.275386,-0.4921849 0.275391,-0.8320312"
       inkscape:connector-curvature="0" /><path
       id="path4093"
       d="m 42.334223,6.2817659 c -5e-6,0.1523473 -0.08399,0.2285191 -0.251953,0.2285157 -0.07422,3.4e-6 -0.183598,-0.0039 -0.328125,-0.011719 -0.140629,-0.011715 -0.246098,-0.017575 -0.316407,-0.017578 -0.324221,3.4e-6 -0.544924,0.050785 -0.662109,0.1523437 -0.11719,0.1015657 -0.175784,0.3066437 -0.175781,0.6152344 -3e-6,0.1679713 0.002,0.4238304 0.0059,0.7675781 0.0078,0.3398454 0.01172,0.5937514 0.01172,0.7617188 -3e-6,0.1132823 0.0078,0.283204 0.02344,0.5097656 0.01562,0.2226567 0.02343,0.3886721 0.02344,0.4980469 -3e-6,0.09375 -0.06446,0.1464844 -0.193359,0.1582031 -0.187503,0.015625 -0.474612,0.023438 -0.861329,0.023438 -0.371095,0 -0.667969,-0.011719 -0.890625,-0.035156 -0.128906,-0.015625 -0.19336,-0.080078 -0.193359,-0.1933594 -10e-7,-0.3124995 0.002,-0.7792959 0.0059,-1.4003906 0.0039,-0.6249978 0.0059,-1.0937473 0.0059,-1.40625 -10e-7,-0.9179649 -0.08398,-1.6738235 -0.251953,-2.2675782 -0.0078,-0.035151 -0.01172,-0.064448 -0.01172,-0.087891 0,-0.058588 0.0293,-0.097651 0.08789,-0.1171875 0.214843,-0.023432 0.529295,-0.066401 0.943359,-0.1289062 0.617185,-0.1210881 0.935545,-0.1816349 0.955078,-0.1816407 0.07031,5.8e-6 0.115232,0.1230526 0.134766,0.3691407 0.01953,0.2460989 0.05468,0.3691456 0.105468,0.3691406 -0.05469,5e-6 0.105467,-0.1015574 0.480469,-0.3046875 0.374997,-0.2070257 0.736325,-0.3105412 1.083985,-0.3105469 0.218745,5.7e-6 0.32812,0.046881 0.328125,0.140625 -5e-6,0.1132867 -0.01172,0.2734428 -0.03516,0.4804688 -0.02344,0.222661 -0.03711,0.3828171 -0.04102,0.4804687 -5e-6,0.1132857 0.0019,0.2636762 0.0059,0.4511719 0.0078,0.2304726 0.01171,0.3828162 0.01172,0.4570312"
       inkscape:connector-curvature="0" /><path
       id="path4095"
       d="m 45.340082,2.8891878 c -3e-6,0.6796939 -0.382815,1.0195373 -1.148437,1.0195313 -0.328127,6e-6 -0.599611,-0.085931 -0.814453,-0.2578125 C 43.142816,3.463413 43.025629,3.209507 43.025629,2.8891878 c 0,-0.3046801 0.121093,-0.5546799 0.363281,-0.75 0.222655,-0.1796795 0.490233,-0.2695232 0.802735,-0.2695312 0.304685,8e-6 0.568357,0.091805 0.791015,0.2753906 0.238279,0.1953201 0.357419,0.4433667 0.357422,0.7441406 m -0.152344,4.3535156 c -2e-6,0.2851587 0.0059,0.7109395 0.01758,1.2773438 0.01172,0.5625008 0.01758,0.9843754 0.01758,1.265625 -3e-6,0.082031 -0.04883,0.1308594 -0.146485,0.1464844 -0.132815,0.023437 -0.431642,0.035156 -0.896484,0.035156 -0.468751,0 -0.769532,-0.011719 -0.902344,-0.035156 -0.08594,-0.015625 -0.138672,-0.041016 -0.158203,-0.076172 -0.0078,-0.015625 -0.01172,-0.074219 -0.01172,-0.1757813 0,-0.2695307 0.0059,-0.6738272 0.01758,-1.2128906 0.01172,-0.5429667 0.01758,-0.9511694 0.01758,-1.2246094 -1e-6,-1.1093712 -0.04297,-1.9921828 -0.128907,-2.6484375 -0.0078,-0.062495 -0.01172,-0.1035101 -0.01172,-0.1230468 -10e-7,-0.078119 0.05273,-0.117182 0.158203,-0.1171875 0.109374,5.5e-6 0.275389,0.011724 0.498047,0.035156 0.226561,0.023443 0.396482,0.035162 0.509765,0.035156 0.11328,5.5e-6 0.283201,-0.00976 0.509766,-0.029297 0.22656,-0.019526 0.396482,-0.029291 0.509765,-0.029297 0.09375,5.6e-6 0.140623,0.039068 0.140625,0.1171875 -2e-6,0.01563 -0.0039,0.05274 -0.01172,0.1113281 -0.08594,0.7617234 -0.128909,1.644535 -0.128907,2.6484375"
       inkscape:connector-curvature="0" /><path
       id="path4097"
       d="m 52.213129,7.0024691 c -6e-6,0.3007838 0.01757,0.748049 0.05273,1.3417968 0.03515,0.593751 0.05273,1.0390631 0.05273,1.3359375 -7e-6,0.1562501 -0.06837,0.2402344 -0.205078,0.2519532 -0.484381,0.035156 -1.039068,0.052734 -1.664063,0.052734 -0.07422,0 -0.125004,-0.111328 -0.152344,-0.3339843 -0.02344,-0.226562 -0.05274,-0.3417963 -0.08789,-0.3457032 -0.03126,0.015626 -0.07227,0.048829 -0.123047,0.099609 -0.437504,0.4414063 -0.906253,0.6621089 -1.40625,0.6621089 -0.761721,0 -1.39258,-0.3007806 -1.892578,-0.9023433 -0.472657,-0.5624986 -0.708985,-1.234373 -0.708985,-2.015625 0,-0.90234 0.244141,-1.6289018 0.732422,-2.1796875 0.507811,-0.5703069 1.203123,-0.8554629 2.085938,-0.8554687 0.613277,5.8e-6 1.097652,0.2148493 1.453125,0.6445312 0.01562,0.019536 0.02929,0.029302 0.04102,0.029297 0.03515,5.2e-6 0.07421,-0.093745 0.117188,-0.28125 0.04687,-0.1914006 0.101558,-0.2871036 0.164062,-0.2871094 0.144527,5.8e-6 0.419917,0.041021 0.826172,0.1230469 0.386713,0.07813 0.664056,0.1445367 0.832032,0.1992188 0.05859,0.023443 0.08788,0.054693 0.08789,0.09375 -6e-6,0.01563 -0.0059,0.056646 -0.01758,0.1230468 -0.125006,0.7070358 -0.187506,1.4550819 -0.1875,2.2441407 m -1.886719,0.035156 C 50.3264,6.7055965 50.220931,6.4321593 50.009998,6.217312 49.802963,5.9985659 49.531479,5.8891911 49.195545,5.889187 c -0.335941,4.1e-6 -0.607425,0.1074258 -0.814453,0.3222656 -0.207034,0.2148473 -0.310549,0.4902376 -0.310547,0.8261719 -2e-6,0.3164088 0.109373,0.5878929 0.328125,0.8144531 0.218747,0.2265644 0.484372,0.3398455 0.796875,0.3398438 0.332027,1.7e-6 0.603512,-0.10742 0.814453,-0.3222656 C 50.220931,7.650908 50.3264,7.3735646 50.326404,7.0376245"
       inkscape:connector-curvature="0" /><path
       id="path4099"
       d="m 62.842035,7.1137972 c -7e-6,0.8359395 -0.2461,1.5292982 -0.738281,2.0800781 -0.507818,0.5703127 -1.173833,0.8554687 -1.998047,0.8554687 -0.300785,0 -0.62305,-0.074219 -0.966797,-0.2226562 -0.343753,-0.1484372 -0.500002,-0.2226559 -0.46875,-0.2226562 -0.05078,3e-7 -0.07617,0.058594 -0.07617,0.1757812 -2e-6,0.1992187 0.0098,0.4980462 0.0293,0.8964842 0.01953,0.402343 0.02929,0.703124 0.0293,0.902344 -3e-6,0.124998 -0.06446,0.187498 -0.193359,0.1875 L 57.26391,11.772 c -0.269532,-2e-6 -0.44336,-0.0098 -0.521484,-0.0293 -0.117188,-0.02735 -0.175782,-0.09961 -0.175781,-0.216796 l 0.01172,-4.5117192 c 0,-0.9101524 -0.06836,-1.6777298 -0.205078,-2.3027344 -0.0078,-0.039057 -0.01172,-0.07226 -0.01172,-0.099609 -10e-7,-0.058588 0.02344,-0.097651 0.07031,-0.1171875 0.152343,-0.058588 0.443358,-0.1210882 0.873047,-0.1875 0.417967,-0.066401 0.720701,-0.099604 0.908203,-0.099609 0.152341,5.7e-6 0.238279,0.1015681 0.257813,0.3046875 0.02343,0.199224 0.05078,0.2988332 0.08203,0.2988281 -0.03907,5.1e-6 0.12695,-0.1054635 0.498047,-0.3164062 0.374996,-0.2148381 0.71484,-0.3222599 1.019531,-0.3222657 0.847651,5.8e-6 1.525385,0.2793024 2.033203,0.8378907 0.492181,0.5390668 0.738274,1.240238 0.738281,2.1035156 m -2.173828,-0.011719 c -5e-6,-0.3124968 -0.09571,-0.585934 -0.287109,-0.8203125 C 60.174059,6.0356736 59.9182,5.9126268 59.613517,5.9126228 c -0.312504,4e-6 -0.562504,0.1230508 -0.75,0.3691406 -0.164066,0.2226597 -0.246097,0.4960969 -0.246094,0.8203125 -3e-6,0.3320338 0.08593,0.6074241 0.257812,0.8261719 0.183591,0.238283 0.437497,0.3574235 0.761719,0.3574219 0.687496,1.6e-6 1.031245,-0.3945292 1.03125,-1.1835938"
       inkscape:connector-curvature="0" /><path
       id="path4101"
       d="m 69.486567,7.0024691 c -7e-6,0.3007838 0.01757,0.748049 0.05273,1.3417968 0.03515,0.593751 0.05273,1.0390631 0.05273,1.3359375 -6e-6,0.1562501 -0.06837,0.2402344 -0.205078,0.2519532 -0.484381,0.035156 -1.039068,0.052734 -1.664062,0.052734 -0.07422,0 -0.125005,-0.111328 -0.152344,-0.3339843 -0.02344,-0.226562 -0.05274,-0.3417963 -0.08789,-0.3457032 -0.03125,0.015626 -0.07227,0.048829 -0.123047,0.099609 -0.437503,0.4414063 -0.906253,0.6621089 -1.40625,0.6621089 -0.76172,0 -1.392579,-0.3007806 -1.892578,-0.9023433 -0.472656,-0.5624986 -0.708984,-1.234373 -0.708984,-2.015625 0,-0.90234 0.24414,-1.6289018 0.732422,-2.1796875 0.507811,-0.5703069 1.203123,-0.8554629 2.085937,-0.8554687 0.613278,5.8e-6 1.097652,0.2148493 1.453125,0.6445312 0.01562,0.019536 0.02929,0.029302 0.04102,0.029297 0.03515,5.2e-6 0.07421,-0.093745 0.117187,-0.28125 0.04687,-0.1914006 0.101558,-0.2871036 0.164063,-0.2871094 0.144526,5.8e-6 0.419917,0.041021 0.826172,0.1230469 0.386712,0.07813 0.664056,0.1445367 0.832031,0.1992188 0.05859,0.023443 0.08788,0.054693 0.08789,0.09375 -7e-6,0.01563 -0.0059,0.056646 -0.01758,0.1230468 -0.125007,0.7070358 -0.187507,1.4550819 -0.1875,2.2441407 m -1.886719,0.035156 C 67.599837,6.7055965 67.494369,6.4321593 67.283436,6.217312 67.0764,5.9985659 66.804916,5.8891911 66.468982,5.889187 c -0.33594,4.1e-6 -0.607424,0.1074258 -0.814453,0.3222656 -0.207033,0.2148473 -0.310549,0.4902376 -0.310547,0.8261719 -2e-6,0.3164088 0.109373,0.5878929 0.328125,0.8144531 0.218748,0.2265644 0.484372,0.3398455 0.796875,0.3398438 0.332028,1.7e-6 0.603512,-0.10742 0.814454,-0.3222656 0.210933,-0.2187478 0.316401,-0.4960912 0.316406,-0.8320313"
       inkscape:connector-curvature="0" /><path
       id="path4103"
       d="m 74.537348,6.2817659 c -5e-6,0.1523473 -0.08399,0.2285191 -0.251953,0.2285157 -0.07422,3.4e-6 -0.183598,-0.0039 -0.328125,-0.011719 -0.140629,-0.011715 -0.246098,-0.017575 -0.316407,-0.017578 -0.324221,3.4e-6 -0.544924,0.050785 -0.662109,0.1523437 -0.11719,0.1015657 -0.175784,0.3066437 -0.175781,0.6152344 -3e-6,0.1679713 0.002,0.4238304 0.0059,0.7675781 0.0078,0.3398454 0.01172,0.5937514 0.01172,0.7617188 -3e-6,0.1132823 0.0078,0.283204 0.02344,0.5097656 0.01562,0.2226567 0.02344,0.3886721 0.02344,0.4980469 -3e-6,0.09375 -0.06446,0.1464844 -0.193359,0.1582031 -0.187503,0.015625 -0.474612,0.023438 -0.861329,0.023438 -0.371095,0 -0.667969,-0.011719 -0.890625,-0.035156 -0.128906,-0.015625 -0.19336,-0.080078 -0.193359,-0.1933594 -10e-7,-0.3124995 0.002,-0.7792959 0.0059,-1.4003906 0.0039,-0.6249978 0.0059,-1.0937473 0.0059,-1.40625 -10e-7,-0.9179649 -0.08398,-1.6738235 -0.251953,-2.2675782 -0.0078,-0.035151 -0.01172,-0.064448 -0.01172,-0.087891 0,-0.058588 0.0293,-0.097651 0.08789,-0.1171875 0.214843,-0.023432 0.529295,-0.066401 0.943359,-0.1289062 0.617185,-0.1210881 0.935545,-0.1816349 0.955078,-0.1816407 0.07031,5.8e-6 0.115232,0.1230526 0.134766,0.3691407 0.01953,0.2460989 0.05469,0.3691456 0.105468,0.3691406 -0.05469,5e-6 0.105467,-0.1015574 0.480469,-0.3046875 0.374997,-0.2070257 0.736325,-0.3105412 1.083985,-0.3105469 0.218745,5.7e-6 0.32812,0.046881 0.328125,0.140625 -5e-6,0.1132867 -0.01172,0.2734428 -0.03516,0.4804688 -0.02344,0.222661 -0.03711,0.3828171 -0.04102,0.4804687 -5e-6,0.1132857 0.0019,0.2636762 0.0059,0.4511719 0.0078,0.2304726 0.01171,0.3828162 0.01172,0.4570312"
       inkscape:connector-curvature="0" /><path
       id="path4105"
       d="m 81.111567,7.0024691 c -7e-6,0.3007838 0.01757,0.748049 0.05273,1.3417968 0.03515,0.593751 0.05273,1.0390631 0.05273,1.3359375 -6e-6,0.1562501 -0.06837,0.2402344 -0.205078,0.2519532 -0.484381,0.035156 -1.039068,0.052734 -1.664062,0.052734 -0.07422,0 -0.125005,-0.111328 -0.152344,-0.3339843 -0.02344,-0.226562 -0.05274,-0.3417963 -0.08789,-0.3457032 -0.03125,0.015626 -0.07227,0.048829 -0.123047,0.099609 -0.437503,0.4414063 -0.906253,0.6621089 -1.40625,0.6621089 -0.76172,0 -1.392579,-0.3007806 -1.892578,-0.9023433 -0.472656,-0.5624986 -0.708984,-1.234373 -0.708984,-2.015625 0,-0.90234 0.24414,-1.6289018 0.732422,-2.1796875 0.507811,-0.5703069 1.203123,-0.8554629 2.085937,-0.8554687 0.613278,5.8e-6 1.097652,0.2148493 1.453125,0.6445312 0.01562,0.019536 0.02929,0.029302 0.04102,0.029297 0.03515,5.2e-6 0.07421,-0.093745 0.117187,-0.28125 0.04687,-0.1914006 0.101558,-0.2871036 0.164063,-0.2871094 0.144526,5.8e-6 0.419917,0.041021 0.826172,0.1230469 0.386712,0.07813 0.664056,0.1445367 0.832031,0.1992188 0.05859,0.023443 0.08788,0.054693 0.08789,0.09375 -7e-6,0.01563 -0.0059,0.056646 -0.01758,0.1230468 -0.125007,0.7070358 -0.187507,1.4550819 -0.1875,2.2441407 m -1.886719,0.035156 C 79.224837,6.7055965 79.119369,6.4321593 78.908436,6.217312 78.7014,5.9985659 78.429916,5.8891911 78.093982,5.889187 c -0.33594,4.1e-6 -0.607424,0.1074258 -0.814453,0.3222656 -0.207033,0.2148473 -0.310549,0.4902376 -0.310547,0.8261719 -2e-6,0.3164088 0.109373,0.5878929 0.328125,0.8144531 0.218748,0.2265644 0.484372,0.3398455 0.796875,0.3398438 0.332028,1.7e-6 0.603512,-0.10742 0.814454,-0.3222656 0.210933,-0.2187478 0.316401,-0.4960912 0.316406,-0.8320313"
       inkscape:connector-curvature="0" /><path
       id="path4107"
       d="m 91.166254,7.0024691 c -6e-6,0.3007838 0.01757,0.748049 0.05273,1.3417968 0.03515,0.593751 0.05273,1.0390631 0.05273,1.3359375 -7e-6,0.1562501 -0.06837,0.2402344 -0.205078,0.2519532 -0.484381,0.035156 -1.039068,0.052734 -1.664063,0.052734 -0.07422,0 -0.125004,-0.111328 -0.152344,-0.3339843 -0.02344,-0.226562 -0.05274,-0.3417963 -0.08789,-0.3457032 -0.03125,0.015626 -0.07227,0.048829 -0.123047,0.099609 -0.437504,0.4414063 -0.906253,0.6621089 -1.40625,0.6621089 -0.761721,0 -1.39258,-0.3007806 -1.892578,-0.9023433 -0.472657,-0.5624986 -0.708985,-1.234373 -0.708985,-2.015625 0,-0.90234 0.244141,-1.6289018 0.732422,-2.1796875 0.507811,-0.5703069 1.203123,-0.8554629 2.085938,-0.8554687 0.613277,5.8e-6 1.097652,0.2148493 1.453125,0.6445312 0.01562,0.019536 0.02929,0.029302 0.04102,0.029297 0.03515,5.2e-6 0.07422,-0.093745 0.117188,-0.28125 0.04687,-0.1914006 0.101558,-0.2871036 0.164062,-0.2871094 0.144527,5.8e-6 0.419917,0.041021 0.826172,0.1230469 0.386713,0.07813 0.664056,0.1445367 0.832032,0.1992188 0.05859,0.023443 0.08788,0.054693 0.08789,0.09375 -6e-6,0.01563 -0.0059,0.056646 -0.01758,0.1230468 -0.125006,0.7070358 -0.187506,1.4550819 -0.1875,2.2441407 m -1.886719,0.035156 C 89.279525,6.7055965 89.174056,6.4321593 88.963123,6.217312 88.756088,5.9985659 88.484604,5.8891911 88.14867,5.889187 c -0.335941,4.1e-6 -0.607425,0.1074258 -0.814453,0.3222656 -0.207034,0.2148473 -0.310549,0.4902376 -0.310547,0.8261719 -2e-6,0.3164088 0.109373,0.5878929 0.328125,0.8144531 0.218747,0.2265644 0.484372,0.3398455 0.796875,0.3398438 0.332027,1.7e-6 0.603512,-0.10742 0.814453,-0.3222656 0.210933,-0.2187478 0.316402,-0.4960912 0.316406,-0.8320313"
       inkscape:connector-curvature="0" /><path
       id="path4109"
       d="m 100.69946,6.7505159 c -1e-5,0.3945341 -0.12696,0.6191432 -0.38086,0.6738282 -0.043,0.00781 -0.447273,0.050784 -1.212893,0.1289062 -0.460941,0.050784 -1.14844,0.1113304 -2.0625,0.1816406 0.05469,0.2539082 0.220701,0.4472674 0.498047,0.5800782 0.22656,0.1093765 0.484372,0.1640639 0.773438,0.1640625 0.347652,1.4e-6 0.697261,-0.093749 1.048828,-0.28125 0.148432,-0.093748 0.29687,-0.1874981 0.445312,-0.28125 0.08203,0.039064 0.218748,0.238283 0.410158,0.5976562 0.19531,0.3593761 0.29296,0.5878915 0.29297,0.6855469 -1e-5,0.027344 -0.0293,0.072266 -0.0879,0.1347656 -0.476571,0.5117188 -1.216805,0.7675777 -2.220707,0.7675777 -0.92969,0 -1.679689,-0.2714838 -2.25,-0.8144527 -0.585938,-0.55078 -0.878906,-1.2871074 -0.878906,-2.2089844 0,-0.8984337 0.261718,-1.6347611 0.785156,-2.2089843 0.539061,-0.5937444 1.253904,-0.8906191 2.144532,-0.890625 0.749996,5.9e-6 1.386714,0.2734431 1.910156,0.8203125 0.523429,0.5468795 0.785149,1.1972695 0.785159,1.9511718 M 98.648676,6.3930941 c -4e-6,-0.2421838 -0.08594,-0.4550742 -0.257813,-0.6386719 -0.171878,-0.1835894 -0.376956,-0.2753862 -0.615234,-0.2753906 -0.246096,4.4e-6 -0.449221,0.1035199 -0.609375,0.3105468 -0.14844,0.1914102 -0.222658,0.4160194 -0.222656,0.6738282 -2e-6,0.1054721 0.05469,0.1582064 0.164062,0.1582031 0.28906,3.3e-6 0.738279,-0.044918 1.347657,-0.1347656 0.128902,-0.019528 0.193355,-0.050778 0.193359,-0.09375"
       inkscape:connector-curvature="0" /><path
       id="path4111"
       d="m 104.78344,5.1919222 c 0,0.039067 -0.0293,0.091802 -0.0879,0.1582031 -0.10938,-0.027339 -0.21875,-0.041011 -0.32812,-0.041016 -0.23048,4.6e-6 -0.42384,0.050786 -0.58008,0.1523437 -0.1875,0.1171919 -0.28125,0.2832074 -0.28125,0.4980469 0,0.1367226 0.0996,0.3105505 0.29883,0.5214844 0.30077,0.3164094 0.48632,0.5292998 0.55664,0.6386719 0.19921,0.2968775 0.29882,0.6152365 0.29882,0.9550781 0,0.1992204 -0.0391,0.4101577 -0.11718,0.6328125 -0.0898,0.2460947 -0.20313,0.425782 -0.33985,0.5390625 -0.28906,0.2500004 -0.62695,0.4609377 -1.01367,0.6328125 -0.41797,0.1796882 -0.80273,0.2695312 -1.1543,0.2695312 -0.0781,0 -0.2539,-0.2109375 -0.52734,-0.6328125 -0.26953,-0.4257804 -0.4043,-0.6855457 -0.4043,-0.7792968 0,-0.035155 0.0215,-0.056639 0.0645,-0.064453 0.27343,-0.05078 0.54882,-0.1015611 0.82617,-0.1523437 0.34375,-0.1093735 0.51562,-0.2890608 0.51562,-0.5390625 0,-0.1718729 -0.0996,-0.3710914 -0.29882,-0.5976563 -0.35547,-0.3945283 -0.54102,-0.6035124 -0.55664,-0.6269531 -0.19922,-0.2812465 -0.29883,-0.5781212 -0.29883,-0.890625 0,-0.5859328 0.29687,-1.0839792 0.89062,-1.4941406 0.53125,-0.3632753 1.09961,-0.5449158 1.70508,-0.5449219 0.0625,6.1e-6 0.21679,0.2109434 0.46289,0.6328125 0.24609,0.4179738 0.36914,0.6621142 0.36914,0.7324219"
       inkscape:connector-curvature="0" /><path
       id="path4113"
       d="m 109.04907,5.1919222 c -1e-5,0.039067 -0.0293,0.091802 -0.0879,0.1582031 -0.10938,-0.027339 -0.21876,-0.041011 -0.32813,-0.041016 -0.23047,4.6e-6 -0.42383,0.050786 -0.58008,0.1523437 -0.1875,0.1171919 -0.28125,0.2832074 -0.28125,0.4980469 0,0.1367226 0.0996,0.3105505 0.29883,0.5214844 0.30078,0.3164094 0.48633,0.5292998 0.55664,0.6386719 0.19922,0.2968775 0.29883,0.6152365 0.29883,0.9550781 0,0.1992204 -0.0391,0.4101577 -0.11719,0.6328125 -0.0898,0.2460947 -0.20313,0.425782 -0.33984,0.5390625 -0.28907,0.2500004 -0.62696,0.4609377 -1.01367,0.6328125 -0.41797,0.1796882 -0.80274,0.2695312 -1.1543,0.2695312 -0.0781,0 -0.25391,-0.2109375 -0.52734,-0.6328125 -0.26954,-0.4257804 -0.4043,-0.6855457 -0.4043,-0.7792968 0,-0.035155 0.0215,-0.056639 0.0644,-0.064453 0.27344,-0.05078 0.54883,-0.1015611 0.82617,-0.1523437 0.34375,-0.1093735 0.51563,-0.2890608 0.51563,-0.5390625 0,-0.1718729 -0.0996,-0.3710914 -0.29883,-0.5976563 -0.35547,-0.3945283 -0.54102,-0.6035124 -0.55664,-0.6269531 -0.19922,-0.2812465 -0.29883,-0.5781212 -0.29883,-0.890625 0,-0.5859328 0.29688,-1.0839792 0.89063,-1.4941406 0.53125,-0.3632753 1.0996,-0.5449158 1.70508,-0.5449219 0.0625,6.1e-6 0.21679,0.2109434 0.46289,0.6328125 0.24609,0.4179738 0.36913,0.6621142 0.36914,0.7324219"
       inkscape:connector-curvature="0" /><path
       id="path4115"
       d="m 115.25414,6.7505159 c 0,0.3945341 -0.12695,0.6191432 -0.38085,0.6738282 -0.043,0.00781 -0.44728,0.050784 -1.2129,0.1289062 -0.46094,0.050784 -1.14844,0.1113304 -2.0625,0.1816406 0.0547,0.2539082 0.22071,0.4472674 0.49805,0.5800782 0.22656,0.1093765 0.48437,0.1640639 0.77344,0.1640625 0.34765,1.4e-6 0.69726,-0.093749 1.04883,-0.28125 0.14843,-0.093748 0.29687,-0.1874981 0.44531,-0.28125 0.082,0.039064 0.21874,0.238283 0.41016,0.5976562 0.1953,0.3593761 0.29296,0.5878915 0.29296,0.6855469 0,0.027344 -0.0293,0.072266 -0.0879,0.1347656 -0.47656,0.5117188 -1.2168,0.7675777 -2.2207,0.7675777 -0.92969,0 -1.67969,-0.2714838 -2.25,-0.8144527 -0.58594,-0.55078 -0.87891,-1.2871074 -0.87891,-2.2089844 0,-0.8984337 0.26172,-1.6347611 0.78516,-2.2089843 0.53906,-0.5937444 1.2539,-0.8906191 2.14453,-0.890625 0.75,5.9e-6 1.38672,0.2734431 1.91016,0.8203125 0.52343,0.5468795 0.78515,1.1972695 0.78515,1.9511718 m -2.05078,-0.3574218 c 0,-0.2421838 -0.0859,-0.4550742 -0.25781,-0.6386719 -0.17188,-0.1835894 -0.37696,-0.2753862 -0.61523,-0.2753906 -0.2461,4.4e-6 -0.44922,0.1035199 -0.60938,0.3105468 -0.14844,0.1914102 -0.22266,0.4160194 -0.22265,0.6738282 -10e-6,0.1054721 0.0547,0.1582064 0.16406,0.1582031 0.28906,3.3e-6 0.73828,-0.044918 1.34765,-0.1347656 0.12891,-0.019528 0.19336,-0.050778 0.19336,-0.09375 m 0.36914,-2.7363282 c -0.19922,6.3e-6 -0.59766,-0.3632746 -1.19531,-1.0898437 l -0.0469,0.035156 c -0.0703,0.1640697 -0.22462,0.3711007 -0.46289,0.6210938 -0.26563,0.2734439 -0.47071,0.4101625 -0.61524,0.4101562 -0.004,6.3e-6 -0.17773,-0.064447 -0.52148,-0.1933593 -0.26563,-0.1015559 -0.39844,-0.1621028 -0.39844,-0.1816407 0,-0.019524 0.0215,-0.054681 0.0645,-0.1054687 0.25,-0.281243 0.5,-0.5624927 0.75,-0.84375 0.30859,-0.3710858 0.50977,-0.6855386 0.60352,-0.9433594 0.0273,-0.07421 0.0762,-0.1113194 0.14648,-0.1113281 l 1.01953,0 c 0.0664,8.7e-6 0.11133,0.037118 0.13477,0.1113281 0.082,0.2578208 0.2539,0.5449299 0.51562,0.8613281 0.3125,0.3320387 0.62695,0.6757883 0.94336,1.03125 -0.008,0.011725 -0.1582,0.082038 -0.45117,0.2109375 -0.29297,0.1250064 -0.45508,0.1875063 -0.48633,0.1875"
       inkscape:connector-curvature="0" /><path
       id="path4117"
       d="m 121.73461,9.7622347 c 0,0.1054688 -0.0547,0.1660156 -0.16406,0.1816406 -0.10938,0.015625 -0.39454,0.023438 -0.85547,0.023438 -0.49219,0 -0.79688,-0.011719 -0.91406,-0.035156 -0.11719,-0.023438 -0.17579,-0.1035156 -0.17578,-0.2402344 -1e-5,-0.1835933 0.006,-0.4609368 0.0176,-0.8320313 0.0117,-0.3710923 0.0176,-0.6503889 0.0176,-0.8378906 0,-0.1445292 -0.004,-0.3593727 -0.0117,-0.6445312 -0.008,-0.2890597 -0.0117,-0.5058564 -0.0117,-0.6503907 -1e-5,-0.5351525 -0.23243,-0.8027303 -0.69727,-0.8027343 -0.15235,4e-6 -0.33008,0.06641 -0.5332,0.1992187 -0.21875,0.1484412 -0.32813,0.2949254 -0.32813,0.4394531 l 0,3.1640625 c 0,0.1289064 -0.0606,0.2011719 -0.18164,0.2167969 -0.13672,0.015625 -0.41601,0.023438 -0.83789,0.023438 -0.45703,0 -0.7539,-0.011719 -0.89062,-0.035156 -0.1211,-0.019531 -0.18164,-0.083984 -0.18164,-0.1933594 0,-0.304687 0.002,-0.7636709 0.006,-1.3769531 0.004,-0.6132791 0.006,-1.0742161 0.006,-1.3828125 -1e-5,-0.9726524 -0.0762,-1.7363235 -0.22852,-2.2910157 -0.008,-0.035151 -0.0117,-0.064448 -0.0117,-0.087891 0,-0.062495 0.0293,-0.1054633 0.0879,-0.1289062 0.24609,-0.027338 0.57422,-0.070307 0.98438,-0.1289063 0.62109,-0.121088 0.9707,-0.1816348 1.04882,-0.1816406 0.043,5.8e-6 0.0762,0.1328181 0.0996,0.3984375 0.0234,0.2617238 0.0566,0.3925831 0.0996,0.3925781 -0.043,5e-6 0.16602,-0.1347605 0.62696,-0.4042969 0.46484,-0.2734318 0.87109,-0.4101504 1.21875,-0.4101562 0.49609,5.8e-6 0.91015,0.1171932 1.24218,0.3515625 0.37109,0.2695364 0.55664,0.644536 0.55664,1.125 l 0,1.8691406 c 0,0.2539085 0.002,0.6347675 0.006,1.1425781 0.004,0.5039071 0.006,0.882813 0.006,1.1367188"
       inkscape:connector-curvature="0" /><path
       id="path4119"
       d="m 126.58618,6.0766878 c -0.004,3.9e-6 -0.12306,-0.031246 -0.35743,-0.09375 -0.23047,-0.062496 -0.41797,-0.093746 -0.5625,-0.09375 -0.34766,4.1e-6 -0.625,0.1054727 -0.83203,0.3164063 -0.20703,0.2070347 -0.31055,0.4843782 -0.31054,0.8320312 -1e-5,0.3593775 0.11327,0.6425804 0.33984,0.8496094 0.22656,0.2031268 0.52148,0.3046892 0.88477,0.3046875 0.17187,1.7e-6 0.36523,-0.042967 0.58007,-0.1289063 0.21484,-0.089842 0.31641,-0.1347636 0.30469,-0.1347656 0.0664,2e-6 0.15234,0.2480486 0.25781,0.7441406 0.0898,0.4531258 0.13476,0.7539068 0.13477,0.9023438 -1e-5,0.1484377 -0.24219,0.2753907 -0.72656,0.3808594 -0.37501,0.082031 -0.67774,0.1230469 -0.90821,0.1230469 -0.85937,0 -1.56836,-0.2890624 -2.12695,-0.8671876 -0.55859,-0.5781237 -0.83789,-1.2988261 -0.83789,-2.1621093 0,-0.855465 0.2793,-1.5742143 0.83789,-2.15625 0.5625,-0.5859319 1.27148,-0.8789004 2.12695,-0.8789063 0.58203,5.9e-6 1.09375,0.1250058 1.53516,0.375 0.10156,0.054693 0.15234,0.1074273 0.15234,0.1582031 0,0.050787 -0.0586,0.2812551 -0.17578,0.6914063 -0.10938,0.3945355 -0.18164,0.6328165 -0.21679,0.7148437 -0.0313,0.082035 -0.0645,0.1230508 -0.0996,0.1230469"
       inkscape:connector-curvature="0" /><path
       id="path4121"
       d="m 130.01977,2.8891878 c 0,0.6796939 -0.38282,1.0195373 -1.14844,1.0195313 -0.32812,6e-6 -0.59961,-0.085931 -0.81445,-0.2578125 -0.23438,-0.1874936 -0.35156,-0.4413996 -0.35156,-0.7617188 0,-0.3046801 0.12109,-0.5546799 0.36328,-0.75 0.22265,-0.1796795 0.49023,-0.2695232 0.80273,-0.2695312 0.30469,8e-6 0.56836,0.091805 0.79102,0.2753906 0.23828,0.1953201 0.35742,0.4433667 0.35742,0.7441406 m -0.15234,4.3535156 c -1e-5,0.2851587 0.006,0.7109395 0.0176,1.2773438 0.0117,0.5625008 0.0176,0.9843754 0.0176,1.265625 0,0.082031 -0.0488,0.1308594 -0.14648,0.1464844 -0.13282,0.023437 -0.43164,0.035156 -0.89649,0.035156 -0.46875,0 -0.76953,-0.011719 -0.90234,-0.035156 -0.0859,-0.015625 -0.13867,-0.041016 -0.1582,-0.076172 -0.008,-0.015625 -0.0117,-0.074219 -0.0117,-0.1757813 0,-0.2695307 0.006,-0.6738272 0.0176,-1.2128906 0.0117,-0.5429667 0.0176,-0.9511694 0.0176,-1.2246094 0,-1.1093712 -0.043,-1.9921828 -0.1289,-2.6484375 -0.008,-0.062495 -0.0117,-0.1035101 -0.0117,-0.1230468 0,-0.078119 0.0527,-0.117182 0.1582,-0.1171875 0.10938,5.5e-6 0.27539,0.011724 0.49805,0.035156 0.22656,0.023443 0.39648,0.035162 0.50976,0.035156 0.11328,5.5e-6 0.28321,-0.00976 0.50977,-0.029297 0.22656,-0.019526 0.39648,-0.029291 0.50977,-0.029297 0.0937,5.6e-6 0.14062,0.039068 0.14062,0.1171875 0,0.01563 -0.004,0.05274 -0.0117,0.1113281 -0.0859,0.7617234 -0.12891,1.644535 -0.1289,2.6484375"
       inkscape:connector-curvature="0" /><path
       id="path4123"
       d="m 136.89282,7.0024691 c -1e-5,0.3007838 0.0176,0.748049 0.0527,1.3417968 0.0352,0.593751 0.0527,1.0390631 0.0527,1.3359375 -1e-5,0.1562501 -0.0684,0.2402344 -0.20508,0.2519532 -0.48438,0.035156 -1.03907,0.052734 -1.66407,0.052734 -0.0742,0 -0.125,-0.111328 -0.15234,-0.3339843 -0.0234,-0.226562 -0.0527,-0.3417963 -0.0879,-0.3457032 -0.0313,0.015626 -0.0723,0.048829 -0.12305,0.099609 -0.4375,0.4414063 -0.90625,0.6621089 -1.40625,0.6621089 -0.76172,0 -1.39258,-0.3007806 -1.89257,-0.9023433 -0.47266,-0.5624986 -0.70899,-1.234373 -0.70899,-2.015625 0,-0.90234 0.24414,-1.6289018 0.73242,-2.1796875 0.50781,-0.5703069 1.20313,-0.8554629 2.08594,-0.8554687 0.61328,5.8e-6 1.09765,0.2148493 1.45313,0.6445312 0.0156,0.019536 0.0293,0.029302 0.041,0.029297 0.0352,5.2e-6 0.0742,-0.093745 0.11719,-0.28125 0.0469,-0.1914006 0.10156,-0.2871036 0.16406,-0.2871094 0.14453,5.8e-6 0.41992,0.041021 0.82617,0.1230469 0.38672,0.07813 0.66406,0.1445367 0.83203,0.1992188 0.0586,0.023443 0.0879,0.054693 0.0879,0.09375 0,0.01563 -0.006,0.056646 -0.0176,0.1230468 -0.12501,0.7070358 -0.18751,1.4550819 -0.1875,2.2441407 m -1.88672,0.035156 c -1e-5,-0.332028 -0.10548,-0.6054652 -0.31641,-0.8203125 -0.20703,-0.2187461 -0.47852,-0.3281209 -0.81445,-0.328125 -0.33594,4.1e-6 -0.60743,0.1074258 -0.81445,0.3222656 -0.20704,0.2148473 -0.31055,0.4902376 -0.31055,0.8261719 0,0.3164088 0.10937,0.5878929 0.32812,0.8144531 0.21875,0.2265644 0.48438,0.3398455 0.79688,0.3398438 0.33203,1.7e-6 0.60351,-0.10742 0.81445,-0.3222656 0.21093,-0.2187478 0.3164,-0.4960912 0.31641,-0.8320313"
       inkscape:connector-curvature="0" /></g><g
     id="text4078"
     style="font-size:11.91047192px;font-style:normal;font-variant:normal;font-weight:bold;font-stretch:normal;text-align:start;line-height:100%;letter-spacing:0px;word-spacing:0px;writing-mode:lr-tb;text-anchor:start;fill:#000000;fill-opacity:1;stroke:none;font-family:Berlin Sans FB Demi;-inkscape-font-specification:Berlin Sans FB Demi Bold"
     transform="scale(0.99253977,1.0075163)"><path
       id="path4154"
       style="font-size:9.92539597px"
       d="m 109.41437,45.544657 c -1e-5,-0.07107 -0.0129,0.03555 -0.0388,0.319861 -0.0356,0.358639 -0.063,0.817429 -0.0824,1.376373 -0.0259,0.633266 -0.0388,1.353761 -0.0388,2.161488 -10e-6,1.334373 0.0371,2.284263 0.11146,2.849674 0.006,0.06139 0.01,0.100159 0.01,0.116313 -10e-6,0.03554 -0.0242,0.05654 -0.0727,0.063 -0.11632,0.01616 -0.54441,0.02423 -1.28429,0.02423 -0.17447,0 -0.27463,-0.03392 -0.30048,-0.101774 -0.006,-0.122775 -0.0129,-0.24555 -0.0194,-0.368325 -0.003,-0.02585 -0.0162,-0.05169 -0.0388,-0.07754 -0.0194,0.0097 -0.0436,0.02908 -0.0727,0.05816 -0.34894,0.342478 -0.78512,0.513717 -1.30852,0.513717 -0.68173,0 -1.22776,-0.239088 -1.63808,-0.717265 -0.39094,-0.455559 -0.58641,-1.030662 -0.58641,-1.725313 0,-0.704338 0.19224,-1.284288 0.57672,-1.739852 0.40709,-0.484634 0.95635,-0.726953 1.64777,-0.726957 0.48786,4e-6 0.8675,0.155089 1.1389,0.465252 0.0452,0.0517 0.0775,0.07755 0.0969,0.07754 0.0291,4e-6 0.0436,-0.042 0.0436,-0.126006 0,-0.248777 -0.006,-0.620333 -0.0194,-1.114669 -0.0129,-0.494325 -0.0194,-0.864265 -0.0194,-1.109822 0,-0.09369 0.0259,-0.147 0.0775,-0.159931 0.20678,-0.0097 0.4911,-0.02907 0.85297,-0.05816 0.64618,-0.08077 0.93211,-0.121153 0.85781,-0.12116 0.0711,7e-6 0.10661,0.04039 0.10662,0.12116 m -1.82709,4.453827 c 0,-0.25524 -0.0889,-0.478173 -0.26655,-0.668801 -0.1777,-0.193852 -0.39256,-0.29078 -0.64457,-0.290783 -0.26494,3e-6 -0.47656,0.09693 -0.63488,0.290783 -0.15508,0.190628 -0.23262,0.420023 -0.23262,0.688187 0,0.261707 0.0791,0.483025 0.23747,0.663955 0.16154,0.193856 0.37155,0.290784 0.63003,0.290783 0.25847,10e-7 0.47494,-0.09693 0.64942,-0.290783 0.17446,-0.193854 0.2617,-0.421634 0.2617,-0.683341"
       inkscape:connector-curvature="0" /><path
       id="path4156"
       style="font-size:9.92539597px"
       d="m 115.00225,49.998484 c -1e-5,0.248784 0.0145,0.618724 0.0436,1.109822 0.0291,0.491102 0.0436,0.859426 0.0436,1.104976 0,0.129237 -0.0565,0.198702 -0.16962,0.208395 -0.40064,0.02908 -0.85943,0.04362 -1.37637,0.04362 -0.0614,0 -0.1034,-0.09208 -0.12601,-0.276244 -0.0194,-0.187393 -0.0436,-0.282705 -0.0727,-0.285937 -0.0259,0.01293 -0.0598,0.04039 -0.10178,0.08239 -0.36186,0.365094 -0.74958,0.547641 -1.16313,0.547641 -0.63003,0 -1.15183,-0.24878 -1.56538,-0.746343 -0.39095,-0.465252 -0.58642,-1.02097 -0.58642,-1.667156 0,-0.74634 0.20194,-1.347291 0.6058,-1.802855 0.42002,-0.47171 0.99513,-0.707568 1.72532,-0.707572 0.50725,4e-6 0.90788,0.177705 1.2019,0.533102 0.0129,0.01616 0.0242,0.02424 0.0339,0.02423 0.0291,4e-6 0.0614,-0.07754 0.0969,-0.232627 0.0388,-0.15831 0.084,-0.237468 0.1357,-0.237472 0.11954,4e-6 0.34732,0.03393 0.68334,0.101774 0.31986,0.06462 0.54925,0.119548 0.68819,0.164777 0.0485,0.01939 0.0727,0.04524 0.0727,0.07754 0,0.01293 -0.005,0.04685 -0.0145,0.101774 -0.10339,0.584801 -0.15509,1.203522 -0.15508,1.856165 m -1.56054,0.02908 c 0,-0.274626 -0.0872,-0.500791 -0.2617,-0.678494 -0.17124,-0.180929 -0.39579,-0.271394 -0.67365,-0.271398 -0.27786,4e-6 -0.50241,0.08885 -0.67365,0.266551 -0.17124,0.177704 -0.25686,0.405484 -0.25685,0.683341 -10e-6,0.261706 0.0905,0.486255 0.27139,0.673647 0.18093,0.187395 0.40063,0.281092 0.65911,0.28109 0.27463,2e-6 0.49918,-0.08885 0.67365,-0.266551 0.17446,-0.18093 0.2617,-0.410325 0.2617,-0.688186"
       inkscape:connector-curvature="0" /><path
       id="path4158"
       style="font-size:9.92539597px"
       d="m 123.11025,49.058286 c 0,0.55249 -0.0178,0.878813 -0.0533,0.978969 -0.0743,0.229398 -0.29725,0.618724 -0.6688,1.167979 -0.3231,0.471716 -0.59934,0.84004 -0.82873,1.104976 -0.084,0.100158 -0.33764,0.150238 -0.76088,0.150238 -0.36833,0 -0.60742,-0.01292 -0.71727,-0.03877 -0.0679,-0.01616 -0.12439,-0.04846 -0.16962,-0.09693 -0.19386,-0.21001 -0.4701,-0.575104 -0.82873,-1.095283 -0.38449,-0.558948 -0.61388,-0.941812 -0.68819,-1.148593 -0.0808,-0.222931 -0.12116,-0.557332 -0.12116,-1.003202 0,-0.126002 0.002,-0.315011 0.005,-0.567027 0.003,-0.255239 0.005,-0.447478 0.005,-0.57672 0,-0.084 0.0565,-0.126001 0.16963,-0.126006 0.16477,5e-6 0.41194,0.0049 0.74149,0.01454 0.33279,0.0097 0.58157,0.01454 0.74635,0.01454 0.0743,4e-6 0.11146,0.05008 0.11146,0.150238 0,0.09047 -0.006,0.227784 -0.0194,0.411942 -0.0129,0.180936 -0.0194,0.31825 -0.0194,0.411943 0,0.336019 0.01,0.610647 0.0291,0.823885 0.01,0.109854 0.10339,0.316633 0.28109,0.620338 0.18416,0.319863 0.31824,0.479793 0.40225,0.479792 0.0808,10e-7 0.21001,-0.156698 0.38771,-0.4701 0.17124,-0.294011 0.26332,-0.494328 0.27624,-0.600951 0.0258,-0.229393 0.0388,-0.507252 0.0388,-0.833578 -10e-6,-0.09369 -0.01,-0.234239 -0.0291,-0.421636 -0.0194,-0.19062 -0.0291,-0.331165 -0.0291,-0.421635 0,-0.100154 0.0339,-0.150234 0.10177,-0.150238 0.0775,4e-6 0.19224,0.0016 0.3441,0.0048 0.15508,0.0032 0.27139,0.0049 0.34894,0.0048 0.0775,5e-6 0.19385,-0.0065 0.34894,-0.01938 0.15831,-0.01292 0.27623,-0.01938 0.35378,-0.01939 0.0808,5e-6 0.13408,0.04201 0.15993,0.126006 0.0549,0.184167 0.0824,0.558954 0.0824,1.124362"
       inkscape:connector-curvature="0" /><path
       id="path4160"
       style="font-size:9.92539597px"
       d="m 125.69822,46.596322 c 0,0.562186 -0.31663,0.843276 -0.94989,0.843271 -0.2714,5e-6 -0.49595,-0.07108 -0.67365,-0.213241 -0.19385,-0.155079 -0.29078,-0.365089 -0.29078,-0.63003 0,-0.252006 0.10016,-0.458785 0.30047,-0.620337 0.18417,-0.148616 0.40548,-0.222927 0.66396,-0.222934 0.25201,7e-6 0.4701,0.07593 0.65426,0.22778 0.19708,0.161553 0.29563,0.366716 0.29563,0.615491 m -0.12601,3.600864 c 0,0.235859 0.005,0.58803 0.0145,1.056512 0.01,0.465254 0.0145,0.814193 0.0145,1.046819 0,0.06785 -0.0404,0.108236 -0.12116,0.12116 -0.10985,0.01938 -0.35702,0.02908 -0.74149,0.02908 -0.38772,0 -0.6365,-0.0097 -0.74635,-0.02908 -0.0711,-0.01292 -0.1147,-0.03393 -0.13085,-0.063 -0.006,-0.01292 -0.01,-0.06139 -0.01,-0.145392 0,-0.222933 0.005,-0.557333 0.0145,-1.003202 0.01,-0.449096 0.0145,-0.786727 0.0145,-1.012894 0,-0.917579 -0.0355,-1.647767 -0.10662,-2.190566 -0.006,-0.05169 -0.01,-0.08561 -0.01,-0.101774 0,-0.06461 0.0436,-0.09692 0.13086,-0.09693 0.0905,5e-6 0.22777,0.0097 0.41194,0.02908 0.18739,0.01939 0.32794,0.02908 0.42163,0.02908 0.0937,5e-6 0.23424,-0.0081 0.42164,-0.02423 0.18739,-0.01615 0.32794,-0.02423 0.42163,-0.02423 0.0775,5e-6 0.11632,0.03231 0.11632,0.09693 0,0.01293 -0.003,0.04362 -0.01,0.09208 -0.0711,0.630034 -0.10662,1.360222 -0.10662,2.190566"
       inkscape:connector-curvature="0" /><path
       id="path4162"
       style="font-size:9.92539597px"
       d="m 131.64958,45.544657 c -10e-6,-0.07107 -0.0129,0.03555 -0.0388,0.319861 -0.0356,0.358639 -0.063,0.817429 -0.0824,1.376373 -0.0259,0.633266 -0.0388,1.353761 -0.0388,2.161488 -1e-5,1.334373 0.0371,2.284263 0.11147,2.849674 0.006,0.06139 0.01,0.100159 0.01,0.116313 -1e-5,0.03554 -0.0242,0.05654 -0.0727,0.063 -0.11632,0.01616 -0.54441,0.02423 -1.28429,0.02423 -0.17447,0 -0.27463,-0.03392 -0.30047,-0.101774 -0.006,-0.122775 -0.0129,-0.24555 -0.0194,-0.368325 -0.003,-0.02585 -0.0162,-0.05169 -0.0388,-0.07754 -0.0194,0.0097 -0.0436,0.02908 -0.0727,0.05816 -0.34894,0.342478 -0.78511,0.513717 -1.30852,0.513717 -0.68173,0 -1.22775,-0.239088 -1.63808,-0.717265 -0.39094,-0.455559 -0.58641,-1.030662 -0.58641,-1.725313 0,-0.704338 0.19224,-1.284288 0.57672,-1.739852 0.40709,-0.484634 0.95635,-0.726953 1.64777,-0.726957 0.48787,4e-6 0.8675,0.155089 1.1389,0.465252 0.0452,0.0517 0.0775,0.07755 0.0969,0.07754 0.0291,4e-6 0.0436,-0.042 0.0436,-0.126006 0,-0.248777 -0.006,-0.620333 -0.0194,-1.114669 -0.0129,-0.494325 -0.0194,-0.864265 -0.0194,-1.109822 0,-0.09369 0.0258,-0.147 0.0776,-0.159931 0.20677,-0.0097 0.49109,-0.02907 0.85296,-0.05816 0.64618,-0.08077 0.93212,-0.121153 0.85781,-0.12116 0.0711,7e-6 0.10661,0.04039 0.10662,0.12116 m -1.82709,4.453827 c 0,-0.25524 -0.0888,-0.478173 -0.26655,-0.668801 -0.1777,-0.193852 -0.39256,-0.29078 -0.64457,-0.290783 -0.26494,3e-6 -0.47656,0.09693 -0.63487,0.290783 -0.15509,0.190628 -0.23263,0.420023 -0.23263,0.688187 0,0.261707 0.0792,0.483025 0.23747,0.663955 0.16155,0.193856 0.37156,0.290784 0.63003,0.290783 0.25847,10e-7 0.47495,-0.09693 0.64942,-0.290783 0.17446,-0.193854 0.2617,-0.421634 0.2617,-0.683341"
       inkscape:connector-curvature="0" /><path
       id="path4164"
       style="font-size:9.92539597px"
       d="m 137.23746,49.998484 c 0,0.248784 0.0145,0.618724 0.0436,1.109822 0.0291,0.491102 0.0436,0.859426 0.0436,1.104976 -1e-5,0.129237 -0.0566,0.198702 -0.16963,0.208395 -0.40064,0.02908 -0.85943,0.04362 -1.37637,0.04362 -0.0614,0 -0.10339,-0.09208 -0.12601,-0.276244 -0.0194,-0.187393 -0.0436,-0.282705 -0.0727,-0.285937 -0.0259,0.01293 -0.0598,0.04039 -0.10178,0.08239 -0.36186,0.365094 -0.74957,0.547641 -1.16313,0.547641 -0.63003,0 -1.15182,-0.24878 -1.56538,-0.746343 -0.39094,-0.465252 -0.58641,-1.02097 -0.58641,-1.667156 0,-0.74634 0.20193,-1.347291 0.6058,-1.802855 0.42001,-0.47171 0.99512,-0.707568 1.72531,-0.707572 0.50725,4e-6 0.90788,0.177705 1.2019,0.533102 0.0129,0.01616 0.0242,0.02424 0.0339,0.02423 0.0291,4e-6 0.0614,-0.07754 0.0969,-0.232627 0.0388,-0.15831 0.084,-0.237468 0.1357,-0.237472 0.11954,4e-6 0.34732,0.03393 0.68334,0.101774 0.31986,0.06462 0.54925,0.119548 0.68819,0.164777 0.0485,0.01939 0.0727,0.04524 0.0727,0.07754 -1e-5,0.01293 -0.005,0.04685 -0.0145,0.101774 -0.1034,0.584801 -0.15509,1.203522 -0.15509,1.856165 m -1.56053,0.02908 c -1e-5,-0.274626 -0.0872,-0.500791 -0.26171,-0.678494 -0.17124,-0.180929 -0.39579,-0.271394 -0.67365,-0.271398 -0.27786,4e-6 -0.50241,0.08885 -0.67364,0.266551 -0.17124,0.177704 -0.25686,0.405484 -0.25686,0.683341 0,0.261706 0.0905,0.486255 0.2714,0.673647 0.18092,0.187395 0.40063,0.281092 0.6591,0.28109 0.27463,2e-6 0.49918,-0.08885 0.67365,-0.266551 0.17447,-0.18093 0.2617,-0.410325 0.26171,-0.688186"
       inkscape:connector-curvature="0" /></g><g
     id="text4082"
     style="font-size:11.89498997px;font-style:normal;font-variant:normal;font-weight:bold;font-stretch:normal;text-align:start;line-height:100%;letter-spacing:0px;word-spacing:0px;writing-mode:lr-tb;text-anchor:start;fill:#ffbb00;fill-opacity:1;stroke:none;font-family:Berlin Sans FB Demi;-inkscape-font-specification:Berlin Sans FB Demi Bold"
     transform="scale(0.99124905,1.0088282)"><path
       id="path4137"
       style="font-size:17.84248352px;fill:#ffbb00"
       d="m 13.615465,50.098415 c -1.1e-5,1.242937 -0.36592,2.273873 -1.097731,3.092814 -0.755062,0.847982 -1.745342,1.271973 -2.9708433,1.271974 -0.4472295,-10e-7 -0.9263973,-0.110354 -1.4375048,-0.331062 -0.5111171,-0.220708 -0.7434409,-0.331061 -0.696972,-0.331062 -0.075509,10e-7 -0.113262,0.08712 -0.1132579,0.261365 -4.1e-6,0.296213 0.014516,0.740532 0.043561,1.332959 0.029036,0.598232 0.043557,1.045455 0.043561,1.341671 -4.1e-6,0.185856 -0.095838,0.278786 -0.287501,0.278789 l -1.7772786,0.0087 C 4.9207378,57.02456 4.6622776,57.010043 4.546117,56.981003 4.3718724,56.940355 4.284751,56.832905 4.284752,56.658664 l 0.017424,-6.708355 c -1e-6,-1.353282 -0.1016427,-2.494572 -0.3049252,-3.423875 -0.011617,-0.05807 -0.017425,-0.107442 -0.017424,-0.148107 -8e-7,-0.08711 0.034848,-0.145194 0.1045458,-0.174243 0.2265148,-0.08711 0.6592178,-0.180043 1.2981103,-0.278789 0.621464,-0.09873 1.0715913,-0.148098 1.3503833,-0.148106 0.2265122,8e-6 0.3542903,0.151019 0.3833346,0.453032 0.034845,0.29622 0.075501,0.444327 0.1219701,0.444319 -0.058085,8e-6 0.1887591,-0.156811 0.7405328,-0.470456 0.5575723,-0.319437 1.0628765,-0.47916 1.5159141,-0.479168 1.2603502,8e-6 2.2680542,0.415287 3.0231162,1.245837 0.731811,0.801525 1.09772,1.844078 1.097731,3.127662 m -3.232208,-0.01742 c -7e-6,-0.464643 -0.142305,-0.87121 -0.4268952,-1.219701 -0.3078357,-0.365905 -0.6882659,-0.54886 -1.1412917,-0.548866 -0.4646531,6e-6 -0.8363711,0.182961 -1.1151552,0.548866 -0.2439444,0.331067 -0.3659144,0.737633 -0.3659103,1.219701 -4.1e-6,0.493692 0.127774,0.903163 0.3833346,1.228413 0.272976,0.354297 0.6505021,0.531444 1.1325795,0.531441 1.022219,3e-6 1.5333313,-0.586615 1.5333383,-1.759854"
       inkscape:connector-curvature="0" /><path
       id="path4139"
       style="font-size:17.84248352px;fill:#ffbb00"
       d="m 23.120421,50.002582 c -10e-6,1.324249 -0.406576,2.398747 -1.219701,3.223495 -0.807333,0.824751 -1.870215,1.237125 -3.188647,1.237126 -1.277786,-10e-7 -2.329051,-0.406567 -3.153799,-1.219702 -0.824751,-0.813132 -1.237125,-1.858589 -1.237125,-3.136374 0,-1.347473 0.39495,-2.439395 1.184852,-3.275768 0.7899,-0.842166 1.858589,-1.263253 3.206072,-1.263262 1.312624,9e-6 2.375505,0.412384 3.188647,1.237126 0.813125,0.818948 1.219691,1.884734 1.219701,3.197359 m -2.857586,0 c -6e-6,-0.458836 -0.142304,-0.862498 -0.426895,-1.210989 -0.284603,-0.354289 -0.653417,-0.531435 -1.106443,-0.531441 -0.458844,6e-6 -0.83637,0.180057 -1.13258,0.540153 -0.278792,0.336875 -0.418186,0.737633 -0.418183,1.202277 -3e-6,0.47046 0.139391,0.874122 0.418183,1.210988 0.29621,0.360105 0.673736,0.540156 1.13258,0.540154 0.453026,2e-6 0.827649,-0.180049 1.123867,-0.540154 0.272975,-0.336866 0.409465,-0.740528 0.409471,-1.210988"
       inkscape:connector-curvature="0" /><path
       id="path4141"
       style="font-size:17.84248352px;fill:#ffbb00"
       d="m 29.959458,48.86129 c -6e-6,0.226521 -0.12488,0.339779 -0.374622,0.339774 -0.11036,5e-6 -0.272987,-0.0058 -0.487881,-0.01742 -0.209097,-0.01742 -0.365915,-0.02613 -0.470456,-0.02614 -0.482077,5e-6 -0.810234,0.07551 -0.984473,0.226516 -0.174247,0.151015 -0.261368,0.45594 -0.261364,0.914776 -4e-6,0.249752 0.0029,0.630182 0.0087,1.141291 0.01161,0.505307 0.01742,0.882834 0.01742,1.13258 -4e-6,0.168436 0.01161,0.421088 0.03485,0.757957 0.02323,0.331062 0.03484,0.577906 0.03485,0.740533 -5e-6,0.139394 -0.09584,0.217804 -0.287501,0.235228 -0.278793,0.02323 -0.705688,0.03485 -1.280687,0.03485 -0.551771,0 -0.993186,-0.01742 -1.324246,-0.05227 -0.191669,-0.02323 -0.287502,-0.119066 -0.287501,-0.287501 -1e-6,-0.464648 0.0029,-1.158715 0.0087,-2.082204 0.0058,-0.929293 0.0087,-1.626264 0.0087,-2.090916 -10e-7,-1.364898 -0.124875,-2.488764 -0.374622,-3.371602 -0.01162,-0.05227 -0.01742,-0.09583 -0.01742,-0.130683 0,-0.08711 0.04356,-0.145194 0.130683,-0.174243 0.319444,-0.03484 0.786996,-0.09873 1.402656,-0.191667 0.917677,-0.180043 1.391036,-0.270068 1.42008,-0.270077 0.104542,9e-6 0.171336,0.182964 0.20038,0.548866 0.02904,0.365918 0.08131,0.548873 0.156818,0.548865 -0.08132,8e-6 0.156815,-0.151003 0.714397,-0.453032 0.557572,-0.307821 1.094821,-0.461735 1.611747,-0.461744 0.325248,9e-6 0.487874,0.06971 0.487881,0.209092 -7e-6,0.168443 -0.01743,0.406575 -0.05227,0.714396 -0.03486,0.331069 -0.05518,0.569201 -0.06098,0.714397 -7e-6,0.168441 0.0029,0.392053 0.0087,0.670835 0.01161,0.342684 0.01742,0.5692 0.01742,0.679548"
       inkscape:connector-curvature="0" /><path
       id="path4143"
       style="font-size:17.84248352px;fill:#ffbb00"
       d="m 36.807208,51.7363 c -6e-6,0.174245 -0.02324,0.438513 -0.0697,0.792805 -0.04066,0.354296 -0.06099,0.61566 -0.06098,0.784094 -7e-6,0.162627 -0.01743,0.267173 -0.05227,0.313637 -0.03486,0.04647 -0.130689,0.113259 -0.287501,0.20038 -0.74925,0.412375 -1.579808,0.618562 -2.491675,0.618562 -1.678543,0 -2.517812,-0.641794 -2.517811,-1.925385 -1e-6,-0.383332 0.01452,-0.958334 0.04356,-1.725006 0.02904,-0.772473 0.04356,-1.350378 0.04356,-1.733718 -10e-7,-0.255551 -0.148107,-0.383329 -0.444319,-0.383334 -0.02323,5e-6 -0.06099,5e-6 -0.113258,0 -0.05227,0.0058 -0.09003,0.0087 -0.113258,0.0087 -0.220708,6e-6 -0.331062,-0.0784 -0.331062,-0.235228 0,-0.09292 0.0058,-0.235222 0.01742,-0.426895 0.01742,-0.191661 0.02614,-0.33396 0.02614,-0.426896 -1e-6,-0.121963 -0.0087,-0.307822 -0.02614,-0.557577 -0.01162,-0.249741 -0.01742,-0.4356 -0.01742,-0.557578 0,-0.116154 0.185859,-0.180043 0.557578,-0.191667 0.20909,-0.0058 0.322348,-0.06388 0.339773,-0.174243 0.03485,-0.2207 0.04646,-0.569185 0.03485,-1.045458 -0.02323,-0.749235 -0.03485,-1.106433 -0.03485,-1.071595 -1e-6,-0.673728 0.06389,-1.010598 0.191668,-1.010609 0.156817,1.1e-5 0.380429,0.03486 0.670835,0.104546 0.33106,0.07552 0.560479,0.119077 0.68826,0.130682 0.29621,0.04067 0.743434,0.09584 1.341671,0.165531 0.145199,0.01163 0.2178,0.061 0.217804,0.148106 -4e-6,0.232335 -0.02033,0.583724 -0.06099,1.05417 -0.03485,0.470466 -0.05228,0.824759 -0.05227,1.062883 -4e-6,0.284605 0.08421,0.426903 0.252652,0.426895 0.203279,8e-6 0.511108,-0.0087 0.923488,-0.02614 0.41237,-0.01742 0.723103,-0.02613 0.9322,-0.02614 0.127772,8e-6 0.191661,0.04357 0.191668,0.130682 -7e-6,0.133595 -0.01453,0.333974 -0.04356,0.601139 -0.02905,0.26718 -0.04357,0.467559 -0.04356,0.601138 -6e-6,0.139401 0.0029,0.342685 0.0087,0.609851 0.0058,0.267178 0.0087,0.470462 0.0087,0.60985 -6e-6,0.121976 -0.08422,0.182961 -0.252652,0.182955 -0.116168,6e-6 -0.310739,-0.0029 -0.583714,-0.0087 -0.272986,-0.01161 -0.467557,-0.01742 -0.583714,-0.01742 l -0.653411,0 c -0.08713,5e-6 -0.130687,0.127783 -0.130683,0.383334 -4e-6,0.1394 -4e-6,0.345587 0,0.618563 0.0058,0.278793 0.0087,0.484981 0.0087,0.618563 -4e-6,0.487884 0.05517,0.824753 0.16553,1.010609 0.156815,0.249751 0.464644,0.374625 0.923488,0.374623 0.145198,2e-6 0.351385,-0.03194 0.618563,-0.09583 0.272975,-0.06969 0.464642,-0.104543 0.575002,-0.104546 0.121964,3e-6 0.182949,0.06389 0.182955,0.191668"
       inkscape:connector-curvature="0" /><path
       id="path4145"
       style="font-size:17.84248352px;fill:#ffbb00"
       d="m 46.70421,46.369615 c -1e-5,0.429807 -0.02034,1.074505 -0.06099,1.934097 -0.04067,0.859604 -0.06099,1.504303 -0.06099,1.934098 -1e-5,0.418187 0.01451,1.045461 0.04356,1.881824 0.02903,0.836368 0.04355,1.460738 0.04356,1.873112 -9e-6,0.156819 -0.07261,0.255557 -0.217803,0.296214 -0.220717,0.05808 -0.688269,0.08712 -1.402657,0.08712 -0.63309,0 -1.074505,-0.01742 -1.324246,-0.05227 -0.110361,-0.01742 -0.180058,-0.08712 -0.209092,-0.209091 -0.01743,-0.174243 -0.03486,-0.348486 -0.05227,-0.52273 -0.02905,-0.267171 -0.0697,-0.400757 -0.12197,-0.400758 0.08131,10e-7 -0.212002,0.197476 -0.879927,0.592426 -0.667936,0.394951 -1.274882,0.592426 -1.82084,0.592426 -1.539148,0 -2.451019,-0.694067 -2.735615,-2.082204 -0.127779,-0.644696 -0.191668,-1.5798 -0.191667,-2.805312 -10e-7,-1.324241 0.107449,-2.369698 0.32235,-3.136374 0.06389,-0.238124 0.182953,-0.35719 0.357198,-0.357198 0.267171,8e-6 0.673737,0.0029 1.219701,0.0087 0.545958,0.0058 0.952525,0.0087 1.219701,0.0087 0.180047,8e-6 0.270072,0.07551 0.270076,0.226516 -4e-6,0.04066 -0.0058,0.101649 -0.01742,0.182955 -0.121974,0.789909 -0.182959,1.591426 -0.182955,2.404553 -4e-6,1.010614 0.03194,1.701777 0.09583,2.073492 0.104541,0.638894 0.484971,0.958339 1.141291,0.958337 0.255551,2e-6 0.531436,-0.113256 0.827655,-0.339774 0.302014,-0.226513 0.458833,-0.461741 0.470456,-0.705684 0.01161,-0.214896 0.01742,-1.672728 0.01742,-4.3735 -7e-6,-0.191659 0.01451,-0.304917 0.04356,-0.339774 0.03484,-0.05807 0.139387,-0.08711 0.313637,-0.08712 0.28459,8e-6 0.711485,0.0029 1.280686,0.0087 0.574993,0.0058 1.004792,0.0087 1.289398,0.0087 0.174234,8e-6 0.275875,0.04357 0.304926,0.130682 0.01161,0.04647 0.01741,0.11617 0.01742,0.209092"
       inkscape:connector-curvature="0" /><path
       id="path4147"
       style="font-size:17.84248352px;fill:#ffbb00"
       d="m 56.83644,52.0238 c -9e-6,1.65531 -0.348495,2.843065 -1.045458,3.56327 -0.720212,0.737627 -1.916679,1.106441 -3.589406,1.106443 -0.487884,-2e-6 -1.152911,-0.07841 -1.995082,-0.235228 -1.0745,-0.197477 -1.611749,-0.429801 -1.611748,-0.696972 -10e-7,-0.110355 0.124873,-0.679549 0.374623,-1.707582 0.04066,-0.162626 0.104544,-0.243939 0.191667,-0.24394 0.02904,0.0058 0.06098,0.01743 0.09583,0.03485 0.894445,0.441415 1.722099,0.662123 2.482963,0.662123 0.418179,0 0.833457,-0.104546 1.245838,-0.313637 0.49949,-0.249748 0.749238,-0.563385 0.749245,-0.940912 l 0,-0.583714 c -0.592432,0.557578 -1.353293,0.836367 -2.282584,0.836366 -1.091925,1e-6 -1.989276,-0.392046 -2.692054,-1.17614 -0.679548,-0.755051 -1.019322,-1.684346 -1.019322,-2.787888 0,-1.109342 0.325253,-2.029925 0.975761,-2.761752 0.679546,-0.760853 1.568184,-1.141283 2.665918,-1.141292 0.877018,9e-6 1.547853,0.313646 2.012507,0.940913 0.09292,0.127785 0.156812,0.191674 0.191667,0.191667 0.05227,7e-6 0.0784,-0.104538 0.07841,-0.313637 -6e-6,-0.46464 0.05227,-0.696964 0.156819,-0.696973 0.09292,9e-6 0.595323,0.04938 1.507202,0.148107 0.911863,0.09294 1.385223,0.145211 1.420081,0.156819 0.09873,0.03486 0.148097,0.110362 0.148106,0.226516 -9e-6,0.400766 -0.01453,0.999 -0.04356,1.794703 -0.02324,0.795715 -0.03486,1.393948 -0.03485,1.794703 -10e-6,0.238136 0.0029,0.595334 0.0087,1.071594 0.0058,0.476267 0.0087,0.833465 0.0087,1.071594 m -3.014404,-2.413265 c -6e-6,-0.423986 -0.142305,-0.789896 -0.426895,-1.097731 -0.278795,-0.313631 -0.630184,-0.47045 -1.05417,-0.470456 -0.423996,6e-6 -0.77829,0.159729 -1.062883,0.479168 -0.278792,0.313643 -0.418186,0.682457 -0.418183,1.106443 -3e-6,0.423996 0.142295,0.789906 0.426895,1.097731 0.290401,0.307833 0.641791,0.461747 1.054171,0.461744 0.423986,3e-6 0.775375,-0.156815 1.05417,-0.470456 0.28459,-0.313634 0.426889,-0.682448 0.426895,-1.106443"
       inkscape:connector-curvature="0" /><path
       id="path4149"
       style="font-size:17.84248352px;fill:#ffbb00"
       d="m 67.090642,49.932884 c -9e-6,0.447228 0.02613,1.112255 0.07841,1.995083 0.05226,0.882833 0.0784,1.544955 0.07841,1.98637 -1e-5,0.232324 -0.101651,0.357198 -0.304925,0.374623 -0.720213,0.05227 -1.544963,0.07841 -2.474251,0.07841 -0.110361,0 -0.185866,-0.165531 -0.226516,-0.496593 -0.03486,-0.336869 -0.07842,-0.508208 -0.130682,-0.514017 -0.04647,0.02323 -0.107456,0.0726 -0.182955,0.148107 -0.650513,0.656315 -1.347485,0.984473 -2.090916,0.984473 -1.132583,0 -2.07059,-0.447224 -2.814025,-1.341671 -0.702781,-0.836365 -1.05417,-1.835357 -1.05417,-2.99698 0,-1.341665 0.363005,-2.421971 1.089019,-3.24092 0.755051,-0.847974 1.788891,-1.271965 3.101525,-1.271974 0.911866,9e-6 1.63207,0.319454 2.160613,0.958337 0.02323,0.02905 0.04355,0.04357 0.06099,0.04356 0.05227,7e-6 0.110347,-0.139387 0.174243,-0.418184 0.06969,-0.284588 0.151004,-0.426886 0.243941,-0.426895 0.214892,9e-6 0.624363,0.06099 1.228413,0.182955 0.574993,0.11617 0.987367,0.214908 1.237125,0.296213 0.08711,0.03486 0.130673,0.08132 0.130682,0.139395 -9e-6,0.02324 -0.0087,0.08423 -0.02614,0.182955 -0.185869,1.051273 -0.278798,2.163523 -0.278789,3.336753 m -2.805312,0.05227 c -7e-6,-0.493683 -0.156825,-0.90025 -0.470456,-1.219701 -0.307836,-0.325247 -0.711498,-0.487874 -1.210989,-0.48788 -0.499501,6e-6 -0.903164,0.159728 -1.210989,0.479168 -0.307833,0.319451 -0.461747,0.728922 -0.461744,1.228413 -3e-6,0.47046 0.162623,0.874123 0.48788,1.210989 0.32525,0.336873 0.7202,0.505307 1.184853,0.505305 0.493683,2e-6 0.897345,-0.15972 1.210989,-0.479168 0.313631,-0.325251 0.470449,-0.737625 0.470456,-1.237126"
       inkscape:connector-curvature="0" /><path
       id="path4151"
       style="font-size:17.84248352px;fill:#ffbb00"
       d="m 71.995583,49.044245 c -4e-6,1.585615 0.0058,2.802411 0.01743,3.650391 -4e-6,0.133588 0.0087,0.363008 0.02614,0.68826 0.01742,0.296214 0.02613,0.525633 0.02614,0.68826 -4e-6,0.12197 -0.07261,0.194571 -0.217804,0.217804 -0.261368,0.04646 -0.731824,0.0697 -1.411368,0.0697 -0.696974,0 -1.141293,-0.02323 -1.332959,-0.0697 -0.12778,-0.02904 -0.200381,-0.10745 -0.217804,-0.235229 -10e-7,-0.01742 -10e-7,-0.142298 0,-0.374622 -10e-7,-0.51692 0.0058,-1.289396 0.01742,-2.317432 0.01161,-1.033838 0.01742,-1.806314 0.01742,-2.317432 0,-2.439394 0.0029,-3.551644 0.0087,-3.336753 -0.01743,-1.283581 -0.09003,-2.390023 -0.217804,-3.31933 -0.01162,-0.06388 -0.01742,-0.113246 -0.01742,-0.148106 0,-0.127766 0.0755,-0.191655 0.226516,-0.191667 l 3.110238,0 c 0.145198,1.2e-5 0.211991,0.061 0.200379,0.182955 l -0.0087,0.156818 c -0.151014,2.509109 -0.22652,4.727801 -0.226516,6.656083"
       inkscape:connector-curvature="0" /></g></g></svg>