<?xml version="1.0" encoding="UTF-8" standalone="no"?>
<!-- Created with Inkscape (http://www.inkscape.org/) -->

<svg
   xmlns:dc="http://purl.org/dc/elements/1.1/"
   xmlns:cc="http://creativecommons.org/ns#"
   xmlns:rdf="http://www.w3.org/1999/02/22-rdf-syntax-ns#"
   xmlns:svg="http://www.w3.org/2000/svg"
   xmlns="http://www.w3.org/2000/svg"
   version="1.1"
   width="143"
   height="59"
   viewBox="0 0 143 59"
   id="lay"
   xml:space="preserve"><metadata
   id="metadata93"><rdf:RDF><cc:Work
       rdf:about=""><dc:format>image/svg+xml</dc:format><dc:type
         rdf:resource="http://purl.org/dc/dcmitype/StillImage" /><dc:title></dc:title></cc:Work></rdf:RDF></metadata><defs
   id="defs91">
	
	
	
	
	
	
	
	
	
	
	
	
	
	
	
	
	
	
	
	
	
	
	
	
	

</defs>




<text
   x="3.6931818"
   y="29.738636"
   id="text3042"
   xml:space="preserve"
   style="font-size:56px;font-style:normal;font-variant:normal;font-weight:bold;font-stretch:normal;text-align:start;line-height:100%;letter-spacing:0px;word-spacing:0px;writing-mode:lr-tb;text-anchor:start;fill:#000000;fill-opacity:1;stroke:none;font-family:Berlin Sans FB Demi;-inkscape-font-specification:Berlin Sans FB Demi Bold"><tspan
     x="3.6931818"
     y="29.738636"
     id="tspan3044" /></text>





<text
   x="6.534091"
   y="28.602274"
   id="text3046"
   xml:space="preserve"
   style="font-size:56px;font-style:normal;font-variant:normal;font-weight:bold;font-stretch:normal;text-align:start;line-height:100%;letter-spacing:0px;word-spacing:0px;writing-mode:lr-tb;text-anchor:start;fill:#000000;fill-opacity:1;stroke:none;font-family:Berlin Sans FB Demi;-inkscape-font-specification:Berlin Sans FB Demi Bold"><tspan
     x="6.534091"
     y="28.602274"
     id="tspan3048" /></text>





<g
   transform="matrix(1.0344265,0,0,1.0015372,0.18239291,0.38358303)"
   id="g6932"><path
     d="m 19.626548,23.084837 c -1.9e-5,0.436846 -0.236358,0.65526 -0.709016,0.655243 -1.963448,1.7e-5 -3.508739,-0.05459 -4.635879,-0.16381 0.05453,1.365105 0.109067,3.267127 0.16362,5.706072 0.01817,1.037478 0.09997,2.839394 0.245429,5.405753 0.127245,2.311555 0.190875,4.11347 0.190889,5.405753 -1.4e-5,0.382225 -0.254533,0.600639 -0.763556,0.655243 -0.61813,0.0728 -2.163421,0.109207 -4.6358781,0.109207 -2.0543369,0 -3.3905591,-0.0546 -4.0086705,-0.163811 C 4.8553651,40.58528 4.5463069,40.212156 4.5463109,39.575113 l 0,-15.043281 c -4e-6,-0.527818 -0.3636018,-0.791735 -1.0907947,-0.791752 -0.1272622,1.7e-5 -0.336331,0.0091 -0.6272069,0.02731 -0.2727007,0.01821 -0.4726796,0.02732 -0.5999371,0.0273 -0.5090387,10e-6 -0.7726471,-0.145599 -0.7908261,-0.436835 -0.16362,-1.583484 -0.2454295,-3.885932 -0.2454288,-6.907351 -7e-7,-0.673418 0.3454173,-1.082945 1.0362549,-1.22858 0.6181147,-0.05458 1.245321,-0.10008 1.8816208,-0.136509 C 4.01909,13.629347 3.9736403,12.491774 3.9736437,11.672692 3.9736403,8.542121 4.5826667,6.266975 5.8007248,4.847247 8.2186454,2.026102 12.127323,0.615511 17.526768,0.615471 c 0.363581,4e-5 0.58174,0.109247 0.654477,0.327621 0.145421,0.819093 0.35449,2.02947 0.627207,3.631137 0.01816,0.145646 0.136331,0.655278 0.354508,1.5289 0.1636,0.673478 0.24541,1.192211 0.245429,1.556202 -1.9e-5,0.436861 -0.645405,0.718979 -1.936161,0.846354 -1.490768,0.163843 -2.408853,0.436861 -2.754256,0.819054 -0.599951,0.655273 -0.899919,1.938457 -0.899906,3.849552 -1.3e-5,0.600665 0.04543,1.164902 0.13635,1.69271 0.509023,2.6e-5 1.299849,-0.01817 2.372478,-0.0546 1.072598,-0.03638 1.881603,-0.05458 2.427018,-0.0546 0.545379,2.6e-5 0.818077,0.200239 0.818096,0.600639 -1.9e-5,0.85548 0.0091,2.147764 0.02727,3.876854 0.01816,1.710931 0.02725,2.994113 0.02727,3.84955"
     id="path4363"
     style="font-size:55.8813591px;font-style:normal;font-variant:normal;font-weight:bold;font-stretch:normal;text-align:start;line-height:100%;letter-spacing:0px;word-spacing:0px;writing-mode:lr-tb;text-anchor:start;fill:#3d8e8e;fill-opacity:1;stroke:none;font-family:Berlin Sans FB Demi;-inkscape-font-specification:Berlin Sans FB Demi Bold" /><path
     d="m 40.678886,23.685476 c -2.1e-5,0.709863 -0.390888,1.064786 -1.172604,1.06477 -0.345438,1.6e-5 -0.854475,-0.01818 -1.527112,-0.0546 -0.654494,-0.05459 -1.145351,-0.08189 -1.472574,-0.08191 -1.508947,1.6e-5 -2.536111,0.236632 -3.081494,0.709846 -0.54541,0.473246 -0.818109,1.428808 -0.818097,2.866687 -1.2e-5,0.782664 0.0091,1.97484 0.02727,3.576534 0.03635,1.583511 0.05453,2.766587 0.05454,3.549231 -1.3e-5,0.52784 0.03635,1.319591 0.10908,2.375256 0.07271,1.03747 0.109066,1.811019 0.109079,2.320651 -1.3e-5,0.436829 -0.299981,0.682545 -0.899906,0.737149 -0.872646,0.0728 -2.208869,0.109207 -4.00867,0.109207 -1.727097,0 -3.10877,-0.0546 -4.14502,-0.163811 -0.59994,-0.0728 -0.899908,-0.373124 -0.899905,-0.900959 -3e-6,-1.456092 0.0091,-3.631133 0.02727,-6.525126 0.01818,-2.912179 0.02726,-5.09632 0.02727,-6.552428 -3e-6,-4.27726 -0.390872,-7.799187 -1.172605,-10.565789 -0.03636,-0.163786 -0.05454,-0.300295 -0.05454,-0.409527 -2e-6,-0.272992 0.136347,-0.455005 0.409047,-0.546036 0.999892,-0.109181 2.463374,-0.309394 4.390449,-0.600639 2.872416,-0.56421 4.354078,-0.846328 4.444989,-0.846355 0.327226,2.7e-5 0.536295,0.573363 0.627206,1.720012 0.09089,1.146699 0.254507,1.720036 0.490857,1.720012 -0.25453,2.4e-5 0.490846,-0.473206 2.236129,-1.419693 1.745256,-0.964637 3.426897,-1.446968 5.044926,-1.446994 1.018056,2.6e-5 1.527092,0.218441 1.527113,0.655244 -2.1e-5,0.527859 -0.05456,1.274106 -0.163619,2.238745 -0.109101,1.03749 -0.172729,1.783738 -0.19089,2.238746 -2e-5,0.527856 0.0091,1.228601 0.02727,2.102237 0.03634,1.073889 0.05452,1.783734 0.05454,2.129539"
     id="path4365"
     style="font-size:55.8813591px;font-style:normal;font-variant:normal;font-weight:bold;font-stretch:normal;text-align:start;line-height:100%;letter-spacing:0px;word-spacing:0px;writing-mode:lr-tb;text-anchor:start;fill:#3d8e8e;fill-opacity:1;stroke:none;font-family:Berlin Sans FB Demi;-inkscape-font-specification:Berlin Sans FB Demi Bold" /><path
     d="m 71.930153,15.877167 c -3.1e-5,1.346912 -0.06366,3.367241 -0.19089,6.060996 -0.127289,2.693792 -0.190919,4.714121 -0.190889,6.060995 -3e-5,1.310497 0.04542,3.276224 0.136349,5.897185 0.09087,2.620976 0.136319,4.577601 0.13635,5.869883 -3.1e-5,0.491433 -0.227279,0.800852 -0.681747,0.928261 -0.690866,0.182011 -2.154347,0.273018 -4.390448,0.273018 -1.981634,0 -3.363306,-0.0546 -4.145021,-0.163811 -0.345439,-0.0546 -0.563597,-0.273018 -0.654476,-0.655242 -0.05456,-0.546036 -0.1091,-1.092071 -0.163619,-1.638108 -0.09092,-0.837252 -0.218179,-1.255878 -0.381779,-1.255881 0.254499,3e-6 -0.663586,0.618842 -2.754255,1.85652 -2.090705,1.237682 -3.990505,1.856522 -5.699403,1.856522 -4.817683,0 -7.671926,-2.17504 -8.562738,-6.525126 -0.399961,-2.020324 -0.599939,-4.950712 -0.599937,-8.791174 -2e-6,-4.149852 0.336325,-7.426062 1.008984,-9.828642 0.199976,-0.746223 0.572663,-1.119347 1.118065,-1.119373 0.836271,2.6e-5 2.108864,0.0091 3.817781,0.02731 1.708902,0.01823 2.981495,0.02733 3.817782,0.02731 0.563565,2.6e-5 0.845353,0.236641 0.845366,0.709846 -1.3e-5,0.127433 -0.01819,0.318546 -0.05454,0.573338 -0.381791,2.475383 -0.572679,4.987145 -0.572667,7.535292 -1.2e-5,3.16702 0.09998,5.33296 0.299969,6.497824 0.327225,2.002139 1.518008,3.003203 3.572352,3.003195 0.799899,8e-6 1.663444,-0.354914 2.590637,-1.064769 0.945336,-0.709837 1.436193,-1.446984 1.472573,-2.211444 0.03634,-0.673433 0.05452,-5.241926 0.05454,-13.705495 -2e-5,-0.600614 0.04543,-0.955537 0.136349,-1.06477 0.109059,-0.181985 0.436297,-0.272991 0.981716,-0.273017 0.890793,2.6e-5 2.227015,0.0091 4.00867,0.02731 1.799784,0.01823 3.145096,0.02733 4.035941,0.02731 0.545367,2.6e-5 0.863515,0.136535 0.954444,0.409526 0.03633,0.145635 0.05451,0.364049 0.05454,0.655243"
     id="path4367"
     style="font-size:55.8813591px;font-style:normal;font-variant:normal;font-weight:bold;font-stretch:normal;text-align:start;line-height:100%;letter-spacing:0px;word-spacing:0px;writing-mode:lr-tb;text-anchor:start;fill:#3d8e8e;fill-opacity:1;stroke:none;font-family:Berlin Sans FB Demi;-inkscape-font-specification:Berlin Sans FB Demi Bold" /><path
     d="m 126.96066,27.207407 c -2e-5,-1.547086 -0.49087,-2.821168 -1.47257,-3.82225 -0.96355,-1.019248 -2.22706,-1.528881 -3.79051,-1.5289 -1.56349,1.9e-5 -2.82699,0.500552 -3.79051,1.501598 -0.96355,1.001082 -1.44532,2.284264 -1.44531,3.849552 -1e-5,1.474308 0.50903,2.739289 1.52712,3.794947 1.01806,1.055678 2.25429,1.583512 3.7087,1.583503 1.54528,9e-6 2.80878,-0.500524 3.79051,-1.501598 0.9817,-1.019256 1.47255,-2.311538 1.47257,-3.876852 m 8.78098,-0.163811 c -3e-5,1.401503 0.0818,3.485538 0.24543,6.252108 0.16359,2.766585 0.2454,4.841519 0.24543,6.224807 -3e-5,0.728047 -0.31818,1.119372 -0.95445,1.173976 -2.25434,0.163811 -4.83588,0.245716 -7.74463,0.245716 -0.34544,0 -0.58178,-0.518734 -0.70902,-1.556201 -0.10911,-1.055667 -0.24546,-1.592601 -0.40905,-1.610806 -0.14547,0.07281 -0.33635,0.227518 -0.57267,0.46413 -2.03616,2.056735 -4.21776,3.085101 -6.54477,3.085102 -3.54509,-1e-6 -6.48115,-1.40149 -8.80816,-4.204474 -2.19978,-2.620966 -3.29966,-5.751567 -3.29965,-9.391813 -1e-5,-4.204458 1.13623,-7.589876 3.40872,-10.156263 2.36339,-2.657349 5.59941,-3.986034 9.70807,-3.986061 2.85423,2.7e-5 5.10854,1.001092 6.76294,3.003196 0.0726,0.09103 0.13633,0.136533 0.19088,0.136509 0.1636,2.4e-5 0.3454,-0.436804 0.5454,-1.310485 0.21814,-0.891833 0.47266,-1.337761 0.76356,-1.337787 0.67263,2.6e-5 1.95432,0.191139 3.84505,0.573337 1.79978,0.364049 3.09055,0.673469 3.87231,0.928261 0.27267,0.109232 0.40903,0.254841 0.40906,0.436828 -3e-5,0.07283 -0.0273,0.263941 -0.0819,0.573337 -0.58178,3.294436 -0.87266,6.77996 -0.87263,10.456583"
     id="path4792"
     style="font-size:55.8813591px;font-style:normal;font-variant:normal;font-weight:bold;font-stretch:normal;text-align:start;line-height:100%;letter-spacing:0px;word-spacing:0px;writing-mode:lr-tb;text-anchor:start;fill:#3d8e8e;fill-opacity:1;stroke:none;font-family:Berlin Sans FB Demi;-inkscape-font-specification:Berlin Sans FB Demi Bold" /><path
     d="m 92.076124,25.215285 c -0.576973,0.01742 -0.972166,0.457041 -0.927971,1.004198 0.04811,0.583994 0.397477,0.839209 0.950766,0.82656 0.507641,-0.01262 0.917239,-0.440553 0.861299,-0.932509 -0.06255,-0.542949 -0.384934,-0.850419 -0.884094,-0.898249 z m 0.853614,-5.577351 c -0.0028,3.41e-4 -0.0093,0.0011 -0.01231,0.002 -0.95298,-0.0023 -1.594555,1.369607 -1.793785,1.848494 -0.154034,0.37043 -0.434276,0.323446 -0.777309,0.191827 -1.109476,-0.240516 -1.766369,-0.156078 -2.570427,0.154165 -0.715125,0.275928 -1.325507,0.83816 -1.81336,1.444616 -0.335845,0.417488 -0.519762,0.947472 -0.717918,1.450196 -0.101307,0.257109 -0.162501,0.529072 -0.239083,0.795203 -0.825542,-0.382681 -0.93009,1.451872 -1.044092,1.43067 -0.184973,0.02005 -0.08733,-1.433256 -0.493694,-1.469031 -0.505687,-0.04457 -0.565086,2.381033 0.438314,2.459546 0.889009,0.06965 1.029357,-1.487541 1.091389,-1.480888 0.06201,0.007 0.0097,0.665815 0.0858,1.01702 0.305078,1.392473 0.565758,1.713377 1.445957,2.592082 0.560325,0.559332 0.330921,1.153982 0.192483,1.653179 -0.165788,0.558109 0.115923,0.954275 0.367399,1.004462 0.389059,0.07762 1.195745,0.09784 1.643838,-0.01673 0.251569,-0.03197 0.397952,-0.499357 0.252596,-0.924249 -0.176303,-0.516462 -0.0209,-1.267357 0.523407,-1.238145 0.246219,0.01307 1.030857,-0.0128 1.413542,0.03139 0.415071,0.048 0.5572,0.674483 0.450471,1.141182 -0.190579,0.557885 -0.08218,0.971796 0.306613,1.029577 0.350982,0.07497 1.116668,0.07455 1.633041,-0.02721 0.311957,-0.08257 0.588503,-0.494226 0.422777,-0.96052 -0.256299,-0.576618 -0.236551,-1.308663 -0.0162,-1.530409 0.163569,-0.164879 0.437709,-0.392323 0.588957,-0.470145 1.130511,-0.827037 1.269022,-1.218902 1.543202,-2.846025 0.08649,-0.512657 -0.34096,-0.407165 -0.870559,-0.407366 -0.630043,-5.72e-4 -0.712407,-0.0013 -0.77127,-0.604771 -0.09487,-0.97627 -0.366822,-1.755714 -0.926594,-2.541866 -0.218651,-0.244927 -0.105311,-0.479813 -0.09186,-0.804967 0.02197,-0.529788 0.01093,-1.061023 0.02365,-1.591101 0.0043,-0.248395 -0.04063,-1.321214 -0.273521,-1.332312 -0.0027,-1.79e-4 -0.0088,-3.39e-4 -0.01171,0 z m 10.715272,13.95809 c -3e-5,5.18734 -1.09082,8.90948 -3.27239,11.166428 -2.254327,2.311545 -5.999385,3.467319 -11.23518,3.467326 -1.527125,-7e-6 -3.608723,-0.245722 -6.244799,-0.737148 -3.363289,-0.618846 -5.044929,-1.346893 -5.044925,-2.184141 -4e-6,-0.345828 0.390863,-2.129543 1.172604,-5.35115 0.127254,-0.509632 0.327233,-0.764449 0.599937,-0.76445 0.0909,0.0182 0.190883,0.0546 0.299968,0.109207 2.799699,1.383291 5.390333,2.074935 7.771913,2.074935 1.308938,0 2.608801,-0.327622 3.899591,-0.982864 1.563453,-0.782649 2.345189,-1.765513 2.345208,-2.948593 l 0,-1.829219 c -1.854368,1.747318 -4.235934,2.620974 -7.144705,2.620971 -3.417832,3e-6 -6.226626,-1.228576 -8.426389,-3.685741 -2.127052,-2.366145 -3.190576,-5.278333 -3.190575,-8.736569 -10e-7,-3.476409 1.018074,-6.361295 3.054226,-8.654666 2.127043,-2.384329 4.908567,-3.576506 8.344579,-3.576533 2.745151,2.7e-5 4.844929,0.98289 6.299339,2.948592 0.29086,0.40045 0.490839,0.600664 0.599937,0.60064 0.1636,2.4e-5 0.245409,-0.327598 0.245429,-0.982864 -2e-5,-1.456069 0.1636,-2.184116 0.490858,-2.184143 0.290858,2.7e-5 1.863419,0.154737 4.717686,0.46413 2.854218,0.291246 4.335878,0.455056 4.444988,0.491433 0.30903,0.109232 0.46356,0.345848 0.46359,0.709846 -3e-5,1.255906 -0.0455,3.130626 -0.13635,5.624167 -0.0728,2.49358 -0.10911,4.3683 -0.10908,5.624167 -3e-5,0.746262 0.009,1.865634 0.0273,3.358119 0.0182,1.492507 0.0272,2.611878 0.0273,3.35812"
     id="path4724"
     style="fill:#3d8e8e" /></g><g
   transform="matrix(1.0775173,0,0,0.96148488,0.18239291,0.38358303)"
   id="text6407"
   style="font-size:22.88127708px;font-style:normal;font-variant:normal;font-weight:bold;font-stretch:normal;text-align:start;line-height:100%;letter-spacing:0px;word-spacing:0px;writing-mode:lr-tb;text-anchor:start;fill:#ff9900;fill-opacity:1;stroke:none;font-family:Berlin Sans FB Demi;-inkscape-font-specification:Berlin Sans FB Demi Bold"><path
     d="m 12.290882,46.688052 c -1.1e-5,-0.134057 -0.02439,0.06705 -0.07313,0.603314 -0.06705,0.676456 -0.118845,1.541816 -0.155399,2.596082 -0.04876,1.194451 -0.07314,2.553431 -0.07313,4.076946 -1e-5,2.516862 0.07007,4.308523 0.210246,5.374987 0.01218,0.115788 0.01827,0.188917 0.01828,0.219387 -10e-6,0.06703 -0.04572,0.106647 -0.137117,0.118835 -0.219397,0.03047 -1.026863,0.04571 -2.4224001,0.04571 -0.3290883,0 -0.5180049,-0.06399 -0.5667503,-0.191964 -0.012195,-0.231575 -0.024384,-0.46315 -0.036564,-0.694726 -0.0061,-0.04875 -0.030478,-0.0975 -0.073129,-0.146258 -0.036572,0.01828 -0.082277,0.05485 -0.137117,0.109693 -0.658168,0.645974 -1.4808693,0.96896 -2.4681062,0.96896 -1.2858561,0 -2.3157562,-0.450962 -3.0897033,-1.352887 -0.7373856,-0.859265 -1.1060776,-1.944012 -1.1060773,-3.254244 -3e-7,-1.328506 0.3625976,-2.422394 1.087795,-3.281667 0.767853,-0.914105 1.8038472,-1.371161 3.1079856,-1.37117 0.920202,9e-6 1.6362568,0.292525 2.1481665,0.877548 0.085311,0.09751 0.1462513,0.146267 0.1828227,0.146259 0.05484,8e-6 0.082263,-0.07922 0.08227,-0.23767 -7e-6,-0.469236 -0.012195,-1.170055 -0.036564,-2.102461 -0.024383,-0.932384 -0.036572,-1.630157 -0.036565,-2.093319 -6.9e-6,-0.176716 0.048746,-0.277269 0.1462582,-0.301658 0.3900143,-0.01827 0.9262936,-0.05483 1.6088402,-0.109693 1.218808,-0.15234 1.758134,-0.228516 1.617981,-0.228529 0.134059,1.3e-5 0.201094,0.07619 0.201105,0.228529 M 8.8446715,55.088758 C 8.8446645,54.60733 8.6770772,54.186838 8.3419091,53.827281 8.006728,53.461642 7.6014715,53.27882 7.1261383,53.278813 c -0.4997202,7e-6 -0.8988826,0.182829 -1.1974886,0.548468 -0.2925201,0.359557 -0.4387781,0.792237 -0.4387744,1.298041 -3.7e-6,0.493626 0.1493014,0.91107 0.4479155,1.252336 0.3047001,0.365648 0.7008155,0.54847 1.1883475,0.548468 0.4875213,2e-6 0.8958249,-0.18282 1.2249119,-0.548468 0.329074,-0.365642 0.4936143,-0.795275 0.4936213,-1.2889"
     id="path6951"
     style="font-size:18.72104263px;fill:#ff9900" /><path
     d="m 22.017048,54.695685 c -9e-6,0.615507 -0.198067,0.965917 -0.594173,1.05123 -0.06704,0.01219 -0.697782,0.07923 -1.892215,0.201105 -0.719109,0.07923 -1.791667,0.173685 -3.217679,0.283376 0.08531,0.396118 0.344312,0.697776 0.776996,0.904972 0.353453,0.170637 0.755662,0.255954 1.20663,0.255952 0.542368,2e-6 1.087788,-0.146256 1.636263,-0.438775 0.231568,-0.146255 0.463143,-0.292513 0.694726,-0.438774 0.127968,0.06094 0.341261,0.371742 0.639879,0.932395 0.304696,0.560658 0.457048,0.917162 0.457057,1.069513 -9e-6,0.04266 -0.04572,0.112742 -0.137117,0.210246 -0.743487,0.798326 -1.898316,1.197488 -3.46449,1.197489 -1.450397,-10e-7 -2.620461,-0.423539 -3.510195,-1.270618 -0.914115,-0.859265 -1.371171,-2.007999 -1.37117,-3.446207 -10e-7,-1.401635 0.408303,-2.55037 1.224911,-3.446208 0.840982,-0.926293 1.9562,-1.389443 3.345656,-1.389452 1.170059,9e-6 2.163394,0.426595 2.980009,1.279758 0.8166,0.85318 1.224903,1.867845 1.224912,3.043998 m -3.199397,-0.557609 c -6e-6,-0.377828 -0.134075,-0.709955 -0.40221,-0.996384 -0.268145,-0.286415 -0.588084,-0.429626 -0.959819,-0.429633 -0.383932,7e-6 -0.700824,0.1615 -0.950678,0.48448 -0.231578,0.298617 -0.347366,0.649026 -0.347363,1.05123 -3e-6,0.164546 0.08531,0.246816 0.255952,0.246811 0.450959,5e-6 1.151778,-0.07008 2.102461,-0.210246 0.201099,-0.03046 0.301651,-0.07922 0.301657,-0.146258"
     id="path6953"
     style="font-size:18.72104263px;fill:#ff9900" /><path
     d="m 26.368227,54.156358 c -4e-6,1.66369 0.0061,2.940401 0.01828,3.830135 -4e-6,0.140166 0.0091,0.380882 0.02742,0.72215 0.01828,0.310799 0.02742,0.551515 0.02742,0.722149 -4e-6,0.127976 -0.07618,0.204152 -0.228528,0.228529 -0.274238,0.04875 -0.767858,0.07313 -1.480864,0.07313 -0.731292,0 -1.197489,-0.02438 -1.398593,-0.07313 -0.134071,-0.03047 -0.210247,-0.112741 -0.228528,-0.246811 -1e-6,-0.01828 -1e-6,-0.149305 0,-0.393069 -1e-6,-0.542372 0.0061,-1.352885 0.01828,-2.431541 0.01219,-1.084744 0.01828,-1.895257 0.01828,-2.431542 -10e-7,-2.559509 0.003,-3.726526 0.0091,-3.501054 -0.01828,-1.346784 -0.09446,-2.507707 -0.228528,-3.482772 -0.01219,-0.06702 -0.01828,-0.118822 -0.01828,-0.1554 -1e-6,-0.134057 0.07922,-0.201092 0.237669,-0.201105 l 3.263385,0 c 0.152348,1.3e-5 0.22243,0.064 0.210246,0.191964 l -0.0091,0.164541 c -0.158451,2.632656 -0.237674,4.960596 -0.23767,6.983826"
     id="path6955"
     style="font-size:18.72104263px;fill:#ff9900" /><path
     d="m 31.670086,48.671678 c -5e-6,1.060381 -0.597225,1.590566 -1.791662,1.590557 -0.511906,9e-6 -0.935445,-0.13406 -1.270618,-0.40221 -0.365646,-0.292506 -0.548469,-0.688622 -0.548468,-1.188347 -1e-6,-0.475328 0.188916,-0.865349 0.56675,-1.170066 0.347362,-0.280315 0.764806,-0.420479 1.252336,-0.420492 0.475336,1.3e-5 0.886686,0.143224 1.234053,0.429634 0.371735,0.304716 0.557604,0.69169 0.557609,1.160924 m -0.23767,6.791862 c -4e-6,0.444873 0.0091,1.109128 0.02742,1.992768 0.01828,0.87755 0.02742,1.535711 0.02742,1.974484 -4e-6,0.127976 -0.07618,0.204152 -0.228528,0.228529 -0.207203,0.03656 -0.6734,0.05485 -1.398594,0.05485 -0.731292,0 -1.200537,-0.01828 -1.407734,-0.05485 -0.134071,-0.02438 -0.216341,-0.06399 -0.246811,-0.118835 -0.01219,-0.02438 -0.01828,-0.115787 -0.01828,-0.274234 -10e-7,-0.420491 0.0091,-1.051229 0.02742,-1.892215 0.01828,-0.847075 0.02742,-1.483907 0.02742,-1.910497 -1e-6,-1.730715 -0.06704,-3.107978 -0.201105,-4.131792 -0.01219,-0.0975 -0.01828,-0.161485 -0.01828,-0.191964 0,-0.121873 0.08227,-0.182814 0.246811,-0.182823 0.170633,9e-6 0.429632,0.01829 0.776996,0.05485 0.353455,0.03657 0.618548,0.05485 0.795279,0.05485 0.176726,8e-6 0.441819,-0.01523 0.795279,-0.04571 0.353453,-0.03046 0.618546,-0.0457 0.795278,-0.04571 0.146254,9e-6 0.219383,0.06095 0.219388,0.182823 -5e-6,0.02439 -0.0061,0.08228 -0.01828,0.173682 -0.134074,1.188354 -0.201109,2.565617 -0.201105,4.131792"
     id="path6957"
     style="font-size:18.72104263px;fill:#ff9900" /><path
     d="m 43.114786,55.189306 c -1.1e-5,1.279762 -0.365656,2.349274 -1.096936,3.208538 -0.780053,0.914114 -1.797765,1.37117 -3.053139,1.37117 -0.914119,0 -1.651503,-0.262045 -2.212155,-0.786137 -0.04266,-0.03656 -0.07923,-0.05485 -0.109693,-0.05485 -0.06094,10e-7 -0.118839,0.112741 -0.173682,0.338222 -0.04876,0.225482 -0.109697,0.35041 -0.182822,0.374787 -0.103604,0.03047 -0.972011,0.0457 -2.605224,0.0457 -0.383928,0 -0.575892,-0.07008 -0.575891,-0.210246 -10e-7,-0.01828 0.0061,-0.06399 0.01828,-0.137117 0.121881,-0.968959 0.182822,-2.815466 0.182823,-5.539527 -1e-6,-2.602168 -0.09141,-4.86612 -0.274234,-6.791863 l -0.0091,-0.100552 c -10e-7,-0.09749 0.09446,-0.15234 0.283375,-0.164541 0.134069,-0.0061 0.664254,-0.05179 1.590557,-0.137117 0.652065,-0.06093 1.18225,-0.0914 1.590558,-0.09141 0.115783,1.3e-5 0.173677,0.100566 0.173681,0.301657 -4e-6,0.237683 -0.01524,0.551528 -0.04571,0.941537 -0.03657,0.481445 -0.0579,0.798337 -0.06399,0.950678 -0.03047,0.603325 -0.04571,1.426027 -0.0457,2.468106 -4e-6,0.188925 0.04875,0.283384 0.146258,0.283376 0.04875,8e-6 0.09445,-0.02437 0.137117,-0.07313 0.548463,-0.585023 1.267565,-0.877539 2.157308,-0.877548 1.334597,9e-6 2.376686,0.454018 3.126267,1.362029 0.694716,0.840991 1.042079,1.947067 1.04209,3.318231 m -3.309091,-0.100552 c -7e-6,-0.505805 -0.155406,-0.93239 -0.466198,-1.279759 -0.310805,-0.353451 -0.716061,-0.530179 -1.21577,-0.530186 -0.511909,7e-6 -0.917166,0.176735 -1.215771,0.530186 -0.292521,0.347369 -0.438779,0.780049 -0.438775,1.298041 -4e-6,0.536284 0.143207,0.968964 0.429634,1.298041 0.304699,0.347366 0.719097,0.521047 1.243194,0.521045 0.517991,2e-6 0.929342,-0.179773 1.234053,-0.539327 0.286415,-0.335171 0.429626,-0.767851 0.429633,-1.298041"
     id="path6959"
     style="font-size:18.72104263px;fill:#ff9900" /><path
     d="m 52.621565,54.695685 c -9e-6,0.615507 -0.198067,0.965917 -0.594173,1.05123 -0.06704,0.01219 -0.697782,0.07923 -1.892215,0.201105 -0.719109,0.07923 -1.791667,0.173685 -3.217679,0.283376 0.08531,0.396118 0.344312,0.697776 0.776996,0.904972 0.353453,0.170637 0.755662,0.255954 1.20663,0.255952 0.542368,2e-6 1.087788,-0.146256 1.636263,-0.438775 0.231568,-0.146255 0.463143,-0.292513 0.694726,-0.438774 0.127968,0.06094 0.341261,0.371742 0.639879,0.932395 0.304696,0.560658 0.457048,0.917162 0.457057,1.069513 -9e-6,0.04266 -0.04571,0.112742 -0.137117,0.210246 -0.743487,0.798326 -1.898316,1.197488 -3.46449,1.197489 -1.450397,-10e-7 -2.620461,-0.423539 -3.510195,-1.270618 -0.914115,-0.859265 -1.371171,-2.007999 -1.371171,-3.446207 0,-1.401635 0.408304,-2.55037 1.224912,-3.446208 0.840982,-0.926293 1.9562,-1.389443 3.345656,-1.389452 1.170059,9e-6 2.163394,0.426595 2.980009,1.279758 0.816599,0.85318 1.224903,1.867845 1.224912,3.043998 m -3.199397,-0.557609 c -6e-6,-0.377828 -0.134075,-0.709955 -0.40221,-0.996384 -0.268145,-0.286415 -0.588084,-0.429626 -0.959819,-0.429633 -0.383932,7e-6 -0.700824,0.1615 -0.950678,0.48448 -0.231578,0.298617 -0.347366,0.649026 -0.347363,1.05123 -3e-6,0.164546 0.08531,0.246816 0.255952,0.246811 0.450959,5e-6 1.151778,-0.07008 2.102461,-0.210246 0.201099,-0.03046 0.301651,-0.07922 0.301657,-0.146258"
     id="path6961"
     style="font-size:18.72104263px;fill:#ff9900" /><path
     d="m 59.705945,53.964394 c -6e-6,0.237675 -0.131029,0.35651 -0.393068,0.356505 -0.115794,5e-6 -0.286429,-0.0061 -0.511904,-0.01828 -0.219393,-0.01828 -0.383933,-0.02742 -0.493621,-0.02742 -0.505814,5e-6 -0.85013,0.07923 -1.032948,0.237669 -0.182827,0.158452 -0.274238,0.478391 -0.274234,0.959819 -4e-6,0.26205 0.003,0.661213 0.0091,1.197489 0.01218,0.530188 0.01828,0.926304 0.01828,1.188347 -4e-6,0.176731 0.01218,0.441823 0.03656,0.795279 0.02437,0.347364 0.03656,0.606362 0.03656,0.776996 -4e-6,0.146259 -0.100556,0.228529 -0.301657,0.246811 -0.29252,0.02438 -0.740435,0.03657 -1.343747,0.03657 -0.57894,0 -1.042091,-0.01828 -1.389452,-0.05485 -0.201106,-0.02438 -0.301659,-0.124929 -0.301658,-0.301658 -10e-7,-0.487526 0.003,-1.215769 0.0091,-2.184731 0.0061,-0.97505 0.0091,-1.70634 0.0091,-2.193872 0,-1.432105 -0.131023,-2.61131 -0.393068,-3.537619 -0.01219,-0.05484 -0.01828,-0.100544 -0.01828,-0.137117 0,-0.0914 0.04571,-0.152343 0.137117,-0.182822 0.335174,-0.03656 0.825748,-0.103591 1.471723,-0.201105 0.962863,-0.188908 1.459531,-0.283367 1.490005,-0.283376 0.10969,9e-6 0.179772,0.191973 0.210246,0.575892 0.03047,0.383936 0.08531,0.575899 0.16454,0.575891 -0.08532,8e-6 0.164537,-0.158438 0.749573,-0.475339 0.585028,-0.322978 1.14873,-0.484471 1.69111,-0.48448 0.341262,9e-6 0.511897,0.07314 0.511904,0.219388 -7e-6,0.176737 -0.01829,0.426594 -0.05485,0.749573 -0.03657,0.34737 -0.0579,0.597228 -0.06399,0.749573 -7e-6,0.176735 0.003,0.411357 0.0091,0.703867 0.01218,0.359557 0.01828,0.597226 0.01828,0.713008"
     id="path6963"
     style="font-size:18.72104263px;fill:#ff9900" /><path
     d="m 69.962298,55.088754 c -1e-5,0.469249 0.02741,1.167021 0.08227,2.093319 0.05484,0.926304 0.08226,1.621029 0.08227,2.084179 -1e-5,0.243764 -0.106657,0.374787 -0.31994,0.393069 -0.755676,0.05485 -1.621036,0.08227 -2.596082,0.08227 -0.115795,0 -0.195018,-0.173681 -0.23767,-0.521045 -0.03657,-0.353456 -0.08228,-0.533231 -0.137117,-0.539327 -0.04876,0.02438 -0.112747,0.07618 -0.191963,0.1554 -0.682544,0.688632 -1.413834,1.032948 -2.193873,1.032948 -1.18835,0 -2.172545,-0.469245 -2.952586,-1.407735 -0.737386,-0.877547 -1.106078,-1.925729 -1.106077,-3.14455 -1e-6,-1.407729 0.38088,-2.541228 1.142642,-3.400502 0.792229,-0.889728 1.876976,-1.334596 3.254243,-1.334605 0.956767,9e-6 1.712433,0.335183 2.267002,1.005524 0.02437,0.03048 0.0457,0.04571 0.06399,0.04571 0.05484,8e-6 0.11578,-0.14625 0.182822,-0.438774 0.07312,-0.298602 0.158439,-0.447907 0.255952,-0.447916 0.225474,9e-6 0.655106,0.064 1.2889,0.191964 0.603305,0.12189 1.035985,0.22549 1.298041,0.310798 0.0914,0.03657 0.137107,0.08533 0.137117,0.146259 -1e-5,0.02438 -0.0092,0.08837 -0.02742,0.191963 -0.195021,1.103038 -0.292527,2.270055 -0.292517,3.501055 m -2.943445,0.05485 c -7e-6,-0.517993 -0.164547,-0.944579 -0.493621,-1.279759 -0.322993,-0.341263 -0.746532,-0.511897 -1.270618,-0.511904 -0.524096,7e-6 -0.947635,0.167594 -1.270617,0.502763 -0.322991,0.33518 -0.484484,0.764813 -0.484481,1.2889 -3e-6,0.493625 0.170631,0.917164 0.511904,1.270617 0.341265,0.35346 0.755662,0.530189 1.243194,0.530186 0.517992,3e-6 0.941531,-0.167585 1.270618,-0.502762 0.329074,-0.341266 0.493614,-0.773946 0.493621,-1.298041"
     id="path6965"
     style="font-size:18.72104263px;fill:#ff9900" /><path
     d="m 77.982115,51.011808 c -7e-6,-0.08937 -0.01626,0.0447 -0.04875,0.402209 -0.0447,0.450971 -0.07923,1.027877 -0.103599,1.730722 -0.03251,0.7963 -0.04876,1.702287 -0.04875,2.717964 -7e-6,1.677908 0.04672,2.872348 0.140164,3.583325 0.0081,0.07719 0.01218,0.125944 0.01219,0.146258 -6e-6,0.04469 -0.03048,0.0711 -0.09141,0.07922 -0.146265,0.02031 -0.684575,0.03047 -1.614934,0.03047 -0.219392,0 -0.345336,-0.04266 -0.377833,-0.127975 -0.0081,-0.154384 -0.01626,-0.308767 -0.02438,-0.463151 -0.0041,-0.0325 -0.02032,-0.065 -0.04875,-0.09751 -0.02438,0.01219 -0.05485,0.03656 -0.09141,0.07313 -0.438778,0.43065 -0.987246,0.645974 -1.645404,0.645974 -0.857237,0 -1.543837,-0.300642 -2.059802,-0.901925 -0.491591,-0.572843 -0.737385,-1.296008 -0.737385,-2.169496 0,-0.885671 0.241732,-1.614929 0.725197,-2.187779 0.511902,-0.609403 1.202565,-0.914107 2.07199,-0.914113 0.613468,6e-6 1.090838,0.195017 1.432111,0.585033 0.05687,0.06501 0.0975,0.09751 0.121882,0.0975 0.03656,5e-6 0.05484,-0.05281 0.05485,-0.158446 -5e-6,-0.312824 -0.0081,-0.780037 -0.02438,-1.401641 -0.01626,-0.621589 -0.02438,-1.086771 -0.02438,-1.395546 -4e-6,-0.117811 0.0325,-0.184846 0.09751,-0.201105 0.260009,-0.01218 0.617529,-0.03656 1.072559,-0.07313 0.812539,-0.10156 1.17209,-0.152344 1.078654,-0.152353 0.08937,9e-6 0.134063,0.05079 0.13407,0.152353 m -2.297472,5.600468 c -4e-6,-0.320952 -0.111729,-0.60128 -0.335175,-0.840984 -0.223454,-0.24376 -0.493625,-0.365642 -0.810513,-0.365646 -0.333147,4e-6 -0.599256,0.121886 -0.798326,0.365646 -0.195014,0.239704 -0.292519,0.528157 -0.292517,0.86536 -2e-6,0.329084 0.09954,0.60738 0.298611,0.834891 0.203133,0.243765 0.46721,0.365647 0.792232,0.365645 0.325014,2e-6 0.597216,-0.12188 0.816608,-0.365645 0.219382,-0.243762 0.329076,-0.530183 0.32908,-0.859267"
     id="path6967"
     style="font-size:12.48069572px;fill:#ff9900" /><path
     d="m 85.008604,56.612276 c -7e-6,0.312833 0.01828,0.778014 0.05485,1.395547 0.03656,0.617535 0.05484,1.080685 0.05485,1.389452 -7e-6,0.162509 -0.07111,0.249858 -0.213293,0.262046 -0.503785,0.03656 -1.080691,0.05485 -1.730722,0.05485 -0.0772,0 -0.130012,-0.115788 -0.158446,-0.347363 -0.02438,-0.235638 -0.05485,-0.355488 -0.09141,-0.359552 -0.03251,0.01625 -0.07516,0.05079 -0.127975,0.1036 -0.45503,0.459088 -0.942557,0.688632 -1.462582,0.688632 -0.792234,0 -1.448364,-0.31283 -1.968391,-0.93849 -0.49159,-0.585031 -0.737385,-1.283819 -0.737385,-2.096367 0,-0.938486 0.25392,-1.694152 0.761761,-2.267001 0.528153,-0.593152 1.251318,-0.889731 2.169496,-0.889737 0.637845,6e-6 1.141622,0.223456 1.511335,0.67035 0.01625,0.02032 0.03047,0.03048 0.04266,0.03047 0.03656,5e-6 0.07719,-0.0975 0.121882,-0.292516 0.04875,-0.199068 0.105626,-0.298605 0.170634,-0.298611 0.150316,6e-6 0.436738,0.04266 0.859267,0.127976 0.402204,0.08126 0.690657,0.150327 0.865361,0.207199 0.06093,0.02438 0.0914,0.05688 0.09141,0.09751 -7e-6,0.01626 -0.0061,0.05891 -0.01828,0.127976 -0.130014,0.735358 -0.195018,1.513369 -0.195011,2.334036 m -1.962297,0.03656 c -4e-6,-0.345329 -0.109698,-0.629719 -0.329081,-0.853173 -0.215328,-0.227509 -0.497687,-0.341265 -0.847078,-0.341269 -0.349398,4e-6 -0.631757,0.111729 -0.847079,0.335175 -0.215327,0.223453 -0.322989,0.509875 -0.322986,0.859267 -3e-6,0.329083 0.113754,0.611442 0.341269,0.847078 0.227509,0.23564 0.503775,0.353459 0.828796,0.353457 0.345328,2e-6 0.627687,-0.111723 0.847078,-0.335175 0.219383,-0.22751 0.329077,-0.515963 0.329081,-0.86536"
     id="path6969"
     style="font-size:12.48069572px;fill:#ff9900" /><path
     d="m 95.959687,59.43384 c -1e-5,0.142195 -0.06095,0.221418 -0.182822,0.237669 -0.121892,0.01625 -0.422534,0.02438 -0.901926,0.02438 -0.495661,0 -0.804428,-0.01219 -0.926301,-0.03656 -0.12189,-0.02438 -0.182831,-0.123913 -0.182823,-0.298611 -8e-6,-0.186884 0.0061,-0.465181 0.01828,-0.83489 0.01218,-0.373769 0.01827,-0.654097 0.01828,-0.840984 -8e-6,-0.710975 -0.0081,-1.216784 -0.02438,-1.517429 -0.02438,-0.48346 -0.253928,-0.725192 -0.688632,-0.725196 -0.190955,4e-6 -0.381903,0.08126 -0.572844,0.243763 -0.186893,0.15845 -0.290492,0.335179 -0.310799,0.530186 -0.01626,0.170638 -0.02438,0.670353 -0.02438,1.499146 -7e-6,0.19095 0.0061,0.481435 0.01828,0.871455 0.01218,0.38596 0.01828,0.676444 0.01828,0.871455 -6e-6,0.13407 -0.05892,0.201105 -0.176728,0.201105 l -1.84651,0 c -0.11376,0 -0.170639,-0.08329 -0.170634,-0.249858 -5e-6,-0.190948 0.0061,-0.477369 0.01828,-0.859266 0.01218,-0.381895 0.01828,-0.670349 0.01828,-0.865361 -4e-6,-0.150319 -0.0041,-0.377831 -0.01219,-0.682538 -0.0081,-0.304702 -0.01219,-0.534246 -0.01219,-0.688632 -4e-6,-0.580966 -0.221423,-0.871451 -0.664256,-0.871455 -0.178763,4e-6 -0.371743,0.06907 -0.578938,0.207199 -0.227516,0.150325 -0.341272,0.308771 -0.341269,0.475339 -3e-6,0.369711 0.002,0.922241 0.0061,1.657592 0.0041,0.735355 0.0061,1.285854 0.0061,1.651499 -3e-6,0.101568 -0.01219,0.16454 -0.03656,0.188916 -0.02438,0.02438 -0.08735,0.04063 -0.188916,0.04875 -0.182826,0.01625 -0.471279,0.02438 -0.865361,0.02438 -0.255953,0 -0.546438,-0.01219 -0.871455,-0.03656 -0.09751,-0.0081 -0.156416,-0.02235 -0.176729,-0.04266 -0.01625,-0.02031 -0.02438,-0.08125 -0.02438,-0.182822 -10e-7,-0.325018 0.002,-0.810513 0.0061,-1.456488 0.0041,-0.650034 0.0061,-1.137561 0.0061,-1.462581 0,-0.666284 -0.04875,-1.415856 -0.146258,-2.24872 -0.0081,-0.04875 -0.01219,-0.08531 -0.01219,-0.109693 -10e-7,-0.06906 0.02844,-0.115782 0.08532,-0.140164 0.08938,-0.03656 0.257982,-0.06703 0.50581,-0.09141 0.304703,-0.02843 0.485494,-0.04671 0.542374,-0.05485 0.04063,-0.0081 0.201103,-0.05078 0.481433,-0.127976 0.199071,-0.05687 0.359548,-0.08531 0.481433,-0.08532 0.07719,6e-6 0.117816,0.142202 0.121882,0.426587 0.0041,0.280333 0.02031,0.420497 0.04875,0.420492 0.04063,-0.01625 0.08735,-0.04469 0.140164,-0.08532 0.365642,-0.284386 0.654096,-0.479396 0.865361,-0.585033 0.312826,-0.150315 0.652063,-0.225475 1.017713,-0.225481 0.373766,6e-6 0.706909,0.08329 0.999431,0.249857 0.329074,0.186891 0.542367,0.448937 0.639879,0.786138 0.215318,-0.292511 0.511897,-0.538306 0.889737,-0.737385 0.377826,-0.199067 0.745503,-0.298604 1.10303,-0.29861 0.536271,6e-6 0.973014,0.123919 1.31023,0.371739 0.381886,0.280334 0.572834,0.680512 0.572844,1.200536 -1e-5,0.215329 -0.0061,0.540346 -0.01828,0.975054 -0.0122,0.430652 -0.01829,0.753639 -0.01828,0.968961 -1.1e-5,0.255954 0.0061,0.641912 0.01828,1.157877 0.01218,0.511904 0.01827,0.895831 0.01828,1.151783"
     id="path6971"
     style="font-size:12.48069572px;fill:#ff9900" /><path
     d="m 102.69975,56.35023 c -10e-6,0.410338 -0.13204,0.643945 -0.39612,0.70082 -0.0447,0.0081 -0.46518,0.05282 -1.26147,0.13407 -0.47941,0.05282 -1.194447,0.11579 -2.145121,0.188917 0.05687,0.264079 0.229541,0.465184 0.517997,0.603315 0.235635,0.113758 0.503775,0.170636 0.804424,0.170635 0.36157,10e-7 0.72519,-0.0975 1.09084,-0.292517 0.15438,-0.0975 0.30876,-0.195009 0.46315,-0.292516 0.0853,0.04063 0.22751,0.247828 0.42659,0.621597 0.20313,0.373772 0.30469,0.611441 0.3047,0.713009 -1e-5,0.02844 -0.0305,0.07516 -0.0914,0.140164 -0.49566,0.532217 -1.26555,0.798325 -2.30966,0.798325 -0.966933,0 -1.746976,-0.282359 -2.340132,-0.847078 -0.60941,-0.572843 -0.914114,-1.338666 -0.914114,-2.297472 0,-0.934423 0.272203,-1.700246 0.816609,-2.297472 0.560654,-0.617528 1.304132,-0.926295 2.230436,-0.926301 0.780041,6e-6 1.442261,0.284396 1.986671,0.853172 0.5444,0.568787 0.8166,1.24523 0.81661,2.029332 m -2.13293,-0.371739 c 0,-0.251885 -0.0894,-0.473304 -0.26814,-0.664256 -0.17876,-0.190944 -0.392057,-0.286418 -0.63988,-0.286422 -0.255955,4e-6 -0.467216,0.107666 -0.633785,0.322986 -0.154386,0.199078 -0.231578,0.432685 -0.231576,0.700821 -2e-6,0.109697 0.05688,0.164544 0.170635,0.16454 0.300639,4e-6 0.767852,-0.04672 1.401636,-0.140164 0.13407,-0.02031 0.20111,-0.05281 0.20111,-0.09751"
     id="path6973"
     style="font-size:12.48069572px;fill:#ff9900" /><path
     d="m 112.72758,59.394228 c -1e-5,0.16454 -0.0853,0.258999 -0.25596,0.283375 -0.17064,0.02438 -0.61551,0.03657 -1.3346,0.03657 -0.76786,0 -1.2432,-0.01828 -1.42602,-0.05485 -0.18283,-0.03656 -0.27424,-0.161493 -0.27423,-0.374787 -10e-6,-0.286421 0.009,-0.719101 0.0274,-1.298041 0.0183,-0.578936 0.0274,-1.014663 0.0274,-1.307182 0,-0.225478 -0.006,-0.560653 -0.0183,-1.005525 -0.0122,-0.450958 -0.0183,-0.789179 -0.0183,-1.014666 -1e-5,-0.834884 -0.36261,-1.252329 -1.0878,-1.252335 -0.23767,6e-6 -0.51495,0.103606 -0.83184,0.310799 -0.34127,0.231581 -0.51191,0.460109 -0.5119,0.685585 l 0,4.936212 c -1e-5,0.201105 -0.0945,0.313846 -0.28338,0.338222 -0.21329,0.02438 -0.64902,0.03657 -1.30718,0.03657 -0.71301,0 -1.17616,-0.01828 -1.38945,-0.05485 -0.18892,-0.03047 -0.28338,-0.131023 -0.28338,-0.301658 0,-0.475338 0.003,-1.191393 0.009,-2.148166 0.006,-0.956769 0.009,-1.675871 0.009,-2.157308 0,-1.517422 -0.11883,-2.708815 -0.3565,-3.574183 -0.0122,-0.05484 -0.0183,-0.100544 -0.0183,-0.137117 0,-0.0975 0.0457,-0.164532 0.13712,-0.201105 0.38392,-0.04265 0.89583,-0.109685 1.53571,-0.201105 0.96895,-0.188908 1.51437,-0.283366 1.63626,-0.283375 0.067,9e-6 0.11883,0.207208 0.1554,0.621597 0.0366,0.408312 0.0884,0.612464 0.1554,0.612456 -0.067,8e-6 0.25899,-0.210238 0.9781,-0.630738 0.72519,-0.426578 1.35897,-0.639871 1.90135,-0.63988 0.77395,9e-6 1.41992,0.182832 1.93793,0.548468 0.57892,0.4205 0.86839,1.005532 0.8684,1.755098 l 0,2.916022 c -1e-5,0.396119 0.003,0.990292 0.009,1.782521 0.006,0.786139 0.009,1.377265 0.009,1.77338"
     id="path6975"
     style="font-size:18.72104263px;fill:#ff9900" /><path
     d="m 120.36042,56.980969 c -1e-5,0.182825 -0.0244,0.460106 -0.0731,0.831843 -0.0427,0.371741 -0.064,0.645974 -0.064,0.822702 0,0.170635 -0.0183,0.280329 -0.0548,0.329081 -0.0366,0.04875 -0.13713,0.118835 -0.30166,0.210246 -0.78614,0.43268 -1.6576,0.64902 -2.61436,0.64902 -1.7612,0 -2.64179,-0.673396 -2.64179,-2.02019 0,-0.402208 0.0152,-1.005522 0.0457,-1.809945 0.0305,-0.810509 0.0457,-1.416871 0.0457,-1.819086 0,-0.268134 -0.1554,-0.402204 -0.4662,-0.40221 -0.0244,6e-6 -0.064,6e-6 -0.11883,0 -0.0549,0.0061 -0.0945,0.0091 -0.11884,0.0091 -0.23157,5e-6 -0.34736,-0.08226 -0.34736,-0.246811 0,-0.0975 0.006,-0.246804 0.0183,-0.447916 0.0183,-0.201098 0.0274,-0.350403 0.0274,-0.447915 0,-0.127969 -0.009,-0.32298 -0.0274,-0.585033 -0.0122,-0.262038 -0.0183,-0.457048 -0.0183,-0.585032 0,-0.121874 0.19501,-0.188909 0.58503,-0.201105 0.21939,-0.0061 0.33822,-0.06703 0.35651,-0.182823 0.0366,-0.231567 0.0487,-0.597212 0.0366,-1.096936 -0.0244,-0.786127 -0.0366,-1.160913 -0.0366,-1.12436 -1e-5,-0.706902 0.067,-1.060359 0.2011,-1.060371 0.16454,1.2e-5 0.39916,0.03658 0.70387,0.109694 0.34736,0.07923 0.58807,0.12494 0.72215,0.137117 0.31079,0.04267 0.78004,0.100564 1.40773,0.173681 0.15235,0.0122 0.22853,0.064 0.22853,0.155399 0,0.243775 -0.0213,0.612467 -0.064,1.106078 -0.0366,0.493631 -0.0549,0.86537 -0.0548,1.115218 -10e-6,0.298619 0.0884,0.447924 0.26509,0.447916 0.21329,8e-6 0.53627,-0.0091 0.96896,-0.02742 0.43267,-0.01827 0.75871,-0.02742 0.9781,-0.02742 0.13406,8e-6 0.2011,0.04571 0.2011,0.137117 0,0.140172 -0.0152,0.350418 -0.0457,0.630738 -0.0305,0.280336 -0.0457,0.490582 -0.0457,0.630738 0,0.146265 0.003,0.359558 0.009,0.63988 0.006,0.280334 0.009,0.493627 0.009,0.639879 -10e-6,0.127982 -0.0884,0.19197 -0.2651,0.191964 -0.12189,6e-6 -0.32604,-0.003 -0.61245,-0.0091 -0.28643,-0.01218 -0.49058,-0.01828 -0.61246,-0.01828 l -0.68558,0 c -0.0914,6e-6 -0.13713,0.134076 -0.13712,0.40221 -1e-5,0.146264 -1e-5,0.362604 0,0.649021 0.006,0.292521 0.009,0.508861 0.009,0.64902 0,0.511907 0.0579,0.865364 0.17368,1.060372 0.16454,0.262049 0.48752,0.393071 0.96896,0.393069 0.15235,2e-6 0.36869,-0.03352 0.64902,-0.100553 0.28642,-0.07313 0.48752,-0.109691 0.60332,-0.109693 0.12797,2e-6 0.19195,0.06704 0.19196,0.201105"
     id="path6977"
     style="font-size:18.72104263px;fill:#ff9900" /><path
     d="m 129.7118,54.695685 c -1e-5,0.615507 -0.19806,0.965917 -0.59417,1.05123 -0.067,0.01219 -0.69778,0.07923 -1.89222,0.201105 -0.71911,0.07923 -1.79166,0.173685 -3.21768,0.283376 0.0853,0.396118 0.34432,0.697776 0.777,0.904972 0.35345,0.170637 0.75566,0.255954 1.20663,0.255952 0.54237,2e-6 1.08779,-0.146256 1.63626,-0.438775 0.23157,-0.146255 0.46315,-0.292513 0.69473,-0.438774 0.12797,0.06094 0.34126,0.371742 0.63988,0.932395 0.30469,0.560658 0.45705,0.917162 0.45706,1.069513 -1e-5,0.04266 -0.0457,0.112742 -0.13712,0.210246 -0.74349,0.798326 -1.89832,1.197488 -3.46449,1.197489 -1.4504,-10e-7 -2.62046,-0.423539 -3.5102,-1.270618 -0.91411,-0.859265 -1.37117,-2.007999 -1.37117,-3.446207 0,-1.401635 0.40831,-2.55037 1.22492,-3.446208 0.84098,-0.926293 1.95619,-1.389443 3.34565,-1.389452 1.17006,9e-6 2.16339,0.426595 2.98001,1.279758 0.8166,0.85318 1.2249,1.867845 1.22491,3.043998 m -3.1994,-0.557609 c 0,-0.377828 -0.13407,-0.709955 -0.4022,-0.996384 -0.26815,-0.286415 -0.58809,-0.429626 -0.95982,-0.429633 -0.38394,7e-6 -0.70083,0.1615 -0.95068,0.48448 -0.23158,0.298617 -0.34737,0.649026 -0.34737,1.05123 0,0.164546 0.0853,0.246816 0.25596,0.246811 0.45096,5e-6 1.15177,-0.07008 2.10246,-0.210246 0.2011,-0.03046 0.30165,-0.07922 0.30165,-0.146258"
     id="path6979"
     style="font-size:18.72104263px;fill:#ff9900" /></g><g
   transform="matrix(1.017849,0,0,1.017849,0.18239291,0.38358303)"
   id="text6447"
   style="font-size:13.75449562px;font-style:normal;font-variant:normal;font-weight:bold;font-stretch:normal;text-align:start;line-height:100%;letter-spacing:0px;word-spacing:0px;writing-mode:lr-tb;text-anchor:start;fill:#3d8e8e;fill-opacity:1;stroke:none;font-family:Berlin Sans FB Demi;-inkscape-font-specification:Berlin Sans FB Demi Bold"><path
     d="m 82.332238,5.8402984 c -8e-6,0.8750114 -0.02815,1.3918279 -0.08443,1.550451 -0.117699,0.3633104 -0.470772,0.9799082 -1.059219,1.8497954 -0.511707,0.7470831 -0.94921,1.3304202 -1.312511,1.7500142 -0.133047,0.158627 -0.534731,0.23794 -1.205053,0.23794 -0.583342,0 -0.962,-0.02047 -1.135974,-0.0614 -0.10746,-0.02558 -0.197008,-0.07676 -0.268643,-0.15351 C 76.959386,10.680981 76.521883,10.10276 75.953898,9.2789223 75.344974,8.3936841 74.981667,7.7873202 74.863977,7.4598289 74.736052,7.1067599 74.672089,6.577151 74.672089,5.8710004 c 0,-0.1995575 0.0026,-0.4989017 0.0077,-0.8980334 0.0051,-0.4042364 0.0077,-0.7086976 0.0077,-0.9133845 0,-0.1330347 0.08955,-0.1995557 0.268643,-0.199563 0.260966,7.3e-6 0.652416,0.00768 1.174351,0.023027 0.527049,0.015358 0.921058,0.023034 1.182027,0.023026 0.117688,7.3e-6 0.176534,0.079321 0.176537,0.2379405 -3e-6,0.1432829 -0.01024,0.3607551 -0.0307,0.6524175 -0.02047,0.286558 -0.0307,0.5040303 -0.0307,0.6524174 -3e-6,0.5321732 0.01535,0.9671177 0.04605,1.304835 0.01535,0.1739822 0.16374,0.5014699 0.445179,0.9824639 0.291665,0.5065859 0.50402,0.7598772 0.637066,0.7598745 0.127921,2.7e-6 0.332601,-0.2481716 0.61404,-0.7445235 0.271196,-0.4656431 0.41703,-0.7828967 0.437504,-0.9517619 0.04093,-0.3633023 0.0614,-0.8033638 0.0614,-1.320186 -6e-6,-0.1483871 -0.01536,-0.3709764 -0.04605,-0.6677684 -0.03071,-0.3018964 -0.04606,-0.5244856 -0.04605,-0.6677685 -6e-6,-0.1586198 0.05372,-0.2379332 0.161185,-0.2379405 0.122803,7.3e-6 0.304456,0.00257 0.544961,0.00768 0.245609,0.00512 0.429821,0.00768 0.552636,0.00768 0.122801,7.3e-6 0.307013,-0.010227 0.552636,-0.030702 0.250725,-0.020461 0.437496,-0.030695 0.560311,-0.030702 0.127917,7.3e-6 0.212348,0.066528 0.253292,0.199563 0.08698,0.2916758 0.130475,0.8852472 0.130483,1.7807159"
     id="path6940"
     style="font-size:15.71942329px;fill:#3d8e8e;fill-opacity:1" /><path
     d="m 86.430955,1.9411446 c -4e-6,0.8903663 -0.501469,1.3355448 -1.504398,1.3355369 -0.42983,7.9e-6 -0.785461,-0.112566 -1.066895,-0.3377219 -0.30702,-0.2456076 -0.46053,-0.5782122 -0.46053,-0.997815 0,-0.3991164 0.158627,-0.726604 0.475881,-0.98246396 0.291668,-0.23537154 0.642182,-0.35306242 1.051544,-0.35307298 0.399123,1.056e-5 0.74452,0.12025993 1.036192,0.36074848 0.312134,0.25585996 0.468202,0.58078906 0.468206,0.97478846 m -0.199563,5.7028962 c -4e-6,0.3735442 0.0077,0.9312966 0.02303,1.673259 0.01535,0.7368492 0.02302,1.2894842 0.02303,1.6579082 -4e-6,0.107457 -0.06397,0.171419 -0.191888,0.191887 -0.173981,0.0307 -0.565431,0.04605 -1.174351,0.04605 -0.614042,0 -1.00805,-0.01535 -1.182027,-0.04605 -0.112575,-0.02047 -0.181654,-0.05373 -0.207239,-0.09978 -0.01023,-0.02047 -0.01535,-0.09722 -0.01535,-0.230265 0,-0.353073 0.0077,-0.8826815 0.02303,-1.5888287 0.01535,-0.7112604 0.02303,-1.2459863 0.02303,-1.6041795 0,-1.4532229 -0.05629,-2.6096637 -0.168861,-3.4693258 -0.01023,-0.081865 -0.01535,-0.1355934 -0.01535,-0.1611855 0,-0.1023327 0.06908,-0.1535027 0.207239,-0.15351 0.143275,7.3e-6 0.360747,0.015358 0.652417,0.046053 0.296785,0.030709 0.519374,0.04606 0.667769,0.046053 0.148391,7.2e-6 0.37098,-0.012785 0.667768,-0.038378 0.296783,-0.025578 0.519372,-0.03837 0.667769,-0.038378 0.122804,7.3e-6 0.184208,0.051177 0.184212,0.15351 -4e-6,0.020475 -0.0051,0.069087 -0.01535,0.1458345 -0.112578,0.9978209 -0.168865,2.1542617 -0.168861,3.4693258"
     id="path6942"
     style="font-size:15.71942329px;fill:#3d8e8e;fill-opacity:1" /><path
     d="m 95.10427,5.8402984 c -8e-6,0.8750114 -0.02815,1.3918279 -0.08443,1.550451 -0.117698,0.3633104 -0.470771,0.9799082 -1.059219,1.8497954 -0.511706,0.7470831 -0.949209,1.3304202 -1.31251,1.7500142 -0.133047,0.158627 -0.534731,0.23794 -1.205053,0.23794 -0.583342,0 -0.962,-0.02047 -1.135974,-0.0614 -0.10746,-0.02558 -0.197008,-0.07676 -0.268643,-0.15351 C 89.731417,10.680981 89.293914,10.10276 88.72593,9.2789223 88.117006,8.3936841 87.753699,7.7873202 87.636009,7.4598289 87.508083,7.1067599 87.444121,6.577151 87.444121,5.8710004 c 0,-0.1995575 0.0026,-0.4989017 0.0077,-0.8980334 0.0051,-0.4042364 0.0077,-0.7086976 0.0077,-0.9133845 0,-0.1330347 0.08955,-0.1995557 0.268643,-0.199563 0.260966,7.3e-6 0.652416,0.00768 1.174351,0.023027 0.527049,0.015358 0.921057,0.023034 1.182027,0.023026 0.117688,7.3e-6 0.176533,0.079321 0.176537,0.2379405 -4e-6,0.1432829 -0.01024,0.3607551 -0.0307,0.6524175 -0.02047,0.286558 -0.0307,0.5040303 -0.0307,0.6524174 -3e-6,0.5321732 0.01535,0.9671177 0.04605,1.304835 0.01535,0.1739822 0.16374,0.5014699 0.445179,0.9824639 0.291665,0.5065859 0.50402,0.7598772 0.637066,0.7598745 0.127921,2.7e-6 0.3326,-0.2481716 0.61404,-0.7445235 0.271196,-0.4656431 0.41703,-0.7828967 0.437504,-0.9517619 0.04093,-0.3633023 0.0614,-0.8033638 0.0614,-1.320186 -6e-6,-0.1483871 -0.01536,-0.3709764 -0.04605,-0.6677684 -0.03071,-0.3018964 -0.04606,-0.5244856 -0.04605,-0.6677685 -6e-6,-0.1586198 0.05372,-0.2379332 0.161185,-0.2379405 0.122802,7.3e-6 0.304456,0.00257 0.544961,0.00768 0.245609,0.00512 0.429821,0.00768 0.552635,0.00768 0.122802,7.3e-6 0.307014,-0.010227 0.552636,-0.030702 0.250726,-0.020461 0.437496,-0.030695 0.560312,-0.030702 0.127917,7.3e-6 0.212348,0.066528 0.253291,0.199563 0.08698,0.2916758 0.130476,0.8852472 0.130484,1.7807159"
     id="path6944"
     style="font-size:15.71942329px;fill:#3d8e8e;fill-opacity:1" /><path
     d="m 103.19425,6.9992989 c -1e-5,0.5168206 -0.16631,0.8110478 -0.49891,0.8826824 -0.0563,0.010237 -0.58591,0.066524 -1.58883,0.168861 -0.60381,0.066524 -1.504403,0.1458375 -2.701776,0.2379405 0.07164,0.3326075 0.289107,0.5858988 0.652417,0.7598745 0.296782,0.1432779 0.634504,0.2149159 1.013169,0.214914 0.45541,1.9e-6 0.91338,-0.122806 1.37391,-0.368424 0.19444,-0.1228056 0.38889,-0.2456135 0.58334,-0.368424 0.10745,0.051173 0.28654,0.3121393 0.53728,0.782901 0.25585,0.4707653 0.38377,0.7701097 0.38378,0.8980337 -10e-6,0.03582 -0.0384,0.09466 -0.11513,0.176536 -0.62428,0.670327 -1.59395,1.00549 -2.909017,1.005491 -1.21785,-10e-7 -2.200313,-0.355632 -2.947392,-1.066895 -0.767551,-0.7214952 -1.151326,-1.6860487 -1.151325,-2.8936631 -10e-7,-1.1769051 0.342838,-2.1414586 1.028517,-2.8936634 0.706144,-0.7777766 1.642554,-1.1666682 2.809233,-1.166676 0.982454,7.8e-6 1.816524,0.3581975 2.502214,1.07457 0.68567,0.716386 1.02851,1.5683656 1.02852,2.5559414 m -2.68643,-0.4682055 c 0,-0.317249 -0.11258,-0.5961252 -0.33772,-0.8366295 -0.225154,-0.2404932 -0.493796,-0.3607426 -0.805929,-0.3607485 -0.322374,5.9e-6 -0.588458,0.1356062 -0.798252,0.4068015 -0.194449,0.2507382 -0.291672,0.5449654 -0.291669,0.8826825 -3e-6,0.1381634 0.07164,0.2072428 0.214914,0.2072385 0.378655,4.3e-6 0.967109,-0.058841 1.765366,-0.1765365 0.16886,-0.02558 0.25329,-0.066516 0.25329,-0.122808"
     id="path6946"
     style="font-size:15.71942329px;fill:#3d8e8e;fill-opacity:1" /><path
     d="m 109.14276,6.3852589 c -10e-6,0.1995676 -0.11002,0.299349 -0.33005,0.2993445 -0.0972,4.5e-6 -0.2405,-0.00511 -0.42983,-0.015351 -0.18421,-0.015347 -0.32237,-0.023022 -0.41447,-0.023027 -0.42472,4.5e-6 -0.71383,0.066525 -0.86733,0.199563 -0.15352,0.1330462 -0.23027,0.4016884 -0.23027,0.8059274 0,0.2200343 0.003,0.5551975 0.008,1.0054905 0.0102,0.445181 0.0153,0.7777857 0.0153,0.997815 -1e-5,0.1483943 0.0102,0.3709827 0.0307,0.6677677 0.0205,0.29167 0.0307,0.509143 0.0307,0.652419 0,0.122807 -0.0844,0.191886 -0.25329,0.207238 -0.24562,0.02047 -0.62172,0.0307 -1.1283,0.0307 -0.48611,0 -0.87501,-0.01535 -1.16667,-0.04605 -0.16887,-0.02047 -0.2533,-0.104898 -0.2533,-0.253292 0,-0.409359 0.003,-1.02084 0.008,-1.8344442 0.005,-0.8187171 0.008,-1.4327564 0.008,-1.8421199 -1e-5,-1.2024899 -0.11002,-2.1926283 -0.33005,-2.9704184 -0.0102,-0.046046 -0.0153,-0.084423 -0.0153,-0.1151325 0,-0.076748 0.0384,-0.1279179 0.11513,-0.15351 0.28143,-0.030695 0.69335,-0.086982 1.23576,-0.168861 0.80848,-0.1586195 1.22551,-0.2379329 1.2511,-0.2379405 0.0921,7.6e-6 0.15095,0.1611929 0.17654,0.4835565 0.0256,0.3223778 0.0716,0.4835631 0.13816,0.4835565 -0.0716,6.6e-6 0.13815,-0.1330353 0.62939,-0.399126 0.49123,-0.2711937 0.96455,-0.4067941 1.41997,-0.4068015 0.28654,7.4e-6 0.42982,0.061411 0.42982,0.184212 0,0.1484001 -0.0153,0.3581969 -0.046,0.629391 -0.0307,0.2916753 -0.0486,0.5014721 -0.0537,0.629391 0,0.1483988 0.003,0.3454031 0.008,0.5910134 0.0102,0.3019081 0.0153,0.5014709 0.0153,0.598689"
     id="path6948"
     style="font-size:15.71942329px;fill:#3d8e8e;fill-opacity:1" /></g></svg>