<?xml version="1.0" encoding="UTF-8" standalone="no"?>
<!-- Created with Inkscape (http://www.inkscape.org/) -->

<svg
   xmlns:dc="http://purl.org/dc/elements/1.1/"
   xmlns:cc="http://creativecommons.org/ns#"
   xmlns:rdf="http://www.w3.org/1999/02/22-rdf-syntax-ns#"
   xmlns:svg="http://www.w3.org/2000/svg"
   xmlns="http://www.w3.org/2000/svg"
   version="1.1"
   width="143"
   height="59"
   viewBox="0 0 143 59"
   id="lay"
   xml:space="preserve"><metadata
   id="metadata93"><rdf:RDF><cc:Work
       rdf:about=""><dc:format>image/svg+xml</dc:format><dc:type
         rdf:resource="http://purl.org/dc/dcmitype/StillImage" /><dc:title></dc:title></cc:Work></rdf:RDF></metadata><defs
   id="defs91">
	
	
	
	
	
	
	
	
	
	
	
	
	
	
	
	
	
	
	
	
	
	
	
	
	
</defs>




<text
   x="3.6931818"
   y="29.738636"
   id="text3042"
   xml:space="preserve"
   style="font-size:56px;font-style:normal;font-variant:normal;font-weight:bold;font-stretch:normal;text-align:start;line-height:100%;letter-spacing:0px;word-spacing:0px;writing-mode:lr-tb;text-anchor:start;fill:#000000;fill-opacity:1;stroke:none;font-family:Berlin Sans FB Demi;-inkscape-font-specification:Berlin Sans FB Demi Bold"><tspan
     x="3.6931818"
     y="29.738636"
     id="tspan3044" /></text>



<text
   x="6.534091"
   y="28.602274"
   id="text3046"
   xml:space="preserve"
   style="font-size:56px;font-style:normal;font-variant:normal;font-weight:bold;font-stretch:normal;text-align:start;line-height:100%;letter-spacing:0px;word-spacing:0px;writing-mode:lr-tb;text-anchor:start;fill:#000000;fill-opacity:1;stroke:none;font-family:Berlin Sans FB Demi;-inkscape-font-specification:Berlin Sans FB Demi Bold"><tspan
     x="6.534091"
     y="28.602274"
     id="tspan3048" /></text>



<g
   transform="matrix(1.0344265,0,0,1.0015372,0.18239291,0.38358303)"
   id="g3677"
   style="display:inline"><path
     d="m 92.076124,25.215285 c -0.576973,0.01742 -0.972166,0.457041 -0.927971,1.004198 0.04811,0.583994 0.397477,0.839209 0.950766,0.82656 0.507641,-0.01262 0.917239,-0.440553 0.861299,-0.932509 -0.06255,-0.542949 -0.384934,-0.850419 -0.884094,-0.898249 z"
     id="path8637"
     style="fill:#3d8e8e" /><g
     id="g8641"><path
       d="m 19.626548,23.084837 c -1.9e-5,0.436846 -0.236358,0.65526 -0.709016,0.655243 -1.963448,1.7e-5 -3.508739,-0.05459 -4.635879,-0.16381 0.05453,1.365105 0.109067,3.267127 0.16362,5.706072 0.01817,1.037478 0.09997,2.839394 0.245429,5.405753 0.127245,2.311555 0.190875,4.11347 0.190889,5.405753 -1.4e-5,0.382225 -0.254533,0.600639 -0.763556,0.655243 -0.61813,0.0728 -2.163421,0.109207 -4.6358781,0.109207 -2.0543369,0 -3.3905591,-0.0546 -4.0086705,-0.163811 C 4.8553651,40.58528 4.5463069,40.212156 4.5463109,39.575113 l 0,-15.043281 c -4e-6,-0.527818 -0.3636018,-0.791735 -1.0907947,-0.791752 -0.1272622,1.7e-5 -0.336331,0.0091 -0.6272069,0.02731 -0.2727007,0.01821 -0.4726796,0.02732 -0.5999371,0.0273 -0.5090387,10e-6 -0.7726471,-0.145599 -0.7908261,-0.436835 -0.16362,-1.583484 -0.2454295,-3.885932 -0.2454288,-6.907351 -7e-7,-0.673418 0.3454173,-1.082945 1.0362549,-1.22858 0.6181147,-0.05458 1.245321,-0.10008 1.8816208,-0.136509 C 4.01909,13.629347 3.9736403,12.491774 3.9736437,11.672692 3.9736403,8.542121 4.5826667,6.266975 5.8007248,4.847247 8.2186454,2.026102 12.127323,0.615511 17.526768,0.615471 c 0.363581,4e-5 0.58174,0.109247 0.654477,0.327621 0.145421,0.819093 0.35449,2.02947 0.627207,3.631137 0.01816,0.145646 0.136331,0.655278 0.354508,1.5289 0.1636,0.673478 0.24541,1.192211 0.245429,1.556202 -1.9e-5,0.436861 -0.645405,0.718979 -1.936161,0.846354 -1.490768,0.163843 -2.408853,0.436861 -2.754256,0.819054 -0.599951,0.655273 -0.899919,1.938457 -0.899906,3.849552 -1.3e-5,0.600665 0.04543,1.164902 0.13635,1.69271 0.509023,2.6e-5 1.299849,-0.01817 2.372478,-0.0546 1.072598,-0.03638 1.881603,-0.05458 2.427018,-0.0546 0.545379,2.6e-5 0.818077,0.200239 0.818096,0.600639 -1.9e-5,0.85548 0.0091,2.147764 0.02727,3.876854 0.01816,1.710931 0.02725,2.994113 0.02727,3.84955"
       id="path4363"
       style="font-size:55.8813591px;font-style:normal;font-variant:normal;font-weight:bold;font-stretch:normal;text-align:start;line-height:100%;letter-spacing:0px;word-spacing:0px;writing-mode:lr-tb;text-anchor:start;fill:#3d8e8e;fill-opacity:1;stroke:none;font-family:Berlin Sans FB Demi;-inkscape-font-specification:Berlin Sans FB Demi Bold" /><path
       d="m 40.678886,23.685476 c -2.1e-5,0.709863 -0.390888,1.064786 -1.172604,1.06477 -0.345438,1.6e-5 -0.854475,-0.01818 -1.527112,-0.0546 -0.654494,-0.05459 -1.145351,-0.08189 -1.472574,-0.08191 -1.508947,1.6e-5 -2.536111,0.236632 -3.081494,0.709846 -0.54541,0.473246 -0.818109,1.428808 -0.818097,2.866687 -1.2e-5,0.782664 0.0091,1.97484 0.02727,3.576534 0.03635,1.583511 0.05453,2.766587 0.05454,3.549231 -1.3e-5,0.52784 0.03635,1.319591 0.10908,2.375256 0.07271,1.03747 0.109066,1.811019 0.109079,2.320651 -1.3e-5,0.436829 -0.299981,0.682545 -0.899906,0.737149 -0.872646,0.0728 -2.208869,0.109207 -4.00867,0.109207 -1.727097,0 -3.10877,-0.0546 -4.14502,-0.163811 -0.59994,-0.0728 -0.899908,-0.373124 -0.899905,-0.900959 -3e-6,-1.456092 0.0091,-3.631133 0.02727,-6.525126 0.01818,-2.912179 0.02726,-5.09632 0.02727,-6.552428 -3e-6,-4.27726 -0.390872,-7.799187 -1.172605,-10.565789 -0.03636,-0.163786 -0.05454,-0.300295 -0.05454,-0.409527 -2e-6,-0.272992 0.136347,-0.455005 0.409047,-0.546036 0.999892,-0.109181 2.463374,-0.309394 4.390449,-0.600639 2.872416,-0.56421 4.354078,-0.846328 4.444989,-0.846355 0.327226,2.7e-5 0.536295,0.573363 0.627206,1.720012 0.09089,1.146699 0.254507,1.720036 0.490857,1.720012 -0.25453,2.4e-5 0.490846,-0.473206 2.236129,-1.419693 1.745256,-0.964637 3.426897,-1.446968 5.044926,-1.446994 1.018056,2.6e-5 1.527092,0.218441 1.527113,0.655244 -2.1e-5,0.527859 -0.05456,1.274106 -0.163619,2.238745 -0.109101,1.03749 -0.172729,1.783738 -0.19089,2.238746 -2e-5,0.527856 0.0091,1.228601 0.02727,2.102237 0.03634,1.073889 0.05452,1.783734 0.05454,2.129539"
       id="path4365"
       style="font-size:55.8813591px;font-style:normal;font-variant:normal;font-weight:bold;font-stretch:normal;text-align:start;line-height:100%;letter-spacing:0px;word-spacing:0px;writing-mode:lr-tb;text-anchor:start;fill:#3d8e8e;fill-opacity:1;stroke:none;font-family:Berlin Sans FB Demi;-inkscape-font-specification:Berlin Sans FB Demi Bold" /><path
       d="m 71.930153,15.877167 c -3.1e-5,1.346912 -0.06366,3.367241 -0.19089,6.060996 -0.127289,2.693792 -0.190919,4.714121 -0.190889,6.060995 -3e-5,1.310497 0.04542,3.276224 0.136349,5.897185 0.09087,2.620976 0.136319,4.577601 0.13635,5.869883 -3.1e-5,0.491433 -0.227279,0.800852 -0.681747,0.928261 -0.690866,0.182011 -2.154347,0.273018 -4.390448,0.273018 -1.981634,0 -3.363306,-0.0546 -4.145021,-0.163811 -0.345439,-0.0546 -0.563597,-0.273018 -0.654476,-0.655242 -0.05456,-0.546036 -0.1091,-1.092071 -0.163619,-1.638108 -0.09092,-0.837252 -0.218179,-1.255878 -0.381779,-1.255881 0.254499,3e-6 -0.663586,0.618842 -2.754255,1.85652 -2.090705,1.237682 -3.990505,1.856522 -5.699403,1.856522 -4.817683,0 -7.671926,-2.17504 -8.562738,-6.525126 -0.399961,-2.020324 -0.599939,-4.950712 -0.599937,-8.791174 -2e-6,-4.149852 0.336325,-7.426062 1.008984,-9.828642 0.199976,-0.746223 0.572663,-1.119347 1.118065,-1.119373 0.836271,2.6e-5 2.108864,0.0091 3.817781,0.02731 1.708902,0.01823 2.981495,0.02733 3.817782,0.02731 0.563565,2.6e-5 0.845353,0.236641 0.845366,0.709846 -1.3e-5,0.127433 -0.01819,0.318546 -0.05454,0.573338 -0.381791,2.475383 -0.572679,4.987145 -0.572667,7.535292 -1.2e-5,3.16702 0.09998,5.33296 0.299969,6.497824 0.327225,2.002139 1.518008,3.003203 3.572352,3.003195 0.799899,8e-6 1.663444,-0.354914 2.590637,-1.064769 0.945336,-0.709837 1.436193,-1.446984 1.472573,-2.211444 0.03634,-0.673433 0.05452,-5.241926 0.05454,-13.705495 -2e-5,-0.600614 0.04543,-0.955537 0.136349,-1.06477 0.109059,-0.181985 0.436297,-0.272991 0.981716,-0.273017 0.890793,2.6e-5 2.227015,0.0091 4.00867,0.02731 1.799784,0.01823 3.145096,0.02733 4.035941,0.02731 0.545367,2.6e-5 0.863515,0.136535 0.954444,0.409526 0.03633,0.145635 0.05451,0.364049 0.05454,0.655243"
       id="path4367"
       style="font-size:55.8813591px;font-style:normal;font-variant:normal;font-weight:bold;font-stretch:normal;text-align:start;line-height:100%;letter-spacing:0px;word-spacing:0px;writing-mode:lr-tb;text-anchor:start;fill:#3d8e8e;fill-opacity:1;stroke:none;font-family:Berlin Sans FB Demi;-inkscape-font-specification:Berlin Sans FB Demi Bold" /><path
       d="m 126.96066,27.207407 c -2e-5,-1.547086 -0.49087,-2.821168 -1.47257,-3.82225 -0.96355,-1.019248 -2.22706,-1.528881 -3.79051,-1.5289 -1.56349,1.9e-5 -2.82699,0.500552 -3.79051,1.501598 -0.96355,1.001082 -1.44532,2.284264 -1.44531,3.849552 -1e-5,1.474308 0.50903,2.739289 1.52712,3.794947 1.01806,1.055678 2.25429,1.583512 3.7087,1.583503 1.54528,9e-6 2.80878,-0.500524 3.79051,-1.501598 0.9817,-1.019256 1.47255,-2.311538 1.47257,-3.876852 m 8.78098,-0.163811 c -3e-5,1.401503 0.0818,3.485538 0.24543,6.252108 0.16359,2.766585 0.2454,4.841519 0.24543,6.224807 -3e-5,0.728047 -0.31818,1.119372 -0.95445,1.173976 -2.25434,0.163811 -4.83588,0.245716 -7.74463,0.245716 -0.34544,0 -0.58178,-0.518734 -0.70902,-1.556201 -0.10911,-1.055667 -0.24546,-1.592601 -0.40905,-1.610806 -0.14547,0.07281 -0.33635,0.227518 -0.57267,0.46413 -2.03616,2.056735 -4.21776,3.085101 -6.54477,3.085102 -3.54509,-1e-6 -6.48115,-1.40149 -8.80816,-4.204474 -2.19978,-2.620966 -3.29966,-5.751567 -3.29965,-9.391813 -1e-5,-4.204458 1.13623,-7.589876 3.40872,-10.156263 2.36339,-2.657349 5.59941,-3.986034 9.70807,-3.986061 2.85423,2.7e-5 5.10854,1.001092 6.76294,3.003196 0.0726,0.09103 0.13633,0.136533 0.19088,0.136509 0.1636,2.4e-5 0.3454,-0.436804 0.5454,-1.310485 0.21814,-0.891833 0.47266,-1.337761 0.76356,-1.337787 0.67263,2.6e-5 1.95432,0.191139 3.84505,0.573337 1.79978,0.364049 3.09055,0.673469 3.87231,0.928261 0.27267,0.109232 0.40903,0.254841 0.40906,0.436828 -3e-5,0.07283 -0.0273,0.263941 -0.0819,0.573337 -0.58178,3.294436 -0.87266,6.77996 -0.87263,10.456583"
       id="path4792"
       style="font-size:55.8813591px;font-style:normal;font-variant:normal;font-weight:bold;font-stretch:normal;text-align:start;line-height:100%;letter-spacing:0px;word-spacing:0px;writing-mode:lr-tb;text-anchor:start;fill:#3d8e8e;fill-opacity:1;stroke:none;font-family:Berlin Sans FB Demi;-inkscape-font-specification:Berlin Sans FB Demi Bold" /><path
       d="m 92.929738,19.637934 c -0.0028,3.41e-4 -0.0093,0.0011 -0.01231,0.002 -0.95298,-0.0023 -1.594555,1.369607 -1.793785,1.848494 -0.154034,0.37043 -0.434276,0.323446 -0.777309,0.191827 -1.109476,-0.240516 -1.766369,-0.156078 -2.570427,0.154165 -0.715125,0.275928 -1.325507,0.83816 -1.81336,1.444616 -0.335845,0.417488 -0.519762,0.947472 -0.717918,1.450196 -0.101307,0.257109 -0.162501,0.529072 -0.239083,0.795203 -0.825542,-0.382681 -0.93009,1.451872 -1.044092,1.43067 -0.184973,0.02005 -0.08733,-1.433256 -0.493694,-1.469031 -0.505687,-0.04457 -0.565086,2.381033 0.438314,2.459546 0.889009,0.06965 1.029357,-1.487541 1.091389,-1.480888 0.06201,0.007 0.0097,0.665815 0.0858,1.01702 0.305078,1.392473 0.565758,1.713377 1.445957,2.592082 0.560325,0.559332 0.330921,1.153982 0.192483,1.653179 -0.165788,0.558109 0.115923,0.954275 0.367399,1.004462 0.389059,0.07762 1.195745,0.09784 1.643838,-0.01673 0.251569,-0.03197 0.397952,-0.499357 0.252596,-0.924249 -0.176303,-0.516462 -0.0209,-1.267357 0.523407,-1.238145 0.246219,0.01307 1.030857,-0.0128 1.413542,0.03139 0.415071,0.048 0.5572,0.674483 0.450471,1.141182 -0.190579,0.557885 -0.08218,0.971796 0.306613,1.029577 0.350982,0.07497 1.116668,0.07455 1.633041,-0.02721 0.311957,-0.08257 0.588503,-0.494226 0.422777,-0.96052 -0.256299,-0.576618 -0.236551,-1.308663 -0.0162,-1.530409 0.163569,-0.164879 0.437709,-0.392323 0.588957,-0.470145 1.130511,-0.827037 1.269022,-1.218902 1.543202,-2.846025 0.08649,-0.512657 -0.34096,-0.407165 -0.870559,-0.407366 -0.630043,-5.72e-4 -0.712407,-0.0013 -0.77127,-0.604771 -0.09487,-0.97627 -0.366822,-1.755714 -0.926594,-2.541866 -0.218651,-0.244927 -0.105311,-0.479813 -0.09186,-0.804967 0.02197,-0.529788 0.01093,-1.061023 0.02365,-1.591101 0.0043,-0.248395 -0.04063,-1.321214 -0.273521,-1.332312 -0.0027,-1.79e-4 -0.0088,-3.39e-4 -0.01171,0 z m 10.715272,13.95809 c -3e-5,5.18734 -1.09082,8.90948 -3.27239,11.166428 -2.254327,2.311545 -5.999385,3.467319 -11.23518,3.467326 -1.527125,-7e-6 -3.608723,-0.245722 -6.244799,-0.737148 -3.363289,-0.618846 -5.044929,-1.346893 -5.044925,-2.184141 -4e-6,-0.345828 0.390863,-2.129543 1.172604,-5.35115 0.127254,-0.509632 0.327233,-0.764449 0.599937,-0.76445 0.0909,0.0182 0.190883,0.0546 0.299968,0.109207 2.799699,1.383291 5.390333,2.074935 7.771913,2.074935 1.308938,0 2.608801,-0.327622 3.899591,-0.982864 1.563453,-0.782649 2.345189,-1.765513 2.345208,-2.948593 l 0,-1.829219 c -1.854368,1.747318 -4.235934,2.620974 -7.144705,2.620971 -3.417832,3e-6 -6.226626,-1.228576 -8.426389,-3.685741 -2.127052,-2.366145 -3.190576,-5.278333 -3.190575,-8.736569 -10e-7,-3.476409 1.018074,-6.361295 3.054226,-8.654666 2.127043,-2.384329 4.908567,-3.576506 8.344579,-3.576533 2.745151,2.7e-5 4.844929,0.98289 6.299339,2.948592 0.29086,0.40045 0.490839,0.600664 0.599937,0.60064 0.1636,2.4e-5 0.245409,-0.327598 0.245429,-0.982864 -2e-5,-1.456069 0.1636,-2.184116 0.490858,-2.184143 0.290858,2.7e-5 1.863419,0.154737 4.717686,0.46413 2.854218,0.291246 4.335878,0.455056 4.444988,0.491433 0.30903,0.109232 0.46356,0.345848 0.46359,0.709846 -3e-5,1.255906 -0.0455,3.130626 -0.13635,5.624167 -0.0728,2.49358 -0.10911,4.3683 -0.10908,5.624167 -3e-5,0.746262 0.009,1.865634 0.0273,3.358119 0.0182,1.492507 0.0272,2.611878 0.0273,3.35812"
       id="path8635"
       style="fill:#b2e5e5;fill-opacity:1" /></g><g
     id="g8663"><path
       d="m 12.80288,44.820957 c -1.2e-5,-0.128696 -0.02541,0.06437 -0.07618,0.579187 -0.06984,0.649404 -0.123795,1.480158 -0.161872,2.492263 -0.05079,1.146683 -0.07619,2.451317 -0.07618,3.913905 -10e-6,2.416211 0.07299,4.136222 0.219005,5.160037 0.01269,0.111157 0.01903,0.181362 0.01904,0.210613 -10e-6,0.06435 -0.04762,0.102382 -0.142829,0.114083 -0.228536,0.02925 -1.069638,0.04388 -2.523309,0.04388 -0.3427971,0 -0.5395833,-0.06143 -0.5903593,-0.184287 -0.012703,-0.222314 -0.0254,-0.444628 -0.038087,-0.666944 -0.00635,-0.0468 -0.031748,-0.0936 -0.076175,-0.140409 -0.038096,0.01755 -0.085704,0.05266 -0.1428289,0.105307 -0.6855851,0.620141 -1.5425574,0.93021 -2.5709193,0.93021 -1.3394206,0 -2.412223,-0.432927 -3.2184102,-1.298784 -0.7681026,-0.824902 -1.1521531,-1.866269 -1.1521528,-3.124104 -3e-7,-1.275378 0.3777022,-2.32552 1.1331089,-3.15043 0.7998393,-0.877549 1.8789896,-1.316327 3.2374541,-1.316336 0.9585346,9e-6 1.7044178,0.280827 2.237652,0.842454 0.088865,0.09361 0.1523436,0.140418 0.1904385,0.14041 0.057124,8e-6 0.08569,-0.07605 0.085697,-0.228165 C 9.1559657,48.793376 9.14327,48.120583 9.117886,47.225465 9.092487,46.330368 9.079791,45.660499 9.079798,45.21586 c -7.2e-6,-0.169649 0.050777,-0.266181 0.1523508,-0.289595 0.406261,-0.01754 0.9648802,-0.05264 1.6758592,-0.105306 1.26958,-0.146248 1.831372,-0.219377 1.685381,-0.21939 0.139644,1.3e-5 0.209471,0.07314 0.209483,0.21939 M 9.2131113,52.885712 C 9.213104,52.423536 9.0385356,52.01986 8.6894055,51.674682 8.3402619,51.323665 7.9181237,51.148155 7.4229897,51.148148 c -0.5205369,7e-6 -0.9363271,0.175517 -1.247372,0.526534 -0.3047055,0.345178 -0.4570562,0.760555 -0.4570523,1.246132 -3.9e-6,0.473885 0.1555208,0.874635 0.4665742,1.202254 0.3173929,0.351025 0.7300091,0.526536 1.2378501,0.526534 0.5078298,2e-6 0.933142,-0.175509 1.2759377,-0.526534 0.3427821,-0.35102 0.5141766,-0.763472 0.5141839,-1.237356"
       id="path6951"
       style="font-size:18.72104263px;font-style:normal;font-variant:normal;font-weight:bold;font-stretch:normal;text-align:start;line-height:100%;letter-spacing:0px;word-spacing:0px;writing-mode:lr-tb;text-anchor:start;fill:#ff9900;fill-opacity:1;stroke:none;font-family:Berlin Sans FB Demi;-inkscape-font-specification:Berlin Sans FB Demi Bold" /><path
       d="m 22.934206,52.508358 c -10e-6,0.590892 -0.206318,0.927289 -0.618925,1.00919 -0.06983,0.0117 -0.726849,0.07606 -1.971038,0.193063 -0.749065,0.07606 -1.866302,0.166739 -3.351717,0.272044 0.08886,0.380277 0.358655,0.669871 0.809363,0.868781 0.368177,0.163813 0.78714,0.245718 1.256894,0.245716 0.564962,2e-6 1.133102,-0.140407 1.704425,-0.421228 0.241214,-0.140406 0.482436,-0.280815 0.723666,-0.421227 0.133298,0.0585 0.355476,0.356876 0.666534,0.895108 0.317388,0.538237 0.476087,0.880484 0.476096,1.026742 -9e-6,0.04095 -0.04762,0.108234 -0.142829,0.201838 -0.774458,0.766401 -1.977393,1.1496 -3.608809,1.149601 -1.510816,-10e-7 -2.729621,-0.406602 -3.656418,-1.219805 -0.952194,-0.824902 -1.428289,-1.927698 -1.428288,-3.30839 -1e-6,-1.345583 0.425311,-2.448379 1.275936,-3.308392 0.876015,-0.889249 2.037689,-1.333878 3.485025,-1.333886 1.2188,8e-6 2.253514,0.409535 3.104147,1.228579 0.850617,0.819061 1.275928,1.793148 1.275938,2.922266 m -3.332674,-0.53531 c -6e-6,-0.362718 -0.13966,-0.681563 -0.418964,-0.956537 -0.279316,-0.274961 -0.612582,-0.412445 -0.999802,-0.412452 -0.399926,7e-6 -0.730018,0.155041 -0.99028,0.465105 -0.241225,0.286675 -0.361837,0.623071 -0.361833,1.009191 -4e-6,0.157965 0.08886,0.236945 0.266614,0.23694 0.469744,5e-6 1.199757,-0.06728 2.190042,-0.201838 0.209476,-0.02924 0.314217,-0.07605 0.314223,-0.140409"
       id="path6953"
       style="font-size:18.72104263px;font-style:normal;font-variant:normal;font-weight:bold;font-stretch:normal;text-align:start;line-height:100%;letter-spacing:0px;word-spacing:0px;writing-mode:lr-tb;text-anchor:start;fill:#ff9900;fill-opacity:1;stroke:none;font-family:Berlin Sans FB Demi;-inkscape-font-specification:Berlin Sans FB Demi Bold" /><path
       d="m 27.46664,51.990599 c -4e-6,1.597158 0.0064,2.822812 0.01904,3.676965 -4e-6,0.13456 0.0095,0.36565 0.02856,0.69327 0.01904,0.29837 0.02856,0.52946 0.02856,0.69327 -4e-6,0.122858 -0.07935,0.195988 -0.238047,0.21939 -0.285662,0.0468 -0.799845,0.07021 -1.542552,0.07021 -0.761756,0 -1.247373,-0.02341 -1.456854,-0.07021 -0.139656,-0.02925 -0.219005,-0.108232 -0.238048,-0.236941 -10e-7,-0.01755 -10e-7,-0.143334 0,-0.37735 -10e-7,-0.520682 0.0064,-1.298782 0.01904,-2.334301 0.0127,-1.041364 0.01904,-1.819464 0.01904,-2.334303 -10e-7,-2.457152 0.0031,-3.577499 0.0095,-3.361044 -0.01904,-1.292925 -0.0984,-2.407421 -0.238048,-3.343493 -0.0127,-0.06434 -0.01904,-0.11407 -0.01904,-0.149185 -10e-7,-0.128696 0.08252,-0.19305 0.247569,-0.193063 l 3.399327,0 c 0.158695,1.3e-5 0.231696,0.06144 0.219004,0.184287 l -0.0095,0.157961 c -0.165051,2.527374 -0.247574,4.762218 -0.24757,6.704537"
       id="path6955"
       style="font-size:18.72104263px;font-style:normal;font-variant:normal;font-weight:bold;font-stretch:normal;text-align:start;line-height:100%;letter-spacing:0px;word-spacing:0px;writing-mode:lr-tb;text-anchor:start;fill:#ff9900;fill-opacity:1;stroke:none;font-family:Berlin Sans FB Demi;-inkscape-font-specification:Berlin Sans FB Demi Bold" /><path
       d="m 32.989357,46.725256 c -5e-6,1.017976 -0.622103,1.526958 -1.866296,1.526949 -0.533231,9e-6 -0.974413,-0.128698 -1.323548,-0.386125 -0.380878,-0.280808 -0.571317,-0.661083 -0.571316,-1.140824 -1e-6,-0.456319 0.196786,-0.830743 0.590359,-1.123274 0.361832,-0.269105 0.796666,-0.403664 1.304505,-0.403676 0.495136,1.2e-5 0.923622,0.137496 1.285459,0.412453 0.38722,0.29253 0.580832,0.664028 0.580837,1.114497 m -0.24757,6.52025 c -4e-6,0.427082 0.0095,1.064773 0.02856,1.913075 0.01904,0.842456 0.02856,1.474297 0.02856,1.895523 -4e-6,0.122858 -0.07935,0.195988 -0.238048,0.21939 -0.215834,0.0351 -0.701451,0.05266 -1.456854,0.05266 -0.761756,0 -1.250548,-0.01755 -1.466376,-0.05266 -0.139656,-0.0234 -0.225353,-0.06143 -0.257092,-0.114083 -0.0127,-0.0234 -0.01904,-0.111156 -0.01904,-0.263267 -1e-6,-0.403675 0.0095,-1.009189 0.02856,-1.816544 0.01904,-0.813199 0.02856,-1.424564 0.02856,-1.834094 -1e-6,-1.661502 -0.06983,-2.983687 -0.209483,-3.966558 -0.0127,-0.0936 -0.01904,-0.155027 -0.01904,-0.184287 0,-0.117 0.0857,-0.175504 0.257092,-0.175512 0.177741,8e-6 0.447529,0.01756 0.809363,0.05266 0.368179,0.03511 0.644315,0.05266 0.828408,0.05266 0.184088,8e-6 0.460224,-0.01462 0.828408,-0.04388 0.368176,-0.02924 0.644312,-0.04387 0.828406,-0.04388 0.152347,8e-6 0.228522,0.05851 0.228527,0.175512 -5e-6,0.02341 -0.0064,0.07899 -0.01904,0.166736 -0.139659,1.140831 -0.209487,2.463016 -0.209483,3.966558"
       id="path6957"
       style="font-size:18.72104263px;font-style:normal;font-variant:normal;font-weight:bold;font-stretch:normal;text-align:start;line-height:100%;letter-spacing:0px;word-spacing:0px;writing-mode:lr-tb;text-anchor:start;fill:#ff9900;fill-opacity:1;stroke:none;font-family:Berlin Sans FB Demi;-inkscape-font-specification:Berlin Sans FB Demi Bold" /><path
       d="m 44.910806,52.982239 c -1.2e-5,1.228583 -0.380888,2.255324 -1.142631,3.080226 -0.812547,0.877557 -1.872654,1.316335 -3.180323,1.316335 -0.952198,0 -1.720299,-0.251565 -2.304306,-0.754698 -0.04444,-0.0351 -0.08253,-0.05266 -0.114262,-0.05266 -0.06348,1e-6 -0.12379,0.108233 -0.180917,0.324696 -0.05079,0.216465 -0.114267,0.336397 -0.190438,0.359799 -0.10792,0.02925 -1.012502,0.04387 -2.713749,0.04387 -0.399921,0 -0.599882,-0.06728 -0.599881,-0.201838 -10e-7,-0.01755 0.0064,-0.06143 0.01904,-0.131634 0.126958,-0.930209 0.190437,-2.702873 0.190439,-5.317997 -2e-6,-2.498105 -0.09522,-4.671519 -0.285658,-6.52025 l -0.0095,-0.09653 c -1e-6,-0.09359 0.0984,-0.146248 0.295179,-0.157961 0.139654,-0.0059 0.691925,-0.04972 1.656815,-0.131633 0.679227,-0.05849 1.231498,-0.08774 1.656815,-0.08775 0.120606,1.3e-5 0.180912,0.09654 0.180916,0.289594 -4e-6,0.228177 -0.01587,0.529471 -0.04761,0.903884 -0.03809,0.462191 -0.06031,0.766411 -0.06666,0.912659 -0.03174,0.579198 -0.04761,1.368999 -0.0476,2.369405 -4e-6,0.181369 0.05078,0.272051 0.152351,0.272043 0.05078,8e-6 0.09839,-0.02339 0.142829,-0.0702 0.57131,-0.561628 1.320368,-0.842446 2.247174,-0.842454 1.390192,8e-6 2.475691,0.435861 3.256497,1.30756 0.723656,0.807359 1.085489,1.869202 1.0855,3.185532 m -3.446937,-0.09653 c -7e-6,-0.485577 -0.161879,-0.895103 -0.485618,-1.22858 -0.323752,-0.339316 -0.74589,-0.508977 -1.266415,-0.508984 -0.533233,7e-6 -0.955372,0.169668 -1.266416,0.508984 -0.304706,0.333477 -0.457057,0.748854 -0.457053,1.246131 -4e-6,0.514838 0.149173,0.930214 0.447531,1.246131 0.317392,0.333475 0.749053,0.50021 1.294982,0.500208 0.539569,2e-6 0.968055,-0.172583 1.285459,-0.517759 0.298346,-0.321767 0.447523,-0.737144 0.44753,-1.246131"
       id="path6959"
       style="font-size:18.72104263px;font-style:normal;font-variant:normal;font-weight:bold;font-stretch:normal;text-align:start;line-height:100%;letter-spacing:0px;word-spacing:0px;writing-mode:lr-tb;text-anchor:start;fill:#ff9900;fill-opacity:1;stroke:none;font-family:Berlin Sans FB Demi;-inkscape-font-specification:Berlin Sans FB Demi Bold" /><path
       d="m 54.813606,52.508358 c -1e-5,0.590892 -0.206318,0.927289 -0.618925,1.00919 -0.06983,0.0117 -0.726849,0.07606 -1.971038,0.193063 -0.749065,0.07606 -1.866302,0.166739 -3.351717,0.272044 0.08886,0.380277 0.358655,0.669871 0.809363,0.868781 0.368177,0.163813 0.787141,0.245718 1.256894,0.245716 0.564962,2e-6 1.133102,-0.140407 1.704425,-0.421228 0.241214,-0.140406 0.482436,-0.280815 0.723666,-0.421227 0.133298,0.0585 0.355477,0.356876 0.666534,0.895108 0.317389,0.538237 0.476087,0.880484 0.476096,1.026742 -9e-6,0.04095 -0.04761,0.108234 -0.142828,0.201838 -0.774459,0.766401 -1.977394,1.1496 -3.60881,1.149601 -1.510815,-10e-7 -2.72962,-0.406602 -3.656418,-1.219805 -0.952194,-0.824902 -1.428289,-1.927698 -1.428289,-3.30839 0,-1.345583 0.425312,-2.448379 1.275938,-3.308392 0.876014,-0.889249 2.037688,-1.333878 3.485025,-1.333886 1.218799,8e-6 2.253513,0.409535 3.104146,1.228579 0.850616,0.819061 1.275928,1.793148 1.275938,2.922266 m -3.332674,-0.53531 c -6e-6,-0.362718 -0.13966,-0.681563 -0.418964,-0.956537 -0.279315,-0.274961 -0.612582,-0.412445 -0.999802,-0.412452 -0.399926,7e-6 -0.730018,0.155041 -0.99028,0.465105 -0.241225,0.286675 -0.361836,0.623071 -0.361833,1.009191 -3e-6,0.157965 0.08886,0.236945 0.266614,0.23694 0.469744,5e-6 1.199757,-0.06728 2.190042,-0.201838 0.209477,-0.02924 0.314217,-0.07605 0.314223,-0.140409"
       id="path6961"
       style="font-size:18.72104263px;font-style:normal;font-variant:normal;font-weight:bold;font-stretch:normal;text-align:start;line-height:100%;letter-spacing:0px;word-spacing:0px;writing-mode:lr-tb;text-anchor:start;fill:#ff9900;fill-opacity:1;stroke:none;font-family:Berlin Sans FB Demi;-inkscape-font-specification:Berlin Sans FB Demi Bold" /><path
       d="m 62.193098,51.806312 c -7e-6,0.22817 -0.136488,0.342253 -0.409442,0.342248 -0.120618,5e-6 -0.298361,-0.0059 -0.533229,-0.01755 -0.228532,-0.01755 -0.399926,-0.02632 -0.514183,-0.02632 -0.526885,4e-6 -0.885544,0.07606 -1.075977,0.228164 -0.190443,0.152115 -0.285662,0.45926 -0.285658,0.921435 -4e-6,0.25157 0.0031,0.634771 0.0095,1.1496 0.01269,0.508986 0.01904,0.889261 0.01904,1.140824 -5e-6,0.169664 0.01269,0.424155 0.03808,0.763476 0.02538,0.333472 0.03808,0.582113 0.03808,0.745923 -4e-6,0.14041 -0.104744,0.21939 -0.314223,0.236941 -0.304705,0.0234 -0.771279,0.03511 -1.399723,0.03511 -0.603056,0 -1.085501,-0.01755 -1.447332,-0.05266 -0.209483,-0.02341 -0.314225,-0.119933 -0.314224,-0.289595 -1e-6,-0.468029 0.0031,-1.167149 0.0095,-2.097361 0.0064,-0.936057 0.0095,-1.638102 0.0095,-2.106138 0,-1.374834 -0.136481,-2.506881 -0.409441,-3.396146 -0.0127,-0.05265 -0.01904,-0.09652 -0.01904,-0.131634 0,-0.08774 0.04761,-0.146251 0.142829,-0.175511 0.349136,-0.0351 0.860146,-0.09945 1.53303,-0.193062 1.002973,-0.181354 1.52033,-0.272035 1.552074,-0.272044 0.114259,9e-6 0.18726,0.184296 0.219004,0.552862 0.03174,0.368582 0.08886,0.552868 0.171394,0.55286 -0.08887,8e-6 0.171391,-0.152102 0.780798,-0.456329 0.609398,-0.310062 1.196582,-0.465097 1.761556,-0.465106 0.355478,9e-6 0.533221,0.07021 0.533228,0.210615 -7e-6,0.169669 -0.01905,0.409534 -0.05714,0.719597 -0.03809,0.333478 -0.06031,0.573344 -0.06665,0.719597 -8e-6,0.169667 0.0031,0.394906 0.0095,0.675718 0.01269,0.345179 0.01904,0.573343 0.01904,0.684495"
       id="path6963"
       style="font-size:18.72104263px;font-style:normal;font-variant:normal;font-weight:bold;font-stretch:normal;text-align:start;line-height:100%;letter-spacing:0px;word-spacing:0px;writing-mode:lr-tb;text-anchor:start;fill:#ff9900;fill-opacity:1;stroke:none;font-family:Berlin Sans FB Demi;-inkscape-font-specification:Berlin Sans FB Demi Bold" /><path
       d="m 72.876696,52.885708 c -10e-6,0.450483 0.02855,1.120351 0.0857,2.009605 0.05712,0.889261 0.08569,1.556203 0.0857,2.000831 -1.1e-5,0.234016 -0.1111,0.359799 -0.333268,0.37735 -0.787155,0.05266 -1.688563,0.07898 -2.704226,0.07898 -0.120619,0 -0.203142,-0.166735 -0.247571,-0.500208 -0.03809,-0.339321 -0.08571,-0.511907 -0.142829,-0.517759 -0.05079,0.0234 -0.117443,0.07313 -0.199959,0.149186 -0.710977,0.661093 -1.47273,0.991639 -2.285263,0.991639 -1.237852,0 -2.263046,-0.450479 -3.075581,-1.351438 -0.768103,-0.842454 -1.152153,-1.848718 -1.152152,-3.018797 -10e-7,-1.351433 0.396746,-2.439602 1.190241,-3.264513 0.82523,-0.854147 1.955164,-1.281225 3.389804,-1.281233 0.996622,8e-6 1.783767,0.321779 2.361437,0.965312 0.02539,0.02926 0.0476,0.04388 0.06666,0.04388 0.05712,8e-6 0.120603,-0.140401 0.190438,-0.421227 0.07617,-0.286661 0.165039,-0.429995 0.266614,-0.430003 0.234866,8e-6 0.682395,0.06144 1.342591,0.184287 0.628437,0.117015 1.079141,0.216472 1.352113,0.298369 0.09521,0.03511 0.142819,0.08192 0.142829,0.14041 -1e-5,0.0234 -0.0096,0.08484 -0.02856,0.184286 -0.203145,1.058926 -0.304713,2.179273 -0.304702,3.361045 m -3.06606,0.05266 c -7e-6,-0.497278 -0.171401,-0.906804 -0.514183,-1.22858 -0.336448,-0.327616 -0.77763,-0.491426 -1.323548,-0.491433 -0.545928,7e-6 -0.98711,0.160892 -1.323547,0.482657 -0.336445,0.321776 -0.504666,0.734228 -0.504663,1.237356 -3e-6,0.473885 0.177739,0.880486 0.533229,1.219804 0.355481,0.339325 0.78714,0.508986 1.294981,0.508984 0.53957,2e-6 0.980752,-0.160884 1.323548,-0.482657 0.342782,-0.327618 0.514176,-0.742995 0.514183,-1.246131"
       id="path6965"
       style="font-size:18.72104263px;font-style:normal;font-variant:normal;font-weight:bold;font-stretch:normal;text-align:start;line-height:100%;letter-spacing:0px;word-spacing:0px;writing-mode:lr-tb;text-anchor:start;fill:#ff9900;fill-opacity:1;stroke:none;font-family:Berlin Sans FB Demi;-inkscape-font-specification:Berlin Sans FB Demi Bold" /><path
       d="m 81.230593,48.971802 c -8e-6,-0.0858 -0.01694,0.04291 -0.05078,0.386125 -0.04656,0.432936 -0.08253,0.986771 -0.107915,1.661509 -0.03386,0.764455 -0.05079,1.634211 -0.05078,2.60927 -7e-6,1.610807 0.04867,2.75748 0.146003,3.440025 0.0084,0.0741 0.01269,0.120907 0.0127,0.140409 -6e-6,0.0429 -0.03175,0.06826 -0.09522,0.07605 -0.152358,0.0195 -0.713092,0.02925 -1.682207,0.02925 -0.228531,0 -0.359721,-0.04095 -0.393572,-0.122857 -0.0084,-0.14821 -0.01694,-0.296419 -0.0254,-0.444629 -0.0043,-0.0312 -0.02117,-0.0624 -0.05078,-0.09361 -0.0254,0.0117 -0.05714,0.0351 -0.09522,0.07021 -0.457056,0.413428 -1.028372,0.620141 -1.713946,0.620141 -0.892947,0 -1.608148,-0.288619 -2.145607,-0.865856 -0.512069,-0.549935 -0.768102,-1.24418 -0.768102,-2.082736 0,-0.850253 0.251802,-1.550347 0.755407,-2.100288 0.533226,-0.585033 1.252659,-0.877551 2.158302,-0.877557 0.639023,6e-6 1.136278,0.187218 1.491768,0.561637 0.05924,0.06241 0.101561,0.09361 0.126959,0.0936 0.03808,5e-6 0.05712,-0.0507 0.05714,-0.15211 -5e-6,-0.300314 -0.0084,-0.748843 -0.0254,-1.345588 -0.01694,-0.596731 -0.02539,-1.04331 -0.02539,-1.339737 -4e-6,-0.1131 0.03385,-0.177454 0.101572,-0.193063 0.27084,-0.01169 0.643253,-0.0351 1.117238,-0.0702 0.846387,-0.0975 1.220915,-0.146252 1.123587,-0.14626 0.09309,8e-6 0.139648,0.04876 0.139655,0.14626 m -2.393177,5.3765 c -4e-6,-0.308116 -0.116383,-0.577234 -0.349137,-0.807352 -0.232763,-0.234012 -0.514188,-0.35102 -0.844277,-0.351023 -0.347025,3e-6 -0.624219,0.117011 -0.831581,0.351023 -0.203138,0.230118 -0.304705,0.507036 -0.304703,0.830754 -2e-6,0.315923 0.103687,0.58309 0.311051,0.801503 0.211594,0.234016 0.486672,0.351024 0.825233,0.351022 0.338553,2e-6 0.622094,-0.117006 0.850625,-0.351022 0.228521,-0.234014 0.342785,-0.508981 0.342789,-0.824905"
       id="path6967"
       style="font-size:12.48069572px;font-style:normal;font-variant:normal;font-weight:bold;font-stretch:normal;text-align:start;line-height:100%;letter-spacing:0px;word-spacing:0px;writing-mode:lr-tb;text-anchor:start;fill:#ff9900;fill-opacity:1;stroke:none;font-family:Berlin Sans FB Demi;-inkscape-font-specification:Berlin Sans FB Demi Bold" /><path
       d="m 88.549782,54.348303 c -7e-6,0.300323 0.01904,0.746901 0.05714,1.339738 0.03808,0.592839 0.05712,1.037467 0.05714,1.333886 -8e-6,0.156011 -0.07407,0.239866 -0.222178,0.251567 -0.524771,0.0351 -1.125709,0.05266 -1.802819,0.05266 -0.08042,0 -0.135427,-0.111158 -0.165046,-0.333472 -0.0254,-0.226215 -0.05713,-0.341272 -0.09522,-0.345173 -0.03386,0.0156 -0.07829,0.04876 -0.133306,0.09946 -0.473985,0.440728 -0.981821,0.661093 -1.523508,0.661093 -0.825236,0 -1.508698,-0.30032 -2.050388,-0.900959 -0.512068,-0.561635 -0.768102,-1.232478 -0.768102,-2.012532 0,-0.900955 0.264498,-1.626401 0.793494,-2.176342 0.550154,-0.569431 1.303443,-0.854149 2.25987,-0.854155 0.664415,6e-6 1.189178,0.21452 1.574292,0.643542 0.01693,0.01951 0.03174,0.02926 0.04444,0.02925 0.03808,5e-6 0.0804,-0.0936 0.126959,-0.280818 0.05078,-0.191107 0.110026,-0.286663 0.177742,-0.286669 0.156578,6e-6 0.454931,0.04095 0.895061,0.122858 0.418959,0.07801 0.719428,0.144316 0.90141,0.198913 0.06347,0.0234 0.09521,0.0546 0.09522,0.09361 -7e-6,0.01561 -0.0064,0.05655 -0.01904,0.122858 -0.13543,0.70595 -0.203142,1.452848 -0.203135,2.240696 m -2.044039,0.0351 c -5e-6,-0.331519 -0.114268,-0.604536 -0.34279,-0.819054 -0.224298,-0.218411 -0.518419,-0.327618 -0.882364,-0.327622 -0.363953,4e-6 -0.658074,0.107261 -0.882366,0.321771 -0.224297,0.214517 -0.336444,0.489485 -0.33644,0.824905 -4e-6,0.315922 0.118492,0.58699 0.355485,0.813202 0.236986,0.226217 0.52476,0.339324 0.863321,0.339322 0.359713,2e-6 0.653834,-0.107255 0.882364,-0.321771 0.228522,-0.218412 0.342785,-0.495329 0.34279,-0.830753"
       id="path6969"
       style="font-size:12.48069572px;font-style:normal;font-variant:normal;font-weight:bold;font-stretch:normal;text-align:start;line-height:100%;letter-spacing:0px;word-spacing:0px;writing-mode:lr-tb;text-anchor:start;fill:#ff9900;fill-opacity:1;stroke:none;font-family:Berlin Sans FB Demi;-inkscape-font-specification:Berlin Sans FB Demi Bold" /><path
       d="m 99.957051,57.05703 c -1.1e-5,0.136509 -0.06349,0.212564 -0.190438,0.228165 -0.126969,0.0156 -0.440135,0.0234 -0.939497,0.0234 -0.516309,0 -0.837938,-0.0117 -0.964888,-0.0351 -0.126967,-0.02341 -0.190447,-0.118958 -0.190439,-0.28667 -8e-6,-0.17941 0.0064,-0.446578 0.01904,-0.801502 0.01269,-0.358821 0.01903,-0.627939 0.01904,-0.807352 -8e-6,-0.682542 -0.0084,-1.168124 -0.0254,-1.456746 -0.0254,-0.464126 -0.264506,-0.696191 -0.717318,-0.696194 -0.19891,3e-6 -0.397812,0.07801 -0.596707,0.234014 -0.194678,0.152114 -0.302593,0.321775 -0.323746,0.508984 -0.01694,0.163814 -0.0254,0.643545 -0.0254,1.439194 -7e-6,0.183313 0.0064,0.462182 0.01904,0.836604 0.01269,0.370525 0.01904,0.649393 0.01904,0.836605 -6e-6,0.128709 -0.06137,0.193063 -0.18409,0.193063 l -1.923429,0 c -0.118499,0 -0.177747,-0.07996 -0.177742,-0.239866 -5e-6,-0.183312 0.0064,-0.458279 0.01904,-0.824903 0.01269,-0.366623 0.01904,-0.643542 0.01904,-0.830755 -4e-6,-0.144308 -0.0043,-0.362721 -0.0127,-0.655243 -0.0084,-0.292516 -0.0127,-0.512881 -0.0127,-0.661093 -4e-6,-0.557732 -0.230646,-0.836601 -0.691926,-0.836604 -0.18621,3e-6 -0.387229,0.06631 -0.603055,0.198912 -0.236994,0.144314 -0.355488,0.296423 -0.355485,0.45633 -3e-6,0.354926 0.0021,0.88536 0.0064,1.591304 0.0043,0.705947 0.0064,1.234431 0.0064,1.585454 -3e-6,0.09751 -0.0127,0.15796 -0.03808,0.181361 -0.0254,0.0234 -0.09099,0.039 -0.196786,0.0468 -0.190441,0.0156 -0.49091,0.02341 -0.901409,0.02341 -0.266615,0 -0.5692,-0.0117 -0.907757,-0.0351 -0.101572,-0.0078 -0.162931,-0.02146 -0.184091,-0.04095 -0.01693,-0.0195 -0.0254,-0.078 -0.0254,-0.175511 -10e-7,-0.312021 0.0021,-0.7781 0.0064,-1.398242 0.0043,-0.624039 0.0064,-1.092069 0.0064,-1.404091 0,-0.639639 -0.05078,-1.359235 -0.152351,-2.158792 -0.0084,-0.0468 -0.0127,-0.0819 -0.0127,-0.105306 -10e-7,-0.0663 0.02962,-0.111152 0.08887,-0.134559 0.0931,-0.0351 0.268728,-0.06435 0.52688,-0.08775 0.317396,-0.02729 0.505718,-0.04484 0.564968,-0.05266 0.04232,-0.0078 0.20948,-0.04875 0.501488,-0.122858 0.207363,-0.0546 0.374525,-0.0819 0.501488,-0.08191 0.0804,6e-6 0.122723,0.136515 0.126959,0.409527 0.0043,0.269123 0.02116,0.403681 0.05078,0.403677 0.04232,-0.0156 0.09099,-0.0429 0.146003,-0.08191 0.380874,-0.273014 0.681344,-0.460225 0.901409,-0.561637 0.325858,-0.144304 0.679226,-0.216459 1.060108,-0.216464 0.389336,5e-6 0.736356,0.07996 1.041064,0.239865 0.342782,0.179417 0.56496,0.430983 0.666534,0.754699 0.224288,-0.280813 0.533221,-0.516778 0.926801,-0.707896 0.393565,-0.191106 0.776558,-0.286663 1.148978,-0.286668 0.558611,5e-6 1.013547,0.118963 1.36481,0.356873 0.397794,0.269123 0.596696,0.653297 0.596707,1.152525 -1.1e-5,0.206718 -0.0064,0.518737 -0.01904,0.936061 -0.01271,0.41343 -0.01905,0.7235 -0.01904,0.930211 -1.2e-5,0.245718 0.0064,0.616242 0.01904,1.111573 0.01269,0.491432 0.01903,0.860006 0.01904,1.105722"
       id="path6971"
       style="font-size:12.48069572px;font-style:normal;font-variant:normal;font-weight:bold;font-stretch:normal;text-align:start;line-height:100%;letter-spacing:0px;word-spacing:0px;writing-mode:lr-tb;text-anchor:start;fill:#ff9900;fill-opacity:1;stroke:none;font-family:Berlin Sans FB Demi;-inkscape-font-specification:Berlin Sans FB Demi Bold" /><path
       d="m 106.97788,54.096736 c -1e-5,0.393929 -0.13754,0.618193 -0.41262,0.672794 -0.0466,0.0078 -0.48456,0.05071 -1.31402,0.128708 -0.49938,0.05071 -1.2442,0.11116 -2.23448,0.181362 0.0592,0.253519 0.23911,0.446581 0.53958,0.579188 0.24545,0.109209 0.52476,0.163813 0.83793,0.163812 0.37663,10e-7 0.7554,-0.0936 1.13628,-0.280819 0.16081,-0.0936 0.32162,-0.187211 0.48245,-0.280818 0.0888,0.03901 0.23698,0.237917 0.44436,0.596738 0.21159,0.358825 0.31738,0.586989 0.31739,0.684496 -1e-5,0.0273 -0.0318,0.07215 -0.0952,0.134558 -0.51631,0.510933 -1.31827,0.7664 -2.40587,0.7664 -1.00721,0 -1.81975,-0.271068 -2.43762,-0.813203 -0.63479,-0.549935 -0.95219,-1.285132 -0.95219,-2.205594 0,-0.897055 0.28354,-1.632252 0.85063,-2.205594 0.58401,-0.592833 1.35846,-0.889252 2.32335,-0.889258 0.81253,6e-6 1.50234,0.273023 2.06943,0.819053 0.56707,0.546041 0.85061,1.195432 0.85062,1.948177 m -2.22178,-0.356872 c 0,-0.241812 -0.0931,-0.454377 -0.27931,-0.637692 -0.1862,-0.183308 -0.40839,-0.274964 -0.66653,-0.274968 -0.26662,4e-6 -0.48668,0.10336 -0.66019,0.310069 -0.16082,0.191117 -0.24122,0.415382 -0.24122,0.672795 0,0.10531 0.0592,0.157964 0.17774,0.15796 0.31316,4e-6 0.79984,-0.04485 1.46002,-0.134559 0.13966,-0.0195 0.20949,-0.0507 0.20949,-0.09361"
       id="path6973"
       style="font-size:12.48069572px;font-style:normal;font-variant:normal;font-weight:bold;font-stretch:normal;text-align:start;line-height:100%;letter-spacing:0px;word-spacing:0px;writing-mode:lr-tb;text-anchor:start;fill:#ff9900;fill-opacity:1;stroke:none;font-family:Berlin Sans FB Demi;-inkscape-font-specification:Berlin Sans FB Demi Bold" /><path
       d="m 117.42344,57.019002 c -1e-5,0.15796 -0.0888,0.248642 -0.26662,0.272043 -0.17775,0.02341 -0.64115,0.03511 -1.3902,0.03511 -0.79985,0 -1.29499,-0.01755 -1.48542,-0.05266 -0.19045,-0.0351 -0.28567,-0.155035 -0.28566,-0.359799 -1e-5,-0.274967 0.009,-0.690344 0.0285,-1.246131 0.0191,-0.555784 0.0285,-0.974086 0.0285,-1.254907 0,-0.216461 -0.006,-0.538232 -0.0191,-0.965313 -0.0127,-0.432924 -0.0191,-0.757619 -0.0191,-0.974089 -1e-5,-0.801496 -0.37771,-1.202247 -1.13311,-1.202253 -0.24757,6e-6 -0.5364,0.09946 -0.86649,0.29837 -0.35549,0.22232 -0.53324,0.441709 -0.53323,0.658168 l 0,4.738809 c -1e-5,0.193062 -0.0984,0.301295 -0.29518,0.324696 -0.22218,0.02341 -0.67606,0.03511 -1.36163,0.03511 -0.74272,0 -1.22516,-0.01755 -1.44733,-0.05266 -0.19679,-0.02925 -0.29519,-0.125783 -0.29519,-0.289595 0,-0.456328 0.003,-1.143748 0.009,-2.062259 0.006,-0.918507 0.009,-1.608851 0.009,-2.071035 0,-1.456739 -0.12378,-2.600487 -0.37135,-3.431248 -0.0127,-0.05265 -0.0191,-0.09652 -0.0191,-0.131634 0,-0.0936 0.0476,-0.157952 0.14283,-0.193063 0.39991,-0.04094 0.93315,-0.105298 1.59968,-0.193062 1.00932,-0.181354 1.57746,-0.272034 1.70442,-0.272043 0.0698,9e-6 0.12378,0.198922 0.16188,0.596739 0.0381,0.391983 0.0921,0.587971 0.16187,0.587963 -0.0698,8e-6 0.26978,-0.20183 1.01884,-0.605514 0.7554,-0.409519 1.41559,-0.614282 1.98056,-0.614291 0.80619,9e-6 1.47907,0.175521 2.01866,0.526535 0.60303,0.403684 0.90456,0.96532 0.90457,1.68491 l 0,2.799408 c -1e-5,0.380278 0.003,0.950689 0.009,1.711236 0.006,0.754701 0.009,1.322187 0.009,1.702461"
       id="path6975"
       style="font-size:18.72104263px;font-style:normal;font-variant:normal;font-weight:bold;font-stretch:normal;text-align:start;line-height:100%;letter-spacing:0px;word-spacing:0px;writing-mode:lr-tb;text-anchor:start;fill:#ff9900;fill-opacity:1;stroke:none;font-family:Berlin Sans FB Demi;-inkscape-font-specification:Berlin Sans FB Demi Bold" /><path
       d="m 125.37424,54.702252 c -1e-5,0.175513 -0.0254,0.441706 -0.0761,0.798577 -0.0445,0.356874 -0.0667,0.62014 -0.0667,0.789801 0,0.163811 -0.0191,0.269118 -0.0571,0.315921 -0.0381,0.0468 -0.14284,0.114082 -0.31422,0.201838 -0.81889,0.415377 -1.72665,0.623065 -2.72327,0.623065 -1.83456,0 -2.75184,-0.646466 -2.75184,-1.939401 0,-0.386123 0.0158,-0.96531 0.0476,-1.737564 0.0318,-0.778096 0.0476,-1.360209 0.0476,-1.746339 0,-0.257411 -0.16187,-0.386119 -0.48562,-0.386125 -0.0254,6e-6 -0.0667,6e-6 -0.12378,0 -0.0572,0.0059 -0.0984,0.0087 -0.12379,0.0087 -0.24122,5e-6 -0.36183,-0.07897 -0.36183,-0.236941 0,-0.0936 0.006,-0.236934 0.0191,-0.430003 0.0191,-0.193056 0.0285,-0.33639 0.0285,-0.430003 0,-0.122851 -0.009,-0.310064 -0.0285,-0.561637 -0.0127,-0.251559 -0.0191,-0.43877 -0.0191,-0.561636 0,-0.117 0.20313,-0.181354 0.6094,-0.193063 0.22853,-0.0059 0.35231,-0.06435 0.37136,-0.175511 0.0381,-0.222307 0.0507,-0.573329 0.0381,-1.053069 -0.0254,-0.754689 -0.0381,-1.114487 -0.0381,-1.079396 -1e-5,-0.678632 0.0698,-1.017954 0.20948,-1.017966 0.17139,1.2e-5 0.41579,0.03512 0.73319,0.105308 0.36183,0.07606 0.61257,0.119943 0.75223,0.131633 0.32374,0.04096 0.81254,0.09654 1.46637,0.166735 0.1587,0.01171 0.23805,0.06144 0.23805,0.149185 0,0.234026 -0.0222,0.587974 -0.0667,1.061845 -0.0381,0.47389 -0.0572,0.830763 -0.0571,1.070619 -1e-5,0.286677 0.0921,0.430012 0.27614,0.430004 0.22217,8e-6 0.55861,-0.0087 1.00932,-0.02632 0.45069,-0.01754 0.79032,-0.02632 1.01885,-0.02632 0.13964,8e-6 0.20947,0.04388 0.20947,0.131634 0,0.134566 -0.0158,0.336404 -0.0476,0.605514 -0.0318,0.269125 -0.0476,0.470963 -0.0476,0.605514 0,0.140416 0.003,0.345179 0.009,0.614291 0.006,0.269123 0.009,0.473886 0.009,0.614289 -2e-5,0.122864 -0.0921,0.184293 -0.27615,0.184288 -0.12697,5e-6 -0.33962,-0.0029 -0.63796,-0.0087 -0.29836,-0.01169 -0.51102,-0.01755 -0.63797,-0.01755 l -0.71414,0 c -0.0952,5e-6 -0.14284,0.128714 -0.14283,0.386125 -1e-5,0.140415 -1e-5,0.348103 0,0.623066 0.006,0.280823 0.009,0.488511 0.009,0.623065 0,0.491435 0.0603,0.830757 0.18092,1.017967 0.17139,0.251569 0.50782,0.377352 1.00932,0.37735 0.1587,2e-6 0.38405,-0.03218 0.67606,-0.09653 0.29835,-0.07021 0.50782,-0.105304 0.62845,-0.105306 0.1333,2e-6 0.19994,0.06436 0.19995,0.193062"
       id="path6977"
       style="font-size:18.72104263px;font-style:normal;font-variant:normal;font-weight:bold;font-stretch:normal;text-align:start;line-height:100%;letter-spacing:0px;word-spacing:0px;writing-mode:lr-tb;text-anchor:start;fill:#ff9900;fill-opacity:1;stroke:none;font-family:Berlin Sans FB Demi;-inkscape-font-specification:Berlin Sans FB Demi Bold" /><path
       d="m 135.11517,52.508358 c -1e-5,0.590892 -0.20631,0.927289 -0.61893,1.00919 -0.0698,0.0117 -0.72684,0.07606 -1.97104,0.193063 -0.74907,0.07606 -1.86629,0.166739 -3.35172,0.272044 0.0889,0.380277 0.35867,0.669871 0.80937,0.868781 0.36817,0.163813 0.78714,0.245718 1.25689,0.245716 0.56497,2e-6 1.13311,-0.140407 1.70443,-0.421228 0.24121,-0.140406 0.48244,-0.280815 0.72367,-0.421227 0.1333,0.0585 0.35547,0.356876 0.66653,0.895108 0.31738,0.538237 0.47609,0.880484 0.4761,1.026742 -1e-5,0.04095 -0.0476,0.108234 -0.14283,0.201838 -0.77446,0.766401 -1.9774,1.1496 -3.60881,1.149601 -1.51082,-10e-7 -2.72962,-0.406602 -3.65642,-1.219805 -0.95219,-0.824902 -1.42829,-1.927698 -1.42829,-3.30839 0,-1.345583 0.42532,-2.448379 1.27594,-3.308392 0.87602,-0.889249 2.03768,-1.333878 3.48502,-1.333886 1.2188,8e-6 2.25351,0.409535 3.10415,1.228579 0.85062,0.819061 1.27593,1.793148 1.27594,2.922266 m -3.33268,-0.53531 c 0,-0.362718 -0.13966,-0.681563 -0.41896,-0.956537 -0.27932,-0.274961 -0.61258,-0.412445 -0.9998,-0.412452 -0.39993,7e-6 -0.73002,0.155041 -0.99028,0.465105 -0.24123,0.286675 -0.36184,0.623071 -0.36184,1.009191 0,0.157965 0.0889,0.236945 0.26662,0.23694 0.46975,5e-6 1.19975,-0.06728 2.19004,-0.201838 0.20948,-0.02924 0.31422,-0.07605 0.31422,-0.140409"
       id="path6979"
       style="font-size:18.72104263px;font-style:normal;font-variant:normal;font-weight:bold;font-stretch:normal;text-align:start;line-height:100%;letter-spacing:0px;word-spacing:0px;writing-mode:lr-tb;text-anchor:start;fill:#ff9900;fill-opacity:1;stroke:none;font-family:Berlin Sans FB Demi;-inkscape-font-specification:Berlin Sans FB Demi Bold" /></g><g
     id="g8685"><path
       d="m 81.012799,5.9354182 c -8e-6,0.8892625 -0.0277,1.4144963 -0.08308,1.5757029 -0.115813,0.3692275 -0.463228,0.9958677 -1.042244,1.8799226 -0.503507,0.7592503 -0.933998,1.3520883 -1.291477,1.7785163 -0.130915,0.161211 -0.526162,0.241815 -1.185741,0.241815 -0.573994,0 -0.946584,-0.0208 -1.117769,-0.0624 -0.105738,-0.026 -0.193851,-0.07801 -0.264338,-0.15601 C 75.726051,10.85494 75.295559,10.267302 74.736677,9.4300463 74.137511,8.5303904 73.780027,7.9141507 73.664223,7.5813256 73.538348,7.2225063 73.47541,6.6842717 73.47541,5.9666202 c 0,-0.2028076 0.0026,-0.5070272 0.0076,-0.9126595 0.005,-0.4108201 0.0076,-0.72024 0.0076,-0.9282606 0,-0.1352014 0.08812,-0.2028058 0.264338,-0.2028132 0.256784,7.4e-6 0.64196,0.0078 1.155531,0.023402 0.518602,0.015608 0.906297,0.023409 1.163084,0.023401 0.115802,7.4e-6 0.173705,0.080613 0.173708,0.2418158 -3e-6,0.1456165 -0.01008,0.3666307 -0.03021,0.6630433 -0.02014,0.2912251 -0.03021,0.5122393 -0.03021,0.6630432 -3e-6,0.5408406 0.0151,0.9828689 0.04531,1.3260866 0.0151,0.1768158 0.161116,0.5096372 0.438044,0.9984651 0.286991,0.5148365 0.495943,0.7722531 0.626857,0.7722504 0.125871,2.7e-6 0.327271,-0.2522135 0.604199,-0.7566494 0.26685,-0.4732269 0.410347,-0.7956476 0.430493,-0.9672631 0.04027,-0.3692193 0.06042,-0.816448 0.06042,-1.3416876 -6e-6,-0.1508038 -0.01511,-0.3770184 -0.04531,-0.6786442 -0.03022,-0.3068133 -0.04532,-0.5330278 -0.04531,-0.6786443 -6e-6,-0.1612032 0.05286,-0.2418084 0.158602,-0.2418158 0.120835,7.4e-6 0.299577,0.00261 0.536228,0.00781 0.241673,0.0052 0.422932,0.00781 0.543779,0.00781 0.120833,7.4e-6 0.302093,-0.010394 0.54378,-0.031202 0.246707,-0.020794 0.430485,-0.031195 0.551331,-0.031202 0.125867,7.4e-6 0.208945,0.067611 0.249233,0.2028133 0.08559,0.2964262 0.128384,0.899665 0.128392,1.809718"
       id="path6940"
       style="font-size:15.71942329px;font-style:normal;font-variant:normal;font-weight:bold;font-stretch:normal;text-align:start;line-height:100%;letter-spacing:0px;word-spacing:0px;writing-mode:lr-tb;text-anchor:start;fill:#b2e5e5;fill-opacity:1;stroke:none;font-family:Berlin Sans FB Demi;-inkscape-font-specification:Berlin Sans FB Demi Bold" /><path
       d="m 85.045831,1.9727596 c -4e-6,0.9048676 -0.493433,1.3572966 -1.480289,1.3572886 -0.422942,8e-6 -0.772874,-0.1143994 -1.049797,-0.3432224 -0.3021,-0.2496077 -0.45315,-0.5876294 -0.45315,-1.0140662 0,-0.4056167 0.156085,-0.738438 0.468255,-0.99846512 0.286993,-0.23920499 0.63189,-0.35881268 1.034692,-0.35882341 0.392727,1.073e-5 0.732588,0.12221858 1.019586,0.36662392 0.307132,0.26002711 0.460699,0.59024821 0.460703,0.99066461 m -0.196365,5.7957782 c -4e-6,0.379628 0.0076,0.9464644 0.02266,1.700511 0.0151,0.7488502 0.02265,1.3104862 0.02266,1.6849102 -4e-6,0.109207 -0.06294,0.174211 -0.188813,0.195012 -0.171193,0.0312 -0.55637,0.0468 -1.155531,0.0468 -0.604202,0 -0.991895,-0.0156 -1.163084,-0.0468 -0.110771,-0.0208 -0.178743,-0.05461 -0.203918,-0.101405 -0.01007,-0.0208 -0.0151,-0.0988 -0.0151,-0.234015 0,-0.358824 0.0076,-0.897058 0.02266,-1.6147058 0.0151,-0.7228445 0.02266,-1.2662794 0.02266,-1.6303064 0,-1.4768913 -0.05539,-2.6521668 -0.166155,-3.52583 -0.01007,-0.083198 -0.0151,-0.1378018 -0.0151,-0.1638107 0,-0.1039994 0.06797,-0.1560028 0.203918,-0.1560102 0.140979,7.4e-6 0.354965,0.015608 0.641961,0.046803 0.292029,0.031209 0.511051,0.04681 0.657068,0.046803 0.146013,7.3e-6 0.365034,-0.012993 0.657066,-0.039003 0.292027,-0.025994 0.511049,-0.038995 0.657068,-0.039003 0.120836,7.4e-6 0.181255,0.05201 0.181259,0.1560102 -4e-6,0.020808 -0.005,0.070212 -0.0151,0.1482096 -0.110773,1.0140723 -0.166158,2.1893478 -0.166154,3.5258301"
       id="path6942"
       style="font-size:15.71942329px;font-style:normal;font-variant:normal;font-weight:bold;font-stretch:normal;text-align:start;line-height:100%;letter-spacing:0px;word-spacing:0px;writing-mode:lr-tb;text-anchor:start;fill:#b2e5e5;fill-opacity:1;stroke:none;font-family:Berlin Sans FB Demi;-inkscape-font-specification:Berlin Sans FB Demi Bold" /><path
       d="m 93.580149,5.9354182 c -8e-6,0.8892625 -0.0277,1.4144963 -0.08308,1.5757029 -0.115812,0.3692275 -0.463227,0.9958677 -1.042244,1.8799226 -0.503506,0.7592503 -0.933997,1.3520883 -1.291476,1.7785163 -0.130915,0.161211 -0.526162,0.241815 -1.185741,0.241815 -0.573994,0 -0.946583,-0.0208 -1.117769,-0.0624 -0.105738,-0.026 -0.193851,-0.07801 -0.264338,-0.15601 C 88.2934,10.85494 87.862908,10.267302 87.304027,9.4300463 86.704861,8.5303904 86.347377,7.9141507 86.231573,7.5813256 86.105697,7.2225063 86.04276,6.6842717 86.04276,5.9666202 c 0,-0.2028076 0.0026,-0.5070272 0.0076,-0.9126595 0.005,-0.4108201 0.0076,-0.72024 0.0076,-0.9282606 0,-0.1352014 0.08812,-0.2028058 0.264338,-0.2028132 0.256784,7.4e-6 0.64196,0.0078 1.155531,0.023402 0.518603,0.015608 0.906296,0.023409 1.163084,0.023401 0.115802,7.4e-6 0.173704,0.080613 0.173708,0.2418158 -4e-6,0.1456165 -0.01008,0.3666307 -0.03021,0.6630433 -0.02014,0.2912251 -0.03021,0.5122393 -0.03021,0.6630432 -3e-6,0.5408406 0.0151,0.9828689 0.04531,1.3260866 0.0151,0.1768158 0.161116,0.5096372 0.438045,0.9984651 0.28699,0.5148365 0.495942,0.7722531 0.626856,0.7722504 0.125871,2.7e-6 0.32727,-0.2522135 0.6042,-0.7566494 0.266849,-0.4732269 0.410346,-0.7956476 0.430492,-0.9672631 0.04027,-0.3692193 0.06042,-0.816448 0.06042,-1.3416876 -6e-6,-0.1508038 -0.01511,-0.3770184 -0.04531,-0.6786442 -0.03022,-0.3068133 -0.04532,-0.5330278 -0.04531,-0.6786443 -6e-6,-0.1612032 0.05286,-0.2418084 0.158602,-0.2418158 0.120834,7.4e-6 0.299577,0.00261 0.536228,0.00781 0.241673,0.0052 0.422932,0.00781 0.543778,0.00781 0.120834,7.4e-6 0.302094,-0.010394 0.54378,-0.031202 0.246708,-0.020794 0.430485,-0.031195 0.551332,-0.031202 0.125867,7.4e-6 0.208945,0.067611 0.249232,0.2028133 0.08559,0.2964262 0.128385,0.899665 0.128393,1.809718"
       id="path6944"
       style="font-size:15.71942329px;font-style:normal;font-variant:normal;font-weight:bold;font-stretch:normal;text-align:start;line-height:100%;letter-spacing:0px;word-spacing:0px;writing-mode:lr-tb;text-anchor:start;fill:#b2e5e5;fill-opacity:1;stroke:none;font-family:Berlin Sans FB Demi;-inkscape-font-specification:Berlin Sans FB Demi Bold" /><path
       d="m 101.54048,7.1132951 c -1e-5,0.5252379 -0.16364,0.8242572 -0.49091,0.8970585 -0.0554,0.010404 -0.57652,0.067607 -1.563372,0.1716112 -0.594133,0.067607 -1.480293,0.1482127 -2.658478,0.2418157 0.07049,0.3380247 0.284474,0.5954413 0.641962,0.7722505 0.292026,0.1456114 0.624335,0.2184162 0.996932,0.2184142 0.448112,2e-6 0.898742,-0.1248061 1.351892,-0.3744244 0.191324,-0.1248057 0.382654,-0.2496138 0.573994,-0.3744245 0.10573,0.052006 0.28195,0.3172231 0.52867,0.795652 0.25175,0.4784325 0.37762,0.7826527 0.37763,0.9126597 -1e-5,0.0364 -0.0378,0.0962 -0.11329,0.179411 -0.61427,0.681245 -1.568404,1.021867 -2.862396,1.021868 -1.198333,-10e-7 -2.165051,-0.361425 -2.900157,-1.084272 -0.755251,-0.7332458 -1.132876,-1.7135088 -1.132875,-2.9407914 -10e-7,-1.1960731 0.337344,-2.1763361 1.012035,-2.9407919 0.694827,-0.7904441 1.61623,-1.1856695 2.764212,-1.1856774 0.96671,7.9e-6 1.787413,0.3640314 2.462111,1.0920713 0.67469,0.7280536 1.01203,1.5939092 1.01204,2.5975695 M 98.897103,6.637464 c 0,-0.322416 -0.110776,-0.6058342 -0.332308,-0.8502555 -0.221546,-0.2444101 -0.485883,-0.3666179 -0.793013,-0.3666239 -0.317208,6e-6 -0.579028,0.1378147 -0.78546,0.413427 -0.191333,0.2548219 -0.286997,0.5538411 -0.286994,0.8970585 -3e-6,0.1404137 0.07049,0.2106181 0.211469,0.2106138 0.372587,4.3e-6 0.951611,-0.059799 1.737075,-0.1794117 0.166154,-0.025997 0.249231,-0.067599 0.249231,-0.1248082"
       id="path6946"
       style="font-size:15.71942329px;font-style:normal;font-variant:normal;font-weight:bold;font-stretch:normal;text-align:start;line-height:100%;letter-spacing:0px;word-spacing:0px;writing-mode:lr-tb;text-anchor:start;fill:#b2e5e5;fill-opacity:1;stroke:none;font-family:Berlin Sans FB Demi;-inkscape-font-specification:Berlin Sans FB Demi Bold" /><path
       d="m 107.39366,6.4892543 c -1e-5,0.202818 -0.10826,0.3042245 -0.32476,0.3042199 -0.0956,4.6e-6 -0.23665,-0.00519 -0.42294,-0.015601 -0.18126,-0.015597 -0.31721,-0.023397 -0.40783,-0.023402 -0.41791,4.6e-6 -0.70239,0.067609 -0.85343,0.2028133 -0.15106,0.1352131 -0.22658,0.4082306 -0.22658,0.8190534 0,0.2236179 0.003,0.5642399 0.008,1.0218667 0.01,0.4524316 0.0151,0.7904533 0.0151,1.0140662 -1e-5,0.1508112 0.01,0.3770252 0.0302,0.6786432 0.0202,0.296421 0.0302,0.517436 0.0302,0.663045 0,0.124807 -0.083,0.195011 -0.24923,0.210613 -0.24168,0.0208 -0.61175,0.0312 -1.11022,0.0312 -0.47832,0 -0.86098,-0.0156 -1.14797,-0.0468 -0.16616,-0.0208 -0.24924,-0.106606 -0.24924,-0.257417 0,-0.416026 0.003,-1.037466 0.008,-1.8643214 0.005,-0.8320514 0.008,-1.4560914 0.008,-1.8721221 -1e-5,-1.2220746 -0.10825,-2.2283392 -0.32476,-3.018797 -0.01,-0.046796 -0.0151,-0.085798 -0.0151,-0.1170077 0,-0.077998 0.0378,-0.1300012 0.11328,-0.1560102 0.27692,-0.031195 0.68224,-0.088399 1.21596,-0.1716112 0.79552,-0.1612029 1.20587,-0.241808 1.23105,-0.2418158 0.0906,7.8e-6 0.14853,0.1638183 0.17371,0.4914321 0.0252,0.3276283 0.0705,0.4914388 0.13595,0.4914321 -0.0705,6.7e-6 0.13593,-0.135202 0.6193,-0.4056265 0.48336,-0.2756105 0.94909,-0.4134194 1.39721,-0.413427 0.28195,7.6e-6 0.42294,0.062411 0.42294,0.1872123 0,0.150817 -0.0151,0.3640307 -0.0453,0.6396417 -0.0302,0.2964258 -0.0478,0.5096395 -0.0528,0.6396418 0,0.1508157 0.003,0.3510286 0.008,0.6006391 0.01,0.3068252 0.015,0.5096383 0.015,0.6084397"
       id="path6948"
       style="font-size:15.71942329px;font-style:normal;font-variant:normal;font-weight:bold;font-stretch:normal;text-align:start;line-height:100%;letter-spacing:0px;word-spacing:0px;writing-mode:lr-tb;text-anchor:start;fill:#b2e5e5;fill-opacity:1;stroke:none;font-family:Berlin Sans FB Demi;-inkscape-font-specification:Berlin Sans FB Demi Bold" /></g></g></svg>