<?xml version="1.0" encoding="UTF-8" standalone="no"?>
<!-- Generator: Adobe Illustrator 16.0.2, SVG Export Plug-In . SVG Version: 6.00 Build 0)  -->

<svg
   xmlns:dc="http://purl.org/dc/elements/1.1/"
   xmlns:cc="http://creativecommons.org/ns#"
   xmlns:rdf="http://www.w3.org/1999/02/22-rdf-syntax-ns#"
   xmlns:svg="http://www.w3.org/2000/svg"
   xmlns="http://www.w3.org/2000/svg"
   xmlns:sodipodi="http://sodipodi.sourceforge.net/DTD/sodipodi-0.dtd"
   xmlns:inkscape="http://www.inkscape.org/namespaces/inkscape"
   version="1.1"
   id="lay"
   x="0px"
   y="0px"
   width="143px"
   height="59px"
   viewBox="0 0 143 59"
   enable-background="new 0 0 143 59"
   xml:space="preserve"
   inkscape:version="0.48.3.1 r9886"
   sodipodi:docname="cff.svg"><metadata
   id="metadata93"><rdf:RDF><cc:Work
       rdf:about=""><dc:format>image/svg+xml</dc:format><dc:type
         rdf:resource="http://purl.org/dc/dcmitype/StillImage" /><dc:title /></cc:Work></rdf:RDF></metadata><defs
   id="defs91">
	
	
	
	
	
	
	
	
	
	
	
	
	
	
	
	
	
	
	
	
	
	
	
	
	
</defs><sodipodi:namedview
   pagecolor="#ffffff"
   bordercolor="#666666"
   borderopacity="1"
   objecttolerance="10"
   gridtolerance="10"
   guidetolerance="10"
   inkscape:pageopacity="0"
   inkscape:pageshadow="2"
   inkscape:window-width="1231"
   inkscape:window-height="744"
   id="namedview89"
   showgrid="false"
   inkscape:zoom="7.4335664"
   inkscape:cx="71.5"
   inkscape:cy="89.83256"
   inkscape:window-x="49"
   inkscape:window-y="24"
   inkscape:window-maximized="1"
   inkscape:current-layer="g3677"
   showguides="true"
   inkscape:guide-bbox="true" />




<text
   xml:space="preserve"
   style="font-size:56px;font-style:normal;font-variant:normal;font-weight:bold;font-stretch:normal;text-align:start;line-height:100%;letter-spacing:0px;word-spacing:0px;writing-mode:lr-tb;text-anchor:start;fill:#000000;fill-opacity:1;stroke:none;font-family:Berlin Sans FB Demi;-inkscape-font-specification:Berlin Sans FB Demi Bold"
   x="3.6931818"
   y="29.738636"
   id="text3042"
   sodipodi:linespacing="100%"><tspan
     sodipodi:role="line"
     id="tspan3044"
     x="3.6931818"
     y="29.738636" /></text>




<text
   xml:space="preserve"
   style="font-size:56px;font-style:normal;font-variant:normal;font-weight:bold;font-stretch:normal;text-align:start;line-height:100%;letter-spacing:0px;word-spacing:0px;writing-mode:lr-tb;text-anchor:start;fill:#000000;fill-opacity:1;stroke:none;font-family:Berlin Sans FB Demi;-inkscape-font-specification:Berlin Sans FB Demi Bold"
   x="6.534091"
   y="28.602274"
   id="text3046"
   sodipodi:linespacing="100%"><tspan
     sodipodi:role="line"
     id="tspan3048"
     x="6.534091"
     y="28.602274" /></text>




<g
   id="g3677"
   transform="matrix(1.0344265,0,0,1.0015372,0.18239291,0.38358303)"
   style="display:inline"><g
   id="g4830"><path
     id="path4137"
     style="font-size:17.84248352px;font-style:normal;font-variant:normal;font-weight:bold;font-stretch:normal;text-align:start;line-height:100%;letter-spacing:0px;word-spacing:0px;writing-mode:lr-tb;text-anchor:start;fill:#ffbb00;fill-opacity:1;stroke:none;font-family:Berlin Sans FB Demi;-inkscape-font-specification:Berlin Sans FB Demi Bold"
     d="m 13.366269,51.212288 c -1.1e-5,1.25391 -0.362718,2.293947 -1.088125,3.120118 -0.748454,0.855468 -1.730069,1.283202 -2.9448455,1.283204 -0.4433158,-2e-6 -0.9182904,-0.111329 -1.4249253,-0.333985 -0.5066443,-0.222657 -0.7369351,-0.333984 -0.6908728,-0.333985 -0.074848,10e-7 -0.1122709,0.08789 -0.1122668,0.263673 -4.1e-6,0.298828 0.014389,0.747069 0.04318,1.344726 0.028782,0.603513 0.043176,1.054685 0.04318,1.353516 -4.1e-6,0.187496 -0.094999,0.281247 -0.2849851,0.28125 l -1.7617257,0.0088 c -0.3972536,-3e-6 -0.653452,-0.01465 -0.7685961,-0.04395 C 4.2035665,58.11463 4.1172075,58.006232 4.1172085,57.830452 L 4.13448,51.062875 c -1e-6,-1.365229 -0.1007532,-2.516595 -0.3022568,-3.454102 -0.011515,-0.05858 -0.017273,-0.10839 -0.017272,-0.149414 -8e-7,-0.08788 0.034543,-0.146476 0.1036309,-0.175782 0.2245326,-0.08788 0.653449,-0.181632 1.2867506,-0.28125 0.6160256,-0.0996 1.0622139,-0.149405 1.3385662,-0.149413 0.22453,8e-6 0.3511899,0.152352 0.37998,0.457031 0.03454,0.298835 0.07484,0.44825 0.1209028,0.448242 -0.057577,8e-6 0.1871073,-0.158196 0.7340524,-0.47461 0.552693,-0.322257 1.0535753,-0.48339 1.5026484,-0.483398 1.249321,8e-6 2.248207,0.418953 2.996661,1.256836 0.725407,0.808601 1.088114,1.860358 1.088125,3.155273 m -3.203923,-0.01757 c -7e-6,-0.468745 -0.14106,-0.878902 -0.4231597,-1.230469 C 9.4340445,49.59511 9.0569434,49.41054 8.607882,49.410534 c -0.4605869,6e-6 -0.829052,0.184576 -1.1053965,0.553712 -0.2418097,0.333989 -0.3627123,0.744145 -0.3627082,1.230469 -4.1e-6,0.49805 0.1266558,0.911136 0.37998,1.239257 0.2705872,0.357425 0.6448096,0.536136 1.1226684,0.536133 1.0132736,3e-6 1.5199133,-0.591794 1.5199203,-1.77539"
     inkscape:connector-curvature="0" /><path
     id="path4139"
     style="font-size:17.84248352px;font-style:normal;font-variant:normal;font-weight:bold;font-stretch:normal;text-align:start;line-height:100%;letter-spacing:0px;word-spacing:0px;writing-mode:lr-tb;text-anchor:start;fill:#ffbb00;fill-opacity:1;stroke:none;font-family:Berlin Sans FB Demi;-inkscape-font-specification:Berlin Sans FB Demi Bold"
     d="m 22.788048,51.115609 c -10e-6,1.33594 -0.403019,2.419924 -1.209028,3.251953 -0.800268,0.832032 -1.853849,1.248046 -3.160743,1.248048 -1.266604,-2e-6 -2.30867,-0.410157 -3.126201,-1.23047 -0.817533,-0.820311 -1.226298,-1.874997 -1.226298,-3.164063 0,-1.359369 0.391493,-2.46093 1.174483,-3.304687 0.782988,-0.849601 1.842325,-1.274405 3.178016,-1.274414 1.301137,9e-6 2.354717,0.416024 3.160743,1.248047 0.806009,0.826178 1.209018,1.901373 1.209028,3.225586 m -2.83258,0 c -6e-6,-0.462886 -0.141059,-0.870112 -0.423159,-1.22168 -0.282113,-0.357416 -0.647699,-0.536126 -1.096761,-0.536132 -0.454828,6e-6 -0.829051,0.181646 -1.122669,0.544921 -0.276352,0.339849 -0.414526,0.744145 -0.414523,1.212891 -3e-6,0.474614 0.138171,0.881839 0.414523,1.221679 0.293618,0.363284 0.667841,0.544925 1.122669,0.544923 0.449062,2e-6 0.820407,-0.181639 1.114032,-0.544923 0.270587,-0.33984 0.405882,-0.747065 0.405888,-1.221679"
     inkscape:connector-curvature="0" /><path
     id="path4141"
     style="font-size:17.84248352px;font-style:normal;font-variant:normal;font-weight:bold;font-stretch:normal;text-align:start;line-height:100%;letter-spacing:0px;word-spacing:0px;writing-mode:lr-tb;text-anchor:start;fill:#ffbb00;fill-opacity:1;stroke:none;font-family:Berlin Sans FB Demi;-inkscape-font-specification:Berlin Sans FB Demi Bold"
     d="m 29.567236,49.964242 c -6e-6,0.22852 -0.123787,0.342778 -0.371343,0.342773 -0.109395,5e-6 -0.270598,-0.0059 -0.483612,-0.01757 -0.207267,-0.01757 -0.362713,-0.02636 -0.466339,-0.02637 -0.477858,5e-6 -0.803144,0.07618 -0.975858,0.228515 -0.172722,0.152349 -0.259081,0.459966 -0.259077,0.922852 -4e-6,0.251957 0.0029,0.635746 0.0086,1.151367 0.01151,0.509768 0.01727,0.890628 0.01727,1.142578 -4e-6,0.169923 0.01151,0.424806 0.03455,0.764649 0.02303,0.333985 0.03454,0.583008 0.03455,0.74707 -5e-6,0.140625 -0.095,0.219727 -0.284985,0.237305 -0.276354,0.02343 -0.699513,0.03516 -1.26948,0.03516 -0.546943,0 -0.984495,-0.01757 -1.312658,-0.05273 -0.189991,-0.02343 -0.284986,-0.120117 -0.284985,-0.290039 -10e-7,-0.46875 0.0029,-1.168944 0.0086,-2.100586 0.0057,-0.937497 0.0086,-1.640621 0.0086,-2.109375 -1e-6,-1.376948 -0.123782,-2.510735 -0.371344,-3.401367 -0.01152,-0.05273 -0.01727,-0.09668 -0.01727,-0.131837 0,-0.08788 0.04318,-0.146476 0.129539,-0.175781 0.316649,-0.03515 0.780109,-0.0996 1.390382,-0.193359 0.909646,-0.181633 1.378863,-0.272452 1.407653,-0.272461 0.103627,9e-6 0.169836,0.184579 0.198626,0.553711 0.02879,0.369148 0.0806,0.553719 0.155446,0.553711 -0.08061,8e-6 0.155442,-0.152337 0.708145,-0.457032 0.552693,-0.310538 1.08524,-0.465811 1.597643,-0.46582 0.322402,9e-6 0.483604,0.07032 0.483611,0.210938 -7e-6,0.16993 -0.01728,0.410164 -0.05181,0.720702 -0.03456,0.333992 -0.0547,0.574226 -0.06045,0.720704 -7e-6,0.169928 0.0029,0.395514 0.0086,0.676758 0.01151,0.345709 0.01727,0.574225 0.01727,0.685547"
     inkscape:connector-curvature="0" /><path
     id="path4143"
     style="font-size:17.84248352px;font-style:normal;font-variant:normal;font-weight:bold;font-stretch:normal;text-align:start;line-height:100%;letter-spacing:0px;word-spacing:0px;writing-mode:lr-tb;text-anchor:start;fill:#ffbb00;fill-opacity:1;stroke:none;font-family:Berlin Sans FB Demi;-inkscape-font-specification:Berlin Sans FB Demi Bold"
     d="m 36.355062,52.864633 c -6e-6,0.175783 -0.02304,0.442384 -0.06909,0.799804 -0.0403,0.357424 -0.06046,0.621095 -0.06045,0.791016 -7e-6,0.164063 -0.01728,0.269532 -0.05181,0.316406 -0.03455,0.04688 -0.129545,0.114259 -0.284985,0.202149 -0.742693,0.416015 -1.565983,0.624023 -2.46987,0.624023 -1.663855,0 -2.495779,-0.64746 -2.495778,-1.942383 -10e-7,-0.386716 0.01439,-0.966794 0.04318,-1.740235 0.02878,-0.779292 0.04318,-1.362299 0.04318,-1.749023 -10e-7,-0.257807 -0.146811,-0.386713 -0.44043,-0.386718 -0.02303,5e-6 -0.06046,5e-6 -0.112267,0 -0.05181,0.0059 -0.08924,0.0088 -0.112267,0.0088 -0.218777,6e-6 -0.328165,-0.07909 -0.328165,-0.237304 0,-0.09374 0.0057,-0.237299 0.01727,-0.430664 0.01727,-0.193353 0.02591,-0.336908 0.02591,-0.430665 -1e-6,-0.123039 -0.0086,-0.310539 -0.02591,-0.562499 -0.01152,-0.251946 -0.01727,-0.439446 -0.01727,-0.562501 0,-0.117179 0.184233,-0.181632 0.552699,-0.193359 0.20726,-0.0059 0.319527,-0.06444 0.336799,-0.175781 0.03455,-0.222648 0.04605,-0.57421 0.03455,-1.054687 -0.02303,-0.75585 -0.03455,-1.116201 -0.03455,-1.081056 -10e-7,-0.679675 0.06333,-1.019519 0.189991,-1.01953 0.155445,1.1e-5 0.3771,0.03517 0.664965,0.105468 0.328162,0.07619 0.555574,0.120129 0.682237,0.131836 0.293618,0.04103 0.736928,0.09669 1.32993,0.166992 0.143928,0.01173 0.215894,0.06154 0.215898,0.149414 -4e-6,0.234386 -0.02015,0.588877 -0.06046,1.063476 -0.03455,0.47462 -0.05182,0.832041 -0.05181,1.072267 -4e-6,0.287117 0.08347,0.430672 0.250441,0.430663 0.2015,9e-6 0.506635,-0.0088 0.915407,-0.02637 0.408761,-0.01757 0.716775,-0.02636 0.924042,-0.02637 0.126654,8e-6 0.189984,0.04396 0.189991,0.131836 -7e-6,0.134774 -0.0144,0.336922 -0.04318,0.606446 -0.0288,0.269538 -0.04319,0.471686 -0.04318,0.606445 -6e-6,0.140631 0.0029,0.34571 0.0086,0.615234 0.0057,0.269537 0.0086,0.474616 0.0086,0.615234 -6e-6,0.123053 -0.08348,0.184577 -0.250441,0.18457 -0.115152,7e-6 -0.30802,-0.0029 -0.578606,-0.0088 -0.270597,-0.01171 -0.463466,-0.01757 -0.578606,-0.01757 l -0.647693,0 c -0.08637,5e-6 -0.129544,0.128911 -0.12954,0.386718 -4e-6,0.140631 -4e-6,0.348638 0,0.624024 0.0057,0.281254 0.0086,0.489262 0.0086,0.624024 -4e-6,0.492191 0.05469,0.832034 0.164082,1.019531 0.155442,0.251955 0.460578,0.377932 0.915406,0.37793 0.143928,2e-6 0.34831,-0.03222 0.61315,-0.09668 0.270586,-0.07031 0.460576,-0.105466 0.56997,-0.105469 0.120897,3e-6 0.181348,0.06445 0.181354,0.19336"
     inkscape:connector-curvature="0" /><path
     id="path4145"
     style="font-size:17.84248352px;font-style:normal;font-variant:normal;font-weight:bold;font-stretch:normal;text-align:start;line-height:100%;letter-spacing:0px;word-spacing:0px;writing-mode:lr-tb;text-anchor:start;fill:#ffbb00;fill-opacity:1;stroke:none;font-family:Berlin Sans FB Demi;-inkscape-font-specification:Berlin Sans FB Demi Bold"
     d="m 46.165456,47.45057 c -10e-6,0.433601 -0.02016,1.083991 -0.06046,1.951171 -0.04031,0.867193 -0.06046,1.517584 -0.06046,1.951173 -10e-6,0.421879 0.01438,1.05469 0.04318,1.898437 0.02878,0.843752 0.04317,1.473634 0.04318,1.889648 -9e-6,0.158204 -0.07198,0.257813 -0.215897,0.298829 -0.218786,0.05859 -0.682246,0.08789 -1.390382,0.08789 -0.62755,0 -1.065102,-0.01757 -1.312658,-0.05273 -0.109395,-0.01757 -0.178482,-0.08789 -0.207262,-0.210937 -0.01728,-0.175781 -0.03456,-0.351562 -0.05181,-0.527345 -0.0288,-0.269529 -0.06909,-0.404295 -0.120902,-0.404296 0.0806,10e-7 -0.210147,0.19922 -0.872227,0.597656 -0.662091,0.398438 -1.263726,0.597656 -1.804906,0.597656 -1.525679,0 -2.42957,-0.700194 -2.711676,-2.100586 -0.126661,-0.650387 -0.189991,-1.593747 -0.18999,-2.830078 -1e-6,-1.335931 0.106509,-2.390618 0.319529,-3.164062 0.06333,-0.240226 0.181352,-0.360343 0.354073,-0.360352 0.264833,9e-6 0.667841,0.0029 1.209027,0.0088 0.54118,0.0059 0.94419,0.0088 1.209028,0.0088 0.178471,8e-6 0.267708,0.07618 0.267712,0.228516 -4e-6,0.04102 -0.0057,0.102546 -0.01727,0.18457 -0.120907,0.796882 -0.181358,1.605475 -0.181354,2.425781 -4e-6,1.019536 0.03166,1.7168 0.09499,2.091797 0.103626,0.644534 0.480727,0.966799 1.131304,0.966797 0.253314,2e-6 0.526785,-0.114255 0.820412,-0.342773 0.299371,-0.228513 0.454818,-0.465817 0.466339,-0.711914 0.01151,-0.216793 0.01727,-1.687495 0.01727,-4.41211 -7e-6,-0.193351 0.01438,-0.307609 0.04318,-0.342774 0.03453,-0.05858 0.138167,-0.08788 0.310893,-0.08789 0.282099,8e-6 0.705258,0.0029 1.269478,0.0088 0.569962,0.0059 0.996,0.0088 1.278115,0.0088 0.172709,8e-6 0.273461,0.04395 0.302258,0.131835 0.01151,0.04688 0.01726,0.117196 0.01727,0.210938"
     inkscape:connector-curvature="0" /><path
     id="path4147"
     style="font-size:17.84248352px;font-style:normal;font-variant:normal;font-weight:bold;font-stretch:normal;text-align:start;line-height:100%;letter-spacing:0px;word-spacing:0px;writing-mode:lr-tb;text-anchor:start;fill:#ffbb00;fill-opacity:1;stroke:none;font-family:Berlin Sans FB Demi;-inkscape-font-specification:Berlin Sans FB Demi Bold"
     d="m 56.209019,53.154671 c -9e-6,1.669923 -0.345445,2.868164 -1.036309,3.594727 -0.713909,0.744139 -1.899906,1.116209 -3.557995,1.116211 -0.483615,-2e-6 -1.142822,-0.0791 -1.977623,-0.237305 -1.065097,-0.19922 -1.597645,-0.433595 -1.597644,-0.703125 -10e-7,-0.111329 0.12378,-0.685548 0.371345,-1.722656 0.0403,-0.164062 0.103629,-0.246093 0.189989,-0.246094 0.02879,0.0059 0.06045,0.01758 0.09499,0.03516 0.886618,0.445312 1.707029,0.667968 2.461235,0.667968 0.414519,0 0.826163,-0.105469 1.234935,-0.316406 0.495119,-0.251953 0.742682,-0.568358 0.742689,-0.949218 l 0,-0.588867 c -0.587248,0.5625 -1.341451,0.84375 -2.26261,0.843749 -1.082369,1e-6 -1.971868,-0.395507 -2.668496,-1.186523 -0.673601,-0.761717 -1.010402,-1.699216 -1.010402,-2.8125 0,-1.119136 0.322407,-2.047846 0.967223,-2.786133 0.673599,-0.76757 1.554461,-1.151359 2.642588,-1.151368 0.869344,9e-6 1.534308,0.316415 1.994896,0.94922 0.09211,0.128913 0.15544,0.193366 0.18999,0.193359 0.05181,7e-6 0.07771,-0.105461 0.07772,-0.316406 -6e-6,-0.468742 0.05181,-0.703117 0.155446,-0.703126 0.09211,9e-6 0.590114,0.04982 1.494013,0.149414 0.903883,0.09376 1.373101,0.146493 1.407654,0.158204 0.09787,0.03517 0.146801,0.111336 0.14681,0.228515 -9e-6,0.404305 -0.0144,1.00782 -0.04318,1.810547 -0.02304,0.80274 -0.03455,1.406255 -0.03455,1.810547 -10e-6,0.240239 0.0029,0.60059 0.0086,1.081055 0.0057,0.480471 0.0086,0.840823 0.0086,1.081054 m -2.988026,-2.43457 c -5e-6,-0.427729 -0.141059,-0.796869 -0.423159,-1.107422 -0.276355,-0.3164 -0.624669,-0.474603 -1.044945,-0.474609 -0.420285,6e-6 -0.771479,0.161139 -1.053582,0.483398 -0.276352,0.316412 -0.414526,0.688482 -0.414523,1.116211 -3e-6,0.427739 0.14105,0.796879 0.423159,1.107422 0.28786,0.310551 0.636175,0.465823 1.044946,0.46582 0.420276,3e-6 0.76859,-0.158199 1.044945,-0.474609 0.2821,-0.316403 0.423154,-0.688473 0.423159,-1.116211"
     inkscape:connector-curvature="0" /><path
     id="path4149"
     style="font-size:17.84248352px;font-style:normal;font-variant:normal;font-weight:bold;font-stretch:normal;text-align:start;line-height:100%;letter-spacing:0px;word-spacing:0px;writing-mode:lr-tb;text-anchor:start;fill:#ffbb00;fill-opacity:1;stroke:none;font-family:Berlin Sans FB Demi;-inkscape-font-specification:Berlin Sans FB Demi Bold"
     d="m 66.373487,51.045296 c -9e-6,0.451176 0.0259,1.122074 0.07772,2.012696 0.0518,0.890627 0.07771,1.558594 0.07772,2.003906 -1e-5,0.234375 -0.100761,0.360351 -0.302257,0.37793 -0.71391,0.05273 -1.531443,0.0791 -2.452599,0.0791 -0.109395,0 -0.184239,-0.166992 -0.224533,-0.500977 -0.03455,-0.339842 -0.07773,-0.512694 -0.129539,-0.518554 -0.04606,0.02344 -0.106515,0.07324 -0.181354,0.149414 -0.64482,0.662109 -1.335693,0.993164 -2.072618,0.993164 -1.122672,0 -2.052471,-0.451172 -2.7894,-1.353515 -0.696631,-0.843749 -1.044945,-1.85156 -1.044945,-3.023438 0,-1.35351 0.359829,-2.443353 1.079489,-3.269532 0.748444,-0.85546 1.773237,-1.283194 3.074384,-1.283203 0.903886,9e-6 1.617788,0.322274 2.141705,0.966797 0.02303,0.02931 0.04317,0.04396 0.06046,0.04395 0.05181,7e-6 0.109381,-0.140618 0.172718,-0.421876 0.06908,-0.2871 0.149683,-0.430654 0.241806,-0.430664 0.213012,10e-6 0.618899,0.06153 1.217663,0.184571 0.569962,0.117195 0.978727,0.216805 1.226299,0.298828 0.08635,0.03517 0.12953,0.08204 0.129539,0.140625 -9e-6,0.02345 -0.0086,0.08497 -0.02591,0.18457 -0.184243,1.060554 -0.276359,2.182623 -0.27635,3.366211 m -2.780763,0.05273 c -7e-6,-0.498041 -0.155452,-0.908197 -0.466339,-1.230468 -0.305142,-0.328119 -0.705271,-0.492181 -1.200391,-0.492187 -0.49513,6e-6 -0.895261,0.161138 -1.200392,0.483398 -0.305139,0.322271 -0.457706,0.735357 -0.457703,1.239257 -3e-6,0.474614 0.1612,0.88184 0.48361,1.22168 0.322404,0.339847 0.713898,0.509768 1.174485,0.509766 0.489362,2e-6 0.889492,-0.16113 1.200391,-0.483398 0.310887,-0.328122 0.466332,-0.744137 0.466339,-1.248048"
     inkscape:connector-curvature="0" /><path
     id="path4151"
     style="font-size:17.84248352px;font-style:normal;font-variant:normal;font-weight:bold;font-stretch:normal;text-align:start;line-height:100%;letter-spacing:0px;word-spacing:0px;writing-mode:lr-tb;text-anchor:start;fill:#ffbb00;fill-opacity:1;stroke:none;font-family:Berlin Sans FB Demi;-inkscape-font-specification:Berlin Sans FB Demi Bold"
     d="m 71.235505,50.148812 c -4e-6,1.599613 0.0057,2.827151 0.01728,3.682617 -4e-6,0.134768 0.0086,0.366213 0.02591,0.694336 0.01727,0.298829 0.0259,0.530274 0.02591,0.694336 -4e-6,0.123047 -0.07197,0.196289 -0.215898,0.219727 -0.25908,0.04687 -0.725419,0.07032 -1.399017,0.07032 -0.690875,0 -1.131305,-0.02343 -1.321294,-0.07032 -0.126662,-0.0293 -0.198628,-0.108398 -0.215898,-0.237305 -10e-7,-0.01757 -10e-7,-0.143555 0,-0.37793 -10e-7,-0.521483 0.0057,-1.300779 0.01727,-2.33789 0.01151,-1.042965 0.01727,-1.822261 0.01727,-2.337891 0,-2.46093 0.0029,-3.582999 0.0086,-3.366211 -0.01728,-1.294912 -0.08924,-2.411122 -0.215898,-3.348633 -0.01152,-0.06444 -0.01727,-0.114246 -0.01727,-0.149414 0,-0.128894 0.07484,-0.193347 0.224534,-0.193359 l 3.08302,0 c 0.143928,1.2e-5 0.210136,0.06154 0.198626,0.18457 l -0.0086,0.158203 c -0.149692,2.53126 -0.224538,4.769539 -0.224534,6.714844"
     inkscape:connector-curvature="0" /></g><g
   id="g4814"
   transform="translate(0.10451858,-3.9938606)"><path
     d="m 19.522029,27.300213 c -1.9e-5,0.436846 -0.236358,0.65526 -0.709016,0.655243 -1.963448,1.7e-5 -3.508739,-0.05459 -4.635879,-0.16381 0.05453,1.365105 0.109067,3.267127 0.16362,5.706072 0.01817,1.037478 0.09997,2.839394 0.245429,5.405753 0.127245,2.311555 0.190875,4.11347 0.190889,5.405753 -1.4e-5,0.382225 -0.254533,0.600639 -0.763556,0.655243 -0.61813,0.0728 -2.163421,0.109207 -4.6358777,0.109207 -2.0543369,0 -3.3905591,-0.0546 -4.0086705,-0.163811 C 4.7508465,44.800656 4.4417883,44.427532 4.4417923,43.790489 l 0,-15.043281 c -4e-6,-0.527818 -0.3636018,-0.791735 -1.0907947,-0.791752 -0.1272622,1.7e-5 -0.336331,0.0091 -0.6272069,0.02731 -0.2727007,0.01821 -0.4726796,0.02732 -0.5999371,0.0273 -0.5090387,1e-5 -0.7726471,-0.145599 -0.7908261,-0.436835 C 1.1694075,25.989747 1.087598,23.687299 1.0875987,20.66588 1.087598,19.992462 1.433016,19.582935 2.1238536,19.4373 2.7419683,19.382722 3.3691746,19.33722 4.0054744,19.300791 3.9145714,17.844723 3.8691217,16.70715 3.8691251,15.888068 3.8691217,12.757497 4.4781481,10.482351 5.6962062,9.062623 8.1141268,6.2414775 12.022804,4.8308868 17.422249,4.8308468 c 0.363581,4e-5 0.58174,0.1092471 0.654477,0.3276213 0.145421,0.8190924 0.35449,2.0294703 0.627207,3.6311371 0.01816,0.1456455 0.136331,0.6552782 0.354508,1.5288998 0.1636,0.673478 0.24541,1.192211 0.245429,1.556202 -1.9e-5,0.436861 -0.645405,0.718979 -1.936161,0.846354 -1.490768,0.163843 -2.408853,0.436861 -2.754256,0.819054 -0.599951,0.655273 -0.899919,1.938457 -0.899906,3.849552 -1.3e-5,0.600665 0.04543,1.164902 0.13635,1.69271 0.509023,2.6e-5 1.299849,-0.01817 2.372478,-0.0546 1.072598,-0.03638 1.881603,-0.05458 2.427018,-0.0546 0.545379,2.6e-5 0.818077,0.200239 0.818096,0.600639 -1.9e-5,0.85548 0.0091,2.147764 0.02727,3.876854 0.01816,1.710931 0.02725,2.994113 0.02727,3.84955"
     style="font-size:55.8813591px;font-style:normal;font-variant:normal;font-weight:bold;font-stretch:normal;text-align:start;line-height:100%;letter-spacing:0px;word-spacing:0px;writing-mode:lr-tb;text-anchor:start;fill:#3d8e8e;fill-opacity:1;stroke:none;font-family:Berlin Sans FB Demi;-inkscape-font-specification:Berlin Sans FB Demi Bold"
     id="path4363"
     inkscape:connector-curvature="0" /><path
     d="m 40.574367,27.900852 c -2.1e-5,0.709863 -0.390888,1.064786 -1.172604,1.06477 -0.345438,1.6e-5 -0.854475,-0.01818 -1.527112,-0.0546 -0.654494,-0.05459 -1.145351,-0.08189 -1.472574,-0.08191 -1.508947,1.6e-5 -2.536111,0.236632 -3.081494,0.709846 -0.54541,0.473246 -0.818109,1.428808 -0.818097,2.866687 -1.2e-5,0.782664 0.0091,1.97484 0.02727,3.576534 0.03635,1.583511 0.05453,2.766587 0.05454,3.549231 -1.3e-5,0.52784 0.03635,1.319591 0.10908,2.375256 0.07271,1.03747 0.109066,1.811019 0.109079,2.320651 -1.3e-5,0.436829 -0.299981,0.682545 -0.899906,0.737149 -0.872646,0.0728 -2.208869,0.109207 -4.00867,0.109207 -1.727097,0 -3.10877,-0.0546 -4.14502,-0.163811 -0.59994,-0.0728 -0.899908,-0.373124 -0.899905,-0.900959 -3e-6,-1.456092 0.0091,-3.631133 0.02727,-6.525126 0.01818,-2.912179 0.02726,-5.09632 0.02727,-6.552428 -3e-6,-4.27726 -0.390872,-7.799187 -1.172605,-10.565789 -0.03636,-0.163786 -0.05454,-0.300295 -0.05454,-0.409527 -2e-6,-0.272992 0.136347,-0.455005 0.409047,-0.546036 0.999892,-0.109181 2.463374,-0.309394 4.390449,-0.600639 2.872416,-0.56421 4.354078,-0.846328 4.444989,-0.846355 0.327226,2.7e-5 0.536295,0.573363 0.627206,1.720012 0.09089,1.146699 0.254507,1.720036 0.490857,1.720012 -0.25453,2.4e-5 0.490846,-0.473206 2.236129,-1.419693 1.745256,-0.964637 3.426897,-1.446968 5.044926,-1.446994 1.018056,2.6e-5 1.527092,0.218441 1.527113,0.655244 -2.1e-5,0.527859 -0.05456,1.274106 -0.163619,2.238745 -0.109101,1.03749 -0.172729,1.783738 -0.19089,2.238746 -2e-5,0.527856 0.0091,1.228601 0.02727,2.102237 0.03634,1.073889 0.05452,1.783734 0.05454,2.129539"
     style="font-size:55.8813591px;font-style:normal;font-variant:normal;font-weight:bold;font-stretch:normal;text-align:start;line-height:100%;letter-spacing:0px;word-spacing:0px;writing-mode:lr-tb;text-anchor:start;fill:#3d8e8e;fill-opacity:1;stroke:none;font-family:Berlin Sans FB Demi;-inkscape-font-specification:Berlin Sans FB Demi Bold"
     id="path4365"
     inkscape:connector-curvature="0" /><path
     d="m 71.825634,20.092543 c -3.1e-5,1.346912 -0.06366,3.367241 -0.19089,6.060996 -0.127289,2.693792 -0.190919,4.714121 -0.190889,6.060995 -3e-5,1.310497 0.04542,3.276224 0.136349,5.897185 0.09087,2.620976 0.136319,4.577601 0.13635,5.869883 -3.1e-5,0.491433 -0.227279,0.800852 -0.681747,0.928261 -0.690866,0.182011 -2.154347,0.273018 -4.390448,0.273018 -1.981634,0 -3.363306,-0.0546 -4.145021,-0.163811 -0.345439,-0.0546 -0.563597,-0.273018 -0.654476,-0.655242 -0.05456,-0.546036 -0.1091,-1.092071 -0.163619,-1.638108 -0.09092,-0.837252 -0.218179,-1.255878 -0.381779,-1.255881 0.254499,3e-6 -0.663586,0.618842 -2.754255,1.85652 -2.090705,1.237682 -3.990505,1.856522 -5.699403,1.856522 -4.817683,0 -7.671926,-2.17504 -8.562738,-6.525126 -0.399961,-2.020324 -0.599939,-4.950712 -0.599937,-8.791174 -2e-6,-4.149852 0.336325,-7.426062 1.008984,-9.828642 0.199976,-0.746223 0.572663,-1.119347 1.118065,-1.119373 0.836271,2.6e-5 2.108864,0.0091 3.817781,0.02731 1.708902,0.01823 2.981495,0.02733 3.817782,0.02731 0.563565,2.6e-5 0.845353,0.236641 0.845366,0.709846 -1.3e-5,0.127433 -0.01819,0.318546 -0.05454,0.573338 -0.381791,2.475383 -0.572679,4.987145 -0.572667,7.535292 -1.2e-5,3.16702 0.09998,5.33296 0.299969,6.497824 0.327225,2.002139 1.518008,3.003203 3.572352,3.003195 0.799899,8e-6 1.663444,-0.354914 2.590637,-1.064769 0.945336,-0.709837 1.436193,-1.446984 1.472573,-2.211444 0.03634,-0.673433 0.05452,-5.241926 0.05454,-13.705495 -2e-5,-0.600614 0.04543,-0.955537 0.136349,-1.06477 0.109059,-0.181985 0.436297,-0.272991 0.981716,-0.273017 0.890793,2.6e-5 2.227015,0.0091 4.00867,0.02731 1.799784,0.01823 3.145096,0.02733 4.035941,0.02731 0.545367,2.6e-5 0.863515,0.136535 0.954444,0.409526 0.03633,0.145635 0.05451,0.364049 0.05454,0.655243"
     style="font-size:55.8813591px;font-style:normal;font-variant:normal;font-weight:bold;font-stretch:normal;text-align:start;line-height:100%;letter-spacing:0px;word-spacing:0px;writing-mode:lr-tb;text-anchor:start;fill:#3d8e8e;fill-opacity:1;stroke:none;font-family:Berlin Sans FB Demi;-inkscape-font-specification:Berlin Sans FB Demi Bold"
     id="path4367"
     inkscape:connector-curvature="0" /><path
     d="m 126.85614,31.422783 c -2e-5,-1.547086 -0.49087,-2.821168 -1.47257,-3.82225 -0.96355,-1.019248 -2.22706,-1.528881 -3.79051,-1.5289 -1.56349,1.9e-5 -2.82699,0.500552 -3.79051,1.501598 -0.96355,1.001082 -1.44532,2.284264 -1.44531,3.849552 -1e-5,1.474308 0.50903,2.739289 1.52712,3.794947 1.01806,1.055678 2.25429,1.583512 3.7087,1.583503 1.54528,9e-6 2.80878,-0.500524 3.79051,-1.501598 0.9817,-1.019256 1.47255,-2.311538 1.47257,-3.876852 m 8.78098,-0.163811 c -3e-5,1.401503 0.0818,3.485538 0.24543,6.252108 0.16359,2.766585 0.2454,4.841519 0.24543,6.224807 -3e-5,0.728047 -0.31818,1.119372 -0.95445,1.173976 -2.25434,0.163811 -4.83588,0.245716 -7.74463,0.245716 -0.34544,0 -0.58178,-0.518734 -0.70902,-1.556201 -0.10911,-1.055667 -0.24546,-1.592601 -0.40905,-1.610806 -0.14547,0.07281 -0.33635,0.227518 -0.57267,0.46413 -2.03616,2.056735 -4.21776,3.085101 -6.54477,3.085102 -3.54509,-1e-6 -6.48115,-1.40149 -8.80816,-4.204474 -2.19978,-2.620966 -3.29966,-5.751567 -3.29965,-9.391813 -10e-6,-4.204458 1.13623,-7.589876 3.40872,-10.156263 2.36339,-2.657349 5.59941,-3.986034 9.70807,-3.986061 2.85423,2.7e-5 5.10854,1.001092 6.76294,3.003196 0.0726,0.09103 0.13633,0.136533 0.19088,0.136509 0.1636,2.4e-5 0.3454,-0.436804 0.5454,-1.310485 0.21814,-0.891833 0.47266,-1.337761 0.76356,-1.337787 0.67263,2.6e-5 1.95432,0.191139 3.84505,0.573337 1.79978,0.364049 3.09055,0.673469 3.87231,0.928261 0.27267,0.109232 0.40903,0.254841 0.40906,0.436828 -3e-5,0.07283 -0.0273,0.263941 -0.0819,0.573337 -0.58178,3.294436 -0.87266,6.77996 -0.87263,10.456583"
     style="font-size:55.8813591px;font-style:normal;font-variant:normal;font-weight:bold;font-stretch:normal;text-align:start;line-height:100%;letter-spacing:0px;word-spacing:0px;writing-mode:lr-tb;text-anchor:start;fill:#3d8e8e;fill-opacity:1;stroke:none;font-family:Berlin Sans FB Demi;-inkscape-font-specification:Berlin Sans FB Demi Bold"
     id="path4792"
     inkscape:connector-curvature="0" /><g
     transform="translate(0,-0.99846516)"
     id="g4809"><path
       d="m 91.971605,30.429126 c -0.576973,0.01742 -0.972166,0.457041 -0.927971,1.004198 0.04811,0.583994 0.397477,0.839209 0.950766,0.82656 0.507641,-0.01262 0.917239,-0.440553 0.861299,-0.932509 -0.06255,-0.542949 -0.384934,-0.850419 -0.884094,-0.898249 z m 0.853614,-5.577351 c -0.0028,3.41e-4 -0.0093,0.0011 -0.01231,0.002 -0.95298,-0.0023 -1.594555,1.369607 -1.793785,1.848494 -0.154034,0.37043 -0.434276,0.323446 -0.777309,0.191827 -1.109476,-0.240516 -1.766369,-0.156078 -2.570427,0.154165 -0.715125,0.275928 -1.325507,0.83816 -1.81336,1.444616 -0.335845,0.417488 -0.519762,0.947472 -0.717918,1.450196 -0.101307,0.257109 -0.162501,0.529072 -0.239083,0.795203 -0.825542,-0.382681 -0.93009,1.451872 -1.044092,1.43067 -0.184973,0.02005 -0.08733,-1.433256 -0.493694,-1.469031 -0.505687,-0.04457 -0.565086,2.381033 0.438314,2.459546 0.889009,0.06965 1.029357,-1.487541 1.091389,-1.480888 0.06201,0.007 0.0097,0.665815 0.0858,1.01702 0.305078,1.392473 0.565758,1.713377 1.445957,2.592082 0.560325,0.559332 0.330921,1.153982 0.192483,1.653179 -0.165788,0.558109 0.115923,0.954275 0.367399,1.004462 0.389059,0.07762 1.195745,0.09784 1.643838,-0.01673 0.251569,-0.03197 0.397952,-0.499357 0.252596,-0.924249 -0.176303,-0.516462 -0.0209,-1.267357 0.523407,-1.238145 0.246219,0.01307 1.030857,-0.0128 1.413542,0.03139 0.415071,0.048 0.5572,0.674483 0.450471,1.141182 -0.190579,0.557885 -0.08218,0.971796 0.306613,1.029577 0.350982,0.07497 1.116668,0.07455 1.633041,-0.02721 0.311957,-0.08257 0.588503,-0.494226 0.422777,-0.96052 -0.256299,-0.576618 -0.236551,-1.308663 -0.0162,-1.530409 0.163569,-0.164879 0.437709,-0.392323 0.588957,-0.470145 1.130511,-0.827037 1.269022,-1.218902 1.543202,-2.846025 0.08649,-0.512657 -0.34096,-0.407165 -0.870559,-0.407366 -0.630043,-5.72e-4 -0.712407,-0.0013 -0.77127,-0.604771 -0.09487,-0.97627 -0.366822,-1.755714 -0.926594,-2.541866 -0.218651,-0.244927 -0.105311,-0.479813 -0.09186,-0.804967 0.02197,-0.529788 0.01093,-1.061023 0.02365,-1.591101 0.0043,-0.248395 -0.04063,-1.321214 -0.273521,-1.332312 -0.0027,-1.79e-4 -0.0088,-3.39e-4 -0.01171,0 z m 10.715271,13.95809 c -3e-5,5.18734 -1.09082,8.90948 -3.27239,11.166428 -2.254326,2.311545 -5.999384,3.467319 -11.235179,3.467326 -1.527125,-7e-6 -3.608723,-0.245722 -6.244799,-0.737148 -3.363289,-0.618846 -5.044929,-1.346893 -5.044925,-2.184141 -4e-6,-0.345828 0.390863,-2.129543 1.172604,-5.35115 0.127254,-0.509632 0.327233,-0.764449 0.599937,-0.76445 0.0909,0.0182 0.190883,0.0546 0.299968,0.109207 2.799699,1.383291 5.390333,2.074935 7.771913,2.074935 1.308938,0 2.608801,-0.327622 3.899591,-0.982864 1.563453,-0.782649 2.345189,-1.765513 2.345208,-2.948593 l 0,-1.829219 c -1.854368,1.747318 -4.235934,2.620974 -7.144705,2.620971 -3.417832,3e-6 -6.226626,-1.228576 -8.426389,-3.685741 -2.127052,-2.366145 -3.190576,-5.278333 -3.190575,-8.736569 -1e-6,-3.476409 1.018074,-6.361295 3.054226,-8.654666 2.127043,-2.384329 4.908567,-3.576506 8.344579,-3.576533 2.745151,2.7e-5 4.844929,0.98289 6.299339,2.948592 0.29086,0.40045 0.490839,0.600664 0.599937,0.60064 0.1636,2.4e-5 0.245409,-0.327598 0.245429,-0.982864 -2e-5,-1.456069 0.1636,-2.184116 0.490858,-2.184143 0.290858,2.7e-5 1.863419,0.154737 4.717686,0.46413 2.854217,0.291246 4.335877,0.455056 4.444987,0.491433 0.30903,0.109232 0.46356,0.345848 0.46359,0.709846 -3e-5,1.255906 -0.0455,3.130626 -0.13635,5.624167 -0.0728,2.49358 -0.10911,4.3683 -0.10908,5.624167 -3e-5,0.746262 0.009,1.865634 0.0273,3.358119 0.0182,1.492507 0.0272,2.611878 0.0273,3.35812"
       style="fill:#3d8e8e"
       id="path4724"
       inkscape:connector-curvature="0" /></g></g><text
   xml:space="preserve"
   style="font-size:19.64928055px;font-style:normal;font-variant:normal;font-weight:bold;font-stretch:normal;text-align:start;line-height:100%;letter-spacing:0px;word-spacing:0px;writing-mode:lr-tb;text-anchor:start;fill:#000000;fill-opacity:1;stroke:none;font-family:Berlin Sans FB Demi;-inkscape-font-specification:Berlin Sans FB Demi Bold"
   x="116.79972"
   y="54.555542"
   id="text4840"
   sodipodi:linespacing="100%"
   transform="scale(0.98397421,1.0162868)"><tspan
     sodipodi:role="line"
     id="tspan4842"
     x="116.79972"
     y="54.555542"
     style="font-size:17.68435097px">.pt</tspan></text>

</g></svg>