<?xml version="1.0" encoding="UTF-8" standalone="no"?>
<!-- Created with Inkscape (http://www.inkscape.org/) -->

<svg
   xmlns:dc="http://purl.org/dc/elements/1.1/"
   xmlns:cc="http://creativecommons.org/ns#"
   xmlns:rdf="http://www.w3.org/1999/02/22-rdf-syntax-ns#"
   xmlns:svg="http://www.w3.org/2000/svg"
   xmlns="http://www.w3.org/2000/svg"
   version="1.1"
   width="143"
   height="59"
   id="svg21664">
  <defs
     id="defs21666" />
  <metadata
     id="metadata21669">
    <rdf:RDF>
      <cc:Work
         rdf:about="">
        <dc:format>image/svg+xml</dc:format>
        <dc:type
           rdf:resource="http://purl.org/dc/dcmitype/StillImage" />
        <dc:title></dc:title>
      </cc:Work>
    </rdf:RDF>
  </metadata>
  <g
     transform="translate(0,-993.36218)"
     id="layer1">
    <g
       id="g22964">
      <g
         id="g22921">
        <path
           d="m 14.998488,1037.4843 c -1.1e-5,0.8398 -0.04283,2.0996 -0.128463,3.7792 -0.07852,1.6733 -0.11777,2.9265 -0.11776,3.7599 -10e-6,2.5716 0.06065,4.5182 0.181992,5.8397 l 0.01071,0.127 c 0.0071,0.065 -0.08923,0.1074 -0.289044,0.127 -0.135612,0.013 -0.328309,0.013 -0.57809,0 -0.299759,-0.019 -0.438929,-0.03 -0.417508,-0.03 -0.107064,0 -0.264076,0.01 -0.471036,0.03 -0.206979,0.019 -0.363991,0.03 -0.471036,0.03 -0.09993,0 -0.160589,-0.2245 -0.18199,-0.6738 -0.01428,-0.4557 -0.03926,-0.6868 -0.07493,-0.6933 -0.04283,0.019 -0.09636,0.062 -0.160581,0.1269 -0.977763,0.9635 -2.101824,1.4454 -3.3721865,1.4454 -1.4416583,0 -2.6263829,-0.5014 -3.5541775,-1.5039 -0.87784,-0.9441 -1.316759,-2.0834 -1.3167586,-3.4181 -4e-7,-1.3867 0.4424872,-2.552 1.3274639,-3.496 0.9277947,-0.9896 2.1374984,-1.4844 3.629115,-1.4844 0.8992435,0 1.6843017,0.2409 2.3551777,0.7226 0.306879,0.241 0.610197,0.4851 0.909956,0.7325 0.05708,-0.019 0.08563,-0.065 0.08565,-0.1368 l 0,-3.1641 c -9e-6,-0.2148 -0.01071,-0.5403 -0.03211,-0.9765 -0.02142,-0.4361 -0.03212,-0.7649 -0.03211,-0.9863 -8e-6,-0.1562 0.05708,-0.2344 0.171286,-0.2344 0.264057,0 0.656586,-0.019 1.177589,-0.058 0.520983,-0.046 0.909944,-0.069 1.166883,-0.069 0.121317,0 0.18198,0.069 0.181991,0.2051 m -2.676337,8.8867 c -10e-6,-0.7813 -0.264075,-1.4681 -0.792197,-2.0605 -0.563823,-0.6315 -1.263238,-0.9473 -2.0982494,-0.9473 -0.8778439,0 -1.6022388,0.3125 -2.1731868,0.9374 -0.5424078,0.586 -0.8136097,1.2891 -0.8136069,2.1095 -2.8e-6,0.7811 0.2819045,1.4616 0.8457229,2.0409 0.5780849,0.6121 1.2917744,0.918 2.1410708,0.918 0.8564214,0 1.5629744,-0.3092 2.1196594,-0.9277 0.51385,-0.5795 0.770777,-1.2695 0.770787,-2.0703"
           id="path22832"
           style="font-size:20.94018364px;font-style:normal;font-variant:normal;font-weight:normal;font-stretch:normal;text-align:start;line-height:100%;letter-spacing:0px;word-spacing:0px;writing-mode:lr-tb;text-anchor:start;fill:#ff9900;fill-opacity:1;stroke:none;font-family:Berlin Sans FB;-inkscape-font-specification:Berlin Sans FB" />
        <path
           d="m 25.982181,1045.8632 c -10e-6,0.4817 -0.22839,0.804 -0.685143,0.9667 -0.306895,0.1042 -2.515764,0.2963 -6.626613,0.5763 0.09278,0.5728 0.438916,1.0612 1.03842,1.4648 0.570947,0.3841 1.18472,0.5761 1.84132,0.5761 1.127624,0 2.162473,-0.332 3.104552,-0.9961 0.114182,-0.085 0.228373,-0.1692 0.342572,-0.2538 0.05708,0 0.09278,0.01 0.107054,0.019 0.0214,0.013 0.157002,0.2409 0.406803,0.6836 0.249781,0.4362 0.374677,0.6706 0.374688,0.7031 -1.1e-5,0.039 -0.0571,0.1139 -0.171286,0.2246 -1.049134,1.0157 -2.394439,1.5235 -4.035919,1.5235 -1.655765,0 -2.976091,-0.4493 -3.96098,-1.3476 -0.984895,-0.905 -1.47734,-2.1095 -1.47734,-3.6134 0,-1.3411 0.471035,-2.5097 1.413107,-3.5059 0.992026,-1.0351 2.208868,-1.5527 3.650526,-1.5527 1.341731,0 2.462223,0.4493 3.361481,1.3477 0.877829,0.8724 1.316748,1.9336 1.316758,3.1836 m -2.547873,-0.5957 c -8e-6,-0.5404 -0.235526,-1.0189 -0.706554,-1.4356 -0.463905,-0.4166 -0.988467,-0.6249 -1.573687,-0.6249 -0.656599,0 -1.241825,0.2409 -1.755678,0.7226 -0.506724,0.4818 -0.760083,1.0222 -0.76008,1.6211 -3e-6,0.1367 0.128461,0.2051 0.385393,0.2051 1.056257,0 2.319487,-0.098 3.789695,-0.293 0.413933,-0.052 0.620903,-0.1172 0.620911,-0.1953"
           id="path22834"
           style="font-size:20.94018364px;font-style:normal;font-variant:normal;font-weight:normal;font-stretch:normal;text-align:start;line-height:100%;letter-spacing:0px;word-spacing:0px;writing-mode:lr-tb;text-anchor:start;fill:#ff9900;fill-opacity:1;stroke:none;font-family:Berlin Sans FB;-inkscape-font-specification:Berlin Sans FB" />
        <path
           d="m 30.200091,1037.5624 -0.0107,0.1269 c -0.157015,2.4219 -0.235521,4.502 -0.235517,6.2403 -4e-6,0.7748 0.01427,1.9368 0.04282,3.4863 0.02854,1.543 0.04281,2.6985 0.04282,3.4668 -4e-6,0.1498 -0.0571,0.2246 -0.171287,0.2246 l -2.044722,0 c -0.128466,0 -0.192697,-0.074 -0.192696,-0.2246 -1e-6,-0.7683 0.0071,-1.9238 0.02141,-3.4668 0.01427,-1.5495 0.02141,-2.7115 0.02141,-3.4863 -10e-7,-0.7032 -0.03925,-1.7578 -0.117759,-3.1641 -0.07137,-1.4128 -0.107055,-2.4674 -0.107053,-3.164 -2e-6,-0.1302 0.07493,-0.1954 0.224812,-0.1954 0.128463,0 0.32116,0.01 0.57809,0.03 0.256926,0.019 0.449622,0.03 0.578089,0.03 0.135598,10e-5 0.335431,-0.01 0.5995,-0.03 0.264062,-0.02 0.460326,-0.03 0.588794,-0.03 0.12846,0 0.189124,0.052 0.181991,0.1563"
           id="path22836"
           style="font-size:20.94018364px;font-style:normal;font-variant:normal;font-weight:normal;font-stretch:normal;text-align:start;line-height:100%;letter-spacing:0px;word-spacing:0px;writing-mode:lr-tb;text-anchor:start;fill:#ff9900;fill-opacity:1;stroke:none;font-family:Berlin Sans FB;-inkscape-font-specification:Berlin Sans FB" />
        <path
           d="m 35.113848,1039.4276 c -4e-6,0.8008 -0.488881,1.2013 -1.466634,1.2012 -0.99203,10e-5 -1.488045,-0.4004 -1.488044,-1.2012 -1e-6,-0.358 0.153443,-0.6542 0.46033,-0.8886 0.285475,-0.2214 0.628046,-0.3321 1.027714,-0.3321 0.399665,0 0.742236,0.114 1.027714,0.3418 0.29261,0.2279 0.438916,0.5209 0.43892,0.8789 m -0.07493,2.6465 c -5e-6,0.5013 -0.03569,1.2598 -0.107054,2.2754 -0.06423,1.0091 -0.09636,1.7676 -0.09635,2.2754 -4e-6,0.4752 0.0107,1.1881 0.03211,2.1386 0.02141,0.9441 0.03211,1.6505 0.03211,2.1192 -4e-6,0.1367 -0.06423,0.2051 -0.192697,0.2051 l -2.087544,0 c -0.149876,0 -0.224814,-0.1334 -0.224812,-0.4004 -2e-6,-0.4493 0.0107,-1.1231 0.03211,-2.0215 0.02854,-0.9049 0.04282,-1.5852 0.04282,-2.041 -10e-7,-0.5078 -0.04282,-1.2695 -0.128464,-2.2852 -0.0785,-1.0156 -0.11776,-1.7773 -0.117759,-2.2852 -10e-7,-0.1106 0.07493,-0.166 0.224813,-0.166 0.128462,0 0.324727,0.016 0.588794,0.049 0.2712,0.033 0.474602,0.049 0.610205,0.049 0.135599,0 0.335431,-0.016 0.5995,-0.049 0.271199,-0.032 0.474601,-0.049 0.610205,-0.049 0.121323,0 0.181987,0.062 0.181991,0.1856"
           id="path22838"
           style="font-size:20.94018364px;font-style:normal;font-variant:normal;font-weight:normal;font-stretch:normal;text-align:start;line-height:100%;letter-spacing:0px;word-spacing:0px;writing-mode:lr-tb;text-anchor:start;fill:#ff9900;fill-opacity:1;stroke:none;font-family:Berlin Sans FB;-inkscape-font-specification:Berlin Sans FB" />
        <path
           d="m 47.788987,1046.3905 c -1.1e-5,1.2891 -0.43893,2.4121 -1.316758,3.3691 -0.934944,1.0157 -2.098257,1.5235 -3.489945,1.5235 -0.927804,0 -1.744978,-0.2149 -2.451526,-0.6445 -0.28548,-0.2214 -0.570956,-0.4395 -0.856428,-0.6543 -0.0785,0.02 -0.132036,0.2148 -0.160581,0.5859 -0.02141,0.3711 -0.0785,0.5567 -0.171285,0.5567 l -2.25883,0 c -0.08565,0 -0.128465,-0.042 -0.128464,-0.127 -1e-6,0.01 0.0071,-0.053 0.02141,-0.1758 0.11419,-1.0417 0.171286,-3.0338 0.171287,-5.9766 -10e-7,-1.2043 -0.05709,-2.972 -0.171287,-5.3027 -0.07136,-1.4843 -0.107053,-2.1354 -0.107053,-1.9531 0,-0.1693 0.09277,-0.2637 0.27834,-0.2833 0.256926,-0.01 0.638751,-0.019 1.145472,-0.039 0.09992,-0.01 0.303316,-0.03 0.610205,-0.069 0.256926,-0.039 0.463895,-0.058 0.620911,-0.058 0.114187,0 0.171282,0.074 0.171285,0.2246 -3e-6,0.2214 -0.01785,0.5599 -0.05352,1.0156 -0.03569,0.4557 -0.05353,0.7976 -0.05352,1.0254 -3e-6,0.3385 -0.01784,0.8496 -0.05352,1.5332 -0.02855,0.6771 -0.04282,1.1849 -0.04282,1.5235 -4e-6,0.2473 0.04995,0.371 0.149875,0.371 0.04995,0 0.103486,-0.035 0.16058,-0.1073 0.785055,-0.892 1.823474,-1.3379 3.115258,-1.3379 1.477331,0 2.672761,0.5045 3.586294,1.5136 0.856417,0.9505 1.28463,2.1126 1.284642,3.4863 m -2.41941,-0.088 c -8e-6,-0.7747 -0.267643,-1.4583 -0.802901,-2.0508 -0.57096,-0.6315 -1.273944,-0.9472 -2.108955,-0.9472 -0.856434,0 -1.570123,0.3092 -2.14107,0.9278 -0.549546,0.5858 -0.824317,1.276 -0.824313,2.0702 -4e-6,0.8073 0.274767,1.5039 0.824313,2.0899 0.570947,0.6119 1.291774,0.9179 2.162481,0.9179 0.842147,0 1.545131,-0.3157 2.108954,-0.9472 0.520986,-0.586 0.781483,-1.2728 0.781491,-2.0606"
           id="path22840"
           style="font-size:20.94018364px;font-style:normal;font-variant:normal;font-weight:normal;font-stretch:normal;text-align:start;line-height:100%;letter-spacing:0px;word-spacing:0px;writing-mode:lr-tb;text-anchor:start;fill:#ff9900;fill-opacity:1;stroke:none;font-family:Berlin Sans FB;-inkscape-font-specification:Berlin Sans FB" />
        <path
           d="m 58.397995,1045.8632 c -1e-5,0.4817 -0.228391,0.804 -0.685142,0.9667 -0.306897,0.1042 -2.515766,0.2963 -6.626615,0.5763 0.09278,0.5728 0.438916,1.0612 1.03842,1.4648 0.570948,0.3841 1.18472,0.5761 1.84132,0.5761 1.127624,0 2.162474,-0.332 3.104553,-0.9961 0.114182,-0.085 0.228372,-0.1692 0.342571,-0.2538 0.05708,0 0.09276,0.01 0.107054,0.019 0.0214,0.013 0.157002,0.2409 0.406804,0.6836 0.249781,0.4362 0.374676,0.6706 0.374687,0.7031 -1.1e-5,0.039 -0.0571,0.1139 -0.171286,0.2246 -1.049133,1.0157 -2.394439,1.5235 -4.035919,1.5235 -1.655765,0 -2.976091,-0.4493 -3.96098,-1.3476 -0.984894,-0.905 -1.477339,-2.1095 -1.477339,-3.6134 0,-1.3411 0.471034,-2.5097 1.413106,-3.5059 0.992027,-1.0351 2.208868,-1.5527 3.650526,-1.5527 1.341731,0 2.462224,0.4493 3.361481,1.3477 0.877829,0.8724 1.316749,1.9336 1.316759,3.1836 m -2.547874,-0.5957 c -8e-6,-0.5404 -0.235526,-1.0189 -0.706554,-1.4356 -0.463905,-0.4166 -0.988466,-0.6249 -1.573687,-0.6249 -0.656599,0 -1.241825,0.2409 -1.755678,0.7226 -0.506723,0.4818 -0.760083,1.0222 -0.76008,1.6211 -3e-6,0.1367 0.128461,0.2051 0.385393,0.2051 1.056257,0 2.319488,-0.098 3.789695,-0.293 0.413933,-0.052 0.620903,-0.1172 0.620911,-0.1953"
           id="path22842"
           style="font-size:20.94018364px;font-style:normal;font-variant:normal;font-weight:normal;font-stretch:normal;text-align:start;line-height:100%;letter-spacing:0px;word-spacing:0px;writing-mode:lr-tb;text-anchor:start;fill:#ff9900;fill-opacity:1;stroke:none;font-family:Berlin Sans FB;-inkscape-font-specification:Berlin Sans FB" />
        <path
           d="m 66.03091,1041.9374 c -7e-6,0.7162 -0.05353,1.3672 -0.160579,1.9531 -0.02142,0.1498 -0.09279,0.2247 -0.214107,0.2247 -0.149882,0 -0.378263,-0.013 -0.685143,-0.039 -0.299756,-0.033 -0.528137,-0.049 -0.685143,-0.049 -0.899255,0 -1.473775,0.2311 -1.723562,0.6934 -0.149878,0.2799 -0.224816,0.8626 -0.224812,1.748 l 0,1.0742 c -4e-6,0.3647 0.01427,0.9181 0.04282,1.6602 0.03568,0.7422 0.05352,1.2956 0.05352,1.6601 -3e-6,0.1759 -0.08208,0.2637 -0.246223,0.2637 -0.221246,0 -0.556681,0 -1.006302,-0.01 -0.449628,-0.01 -0.785061,-0.01 -1.006304,-0.01 -0.16415,0 -0.246224,-0.081 -0.246223,-0.2441 -10e-7,-0.5273 0.0071,-1.3216 0.02141,-2.3828 0.02141,-1.0612 0.03211,-1.8587 0.03211,-2.3926 -10e-7,-1.608 -0.164149,-2.9003 -0.492446,-3.8769 -0.01427,-0.053 -0.02141,-0.091 -0.02141,-0.1172 -1e-6,-0.078 0.04639,-0.1335 0.139169,-0.166 0.264064,-0.026 0.635183,-0.065 1.113357,-0.1172 0.770782,-0.1302 1.127627,-0.1953 1.070535,-0.1953 0.114188,0 0.189125,0.192 0.224813,0.5762 0.03568,0.3841 0.09992,0.5762 0.192696,0.5761 0.01427,10e-5 0.03211,-0.01 0.05352,-0.019 0.292609,-0.1693 0.585222,-0.3385 0.877838,-0.5078 0.321157,-0.1758 0.649454,-0.306 0.984893,-0.3907 0.278334,-0.078 0.635179,-0.1172 1.070536,-0.1172 0.556671,0 0.83501,0.069 0.835017,0.2052"
           id="path22844"
           style="font-size:20.94018364px;font-style:normal;font-variant:normal;font-weight:normal;font-stretch:normal;text-align:start;line-height:100%;letter-spacing:0px;word-spacing:0px;writing-mode:lr-tb;text-anchor:start;fill:#ff9900;fill-opacity:1;stroke:none;font-family:Berlin Sans FB;-inkscape-font-specification:Berlin Sans FB" />
        <path
           d="m 77.635514,1042.2694 c -1.1e-5,0.026 -0.01072,0.085 -0.03211,0.1758 -0.278351,1.4909 -0.41752,2.7767 -0.417509,3.8574 -1.1e-5,0.065 0.08919,1.5268 0.267633,4.3848 l 0.01071,0.1367 c 0.0071,0.1888 -0.08923,0.2832 -0.289044,0.2832 -0.192708,0 -0.488889,0.02 -0.888545,0.058 -0.392539,0.046 -0.685152,0.069 -0.877838,0.069 -0.135611,0 -0.239095,-0.2279 -0.310456,-0.6837 -0.07138,-0.4556 -0.139178,-0.6835 -0.203402,-0.6835 -0.04283,0 -0.235526,0.1269 -0.578089,0.3809 -0.421084,0.3125 -0.813614,0.5501 -1.177588,0.7129 -0.563822,0.2603 -1.127637,0.3906 -1.691447,0.3906 -1.384563,0 -2.551445,-0.5046 -3.50065,-1.5138 -0.899251,-0.9635 -1.348875,-2.0865 -1.348875,-3.3691 0,-1.4452 0.453192,-2.64 1.35958,-3.584 0.949206,-0.983 2.198162,-1.4746 3.746874,-1.4746 1.09194,0 2.044715,0.3451 2.85833,1.0352 0.121318,0.1302 0.310445,0.3191 0.567384,0.5664 0.0214,0.019 0.04281,0.03 0.06423,0.03 0.04281,10e-5 0.103476,-0.205 0.181991,-0.6151 0.07849,-0.4102 0.178412,-0.6153 0.299749,-0.6153 0.192687,0 0.5531,0.049 1.081241,0.1465 0.585215,0.1172 0.877827,0.2214 0.877839,0.3125 m -2.729865,4.082 c -8e-6,-0.8007 -0.260505,-1.4875 -0.781491,-2.0605 -0.549549,-0.6185 -1.252533,-0.9277 -2.108955,-0.9277 -0.856434,0 -1.570122,0.3059 -2.141071,0.9179 -0.549545,0.586 -0.824314,1.2761 -0.824311,2.0703 -3e-6,0.7878 0.274766,1.4714 0.824311,2.0508 0.570949,0.6055 1.284637,0.9082 2.141071,0.9082 0.835011,0 1.534427,-0.3092 2.098249,-0.9277 0.528123,-0.5794 0.792189,-1.2565 0.792197,-2.0313"
           id="path22846"
           style="font-size:20.94018364px;font-style:normal;font-variant:normal;font-weight:normal;font-stretch:normal;text-align:start;line-height:100%;letter-spacing:0px;word-spacing:0px;writing-mode:lr-tb;text-anchor:start;fill:#ff9900;fill-opacity:1;stroke:none;font-family:Berlin Sans FB;-inkscape-font-specification:Berlin Sans FB" />
        <path
           d="m 85.127121,1042.9335 c -8e-6,0.5039 -0.0257,1.2598 -0.07708,2.2675 -0.04712,1.0039 -0.07066,1.756 -0.07065,2.256 -7e-6,1.5429 0.03639,2.7108 0.109194,3.5039 l 0.0064,0.076 c 0.0043,0.039 -0.05353,0.064 -0.173426,0.076 -0.08136,0.01 -0.196986,0.01 -0.346855,0 -0.179855,-0.012 -0.263357,-0.017 -0.250504,-0.017 -0.06423,0 -0.158446,0.01 -0.282622,0.017 -0.124187,0.011 -0.218395,0.017 -0.282622,0.017 -0.05995,0 -0.09636,-0.1348 -0.109194,-0.4043 -0.0086,-0.2735 -0.02356,-0.4122 -0.04496,-0.4161 -0.0257,0.011 -0.05782,0.037 -0.09635,0.076 -0.586658,0.5782 -1.261094,0.8672 -2.023311,0.8672 -0.864995,0 -1.57583,-0.3008 -2.132507,-0.9023 -0.526704,-0.5665 -0.790055,-1.2501 -0.790055,-2.0508 0,-0.8321 0.265492,-1.5313 0.796479,-2.0977 0.556676,-0.5938 1.282499,-0.8906 2.177469,-0.8906 0.539546,0 1.01058,0.1445 1.413106,0.4336 0.184127,0.1445 0.366118,0.291 0.545974,0.4394 0.03425,-0.011 0.05138,-0.039 0.05139,-0.082 l 0,-1.8985 c -5e-6,-0.1288 -0.0064,-0.3241 -0.01927,-0.5859 -0.01286,-0.2617 -0.01928,-0.4589 -0.01928,-0.5918 -5e-6,-0.094 0.03425,-0.1406 0.102775,-0.1406 0.158433,0 0.393951,-0.012 0.706553,-0.035 0.31259,-0.028 0.545966,-0.041 0.70013,-0.041 0.07279,0 0.109187,0.041 0.109195,0.1231 m -1.605804,5.3321 c -5e-6,-0.4688 -0.158444,-0.8809 -0.475318,-1.2364 -0.338293,-0.3789 -0.757942,-0.5684 -1.258949,-0.5684 -0.526706,0 -0.961344,0.1875 -1.303913,0.5626 -0.325444,0.3515 -0.488166,0.7734 -0.488163,1.2656 -3e-6,0.4687 0.169143,0.8769 0.507434,1.2246 0.346851,0.3671 0.775064,0.5507 1.284642,0.5507 0.513852,0 0.937784,-0.1855 1.271796,-0.5566 0.30831,-0.3477 0.462466,-0.7617 0.462471,-1.2421"
           id="path22848"
           style="font-size:12.56411076px;font-style:normal;font-variant:normal;font-weight:bold;font-stretch:normal;text-align:start;line-height:100%;letter-spacing:0px;word-spacing:0px;writing-mode:lr-tb;text-anchor:start;fill:#ff9900;fill-opacity:1;stroke:none;font-family:Berlin Sans FB Demi;-inkscape-font-specification:Berlin Sans FB Demi Bold" />
        <path
           d="m 92.520242,1045.8045 c -6e-6,0.015 -0.0064,0.051 -0.01926,0.1056 -0.16701,0.8944 -0.250512,1.666 -0.250505,2.3144 -7e-6,0.039 0.05352,0.916 0.16058,2.6308 l 0.0064,0.082 c 0.0043,0.1132 -0.05353,0.1699 -0.173426,0.1699 -0.115625,0 -0.293333,0.011 -0.533127,0.035 -0.235523,0.028 -0.411091,0.041 -0.526703,0.041 -0.08136,0 -0.143458,-0.1368 -0.186273,-0.4101 -0.04282,-0.2735 -0.08351,-0.4103 -0.122042,-0.4103 -0.02569,0 -0.141316,0.076 -0.346853,0.2286 -0.252651,0.1875 -0.488169,0.3301 -0.706553,0.4277 -0.338293,0.1562 -0.676583,0.2344 -1.014868,0.2344 -0.830738,0 -1.530867,-0.3028 -2.100391,-0.9082 -0.53955,-0.5782 -0.809324,-1.252 -0.809324,-2.0215 0,-0.8671 0.271915,-1.5839 0.815747,-2.1504 0.569524,-0.5898 1.318898,-0.8847 2.248125,-0.8847 0.655164,0 1.226829,0.2069 1.714998,0.6211 0.07279,0.078 0.186268,0.1914 0.34043,0.3398 0.01284,0.012 0.02568,0.017 0.03854,0.017 0.02568,0 0.06209,-0.123 0.109195,-0.3692 0.04709,-0.2461 0.107048,-0.3691 0.17985,-0.3691 0.115612,0 0.33186,0.03 0.648745,0.088 0.351129,0.071 0.526696,0.1328 0.526703,0.1875 m -1.637919,2.4492 c -6e-6,-0.4805 -0.156303,-0.8925 -0.468895,-1.2364 -0.32973,-0.371 -0.75152,-0.5566 -1.265373,-0.5566 -0.51386,0 -0.942073,0.1837 -1.284642,0.5508 -0.329727,0.3516 -0.494589,0.7656 -0.494587,1.2422 -2e-6,0.4727 0.16486,0.8828 0.494587,1.2305 0.342569,0.3633 0.770782,0.5449 1.284642,0.5449 0.501007,0 0.920657,-0.1855 1.258949,-0.5567 0.316875,-0.3476 0.475313,-0.7538 0.475319,-1.2187"
           id="path22850"
           style="font-size:12.56411076px;font-style:normal;font-variant:normal;font-weight:bold;font-stretch:normal;text-align:start;line-height:100%;letter-spacing:0px;word-spacing:0px;writing-mode:lr-tb;text-anchor:start;fill:#ff9900;fill-opacity:1;stroke:none;font-family:Berlin Sans FB Demi;-inkscape-font-specification:Berlin Sans FB Demi Bold" />
        <path
           d="m 103.33693,1050.8906 c -10e-6,0.1523 -0.0493,0.2284 -0.14773,0.2284 -0.0643,0 -0.16273,-0.01 -0.29547,-0.017 -0.12847,-0.011 -0.22696,-0.017 -0.29547,-0.017 -0.0728,0 -0.182,0 -0.32758,0.012 -0.1456,0.01 -0.2548,0.012 -0.32759,0.012 -0.0899,0 -0.13489,-0.092 -0.13488,-0.2754 -1e-5,-0.1797 0.006,-0.4473 0.0193,-0.8028 0.0171,-0.3593 0.0257,-0.6288 0.0257,-0.8086 -1e-5,-0.9882 -0.004,-1.539 -0.0129,-1.6523 -0.0343,-0.4023 -0.12419,-0.6796 -0.26978,-0.832 -0.16701,-0.1641 -0.46462,-0.2461 -0.89282,-0.2461 -0.26978,0 -0.57382,0.1172 -0.912099,0.3516 -0.351142,0.2461 -0.533133,0.4882 -0.545973,0.7265 -0.01713,0.3047 -0.02569,0.8613 -0.02569,1.6699 -6e-6,0.1914 0.0086,0.4785 0.02569,0.8614 0.01712,0.3828 0.02568,0.6699 0.02569,0.8613 -7e-6,0.1055 -0.03855,0.1582 -0.115618,0.1582 -0.07708,0 -0.190562,-0.01 -0.340431,-0.017 -0.145598,-0.011 -0.256933,-0.017 -0.334006,-0.017 -0.06852,0 -0.169151,0 -0.301891,0.011 -0.132752,0.01 -0.233382,0.011 -0.301891,0.011 -0.08564,0 -0.128469,-0.056 -0.128465,-0.1699 -4e-6,-0.1875 0.0064,-0.4687 0.01928,-0.8437 0.01284,-0.3789 0.01926,-0.6621 0.01926,-0.8496 l 0,-1.4121 c -5e-6,-0.4414 -0.05782,-0.7559 -0.173427,-0.9433 -0.162726,-0.2657 -0.473181,-0.3985 -0.931366,-0.3985 -0.269779,0 -0.590938,0.1035 -0.963482,0.3106 -0.411087,0.2265 -0.616631,0.455 -0.616628,0.6855 l 0,1.7109 c -3e-6,0.1954 0.0021,0.4864 0.0064,0.8731 0.0043,0.3867 0.0064,0.6757 0.0064,0.8671 -2e-6,0.1133 -0.04924,0.1699 -0.147734,0.1699 l -1.194717,0 c -0.08565,0 -0.128465,-0.053 -0.128465,-0.1581 0,-0.3164 0.0021,-0.791 0.0064,-1.4239 0.0043,-0.6367 0.0064,-1.1133 0.0064,-1.4297 -1e-6,-0.7148 -0.0835,-1.4277 -0.250505,-2.1386 -0.01285,-0.051 -0.01927,-0.092 -0.01927,-0.1231 -10e-7,-0.051 0.01927,-0.08 0.05781,-0.088 0.158438,-0.015 0.389673,-0.045 0.693707,-0.088 0.141309,-0.039 0.353274,-0.082 0.635898,-0.1289 l 0.05139,-0.01 c 0.05139,0 0.09849,0.1387 0.141311,0.416 0.04711,0.2734 0.08778,0.4102 0.122041,0.4102 -2e-6,0 0.107052,-0.086 0.321161,-0.2579 0.252643,-0.1991 0.50529,-0.3574 0.757939,-0.4746 0.363978,-0.1718 0.72796,-0.2578 1.091946,-0.2578 0.984887,0 1.61222,0.3672 1.882001,1.1015 0.265487,-0.3125 0.595211,-0.5702 0.989174,-0.7734 0.41964,-0.2187 0.83501,-0.3281 1.2461,-0.3281 0.79219,0 1.3403,0.2109 1.64435,0.6328 0.21837,0.3125 0.32757,0.8067 0.32758,1.4825 -1e-5,0.1288 -0.004,0.3281 -0.0129,0.5976 -0.009,0.2695 -0.0128,0.4688 -0.0128,0.5977 -1e-5,0.246 0.006,0.6172 0.0193,1.1133 0.0128,0.4921 0.0193,0.8613 0.0193,1.1074"
           id="path22852"
           style="font-size:12.56411076px;font-style:normal;font-variant:normal;font-weight:bold;font-stretch:normal;text-align:start;line-height:100%;letter-spacing:0px;word-spacing:0px;writing-mode:lr-tb;text-anchor:start;fill:#ff9900;fill-opacity:1;stroke:none;font-family:Berlin Sans FB Demi;-inkscape-font-specification:Berlin Sans FB Demi Bold" />
        <path
           d="m 110.06204,1047.9608 c -1e-5,0.2891 -0.13705,0.4824 -0.41109,0.5801 -0.18414,0.062 -1.50946,0.1778 -3.97598,0.3457 0.0557,0.3438 0.26336,0.6367 0.62306,0.8789 0.34257,0.2305 0.71083,0.3457 1.10479,0.3457 0.67658,0 1.29749,-0.1992 1.86274,-0.5976 0.0685,-0.051 0.13702,-0.1016 0.20553,-0.1524 0.0342,0 0.0557,0 0.0643,0.011 0.0129,0.01 0.0942,0.1446 0.24408,0.4102 0.14987,0.2617 0.22481,0.4023 0.22481,0.4219 0,0.023 -0.0342,0.069 -0.10281,0.1348 -0.62949,0.6093 -1.43667,0.914 -2.42156,0.914 -0.99346,0 -1.78565,-0.2695 -2.37658,-0.8086 -0.59094,-0.543 -0.88641,-1.2656 -0.88641,-2.168 0,-0.8047 0.28262,-1.5058 0.84787,-2.1035 0.59521,-0.6211 1.32531,-0.9316 2.19031,-0.9316 0.80503,0 1.47733,0.2695 2.01688,0.8086 0.5267,0.5234 0.79006,1.1601 0.79007,1.9101 m -1.52873,-0.3574 c 0,-0.3242 -0.14132,-0.6113 -0.42394,-0.8613 -0.27833,-0.25 -0.59307,-0.375 -0.94421,-0.375 -0.39396,0 -0.74509,0.1445 -1.05341,0.4336 -0.30403,0.289 -0.45604,0.6133 -0.45604,0.9726 0,0.082 0.0771,0.1231 0.23123,0.1231 0.63376,0 1.3917,-0.058 2.27382,-0.1758 0.24836,-0.031 0.37255,-0.071 0.37255,-0.1172"
           id="path22854"
           style="font-size:12.56411076px;font-style:normal;font-variant:normal;font-weight:bold;font-stretch:normal;text-align:start;line-height:100%;letter-spacing:0px;word-spacing:0px;writing-mode:lr-tb;text-anchor:start;fill:#ff9900;fill-opacity:1;stroke:none;font-family:Berlin Sans FB Demi;-inkscape-font-specification:Berlin Sans FB Demi Bold" />
        <path
           d="m 120.8359,1050.912 c -10e-6,0.1432 -0.0714,0.2149 -0.21411,0.2149 -0.23552,0 -0.5888,0 -1.05982,-0.01 -0.46391,-0.01 -0.81362,-0.01 -1.04912,-0.01 -0.12848,0 -0.19272,-0.094 -0.19271,-0.2831 -10e-6,-0.319 0.0107,-0.804 0.0322,-1.4551 0.0214,-0.651 0.0321,-1.1393 0.0321,-1.4649 -1e-5,-0.2603 -0.003,-0.6477 -0.0107,-1.162 -0.007,-0.5209 -0.0107,-0.9115 -0.0107,-1.172 -1e-5,-0.7421 -0.11777,-1.2662 -0.35328,-1.5721 -0.28548,-0.3647 -0.81361,-0.5469 -1.58439,-0.5469 -0.35685,0 -0.85286,0.1822 -1.48804,0.5469 -0.67088,0.384 -1.00631,0.7258 -1.00631,1.0253 l 0,5.8594 c 0,0.1628 -0.0678,0.2441 -0.2034,0.2441 -0.22839,0 -0.57096,0 -1.02772,-0.01 -0.45675,-0.01 -0.79932,-0.01 -1.02771,-0.01 -0.14987,0 -0.22481,-0.074 -0.22481,-0.2245 0,-0.5143 0.007,-1.2859 0.0215,-2.3145 0.0214,-1.0287 0.0321,-1.8033 0.0321,-2.3243 0,-1.3867 -0.16058,-2.6659 -0.48173,-3.8378 -0.0214,-0.058 -0.0322,-0.1009 -0.0322,-0.127 0,-0.065 0.0464,-0.1107 0.13917,-0.1366 0.0499,-0.01 0.45677,-0.065 1.22042,-0.1759 0.77077,-0.1172 1.17401,-0.1757 1.2097,-0.1757 0.0428,0 0.0714,0.052 0.0856,0.1562 0.0357,0.4037 0.11776,0.8105 0.24623,1.2207 0.37111,-0.2669 0.85999,-0.5989 1.46663,-0.9961 0.74936,-0.4166 1.47376,-0.6249 2.17318,-0.6249 1.34173,0 2.25883,0.3548 2.75128,1.0644 0.36397,0.5208 0.54596,1.3639 0.54597,2.5293 -1e-5,0.2018 -0.007,0.5111 -0.0214,0.9277 -0.007,0.4167 -0.0107,0.7291 -0.0107,0.9375 -2e-5,0.4362 0.007,1.0872 0.0215,1.9531 0.0142,0.8659 0.0214,1.5169 0.0214,1.9531"
           id="path22856"
           style="font-size:20.94018364px;font-style:normal;font-variant:normal;font-weight:normal;font-stretch:normal;text-align:start;line-height:100%;letter-spacing:0px;word-spacing:0px;writing-mode:lr-tb;text-anchor:start;fill:#ff9900;fill-opacity:1;stroke:none;font-family:Berlin Sans FB;-inkscape-font-specification:Berlin Sans FB" />
        <path
           d="m 128.84351,1049.3104 c -1e-5,0.1433 -0.0142,0.3386 -0.0428,0.586 -0.0357,0.306 -0.0571,0.5046 -0.0642,0.5957 -0.007,0.1172 -0.0179,0.1888 -0.0321,0.2148 -0.0286,0.046 -0.0963,0.092 -0.2034,0.1368 -0.58524,0.2538 -1.5059,0.3808 -2.76198,0.3808 -1.67004,0 -2.50505,-0.6901 -2.50505,-2.0703 0,-0.5534 0.0142,-1.3835 0.0428,-2.4903 0.0286,-1.1132 0.0428,-1.9465 0.0428,-2.4999 0,-0.267 -0.1463,-0.4102 -0.43892,-0.4297 -0.26406,0 -0.52456,0 -0.78148,-0.01 -0.14988,-0.033 -0.22482,-0.2995 -0.22482,-0.8008 0,-0.1888 0.0142,-0.3873 0.0428,-0.5957 0.0214,-0.1562 0.1356,-0.2506 0.34258,-0.2832 0.17842,0 0.35327,0 0.52456,-0.01 0.3283,-0.013 0.49244,-0.1465 0.49245,-0.4003 -1e-5,-0.2605 -0.0107,-0.6576 -0.0321,-1.1914 -0.0142,-0.5339 -0.0214,-0.9343 -0.0214,-1.2013 0,-0.4752 0.0999,-0.7129 0.29974,-0.7129 0.0643,0 0.73511,0.101 2.01262,0.3028 0.16414,0.02 0.24621,0.091 0.24621,0.2148 0,0.2865 -0.025,0.7162 -0.075,1.2891 -0.0428,0.573 -0.0643,1.0026 -0.0643,1.2891 0,0.1887 0.0963,0.2832 0.28905,0.2832 l 2.56929,0 c 0.12131,0 0.18198,0.039 0.18199,0.1172 -1e-5,0.078 -0.0142,0.205 -0.0428,0.3808 -0.0215,0.1693 -0.0321,0.2963 -0.0321,0.3809 -10e-6,0.098 0.003,0.2474 0.0107,0.4492 0.007,0.2019 0.0107,0.3515 0.0107,0.4492 0,0.1237 -0.0999,0.1855 -0.29975,0.1855 -0.28548,0 -0.71726,-0.016 -1.29535,-0.049 -0.57808,-0.039 -1.00987,-0.058 -1.29534,-0.058 -0.0571,0 -0.0999,0.1854 -0.12846,0.5566 -0.0357,0.4623 -0.0535,1.11 -0.0535,1.9433 l 0,1.4551 c -1e-5,0.5599 0.0571,0.9505 0.17128,1.1718 0.17128,0.3386 0.52457,0.5079 1.05984,0.5079 0.22123,0 0.54596,-0.042 0.97418,-0.127 0.42821,-0.091 0.7458,-0.1366 0.95278,-0.1366 0.0856,0 0.12845,0.058 0.12846,0.1757"
           id="path22858"
           style="font-size:20.94018364px;font-style:normal;font-variant:normal;font-weight:normal;font-stretch:normal;text-align:start;line-height:100%;letter-spacing:0px;word-spacing:0px;writing-mode:lr-tb;text-anchor:start;fill:#ff9900;fill-opacity:1;stroke:none;font-family:Berlin Sans FB;-inkscape-font-specification:Berlin Sans FB" />
        <path
           d="m 139.44181,1045.8632 c -1e-5,0.4817 -0.2284,0.804 -0.68515,0.9667 -0.3069,0.1042 -2.51576,0.2963 -6.62661,0.5763 0.0928,0.5728 0.43891,1.0612 1.03842,1.4648 0.57095,0.3841 1.18471,0.5761 1.84131,0.5761 1.12763,0 2.16249,-0.332 3.10456,-0.9961 0.11418,-0.085 0.22837,-0.1692 0.34258,-0.2538 0.0571,0 0.0928,0.01 0.10704,0.019 0.0214,0.013 0.15701,0.2409 0.40681,0.6836 0.24978,0.4362 0.37468,0.6706 0.37469,0.7031 -1e-5,0.039 -0.0571,0.1139 -0.17129,0.2246 -1.04914,1.0157 -2.39444,1.5235 -4.03592,1.5235 -1.65576,0 -2.97609,-0.4493 -3.96098,-1.3476 -0.98489,-0.905 -1.47734,-2.1095 -1.47734,-3.6134 0,-1.3411 0.47104,-2.5097 1.41311,-3.5059 0.99203,-1.0351 2.20887,-1.5527 3.65053,-1.5527 1.34172,0 2.46222,0.4493 3.36147,1.3477 0.87784,0.8724 1.31676,1.9336 1.31677,3.1836 m -2.54788,-0.5957 c -1e-5,-0.5404 -0.23553,-1.0189 -0.70655,-1.4356 -0.46391,-0.4166 -0.98847,-0.6249 -1.57369,-0.6249 -0.6566,0 -1.24183,0.2409 -1.75568,0.7226 -0.50672,0.4818 -0.76008,1.0222 -0.76007,1.6211 -1e-5,0.1367 0.12845,0.2051 0.38538,0.2051 1.05626,0 2.31949,-0.098 3.7897,-0.293 0.41394,-0.052 0.6209,-0.1172 0.62091,-0.1953"
           id="path22860"
           style="font-size:20.94018364px;font-style:normal;font-variant:normal;font-weight:normal;font-stretch:normal;text-align:start;line-height:100%;letter-spacing:0px;word-spacing:0px;writing-mode:lr-tb;text-anchor:start;fill:#ff9900;fill-opacity:1;stroke:none;font-family:Berlin Sans FB;-inkscape-font-specification:Berlin Sans FB" />
      </g>
      <g
         id="g22950">
        <path
           d="m 20.197357,1016.8661 c -2e-5,0.4374 -0.24614,0.6563 -0.738359,0.6562 -2.044707,10e-5 -3.653952,-0.055 -4.827739,-0.1641 0.05678,1.3673 0.11358,3.2722 0.170391,5.7149 0.01891,1.0391 0.104113,2.8438 0.255586,5.4141 0.132511,2.3151 0.198774,4.1198 0.19879,5.414 -1.6e-5,0.3829 -0.265067,0.6016 -0.795157,0.6562 -0.643713,0.073 -2.252957,0.1094 -4.827738,0.1094 -2.1393576,0 -3.5308807,-0.055 -4.1745732,-0.164 -0.6437029,-0.1094 -0.9655518,-0.4831 -0.9655476,-1.1211 l 0,-15.0664 c -4.2e-6,-0.5287 -0.3786499,-0.7929 -1.1359382,-0.793 -0.1325291,10e-5 -0.3502503,0.01 -0.6531645,0.027 -0.2839867,0.019 -0.4922418,0.027 -0.6247662,0.027 -0.5301057,0 -0.8046238,-0.1458 -0.8235552,-0.4375 -0.1703915,-1.5859 -0.25558677,-3.8919 -0.2555861,-6.918 -6.7e-7,-0.6744 0.3597128,-1.0845 1.0791413,-1.2305 0.643696,-0.055 1.2968599,-0.1001 1.9594936,-0.1367 -0.094666,-1.4583 -0.1419959,-2.5976 -0.1419923,-3.418 -3.6e-6,-3.1354 0.634228,-5.4139 1.9026967,-6.83586 2.5179885,-2.82553 6.5884297,-4.23824 12.2113367,-4.23834 0.378628,10e-5 0.605815,0.10951 0.681562,0.32814 0.151441,0.82042 0.369162,2.03266 0.653165,3.63672 0.01891,0.14591 0.141973,0.65636 0.369181,1.53125 0.17037,0.67449 0.255565,1.19409 0.255586,1.55859 -2.1e-5,0.4376 -0.672116,0.7201 -2.016291,0.8477 -1.552465,0.1641 -2.508546,0.4375 -2.868244,0.8203 -0.62478,0.6563 -0.937163,1.9415 -0.93715,3.8555 -1.3e-5,0.6015 0.04732,1.1666 0.141993,1.6953 0.53009,0 1.353645,-0.019 2.470666,-0.055 1.116988,-0.036 1.959475,-0.055 2.527462,-0.055 0.56795,0 0.851934,0.2006 0.851954,0.6015 -2e-5,0.8569 0.0095,2.1511 0.0284,3.8829 0.01891,1.7135 0.02838,2.9987 0.0284,3.8555"
           id="path22209"
           style="font-size:57.06980133px;font-style:normal;font-variant:normal;font-weight:bold;font-stretch:normal;text-align:start;line-height:100%;letter-spacing:0px;word-spacing:0px;writing-mode:lr-tb;text-anchor:start;fill:#3d8e8e;fill-opacity:1;stroke:none;font-family:Berlin Sans FB Demi;-inkscape-font-specification:Berlin Sans FB Demi Bold" />
        <path
           d="m 42.120965,1017.4676 c -2.1e-5,0.7109 -0.407065,1.0664 -1.221133,1.0664 -0.359734,0 -0.889838,-0.019 -1.590314,-0.055 -0.68158,-0.055 -1.192752,-0.082 -1.533516,-0.082 -1.571397,0 -2.641071,0.2369 -3.209026,0.7109 -0.567982,0.4739 -0.851967,1.4309 -0.851954,2.871 -1.3e-5,0.784 0.0095,1.9779 0.0284,3.5821 0.03785,1.5859 0.05679,2.7709 0.0568,3.5547 -1.3e-5,0.5286 0.03785,1.3215 0.113593,2.3789 0.07572,1.039 0.113581,1.8138 0.113595,2.3242 -1.4e-5,0.4375 -0.312396,0.6836 -0.93715,0.7382 -0.908762,0.073 -2.300285,0.1095 -4.174573,0.1095 -1.798575,0 -3.237429,-0.055 -4.316565,-0.1641 -0.62477,-0.073 -0.937153,-0.3737 -0.93715,-0.9024 -3e-6,-1.4583 0.0095,-3.6367 0.0284,-6.5351 0.01892,-2.9167 0.02839,-5.1041 0.0284,-6.5625 -3e-6,-4.2838 -0.407047,-7.8111 -1.221134,-10.582 -0.03787,-0.1641 -0.05679,-0.3008 -0.05679,-0.4102 -10e-7,-0.2734 0.14199,-0.4557 0.425977,-0.5468 1.041273,-0.1094 2.565322,-0.3099 4.572151,-0.6016 2.991294,-0.5651 4.534276,-0.8476 4.628949,-0.8477 0.34077,10e-5 0.558491,0.5743 0.653164,1.7227 0.09465,1.1484 0.26504,1.7226 0.511172,1.7226 -0.265064,0 0.51116,-0.4739 2.328674,-1.4219 1.817485,-0.966 3.568721,-1.4491 5.253715,-1.4492 1.060187,10e-5 1.590292,0.2188 1.590313,0.6563 -2.1e-5,0.5287 -0.05682,1.2761 -0.170391,2.2421 -0.113615,1.0392 -0.179878,1.7866 -0.198789,2.2423 -2.1e-5,0.5286 0.0095,1.2305 0.0284,2.1055 0.03784,1.0754 0.05677,1.7864 0.0568,2.1327"
           id="path22211"
           style="font-size:57.06980133px;font-style:normal;font-variant:normal;font-weight:bold;font-stretch:normal;text-align:start;line-height:100%;letter-spacing:0px;word-spacing:0px;writing-mode:lr-tb;text-anchor:start;fill:#3d8e8e;fill-opacity:1;stroke:none;font-family:Berlin Sans FB Demi;-inkscape-font-specification:Berlin Sans FB Demi Bold" />
        <path
           d="m 74.6656,1009.6473 c -3.2e-5,1.349 -0.06629,3.3724 -0.19879,6.0703 -0.132558,2.698 -0.198821,4.7213 -0.198789,6.0704 -3.2e-5,1.3124 0.0473,3.2812 0.141992,5.9061 0.09463,2.6251 0.141961,4.5848 0.141992,5.879 -3.1e-5,0.4921 -0.236685,0.8021 -0.709961,0.9297 -0.719458,0.1823 -2.243507,0.2735 -4.572152,0.2735 -2.063645,0 -3.502499,-0.055 -4.316565,-0.1641 -0.359735,-0.055 -0.586923,-0.2735 -0.681563,-0.6563 -0.05682,-0.5468 -0.113615,-1.0938 -0.170391,-1.6406 -0.09468,-0.8385 -0.227208,-1.2578 -0.397578,-1.2578 0.265031,0 -0.691049,0.6198 -2.868245,1.8594 -2.17723,1.2395 -4.155654,1.8594 -5.935277,1.8594 -5.017068,0 -7.989436,-2.1784 -8.917115,-6.5352 -0.416514,-2.0234 -0.624769,-4.9584 -0.624767,-8.8047 -2e-6,-4.1563 0.350245,-7.4375 1.050743,-9.8438 0.208252,-0.7474 0.596364,-1.121 1.164337,-1.121 0.87088,0 2.196141,0.01 3.975784,0.027 1.779626,0.019 3.104887,0.028 3.975784,0.028 0.586889,0 0.880339,0.237 0.880352,0.7109 -1.3e-5,0.1277 -0.01895,0.319 -0.0568,0.5743 -0.397591,2.4792 -0.59638,4.9947 -0.596367,7.5468 -1.3e-5,3.1719 0.104115,5.3412 0.312383,6.5079 0.340768,2.0052 1.580832,3.0078 3.720198,3.0078 0.833004,0 1.732287,-0.3555 2.697853,-1.0664 0.98446,-0.7109 1.495632,-1.4492 1.533517,-2.2149 0.03784,-0.6744 0.05677,-5.25 0.05679,-13.7266 -2.2e-5,-0.6015 0.04731,-0.957 0.141992,-1.0663 0.113572,-0.1823 0.454353,-0.2735 1.022345,-0.2735 0.927659,0 2.319182,0.01 4.174573,0.027 1.874269,0.019 3.275258,0.028 4.202971,0.028 0.567938,10e-5 0.899253,0.1368 0.993946,0.4101 0.03783,0.1459 0.05676,0.3647 0.05679,0.6563"
           id="path22213"
           style="font-size:57.06980133px;font-style:normal;font-variant:normal;font-weight:bold;font-stretch:normal;text-align:start;line-height:100%;letter-spacing:0px;word-spacing:0px;writing-mode:lr-tb;text-anchor:start;fill:#3d8e8e;fill-opacity:1;stroke:none;font-family:Berlin Sans FB Demi;-inkscape-font-specification:Berlin Sans FB Demi Bold" />
        <path
           d="m 131.97369,1020.9949 c -3e-5,-1.5494 -0.51119,-2.8254 -1.53351,-3.828 -1.00344,-1.0208 -2.31923,-1.5313 -3.94739,-1.5313 -1.6282,0 -2.94399,0.5013 -3.94739,1.5039 -1.00343,1.0026 -1.50513,2.2878 -1.50512,3.8554 -10e-6,1.4766 0.5301,2.7436 1.59031,3.8008 1.06021,1.0573 2.3476,1.586 3.8622,1.586 1.60923,0 2.92502,-0.5013 3.94739,-1.504 1.02232,-1.0207 1.53348,-2.315 1.53351,-3.8828 m 9.1443,-0.164 c -3e-5,1.4036 0.0852,3.4909 0.25559,6.2617 0.17036,2.7709 0.25555,4.849 0.25558,6.2344 -3e-5,0.7292 -0.33134,1.1211 -0.99394,1.1758 -2.34764,0.164 -5.03602,0.2461 -8.06517,0.2461 -0.35973,0 -0.60585,-0.5196 -0.73835,-1.5586 -0.11362,-1.0574 -0.25561,-1.5951 -0.42599,-1.6133 -0.15147,0.073 -0.35026,0.2278 -0.59635,0.4649 -2.12044,2.0598 -4.39232,3.0898 -6.81564,3.0898 -3.69181,0 -6.74938,-1.4036 -9.1727,-4.211 -2.29082,-2.6249 -3.43622,-5.7603 -3.43622,-9.4062 0,-4.211 1.18327,-7.6016 3.54982,-10.1719 2.46118,-2.6614 5.83113,-3.9921 10.10984,-3.9921 2.97236,0 5.31997,1.0025 7.04282,3.0077 0.0757,0.091 0.14197,0.1368 0.19879,0.1368 0.17037,0 0.35969,-0.4375 0.56797,-1.3125 0.22716,-0.8933 0.49222,-1.3398 0.79516,-1.3399 0.70047,1e-4 2.03519,0.1914 4.00418,0.5742 1.87426,0.3646 3.21846,0.6745 4.03258,0.9298 0.28396,0.1094 0.42595,0.2552 0.42598,0.4374 -3e-5,0.073 -0.0284,0.2643 -0.0852,0.5742 -0.60587,3.2996 -0.90878,6.7904 -0.90875,10.4727"
           id="path22217"
           style="font-size:57.06980133px;font-style:normal;font-variant:normal;font-weight:bold;font-stretch:normal;text-align:start;line-height:100%;letter-spacing:0px;word-spacing:0px;writing-mode:lr-tb;text-anchor:start;fill:#3d8e8e;fill-opacity:1;stroke:none;font-family:Berlin Sans FB Demi;-inkscape-font-specification:Berlin Sans FB Demi Bold" />
        <g
           id="g22797">
          <path
             d="m 107.69301,1027.3934 c -3e-5,5.1953 -1.13598,8.9232 -3.40782,11.1836 -2.34763,2.3151 -6.24768,3.4726 -11.700164,3.4727 -1.590327,-10e-5 -3.758074,-0.2462 -6.503247,-0.7383 -3.502481,-0.6199 -5.253717,-1.349 -5.253714,-2.1875 -3e-6,-0.3464 0.40704,-2.1329 1.221134,-5.3594 0.132521,-0.5104 0.340776,-0.7656 0.624766,-0.7656 0.09466,0.019 0.198784,0.055 0.312383,0.1093 2.915566,1.3855 5.613416,2.0782 8.09356,2.0782 1.363111,0 2.716769,-0.3281 4.06098,-0.9844 1.628159,-0.7839 2.442246,-1.7682 2.442267,-2.9532 l 0,-1.832 c -1.931114,1.75 -4.411244,2.6251 -7.440395,2.6251 -3.559284,0 -6.484322,-1.2305 -8.775125,-3.6915 -2.215081,-2.3697 -3.32262,-5.2864 -3.322619,-8.7499 -10e-7,-3.4818 1.060207,-6.3711 3.180628,-8.668 2.215072,-2.388 5.111712,-3.582 8.689928,-3.582 2.858762,0 5.045441,0.9844 6.560043,2.9531 0.302897,0.401 0.511153,0.6016 0.624767,0.6015 0.170369,1e-4 0.255565,-0.3281 0.255586,-0.9843 -2.1e-5,-1.4584 0.170369,-2.1875 0.511172,-2.1875 0.302895,0 1.940538,0.1549 4.91293,0.4648 2.97234,0.2917 4.51533,0.4558 4.62896,0.4922 0.32181,0.1094 0.48273,0.3464 0.48276,0.7109 -3e-5,1.2579 -0.0474,3.1354 -0.14199,5.6328 -0.0757,2.4975 -0.11363,4.375 -0.1136,5.6328 -3e-5,0.7474 0.009,1.8685 0.0284,3.3633 0.0189,1.4948 0.0283,2.6159 0.0284,3.3633"
             id="path22226"
             style="font-size:57.06980133px;font-style:normal;font-variant:normal;font-weight:bold;font-stretch:normal;text-align:start;line-height:100%;letter-spacing:0px;word-spacing:0px;writing-mode:lr-tb;text-anchor:start;fill:#b2e5e5;fill-opacity:1;stroke:none;font-family:Berlin Sans FB Demi;-inkscape-font-specification:Berlin Sans FB Demi Bold" />
          <g
             id="g22790">
            <path
               d="m 99.575705,1020.7023 c -0.281594,1.6179 -0.424381,2.0075 -1.585458,2.8299 -0.155336,0.077 -0.436705,0.3037 -0.604658,0.4677 -0.226314,0.2205 -0.246577,0.948 0.01667,1.5214 0.170202,0.4637 -0.113865,0.8735 -0.434254,0.9556 -0.53033,0.1011 -1.31666,0.1011 -1.677125,0.027 -0.399305,-0.058 -0.510832,-0.4686 -0.315103,-1.0233 0.109614,-0.4641 -0.03646,-1.0875 -0.462749,-1.1352 -0.39303,-0.044 -1.198297,-0.018 -1.451171,-0.031 -0.559004,-0.029 -0.719131,0.7173 -0.538066,1.2308 0.149286,0.4225 -9.9e-4,0.8873 -0.259352,0.9191 -0.460207,0.1139 -1.288773,0.094 -1.688347,0.017 -0.258295,-0.05 -0.54713,-0.4434 -0.37686,-0.9984 0.14218,-0.4964 0.377534,-1.0881 -0.197932,-1.6443 -0.903997,-0.8738 -1.171714,-1.1927 -1.485041,-2.5773 -0.07912,-0.3492 -0.02436,-1.004 -0.08805,-1.011 -0.06371,-0.01 -0.20803,1.5414 -1.121067,1.4722 -1.030524,-0.078 -0.969397,-2.4899 -0.450042,-2.4456 0.417342,0.036 0.316948,1.4806 0.506918,1.4607 0.117082,0.021 0.224942,-1.8031 1.072827,-1.4225 0.07865,-0.2647 0.13613,-0.5388 0.245048,-0.7911 0.101159,-0.2341 0.05791,-0.1734 0.157383,-0.3708 0.905998,0.044 2.305847,-0.5585 2.330811,-2.4628 1.092258,-0.3783 1.612197,-0.437 2.751684,-0.1978 0.352301,0.1309 0.639719,0.1775 0.797957,-0.1908 0.204611,-0.4762 0.864167,-1.8403 1.842897,-1.8379 0.259756,-0.061 0.31164,1.0671 0.30514,1.3221 -0.01352,0.5271 -0.002,1.0554 -0.02451,1.5822 -0.01383,0.3233 -0.130283,0.5574 0.09428,0.801 0.574905,0.7817 0.854137,1.5567 0.951608,2.5275 0.06045,0.6002 0.145396,0.6003 0.79247,0.6009 0.543913,2e-4 0.982935,-0.1045 0.894101,0.4053 z"
               id="out"
               style="fill:#ffffff;fill-opacity:1" />
            <path
               d="m 95.660988,1018.9869 c -0.604478,0.018 -1.018514,0.4636 -0.972208,1.0186 0.0504,0.5924 0.41642,0.8513 0.996092,0.8384 0.531837,-0.013 0.960963,-0.4468 0.902355,-0.9459 -0.06551,-0.5507 -0.403286,-0.8626 -0.926239,-0.9111 z"
               id="path22685"
               style="fill:#b2e5e5;fill-opacity:1" />
            <path
               d="m 90.121682,1020.2582 c 0.302577,0.07 0.497427,-0.6203 0.677683,-0.9766 0.229485,-0.4536 0.4372,-0.6901 0.636413,-0.9413 0.215272,-0.2716 0.595348,-0.59 0.930557,-0.7824 0.397056,-0.2279 0.923608,-0.425 0.808595,-0.6595 -0.515869,-1.051 -1.915651,0.2291 -2.407141,0.7886 -0.452898,0.5158 -1.844179,2.295 -0.646107,2.5712 z"
               id="path22683"
               style="fill:#b2e5e5;fill-opacity:1" />
            <path
               d="m 88.994884,1014.0789 c -0.817452,-0.01 -1.571116,0.4862 -1.846422,1.2575 -0.442243,1.2391 0.498427,2.4504 1.856133,2.4901 0.475738,0.014 1.587688,-0.4421 1.773591,-1.4101 0.185167,-0.9599 -0.286567,-2.0342 -1.325512,-2.2813 -0.153091,-0.036 -0.30641,-0.055 -0.45779,-0.056 z"
               id="path22551"
               style="fill:#ffffff;fill-opacity:1;stroke:#000000;stroke-width:0.01289821;stroke-miterlimit:10" />
            <path
               d="m 89.003207,1014.9168 c 0.231923,0 0.454966,0.097 0.564609,0.2753 0.06397,0.1054 0.178492,0.2564 0.02774,0.3607 -0.114137,0.079 -0.278138,0.173 -0.420334,0.024 -0.09768,-0.1026 -0.164312,-0.2419 -0.328084,-0.084 -0.414904,0.4387 0.273198,0.2689 0.259415,0.3565 0.0072,0.082 0.0038,-0.013 0.02428,0.195 -0.01666,0.078 -0.645984,0.044 -0.219878,0.3468 0.112137,0.073 0.177191,0.055 0.249703,-0.012 0.041,-0.039 0.04455,-0.1114 0.08115,-0.1575 0.112414,-0.1415 0.260064,-0.063 0.383573,-0.03 0.169718,0.046 0.117674,0.187 0.08948,0.301 -0.105283,0.4283 -0.847294,0.6102 -1.197885,0.2962 -0.413253,-0.37 -0.479762,-1.206 -0.129013,-1.6238 0.142829,-0.1701 0.383319,-0.2531 0.615242,-0.2483 z"
               id="path3472"
               style="fill:#b2e5e5;fill-opacity:1;stroke:#000000;stroke-width:0.01289821;stroke-miterlimit:10" />
          </g>
        </g>
      </g>
      <g
         id="g22899">
        <path
           d="m 85.017967,998.69135 c -6e-6,0.72363 -0.02328,1.15104 -0.06982,1.28222 -0.09734,0.30043 -0.389329,0.81043 -0.875977,1.52983 -0.423182,0.6178 -0.784998,1.1002 -1.085449,1.4472 -0.11003,0.1312 -0.442224,0.1968 -0.996582,0.1968 -0.482425,0 -0.795576,-0.017 -0.939453,-0.051 -0.08887,-0.021 -0.162926,-0.063 -0.222168,-0.1269 -0.253908,-0.2751 -0.615724,-0.7533 -1.085449,-1.4346 -0.503582,-0.7321 -0.804037,-1.2336 -0.901367,-1.5044 -0.105795,-0.29199 -0.158692,-0.72998 -0.158692,-1.31396 0,-0.16504 0.0021,-0.4126 0.0063,-0.74268 0.0042,-0.3343 0.0063,-0.58609 0.0063,-0.75537 -10e-7,-0.11002 0.07406,-0.16503 0.222168,-0.16504 0.215819,10e-6 0.539549,0.006 0.971191,0.019 0.43587,0.0127 0.761716,0.019 0.977539,0.019 0.09733,0 0.145993,0.0656 0.145996,0.19677 -3e-6,0.1185 -0.0085,0.29835 -0.02539,0.53955 -0.01693,0.23699 -0.02539,0.41684 -0.02539,0.53955 -3e-6,0.44011 0.01269,0.79981 0.03809,1.07911 0.01269,0.14388 0.135414,0.41471 0.368164,0.81247 0.241208,0.419 0.416826,0.6284 0.526855,0.6284 0.105791,0 0.275062,-0.2052 0.507813,-0.6157 0.224279,-0.38507 0.344885,-0.64744 0.361816,-0.78709 0.03385,-0.30045 0.05078,-0.66438 0.05078,-1.09179 -5e-6,-0.12272 -0.0127,-0.3068 -0.03809,-0.55225 -0.02539,-0.24967 -0.03809,-0.43375 -0.03809,-0.55225 -5e-6,-0.13118 0.04443,-0.19677 0.1333,-0.19677 0.101558,0 0.251786,0.002 0.450684,0.006 0.20312,0.004 0.355463,0.006 0.457031,0.006 0.101557,1e-5 0.253901,-0.008 0.457032,-0.0254 0.20735,-0.0169 0.36181,-0.0254 0.463378,-0.0254 0.105788,10e-6 0.175612,0.055 0.209473,0.16504 0.07193,0.24122 0.107904,0.7321 0.10791,1.47266"
           id="path22821"
           style="font-size:13px;font-style:normal;font-variant:normal;font-weight:bold;font-stretch:normal;text-align:start;line-height:100%;letter-spacing:0px;word-spacing:0px;writing-mode:lr-tb;text-anchor:start;fill:#b2e5e5;fill-opacity:1;stroke:none;font-family:Berlin Sans FB Demi;-inkscape-font-specification:Berlin Sans FB Demi Bold" />
        <path
           d="m 88.407616,995.46674 c -3e-6,0.73633 -0.414717,1.10449 -1.244141,1.10449 -0.35547,0 -0.649578,-0.0931 -0.882324,-0.2793 -0.253907,-0.20312 -0.38086,-0.47818 -0.38086,-0.82519 0,-0.33007 0.131185,-0.60091 0.393555,-0.8125 0.24121,-0.19466 0.531086,-0.29199 0.869629,-0.292 0.330076,10e-6 0.61572,0.0995 0.856934,0.29834 0.258135,0.2116 0.387204,0.48032 0.387207,0.80616 m -0.165039,4.71626 c -3e-6,0.309 0.0063,0.7702 0.01904,1.3838 0.01269,0.6094 0.01904,1.0664 0.01904,1.3711 -3e-6,0.089 -0.0529,0.1418 -0.158692,0.1587 -0.143883,0.025 -0.467613,0.038 -0.971191,0.038 -0.507814,0 -0.83366,-0.013 -0.977539,-0.038 -0.0931,-0.017 -0.150229,-0.044 -0.171387,-0.082 -0.0085,-0.017 -0.0127,-0.08 -0.01269,-0.1904 -10e-7,-0.292 0.0063,-0.73 0.01904,-1.314 0.01269,-0.5882 0.01904,-1.0304 0.01904,-1.3267 -10e-7,-1.20177 -0.04655,-2.15815 -0.139649,-2.8691 -0.0085,-0.0677 -0.0127,-0.11213 -0.0127,-0.1333 -10e-7,-0.0846 0.05713,-0.12694 0.171387,-0.12695 0.118488,10e-6 0.298338,0.0127 0.53955,0.0381 0.245442,0.0254 0.429523,0.0381 0.552246,0.0381 0.12272,10e-6 0.306802,-0.0106 0.552247,-0.0317 0.24544,-0.0212 0.429521,-0.0317 0.552246,-0.0317 0.101559,0 0.15234,0.0423 0.152343,0.12695 -3e-6,0.0169 -0.0042,0.0571 -0.01269,0.1206 -0.0931,0.8252 -0.139651,1.78158 -0.139648,2.8691"
           id="path22823"
           style="font-size:13px;font-style:normal;font-variant:normal;font-weight:bold;font-stretch:normal;text-align:start;line-height:100%;letter-spacing:0px;word-spacing:0px;writing-mode:lr-tb;text-anchor:start;fill:#b2e5e5;fill-opacity:1;stroke:none;font-family:Berlin Sans FB Demi;-inkscape-font-specification:Berlin Sans FB Demi Bold" />
        <path
           d="m 95.580467,998.69135 c -6e-6,0.72363 -0.02328,1.15104 -0.06982,1.28222 -0.09734,0.30043 -0.389329,0.81043 -0.875977,1.52983 -0.423182,0.6178 -0.784998,1.1002 -1.085449,1.4472 -0.11003,0.1312 -0.442224,0.1968 -0.996582,0.1968 -0.482425,0 -0.795576,-0.017 -0.939453,-0.051 -0.08887,-0.021 -0.162926,-0.063 -0.222168,-0.1269 -0.253908,-0.2751 -0.615724,-0.7533 -1.085449,-1.4346 -0.503582,-0.7321 -0.804037,-1.2336 -0.901367,-1.5044 -0.105795,-0.29199 -0.158692,-0.72998 -0.158692,-1.31396 0,-0.16504 0.0021,-0.4126 0.0063,-0.74268 0.0042,-0.3343 0.0063,-0.58609 0.0063,-0.75537 -10e-7,-0.11002 0.07406,-0.16503 0.222168,-0.16504 0.215819,10e-6 0.539549,0.006 0.971191,0.019 0.43587,0.0127 0.761716,0.019 0.977539,0.019 0.09733,0 0.145993,0.0656 0.145996,0.19677 -3e-6,0.1185 -0.0085,0.29835 -0.02539,0.53955 -0.01693,0.23699 -0.02539,0.41684 -0.02539,0.53955 -3e-6,0.44011 0.01269,0.79981 0.03809,1.07911 0.01269,0.14388 0.135414,0.41471 0.368164,0.81247 0.241208,0.419 0.416826,0.6284 0.526855,0.6284 0.105791,0 0.275062,-0.2052 0.507813,-0.6157 0.224279,-0.38507 0.344885,-0.64744 0.361816,-0.78709 0.03385,-0.30045 0.05078,-0.66438 0.05078,-1.09179 -5e-6,-0.12272 -0.0127,-0.3068 -0.03809,-0.55225 -0.02539,-0.24967 -0.03809,-0.43375 -0.03809,-0.55225 -5e-6,-0.13118 0.04443,-0.19677 0.1333,-0.19677 0.101558,0 0.251786,0.002 0.450684,0.006 0.20312,0.004 0.355463,0.006 0.457031,0.006 0.101557,1e-5 0.253901,-0.008 0.457032,-0.0254 0.20735,-0.0169 0.36181,-0.0254 0.463378,-0.0254 0.105788,10e-6 0.175612,0.055 0.209473,0.16504 0.07193,0.24122 0.107904,0.7321 0.10791,1.47266"
           id="path22825"
           style="font-size:13px;font-style:normal;font-variant:normal;font-weight:bold;font-stretch:normal;text-align:start;line-height:100%;letter-spacing:0px;word-spacing:0px;writing-mode:lr-tb;text-anchor:start;fill:#b2e5e5;fill-opacity:1;stroke:none;font-family:Berlin Sans FB Demi;-inkscape-font-specification:Berlin Sans FB Demi Bold" />
        <path
           d="m 102.2709,999.64984 c -1e-5,0.42746 -0.13754,0.67076 -0.4126,0.72996 -0.0466,0.01 -0.48454,0.055 -1.31397,0.1397 -0.49935,0.055 -1.24414,0.1206 -2.234371,0.1967 0.05924,0.2751 0.239093,0.4846 0.539551,0.6285 0.24544,0.1185 0.524736,0.1777 0.837891,0.1777 0.376619,0 0.755369,-0.1016 1.136229,-0.3047 0.1608,-0.1015 0.32161,-0.2031 0.48242,-0.3047 0.0889,0.042 0.23698,0.2582 0.44434,0.6475 0.21158,0.3893 0.31738,0.6369 0.31738,0.7427 0,0.03 -0.0317,0.078 -0.0952,0.146 -0.51628,0.5543 -1.3182,0.8315 -2.405765,0.8315 -1.007164,0 -1.819663,-0.2941 -2.4375,-0.8823 -0.634766,-0.5967 -0.952148,-1.3944 -0.952148,-2.3931 0,-0.97329 0.283528,-1.77098 0.850586,-2.39306 0.583983,-0.64322 1.358396,-0.96483 2.323242,-0.96484 0.812495,1e-5 1.502275,0.29623 2.069335,0.88867 0.56705,0.59245 0.85058,1.29704 0.85059,2.11377 m -2.22168,-0.38721 c -10e-6,-0.26236 -0.09311,-0.49299 -0.2793,-0.69189 -0.186201,-0.19889 -0.408369,-0.29834 -0.666504,-0.29834 -0.266604,0 -0.486656,0.11215 -0.660156,0.33643 -0.160809,0.20736 -0.241213,0.45068 -0.241211,0.72998 -2e-6,0.11426 0.05924,0.17139 0.177735,0.17138 0.313148,1e-5 0.799801,-0.0487 1.459961,-0.14599 0.139644,-0.0212 0.209465,-0.055 0.209475,-0.10157"
           id="path22827"
           style="font-size:13px;font-style:normal;font-variant:normal;font-weight:bold;font-stretch:normal;text-align:start;line-height:100%;letter-spacing:0px;word-spacing:0px;writing-mode:lr-tb;text-anchor:start;fill:#b2e5e5;fill-opacity:1;stroke:none;font-family:Berlin Sans FB Demi;-inkscape-font-specification:Berlin Sans FB Demi Bold" />
        <path
           d="m 107.19033,999.14203 c 0,0.16504 -0.091,0.24756 -0.27295,0.24756 -0.0804,0 -0.1989,-0.004 -0.35547,-0.0127 -0.15235,-0.0127 -0.2666,-0.019 -0.34277,-0.019 -0.35124,0 -0.59034,0.055 -0.71729,0.16504 -0.12695,0.11003 -0.19043,0.3322 -0.19043,0.66647 0,0.182 0.002,0.4591 0.006,0.8315 0.008,0.3682 0.0127,0.6433 0.0127,0.8252 -10e-6,0.1228 0.008,0.3068 0.0254,0.5523 0.0169,0.2412 0.0254,0.421 0.0254,0.5395 0,0.1016 -0.0698,0.1587 -0.20947,0.1714 -0.20313,0.017 -0.51417,0.025 -0.93311,0.025 -0.40202,0 -0.72363,-0.013 -0.96484,-0.038 -0.13965,-0.017 -0.20948,-0.087 -0.20948,-0.2095 0,-0.3385 0.002,-0.8442 0.006,-1.517 0.004,-0.6771 0.006,-1.1849 0.006,-1.52344 0,-0.99446 -0.091,-1.81331 -0.27295,-2.45654 -0.008,-0.0381 -0.0127,-0.0698 -0.0127,-0.0952 0,-0.0635 0.0317,-0.10579 0.0952,-0.12695 0.23275,-0.0254 0.5734,-0.0719 1.02197,-0.13965 0.66862,-0.13118 1.01351,-0.19677 1.03467,-0.19678 0.0762,10e-6 0.12483,0.13331 0.146,0.3999 0.0212,0.26661 0.0592,0.39991 0.11425,0.39991 -0.0592,0 0.11426,-0.11002 0.52051,-0.33008 0.40625,-0.22428 0.79769,-0.33642 1.17432,-0.33643 0.23697,10e-6 0.35546,0.0508 0.35547,0.15235 -10e-6,0.12272 -0.0127,0.29623 -0.0381,0.5205 -0.0254,0.24122 -0.0402,0.41472 -0.0444,0.52051 -1e-5,0.12273 0.002,0.28565 0.006,0.48877 0.008,0.24968 0.0127,0.41472 0.0127,0.49512"
           id="path22829"
           style="font-size:13px;font-style:normal;font-variant:normal;font-weight:bold;font-stretch:normal;text-align:start;line-height:100%;letter-spacing:0px;word-spacing:0px;writing-mode:lr-tb;text-anchor:start;fill:#b2e5e5;fill-opacity:1;stroke:none;font-family:Berlin Sans FB Demi;-inkscape-font-specification:Berlin Sans FB Demi Bold" />
      </g>
    </g>
  </g>
</svg>
