<?xml version="1.0" encoding="UTF-8" standalone="no"?>
<!-- Created with Inkscape (http://www.inkscape.org/) -->

<svg
   xmlns:dc="http://purl.org/dc/elements/1.1/"
   xmlns:cc="http://creativecommons.org/ns#"
   xmlns:rdf="http://www.w3.org/1999/02/22-rdf-syntax-ns#"
   xmlns:svg="http://www.w3.org/2000/svg"
   xmlns="http://www.w3.org/2000/svg"
   version="1.1"
   width="143"
   height="59"
   id="svg21664">
  <defs
     id="defs21666" />
  <metadata
     id="metadata21669">
    <rdf:RDF>
      <cc:Work
         rdf:about="">
        <dc:format>image/svg+xml</dc:format>
        <dc:type
           rdf:resource="http://purl.org/dc/dcmitype/StillImage" />
        <dc:title></dc:title>
      </cc:Work>
    </rdf:RDF>
  </metadata>
  <g
     transform="translate(0,-993.36218)"
     id="layer1">
    <path
       d="m 74.6656,1009.6473 c -3.2e-5,1.349 -0.06629,3.3724 -0.19879,6.0703 -0.132558,2.698 -0.198821,4.7213 -0.198789,6.0704 -3.2e-5,1.3124 0.0473,3.2812 0.141992,5.9061 0.09463,2.6251 0.141961,4.5848 0.141992,5.879 -3.1e-5,0.4921 -0.236685,0.8021 -0.709961,0.9297 -0.719458,0.1823 -2.243507,0.2735 -4.572152,0.2735 -2.063645,0 -3.502499,-0.055 -4.316565,-0.1641 -0.359735,-0.055 -0.586923,-0.2735 -0.681563,-0.6563 -0.05682,-0.5468 -0.113615,-1.0938 -0.170391,-1.6406 -0.09468,-0.8385 -0.227208,-1.2578 -0.397578,-1.2578 0.265031,0 -0.691049,0.6198 -2.868245,1.8594 -2.17723,1.2395 -4.155654,1.8594 -5.935277,1.8594 -5.017068,0 -7.989436,-2.1784 -8.917115,-6.5352 -0.416514,-2.0234 -0.624769,-4.9584 -0.624767,-8.8047 -2e-6,-4.1563 0.350245,-7.4375 1.050743,-9.8438 0.208252,-0.7474 0.596364,-1.121 1.164337,-1.121 0.87088,0 2.196141,0.01 3.975784,0.027 1.779626,0.019 3.104887,0.028 3.975784,0.028 0.586889,0 0.880339,0.237 0.880352,0.7109 -1.3e-5,0.1277 -0.01895,0.319 -0.0568,0.5743 -0.397591,2.4792 -0.59638,4.9947 -0.596367,7.5468 -1.3e-5,3.1719 0.104115,5.3412 0.312383,6.5079 0.340768,2.0052 1.580832,3.0078 3.720198,3.0078 0.833004,0 1.732287,-0.3555 2.697853,-1.0664 0.98446,-0.7109 1.495632,-1.4492 1.533517,-2.2149 0.03784,-0.6744 0.05677,-5.25 0.05679,-13.7266 -2.2e-5,-0.6015 0.04731,-0.957 0.141992,-1.0663 0.113572,-0.1823 0.454353,-0.2735 1.022345,-0.2735 0.927659,0 2.319182,0.01 4.174573,0.027 1.874269,0.019 3.275258,0.028 4.202971,0.028 0.567938,10e-5 0.899253,0.1368 0.993946,0.4101 0.03783,0.1459 0.05676,0.3647 0.05679,0.6563"
       id="path22213"
       style="font-size:57.06980133px;font-style:normal;font-variant:normal;font-weight:bold;font-stretch:normal;text-align:start;line-height:100%;letter-spacing:0px;word-spacing:0px;writing-mode:lr-tb;text-anchor:start;fill:#3d8e8e;fill-opacity:1;stroke:none;font-family:Berlin Sans FB Demi;-inkscape-font-specification:Berlin Sans FB Demi Bold" />
    <g
       id="g24020">
      <path
         d="m 20.197357,1016.8661 c -2e-5,0.4374 -0.24614,0.6563 -0.738359,0.6562 -2.044707,10e-5 -3.653952,-0.055 -4.827739,-0.1641 0.05678,1.3673 0.11358,3.2722 0.170391,5.7149 0.01891,1.0391 0.104113,2.8438 0.255586,5.4141 0.132511,2.3151 0.198774,4.1198 0.19879,5.414 -1.6e-5,0.3829 -0.265067,0.6016 -0.795157,0.6562 -0.643713,0.073 -2.252957,0.1094 -4.827738,0.1094 -2.1393576,0 -3.5308807,-0.055 -4.1745732,-0.164 -0.6437029,-0.1094 -0.9655518,-0.4831 -0.9655476,-1.1211 l 0,-15.0664 c -4.2e-6,-0.5287 -0.3786499,-0.7929 -1.1359382,-0.793 -0.1325291,10e-5 -0.3502503,0.01 -0.6531645,0.027 -0.2839867,0.019 -0.4922418,0.027 -0.6247662,0.027 -0.5301057,0 -0.8046238,-0.1458 -0.8235552,-0.4375 -0.1703915,-1.5859 -0.25558677,-3.8919 -0.2555861,-6.918 -6.7e-7,-0.6744 0.3597128,-1.0845 1.0791413,-1.2305 0.643696,-0.055 1.2968599,-0.1001 1.9594936,-0.1367 -0.094666,-1.4583 -0.1419959,-2.5976 -0.1419923,-3.418 -3.6e-6,-3.1354 0.634228,-5.4139 1.9026967,-6.83586 2.5179885,-2.82553 6.5884297,-4.23824 12.2113367,-4.23834 0.378628,10e-5 0.605815,0.10951 0.681562,0.32814 0.151441,0.82042 0.369162,2.03266 0.653165,3.63672 0.01891,0.14591 0.141973,0.65636 0.369181,1.53125 0.17037,0.67449 0.255565,1.19409 0.255586,1.55859 -2.1e-5,0.4376 -0.672116,0.7201 -2.016291,0.8477 -1.552465,0.1641 -2.508546,0.4375 -2.868244,0.8203 -0.62478,0.6563 -0.937163,1.9415 -0.93715,3.8555 -1.3e-5,0.6015 0.04732,1.1666 0.141993,1.6953 0.53009,0 1.353645,-0.019 2.470666,-0.055 1.116988,-0.036 1.959475,-0.055 2.527462,-0.055 0.56795,0 0.851934,0.2006 0.851954,0.6015 -2e-5,0.8569 0.0095,2.1511 0.0284,3.8829 0.01891,1.7135 0.02838,2.9987 0.0284,3.8555"
         id="path22209"
         style="font-size:57.06980133px;font-style:normal;font-variant:normal;font-weight:bold;font-stretch:normal;text-align:start;line-height:100%;letter-spacing:0px;word-spacing:0px;writing-mode:lr-tb;text-anchor:start;fill:#3d8e8e;fill-opacity:1;stroke:none;font-family:Berlin Sans FB Demi;-inkscape-font-specification:Berlin Sans FB Demi Bold" />
      <path
         d="m 42.120965,1017.4676 c -2.1e-5,0.7109 -0.407065,1.0664 -1.221133,1.0664 -0.359734,0 -0.889838,-0.019 -1.590314,-0.055 -0.68158,-0.055 -1.192752,-0.082 -1.533516,-0.082 -1.571397,0 -2.641071,0.2369 -3.209026,0.7109 -0.567982,0.4739 -0.851967,1.4309 -0.851954,2.871 -1.3e-5,0.784 0.0095,1.9779 0.0284,3.5821 0.03785,1.5859 0.05679,2.7709 0.0568,3.5547 -1.3e-5,0.5286 0.03785,1.3215 0.113593,2.3789 0.07572,1.039 0.113581,1.8138 0.113595,2.3242 -1.4e-5,0.4375 -0.312396,0.6836 -0.93715,0.7382 -0.908762,0.073 -2.300285,0.1095 -4.174573,0.1095 -1.798575,0 -3.237429,-0.055 -4.316565,-0.1641 -0.62477,-0.073 -0.937153,-0.3737 -0.93715,-0.9024 -3e-6,-1.4583 0.0095,-3.6367 0.0284,-6.5351 0.01892,-2.9167 0.02839,-5.1041 0.0284,-6.5625 -3e-6,-4.2838 -0.407047,-7.8111 -1.221134,-10.582 -0.03787,-0.1641 -0.05679,-0.3008 -0.05679,-0.4102 -10e-7,-0.2734 0.14199,-0.4557 0.425977,-0.5468 1.041273,-0.1094 2.565322,-0.3099 4.572151,-0.6016 2.991294,-0.5651 4.534276,-0.8476 4.628949,-0.8477 0.34077,10e-5 0.558491,0.5743 0.653164,1.7227 0.09465,1.1484 0.26504,1.7226 0.511172,1.7226 -0.265064,0 0.51116,-0.4739 2.328674,-1.4219 1.817485,-0.966 3.568721,-1.4491 5.253715,-1.4492 1.060187,10e-5 1.590292,0.2188 1.590313,0.6563 -2.1e-5,0.5287 -0.05682,1.2761 -0.170391,2.2421 -0.113615,1.0392 -0.179878,1.7866 -0.198789,2.2423 -2.1e-5,0.5286 0.0095,1.2305 0.0284,2.1055 0.03784,1.0754 0.05677,1.7864 0.0568,2.1327"
         id="path22211"
         style="font-size:57.06980133px;font-style:normal;font-variant:normal;font-weight:bold;font-stretch:normal;text-align:start;line-height:100%;letter-spacing:0px;word-spacing:0px;writing-mode:lr-tb;text-anchor:start;fill:#3d8e8e;fill-opacity:1;stroke:none;font-family:Berlin Sans FB Demi;-inkscape-font-specification:Berlin Sans FB Demi Bold" />
      <path
         d="m 131.97369,1020.9949 c -3e-5,-1.5494 -0.51119,-2.8254 -1.53351,-3.828 -1.00344,-1.0208 -2.31923,-1.5313 -3.94739,-1.5313 -1.6282,0 -2.94399,0.5013 -3.94739,1.5039 -1.00343,1.0026 -1.50513,2.2878 -1.50512,3.8554 -10e-6,1.4766 0.5301,2.7436 1.59031,3.8008 1.06021,1.0573 2.3476,1.586 3.8622,1.586 1.60923,0 2.92502,-0.5013 3.94739,-1.504 1.02232,-1.0207 1.53348,-2.315 1.53351,-3.8828 m 9.1443,-0.164 c -3e-5,1.4036 0.0852,3.4909 0.25559,6.2617 0.17036,2.7709 0.25555,4.849 0.25558,6.2344 -3e-5,0.7292 -0.33134,1.1211 -0.99394,1.1758 -2.34764,0.164 -5.03602,0.2461 -8.06517,0.2461 -0.35973,0 -0.60585,-0.5196 -0.73835,-1.5586 -0.11362,-1.0574 -0.25561,-1.5951 -0.42599,-1.6133 -0.15147,0.073 -0.35026,0.2278 -0.59635,0.4649 -2.12044,2.0598 -4.39232,3.0898 -6.81564,3.0898 -3.69181,0 -6.74938,-1.4036 -9.1727,-4.211 -2.29082,-2.6249 -3.43622,-5.7603 -3.43622,-9.4062 0,-4.211 1.18327,-7.6016 3.54982,-10.1719 2.46118,-2.6614 5.83113,-3.9921 10.10984,-3.9921 2.97236,0 5.31997,1.0025 7.04282,3.0077 0.0757,0.091 0.14197,0.1368 0.19879,0.1368 0.17037,0 0.35969,-0.4375 0.56797,-1.3125 0.22716,-0.8933 0.49222,-1.3398 0.79516,-1.3399 0.70047,1e-4 2.03519,0.1914 4.00418,0.5742 1.87426,0.3646 3.21846,0.6745 4.03258,0.9298 0.28396,0.1094 0.42595,0.2552 0.42598,0.4374 -3e-5,0.073 -0.0284,0.2643 -0.0852,0.5742 -0.60587,3.2996 -0.90878,6.7904 -0.90875,10.4727"
         id="path22217"
         style="font-size:57.06980133px;font-style:normal;font-variant:normal;font-weight:bold;font-stretch:normal;text-align:start;line-height:100%;letter-spacing:0px;word-spacing:0px;writing-mode:lr-tb;text-anchor:start;fill:#3d8e8e;fill-opacity:1;stroke:none;font-family:Berlin Sans FB Demi;-inkscape-font-specification:Berlin Sans FB Demi Bold" />
      <g
         id="g24009">
        <path
           d="m 107.69301,1027.3934 c -3e-5,5.1953 -1.13598,8.9232 -3.40782,11.1836 -2.34763,2.3151 -6.24768,3.4726 -11.700164,3.4727 -1.590327,-10e-5 -3.758074,-0.2462 -6.503247,-0.7383 -3.502481,-0.6199 -5.253717,-1.349 -5.253714,-2.1875 -3e-6,-0.3464 0.40704,-2.1329 1.221134,-5.3594 0.132521,-0.5104 0.340776,-0.7656 0.624766,-0.7656 0.09466,0.019 0.198784,0.055 0.312383,0.1093 2.915566,1.3855 5.613416,2.0782 8.09356,2.0782 1.363111,0 2.716769,-0.3281 4.06098,-0.9844 1.628159,-0.7839 2.442246,-1.7682 2.442267,-2.9532 l 0,-1.832 c -1.931114,1.75 -4.411244,2.6251 -7.440395,2.6251 -3.559284,0 -6.484322,-1.2305 -8.775125,-3.6915 -2.215081,-2.3697 -3.32262,-5.2864 -3.322619,-8.7499 -10e-7,-3.4818 1.060207,-6.3711 3.180628,-8.668 2.215072,-2.388 5.111712,-3.582 8.689928,-3.582 2.858762,0 5.045441,0.9844 6.560043,2.9531 0.302897,0.401 0.511153,0.6016 0.624767,0.6015 0.170369,1e-4 0.255565,-0.3281 0.255586,-0.9843 -2.1e-5,-1.4584 0.170369,-2.1875 0.511172,-2.1875 0.302895,0 1.940538,0.1549 4.91293,0.4648 2.97234,0.2917 4.51533,0.4558 4.62896,0.4922 0.32181,0.1094 0.48273,0.3464 0.48276,0.7109 -3e-5,1.2579 -0.0474,3.1354 -0.14199,5.6328 -0.0757,2.4975 -0.11363,4.375 -0.1136,5.6328 -3e-5,0.7474 0.009,1.8685 0.0284,3.3633 0.0189,1.4948 0.0283,2.6159 0.0284,3.3633"
           id="path22226"
           style="font-size:57.06980133px;font-style:normal;font-variant:normal;font-weight:bold;font-stretch:normal;text-align:start;line-height:100%;letter-spacing:0px;word-spacing:0px;writing-mode:lr-tb;text-anchor:start;fill:#b2e5e5;fill-opacity:1;stroke:none;font-family:Berlin Sans FB Demi;-inkscape-font-specification:Berlin Sans FB Demi Bold" />
        <g
           id="g24000">
          <g
             id="g23994">
            <path
               d="m 99.575705,1020.7023 c -0.281594,1.6179 -0.424381,2.0075 -1.585458,2.8299 -0.155336,0.077 -0.436705,0.3037 -0.604658,0.4677 -0.226314,0.2205 -0.246577,0.948 0.01667,1.5214 0.170202,0.4637 -0.113865,0.8735 -0.434254,0.9556 -0.53033,0.1011 -1.31666,0.1011 -1.677125,0.027 -0.399305,-0.058 -0.510832,-0.4686 -0.315103,-1.0233 0.109614,-0.4641 -0.03646,-1.0875 -0.462749,-1.1352 -0.39303,-0.044 -1.198297,-0.018 -1.451171,-0.031 -0.559004,-0.029 -0.719131,0.7173 -0.538066,1.2308 0.149286,0.4225 -9.9e-4,0.8873 -0.259352,0.9191 -0.460207,0.1139 -1.288773,0.094 -1.688347,0.017 -0.258295,-0.05 -0.54713,-0.4434 -0.37686,-0.9984 0.14218,-0.4964 0.377534,-1.0881 -0.197932,-1.6443 -0.903997,-0.8738 -1.171714,-1.1927 -1.485041,-2.5773 -0.07912,-0.3492 -0.02436,-1.004 -0.08805,-1.011 -0.06371,-0.01 -0.20803,1.5414 -1.121067,1.4722 -1.030524,-0.078 -0.969397,-2.4899 -0.450042,-2.4456 0.417342,0.036 0.316948,1.4806 0.506918,1.4607 0.117082,0.021 0.224942,-1.8031 1.072827,-1.4225 0.07865,-0.2647 0.13613,-0.5388 0.245048,-0.7911 0.101159,-0.2341 0.05791,-0.1734 0.157383,-0.3708 0.905998,0.044 2.305847,-0.5585 2.330811,-2.4628 1.092258,-0.3783 1.612197,-0.437 2.751684,-0.1978 0.352301,0.1309 0.639719,0.1775 0.797957,-0.1908 0.204611,-0.4762 0.864167,-1.8403 1.842897,-1.8379 0.259756,-0.061 0.31164,1.0671 0.30514,1.3221 -0.01352,0.5271 -0.002,1.0554 -0.02451,1.5822 -0.01383,0.3233 -0.130283,0.5574 0.09428,0.801 0.574905,0.7817 0.854137,1.5567 0.951608,2.5275 0.06045,0.6002 0.145396,0.6003 0.79247,0.6009 0.543913,2e-4 0.982935,-0.1045 0.894101,0.4053 z"
               id="out"
               style="fill:#ffffff;fill-opacity:1" />
            <path
               d="m 95.660988,1018.9869 c -0.604478,0.018 -1.018514,0.4636 -0.972208,1.0186 0.0504,0.5924 0.41642,0.8513 0.996092,0.8384 0.531837,-0.013 0.960963,-0.4468 0.902355,-0.9459 -0.06551,-0.5507 -0.403286,-0.8626 -0.926239,-0.9111 z"
               id="path22685"
               style="fill:#b2e5e5;fill-opacity:1" />
            <path
               d="m 90.121682,1020.2582 c 0.302577,0.07 0.497427,-0.6203 0.677683,-0.9766 0.229485,-0.4536 0.4372,-0.6901 0.636413,-0.9413 0.215272,-0.2716 0.595348,-0.59 0.930557,-0.7824 0.397056,-0.2279 0.923608,-0.425 0.808595,-0.6595 -0.515869,-1.051 -1.915651,0.2291 -2.407141,0.7886 -0.452898,0.5158 -1.844179,2.295 -0.646107,2.5712 z"
               id="path22683"
               style="fill:#b2e5e5;fill-opacity:1" />
          </g>
          <g
             id="g23990">
            <path
               d="m 88.994884,1014.0789 c -0.817452,-0.01 -1.571116,0.4862 -1.846422,1.2575 -0.442243,1.2391 0.498427,2.4504 1.856133,2.4901 0.475738,0.014 1.587688,-0.4421 1.773591,-1.4101 0.185167,-0.9599 -0.286567,-2.0342 -1.325512,-2.2813 -0.153091,-0.036 -0.30641,-0.055 -0.45779,-0.056 z"
               id="path22551"
               style="fill:#ffffff;fill-opacity:1;stroke:none" />
            <path
               d="m 89.003207,1014.9168 c 0.231923,0 0.454966,0.097 0.564609,0.2753 0.06397,0.1054 0.178492,0.2564 0.02774,0.3607 -0.114137,0.079 -0.278138,0.173 -0.420334,0.024 -0.09768,-0.1026 -0.164312,-0.2419 -0.328084,-0.084 -0.414904,0.4387 0.273198,0.2689 0.259415,0.3565 0.0072,0.082 0.0038,-0.013 0.02428,0.195 -0.01666,0.078 -0.645984,0.044 -0.219878,0.3468 0.112137,0.073 0.177191,0.055 0.249703,-0.012 0.041,-0.039 0.04455,-0.1114 0.08115,-0.1575 0.112414,-0.1415 0.260064,-0.063 0.383573,-0.03 0.169718,0.046 0.117674,0.187 0.08948,0.301 -0.105283,0.4283 -0.847294,0.6102 -1.197885,0.2962 -0.413253,-0.37 -0.479762,-1.206 -0.129013,-1.6238 0.142829,-0.1701 0.383319,-0.2531 0.615242,-0.2483 z"
               id="path3472"
               style="fill:#b2e5e5;fill-opacity:1;stroke:none" />
          </g>
        </g>
      </g>
    </g>
    <g
       id="g22899">
      <path
         d="m 85.017967,998.69135 c -6e-6,0.72363 -0.02328,1.15104 -0.06982,1.28222 -0.09734,0.30043 -0.389329,0.81043 -0.875977,1.52983 -0.423182,0.6178 -0.784998,1.1002 -1.085449,1.4472 -0.11003,0.1312 -0.442224,0.1968 -0.996582,0.1968 -0.482425,0 -0.795576,-0.017 -0.939453,-0.051 -0.08887,-0.021 -0.162926,-0.063 -0.222168,-0.1269 -0.253908,-0.2751 -0.615724,-0.7533 -1.085449,-1.4346 -0.503582,-0.7321 -0.804037,-1.2336 -0.901367,-1.5044 -0.105795,-0.29199 -0.158692,-0.72998 -0.158692,-1.31396 0,-0.16504 0.0021,-0.4126 0.0063,-0.74268 0.0042,-0.3343 0.0063,-0.58609 0.0063,-0.75537 -10e-7,-0.11002 0.07406,-0.16503 0.222168,-0.16504 0.215819,10e-6 0.539549,0.006 0.971191,0.019 0.43587,0.0127 0.761716,0.019 0.977539,0.019 0.09733,0 0.145993,0.0656 0.145996,0.19677 -3e-6,0.1185 -0.0085,0.29835 -0.02539,0.53955 -0.01693,0.23699 -0.02539,0.41684 -0.02539,0.53955 -3e-6,0.44011 0.01269,0.79981 0.03809,1.07911 0.01269,0.14388 0.135414,0.41471 0.368164,0.81247 0.241208,0.419 0.416826,0.6284 0.526855,0.6284 0.105791,0 0.275062,-0.2052 0.507813,-0.6157 0.224279,-0.38507 0.344885,-0.64744 0.361816,-0.78709 0.03385,-0.30045 0.05078,-0.66438 0.05078,-1.09179 -5e-6,-0.12272 -0.0127,-0.3068 -0.03809,-0.55225 -0.02539,-0.24967 -0.03809,-0.43375 -0.03809,-0.55225 -5e-6,-0.13118 0.04443,-0.19677 0.1333,-0.19677 0.101558,0 0.251786,0.002 0.450684,0.006 0.20312,0.004 0.355463,0.006 0.457031,0.006 0.101557,1e-5 0.253901,-0.008 0.457032,-0.0254 0.20735,-0.0169 0.36181,-0.0254 0.463378,-0.0254 0.105788,10e-6 0.175612,0.055 0.209473,0.16504 0.07193,0.24122 0.107904,0.7321 0.10791,1.47266"
         id="path22821"
         style="font-size:13px;font-style:normal;font-variant:normal;font-weight:bold;font-stretch:normal;text-align:start;line-height:100%;letter-spacing:0px;word-spacing:0px;writing-mode:lr-tb;text-anchor:start;fill:#b2e5e5;fill-opacity:1;stroke:none;font-family:Berlin Sans FB Demi;-inkscape-font-specification:Berlin Sans FB Demi Bold" />
      <path
         d="m 88.407616,995.46674 c -3e-6,0.73633 -0.414717,1.10449 -1.244141,1.10449 -0.35547,0 -0.649578,-0.0931 -0.882324,-0.2793 -0.253907,-0.20312 -0.38086,-0.47818 -0.38086,-0.82519 0,-0.33007 0.131185,-0.60091 0.393555,-0.8125 0.24121,-0.19466 0.531086,-0.29199 0.869629,-0.292 0.330076,10e-6 0.61572,0.0995 0.856934,0.29834 0.258135,0.2116 0.387204,0.48032 0.387207,0.80616 m -0.165039,4.71626 c -3e-6,0.309 0.0063,0.7702 0.01904,1.3838 0.01269,0.6094 0.01904,1.0664 0.01904,1.3711 -3e-6,0.089 -0.0529,0.1418 -0.158692,0.1587 -0.143883,0.025 -0.467613,0.038 -0.971191,0.038 -0.507814,0 -0.83366,-0.013 -0.977539,-0.038 -0.0931,-0.017 -0.150229,-0.044 -0.171387,-0.082 -0.0085,-0.017 -0.0127,-0.08 -0.01269,-0.1904 -10e-7,-0.292 0.0063,-0.73 0.01904,-1.314 0.01269,-0.5882 0.01904,-1.0304 0.01904,-1.3267 -10e-7,-1.20177 -0.04655,-2.15815 -0.139649,-2.8691 -0.0085,-0.0677 -0.0127,-0.11213 -0.0127,-0.1333 -10e-7,-0.0846 0.05713,-0.12694 0.171387,-0.12695 0.118488,10e-6 0.298338,0.0127 0.53955,0.0381 0.245442,0.0254 0.429523,0.0381 0.552246,0.0381 0.12272,10e-6 0.306802,-0.0106 0.552247,-0.0317 0.24544,-0.0212 0.429521,-0.0317 0.552246,-0.0317 0.101559,0 0.15234,0.0423 0.152343,0.12695 -3e-6,0.0169 -0.0042,0.0571 -0.01269,0.1206 -0.0931,0.8252 -0.139651,1.78158 -0.139648,2.8691"
         id="path22823"
         style="font-size:13px;font-style:normal;font-variant:normal;font-weight:bold;font-stretch:normal;text-align:start;line-height:100%;letter-spacing:0px;word-spacing:0px;writing-mode:lr-tb;text-anchor:start;fill:#b2e5e5;fill-opacity:1;stroke:none;font-family:Berlin Sans FB Demi;-inkscape-font-specification:Berlin Sans FB Demi Bold" />
      <path
         d="m 95.580467,998.69135 c -6e-6,0.72363 -0.02328,1.15104 -0.06982,1.28222 -0.09734,0.30043 -0.389329,0.81043 -0.875977,1.52983 -0.423182,0.6178 -0.784998,1.1002 -1.085449,1.4472 -0.11003,0.1312 -0.442224,0.1968 -0.996582,0.1968 -0.482425,0 -0.795576,-0.017 -0.939453,-0.051 -0.08887,-0.021 -0.162926,-0.063 -0.222168,-0.1269 -0.253908,-0.2751 -0.615724,-0.7533 -1.085449,-1.4346 -0.503582,-0.7321 -0.804037,-1.2336 -0.901367,-1.5044 -0.105795,-0.29199 -0.158692,-0.72998 -0.158692,-1.31396 0,-0.16504 0.0021,-0.4126 0.0063,-0.74268 0.0042,-0.3343 0.0063,-0.58609 0.0063,-0.75537 -10e-7,-0.11002 0.07406,-0.16503 0.222168,-0.16504 0.215819,10e-6 0.539549,0.006 0.971191,0.019 0.43587,0.0127 0.761716,0.019 0.977539,0.019 0.09733,0 0.145993,0.0656 0.145996,0.19677 -3e-6,0.1185 -0.0085,0.29835 -0.02539,0.53955 -0.01693,0.23699 -0.02539,0.41684 -0.02539,0.53955 -3e-6,0.44011 0.01269,0.79981 0.03809,1.07911 0.01269,0.14388 0.135414,0.41471 0.368164,0.81247 0.241208,0.419 0.416826,0.6284 0.526855,0.6284 0.105791,0 0.275062,-0.2052 0.507813,-0.6157 0.224279,-0.38507 0.344885,-0.64744 0.361816,-0.78709 0.03385,-0.30045 0.05078,-0.66438 0.05078,-1.09179 -5e-6,-0.12272 -0.0127,-0.3068 -0.03809,-0.55225 -0.02539,-0.24967 -0.03809,-0.43375 -0.03809,-0.55225 -5e-6,-0.13118 0.04443,-0.19677 0.1333,-0.19677 0.101558,0 0.251786,0.002 0.450684,0.006 0.20312,0.004 0.355463,0.006 0.457031,0.006 0.101557,1e-5 0.253901,-0.008 0.457032,-0.0254 0.20735,-0.0169 0.36181,-0.0254 0.463378,-0.0254 0.105788,10e-6 0.175612,0.055 0.209473,0.16504 0.07193,0.24122 0.107904,0.7321 0.10791,1.47266"
         id="path22825"
         style="font-size:13px;font-style:normal;font-variant:normal;font-weight:bold;font-stretch:normal;text-align:start;line-height:100%;letter-spacing:0px;word-spacing:0px;writing-mode:lr-tb;text-anchor:start;fill:#b2e5e5;fill-opacity:1;stroke:none;font-family:Berlin Sans FB Demi;-inkscape-font-specification:Berlin Sans FB Demi Bold" />
      <path
         d="m 102.2709,999.64984 c -1e-5,0.42746 -0.13754,0.67076 -0.4126,0.72996 -0.0466,0.01 -0.48454,0.055 -1.31397,0.1397 -0.49935,0.055 -1.24414,0.1206 -2.234371,0.1967 0.05924,0.2751 0.239093,0.4846 0.539551,0.6285 0.24544,0.1185 0.524736,0.1777 0.837891,0.1777 0.376619,0 0.755369,-0.1016 1.136229,-0.3047 0.1608,-0.1015 0.32161,-0.2031 0.48242,-0.3047 0.0889,0.042 0.23698,0.2582 0.44434,0.6475 0.21158,0.3893 0.31738,0.6369 0.31738,0.7427 0,0.03 -0.0317,0.078 -0.0952,0.146 -0.51628,0.5543 -1.3182,0.8315 -2.405765,0.8315 -1.007164,0 -1.819663,-0.2941 -2.4375,-0.8823 -0.634766,-0.5967 -0.952148,-1.3944 -0.952148,-2.3931 0,-0.97329 0.283528,-1.77098 0.850586,-2.39306 0.583983,-0.64322 1.358396,-0.96483 2.323242,-0.96484 0.812495,1e-5 1.502275,0.29623 2.069335,0.88867 0.56705,0.59245 0.85058,1.29704 0.85059,2.11377 m -2.22168,-0.38721 c -10e-6,-0.26236 -0.09311,-0.49299 -0.2793,-0.69189 -0.186201,-0.19889 -0.408369,-0.29834 -0.666504,-0.29834 -0.266604,0 -0.486656,0.11215 -0.660156,0.33643 -0.160809,0.20736 -0.241213,0.45068 -0.241211,0.72998 -2e-6,0.11426 0.05924,0.17139 0.177735,0.17138 0.313148,1e-5 0.799801,-0.0487 1.459961,-0.14599 0.139644,-0.0212 0.209465,-0.055 0.209475,-0.10157"
         id="path22827"
         style="font-size:13px;font-style:normal;font-variant:normal;font-weight:bold;font-stretch:normal;text-align:start;line-height:100%;letter-spacing:0px;word-spacing:0px;writing-mode:lr-tb;text-anchor:start;fill:#b2e5e5;fill-opacity:1;stroke:none;font-family:Berlin Sans FB Demi;-inkscape-font-specification:Berlin Sans FB Demi Bold" />
      <path
         d="m 107.19033,999.14203 c 0,0.16504 -0.091,0.24756 -0.27295,0.24756 -0.0804,0 -0.1989,-0.004 -0.35547,-0.0127 -0.15235,-0.0127 -0.2666,-0.019 -0.34277,-0.019 -0.35124,0 -0.59034,0.055 -0.71729,0.16504 -0.12695,0.11003 -0.19043,0.3322 -0.19043,0.66647 0,0.182 0.002,0.4591 0.006,0.8315 0.008,0.3682 0.0127,0.6433 0.0127,0.8252 -10e-6,0.1228 0.008,0.3068 0.0254,0.5523 0.0169,0.2412 0.0254,0.421 0.0254,0.5395 0,0.1016 -0.0698,0.1587 -0.20947,0.1714 -0.20313,0.017 -0.51417,0.025 -0.93311,0.025 -0.40202,0 -0.72363,-0.013 -0.96484,-0.038 -0.13965,-0.017 -0.20948,-0.087 -0.20948,-0.2095 0,-0.3385 0.002,-0.8442 0.006,-1.517 0.004,-0.6771 0.006,-1.1849 0.006,-1.52344 0,-0.99446 -0.091,-1.81331 -0.27295,-2.45654 -0.008,-0.0381 -0.0127,-0.0698 -0.0127,-0.0952 0,-0.0635 0.0317,-0.10579 0.0952,-0.12695 0.23275,-0.0254 0.5734,-0.0719 1.02197,-0.13965 0.66862,-0.13118 1.01351,-0.19677 1.03467,-0.19678 0.0762,10e-6 0.12483,0.13331 0.146,0.3999 0.0212,0.26661 0.0592,0.39991 0.11425,0.39991 -0.0592,0 0.11426,-0.11002 0.52051,-0.33008 0.40625,-0.22428 0.79769,-0.33642 1.17432,-0.33643 0.23697,10e-6 0.35546,0.0508 0.35547,0.15235 -10e-6,0.12272 -0.0127,0.29623 -0.0381,0.5205 -0.0254,0.24122 -0.0402,0.41472 -0.0444,0.52051 -1e-5,0.12273 0.002,0.28565 0.006,0.48877 0.008,0.24968 0.0127,0.41472 0.0127,0.49512"
         id="path22829"
         style="font-size:13px;font-style:normal;font-variant:normal;font-weight:bold;font-stretch:normal;text-align:start;line-height:100%;letter-spacing:0px;word-spacing:0px;writing-mode:lr-tb;text-anchor:start;fill:#b2e5e5;fill-opacity:1;stroke:none;font-family:Berlin Sans FB Demi;-inkscape-font-specification:Berlin Sans FB Demi Bold" />
    </g>
    <g
       id="g23896">
      <path
         d="m 12.270694,1040.3131 c -9e-6,-0.112 -0.02246,0.056 -0.06733,0.5036 -0.06174,0.5647 -0.109437,1.287 -0.143098,2.1671 -0.0449,0.997 -0.06734,2.1315 -0.06733,3.4032 -9e-6,2.1009 0.06452,3.5965 0.193602,4.4869 0.01122,0.097 0.01683,0.1576 0.01684,0.183 -1.1e-5,0.056 -0.0421,0.09 -0.126262,0.099 -0.202028,0.026 -0.945567,0.038 -2.2306216,0.038 -0.3030347,0 -0.476995,-0.053 -0.5218812,-0.1602 -0.01123,-0.1934 -0.022453,-0.3867 -0.033669,-0.5799 -0.00562,-0.041 -0.028065,-0.081 -0.06734,-0.1222 -0.033677,0.015 -0.075763,0.046 -0.1262616,0.091 -0.6060615,0.5393 -1.3636303,0.8088 -2.2727087,0.8088 -1.1840562,0 -2.1324201,-0.3763 -2.8450946,-1.1293 -0.6790074,-0.7172 -1.0185105,-1.6228 -1.0185102,-2.7164 -3e-7,-1.1091 0.3338912,-2.0222 1.0016754,-2.7395 0.7070628,-0.763 1.6610384,-1.1445 2.8619294,-1.1445 0.8473505,0 1.5067161,0.2441 1.9780983,0.7325 0.078557,0.082 0.1346728,0.1221 0.1683488,0.1221 0.050498,0 0.07575,-0.067 0.075757,-0.1984 -6.4e-6,-0.3917 -0.01123,-0.9767 -0.033669,-1.755 -0.022453,-0.7783 -0.033677,-1.3608 -0.03367,-1.7475 -6.3e-6,-0.1474 0.044886,-0.2314 0.134679,-0.2518 0.3591373,-0.015 0.85296,-0.046 1.48147,-0.091 1.122316,-0.1272 1.618944,-0.1908 1.489886,-0.1908 0.123446,0 0.185174,0.064 0.185184,0.1908 m -3.1733748,7.0125 c -6.5e-6,-0.4019 -0.154326,-0.7529 -0.4629592,-1.053 -0.3086451,-0.3053 -0.6818179,-0.4579 -1.1195194,-0.4579 -0.4601579,0 -0.827719,0.1526 -1.1026847,0.4579 -0.2693615,0.3001 -0.4040404,0.6613 -0.4040371,1.0835 -3.3e-6,0.4121 0.1374814,0.7605 0.4124546,1.0454 0.2805772,0.3053 0.6453326,0.4579 1.0942672,0.4579 0.4489247,0 0.8249033,-0.1526 1.1279369,-0.4579 0.3030214,-0.3052 0.4545352,-0.6638 0.4545417,-1.0759"
         id="path23849"
         style="font-size:16.41341972px;font-style:normal;font-variant:normal;font-weight:bold;font-stretch:normal;text-align:start;line-height:100%;letter-spacing:0px;word-spacing:0px;writing-mode:lr-tb;text-anchor:start;fill:#ff9900;fill-opacity:1;stroke:none;font-family:Berlin Sans FB Demi;-inkscape-font-specification:Berlin Sans FB Demi Bold" />
      <path
         d="m 21.226849,1046.9975 c -8e-6,0.5138 -0.182385,0.8063 -0.547133,0.8775 -0.06174,0.01 -0.642538,0.067 -1.74241,0.1678 -0.662177,0.067 -1.649823,0.145 -2.962938,0.2366 0.07856,0.3307 0.317053,0.5824 0.715482,0.7554 0.325469,0.1425 0.695837,0.2137 1.111102,0.2137 0.499429,0 1.00167,-0.1221 1.506721,-0.3663 0.213235,-0.122 0.426477,-0.2442 0.639726,-0.3663 0.117837,0.05 0.314244,0.3103 0.589221,0.7784 0.280573,0.468 0.420864,0.7656 0.420872,0.8928 -8e-6,0.035 -0.0421,0.094 -0.126262,0.1755 -0.684626,0.6663 -1.748028,0.9996 -3.190209,0.9996 -1.335571,0 -2.413003,-0.3536 -3.232297,-1.0607 -0.841745,-0.7173 -1.262616,-1.6762 -1.262616,-2.8767 0,-1.17 0.375978,-2.1289 1.127937,-2.8768 0.774401,-0.7732 1.801329,-1.1598 3.080783,-1.1598 1.077426,0 1.99212,0.3561 2.744085,1.0683 0.75195,0.7122 1.127928,1.5592 1.127936,2.541 m -2.946103,-0.4655 c -6e-6,-0.3154 -0.123461,-0.5927 -0.370367,-0.8317 -0.246917,-0.2391 -0.541527,-0.3587 -0.883832,-0.3587 -0.353536,0 -0.64534,0.1348 -0.875414,0.4044 -0.213244,0.2493 -0.319865,0.5418 -0.319862,0.8776 -3e-6,0.1373 0.07856,0.206 0.235689,0.206 0.415256,0 1.060593,-0.058 1.936011,-0.1755 0.185178,-0.026 0.277769,-0.066 0.277775,-0.1221"
         id="path23851"
         style="font-size:16.41341972px;font-style:normal;font-variant:normal;font-weight:bold;font-stretch:normal;text-align:start;line-height:100%;letter-spacing:0px;word-spacing:0px;writing-mode:lr-tb;text-anchor:start;fill:#ff9900;fill-opacity:1;stroke:none;font-family:Berlin Sans FB Demi;-inkscape-font-specification:Berlin Sans FB Demi Bold" />
      <path
         d="m 25.233552,1046.5473 c -4e-6,1.3887 0.0056,2.4545 0.01684,3.1972 -3e-6,0.117 0.0084,0.318 0.02525,0.6028 0.01684,0.2595 0.02525,0.4604 0.02525,0.6028 -3e-6,0.1068 -0.07015,0.1704 -0.210436,0.1908 -0.252526,0.041 -0.707067,0.061 -1.363625,0.061 -0.673397,0 -1.102686,-0.02 -1.287868,-0.061 -0.123456,-0.026 -0.193602,-0.094 -0.210436,-0.206 -1e-6,-0.015 -1e-6,-0.1247 0,-0.3281 -1e-6,-0.4528 0.0056,-1.1294 0.01684,-2.0298 0.01123,-0.9055 0.01684,-1.5821 0.01684,-2.0297 -1e-6,-2.1366 0.0028,-3.1108 0.0084,-2.9226 -0.01684,-1.1242 -0.08699,-2.0933 -0.210436,-2.9072 -0.01123,-0.056 -0.01684,-0.099 -0.01684,-0.1297 0,-0.1119 0.07295,-0.1679 0.218854,-0.1679 l 3.005025,0 c 0.140287,0 0.20482,0.053 0.193601,0.1603 l -0.0084,0.1373 c -0.145906,2.1976 -0.218858,4.1409 -0.218853,5.8298"
         id="path23853"
         style="font-size:16.41341972px;font-style:normal;font-variant:normal;font-weight:bold;font-stretch:normal;text-align:start;line-height:100%;letter-spacing:0px;word-spacing:0px;writing-mode:lr-tb;text-anchor:start;fill:#ff9900;fill-opacity:1;stroke:none;font-family:Berlin Sans FB Demi;-inkscape-font-specification:Berlin Sans FB Demi Bold" />
      <path
         d="m 30.115667,1041.9689 c -4e-6,0.8852 -0.549943,1.3277 -1.649819,1.3277 -0.471378,0 -0.861386,-0.1118 -1.170024,-0.3357 -0.336698,-0.2442 -0.505046,-0.5749 -0.505046,-0.992 0,-0.3967 0.17396,-0.7224 0.521881,-0.9767 0.319861,-0.234 0.704257,-0.351 1.153189,-0.351 0.437704,0 0.816488,0.1196 1.136354,0.3587 0.342306,0.2543 0.513461,0.5773 0.513465,0.969 m -0.218854,5.6696 c -3e-6,0.3713 0.0084,0.9258 0.02525,1.6634 0.01683,0.7326 0.02525,1.2819 0.02525,1.6482 -3e-6,0.1068 -0.07015,0.1704 -0.210436,0.1908 -0.190798,0.03 -0.620087,0.046 -1.287868,0.046 -0.673396,0 -1.105491,-0.015 -1.296286,-0.046 -0.123456,-0.02 -0.199213,-0.053 -0.227271,-0.099 -0.01123,-0.02 -0.01684,-0.097 -0.01684,-0.229 -1e-6,-0.3509 0.0084,-0.8774 0.02525,-1.5794 0.01684,-0.7072 0.02525,-1.2387 0.02525,-1.5948 -1e-6,-1.4448 -0.06173,-2.5944 -0.185183,-3.4491 -0.01123,-0.081 -0.01684,-0.1348 -0.01684,-0.1602 -1e-6,-0.1018 0.07576,-0.1526 0.227272,-0.1526 0.157123,0 0.395618,0.015 0.715482,0.046 0.325472,0.03 0.569577,0.046 0.732317,0.046 0.162735,0 0.40684,-0.012 0.732317,-0.038 0.325471,-0.026 0.569576,-0.038 0.732317,-0.038 0.134675,0 0.202015,0.05 0.202019,0.1526 -4e-6,0.02 -0.0056,0.069 -0.01684,0.145 -0.12346,0.9919 -0.185187,2.1416 -0.185184,3.4491"
         id="path23855"
         style="font-size:16.41341972px;font-style:normal;font-variant:normal;font-weight:bold;font-stretch:normal;text-align:start;line-height:100%;letter-spacing:0px;word-spacing:0px;writing-mode:lr-tb;text-anchor:start;fill:#ff9900;fill-opacity:1;stroke:none;font-family:Berlin Sans FB Demi;-inkscape-font-specification:Berlin Sans FB Demi Bold" />
      <path
         d="m 40.6543,1047.4095 c -9e-6,1.0683 -0.336706,1.9611 -1.010092,2.6784 -0.718297,0.763 -1.655437,1.1445 -2.811425,1.1445 -0.841749,0 -1.520755,-0.2187 -2.037021,-0.6562 -0.03928,-0.03 -0.07295,-0.046 -0.101006,-0.046 -0.05612,0 -0.109431,0.094 -0.159932,0.2823 -0.0449,0.1883 -0.101017,0.2926 -0.168348,0.3129 -0.0954,0.026 -0.895058,0.038 -2.398971,0.038 -0.353533,0 -0.530299,-0.058 -0.530298,-0.1755 -1e-6,-0.015 0.0056,-0.053 0.01684,-0.1144 0.112232,-0.809 0.168348,-2.3503 0.168349,-4.6243 -10e-7,-2.1721 -0.08417,-4.062 -0.252523,-5.6694 l -0.0084,-0.084 c 0,-0.081 0.08698,-0.1271 0.260941,-0.1373 0.123455,-0.01 0.611665,-0.043 1.464634,-0.1146 0.600442,-0.05 1.088653,-0.076 1.464635,-0.076 0.106617,0 0.159927,0.084 0.159932,0.2518 -5e-6,0.1984 -0.01403,0.4604 -0.04209,0.786 -0.03367,0.4019 -0.05331,0.6664 -0.05892,0.7935 -0.02806,0.5036 -0.0421,1.1904 -0.04209,2.0602 -4e-6,0.1578 0.04489,0.2366 0.134679,0.2366 0.04489,0 0.08698,-0.02 0.126262,-0.061 0.505041,-0.4884 1.167213,-0.7325 1.986515,-0.7325 1.228939,0 2.188526,0.3789 2.878765,1.1369 0.639715,0.702 0.959578,1.6253 0.959587,2.7699 m -3.047113,-0.084 c -6e-6,-0.4223 -0.143102,-0.7784 -0.429288,-1.0683 -0.2862,-0.2951 -0.659373,-0.4426 -1.11952,-0.4426 -0.471382,0 -0.844554,0.1475 -1.11952,0.4426 -0.269362,0.2899 -0.404041,0.6512 -0.404037,1.0835 -4e-6,0.4477 0.13187,0.8088 0.39562,1.0835 0.280576,0.29 0.662167,0.435 1.144772,0.435 0.476983,0 0.855767,-0.1501 1.136354,-0.4502 0.26374,-0.2797 0.395613,-0.641 0.395619,-1.0835"
         id="path23857"
         style="font-size:16.41341972px;font-style:normal;font-variant:normal;font-weight:bold;font-stretch:normal;text-align:start;line-height:100%;letter-spacing:0px;word-spacing:0px;writing-mode:lr-tb;text-anchor:start;fill:#ff9900;fill-opacity:1;stroke:none;font-family:Berlin Sans FB Demi;-inkscape-font-specification:Berlin Sans FB Demi Bold" />
      <path
         d="m 49.408438,1046.9975 c -9e-6,0.5138 -0.182387,0.8063 -0.547134,0.8775 -0.06174,0.01 -0.642539,0.067 -1.742411,0.1678 -0.662176,0.067 -1.649821,0.145 -2.962938,0.2366 0.07856,0.3307 0.317053,0.5824 0.715482,0.7554 0.325471,0.1425 0.695837,0.2137 1.111102,0.2137 0.49943,0 1.00167,-0.1221 1.506722,-0.3663 0.213236,-0.122 0.426477,-0.2442 0.639725,-0.3663 0.117837,0.05 0.314244,0.3103 0.589222,0.7784 0.280573,0.468 0.420863,0.7656 0.420871,0.8928 -8e-6,0.035 -0.0421,0.094 -0.126261,0.1755 -0.684627,0.6663 -1.748028,0.9996 -3.19021,0.9996 -1.335571,0 -2.413001,-0.3536 -3.232297,-1.0607 -0.841744,-0.7173 -1.262616,-1.6762 -1.262616,-2.8767 0,-1.17 0.375978,-2.1289 1.127937,-2.8768 0.774403,-0.7732 1.801329,-1.1598 3.080783,-1.1598 1.077427,0 1.992121,0.3561 2.744086,1.0683 0.751949,0.7122 1.127928,1.5592 1.127937,2.541 m -2.946104,-0.4655 c -6e-6,-0.3154 -0.123461,-0.5927 -0.370368,-0.8317 -0.246916,-0.2391 -0.541526,-0.3587 -0.883832,-0.3587 -0.353536,0 -0.64534,0.1348 -0.875412,0.4044 -0.213246,0.2493 -0.319866,0.5418 -0.319863,0.8776 -3e-6,0.1373 0.07856,0.206 0.235688,0.206 0.415257,0 1.060593,-0.058 1.936011,-0.1755 0.185178,-0.026 0.27777,-0.066 0.277776,-0.1221"
         id="path23859"
         style="font-size:16.41341972px;font-style:normal;font-variant:normal;font-weight:bold;font-stretch:normal;text-align:start;line-height:100%;letter-spacing:0px;word-spacing:0px;writing-mode:lr-tb;text-anchor:start;fill:#ff9900;fill-opacity:1;stroke:none;font-family:Berlin Sans FB Demi;-inkscape-font-specification:Berlin Sans FB Demi Bold" />
      <path
         d="m 55.931951,1046.387 c -6e-6,0.1984 -0.120655,0.2976 -0.36195,0.2976 -0.106627,0 -0.263752,-0.01 -0.471376,-0.015 -0.202024,-0.015 -0.353537,-0.023 -0.454542,-0.023 -0.46577,0 -0.782826,0.067 -0.951171,0.1984 -0.168352,0.1322 -0.252527,0.3993 -0.252523,0.8012 -4e-6,0.2187 0.0028,0.5519 0.0084,0.9996 0.01122,0.4426 0.01683,0.7732 0.01684,0.9919 -4e-6,0.1476 0.01122,0.3689 0.03367,0.6639 0.02245,0.2899 0.03366,0.5062 0.03367,0.6486 -5e-6,0.1221 -0.09259,0.1908 -0.277776,0.206 -0.269361,0.02 -0.681815,0.031 -1.237364,0.031 -0.533106,0 -0.959589,-0.015 -1.27945,-0.046 -0.185185,-0.02 -0.277777,-0.1043 -0.277776,-0.2518 -10e-7,-0.407 0.0028,-1.0149 0.0084,-1.8237 0.0056,-0.814 0.0084,-1.4245 0.0084,-1.8314 0,-1.1955 -0.12065,-2.1798 -0.361949,-2.9531 -0.01123,-0.046 -0.01684,-0.084 -0.01684,-0.1144 0,-0.076 0.04209,-0.1271 0.126261,-0.1526 0.308639,-0.03 0.760375,-0.087 1.355208,-0.1679 0.886634,-0.1577 1.343981,-0.2365 1.372043,-0.2365 0.101007,0 0.165539,0.1602 0.193601,0.4807 0.02805,0.3205 0.07856,0.4807 0.151514,0.4807 -0.07856,0 0.15151,-0.1322 0.69023,-0.3968 0.538711,-0.2695 1.057786,-0.4044 1.557226,-0.4044 0.314245,0 0.471371,0.061 0.471377,0.1831 -6e-6,0.1476 -0.01685,0.3561 -0.05051,0.6258 -0.03367,0.29 -0.05331,0.4985 -0.05892,0.6257 -6e-6,0.1475 0.0028,0.3433 0.0084,0.5875 0.01122,0.3001 0.01683,0.4986 0.01684,0.5952"
         id="path23861"
         style="font-size:16.41341972px;font-style:normal;font-variant:normal;font-weight:bold;font-stretch:normal;text-align:start;line-height:100%;letter-spacing:0px;word-spacing:0px;writing-mode:lr-tb;text-anchor:start;fill:#ff9900;fill-opacity:1;stroke:none;font-family:Berlin Sans FB Demi;-inkscape-font-specification:Berlin Sans FB Demi Bold" />
      <path
         d="m 65.376319,1047.3256 c -9e-6,0.3917 0.02525,0.9741 0.07576,1.7474 0.0505,0.7732 0.07575,1.3532 0.07576,1.7397 -9e-6,0.2036 -0.09821,0.3129 -0.29461,0.3282 -0.695851,0.046 -1.4927,0.069 -2.390554,0.069 -0.106626,0 -0.179578,-0.145 -0.218852,-0.435 -0.03367,-0.295 -0.07576,-0.4451 -0.126263,-0.4502 -0.0449,0.02 -0.103821,0.064 -0.176765,0.1298 -0.628508,0.5748 -1.301903,0.8622 -2.020186,0.8622 -1.09427,0 -2.000546,-0.3917 -2.718833,-1.1751 -0.679008,-0.7326 -1.01851,-1.6076 -1.01851,-2.625 0,-1.1751 0.350726,-2.1213 1.05218,-2.8385 0.729509,-0.7428 1.728378,-1.1141 2.996609,-1.1141 0.88102,0 1.576861,0.2798 2.087524,0.8394 0.02245,0.026 0.04209,0.038 0.05892,0.038 0.0505,10e-5 0.106614,-0.1221 0.168348,-0.3662 0.06733,-0.2493 0.145895,-0.3739 0.235688,-0.3739 0.207623,0 0.603243,0.053 1.18686,0.1602 0.555542,0.1017 0.953967,0.1882 1.195276,0.2594 0.08416,0.031 0.126252,0.071 0.126261,0.1222 -9e-6,0.02 -0.0084,0.074 -0.02525,0.1602 -0.179581,0.9207 -0.269366,1.8949 -0.269358,2.9225 m -2.710415,0.046 c -6e-6,-0.4324 -0.151521,-0.7885 -0.454542,-1.0683 -0.297422,-0.2848 -0.687429,-0.4273 -1.170024,-0.4274 -0.482604,10e-5 -0.872612,0.14 -1.170024,0.4197 -0.29742,0.2799 -0.446128,0.6385 -0.446125,1.076 -3e-6,0.412 0.157122,0.7656 0.471378,1.0607 0.314246,0.2949 0.695836,0.4425 1.144771,0.4425 0.476983,0 0.86699,-0.1399 1.170024,-0.4197 0.303021,-0.2849 0.454536,-0.646 0.454542,-1.0835"
         id="path23863"
         style="font-size:16.41341972px;font-style:normal;font-variant:normal;font-weight:bold;font-stretch:normal;text-align:start;line-height:100%;letter-spacing:0px;word-spacing:0px;writing-mode:lr-tb;text-anchor:start;fill:#ff9900;fill-opacity:1;stroke:none;font-family:Berlin Sans FB Demi;-inkscape-font-specification:Berlin Sans FB Demi Bold" />
      <path
         d="m 75.973876,1040.3131 c -1e-5,-0.112 -0.02246,0.056 -0.06735,0.5036 -0.06174,0.5647 -0.109436,1.287 -0.143096,2.1671 -0.0449,0.997 -0.06735,2.1315 -0.06735,3.4032 -10e-6,2.1009 0.06453,3.5965 0.193601,4.4869 0.01122,0.097 0.01683,0.1576 0.01684,0.183 -1e-5,0.056 -0.0421,0.09 -0.126261,0.099 -0.202029,0.026 -0.945569,0.038 -2.230622,0.038 -0.303035,0 -0.476995,-0.053 -0.521882,-0.1602 -0.01123,-0.1934 -0.02245,-0.3867 -0.03367,-0.5799 -0.0056,-0.041 -0.02806,-0.081 -0.06735,-0.1222 -0.03367,0.015 -0.07577,0.046 -0.126261,0.091 -0.606062,0.5393 -1.363631,0.8088 -2.272709,0.8088 -1.184057,0 -2.132421,-0.3763 -2.845095,-1.1293 -0.679007,-0.7172 -1.018511,-1.6228 -1.018511,-2.7164 0,-1.1091 0.333892,-2.0222 1.001676,-2.7395 0.707064,-0.763 1.661038,-1.1445 2.86193,-1.1445 0.847351,0 1.506716,0.2441 1.978098,0.7325 0.07855,0.082 0.134673,0.1221 0.168349,0.1221 0.0505,0 0.07575,-0.067 0.07576,-0.1984 -6e-6,-0.3917 -0.01123,-0.9767 -0.03367,-1.755 -0.02245,-0.7783 -0.03367,-1.3608 -0.03367,-1.7475 -6e-6,-0.1474 0.04489,-0.2314 0.13468,-0.2518 0.359137,-0.015 0.85296,-0.046 1.48147,-0.091 1.122316,-0.1272 1.618944,-0.1908 1.489886,-0.1908 0.123446,0 0.185174,0.064 0.185184,0.1908 m -3.173374,7.0125 c -8e-6,-0.4019 -0.154326,-0.7529 -0.462961,-1.053 -0.308644,-0.3053 -0.681817,-0.4579 -1.119518,-0.4579 -0.460158,0 -0.827719,0.1526 -1.102685,0.4579 -0.269362,0.3001 -0.404041,0.6613 -0.404037,1.0835 -4e-6,0.4121 0.137482,0.7605 0.412454,1.0454 0.280577,0.3053 0.645333,0.4579 1.094268,0.4579 0.448925,0 0.824903,-0.1526 1.127937,-0.4579 0.303021,-0.3052 0.454534,-0.6638 0.454542,-1.0759"
         id="path23865"
         style="font-size:16.41341972px;font-style:normal;font-variant:normal;font-weight:bold;font-stretch:normal;text-align:start;line-height:100%;letter-spacing:0px;word-spacing:0px;writing-mode:lr-tb;text-anchor:start;fill:#ff9900;fill-opacity:1;stroke:none;font-family:Berlin Sans FB Demi;-inkscape-font-specification:Berlin Sans FB Demi Bold" />
      <path
         d="m 85.767334,1047.746 c -7e-6,0.3508 0.02316,0.8727 0.0695,1.5654 0.04632,0.6927 0.06949,1.2122 0.0695,1.5585 -9e-6,0.1824 -0.09009,0.2803 -0.27025,0.294 -0.638311,0.041 -1.369272,0.061 -2.192883,0.061 -0.09781,0 -0.164729,-0.1298 -0.200757,-0.3896 -0.0309,-0.2643 -0.0695,-0.3988 -0.115821,-0.4033 -0.04118,0.018 -0.09524,0.057 -0.162149,0.1162 -0.576538,0.515 -1.194251,0.7725 -1.853141,0.7725 -1.003787,0 -1.835126,-0.351 -2.494018,-1.0528 -0.622862,-0.6562 -0.934292,-1.4401 -0.934292,-2.3515 0,-1.0528 0.321725,-1.9004 0.965178,-2.543 0.669187,-0.6654 1.585461,-0.9981 2.748824,-0.9981 0.808171,0 1.446474,0.2507 1.914912,0.752 0.02059,0.023 0.0386,0.034 0.05405,0.034 0.04633,0 0.0978,-0.1094 0.154429,-0.3281 0.06177,-0.2233 0.133831,-0.335 0.2162,-0.335 0.190455,0 0.553361,0.048 1.088719,0.1436 0.509606,0.091 0.875087,0.1686 1.096441,0.2324 0.0772,0.027 0.115813,0.064 0.115822,0.1093 -9e-6,0.018 -0.0078,0.066 -0.02316,0.1436 -0.164732,0.8249 -0.247093,1.6976 -0.247086,2.6182 m -2.486296,0.041 c -5e-6,-0.3873 -0.138991,-0.7064 -0.416957,-0.957 -0.272828,-0.2552 -0.630587,-0.3828 -1.073276,-0.3828 -0.442699,0 -0.800458,0.1253 -1.073277,0.376 -0.272827,0.2506 -0.409239,0.5719 -0.409236,0.9638 -3e-6,0.3692 0.14413,0.6859 0.432399,0.9502 0.288263,0.2643 0.6383,0.3965 1.050114,0.3965 0.437542,0 0.7953,-0.1253 1.073276,-0.376 0.277966,-0.2552 0.416952,-0.5787 0.416957,-0.9707"
         id="path23877"
         style="font-size:14.87912941px;font-style:normal;font-variant:normal;font-weight:bold;font-stretch:normal;text-align:start;line-height:100%;letter-spacing:0px;word-spacing:0px;writing-mode:lr-tb;text-anchor:start;fill:#ff9900;fill-opacity:1;stroke:none;font-family:Berlin Sans FB Demi;-inkscape-font-specification:Berlin Sans FB Demi Bold" />
      <path
         d="m 99.642724,1050.9109 c -1.3e-5,0.1596 -0.07722,0.2484 -0.231643,0.2667 -0.154441,0.018 -0.535364,0.027 -1.142769,0.027 -0.628021,0 -1.019239,-0.013 -1.173656,-0.041 -0.154439,-0.027 -0.231653,-0.139 -0.231643,-0.3349 -10e-6,-0.2097 0.0078,-0.5219 0.02317,-0.9366 0.01543,-0.4193 0.02316,-0.7338 0.02316,-0.9434 -9e-6,-0.7975 -0.01031,-1.3649 -0.03088,-1.7021 -0.0309,-0.5424 -0.321735,-0.8135 -0.87252,-0.8135 -0.241948,0 -0.483884,0.091 -0.725814,0.2734 -0.236798,0.1777 -0.368062,0.376 -0.393792,0.5948 -0.0206,0.1913 -0.0309,0.7519 -0.03088,1.6817 -8e-6,0.2141 0.0078,0.5399 0.02317,0.9775 0.01543,0.4329 0.02316,0.7587 0.02316,0.9775 -8e-6,0.1503 -0.07465,0.2256 -0.223921,0.2256 l -2.33959,0 c -0.144138,0 -0.216205,-0.093 -0.2162,-0.2803 -5e-6,-0.2142 0.0078,-0.5355 0.02317,-0.9639 0.01544,-0.4284 0.02316,-0.7519 0.02317,-0.9707 -7e-6,-0.1686 -0.0051,-0.4238 -0.01544,-0.7656 -0.01031,-0.3418 -0.01544,-0.5993 -0.01544,-0.7724 -5e-6,-0.6518 -0.28055,-0.9776 -0.841635,-0.9776 -0.226499,0 -0.47101,0.077 -0.733535,0.2325 -0.28827,0.1686 -0.432402,0.3463 -0.432399,0.5331 -3e-6,0.4148 0.0026,1.0345 0.0078,1.8594 0.0051,0.8248 0.0078,1.4424 0.0078,1.8525 -3e-6,0.114 -0.01544,0.1846 -0.04633,0.212 -0.03088,0.027 -0.110678,0.045 -0.239364,0.055 -0.231646,0.018 -0.597126,0.027 -1.096442,0.027 -0.324301,0 -0.692355,-0.013 -1.104162,-0.041 -0.123544,-0.01 -0.198184,-0.025 -0.223921,-0.048 -0.02059,-0.023 -0.03089,-0.091 -0.03089,-0.2051 0,-0.3645 0.0025,-0.9091 0.0078,-1.6337 0.0051,-0.7292 0.0078,-1.2761 0.0078,-1.6407 -2e-6,-0.7474 -0.06177,-1.5882 -0.185315,-2.5224 -0.01031,-0.055 -0.01544,-0.096 -0.01544,-0.1231 0,-0.077 0.03603,-0.1299 0.1081,-0.1572 0.113247,-0.041 0.326872,-0.075 0.640878,-0.1026 0.386069,-0.032 0.615137,-0.053 0.687206,-0.061 0.05147,-0.01 0.254805,-0.057 0.609992,-0.1436 0.252231,-0.064 0.45556,-0.096 0.609992,-0.096 0.0978,0 0.149278,0.1596 0.154428,0.4786 0.0051,0.3144 0.02573,0.4716 0.06177,0.4716 0.05147,-0.018 0.11067,-0.05 0.177592,-0.096 0.463282,-0.319 0.828761,-0.5377 1.096442,-0.6562 0.396361,-0.1687 0.826186,-0.253 1.289476,-0.253 0.473574,0 0.895678,0.093 1.266313,0.2803 0.41695,0.2097 0.687198,0.5036 0.810749,0.8819 0.272815,-0.3281 0.648591,-0.6039 1.127327,-0.8272 0.478718,-0.2233 0.944577,-0.335 1.397576,-0.335 0.679474,0 1.232842,0.139 1.660105,0.4171 0.483863,0.3144 0.725801,0.7633 0.725814,1.3466 -1.3e-5,0.2415 -0.0078,0.6061 -0.02317,1.0938 -0.01545,0.4831 -0.02318,0.8453 -0.02317,1.0869 -1.3e-5,0.2871 0.0078,0.72 0.02317,1.2988 0.01543,0.5742 0.02315,1.0049 0.02317,1.292"
         id="path23879"
         style="font-size:14.87912941px;font-style:normal;font-variant:normal;font-weight:bold;font-stretch:normal;text-align:start;line-height:100%;letter-spacing:0px;word-spacing:0px;writing-mode:lr-tb;text-anchor:start;fill:#ff9900;fill-opacity:1;stroke:none;font-family:Berlin Sans FB Demi;-inkscape-font-specification:Berlin Sans FB Demi Bold" />
      <path
         d="m 108.18262,1047.4519 c -2e-5,0.4603 -0.16731,0.7224 -0.5019,0.7862 -0.0566,0.01 -0.5894,0.059 -1.59833,0.1504 -0.60743,0.059 -1.51341,0.1299 -2.71794,0.2119 0.0721,0.2962 0.29083,0.5219 0.65632,0.6768 0.29856,0.1276 0.6383,0.1914 1.01923,0.1914 0.45813,0 0.91884,-0.1094 1.38213,-0.3281 0.1956,-0.1094 0.39121,-0.2188 0.58683,-0.3282 0.10809,0.046 0.28825,0.2781 0.5405,0.6973 0.25737,0.4193 0.38606,0.6859 0.38607,0.7998 -1e-5,0.032 -0.0386,0.085 -0.11583,0.1572 -0.62801,0.597 -1.60348,0.8955 -2.92641,0.8955 -1.22514,0 -2.21348,-0.3167 -2.96503,-0.9501 -0.77214,-0.6426 -1.15821,-1.5016 -1.15821,-2.5772 0,-1.0482 0.34489,-1.9072 1.03467,-2.5772 0.71037,-0.6927 1.65238,-1.039 2.82604,-1.039 0.98834,0 1.8274,0.319 2.51718,0.957 0.68978,0.638 1.03466,1.3969 1.03468,2.2763 m -2.7025,-0.4169 c -1e-5,-0.2825 -0.11326,-0.5309 -0.33975,-0.7451 -0.2265,-0.2142 -0.49675,-0.3213 -0.81075,-0.3213 -0.3243,0 -0.59197,0.1208 -0.80302,0.3623 -0.19562,0.2233 -0.29342,0.4854 -0.29342,0.7862 0,0.123 0.0721,0.1845 0.2162,0.1845 0.38092,0 0.9729,-0.053 1.77593,-0.1572 0.16986,-0.023 0.2548,-0.059 0.25481,-0.1094"
         id="path23881"
         style="font-size:14.87912941px;font-style:normal;font-variant:normal;font-weight:bold;font-stretch:normal;text-align:start;line-height:100%;letter-spacing:0px;word-spacing:0px;writing-mode:lr-tb;text-anchor:start;fill:#ff9900;fill-opacity:1;stroke:none;font-family:Berlin Sans FB Demi;-inkscape-font-specification:Berlin Sans FB Demi Bold" />
      <path
         d="m 120.93124,1050.8241 c -1e-5,0.1406 -0.1009,0.2214 -0.30252,0.2423 -0.20168,0.02 -0.72748,0.031 -1.57738,0.031 -0.90755,0 -1.46936,-0.015 -1.68543,-0.047 -0.21609,-0.031 -0.32413,-0.138 -0.32412,-0.3203 -1e-5,-0.2448 0.0108,-0.6145 0.0324,-1.1094 0.0216,-0.4948 0.0324,-0.8672 0.0324,-1.1172 -1e-5,-0.1927 -0.007,-0.4791 -0.0216,-0.8593 -0.0144,-0.3854 -0.0216,-0.6745 -0.0216,-0.8672 -1e-5,-0.7136 -0.42856,-1.0703 -1.28568,-1.0703 -0.28091,0 -0.60863,0.089 -0.98316,0.2656 -0.40336,0.1979 -0.60503,0.3933 -0.60503,0.586 l 0,4.2187 c 0,0.1718 -0.11164,0.2683 -0.33492,0.2891 -0.2521,0.02 -0.76709,0.031 -1.54498,0.031 -0.84271,0 -1.39012,-0.015 -1.64221,-0.047 -0.22328,-0.026 -0.33492,-0.112 -0.33492,-0.2578 0,-0.4063 0.004,-1.0183 0.0108,-1.836 0.007,-0.8177 0.0108,-1.4323 0.0108,-1.8437 -1e-5,-1.2969 -0.14046,-2.3151 -0.42136,-3.0548 -0.0144,-0.047 -0.0216,-0.086 -0.0216,-0.1171 0,-0.083 0.054,-0.1406 0.16206,-0.1719 0.45376,-0.037 1.05879,-0.094 1.81507,-0.1719 1.14522,-0.1614 1.78986,-0.2421 1.93392,-0.2421 0.0792,0 0.14045,0.177 0.18367,0.5312 0.0432,0.349 0.10444,0.5235 0.18367,0.5235 -0.0792,0 0.30611,-0.1797 1.15603,-0.5391 0.85711,-0.3646 1.60619,-0.5468 2.24723,-0.5469 0.91474,10e-5 1.67823,0.1563 2.29046,0.4688 0.68424,0.3593 1.02637,0.8593 1.02638,1.4999 l 0,2.4923 c -1e-5,0.3385 0.004,0.8463 0.0106,1.5234 0.007,0.6718 0.0106,1.177 0.0106,1.5156"
         id="path23887"
         style="font-size:18.81558228px;font-style:normal;font-variant:normal;font-weight:bold;font-stretch:normal;text-align:start;line-height:100%;letter-spacing:0px;word-spacing:0px;writing-mode:lr-tb;text-anchor:start;fill:#ff9900;fill-opacity:1;stroke:none;font-family:Berlin Sans FB Demi;-inkscape-font-specification:Berlin Sans FB Demi Bold" />
      <path
         d="m 129.9526,1048.7616 c -2e-5,0.1562 -0.0288,0.3932 -0.0864,0.7109 -0.0505,0.3178 -0.0756,0.5522 -0.0756,0.7032 -2e-5,0.1458 -0.0216,0.2395 -0.0648,0.2812 -0.0433,0.042 -0.16207,0.1016 -0.35653,0.1798 -0.92916,0.3697 -1.95914,0.5546 -3.08996,0.5547 -2.08158,-10e-5 -3.12236,-0.5756 -3.12236,-1.7266 0,-0.3438 0.018,-0.8594 0.054,-1.5469 0.036,-0.6927 0.054,-1.211 0.054,-1.5547 0,-0.2292 -0.18367,-0.3437 -0.55101,-0.3437 -0.0288,0 -0.0756,0 -0.14044,0 -0.0648,0.01 -0.1116,0.01 -0.14046,0.01 -0.2737,10e-5 -0.41056,-0.071 -0.41056,-0.2109 0,-0.083 0.007,-0.211 0.0216,-0.3828 0.0216,-0.1719 0.0325,-0.2995 0.0325,-0.3829 0,-0.1093 -0.0106,-0.276 -0.0325,-0.5 -0.0145,-0.2239 -0.0216,-0.3906 -0.0216,-0.4999 0,-0.1042 0.23049,-0.1615 0.69146,-0.172 0.2593,-0.01 0.39975,-0.057 0.42137,-0.1562 0.0431,-0.1978 0.0576,-0.5103 0.0431,-0.9375 -0.0288,-0.6719 -0.0431,-0.9922 -0.0431,-0.9609 0,-0.6042 0.0793,-0.9062 0.23768,-0.9062 0.19447,0 0.47177,0.031 0.83191,0.094 0.41055,0.068 0.69506,0.1068 0.85351,0.1172 0.36734,0.036 0.92194,0.086 1.66383,0.1484 0.18006,0.01 0.2701,0.054 0.2701,0.1329 0,0.2083 -0.0252,0.5234 -0.0756,0.9452 -0.0432,0.4219 -0.0648,0.7397 -0.0648,0.9532 -1e-5,0.2552 0.10443,0.3828 0.31332,0.3827 0.25208,10e-5 0.63383,-0.01 1.14522,-0.023 0.51139,-0.015 0.89673,-0.024 1.15603,-0.024 0.15845,0 0.23769,0.039 0.23769,0.1172 0,0.1198 -0.018,0.2994 -0.054,0.5391 -0.036,0.2395 -0.0541,0.4192 -0.054,0.539 -1e-5,0.125 0.004,0.3073 0.0106,0.5469 0.007,0.2395 0.0106,0.4219 0.0106,0.5469 0,0.1093 -0.10443,0.164 -0.31331,0.164 -0.14406,0 -0.38535,0 -0.72387,-0.01 -0.33853,-0.01 -0.57982,-0.015 -0.72387,-0.015 l -0.8103,0 c -0.10807,0 -0.16207,0.1145 -0.16206,0.3437 -1e-5,0.125 -1e-5,0.3099 0,0.5547 0.007,0.25 0.0106,0.4349 0.0106,0.5547 -2e-5,0.4375 0.0684,0.7395 0.20526,0.9062 0.19447,0.224 0.57622,0.336 1.14524,0.336 0.18005,0 0.43575,-0.029 0.76708,-0.086 0.33852,-0.062 0.57621,-0.094 0.71307,-0.094 0.15124,0 0.22687,0.057 0.22688,0.1719"
         id="path23889"
         style="font-size:18.81558228px;font-style:normal;font-variant:normal;font-weight:bold;font-stretch:normal;text-align:start;line-height:100%;letter-spacing:0px;word-spacing:0px;writing-mode:lr-tb;text-anchor:start;fill:#ff9900;fill-opacity:1;stroke:none;font-family:Berlin Sans FB Demi;-inkscape-font-specification:Berlin Sans FB Demi Bold" />
      <path
         d="m 141.0051,1046.8085 c -1e-5,0.5261 -0.23409,0.8256 -0.70225,0.8984 -0.0793,0.01 -0.82471,0.068 -2.23643,0.1719 -0.84993,0.068 -2.1176,0.1485 -3.80302,0.2422 0.1009,0.3386 0.40694,0.5963 0.91834,0.7735 0.41775,0.1458 0.89313,0.2187 1.42613,0.2187 0.64103,0 1.28568,-0.125 1.93392,-0.375 0.2737,-0.125 0.54739,-0.25 0.82111,-0.3751 0.15124,0.052 0.40334,0.3178 0.75628,0.797 0.36012,0.4791 0.54019,0.7838 0.5402,0.9141 -1e-5,0.036 -0.054,0.096 -0.16206,0.1796 -0.87874,0.6823 -2.24364,1.0234 -4.09472,1.0234 -1.71425,0 -3.09716,-0.362 -4.14875,-1.0859 -1.08041,-0.7343 -1.6206,-1.7162 -1.6206,-2.9453 0,-1.1979 0.48258,-2.1797 1.44774,-2.9453 0.99397,-0.7917 2.31206,-1.1875 3.95427,-1.1875 1.38291,0 2.55694,0.3646 3.52211,1.0937 0.96515,0.7292 1.44772,1.5964 1.44773,2.6016 m -3.7814,-0.4765 c -1e-5,-0.323 -0.15846,-0.6068 -0.47538,-0.8517 -0.31692,-0.2447 -0.69505,-0.3671 -1.13442,-0.3671 -0.45377,0 -0.82831,0.138 -1.12362,0.4141 -0.2737,0.2552 -0.41056,0.5547 -0.41055,0.8984 -1e-5,0.1406 0.10079,0.211 0.30251,0.211 0.533,0 1.36131,-0.06 2.48493,-0.1798 0.23767,-0.026 0.35652,-0.068 0.35653,-0.1249"
         id="path23891"
         style="font-size:18.81558228px;font-style:normal;font-variant:normal;font-weight:bold;font-stretch:normal;text-align:start;line-height:100%;letter-spacing:0px;word-spacing:0px;writing-mode:lr-tb;text-anchor:start;fill:#ff9900;fill-opacity:1;stroke:none;font-family:Berlin Sans FB Demi;-inkscape-font-specification:Berlin Sans FB Demi Bold" />
    </g>
  </g>
</svg>
