<?xml version="1.0" encoding="UTF-8" standalone="no"?>
<!-- Created with Inkscape (http://www.inkscape.org/) -->

<svg
   xmlns:dc="http://purl.org/dc/elements/1.1/"
   xmlns:cc="http://creativecommons.org/ns#"
   xmlns:rdf="http://www.w3.org/1999/02/22-rdf-syntax-ns#"
   xmlns:svg="http://www.w3.org/2000/svg"
   xmlns="http://www.w3.org/2000/svg"
   version="1.1"
   width="143"
   height="59"
   id="svg21664">
  <defs
     id="defs21666" />
  <metadata
     id="metadata21669">
    <rdf:RDF>
      <cc:Work
         rdf:about="">
        <dc:format>image/svg+xml</dc:format>
        <dc:type
           rdf:resource="http://purl.org/dc/dcmitype/StillImage" />
        <dc:title></dc:title>
      </cc:Work>
    </rdf:RDF>
  </metadata>
  <g
     transform="translate(0,-993.36218)"
     id="layer1">
    <g
       id="g24263">
      <g
         id="g24247">
        <path
           d="m 74.6656,1009.6473 c -3.2e-5,1.349 -0.06629,3.3724 -0.19879,6.0703 -0.132558,2.698 -0.198821,4.7213 -0.198789,6.0704 -3.2e-5,1.3124 0.0473,3.2812 0.141992,5.9061 0.09463,2.6251 0.141961,4.5848 0.141992,5.879 -3.1e-5,0.4921 -0.236685,0.8021 -0.709961,0.9297 -0.719458,0.1823 -2.243507,0.2735 -4.572152,0.2735 -2.063645,0 -3.502499,-0.055 -4.316565,-0.1641 -0.359735,-0.055 -0.586923,-0.2735 -0.681563,-0.6563 -0.05682,-0.5468 -0.113615,-1.0938 -0.170391,-1.6406 -0.09468,-0.8385 -0.227208,-1.2578 -0.397578,-1.2578 0.265031,0 -0.691049,0.6198 -2.868245,1.8594 -2.17723,1.2395 -4.155654,1.8594 -5.935277,1.8594 -5.017068,0 -7.989436,-2.1784 -8.917115,-6.5352 -0.416514,-2.0234 -0.624769,-4.9584 -0.624767,-8.8047 -2e-6,-4.1563 0.350245,-7.4375 1.050743,-9.8438 0.208252,-0.7474 0.596364,-1.121 1.164337,-1.121 0.87088,0 2.196141,0.01 3.975784,0.027 1.779626,0.019 3.104887,0.028 3.975784,0.028 0.586889,0 0.880339,0.237 0.880352,0.7109 -1.3e-5,0.1277 -0.01895,0.319 -0.0568,0.5743 -0.397591,2.4792 -0.59638,4.9947 -0.596367,7.5468 -1.3e-5,3.1719 0.104115,5.3412 0.312383,6.5079 0.340768,2.0052 1.580832,3.0078 3.720198,3.0078 0.833004,0 1.732287,-0.3555 2.697853,-1.0664 0.98446,-0.7109 1.495632,-1.4492 1.533517,-2.2149 0.03784,-0.6744 0.05677,-5.25 0.05679,-13.7266 -2.2e-5,-0.6015 0.04731,-0.957 0.141992,-1.0663 0.113572,-0.1823 0.454353,-0.2735 1.022345,-0.2735 0.927659,0 2.319182,0.01 4.174573,0.027 1.874269,0.019 3.275258,0.028 4.202971,0.028 0.567938,10e-5 0.899253,0.1368 0.993946,0.4101 0.03783,0.1459 0.05676,0.3647 0.05679,0.6563"
           id="path22213"
           style="font-size:57.06980133px;font-style:normal;font-variant:normal;font-weight:bold;font-stretch:normal;text-align:start;line-height:100%;letter-spacing:0px;word-spacing:0px;writing-mode:lr-tb;text-anchor:start;fill:#3d8e8e;fill-opacity:1;stroke:none;font-family:Berlin Sans FB Demi;-inkscape-font-specification:Berlin Sans FB Demi Bold" />
        <path
           d="m 20.197357,1016.8661 c -2e-5,0.4374 -0.24614,0.6563 -0.738359,0.6562 -2.044707,10e-5 -3.653952,-0.055 -4.827739,-0.1641 0.05678,1.3673 0.11358,3.2722 0.170391,5.7149 0.01891,1.0391 0.104113,2.8438 0.255586,5.4141 0.132511,2.3151 0.198774,4.1198 0.19879,5.414 -1.6e-5,0.3829 -0.265067,0.6016 -0.795157,0.6562 -0.643713,0.073 -2.252957,0.1094 -4.827738,0.1094 -2.1393576,0 -3.5308807,-0.055 -4.1745732,-0.164 -0.6437029,-0.1094 -0.9655518,-0.4831 -0.9655476,-1.1211 l 0,-15.0664 c -4.2e-6,-0.5287 -0.3786499,-0.7929 -1.1359382,-0.793 -0.1325291,10e-5 -0.3502503,0.01 -0.6531645,0.027 -0.2839867,0.019 -0.4922418,0.027 -0.6247662,0.027 -0.5301057,0 -0.8046238,-0.1458 -0.8235552,-0.4375 -0.1703915,-1.5859 -0.25558677,-3.8919 -0.2555861,-6.918 -6.7e-7,-0.6744 0.3597128,-1.0845 1.0791413,-1.2305 0.643696,-0.055 1.2968599,-0.1001 1.9594936,-0.1367 -0.094666,-1.4583 -0.1419959,-2.5976 -0.1419923,-3.418 -3.6e-6,-3.1354 0.634228,-5.4139 1.9026967,-6.83586 2.5179885,-2.82553 6.5884297,-4.23824 12.2113367,-4.23834 0.378628,10e-5 0.605815,0.10951 0.681562,0.32814 0.151441,0.82042 0.369162,2.03266 0.653165,3.63672 0.01891,0.14591 0.141973,0.65636 0.369181,1.53125 0.17037,0.67449 0.255565,1.19409 0.255586,1.55859 -2.1e-5,0.4376 -0.672116,0.7201 -2.016291,0.8477 -1.552465,0.1641 -2.508546,0.4375 -2.868244,0.8203 -0.62478,0.6563 -0.937163,1.9415 -0.93715,3.8555 -1.3e-5,0.6015 0.04732,1.1666 0.141993,1.6953 0.53009,0 1.353645,-0.019 2.470666,-0.055 1.116988,-0.036 1.959475,-0.055 2.527462,-0.055 0.56795,0 0.851934,0.2006 0.851954,0.6015 -2e-5,0.8569 0.0095,2.1511 0.0284,3.8829 0.01891,1.7135 0.02838,2.9987 0.0284,3.8555"
           id="path22209"
           style="font-size:57.06980133px;font-style:normal;font-variant:normal;font-weight:bold;font-stretch:normal;text-align:start;line-height:100%;letter-spacing:0px;word-spacing:0px;writing-mode:lr-tb;text-anchor:start;fill:#3d8e8e;fill-opacity:1;stroke:none;font-family:Berlin Sans FB Demi;-inkscape-font-specification:Berlin Sans FB Demi Bold" />
        <path
           d="m 42.120965,1017.4676 c -2.1e-5,0.7109 -0.407065,1.0664 -1.221133,1.0664 -0.359734,0 -0.889838,-0.019 -1.590314,-0.055 -0.68158,-0.055 -1.192752,-0.082 -1.533516,-0.082 -1.571397,0 -2.641071,0.2369 -3.209026,0.7109 -0.567982,0.4739 -0.851967,1.4309 -0.851954,2.871 -1.3e-5,0.784 0.0095,1.9779 0.0284,3.5821 0.03785,1.5859 0.05679,2.7709 0.0568,3.5547 -1.3e-5,0.5286 0.03785,1.3215 0.113593,2.3789 0.07572,1.039 0.113581,1.8138 0.113595,2.3242 -1.4e-5,0.4375 -0.312396,0.6836 -0.93715,0.7382 -0.908762,0.073 -2.300285,0.1095 -4.174573,0.1095 -1.798575,0 -3.237429,-0.055 -4.316565,-0.1641 -0.62477,-0.073 -0.937153,-0.3737 -0.93715,-0.9024 -3e-6,-1.4583 0.0095,-3.6367 0.0284,-6.5351 0.01892,-2.9167 0.02839,-5.1041 0.0284,-6.5625 -3e-6,-4.2838 -0.407047,-7.8111 -1.221134,-10.582 -0.03787,-0.1641 -0.05679,-0.3008 -0.05679,-0.4102 -10e-7,-0.2734 0.14199,-0.4557 0.425977,-0.5468 1.041273,-0.1094 2.565322,-0.3099 4.572151,-0.6016 2.991294,-0.5651 4.534276,-0.8476 4.628949,-0.8477 0.34077,10e-5 0.558491,0.5743 0.653164,1.7227 0.09465,1.1484 0.26504,1.7226 0.511172,1.7226 -0.265064,0 0.51116,-0.4739 2.328674,-1.4219 1.817485,-0.966 3.568721,-1.4491 5.253715,-1.4492 1.060187,10e-5 1.590292,0.2188 1.590313,0.6563 -2.1e-5,0.5287 -0.05682,1.2761 -0.170391,2.2421 -0.113615,1.0392 -0.179878,1.7866 -0.198789,2.2423 -2.1e-5,0.5286 0.0095,1.2305 0.0284,2.1055 0.03784,1.0754 0.05677,1.7864 0.0568,2.1327"
           id="path22211"
           style="font-size:57.06980133px;font-style:normal;font-variant:normal;font-weight:bold;font-stretch:normal;text-align:start;line-height:100%;letter-spacing:0px;word-spacing:0px;writing-mode:lr-tb;text-anchor:start;fill:#3d8e8e;fill-opacity:1;stroke:none;font-family:Berlin Sans FB Demi;-inkscape-font-specification:Berlin Sans FB Demi Bold" />
        <path
           d="m 131.97369,1020.9949 c -3e-5,-1.5494 -0.51119,-2.8254 -1.53351,-3.828 -1.00344,-1.0208 -2.31923,-1.5313 -3.94739,-1.5313 -1.6282,0 -2.94399,0.5013 -3.94739,1.5039 -1.00343,1.0026 -1.50513,2.2878 -1.50512,3.8554 -10e-6,1.4766 0.5301,2.7436 1.59031,3.8008 1.06021,1.0573 2.3476,1.586 3.8622,1.586 1.60923,0 2.92502,-0.5013 3.94739,-1.504 1.02232,-1.0207 1.53348,-2.315 1.53351,-3.8828 m 9.1443,-0.164 c -3e-5,1.4036 0.0852,3.4909 0.25559,6.2617 0.17036,2.7709 0.25555,4.849 0.25558,6.2344 -3e-5,0.7292 -0.33134,1.1211 -0.99394,1.1758 -2.34764,0.164 -5.03602,0.2461 -8.06517,0.2461 -0.35973,0 -0.60585,-0.5196 -0.73835,-1.5586 -0.11362,-1.0574 -0.25561,-1.5951 -0.42599,-1.6133 -0.15147,0.073 -0.35026,0.2278 -0.59635,0.4649 -2.12044,2.0598 -4.39232,3.0898 -6.81564,3.0898 -3.69181,0 -6.74938,-1.4036 -9.1727,-4.211 -2.29082,-2.6249 -3.43622,-5.7603 -3.43622,-9.4062 0,-4.211 1.18327,-7.6016 3.54982,-10.1719 2.46118,-2.6614 5.83113,-3.9921 10.10984,-3.9921 2.97236,0 5.31997,1.0025 7.04282,3.0077 0.0757,0.091 0.14197,0.1368 0.19879,0.1368 0.17037,0 0.35969,-0.4375 0.56797,-1.3125 0.22716,-0.8933 0.49222,-1.3398 0.79516,-1.3399 0.70047,1e-4 2.03519,0.1914 4.00418,0.5742 1.87426,0.3646 3.21846,0.6745 4.03258,0.9298 0.28396,0.1094 0.42595,0.2552 0.42598,0.4374 -3e-5,0.073 -0.0284,0.2643 -0.0852,0.5742 -0.60587,3.2996 -0.90878,6.7904 -0.90875,10.4727"
           id="path22217"
           style="font-size:57.06980133px;font-style:normal;font-variant:normal;font-weight:bold;font-stretch:normal;text-align:start;line-height:100%;letter-spacing:0px;word-spacing:0px;writing-mode:lr-tb;text-anchor:start;fill:#3d8e8e;fill-opacity:1;stroke:none;font-family:Berlin Sans FB Demi;-inkscape-font-specification:Berlin Sans FB Demi Bold" />
        <g
           id="g24009">
          <path
             d="m 107.69301,1027.3934 c -3e-5,5.1953 -1.13598,8.9232 -3.40782,11.1836 -2.34763,2.3151 -6.24768,3.4726 -11.700164,3.4727 -1.590327,-10e-5 -3.758074,-0.2462 -6.503247,-0.7383 -3.502481,-0.6199 -5.253717,-1.349 -5.253714,-2.1875 -3e-6,-0.3464 0.40704,-2.1329 1.221134,-5.3594 0.132521,-0.5104 0.340776,-0.7656 0.624766,-0.7656 0.09466,0.019 0.198784,0.055 0.312383,0.1093 2.915566,1.3855 5.613416,2.0782 8.09356,2.0782 1.363111,0 2.716769,-0.3281 4.06098,-0.9844 1.628159,-0.7839 2.442246,-1.7682 2.442267,-2.9532 l 0,-1.832 c -1.931114,1.75 -4.411244,2.6251 -7.440395,2.6251 -3.559284,0 -6.484322,-1.2305 -8.775125,-3.6915 -2.215081,-2.3697 -3.32262,-5.2864 -3.322619,-8.7499 -10e-7,-3.4818 1.060207,-6.3711 3.180628,-8.668 2.215072,-2.388 5.111712,-3.582 8.689928,-3.582 2.858762,0 5.045441,0.9844 6.560043,2.9531 0.302897,0.401 0.511153,0.6016 0.624767,0.6015 0.170369,1e-4 0.255565,-0.3281 0.255586,-0.9843 -2.1e-5,-1.4584 0.170369,-2.1875 0.511172,-2.1875 0.302895,0 1.940538,0.1549 4.91293,0.4648 2.97234,0.2917 4.51533,0.4558 4.62896,0.4922 0.32181,0.1094 0.48273,0.3464 0.48276,0.7109 -3e-5,1.2579 -0.0474,3.1354 -0.14199,5.6328 -0.0757,2.4975 -0.11363,4.375 -0.1136,5.6328 -3e-5,0.7474 0.009,1.8685 0.0284,3.3633 0.0189,1.4948 0.0283,2.6159 0.0284,3.3633"
             id="path22226"
             style="font-size:57.06980133px;font-style:normal;font-variant:normal;font-weight:bold;font-stretch:normal;text-align:start;line-height:100%;letter-spacing:0px;word-spacing:0px;writing-mode:lr-tb;text-anchor:start;fill:#b2e5e5;fill-opacity:1;stroke:none;font-family:Berlin Sans FB Demi;-inkscape-font-specification:Berlin Sans FB Demi Bold" />
          <g
             id="g24000">
            <g
               id="g23994">
              <path
                 d="m 99.575705,1020.7023 c -0.281594,1.6179 -0.424381,2.0075 -1.585458,2.8299 -0.155336,0.077 -0.436705,0.3037 -0.604658,0.4677 -0.226314,0.2205 -0.246577,0.948 0.01667,1.5214 0.170202,0.4637 -0.113865,0.8735 -0.434254,0.9556 -0.53033,0.1011 -1.31666,0.1011 -1.677125,0.027 -0.399305,-0.058 -0.510832,-0.4686 -0.315103,-1.0233 0.109614,-0.4641 -0.03646,-1.0875 -0.462749,-1.1352 -0.39303,-0.044 -1.198297,-0.018 -1.451171,-0.031 -0.559004,-0.029 -0.719131,0.7173 -0.538066,1.2308 0.149286,0.4225 -9.9e-4,0.8873 -0.259352,0.9191 -0.460207,0.1139 -1.288773,0.094 -1.688347,0.017 -0.258295,-0.05 -0.54713,-0.4434 -0.37686,-0.9984 0.14218,-0.4964 0.377534,-1.0881 -0.197932,-1.6443 -0.903997,-0.8738 -1.171714,-1.1927 -1.485041,-2.5773 -0.07912,-0.3492 -0.02436,-1.004 -0.08805,-1.011 -0.06371,-0.01 -0.20803,1.5414 -1.121067,1.4722 -1.030524,-0.078 -0.969397,-2.4899 -0.450042,-2.4456 0.417342,0.036 0.316948,1.4806 0.506918,1.4607 0.117082,0.021 0.224942,-1.8031 1.072827,-1.4225 0.07865,-0.2647 0.13613,-0.5388 0.245048,-0.7911 0.101159,-0.2341 0.05791,-0.1734 0.157383,-0.3708 0.905998,0.044 2.305847,-0.5585 2.330811,-2.4628 1.092258,-0.3783 1.612197,-0.437 2.751684,-0.1978 0.352301,0.1309 0.639719,0.1775 0.797957,-0.1908 0.204611,-0.4762 0.864167,-1.8403 1.842897,-1.8379 0.259756,-0.061 0.31164,1.0671 0.30514,1.3221 -0.01352,0.5271 -0.002,1.0554 -0.02451,1.5822 -0.01383,0.3233 -0.130283,0.5574 0.09428,0.801 0.574905,0.7817 0.854137,1.5567 0.951608,2.5275 0.06045,0.6002 0.145396,0.6003 0.79247,0.6009 0.543913,2e-4 0.982935,-0.1045 0.894101,0.4053 z"
                 id="out"
                 style="fill:#ffffff;fill-opacity:1" />
              <path
                 d="m 95.660988,1018.9869 c -0.604478,0.018 -1.018514,0.4636 -0.972208,1.0186 0.0504,0.5924 0.41642,0.8513 0.996092,0.8384 0.531837,-0.013 0.960963,-0.4468 0.902355,-0.9459 -0.06551,-0.5507 -0.403286,-0.8626 -0.926239,-0.9111 z"
                 id="path22685"
                 style="fill:#b2e5e5;fill-opacity:1" />
              <path
                 d="m 90.121682,1020.2582 c 0.302577,0.07 0.497427,-0.6203 0.677683,-0.9766 0.229485,-0.4536 0.4372,-0.6901 0.636413,-0.9413 0.215272,-0.2716 0.595348,-0.59 0.930557,-0.7824 0.397056,-0.2279 0.923608,-0.425 0.808595,-0.6595 -0.515869,-1.051 -1.915651,0.2291 -2.407141,0.7886 -0.452898,0.5158 -1.844179,2.295 -0.646107,2.5712 z"
                 id="path22683"
                 style="fill:#b2e5e5;fill-opacity:1" />
            </g>
            <g
               id="g23990">
              <path
                 d="m 88.994884,1014.0789 c -0.817452,-0.01 -1.571116,0.4862 -1.846422,1.2575 -0.442243,1.2391 0.498427,2.4504 1.856133,2.4901 0.475738,0.014 1.587688,-0.4421 1.773591,-1.4101 0.185167,-0.9599 -0.286567,-2.0342 -1.325512,-2.2813 -0.153091,-0.036 -0.30641,-0.055 -0.45779,-0.056 z"
                 id="path22551"
                 style="fill:#ffffff;fill-opacity:1;stroke:none" />
              <path
                 d="m 89.003207,1014.9168 c 0.231923,0 0.454966,0.097 0.564609,0.2753 0.06397,0.1054 0.178492,0.2564 0.02774,0.3607 -0.114137,0.079 -0.278138,0.173 -0.420334,0.024 -0.09768,-0.1026 -0.164312,-0.2419 -0.328084,-0.084 -0.414904,0.4387 0.273198,0.2689 0.259415,0.3565 0.0072,0.082 0.0038,-0.013 0.02428,0.195 -0.01666,0.078 -0.645984,0.044 -0.219878,0.3468 0.112137,0.073 0.177191,0.055 0.249703,-0.012 0.041,-0.039 0.04455,-0.1114 0.08115,-0.1575 0.112414,-0.1415 0.260064,-0.063 0.383573,-0.03 0.169718,0.046 0.117674,0.187 0.08948,0.301 -0.105283,0.4283 -0.847294,0.6102 -1.197885,0.2962 -0.413253,-0.37 -0.479762,-1.206 -0.129013,-1.6238 0.142829,-0.1701 0.383319,-0.2531 0.615242,-0.2483 z"
                 id="path3472"
                 style="fill:#b2e5e5;fill-opacity:1;stroke:none" />
            </g>
          </g>
        </g>
      </g>
      <g
         id="g22899">
        <path
           d="m 85.017967,998.69135 c -6e-6,0.72363 -0.02328,1.15104 -0.06982,1.28222 -0.09734,0.30043 -0.389329,0.81043 -0.875977,1.52983 -0.423182,0.6178 -0.784998,1.1002 -1.085449,1.4472 -0.11003,0.1312 -0.442224,0.1968 -0.996582,0.1968 -0.482425,0 -0.795576,-0.017 -0.939453,-0.051 -0.08887,-0.021 -0.162926,-0.063 -0.222168,-0.1269 -0.253908,-0.2751 -0.615724,-0.7533 -1.085449,-1.4346 -0.503582,-0.7321 -0.804037,-1.2336 -0.901367,-1.5044 -0.105795,-0.29199 -0.158692,-0.72998 -0.158692,-1.31396 0,-0.16504 0.0021,-0.4126 0.0063,-0.74268 0.0042,-0.3343 0.0063,-0.58609 0.0063,-0.75537 -10e-7,-0.11002 0.07406,-0.16503 0.222168,-0.16504 0.215819,10e-6 0.539549,0.006 0.971191,0.019 0.43587,0.0127 0.761716,0.019 0.977539,0.019 0.09733,0 0.145993,0.0656 0.145996,0.19677 -3e-6,0.1185 -0.0085,0.29835 -0.02539,0.53955 -0.01693,0.23699 -0.02539,0.41684 -0.02539,0.53955 -3e-6,0.44011 0.01269,0.79981 0.03809,1.07911 0.01269,0.14388 0.135414,0.41471 0.368164,0.81247 0.241208,0.419 0.416826,0.6284 0.526855,0.6284 0.105791,0 0.275062,-0.2052 0.507813,-0.6157 0.224279,-0.38507 0.344885,-0.64744 0.361816,-0.78709 0.03385,-0.30045 0.05078,-0.66438 0.05078,-1.09179 -5e-6,-0.12272 -0.0127,-0.3068 -0.03809,-0.55225 -0.02539,-0.24967 -0.03809,-0.43375 -0.03809,-0.55225 -5e-6,-0.13118 0.04443,-0.19677 0.1333,-0.19677 0.101558,0 0.251786,0.002 0.450684,0.006 0.20312,0.004 0.355463,0.006 0.457031,0.006 0.101557,1e-5 0.253901,-0.008 0.457032,-0.0254 0.20735,-0.0169 0.36181,-0.0254 0.463378,-0.0254 0.105788,10e-6 0.175612,0.055 0.209473,0.16504 0.07193,0.24122 0.107904,0.7321 0.10791,1.47266"
           id="path22821"
           style="font-size:13px;font-style:normal;font-variant:normal;font-weight:bold;font-stretch:normal;text-align:start;line-height:100%;letter-spacing:0px;word-spacing:0px;writing-mode:lr-tb;text-anchor:start;fill:#b2e5e5;fill-opacity:1;stroke:none;font-family:Berlin Sans FB Demi;-inkscape-font-specification:Berlin Sans FB Demi Bold" />
        <path
           d="m 88.407616,995.46674 c -3e-6,0.73633 -0.414717,1.10449 -1.244141,1.10449 -0.35547,0 -0.649578,-0.0931 -0.882324,-0.2793 -0.253907,-0.20312 -0.38086,-0.47818 -0.38086,-0.82519 0,-0.33007 0.131185,-0.60091 0.393555,-0.8125 0.24121,-0.19466 0.531086,-0.29199 0.869629,-0.292 0.330076,10e-6 0.61572,0.0995 0.856934,0.29834 0.258135,0.2116 0.387204,0.48032 0.387207,0.80616 m -0.165039,4.71626 c -3e-6,0.309 0.0063,0.7702 0.01904,1.3838 0.01269,0.6094 0.01904,1.0664 0.01904,1.3711 -3e-6,0.089 -0.0529,0.1418 -0.158692,0.1587 -0.143883,0.025 -0.467613,0.038 -0.971191,0.038 -0.507814,0 -0.83366,-0.013 -0.977539,-0.038 -0.0931,-0.017 -0.150229,-0.044 -0.171387,-0.082 -0.0085,-0.017 -0.0127,-0.08 -0.01269,-0.1904 -10e-7,-0.292 0.0063,-0.73 0.01904,-1.314 0.01269,-0.5882 0.01904,-1.0304 0.01904,-1.3267 -10e-7,-1.20177 -0.04655,-2.15815 -0.139649,-2.8691 -0.0085,-0.0677 -0.0127,-0.11213 -0.0127,-0.1333 -10e-7,-0.0846 0.05713,-0.12694 0.171387,-0.12695 0.118488,10e-6 0.298338,0.0127 0.53955,0.0381 0.245442,0.0254 0.429523,0.0381 0.552246,0.0381 0.12272,10e-6 0.306802,-0.0106 0.552247,-0.0317 0.24544,-0.0212 0.429521,-0.0317 0.552246,-0.0317 0.101559,0 0.15234,0.0423 0.152343,0.12695 -3e-6,0.0169 -0.0042,0.0571 -0.01269,0.1206 -0.0931,0.8252 -0.139651,1.78158 -0.139648,2.8691"
           id="path22823"
           style="font-size:13px;font-style:normal;font-variant:normal;font-weight:bold;font-stretch:normal;text-align:start;line-height:100%;letter-spacing:0px;word-spacing:0px;writing-mode:lr-tb;text-anchor:start;fill:#b2e5e5;fill-opacity:1;stroke:none;font-family:Berlin Sans FB Demi;-inkscape-font-specification:Berlin Sans FB Demi Bold" />
        <path
           d="m 95.580467,998.69135 c -6e-6,0.72363 -0.02328,1.15104 -0.06982,1.28222 -0.09734,0.30043 -0.389329,0.81043 -0.875977,1.52983 -0.423182,0.6178 -0.784998,1.1002 -1.085449,1.4472 -0.11003,0.1312 -0.442224,0.1968 -0.996582,0.1968 -0.482425,0 -0.795576,-0.017 -0.939453,-0.051 -0.08887,-0.021 -0.162926,-0.063 -0.222168,-0.1269 -0.253908,-0.2751 -0.615724,-0.7533 -1.085449,-1.4346 -0.503582,-0.7321 -0.804037,-1.2336 -0.901367,-1.5044 -0.105795,-0.29199 -0.158692,-0.72998 -0.158692,-1.31396 0,-0.16504 0.0021,-0.4126 0.0063,-0.74268 0.0042,-0.3343 0.0063,-0.58609 0.0063,-0.75537 -10e-7,-0.11002 0.07406,-0.16503 0.222168,-0.16504 0.215819,10e-6 0.539549,0.006 0.971191,0.019 0.43587,0.0127 0.761716,0.019 0.977539,0.019 0.09733,0 0.145993,0.0656 0.145996,0.19677 -3e-6,0.1185 -0.0085,0.29835 -0.02539,0.53955 -0.01693,0.23699 -0.02539,0.41684 -0.02539,0.53955 -3e-6,0.44011 0.01269,0.79981 0.03809,1.07911 0.01269,0.14388 0.135414,0.41471 0.368164,0.81247 0.241208,0.419 0.416826,0.6284 0.526855,0.6284 0.105791,0 0.275062,-0.2052 0.507813,-0.6157 0.224279,-0.38507 0.344885,-0.64744 0.361816,-0.78709 0.03385,-0.30045 0.05078,-0.66438 0.05078,-1.09179 -5e-6,-0.12272 -0.0127,-0.3068 -0.03809,-0.55225 -0.02539,-0.24967 -0.03809,-0.43375 -0.03809,-0.55225 -5e-6,-0.13118 0.04443,-0.19677 0.1333,-0.19677 0.101558,0 0.251786,0.002 0.450684,0.006 0.20312,0.004 0.355463,0.006 0.457031,0.006 0.101557,1e-5 0.253901,-0.008 0.457032,-0.0254 0.20735,-0.0169 0.36181,-0.0254 0.463378,-0.0254 0.105788,10e-6 0.175612,0.055 0.209473,0.16504 0.07193,0.24122 0.107904,0.7321 0.10791,1.47266"
           id="path22825"
           style="font-size:13px;font-style:normal;font-variant:normal;font-weight:bold;font-stretch:normal;text-align:start;line-height:100%;letter-spacing:0px;word-spacing:0px;writing-mode:lr-tb;text-anchor:start;fill:#b2e5e5;fill-opacity:1;stroke:none;font-family:Berlin Sans FB Demi;-inkscape-font-specification:Berlin Sans FB Demi Bold" />
        <path
           d="m 102.2709,999.64984 c -1e-5,0.42746 -0.13754,0.67076 -0.4126,0.72996 -0.0466,0.01 -0.48454,0.055 -1.31397,0.1397 -0.49935,0.055 -1.24414,0.1206 -2.234371,0.1967 0.05924,0.2751 0.239093,0.4846 0.539551,0.6285 0.24544,0.1185 0.524736,0.1777 0.837891,0.1777 0.376619,0 0.755369,-0.1016 1.136229,-0.3047 0.1608,-0.1015 0.32161,-0.2031 0.48242,-0.3047 0.0889,0.042 0.23698,0.2582 0.44434,0.6475 0.21158,0.3893 0.31738,0.6369 0.31738,0.7427 0,0.03 -0.0317,0.078 -0.0952,0.146 -0.51628,0.5543 -1.3182,0.8315 -2.405765,0.8315 -1.007164,0 -1.819663,-0.2941 -2.4375,-0.8823 -0.634766,-0.5967 -0.952148,-1.3944 -0.952148,-2.3931 0,-0.97329 0.283528,-1.77098 0.850586,-2.39306 0.583983,-0.64322 1.358396,-0.96483 2.323242,-0.96484 0.812495,1e-5 1.502275,0.29623 2.069335,0.88867 0.56705,0.59245 0.85058,1.29704 0.85059,2.11377 m -2.22168,-0.38721 c -10e-6,-0.26236 -0.09311,-0.49299 -0.2793,-0.69189 -0.186201,-0.19889 -0.408369,-0.29834 -0.666504,-0.29834 -0.266604,0 -0.486656,0.11215 -0.660156,0.33643 -0.160809,0.20736 -0.241213,0.45068 -0.241211,0.72998 -2e-6,0.11426 0.05924,0.17139 0.177735,0.17138 0.313148,1e-5 0.799801,-0.0487 1.459961,-0.14599 0.139644,-0.0212 0.209465,-0.055 0.209475,-0.10157"
           id="path22827"
           style="font-size:13px;font-style:normal;font-variant:normal;font-weight:bold;font-stretch:normal;text-align:start;line-height:100%;letter-spacing:0px;word-spacing:0px;writing-mode:lr-tb;text-anchor:start;fill:#b2e5e5;fill-opacity:1;stroke:none;font-family:Berlin Sans FB Demi;-inkscape-font-specification:Berlin Sans FB Demi Bold" />
        <path
           d="m 107.19033,999.14203 c 0,0.16504 -0.091,0.24756 -0.27295,0.24756 -0.0804,0 -0.1989,-0.004 -0.35547,-0.0127 -0.15235,-0.0127 -0.2666,-0.019 -0.34277,-0.019 -0.35124,0 -0.59034,0.055 -0.71729,0.16504 -0.12695,0.11003 -0.19043,0.3322 -0.19043,0.66647 0,0.182 0.002,0.4591 0.006,0.8315 0.008,0.3682 0.0127,0.6433 0.0127,0.8252 -10e-6,0.1228 0.008,0.3068 0.0254,0.5523 0.0169,0.2412 0.0254,0.421 0.0254,0.5395 0,0.1016 -0.0698,0.1587 -0.20947,0.1714 -0.20313,0.017 -0.51417,0.025 -0.93311,0.025 -0.40202,0 -0.72363,-0.013 -0.96484,-0.038 -0.13965,-0.017 -0.20948,-0.087 -0.20948,-0.2095 0,-0.3385 0.002,-0.8442 0.006,-1.517 0.004,-0.6771 0.006,-1.1849 0.006,-1.52344 0,-0.99446 -0.091,-1.81331 -0.27295,-2.45654 -0.008,-0.0381 -0.0127,-0.0698 -0.0127,-0.0952 0,-0.0635 0.0317,-0.10579 0.0952,-0.12695 0.23275,-0.0254 0.5734,-0.0719 1.02197,-0.13965 0.66862,-0.13118 1.01351,-0.19677 1.03467,-0.19678 0.0762,10e-6 0.12483,0.13331 0.146,0.3999 0.0212,0.26661 0.0592,0.39991 0.11425,0.39991 -0.0592,0 0.11426,-0.11002 0.52051,-0.33008 0.40625,-0.22428 0.79769,-0.33642 1.17432,-0.33643 0.23697,10e-6 0.35546,0.0508 0.35547,0.15235 -10e-6,0.12272 -0.0127,0.29623 -0.0381,0.5205 -0.0254,0.24122 -0.0402,0.41472 -0.0444,0.52051 -1e-5,0.12273 0.002,0.28565 0.006,0.48877 0.008,0.24968 0.0127,0.41472 0.0127,0.49512"
           id="path22829"
           style="font-size:13px;font-style:normal;font-variant:normal;font-weight:bold;font-stretch:normal;text-align:start;line-height:100%;letter-spacing:0px;word-spacing:0px;writing-mode:lr-tb;text-anchor:start;fill:#b2e5e5;fill-opacity:1;stroke:none;font-family:Berlin Sans FB Demi;-inkscape-font-specification:Berlin Sans FB Demi Bold" />
      </g>
      <g
         id="g24155">
        <path
           d="m 10.736101,1038.6356 c -10e-6,-0.1289 -0.02345,0.064 -0.07031,0.5801 -0.06446,0.6504 -0.114268,1.4824 -0.149414,2.4961 -0.04688,1.1484 -0.07032,2.4551 -0.07031,3.9199 -10e-6,2.4199 0.06737,4.1426 0.202149,5.168 0.01171,0.1113 0.01757,0.1816 0.01758,0.2109 -10e-6,0.064 -0.04396,0.1026 -0.131836,0.1143 -0.210947,0.029 -0.9873137,0.044 -2.3291017,0.044 -0.3164135,0 -0.4980539,-0.062 -0.5449219,-0.1845 -0.011726,-0.2227 -0.023445,-0.4454 -0.035156,-0.668 -0.00587,-0.047 -0.029304,-0.094 -0.070313,-0.1406 -0.035163,0.017 -0.079108,0.053 -0.1318359,0.1054 -0.6328186,0.6211 -1.4238334,0.9317 -2.3730469,0.9317 -1.2363312,0 -2.2265646,-0.4336 -2.9707031,-1.3008 -0.7089851,-0.8262 -1.0634769,-1.8692 -1.0634766,-3.1289 -3e-7,-1.2774 0.3486322,-2.3291 1.0458985,-3.1553 0.7382791,-0.8789 1.7343719,-1.3183 2.9882812,-1.3184 0.8847604,10e-5 1.5732363,0.2813 2.0654297,0.8438 0.082025,0.094 0.1406184,0.1406 0.1757813,0.1406 0.052728,0 0.079095,-0.076 0.079102,-0.2285 -6.7e-6,-0.4512 -0.011725,-1.125 -0.035156,-2.0215 -0.023444,-0.8965 -0.035163,-1.5673 -0.035156,-2.0127 -6.6e-6,-0.1699 0.046868,-0.2666 0.140625,-0.29 0.3749929,-0.018 0.8906174,-0.053 1.546875,-0.1055 1.1718654,-0.1465 1.6904204,-0.2197 1.5556644,-0.2197 0.128896,0 0.193349,0.073 0.193359,0.2197 m -3.3134765,8.0772 c -6.7e-6,-0.4629 -0.1611394,-0.8672 -0.4833984,-1.2129 -0.3222716,-0.3516 -0.7119196,-0.5274 -1.1689453,-0.5274 -0.4804734,0 -0.8642621,0.1758 -1.1513672,0.5274 -0.2812537,0.3457 -0.4218786,0.7617 -0.421875,1.248 -3.6e-6,0.4746 0.143551,0.876 0.430664,1.2041 0.2929645,0.3516 0.6738235,0.5274 1.1425782,0.5274 0.4687444,0 0.8613221,-0.1758 1.1777343,-0.5274 0.3163997,-0.3515 0.4746027,-0.7646 0.4746094,-1.2392"
           id="path24108"
           style="font-size:18px;font-style:normal;font-variant:normal;font-weight:bold;font-stretch:normal;text-align:start;line-height:100%;letter-spacing:0px;word-spacing:0px;writing-mode:lr-tb;text-anchor:start;fill:#ff9900;fill-opacity:1;stroke:none;font-family:Berlin Sans FB Demi;-inkscape-font-specification:Berlin Sans FB Demi Bold" />
        <path
           d="m 20.087664,1046.3348 c -9e-6,0.5918 -0.190439,0.9288 -0.571289,1.0108 -0.06446,0.012 -0.670906,0.076 -1.819336,0.1933 -0.691412,0.076 -1.722661,0.167 -3.09375,0.2725 0.08203,0.3809 0.331051,0.6709 0.74707,0.8701 0.339839,0.1641 0.726558,0.2461 1.160156,0.2461 0.521479,0 1.045893,-0.1406 1.573243,-0.4219 0.222649,-0.1406 0.445305,-0.2812 0.667968,-0.4218 0.12304,0.059 0.328117,0.3574 0.615235,0.8964 0.29296,0.5391 0.439444,0.8819 0.439453,1.0284 -9e-6,0.041 -0.04395,0.1084 -0.131836,0.2021 -0.714852,0.7676 -1.825202,1.1514 -3.331055,1.1514 -1.394535,0 -2.519534,-0.4072 -3.375,-1.2217 -0.878907,-0.8262 -1.31836,-1.9307 -1.318359,-3.3135 -1e-6,-1.3476 0.392577,-2.4521 1.177734,-3.3135 0.808592,-0.8906 1.880856,-1.3359 3.216797,-1.3359 1.124994,0 2.080071,0.4102 2.865234,1.2305 0.785148,0.8203 1.177726,1.7959 1.177735,2.9267 m -3.076172,-0.5361 c -6e-6,-0.3633 -0.128912,-0.6826 -0.386719,-0.958 -0.257817,-0.2754 -0.565434,-0.4131 -0.922851,-0.4131 -0.369145,0 -0.673832,0.1553 -0.914063,0.4658 -0.222659,0.2871 -0.333987,0.6241 -0.333984,1.0108 -3e-6,0.1582 0.08203,0.2373 0.246093,0.2373 0.43359,0 1.107418,-0.067 2.021485,-0.2022 0.193354,-0.029 0.290033,-0.076 0.290039,-0.1406"
           id="path24110"
           style="font-size:18px;font-style:normal;font-variant:normal;font-weight:bold;font-stretch:normal;text-align:start;line-height:100%;letter-spacing:0px;word-spacing:0px;writing-mode:lr-tb;text-anchor:start;fill:#ff9900;fill-opacity:1;stroke:none;font-family:Berlin Sans FB Demi;-inkscape-font-specification:Berlin Sans FB Demi Bold" />
        <path
           d="m 24.271258,1045.8163 c -4e-6,1.5996 0.0059,2.8271 0.01758,3.6826 -4e-6,0.1348 0.0088,0.3662 0.02637,0.6943 0.01757,0.2989 0.02636,0.5303 0.02637,0.6944 -4e-6,0.123 -0.07325,0.1963 -0.219727,0.2197 -0.263675,0.047 -0.738284,0.07 -1.423828,0.07 -0.703126,0 -1.151368,-0.023 -1.344726,-0.07 -0.128907,-0.029 -0.202149,-0.1084 -0.219727,-0.2373 -10e-7,-0.018 -10e-7,-0.1436 0,-0.3779 -10e-7,-0.5215 0.0059,-1.3008 0.01758,-2.3379 0.01172,-1.043 0.01758,-1.8223 0.01758,-2.3379 0,-2.4609 0.0029,-3.583 0.0088,-3.3662 -0.01758,-1.2949 -0.09082,-2.4111 -0.219727,-3.3487 -0.01172,-0.064 -0.01758,-0.1142 -0.01758,-0.1494 -1e-6,-0.1289 0.07617,-0.1933 0.228515,-0.1933 l 3.137696,0 c 0.14648,0 0.213863,0.062 0.202148,0.1845 l -0.0088,0.1582 c -0.152348,2.5313 -0.228519,4.7696 -0.228515,6.7149"
           id="path24112"
           style="font-size:18px;font-style:normal;font-variant:normal;font-weight:bold;font-stretch:normal;text-align:start;line-height:100%;letter-spacing:0px;word-spacing:0px;writing-mode:lr-tb;text-anchor:start;fill:#ff9900;fill-opacity:1;stroke:none;font-family:Berlin Sans FB Demi;-inkscape-font-specification:Berlin Sans FB Demi Bold" />
        <path
           d="m 29.368914,1040.5428 c -4e-6,1.0196 -0.574223,1.5294 -1.722656,1.5293 -0.49219,10e-5 -0.899416,-0.1289 -1.22168,-0.3867 -0.351564,-0.2812 -0.527345,-0.6621 -0.527344,-1.1426 -1e-6,-0.457 0.18164,-0.832 0.544922,-1.125 0.333983,-0.2695 0.735349,-0.4042 1.204102,-0.4043 0.457028,10e-5 0.852535,0.1378 1.186523,0.4131 0.357418,0.293 0.536129,0.6651 0.536133,1.1162 m -0.228516,6.5303 c -4e-6,0.4278 0.0088,1.0664 0.02637,1.916 0.01757,0.8438 0.02636,1.4766 0.02637,1.8985 -5e-6,0.123 -0.07325,0.1963 -0.219727,0.2197 -0.199222,0.035 -0.647464,0.053 -1.344727,0.053 -0.703126,0 -1.154298,-0.018 -1.353515,-0.053 -0.128907,-0.023 -0.208009,-0.061 -0.237305,-0.1143 -0.01172,-0.023 -0.01758,-0.1113 -0.01758,-0.2636 -1e-6,-0.4043 0.0088,-1.0108 0.02637,-1.8194 0.01758,-0.8144 0.02637,-1.4267 0.02637,-1.8369 -1e-6,-1.664 -0.06445,-2.9883 -0.193359,-3.9726 -0.01172,-0.094 -0.01758,-0.1553 -0.01758,-0.1846 -1e-6,-0.1172 0.0791,-0.1758 0.237305,-0.1758 0.164061,0 0.413084,0.018 0.74707,0.053 0.339842,0.035 0.594724,0.053 0.764648,0.053 0.16992,0 0.424802,-0.015 0.764649,-0.044 0.33984,-0.029 0.594722,-0.044 0.764648,-0.044 0.140621,0 0.210933,0.059 0.210938,0.1758 -5e-6,0.023 -0.0059,0.079 -0.01758,0.167 -0.128911,1.1425 -0.193364,2.4668 -0.19336,3.9726"
           id="path24114"
           style="font-size:18px;font-style:normal;font-variant:normal;font-weight:bold;font-stretch:normal;text-align:start;line-height:100%;letter-spacing:0px;word-spacing:0px;writing-mode:lr-tb;text-anchor:start;fill:#ff9900;fill-opacity:1;stroke:none;font-family:Berlin Sans FB Demi;-inkscape-font-specification:Berlin Sans FB Demi Bold" />
        <path
           d="m 40.37282,1046.8094 c -10e-6,1.2305 -0.351572,2.2588 -1.054687,3.085 -0.750009,0.8789 -1.728524,1.3184 -2.935547,1.3184 -0.878912,0 -1.587896,-0.252 -2.126953,-0.7559 -0.04102,-0.035 -0.07618,-0.053 -0.105469,-0.053 -0.0586,0 -0.114262,0.1084 -0.166992,0.3252 -0.04688,0.2168 -0.105473,0.3369 -0.175782,0.3603 -0.09961,0.029 -0.934573,0.044 -2.504882,0.044 -0.369142,0 -0.553712,-0.067 -0.553711,-0.2022 -1e-6,-0.018 0.0059,-0.062 0.01758,-0.1318 0.117186,-0.9317 0.17578,-2.707 0.175781,-5.3262 -10e-7,-2.5019 -0.08789,-4.6787 -0.263672,-6.5303 l -0.0088,-0.097 c -10e-7,-0.094 0.09082,-0.1465 0.272461,-0.1582 0.128905,-0.01 0.63867,-0.05 1.529297,-0.1319 0.62695,-0.059 1.136715,-0.088 1.529297,-0.088 0.111324,0 0.166988,0.097 0.166992,0.2901 -4e-6,0.2285 -0.01465,0.5303 -0.04394,0.9052 -0.03516,0.4629 -0.05567,0.7676 -0.06152,0.9141 -0.0293,0.5801 -0.04395,1.3711 -0.04395,2.373 -4e-6,0.1817 0.04687,0.2725 0.140625,0.2725 0.04687,0 0.09082,-0.023 0.131836,-0.07 0.527339,-0.5625 1.218744,-0.8437 2.074219,-0.8438 1.283195,10e-5 2.285147,0.4366 3.005859,1.3096 0.667959,0.8086 1.001943,1.8721 1.001953,3.1904 m -3.181641,-0.097 c -7e-6,-0.4864 -0.149421,-0.8965 -0.448242,-1.2305 -0.298834,-0.3398 -0.688482,-0.5098 -1.168945,-0.5098 -0.492193,0 -0.881841,0.17 -1.168945,0.5098 -0.281254,0.334 -0.421879,0.75 -0.421875,1.248 -4e-6,0.5157 0.137691,0.9317 0.413086,1.2481 0.292964,0.334 0.691401,0.501 1.195312,0.501 0.498041,0 0.893548,-0.1729 1.186523,-0.5186 0.275384,-0.3222 0.413079,-0.7383 0.413086,-1.248"
           id="path24116"
           style="font-size:18px;font-style:normal;font-variant:normal;font-weight:bold;font-stretch:normal;text-align:start;line-height:100%;letter-spacing:0px;word-spacing:0px;writing-mode:lr-tb;text-anchor:start;fill:#ff9900;fill-opacity:1;stroke:none;font-family:Berlin Sans FB Demi;-inkscape-font-specification:Berlin Sans FB Demi Bold" />
        <path
           d="m 49.513445,1046.3348 c -9e-6,0.5918 -0.190438,0.9288 -0.571289,1.0108 -0.06446,0.012 -0.670906,0.076 -1.819336,0.1933 -0.691412,0.076 -1.722661,0.167 -3.09375,0.2725 0.08203,0.3809 0.331051,0.6709 0.74707,0.8701 0.33984,0.1641 0.726558,0.2461 1.160157,0.2461 0.521478,0 1.045892,-0.1406 1.573242,-0.4219 0.222649,-0.1406 0.445305,-0.2812 0.667969,-0.4218 0.123039,0.059 0.328117,0.3574 0.615234,0.8964 0.29296,0.5391 0.439445,0.8819 0.439453,1.0284 -8e-6,0.041 -0.04395,0.1084 -0.131836,0.2021 -0.714851,0.7676 -1.825202,1.1514 -3.331055,1.1514 -1.394535,0 -2.519533,-0.4072 -3.375,-1.2217 -0.878907,-0.8262 -1.318359,-1.9307 -1.318359,-3.3135 0,-1.3476 0.392577,-2.4521 1.177734,-3.3135 0.808592,-0.8906 1.880856,-1.3359 3.216797,-1.3359 1.124994,0 2.080072,0.4102 2.865235,1.2305 0.785147,0.8203 1.177725,1.7959 1.177734,2.9267 m -3.076172,-0.5361 c -6e-6,-0.3633 -0.128912,-0.6826 -0.386719,-0.958 -0.257817,-0.2754 -0.565434,-0.4131 -0.922851,-0.4131 -0.369145,0 -0.673832,0.1553 -0.914063,0.4658 -0.222659,0.2871 -0.333987,0.6241 -0.333984,1.0108 -3e-6,0.1582 0.08203,0.2373 0.246094,0.2373 0.43359,0 1.107417,-0.067 2.021484,-0.2022 0.193354,-0.029 0.290033,-0.076 0.290039,-0.1406"
           id="path24118"
           style="font-size:18px;font-style:normal;font-variant:normal;font-weight:bold;font-stretch:normal;text-align:start;line-height:100%;letter-spacing:0px;word-spacing:0px;writing-mode:lr-tb;text-anchor:start;fill:#ff9900;fill-opacity:1;stroke:none;font-family:Berlin Sans FB Demi;-inkscape-font-specification:Berlin Sans FB Demi Bold" />
        <path
           d="m 56.324968,1045.6317 c -6e-6,0.2285 -0.125983,0.3428 -0.377929,0.3428 -0.111334,0 -0.275397,-0.01 -0.492188,-0.018 -0.210943,-0.018 -0.369146,-0.026 -0.474609,-0.026 -0.486333,0 -0.817387,0.076 -0.993164,0.2286 -0.175785,0.1523 -0.263676,0.4599 -0.263672,0.9228 -4e-6,0.252 0.0029,0.6358 0.0088,1.1514 0.01172,0.5097 0.01757,0.8906 0.01758,1.1426 -4e-6,0.1699 0.01172,0.4248 0.03516,0.7646 0.02343,0.334 0.03515,0.583 0.03516,0.7471 -4e-6,0.1406 -0.09668,0.2197 -0.290039,0.2373 -0.281254,0.023 -0.711918,0.035 -1.291993,0.035 -0.556642,0 -1.001954,-0.018 -1.335937,-0.053 -0.19336,-0.023 -0.29004,-0.1201 -0.290039,-0.29 -1e-6,-0.4688 0.0029,-1.169 0.0088,-2.1006 0.0059,-0.9375 0.0088,-1.6406 0.0088,-2.1094 -10e-7,-1.3769 -0.125977,-2.5107 -0.37793,-3.4014 -0.01172,-0.053 -0.01758,-0.097 -0.01758,-0.1318 0,-0.088 0.04395,-0.1465 0.131836,-0.1758 0.322265,-0.035 0.793944,-0.1 1.415039,-0.1933 0.925778,-0.1817 1.403317,-0.2725 1.432617,-0.2725 0.105466,0 0.172848,0.1846 0.202149,0.5537 0.02929,0.3692 0.08203,0.5537 0.158203,0.5537 -0.08203,0 0.158199,-0.1523 0.720703,-0.457 0.562495,-0.3106 1.104487,-0.4658 1.625977,-0.4658 0.328118,0 0.49218,0.07 0.492187,0.2109 -7e-6,0.1699 -0.01758,0.4102 -0.05273,0.7207 -0.03516,0.334 -0.05567,0.5742 -0.06152,0.7207 -6e-6,0.1699 0.0029,0.3955 0.0088,0.6768 0.01171,0.3457 0.01757,0.5742 0.01758,0.6855"
           id="path24120"
           style="font-size:18px;font-style:normal;font-variant:normal;font-weight:bold;font-stretch:normal;text-align:start;line-height:100%;letter-spacing:0px;word-spacing:0px;writing-mode:lr-tb;text-anchor:start;fill:#ff9900;fill-opacity:1;stroke:none;font-family:Berlin Sans FB Demi;-inkscape-font-specification:Berlin Sans FB Demi Bold" />
        <path
           d="m 66.186297,1046.7128 c -1e-5,0.4511 0.02636,1.122 0.0791,2.0127 0.05272,0.8906 0.07909,1.5586 0.0791,2.0039 -1e-5,0.2343 -0.102549,0.3603 -0.307617,0.3779 -0.726572,0.053 -1.558602,0.079 -2.496094,0.079 -0.111335,0 -0.187507,-0.167 -0.228516,-0.501 -0.03516,-0.3398 -0.07911,-0.5127 -0.131836,-0.5185 -0.04688,0.023 -0.108405,0.073 -0.18457,0.1494 -0.656256,0.6621 -1.35938,0.9931 -2.109375,0.9931 -1.142581,0 -2.088869,-0.4511 -2.838867,-1.3535 -0.708985,-0.8437 -1.063477,-1.8515 -1.063477,-3.0234 0,-1.3535 0.36621,-2.4434 1.098633,-3.2695 0.761716,-0.8555 1.804684,-1.2832 3.128906,-1.2832 0.919917,0 1.646478,0.3222 2.179688,0.9668 0.02343,0.029 0.04394,0.044 0.06152,0.044 0.05273,0 0.111321,-0.1406 0.175781,-0.4219 0.07031,-0.2871 0.152337,-0.4306 0.246094,-0.4306 0.21679,0 0.629875,0.062 1.239258,0.1845 0.580069,0.1172 0.996084,0.2168 1.248047,0.2989 0.08788,0.035 0.131826,0.082 0.131836,0.1406 -1e-5,0.023 -0.0088,0.085 -0.02637,0.1846 -0.18751,1.0605 -0.28126,2.1826 -0.28125,3.3662 m -2.830079,0.053 c -6e-6,-0.498 -0.158209,-0.9082 -0.474609,-1.2305 -0.310553,-0.3281 -0.717779,-0.4921 -1.22168,-0.4922 -0.50391,10e-5 -0.911137,0.1612 -1.221679,0.4834 -0.310551,0.3223 -0.465824,0.7354 -0.465821,1.2393 -3e-6,0.4746 0.164059,0.8818 0.492188,1.2217 0.328121,0.3398 0.726558,0.5098 1.195312,0.5097 0.498042,10e-5 0.905268,-0.1611 1.22168,-0.4834 0.3164,-0.3281 0.474603,-0.7441 0.474609,-1.248"
           id="path24122"
           style="font-size:18px;font-style:normal;font-variant:normal;font-weight:bold;font-stretch:normal;text-align:start;line-height:100%;letter-spacing:0px;word-spacing:0px;writing-mode:lr-tb;text-anchor:start;fill:#ff9900;fill-opacity:1;stroke:none;font-family:Berlin Sans FB Demi;-inkscape-font-specification:Berlin Sans FB Demi Bold" />
        <path
           d="m 77.251726,1038.6356 c -1e-5,-0.1289 -0.02345,0.064 -0.07031,0.5801 -0.06446,0.6504 -0.114268,1.4824 -0.149414,2.4961 -0.04689,1.1484 -0.07032,2.4551 -0.07031,3.9199 -1e-5,2.4199 0.06737,4.1426 0.202149,5.168 0.01171,0.1113 0.01757,0.1816 0.01758,0.2109 -1e-5,0.064 -0.04395,0.1026 -0.131836,0.1143 -0.210947,0.029 -0.987314,0.044 -2.329102,0.044 -0.316413,0 -0.498054,-0.062 -0.544922,-0.1845 -0.01172,-0.2227 -0.02344,-0.4454 -0.03516,-0.668 -0.0059,-0.047 -0.0293,-0.094 -0.07031,-0.1406 -0.03516,0.017 -0.07911,0.053 -0.131836,0.1054 -0.632819,0.6211 -1.423834,0.9317 -2.373047,0.9317 -1.236331,0 -2.226565,-0.4336 -2.970703,-1.3008 -0.708985,-0.8262 -1.063477,-1.8692 -1.063477,-3.1289 0,-1.2774 0.348632,-2.3291 1.045899,-3.1553 0.738279,-0.8789 1.734371,-1.3183 2.988281,-1.3184 0.88476,10e-5 1.573236,0.2813 2.06543,0.8438 0.08202,0.094 0.140618,0.1406 0.175781,0.1406 0.05273,0 0.07909,-0.076 0.0791,-0.2285 -6e-6,-0.4512 -0.01172,-1.125 -0.03516,-2.0215 -0.02344,-0.8965 -0.03516,-1.5673 -0.03516,-2.0127 -7e-6,-0.1699 0.04687,-0.2666 0.140625,-0.29 0.374993,-0.018 0.890617,-0.053 1.546875,-0.1055 1.171865,-0.1465 1.69042,-0.2197 1.555664,-0.2197 0.128896,0 0.193349,0.073 0.193359,0.2197 m -3.313476,8.0772 c -7e-6,-0.4629 -0.16114,-0.8672 -0.483399,-1.2129 -0.322271,-0.3516 -0.711919,-0.5274 -1.168945,-0.5274 -0.480473,0 -0.864262,0.1758 -1.151367,0.5274 -0.281254,0.3457 -0.421879,0.7617 -0.421875,1.248 -4e-6,0.4746 0.143551,0.876 0.430664,1.2041 0.292964,0.3516 0.673823,0.5274 1.142578,0.5274 0.468744,0 0.861322,-0.1758 1.177734,-0.5274 0.3164,-0.3515 0.474603,-0.7646 0.47461,-1.2392"
           id="path24124"
           style="font-size:18px;font-style:normal;font-variant:normal;font-weight:bold;font-stretch:normal;text-align:start;line-height:100%;letter-spacing:0px;word-spacing:0px;writing-mode:lr-tb;text-anchor:start;fill:#ff9900;fill-opacity:1;stroke:none;font-family:Berlin Sans FB Demi;-inkscape-font-specification:Berlin Sans FB Demi Bold" />
        <path
           d="m 86.846071,1047.7459 c -9e-6,0.351 0.02338,0.8727 0.07016,1.5654 0.04678,0.6928 0.07017,1.2123 0.07018,1.5586 -9e-6,0.1823 -0.09097,0.2804 -0.272883,0.294 -0.644527,0.041 -1.382607,0.062 -2.214239,0.062 -0.09877,0 -0.166334,-0.1298 -0.202712,-0.3897 -0.03119,-0.2643 -0.07018,-0.3987 -0.11695,-0.4033 -0.04159,0.018 -0.09616,0.057 -0.163728,0.1162 -0.582153,0.515 -1.205882,0.7725 -1.87119,0.7725 -1.013562,0 -1.852997,-0.3509 -2.518307,-1.0527 -0.628928,-0.6563 -0.943392,-1.4401 -0.943392,-2.3516 0,-1.0528 0.324859,-1.9004 0.974578,-2.543 0.675706,-0.6653 1.600903,-0.998 2.775597,-0.998 0.816041,0 1.460561,0.2507 1.933561,0.7519 0.02078,0.023 0.03898,0.035 0.05457,0.035 0.04678,0 0.09875,-0.1094 0.155933,-0.3281 0.06237,-0.2234 0.135135,-0.335 0.218305,-0.335 0.192311,0 0.558751,0.048 1.099324,0.1436 0.514569,0.091 0.883608,0.1686 1.10712,0.2324 0.07796,0.027 0.11694,0.064 0.116949,0.1094 -9e-6,0.019 -0.0078,0.066 -0.02339,0.1435 -0.166336,0.8249 -0.2495,1.6976 -0.249492,2.6182 m -2.510511,0.041 c -7e-6,-0.3874 -0.140345,-0.7064 -0.421018,-0.9571 -0.275485,-0.2551 -0.636728,-0.3828 -1.08373,-0.3828 -0.44701,0 -0.808253,0.1254 -1.08373,0.376 -0.275483,0.2506 -0.413224,0.572 -0.413221,0.9639 -3e-6,0.3691 0.145534,0.6859 0.436611,0.9502 0.29107,0.2643 0.644516,0.3965 1.06034,0.3965 0.441804,0 0.803047,-0.1253 1.08373,-0.376 0.280673,-0.2552 0.421011,-0.5788 0.421018,-0.9707"
           id="path24136"
           style="font-size:14.95141029px;font-style:normal;font-variant:normal;font-weight:bold;font-stretch:normal;text-align:start;line-height:100%;letter-spacing:0px;word-spacing:0px;writing-mode:lr-tb;text-anchor:start;fill:#ff9900;fill-opacity:1;stroke:none;font-family:Berlin Sans FB Demi;-inkscape-font-specification:Berlin Sans FB Demi Bold" />
        <path
           d="m 100.8566,1050.9109 c -2e-5,0.1596 -0.078,0.2485 -0.2339,0.2667 -0.15595,0.018 -0.54058,0.027 -1.153902,0.027 -0.634136,0 -1.029166,-0.014 -1.185086,-0.041 -0.155944,-0.027 -0.23391,-0.1391 -0.233899,-0.3351 -1.1e-5,-0.2096 0.0078,-0.5217 0.02339,-0.9364 0.01558,-0.4193 0.02338,-0.7338 0.02339,-0.9434 -1e-5,-0.7975 -0.01036,-1.365 -0.03118,-1.7021 -0.03119,-0.5424 -0.32487,-0.8136 -0.881018,-0.8136 -0.244303,0 -0.488597,0.091 -0.732882,0.2735 -0.239105,0.1778 -0.371647,0.376 -0.397629,0.5947 -0.02079,0.1914 -0.03119,0.7519 -0.03118,1.6817 -7e-6,0.2141 0.0078,0.54 0.02339,0.9775 0.01558,0.4329 0.02338,0.7588 0.02339,0.9775 -8e-6,0.1504 -0.07538,0.2257 -0.226102,0.2257 l -2.362375,0 c -0.145543,0 -0.218311,-0.094 -0.218306,-0.2804 -5e-6,-0.2141 0.0078,-0.5354 0.02339,-0.9638 0.01559,-0.4284 0.02339,-0.752 0.02339,-0.9707 -6e-6,-0.1687 -0.0052,-0.4238 -0.01559,-0.7657 -0.01036,-0.3418 -0.0156,-0.5993 -0.01559,-0.7724 -5e-6,-0.6517 -0.283282,-0.9776 -0.849831,-0.9776 -0.228706,0 -0.475598,0.078 -0.740679,0.2325 -0.291078,0.1686 -0.436615,0.3463 -0.43661,0.5332 -5e-6,0.4147 0.0026,1.0345 0.0078,1.8594 0.0052,0.8248 0.0078,1.4423 0.0078,1.8525 -4e-6,0.1139 -0.0156,0.1846 -0.04678,0.212 -0.03119,0.027 -0.111755,0.046 -0.241696,0.054 -0.233901,0.018 -0.602941,0.027 -1.10712,0.027 -0.327459,0 -0.699098,-0.014 -1.114916,-0.041 -0.124747,-0.01 -0.200114,-0.025 -0.226102,-0.048 -0.02079,-0.023 -0.03119,-0.091 -0.03119,-0.2052 0,-0.3645 0.0026,-0.9091 0.0078,-1.6338 0.0052,-0.7291 0.0078,-1.276 0.0078,-1.6406 0,-0.7474 -0.06237,-1.5881 -0.187117,-2.5225 -0.01036,-0.054 -0.01559,-0.096 -0.01559,-0.123 -10e-7,-0.078 0.03639,-0.1299 0.109153,-0.1572 0.11435,-0.041 0.330056,-0.075 0.647118,-0.1025 0.389831,-0.032 0.62113,-0.053 0.6939,-0.062 0.05198,-0.01 0.257287,-0.057 0.615933,-0.1436 0.254686,-0.064 0.459998,-0.096 0.615933,-0.096 0.09875,0 0.150731,0.1595 0.155932,0.4785 0.0052,0.3144 0.02598,0.4717 0.06237,0.4717 0.05198,-0.018 0.111748,-0.05 0.179322,-0.096 0.467793,-0.3191 0.836833,-0.5378 1.107121,-0.6563 0.40022,-0.1686 0.834232,-0.2529 1.302035,-0.2529 0.478185,0 0.904401,0.094 1.278646,0.2803 0.421009,0.2096 0.69389,0.5036 0.818645,0.8818 0.275471,-0.3281 0.654907,-0.6038 1.138306,-0.8271 0.48338,-0.2233 0.953776,-0.335 1.411188,-0.335 0.686091,0 1.244848,0.139 1.676278,0.417 0.48857,0.3144 0.73287,0.7633 0.73288,1.3467 -10e-6,0.2415 -0.008,0.6061 -0.0234,1.0938 -0.0156,0.483 -0.0234,0.8453 -0.0234,1.0868 -2e-5,0.2872 0.008,0.7201 0.0234,1.2988 0.0156,0.5743 0.0234,1.0049 0.0234,1.292"
           id="path24138"
           style="font-size:14.95141029px;font-style:normal;font-variant:normal;font-weight:bold;font-stretch:normal;text-align:start;line-height:100%;letter-spacing:0px;word-spacing:0px;writing-mode:lr-tb;text-anchor:start;fill:#ff9900;fill-opacity:1;stroke:none;font-family:Berlin Sans FB Demi;-inkscape-font-specification:Berlin Sans FB Demi Bold" />
        <path
           d="m 109.47965,1047.452 c -1e-5,0.4603 -0.16893,0.7223 -0.50677,0.7861 -0.0571,0.01 -0.59516,0.059 -1.6139,0.1505 -0.61334,0.059 -1.52815,0.1298 -2.74441,0.2119 0.0728,0.2961 0.29366,0.5217 0.66271,0.6767 0.30146,0.1276 0.64451,0.1914 1.02915,0.1914 0.4626,0 0.92779,-0.1094 1.3956,-0.3281 0.19751,-0.1094 0.39501,-0.2188 0.59254,-0.3281 0.10915,0.046 0.29106,0.278 0.54576,0.6972 0.25988,0.4193 0.38983,0.6859 0.38984,0.7998 -1e-5,0.032 -0.039,0.084 -0.11695,0.1572 -0.63414,0.5971 -1.61911,0.8956 -2.95492,0.8956 -1.23707,0 -2.23504,-0.3168 -2.99391,-0.9503 -0.77966,-0.6425 -1.16949,-1.5016 -1.16949,-2.5771 0,-1.0482 0.34825,-1.9072 1.04475,-2.5772 0.71729,-0.6926 1.66847,-1.039 2.85356,-1.039 0.99796,0 1.84519,0.3191 2.5417,0.957 0.69649,0.638 1.04473,1.3969 1.04474,2.2764 m -2.72881,-0.417 c -1e-5,-0.2826 -0.11436,-0.5309 -0.34305,-0.7451 -0.22871,-0.2142 -0.50159,-0.3213 -0.81865,-0.3213 -0.32746,0 -0.59774,0.1208 -0.81085,0.3623 -0.19751,0.2233 -0.29627,0.4853 -0.29627,0.7862 0,0.123 0.0728,0.1845 0.21831,0.1845 0.38463,0 0.98237,-0.052 1.79322,-0.1572 0.17152,-0.022 0.25728,-0.059 0.25729,-0.1094"
           id="path24140"
           style="font-size:14.95141029px;font-style:normal;font-variant:normal;font-weight:bold;font-stretch:normal;text-align:start;line-height:100%;letter-spacing:0px;word-spacing:0px;writing-mode:lr-tb;text-anchor:start;fill:#ff9900;fill-opacity:1;stroke:none;font-family:Berlin Sans FB Demi;-inkscape-font-specification:Berlin Sans FB Demi Bold" />
        <path
           d="m 122.10532,1050.8524 c -1e-5,0.1583 -0.0957,0.2491 -0.28691,0.2725 -0.19127,0.023 -0.68993,0.035 -1.49597,0.035 -0.8607,0 -1.3935,-0.018 -1.59842,-0.053 -0.20494,-0.035 -0.3074,-0.1552 -0.3074,-0.3603 0,-0.2754 0.01,-0.6915 0.0308,-1.2481 0.0205,-0.5566 0.0308,-0.9755 0.0308,-1.2568 0,-0.2168 -0.006,-0.5391 -0.0205,-0.9668 -0.0137,-0.4336 -0.0205,-0.7588 -0.0205,-0.9756 0,-0.8027 -0.40644,-1.2041 -1.21931,-1.2041 -0.26641,0 -0.57722,0.1 -0.93242,0.2989 -0.38254,0.2226 -0.5738,0.4423 -0.5738,0.6591 l 0,4.7461 c 0,0.1934 -0.10592,0.3018 -0.31763,0.3252 -0.23909,0.023 -0.7275,0.035 -1.46524,0.035 -0.79922,0 -1.31836,-0.018 -1.55745,-0.053 -0.21175,-0.03 -0.31763,-0.126 -0.31763,-0.29 0,-0.4571 0.003,-1.1455 0.01,-2.0654 0.006,-0.92 0.01,-1.6114 0.01,-2.0743 0,-1.4589 -0.1332,-2.6044 -0.3996,-3.4365 -0.0137,-0.053 -0.0205,-0.097 -0.0205,-0.1319 0,-0.094 0.0512,-0.1581 0.15369,-0.1932 0.43035,-0.041 1.00415,-0.1055 1.7214,-0.1934 1.08611,-0.1817 1.69747,-0.2725 1.8341,-0.2725 0.0751,0 0.13319,0.1992 0.17419,0.5976 0.041,0.3926 0.099,0.5889 0.17418,0.5889 -0.0752,0 0.29031,-0.2021 1.09637,-0.6065 0.81287,-0.4101 1.52328,-0.6151 2.13124,-0.6151 0.86751,0 1.59159,0.1758 2.17223,0.5273 0.64893,0.4043 0.9734,0.9668 0.97341,1.6875 l 0,2.8037 c -1e-5,0.3808 0.003,0.9522 0.01,1.7138 0.006,0.7559 0.01,1.3243 0.01,1.7051"
           id="path24146"
           style="font-size:19.43507767px;font-style:normal;font-variant:normal;font-weight:bold;font-stretch:normal;text-align:start;line-height:100%;letter-spacing:0px;word-spacing:0px;writing-mode:lr-tb;text-anchor:start;fill:#ff9900;fill-opacity:1;stroke:none;font-family:Berlin Sans FB Demi;-inkscape-font-specification:Berlin Sans FB Demi Bold" />
        <path
           d="m 130.66104,1048.5321 c -1e-5,0.1758 -0.0273,0.4424 -0.082,0.7998 -0.0478,0.3574 -0.0717,0.6211 -0.0717,0.7911 -2e-5,0.164 -0.0205,0.2695 -0.0614,0.3163 -0.041,0.047 -0.1537,0.1143 -0.33813,0.2022 -0.8812,0.4161 -1.85801,0.6241 -2.93046,0.6241 -1.97414,0 -2.96121,-0.6475 -2.96121,-1.9425 0,-0.3866 0.0171,-0.9668 0.0512,-1.7402 0.0341,-0.7793 0.0512,-1.3623 0.0512,-1.749 0,-0.2578 -0.17419,-0.3868 -0.52256,-0.3868 -0.0273,0 -0.0717,0 -0.13321,0 -0.0614,0.01 -0.10592,0.01 -0.1332,0.01 -0.25957,0 -0.38937,-0.079 -0.38937,-0.2373 0,-0.094 0.006,-0.2373 0.0205,-0.4306 0.0205,-0.1934 0.0308,-0.337 0.0308,-0.4307 0,-0.1231 -0.01,-0.3105 -0.0308,-0.5626 -0.0136,-0.2519 -0.0205,-0.4393 -0.0205,-0.5624 0,-0.1172 0.21859,-0.1816 0.65578,-0.1934 0.2459,-0.01 0.37911,-0.065 0.3996,-0.1758 0.041,-0.2226 0.0546,-0.5742 0.041,-1.0546 -0.0273,-0.7559 -0.041,-1.1162 -0.041,-1.0811 0,-0.6797 0.0751,-1.0195 0.22543,-1.0195 0.18443,0 0.44741,0.035 0.78896,0.1055 0.38936,0.076 0.65919,0.1201 0.80946,0.1318 0.34838,0.041 0.87437,0.097 1.57795,0.1669 0.17077,0.012 0.25615,0.061 0.25616,0.1495 -10e-6,0.2344 -0.024,0.5889 -0.0717,1.0634 -0.041,0.4747 -0.0614,0.8321 -0.0614,1.0724 -1e-5,0.2871 0.099,0.4306 0.29714,0.4306 0.23909,0 0.60112,-0.01 1.08612,-0.027 0.48499,-0.018 0.85044,-0.026 1.09637,-0.026 0.15026,0 0.2254,0.044 0.22541,0.1319 -1e-5,0.1348 -0.0171,0.337 -0.0512,0.6065 -0.0341,0.2695 -0.0512,0.4717 -0.0512,0.6064 0,0.1406 0.003,0.3457 0.01,0.6153 0.006,0.2695 0.01,0.4745 0.01,0.6151 0,0.1231 -0.099,0.1846 -0.29714,0.1846 -0.13663,0 -0.36547,0 -0.68651,-0.01 -0.32106,-0.012 -0.5499,-0.018 -0.6865,-0.018 l -0.76849,0 c -0.10246,0 -0.1537,0.1289 -0.15369,0.3867 -1e-5,0.1406 -1e-5,0.3486 0,0.6241 0.006,0.2812 0.01,0.4892 0.01,0.624 -1e-5,0.4922 0.0649,0.832 0.19468,1.0195 0.18442,0.2519 0.54647,0.3779 1.08611,0.3779 0.17077,0 0.41327,-0.032 0.72749,-0.097 0.32105,-0.07 0.54647,-0.1054 0.67627,-0.1054 0.14344,0 0.21516,0.065 0.21518,0.1933"
           id="path24148"
           style="font-size:19.43507767px;font-style:normal;font-variant:normal;font-weight:bold;font-stretch:normal;text-align:start;line-height:100%;letter-spacing:0px;word-spacing:0px;writing-mode:lr-tb;text-anchor:start;fill:#ff9900;fill-opacity:1;stroke:none;font-family:Berlin Sans FB Demi;-inkscape-font-specification:Berlin Sans FB Demi Bold" />
        <path
           d="m 141.14307,1046.3349 c 0,0.5918 -0.22202,0.9287 -0.66601,1.0107 -0.0752,0.012 -0.78215,0.076 -2.121,0.1934 -0.80605,0.076 -2.00829,0.167 -3.60672,0.2725 0.0957,0.3808 0.38594,0.6709 0.87094,0.8701 0.39618,0.164 0.84702,0.2461 1.35252,0.2461 0.60795,0 1.21931,-0.1407 1.8341,-0.4219 0.25956,-0.1407 0.51914,-0.2813 0.77873,-0.4219 0.14344,0.058 0.38251,0.3574 0.71724,0.8965 0.34154,0.5391 0.51231,0.8818 0.51232,1.0283 -1e-5,0.041 -0.0513,0.1084 -0.1537,0.2022 -0.83338,0.7676 -2.12783,1.1514 -3.88337,1.1514 -1.62576,0 -2.9373,-0.4073 -3.93461,-1.2217 -1.02464,-0.8263 -1.53696,-1.9307 -1.53696,-3.3136 0,-1.3476 0.45768,-2.4521 1.37302,-3.3134 0.94266,-0.8906 2.19272,-1.336 3.75017,-1.336 1.31153,0 2.42497,0.4102 3.34032,1.2305 0.91533,0.8203 1.37301,1.7959 1.37301,2.9268 m -3.58623,-0.5362 c -1e-5,-0.3632 -0.15028,-0.6826 -0.45084,-0.958 -0.30056,-0.2753 -0.65918,-0.4131 -1.07587,-0.4131 -0.43035,0 -0.78555,0.1553 -1.06562,0.4659 -0.25958,0.2871 -0.38936,0.624 -0.38936,1.0107 0,0.1582 0.0957,0.2373 0.2869,0.2373 0.50549,0 1.29103,-0.068 2.35667,-0.2021 0.22541,-0.03 0.33811,-0.076 0.33812,-0.1407"
           id="path24150"
           style="font-size:19.43507767px;font-style:normal;font-variant:normal;font-weight:bold;font-stretch:normal;text-align:start;line-height:100%;letter-spacing:0px;word-spacing:0px;writing-mode:lr-tb;text-anchor:start;fill:#ff9900;fill-opacity:1;stroke:none;font-family:Berlin Sans FB Demi;-inkscape-font-specification:Berlin Sans FB Demi Bold" />
      </g>
    </g>
  </g>
</svg>
