<?xml version="1.0" encoding="UTF-8" standalone="no"?>
<!-- Created with Inkscape (http://www.inkscape.org/) -->

<svg
   xmlns:dc="http://purl.org/dc/elements/1.1/"
   xmlns:cc="http://creativecommons.org/ns#"
   xmlns:rdf="http://www.w3.org/1999/02/22-rdf-syntax-ns#"
   xmlns:svg="http://www.w3.org/2000/svg"
   xmlns="http://www.w3.org/2000/svg"
   xmlns:sodipodi="http://sodipodi.sourceforge.net/DTD/sodipodi-0.dtd"
   xmlns:inkscape="http://www.inkscape.org/namespaces/inkscape"
   version="1.1"
   width="143"
   height="59"
   id="svg21664"
   inkscape:version="0.48.3.1 r9886"
   sodipodi:docname="cfn.svg">
  <sodipodi:namedview
     pagecolor="#ffffff"
     bordercolor="#666666"
     borderopacity="1"
     objecttolerance="10"
     gridtolerance="10"
     guidetolerance="10"
     inkscape:pageopacity="0"
     inkscape:pageshadow="2"
     inkscape:window-width="1213"
     inkscape:window-height="665"
     id="namedview7115"
     showgrid="false"
     inkscape:zoom="8.897039"
     inkscape:cx="92.968402"
     inkscape:cy="28.097229"
     inkscape:window-x="56"
     inkscape:window-y="24"
     inkscape:window-maximized="0"
     inkscape:current-layer="svg21664" />
  <defs
     id="defs21666" />
  <metadata
     id="metadata21669">
    <rdf:RDF>
      <cc:Work
         rdf:about="">
        <dc:format>image/svg+xml</dc:format>
        <dc:type
           rdf:resource="http://purl.org/dc/dcmitype/StillImage" />
        <dc:title></dc:title>
      </cc:Work>
    </rdf:RDF>
  </metadata>
  <path
     inkscape:connector-curvature="0"
     style="font-size:57.06980133px;font-style:normal;font-variant:normal;font-weight:bold;font-stretch:normal;text-align:start;line-height:100%;letter-spacing:0px;word-spacing:0px;writing-mode:lr-tb;text-anchor:start;fill:#3d8e8e;fill-opacity:1;stroke:none;font-family:Berlin Sans FB Demi;-inkscape-font-specification:Berlin Sans FB Demi Bold"
     id="path22213"
     d="m 74.6656,16.28512 c -3.2e-5,1.349 -0.06629,3.3724 -0.19879,6.0703 -0.132558,2.698 -0.198821,4.7213 -0.198789,6.0704 -3.2e-5,1.3124 0.0473,3.2812 0.141992,5.9061 0.09463,2.6251 0.141961,4.5848 0.141992,5.879 -3.1e-5,0.4921 -0.236685,0.8021 -0.709961,0.9297 -0.719458,0.1823 -2.243507,0.2735 -4.572152,0.2735 -2.063645,0 -3.502499,-0.055 -4.316565,-0.1641 -0.359735,-0.055 -0.586923,-0.2735 -0.681563,-0.6563 -0.05682,-0.5468 -0.113615,-1.0938 -0.170391,-1.6406 -0.09468,-0.8385 -0.227208,-1.2578 -0.397578,-1.2578 0.265031,0 -0.691049,0.6198 -2.868245,1.8594 -2.17723,1.2395 -4.155654,1.8594 -5.935277,1.8594 -5.017068,0 -7.989436,-2.1784 -8.917115,-6.5352 -0.416514,-2.0234 -0.624769,-4.9584 -0.624767,-8.8047 -2e-6,-4.1563 0.350245,-7.4375 1.050743,-9.8438 0.208252,-0.7474 0.596364,-1.121 1.164337,-1.121 0.87088,0 2.196141,0.01 3.975784,0.027 1.779626,0.019 3.104887,0.028 3.975784,0.028 0.586889,0 0.880339,0.237 0.880352,0.7109 -1.3e-5,0.1277 -0.01895,0.319 -0.0568,0.5743 -0.397591,2.4792 -0.59638,4.9947 -0.596367,7.5468 -1.3e-5,3.1719 0.104115,5.3412 0.312383,6.5079 0.340768,2.0052 1.580832,3.0078 3.720198,3.0078 0.833004,0 1.732287,-0.3555 2.697853,-1.0664 0.98446,-0.7109 1.495632,-1.4492 1.533517,-2.2149 0.03784,-0.6744 0.05677,-5.25 0.05679,-13.7266 -2.2e-5,-0.6015 0.04731,-0.957 0.141992,-1.0663 0.113572,-0.1823 0.454353,-0.2735 1.022345,-0.2735 0.927659,0 2.319182,0.01 4.174573,0.027 1.874269,0.019 3.275258,0.028 4.202971,0.028 0.567938,10e-5 0.899253,0.1368 0.993946,0.4101 0.03783,0.1459 0.05676,0.3647 0.05679,0.6563" />
  <path
     inkscape:connector-curvature="0"
     style="font-size:57.06980133px;font-style:normal;font-variant:normal;font-weight:bold;font-stretch:normal;text-align:start;line-height:100%;letter-spacing:0px;word-spacing:0px;writing-mode:lr-tb;text-anchor:start;fill:#3d8e8e;fill-opacity:1;stroke:none;font-family:Berlin Sans FB Demi;-inkscape-font-specification:Berlin Sans FB Demi Bold"
     id="path22209"
     d="m 20.197357,23.50392 c -2e-5,0.4374 -0.24614,0.6563 -0.738359,0.6562 -2.044707,10e-5 -3.653952,-0.055 -4.827739,-0.1641 0.05678,1.3673 0.11358,3.2722 0.170391,5.7149 0.01891,1.0391 0.104113,2.8438 0.255586,5.4141 0.132511,2.3151 0.198774,4.1198 0.19879,5.414 -1.6e-5,0.3829 -0.265067,0.6016 -0.795157,0.6562 -0.643713,0.073 -2.252957,0.1094 -4.827738,0.1094 -2.1393576,0 -3.5308807,-0.055 -4.1745732,-0.164 -0.6437029,-0.1094 -0.9655518,-0.4831 -0.9655476,-1.1211 l 0,-15.0664 c -4.2e-6,-0.5287 -0.3786499,-0.7929 -1.1359382,-0.793 -0.1325291,10e-5 -0.3502503,0.01 -0.6531645,0.027 -0.2839867,0.019 -0.4922418,0.027 -0.6247662,0.027 -0.5301057,0 -0.8046238,-0.1458 -0.8235552,-0.4375 C 1.0851946,22.19072 0.99999933,19.88472 1,16.85862 c -6.7e-7,-0.6744 0.3597128,-1.0845 1.0791413,-1.2305 0.643696,-0.055 1.2968599,-0.1001 1.9594936,-0.1367 -0.094666,-1.4583 -0.1419959,-2.5976 -0.1419923,-3.418 -3.6e-6,-3.1354 0.634228,-5.4139 1.9026967,-6.83586 2.5179885,-2.82553 6.5884297,-4.23824 12.2113367,-4.23834 0.378628,10e-5 0.605815,0.10951 0.681562,0.32814 0.151441,0.82042 0.369162,2.03266 0.653165,3.63672 0.01891,0.14591 0.141973,0.65636 0.369181,1.53125 0.17037,0.67449 0.255565,1.19409 0.255586,1.55859 -2.1e-5,0.4376 -0.672116,0.7201 -2.016291,0.8477 -1.552465,0.1641 -2.508546,0.4375 -2.868244,0.8203 -0.62478,0.6563 -0.937163,1.9415 -0.93715,3.8555 -1.3e-5,0.6015 0.04732,1.1666 0.141993,1.6953 0.53009,0 1.353645,-0.019 2.470666,-0.055 1.116988,-0.036 1.959475,-0.055 2.527462,-0.055 0.56795,0 0.851934,0.2006 0.851954,0.6015 -2e-5,0.8569 0.0095,2.1511 0.0284,3.8829 0.01891,1.7135 0.02838,2.9987 0.0284,3.8555" />
  <path
     inkscape:connector-curvature="0"
     style="font-size:57.06980133px;font-style:normal;font-variant:normal;font-weight:bold;font-stretch:normal;text-align:start;line-height:100%;letter-spacing:0px;word-spacing:0px;writing-mode:lr-tb;text-anchor:start;fill:#3d8e8e;fill-opacity:1;stroke:none;font-family:Berlin Sans FB Demi;-inkscape-font-specification:Berlin Sans FB Demi Bold"
     id="path22211"
     d="m 42.120965,24.10542 c -2.1e-5,0.7109 -0.407065,1.0664 -1.221133,1.0664 -0.359734,0 -0.889838,-0.019 -1.590314,-0.055 -0.68158,-0.055 -1.192752,-0.082 -1.533516,-0.082 -1.571397,0 -2.641071,0.2369 -3.209026,0.7109 -0.567982,0.4739 -0.851967,1.4309 -0.851954,2.871 -1.3e-5,0.784 0.0095,1.9779 0.0284,3.5821 0.03785,1.5859 0.05679,2.7709 0.0568,3.5547 -1.3e-5,0.5286 0.03785,1.3215 0.113593,2.3789 0.07572,1.039 0.113581,1.8138 0.113595,2.3242 -1.4e-5,0.4375 -0.312396,0.6836 -0.93715,0.7382 -0.908762,0.073 -2.300285,0.1095 -4.174573,0.1095 -1.798575,0 -3.237429,-0.055 -4.316565,-0.1641 -0.62477,-0.073 -0.937153,-0.3737 -0.93715,-0.9024 -3e-6,-1.4583 0.0095,-3.6367 0.0284,-6.5351 0.01892,-2.9167 0.02839,-5.1041 0.0284,-6.5625 -3e-6,-4.2838 -0.407047,-7.8111 -1.221134,-10.582 -0.03787,-0.1641 -0.05679,-0.3008 -0.05679,-0.4102 -10e-7,-0.2734 0.14199,-0.4557 0.425977,-0.5468 1.041273,-0.1094 2.565322,-0.3099 4.572151,-0.6016 2.991294,-0.5651 4.534276,-0.8476 4.628949,-0.8477 0.34077,10e-5 0.558491,0.5743 0.653164,1.7227 0.09465,1.1484 0.26504,1.7226 0.511172,1.7226 -0.265064,0 0.51116,-0.4739 2.328674,-1.4219 1.817485,-0.966 3.568721,-1.4491 5.253715,-1.4492 1.060187,10e-5 1.590292,0.2188 1.590313,0.6563 -2.1e-5,0.5287 -0.05682,1.2761 -0.170391,2.2421 -0.113615,1.0392 -0.179878,1.7866 -0.198789,2.2423 -2.1e-5,0.5286 0.0095,1.2305 0.0284,2.1055 0.03784,1.0754 0.05677,1.7864 0.0568,2.1327" />
  <path
     inkscape:connector-curvature="0"
     style="font-size:57.06980133px;font-style:normal;font-variant:normal;font-weight:bold;font-stretch:normal;text-align:start;line-height:100%;letter-spacing:0px;word-spacing:0px;writing-mode:lr-tb;text-anchor:start;fill:#3d8e8e;fill-opacity:1;stroke:none;font-family:Berlin Sans FB Demi;-inkscape-font-specification:Berlin Sans FB Demi Bold"
     id="path22217"
     d="m 131.97369,27.63272 c -3e-5,-1.5494 -0.51119,-2.8254 -1.53351,-3.828 -1.00344,-1.0208 -2.31923,-1.5313 -3.94739,-1.5313 -1.6282,0 -2.94399,0.5013 -3.94739,1.5039 -1.00343,1.0026 -1.50513,2.2878 -1.50512,3.8554 -10e-6,1.4766 0.5301,2.7436 1.59031,3.8008 1.06021,1.0573 2.3476,1.586 3.8622,1.586 1.60923,0 2.92502,-0.5013 3.94739,-1.504 1.02232,-1.0207 1.53348,-2.315 1.53351,-3.8828 m 9.1443,-0.164 c -3e-5,1.4036 0.0852,3.4909 0.25559,6.2617 0.17036,2.7709 0.25555,4.849 0.25558,6.2344 -3e-5,0.7292 -0.33134,1.1211 -0.99394,1.1758 -2.34764,0.164 -5.03602,0.2461 -8.06517,0.2461 -0.35973,0 -0.60585,-0.5196 -0.73835,-1.5586 -0.11362,-1.0574 -0.25561,-1.5951 -0.42599,-1.6133 -0.15147,0.073 -0.35026,0.2278 -0.59635,0.4649 -2.12044,2.0598 -4.39232,3.0898 -6.81564,3.0898 -3.69181,0 -6.74938,-1.4036 -9.1727,-4.211 -2.29082,-2.6249 -3.43622,-5.7603 -3.43622,-9.4062 0,-4.211 1.18327,-7.6016 3.54982,-10.1719 2.46118,-2.6614 5.83113,-3.9921 10.10984,-3.9921 2.97236,0 5.31997,1.0025 7.04282,3.0077 0.0757,0.091 0.14197,0.1368 0.19879,0.1368 0.17037,0 0.35969,-0.4375 0.56797,-1.3125 0.22716,-0.8933 0.49222,-1.3398 0.79516,-1.3399 0.70047,10e-5 2.03519,0.1914 4.00418,0.5742 1.87426,0.3646 3.21846,0.6745 4.03258,0.9298 0.28396,0.1094 0.42595,0.2552 0.42598,0.4374 -3e-5,0.073 -0.0284,0.2643 -0.0852,0.5742 -0.60587,3.2996 -0.90878,6.7904 -0.90875,10.4727" />
  <text
     xml:space="preserve"
     style="font-size:18px;font-style:normal;font-variant:normal;font-weight:bold;font-stretch:normal;text-align:start;line-height:100%;letter-spacing:0px;word-spacing:0px;writing-mode:lr-tb;text-anchor:start;fill:#ff9900;fill-opacity:1;stroke:none;font-family:Berlin Sans FB Demi;-inkscape-font-specification:Berlin Sans FB Demi Bold"
     x="0.65722656"
     y="58.045307"
     id="text7192"
     sodipodi:linespacing="100%"><tspan
       sodipodi:role="line"
       id="tspan7194"
       x="0.65722656"
       y="58.045307">deliberad</tspan></text>
  <text
     xml:space="preserve"
     style="font-size:20.14495087px;font-style:normal;font-variant:normal;font-weight:bold;font-stretch:normal;text-align:start;line-height:100%;letter-spacing:0px;word-spacing:0px;writing-mode:lr-tb;text-anchor:start;fill:#ff9900;fill-opacity:1;stroke:none;font-family:Berlin Sans FB Demi;-inkscape-font-specification:Berlin Sans FB Demi Bold"
     x="69.453125"
     y="64.962212"
     id="text7196"
     sodipodi:linespacing="100%"
     transform="scale(1.119164,0.89352413)"><tspan
       sodipodi:role="line"
       id="tspan7198"
       x="69.453125"
       y="64.962212"
       style="font-size:13.42996788px;fill:#ff9900;fill-opacity:1">ame</tspan></text>
  <text
     xml:space="preserve"
     style="font-size:18px;font-style:normal;font-variant:normal;font-weight:bold;font-stretch:normal;text-align:start;line-height:100%;letter-spacing:0px;word-spacing:0px;writing-mode:lr-tb;text-anchor:start;fill:#ff9900;fill-opacity:1;stroke:none;font-family:Berlin Sans FB Demi;-inkscape-font-specification:Berlin Sans FB Demi Bold"
     x="111.88997"
     y="57.854366"
     id="text7200"
     sodipodi:linespacing="100%"><tspan
       sodipodi:role="line"
       id="tspan7202"
       x="111.88997"
       y="57.854366">nte</tspan></text>
  <text
     xml:space="preserve"
     style="font-size:12.76811314px;font-style:normal;font-variant:normal;font-weight:bold;font-stretch:normal;text-align:start;line-height:100%;letter-spacing:0px;word-spacing:0px;writing-mode:lr-tb;text-anchor:start;fill:#ff9900;fill-opacity:1;stroke:none;font-family:Berlin Sans FB Demi;-inkscape-font-specification:Berlin Sans FB Demi Bold"
     x="73.044434"
     y="12.398705"
     id="text7204"
     sodipodi:linespacing="100%"
     transform="scale(1.0640095,0.93984126)"><tspan
       sodipodi:role="line"
       id="tspan7206"
       x="73.044434"
       y="12.398705"
       style="font-size:12.76811314px;fill:#ff9900;fill-opacity:1">viver</tspan></text>
  <g
     id="g8069"
     transform="translate(0,34)">
    <path
       id="path8026"
       style="fill:#b2e5e5;fill-opacity:1;stroke:none"
       d="m 89,-13.28125 c -0.817452,-0.01 -1.568444,0.4787 -1.84375,1.25 -0.442243,1.2391 0.486044,2.4603 1.84375,2.5 0.475738,0.014 1.595347,-0.43825 1.78125,-1.40625 0.185167,-0.9599 -0.304805,-2.03415 -1.34375,-2.28125 -0.153091,-0.036 -0.28612,-0.0615 -0.4375,-0.0625 z m 0,0.84375 c 0.231923,0 0.452857,0.10295 0.5625,0.28125 0.06397,0.1054 0.182002,0.23945 0.03125,0.34375 -0.114137,0.079 -0.264054,0.18025 -0.40625,0.03125 -0.09768,-0.1026 -0.179978,-0.25165 -0.34375,-0.09375 -0.414904,0.4387 0.263783,0.2874 0.25,0.375 0.0072,0.082 0.01077,-0.0205 0.03125,0.1875 -0.01666,0.078 -0.644856,0.04095 -0.21875,0.34375 0.112137,0.073 0.177488,0.067 0.25,0 0.041,-0.039 0.05715,-0.11015 0.09375,-0.15625 0.112414,-0.1415 0.251491,-0.06425 0.375,-0.03125 0.169718,0.046 0.121944,0.16725 0.09375,0.28125 -0.105283,0.4283 -0.836909,0.6265 -1.1875,0.3125 -0.413253,-0.37 -0.506999,-1.2072 -0.15625,-1.625 0.142829,-0.1701 0.393077,-0.2548 0.625,-0.25 z m 7.5625,-1.46875 c -0.97873,-0.0024 -1.639139,1.36755 -1.84375,1.84375 -0.158238,0.3683 -0.460199,0.3184 -0.8125,0.1875 -1.139487,-0.2392 -1.657742,-0.15955 -2.75,0.21875 -0.02496,1.9043 -1.406502,2.4815 -2.3125,2.4375 -0.09947,0.1974 -0.05509,0.1409 -0.15625,0.375 -0.108918,0.2523 -0.17135,0.51655 -0.25,0.78125 -0.847885,-0.3806 -0.945418,1.4585 -1.0625,1.4375 -0.18997,0.0199 -0.113908,-1.43275 -0.53125,-1.46875 -0.519355,-0.0443 -0.561774,2.39075 0.46875,2.46875 0.913037,0.0692 1.06129,-1.51 1.125,-1.5 0.06369,0.007 0.01463,0.68205 0.09375,1.03125 0.313327,1.3846 0.564753,1.6887 1.46875,2.5625 0.575466,0.5562 0.32968,1.15985 0.1875,1.65625 -0.17027,0.555 0.116705,0.95 0.375,1 0.399574,0.077 1.227293,0.08265 1.6875,-0.03125 0.258362,-0.0318 0.430536,-0.48375 0.28125,-0.90625 -0.181065,-0.5135 -0.02775,-1.279 0.53125,-1.25 0.252874,0.013 1.04447,-0.01275 1.4375,0.03125 0.426289,0.0477 0.578364,0.69215 0.46875,1.15625 -0.195729,0.5547 -0.0868,0.97325 0.3125,1.03125 0.360465,0.0741 1.15717,0.06985 1.6875,-0.03125 0.320389,-0.0821 0.607702,-0.50505 0.4375,-0.96875 C 97.143003,-2.41715 97.148686,-3.1545 97.375,-3.375 97.542953,-3.539 97.844664,-3.76675 98,-3.84375 c 1.161077,-0.8224 1.280906,-1.1946 1.5625,-2.8125 0.08883,-0.5098 -0.331087,-0.40605 -0.875,-0.40625 -0.647074,-6e-4 -0.75205,0.00645 -0.8125,-0.59375 -0.09747,-0.9708 -0.362595,-1.74955 -0.9375,-2.53125 -0.224563,-0.2436 -0.10758,-0.4892 -0.09375,-0.8125 0.02251,-0.5268 0.01773,-1.0354 0.03125,-1.5625 0.0065,-0.255 -0.05274,-1.40475 -0.3125,-1.34375 z m -3.90625,3.03125 c 0.211453,0.01905 0.402283,0.1435 0.53125,0.40625 0.115013,0.2345 -0.415444,0.42835 -0.8125,0.65625 -0.335209,0.1924 -0.722228,0.50965 -0.9375,0.78125 -0.199213,0.2512 -0.395515,0.4839 -0.625,0.9375 -0.180256,0.3563 -0.384923,1.07 -0.6875,1 -1.198072,-0.2762 0.203352,-2.07795 0.65625,-2.59375 0.368617,-0.419625 1.24064,-1.244636 1.875,-1.1875 z m 3,2.5 c 0.522953,0.0485 0.87199,0.35555 0.9375,0.90625 0.05861,0.4991 -0.374413,0.9245 -0.90625,0.9375 -0.579672,0.0129 -0.9496,-0.2201 -1,-0.8125 -0.04631,-0.555 0.364272,-1.01325 0.96875,-1.03125 z m 12.03676,8.40622 c -3e-5,5.1953 -1.13598,8.9232 -3.40782,11.1836 -2.34763,2.3151 -6.24768,3.4726 -11.700164,3.4727 -1.590327,-10e-5 -3.758074,-0.2462 -6.503247,-0.7383 -3.502481,-0.6199 -5.253717,-1.349 -5.253714,-2.1875 -3e-6,-0.3464 0.40704,-2.1329 1.221134,-5.3594 0.132521,-0.5104 0.340776,-0.7656 0.624766,-0.7656 0.09466,0.019 0.198784,0.055 0.312383,0.1093 2.915566,1.3855 5.613416,2.0782 8.09356,2.0782 1.363111,0 2.716769,-0.3281 4.06098,-0.9844 1.628159,-0.7839 2.442246,-1.7682 2.442267,-2.9532 l 0,-1.832 c -1.931114,1.75 -4.411244,2.6251 -7.440395,2.6251 -3.559284,0 -6.484322,-1.2305 -8.775125,-3.6915 -2.215081,-2.3697 -3.32262,-5.2864 -3.322619,-8.7499 -10e-7,-3.4818 1.060207,-6.3711 3.180628,-8.668 2.215072,-2.388 5.111712,-3.582 8.689928,-3.582 2.858762,0 5.045441,0.9844 6.560043,2.9531 0.302897,0.401 0.511153,0.6016 0.624767,0.6015 0.170369,10e-5 0.255565,-0.3281 0.255586,-0.9843 -2.1e-5,-1.4584 0.170369,-2.1875 0.511172,-2.1875 0.302895,0 1.940538,0.1549 4.91293,0.4648 2.97234,0.2917 4.51533,0.4558 4.62896,0.4922 0.32181,0.1094 0.48273,0.3464 0.48276,0.7109 -3e-5,1.2579 -0.0474,3.1354 -0.14199,5.6328 -0.0757,2.4975 -0.11363,4.375 -0.1136,5.6328 -3e-5,0.7474 0.009,1.8685 0.0284,3.3633 0.0189,1.4948 0.0283,2.6159 0.0284,3.3633" />
  </g>
</svg>
