<?xml version="1.0" encoding="UTF-8" standalone="no"?>
<!-- Created with Inkscape (http://www.inkscape.org/) -->

<svg
   xmlns:dc="http://purl.org/dc/elements/1.1/"
   xmlns:cc="http://creativecommons.org/ns#"
   xmlns:rdf="http://www.w3.org/1999/02/22-rdf-syntax-ns#"
   xmlns:svg="http://www.w3.org/2000/svg"
   xmlns="http://www.w3.org/2000/svg"
   version="1.1"
   width="143"
   height="59"
   id="svg21664">
  <defs
     id="defs21666" />
  <metadata
     id="metadata21669">
    <rdf:RDF>
      <cc:Work
         rdf:about="">
        <dc:format>image/svg+xml</dc:format>
        <dc:type
           rdf:resource="http://purl.org/dc/dcmitype/StillImage" />
        <dc:title></dc:title>
      </cc:Work>
    </rdf:RDF>
  </metadata>
  <g
     id="g3051">
    <g
       id="g4611">
      <path
         d="m 84.660726,7.5864079 c -8e-6,0.6679721 -0.02432,1.0625029 -0.07292,1.1835937 -0.101653,0.2773463 -0.406584,0.7480493 -0.914799,1.4121094 -0.441937,0.570313 -0.819788,1.015625 -1.133554,1.335938 -0.114907,0.121093 -0.461823,0.18164 -1.040749,0.18164 -0.503804,0 -0.830833,-0.01563 -0.981087,-0.04688 -0.09281,-0.01953 -0.170146,-0.05859 -0.232013,-0.117187 C 80.020438,11.281719 79.642587,10.840313 79.152045,10.211406 78.626146,9.5356272 78.312375,9.0727367 78.210731,8.8227341 78.100248,8.5532059 78.045006,8.1489095 78.045007,7.6098435 c -10e-7,-0.1523395 0.0022,-0.3808549 0.0066,-0.6855469 0.0045,-0.3085886 0.0066,-0.5410102 0.0066,-0.6972656 0,-0.1015569 0.07734,-0.152338 0.232014,-0.1523437 0.225383,5.7e-6 0.563462,0.00587 1.014232,0.017578 0.455187,0.011725 0.795475,0.017584 1.020861,0.017578 0.101643,5.6e-6 0.152465,0.060552 0.152467,0.1816407 -2e-6,0.1093802 -0.0088,0.2753957 -0.02652,0.4980468 -0.01768,0.2187547 -0.02652,0.3847702 -0.02652,0.4980469 -3e-6,0.4062539 0.01325,0.7382848 0.03977,0.9960937 0.01325,0.1328157 0.141415,0.3828155 0.384481,0.75 0.251897,0.3867207 0.435298,0.58008 0.550204,0.5800782 0.110479,1.8e-6 0.287252,-0.1894511 0.530317,-0.5683595 0.23422,-0.3554658 0.36017,-0.597653 0.377852,-0.7265625 0.03535,-0.2773401 0.05302,-0.6132772 0.05303,-1.0078124 -5e-6,-0.1132768 -0.01326,-0.2831985 -0.03977,-0.5097656 -0.02652,-0.2304637 -0.03978,-0.4003854 -0.03977,-0.5097656 -4e-6,-0.1210882 0.0464,-0.1816351 0.139209,-0.1816407 0.106056,5.6e-6 0.262944,0.00196 0.470657,0.00586 0.212122,0.00391 0.371217,0.00587 0.477286,0.00586 0.106056,5.4e-6 0.265153,-0.0078 0.477285,-0.023437 0.216541,-0.01562 0.377846,-0.023432 0.483916,-0.023437 0.110476,5.6e-6 0.183394,0.050787 0.218756,0.1523437 0.07513,0.2226615 0.112685,0.675786 0.112692,1.359375"
         id="path8705"
         style="font-size:12.76376057px;font-style:normal;font-variant:normal;font-weight:bold;font-stretch:normal;text-align:start;line-height:100%;letter-spacing:0px;word-spacing:0px;writing-mode:lr-tb;text-anchor:start;fill:#b2e5e5;fill-opacity:1;stroke:none;font-family:Berlin Sans FB Demi;-inkscape-font-specification:Berlin Sans FB Demi Bold" />
      <path
         d="m 88.200596,4.6098456 c -3e-6,0.6796938 -0.433095,1.0195371 -1.299278,1.0195311 -0.371225,6e-6 -0.678366,-0.085932 -0.921427,-0.2578125 -0.265159,-0.1874935 -0.397739,-0.4413994 -0.397739,-0.7617186 0,-0.3046802 0.136999,-0.55468 0.410996,-0.7500001 0.251901,-0.1796794 0.554623,-0.2695231 0.90817,-0.2695312 0.344704,8.1e-6 0.643007,0.091805 0.894911,0.2753906 0.269575,0.1953201 0.404364,0.4433667 0.404367,0.7441407 M 88.028243,8.963361 c -3e-6,0.2851586 0.0066,0.7109391 0.01989,1.277343 0.01325,0.562502 0.01988,0.984376 0.01989,1.265625 -3e-6,0.08203 -0.05524,0.13086 -0.165724,0.146485 -0.150259,0.02344 -0.488336,0.03515 -1.014233,0.03515 -0.530319,0 -0.870606,-0.01172 -1.020862,-0.03515 -0.09723,-0.01563 -0.156886,-0.04102 -0.178982,-0.07617 -0.0088,-0.01563 -0.01325,-0.07422 -0.01325,-0.175781 -10e-7,-0.269531 0.0066,-0.673827 0.01989,-1.21289 0.01325,-0.5429672 0.01989,-0.9511702 0.01989,-1.22461 0,-1.1093712 -0.04861,-1.9921827 -0.145837,-2.6484374 -0.0088,-0.062495 -0.01326,-0.1035101 -0.01326,-0.1230469 0,-0.07812 0.05966,-0.1171818 0.178982,-0.1171875 0.123741,5.7e-6 0.311562,0.011725 0.563463,0.035156 0.256319,0.023443 0.448559,0.035162 0.576721,0.035156 0.128158,5.5e-6 0.320398,-0.00976 0.57672,-0.029296 0.256317,-0.019525 0.448558,-0.029292 0.576721,-0.029297 0.106056,5.6e-6 0.159092,0.039068 0.159095,0.1171875 -3e-6,0.01563 -0.0045,0.052739 -0.01325,0.1113281 -0.09723,0.7617233 -0.145841,1.6445349 -0.145838,2.6484375"
         id="path8707"
         style="font-size:12.76376057px;font-style:normal;font-variant:normal;font-weight:bold;font-stretch:normal;text-align:start;line-height:100%;letter-spacing:0px;word-spacing:0px;writing-mode:lr-tb;text-anchor:start;fill:#b2e5e5;fill-opacity:1;stroke:none;font-family:Berlin Sans FB Demi;-inkscape-font-specification:Berlin Sans FB Demi Bold" />
      <path
         d="m 95.691334,7.5864079 c -7e-6,0.6679721 -0.02432,1.0625029 -0.07292,1.1835937 -0.101653,0.2773463 -0.406584,0.7480493 -0.914798,1.4121094 -0.441937,0.570313 -0.819788,1.015625 -1.133554,1.335938 -0.114907,0.121093 -0.461823,0.18164 -1.040749,0.18164 -0.503805,0 -0.830833,-0.01563 -0.981087,-0.04688 -0.0928,-0.01953 -0.170147,-0.05859 -0.232015,-0.117187 C 91.051047,11.281719 90.673197,10.840313 90.182654,10.211406 89.656755,9.5356272 89.342984,9.0727367 89.241341,8.8227341 89.130858,8.5532059 89.075616,8.1489095 89.075616,7.6098435 c 0,-0.1523395 0.0022,-0.3808549 0.0066,-0.6855469 0.0045,-0.3085886 0.0066,-0.5410102 0.0066,-0.6972656 0,-0.1015569 0.07734,-0.152338 0.232015,-0.1523437 0.225383,5.7e-6 0.563461,0.00587 1.014232,0.017578 0.455187,0.011725 0.795474,0.017584 1.020861,0.017578 0.101642,5.6e-6 0.152464,0.060552 0.152466,0.1816407 -2e-6,0.1093802 -0.0088,0.2753957 -0.02652,0.4980468 -0.01768,0.2187547 -0.02652,0.3847702 -0.02652,0.4980469 -3e-6,0.4062539 0.01325,0.7382848 0.03977,0.9960937 0.01325,0.1328157 0.141415,0.3828155 0.384479,0.75 0.251899,0.3867207 0.4353,0.58008 0.550206,0.5800782 0.110479,1.8e-6 0.287251,-0.1894511 0.530317,-0.5683595 0.234219,-0.3554658 0.36017,-0.597653 0.377851,-0.7265625 0.03536,-0.2773401 0.05303,-0.6132772 0.05303,-1.0078124 -4e-6,-0.1132768 -0.01326,-0.2831985 -0.03977,-0.5097656 -0.02652,-0.2304637 -0.03978,-0.4003854 -0.03977,-0.5097656 -4e-6,-0.1210882 0.0464,-0.1816351 0.139209,-0.1816407 0.106056,5.6e-6 0.262944,0.00196 0.470656,0.00586 0.212122,0.00391 0.371217,0.00587 0.477286,0.00586 0.106056,5.4e-6 0.265153,-0.0078 0.477286,-0.023437 0.216541,-0.01562 0.377845,-0.023432 0.483915,-0.023437 0.110476,5.6e-6 0.183395,0.050787 0.218757,0.1523437 0.07512,0.2226615 0.112685,0.675786 0.112692,1.359375"
         id="path8709"
         style="font-size:12.76376057px;font-style:normal;font-variant:normal;font-weight:bold;font-stretch:normal;text-align:start;line-height:100%;letter-spacing:0px;word-spacing:0px;writing-mode:lr-tb;text-anchor:start;fill:#b2e5e5;fill-opacity:1;stroke:none;font-family:Berlin Sans FB Demi;-inkscape-font-specification:Berlin Sans FB Demi Bold" />
      <path
         d="m 102.67827,8.4711734 c -1e-5,0.3945341 -0.14363,0.6191433 -0.43088,0.6738282 -0.0486,0.00781 -0.50602,0.050784 -1.3722,0.1289062 -0.52148,0.050784 -1.299283,0.1113304 -2.333398,0.1816402 0.06187,0.2539085 0.249688,0.4472678 0.563462,0.580079 0.256317,0.109376 0.547991,0.164064 0.875024,0.164062 0.393312,2e-6 0.788842,-0.09374 1.186582,-0.2812495 0.16793,-0.093744 0.33587,-0.1874984 0.50381,-0.2812504 0.0928,0.039064 0.24747,0.2382831 0.46402,0.5976559 0.22096,0.359376 0.33145,0.587892 0.33145,0.685547 0,0.02735 -0.0331,0.07227 -0.0994,0.134766 -0.53916,0.511719 -1.37662,0.767578 -2.512378,0.767578 -1.051799,0 -1.900307,-0.271485 -2.545525,-0.814454 -0.662898,-0.550779 -0.994346,-1.2871063 -0.994346,-2.2089835 0,-0.8984337 0.296094,-1.6347611 0.888282,-2.2089843 0.609865,-0.5937443 1.418598,-0.890619 2.426204,-0.890625 0.848503,6e-6 1.568853,0.2734432 2.161043,0.8203125 0.59218,0.5468796 0.88828,1.1972695 0.88828,1.9511717 m -2.32014,-0.3574218 c 0,-0.2421837 -0.0972,-0.4550741 -0.29167,-0.6386718 -0.194459,-0.1835893 -0.426472,-0.2753862 -0.696047,-0.2753906 -0.27842,4.4e-6 -0.508224,0.10352 -0.689413,0.3105468 -0.167936,0.1914103 -0.251904,0.4160194 -0.251901,0.6738281 -3e-6,0.1054722 0.06187,0.1582065 0.185611,0.1582031 0.327027,3.4e-6 0.835247,-0.044918 1.52466,-0.1347656 0.14584,-0.019528 0.21876,-0.050778 0.21876,-0.09375"
         id="path8711"
         style="font-size:12.76376057px;font-style:normal;font-variant:normal;font-weight:bold;font-stretch:normal;text-align:start;line-height:100%;letter-spacing:0px;word-spacing:0px;writing-mode:lr-tb;text-anchor:start;fill:#b2e5e5;fill-opacity:1;stroke:none;font-family:Berlin Sans FB Demi;-inkscape-font-specification:Berlin Sans FB Demi Bold" />
      <path
         d="m 107.81572,8.0024236 c 0,0.1523472 -0.095,0.228519 -0.28505,0.2285155 -0.0839,3.5e-6 -0.20771,-0.0039 -0.37121,-0.011719 -0.1591,-0.011715 -0.27842,-0.017575 -0.35797,-0.017578 -0.36681,3.4e-6 -0.6165,0.050785 -0.74907,0.1523437 -0.13259,0.1015658 -0.19888,0.3066436 -0.19887,0.6152344 -1e-5,0.1679713 0.002,0.4238304 0.007,0.7675784 0.009,0.3398444 0.0132,0.5937514 0.0133,0.7617184 0,0.113282 0.009,0.283203 0.0265,0.509765 0.0177,0.222657 0.0265,0.388673 0.0265,0.498047 0,0.09375 -0.0729,0.146485 -0.21876,0.158203 -0.21213,0.01563 -0.53695,0.02344 -0.97446,0.02344 -0.41983,0 -0.7557,-0.01172 -1.0076,-0.03515 -0.14584,-0.01563 -0.21876,-0.08007 -0.21876,-0.193359 0,-0.312499 0.002,-0.779297 0.007,-1.400391 0.004,-0.6249968 0.007,-1.0937466 0.007,-1.4062494 0,-0.9179648 -0.095,-1.6738233 -0.28504,-2.267578 -0.009,-0.035151 -0.0133,-0.064448 -0.0133,-0.087891 0,-0.058588 0.0332,-0.097651 0.0994,-0.1171875 0.24307,-0.023432 0.59882,-0.066401 1.06727,-0.1289062 0.69825,-0.1210881 1.05842,-0.1816348 1.08052,-0.1816407 0.0795,5.9e-6 0.13037,0.1230526 0.15247,0.3691407 0.0221,0.2460989 0.0619,0.3691456 0.11932,0.3691406 -0.0619,5e-6 0.11932,-0.1015574 0.54357,-0.3046875 0.42426,-0.2070257 0.83304,-0.3105412 1.22637,-0.3105469 0.24747,5.7e-6 0.37121,0.04688 0.37122,0.1406251 -1e-5,0.1132865 -0.0133,0.2734426 -0.0398,0.4804687 -0.0265,0.222661 -0.042,0.3828171 -0.0464,0.4804687 -1e-5,0.1132856 0.002,0.2636762 0.006,0.4511719 0.008,0.2304725 0.0133,0.3828162 0.0133,0.4570312"
         id="path8713"
         style="font-size:12.76376057px;font-style:normal;font-variant:normal;font-weight:bold;font-stretch:normal;text-align:start;line-height:100%;letter-spacing:0px;word-spacing:0px;writing-mode:lr-tb;text-anchor:start;fill:#b2e5e5;fill-opacity:1;stroke:none;font-family:Berlin Sans FB Demi;-inkscape-font-specification:Berlin Sans FB Demi Bold" />
    </g>
    <g
       id="g3044">
      <path
         d="m 20.158894,23.392289 c -1.9e-5,0.437518 -0.246055,0.656267 -0.738107,0.656251 -2.044009,1.6e-5 -3.652705,-0.05466 -4.826093,-0.164063 0.05676,1.367203 0.113541,3.27215 0.170333,5.714844 0.01891,1.039072 0.104077,2.843759 0.255499,5.414062 0.132466,2.315109 0.198706,4.119794 0.198721,5.414063 -1.5e-5,0.382812 -0.264976,0.601562 -0.794885,0.65625 -0.643493,0.07292 -2.252189,0.109375 -4.8260926,0.109375 -2.1386284,0 -3.5296771,-0.05469 -4.1731503,-0.164063 C 4.7816358,40.919634 4.4598966,40.545936 4.4599007,39.907914 l 0,-15.066405 C 4.4598966,24.31288 4.08138,24.048556 3.3243497,24.04854 3.1918658,24.048556 2.9742187,24.05764 2.6714078,24.07588 2.3875179,24.09413 2.1793337,24.10324 2.0468547,24.10322 1.5169296,24.103241 1.242505,23.957408 1.2235801,23.665724 1.0532467,22.079809 0.96808049,19.773822 0.96808117,16.747759 0.96808049,16.073304 1.3276713,15.663148 2.0468547,15.517289 2.6903313,15.462628 3.3432724,15.417055 4.0056803,15.380571 3.9110474,13.922265 3.8637329,12.782943 3.8637364,11.962602 3.8637329,8.8272178 4.4977482,6.5485742 5.7657845,5.1266648 8.2829147,2.3011827 12.351969,0.88842364 17.972959,0.8883835 c 0.378498,4.014e-5 0.605609,0.10941508 0.68133,0.328125 0.151389,0.8203515 0.369035,2.0325898 0.652942,3.6367187 0.01891,0.1458694 0.141925,0.6562856 0.369054,1.53125 0.170313,0.6745132 0.25548,1.1940439 0.255499,1.5585938 -1.9e-5,0.4375327 -0.671886,0.7200844 -2.015603,0.8476563 -1.551936,0.1640945 -2.507691,0.4375317 -2.867266,0.8203124 -0.624567,0.6562813 -0.936844,1.9414363 -0.93683,3.8554683 -1.4e-5,0.60159 0.0473,1.166693 0.141943,1.695313 0.52991,2.6e-5 1.353184,-0.01821 2.469824,-0.05468 1.116608,-0.03643 1.958807,-0.05467 2.526601,-0.05468 0.567757,2.6e-5 0.851644,0.200546 0.851663,0.601562 -1.9e-5,0.856796 0.0095,2.151065 0.02839,3.882813 0.01891,1.713561 0.02837,2.998717 0.02839,3.855468"
         id="path8546"
         style="font-size:57.06007385px;font-style:normal;font-variant:normal;font-weight:bold;font-stretch:normal;text-align:start;line-height:100%;letter-spacing:0px;word-spacing:0px;writing-mode:lr-tb;text-anchor:start;fill:#3d8e8e;fill-opacity:1;stroke:none;font-family:Berlin Sans FB Demi;-inkscape-font-specification:Berlin Sans FB Demi Bold" />
      <path
         d="m 42.07503,23.993852 c -2.1e-5,0.710954 -0.406927,1.066423 -1.220718,1.066406 -0.359611,1.7e-5 -0.889534,-0.01822 -1.589771,-0.05469 -0.681349,-0.05467 -1.192347,-0.08202 -1.532994,-0.08203 -1.570861,1.6e-5 -2.640171,0.236995 -3.207932,0.710937 -0.567788,0.473974 -0.851676,1.431003 -0.851663,2.871093 -1.3e-5,0.783867 0.0095,1.977876 0.02839,3.582032 0.03784,1.585945 0.05676,2.770839 0.05678,3.554687 -1.3e-5,0.528651 0.03784,1.321619 0.113555,2.378907 0.07569,1.039064 0.113542,1.813803 0.113555,2.324218 -1.3e-5,0.437501 -0.31229,0.683594 -0.936829,0.738282 -0.908453,0.07292 -2.299501,0.109374 -4.173151,0.109374 -1.797962,0 -3.236325,-0.05468 -4.315094,-0.164062 -0.624556,-0.07292 -0.936832,-0.373697 -0.936829,-0.902344 -3e-6,-1.458331 0.0095,-3.636714 0.02839,-6.535156 0.01892,-2.916656 0.02839,-5.104154 0.02839,-6.562499 -3e-6,-4.283837 -0.406908,-7.811177 -1.220717,-10.582032 -0.03785,-0.164037 -0.05677,-0.300756 -0.05677,-0.410156 -1e-6,-0.273413 0.141942,-0.455704 0.425832,-0.546875 1.040918,-0.109349 2.564448,-0.30987 4.570592,-0.601563 2.990275,-0.565077 4.532732,-0.847629 4.627372,-0.847656 0.340654,2.7e-5 0.5583,0.574245 0.652941,1.722657 0.09462,1.14846 0.264951,1.72268 0.510999,1.722656 -0.264975,2.4e-5 0.510985,-0.473934 2.32788,-1.421875 1.816865,-0.96612 3.567503,-1.449193 5.251923,-1.449219 1.059827,2.6e-5 1.58975,0.218776 1.589771,0.65625 -2.1e-5,0.528671 -0.0568,1.276066 -0.170332,2.242187 -0.113576,1.039086 -0.179817,1.786481 -0.198721,2.242188 -2.2e-5,0.528666 0.0095,1.230489 0.02839,2.105469 0.03783,1.075539 0.05675,1.786475 0.05677,2.132812"
         id="path8548"
         style="font-size:57.06007385px;font-style:normal;font-variant:normal;font-weight:bold;font-stretch:normal;text-align:start;line-height:100%;letter-spacing:0px;word-spacing:0px;writing-mode:lr-tb;text-anchor:start;fill:#3d8e8e;fill-opacity:1;stroke:none;font-family:Berlin Sans FB Demi;-inkscape-font-specification:Berlin Sans FB Demi Bold" />
      <path
         d="m 74.608569,16.17354 c -3.1e-5,1.348982 -0.06627,3.372417 -0.198722,6.070312 -0.132512,2.697933 -0.198752,4.721368 -0.198721,6.070313 -3.1e-5,1.312511 0.04729,3.281259 0.141944,5.906249 0.0946,2.625005 0.141913,4.584638 0.141943,5.878907 -3e-5,0.492188 -0.236603,0.802084 -0.709719,0.929687 -0.719212,0.182291 -2.242741,0.273437 -4.570592,0.273438 -2.062942,-1e-6 -3.501306,-0.05469 -4.315095,-0.164062 -0.359612,-0.05468 -0.586722,-0.273438 -0.68133,-0.65625 -0.05679,-0.546874 -0.113577,-1.093749 -0.170333,-1.640626 -0.09465,-0.838538 -0.227131,-1.257808 -0.397443,-1.257812 0.264941,4e-6 -0.690813,0.619794 -2.867266,1.859375 -2.176489,1.239584 -4.154238,1.859374 -5.933255,1.859375 -5.015358,-1e-6 -7.986713,-2.178383 -8.914076,-6.535156 -0.416371,-2.02343 -0.624555,-4.958323 -0.624553,-8.804688 -2e-6,-4.15623 0.350126,-7.437478 1.050385,-9.84375 0.208181,-0.74737 0.59616,-1.121067 1.163939,-1.121094 0.870584,2.7e-5 2.195393,0.0091 3.974429,0.02734 1.77902,0.01825 3.103829,0.02737 3.974429,0.02734 0.586688,2.6e-5 0.880039,0.237005 0.880053,0.710938 -1.4e-5,0.127629 -0.01894,0.319035 -0.05677,0.574218 -0.397456,2.479189 -0.596177,4.994812 -0.596165,7.546875 -1.2e-5,3.171889 0.10408,5.341158 0.312277,6.507812 0.340652,2.005218 1.580294,3.007821 3.71893,3.007814 0.832719,7e-6 1.731697,-0.355461 2.696934,-1.066407 0.984123,-0.710929 1.495121,-1.449209 1.532993,-2.214844 0.03783,-0.674467 0.05676,-5.249984 0.05677,-13.726562 -2.1e-5,-0.601537 0.0473,-0.957006 0.141944,-1.066406 0.113533,-0.182266 0.454198,-0.273412 1.021996,-0.273438 0.927343,2.6e-5 2.318393,0.0091 4.173151,0.02734 1.87363,0.01825 3.274141,0.02737 4.201538,0.02734 0.567745,2.5e-5 0.898947,0.136744 0.993607,0.410155 0.03782,0.145859 0.05675,0.364609 0.05678,0.656251"
         id="path8550"
         style="font-size:57.06007385px;font-style:normal;font-variant:normal;font-weight:bold;font-stretch:normal;text-align:start;line-height:100%;letter-spacing:0px;word-spacing:0px;writing-mode:lr-tb;text-anchor:start;fill:#3d8e8e;fill-opacity:1;stroke:none;font-family:Berlin Sans FB Demi;-inkscape-font-specification:Berlin Sans FB Demi Bold" />
      <path
         d="m 141.03831,27.357133 c -3e-5,1.403658 0.0852,3.490896 0.2555,6.261719 0.1703,2.770838 0.25547,4.848961 0.2555,6.234375 -3e-5,0.729168 -0.33123,1.121093 -0.99361,1.175781 -2.34684,0.164063 -5.0343,0.246094 -8.06241,0.246094 -0.35961,0 -0.60565,-0.519531 -0.7381,-1.558593 -0.11358,-1.05729 -0.25553,-1.59505 -0.42585,-1.613282 -0.15142,0.07292 -0.35014,0.227867 -0.59615,0.464844 -2.11972,2.059896 -4.39081,3.089843 -6.81331,3.089844 -3.69055,-1e-6 -6.74708,-1.403645 -9.16957,-4.210938 -2.29004,-2.624993 -3.43505,-5.760407 -3.43505,-9.40625 0,-4.21092 1.18286,-7.601542 3.5486,-10.171874 2.46035,-2.661433 5.82915,-3.992161 10.1064,-3.992189 2.97135,2.8e-5 5.31815,1.002631 7.04042,3.007814 0.0757,0.09117 0.14192,0.136742 0.19872,0.136718 0.17031,2.4e-5 0.35958,-0.437476 0.56777,-1.3125 0.22709,-0.893203 0.49205,-1.339817 0.79489,-1.339844 0.70024,2.7e-5 2.03451,0.191433 4.00282,0.574219 1.87363,0.364609 3.21737,0.674505 4.03121,0.929687 0.28385,0.1094 0.4258,0.255234 0.42583,0.437501 -3e-5,0.07294 -0.0284,0.264346 -0.0852,0.574219 -0.60566,3.299499 -0.90848,6.790381 -0.90845,10.472655 m -9.14119,0.164063 c -2e-5,-1.549464 -0.51101,-2.825505 -1.53299,-3.828125 -1.00309,-1.020815 -2.31843,-1.531231 -3.94604,-1.53125 -1.62764,1.9e-5 -2.94298,0.50132 -3.94604,1.503906 -1.00308,1.002621 -1.50461,2.287776 -1.5046,3.855469 -1e-5,1.476574 0.5299,2.743501 1.58976,3.800781 1.05984,1.057301 2.34679,1.585946 3.86088,1.585938 1.60868,8e-6 2.92403,-0.501294 3.94604,-1.503907 1.02198,-1.020822 1.53297,-2.315092 1.53299,-3.882812"
         id="path8554"
         style="font-size:57.06007385px;font-style:normal;font-variant:normal;font-weight:bold;font-stretch:normal;text-align:start;line-height:100%;letter-spacing:0px;word-spacing:0px;writing-mode:lr-tb;text-anchor:start;fill:#3d8e8e;fill-opacity:1;stroke:none;font-family:Berlin Sans FB Demi;-inkscape-font-specification:Berlin Sans FB Demi Bold" />
      <path
         d="m 95.758071,25.511522 c 0.55229,0.05124 0.89956,0.387109 0.96875,0.96875 0.0619,0.527017 -0.407078,0.98645 -0.96875,1 -0.61219,0.01355 -0.97802,-0.249388 -1.03125,-0.875 -0.0489,-0.58615 0.392862,-1.07508 1.03125,-1.09375 z m 0.9375,-5.84375 c -1.033634,-0.0025 -1.72141,1.465845 -1.9375,1.96875 -0.167114,0.389007 -0.471685,0.32572 -0.84375,0.1875 -1.203408,-0.252586 -1.909138,-0.169552 -2.78125,0.15625 -0.775654,0.289769 -1.439603,0.894376 -1.96875,1.53125 -0.36427,0.438428 -0.566325,0.972061 -0.78125,1.5 -0.10992,0.270005 -0.19819,0.564272 -0.28125,0.84375 -0.895448,-0.40188 -1.001351,1.52227 -1.125,1.5 -0.200628,0.02105 -0.0905,-1.49368 -0.53125,-1.53125 -0.548489,-0.0468 -0.619583,2.5113 0.46875,2.59375 0.964256,0.07315 1.12021,-1.5695 1.1875,-1.5625 0.06727,0.0074 0.01019,0.693679 0.09375,1.0625 0.330903,1.462316 0.607792,1.795973 1.5625,2.71875 0.607749,0.587388 0.368906,1.225763 0.21875,1.75 -0.179821,0.586104 0.133466,0.97854 0.40625,1.03125 0.42199,0.08149 1.295227,0.120324 1.78125,0 0.2729,-0.03357 0.438912,-0.522549 0.28125,-0.96875 -0.191221,-0.542367 -0.02786,-1.34318 0.5625,-1.3125 0.26706,0.01362 1.116172,-0.01503 1.53125,0.03125 0.450207,0.05042 0.584514,0.728648 0.46875,1.21875 -0.206708,0.58587 -0.07796,1.00183 0.34375,1.0625 0.380686,0.07873 1.22117,0.07559 1.78125,-0.03125 0.338362,-0.0867 0.61725,-0.510318 0.4375,-1 -0.27801,-0.605542 -0.23901,-1.360883 0,-1.59375 0.177375,-0.173149 0.460949,-0.41827 0.625,-0.5 1.22621,-0.868479 1.39011,-1.291266 1.6875,-3 0.09382,-0.538372 -0.363074,-0.437289 -0.9375,-0.4375 -0.683373,-5.84e-4 -0.77991,0.0088 -0.84375,-0.625 -0.102938,-1.025226 -0.392845,-1.830667 -1,-2.65625 -0.237152,-0.257212 -0.10836,-0.502289 -0.09375,-0.84375 0.02379,-0.556362 -0.01427,-1.130834 0,-1.6875 0.0069,-0.269267 -0.03817,-1.47057 -0.3125,-1.40625 z m 10.929149,14.251861 c -4e-5,5.195315 -1.08748,8.972555 -3.40665,11.183594 -1.03051,0.982465 -3.32982,1.488282 -4.269403,1.329274 -0.810215,-0.137114 -0.973371,-0.631381 -2.618048,-0.773442 -2.941479,-0.254075 -4.751484,1.547408 -7.179837,1.167445 -2.248967,-0.351894 -1.575546,-1.021532 -4.896104,-1.331642 -3.320558,-0.31011 -4.401851,2.134765 -4.247818,0.30545 0.154033,-1.829315 0.168973,-2.283025 0.982792,-5.509585 0.132477,-0.510415 0.34066,-0.765623 0.624554,-0.765625 0.09463,0.01824 0.198715,0.05469 0.312276,0.109376 2.914573,1.385416 5.611504,2.078124 8.090802,2.078124 1.362645,0 2.715842,-0.328125 4.059595,-0.984375 1.627604,-0.783853 2.441414,-1.768227 2.441434,-2.953125 l 0,-1.832031 c -1.930455,1.750003 -4.409739,2.625002 -7.437859,2.625 -3.558069,2e-6 -6.482111,-1.230465 -8.772132,-3.691407 -2.214327,-2.369783 -3.321488,-5.286447 -3.321487,-8.749999 -10e-7,-3.481753 1.059845,-6.371073 3.179544,-8.667969 2.214318,-2.387995 5.10997,-3.582004 8.686965,-3.582032 2.857787,2.8e-5 5.043721,0.984402 6.557807,2.953126 0.302795,0.401065 0.510978,0.601586 0.624553,0.601562 0.170312,2.4e-5 0.255479,-0.328101 0.255499,-0.984375 -2e-5,-1.458307 0.170312,-2.187473 0.510998,-2.187499 0.302793,2.6e-5 1.939878,0.154974 4.911259,0.464843 2.97132,0.291692 4.51378,0.455755 4.62737,0.492187 0.32171,0.109401 0.48258,0.34638 0.48261,0.710938 -3e-5,1.257836 -0.0474,3.135439 -0.14194,5.632813 -0.0757,2.497412 -0.11359,4.375014 -0.11356,5.632812 -3e-5,0.747409 0.009,1.868502 0.0284,3.363282 0.019,1.4948 0.0283,2.615892 0.0284,3.36328"
         id="path4483"
         style="fill:#b2e5e5;fill-opacity:1" />
    </g>
    <g
       id="g4584">
      <path
         d="m 10.987642,43.379727 c -10e-6,-0.148465 -0.02396,0.07426 -0.07187,0.668157 -0.06589,0.74916 -0.1168,1.707526 -0.152725,2.875103 -0.04792,1.322827 -0.07188,2.827868 -0.07187,4.515126 -9e-6,2.787368 0.06886,4.771591 0.206629,5.952677 0.01196,0.128232 0.01795,0.209221 0.01796,0.242967 -1.1e-5,0.07424 -0.04492,0.118108 -0.134757,0.131606 -0.215623,0.03375 -1.0091939,0.05061 -2.3807174,0.05061 -0.3234256,-10e-7 -0.5090913,-0.07087 -0.5569979,-0.212595 -0.011985,-0.256465 -0.023964,-0.512929 -0.035935,-0.769394 -0.006,-0.05399 -0.029954,-0.107984 -0.071871,-0.161978 -0.035942,0.02024 -0.080862,0.06074 -0.1347576,0.121483 -0.6468425,0.715402 -1.4553871,1.073102 -2.425636,1.073102 -1.2637296,0 -2.2759076,-0.499431 -3.036537,-1.498293 -0.7247012,-0.951612 -1.0870489,-2.152945 -1.0870485,-3.603997 -4e-7,-1.471291 0.3563581,-2.682747 1.0690766,-3.634373 0.7546402,-1.012351 1.7728074,-1.51853 3.0545047,-1.51854 0.9043675,1e-5 1.6081007,0.323965 2.1112017,0.971866 0.083842,0.107993 0.1437346,0.161986 0.1796767,0.161977 0.053896,9e-6 0.080848,-0.08773 0.080854,-0.263213 -6.9e-6,-0.519669 -0.011985,-1.295811 -0.035935,-2.328429 -0.023963,-1.032594 -0.035942,-1.805362 -0.035935,-2.318305 -6.8e-6,-0.195708 0.047907,-0.307067 0.1437414,-0.334078 0.3833031,-0.02023 0.9103543,-0.06073 1.5811553,-0.121483 1.197835,-0.168712 1.727881,-0.253075 1.590138,-0.25309 0.131753,1.5e-5 0.197635,0.08438 0.197645,0.25309 M 7.6007354,52.683316 C 7.6007285,52.150145 7.4360249,51.68446 7.1066243,51.286259 6.7772109,50.881322 6.3789278,50.67885 5.911774,50.678843 c -0.4911212,7e-6 -0.883415,0.202479 -1.1768827,0.607416 -0.2874865,0.398201 -0.4312277,0.877384 -0.4312242,1.437551 -3.5e-6,0.546679 0.1467323,1.00899 0.440208,1.386934 0.2994569,0.404947 0.6887561,0.607418 1.1678989,0.607415 0.4791322,3e-6 0.8804099,-0.202468 1.2038341,-0.607415 0.3234114,-0.404941 0.4851204,-0.880749 0.4851273,-1.427428"
         id="path4500"
         style="font-size:19.53117561px;font-style:normal;font-variant:normal;font-weight:bold;font-stretch:normal;text-align:start;line-height:100%;letter-spacing:0px;word-spacing:0px;writing-mode:lr-tb;text-anchor:start;fill:#ff9900;fill-opacity:1;stroke:none;font-family:Berlin Sans FB Demi;-inkscape-font-specification:Berlin Sans FB Demi Bold" />
      <path
         d="m 20.546445,52.248001 c -10e-6,0.681661 -0.194659,1.069731 -0.58395,1.164214 -0.06589,0.0135 -0.685774,0.08774 -1.859654,0.22272 -0.706735,0.08775 -1.760837,0.192352 -3.16231,0.313831 0.08385,0.438693 0.338387,0.772771 0.763626,1.002236 0.34737,0.188976 0.742658,0.283464 1.185866,0.283461 0.533036,3e-6 1.06907,-0.161975 1.608107,-0.485933 0.227584,-0.161974 0.455174,-0.323952 0.682771,-0.485933 0.125766,0.06749 0.335389,0.411696 0.628869,1.032608 0.299453,0.620915 0.449183,1.015735 0.449192,1.184461 -9e-6,0.04725 -0.04493,0.124859 -0.134757,0.232842 -0.730694,0.884129 -1.865651,1.326192 -3.404875,1.326192 -1.425439,0 -2.575369,-0.469059 -3.449794,-1.40718 -0.898384,-0.951617 -1.347575,-2.223815 -1.347575,-3.816598 0,-1.552279 0.401277,-2.824477 1.203834,-3.816597 0.82651,-1.025848 1.922538,-1.538777 3.288085,-1.538788 1.149925,1.1e-5 2.126167,0.472445 2.92873,1.417305 0.802548,0.944877 1.203825,2.068596 1.203835,3.371159 m -3.144344,-0.617539 c -5e-6,-0.418436 -0.131768,-0.78626 -0.395288,-1.103473 -0.263532,-0.317199 -0.577965,-0.475801 -0.943303,-0.47581 -0.377325,9e-6 -0.688764,0.178858 -0.934319,0.536552 -0.227594,0.330711 -0.341389,0.718781 -0.341386,1.164213 -3e-6,0.182231 0.08385,0.273344 0.251548,0.273337 0.443198,7e-6 1.131959,-0.07761 2.066282,-0.232842 0.197639,-0.03374 0.296461,-0.08774 0.296466,-0.161977"
         id="path4502"
         style="font-size:19.53117561px;font-style:normal;font-variant:normal;font-weight:bold;font-stretch:normal;text-align:start;line-height:100%;letter-spacing:0px;word-spacing:0px;writing-mode:lr-tb;text-anchor:start;fill:#ff9900;fill-opacity:1;stroke:none;font-family:Berlin Sans FB Demi;-inkscape-font-specification:Berlin Sans FB Demi Bold" />
      <path
         d="m 24.822752,51.650708 c -4e-6,1.8425 0.006,3.256428 0.01796,4.241789 -3e-6,0.15523 0.0089,0.421818 0.02695,0.799764 0.01796,0.344204 0.02695,0.610792 0.02695,0.799765 -4e-6,0.141731 -0.07487,0.226093 -0.224596,0.25309 -0.269519,0.05399 -0.754645,0.08098 -1.455381,0.08098 -0.718709,0 -1.176884,-0.02699 -1.374527,-0.08098 -0.131764,-0.03375 -0.206629,-0.124858 -0.224596,-0.273338 -10e-7,-0.02024 -10e-7,-0.165351 0,-0.435314 -10e-7,-0.600665 0.006,-1.49829 0.01796,-2.692878 0.01198,-1.201329 0.01796,-2.098954 0.01796,-2.692878 -1e-6,-2.834598 0.003,-4.127044 0.0089,-3.877339 -0.01797,-1.491532 -0.09284,-2.777228 -0.224597,-3.857091 -0.01198,-0.07422 -0.01796,-0.131593 -0.01796,-0.172102 -10e-7,-0.148465 0.07786,-0.222704 0.233579,-0.222719 l 3.20723,0 c 0.149727,1.5e-5 0.218603,0.07088 0.206629,0.212596 l -0.0089,0.182225 c -0.155724,2.915608 -0.233584,5.493749 -0.233581,7.73443"
         id="path4504"
         style="font-size:19.53117561px;font-style:normal;font-variant:normal;font-weight:bold;font-stretch:normal;text-align:start;line-height:100%;letter-spacing:0px;word-spacing:0px;writing-mode:lr-tb;text-anchor:start;fill:#ff9900;fill-opacity:1;stroke:none;font-family:Berlin Sans FB Demi;-inkscape-font-specification:Berlin Sans FB Demi Bold" />
      <path
         d="m 30.033376,45.576548 c -3e-6,1.174348 -0.586947,1.761517 -1.760831,1.761507 -0.503097,1e-5 -0.919348,-0.148469 -1.248753,-0.445439 -0.359355,-0.323944 -0.539032,-0.762633 -0.539031,-1.316068 -10e-7,-0.526415 0.185665,-0.958354 0.556998,-1.295821 0.341384,-0.310444 0.751645,-0.465672 1.230786,-0.465685 0.467156,1.3e-5 0.871429,0.158616 1.212817,0.475809 0.365339,0.337467 0.548011,0.766032 0.548014,1.285697 m -0.233579,7.521835 c -4e-6,0.492687 0.0089,1.228334 0.02695,2.206945 0.01797,0.971867 0.02695,1.700766 0.02695,2.186698 -4e-6,0.141731 -0.07487,0.226093 -0.224595,0.25309 -0.203638,0.0405 -0.661813,0.06074 -1.374528,0.06074 -0.718709,0 -1.179879,-0.02024 -1.38351,-0.06074 -0.131765,-0.027 -0.21262,-0.07087 -0.242565,-0.131607 -0.01198,-0.02699 -0.01796,-0.128232 -0.01796,-0.303708 -1e-6,-0.465684 0.0089,-1.164213 0.02695,-2.095585 0.01796,-0.938117 0.02695,-1.643394 0.02695,-2.115833 -1e-6,-1.916728 -0.06588,-3.442016 -0.197643,-4.575867 -0.01198,-0.107975 -0.01797,-0.178841 -0.01797,-0.212596 0,-0.134971 0.08085,-0.202462 0.242564,-0.202471 0.167697,9e-6 0.422239,0.02025 0.763626,0.06074 0.347373,0.04051 0.607904,0.06075 0.781594,0.06074 0.173684,10e-6 0.434216,-0.01686 0.781593,-0.05061 0.347372,-0.03374 0.607903,-0.0506 0.781595,-0.05061 0.143737,9e-6 0.215607,0.0675 0.215612,0.202472 -5e-6,0.02701 -0.006,0.09112 -0.01796,0.192349 -0.131767,1.316075 -0.197647,2.841363 -0.197644,4.575867"
         id="path4506"
         style="font-size:19.53117561px;font-style:normal;font-variant:normal;font-weight:bold;font-stretch:normal;text-align:start;line-height:100%;letter-spacing:0px;word-spacing:0px;writing-mode:lr-tb;text-anchor:start;fill:#ff9900;fill-opacity:1;stroke:none;font-family:Berlin Sans FB Demi;-inkscape-font-specification:Berlin Sans FB Demi Bold" />
      <path
         d="m 41.281141,52.794675 c -1.1e-5,1.417308 -0.359364,2.601768 -1.078061,3.553384 -0.766629,1.01236 -1.766829,1.51854 -3.000602,1.51854 -0.898389,0 -1.623084,-0.290209 -2.174088,-0.87063 -0.04193,-0.0405 -0.07787,-0.06074 -0.107807,-0.06074 -0.05989,10e-7 -0.116793,0.124858 -0.170692,0.374573 -0.04792,0.249716 -0.10781,0.388072 -0.179677,0.415068 -0.101821,0.03375 -0.955284,0.05061 -2.560394,0.05061 -0.377321,0 -0.565982,-0.07762 -0.565981,-0.232844 -1e-6,-0.02024 0.006,-0.07087 0.01796,-0.151853 0.119784,-1.073101 0.179676,-3.118066 0.179677,-6.134903 -1e-6,-2.881841 -0.08984,-5.389117 -0.269515,-7.521835 l -0.0089,-0.111359 c 0,-0.107971 0.09284,-0.168712 0.278499,-0.182225 0.131762,-0.0067 0.652824,-0.05736 1.563188,-0.151854 0.640844,-0.06747 1.161906,-0.101218 1.563187,-0.101239 0.113791,1.5e-5 0.170689,0.111375 0.170694,0.334078 -5e-6,0.263228 -0.01498,0.610805 -0.04492,1.042731 -0.03594,0.53319 -0.0569,0.88414 -0.06289,1.052855 -0.02995,0.668169 -0.04492,1.579292 -0.04492,2.733373 -5e-6,0.209229 0.04791,0.31384 0.143741,0.313831 0.04791,9e-6 0.09283,-0.02698 0.134758,-0.08099 0.539025,-0.6479 1.245753,-0.971855 2.120185,-0.971865 1.311633,10e-6 2.335789,0.502815 3.072473,1.508416 0.682761,0.931379 1.024147,2.156334 1.024157,3.674867 m -3.252149,-0.11136 c -7e-6,-0.560166 -0.152733,-1.0326 -0.458175,-1.417304 -0.305457,-0.391439 -0.703741,-0.587161 -1.194851,-0.587169 -0.5031,8e-6 -0.901383,0.19573 -1.19485,0.587169 -0.287487,0.384704 -0.431228,0.863886 -0.431224,1.437552 -4e-6,0.593923 0.140742,1.073105 0.42224,1.437551 0.299456,0.3847 0.706724,0.577048 1.221802,0.577045 0.509078,3e-6 0.91335,-0.199094 1.212818,-0.597292 0.281486,-0.371195 0.422233,-0.850379 0.42224,-1.437552"
         id="path4508"
         style="font-size:19.53117561px;font-style:normal;font-variant:normal;font-weight:bold;font-stretch:normal;text-align:start;line-height:100%;letter-spacing:0px;word-spacing:0px;writing-mode:lr-tb;text-anchor:start;fill:#ff9900;fill-opacity:1;stroke:none;font-family:Berlin Sans FB Demi;-inkscape-font-specification:Berlin Sans FB Demi Bold" />
      <path
         d="m 50.624333,52.248001 c -9e-6,0.681661 -0.194659,1.069731 -0.583949,1.164214 -0.06589,0.0135 -0.685775,0.08774 -1.859654,0.22272 -0.706736,0.08775 -1.760838,0.192352 -3.162311,0.313831 0.08385,0.438693 0.338387,0.772771 0.763626,1.002236 0.34737,0.188976 0.742658,0.283464 1.185866,0.283461 0.533036,3e-6 1.06907,-0.161975 1.608107,-0.485933 0.227584,-0.161974 0.455174,-0.323952 0.682771,-0.485933 0.125767,0.06749 0.335389,0.411696 0.628869,1.032608 0.299453,0.620915 0.449183,1.015735 0.449192,1.184461 -9e-6,0.04725 -0.04492,0.124859 -0.134757,0.232842 -0.730694,0.884129 -1.865651,1.326192 -3.404875,1.326192 -1.425439,0 -2.575369,-0.469059 -3.449794,-1.40718 -0.898384,-0.951617 -1.347575,-2.223815 -1.347575,-3.816598 0,-1.552279 0.401277,-2.824477 1.203834,-3.816597 0.826511,-1.025848 1.922538,-1.538777 3.288085,-1.538788 1.149925,1.1e-5 2.126168,0.472445 2.928731,1.417305 0.802547,0.944877 1.203825,2.068596 1.203834,3.371159 m -3.144344,-0.617539 c -5e-6,-0.418436 -0.131768,-0.78626 -0.395288,-1.103473 -0.263531,-0.317199 -0.577965,-0.475801 -0.943303,-0.47581 -0.377325,9e-6 -0.688764,0.178858 -0.934319,0.536552 -0.227594,0.330711 -0.341389,0.718781 -0.341386,1.164213 -3e-6,0.182231 0.08385,0.273344 0.251548,0.273337 0.443198,7e-6 1.131959,-0.07761 2.066282,-0.232842 0.197639,-0.03374 0.296461,-0.08774 0.296466,-0.161977"
         id="path4510"
         style="font-size:19.53117561px;font-style:normal;font-variant:normal;font-weight:bold;font-stretch:normal;text-align:start;line-height:100%;letter-spacing:0px;word-spacing:0px;writing-mode:lr-tb;text-anchor:start;fill:#ff9900;fill-opacity:1;stroke:none;font-family:Berlin Sans FB Demi;-inkscape-font-specification:Berlin Sans FB Demi Bold" />
      <path
         d="m 57.586806,51.438113 c -7e-6,0.263219 -0.128775,0.394826 -0.386306,0.394821 -0.1138,5e-6 -0.281499,-0.0068 -0.503094,-0.02024 -0.215618,-0.02024 -0.377327,-0.03036 -0.485127,-0.03037 -0.49711,7e-6 -0.835502,0.08775 -1.015174,0.263215 -0.179681,0.175481 -0.269519,0.529806 -0.269515,1.062977 -4e-6,0.290215 0.003,0.732278 0.0089,1.326191 0.01197,0.587172 0.01796,1.025861 0.01796,1.316069 -5e-6,0.195724 0.01197,0.489309 0.03594,0.880753 0.02396,0.384697 0.03593,0.671533 0.03594,0.860506 -4e-6,0.161978 -0.09883,0.253091 -0.296466,0.273337 -0.287486,0.02699 -0.727695,0.0405 -1.320625,0.0405 -0.568977,0 -1.024158,-0.02024 -1.365542,-0.06074 -0.197646,-0.02699 -0.296469,-0.138356 -0.296468,-0.33408 -10e-7,-0.539924 0.003,-1.346436 0.0089,-2.41954 0.006,-1.079847 0.0089,-1.889734 0.0089,-2.429664 -10e-7,-1.586024 -0.12877,-2.891967 -0.386306,-3.917834 -0.01198,-0.06073 -0.01796,-0.11135 -0.01796,-0.151853 -10e-7,-0.101228 0.04492,-0.168718 0.134758,-0.202473 0.329406,-0.04049 0.811538,-0.114724 1.446397,-0.222719 0.946294,-0.209211 1.434416,-0.313822 1.464366,-0.313831 0.107802,9e-6 0.176678,0.212605 0.206628,0.637786 0.02995,0.425201 0.08385,0.637796 0.161709,0.637787 -0.08385,9e-6 0.161705,-0.175467 0.736675,-0.526427 0.57496,-0.35769 1.128963,-0.536541 1.662009,-0.53655 0.33539,9e-6 0.503089,0.081 0.503095,0.242966 -6e-6,0.195732 -0.01797,0.472444 -0.0539,0.830135 -0.03594,0.384705 -0.05691,0.661416 -0.06289,0.830136 -7e-6,0.19573 0.003,0.455568 0.0089,0.779516 0.01197,0.398202 0.01797,0.661415 0.01797,0.789641"
         id="path4512"
         style="font-size:19.53117561px;font-style:normal;font-variant:normal;font-weight:bold;font-stretch:normal;text-align:start;line-height:100%;letter-spacing:0px;word-spacing:0px;writing-mode:lr-tb;text-anchor:start;fill:#ff9900;fill-opacity:1;stroke:none;font-family:Berlin Sans FB Demi;-inkscape-font-specification:Berlin Sans FB Demi Bold" />
      <path
         d="m 67.666673,52.683316 c -1e-5,0.519682 0.02694,1.29245 0.08085,2.318304 0.05389,1.02586 0.08084,1.795253 0.08085,2.308181 -1e-5,0.269964 -0.104822,0.415068 -0.314434,0.435315 -0.742674,0.06074 -1.593142,0.09111 -2.55141,0.09111 -0.113803,0 -0.191662,-0.192347 -0.23358,-0.577044 -0.03594,-0.391446 -0.08086,-0.590543 -0.134757,-0.597293 -0.04792,0.02699 -0.110808,0.08436 -0.188661,0.172101 -0.670799,0.762645 -1.389505,1.143967 -2.156121,1.143967 -1.167902,0 -2.135161,-0.519678 -2.90178,-1.559035 -0.724696,-0.971863 -1.087044,-2.132701 -1.087044,-3.482518 0,-1.559028 0.374326,-2.814354 1.12298,-3.76598 0.778597,-0.985354 1.844678,-1.478035 3.198245,-1.478045 0.940304,10e-6 1.682967,0.371208 2.227993,1.113595 0.02395,0.03376 0.04492,0.05062 0.06289,0.05061 0.05389,9e-6 0.113788,-0.161968 0.179677,-0.485932 0.07187,-0.330695 0.155712,-0.496047 0.251548,-0.496057 0.221593,1e-5 0.643833,0.07088 1.26672,0.212596 0.592924,0.13499 1.018159,0.249725 1.275706,0.344202 0.08983,0.04051 0.134747,0.0945 0.134757,0.161978 -1e-5,0.02701 -0.0089,0.09787 -0.02695,0.212595 -0.191665,1.221589 -0.287492,2.514035 -0.287482,3.877339 m -2.892796,0.06074 c -7e-6,-0.573665 -0.161716,-1.0461 -0.485127,-1.417304 -0.317435,-0.377941 -0.733686,-0.566915 -1.248754,-0.566921 -0.515078,6e-6 -0.931329,0.185606 -1.248753,0.556798 -0.317432,0.371204 -0.476147,0.847012 -0.476143,1.427427 -4e-6,0.546679 0.167694,1.015739 0.503094,1.407181 0.335393,0.391448 0.74266,0.587171 1.221802,0.587169 0.509079,2e-6 0.92533,-0.185597 1.248754,-0.556798 0.323411,-0.377945 0.48512,-0.857127 0.485127,-1.437552"
         id="path4514"
         style="font-size:19.53117561px;font-style:normal;font-variant:normal;font-weight:bold;font-stretch:normal;text-align:start;line-height:100%;letter-spacing:0px;word-spacing:0px;writing-mode:lr-tb;text-anchor:start;fill:#ff9900;fill-opacity:1;stroke:none;font-family:Berlin Sans FB Demi;-inkscape-font-specification:Berlin Sans FB Demi Bold" />
      <path
         d="m 78.977321,43.379727 c -1e-5,-0.148465 -0.02397,0.07426 -0.07187,0.668157 -0.0659,0.74916 -0.1168,1.707526 -0.152725,2.875103 -0.04792,1.322827 -0.07189,2.827868 -0.07187,4.515126 -1.1e-5,2.787368 0.06886,4.771591 0.206628,5.952677 0.01197,0.128232 0.01796,0.209221 0.01796,0.242967 -1e-5,0.07424 -0.04494,0.118108 -0.134758,0.131606 -0.215621,0.03375 -1.009194,0.05061 -2.380716,0.05061 -0.323426,-10e-7 -0.509092,-0.07087 -0.556998,-0.212595 -0.01198,-0.256465 -0.02397,-0.512929 -0.03594,-0.769394 -0.006,-0.05399 -0.02996,-0.107984 -0.07187,-0.161978 -0.03595,0.02024 -0.08086,0.06074 -0.134758,0.121483 -0.646843,0.715402 -1.455387,1.073102 -2.425636,1.073102 -1.26373,0 -2.275908,-0.499431 -3.036537,-1.498293 -0.724697,-0.951616 -1.087045,-2.152949 -1.087044,-3.604002 -10e-7,-1.47129 0.356358,-2.682746 1.069077,-3.634372 0.75464,-1.012351 1.772806,-1.51853 3.054504,-1.51854 0.904368,10e-6 1.608101,0.323965 2.111201,0.971865 0.08384,0.107994 0.143735,0.161987 0.179677,0.161978 0.05389,9e-6 0.08085,-0.08773 0.08085,-0.263214 -7e-6,-0.519668 -0.01198,-1.29581 -0.03594,-2.328428 -0.02396,-1.032595 -0.03594,-1.805362 -0.03594,-2.318305 -7e-6,-0.195709 0.0479,-0.307067 0.143741,-0.334078 0.383303,-0.02023 0.910354,-0.06073 1.581156,-0.121483 1.197834,-0.168713 1.72788,-0.253075 1.590139,-0.25309 0.131753,1.5e-5 0.197633,0.08438 0.197644,0.25309 m -3.386907,9.303588 c -6e-6,-0.53317 -0.16471,-0.998855 -0.494111,-1.397056 -0.329413,-0.404937 -0.727696,-0.607409 -1.19485,-0.607417 -0.491121,8e-6 -0.883415,0.20248 -1.176883,0.607417 -0.287486,0.398201 -0.431227,0.877383 -0.431224,1.437551 -3e-6,0.546678 0.146733,1.00899 0.440208,1.386933 0.299457,0.404947 0.688757,0.607419 1.167899,0.607416 0.479132,3e-6 0.88041,-0.202469 1.203834,-0.607416 0.323412,-0.40494 0.485121,-0.880748 0.485127,-1.427428"
         id="path4516"
         style="font-size:19.53117561px;font-style:normal;font-variant:normal;font-weight:bold;font-stretch:normal;text-align:start;line-height:100%;letter-spacing:0px;word-spacing:0px;writing-mode:lr-tb;text-anchor:start;fill:#ff9900;fill-opacity:1;stroke:none;font-family:Berlin Sans FB Demi;-inkscape-font-specification:Berlin Sans FB Demi Bold" />
      <path
         d="m 89.335684,52.683316 c -1e-5,0.519682 0.02694,1.29245 0.08085,2.318304 0.05389,1.02586 0.08084,1.795253 0.08085,2.308181 -9e-6,0.269964 -0.104821,0.415068 -0.314434,0.435315 -0.742673,0.06074 -1.593142,0.09111 -2.551409,0.09111 -0.113803,0 -0.191663,-0.192347 -0.233581,-0.577044 -0.03594,-0.391446 -0.08086,-0.590543 -0.134757,-0.597293 -0.04792,0.02699 -0.110808,0.08436 -0.188661,0.172101 -0.670798,0.762645 -1.389505,1.143967 -2.156121,1.143967 -1.167902,0 -2.13516,-0.519678 -2.901779,-1.559035 -0.724697,-0.971863 -1.087045,-2.132701 -1.087045,-3.482518 0,-1.559028 0.374326,-2.814354 1.122981,-3.76598 0.778596,-0.985354 1.844677,-1.478035 3.198245,-1.478045 0.940303,10e-6 1.682966,0.371208 2.227992,1.113595 0.02395,0.03376 0.04492,0.05062 0.06289,0.05061 0.05389,9e-6 0.113787,-0.161968 0.179677,-0.485932 0.07187,-0.330695 0.155712,-0.496047 0.251547,-0.496057 0.221593,1e-5 0.643833,0.07088 1.266721,0.212596 0.592924,0.13499 1.018159,0.249725 1.275705,0.344202 0.08983,0.04051 0.134747,0.0945 0.134757,0.161978 -10e-6,0.02701 -0.0089,0.09787 -0.02695,0.212595 -0.191665,1.221589 -0.287493,2.514035 -0.287483,3.877339 m -2.892795,0.06074 c -7e-6,-0.573665 -0.161716,-1.0461 -0.485127,-1.417304 -0.317435,-0.377941 -0.733686,-0.566915 -1.248755,-0.566921 -0.515077,6e-6 -0.931328,0.185606 -1.248753,0.556798 -0.317432,0.371204 -0.476146,0.847012 -0.476143,1.427427 -3e-6,0.546679 0.167694,1.015739 0.503095,1.407181 0.335393,0.391448 0.742659,0.587171 1.221801,0.587169 0.50908,2e-6 0.92533,-0.185597 1.248755,-0.556798 0.323411,-0.377945 0.48512,-0.857127 0.485127,-1.437552"
         id="path4518"
         style="font-size:19.53117561px;font-style:normal;font-variant:normal;font-weight:bold;font-stretch:normal;text-align:start;line-height:100%;letter-spacing:0px;word-spacing:0px;writing-mode:lr-tb;text-anchor:start;fill:#ff9900;fill-opacity:1;stroke:none;font-family:Berlin Sans FB Demi;-inkscape-font-specification:Berlin Sans FB Demi Bold" />
      <path
         d="m 105.47964,57.370542 c -2e-5,0.236219 -0.0899,0.367825 -0.26952,0.394821 -0.17969,0.02699 -0.62289,0.0405 -1.32961,0.0405 -0.73069,0 -1.18588,-0.02024 -1.36554,-0.06074 -0.17968,-0.0405 -0.26952,-0.205847 -0.26951,-0.496057 -10e-6,-0.310456 0.009,-0.772767 0.0269,-1.386934 0.018,-0.620912 0.0269,-1.086597 0.0269,-1.397056 -1e-5,-1.181083 -0.012,-2.021341 -0.036,-2.520776 -0.036,-0.803133 -0.37433,-1.204702 -1.01516,-1.20471 -0.28151,8e-6 -0.56301,0.134989 -0.84448,0.404945 -0.27552,0.26322 -0.428248,0.556803 -0.458186,0.880753 -0.02393,0.283466 -0.03599,1.1136 -0.03589,2.490406 -1e-5,0.317209 0.0094,0.799766 0.02694,1.447674 0.01799,0.641163 0.02694,1.123721 0.02694,1.447675 -1e-5,0.22272 -0.08685,0.33408 -0.260537,0.33408 l -2.7221,0 c -0.1677,0 -0.25155,-0.138356 -0.25155,-0.415068 0,-0.317206 0.0094,-0.793014 0.02694,-1.427428 0.01799,-0.63441 0.02694,-1.113593 0.02694,-1.437551 0,-0.249712 -0.0057,-0.62766 -0.01799,-1.133844 -0.01196,-0.506174 -0.01799,-0.887497 -0.01799,-1.143966 -10e-6,-0.96511 -0.326422,-1.447668 -0.979238,-1.447676 -0.263532,8e-6 -0.548024,0.114742 -0.853467,0.344203 -0.335399,0.249722 -0.503099,0.512935 -0.503099,0.789641 0,0.61417 0.0028,1.532042 0.0094,2.753619 0.0057,1.221583 0.0094,2.136081 0.0094,2.743496 -1e-5,0.168727 -0.01799,0.273338 -0.05388,0.313831 -0.03599,0.0405 -0.128775,0.06749 -0.278503,0.08099 -0.269519,0.02699 -0.694754,0.0405 -1.275705,0.0405 -0.377323,0 -0.805552,-0.02024 -1.284688,-0.06074 -0.143743,-0.0135 -0.230587,-0.03712 -0.260532,-0.07087 -0.02396,-0.03375 -0.03594,-0.134981 -0.03594,-0.303709 -1e-6,-0.539924 0.003,-1.346436 0.0089,-2.41954 0.006,-1.079847 0.0089,-1.889734 0.0089,-2.429664 -10e-7,-1.10684 -0.07187,-2.352042 -0.215612,-3.735609 -0.01198,-0.08098 -0.01796,-0.141721 -0.01796,-0.182225 0,-0.114725 0.04192,-0.192338 0.125773,-0.232842 0.131763,-0.06073 0.380316,-0.111351 0.745659,-0.151855 0.44919,-0.04723 0.71571,-0.0776 0.799562,-0.09111 0.05989,-0.01349 0.296463,-0.08435 0.709723,-0.212595 0.293469,-0.09448 0.530043,-0.14172 0.709722,-0.141731 0.113799,1.1e-5 0.173684,0.236228 0.179685,0.708653 0.0057,0.465694 0.02996,0.698537 0.07188,0.698528 0.05991,-0.02698 0.128766,-0.07423 0.206624,-0.14173 0.539028,-0.472426 0.96426,-0.796381 1.275713,-0.971866 0.46116,-0.249706 0.961263,-0.374564 1.5003,-0.374573 0.551001,9e-6 1.042118,0.138365 1.47335,0.415068 0.485115,0.310465 0.799545,0.74578 0.943299,1.305944 0.317417,-0.485925 0.754627,-0.894243 1.311637,-1.224956 0.55699,-0.330695 1.09901,-0.496047 1.62608,-0.496056 0.79056,9e-6 1.4344,0.205856 1.93153,0.617539 0.56296,0.465695 0.84446,1.130477 0.84448,1.994349 -2e-5,0.357708 -0.009,0.897633 -0.0269,1.619776 -0.018,0.715407 -0.0269,1.251957 -0.0269,1.609654 -10e-6,0.425194 0.009,1.066355 0.0269,1.923483 0.0179,0.850385 0.0269,1.48817 0.0269,1.91336"
         id="path4520"
         style="font-size:19.53117561px;font-style:normal;font-variant:normal;font-weight:bold;font-stretch:normal;text-align:start;line-height:100%;letter-spacing:0px;word-spacing:0px;writing-mode:lr-tb;text-anchor:start;fill:#ff9900;fill-opacity:1;stroke:none;font-family:Berlin Sans FB Demi;-inkscape-font-specification:Berlin Sans FB Demi Bold" />
      <path
         d="m 115.41577,52.248001 c -10e-6,0.681661 -0.19466,1.069731 -0.58396,1.164214 -0.0658,0.0135 -0.68577,0.08774 -1.85965,0.22272 -0.70673,0.08775 -1.76084,0.192352 -3.16231,0.313831 0.0838,0.438693 0.33838,0.772771 0.76362,1.002236 0.34738,0.188976 0.74266,0.283464 1.18588,0.283461 0.53303,3e-6 1.06906,-0.161975 1.6081,-0.485933 0.22759,-0.161974 0.45517,-0.323952 0.68277,-0.485933 0.12576,0.06749 0.33539,0.411696 0.62887,1.032608 0.29945,0.620915 0.44918,1.015735 0.44919,1.184461 -1e-5,0.04725 -0.0449,0.124859 -0.13476,0.232842 -0.73069,0.884129 -1.86564,1.326192 -3.40487,1.326192 -1.42544,0 -2.57537,-0.469059 -3.4498,-1.40718 -0.89838,-0.951617 -1.34757,-2.223815 -1.34757,-3.816598 0,-1.552279 0.40128,-2.824477 1.20384,-3.816597 0.8265,-1.025848 1.92253,-1.538777 3.28808,-1.538788 1.14992,1.1e-5 2.12617,0.472445 2.92873,1.417305 0.80255,0.944877 1.20383,2.068596 1.20384,3.371159 m -3.14435,-0.617539 c -1e-5,-0.418436 -0.13177,-0.78626 -0.39529,-1.103473 -0.26352,-0.317199 -0.57796,-0.475801 -0.9433,-0.47581 -0.37733,9e-6 -0.68876,0.178858 -0.93432,0.536552 -0.2276,0.330711 -0.34139,0.718781 -0.34138,1.164213 -10e-6,0.182231 0.0838,0.273344 0.25155,0.273337 0.44319,7e-6 1.13196,-0.07761 2.06628,-0.232842 0.19763,-0.03374 0.29645,-0.08774 0.29646,-0.161977"
         id="path4522"
         style="font-size:19.53117561px;font-style:normal;font-variant:normal;font-weight:bold;font-stretch:normal;text-align:start;line-height:100%;letter-spacing:0px;word-spacing:0px;writing-mode:lr-tb;text-anchor:start;fill:#ff9900;fill-opacity:1;stroke:none;font-family:Berlin Sans FB Demi;-inkscape-font-specification:Berlin Sans FB Demi Bold" />
      <path
         d="m 125.35188,57.451531 c -10e-6,0.182226 -0.0838,0.286836 -0.25154,0.313832 -0.1677,0.02699 -0.60492,0.0405 -1.31164,0.0405 -0.75465,0 -1.22181,-0.02024 -1.40148,-0.06074 -0.17968,-0.0405 -0.26952,-0.178851 -0.26951,-0.415068 -1e-5,-0.317206 0.009,-0.796389 0.0269,-1.437552 0.018,-0.641159 0.0269,-1.123716 0.0269,-1.447675 -1e-5,-0.249711 -0.006,-0.62091 -0.018,-1.113596 -0.012,-0.499426 -0.018,-0.873998 -0.018,-1.123719 0,-0.924616 -0.35636,-1.386926 -1.06907,-1.386934 -0.23359,8e-6 -0.5061,0.114741 -0.81754,0.344203 -0.3354,0.256471 -0.5031,0.50956 -0.50309,0.75927 l 0,5.466744 c -1e-5,0.22272 -0.0929,0.347577 -0.2785,0.374573 -0.20963,0.02699 -0.63786,0.0405 -1.28469,0.0405 -0.70074,0 -1.15593,-0.02024 -1.36555,-0.06074 -0.18566,-0.03375 -0.2785,-0.145105 -0.2785,-0.33408 0,-0.526426 0.003,-1.31944 0.009,-2.379046 0.006,-1.0596 0.009,-1.855989 0.009,-2.38917 0,-1.680511 -0.11679,-2.999951 -0.35036,-3.958327 -0.012,-0.06073 -0.018,-0.11135 -0.018,-0.151855 0,-0.107975 0.0449,-0.182215 0.13476,-0.222718 0.37732,-0.04724 0.88042,-0.121474 1.50929,-0.22272 0.95228,-0.20921 1.48832,-0.313821 1.6081,-0.313832 0.0658,1.1e-5 0.11679,0.229479 0.15274,0.688405 0.0359,0.452197 0.0868,0.678291 0.15272,0.678282 -0.0658,9e-6 0.25453,-0.232834 0.96127,-0.698529 0.71271,-0.472424 1.33559,-0.708642 1.86863,-0.708652 0.76062,1e-5 1.39548,0.202482 1.90457,0.607417 0.56898,0.465694 0.85346,1.113603 0.85347,1.943731 l 0,3.229428 c -1e-5,0.438693 0.003,1.096727 0.009,1.974102 0.006,0.870631 0.009,1.52529 0.009,1.963979"
         id="path4524"
         style="font-size:19.53117561px;font-style:normal;font-variant:normal;font-weight:bold;font-stretch:normal;text-align:start;line-height:100%;letter-spacing:0px;word-spacing:0px;writing-mode:lr-tb;text-anchor:start;fill:#ff9900;fill-opacity:1;stroke:none;font-family:Berlin Sans FB Demi;-inkscape-font-specification:Berlin Sans FB Demi Bold" />
      <path
         d="m 132.8534,54.778901 c -1e-5,0.202475 -0.0239,0.509557 -0.0719,0.921248 -0.0419,0.411694 -0.0629,0.715402 -0.0628,0.911123 -1e-5,0.188976 -0.018,0.310458 -0.0539,0.364451 -0.036,0.05399 -0.13476,0.131607 -0.29646,0.232842 -0.77262,0.479184 -1.62908,0.718775 -2.56938,0.718775 -1.73089,0 -2.59633,-0.745771 -2.59633,-2.237315 0,-0.445436 0.015,-1.113593 0.0449,-2.004473 0.03,-0.897621 0.0449,-1.569152 0.0449,-2.014597 0,-0.296952 -0.15273,-0.445431 -0.45819,-0.445438 -0.0239,7e-6 -0.0628,7e-6 -0.11678,0 -0.0539,0.0068 -0.0929,0.01008 -0.11679,0.01008 -0.22759,7e-6 -0.34138,-0.0911 -0.34138,-0.273337 0,-0.107977 0.006,-0.273329 0.018,-0.496056 0.018,-0.222712 0.0269,-0.388064 0.0269,-0.496056 0,-0.141723 -0.009,-0.357693 -0.0269,-0.647911 -0.012,-0.290201 -0.018,-0.506171 -0.018,-0.647911 0,-0.134971 0.19164,-0.209211 0.57495,-0.222718 0.21562,-0.0067 0.33241,-0.07423 0.35038,-0.202472 0.0359,-0.256456 0.048,-0.661399 0.0359,-1.214832 -0.0239,-0.870619 -0.0359,-1.285686 -0.0359,-1.245203 0,-0.78288 0.0658,-1.174325 0.19764,-1.174338 0.16171,1.3e-5 0.3923,0.04051 0.69176,0.121483 0.34138,0.08775 0.57796,0.138368 0.70972,0.151854 0.30545,0.04726 0.76662,0.111373 1.38351,0.192348 0.14973,0.01351 0.2246,0.07088 0.2246,0.172101 0,0.269976 -0.021,0.678294 -0.0629,1.224956 -0.0359,0.546685 -0.0539,0.958378 -0.0539,1.235079 0,0.330715 0.0868,0.496067 0.26053,0.496057 0.20962,1e-5 0.52705,-0.01008 0.95229,-0.03037 0.42523,-0.02023 0.74565,-0.03036 0.96127,-0.03037 0.13175,1.1e-5 0.19764,0.05063 0.19764,0.151854 0,0.155238 -0.015,0.38808 -0.0449,0.698529 -0.03,0.310466 -0.0449,0.543308 -0.0449,0.698529 -1e-5,0.161984 0.003,0.398202 0.009,0.708651 0.006,0.310465 0.009,0.546682 0.009,0.708653 -1e-5,0.141737 -0.0868,0.212601 -0.26053,0.212595 -0.11979,6e-6 -0.32043,-0.0034 -0.60191,-0.01008 -0.28151,-0.01349 -0.48214,-0.02024 -0.60192,-0.02024 l -0.6738,0 c -0.0899,7e-6 -0.13475,0.148487 -0.13475,0.445439 0,0.161983 0,0.401575 0,0.718776 0.006,0.32396 0.009,0.563552 0.009,0.718776 0,0.566925 0.0569,0.95837 0.17069,1.174337 0.1617,0.290213 0.47914,0.435318 0.95229,0.435315 0.14972,3e-6 0.36234,-0.03711 0.63784,-0.11136 0.2815,-0.08098 0.47914,-0.12148 0.59294,-0.121483 0.12577,3e-6 0.18866,0.07424 0.18866,0.222719"
         id="path4526"
         style="font-size:19.53117561px;font-style:normal;font-variant:normal;font-weight:bold;font-stretch:normal;text-align:start;line-height:100%;letter-spacing:0px;word-spacing:0px;writing-mode:lr-tb;text-anchor:start;fill:#ff9900;fill-opacity:1;stroke:none;font-family:Berlin Sans FB Demi;-inkscape-font-specification:Berlin Sans FB Demi Bold" />
      <path
         d="m 142.04386,52.248001 c -1e-5,0.681661 -0.19466,1.069731 -0.58395,1.164214 -0.0659,0.0135 -0.68578,0.08774 -1.85966,0.22272 -0.70672,0.08775 -1.76083,0.192352 -3.16231,0.313831 0.0838,0.438693 0.33839,0.772771 0.76363,1.002236 0.34737,0.188976 0.74266,0.283464 1.18587,0.283461 0.53304,3e-6 1.06907,-0.161975 1.60811,-0.485933 0.22758,-0.161974 0.45516,-0.323952 0.68277,-0.485933 0.12576,0.06749 0.33539,0.411696 0.62887,1.032608 0.29945,0.620915 0.44917,1.015735 0.44918,1.184461 -1e-5,0.04725 -0.0449,0.124859 -0.13475,0.232842 -0.7307,0.884129 -1.86565,1.326192 -3.40488,1.326192 -1.42543,0 -2.57537,-0.469059 -3.44979,-1.40718 -0.89839,-0.951617 -1.34757,-2.223815 -1.34757,-3.816598 0,-1.552279 0.40127,-2.824477 1.20383,-3.816597 0.82651,-1.025848 1.92254,-1.538777 3.28808,-1.538788 1.14993,1.1e-5 2.12618,0.472445 2.92874,1.417305 0.80255,0.944877 1.20382,2.068596 1.20383,3.371159 m -3.14434,-0.617539 c -1e-5,-0.418436 -0.13177,-0.78626 -0.3953,-1.103473 -0.26352,-0.317199 -0.57796,-0.475801 -0.9433,-0.47581 -0.37732,9e-6 -0.68876,0.178858 -0.93432,0.536552 -0.22759,0.330711 -0.34139,0.718781 -0.34138,1.164213 -1e-5,0.182231 0.0838,0.273344 0.25155,0.273337 0.4432,7e-6 1.13196,-0.07761 2.06628,-0.232842 0.19764,-0.03374 0.29646,-0.08774 0.29647,-0.161977"
         id="path4528"
         style="font-size:19.53117561px;font-style:normal;font-variant:normal;font-weight:bold;font-stretch:normal;text-align:start;line-height:100%;letter-spacing:0px;word-spacing:0px;writing-mode:lr-tb;text-anchor:start;fill:#ff9900;fill-opacity:1;stroke:none;font-family:Berlin Sans FB Demi;-inkscape-font-specification:Berlin Sans FB Demi Bold" />
    </g>
  </g>
</svg>
