<?xml version="1.0" encoding="UTF-8" standalone="no"?>
<!-- Created with Inkscape (http://www.inkscape.org/) -->

<svg
   xmlns:dc="http://purl.org/dc/elements/1.1/"
   xmlns:cc="http://creativecommons.org/ns#"
   xmlns:rdf="http://www.w3.org/1999/02/22-rdf-syntax-ns#"
   xmlns:svg="http://www.w3.org/2000/svg"
   xmlns="http://www.w3.org/2000/svg"
   version="1.1"
   width="600"
   height="600"
   viewBox="0 0 600 600"
   id="lay"
   xml:space="preserve"><metadata
   id="metadata93"><rdf:RDF><cc:Work
       rdf:about=""><dc:format>image/svg+xml</dc:format><dc:type
         rdf:resource="http://purl.org/dc/dcmitype/StillImage" /><dc:title></dc:title></cc:Work></rdf:RDF></metadata><defs
   id="defs91">
	
	
	
	
	
	
	
	
	
	
	
	
	
	
	
	
	
	
	
	
	
	
	
	
	

</defs>




<text
   x="3.6931818"
   y="570.73865"
   id="text3042"
   xml:space="preserve"
   style="font-size:56px;font-style:normal;font-variant:normal;font-weight:bold;font-stretch:normal;text-align:start;line-height:100%;letter-spacing:0px;word-spacing:0px;writing-mode:lr-tb;text-anchor:start;fill:#000000;fill-opacity:1;stroke:none;font-family:Berlin Sans FB Demi;-inkscape-font-specification:Berlin Sans FB Demi Bold"><tspan
     x="3.6931818"
     y="570.73865"
     id="tspan3044" /></text>




<text
   x="6.534091"
   y="569.60229"
   id="text3046"
   xml:space="preserve"
   style="font-size:56px;font-style:normal;font-variant:normal;font-weight:bold;font-stretch:normal;text-align:start;line-height:100%;letter-spacing:0px;word-spacing:0px;writing-mode:lr-tb;text-anchor:start;fill:#000000;fill-opacity:1;stroke:none;font-family:Berlin Sans FB Demi;-inkscape-font-specification:Berlin Sans FB Demi Bold"><tspan
     x="6.534091"
     y="569.60229"
     id="tspan3048" /></text>




<g
   id="g6357"><path
     d="m 216.35571,278.77684 c -2.3e-4,4.9939 -2.70513,7.49074 -8.11475,7.49054 -22.47178,2e-4 -40.15776,-0.62397 -53.05794,-1.87263 0.624,15.60546 1.24826,37.34879 1.87263,65.23007 0.20797,11.86012 1.14422,32.45907 2.80895,61.7969 1.45633,26.42498 2.18457,47.02393 2.18474,61.7969 -1.7e-4,4.36949 -2.91315,6.86632 -8.73896,7.49054 -7.07453,0.83222 -24.76051,1.24842 -53.05794,1.24842 -23.512034,0 -38.805187,-0.62417 -45.879513,-1.87264 -7.074449,-1.24841 -10.611638,-5.51385 -10.611586,-12.79633 l 0,-171.97017 c -5.2e-5,-6.03384 -4.161452,-9.05086 -12.484222,-9.05106 -1.456535,2e-4 -3.849336,0.10423 -7.178433,0.31208 -3.121079,0.20826 -5.409854,0.31229 -6.866317,0.31209 -5.825985,2e-4 -8.8430079,-1.66437 -9.0510681,-4.99369 -1.8726348,-18.1019 -2.8089522,-44.42277 -2.8089418,-78.9627 -1.04e-5,-7.69832 3.9533193,-12.3799 11.8600099,-14.04476 7.074357,-0.62387 14.252779,-1.14409 21.535279,-1.56052 -1.040394,-16.64532 -1.56057,-29.64971 -1.560529,-39.01321 -4.1e-5,-35.78773 6.970311,-61.7965 20.911078,-78.026384 27.673267,-32.250467 72.408343,-48.375905 134.205373,-48.376364 4.16122,4.59e-4 6.65805,1.24888 7.49054,3.745268 1.66436,9.363612 4.05716,23.200279 7.17843,41.510041 0.20786,1.664975 1.56032,7.490939 4.05737,17.477912 1.87242,7.698992 2.80874,13.628992 2.80895,17.790017 -2.1e-4,4.99406 -7.38671,8.21915 -22.15949,9.67527 -17.06195,1.873 -27.5695,4.99406 -31.52266,9.36317 -6.86648,7.49089 -10.29964,22.15984 -10.29948,44.00688 -1.6e-4,6.86663 0.52007,13.31682 1.56053,19.35055 5.8258,2.9e-4 14.87685,-0.20775 27.15318,-0.62417 12.27595,-0.41591 21.53507,-0.62387 27.77738,-0.62417 6.2419,3e-4 9.36295,2.28909 9.36318,6.86633 -2.3e-4,9.77959 0.10372,24.55257 0.3121,44.31899 0.20787,19.55885 0.3119,34.22779 0.31211,44.00688"
     id="path5261"
     style="font-size:64px;font-style:normal;font-variant:normal;font-weight:bold;font-stretch:normal;text-align:start;line-height:100%;letter-spacing:0px;word-spacing:0px;writing-mode:lr-tb;text-anchor:start;fill:#3d8e8e;fill-opacity:1;stroke:none;font-family:Berlin Sans FB Demi;-inkscape-font-specification:Berlin Sans FB Demi Bold" /><path
     d="m 450.59352,316.59617 c 5.26054,0.48803 8.65575,3.62812 9.31476,9.16824 0.58956,5.01983 -3.72763,9.38107 -9.07753,9.51014 -5.8311,0.12907 -9.5125,-2.47668 -10.01948,-8.43562 -0.46581,-5.58308 3.70161,-10.06495 9.78225,-10.24276 z m 9.18917,-55.58859 c -0.0411,0.003 -0.0848,0.0114 -0.12559,0.0209 -9.84534,-0.024 -16.4736,13.69983 -18.53185,18.48999 -1.59176,3.70529 -4.48703,3.23532 -8.03093,1.91878 -11.46244,-2.40588 -18.24896,-1.56127 -26.55581,1.54199 -7.38808,2.76004 -13.69407,8.3839 -18.73419,14.4501 -3.46966,4.17603 -5.36977,9.47731 -7.41692,14.50592 -1.04698,2.57179 -1.67886,5.29217 -2.46999,7.95419 -8.52913,-3.8279 -9.60923,14.52263 -10.78698,14.31055 -1.91098,0.20051 -0.90228,-14.33646 -5.10045,-14.69431 -5.22435,-0.44574 -5.83805,23.81682 4.5283,24.60216 9.18452,0.69677 10.63449,-14.87946 11.2754,-14.81293 0.64069,0.0703 0.0902,6.65998 0.88613,10.17299 3.15185,13.92853 5.84494,17.13842 14.93851,25.92785 5.7888,5.59487 3.41878,11.54299 1.98855,16.53633 -1.7128,5.58263 1.19741,9.54534 3.79568,10.04739 4.01944,0.77622 12.35351,0.97862 16.98287,-0.16745 2.59894,-0.31979 4.11125,-4.99494 2.60953,-9.245 -1.82138,-5.16603 -0.21574,-12.677 5.40745,-12.38481 2.54374,0.12975 10.64999,-0.12687 14.6036,0.31399 4.2882,0.48024 5.75654,6.74674 4.65389,11.41495 -1.96889,5.5804 -0.84901,9.72064 3.16772,10.29858 3.62603,0.74995 11.53649,0.74555 16.87124,-0.27212 3.22288,-0.82584 6.07994,-4.94361 4.36782,-9.60782 -2.64803,-5.76778 -2.44402,-13.09026 -0.16746,-15.30832 1.6895,-1.64924 4.52168,-3.92429 6.08426,-4.70273 11.67962,-8.27225 13.11061,-12.19196 15.94325,-28.46761 0.89361,-5.12798 -3.52242,-4.07277 -8.99381,-4.07478 -6.50911,-0.006 -7.36003,-0.0123 -7.96814,-6.04937 -0.98048,-9.76526 -3.78978,-17.56182 -9.57292,-25.42548 -2.25892,-2.44993 -1.08806,-4.79945 -0.94892,-8.05186 0.22667,-5.29934 0.10824,-10.61312 0.2442,-15.91535 0.0633,-2.48462 -0.4197,-13.21574 -2.82583,-13.32675 -0.0388,-0.002 -0.0775,-0.003 -0.11861,0 z m 134.84495,68.95458 c 0,44.52718 -13.1088,81.45963 -39.3253,110.79748 -27.04946,30.37829 -62.52542,45.56741 -106.42799,45.56741 -16.02163,0 -33.18742,-3.95333 -51.49742,-11.86001 -18.31035,-7.90666 -26.63316,-11.85999 -24.96844,-11.86001 -2.70506,2e-5 -4.05752,3.12108 -4.05738,9.36317 -1.4e-4,10.61159 0.52007,26.52898 1.56053,47.75215 1.04021,21.43119 1.56038,37.45261 1.56053,48.06426 -1.5e-4,6.65816 -3.43331,9.98729 -10.29948,9.98737 l -63.66954,0.3121 c -14.35691,-9e-5 -23.61604,-0.52025 -27.77739,-1.56054 -6.24216,-1.45658 -9.36321,-5.30587 -9.36317,-11.54789 l 0.62421,-240.3213 c -4e-5,-48.4802 -3.64126,-89.36599 -10.92369,-122.65749 -0.41614,-2.08043 -0.62421,-3.84902 -0.62421,-5.3058 -3e-5,-3.12076 1.24839,-5.20147 3.74527,-6.24211 8.1147,-3.12075 23.61593,-6.44988 46.50372,-9.98738 22.26343,-3.53688 38.38887,-5.30549 48.37637,-5.3058 8.11459,2.3e-4 12.69214,5.41014 13.73264,16.22949 1.24828,10.61187 2.70477,15.91767 4.36947,15.91739 -2.08085,2.2e-4 6.76214,-5.61762 26.52897,-16.8537 19.97457,-11.44357 38.07667,-17.1655 54.30637,-17.16581 45.151,2.3e-4 81.25117,14.87733 108.30063,44.6311 26.2165,28.71396 39.32492,66.06254 39.3253,112.0459"
     id="path4750"
     style="fill:#3d8e8e" /></g></svg>