<?xml version="1.0" encoding="utf-8"?>
<!-- Generator: Adobe Illustrator 16.0.2, SVG Export Plug-In . SVG Version: 6.00 Build 0)  -->
<svg version="1.2" baseProfile="tiny" id="Layer_1" xmlns="http://www.w3.org/2000/svg" xmlns:xlink="http://www.w3.org/1999/xlink"
	 x="0px" y="0px" width="150px" height="150px" viewBox="0 0 150 150" xml:space="preserve">
<g>
	<path fill-rule="evenodd" d="M17.42,73.589c1.014-9.269,1.871-18.56,3.101-27.8c0.719-5.393,3.151-9.763,8.772-11.813
		c1.473-0.537,2.711-2.045,3.767-3.342C41.273,20.546,51.25,13.113,64.002,9.78c3.963-1.035,7.927-2.868,11.904-2.907
		c13.535-0.14,23.496,7.983,33.499,15.688c1.919,1.478,3.608,3.323,5.156,5.203c2.577,3.13,5.205,5.807,9.335,7.199
		c2.256,0.761,4.006,3.454,5.607,5.563c0.901,1.185,1.425,2.944,1.455,4.458c0.297,14.564,3.767,29.215-0.375,43.663
		c-1.772,6.184-3.326,13.149-7.273,17.821c-5.719,6.768-12.989,12.625-20.555,17.336c-11.57,7.206-24.737,7.741-38.032,5.895
		c-1.185-0.165-2.913,0.201-3.633,1.001c-0.743,0.827-0.563,2.484-0.788,3.778c-0.132-1.417,0.088-3.011-0.506-4.197
		c-0.486-0.971-1.847-1.738-2.979-2.113c-8.051-2.669-15.147-6.942-21.358-12.653c-1.153-1.06-1.71-2.767-2.545-4.174
		c-0.297-0.502-0.507-1.324-0.921-1.446c-4.119-1.214-5.88-4.475-7.49-8.053C20.453,92.846,17.098,83.711,17.42,73.589z
		 M126.591,49.982c0-1.582,0.001-3.164,0-4.746c-0.004-4.794-2.339-7.076-7.157-7.852c-7.803-1.256-14.922,1.249-22.192,3.121
		c-0.754,0.194-1.403,0.855-2.061,1.352c-0.556,0.421-1.054,0.917-1.577,1.379c-0.322-1.011-1.18-2.278-0.848-2.977
		c0.577-1.211,1.717-2.558,2.928-2.992c5.344-1.916,10.742-3.743,16.238-5.138c2.162-0.55,3.624-0.863,1.696-2.941
		c-6.298-6.79-12.498-13.818-22.655-14.795c-0.834-0.079-1.702-0.888-2.354-1.555c-1.314-1.342-13.834-4.163-15.585-3.457
		c-0.911,0.365-1.872,0.697-2.839,0.815c-11.75,1.442-21.587,6.67-29.774,15.093c-1.856,1.909-3.443,4.08-5.153,6.131
		c2.611,0.425,5.223,0.853,7.836,1.27c0.281,0.044,0.607-0.06,0.856,0.044c4.573,1.915,9.236,3.666,13.617,5.953
		c0.784,0.41,0.398,3.061,0.552,4.676c-1.237-0.303-2.638-0.332-3.682-0.958c-3.278-1.968-6.237-5.466-9.661-5.948
		c-4.746-0.67-9.807,0.834-14.725,1.463c-2.994,0.385-4.723,2.019-4.592,5.18c0.25,5.979,0.353,11.976,0.954,17.921
		c0.159,1.576,2.129,2.891,2.885,4.505c0.92,1.965,1.599,4.088,2.029,6.214c0.126,0.628-1.218,2.221-1.42,2.144
		c-1.797-0.686-3.88-1.289-5.106-2.625c-1.272-1.385-1.636-3.585-2.509-5.374c-0.283-0.579-0.918-0.988-1.393-1.475
		c-0.224,0.613-0.658,1.231-0.641,1.839c0.164,5.708-0.309,11.553,0.752,17.099c4.17,21.804,23.783,40.334,47.418,43.276
		c30.829,3.838,61.566-19.799,61.717-53.015c0.008-1.956-0.336-3.913-0.516-5.87c-1.367,1.347-2.665,2.775-4.129,4.007
		c-0.738,0.621-2.258,1.471-2.588,1.2c-0.9-0.743-1.771-1.982-1.878-3.102c-0.115-1.176,0.378-2.656,1.107-3.626
		C125.788,61.367,126.811,55.85,126.591,49.982z"/>
	<path fill-rule="evenodd" d="M100.301,142.584c-2.63,0-4.235-0.169-5.793,0.035c-3.161,0.414-4.556-1.006-4.618-4.023
		c-0.02-0.973,0.059-1.946,0.092-2.92c0.187,0.822,0.107,2.058,0.614,2.384c1.163,0.747,2.669,1.584,3.935,1.447
		c6.079-0.66,10.733-4.17,14.465-8.651c3.573-4.291,6.544-9.085,9.805-13.639c0.3-0.416,0.8-0.689,1.206-1.029
		c-0.077,0.522-0.047,1.09-0.246,1.561c-2.296,5.429-4.691,10.814-6.927,16.266C110.32,140.137,106.957,144.756,100.301,142.584z"/>
	<path fill-rule="evenodd" d="M49.738,142.532c-6.523,2.08-9.955-2.215-12.424-8.208c-2.131-5.174-4.42-10.28-6.601-15.435
		c-0.258-0.606-0.268-1.319-0.392-1.982c0.446,0.453,0.944,0.867,1.331,1.367c3.776,4.862,7.292,9.953,11.364,14.552
		c3.817,4.308,8.795,6.852,14.75,7.099c0.645,0.027,1.265,0.632,1.896,0.968c-0.572,0.548-1.112,1.52-1.721,1.564
		C55.514,142.638,53.063,142.532,49.738,142.532z"/>
	<path fill-rule="evenodd" d="M113.995,84.689c-0.624-0.979,1.135-4.683-2.375-1.795c-0.212,0.175-0.755-0.052-1.144-0.09
		c0.109-0.513,0.083-1.116,0.352-1.525c2.379-3.633,8.856-3.234,10.986,0.691c0.293,0.539,0.19,1.292,0.271,1.945
		c-0.54-0.285-1.123-0.517-1.611-0.874c-0.658-0.482-1.247-1.063-1.864-1.601c-0.41,0.845-0.971,1.65-1.205,2.541
		c-2.038,7.771-3.282,15.844-6.175,23.275c-5.264,13.529-23.039,18.982-37.577,14.18c-0.556-0.184-0.949-0.857-1.419-1.303
		c0.729-0.339,1.446-0.708,2.19-1.011c7.812-3.173,16.132-5.479,23.314-9.717C106.83,104.042,112.499,95.516,113.995,84.689z"/>
	<path fill-rule="evenodd" d="M119.849,50.846c-0.69,3.935-1.354,7.874-2.126,11.793c-0.056,0.285-1.166,0.719-1.326,0.574
		c-4.183-3.772-8.348-7.568-12.363-11.514c-0.355-0.35,0.08-2.372,0.57-2.571c3.646-1.479,7.314-3.223,11.144-3.843
		C119.606,44.66,119.881,47.865,119.849,50.846z"/>
	<path fill-rule="evenodd" d="M31.622,49.908c-0.354-3.453,1.519-4.76,4.606-4.67c1.698,0.052,3.555,0.111,5.04,0.806
		c2.371,1.104,4.493,2.742,6.72,4.155c-1.464,1.623-2.876,3.298-4.41,4.852c-1.199,1.217-2.475,2.39-3.853,3.393
		c-3.058,2.228-6.34,1.007-7.129-2.627C32.174,53.868,31.94,51.88,31.622,49.908z"/>
	<path fill-rule="evenodd" d="M69.82,102.558c-0.69,0.562-2.009,2.475-3.615,2.76c-3.233,0.571-6.989-4.412-6.832-8.532
		c0.093-2.434,1.097-4.219,3.849-4.213C66.373,92.579,69.881,97.133,69.82,102.558z"/>
	<path fill-rule="evenodd" d="M81.535,102.354c0.103-5.478,3.685-9.897,6.829-9.763c2.75,0.118,3.61,1.942,3.633,4.389
		c0.038,4.225-3.738,9.082-6.953,8.346C83.438,104.957,82.207,102.957,81.535,102.354z"/>
</g>
</svg>
