<?xml version="1.0" encoding="UTF-8" standalone="no"?>
<!-- Created with Inkscape (http://www.inkscape.org/) -->

<svg
   xmlns:dc="http://purl.org/dc/elements/1.1/"
   xmlns:cc="http://creativecommons.org/ns#"
   xmlns:rdf="http://www.w3.org/1999/02/22-rdf-syntax-ns#"
   xmlns:svg="http://www.w3.org/2000/svg"
   xmlns="http://www.w3.org/2000/svg"
   xmlns:sodipodi="http://sodipodi.sourceforge.net/DTD/sodipodi-0.dtd"
   xmlns:inkscape="http://www.inkscape.org/namespaces/inkscape"
   width="400"
   height="400"
   id="svg2"
   version="1.1"
   inkscape:version="0.48.3.1 r9886"
   sodipodi:docname="ma.svg">
  <defs
     id="defs4" />
  <sodipodi:namedview
     id="base"
     pagecolor="#ffffff"
     bordercolor="#666666"
     borderopacity="1.0"
     inkscape:pageopacity="0.0"
     inkscape:pageshadow="2"
     inkscape:zoom="1.4125"
     inkscape:cx="200"
     inkscape:cy="200"
     inkscape:document-units="px"
     inkscape:current-layer="layer1"
     showgrid="false"
     borderlayer="false"
     inkscape:showpageshadow="false"
     inkscape:window-width="1280"
     inkscape:window-height="744"
     inkscape:window-x="0"
     inkscape:window-y="24"
     inkscape:window-maximized="1" />
  <metadata
     id="metadata7">
    <rdf:RDF>
      <cc:Work
         rdf:about="">
        <dc:format>image/svg+xml</dc:format>
        <dc:type
           rdf:resource="http://purl.org/dc/dcmitype/StillImage" />
        <dc:title />
      </cc:Work>
    </rdf:RDF>
  </metadata>
  <g
     inkscape:label="Layer 1"
     inkscape:groupmode="layer"
     id="layer1"
     transform="translate(0,-1704.7244)">
    <text
       xml:space="preserve"
       style="font-size:16px;font-style:normal;font-variant:normal;font-weight:normal;font-stretch:normal;text-align:start;line-height:100%;letter-spacing:0px;word-spacing:0px;writing-mode:lr-tb;text-anchor:start;fill:#000000;fill-opacity:1;stroke:none;font-family:Ubuntu;-inkscape-font-specification:Ubuntu"
       x="425.71429"
       y="629.50507"
       id="text2985"
       sodipodi:linespacing="100%"><tspan
         sodipodi:role="line"
         id="tspan2987"
         x="425.71429"
         y="629.50507"
         style="font-size:144px" /></text>
    <path
       style="font-size:144px;font-style:normal;font-variant:normal;font-weight:bold;font-stretch:normal;text-align:start;line-height:100%;letter-spacing:0px;word-spacing:0px;writing-mode:lr-tb;text-anchor:start;fill:#000000;fill-opacity:1;stroke:none;font-family:Berlin Sans FB Demi;-inkscape-font-specification:Berlin Sans FB Demi Bold"
       d="m -84.76268,1842.3206 c -16.76469,10e-5 -28.90273,4.3799 -36.4101,13.1294 -3.78195,4.4026 -5.66975,11.4645 -5.66973,21.1736 -2e-5,2.5398 0.13583,6.0543 0.41813,10.5702 -1.97568,0.1126 -3.91784,0.2654 -5.83704,0.4341 -2.14491,0.4519 -3.21118,1.725 -3.21118,3.814 0,9.3701 0.24468,16.4972 0.75259,21.4077 0.0566,0.903 0.87814,1.3546 2.45859,1.3546 0.39518,0 1.00979,-0.04 1.85652,-0.082 0.90307,-0.045 1.56169,-0.082 1.95675,-0.082 2.25792,0 3.37846,0.8221 3.37846,2.4581 l 0,10.7878 c -1.70486,0.102 -3.38979,0.2051 -5.05087,0.3514 -2.03993,0.4299 -3.04405,1.6435 -3.04404,3.6295 -1e-5,8.9111 0.23611,15.7015 0.7192,20.3706 0.0536,0.859 0.82174,1.3046 2.32484,1.3046 0.37568,0 0.98425,-0.04 1.78954,-0.082 0.85883,-0.043 1.46393,-0.082 1.83972,-0.082 0.54427,0 1.01605,0.05 1.42161,0.1509 l 0,10.2351 c 0,1.9763 0.95755,3.1233 2.87666,3.4624 1.91921,0.3383 6.08161,0.5016 12.4601,0.5016 7.67667,0 12.464078,-0.1083 14.38339,-0.334 1.58045,-0.1694 2.37487,-0.8384 2.37494,-2.0244 -6e-5,-3.1439 -0.12674,-7.2997 -0.36795,-12.3935 3.20574,0.2591 7.33504,0.4019 12.5102,0.4019 1.39567,0 2.09054,-0.6519 2.09062,-1.9397 0,-2.5227 -0.0298,-6.3105 -0.0837,-11.3563 -0.0535,-5.1001 -0.0667,-8.9165 -0.0667,-11.4398 -1e-4,-1.1814 -0.81484,-1.7567 -2.42522,-1.7567 -1.61036,0 -4.00784,0.043 -7.17492,0.1506 -2.59638,0.087 -4.47779,0.1356 -5.95409,0.1509 -0.12868,-5.2332 -0.25433,-9.7861 -0.38466,-13.0455 3.49964,0.3388 8.28709,0.5021 14.38339,0.5021 1.46761,0 2.20767,-0.6694 2.20775,-2.0239 0,-2.6531 -0.0268,-6.6355 -0.0837,-11.9409 -0.0562,-5.3631 -0.0834,-9.3731 -0.0834,-12.0261 -8e-5,-1.2414 -0.84883,-1.8564 -2.54218,-1.8564 -1.69346,0 -4.21263,0.043 -7.54292,0.167 -3.33037,0.1125 -5.77848,0.1675 -7.35899,0.1675 -0.282236,-1.6364 -0.418157,-3.3887 -0.41808,-5.2516 -7.7e-5,-5.9267 0.93029,-9.9095 2.79307,-11.9415 1.07239,-1.185 3.91775,-2.0338 8.54638,-2.5421 4.00767,-0.3951 6.00417,-1.2713 6.00425,-2.6258 -8e-5,-1.129 -0.24461,-2.7281 -0.75259,-4.8171 -0.67739,-2.7092 -1.04751,-4.2979 -1.10382,-4.7496 -0.84682,-4.9673 -1.48862,-8.716 -1.94011,-11.256 -0.22586,-0.6771 -0.91155,-1.0203 -2.04045,-1.0204 z"
       id="path2998"
       inkscape:connector-curvature="0" />
    <path
       style="fill:#ffff00;fill-opacity:1;stroke:none"
       d="m 534.94189,1842.3276 c 1.1289,10e-5 1.83664,0.3542 2.0625,1.0313 0.45149,2.54 1.09068,6.2827 1.9375,11.25 0.0563,0.4517 0.41636,2.0408 1.09375,4.75 0.50798,2.089 0.74992,3.6835 0.75,4.8125 -8e-5,1.3545 -1.99233,2.2299 -6,2.625 -4.62863,0.5083 -7.45886,1.3462 -8.53125,2.5312 -1.86278,2.032 -2.81258,6.0108 -2.8125,11.9375 -8e-5,1.8629 0.15526,3.6136 0.4375,5.25 1.5805,0 4.01338,-0.044 7.34375,-0.1562 3.33029,-0.124 5.83779,-0.1563 7.53125,-0.1563 1.69335,0 2.56242,0.6024 2.5625,1.8438 0,2.653 0.006,6.6681 0.0625,12.0312 0.0569,5.3054 0.0937,9.2844 0.0937,11.9375 -8e-5,1.3545 -0.75114,2.0313 -2.21875,2.0313 -6.0963,0 -10.87535,-0.1612 -14.375,-0.5 0.13034,3.2594 0.27757,7.798 0.40625,13.0312 1.4763,-0.015 3.34112,-0.069 5.9375,-0.1562 3.16708,-0.1076 5.57714,-0.125 7.1875,-0.125 1.61038,0 2.40615,0.5686 2.40625,1.75 0,2.5233 0.009,6.3374 0.0625,11.4375 0.0539,5.0458 0.0937,8.821 0.0937,11.3437 -8e-5,1.2878 -0.69808,1.9375 -2.09375,1.9375 -5.17516,0 -9.29426,-0.1159 -12.5,-0.375 0.24121,5.0938 0.37494,9.2311 0.375,12.375 -7e-5,1.186 -0.79455,1.8619 -2.375,2.0313 -1.91931,0.2257 -6.72957,0.3437 -14.40625,0.3437 -6.37849,0 -10.51829,-0.1617 -12.4375,-0.5 -1.91912,-0.3391 -2.875,-1.4924 -2.875,-3.4687 l 0,-10.25 c -0.40555,-0.1009 -0.89324,-0.1563 -1.4375,-0.1563 -0.3758,0 -0.98493,0.051 -1.84375,0.094 -0.80529,0.042 -1.40558,0.094 -1.78125,0.094 -1.5031,0 -2.2589,-0.4535 -2.3125,-1.3125 -0.4831,-4.6691 -0.71876,-11.4639 -0.71875,-20.375 -1e-5,-1.986 0.99132,-3.1951 3.03125,-3.625 1.66108,-0.1463 3.35764,-0.2417 5.0625,-0.3437 l 0,-10.8125 c 0,-1.636 -1.14834,-2.4375 -3.40625,-2.4375 -0.39506,0 -1.03443,0.018 -1.9375,0.063 -0.84673,0.042 -1.47983,0.094 -1.875,0.094 -1.58045,0 -2.3809,-0.4407 -2.4375,-1.3437 -0.50791,-4.9105 -0.75,-12.0362 -0.75,-21.4063 0,-2.089 1.04258,-3.3606 3.1875,-3.8125 1.9192,-0.1687 3.86807,-0.3249 5.84375,-0.4375 -0.2823,-4.5159 -0.40627,-8.0539 -0.40625,-10.5937 -2e-5,-9.7091 1.87431,-16.7537 5.65625,-21.1563 7.50737,-8.7495 19.64156,-13.1249 36.40625,-13.125 z"
       id="path3474-7"
       inkscape:connector-curvature="0" />
    <g
       id="g4710"
       transform="translate(10,6.813726e-6)">
      <path
         inkscape:connector-curvature="0"
         id="path3474"
         d="m 172.51127,1925.6142 c 8.34239,-43.2478 -12.89061,-91.6675 -59.69857,-102.802 -44.142602,-10.5373 -89.139882,12.9545 -103.8402614,54.1382 -19.9245606,55.8257 22.4693994,110.3946 83.6386094,112.1831 21.433602,0.6419 71.524682,-19.9058 79.900222,-63.5193 z"
         style="fill:#ffff00;fill-opacity:1;stroke:none" />
      <path
         inkscape:connector-curvature="0"
         id="path4493"
         d="m 95.690634,1848.865 c -10.08003,10e-5 -17.48352,2.6263 -22.1875,7.9062 -4.70401,5.1841 -7.03126,12.5876 -7.03125,22.1875 l 0,27 0,15.6563 0,38.9687 13.375,0 0,-38.9687 0.0313,0 0,-2.2188 28.781256,0 0,-11.2187 -28.781256,0 0,-2.2188 -0.0313,0 0,-9 28.812506,0 0,-11.25 -28.812506,0 0,-6.4687 c -2e-5,-5.7599 1.25398,-10.3274 3.75,-13.6875 2.49597,-3.4559 6.85372,-5.1874 13.09375,-5.1875 3.07196,10e-5 5.669216,0.2991 7.781256,0.875 2.11195,0.4801 3.7542,1.0178 4.90625,1.5937 l 2.4375,-11.5312 c -1.15205,-0.4799 -3.1513,-1.0177 -6.03125,-1.5938 -2.78405,-0.5759 -6.157796,-0.8436 -10.093756,-0.8437 z"
         style="font-size:144px;font-style:normal;font-variant:normal;font-weight:normal;font-stretch:normal;text-align:start;line-height:100%;letter-spacing:0px;word-spacing:0px;writing-mode:lr-tb;text-anchor:start;fill:#000000;fill-opacity:1;stroke:none;font-family:Ubuntu;-inkscape-font-specification:Ubuntu" />
    </g>
    <path
       style="font-size:144px;font-style:normal;font-variant:normal;font-weight:bold;font-stretch:normal;text-align:start;line-height:100%;letter-spacing:0px;word-spacing:0px;writing-mode:lr-tb;text-anchor:start;fill:#000000;fill-opacity:1;stroke:none;font-family:Ubuntu;-inkscape-font-specification:Ubuntu Bold"
       d="m -34.1875,1845.5057 c -10.84803,10e-5 -19.05703,2.8651 -24.625,8.625 -5.47201,5.7601 -8.18751,13.5517 -8.1875,23.3437 l 0,30.0313 0,24.6562 0,25.0938 21.4375,0 0,-25.0938 0.0313,0 0,-2.75 26.5,0 0,-17.875 -26.5,0 0,-3.75 c -1e-5,-0.4825 0.009,-0.9402 0.0313,-1.4062 l -0.0625,0 0,-7.0313 26.5,0 0,-17.8437 -26.5,0 0,-3.75 c -3e-5,-2.016 0.20972,-3.897 0.59375,-5.625 0.47997,-1.728 1.19622,-3.1895 2.15625,-4.4375 1.05596,-1.248 2.42821,-2.2342 4.15625,-2.9063 1.82396,-0.7679 4.03296,-1.1249 6.625,-1.125 1.91995,10e-5 4.0107,0.2389 6.21875,0.7188 2.30394,0.3841 4.39244,1.0111 6.3125,1.875 l 4.1875,-17.1563 c -1.82406,-0.7679 -4.42131,-1.5444 -7.78125,-2.3125 -3.36005,-0.8639 -7.0618,-1.2811 -11.09375,-1.2812 z"
       id="path4580-6"
       inkscape:connector-curvature="0" />
    <path
       style="fill:#ffff00;fill-opacity:1;stroke:none"
       d="m 303.87939,1820.2963 c -36.82898,-0.2549 -70.78405,21.9076 -83.1875,56.6563 -19.92456,55.8257 22.45579,110.399 83.625,112.1875 21.43361,0.6419 71.53071,-19.9178 79.90625,-63.5313 8.34239,-43.2478 -12.87954,-91.678 -59.6875,-102.8125 -6.89728,-1.6465 -13.83607,-2.4528 -20.65625,-2.5 z m 1.6875,28.5938 c 0.60909,-0.021 1.21375,0 1.84375,0 3.93596,10e-5 7.3097,0.2678 10.09375,0.8437 2.87995,0.5761 4.8792,1.1139 6.03125,1.5938 l -2.4375,11.5312 c -1.15205,-0.5759 -2.7943,-1.1136 -4.90625,-1.5937 -2.11204,-0.5759 -4.70929,-0.8749 -7.78125,-0.875 -6.24003,10e-5 -10.59778,1.7316 -13.09375,5.1875 -2.49602,3.3601 -3.75002,7.9276 -3.75,13.6875 l 0,6.4687 28.8125,0 0,11.25 -28.8125,0 0,9 0.0313,0 0,2.2188 28.78125,0 0,11.2187 -28.78125,0 0,2.2188 -0.0313,0 0,38.9687 -13.375,0 0,-38.9687 0,-15.6563 0,-27 c -10e-6,-9.5999 2.32724,-17.0034 7.03125,-22.1875 4.40998,-4.9499 11.20746,-7.5983 20.34375,-7.9062 z"
       id="path3930"
       inkscape:connector-curvature="0" />
  </g>
</svg>
