<?xml version="1.0" encoding="UTF-8" standalone="no"?>
<!-- Created with Inkscape (http://www.inkscape.org/) -->

<svg
   xmlns:dc="http://purl.org/dc/elements/1.1/"
   xmlns:cc="http://creativecommons.org/ns#"
   xmlns:rdf="http://www.w3.org/1999/02/22-rdf-syntax-ns#"
   xmlns:svg="http://www.w3.org/2000/svg"
   xmlns="http://www.w3.org/2000/svg"
   xmlns:inkscape="http://www.inkscape.org/namespaces/inkscape"
   version="1.2"
   width="600"
   height="600"
   viewBox="0 0 600 600"
   id="Layer_1"
   xml:space="preserve"><metadata
   id="metadata9"><rdf:RDF><cc:Work
       rdf:about=""><dc:format>image/svg+xml</dc:format><dc:type
         rdf:resource="http://purl.org/dc/dcmitype/StillImage" /></cc:Work></rdf:RDF></metadata><defs
   id="defs7" />
<path
   d="m 565.925,598.922 c 18.221,0 32.995,-14.774 32.995,-32.997 V 34.074 C 598.92,15.847 584.146,1.078 565.925,1.078 H 34.076 C 15.847,1.078 1.08,15.848 1.08,34.074 v 531.851 c 0,18.223 14.768,32.997 32.996,32.997 h 531.849 z"
   inkscape:connector-curvature="0"
   id="Blue_1_"
   style="fill:#3b5998" />
<path
   d="M 413.578,598.922 V 367.405 h 77.712 l 11.634,-90.227 h -89.346 v -57.605 c 0,-26.123 7.254,-43.926 44.716,-43.926 l 47.778,-0.021 V 94.928 c -8.267,-1.098 -36.627,-3.555 -69.622,-3.555 -68.885,0 -116.046,42.047 -116.046,119.266 v 66.54 h -77.909 v 90.227 h 77.909 v 231.517 h 93.174 z"
   inkscape:connector-curvature="0"
   id="f"
   style="fill:#ffffff" />
</svg>