<?xml version="1.0" encoding="UTF-8" standalone="no"?>
<!-- Created with Inkscape (http://www.inkscape.org/) -->

<svg
   xmlns:dc="http://purl.org/dc/elements/1.1/"
   xmlns:cc="http://creativecommons.org/ns#"
   xmlns:rdf="http://www.w3.org/1999/02/22-rdf-syntax-ns#"
   xmlns:svg="http://www.w3.org/2000/svg"
   xmlns="http://www.w3.org/2000/svg"
   xmlns:inkscape="http://www.inkscape.org/namespaces/inkscape"
   version="1.2"
   width="600"
   height="600"
   viewBox="-3201.52 3034.48 600 600"
   id="svg2"
   xml:space="preserve"><metadata
   id="metadata16"><rdf:RDF><cc:Work
       rdf:about=""><dc:format>image/svg+xml</dc:format><dc:type
         rdf:resource="http://purl.org/dc/dcmitype/StillImage" /></cc:Work></rdf:RDF></metadata><defs
   id="defs14" />
<rect
   width="599.30701"
   height="599.30701"
   x="-3201.1731"
   y="3034.8269"
   id="rect3062"
   style="fill:#bc2328;stroke:#000000;stroke-width:0.06;stroke-linecap:round" />
<path
   d="m -2898.525,3161.44 c -40.072,0 -99.282,2.427 -117.005,3.02 -19.25,1.722 -26.375,2.729 -36.918,11.752 -16.064,14.287 -19.875,42.359 -19.875,85.308 v 40.875 c 0,49.022 6.511,73.927 17.23,83.036 12.374,10.615 20.532,11.463 28.771,12.735 3.199,0.483 25.838,4.495 126.299,4.495 62.647,0 116.495,-2.959 122.062,-3.676 8.949,-1.129 21.803,-2.768 31.511,-13.555 14.371,-16.333 17.23,-43.448 17.23,-82.732 v -47.616 c 0,-25.429 -1.417,-61.366 -17.23,-76.411 -11.979,-10.141 -16.366,-13.011 -41.156,-14.258 -7.012,-0.346 -68.186,-2.973 -110.919,-2.973 z m -37.082,72.666 92.518,47.757 -92.518,48.132 v -95.889 z"
   inkscape:connector-curvature="0"
   id="path3042"
   style="fill:#ffffff" />
<path
   d="m -3052.095,3488.241 v 24.533 h -4.87 v -24.62 l -21.823,-39.806 h 5.717 l 18.539,35.027 18.634,-35.027 h 5.528 l -21.725,39.893 z"
   inkscape:connector-curvature="0"
   id="path3048"
   style="fill:#ffffff" />
<path
   d="m -3004.876,3463.996 c -8.178,0 -21.093,3.878 -21.093,24.839 0,18.637 10.6,25.002 20.906,25.002 10.516,0 21.631,-5.859 21.631,-25.049 -0,-18.818 -10.944,-24.792 -21.444,-24.792 z m 0,4.355 c 12.619,0 16.504,11.172 16.504,20.672 0,13.449 -6.857,20.413 -16.317,20.413 -8.126,0 -16.458,-5.013 -16.458,-20.694 0,-9.803 4.257,-20.391 16.271,-20.391 z"
   inkscape:connector-curvature="0"
   id="path3050"
   style="fill:#ffffff" />
<path
   d="m -2971.188,3464.829 h 4.495 v 32.213 c 0,7.99 3.847,12.404 12.339,12.404 8.464,0 16.502,-3.355 16.502,-16.15 v -28.467 h 4.495 v 47.945 h -3.982 l -0.844,-6.562 c -3.16,5.122 -8.809,7.632 -16.455,7.632 -8.557,0 -16.55,-3.148 -16.55,-16.148 v -32.867 z"
   inkscape:connector-curvature="0"
   id="path3052"
   style="fill:#ffffff" />
<path
   d="m -2905.078,3512.774 v -59.932 h -21.163 v -4.494 h 47.195 v 4.494 h -21.163 v 59.932 h -4.869 z"
   inkscape:connector-curvature="0"
   id="path3054"
   style="fill:#ffffff" />
<path
   d="m -2871.63,3464.829 h 4.495 v 32.213 c 0,7.99 3.848,12.404 12.339,12.404 8.464,0 16.502,-3.355 16.502,-16.15 v -28.467 h 4.495 v 47.945 h -3.982 l -0.844,-6.562 c -3.16,5.122 -8.809,7.632 -16.455,7.632 -8.558,0 -16.55,-3.148 -16.55,-16.148 v -32.867 z"
   inkscape:connector-curvature="0"
   id="path3056"
   style="fill:#ffffff" />
<path
   d="m -2818.178,3444.612 v 68.172 h 3.418 l 0.819,-7.492 c 3.193,5.258 8.66,8.545 15.849,8.545 12.38,0 20.671,-7.703 20.671,-24.955 0,-10.826 -2.857,-24.839 -20.203,-24.839 -7.599,0 -11.113,1.653 -15.685,7.89 v -27.32 h -4.869 z m 20.366,23.551 c 10.224,0 15.475,7.383 15.475,20.952 0,14.319 -6.899,20.578 -15.475,20.578 -13.128,0 -15.498,-9.384 -15.498,-20.905 10e-4,-16.709 6.378,-20.625 15.498,-20.625 z"
   inkscape:connector-curvature="0"
   id="path3058"
   style="fill:#ffffff" />
<path
   d="m -2746.777,3463.949 c -10.011,0 -20.765,6.715 -20.765,25.354 0,17.835 9.954,24.581 22.802,24.581 8.698,0 14.772,-3.348 14.772,-3.348 v -4.238 c 0,0 -5.532,3.091 -14.866,3.091 -14.632,0 -17.721,-10.325 -17.721,-19.828 h 34.085 v -5.993 c 0,-11.68 -7.842,-19.619 -18.307,-19.619 z m -0.046,4.214 c 7.027,0 13.859,5.559 13.859,17.559 h -29.591 c 0,-8.307 5.251,-17.559 15.732,-17.559 z"
   inkscape:connector-curvature="0"
   id="path3060"
   style="fill:#ffffff" />
</svg>