<?xml version="1.0" encoding="utf-8"?>
<!-- Generator: Adobe Illustrator 16.0.2, SVG Export Plug-In . SVG Version: 6.00 Build 0)  -->
<!DOCTYPE svg PUBLIC "-//W3C//DTD SVG 1.1//EN" "http://www.w3.org/Graphics/SVG/1.1/DTD/svg11.dtd">
<svg version="1.1" id="lay" xmlns="http://www.w3.org/2000/svg" xmlns:xlink="http://www.w3.org/1999/xlink" x="0px" y="0px"
	 width="600px" height="600px" viewBox="0 0 600 600" enable-background="new 0 0 600 600" xml:space="preserve">
<g id="arvore">
	<g id="tronco_1_">
		<path fill-rule="evenodd" clip-rule="evenodd" fill="#3D3A30" d="M342.342,527.282c16.089-123.61,41.466-227.604,82.299-330.215
			c-1.976,8.77,1.698,13.388-0.186,22.042C396.566,347.1,373.352,467.452,370.502,600h-31.999L342.342,527.282L342.342,527.282z"/>
		<path fill-rule="evenodd" clip-rule="evenodd" fill="#58574B" d="M303.039,600c-11.936-138.73-37.918-295.282-100.646-415.822
			l1.688-22.829C283.254,267.522,340.223,462.542,360.16,600H303.039L303.039,600z"/>
		<path fill-rule="evenodd" clip-rule="evenodd" fill="#332F25" d="M303.039,600c-11.73-136.341-37.029-289.885-97.434-409.552
			l-2.282-12.567l11.932-0.747c3.01,4.463,5.979,9.063,8.916,13.769l-1.042,5.194C276.54,312.734,310.86,454.905,328.737,600
			H303.039L303.039,600z"/>
	</g>
	<g id="folhas_1_">
		<path id="f3" fill-rule="evenodd" clip-rule="evenodd" fill="#80A639" d="M406.71,196.7c-23.13-16.502-65.858-7.444-100.78,3.269
			c22.095-15.724,38.013-36.62,64.138-30.423l-9.283-8.558c31.385-6.309,45.329,4.135,58.017,34.146
			c-3.176-26.321-9.433-43.356-29.324-60.764c43.429,8.326,38.753,16.044,38.753,63.523c41.742-18.619,64.919-18.139,104.715,5.876
			h-13.504c34.669,40.321,44.028,78.913,54.857,131.191c-13.471-19.442-26.285-37.557-37.134-58.94
			c-8.187,27.662-28.543-15.284-33.757-27.572l-2.533,5.706c-23.425-19.385-46.657-34.643-69.201-35.175
			c20.965,24.066,39.167,54.357,54.855,90.313l-12.66-7.604c17.276,26.765,14.562,44.743,16.037,77.955l-32.914-54.188
			l-1.688-11.409l-6.75,0.95c-12.432-32.483-24.875-56.313-29.626-91.1c-32.332,13.38-39.458,56.365-45.162,98.447
			c-10.222-38.733-20.048-62.144-1.166-96.71l-27.851,21.864l-3.375-13.307v13.307l-14.347,4.755l-37.978,22.817
			C311.485,228.739,357.239,198.494,406.71,196.7L406.71,196.7z"/>
		<path id="f2" fill-rule="evenodd" clip-rule="evenodd" fill="#89C540" d="M198.534,163.304l-33.758-0.948
			C35.212,183.587,22.053,279.422,26.374,396.218l20.252-61.792v-25.667l4.221,11.407l17.722-22.816v-36.126l5.063,15.21
			l28.693-29.468l15.191-41.828L120.049,227c28.426-33.706,37.852-39.838,77.64-52.287L198.534,163.304L198.534,163.304z"/>
		<g id="f1">
			<path fill-rule="evenodd" clip-rule="evenodd" fill="#66BB46" d="M213.099,165.742l-4.221-3.801l-14.347-13.312
				c-52.059-57.49-89.823-82.87-167.098-81.757l28.693,9.506l18.566,22.817l24.475,23.766h25.318l-18.567,8.556l21.099,11.412
				l34.603,4.75l-11.817,6.654c11.505,3.97,22.971,7.949,34.603,11.408H213.099L213.099,165.742z"/>
			<path fill-rule="evenodd" clip-rule="evenodd" fill="#66BB46" d="M200.438,159.09c9.843-42.497,11.888-62.385,32.914-100.771
				l0.844,15.212c21.64-48.755,52.42-41.589,97.895-45.634l-6.75,9.506l17.722-9.506c46.448,14.432,67.063,22.825,91.145,68.448
				l9.283,26.617c-26.875-19.087-58.651-29.314-81.859-51.333l1.688,8.554c-29.211,8.772-48.569,6.786-73.423,26.617l-43.884-4.749
				l27.004,13.309l-26.16,24.716l-32.914,21.866l-12.658,2.85L200.438,159.09L200.438,159.09z"/>
			<path fill-rule="evenodd" clip-rule="evenodd" fill="#66BB46" d="M205.08,162.89c21.646-14.629,52.768-12.834,77.642-12.834
				l-6.329,6.182c39.173-2.942,52.974,23.768,76.798,55.614l32.068,75.578l-57.809-47.534l-17.3-12.834l-5.063-13.785l0.421,9.981
				l-24.474-18.064v16.163c-25.442-12.636-46.201-24.786-69.202-42.306L205.08,162.89L205.08,162.89z"/>
			<path fill-rule="evenodd" clip-rule="evenodd" fill="#66BB46" d="M103.86,308.065l16.879-12.358
				c-12.088,36.313-12.376,57.89-11.815,96.969l10.971-13.31l-3.377,12.357c13.445,38.706,29.135,67.101,49.792,101.724
				l-0.842-52.285l0.842-53.238l3.377-37.076l11.814,21.864c3.611-44.053,3.085-73.548-4.219-116.931l9.285,8.553
				c-0.164-35.324,3.166-56.652,12.658-86.512c-8.056,35.479-7.696,50.415-1.687,86.512l4.218-18.061
				c-1.27,44.387,25.657,77.334,47.26,111.228c-7.895-34.087-14.025-63.13-28.693-94.115l6.752-0.95
				c-0.759-36.784-6.655-60.857-16.879-96.019C158.86,139.447,112.742,265.061,103.86,308.065L103.86,308.065z"/>
		</g>
		<g id="f1n">
			<path fill-rule="evenodd" clip-rule="evenodd" fill="#499337" d="M187.824,169.683c-46.698,53.927-50.801,113.576-50.801,183.572
				c1.443-38.478,4.585-71.242,13.151-102.401c1.182,9.889,3.507,18.704,6.311,28.078c-1.681-11.382-3.505-22.533-4.624-33.963
				c2.586-8.636,5.609-17.174,9.155-25.693c-0.143,22.225,3.826,41.096,9.986,62.259c-4.29-22.554-8.279-43.786-7.977-66.951
				c2.279-5.187,4.754-10.376,7.45-15.586c-0.078,7.695,0.622,14.947,1.961,22.567c-0.618-8.562-0.733-16.734-0.542-25.274
				C176.552,187.52,181.831,178.681,187.824,169.683L187.824,169.683z"/>
			<path fill-rule="evenodd" clip-rule="evenodd" fill="#499337" d="M204.978,154.816c29.58-86.871,92.901-112.979,168.241-107.021
				C293.045,45.067,242.1,74.965,204.978,154.816L204.978,154.816z"/>
			<path fill-rule="evenodd" clip-rule="evenodd" fill="#499337" d="M205.638,161.875c71.072,0,117.579,17.139,154.054,83.24
				C318.196,181.872,277.369,168.692,205.638,161.875L205.638,161.875z"/>
			<path fill-rule="evenodd" clip-rule="evenodd" fill="#499337" d="M204.319,176.372c-2.102,28.95,4.442,64.093,11.547,90.854
				C209.9,240.009,207.206,207.059,204.319,176.372L204.319,176.372z"/>
		</g>
	</g>
</g>
<path id="grass" fill-rule="evenodd" clip-rule="evenodd" fill="#89C540" stroke="#000000" stroke-width="0.2033" stroke-miterlimit="10" d="
	M567.841,600H108.962h-8.018H32.159c0.638-12.274,12.255-19.284,35.849-27.702c-11.822,5.765-18.741,7.948-22.718,13.457
	c4.462,0.609,7.722,1.906,8.824,3.265c1.161-0.385,2.374-0.725,3.635-1.026c-1.588-1.383-3.806-2.709-6.782-4.141
	c2.262,0.725,5.332,2.1,7.908,3.885c2.188-0.477,4.5-0.845,6.899-1.141c-1.988,0.66-3.87,1.358-5.598,2.113
	c2,1.624,3.481,3.511,3.655,5.512c1.782-2.521,3.649-4.598,6.51-6.455c-0.942-2.459-1.987-4.912-3.079-7.426
	c1.967,2.214,3.575,4.252,4.976,6.309c1.717-0.922,3.752-1.796,6.234-2.654c-2.125,1.055-4.048,2.17-5.766,3.353
	c0.679,1.034,1.313,2.08,1.917,3.159c1.396-0.328,2.872-0.542,4.442-0.617c0.475-0.021,0.926-0.029,1.354-0.023
	c4.092-5.248,9.372-9.695,15.139-14.887c-6.303,6.754-9.267,9.928-10.138,15.984c0.931,0.641,0.89,1.418-0.202,1.925
	c-0.058,0.823-0.086,1.7-0.086,2.644l9.058-4.131c-0.201-0.155-0.404-0.312-0.61-0.468c0.259,0.131,0.517,0.263,0.771,0.396
	l9.398-4.285l-1.482,0.891c0.562,1.434,1.229,2.887,1.699,4.363c0.317-0.186,0.646-0.383,0.993-0.592
	c0.537-2.141,0.603-4.213,0.234-6.416c-2.215,0.763-4.618,2.152-7.189,4.299c2.075-3.031,4.426-4.872,6.877-5.805
	c-0.494-2.008-1.319-4.152-2.448-6.57c1.869,2.139,3.562,4.031,5.02,5.915c2.839-0.385,5.729,0.276,8.414,1.576
	c1.025-0.091,2.076-0.044,3.105,0.13c0.476-1.361,0.588-2.988,0.588-5.387c1.006,2.262,1.72,4.227,2.196,6.188
	c1.039,0.433,2.014,1.004,2.87,1.699c3.044-6.438,10.769-11.232,24.032-11.365c-1.542-4.103-4.072-8.203-6.76-12.158
	c9.46,10.318,12.707,16.826,16.384,28.593c0-14.929,3.737-17.347,18.615-29.489c-10.103,11.367-11.802,14.443-10.424,27.256
	c7.938-5.559,12.859-7.434,23.828-10.723c-7.12,3.321-10.461,4.826-12.289,7.197c3.029-1.386,6.239-1.316,9.293-0.338
	c4.994-4.412,8.779-8.982,13.421-14.902c-3.118,5.613-6.761,10.571-8.313,15.936c2.047,0.279,4.038,1.059,5.667,2.266l0.917-0.732
	c2.854-5.022,8.756-8.879,18.155-10.006c0.462-0.832,0.944-1.679,1.446-2.548c-0.302,0.868-0.573,1.69-0.813,2.478
	c1.651-0.174,3.406-0.266,5.271-0.266c-1.954,0.069-3.722,0.221-5.326,0.446c-0.759,2.515-1.206,4.656-1.349,6.726
	c1.17-0.158,2.35-0.162,3.518,0.012c0.432-0.949,1.039-1.936,1.857-2.994c-0.526,1.088-0.908,2.121-1.159,3.117
	c1.385,0.293,2.753,0.848,4.072,1.71c1.431-3.712,4.391-6.938,10.915-8.243c-6.511,1.776-8.859,5.291-9.699,9.138
	c1.164,0.96,2.281,2.185,3.328,3.712c-1.218-1.017-2.398-1.861-3.538-2.551c-0.377,2.6-0.202,5.286-0.259,7.638
	c2.025-2.69,6.877-8.839,12.666-10.345c6.752-7.652,13.929-14.654,22.96-22.193c-8.416,9.037-12.817,14.562-15.588,23.192
	c1.046,0.603,2.097,1.427,3.143,2.513c-1.152-0.846-2.266-1.469-3.335-1.9c-0.496,1.621-0.94,3.353-1.347,5.236l3.501,0.466
	c2.743-2.842,5.029-4.868,9.229-7.25c-3.488,2.547-5.246,4.533-7.365,7.499l0.187,0.025c2.157-1.622,4.077-2.636,7.644-3.676
	c-2.759,1.348-4.151,2.536-5.285,3.99l5.495,0.732c0.748-7.78-0.438-15.473-2.234-23.234c3.73,7.986,6.868,16.003,8.191,24.129
	c2.433-7.543,3.413-14.434,2.234-21.895c2.553,5.691,4.149,11.311,3.957,17.802c2.293-2.69,4.944-3.683,7.582-3.574
	c5.57-4.367,10.521-6.577,22.715-9.759c-10.711,4.591-14.209,6.248-17.041,10.964c1.94,0.065,3.896,0.759,5.379,1.964
	c1.905-4.028,6.297-7.182,13.568-8.096c0.244-2.363,0.327-4.812,0.327-7.513c0.688,2.581,1.277,4.973,1.703,7.321
	c0.802-0.052,1.634-0.08,2.498-0.08c-0.878,0.032-1.704,0.086-2.483,0.161c0.311,1.737,0.532,3.453,0.638,5.208
	c1.219,0.251,2.417,0.775,3.56,1.633c4.694-5.26,9.168-8.063,18.658-12.902c-11.026,6.616-12.217,8.193-14.893,17.425l4.468,1.341
	c1.079-1.297,2.259-2.523,3.517-3.694c-2.751-0.65-1.452-2.416,2.553-2.221c1.27-1.036,2.6-2.033,3.972-2.999
	c-0.44-0.324-0.902-0.645-1.384-0.961c0.576,0.268,1.112,0.537,1.61,0.804c1.024-0.714,2.071-1.413,3.136-2.1
	c-0.497,0.903-1.216,1.815-1.987,2.753c3.031,1.84,4.451,3.705,5.565,6.053l0.506-0.197c1.006-1.853,3.558-3.385,6.108-4.443
	c-0.626-0.891-1.327-1.773-2.075-2.616c-1.637,0.806-3.365,1.942-5.176,3.454c1.327-1.938,2.767-3.389,4.273-4.428
	c-4.912-5.069-11.209-8.025-11.493-0.936c-0.767-7.589,6.524-4.88,12.813,0.137c3.278-1.717,6.799-1.661,10.122-0.539
	c1.03-3.922,1.007-7.879-0.04-13.534c2.301,5.293,3.779,9.472,4.277,14.417c0.56,0.047,1.116,0.133,1.666,0.256
	c3.103-8.883,1.214-14.678-2.22-24.056c6.361,7.688,9.094,14.485,10.079,22.284c4.109-4.33,11.218-7.225,21.74-7.225
	c-14.405,0.509-18.735,5.474-21.354,11.82c0.076,1.617,0.099,3.287,0.082,5.023c0.013,0.064,0.022,0.129,0.034,0.195
	c2.287-3.318,5.774-6.523,9.679-8.373c0.205-0.2,0.41-0.4,0.619-0.598c-2.315,0.328-4.814,1.348-7.489,3.309
	c3.104-3.223,6.234-4.645,9.251-4.88c3.466-2.907,7.675-5.378,13.017-6.998c-1.539-0.905-3.399-1.683-5.651-2.298
	c2.488,0.498,4.568,1.217,6.313,2.104c2.38-0.678,4.977-1.192,7.83-1.502c9.061-0.988,15.729,0.269,17.654,8.137
	c-4.155-5.61-9.494-6.785-15.642-6.004c-2.521,0.321-4.796,0.756-6.849,1.295c5.148,4.184,5.974,10.414,6.419,15.902
	c0.601,0.504,1.154,1.028,1.649,1.578c0.202-0.469,0.393-0.932,0.571-1.389l-0.473-7.604c0.521,1.345,1.144,2.705,1.616,4.086
	c0.973-3.934,0.754-7.715-1.438-12.242c2,2.586,3.013,4.847,3.364,7.045c1.178,1.33,2.272,2.719,3.252,4.199
	c0.407-0.5,0.764-0.852,1.023-0.946c-0.307,0.394-0.6,0.786-0.874,1.174c0.747,1.153,1.424,2.361,2.01,3.639
	c0.644-0.208,1.312-0.388,1.996-0.541c0.812-1.015,1.666-1.829,2.55-2.469c1.881-2.64,3.729-5.007,6.083-7.295
	c-1.309-0.185-2.752-0.308-4.347-0.364c1.588,0,3.081,0.081,4.479,0.234c2.281-2.196,5.04-4.322,8.757-6.554
	c-2.477,2.822-4.132,5.04-5.239,7.132c3.494,0.785,6.26,2.102,8.348,3.778c1.124-0.501,2.395-0.956,3.9-1.409
	c-4.653-1.943-0.165-5.811,10.336-4.414c5.68,0.755,10.313,2.595,14.3,5.07c0.9-0.572,1.846-1.135,2.851-1.698
	c-3.236-4.631-7.909-8.876-13.963-12.851c8.221,3.844,12.843,7.514,15.999,11.758c1.56-0.804,3.264-1.613,5.169-2.451
	c-1.389,0.909-3.046,1.935-4.739,3.042c1.358,1.929,2.443,3.979,3.446,6.222c1.537-4.781,7.652-8.759,13.974-11.507
	c-1.401-2.376-3.327-4.839-5.979-7.587c3.597,2.639,6.245,4.746,8.221,6.665c3.099-1.204,6.123-2.101,8.554-2.636
	c-3.043,1.086-5.676,2.151-7.949,3.238c2.471,2.535,3.773,4.796,4.575,7.614c3.281-0.655,6.459-0.917,9.367-0.894
	c5.479-5.397,12.377-7.568,27.868-13.096c-11.822,5.765-18.741,7.948-22.718,13.457c4.462,0.609,7.723,1.906,8.826,3.265
	c1.158-0.385,2.374-0.725,3.632-1.026c-1.587-1.383-3.803-2.709-6.781-4.141c2.262,0.725,5.332,2.1,7.908,3.885
	c2.188-0.477,4.501-0.845,6.899-1.141c-1.989,0.66-3.869,1.358-5.599,2.113c2.001,1.624,3.483,3.511,3.656,5.512
	c1.782-2.521,3.648-4.598,6.51-6.455c-0.942-2.459-1.985-4.912-3.078-7.426c1.967,2.214,3.574,4.252,4.976,6.309
	c1.716-0.922,3.751-1.796,6.233-2.654c-2.125,1.055-4.048,2.17-5.766,3.353c0.681,1.034,1.313,2.08,1.917,3.159
	c1.396-0.328,2.874-0.542,4.443-0.617c0.475-0.021,0.925-0.029,1.354-0.023c4.09-5.248,9.371-9.695,15.138-14.887
	c-6.304,6.754-9.265,9.928-10.138,15.984c0.93,0.641,0.89,1.418-0.202,1.925c-0.057,0.823-0.085,1.7-0.085,2.644l18.616-8.488
	l-13.403,8.042c10.158,0,10.615-1.008,17.872-5.362C564.865,594.745,563.293,595.634,567.841,600L567.841,600z M97.899,594.659
	c-0.828-0.838-1.74-1.662-2.724-2.471l-4.828,2.897C93.744,595.086,96.055,594.973,97.899,594.659L97.899,594.659z M95.545,591.967
	c1.368,0.751,2.655,1.536,3.809,2.381c1.138-0.302,2.131-0.712,3.19-1.261l-0.319-5.129L95.545,591.967L95.545,591.967z
	 M58.999,589.244c-1.64,0.774-3.121,1.606-4.398,2.511c2.311,1.057,4.534,2.533,6.444,4.547
	C61.275,593.451,60.714,591.246,58.999,589.244L58.999,589.244z M53.328,592.741c-1.454,1.234-2.549,2.602-3.191,4.131h0.193
	c3.665-1.404,6.062-0.814,8.849-0.117C57.377,595.015,55.372,593.704,53.328,592.741L53.328,592.741z M51.381,596.872h5.237
	C55.131,596.558,53.476,596.522,51.381,596.872L51.381,596.872z M65.498,596.872h7.723c-0.346-1.449-0.745-2.873-1.189-4.282
	C69.375,593.661,67.125,595.13,65.498,596.872L65.498,596.872z M71.649,591.411c-0.289-0.871-0.596-1.738-0.916-2.603
	c-2.315,1.845-4.176,3.852-5.573,6.049C67.161,593.495,69.292,592.294,71.649,591.411L71.649,591.411z M75.194,591.555
	c0.6,1.124,1.176,2.292,1.749,3.531c0.841-1.515,1.774-2.943,2.79-4.313C78.159,590.916,76.637,591.182,75.194,591.555
	L75.194,591.555z M49.06,591.204c-2.227-0.574-4.357-0.795-6.169-0.775c-0.358,1.01-0.673,2.108-0.946,3.316l-0.504,4.121
	l2.737-2.78C45.516,593.544,47.163,592.268,49.06,591.204L49.06,591.204z M43.24,589.512c2.227-0.068,4.817,0.165,7.451,0.858
	c0.559-0.261,1.135-0.508,1.728-0.739C49.907,586.862,44.618,586.113,43.24,589.512L43.24,589.512z M491.022,595.212
	c0.367-0.172,0.741-0.339,1.122-0.504c-0.328,0.551-0.662,1.123-1.002,1.719L491.022,595.212L491.022,595.212z M492.629,593.899
	c-0.579,0.102-1.148,0.215-1.704,0.344c-0.235-2.313-0.468-4.258-0.807-5.976c2.534-0.61,4.985-0.968,7.271-1.128
	C495.805,588.981,494.284,591.175,492.629,593.899L492.629,593.899z M485.924,596.153c-0.344,0.208-0.674,0.435-0.989,0.678
	c-0.052-0.292-0.065-0.589-0.048-0.893c0.339,0.056,0.685,0.119,1.037,0.193V596.153L485.924,596.153z M485.018,595.063
	c0.161-0.674,0.451-1.371,0.84-2.084c0.029,0.754,0.048,1.528,0.058,2.329C485.614,595.218,485.315,595.137,485.018,595.063
	L485.018,595.063z M485.831,592.335c-0.55,0.807-1.122,1.713-1.646,2.549c-0.613-0.115-1.216-0.191-1.81-0.237
	c-0.135-1.13-0.471-2.241-0.878-3.341c1.376-0.652,2.756-1.219,4.126-1.707C485.718,590.483,485.784,591.394,485.831,592.335
	L485.831,592.335z M483.634,595.764c-0.472,0.752-0.869,1.376-1.125,1.71l-0.274-0.025l0.002-0.003
	c0.145-0.599,0.205-1.192,0.203-1.782C482.831,595.686,483.228,595.719,483.634,595.764L483.634,595.764z M480.622,589.118
	c-0.182-0.438-0.363-0.877-0.531-1.313l0.094,1.508c-1.962,0.887-3.904,1.946-5.793,3.203c-0.559-0.323-1.133-0.639-1.72-0.95
	c3.257-2.013,6.363-4.09,9.534-6.311c-3.36,1.698-6.21,3.096-8.982,4.296c1.577-3.92,4.489-6.918,9.504-9.678
	c1.348,2.495,2.132,4.92,2.587,7.508C483.75,587.86,482.18,588.436,480.622,589.118L480.622,589.118z M480.344,591.874l0.169,2.725
	c-0.895,0.021-1.785,0.098-2.686,0.205c-0.363-0.283-0.74-0.561-1.13-0.831C477.902,593.199,479.12,592.501,480.344,591.874
	L480.344,591.874z M480.578,595.646l0.105,1.671l-0.266-0.022c-0.432-0.53-0.915-1.035-1.444-1.522
	C479.5,595.708,480.034,595.666,480.578,595.646L480.578,595.646z M472.499,591.747c0.471,0.374,0.924,0.75,1.361,1.13
	c-0.629,0.435-1.255,0.892-1.871,1.374C472.12,593.376,472.29,592.544,472.499,591.747L472.499,591.747z M475.727,594.615
	c0.139,0.141,0.275,0.28,0.409,0.421c-0.426,0.064-0.857,0.132-1.293,0.199C475.137,595.023,475.432,594.817,475.727,594.615
	L475.727,594.615z M477.087,596.091c0.278,0.325,0.543,0.654,0.795,0.986l-3.36-0.289
	C475.38,596.511,476.23,596.274,477.087,596.091L477.087,596.091z M408.84,594.498c0.137,0.34,0.267,0.685,0.39,1.034
	c0.449-0.643,0.882-1.268,1.303-1.877C409.951,593.925,409.385,594.206,408.84,594.498L408.84,594.498z M411.288,592.565
	l0.135-0.195c-0.109,0.076-0.221,0.154-0.331,0.233L411.288,592.565L411.288,592.565z M405.853,596.427
	c0.318-0.251,0.65-0.494,0.995-0.728c0.056,0.246,0.104,0.487,0.147,0.728H405.853L405.853,596.427z M406.421,594.053
	c-0.791,0.371-1.529,0.808-2.202,1.328c-0.23-1.321,0.275-2.773,1.174-4.296C405.792,592.103,406.139,593.093,406.421,594.053
	L406.421,594.053z M405.242,590.699c-1.857,2.694-4.057,6.701-3.721,5.295c0.169-0.704,0.224-1.401,0.196-2.093
	c0.965-2.972,1.577-5.547,1.267-8.184C403.828,587.425,404.595,589.093,405.242,590.699L405.242,590.699z M394.867,591.785
	c-1.281-0.806-2.675-1.563-4.127-2.298c1.524,1.151,2.914,2.329,4.132,3.538c-0.003,1.169-0.019,2.312,0.002,3.401h-0.229
	c-1.431-1.887-3.79-4.855-6.755-7.514l0.185-0.049c0.59,0.424,1.187,0.887,1.794,1.395c-0.382-0.557-0.771-1.07-1.17-1.547
	c1.182-0.281,2.551-0.537,4.149-0.775c-1.769,0.011-3.294,0.084-4.631,0.217c-2.604-2.879-5.532-4.201-8.492-4.427
	c2.416-2.335,5.851-4.249,10.523-5.596C394.293,581.912,394.816,587.005,394.867,591.785L394.867,591.785z M517.877,589.244
	c-1.641,0.774-3.122,1.606-4.399,2.511c2.312,1.057,4.533,2.533,6.444,4.547C520.153,593.451,519.592,591.246,517.877,589.244
	L517.877,589.244z M512.206,592.741c-1.454,1.234-2.548,2.602-3.192,4.131h0.194c3.667-1.404,6.063-0.814,8.849-0.117
	C516.255,595.015,514.249,593.704,512.206,592.741L512.206,592.741z M510.259,596.872h5.238
	C514.01,596.558,512.354,596.522,510.259,596.872L510.259,596.872z M524.375,596.872h7.724c-0.346-1.449-0.744-2.873-1.188-4.282
	C528.255,593.661,526.004,595.13,524.375,596.872L524.375,596.872z M530.529,591.411c-0.292-0.871-0.598-1.738-0.919-2.603
	c-2.313,1.845-4.175,3.852-5.572,6.049C526.039,593.495,528.17,592.294,530.529,591.411L530.529,591.411z M534.073,591.555
	c0.6,1.124,1.176,2.292,1.749,3.531c0.841-1.515,1.774-2.943,2.789-4.313C537.037,590.916,535.515,591.182,534.073,591.555
	L534.073,591.555z M507.94,591.204c-2.229-0.574-4.359-0.795-6.171-0.775c-0.357,1.01-0.672,2.108-0.946,3.316l-0.504,4.121
	l2.737-2.78C504.394,593.544,506.042,592.268,507.94,591.204L507.94,591.204z M502.118,589.512c2.229-0.068,4.817,0.165,7.452,0.858
	c0.559-0.261,1.135-0.508,1.727-0.739c-1.025-1.131-3.976-2.134-8.038-2.472C502.841,587.884,502.461,588.665,502.118,589.512
	L502.118,589.512z M435.871,585.525c2.221-0.626,4.929-1.272,8.358-2.057c-2.656,1.063-4.815,1.915-6.637,2.71
	c0.956,0.275,2.134,0.508,3.538,0.669c-1.633-0.044-3.006-0.189-4.129-0.409c-1.729,0.774-3.143,1.509-4.392,2.348
	c0.882,0.974,1.584,2.031,2.112,3.15c1.953-1.585,4.642-2.373,7.164-2.152c3.801-1.837,8.1-2.114,11.816,0.902
	c1.226-1.004,2.455-1.945,3.754-2.853c-3.817-2.407-8.583-4.208-13.941-5.137C435.274,581.27,432.348,583.751,435.871,585.525
	L435.871,585.525z M462.876,585.569c-0.771,0.531-1.534,1.076-2.266,1.631c1.88,1.262,3.615,2.66,5.253,4.148
	C465.097,589.354,464.101,587.43,462.876,585.569L462.876,585.569z M458.756,588.705c-1.396,1.216-2.564,2.469-3.291,3.722
	c0.351,0.414,0.692,0.864,1.028,1.352c-0.418-0.348-0.828-0.672-1.234-0.972c-0.387,0.762-0.604,1.524-0.604,2.279
	c3.359-0.673,6.207-1.341,8.776-2.06C462.163,591.458,460.589,590.006,458.756,588.705L458.756,588.705z M465.312,595.853
	l-0.232,0.127l0.313,0.026L465.312,595.853L465.312,595.853z M319.841,592.569c0.567-0.523,1.151-1.035,1.748-1.537
	C318.684,590.786,317.954,591.89,319.841,592.569L319.841,592.569z M327.28,588.357c-0.694,0.843-1.412,1.708-2.034,2.61
	c2.727,0.68,4.843,1.988,6.664,3.566l0.229-0.088C331.187,592.233,329.558,590.224,327.28,588.357L327.28,588.357z M324.792,591.659
	c-1.118,1.816-1.754,3.789-0.991,6.016l6.919-2.68C329.304,593.547,327.25,592.378,324.792,591.659L324.792,591.659z
	 M336.123,592.903l0.132-0.052l-0.214,0.179c-0.567,0.903-0.907,1.92-1.089,3.113c2.146-1.671,4.51-2.686,6.792-3.243
	c-0.445-1.022-1.053-2.09-1.771-3.149C338.148,590.695,336.922,591.694,336.123,592.903L336.123,592.903z M331.897,596.503
	l-1.073,0.899l1.525-0.011C332.222,597.089,332.072,596.792,331.897,596.503L331.897,596.503z M335.652,597.368l6.56-0.049
	l0.02-0.032C339.475,596.438,337.652,596.66,335.652,597.368L335.652,597.368z M342.306,597.155l0.225-0.393
	c0.113-0.881-0.061-1.912-0.452-3.018c-1.947,0.543-3.979,1.439-5.897,2.823C338.228,596.247,339.989,595.976,342.306,597.155
	L342.306,597.155z M342.154,588.757c0.571-0.232,1.183-0.465,1.84-0.699c-0.594,0.131-1.272,0.312-1.991,0.539
	c-0.826-0.861-1.721-1.71-2.653-2.517c3.152-1.166,5.931-1.076,8.273-0.104c-1.853,0.679-3.478,1.907-4.579,3.758
	C342.758,589.407,342.46,589.081,342.154,588.757L342.154,588.757z M422.47,583.72c-0.828,1.625-1.327,3.189-1.629,4.914
	c1.706,0.345,3.38,1.064,4.932,2.023c1.208-1.105,2.386-1.975,3.75-2.719C427.977,586.124,425.802,584.653,422.47,583.72
	L422.47,583.72z M420.663,589.866c-0.221,1.873-0.263,3.977-0.263,6.561c1.591-1.822,2.887-3.295,4.085-4.518
	C423.392,590.912,422.112,590.196,420.663,589.866L420.663,589.866z M430.975,590.026c-0.873,0.748-1.689,1.6-2.519,2.621
	c1.313,1.146,2.471,2.437,3.4,3.754l0.145,0.021c0.142-0.801,0.413-1.541,0.788-2.215
	C432.274,592.735,431.713,591.326,430.975,590.026L430.975,590.026z M426.796,594.885c-0.146,0.211-0.291,0.427-0.438,0.647
	l0.84,0.133C427.071,595.399,426.936,595.138,426.796,594.885L426.796,594.885z M438.16,597.396l2.346,0.371l0.521-5.304
	C439.783,593.786,438.818,595.492,438.16,597.396L438.16,597.396z M442.326,591.3l4.882,5.127c2.076-1.912,3.919-3.587,5.74-5.114
	c-3.44-1.896-6.414-2.034-8.825-1.036c1.763,0.646,3.275,1.902,4.153,3.862c-1.622-1.978-3.383-3.013-5.097-3.397
	C442.885,590.909,442.601,591.097,442.326,591.3L442.326,591.3z M435.638,594.608c-0.093-0.412-0.206-0.818-0.337-1.219
	c1.171-1.281,2.959-2.389,4.988-2.726C438.55,591.74,436.958,593.119,435.638,594.608L435.638,594.608z M343.215,589.931
	c0.676,0.787,1.282,1.572,1.793,2.336c0.996-1.906,1.8-3.635,2.419-5.309C346.004,587.516,344.577,588.47,343.215,589.931
	L343.215,589.931z M352.542,586.491l0.008,0.109c0.323,0.207,0.458,2.924,0.772,3.146c0.062-0.154,0.308-2.813,0.367-2.965
	C353.316,586.663,352.933,586.565,352.542,586.491L352.542,586.491z M362.397,595.862c-0.022,0.77-0.048,1.553-0.078,2.351
	c0.484-0.751,0.979-1.513,1.484-2.28L362.397,595.862L362.397,595.862z M387.218,588.271c-0.101-0.068-0.203-0.133-0.304-0.199
	l0.246,0.206L387.218,588.271L387.218,588.271z M176.823,588.798c-0.606,1.556-0.975,3.53-1.412,6.288
	c4.188-2.653,7.568-5.109,10.509-7.579C183.332,586.765,180.277,587.051,176.823,588.798L176.823,588.798z M192.131,588.437
	l-0.043,0.185c1.297,0.843,2.519,1.818,3.634,2.874l0.999-0.799C195.472,589.661,193.885,588.817,192.131,588.437L192.131,588.437z
	 M191.676,591.638c-0.049,0.979-0.016,1.977,0.116,3.002l1.198-0.959C192.597,592.954,192.158,592.271,191.676,591.638
	L191.676,591.638z M201.101,591.912c0.316,0.879,0.902,1.454,1.98,1.991c2.642-3.209,6.327-6.102,10.302-7.476
	c1.025-2.419,2.245-4.809,3.651-7.345C206.424,580.767,203.317,585.854,201.101,591.912L201.101,591.912z M207.237,595.415
	c0.92,0.293,1.971,0.623,3.173,1.012c0.484-2.767,1.178-5.281,2.071-7.714C210.187,590.188,208.414,592.577,207.237,595.415
	L207.237,595.415z M216.333,587.243c0.012,3.256,0.783,6.514,2.268,10.97l2.389-0.286l-0.044-0.319
	c-1.411-4.08-2.524-7.076-1.597-10.391C218.289,587.081,217.283,587.095,216.333,587.243L216.333,587.243z M220.302,587.378
	c-0.444,3.447,0.614,6.588,2.381,10.346l0.362-0.044c0.251-2.69,0.323-5.882,1.2-8.874
	C222.866,588.108,221.55,587.641,220.302,587.378L220.302,587.378z M108.53,584.585c0.581,0.828,1.115,1.666,1.598,2.535
	c0.88-0.811,1.902-1.41,3.005-1.814C111.748,584.73,110.208,584.465,108.53,584.585L108.53,584.585z M110.441,587.704
	c0.683,1.316,1.246,2.713,1.674,4.254c2.147-1.676,3.685-2.896,4.782-4.004c-0.782-0.828-1.653-1.531-2.609-2.08
	C113.009,586.161,111.708,586.743,110.441,587.704L110.441,587.704z M118.366,586.128c0.043-0.071,0.083-0.142,0.124-0.213
	c-0.221-0.053-0.444-0.098-0.67-0.137C118.004,585.892,118.185,586.008,118.366,586.128L118.366,586.128z M122.151,587.569
	c0.099,0.604,0.177,1.217,0.237,1.846c0.389,0.389,0.764,0.785,1.122,1.188c0.111-0.505,0.25-1.001,0.41-1.491
	C123.417,588.562,122.82,588.037,122.151,587.569L122.151,587.569z M127.307,589.234c5.599-4.021,11.343-7.383,18.317-11.127
	c-2.897,2.406-5.158,4.206-6.912,6.065c1.902-0.765,3.883-1.193,5.858-1.15c0.32-0.561,0.665-1.156,1.054-1.787
	c-0.122,0.611-0.252,1.219-0.386,1.82c1.667,0.129,3.323,0.604,4.918,1.51c0.18-2.828-0.412-5.701-1.49-8.576
	C133.648,576.651,129.864,582.293,127.307,589.234L127.307,589.234z M135.271,589.439c-0.312,0.769-0.582,1.603-0.816,2.519
	c5.87-2.201,7.44-4.27,9.242-7.395C140.157,584.687,137.302,586.587,135.271,589.439L135.271,589.439z M144.901,584.588
	c-0.842,3.804-1.577,7.491-0.766,11.392c3.524-3.173,5.302-6.518,5.857-9.947C148.179,585.167,146.478,584.706,144.901,584.588
	L144.901,584.588z M269.452,592.843c-0.038,0.879-0.109,1.775-0.216,2.689c2.421-2.179,4.431-3.99,6.301-5.547
	C273.707,590.272,271.67,591.169,269.452,592.843L269.452,592.843z M281.752,591.747c-0.662,1.317-1.329,2.848-2.091,4.68
	l5.247,0.125C284.202,594.626,283.136,592.94,281.752,591.747L281.752,591.747z M294.258,596.775l4.02,0.097
	c0.998-2.396,1.742-4.606,2.29-6.762C297.573,590.878,295.407,593.499,294.258,596.775L294.258,596.775z M300.855,588.907
	c0.366-1.639,0.624-3.26,0.801-4.922c-8.041,1.311-10.169,5.305-11.812,9.986c0.359,0.643,0.611,1.354,0.731,2.128
	C292.857,592.791,296.76,589.632,300.855,588.907L300.855,588.907z M304.41,590.123c0.046,1.597-0.006,3.234-0.175,4.963
	c1.079-1.425,2.09-2.69,3.081-3.84C306.3,590.709,305.33,590.341,304.41,590.123L304.41,590.123z M287.284,594.332
	c0.082-0.37,0.182-0.735,0.301-1.097c-1.054-1.153-2.662-2.15-4.488-2.453C284.662,591.753,286.093,592.991,287.284,594.332
	L287.284,594.332z M378.348,585.235c-2.368,2.963-3.373,6.475-3.373,10.297c3.389-3.246,5.183-5.488,9.248-6.654
	C382.498,587.304,380.536,585.982,378.348,585.235L378.348,585.235z M385.2,589.815c-3.486,1.49-4.451,3.546-6.5,6.611h11.584
	C388.991,594.368,387.291,591.938,385.2,589.815L385.2,589.815z M229.044,596.96l0.726-0.088c2.028-2.563,4.043-5.019,6.08-7.402
	C232.877,591.381,230.59,594.501,229.044,596.96L229.044,596.96z"/>
</svg>
