<?xml version="1.0" encoding="utf-8"?>
<!-- Generator: Adobe Illustrator 16.0.2, SVG Export Plug-In . SVG Version: 6.00 Build 0)  -->
<!DOCTYPE svg PUBLIC "-//W3C//DTD SVG 1.1//EN" "http://www.w3.org/Graphics/SVG/1.1/DTD/svg11.dtd">
<svg version="1.1" id="lay" xmlns="http://www.w3.org/2000/svg" xmlns:xlink="http://www.w3.org/1999/xlink" x="0px" y="0px"
	 width="600px" height="600px" viewBox="0 0 600 600" enable-background="new 0 0 600 600" xml:space="preserve">
<g id="arvore_1_">
	<g id="folhas">
		<path fill-rule="evenodd" clip-rule="evenodd" fill="#99CC7A" d="M395.885,308.555c14.613,2.473,29.219,4.955,43.793,7.609
			c-9.209-8.611-17.328-13.473-28.453-19.541c19.172,2.51,28.082,4.545,44.645,14.299l-5.797-16.732l9.23,9.666l6.361,8.82
			c10.098-6.873,15.209-8.188,27.334-10.205l-15.27,8.965c39.469,5.82,74.313,32.51,64.107,72.602
			c2.779-27.143-14.049-39.027-38.037-50.396c15.176,21.549,22.262,35.15,4.521,57.6c4.115-23.01,0.307-38.672-21.67-49.82
			c5.518,16.785,6.645,21.602,2.758,38.732l-3.52,8.938c-2.5-19.877-5.537-29.367-15.156-46.934
			c-24.477,9.547-22.705,39.408-21.578,60.762c-8.535-30.66-11.713-43.119,6.344-67.611c-25.986,7.273-24.619,7.611-34.434,32.143
			c2.324-28.605,3.082-32.084,28.877-42.688c-52.357-3.334-94.102-1.051-109.623,49.348l-4.801-15.977
			c21.168-36.941,62.047-41.055,101.363-36.637C422.994,317.953,409.932,313.607,395.885,308.555L395.885,308.555z"/>
		<path fill-rule="evenodd" clip-rule="evenodd" fill="#99CC7A" d="M283.959,211.422c27.984-14.564,47.643,18.066,69.309,55.008
			c-15.527-37.826-22.086-48.334-44.586-67.678c16.91-4.414,25.527-3.775,40.59,12.436c-17.279-20.482-24.09-24.316-44.188-26.938
			c14.082-32.512,18.32-37.635,39.004-49.902c-22.969-0.27-27.383,4.914-46.602,30.473c11.355-41.789,13.988-64.182,16.512-111.615
			c-5.457,40.908-6.699,56.758-21.785,85.939c-2.203-61.73-14.766-97.902-44.166-112.551c23.764,25.121,28.275,49.25,28.477,104.412
			c-23.588-68.25-43.604-108.496-96.686-45.309c40.104-25.162,61.158-1.691,75.266,38.205c-34.986-18.021-43.293,9.535-70.91,48.059
			c23.854-26.139,42.145-37.688,68.629-8.646c-41.273,6.934-49.717,26.166-56.68,99.33c8.887-54.621,28.746-61.186,58.203-71.432
			c-24.238,24.619-23.883,75.568-19.672,127.283c2.309-43.873,9.711-66.883,25.652-99.594c-2.211,20.91-10.34,55.211,4.035,109.98
			c3.129-35.422,7.684-80.764,15.619-113.576c18.432,58.061,42.65,169.373,46.807,241.646l8.277-3.285
			C327.818,382.699,308.086,267.648,283.959,211.422L283.959,211.422z"/>
		<path fill-rule="evenodd" clip-rule="evenodd" fill="#99CC7A" d="M339.955,144.129c4.645,36.654,4.273,63.568-0.102,100.301
			c8.012-25.289,13.305-45.072,15.254-71.426c-0.355,30.563-1.836,55.621-8.203,85.426l-12.457,36.129l22.34-45.748
			c-6.523,20.926-12.301,38.924-22.227,58.164c-15.316,29.715-10.609,53.43-0.215,87.889
			c-19.717-33.611-18.213-66.09-12.646-101.484c1.627-10.344,3.701-20.32,6.074-30.238
			C338.018,220.381,340.42,188.156,339.955,144.129L339.955,144.129z"/>
		<path fill-rule="evenodd" clip-rule="evenodd" fill="#99CC7A" d="M394.193,222.502c-41.801-8.086-76.785,4.213-115.814,26.783
			c29.541-25.488,41.264-31.951,79.17-40.977c-25.869-8.131-39.453-9.998-65.283-1.387c29.896-11.363,41.094-12.504,72.924-9.029
			c-17.547-29.461-23.477-34.658-54.168-50.006c36.004,6.113,42.195,11.406,68.754,36.809
			c-12.002-36.008-13.023-54.348-10.42-92.367c2.885,33.689,2.643,46.504,22.221,73.617c11.992-47.963,36.676-72.963,84.732-76.395
			c-40.689,13.225-51.088,30.965-59.033,74.309c46.371-47.203,83.281-73.357,157.646-9.027
			c-57.768-39.582-106.967-16.801-136.119,19.447c57.281-4.545,79.459,9.311,117.369,47.225
			c-33.73-27.133-60.775-41.254-106.256-25.695c63.664,16.816,74.225,34.273,75.006,93.754
			c-6.357-45.418-36.549-56.055-81.256-72.227c34.547,26.045,26.945,66.035,13.195,105.563c2.449-35.154-5.953-55.297-26.393-85.422
			c0.572,17.063,8.561,46.287-21.529,85.422c0-28.73-5.371-69.828-13.256-97.828c-36.9,40.604-54.268,87.25-70.775,142.969
			l-12.5-4.861C335.742,309.949,353.789,261.545,394.193,222.502L394.193,222.502z"/>
		<path fill-rule="evenodd" clip-rule="evenodd" fill="#99CC7A" d="M214.014,268c35.254-29.531,78.281-21.953,122.027-9.99
			c-35.227-16.775-48.242-19.908-87.184-18.596c22.797-14.676,35.406-20.068,62.594-18.592
			c-31.836-3.057-42.936-1.197-72.715,10.564c9.141-33.051,13.48-39.627,39.027-62.543c-33.109,15.414-37.68,22.154-56.582,53.67
			c2.061-37.896-1.801-55.857-14.359-91.836c6.117,33.256,9.74,45.549-1.984,76.873c-22.406-39.84-30.027-40.801-73.217-56.988
			l-28.686,5.699l29.18,1.367c29.395,16.75,32.592,23.965,47.391,54.703c-57.195-33.275-99.707-48.744-154.428,32.953
			c45.26-53.441,98.725-44.473,136.42-17.217c-56.445,10.752-74.168,29.975-100.717,76.563
			c25.361-35.084,47.715-55.85,95.689-52.863c-56.953,33.045-62.525,52.67-47.564,110.244
			c-5.869-45.484,20.436-63.719,59.283-91.131c-26.441,34.248-8.535,70.807,15.17,105.295c-11.654-33.256-8.877-54.902,2.877-89.359
			c3.959,16.604,3.979,46.904,43.34,76.695c-7.594-27.709-16.529-63.551-16.32-92.643c46.314,29.408,78.648,64.6,109.293,113.971
			l10.771-7.99C296.748,331.676,263.295,294.977,214.014,268L214.014,268z"/>
		<path fill-rule="evenodd" clip-rule="evenodd" fill="#99CC7A" d="M309.111,347.543c-52.881-38.928-89.385-10.797-109.801,25.844
			c1.07-21.234,6.398-24.176,20.729-37.631c-12.787,5.287-25.123,9.531-34.029,19.09l0.695-12.961
			c-7.945,6.779-13.984,10.553-17.359,21.232l-5.557-3.26l-6.25,7.615l4.166,4.879c-12.559,9.891-15.781,21.305-18.75,38.127
			l12.5-18.01c-7.93,36.973-4.352,60.65,16.664,100.066c-12.398-32.426-12.275-47.324-11.807-78.289
			c9.088,36.371,18.398,55.295,38.893,90.195c-11.197-28.711-15.461-43.309-16.666-70.898
			c12.891,23.488,16.771,37.813,38.893,51.996c-14.16-20.041-24.273-41.521-26.393-65.842
			c19.701,16.281,27.998,24.893,43.756,40.441c-10.885-15.242-21.764-30.482-32.643-45.725c25.541-6.719,42.408,8.914,63.893,33.34
			c-23.301-35.813-33.887-40.662-69.449-53.963c24.727-3.678,31.563-0.154,59.033,12.949
			c-26.533-24.623-46.465-32.807-58.242-31.209c33.717-37.971,70.279-61.762,110.326-9.574L309.111,347.543L309.111,347.543z"/>
	</g>
	<g id="tronco">
		<path id="traoncol" fill-rule="evenodd" clip-rule="evenodd" fill="#8F998A" d="M300.6,597.918l-1.387-35.422l15.973,7.641
			c-12.9-25.186-17.719-51.396-37.5-72.227l0.693-4.168l25.693,9.725c-4.371-10.334-12.266-20.84-4.164-30.561l5.555,3.475
			c-4.398-13.891-9.721-23.148-15.977-27.779l0.699-7.641l11.109,2.082l-5.553-18.75l-2.779-10.416h6.25l-8.334-20.139v-17.363
			l0.693-6.25l-4.859-15.279l-4.168-9.029l13.891,6.25l16.664,11.809l5.559-15.975l20.141-19.447l21.527-8.332l2.086,7.641
			c-16.09,6.031-18.383,18.75-17.363,36.113l12.5-12.504c0,9.596-1.123,15.186-4.164,24.309l9.721-8.334v6.25l-0.693,7.639
			l-1.391,16.668l0.697,20.141l8.33-2.777c-3.701,12.51-5.973,24.121-4.859,36.807l11.109-18.75l0.699,6.25
			c-7.291,9.369,4.16,40.299,1.387,56.947l15.971-12.5l-0.693,7.641c-10.719,11.611-13.422,23.283-18.75,38.195l20.836-12.5
			l0.691,8.336c-18.793,14.094,3.141,56.953,9.029,74.309L300.6,597.918L300.6,597.918z"/>
		<path id="troncod" fill-rule="evenodd" clip-rule="evenodd" fill="#666666" d="M300.6,597.918l-1.387-35.422l15.973,7.641
			c-12.9-25.186-17.719-51.396-37.5-72.227l0.693-4.168l25.693,9.725c-4.371-10.334-12.266-20.84-4.164-30.561l5.555,3.475
			c-4.398-13.891-9.721-23.148-15.977-27.779l0.699-7.641l11.109,2.082l-5.553-18.75l-2.779-10.416h6.25l-8.334-20.139v-17.363
			l0.693-6.25l-4.859-15.279l-4.168-9.029l13.891,6.25l16.664,11.809l1.477-4.232l9.906,15.018l-27.777-18.752
			c5.027,16.771,9.418,27.734,9.926,45.508c0.156,5.486,0.43,11.014,0.902,16.486c8.105-7.223,11.652-1.301,5.84-27.27
			c9.348,14.025,9.707,24.105,29.512,23.613c-7.162,11.262-21.406,12.268-33.266,19.645c0.4,2.197,0.844,4.371,1.348,6.512
			c1.852,7.891,4.633,14.285,9.111,20.391c14.99-2.674,23.838-10.094,36.006-22.588c-8.063,14.109-15.039,28.607-27.152,32.434
			c4.105,3.873,9.043,7.893,15,12.361l-31.256-5.557c-3.041,27.404,0.482,29.27,17.363,51.393
			c-15.938-12.766-24.18-18.695-38.197-22.223c9.617,16.027,18.086,29.605,28.32,42.488l28.627-20.266
			c11.822,16.25,16.563,21.506,18.057,41.322c-4.131-12.395-7.09-19.857-14.932-30.209l-19.219,23.561
			c2.871,3.021,5.908,6.037,9.15,9.078l-20.141-1.389c38.875,32.164,36.797,24.805,37.475,27.879L300.6,597.918L300.6,597.918z
			 M312.852,437.162l7.291,2.779c15.457,4.961,22.201,6.414,34.551-4.861C338.354,441.615,330.186,440.328,312.852,437.162
			L312.852,437.162z M339.244,525.363c10.795-7.863,21.693-14.438,32.117-22.918l5.383-5.035
			C364.635,510.307,355.377,518.164,339.244,525.363L339.244,525.363z M322.748,483c13.723,3.516,26.953,6.975,40.24,11.6
			c-7.715,8.654-15.469,17.283-23.229,25.902c13.82-10.1,31.047-17.932,35.074-39.238c-3.154,3.57-6.318,7.135-9.488,10.691
			C351.182,488.047,337.291,485.512,322.748,483L322.748,483z M324.83,398.967c3.617-9.041,6.094-5.887,20.488-15.627l10.766,13.891
			v-0.348l-12.852-6.25L324.83,398.967L324.83,398.967z"/>
	</g>
</g>
<path id="grass" fill-rule="evenodd" clip-rule="evenodd" fill="#669966" stroke="#000000" stroke-width="0.25" stroke-miterlimit="10" d="
	M567.841,600H108.962h-8.018H32.159c0.638-17.184,12.255-26.998,35.849-38.782c-11.822,8.069-18.741,11.127-22.718,18.839
	c4.462,0.854,7.722,2.67,8.824,4.57c1.161-0.538,2.374-1.014,3.635-1.436c-1.588-1.937-3.806-3.794-6.782-5.797
	c2.262,1.014,5.332,2.939,7.908,5.438c2.188-0.666,4.5-1.182,6.899-1.596c-1.988,0.924-3.87,1.9-5.598,2.958
	c2,2.273,3.481,4.915,3.655,7.716c1.782-3.529,3.649-6.436,6.51-9.037c-0.942-3.441-1.987-6.877-3.079-10.396
	c1.967,3.099,3.575,5.952,4.976,8.833c1.717-1.291,3.752-2.516,6.234-3.718c-2.125,1.478-4.048,3.038-5.766,4.694
	c0.679,1.448,1.313,2.912,1.917,4.424c1.396-0.461,2.872-0.76,4.442-0.865c0.475-0.031,0.926-0.041,1.354-0.032
	c4.092-7.347,9.372-13.575,15.139-20.841c-6.303,9.455-9.267,13.898-10.138,22.377c0.931,0.897,0.89,1.986-0.202,2.695
	c-0.058,1.152-0.086,2.379-0.086,3.701l9.058-5.783c-0.201-0.219-0.404-0.438-0.61-0.656c0.259,0.184,0.517,0.369,0.771,0.554
	l9.398-5.999l-1.482,1.246c0.562,2.008,1.229,4.042,1.699,6.109c0.317-0.26,0.646-0.535,0.993-0.828
	c0.537-2.998,0.603-5.898,0.234-8.982c-2.215,1.068-4.618,3.013-7.189,6.019c2.075-4.243,4.426-6.821,6.877-8.128
	c-0.494-2.81-1.319-5.813-2.448-9.197c1.869,2.995,3.562,5.645,5.02,8.281c2.839-0.539,5.729,0.387,8.414,2.207
	c1.025-0.127,2.076-0.063,3.105,0.182c0.476-1.905,0.588-4.185,0.588-7.543c1.006,3.168,1.72,5.919,2.196,8.664
	c1.039,0.605,2.014,1.404,2.87,2.379c3.044-9.014,10.769-15.727,24.032-15.912c-1.542-5.743-4.072-11.483-6.76-17.021
	c9.46,14.446,12.707,23.557,16.384,40.03c0-20.901,3.737-24.286,18.615-41.284c-10.103,15.914-11.802,20.221-10.424,38.158
	c7.938-7.782,12.859-10.408,23.828-15.014c-7.12,4.65-10.461,6.758-12.289,10.078c3.029-1.941,6.239-1.844,9.293-0.475
	c4.994-6.177,8.779-12.574,13.421-20.861c-3.118,7.858-6.761,14.799-8.313,22.31c2.047,0.391,4.038,1.481,5.667,3.171l0.917-1.025
	c2.854-7.031,8.756-12.43,18.155-14.008c0.462-1.164,0.944-2.351,1.446-3.567c-0.302,1.216-0.573,2.367-0.813,3.469
	c1.651-0.243,3.406-0.371,5.271-0.371c-1.954,0.097-3.722,0.309-5.326,0.624c-0.759,3.521-1.206,6.519-1.349,9.415
	c1.17-0.22,2.35-0.226,3.518,0.017c0.432-1.328,1.039-2.71,1.857-4.19c-0.526,1.522-0.908,2.968-1.159,4.364
	c1.385,0.409,2.753,1.186,4.072,2.393c1.431-5.196,4.391-9.713,10.915-11.539c-6.511,2.486-8.859,7.407-9.699,12.791
	c1.164,1.344,2.281,3.059,3.328,5.197c-1.218-1.424-2.398-2.606-3.538-3.572c-0.377,3.642-0.202,7.402-0.259,10.693
	c2.025-3.766,6.877-12.375,12.666-14.482c6.752-10.712,13.929-20.516,22.96-31.07c-8.416,12.651-12.817,20.387-15.588,32.469
	c1.046,0.844,2.097,1.998,3.143,3.52c-1.152-1.186-2.266-2.057-3.335-2.661c-0.496,2.27-0.94,4.692-1.347,7.331l3.501,0.651
	c2.743-3.979,5.029-6.815,9.229-10.149c-3.488,3.564-5.246,6.346-7.365,10.499l0.187,0.035c2.157-2.271,4.077-3.69,7.644-5.146
	c-2.759,1.885-4.151,3.549-5.285,5.586l5.495,1.025c0.748-10.893-0.438-21.662-2.234-32.528c3.73,11.181,6.868,22.403,8.191,33.779
	c2.433-10.56,3.413-20.206,2.234-30.651c2.553,7.969,4.149,15.834,3.957,24.922c2.293-3.766,4.944-5.154,7.582-5.004
	c5.57-6.113,10.521-9.209,22.715-13.662c-10.711,6.428-14.209,8.748-17.041,15.35c1.94,0.092,3.896,1.063,5.379,2.75
	c1.905-5.641,6.297-10.056,13.568-11.336c0.244-3.309,0.327-6.734,0.327-10.517c0.688,3.614,1.277,6.962,1.703,10.25
	c0.802-0.073,1.634-0.111,2.498-0.111c-0.878,0.044-1.704,0.118-2.483,0.225c0.311,2.433,0.532,4.835,0.638,7.292
	c1.219,0.351,2.417,1.085,3.56,2.285c4.694-7.364,9.168-11.287,18.658-18.064c-11.026,9.264-12.217,11.473-14.893,24.396
	l4.468,1.876c1.079-1.814,2.259-3.532,3.517-5.171c-2.751-0.911-1.452-3.383,2.553-3.109c1.27-1.451,2.6-2.847,3.972-4.198
	c-0.44-0.455-0.902-0.903-1.384-1.347c0.576,0.376,1.112,0.753,1.61,1.126c1.024-1,2.071-1.978,3.136-2.939
	c-0.497,1.265-1.216,2.541-1.987,3.854c3.031,2.576,4.451,5.188,5.565,8.473l0.506-0.274c1.006-2.595,3.558-4.739,6.108-6.222
	c-0.626-1.248-1.327-2.483-2.075-3.662c-1.637,1.127-3.365,2.719-5.176,4.836c1.327-2.714,2.767-4.744,4.273-6.199
	c-4.912-7.098-11.209-11.236-11.493-1.311c-0.767-10.624,6.524-6.832,12.813,0.192c3.278-2.403,6.799-2.326,10.122-0.755
	c1.03-5.49,1.007-11.031-0.04-18.948c2.301,7.41,3.779,13.26,4.277,20.185c0.56,0.065,1.116,0.186,1.666,0.357
	c3.103-12.436,1.214-20.548-2.22-33.678c6.361,10.765,9.094,20.28,10.079,31.197c4.109-6.061,11.218-10.113,21.74-10.113
	c-14.405,0.711-18.735,7.662-21.354,16.549c0.076,2.264,0.099,4.602,0.082,7.031c0.013,0.091,0.022,0.182,0.034,0.273
	c2.287-4.645,5.774-9.132,9.679-11.721c0.205-0.281,0.41-0.561,0.619-0.838c-2.315,0.46-4.814,1.887-7.489,4.633
	c3.104-4.512,6.234-6.503,9.251-6.832c3.466-4.071,7.675-7.529,13.017-9.798c-1.539-1.267-3.399-2.356-5.651-3.216
	c2.488,0.697,4.568,1.701,6.313,2.943c2.38-0.949,4.977-1.669,7.83-2.104c9.061-1.382,15.729,0.377,17.654,11.393
	c-4.155-7.854-9.494-9.498-15.642-8.404c-2.521,0.449-4.796,1.058-6.849,1.813c5.148,5.857,5.974,14.579,6.419,22.264
	c0.601,0.703,1.154,1.438,1.649,2.209c0.202-0.658,0.393-1.305,0.571-1.945l-0.473-10.644c0.521,1.882,1.144,3.786,1.616,5.72
	c0.973-5.508,0.754-10.801-1.438-17.139c2,3.619,3.013,6.785,3.364,9.862c1.178,1.861,2.272,3.806,3.252,5.878
	c0.407-0.699,0.764-1.19,1.023-1.324c-0.307,0.552-0.6,1.102-0.874,1.644c0.747,1.614,1.424,3.306,2.01,5.095
	c0.644-0.291,1.312-0.543,1.996-0.758c0.812-1.422,1.666-2.562,2.55-3.457c1.881-3.695,3.729-7.009,6.083-10.213
	c-1.309-0.258-2.752-0.431-4.347-0.51c1.588,0,3.081,0.113,4.479,0.328c2.281-3.074,5.04-6.051,8.757-9.175
	c-2.477,3.951-4.132,7.056-5.239,9.985c3.494,1.099,6.26,2.942,8.348,5.289c1.124-0.702,2.395-1.34,3.9-1.974
	c-4.653-2.721-0.165-8.134,10.336-6.18c5.68,1.058,10.313,3.634,14.3,7.099c0.9-0.8,1.846-1.589,2.851-2.377
	c-3.236-6.483-7.909-12.426-13.963-17.99c8.221,5.381,12.843,10.519,15.999,16.461c1.56-1.126,3.264-2.259,5.169-3.434
	c-1.389,1.273-3.046,2.709-4.739,4.26c1.358,2.699,2.443,5.572,3.446,8.71c1.537-6.692,7.652-12.262,13.974-16.108
	c-1.401-3.326-3.327-6.775-5.979-10.621c3.597,3.692,6.245,6.643,8.221,9.33c3.099-1.687,6.123-2.941,8.554-3.689
	c-3.043,1.52-5.676,3.012-7.949,4.533c2.471,3.55,3.773,6.714,4.575,10.66c3.281-0.918,6.459-1.285,9.367-1.252
	c5.479-7.557,12.377-10.596,27.868-18.333c-11.822,8.069-18.741,11.127-22.718,18.839c4.462,0.854,7.723,2.67,8.826,4.57
	c1.158-0.538,2.374-1.014,3.632-1.436c-1.587-1.937-3.803-3.794-6.781-5.797c2.262,1.014,5.332,2.939,7.908,5.438
	c2.188-0.666,4.501-1.182,6.899-1.596c-1.989,0.924-3.869,1.9-5.599,2.958c2.001,2.273,3.483,4.915,3.656,7.716
	c1.782-3.529,3.648-6.436,6.51-9.037c-0.942-3.441-1.985-6.877-3.078-10.396c1.967,3.099,3.574,5.952,4.976,8.833
	c1.716-1.291,3.751-2.516,6.233-3.718c-2.125,1.478-4.048,3.038-5.766,4.694c0.681,1.448,1.313,2.912,1.917,4.424
	c1.396-0.461,2.874-0.76,4.443-0.865c0.475-0.031,0.925-0.041,1.354-0.032c4.09-7.347,9.371-13.575,15.138-20.841
	c-6.304,9.455-9.265,13.898-10.138,22.377c0.93,0.897,0.89,1.986-0.202,2.695c-0.057,1.152-0.085,2.379-0.085,3.701l18.616-11.885
	l-13.403,11.26c10.158,0,10.615-1.412,17.872-7.508C564.865,592.644,563.293,593.887,567.841,600L567.841,600z M97.899,592.523
	c-0.828-1.173-1.74-2.326-2.724-3.459l-4.828,4.057C93.744,593.121,96.055,592.962,97.899,592.523L97.899,592.523z M95.545,588.754
	c1.368,1.052,2.655,2.15,3.809,3.333c1.138-0.423,2.131-0.997,3.19-1.766l-0.319-7.18L95.545,588.754L95.545,588.754z
	 M58.999,584.941c-1.64,1.084-3.121,2.25-4.398,3.517c2.311,1.478,4.534,3.545,6.444,6.364
	C61.275,590.832,60.714,587.744,58.999,584.941L58.999,584.941z M53.328,589.838c-1.454,1.729-2.549,3.642-3.191,5.784h0.193
	c3.665-1.968,6.062-1.141,8.849-0.165C57.377,593.021,55.372,591.187,53.328,589.838L53.328,589.838z M51.381,595.622h5.237
	C55.131,595.182,53.476,595.132,51.381,595.622L51.381,595.622z M65.498,595.622h7.723c-0.346-2.03-0.745-4.024-1.189-5.996
	C69.375,591.127,67.125,593.182,65.498,595.622L65.498,595.622z M71.649,587.975c-0.289-1.219-0.596-2.432-0.916-3.643
	c-2.315,2.583-4.176,5.393-5.573,8.469C67.161,590.894,69.292,589.212,71.649,587.975L71.649,587.975z M75.194,588.177
	c0.6,1.573,1.176,3.21,1.749,4.944c0.841-2.12,1.774-4.121,2.79-6.04C78.159,587.283,76.637,587.654,75.194,588.177L75.194,588.177z
	 M49.06,587.687c-2.227-0.806-4.357-1.112-6.169-1.087c-0.358,1.414-0.673,2.953-0.946,4.645l-0.504,5.77l2.737-3.893
	C45.516,590.962,47.163,589.175,49.06,587.687L49.06,587.687z M43.24,585.316c2.227-0.096,4.817,0.23,7.451,1.201
	c0.559-0.364,1.135-0.71,1.728-1.034C49.907,581.607,44.618,580.559,43.24,585.316L43.24,585.316z M491.022,593.298
	c0.367-0.242,0.741-0.476,1.122-0.706c-0.328,0.771-0.662,1.572-1.002,2.405L491.022,593.298L491.022,593.298z M492.629,591.46
	c-0.579,0.142-1.148,0.3-1.704,0.481c-0.235-3.238-0.468-5.961-0.807-8.367c2.534-0.854,4.985-1.355,7.271-1.579
	C495.805,584.574,494.284,587.645,492.629,591.46L492.629,591.46z M485.924,594.615c-0.344,0.291-0.674,0.607-0.989,0.949
	c-0.052-0.41-0.065-0.825-0.048-1.251c0.339,0.079,0.685,0.168,1.037,0.271V594.615L485.924,594.615z M485.018,593.09
	c0.161-0.943,0.451-1.92,0.84-2.918c0.029,1.055,0.048,2.139,0.058,3.26C485.614,593.305,485.315,593.191,485.018,593.09
	L485.018,593.09z M485.831,589.269c-0.55,1.13-1.122,2.399-1.646,3.569c-0.613-0.162-1.216-0.27-1.81-0.332
	c-0.135-1.582-0.471-3.139-0.878-4.678c1.376-0.914,2.756-1.706,4.126-2.389C485.718,586.678,485.784,587.951,485.831,589.269
	L485.831,589.269z M483.634,594.069c-0.472,1.053-0.869,1.927-1.125,2.394l-0.274-0.034l0.002-0.005
	c0.145-0.839,0.205-1.67,0.203-2.494C482.831,593.96,483.228,594.006,483.634,594.069L483.634,594.069z M480.622,584.767
	c-0.182-0.614-0.363-1.229-0.531-1.839l0.094,2.112c-1.962,1.241-3.904,2.724-5.793,4.484c-0.559-0.454-1.133-0.896-1.72-1.331
	c3.257-2.818,6.363-5.727,9.534-8.835c-3.36,2.378-6.21,4.334-8.982,6.014c1.577-5.486,4.489-9.685,9.504-13.548
	c1.348,3.492,2.132,6.888,2.587,10.51C483.75,583.004,482.18,583.811,480.622,584.767L480.622,584.767z M480.344,588.625
	l0.169,3.814c-0.895,0.027-1.785,0.135-2.686,0.287c-0.363-0.396-0.74-0.785-1.13-1.164
	C477.902,590.479,479.12,589.502,480.344,588.625L480.344,588.625z M480.578,593.904l0.105,2.339l-0.266-0.032
	c-0.432-0.742-0.915-1.449-1.444-2.131C479.5,593.992,480.034,593.933,480.578,593.904L480.578,593.904z M472.499,588.447
	c0.471,0.522,0.924,1.049,1.361,1.58c-0.629,0.609-1.255,1.25-1.871,1.924C472.12,590.727,472.29,589.563,472.499,588.447
	L472.499,588.447z M475.727,592.461c0.139,0.197,0.275,0.393,0.409,0.59c-0.426,0.09-0.857,0.185-1.293,0.279
	C475.137,593.033,475.432,592.744,475.727,592.461L475.727,592.461z M477.087,594.527c0.278,0.455,0.543,0.916,0.795,1.381
	l-3.36-0.404C475.38,595.115,476.23,594.785,477.087,594.527L477.087,594.527z M408.84,592.297c0.137,0.477,0.267,0.96,0.39,1.449
	c0.449-0.899,0.882-1.774,1.303-2.628C409.951,591.496,409.385,591.889,408.84,592.297L408.84,592.297z M411.288,589.592
	l0.135-0.272c-0.109,0.104-0.221,0.214-0.331,0.325L411.288,589.592L411.288,589.592z M405.853,594.997
	c0.318-0.351,0.65-0.69,0.995-1.019c0.056,0.346,0.104,0.684,0.147,1.019H405.853L405.853,594.997z M406.421,591.674
	c-0.791,0.52-1.529,1.132-2.202,1.859c-0.23-1.849,0.275-3.883,1.174-6.015C405.792,588.943,406.139,590.33,406.421,591.674
	L406.421,591.674z M405.242,586.979c-1.857,3.771-4.057,9.383-3.721,7.414c0.169-0.986,0.224-1.963,0.196-2.93
	c0.965-4.161,1.577-7.766,1.267-11.457C403.828,582.395,404.595,584.73,405.242,586.979L405.242,586.979z M394.867,588.5
	c-1.281-1.129-2.675-2.188-4.127-3.217c1.524,1.611,2.914,3.26,4.132,4.953c-0.003,1.637-0.019,3.234,0.002,4.761h-0.229
	c-1.431-2.641-3.79-6.797-6.755-10.518l0.185-0.068c0.59,0.593,1.187,1.241,1.794,1.952c-0.382-0.779-0.771-1.499-1.17-2.167
	c1.182-0.393,2.551-0.752,4.149-1.085c-1.769,0.016-3.294,0.117-4.631,0.305c-2.604-4.031-5.532-5.882-8.492-6.199
	c2.416-3.27,5.851-5.947,10.523-7.834C394.293,574.678,394.816,581.807,394.867,588.5L394.867,588.5z M517.877,584.941
	c-1.641,1.084-3.122,2.25-4.399,3.517c2.312,1.478,4.533,3.545,6.444,6.364C520.153,590.832,519.592,587.744,517.877,584.941
	L517.877,584.941z M512.206,589.838c-1.454,1.729-2.548,3.642-3.192,5.784h0.194c3.667-1.968,6.063-1.141,8.849-0.165
	C516.255,593.021,514.249,591.187,512.206,589.838L512.206,589.838z M510.259,595.622h5.238
	C514.01,595.182,512.354,595.132,510.259,595.622L510.259,595.622z M524.375,595.622h7.724c-0.346-2.03-0.744-4.024-1.188-5.996
	C528.255,591.127,526.004,593.182,524.375,595.622L524.375,595.622z M530.529,587.975c-0.292-1.219-0.598-2.432-0.919-3.643
	c-2.313,2.583-4.175,5.393-5.572,8.469C526.039,590.894,528.17,589.212,530.529,587.975L530.529,587.975z M534.073,588.177
	c0.6,1.573,1.176,3.21,1.749,4.944c0.841-2.12,1.774-4.121,2.789-6.04C537.037,587.283,535.515,587.654,534.073,588.177
	L534.073,588.177z M507.94,587.687c-2.229-0.806-4.359-1.112-6.171-1.087c-0.357,1.414-0.672,2.953-0.946,4.645l-0.504,5.77
	l2.737-3.893C504.394,590.962,506.042,589.175,507.94,587.687L507.94,587.687z M502.118,585.316c2.229-0.096,4.817,0.23,7.452,1.201
	c0.559-0.364,1.135-0.71,1.727-1.034c-1.025-1.583-3.976-2.987-8.038-3.46C502.841,583.037,502.461,584.131,502.118,585.316
	L502.118,585.316z M435.871,579.736c2.221-0.877,4.929-1.783,8.358-2.88c-2.656,1.488-4.815,2.681-6.637,3.794
	c0.956,0.386,2.134,0.711,3.538,0.937c-1.633-0.061-3.006-0.265-4.129-0.572c-1.729,1.083-3.143,2.112-4.392,3.286
	c0.882,1.363,1.584,2.845,2.112,4.41c1.953-2.219,4.642-3.322,7.164-3.013c3.801-2.571,8.1-2.96,11.816,1.263
	c1.226-1.404,2.455-2.723,3.754-3.993c-3.817-3.37-8.583-5.892-13.941-7.191C435.274,573.777,432.348,577.251,435.871,579.736
	L435.871,579.736z M462.876,579.797c-0.771,0.744-1.534,1.508-2.266,2.284c1.88,1.767,3.615,3.724,5.253,5.807
	C465.097,585.097,464.101,582.402,462.876,579.797L462.876,579.797z M458.756,584.188c-1.396,1.702-2.564,3.456-3.291,5.211
	c0.351,0.578,0.692,1.209,1.028,1.893c-0.418-0.488-0.828-0.941-1.234-1.361c-0.387,1.066-0.604,2.135-0.604,3.191
	c3.359-0.942,6.207-1.877,8.776-2.885C462.163,588.041,460.589,586.008,458.756,584.188L458.756,584.188z M465.312,594.193
	l-0.232,0.178l0.313,0.037L465.312,594.193L465.312,594.193z M319.841,589.598c0.567-0.734,1.151-1.449,1.748-2.152
	C318.684,587.102,317.954,588.646,319.841,589.598L319.841,589.598z M327.28,583.701c-0.694,1.179-1.412,2.392-2.034,3.653
	c2.727,0.952,4.843,2.785,6.664,4.993l0.229-0.123C331.187,589.128,329.558,586.314,327.28,583.701L327.28,583.701z
	 M324.792,588.324c-1.118,2.542-1.754,5.303-0.991,8.421l6.919-3.751C329.304,590.966,327.25,589.328,324.792,588.324
	L324.792,588.324z M336.123,590.064l0.132-0.072l-0.214,0.251c-0.567,1.265-0.907,2.688-1.089,4.358
	c2.146-2.34,4.51-3.76,6.792-4.541c-0.445-1.431-1.053-2.926-1.771-4.408C338.148,586.974,336.922,588.373,336.123,590.064
	L336.123,590.064z M331.897,595.104l-1.073,1.259l1.525-0.015C332.222,595.925,332.072,595.51,331.897,595.104L331.897,595.104z
	 M335.652,596.314l6.56-0.066l0.02-0.046C339.475,595.014,337.652,595.324,335.652,596.314L335.652,596.314z M342.306,596.019
	l0.225-0.552c0.113-1.232-0.061-2.676-0.452-4.223c-1.947,0.76-3.979,2.016-5.897,3.951
	C338.228,594.747,339.989,594.366,342.306,596.019L342.306,596.019z M342.154,584.26c0.571-0.326,1.183-0.651,1.84-0.979
	c-0.594,0.184-1.272,0.436-1.991,0.755c-0.826-1.206-1.721-2.395-2.653-3.524c3.152-1.632,5.931-1.506,8.273-0.146
	c-1.853,0.951-3.478,2.671-4.579,5.263C342.758,585.17,342.46,584.713,342.154,584.26L342.154,584.26z M422.47,577.208
	c-0.828,2.275-1.327,4.464-1.629,6.879c1.706,0.483,3.38,1.491,4.932,2.833c1.208-1.547,2.386-2.764,3.75-3.807
	C427.977,580.574,425.802,578.516,422.47,577.208L422.47,577.208z M420.663,585.813c-0.221,2.622-0.263,5.565-0.263,9.184
	c1.591-2.55,2.887-4.612,4.085-6.323C423.392,587.277,422.112,586.274,420.663,585.813L420.663,585.813z M430.975,586.038
	c-0.873,1.046-1.689,2.237-2.519,3.668c1.313,1.604,2.471,3.411,3.4,5.255l0.145,0.031c0.142-1.121,0.413-2.157,0.788-3.1
	C432.274,589.83,431.713,587.857,430.975,586.038L430.975,586.038z M426.796,592.839c-0.146,0.296-0.291,0.597-0.438,0.907
	l0.84,0.186C427.071,593.56,426.936,593.193,426.796,592.839L426.796,592.839z M438.16,596.354l2.346,0.52l0.521-7.425
	C439.783,591.301,438.818,593.689,438.16,596.354L438.16,596.354z M442.326,587.82l4.882,7.177c2.076-2.677,3.919-5.021,5.74-7.159
	c-3.44-2.653-6.414-2.849-8.825-1.451c1.763,0.906,3.275,2.664,4.153,5.408c-1.622-2.77-3.383-4.218-5.097-4.758
	C442.885,587.273,442.601,587.536,442.326,587.82L442.326,587.82z M435.638,592.453c-0.093-0.577-0.206-1.146-0.337-1.707
	c1.171-1.795,2.959-3.346,4.988-3.816C438.55,588.437,436.958,590.367,435.638,592.453L435.638,592.453z M343.215,585.904
	c0.676,1.1,1.282,2.199,1.793,3.269c0.996-2.669,1.8-5.089,2.419-7.431C346.004,582.521,344.577,583.857,343.215,585.904
	L343.215,585.904z M352.542,581.088l0.008,0.153c0.323,0.29,0.458,4.094,0.772,4.405c0.062-0.217,0.308-3.939,0.367-4.152
	C353.316,581.328,352.933,581.191,352.542,581.088L352.542,581.088z M362.397,594.207c-0.022,1.078-0.048,2.174-0.078,3.291
	c0.484-1.052,0.979-2.117,1.484-3.191L362.397,594.207L362.397,594.207z M387.218,583.58c-0.101-0.096-0.203-0.188-0.304-0.279
	l0.246,0.287L387.218,583.58L387.218,583.58z M176.823,584.316c-0.606,2.179-0.975,4.943-1.412,8.805
	c4.188-3.716,7.568-7.154,10.509-10.611C183.332,581.471,180.277,581.871,176.823,584.316L176.823,584.316z M192.131,583.813
	l-0.043,0.258c1.297,1.179,2.519,2.545,3.634,4.022l0.999-1.117C195.472,585.526,193.885,584.345,192.131,583.813L192.131,583.813z
	 M191.676,588.293c-0.049,1.369-0.016,2.768,0.116,4.202l1.198-1.342C192.597,590.137,192.158,589.178,191.676,588.293
	L191.676,588.293z M201.101,588.678c0.316,1.23,0.902,2.035,1.98,2.787c2.642-4.493,6.327-8.542,10.302-10.466
	c1.025-3.386,2.245-6.731,3.651-10.283C206.424,573.074,203.317,580.195,201.101,588.678L201.101,588.678z M207.237,593.582
	c0.92,0.41,1.971,0.871,3.173,1.415c0.484-3.872,1.178-7.393,2.071-10.799C210.187,586.264,208.414,589.609,207.237,593.582
	L207.237,593.582z M216.333,582.141c0.012,4.559,0.783,9.119,2.268,15.357l2.389-0.4l-0.044-0.447
	c-1.411-5.712-2.524-9.906-1.597-14.547C218.289,581.914,217.283,581.934,216.333,582.141L216.333,582.141z M220.302,582.33
	c-0.444,4.824,0.614,9.223,2.381,14.483l0.362-0.062c0.251-3.768,0.323-8.234,1.2-12.423
	C222.866,583.352,221.55,582.697,220.302,582.33L220.302,582.33z M108.53,578.418c0.581,1.16,1.115,2.333,1.598,3.55
	c0.88-1.134,1.902-1.973,3.005-2.539C111.748,578.623,110.208,578.251,108.53,578.418L108.53,578.418z M110.441,582.785
	c0.683,1.844,1.246,3.8,1.674,5.955c2.147-2.344,3.685-4.053,4.782-5.604c-0.782-1.159-1.653-2.144-2.609-2.912
	C113.009,580.626,111.708,581.441,110.441,582.785L110.441,582.785z M118.366,580.58c0.043-0.101,0.083-0.199,0.124-0.299
	c-0.221-0.074-0.444-0.137-0.67-0.19C118.004,580.249,118.185,580.411,118.366,580.58L118.366,580.58z M122.151,582.598
	c0.099,0.846,0.177,1.703,0.237,2.584c0.389,0.543,0.764,1.1,1.122,1.664c0.111-0.707,0.25-1.402,0.41-2.088
	C123.417,583.986,122.82,583.252,122.151,582.598L122.151,582.598z M127.307,584.928c5.599-5.629,11.343-10.336,18.317-15.577
	c-2.897,3.368-5.158,5.888-6.912,8.491c1.902-1.07,3.883-1.671,5.858-1.609c0.32-0.786,0.665-1.619,1.054-2.504
	c-0.122,0.857-0.252,1.707-0.386,2.551c1.667,0.18,3.323,0.844,4.918,2.111c0.18-3.957-0.412-7.98-1.49-12.006
	C133.648,567.313,129.864,575.211,127.307,584.928L127.307,584.928z M135.271,585.215c-0.312,1.077-0.582,2.244-0.816,3.525
	c5.87-3.08,7.44-5.977,9.242-10.352C140.157,578.563,137.302,581.223,135.271,585.215L135.271,585.215z M144.901,578.424
	c-0.842,5.325-1.577,10.487-0.766,15.947c3.524-4.441,5.302-9.123,5.857-13.925C148.179,579.233,146.478,578.588,144.901,578.424
	L144.901,578.424z M269.452,589.979c-0.038,1.231-0.109,2.486-0.216,3.767c2.421-3.051,4.431-5.588,6.301-7.766
	C273.707,586.382,271.67,587.637,269.452,589.979L269.452,589.979z M281.752,588.445c-0.662,1.846-1.329,3.988-2.091,6.552
	l5.247,0.176C284.202,592.477,283.136,590.117,281.752,588.445L281.752,588.445z M294.258,595.486l4.02,0.136
	c0.998-3.356,1.742-6.45,2.29-9.468C297.573,587.229,295.407,590.898,294.258,595.486L294.258,595.486z M300.855,584.471
	c0.366-2.295,0.624-4.564,0.801-6.891c-8.041,1.834-10.169,7.426-11.812,13.981c0.359,0.899,0.611,1.896,0.731,2.978
	C292.857,589.908,296.76,585.484,300.855,584.471L300.855,584.471z M304.41,586.172c0.046,2.236-0.006,4.529-0.175,6.949
	c1.079-1.994,2.09-3.768,3.081-5.377C306.3,586.992,305.33,586.477,304.41,586.172L304.41,586.172z M287.284,592.064
	c0.082-0.518,0.182-1.029,0.301-1.534c-1.054-1.615-2.662-3.011-4.488-3.436C284.662,588.453,286.093,590.188,287.284,592.064
	L287.284,592.064z M378.348,579.33c-2.368,4.148-3.373,9.064-3.373,14.416c3.389-4.545,5.183-7.684,9.248-9.317
	C382.498,582.225,380.536,580.375,378.348,579.33L378.348,579.33z M385.2,585.742c-3.486,2.086-4.451,4.964-6.5,9.255h11.584
	C388.991,592.115,387.291,588.713,385.2,585.742L385.2,585.742z M229.044,595.744l0.726-0.122c2.028-3.589,4.043-7.026,6.08-10.364
	C232.877,587.934,230.59,592.303,229.044,595.744L229.044,595.744z"/>
</svg>
