<?xml version="1.0" encoding="utf-8"?>
<!-- Generator: Adobe Illustrator 16.0.2, SVG Export Plug-In . SVG Version: 6.00 Build 0)  -->
<!DOCTYPE svg PUBLIC "-//W3C//DTD SVG 1.1//EN" "http://www.w3.org/Graphics/SVG/1.1/DTD/svg11.dtd">
<svg version="1.1" id="lay" xmlns="http://www.w3.org/2000/svg" xmlns:xlink="http://www.w3.org/1999/xlink" x="0px" y="0px"
	 width="450px" height="600px" viewBox="0 0 450 600" enable-background="new 0 0 450 600" xml:space="preserve">
<g id="arvore">
	<g id="t5">
		<path fill-rule="evenodd" clip-rule="evenodd" fill="#A3A040" d="M154.229,455.213c0.131,48.295,1.648,96.574,9.379,144.787
			h-10.012c-1.969-48.285-5.902-96.553-10.406-144.811c-0.816-0.211-1.309-0.475-1.328-0.76c-0.051-0.748,3.08-1.387,6.99-1.43
			c3.908-0.043,7.125,0.529,7.176,1.275C156.051,454.631,155.367,454.957,154.229,455.213L154.229,455.213z"/>
		<path fill-rule="evenodd" clip-rule="evenodd" fill="#8F822A" d="M151.979,600C150,551.953,146.09,503.922,141.6,455.902
			c-0.816-0.211-1.303-0.475-1.322-0.76c-0.041-0.596,1.941-1.125,4.725-1.336c-0.453,0.189-0.703,0.398-0.688,0.615
			c0.023,0.291,0.51,0.557,1.326,0.771c4.49,48.258,8.424,96.521,10.463,144.807H151.979L151.979,600z"/>
		<path fill-rule="evenodd" clip-rule="evenodd" fill="#A2A553" d="M133.855,333.211l11.109-0.119
			c-0.66,40.246,0.211,80.477,8.461,120.625l-11.113,0.123C141.258,413.611,137.877,373.408,133.855,333.211L133.855,333.211z"/>
		<path fill-rule="evenodd" clip-rule="evenodd" fill="#8F822A" d="M133.373,332.916l3.479-0.035
			c3.998,39.996,7.35,79.998,8.4,120.029l7.57-0.082c0.041,0.197,0.078,0.396,0.121,0.598l-11.113,0.117
			C140.77,413.318,137.4,373.113,133.373,332.916L133.373,332.916z"/>
		<path fill-rule="evenodd" clip-rule="evenodd" fill="#A2A553" d="M129.703,272.301l11.109-0.121
			c-2.053,20.404-2.574,40.793,4.283,61.102l-11.109,0.121C134.32,313.016,132.332,292.654,129.703,272.301L129.703,272.301z"/>
		<path fill-rule="evenodd" clip-rule="evenodd" fill="#8F822A" d="M129.229,272.156l3.479-0.039
			c2.615,20.252,4.58,40.514,4.248,60.799l7.57-0.084c0.031,0.102,0.064,0.201,0.098,0.305l-11.109,0.119
			C133.846,312.869,131.863,292.51,129.229,272.156L129.229,272.156z"/>
		<path fill-rule="evenodd" clip-rule="evenodd" fill="#A3A040" d="M178.654,454.057c-5.143,48.4-8.887,96.916-6.324,145.943
			h-10.143c3.375-48.867,4.725-97.898,5.484-146.977c-0.793-0.285-1.248-0.59-1.238-0.877c0.029-0.75,3.211-1.1,7.111-0.783
			c3.895,0.316,7.031,1.182,6.998,1.93C180.529,453.646,179.813,453.91,178.654,454.057L178.654,454.057z"/>
		<path fill-rule="evenodd" clip-rule="evenodd" fill="#8F822A" d="M160.57,600c3.346-48.68,4.691-97.523,5.441-146.414
			c-0.787-0.285-1.242-0.59-1.232-0.879c0.023-0.596,2.053-0.939,4.848-0.893c-0.475,0.145-0.742,0.33-0.75,0.549
			c-0.016,0.289,0.445,0.6,1.232,0.887c-0.773,49.002-2.119,97.953-5.404,146.75H160.57L160.57,600z"/>
		<path fill-rule="evenodd" clip-rule="evenodd" fill="#A2A553" d="M171.613,330.797l11.072,0.9
			c-5.025,39.984-8.521,80.096-4.668,120.801l-11.072-0.9C170.26,411.473,171.258,371.16,171.613,330.797L171.613,330.797z"/>
		<path fill-rule="evenodd" clip-rule="evenodd" fill="#8F822A" d="M171.168,330.459l3.465,0.281
			c-0.361,40.168-1.369,80.279-4.664,120.205l7.541,0.611c0.02,0.201,0.039,0.402,0.057,0.607l-11.066-0.902
			C169.809,411.139,170.813,370.824,171.168,330.459L171.168,330.459z"/>
		<path fill-rule="evenodd" clip-rule="evenodd" fill="#A2A553" d="M174.088,269.809l11.068,0.898
			c-4.252,20.115-6.984,40.355-2.363,61.191l-11.072-0.9C174.268,310.744,174.502,290.301,174.088,269.809L174.088,269.809z"/>
		<path fill-rule="evenodd" clip-rule="evenodd" fill="#8F822A" d="M173.635,269.621l3.469,0.281
			c0.402,20.393,0.158,40.73-2.373,60.883l7.543,0.613c0.018,0.105,0.041,0.207,0.064,0.311l-11.07-0.898
			C173.813,310.557,174.047,290.113,173.635,269.621L173.635,269.621z"/>
		<path fill-rule="evenodd" clip-rule="evenodd" fill="#A76B17" d="M285.346,600c-2.756-17.4-4.32-34.842-1.541-52.434l-0.094,0.004
			c-3.975-37.557-6.873-75.145-4.594-112.914l-0.408,0.012c-3.15-18.727-5.189-37.496-2.193-56.438l-0.094,0.002
			c-3.98-37.555-6.877-75.143-4.6-112.916l-7.818,0.273l0.023,0.277l-0.338,0.012c2.781,37.656,3.93,75.367,4.617,113.094
			l0.104-0.002c1.988,18.947,2.373,37.949,2.303,56.967l0.322-0.012c2.742,37.418,3.877,74.895,4.566,112.385l0.098-0.004
			c1.811,17.195,2.293,34.436,2.311,51.693H285.346L285.346,600z"/>
	</g>
	<g id="a4">
		<path fill-rule="evenodd" clip-rule="evenodd" fill="#6C6A29" d="M400.674,252.125c8.891-2.113,15.693-6.559,21.07-12.598
			c-6.699-0.703-13.389,0.365-20.059,4.016c4.266-3.863,5.348-8.652,4.988-13.865c-4.57,2.648-8.898,5.715-11.514,11.678
			c2.27-6.957,1.178-12.861-2.213-18.047c-4.701,2.742-8.25,6.453-9.252,12.287c-0.512-6.666-3.938-12.025-10.285-16.084
			c-2.924,5.395-4.242,11.023-2.029,17.164c-1.543-1.588-3.512-2.039-5.91-1.348c-0.184,0.711-0.273,1.428-0.277,2.154
			c-1.289-2.043-2.949-4.031-4.918-5.977c-0.891,4.266-1.4,8.439,0.779,11.982c-1.834-2.842-5.25-4.563-9.385-5.775
			c-0.027,4.186,0.914,7.984,3.994,10.928l-0.01,0.004c-3.684-2.775-7.721-3.066-11.859-2.66c2.16,3.998,5.803,6.953,10.922,8.861
			c-1.875-0.146-3.676-0.123-5.404,0.051l-2.701-0.145c0.17,0.15,0.338,0.299,0.512,0.449c-6.543,1.17-12.09,4.512-17.105,9.014
			l11.771-0.637l-5.082,6.016c6.057,2.043,11.842,2.775,17.016,0.629c-3.717,4.695-5.934,9.23-4.846,13.414
			c2.395,0.693,4.367,0.242,5.906-1.346c-2.209,6.141-0.891,11.768,2.029,17.166c6.352-4.059,9.777-9.42,10.283-16.086
			c1.008,5.834,4.557,9.543,9.258,12.285c2.246-3.438,3.484-7.189,3.404-11.355c0.557-0.688,1.072-1.383,1.551-2.08
			c2.461,3.135,5.555,5.203,8.766,7.066c0.365-5.211-0.717-9.998-4.982-13.863c2.418,1.326,4.842,2.311,7.266,2.992
			c1.754,1.119,3.689,2.131,5.779,3.053c-0.08-0.672-0.168-1.34-0.271-2.002c2.428,0.25,4.852,0.229,7.285-0.023
			c-2.922-3.281-6.264-6.092-10.131-8.314c-0.389-0.59-0.83-1.156-1.33-1.701c6.547,2.545,12.416,0.357,18.402-1.033
			c-3.994-4.146-8.545-7.627-15.07-8.742c6.398,1.299,12.154-0.508,17.611-3.725C410.9,253.322,406.865,251.158,400.674,252.125
			L400.674,252.125z M368.244,245.893c0.203,0.305,0.408,0.611,0.625,0.918c-0.188,0.26-0.371,0.525-0.549,0.793
			C368.324,247.027,368.297,246.457,368.244,245.893L368.244,245.893z"/>
		<path fill-rule="evenodd" clip-rule="evenodd" fill="#6C6A29" d="M291.619,321.912c8.891-2.111,15.697-6.559,21.074-12.598
			c-6.699-0.701-13.387,0.365-20.059,4.018c4.266-3.865,5.35-8.654,4.984-13.867c-4.57,2.652-8.898,5.715-11.508,11.678
			c2.268-6.957,1.176-12.857-2.213-18.047c-4.701,2.744-8.25,6.455-9.258,12.287c-0.506-6.664-3.938-12.025-10.285-16.084
			c-2.92,5.396-4.242,11.025-2.029,17.166c-1.537-1.59-3.512-2.037-5.906-1.346c-0.184,0.707-0.271,1.424-0.277,2.15
			c-1.289-2.043-2.947-4.031-4.922-5.977c-0.891,4.266-1.396,8.441,0.783,11.984c-1.832-2.84-5.25-4.563-9.385-5.777
			c-0.027,4.188,0.914,7.984,3.994,10.932h-0.01c-3.684-2.775-7.719-3.066-11.859-2.66c2.162,4,5.799,6.953,10.918,8.861
			c-1.871-0.143-3.67-0.119-5.4,0.051l-2.699-0.145c0.168,0.152,0.338,0.303,0.506,0.453c-6.539,1.166-12.084,4.512-17.105,9.012
			l11.775-0.639l-5.08,6.02c6.055,2.039,11.84,2.771,17.016,0.625c-3.723,4.695-5.936,9.23-4.848,13.414
			c2.395,0.693,4.363,0.244,5.906-1.346c-2.213,6.141-0.895,11.77,2.029,17.166c6.348-4.057,9.773-9.418,10.285-16.086
			c1.008,5.834,4.551,9.545,9.252,12.289c2.25-3.439,3.488-7.191,3.404-11.357c0.563-0.689,1.078-1.383,1.551-2.082
			c2.467,3.137,5.555,5.203,8.771,7.068c0.365-5.213-0.719-10-4.984-13.863c2.42,1.324,4.844,2.309,7.266,2.99
			c1.75,1.119,3.686,2.131,5.781,3.055c-0.08-0.672-0.174-1.34-0.273-2.002c2.424,0.248,4.852,0.229,7.285-0.025
			c-2.92-3.283-6.262-6.092-10.129-8.313c-0.395-0.592-0.836-1.158-1.332-1.703c6.543,2.547,12.418,0.357,18.402-1.033
			c-3.998-4.146-8.545-7.623-15.074-8.74c6.402,1.297,12.154-0.51,17.615-3.723C301.852,323.109,297.811,320.949,291.619,321.912
			L291.619,321.912z M259.189,315.68c0.203,0.305,0.414,0.611,0.629,0.918c-0.191,0.262-0.375,0.525-0.549,0.793
			C259.275,316.816,259.246,316.246,259.189,315.68L259.189,315.68z"/>
		<path fill-rule="evenodd" clip-rule="evenodd" fill="#6C6A29" d="M226.424,255.395c8.893-2.109,15.699-6.559,21.076-12.598
			c-6.699-0.701-13.389,0.367-20.059,4.016c4.266-3.863,5.35-8.652,4.982-13.863c-4.57,2.648-8.896,5.715-11.508,11.678
			c2.27-6.957,1.178-12.861-2.211-18.047c-4.703,2.742-8.25,6.451-9.258,12.287c-0.508-6.668-3.938-12.027-10.285-16.084
			c-2.92,5.395-4.242,11.025-2.029,17.166c-1.537-1.59-3.512-2.039-5.906-1.348c-0.184,0.707-0.271,1.426-0.277,2.152
			c-1.289-2.043-2.947-4.033-4.922-5.979c-0.891,4.266-1.396,8.439,0.783,11.984c-1.832-2.842-5.25-4.561-9.385-5.775
			c-0.027,4.186,0.914,7.982,3.994,10.93l-0.01,0.002c-3.684-2.775-7.721-3.066-11.859-2.662c2.162,4,5.799,6.953,10.918,8.861
			c-1.875-0.143-3.67-0.119-5.4,0.053l-2.705-0.145c0.174,0.152,0.342,0.301,0.512,0.449c-6.539,1.168-12.084,4.512-17.105,9.016
			l11.775-0.643l-5.082,6.018c6.057,2.045,11.842,2.775,17.016,0.629c-3.721,4.697-5.934,9.23-4.846,13.416
			c2.395,0.691,4.363,0.244,5.906-1.346c-2.213,6.141-0.891,11.768,2.029,17.166c6.348-4.061,9.773-9.42,10.285-16.088
			c1.008,5.836,4.551,9.547,9.252,12.289c2.25-3.439,3.488-7.191,3.404-11.355c0.563-0.689,1.078-1.383,1.551-2.084
			c2.465,3.139,5.555,5.205,8.77,7.068c0.367-5.211-0.717-10-4.982-13.863c2.42,1.326,4.842,2.309,7.266,2.99
			c1.748,1.121,3.686,2.133,5.779,3.055c-0.084-0.674-0.168-1.338-0.271-2.002c2.424,0.25,4.852,0.227,7.285-0.025
			c-2.92-3.281-6.264-6.09-10.135-8.314c-0.389-0.588-0.83-1.156-1.326-1.699c6.543,2.547,12.416,0.357,18.402-1.033
			c-3.998-4.146-8.545-7.627-15.074-8.742c6.402,1.297,12.154-0.508,17.615-3.725C236.658,256.594,232.617,254.43,226.424,255.395
			L226.424,255.395z M193.996,249.162c0.201,0.307,0.412,0.611,0.629,0.92c-0.193,0.262-0.375,0.525-0.549,0.793
			C194.08,250.299,194.053,249.729,193.996,249.162L193.996,249.162z"/>
		<g id="t4">
			<path fill-rule="evenodd" clip-rule="evenodd" fill="#CF9A3E" d="M312.141,600c-2.715-17.24-4.225-34.521-1.467-51.949
				l-0.094,0.002c-3.977-37.551-6.873-75.145-4.594-112.912l-0.408,0.014c-3.15-18.73-5.193-37.5-2.199-56.441l-0.088,0.004
				c-3.98-37.553-6.877-75.145-4.6-112.914l-7.818,0.27l0.023,0.281l-0.338,0.01c2.779,37.656,3.928,75.367,4.617,113.094
				l0.104-0.004c1.988,18.947,2.371,37.949,2.307,56.967l0.318-0.01c2.742,37.418,3.877,74.893,4.566,112.383l0.098-0.004
				c1.791,17.035,2.283,34.115,2.311,51.211H312.141L312.141,600z"/>
			<path fill-rule="evenodd" clip-rule="evenodd" fill="#CF9A3E" d="M288.74,457.561c-2.4,47.48-3.727,94.959-0.061,142.439h-7.684
				c1.191-47.523,0.811-95.049-0.023-142.572c-0.563-0.205-0.891-0.455-0.891-0.725c0-0.701,2.232-1.27,4.982-1.27
				c2.758,0,4.988,0.568,4.988,1.27C290.053,457.035,289.557,457.336,288.74,457.561L288.74,457.561z"/>
			<path fill-rule="evenodd" clip-rule="evenodd" fill="#A76B17" d="M279.861,600c1.172-47.307,0.793-94.615-0.037-141.922
				c-0.563-0.205-0.895-0.457-0.895-0.723c0-0.561,1.42-1.035,3.393-1.205c-0.332,0.174-0.516,0.365-0.516,0.572
				c0,0.271,0.328,0.523,0.896,0.734c0.814,47.514,1.199,95.027,0.07,142.543H279.861L279.861,600z"/>
			<path fill-rule="evenodd" clip-rule="evenodd" fill="#CFA35C" d="M280.43,342.98h7.822c-2.451,37.725-3.824,75.449,0,113.174
				h-7.822C281.666,418.43,281.277,380.705,280.43,342.98L280.43,342.98z"/>
			<path fill-rule="evenodd" clip-rule="evenodd" fill="#A76B17" d="M280.102,342.699h2.451c0.84,37.537,1.223,75.074-0.014,112.611
				h5.33c0.018,0.188,0.037,0.375,0.055,0.563h-7.822C281.344,418.148,280.949,380.424,280.102,342.699L280.102,342.699z"/>
			<path fill-rule="evenodd" clip-rule="evenodd" fill="#CFA35C" d="M280.51,285.834h7.822c-2.451,19.111-3.824,38.217,0,57.326
				h-7.822C281.746,324.051,281.357,304.945,280.51,285.834L280.51,285.834z"/>
			<path fill-rule="evenodd" clip-rule="evenodd" fill="#A76B17" d="M280.186,285.693h2.447c0.838,19.014,1.223,38.025-0.01,57.041
				h5.33c0.018,0.096,0.033,0.189,0.051,0.283h-7.818C281.424,323.91,281.033,304.803,280.186,285.693L280.186,285.693z"/>
			<path fill-rule="evenodd" clip-rule="evenodd" fill="#CF9A3E" d="M267.502,458.475c0.992,47.318,3.051,94.57,10.025,141.525
				h-7.621c-2.217-47.133-5.967-94.174-10.162-141.188c-0.578-0.172-0.93-0.4-0.947-0.67c-0.047-0.699,2.137-1.402,4.885-1.568
				c2.75-0.166,5.02,0.266,5.066,0.965C268.771,457.871,268.299,458.201,267.502,458.475L267.502,458.475z"/>
			<path fill-rule="evenodd" clip-rule="evenodd" fill="#A76B17" d="M268.771,600c-2.223-46.895-5.957-93.693-10.129-140.471
				c-0.578-0.168-0.924-0.398-0.947-0.668c-0.037-0.557,1.346-1.117,3.299-1.404c-0.318,0.191-0.486,0.395-0.473,0.602
				c0.02,0.271,0.365,0.504,0.947,0.68c4.182,47.039,7.936,94.105,10.209,141.262H268.771L268.771,600z"/>
			<path fill-rule="evenodd" clip-rule="evenodd" fill="#CFA35C" d="M251.016,344.645l7.805-0.473
				c0.252,37.789,1.58,75.516,8.09,112.93l-7.805,0.473C257.643,419.855,254.559,382.238,251.016,344.645L251.016,344.645z"/>
			<path fill-rule="evenodd" clip-rule="evenodd" fill="#A76B17" d="M250.668,344.387l2.447-0.148
				c3.52,37.404,6.586,74.838,8.039,112.369l5.316-0.324c0.031,0.186,0.064,0.373,0.098,0.557l-7.809,0.475
				C257.301,419.598,254.213,381.975,250.668,344.387L250.668,344.387z"/>
			<path fill-rule="evenodd" clip-rule="evenodd" fill="#CFA35C" d="M247.012,287.621l7.805-0.475
				c-1.078,19.215-1.082,38.363,4.098,57.199l-7.805,0.475C250.979,325.678,249.225,306.635,247.012,287.621L247.012,287.621z"/>
			<path fill-rule="evenodd" clip-rule="evenodd" fill="#A76B17" d="M246.674,287.496l2.447-0.148
				c2.199,18.924,3.938,37.871,4.064,56.918l5.32-0.32c0.023,0.094,0.047,0.186,0.074,0.279l-7.809,0.473
				C250.645,325.557,248.887,306.514,246.674,287.496L246.674,287.496z"/>
			<path fill-rule="evenodd" clip-rule="evenodd" fill="#CF9A3E" d="M310.527,479.965c1.004-47.723,3.084-95.385,10.209-142.738
				c0.84-0.178,1.365-0.447,1.389-0.781c0.051-0.699-2.139-1.4-4.885-1.566c-2.746-0.17-5.016,0.264-5.066,0.965
				c-0.02,0.268,0.295,0.539,0.844,0.777c-2.203,47.742-6,95.391-10.248,143.01c-0.576,0.17-0.924,0.4-0.941,0.668
				c-0.053,0.697,2.137,1.4,4.885,1.57c2.746,0.164,5.016-0.268,5.063-0.967C311.803,480.572,311.324,480.242,310.527,479.965
				L310.527,479.965z"/>
			<path fill-rule="evenodd" clip-rule="evenodd" fill="#A76B17" d="M314.104,334.146c-1.752,0.092-2.994,0.459-3.031,0.975
				c-0.02,0.273,0.295,0.543,0.844,0.781c-2.203,47.744-6,95.389-10.248,143.008c-0.576,0.174-0.924,0.402-0.941,0.672
				c-0.043,0.557,1.34,1.115,3.295,1.402c-0.314-0.189-0.488-0.393-0.473-0.598c0.018-0.271,0.369-0.506,0.945-0.68
				c4.295-48.285,8.139-96.6,10.389-145.008C314.494,334.527,314.221,334.34,314.104,334.146L314.104,334.146z"/>
			<path fill-rule="evenodd" clip-rule="evenodd" fill="#CFA35C" d="M294.041,593.797l7.805,0.473
				c0.254-37.789,1.58-75.516,8.092-112.926l-7.805-0.477C300.674,518.586,297.586,556.205,294.041,593.797L294.041,593.797z"/>
			<path fill-rule="evenodd" clip-rule="evenodd" fill="#A76B17" d="M293.699,594.057l2.443,0.148
				c3.52-37.406,6.586-74.838,8.039-112.369l5.314,0.324c0.033-0.188,0.066-0.371,0.1-0.559l-7.811-0.473
				C300.328,518.848,297.244,556.465,293.699,594.057L293.699,594.057z"/>
			<path fill-rule="evenodd" clip-rule="evenodd" fill="#CF9A3E" d="M323.639,600c1.031-46.625,3.178-93.184,10.135-139.445
				c0.838-0.176,1.369-0.449,1.393-0.781c0.047-0.699-2.139-1.402-4.891-1.568c-2.746-0.166-5.016,0.266-5.063,0.963
				c-0.023,0.273,0.291,0.543,0.84,0.781c-2.156,46.756-5.84,93.418-9.984,140.051H323.639L323.639,600z"/>
			<path fill-rule="evenodd" clip-rule="evenodd" fill="#A76B17" d="M327.141,457.473c-1.748,0.094-2.996,0.463-3.029,0.979
				c-0.018,0.27,0.291,0.539,0.84,0.779c-2.166,46.996-5.879,93.895-10.045,140.77h2.893c4.189-47.273,7.922-94.578,10.125-141.971
				C327.529,457.855,327.258,457.668,327.141,457.473L327.141,457.473z"/>
			<path fill-rule="evenodd" clip-rule="evenodd" fill="#CFA35C" d="M324.59,457.486l7.805,0.473
				c-1.078-19.217-1.082-38.365,4.098-57.201l-7.805-0.473C328.561,419.428,326.803,438.469,324.59,457.486L324.59,457.486z"/>
			<path fill-rule="evenodd" clip-rule="evenodd" fill="#A76B17" d="M324.258,457.607l2.441,0.148
				c2.199-18.922,3.938-37.871,4.064-56.918l5.32,0.322c0.023-0.094,0.051-0.188,0.074-0.281l-7.805-0.473
				C328.223,419.551,326.471,438.594,324.258,457.607L324.258,457.607z"/>
			<path fill-rule="evenodd" clip-rule="evenodd" fill="#868F32" d="M335.541,399.307c23.891-8.166,30.383,5.783,33.172,23.494
				C361.172,407.029,357.693,398.418,335.541,399.307L335.541,399.307z"/>
			<path fill-rule="evenodd" clip-rule="evenodd" fill="#CFA35C" d="M328.5,398.941l7.809,0.473
				c-1.082-19.215-1.082-38.363,4.098-57.199l-7.805-0.473C332.471,360.881,330.713,379.926,328.5,398.941L328.5,398.941z"/>
			<path fill-rule="evenodd" clip-rule="evenodd" fill="#A76B17" d="M328.166,399.066l2.447,0.145
				c2.193-18.922,3.938-37.871,4.064-56.916l5.316,0.322c0.027-0.094,0.051-0.186,0.078-0.279l-7.809-0.475
				C332.137,361.006,330.379,380.049,328.166,399.066L328.166,399.066z"/>
		</g>
		<path fill-rule="evenodd" clip-rule="evenodd" fill="#868F32" d="M372.225,321.912c8.893-2.111,15.693-6.559,21.07-12.598
			c-6.699-0.701-13.387,0.365-20.059,4.018c4.266-3.865,5.35-8.654,4.988-13.867c-4.57,2.652-8.896,5.715-11.512,11.678
			c2.268-6.957,1.18-12.857-2.213-18.047c-4.701,2.744-8.25,6.455-9.258,12.287c-0.506-6.664-3.934-12.025-10.279-16.084
			c-2.926,5.396-4.242,11.025-2.031,17.166c-1.541-1.59-3.51-2.037-5.91-1.346c-0.184,0.707-0.271,1.424-0.277,2.15
			c-1.289-2.043-2.947-4.031-4.916-5.977c-0.896,4.266-1.402,8.441,0.777,11.984c-1.832-2.84-5.25-4.563-9.385-5.777
			c-0.027,4.188,0.914,7.984,3.994,10.932h-0.01c-3.684-2.775-7.719-3.066-11.854-2.66c2.156,4,5.799,6.953,10.916,8.861
			c-1.875-0.143-3.674-0.119-5.404,0.051l-2.699-0.145c0.168,0.152,0.338,0.303,0.51,0.453c-6.543,1.166-12.088,4.512-17.104,9.012
			l11.77-0.639l-5.08,6.02c6.055,2.039,11.84,2.771,17.016,0.625c-3.719,4.695-5.936,9.23-4.848,13.414
			c2.4,0.693,4.369,0.244,5.906-1.346c-2.207,6.141-0.891,11.77,2.029,17.166c6.348-4.057,9.779-9.418,10.285-16.086
			c1.008,5.834,4.557,9.545,9.258,12.289c2.244-3.439,3.482-7.191,3.402-11.357c0.559-0.689,1.074-1.383,1.553-2.082
			c2.461,3.137,5.555,5.203,8.77,7.068c0.361-5.213-0.723-10-4.988-13.863c2.42,1.324,4.844,2.309,7.266,2.99
			c1.754,1.119,3.689,2.131,5.781,3.055c-0.08-0.672-0.17-1.34-0.273-2.002c2.43,0.248,4.857,0.229,7.285-0.025
			c-2.92-3.283-6.262-6.092-10.129-8.313c-0.391-0.592-0.83-1.158-1.332-1.703c6.549,2.547,12.418,0.357,18.402-1.033
			c-3.992-4.146-8.545-7.623-15.07-8.74c6.398,1.297,12.15-0.51,17.611-3.723C382.453,323.109,378.412,320.949,372.225,321.912
			L372.225,321.912z M339.797,315.68c0.201,0.305,0.408,0.611,0.623,0.918c-0.188,0.262-0.371,0.525-0.549,0.793
			C339.877,316.816,339.854,316.246,339.797,315.68L339.797,315.68z"/>
	</g>
	<g id="a3">
		<g id="t3">
			<path fill-rule="evenodd" clip-rule="evenodd" fill="#A76B17" d="M245.99,600c7.58-75.5,12.68-151.158,17.072-226.861
				c-0.877-0.385-1.373-0.82-1.342-1.252c0.066-0.893,2.396-1.506,5.57-1.576c-0.549,0.24-0.867,0.531-0.891,0.859
				c-0.033,0.436,0.463,0.877,1.34,1.266c-4.42,75.938-9.539,151.828-17.063,227.564H245.99L245.99,600z"/>
			<path fill-rule="evenodd" clip-rule="evenodd" fill="#CF9A3E" d="M243.295,372.514c-4.129,75.818-6.553,151.639-1.064,227.486
				H230.01c2.176-75.906,1.857-151.824,0.826-227.742c-0.904-0.332-1.43-0.734-1.43-1.168c0.004-1.121,3.59-2.021,8.006-2.008
				s7.996,0.938,7.992,2.063C245.4,371.676,244.604,372.154,243.295,372.514L243.295,372.514z"/>
			<path fill-rule="evenodd" clip-rule="evenodd" fill="#A76B17" d="M228.188,600c2.146-75.563,1.828-151.129,0.797-226.701
				c-0.9-0.334-1.43-0.736-1.43-1.17c0.004-0.895,2.287-1.65,5.451-1.91c-0.529,0.273-0.83,0.582-0.83,0.91
				c-0.004,0.439,0.525,0.848,1.426,1.186c1.018,75.9,1.336,151.795-0.746,227.686H228.188L228.188,600z"/>
			<path fill-rule="evenodd" clip-rule="evenodd" fill="#CFA35C" d="M230.666,188.668l12.555,0.039
				c-4.168,60.504-6.605,121.01-0.709,181.547l-12.549-0.043C232.189,309.703,231.797,249.188,230.666,188.668L230.666,188.668z"/>
			<path fill-rule="evenodd" clip-rule="evenodd" fill="#A76B17" d="M230.15,188.217l3.93,0.01
				c1.115,60.221,1.49,120.438-0.723,180.646l8.551,0.029c0.027,0.299,0.055,0.6,0.084,0.898l-12.549-0.041
				C231.67,309.254,231.275,248.732,230.15,188.217L230.15,188.217z"/>
			<path fill-rule="evenodd" clip-rule="evenodd" fill="#CFA35C" d="M231.154,96.998l12.553,0.043
				c-4.049,30.637-6.369,61.283-0.361,91.955l-12.547-0.041C232.908,158.311,232.396,127.654,231.154,96.998L231.154,96.998z"/>
			<path fill-rule="evenodd" clip-rule="evenodd" fill="#A76B17" d="M230.635,96.77l3.932,0.014
				c1.229,30.502,1.721,61.006-0.375,91.5l8.551,0.027c0.027,0.152,0.057,0.305,0.084,0.455l-12.549-0.039
				C232.387,158.082,231.877,127.426,230.635,96.77L230.635,96.77z"/>
		</g>
		<path id="r33" fill-rule="evenodd" clip-rule="evenodd" fill="#6B752A" d="M218.531,246.014c-2.217-1.176-4.459-2.24-6.727-3.191
			c-0.23-1.182-0.521-2.367-0.877-3.561c0.098-0.096,0.197-0.195,0.291-0.293c1.893,3.023,4.406,4.807,7.172,6.08
			C218.418,245.371,218.465,245.695,218.531,246.014L218.531,246.014z M228.088,364.539c7.867-11.746,13.67-24.652,16.617-39.168
			c1.539-0.033,2.859-0.625,3.977-1.777c-2.367,6.578-0.957,12.607,2.174,18.391c5.645-3.609,9.137-8.184,10.467-13.717
			c0.592,0.221,1.182,0.424,1.777,0.607c1.145,2.602,2.873,4.713,5.006,6.49c-1.283,1.83-2.307,3.889-3.158,6.096
			c6.008,0.209,11.344-0.555,15.182-3.465c-4.65,3.674-6.127,9.334-7.148,15.277c9.197-4.336,15.83-9.965,18.723-17.488
			c1.467,6.797,5.783,13.035,12.051,18.891c1.566-6.012,2.648-11.977,0.365-17.611c7.225,6.15,15.994,5.838,24.502,6.619
			c-3.084-7.129-7.232-13.635-15.158-17.912c5.75,3.342,11.92,4.26,18.336,3.74c0.662,0.865,1.328,1.732,1.969,2.607
			c0.596-1.008,1.168-2.023,1.697-3.049c0.947-0.148,1.895-0.324,2.846-0.523c-0.506-0.723-1.027-1.434-1.57-2.129
			c1.387-3.148,2.363-6.422,2.645-9.896c0.492-0.105,0.984-0.219,1.471-0.338c2.354,5.229,6.559,9.447,11.762,13.121
			c1.809-5.318,2.939-10.775-0.395-17.143l0.201-0.096c7.051,8.92,16.188,14.604,26.771,18.041
			c-2.162-8.357-6.82-15.871-15.127-22.15c7.477,3.295,14.77,2.342,21.98-0.547c-5.902-4.23-12.277-7.973-21.953-8.301
			c10.918-0.553,18.77-4.639,24.516-11.143c-6.098-4.346-13.016-6.85-21.754-5.313c9.201-3.746,15.184-10.377,17.943-19.893
			c-3.707-0.395-7.346-0.449-10.875,0.01c-5.244-9.613-13.879-17.15-27.205-21.813c13.832,3.545,24.674,0.896,35.086-2.635
			c-6.033-4.859-12.568-8.445-20.025-9.703c0.225-1.65,0.248-3.363,0.057-5.146c0.469-0.266,0.928-0.535,1.383-0.807
			c2.699,3.66,6.178,6.002,9.801,8.102c0.318-4.607-0.418-8.91-3.254-12.6c0.32-0.248,0.633-0.502,0.943-0.754
			c6.141,2.699,12.295,3.451,18.455,2.807c-3.324-3.734-7.158-6.898-11.635-9.346c2.096-2.35,3.994-4.842,5.709-7.463
			c-1.008,0.027-2.012,0.07-3.01,0.127c0.445-0.289,0.887-0.586,1.318-0.891c-5.852-3.445-12.016-5.379-18.867-3.99
			c6.988-1.195,11.863-4.926,16.143-9.365c-1.232-0.285-2.461-0.602-3.689-0.908l-7.561-1.393c-2.732-0.197-5.535,0.057-8.461,1.195
			c3.271-3.549,4.186-8.15,4.764-12.9c-3.371,1.486-6.357,3.188-8.869,5.166c-1.908-0.646-4.027-0.994-6.475-0.857
			c-0.037-0.1-0.074-0.197-0.111-0.293c8.564-2.43,15.238-6.967,20.592-12.982c-7.176-0.75-14.34,0.393-21.488,4.303
			c4.57-4.139,5.734-9.27,5.344-14.85c-4.898,2.838-9.529,6.119-12.332,12.506c2.434-7.449,1.262-13.777-2.371-19.332
			c-5.035,2.939-8.832,6.914-9.914,13.164c-0.545-7.141-4.215-12.885-11.016-17.232c-3.133,5.783-4.543,11.813-2.176,18.389
			c-1.65-1.701-3.76-2.184-6.328-1.443c-1.168,4.484,1.209,9.342,5.193,14.373c-2.096-0.867-4.279-1.297-6.543-1.377
			c0.408-3.018,0.449-6.141,0.225-9.34c-3.01,1.744-5.967,3.576-8.775,5.666c-2.32-0.842-4.771-1.508-7.322-2.037l3.863,4.822
			c-1.393,1.217-2.729,2.523-3.994,3.941l-1.223-0.098c0.098,0.391,0.197,0.773,0.305,1.156c-2.49,2.967-4.693,6.414-6.502,10.535
			c2.996-9.178,3.141-17.469,1.018-25.047l-2.939-7.496c-0.777-1.539-1.654-3.049-2.625-4.531
			c-9.656,5.635-16.945,13.254-19.012,25.242c-1.047-13.693-8.086-24.709-21.127-33.047c-6.006,11.09-8.715,22.652-4.172,35.266
			c-1.279-1.318-2.701-2.256-4.266-2.809c-0.619-2.205-1.604-4.297-2.906-6.289c-5.035,2.939-8.836,6.912-9.914,13.164
			c-0.545-7.143-4.215-12.885-11.016-17.232c-3.131,5.783-4.543,11.811-2.176,18.387c-1.65-1.699-3.76-2.18-6.328-1.439
			c-1.166,4.482,1.209,9.34,5.193,14.371c-2.438-1.012-5-1.426-7.658-1.389c-4.256-2.795-9.277-4.561-14.756-5.699l5.797,7.244
			c-0.539,0.164-1.072,0.332-1.611,0.516l1.213,1.434l-6.754-0.527c0.436,1.768,0.965,3.453,1.617,5.033l-3.244-0.178
			c1.725,1.549,3.512,2.969,5.367,4.225c1.436,2.158,3.248,3.982,5.568,5.354c-6.754-0.336-12.477,0.477-15.932,3.813
			c0.721,2.387,2.311,3.756,4.758,4.102c-7.285,1.752-12.014,6.123-15.582,11.688c7.664,2.879,14.902,2.59,21.709-0.877
			c-1.318,1.092-2.4,2.24-3.277,3.436c-0.516-0.02-1.031-0.037-1.547-0.055c0.258,0.396,0.525,0.791,0.793,1.18
			c-1.945,3.154-2.617,6.619-2.578,10.254c3.285-0.102,6.426-0.711,9.402-1.926c1.566,1.6,3.23,3.129,5.012,4.576
			c-0.184,1.67-0.211,3.328-0.188,4.982c1.34-0.693,2.605-1.447,3.764-2.281c3.867,2.709,8.197,5.086,13.049,7.092
			c0.244,0.314,0.498,0.627,0.75,0.936c-11.164-0.791-20.338,3.465-28.57,10.098c8.725,2.963,17.752,5.303,28.59,3.895l0.82,1.027
			c-1.566,0.723-3.057,1.492-4.473,2.307l-2.1-0.164c0.104,0.418,0.211,0.828,0.324,1.236c-8.26,5.211-13.791,12.098-17.264,20.242
			c3.459,1.162,6.945,2.02,10.471,2.457c-4.781,2.217-8.227,5.803-10.982,10.096c7.664,2.883,14.902,2.59,21.713-0.877
			c-3.811,3.156-5.645,6.783-6.311,10.697c-3.422,3.287-6.787,6.67-10.082,10.162c3.637-1.912,7.199-3.938,10.688-6.084
			c0.816-0.051,1.627-0.131,2.428-0.248c-0.271,2.518-0.338,5.129-0.197,7.832c3.863-0.693,7.586-1.617,11.125-2.85
			c-0.043,0.98-0.047,1.959-0.033,2.939c3.299-1.707,6.117-3.783,8.086-6.504c1.002-0.555,1.992-1.15,2.953-1.781
			c0.174,1.039,0.398,2.047,0.67,3.025c-7.533,10.029-14.488,20.607-20.762,31.852c8.701-7.611,16.59-16,23.48-25.348
			c1.115,1.951,2.447,3.77,3.975,5.475c1.646-4.73,2.443-9.555,2.166-14.488c0.82-1.301,1.617-2.621,2.395-3.957
			c0.779,1.225,1.891,2.342,3.344,3.359C236.066,337.744,231.375,350.746,228.088,364.539L228.088,364.539z M235.34,318.105
			c-0.154,0.184-0.305,0.367-0.455,0.551c-0.027-0.109-0.061-0.221-0.088-0.332c0.131-0.146,0.258-0.297,0.389-0.443
			C235.236,317.957,235.283,318.033,235.34,318.105L235.34,318.105z M261.848,325.055c0.01-0.098,0.02-0.201,0.023-0.305
			c0.02,0.09,0.033,0.174,0.047,0.258L261.848,325.055L261.848,325.055z M275.213,329.201l0.014-0.096
			c0.191-0.059,0.389-0.121,0.58-0.184C275.605,329.012,275.408,329.105,275.213,329.201L275.213,329.201z M210.58,260.781
			c0.328,0.127,0.662,0.252,1,0.375c-0.361-0.047-0.723-0.086-1.084-0.123C210.525,260.951,210.553,260.867,210.58,260.781
			L210.58,260.781z M210.285,237.262l0.01,0.078c-0.023-0.066-0.043-0.131-0.07-0.197
			C210.244,237.184,210.268,237.225,210.285,237.262L210.285,237.262z M299.174,192.197c0.033-0.033,0.066-0.066,0.1-0.102
			c0.064,0.041,0.127,0.078,0.191,0.115C299.367,192.207,299.273,192.201,299.174,192.197L299.174,192.197z M324.609,317.711
			c0.047,0.139,0.098,0.279,0.145,0.418c-0.844-0.232-1.738-0.43-2.686-0.584C322.922,317.617,323.77,317.672,324.609,317.711
			L324.609,317.711z M345.74,268.174c-0.998-0.967-2.059-1.908-3.174-2.818c1.389,0.693,2.771,1.293,4.145,1.809
			C346.387,267.492,346.064,267.828,345.74,268.174L345.74,268.174z"/>
		<path id="r32" fill-rule="evenodd" clip-rule="evenodd" fill="#919A3D" d="M283.729,253.619
			c11.48-2.729,20.266-8.467,27.203-16.268c-8.645-0.9-17.279,0.477-25.895,5.189c5.508-4.988,6.904-11.17,6.441-17.896
			c-5.902,3.418-11.49,7.373-14.865,15.072c2.936-8.979,1.523-16.604-2.854-23.297c-6.07,3.541-10.65,8.326-11.949,15.861
			c-0.656-8.605-5.082-15.527-13.275-20.766c-3.773,6.969-5.475,14.234-2.619,22.16c-1.988-2.053-4.533-2.629-7.633-1.738
			c-0.234,0.914-0.352,1.842-0.355,2.779c-1.664-2.637-3.801-5.205-6.348-7.715c-1.152,5.506-1.809,10.896,1.004,15.471
			c-2.363-3.668-6.773-5.893-12.113-7.461c-0.037,5.408,1.182,10.311,5.156,14.113l-0.008,0.002
			c-4.758-3.582-9.971-3.959-15.311-3.436c2.785,5.162,7.486,8.977,14.092,11.439c-2.42-0.186-4.74-0.154-6.971,0.068l-3.488-0.188
			c0.217,0.195,0.436,0.389,0.656,0.58c-8.441,1.51-15.604,5.824-22.082,11.637l15.201-0.826l-6.563,7.771
			c7.818,2.635,15.285,3.58,21.965,0.811c-4.799,6.059-7.658,11.914-6.258,17.316c3.1,0.893,5.641,0.313,7.627-1.738
			c-2.854,7.926-1.152,15.193,2.621,22.16c8.197-5.24,12.623-12.16,13.279-20.766c1.299,7.533,5.879,12.32,11.949,15.863
			c2.9-4.439,4.494-9.285,4.391-14.662c0.723-0.889,1.389-1.783,2.002-2.689c3.178,4.053,7.172,6.721,11.32,9.125
			c0.469-6.727-0.928-12.91-6.436-17.896c3.127,1.711,6.254,2.98,9.385,3.861c2.26,1.445,4.758,2.752,7.457,3.943
			c-0.104-0.867-0.221-1.73-0.352-2.584c3.131,0.322,6.268,0.297,9.404-0.031c-3.77-4.238-8.082-7.867-13.078-10.734
			c-0.502-0.762-1.07-1.496-1.717-2.195c8.451,3.287,16.031,0.461,23.756-1.336c-5.156-5.348-11.029-9.844-19.457-11.285
			c8.264,1.676,15.693-0.652,22.744-4.807C296.939,255.164,291.721,252.373,283.729,253.619L283.729,253.619z M241.865,245.57
			c0.258,0.396,0.529,0.793,0.811,1.189c-0.248,0.338-0.482,0.678-0.707,1.021C241.973,247.041,241.936,246.303,241.865,245.57
			L241.865,245.57z"/>
		<path id="r31" fill-rule="evenodd" clip-rule="evenodd" fill="#6B752A" d="M107.799,354.014c-2.213-1.176-4.453-2.24-6.727-3.191
			c-0.227-1.18-0.516-2.367-0.873-3.559c0.1-0.098,0.193-0.197,0.291-0.295c1.889,3.023,4.402,4.809,7.168,6.08
			C107.689,353.371,107.736,353.695,107.799,354.014L107.799,354.014z M117.361,472.543c7.865-11.748,13.668-24.656,16.611-39.17
			c1.537-0.035,2.865-0.627,3.98-1.775c-2.367,6.576-0.957,12.604,2.174,18.387c5.645-3.607,9.133-8.184,10.469-13.717
			c0.586,0.221,1.176,0.424,1.775,0.607c1.145,2.602,2.873,4.715,5.002,6.49c-1.279,1.832-2.307,3.889-3.154,6.096
			c6.01,0.211,11.338-0.553,15.182-3.465c-4.654,3.676-6.125,9.334-7.148,15.277c9.197-4.336,15.83-9.965,18.719-17.488
			c1.467,6.797,5.783,13.035,12.055,18.891c1.563-6.01,2.648-11.975,0.367-17.611c7.223,6.15,15.992,5.84,24.5,6.621
			c-3.084-7.127-7.232-13.635-15.164-17.914c5.752,3.342,11.922,4.262,18.338,3.74c0.666,0.867,1.326,1.732,1.969,2.609
			c0.6-1.008,1.168-2.023,1.701-3.049c0.943-0.15,1.895-0.324,2.846-0.525c-0.506-0.719-1.025-1.432-1.57-2.125
			c1.389-3.152,2.363-6.426,2.639-9.9c0.498-0.105,0.99-0.219,1.477-0.336c2.35,5.229,6.559,9.445,11.758,13.121
			c1.809-5.32,2.943-10.777-0.391-17.145l0.197-0.096c7.051,8.92,16.186,14.604,26.771,18.041
			c-2.162-8.357-6.816-15.871-15.127-22.148c7.48,3.295,14.77,2.34,21.979-0.549c-5.9-4.23-12.271-7.973-21.951-8.301
			c10.922-0.551,18.77-4.637,24.521-11.143c-6.1-4.346-13.023-6.848-21.76-5.311c9.201-3.746,15.182-10.375,17.943-19.895
			c-3.707-0.393-7.34-0.449-10.871,0.012c-5.25-9.613-13.883-17.152-27.205-21.813c13.832,3.547,24.674,0.898,35.086-2.637
			c-6.033-4.859-12.572-8.445-20.029-9.701c0.229-1.652,0.252-3.365,0.055-5.146c0.469-0.268,0.934-0.535,1.389-0.807
			c2.699,3.662,6.178,6,9.797,8.1c0.322-4.607-0.412-8.908-3.254-12.598c0.318-0.25,0.633-0.504,0.947-0.756
			c6.141,2.699,12.291,3.451,18.455,2.807c-3.324-3.734-7.158-6.898-11.639-9.344c2.1-2.352,3.992-4.844,5.709-7.465
			c-1.004,0.027-2.006,0.07-3.01,0.129c0.445-0.289,0.887-0.588,1.322-0.893c-5.85-3.445-12.014-5.377-18.867-3.99
			c6.988-1.195,11.863-4.924,16.143-9.363c-1.232-0.287-2.461-0.604-3.693-0.91l-7.557-1.391c-2.736-0.199-5.535,0.055-8.465,1.193
			c3.271-3.549,4.186-8.146,4.768-12.898c-3.371,1.484-6.361,3.188-8.869,5.166c-1.912-0.646-4.027-0.994-6.479-0.859
			c-0.037-0.1-0.074-0.195-0.111-0.293c8.563-2.426,15.242-6.967,20.596-12.982c-7.176-0.75-14.344,0.393-21.486,4.303
			c4.57-4.137,5.727-9.268,5.338-14.85c-4.893,2.838-9.529,6.119-12.328,12.508c2.434-7.451,1.262-13.775-2.371-19.334
			c-5.035,2.939-8.836,6.914-9.914,13.164c-0.545-7.141-4.219-12.885-11.016-17.232c-3.131,5.785-4.543,11.813-2.176,18.389
			c-1.65-1.701-3.76-2.182-6.332-1.443c-1.162,4.486,1.213,9.342,5.193,14.373c-2.09-0.867-4.279-1.297-6.539-1.375
			c0.402-3.018,0.445-6.143,0.225-9.342c-3.014,1.744-5.971,3.576-8.779,5.668c-2.32-0.844-4.768-1.51-7.316-2.039l3.857,4.822
			c-1.389,1.219-2.725,2.523-3.994,3.941l-1.219-0.098c0.094,0.391,0.197,0.777,0.301,1.158c-2.484,2.967-4.693,6.412-6.498,10.535
			c2.996-9.18,3.141-17.471,1.014-25.047l-2.936-7.496c-0.777-1.541-1.658-3.051-2.625-4.533
			c-9.66,5.635-22.775,15.924-24.848,27.91c-4.232-12.566-6.623-25.832-15.295-35.715c-6.006,11.09-5.045,24.988-0.502,37.6
			c-1.279-1.318-6.365-4.588-7.936-5.143c-0.615-2.205-1.6-4.297-2.902-6.285c-5.039,2.938-8.836,6.91-9.914,13.162
			c-0.549-7.143-4.219-12.887-11.016-17.232c-3.131,5.781-4.547,11.811-2.176,18.387c-1.648-1.701-3.764-2.182-6.332-1.441
			c-1.162,4.482,1.209,9.344,5.193,14.373c-2.438-1.014-4.996-1.426-7.654-1.389c-4.256-2.797-9.277-4.561-14.762-5.699l5.799,7.244
			c-0.533,0.162-1.072,0.334-1.611,0.514l1.213,1.438l-6.75-0.527c0.436,1.764,0.967,3.449,1.617,5.029l-3.248-0.176
			c1.73,1.549,3.512,2.967,5.371,4.225c1.436,2.156,3.244,3.98,5.564,5.354c-6.754-0.338-12.473,0.475-15.928,3.814
			c0.723,2.385,2.307,3.752,4.758,4.098c-7.285,1.752-12.02,6.123-15.586,11.688c7.664,2.883,14.902,2.59,21.713-0.877
			c-1.318,1.092-2.4,2.24-3.277,3.438c-0.516-0.021-1.031-0.039-1.547-0.053c0.258,0.393,0.521,0.787,0.787,1.176
			c-1.945,3.154-2.615,6.619-2.572,10.256c3.281-0.104,6.426-0.709,9.398-1.926c1.564,1.598,3.234,3.127,5.01,4.574
			c-0.178,1.67-0.205,3.328-0.182,4.982c1.34-0.693,2.602-1.447,3.76-2.281c3.871,2.709,8.203,5.086,13.055,7.092
			c0.242,0.316,0.492,0.627,0.75,0.938c-11.166-0.793-20.34,3.467-28.576,10.1c8.729,2.959,17.756,5.299,28.594,3.893l0.82,1.025
			c-1.564,0.723-3.057,1.492-4.471,2.307l-2.105-0.164c0.104,0.418,0.211,0.83,0.328,1.236c-8.26,5.215-13.791,12.098-17.27,20.242
			c3.465,1.164,6.953,2.023,10.477,2.457c-4.781,2.217-8.23,5.803-10.982,10.096c7.664,2.883,14.902,2.59,21.709-0.877
			c-3.807,3.156-5.645,6.785-6.305,10.697c-3.428,3.287-6.789,6.67-10.084,10.162c3.633-1.912,7.201-3.938,10.688-6.084
			c0.816-0.049,1.627-0.131,2.424-0.248c-0.268,2.518-0.332,5.129-0.191,7.832c3.857-0.693,7.578-1.617,11.117-2.85
			c-0.041,0.982-0.047,1.963-0.031,2.939c3.305-1.707,6.121-3.783,8.086-6.502c1.008-0.557,1.992-1.15,2.957-1.781
			c0.174,1.037,0.398,2.045,0.67,3.023c-7.533,10.031-14.494,20.609-20.76,31.852c8.699-7.611,16.588-15.998,23.479-25.346
			c1.111,1.951,2.447,3.77,3.975,5.477c1.641-4.734,2.443-9.559,2.166-14.492c0.816-1.301,1.613-2.617,2.396-3.953
			c0.773,1.221,1.889,2.338,3.336,3.355C125.338,445.746,120.643,458.746,117.361,472.543L117.361,472.543z M124.607,426.105
			c-0.15,0.186-0.301,0.367-0.449,0.551c-0.033-0.109-0.063-0.221-0.094-0.332c0.131-0.146,0.262-0.293,0.389-0.441
			C124.504,425.957,124.557,426.033,124.607,426.105L124.607,426.105z M151.119,433.055c0.01-0.098,0.016-0.201,0.023-0.303
			c0.016,0.088,0.033,0.172,0.047,0.256L151.119,433.055L151.119,433.055z M164.484,437.203l0.014-0.098
			c0.191-0.059,0.385-0.121,0.582-0.184C164.877,437.012,164.676,437.105,164.484,437.203L164.484,437.203z M99.848,368.781
			c0.334,0.127,0.666,0.254,1.004,0.375c-0.365-0.043-0.727-0.086-1.084-0.121C99.797,368.951,99.824,368.867,99.848,368.781
			L99.848,368.781z M99.553,345.266l0.014,0.076c-0.023-0.064-0.047-0.131-0.07-0.197C99.516,345.186,99.533,345.225,99.553,345.266
			L99.553,345.266z M188.447,300.199c0.031-0.035,0.064-0.068,0.098-0.102c0.061,0.039,0.127,0.076,0.188,0.113
			C188.639,300.207,188.541,300.201,188.447,300.199L188.447,300.199z M213.881,425.715c0.047,0.137,0.094,0.275,0.145,0.416
			c-0.848-0.232-1.738-0.428-2.686-0.586C212.193,425.621,213.041,425.674,213.881,425.715L213.881,425.715z M235.012,376.174
			c-0.998-0.967-2.057-1.904-3.178-2.818c1.393,0.693,2.775,1.295,4.148,1.809C235.654,375.492,235.33,375.83,235.012,376.174
			L235.012,376.174z"/>
	</g>
	<g id="a2">
		<g id="t2">
			<path fill-rule="evenodd" clip-rule="evenodd" fill="#CF9A3E" d="M207.689,449.529c3.191,50.365,7.883,100.633,19.584,150.471
				h-10.871c-4.916-50.078-12.014-100.021-19.738-149.928c-0.826-0.168-1.332-0.404-1.369-0.691
				c-0.094-0.742,2.99-1.541,6.891-1.783c3.904-0.244,7.148,0.162,7.242,0.906C209.475,448.855,208.814,449.217,207.689,449.529
				L207.689,449.529z"/>
			<path fill-rule="evenodd" clip-rule="evenodd" fill="#A76B17" d="M214.785,600c-4.916-49.814-11.977-99.494-19.664-149.137
				c-0.824-0.17-1.326-0.404-1.363-0.689c-0.08-0.592,1.869-1.221,4.635-1.576c-0.439,0.211-0.68,0.434-0.646,0.652
				c0.037,0.289,0.539,0.529,1.369,0.699c7.711,49.949,14.816,99.934,19.814,150.051H214.785L214.785,600z"/>
			<path fill-rule="evenodd" clip-rule="evenodd" fill="#CFA35C" d="M179.967,328.762l11.09-0.688
				c1.773,40.219,5.078,80.34,15.742,120.006l-11.092,0.688C192.221,408.656,186.416,368.691,179.967,328.762L179.967,328.762z"/>
			<path fill-rule="evenodd" clip-rule="evenodd" fill="#A76B17" d="M179.471,328.492l3.473-0.215
				c6.408,39.729,12.174,79.5,15.643,119.414l7.557-0.469c0.051,0.195,0.102,0.391,0.154,0.588l-11.086,0.689
				C191.723,408.389,185.92,368.422,179.471,328.492L179.471,328.492z"/>
			<path fill-rule="evenodd" clip-rule="evenodd" fill="#CFA35C" d="M172.139,268.158l11.086-0.689
				c-0.816,20.48-0.104,40.861,7.973,60.787l-11.086,0.689C179.207,308.574,175.996,288.348,172.139,268.158L172.139,268.158z"/>
			<path fill-rule="evenodd" clip-rule="evenodd" fill="#A76B17" d="M171.656,268.035l3.473-0.215
				c3.834,20.088,7.018,40.217,7.918,60.488l7.551-0.473c0.037,0.102,0.08,0.199,0.117,0.299l-11.086,0.689
				C178.729,308.451,175.518,288.225,171.656,268.035L171.656,268.035z"/>
			<path fill-rule="evenodd" clip-rule="evenodd" fill="#A3A040" d="M200.723,373.416c-1.266,75.496-0.355,151.008,10.688,226.584
				h-15.721c-1.299-75.617-5.795-151.256-11.209-226.9c-1.195-0.338-1.902-0.744-1.926-1.178c-0.053-1.127,4.57-2.012,10.326-1.975
				c5.752,0.033,10.463,0.979,10.52,2.104C203.428,372.586,202.41,373.063,200.723,373.416L200.723,373.416z"/>
			<path fill-rule="evenodd" clip-rule="evenodd" fill="#8F822A" d="M193.316,600c-1.326-75.271-5.803-150.566-11.193-225.867
				c-1.191-0.34-1.902-0.748-1.922-1.18c-0.047-0.896,2.887-1.645,6.994-1.891c-0.676,0.273-1.051,0.582-1.031,0.91
				c0.023,0.439,0.736,0.852,1.926,1.195c5.387,75.621,9.881,151.236,11.303,226.832H193.316L193.316,600z"/>
			<path fill-rule="evenodd" clip-rule="evenodd" fill="#A2A553" d="M174.342,189.02l16.355,0.102
				c-2.162,60.643-2.063,121.299,8.891,182.023l-16.354-0.102C182.863,310.385,179.08,249.707,174.342,189.02L174.342,189.02z"/>
			<path fill-rule="evenodd" clip-rule="evenodd" fill="#8F822A" d="M173.643,188.564l5.119,0.029
				c4.707,60.387,8.451,120.768,8.822,181.125l11.143,0.068c0.051,0.301,0.104,0.604,0.158,0.904l-16.354-0.102
				C182.16,309.93,178.377,249.248,173.643,188.564L173.643,188.564z"/>
			<path fill-rule="evenodd" clip-rule="evenodd" fill="#A2A553" d="M170.02,97.111l16.355,0.1
				c-3.619,30.701-4.988,61.418,4.504,92.201l-16.35-0.104C175.617,158.592,173.297,127.855,170.02,97.111L170.02,97.111z"/>
			<path fill-rule="evenodd" clip-rule="evenodd" fill="#8F822A" d="M169.33,96.877l5.125,0.033
				c3.248,30.59,5.539,61.176,4.457,91.74l11.137,0.068c0.047,0.154,0.094,0.305,0.141,0.459l-16.354-0.1
				C174.928,158.357,172.607,127.621,169.33,96.877L169.33,96.877z"/>
		</g>
		<path fill-rule="evenodd" clip-rule="evenodd" fill="#6B752A" d="M119.127,129.434c-2.344-1.174-4.715-2.238-7.119-3.188
			c-0.24-1.18-0.545-2.363-0.924-3.555c0.104-0.1,0.207-0.195,0.309-0.291c2.002,3.018,4.66,4.799,7.59,6.07
			C119.01,128.793,119.063,129.113,119.127,129.434L119.127,129.434z M43.734,96.387c-4.561,3.391-9.398,4.854-14.424,5
			c2.344-3.469,5.527-6.229,9.934-7.945c-3.549,0.486-6.264-0.912-8.598-3.168c1.684-0.609,3.395-1.137,5.236-1.303l1.326-1.57
			c-1.449-1.15-2.527-2.537-3.301-4.119l-5.652,0.307c3.436-3.08,7.098-5.66,11.113-7.463c-0.453-1.742-0.547-3.66-0.275-5.756
			c2.783,0.566,5.268,1.607,7.199,3.549l0.498-0.094c-0.188-0.162-0.371-0.324-0.555-0.488l2.846,0.154
			c0.211-0.205,0.451-0.398,0.723-0.58c0.141,0.064,0.281,0.141,0.416,0.219c0.1-0.336,0.203-0.674,0.311-1.008
			c-0.066-0.299-0.127-0.605-0.184-0.918c-0.918-0.559-1.771-1.158-2.559-1.809c-1.66,0.617-3.404,1.012-5.109,1.508
			c0.449-1.707,1.018-3.367,1.865-4.922c-0.418-0.566-0.801-1.156-1.148-1.771c-1.861,0.561-3.834,0.748-5.883,0.703
			c1.232-2.549,2.766-4.949,6.418-6.307c-5.467,1.557-10.506,1.211-15.258-0.434c3.422-2.414,7.373-3.867,12.102-3.914
			c-3.486-0.799-5.531-3.07-6.918-6.004c3.285,0.047,6.563,0.393,9.793,2.836c-3.344-3.086-4.543-6.619-4.281-10.463
			c3.385,0.061,6.438,0.994,8.752,3.855c-1.748-3.771-1.518-7.723,0.693-11.854c2.223,1.406,4.061,3.102,5.213,5.328
			c1.617,0.059,3.234,0.18,4.848,0.438c0.15-1.047,0.389-2.133,0.707-3.248c1.121,1.285,2.143,2.592,2.725,4.031
			c0.379,0.113,0.754,0.236,1.129,0.371c0.361-0.773,0.867-1.533,1.477-2.281c-2.33-3.92-3.164-8.158-2.855-12.635
			c5.898,0.104,11.213,1.732,15.254,6.715c-3.047-6.57-2.648-13.451,1.205-20.646c5.619,3.553,9.848,8.176,11.006,15.15
			c0.613-2.318,2.236-3.783,4.871-4.402c0.547,0.572,1.012,1.205,1.4,1.891c0.137-2.611,0.652-5.373,1.486-8.254
			c3.104,3.561,5.789,7.238,5.605,11.74c0.23-3.656,2.547-7.092,5.813-10.428c2.246,3.943,3.361,8.033,2.012,12.445l0.01-0.002
			c2.01-4.572,5.676-6.984,9.801-8.793c0.076,4.926-1.805,9.643-5.629,14.156c1.691-1.127,3.408-2.059,5.133-2.809l2.475-1.57
			c-0.08,0.234-0.16,0.467-0.244,0.699c5.902-2.047,11.959-2.146,18.113-1.098c0.234-0.426,0.473-0.854,0.717-1.279
			c13.801,8.328,12.586,40.328,13.691,54.004c-1.551-18.828,16.871-43.701,28.791-46.209c-4.781,30.146-17.076,28.383-23.189,48.689
			c1.299-9.051,31.074-28.648,34.885-22.186c-0.111-0.383-0.221-0.768-0.322-1.156l1.293,0.096c1.34-1.414,2.756-2.719,4.223-3.932
			l-4.082-4.818c2.699,0.529,5.293,1.195,7.748,2.033c2.973-2.086,6.104-3.914,9.287-5.658c0.238,3.195,0.191,6.314-0.234,9.328
			c2.391,0.08,4.705,0.508,6.922,1.375c-4.219-5.023-6.73-9.875-5.498-14.354c2.719-0.736,4.955-0.258,6.699,1.441
			c-2.504-6.568-1.008-12.588,2.301-18.363c7.201,4.34,11.086,10.078,11.662,17.207c1.141-6.24,5.162-10.209,10.492-13.143
			c3.848,5.547,5.086,11.863,2.512,19.305c2.963-6.379,7.865-9.656,13.051-12.49c0.412,5.574-0.816,10.697-5.654,14.83
			c7.566-3.902,15.146-5.047,22.744-4.299c-5.668,6.01-12.736,10.539-21.801,12.965c0.041,0.096,0.084,0.195,0.121,0.293
			c2.592-0.133,4.832,0.211,6.854,0.857c2.658-1.973,5.822-3.674,9.389-5.158c-0.613,4.744-1.584,9.338-5.043,12.879
			c3.098-1.135,6.061-1.387,8.957-1.189l7.996,1.387c1.305,0.307,2.602,0.623,3.91,0.91c-4.533,4.434-9.689,8.16-17.09,9.354
			c7.256-1.391,13.781,0.541,19.973,3.982c-0.459,0.305-0.924,0.602-1.396,0.891c1.059-0.057,2.119-0.1,3.182-0.127
			c-1.813,2.615-3.82,5.107-6.041,7.453c4.738,2.441,8.799,5.602,12.318,9.332c-6.525,0.643-13.035-0.107-19.533-2.803
			c-0.332,0.254-0.666,0.506-1.002,0.754c3.004,3.686,3.781,7.979,3.445,12.582c-3.836-2.096-7.516-4.434-10.369-8.09
			c-0.482,0.271-0.975,0.539-1.467,0.805c0.205,1.779,0.178,3.49-0.063,5.139c7.895,1.256,14.813,4.838,21.197,9.689
			c-11.02,3.529-22.494,6.172-37.135,2.631c14.102,4.658,23.242,12.186,28.797,21.785c3.734-0.459,7.584-0.408,11.508-0.012
			c-2.926,9.504-9.254,16.125-18.994,19.865c9.248-1.535,16.574,0.969,23.029,5.305c-6.084,6.496-14.395,10.578-25.949,11.129
			c10.236,0.324,16.986,4.063,23.23,8.291c-7.627,2.883-15.348,3.834-23.26,0.545c8.789,6.27,13.721,13.771,16.008,22.119
			c-11.203-3.436-20.873-9.109-28.336-18.016l-0.211,0.094c3.529,6.357,2.33,11.807,0.418,17.121
			c-5.504-3.67-9.957-7.881-12.445-13.102c-0.521,0.117-1.041,0.229-1.561,0.334c-0.297,3.473-1.328,6.738-2.799,9.885
			c0.576,0.693,1.129,1.406,1.664,2.125c-1.008,0.199-2.012,0.373-3.014,0.523c-0.563,1.023-1.164,2.039-1.797,3.045
			c-0.68-0.875-1.383-1.74-2.08-2.605c-6.797,0.52-13.326-0.398-19.412-3.734c8.396,4.271,12.783,10.771,16.047,17.889
			c-9.006-0.779-18.287-0.471-25.932-6.611c2.414,5.629,1.27,11.582-0.389,17.586c-6.633-5.848-11.203-12.078-12.756-18.863
			c-3.061,7.512-10.082,13.135-19.814,17.463c1.084-5.934,2.645-11.588,7.566-15.252c-4.064,2.9-9.707,3.664-16.068,3.459
			c0.9-2.209,1.986-4.262,3.342-6.09c-2.254-1.773-4.088-3.883-5.297-6.482c-0.633-0.184-1.256-0.385-1.879-0.605
			c-1.412,5.527-5.105,10.094-11.078,13.697c-3.313-5.775-4.809-11.795-2.301-18.363c-1.182,1.15-2.588,1.742-4.215,1.775
			c-3.117,14.492-9.258,27.383-17.582,39.113c3.473-13.773,8.441-26.758,14.521-39.152c-1.533-1.012-2.709-2.133-3.533-3.352
			c-0.826,1.334-1.67,2.652-2.537,3.949c0.295,4.93-0.553,9.744-2.291,14.471c-1.613-1.703-3.029-3.52-4.205-5.467
			c-7.295,9.334-15.643,17.711-24.85,25.313c6.633-11.227,13.998-21.793,21.971-31.809c-0.291-0.977-0.525-1.984-0.713-3.02
			c-1.016,0.629-2.057,1.223-3.125,1.777c-2.082,2.717-5.063,4.789-8.561,6.496c-0.014-0.979-0.01-1.955,0.037-2.938
			c-3.744,1.23-7.688,2.154-11.77,2.848c-0.15-2.699-0.08-5.309,0.207-7.824c-0.85,0.117-1.703,0.199-2.57,0.25
			c-3.688,2.141-7.461,4.166-11.311,6.074c3.488-3.488,7.045-6.867,10.674-10.146c0.703-3.906,2.645-7.533,6.676-10.682
			c-7.211,3.461-14.869,3.752-22.979,0.873c2.916-4.289,6.563-7.865,11.625-10.082c-3.736-0.434-7.426-1.289-11.086-2.451
			c3.674-8.137,9.529-15.01,18.271-20.219c-0.121-0.404-0.234-0.814-0.348-1.232l2.227,0.164c1.5-0.813,3.076-1.582,4.734-2.301
			l-0.871-1.027c-11.471,1.406-21.023-0.93-30.258-3.889c8.715-6.623,18.422-10.875,30.244-10.084
			c-0.271-0.311-0.535-0.621-0.793-0.936c-5.137-2.004-9.721-4.379-13.818-7.082c-1.223,0.832-2.559,1.586-3.98,2.277
			c-0.027-1.652,0.006-3.307,0.197-4.977c-1.885-1.445-3.646-2.971-5.307-4.57c-3.148,1.219-6.473,1.824-9.945,1.928
			c-0.043-3.633,0.664-7.092,2.723-10.242c-0.281-0.389-0.563-0.781-0.834-1.178c0.543,0.016,1.092,0.033,1.635,0.057
			c0.93-1.195,2.072-2.344,3.469-3.436c-6.482,3.115-13.33,3.664-20.545,1.65c-1.406,1.416-3.057,2.73-4.939,3.936
			c-2.977-5.494-4.416-11.211-2.594-17.396c0.016-0.293,0.033-0.586,0.057-0.879c-0.984,0.891-2.123,1.379-3.416,1.463
			c-1.375,1.234-2.936,2.262-4.416,3.375c-0.381-3.559-0.221-7.117,1.855-10.674c-1.936,3.568-5.1,5.588-8.813,6.904
			C40.213,101.738,40.799,98.951,43.734,96.387L43.734,96.387z M67.627,40.947c0,0.199-0.016,0.4-0.033,0.6l0.385,0.242l0.182-0.266
			C67.979,41.334,67.799,41.143,67.627,40.947L67.627,40.947z M46.088,63.676c0.604-0.736,1.303-1.438,2.113-2.096
			c-1.078,0.928-2.227,1.623-3.436,2.135C45.205,63.691,45.646,63.678,46.088,63.676L46.088,63.676z M139.008,32.043l-7.279,3.574
			l4.963,1.863C137.348,35.652,138.127,33.842,139.008,32.043L139.008,32.043z M135.08,43.092
			c-3.375,2.762-7.027,4.641-11.115,5.123c4.908,2.021,8.813,4.473,10.721,7.781C133.986,51.582,134.18,47.287,135.08,43.092
			L135.08,43.092z M135.229,58.73c-0.992,0.891-2.039,1.436-3.135,1.635l0.061,0.197c1.654,0.553,3.164,1.486,4.514,2.803
			C136.072,61.805,135.596,60.26,135.229,58.73L135.229,58.73z M97.359,32.902c-0.023,0.393-0.061,0.797-0.104,1.199
			c0.318,0.148,0.633,0.301,0.938,0.459C97.889,34.021,97.607,33.469,97.359,32.902L97.359,32.902z M67.547,109.102
			c0.463-1.514,0.76-3.098,0.885-4.762c0.221,1.297,0.563,2.498,1.004,3.611C68.779,108.309,68.15,108.693,67.547,109.102
			L67.547,109.102z M136.916,201.426c-0.158,0.184-0.318,0.367-0.473,0.551c-0.033-0.109-0.066-0.223-0.098-0.332
			c0.135-0.148,0.275-0.293,0.412-0.443C136.809,201.277,136.865,201.352,136.916,201.426L136.916,201.426z M164.977,208.369
			c0.01-0.104,0.018-0.205,0.027-0.305c0.014,0.084,0.033,0.168,0.047,0.258L164.977,208.369L164.977,208.369z M179.123,212.508
			l0.014-0.098c0.207-0.059,0.408-0.117,0.615-0.184C179.541,212.318,179.33,212.41,179.123,212.508L179.123,212.508z
			 M110.713,144.184c0.352,0.125,0.703,0.25,1.061,0.371c-0.385-0.043-0.764-0.086-1.145-0.121
			C110.658,144.35,110.686,144.266,110.713,144.184L110.713,144.184z M110.404,120.695l0.01,0.078
			c-0.023-0.066-0.047-0.131-0.076-0.197C110.361,120.613,110.381,120.656,110.404,120.695L110.404,120.695z M204.486,75.691
			c0.033-0.035,0.066-0.068,0.1-0.102c0.07,0.039,0.135,0.076,0.205,0.113C204.689,75.699,204.586,75.695,204.486,75.691
			L204.486,75.691z M231.402,201.033c0.053,0.141,0.104,0.279,0.154,0.416c-0.895-0.229-1.836-0.426-2.84-0.586
			C229.617,200.939,230.518,200.996,231.402,201.033L231.402,201.033z M253.768,151.563c-1.055-0.967-2.176-1.904-3.357-2.814
			c1.467,0.693,2.93,1.295,4.383,1.807C254.451,150.881,254.109,151.219,253.768,151.563L253.768,151.563z"/>
	</g>
	<g id="a1">
		<g id="t1">
			<path fill-rule="evenodd" clip-rule="evenodd" fill="#A3A040" d="M117.154,386.557c-8.26,70.822-15.07,141.791-15.215,213.443
				H91.393c6.563-71.424,10.992-143.066,14.803-214.777c-0.773-0.395-1.215-0.824-1.186-1.236c0.074-1.074,3.289-1.617,7.18-1.217
				c3.891,0.398,6.984,1.594,6.91,2.664C119.066,385.941,118.33,386.33,117.154,386.557L117.154,386.557z"/>
			<path fill-rule="evenodd" clip-rule="evenodd" fill="#8F822A" d="M89.775,600c6.52-71.148,10.926-142.52,14.727-213.947
				c-0.773-0.396-1.219-0.83-1.186-1.236c0.057-0.855,2.115-1.379,4.918-1.352c-0.482,0.217-0.764,0.486-0.787,0.797
				c-0.029,0.418,0.412,0.854,1.186,1.258c-3.826,71.604-8.246,143.146-14.709,214.48H89.775L89.775,600z"/>
			<path fill-rule="evenodd" clip-rule="evenodd" fill="#A2A553" d="M117.576,210.07l11.053,1.139
				c-7.471,57.352-13.41,114.857-12.018,173.123l-11.055-1.139C111.318,325.668,114.768,267.904,117.576,210.07L117.576,210.07z"/>
			<path fill-rule="evenodd" clip-rule="evenodd" fill="#8F822A" d="M117.145,209.594l3.465,0.359
				c-2.803,57.543-6.248,115.02-11.977,172.262l7.533,0.777c0.004,0.285,0.008,0.576,0.018,0.865l-11.057-1.137
				C110.887,325.191,114.338,267.426,117.145,209.594L117.145,209.594z"/>
			<path fill-rule="evenodd" clip-rule="evenodd" fill="#A2A553" d="M123.76,122.668l11.053,1.139
				c-5.49,28.873-9.459,57.904-6.09,87.689l-11.053-1.137C121.453,181.309,122.924,152.023,123.76,122.668L123.76,122.668z"/>
			<path fill-rule="evenodd" clip-rule="evenodd" fill="#8F822A" d="M123.314,122.404l3.463,0.352
				c-0.834,29.211-2.314,58.35-6.074,87.258l7.527,0.773c0.02,0.15,0.033,0.295,0.053,0.445l-11.059-1.139
				C121.008,181.045,122.484,151.758,123.314,122.404L123.314,122.404z"/>
		</g>
		<path id="f1" fill-rule="evenodd" clip-rule="evenodd" fill="#868F32" d="M152.096,119.129
			c8.891-2.113,15.697-6.559,21.074-12.598c-6.699-0.701-13.387,0.367-20.059,4.016c4.266-3.863,5.35-8.652,4.984-13.863
			c-4.57,2.648-8.893,5.713-11.508,11.678c2.268-6.957,1.176-12.861-2.213-18.047c-4.701,2.742-8.25,6.451-9.258,12.285
			c-0.506-6.666-3.934-12.027-10.279-16.082c-2.926,5.395-4.242,11.025-2.035,17.162c-1.537-1.586-3.506-2.035-5.906-1.344
			c-0.184,0.707-0.271,1.424-0.277,2.152c-1.289-2.043-2.947-4.033-4.916-5.979c-0.896,4.266-1.402,8.439,0.777,11.984
			c-1.832-2.842-5.25-4.564-9.385-5.777c-0.027,4.188,0.914,7.984,3.994,10.928l-0.01,0.006c-3.684-2.775-7.719-3.068-11.859-2.662
			c2.162,4,5.799,6.953,10.918,8.861c-1.871-0.143-3.67-0.119-5.4,0.053l-2.699-0.145c0.168,0.15,0.338,0.301,0.51,0.449
			c-6.543,1.168-12.088,4.512-17.109,9.016l11.775-0.643l-5.08,6.018c6.055,2.045,11.84,2.775,17.016,0.629
			c-3.719,4.697-5.936,9.23-4.848,13.416c2.4,0.691,4.369,0.244,5.906-1.346c-2.213,6.139-0.891,11.768,2.029,17.166
			c6.348-4.061,9.779-9.422,10.285-16.088c1.008,5.836,4.557,9.543,9.252,12.289c2.25-3.439,3.488-7.193,3.408-11.359
			c0.559-0.686,1.074-1.379,1.553-2.08c2.461,3.139,5.555,5.205,8.766,7.068c0.365-5.211-0.719-10-4.984-13.863
			c2.42,1.324,4.844,2.309,7.266,2.99c1.754,1.121,3.686,2.133,5.781,3.055c-0.08-0.674-0.17-1.342-0.273-2.002
			c2.424,0.25,4.852,0.227,7.285-0.025c-2.92-3.281-6.262-6.092-10.129-8.314c-0.395-0.59-0.83-1.156-1.332-1.699
			c6.543,2.547,12.418,0.357,18.402-1.035c-3.998-4.145-8.545-7.625-15.07-8.742c6.398,1.299,12.15-0.506,17.611-3.723
			C162.328,120.326,158.287,118.162,152.096,119.129L152.096,119.129z"/>
	</g>
</g>
<path id="grass" fill-rule="evenodd" clip-rule="evenodd" fill="#666633" stroke="#000000" stroke-width="0.25" stroke-miterlimit="10" d="
	M439.273,600H72.17h-6.414H10.727c0.51-13.748,9.804-21.598,28.679-31.026c-9.458,6.456-14.993,8.901-18.174,15.071
	c3.57,0.682,6.178,2.135,7.06,3.656c0.929-0.43,1.899-0.811,2.908-1.149c-1.27-1.548-3.044-3.034-5.426-4.638
	c1.81,0.813,4.266,2.354,6.327,4.352c1.75-0.534,3.6-0.945,5.52-1.277c-1.591,0.738-3.096,1.521-4.478,2.367
	c1.6,1.818,2.785,3.932,2.924,6.173c1.426-2.823,2.919-5.149,5.208-7.229c-0.754-2.754-1.59-5.503-2.463-8.317
	c1.574,2.479,2.86,4.761,3.98,7.066c1.374-1.034,3.002-2.013,4.988-2.974c-1.7,1.182-3.238,2.431-4.613,3.755
	c0.543,1.159,1.05,2.329,1.534,3.539c1.117-0.368,2.298-0.608,3.554-0.692c0.379-0.023,0.74-0.032,1.083-0.025
	c3.273-5.877,7.498-10.859,12.111-16.673c-5.042,7.563-7.413,11.119-8.11,17.901c0.745,0.719,0.712,1.59-0.162,2.156
	c-0.046,0.922-0.069,1.903-0.069,2.961l7.246-4.627c-0.161-0.174-0.323-0.35-0.488-0.523c0.207,0.146,0.414,0.293,0.617,0.442
	l7.519-4.8l-1.186,0.998c0.449,1.605,0.983,3.232,1.359,4.887c0.254-0.207,0.517-0.429,0.794-0.662
	c0.43-2.398,0.482-4.719,0.188-7.188c-1.772,0.855-3.694,2.412-5.751,4.816c1.66-3.395,3.541-5.457,5.501-6.502
	c-0.395-2.248-1.055-4.65-1.958-7.358c1.495,2.396,2.849,4.515,4.016,6.624c2.271-0.431,4.583,0.31,6.731,1.766
	c0.82-0.101,1.661-0.049,2.484,0.146c0.38-1.524,0.47-3.347,0.47-6.033c0.805,2.534,1.375,4.734,1.757,6.931
	c0.832,0.484,1.611,1.123,2.296,1.903c2.435-7.212,8.615-12.581,19.226-12.729c-1.233-4.595-3.258-9.188-5.408-13.618
	c7.568,11.558,10.166,18.845,13.107,32.024c0-16.721,2.99-19.429,14.892-33.027c-8.082,12.732-9.441,16.178-8.339,30.525
	c6.35-6.225,10.288-8.324,19.063-12.009c-5.696,3.72-8.369,5.405-9.832,8.062c2.424-1.553,4.992-1.475,7.435-0.379
	c3.995-4.941,7.023-10.061,10.737-16.689c-2.495,6.286-5.409,11.839-6.651,17.848c1.638,0.313,3.23,1.186,4.534,2.536l0.733-0.819
	c2.283-5.625,7.005-9.945,14.524-11.207c0.37-0.932,0.755-1.88,1.157-2.854c-0.241,0.973-0.458,1.894-0.65,2.775
	c1.321-0.195,2.725-0.298,4.216-0.298c-1.563,0.077-2.977,0.247-4.261,0.499c-0.607,2.816-0.965,5.216-1.079,7.533
	c0.936-0.176,1.88-0.181,2.814,0.014c0.345-1.063,0.831-2.168,1.486-3.354c-0.421,1.219-0.727,2.375-0.927,3.492
	c1.107,0.326,2.202,0.947,3.258,1.914c1.145-4.158,3.512-7.771,8.732-9.232c-5.208,1.99-7.087,5.926-7.759,10.234
	c0.931,1.074,1.825,2.447,2.662,4.156c-0.974-1.139-1.918-2.084-2.83-2.856c-0.302,2.912-0.162,5.921-0.207,8.554
	c1.62-3.013,5.501-9.898,10.133-11.586c5.401-8.57,11.143-16.412,18.368-24.855c-6.733,10.121-10.254,16.309-12.47,25.975
	c0.837,0.674,1.677,1.598,2.514,2.815c-0.922-0.948-1.813-1.646-2.668-2.129c-0.397,1.815-0.752,3.755-1.078,5.865l2.801,0.521
	c2.195-3.182,4.023-5.453,7.383-8.119c-2.791,2.852-4.197,5.076-5.892,8.398l0.149,0.029c1.726-1.817,3.262-2.953,6.115-4.117
	c-2.207,1.508-3.321,2.84-4.228,4.469l4.396,0.82c0.599-8.714-0.351-17.329-1.788-26.022c2.984,8.944,5.495,17.923,6.553,27.024
	c1.946-8.448,2.73-16.166,1.788-24.521c2.042,6.375,3.319,12.666,3.166,19.938c1.834-3.013,3.956-4.124,6.065-4.004
	c4.457-4.891,8.417-7.366,18.172-10.93c-8.568,5.143-11.367,6.998-13.633,12.279c1.553,0.074,3.117,0.85,4.303,2.199
	c1.524-4.512,5.038-8.043,10.855-9.066c0.195-2.646,0.262-5.389,0.262-8.414c0.551,2.892,1.021,5.569,1.362,8.199
	c0.642-0.058,1.307-0.089,1.999-0.089c-0.703,0.036-1.363,0.096-1.987,0.181c0.249,1.945,0.426,3.867,0.51,5.834
	c0.975,0.279,1.934,0.867,2.848,1.826c3.755-5.891,7.334-9.028,14.926-14.449c-8.821,7.41-9.773,9.176-11.914,19.516l3.574,1.502
	c0.863-1.453,1.807-2.826,2.813-4.138c-2.201-0.729-1.162-2.706,2.042-2.487c1.016-1.16,2.08-2.277,3.178-3.359
	c-0.353-0.363-0.722-0.721-1.107-1.076c0.461,0.301,0.89,0.602,1.289,0.9c0.819-0.8,1.657-1.583,2.508-2.352
	c-0.397,1.012-0.973,2.033-1.59,3.084c2.425,2.06,3.561,4.148,4.453,6.777l0.405-0.22c0.805-2.075,2.846-3.79,4.887-4.978
	c-0.501-0.997-1.062-1.986-1.66-2.93c-1.31,0.902-2.692,2.176-4.141,3.869c1.062-2.17,2.213-3.796,3.418-4.959
	c-3.93-5.678-8.967-8.99-9.194-1.048c-0.613-8.499,5.219-5.466,10.25,0.153c2.623-1.924,5.439-1.861,8.098-0.604
	c0.824-4.393,0.806-8.826-0.032-15.158c1.84,5.928,3.023,10.607,3.422,16.146c0.448,0.053,0.893,0.148,1.333,0.287
	c2.482-9.949,0.971-16.439-1.775-26.943c5.089,8.611,7.275,16.225,8.063,24.959c3.288-4.85,8.974-8.092,17.392-8.092
	c-11.524,0.569-14.988,6.13-17.083,13.239c0.061,1.812,0.079,3.682,0.065,5.624c0.01,0.074,0.018,0.146,0.027,0.221
	c1.83-3.717,4.62-7.307,7.743-9.377c0.164-0.226,0.328-0.449,0.495-0.672c-1.852,0.369-3.852,1.51-5.991,3.707
	c2.483-3.609,4.987-5.202,7.401-5.465c2.772-3.258,6.14-6.023,10.413-7.838c-1.231-1.016-2.72-1.887-4.521-2.574
	c1.991,0.559,3.655,1.362,5.051,2.355c1.904-0.76,3.981-1.335,6.264-1.682c7.248-1.107,12.583,0.301,14.123,9.112
	c-3.324-6.282-7.595-7.599-12.513-6.724c-2.016,0.359-3.836,0.847-5.479,1.451c4.119,4.686,4.779,11.662,5.135,17.811
	c0.48,0.563,0.923,1.15,1.32,1.766c0.162-0.524,0.314-1.043,0.457-1.555l-0.378-8.516c0.417,1.506,0.915,3.029,1.293,4.576
	c0.778-4.406,0.603-8.641-1.15-13.711c1.6,2.896,2.41,5.428,2.691,7.891c0.942,1.488,1.818,3.045,2.602,4.701
	c0.326-0.559,0.611-0.952,0.819-1.059c-0.246,0.441-0.48,0.881-0.699,1.314c0.598,1.293,1.139,2.645,1.608,4.076
	c0.515-0.232,1.049-0.434,1.597-0.606c0.649-1.137,1.333-2.049,2.04-2.765c1.504-2.957,2.983-5.607,4.866-8.171
	c-1.047-0.206-2.202-0.345-3.478-0.407c1.271,0,2.465,0.09,3.584,0.262c1.825-2.459,4.032-4.842,7.005-7.34
	c-1.981,3.161-3.306,5.645-4.191,7.987c2.795,0.88,5.008,2.354,6.678,4.231c0.899-0.561,1.916-1.07,3.12-1.578
	c-3.723-2.176-0.132-6.508,8.269-4.943c4.544,0.846,8.25,2.906,11.44,5.678c0.72-0.64,1.477-1.27,2.281-1.9
	c-2.589-5.188-6.328-9.941-11.17-14.393c6.577,4.305,10.274,8.414,12.799,13.168c1.248-0.9,2.611-1.807,4.135-2.746
	c-1.111,1.02-2.437,2.168-3.791,3.408c1.086,2.16,1.955,4.457,2.757,6.968c1.229-5.354,6.122-9.81,11.179-12.888
	c-1.121-2.661-2.662-5.419-4.783-8.496c2.877,2.954,4.996,5.314,6.577,7.464c2.479-1.349,4.898-2.353,6.843-2.951
	c-2.434,1.216-4.541,2.409-6.359,3.626c1.977,2.84,3.019,5.371,3.66,8.528c2.625-0.733,5.167-1.028,7.494-1.001
	c4.383-6.045,9.901-8.477,22.294-14.667c-9.458,6.456-14.993,8.901-18.174,15.071c3.569,0.682,6.178,2.135,7.061,3.656
	c0.926-0.43,1.899-0.811,2.905-1.149c-1.27-1.548-3.042-3.034-5.425-4.638c1.809,0.813,4.266,2.354,6.327,4.352
	c1.75-0.534,3.601-0.945,5.52-1.277c-1.592,0.738-3.096,1.521-4.479,2.367c1.601,1.818,2.787,3.932,2.925,6.173
	c1.426-2.823,2.919-5.149,5.208-7.229c-0.754-2.754-1.588-5.503-2.462-8.317c1.573,2.479,2.859,4.761,3.98,7.066
	c1.373-1.034,3-2.013,4.986-2.974c-1.7,1.182-3.238,2.431-4.612,3.755c0.544,1.159,1.051,2.329,1.534,3.539
	c1.117-0.368,2.299-0.608,3.555-0.692c0.379-0.023,0.74-0.032,1.083-0.025c3.272-5.877,7.497-10.859,12.11-16.673
	c-5.043,7.563-7.412,11.119-8.11,17.901c0.744,0.719,0.712,1.59-0.162,2.156c-0.045,0.922-0.068,1.903-0.068,2.961l14.893-9.508
	l-10.723,9.008c8.127,0,8.492-1.129,14.298-6.006C436.892,594.114,435.635,595.109,439.273,600L439.273,600z M63.319,594.018
	c-0.663-0.938-1.393-1.86-2.179-2.766l-3.862,3.244C59.995,594.496,61.844,594.369,63.319,594.018L63.319,594.018z M61.437,591.002
	c1.094,0.842,2.124,1.721,3.047,2.668c0.91-0.34,1.705-0.798,2.552-1.413l-0.255-5.744L61.437,591.002L61.437,591.002z
	 M32.199,587.953c-1.312,0.867-2.497,1.799-3.519,2.813c1.848,1.182,3.627,2.836,5.155,5.092
	C34.02,592.665,33.571,590.195,32.199,587.953L32.199,587.953z M27.662,591.87c-1.163,1.383-2.039,2.913-2.553,4.626h0.155
	c2.932-1.573,4.849-0.912,7.079-0.131C30.902,594.416,29.297,592.949,27.662,591.87L27.662,591.87z M26.105,596.496h4.19
	C29.105,596.145,27.781,596.105,26.105,596.496L26.105,596.496z M37.398,596.496h6.178c-0.276-1.623-0.596-3.218-0.952-4.795
	C40.5,592.9,38.7,594.545,37.398,596.496L37.398,596.496z M42.319,590.38c-0.231-0.976-0.477-1.946-0.733-2.915
	c-1.853,2.066-3.341,4.314-4.458,6.775C38.729,592.715,40.434,591.369,42.319,590.38L42.319,590.38z M45.155,590.541
	c0.479,1.26,0.94,2.568,1.399,3.955c0.673-1.696,1.419-3.297,2.232-4.832C47.527,589.826,46.31,590.123,45.155,590.541
	L45.155,590.541z M24.248,590.148c-1.781-0.644-3.486-0.89-4.935-0.869c-0.287,1.131-0.539,2.362-0.757,3.716l-0.403,4.614
	l2.19-3.113C21.413,592.77,22.73,591.34,24.248,590.148L24.248,590.148z M19.592,588.252c1.781-0.076,3.854,0.186,5.961,0.961
	c0.447-0.291,0.908-0.567,1.382-0.826C24.925,585.285,20.694,584.446,19.592,588.252L19.592,588.252z M377.817,594.637
	c0.294-0.192,0.593-0.379,0.898-0.563c-0.263,0.617-0.53,1.258-0.802,1.925L377.817,594.637L377.817,594.637z M379.104,593.168
	c-0.463,0.113-0.919,0.238-1.363,0.385c-0.188-2.592-0.374-4.769-0.646-6.693c2.027-0.684,3.988-1.084,5.816-1.264
	C381.644,587.658,380.427,590.115,379.104,593.168L379.104,593.168z M373.739,595.691c-0.275,0.232-0.539,0.486-0.791,0.759
	c-0.042-0.327-0.053-0.659-0.039-0.999c0.271,0.063,0.548,0.133,0.83,0.215V595.691L373.739,595.691z M373.015,594.471
	c0.129-0.754,0.361-1.535,0.672-2.334c0.023,0.844,0.038,1.711,0.046,2.608C373.491,594.643,373.252,594.553,373.015,594.471
	L373.015,594.471z M373.665,591.414c-0.44,0.904-0.898,1.92-1.316,2.855c-0.491-0.129-0.973-0.215-1.448-0.266
	c-0.108-1.266-0.376-2.51-0.702-3.742c1.101-0.73,2.205-1.365,3.301-1.91C373.575,589.342,373.627,590.361,373.665,591.414
	L373.665,591.414z M371.907,595.256c-0.377,0.842-0.695,1.54-0.9,1.914l-0.219-0.027l0.001-0.004
	c0.116-0.671,0.164-1.336,0.163-1.996C371.265,595.168,371.583,595.205,371.907,595.256L371.907,595.256z M369.497,587.813
	c-0.145-0.491-0.291-0.982-0.425-1.471l0.075,1.689c-1.57,0.992-3.124,2.18-4.635,3.588c-0.447-0.363-0.906-0.716-1.375-1.064
	c2.605-2.256,5.09-4.582,7.627-7.068c-2.688,1.902-4.968,3.467-7.186,4.811c1.262-4.389,3.591-7.747,7.603-10.838
	c1.078,2.794,1.706,5.51,2.069,8.408C372,586.402,370.744,587.048,369.497,587.813L369.497,587.813z M369.275,590.899l0.135,3.052
	c-0.716,0.021-1.428,0.107-2.148,0.229c-0.291-0.317-0.592-0.628-0.904-0.931C367.321,592.383,368.296,591.602,369.275,590.899
	L369.275,590.899z M369.462,595.123l0.084,1.871l-0.212-0.025c-0.345-0.594-0.732-1.16-1.155-1.705
	C368.6,595.193,369.027,595.146,369.462,595.123L369.462,595.123z M362.999,590.758c0.376,0.418,0.739,0.838,1.089,1.264
	c-0.503,0.488-1.004,1-1.497,1.539C362.696,592.58,362.832,591.648,362.999,590.758L362.999,590.758z M365.582,593.969
	c0.111,0.157,0.22,0.314,0.328,0.472c-0.341,0.071-0.686,0.147-1.035,0.223C365.11,594.426,365.346,594.195,365.582,593.969
	L365.582,593.969z M366.67,595.621c0.223,0.364,0.435,0.733,0.636,1.104l-2.688-0.323
	C365.304,596.092,365.984,595.828,366.67,595.621L366.67,595.621z M312.072,593.838c0.109,0.381,0.213,0.767,0.312,1.158
	c0.359-0.72,0.706-1.42,1.042-2.102C312.96,593.196,312.508,593.511,312.072,593.838L312.072,593.838z M314.03,591.674l0.107-0.219
	c-0.087,0.084-0.176,0.172-0.265,0.26L314.03,591.674L314.03,591.674z M309.683,595.998c0.254-0.281,0.52-0.553,0.796-0.815
	c0.044,0.276,0.083,0.547,0.118,0.815H309.683L309.683,595.998z M310.137,593.338c-0.633,0.416-1.224,0.906-1.762,1.488
	c-0.185-1.479,0.22-3.106,0.939-4.812C309.633,591.154,309.911,592.264,310.137,593.338L310.137,593.338z M309.193,589.582
	c-1.486,3.018-3.245,7.506-2.977,5.932c0.135-0.789,0.179-1.57,0.157-2.345c0.771-3.327,1.262-6.212,1.013-9.165
	C308.062,585.916,308.676,587.783,309.193,589.582L309.193,589.582z M300.894,590.799c-1.025-0.902-2.14-1.75-3.302-2.572
	c1.22,1.289,2.331,2.607,3.306,3.962c-0.002,1.309-0.015,2.589,0.001,3.81h-0.183c-1.145-2.113-3.032-5.438-5.404-8.416l0.148-0.055
	c0.472,0.475,0.949,0.993,1.435,1.563c-0.306-0.623-0.617-1.199-0.936-1.732c0.945-0.314,2.041-0.602,3.319-0.869
	c-1.415,0.013-2.635,0.095-3.705,0.244c-2.083-3.225-4.426-4.706-6.793-4.959c1.933-2.615,4.68-4.76,8.418-6.268
	C300.435,579.742,300.853,585.445,300.894,590.799L300.894,590.799z M399.302,587.953c-1.313,0.867-2.498,1.799-3.52,2.813
	c1.85,1.182,3.627,2.836,5.156,5.092C401.122,592.665,400.674,590.195,399.302,587.953L399.302,587.953z M394.765,591.87
	c-1.164,1.383-2.039,2.913-2.554,4.626h0.156c2.934-1.573,4.851-0.912,7.079-0.131C398.004,594.416,396.399,592.949,394.765,591.87
	L394.765,591.87z M393.208,596.496h4.19C396.208,596.145,394.883,596.105,393.208,596.496L393.208,596.496z M404.5,596.496h6.179
	c-0.277-1.623-0.596-3.218-0.95-4.795C407.604,592.9,405.804,594.545,404.5,596.496L404.5,596.496z M409.423,590.38
	c-0.233-0.976-0.478-1.946-0.735-2.915c-1.851,2.066-3.34,4.314-4.458,6.775C405.831,592.715,407.536,591.369,409.423,590.38
	L409.423,590.38z M412.258,590.541c0.479,1.26,0.94,2.568,1.399,3.955c0.673-1.696,1.42-3.297,2.231-4.832
	C414.629,589.826,413.412,590.123,412.258,590.541L412.258,590.541z M391.352,590.148c-1.783-0.644-3.488-0.89-4.937-0.869
	c-0.286,1.131-0.537,2.362-0.757,3.716l-0.403,4.614l2.19-3.113C388.515,592.77,389.833,591.34,391.352,590.148L391.352,590.148z
	 M386.694,588.252c1.783-0.076,3.854,0.186,5.961,0.961c0.447-0.291,0.908-0.567,1.381-0.826c-0.82-1.268-3.181-2.391-6.431-2.77
	C387.273,586.43,386.969,587.304,386.694,588.252L386.694,588.252z M333.696,583.789c1.777-0.703,3.943-1.426,6.687-2.305
	c-2.125,1.191-3.853,2.146-5.31,3.035c0.765,0.309,1.707,0.569,2.831,0.75c-1.306-0.049-2.405-0.213-3.303-0.459
	c-1.383,0.867-2.514,1.69-3.513,2.629c0.706,1.092,1.267,2.275,1.69,3.529c1.563-1.775,3.713-2.658,5.731-2.41
	c3.041-2.058,6.48-2.369,9.453,1.01c0.98-1.125,1.964-2.179,3.003-3.194c-3.054-2.696-6.867-4.713-11.153-5.753
	C333.219,579.021,330.878,581.801,333.696,583.789L333.696,583.789z M355.301,583.836c-0.617,0.596-1.228,1.207-1.813,1.828
	c1.504,1.412,2.892,2.979,4.202,4.646C357.078,588.076,356.281,585.922,355.301,583.836L355.301,583.836z M352.005,587.35
	c-1.117,1.361-2.051,2.766-2.633,4.169c0.281,0.462,0.554,0.967,0.823,1.514c-0.334-0.392-0.663-0.753-0.987-1.089
	c-0.31,0.854-0.484,1.708-0.484,2.553c2.688-0.754,4.966-1.501,7.021-2.308C354.73,590.432,353.472,588.807,352.005,587.35
	L352.005,587.35z M357.25,595.354l-0.186,0.144l0.251,0.028L357.25,595.354L357.25,595.354z M240.873,591.678
	c0.454-0.587,0.921-1.16,1.398-1.722C239.947,589.682,239.363,590.917,240.873,591.678L240.873,591.678z M246.824,586.961
	c-0.555,0.943-1.129,1.912-1.627,2.922c2.182,0.762,3.875,2.229,5.332,3.996l0.183-0.1
	C249.95,591.301,248.646,589.051,246.824,586.961L246.824,586.961z M244.833,590.658c-0.895,2.034-1.403,4.242-0.793,6.737
	l5.535-3.001C248.443,592.772,246.8,591.463,244.833,590.658L244.833,590.658z M253.898,592.051l0.105-0.058l-0.171,0.2
	c-0.454,1.012-0.726,2.151-0.871,3.488c1.717-1.873,3.608-3.01,5.434-3.634c-0.356-1.145-0.842-2.341-1.417-3.527
	C255.519,589.578,254.538,590.698,253.898,592.051L253.898,592.051z M250.518,596.083l-0.858,1.007l1.22-0.012
	C250.778,596.739,250.657,596.406,250.518,596.083L250.518,596.083z M253.521,597.052l5.248-0.054l0.016-0.037
	C256.58,596.01,255.122,596.259,253.521,597.052L253.521,597.052z M258.845,596.814l0.18-0.441c0.091-0.986-0.048-2.141-0.361-3.379
	c-1.558,0.607-3.184,1.613-4.718,3.162C255.583,595.797,256.991,595.492,258.845,596.814L258.845,596.814z M258.723,587.406
	c0.457-0.26,0.946-0.52,1.472-0.781c-0.475,0.146-1.018,0.348-1.593,0.604c-0.661-0.965-1.376-1.916-2.123-2.819
	c2.521-1.306,4.744-1.205,6.619-0.118c-1.482,0.762-2.782,2.138-3.664,4.211C259.207,588.137,258.968,587.77,258.723,587.406
	L258.723,587.406z M322.976,581.766c-0.663,1.82-1.062,3.572-1.303,5.504c1.365,0.387,2.704,1.193,3.945,2.267
	c0.967-1.237,1.909-2.212,3-3.046C327.382,584.459,325.642,582.811,322.976,581.766L322.976,581.766z M321.53,588.65
	c-0.177,2.098-0.21,4.453-0.21,7.348c1.273-2.041,2.31-3.69,3.268-5.059C323.714,589.821,322.689,589.02,321.53,588.65
	L321.53,588.65z M329.78,588.83c-0.699,0.836-1.352,1.791-2.015,2.935c1.051,1.284,1.977,2.729,2.72,4.204l0.116,0.025
	c0.113-0.898,0.331-1.727,0.63-2.48C330.819,591.863,330.371,590.285,329.78,588.83L329.78,588.83z M326.437,594.271
	c-0.116,0.236-0.233,0.477-0.351,0.725l0.672,0.148C326.657,594.848,326.549,594.555,326.437,594.271L326.437,594.271z
	 M335.528,597.083l1.876,0.415l0.417-5.939C336.826,593.041,336.054,594.951,335.528,597.083L335.528,597.083z M338.86,590.256
	l3.906,5.742c1.661-2.143,3.135-4.018,4.592-5.729c-2.752-2.123-5.131-2.278-7.061-1.16c1.41,0.724,2.621,2.131,3.323,4.326
	c-1.297-2.215-2.706-3.375-4.077-3.807C339.308,589.818,339.081,590.028,338.86,590.256L338.86,590.256z M333.511,593.962
	c-0.074-0.462-0.165-0.917-0.27-1.366c0.937-1.436,2.367-2.676,3.99-3.053C335.84,590.749,334.567,592.293,333.511,593.962
	L333.511,593.962z M259.572,588.723c0.541,0.881,1.026,1.76,1.435,2.615c0.797-2.135,1.439-4.071,1.935-5.945
	C261.804,586.018,260.661,587.086,259.572,588.723L259.572,588.723z M267.034,584.869l0.006,0.123
	c0.259,0.232,0.367,3.275,0.618,3.523c0.049-0.172,0.246-3.15,0.294-3.32C267.653,585.063,267.347,584.953,267.034,584.869
	L267.034,584.869z M274.917,595.365c-0.018,0.863-0.038,1.738-0.063,2.633c0.388-0.842,0.783-1.694,1.188-2.555L274.917,595.365
	L274.917,595.365z M294.774,586.863c-0.08-0.076-0.162-0.15-0.243-0.225l0.197,0.231L294.774,586.863L294.774,586.863z
	 M126.458,587.453c-0.485,1.742-0.779,3.954-1.129,7.043c3.351-2.973,6.055-5.723,8.407-8.489
	C131.665,585.176,129.222,585.496,126.458,587.453L126.458,587.453z M138.705,587.049l-0.034,0.207
	c1.037,0.943,2.015,2.035,2.907,3.219l0.799-0.895C141.378,588.42,140.108,587.475,138.705,587.049L138.705,587.049z
	 M138.341,590.633c-0.039,1.096-0.012,2.215,0.093,3.363l0.958-1.074C139.078,592.107,138.726,591.342,138.341,590.633
	L138.341,590.633z M145.881,590.941c0.253,0.984,0.722,1.628,1.584,2.23c2.113-3.595,5.062-6.834,8.241-8.373
	c0.82-2.709,1.796-5.385,2.921-8.227C150.14,578.459,147.653,584.156,145.881,590.941L145.881,590.941z M150.79,594.865
	c0.736,0.328,1.577,0.696,2.538,1.133c0.388-3.099,0.942-5.915,1.657-8.64C153.149,589.012,151.731,591.688,150.79,594.865
	L150.79,594.865z M158.066,585.711c0.009,3.647,0.626,7.297,1.814,12.287l1.911-0.32l-0.035-0.357
	c-1.129-4.57-2.02-7.926-1.277-11.639C159.631,585.53,158.826,585.545,158.066,585.711L158.066,585.711z M161.242,585.863
	c-0.355,3.86,0.492,7.378,1.905,11.587l0.29-0.05c0.201-3.014,0.258-6.588,0.96-9.938
	C163.292,586.68,162.24,586.157,161.242,585.863L161.242,585.863z M71.824,582.734c0.465,0.928,0.892,1.866,1.278,2.84
	c0.704-0.907,1.522-1.579,2.404-2.031C74.398,582.898,73.166,582.601,71.824,582.734L71.824,582.734z M73.353,586.228
	c0.546,1.475,0.997,3.04,1.339,4.765c1.718-1.875,2.948-3.242,3.826-4.484c-0.626-0.927-1.323-1.715-2.087-2.33
	C75.407,584.5,74.367,585.152,73.353,586.228L73.353,586.228z M79.692,584.463c0.035-0.08,0.066-0.158,0.1-0.238
	c-0.177-0.061-0.355-0.109-0.536-0.152C79.403,584.199,79.548,584.328,79.692,584.463L79.692,584.463z M82.721,586.078
	c0.079,0.676,0.142,1.361,0.19,2.066c0.311,0.435,0.611,0.879,0.897,1.332c0.089-0.566,0.2-1.123,0.328-1.672
	C83.734,587.189,83.256,586.602,82.721,586.078L82.721,586.078z M86.846,587.941c4.479-4.503,9.074-8.268,14.654-12.461
	c-2.318,2.694-4.126,4.709-5.53,6.793c1.522-0.857,3.106-1.337,4.687-1.287c0.256-0.629,0.532-1.296,0.843-2.004
	c-0.098,0.686-0.202,1.365-0.309,2.041c1.333,0.143,2.659,0.675,3.935,1.689c0.144-3.166-0.33-6.386-1.192-9.605
	C91.918,573.85,88.891,580.168,86.846,587.941L86.846,587.941z M93.217,588.172c-0.249,0.861-0.466,1.795-0.653,2.82
	c4.696-2.465,5.953-4.781,7.394-8.281C97.125,582.85,94.842,584.979,93.217,588.172L93.217,588.172z M100.921,582.738
	c-0.674,4.26-1.262,8.391-0.613,12.759c2.82-3.554,4.242-7.3,4.686-11.142C103.543,583.387,102.183,582.869,100.921,582.738
	L100.921,582.738z M200.562,591.983c-0.031,0.984-0.088,1.989-0.173,3.013c1.937-2.44,3.544-4.471,5.041-6.212
	C203.965,589.105,202.336,590.108,200.562,591.983L200.562,591.983z M210.402,590.756c-0.53,1.477-1.063,3.191-1.672,5.242
	l4.197,0.14C212.361,593.98,211.509,592.094,210.402,590.756L210.402,590.756z M220.407,596.389l3.215,0.107
	c0.799-2.684,1.394-5.159,1.832-7.572C223.058,589.782,221.325,592.719,220.407,596.389L220.407,596.389z M225.684,587.576
	c0.293-1.836,0.499-3.652,0.641-5.514c-6.433,1.469-8.135,5.941-9.449,11.186c0.288,0.721,0.489,1.518,0.585,2.383
	C219.286,591.926,222.408,588.388,225.684,587.576L225.684,587.576z M228.528,588.938c0.037,1.788-0.005,3.623-0.14,5.559
	c0.863-1.596,1.672-3.014,2.465-4.301C230.04,589.594,229.264,589.181,228.528,588.938L228.528,588.938z M214.827,593.651
	c0.065-0.414,0.145-0.824,0.24-1.228c-0.843-1.292-2.129-2.409-3.59-2.748C212.729,590.763,213.875,592.15,214.827,593.651
	L214.827,593.651z M287.679,583.464c-1.895,3.319-2.699,7.251-2.699,11.532c2.711-3.637,4.146-6.147,7.398-7.453
	C290.998,585.779,289.429,584.3,287.679,583.464L287.679,583.464z M293.16,588.594c-2.789,1.668-3.561,3.971-5.2,7.404h9.267
	C296.192,593.691,294.833,590.97,293.16,588.594L293.16,588.594z M168.235,596.596l0.581-0.1c1.623-2.869,3.234-5.62,4.864-8.291
	C171.302,590.346,169.472,593.842,168.235,596.596L168.235,596.596z"/>
</svg>
