<?xml version="1.0" encoding="utf-8"?>
<!-- Generator: Adobe Illustrator 16.0.2, SVG Export Plug-In . SVG Version: 6.00 Build 0)  -->
<!DOCTYPE svg PUBLIC "-//W3C//DTD SVG 1.1//EN" "http://www.w3.org/Graphics/SVG/1.1/DTD/svg11.dtd">
<svg version="1.1" id="lay" xmlns="http://www.w3.org/2000/svg" xmlns:xlink="http://www.w3.org/1999/xlink" x="0px" y="0px"
	 width="700px" height="700px" viewBox="0 0 700 700" enable-background="new 0 0 700 700" xml:space="preserve">
<g id="arvore">
	<g id="tronco">
		<path id="troncol" fill-rule="evenodd" clip-rule="evenodd" fill="#80806F" d="M280.396,700
			c23.796-29.223,36.771-48.391,51.403-83.806c4.381-10.601,10.051-20.161,16.518-30.314c14.867-23.337,4.402-46.196-6.667-85.51
			c-2.492-5.219-4.967-10.418-7.482-15.536c-20.485-41.69-43.563-78.383-98.28-82.884c-6.354-0.522-12.665-0.604-19.261-0.501
			c-30.508,0.466-41.352-12.736-66.402-30.422l7.924-2.265c19.716,11.797,37.023,23.334,60.167,22.254
			c7.539-0.353,14.199-0.639,19.25-0.671c15.823-0.104,26.44,2.291,49.762,13.02l-27.162-31.045
			c-22.02-24.954-40.251-30.849-71.14-43.976l14.229-5.176c24.952,11.344,44.423,20.76,65.966,37.512
			c-13.263-19.062-23.981-32.622-41.39-47.854l14.227-1.296c29.666,23.962,64.771,34.231,71.137,72.433l41.39,34.919
			c-12.671-19.456-26.284-38.935-23.031-58.117c1.063-6.271,4.89-13.555,9.666-21.036c7.448-11.67,17.216-23.826,22.419-33.369
			c1.248-28.678-2.587-37.516-15.521-63.379c19.019,24.961,25.642,45.626,23.283,76.313c35.049-34.139,32.037-59.739,32.338-117.704
			l5.171,50.443c3.276,36.08-10.42,58.74-34.974,85.503c-26.265,28.624-14.559,38.833,10.398,78.764
			c22.438-17.563,41.563-28.986,67.259-41.39c16.899-35.677,43.562-39.924,78.896-56.912
			c-36.925,19.343-51.448,20.791-65.963,59.499c17.838-1.574,35.53-2.958,53.303-3.994c43.136-2.514,47.192-18.219,74.744-52.918
			c-29.068,48.03-24.909,57.193-78.633,63.413c-24.514,2.836-47.442,7.318-70.549,21.423c-9.017,5.508-17.021,11.391-25.341,18.532
			c-22.154,19.014-23.972,29.274-17.011,43.884c45.832,96.188,21.699,99.369,31.062,188.749c1.436,13.72,5.446,25.278,12.687,43.415
			H280.396L280.396,700z"/>
		<path id="troncod" fill-rule="evenodd" clip-rule="evenodd" fill="#5B574B" d="M280.396,700
			c23.796-29.223,36.771-48.391,51.403-83.806c4.381-10.601,10.051-20.161,16.518-30.314c14.867-23.337,4.402-46.196-6.667-85.51
			c-2.492-5.219-4.967-10.418-7.482-15.536c-20.485-41.69-43.563-78.383-98.28-82.884c-6.354-0.522-12.665-0.604-19.261-0.501
			c-30.508,0.466-41.352-12.736-66.402-30.422l7.924-2.265c19.716,11.797,37.023,23.334,60.167,22.254
			c7.539-0.353,14.199-0.639,19.25-0.671c2.165-0.017,4.232,0.018,6.25,0.112c61.445,17.557,110.885,60.108,135.345,129.314
			l-14.227-15.521c7.966,60.558-9.204,103.578-33.63,156.501l14.227-12.934L324.459,700H280.396L280.396,700z M330.221,700
			c24.647-48.705,49.438-95.541,55.404-151.572c3.482,54.56-22.099,101.46-42.673,151.293l20.043-19.397L352.152,700H330.221
			L330.221,700z M396.283,551.092c-2.639-34.633-10.012-63.913-30.377-93.375l21.647,15.505
			c-18.429-24.851-30.449-44.442-59.127-58.158l23.264,24.557c-18.881-14.083-38.158-24.773-58.805-36.19
			C345.056,438.372,386.555,488.572,396.283,551.092L396.283,551.092z M270.226,383.819l-10.061-11.499
			c-22.02-24.954-40.251-30.849-71.14-43.976l14.229-5.176c24.952,11.344,44.423,20.76,65.966,37.512
			c-13.263-19.062-23.981-32.622-41.39-47.854l14.227-1.296c15.267,12.33,31.971,21.033,45.461,31.786l-9.247,4.431l12.936,29.749
			l-16.815-9.054l3.88,19.4L270.226,383.819L270.226,383.819z M336.354,388.109c-4.112-9.158-6.338-18.283-4.802-27.345
			c1.063-6.271,4.89-13.555,9.666-21.036c7.448-11.67,17.216-23.826,22.419-33.369c1.248-28.678-2.587-37.516-15.521-63.379
			c19.019,24.961,25.642,45.626,23.283,76.313c35.049-34.139,32.037-59.739,32.338-117.704l5.171,50.443
			c3.083,33.896-8.823,55.947-30.63,80.676C347.318,336.171,335.607,353.949,336.354,388.109L336.354,388.109z M455.434,367.611
			c16.983-29.06,42.286-33.859,75.056-49.614c-36.925,19.343-51.448,20.791-65.963,59.499c17.838-1.574,35.53-2.958,53.303-3.994
			c43.136-2.514,47.192-18.219,74.744-52.918c-29.068,48.03-24.909,57.193-78.633,63.413c-4.834,0.559-9.608,1.185-14.335,1.934
			c-11.541-2.521-23.568-4.14-36.373-4.555C463.959,373.414,460.815,369.313,455.434,367.611L455.434,367.611z"/>
	</g>
	<g id="folhas">
		<path fill-rule="evenodd" clip-rule="evenodd" fill="#8E985E" d="M168.386,212.224l10.991,2.587
			c-11.131,7.613-19.529,15.648-29.097,25.214l13.578-5.172c-31.872,39.792-55.115,59.755-69.826,109.268l17.456-7.115
			c-7.663,23.47-10.345,38.07-10.345,62.719l22.63-25.216l-1.94,11.638c26.014-8.497,44.413-17.313,63.345-31.575
			c26.857-20.234,55.765-5.539,75.253-9.131c6.497-1.199,11.948-4.43,15.927-11.664c29.183,1.824,50.001-48.435,66.15-31.64
			c7.586,7.891,14.049,5.998,19.59,0.414c6.688-6.739,12.039-18.863,16.414-25.671c16.319,5.078,26.387,13.269,46.354,3.521
			c-6.493,7.896-11.58,17.102-14.674,28.16l6.467-6.467c-7.485,52.409,42.724,34.778,80.171,32.329
			c-8.386,8.16-16.672,15.143-16.813,31.034l9.058-9.697v9.051c6.896-6.87,13.793-9.294,20.689-9.698v8.405l18.743-5.818
			l-1.289,5.172c46.541-8.019,42.389-20.524,44.962-52.779c5.892-1.854,11.655-4.204,17.338-6.976
			c44.763-21.837,48.662-79.351,1.058-83.78c14.895-41.362-41.774-35.952-70.469-38.792
			C416.88,162.923,261.825,147.989,168.386,212.224L168.386,212.224z"/>
		<path fill-rule="evenodd" clip-rule="evenodd" fill="#ACBF68" d="M228.514,283.309c3.803-39.34-31.577-36.676-59.483-24.911
			l11.638-1.384c-6.181,7.353-10.984,13.396-18.749,18.684c-22.997-13.538-40.937-15.377-66.593-11.766h15.516
			c-15.864,3.427-31.559,6.347-41.379,17.3l17.458-3.459c-12.687,6.224-16.323,8.782-24.569,20.76h10.343
			c-30.891,11.939-45.162,22.562-58.188,52.588l13.578-8.993l-7.111,10.381c29.369,0,51.586-12.731,76.938-26.297l-17.456,15.224
			c20.449-4.193,34.912-5.854,55.604-4.152c-27.4,3.065-46.052,10.293-62.07,38.06l25.863-8.304l-8.405,10.379
			c9.961-2.995,19.371-6.096,27.734-5.414c12.828,1.051,13.976,5.194,28.517,1.955l19.394-6.23l-5.171,5.538
			c33.208-5.925,40.958-17.026,61.658-35.487c9.732-8.674,17.866-9.591,28.9-10.715c12.182-1.239,22.471-7.96,33.578-13.31
			l-3.231,13.841c31.46-25.253,49.319-24.585,27.201-48.349C284.595,251.922,255.148,265.231,228.514,283.309L228.514,283.309z"/>
		<path fill-rule="evenodd" clip-rule="evenodd" fill="#ACBF68" d="M218.38,168.344l39.226-25.853l54.311-21.696l-17.458-3.097
			l31.681-3.1l43.319-6.196l-18.75-10.074c60.688-5.06,121.301-2.095,179.738,18.595l-9.051-9.298
			c51.82,17.634,72.483,28.679,72.226,43.342c-0.648,37.349-47.871,54.695-72.87,56.604l-32.973-1.55
			c35.177,38.142-46.399,31.95-62.719,29.444c-14.631,36.813-67.704,14.056-99.093-2.156c-21.293-10.996-41.413-5.02-64.48-3.269
			l9.695-12.396c-8.046,1.244-15.142,3.137-21.974,5.571c-32.792,11.679-38.038,17.875-4.007-9.041
			c7.848-6.209,15.937-12.139,24.689-18.223l-28.447,2.322c-20.116,2.241-37.071,11.308-12.932-10.071
			C179.622,193.67,168.695,201.09,218.38,168.344L218.38,168.344z"/>
		<path fill-rule="evenodd" clip-rule="evenodd" fill="#ACBF68" d="M478.728,280.112c-22.413,4.621-41.895,4.52-53.018,23.275
			l5.816,0.645c-12.792,11.164-17.69,24.594-20.039,45.26l16.812-10.345l-7.76,16.812l21.982-1.294l-5.822,10.345
			c20.351-2.326,32.038-8.809,51.095-14.822c7.439-2.348,14.98-3.223,22.765-0.688c26.843,8.744,57.12,20.892,83.252,9.689
			c5.681,20.834,22.911-1.74,29.266-6.632c4.63-3.564,9.6,1.119,20.514-5.457c3.087-1.865,4.29-5.679,10.639-14.738
			c1.874-2.677,5.161-4.069,12.644-7.511c19.852-9.131,21.736-22.636,14.233-36.762c-8.89-16.741-30.97-34.356-51.96-46.592
			c-13.12-7.648-25.534-8.651-51.498-9.031c15.012,1.433,26.712,2.417,40.734,7.758c-38.321-5.107-74.952-0.602-108.618,18.104
			l14.459-4.08c30.968-8.733-23.108,17.778-28.037,20.243C593.116,272.908,463.422,300.2,478.728,280.112L478.728,280.112z"/>
		<path fill-rule="evenodd" clip-rule="evenodd" fill="#909A60" d="M304.194,175.642l21.001-5.169
			c-3.323,8.241-4.589,11.574-2.897,13.404c9.137,9.865,26.406-0.688,35.53-4.68c-17.349,19.97-3.246,23.423,13.875,19.642
			c15.979-3.525,24.524-10.19,35.885-20.935l-3.067,12.925c12.28-6.465,15.066-14.049,23.102-25.527l-5.815,17.773
			c12.443-12.119,12.809-15.348,15.505-32.635c-1.515,20.228-1.927,25.835-13.89,42.002l-2.589-3.878
			c-6.73,8.706-9.894,13.798-26.168,15.673l2.585-5.979c-9.101,4.829-87.223,29.019-61.875-0.808
			c-19.753,0.657-37.671-1.558-16.642-21.81H304.194L304.194,175.642z M461.868,109.728c-28.359-0.479-45.128,8.229-65.914,25.201
			l36.835-8.4l-10.338,12.604c13.464-2.005,23.497-5.586,36.188-10.663l-11.31,13.571c17.127,3.534,23.551-3.381,36.833-18.096
			l-1.294,16.156l13.574-21.647l-9.696,8.723l-0.967-7.43c-6.155,6.664-12.482,11.752-19.063,14.538l-1.294-11.956
			c-9.771,4.34-14.298,6.472-24.879,6.141l1.616-7.432l-19.388,2.261C437.075,115.668,445.905,112.343,461.868,109.728
			L461.868,109.728z"/>
		<path fill-rule="evenodd" clip-rule="evenodd" fill="#909A60" d="M77.373,320.07c13.759-4.514,23.719-6.956,38.127-7.756
			l-10.663,7.756c16.493,7,29.904,0.097,47.176-3.878l-6.463,6.783c13.267-4.31,19.45-11.451,30.694-23.584
			c-6.569,4.955-13.14,9.911-19.709,14.861l3.23-7.752c-12.27,3.146-22.894,6.461-35.541,6.461l5.081-5.256
			c-10.962,0.827-24.422-0.408-35.129,2.026c11.726-6.896,22.831-10.155,35.863-14.219h-15.185
			c8.269-3.964,18.661-4.557,28.432-6.14c-15.036,0.718-27.278,1.336-41.682,5.495l12.278,1.614
			C98.248,301.293,87.819,308.078,77.373,320.07L77.373,320.07z"/>
		<path fill-rule="evenodd" clip-rule="evenodd" fill="#909A60" d="M509.042,284.531l-18.739,15.83
			c16.99-1.307,29.896-2.437,45.88-8.078l-15.505,31.019c8.882-1.558,16.328-1.88,23.905-6.787l-0.322,9.696
			c15.175-6.39,17.912-6.742,25.208-21.325v10.662c4.821-8.686,5.536-14.293,6.782-24.234c-1.364,5.425-2.842,10.409-4.849,13.248
			l-2.263-8.078c-5.923,8.522-8.293,13.976-17.768,18.096l1.611-6.465l-4.2,3.556l2.589-12.925
			c-6.688,7.924-8.669,10.321-18.418,13.569l11.958-25.201c-13.514,4.68-22.838,6.104-37.159,6.787l18.412-13.571L509.042,284.531
			L509.042,284.531z"/>
	</g>
</g>
<path id="grass" fill-rule="evenodd" clip-rule="evenodd" fill="#669944" stroke="#000000" stroke-width="0.322" stroke-miterlimit="10" d="
	M649.982,700H136.038h-8.979H50.018c0.715-27.494,13.726-43.195,40.15-62.052c-13.24,12.912-20.989,17.804-25.444,30.142
	c4.998,1.365,8.649,4.271,9.884,7.314c1.3-0.861,2.659-1.623,4.071-2.3c-1.778-3.097-4.263-6.067-7.597-9.275
	c2.533,1.624,5.972,4.706,8.857,8.704c2.45-1.069,5.04-1.893,7.728-2.557c-2.228,1.479-4.335,3.043-6.27,4.734
	c2.24,3.638,3.899,7.864,4.094,12.347c1.996-5.647,4.088-10.3,7.291-14.459c-1.056-5.507-2.226-11.006-3.449-16.635
	c2.204,4.959,4.005,9.522,5.573,14.133c1.923-2.067,4.202-4.025,6.982-5.947c-2.38,2.362-4.533,4.861-6.458,7.51
	c0.761,2.317,1.471,4.659,2.147,7.078c1.564-0.735,3.217-1.216,4.976-1.385c0.531-0.048,1.037-0.064,1.518-0.051
	c4.583-11.755,10.496-21.72,16.955-33.346c-7.059,15.126-10.379,22.238-11.354,35.804c1.042,1.436,0.996,3.178-0.227,4.313
	c-0.064,1.844-0.097,3.806-0.097,5.92l10.145-9.254c-0.225-0.347-0.452-0.697-0.684-1.047c0.29,0.293,0.579,0.588,0.864,0.886
	l10.527-9.601l-1.661,1.996c0.629,3.213,1.376,6.467,1.903,9.773c0.355-0.413,0.724-0.856,1.112-1.324
	c0.602-4.796,0.675-9.436,0.263-14.373c-2.481,1.711-5.172,4.822-8.053,9.631c2.324-6.788,4.957-10.914,7.702-13.004
	c-0.553-4.496-1.477-9.299-2.741-14.716c2.093,4.79,3.988,9.028,5.621,13.249c3.18-0.862,6.417,0.618,9.425,3.531
	c1.148-0.202,2.324-0.098,3.478,0.29c0.533-3.049,0.658-6.693,0.658-12.066c1.127,5.068,1.926,9.469,2.46,13.86
	c1.164,0.97,2.255,2.248,3.215,3.808c3.409-14.423,12.061-25.163,26.916-25.458c-1.727-9.19-4.562-18.375-7.571-27.237
	c10.596,23.115,14.232,37.69,18.35,64.05c0-33.441,4.187-38.858,20.85-66.055c-11.315,25.463-13.218,32.354-11.675,61.051
	c8.891-12.449,14.402-16.649,26.688-24.019c-7.975,7.44-11.716,10.811-13.764,16.122c3.393-3.104,6.988-2.949,10.408-0.758
	c5.593-9.882,9.833-20.119,15.031-33.379c-3.492,12.573-7.572,23.679-9.312,35.695c2.293,0.626,4.523,2.372,6.348,5.073l1.026-1.64
	c3.196-11.25,9.808-19.89,20.335-22.413c0.517-1.862,1.057-3.76,1.619-5.707c-0.338,1.945-0.642,3.787-0.91,5.55
	c1.85-0.389,3.815-0.595,5.903-0.595c-2.188,0.155-4.168,0.495-5.966,0.999c-0.85,5.633-1.351,10.431-1.511,15.065
	c1.311-0.353,2.632-0.361,3.94,0.027c0.483-2.126,1.164-4.337,2.08-6.708c-0.59,2.438-1.017,4.75-1.298,6.984
	c1.551,0.654,3.083,1.896,4.561,3.828c1.603-8.314,4.918-15.543,12.226-18.463c-7.292,3.979-9.923,11.851-10.863,20.467
	c1.304,2.149,2.555,4.895,3.727,8.313c-1.363-2.276-2.686-4.168-3.962-5.713c-0.423,5.824-0.227,11.843-0.29,17.108
	c2.269-6.026,7.702-19.799,14.187-23.174c7.562-17.139,15.6-32.823,25.715-49.711c-9.427,20.243-14.355,32.619-17.459,51.951
	c1.172,1.348,2.349,3.194,3.521,5.63c-1.291-1.896-2.538-3.29-3.735-4.258c-0.556,3.632-1.054,7.509-1.509,11.73l3.921,1.042
	c3.073-6.365,5.633-10.906,10.336-16.239c-3.906,5.704-5.875,10.152-8.249,16.797l0.209,0.058c2.416-3.634,4.566-5.905,8.561-8.233
	c-3.09,3.017-4.649,5.68-5.919,8.938l6.154,1.639c0.838-17.427-0.49-34.657-2.502-52.044c4.178,17.89,7.692,35.845,9.174,54.048
	c2.725-16.896,3.823-32.331,2.503-49.042c2.858,12.749,4.647,25.332,4.432,39.874c2.568-6.024,5.538-8.247,8.491-8.007
	c6.239-9.78,11.783-14.732,25.441-21.858c-11.996,10.284-15.914,13.994-19.086,24.559c2.174,0.146,4.363,1.699,6.024,4.398
	c2.134-9.023,7.053-16.086,15.196-18.135c0.273-5.293,0.367-10.775,0.367-16.827c0.771,5.783,1.43,11.139,1.907,16.399
	c0.897-0.116,1.83-0.179,2.798-0.179c-0.984,0.071-1.909,0.191-2.782,0.36c0.349,3.892,0.597,7.736,0.715,11.668
	c1.365,0.561,2.707,1.735,3.986,3.654c5.258-11.781,10.269-18.058,20.897-28.9c-12.35,14.82-13.684,18.353-16.68,39.033l5.004,3.002
	c1.208-2.904,2.529-5.652,3.938-8.274c-3.081-1.457-1.626-5.412,2.858-4.975c1.422-2.32,2.912-4.555,4.449-6.718
	c-0.493-0.727-1.011-1.443-1.551-2.154c0.646,0.602,1.247,1.204,1.805,1.802c1.146-1.6,2.319-3.166,3.512-4.703
	c-0.557,2.022-1.362,4.066-2.227,6.168c3.396,4.119,4.986,8.297,6.234,13.556l0.566-0.44c1.127-4.151,3.984-7.581,6.842-9.955
	c-0.702-1.994-1.487-3.972-2.324-5.858c-1.834,1.805-3.77,4.35-5.797,7.736c1.485-4.34,3.098-7.591,4.785-9.917
	c-5.501-11.356-12.554-17.979-12.872-2.096c-0.858-16.999,7.308-10.932,14.351,0.307c3.673-3.848,7.615-3.722,11.337-1.207
	c1.154-8.784,1.128-17.652-0.044-30.317c2.576,11.855,4.232,21.216,4.79,32.293c0.627,0.106,1.251,0.299,1.866,0.574
	c3.475-19.898,1.359-32.879-2.486-53.886c7.125,17.223,10.186,32.448,11.289,49.918c4.603-9.699,12.563-16.183,24.349-16.183
	c-16.134,1.138-20.983,12.259-23.916,26.478c0.086,3.623,0.11,7.363,0.092,11.249c0.015,0.146,0.025,0.29,0.038,0.44
	c2.562-7.433,6.468-14.612,10.841-18.755c0.229-0.45,0.459-0.897,0.693-1.342c-2.593,0.737-5.393,3.019-8.388,7.412
	c3.476-7.217,6.982-10.403,10.361-10.93c3.881-6.514,8.595-12.046,14.578-15.676c-1.725-2.029-3.808-3.771-6.329-5.146
	c2.786,1.115,5.116,2.724,7.07,4.711c2.666-1.52,5.573-2.671,8.771-3.365c10.146-2.213,17.616,0.602,19.771,18.226
	c-4.653-12.565-10.633-15.196-17.518-13.446c-2.823,0.719-5.371,1.692-7.671,2.901c5.767,9.37,6.69,23.325,7.189,35.62
	c0.673,1.127,1.292,2.303,1.848,3.533c0.227-1.05,0.439-2.086,0.64-3.109l-0.529-17.032c0.583,3.012,1.28,6.06,1.81,9.152
	c1.09-8.813,0.845-17.28-1.609-27.423c2.24,5.794,3.374,10.857,3.768,15.781c1.319,2.979,2.545,6.091,3.643,9.404
	c0.456-1.119,0.854-1.905,1.146-2.119c-0.345,0.884-0.673,1.762-0.979,2.631c0.837,2.584,1.595,5.288,2.251,8.151
	c0.721-0.465,1.469-0.868,2.235-1.213c0.909-2.273,1.866-4.098,2.856-5.53c2.106-5.914,4.177-11.215,6.813-16.341
	c-1.466-0.413-3.082-0.688-4.868-0.814c1.778,0,3.45,0.181,5.018,0.524c2.555-4.92,5.645-9.684,9.808-14.681
	c-2.774,6.322-4.628,11.29-5.868,15.975c3.913,1.76,7.011,4.708,9.35,8.464c1.258-1.122,2.682-2.143,4.368-3.156
	c-5.212-4.354-0.185-13.016,11.575-9.888c6.362,1.691,11.551,5.813,16.017,11.355c1.008-1.279,2.067-2.54,3.192-3.802
	c-3.625-10.373-8.858-19.881-15.638-28.783c9.207,8.607,14.383,16.828,17.919,26.334c1.746-1.799,3.655-3.611,5.788-5.49
	c-1.555,2.037-3.411,4.334-5.308,6.814c1.521,4.32,2.737,8.916,3.86,13.937c1.721-10.708,8.57-19.619,15.649-25.774
	c-1.569-5.323-3.726-10.839-6.695-16.994c4.028,5.909,6.994,10.629,9.207,14.929c3.471-2.697,6.858-4.704,9.58-5.902
	c-3.407,2.431-6.356,4.818-8.903,7.253c2.768,5.678,4.227,10.742,5.124,17.056c3.676-1.468,7.235-2.056,10.492-2.001
	c6.137-12.092,13.862-16.953,31.212-29.335c-13.241,12.912-20.99,17.804-25.443,30.142c4.997,1.365,8.649,4.271,9.885,7.314
	c1.297-0.861,2.659-1.623,4.067-2.3c-1.777-3.097-4.259-6.067-7.595-9.275c2.533,1.624,5.973,4.706,8.857,8.704
	c2.45-1.069,5.041-1.893,7.728-2.557c-2.229,1.479-4.334,3.043-6.271,4.734c2.241,3.638,3.901,7.864,4.095,12.347
	c1.996-5.647,4.087-10.3,7.291-14.459c-1.056-5.507-2.224-11.006-3.447-16.635c2.202,4.959,4.003,9.522,5.572,14.133
	c1.922-2.067,4.201-4.025,6.981-5.947c-2.38,2.362-4.534,4.861-6.457,7.51c0.762,2.317,1.471,4.659,2.146,7.078
	c1.564-0.735,3.22-1.216,4.977-1.385c0.531-0.048,1.036-0.064,1.518-0.051c4.58-11.755,10.495-21.72,16.954-33.346
	c-7.061,15.126-10.377,22.238-11.354,35.804c1.041,1.436,0.997,3.178-0.227,4.313c-0.063,1.844-0.095,3.806-0.095,5.92l20.85-19.016
	l-15.012,18.018c11.378,0,11.889-2.259,20.017-12.013C646.648,688.229,644.889,690.219,649.982,700L649.982,700z M123.647,688.037
	c-0.928-1.876-1.95-3.722-3.051-5.533l-5.407,6.49C118.993,688.994,121.582,688.739,123.647,688.037L123.647,688.037z
	 M121.011,682.006c1.532,1.684,2.974,3.441,4.266,5.334c1.274-0.679,2.387-1.595,3.573-2.825l-0.357-11.488L121.011,682.006
	L121.011,682.006z M80.078,675.907c-1.836,1.733-3.495,3.599-4.926,5.624c2.587,2.365,5.078,5.674,7.218,10.186
	C82.628,685.331,82,680.392,80.078,675.907L80.078,675.907z M73.727,683.741c-1.628,2.766-2.854,5.827-3.574,9.253h0.217
	c4.105-3.147,6.789-1.824,9.911-0.264C78.263,688.832,76.017,685.898,73.727,683.741L73.727,683.741z M71.547,692.994h5.866
	C75.747,692.289,73.894,692.211,71.547,692.994L71.547,692.994z M87.357,692.994h8.649c-0.387-3.246-0.835-6.437-1.332-9.592
	C91.701,685.803,89.181,689.09,87.357,692.994L87.357,692.994z M94.247,680.761c-0.324-1.952-0.667-3.892-1.026-5.83
	c-2.593,4.133-4.677,8.629-6.241,13.551C89.22,685.43,91.607,682.739,94.247,680.761L94.247,680.761z M98.218,681.083
	c0.671,2.519,1.316,5.136,1.958,7.911c0.942-3.394,1.987-6.595,3.125-9.664C101.538,679.653,99.833,680.246,98.218,681.083
	L98.218,681.083z M68.947,680.299c-2.494-1.288-4.88-1.78-6.909-1.739c-0.401,2.261-0.754,4.725-1.061,7.432l-0.563,9.229
	l3.065-6.226C64.979,685.539,66.822,682.68,68.947,680.299L68.947,680.299z M62.429,676.506c2.493-0.153,5.396,0.369,8.345,1.922
	c0.626-0.582,1.271-1.136,1.935-1.654C69.896,670.572,63.972,668.894,62.429,676.506L62.429,676.506z M563.944,689.275
	c0.411-0.386,0.831-0.76,1.257-1.128c-0.367,1.234-0.741,2.516-1.122,3.849L563.944,689.275L563.944,689.275z M565.745,686.336
	c-0.648,0.227-1.287,0.479-1.909,0.771c-0.264-5.184-0.523-9.538-0.903-13.388c2.838-1.367,5.584-2.169,8.143-2.526
	C569.302,675.317,567.598,680.23,565.745,686.336L565.745,686.336z M558.235,691.384c-0.385,0.466-0.755,0.974-1.107,1.518
	c-0.059-0.653-0.074-1.318-0.055-1.999c0.38,0.126,0.768,0.268,1.162,0.432V691.384L558.235,691.384z M557.221,688.941
	c0.181-1.506,0.505-3.069,0.94-4.667c0.033,1.687,0.054,3.423,0.064,5.217C557.888,689.286,557.553,689.105,557.221,688.941
	L557.221,688.941z M558.131,682.83c-0.616,1.808-1.258,3.84-1.844,5.71c-0.687-0.257-1.361-0.43-2.026-0.53
	c-0.151-2.531-0.527-5.021-0.983-7.484c1.541-1.463,3.087-2.73,4.621-3.822C558.005,678.686,558.078,680.723,558.131,682.83
	L558.131,682.83z M555.67,690.512c-0.527,1.684-0.974,3.081-1.26,3.828l-0.307-0.055l0.002-0.007
	c0.162-1.342,0.229-2.671,0.228-3.991C554.771,690.336,555.216,690.41,555.67,690.512L555.67,690.512z M552.296,675.625
	c-0.203-0.981-0.406-1.964-0.595-2.939l0.105,3.377c-2.198,1.985-4.373,4.359-6.489,7.176c-0.625-0.725-1.269-1.431-1.925-2.129
	c3.647-4.511,7.126-9.162,10.678-14.136c-3.764,3.804-6.955,6.935-10.061,9.622c1.767-8.779,5.028-15.495,10.645-21.677
	c1.51,5.588,2.388,11.02,2.897,16.815C555.801,672.807,554.042,674.097,552.296,675.625L552.296,675.625z M551.985,681.8
	l0.189,6.103c-1.002,0.044-1.999,0.217-3.008,0.46c-0.406-0.635-0.829-1.255-1.266-1.862
	C549.25,684.767,550.614,683.204,551.985,681.8L551.985,681.8z M552.247,690.247l0.118,3.742l-0.298-0.052
	c-0.483-1.187-1.024-2.318-1.617-3.41C551.039,690.389,551.638,690.293,552.247,690.247L552.247,690.247z M543.198,681.516
	c0.527,0.836,1.035,1.677,1.524,2.529c-0.704,0.975-1.405,1.998-2.096,3.076C542.774,685.161,542.964,683.298,543.198,681.516
	L543.198,681.516z M546.814,687.938c0.155,0.314,0.308,0.629,0.458,0.943c-0.477,0.142-0.96,0.295-1.448,0.445
	C546.154,688.853,546.484,688.393,546.814,687.938L546.814,687.938z M548.338,691.243c0.312,0.729,0.608,1.467,0.89,2.209
	l-3.763-0.646C546.426,692.185,547.378,691.657,548.338,691.243L548.338,691.243z M471.901,687.676
	c0.153,0.762,0.299,1.534,0.436,2.316c0.504-1.438,0.988-2.839,1.46-4.203C473.145,686.394,472.512,687.022,471.901,687.676
	L471.901,687.676z M474.643,683.348l0.15-0.438c-0.122,0.169-0.247,0.344-0.371,0.521L474.643,683.348L474.643,683.348z
	 M468.556,691.996c0.356-0.562,0.729-1.104,1.114-1.63c0.063,0.553,0.117,1.094,0.165,1.63H468.556L468.556,691.996z
	 M469.192,686.678c-0.886,0.831-1.713,1.811-2.467,2.975c-0.258-2.958,0.309-6.212,1.314-9.622
	C468.486,682.309,468.876,684.528,469.192,686.678L469.192,686.678z M467.871,679.166c-2.08,6.035-4.544,15.012-4.168,11.862
	c0.189-1.578,0.251-3.142,0.221-4.689c1.08-6.655,1.767-12.425,1.418-18.329C466.287,671.833,467.146,675.568,467.871,679.166
	L467.871,679.166z M456.251,681.6c-1.436-1.805-2.996-3.502-4.622-5.146c1.707,2.577,3.263,5.214,4.628,7.924
	c-0.004,2.617-0.021,5.177,0.002,7.618h-0.257c-1.603-4.226-4.244-10.876-7.565-16.83l0.207-0.109
	c0.661,0.949,1.329,1.985,2.01,3.123c-0.428-1.244-0.864-2.397-1.311-3.465c1.323-0.629,2.856-1.203,4.646-1.736
	c-1.979,0.024-3.688,0.188-5.186,0.486c-2.917-6.448-6.196-9.411-9.512-9.917c2.706-5.231,6.553-9.519,11.786-12.534
	C455.608,659.484,456.193,670.893,456.251,681.6L456.251,681.6z M594.022,675.907c-1.838,1.733-3.496,3.599-4.928,5.624
	c2.59,2.365,5.078,5.674,7.219,10.186C596.571,685.331,595.943,680.392,594.022,675.907L594.022,675.907z M587.671,683.741
	c-1.629,2.766-2.854,5.827-3.576,9.253h0.218c4.107-3.147,6.791-1.824,9.91-0.264C592.206,688.832,589.959,685.898,587.671,683.741
	L587.671,683.741z M585.49,692.994h5.867C589.691,692.289,587.837,692.211,585.49,692.994L585.49,692.994z M601.3,692.994h8.65
	c-0.388-3.246-0.834-6.437-1.33-9.592C605.646,685.803,603.125,689.09,601.3,692.994L601.3,692.994z M608.192,680.761
	c-0.327-1.952-0.67-3.892-1.029-5.83c-2.592,4.133-4.676,8.629-6.241,13.551C603.163,685.43,605.551,682.739,608.192,680.761
	L608.192,680.761z M612.162,681.083c0.671,2.519,1.316,5.136,1.958,7.911c0.942-3.394,1.988-6.595,3.124-9.664
	C615.481,679.653,613.777,680.246,612.162,681.083L612.162,681.083z M582.893,680.299c-2.495-1.288-4.883-1.78-6.911-1.739
	c-0.4,2.261-0.752,4.725-1.06,7.432l-0.565,9.229l3.066-6.226C578.921,685.539,580.767,682.68,582.893,680.299L582.893,680.299z
	 M576.372,676.506c2.496-0.153,5.395,0.369,8.346,1.922c0.626-0.582,1.271-1.136,1.935-1.654c-1.148-2.533-4.453-4.779-9.003-5.537
	C577.183,672.861,576.757,674.608,576.372,676.506L576.372,676.506z M502.175,667.578c2.487-1.404,5.521-2.852,9.362-4.607
	c-2.976,2.382-5.394,4.29-7.434,6.069c1.071,0.617,2.39,1.139,3.963,1.499c-1.829-0.098-3.367-0.424-4.625-0.916
	c-1.936,1.734-3.52,3.38-4.918,5.257c0.987,2.183,1.773,4.552,2.365,7.06c2.188-3.553,5.199-5.316,8.023-4.822
	c4.258-4.114,9.072-4.736,13.234,2.02c1.373-2.248,2.75-4.356,4.205-6.388c-4.276-5.394-9.613-9.426-15.614-11.507
	C501.507,658.043,498.229,663.603,502.175,667.578L502.175,667.578z M532.422,667.674c-0.864,1.19-1.719,2.412-2.537,3.656
	c2.105,2.824,4.049,5.958,5.883,9.291C534.909,676.154,533.793,671.844,532.422,667.674L532.422,667.674z M527.807,674.7
	c-1.563,2.723-2.871,5.53-3.686,8.338c0.393,0.925,0.775,1.934,1.151,3.027c-0.468-0.782-0.928-1.507-1.382-2.178
	c-0.434,1.706-0.678,3.416-0.678,5.106c3.763-1.509,6.952-3.003,9.83-4.616C531.622,680.864,529.86,677.613,527.807,674.7
	L527.807,674.7z M535.149,690.708l-0.261,0.287l0.352,0.058L535.149,690.708L535.149,690.708z M372.223,683.355
	c0.636-1.173,1.289-2.318,1.957-3.442C370.926,679.363,370.108,681.835,372.223,683.355L372.223,683.355z M380.554,673.922
	c-0.777,1.887-1.582,3.825-2.279,5.846c3.055,1.523,5.425,4.455,7.465,7.99l0.256-0.199
	C384.93,682.604,383.105,678.103,380.554,673.922L380.554,673.922z M377.767,681.318c-1.253,4.067-1.964,8.484-1.11,13.474
	l7.749-6.003C382.82,685.546,380.521,682.926,377.767,681.318L377.767,681.318z M390.457,684.102l0.147-0.114l-0.239,0.401
	c-0.636,2.023-1.017,4.302-1.219,6.975c2.403-3.745,5.051-6.018,7.606-7.267c-0.499-2.289-1.179-4.682-1.984-7.055
	C392.726,679.158,391.354,681.397,390.457,684.102L390.457,684.102z M385.725,692.167l-1.202,2.014l1.709-0.023
	C386.089,693.479,385.92,692.813,385.725,692.167L385.725,692.167z M389.93,694.104l7.347-0.106l0.022-0.074
	C394.212,692.021,392.17,692.519,389.93,694.104L389.93,694.104z M397.383,693.629l0.251-0.881c0.128-1.975-0.067-4.283-0.506-6.76
	c-2.181,1.217-4.457,3.227-6.605,6.325C392.815,691.594,394.788,690.985,397.383,693.629L397.383,693.629z M397.213,674.814
	c0.64-0.521,1.323-1.04,2.06-1.563c-0.665,0.294-1.425,0.695-2.229,1.207c-0.926-1.93-1.927-3.831-2.972-5.639
	c3.53-2.611,6.642-2.41,9.267-0.235c-2.075,1.522-3.896,4.274-5.13,8.42C397.89,676.273,397.556,675.541,397.213,674.814
	L397.213,674.814z M487.167,663.532c-0.928,3.642-1.486,7.144-1.825,11.008c1.911,0.772,3.786,2.386,5.523,4.533
	c1.354-2.476,2.673-4.423,4.2-6.092C493.335,668.919,490.898,665.623,487.167,663.532L487.167,663.532z M485.143,677.302
	c-0.248,4.195-0.295,8.905-0.295,14.694c1.782-4.08,3.233-7.38,4.575-10.117C488.199,679.644,486.766,678.04,485.143,677.302
	L485.143,677.302z M496.692,677.66c-0.979,1.673-1.893,3.582-2.821,5.87c1.472,2.567,2.768,5.458,3.809,8.408l0.162,0.05
	c0.158-1.796,0.463-3.452,0.882-4.961C498.147,683.728,497.519,680.572,496.692,677.66L496.692,677.66z M492.012,688.543
	c-0.162,0.473-0.326,0.954-0.49,1.449l0.94,0.299C492.319,689.695,492.168,689.11,492.012,688.543L492.012,688.543z
	 M504.739,694.167l2.627,0.829l0.583-11.879C506.557,686.082,505.476,689.903,504.739,694.167L504.739,694.167z M509.404,680.512
	l5.469,11.484c2.324-4.285,4.389-8.033,6.429-11.456c-3.854-4.245-7.184-4.557-9.885-2.319c1.975,1.446,3.669,4.261,4.652,8.651
	c-1.816-4.43-3.789-6.749-5.708-7.612C510.031,679.637,509.714,680.058,509.404,680.512L509.404,680.512z M501.915,687.925
	c-0.104-0.925-0.231-1.835-0.377-2.731c1.311-2.871,3.313-5.352,5.586-6.106C505.177,681.499,503.394,684.587,501.915,687.925
	L501.915,687.925z M398.401,677.446c0.757,1.761,1.437,3.52,2.008,5.231c1.116-4.271,2.016-8.144,2.71-11.893
	C401.525,672.035,399.926,674.174,398.401,677.446L398.401,677.446z M408.848,669.739l0.009,0.246
	c0.362,0.464,0.513,6.551,0.865,7.048c0.069-0.344,0.345-6.303,0.411-6.642C409.714,670.127,409.285,669.908,408.848,669.739
	L408.848,669.739z M419.885,690.73c-0.025,1.727-0.054,3.478-0.088,5.266c0.543-1.682,1.096-3.388,1.663-5.107L419.885,690.73
	L419.885,690.73z M447.685,673.728c-0.112-0.153-0.228-0.301-0.34-0.448l0.275,0.462L447.685,673.728L447.685,673.728z
	 M212.041,674.906c-0.679,3.486-1.091,7.909-1.581,14.088c4.691-5.945,8.477-11.446,11.77-16.979
	C219.331,670.353,215.91,670.993,212.041,674.906L212.041,674.906z M229.188,674.1l-0.048,0.413c1.451,1.887,2.82,4.071,4.069,6.437
	l1.119-1.788C232.929,676.842,231.151,674.951,229.188,674.1L229.188,674.1z M228.677,681.268c-0.055,2.191-0.017,4.429,0.131,6.726
	l1.342-2.148C229.709,684.217,229.217,682.686,228.677,681.268L228.677,681.268z M239.233,681.885
	c0.354,1.969,1.01,3.255,2.218,4.459c2.959-7.188,7.087-13.667,11.538-16.745c1.148-5.417,2.515-10.771,4.09-16.452
	C245.195,656.92,241.715,668.313,239.233,681.885L239.233,681.885z M246.105,689.732c1.03,0.656,2.207,1.392,3.554,2.264
	c0.542-6.196,1.319-11.829,2.319-17.278C249.409,678.023,247.424,683.375,246.105,689.732L246.105,689.732z M256.292,671.424
	c0.014,7.294,0.877,14.592,2.54,24.572l2.676-0.641l-0.05-0.715c-1.58-9.139-2.827-15.851-1.788-23.275
	C258.483,671.062,257.356,671.092,256.292,671.424L256.292,671.424z M260.738,671.729c-0.497,7.72,0.688,14.755,2.667,23.173
	l0.406-0.099c0.28-6.027,0.361-13.176,1.344-19.877C263.609,673.361,262.137,672.315,260.738,671.729L260.738,671.729z
	 M135.554,665.47c0.65,1.854,1.248,3.732,1.789,5.68c0.985-1.814,2.131-3.158,3.365-4.063
	C139.157,665.797,137.433,665.202,135.554,665.47L135.554,665.47z M137.693,672.456c0.766,2.949,1.396,6.079,1.875,9.529
	c2.405-3.751,4.127-6.485,5.356-8.969c-0.877-1.854-1.852-3.429-2.923-4.659C140.57,669.001,139.113,670.307,137.693,672.456
	L137.693,672.456z M146.569,668.926c0.049-0.158,0.093-0.316,0.14-0.477c-0.248-0.119-0.498-0.219-0.751-0.305
	C146.165,668.398,146.367,668.658,146.569,668.926L146.569,668.926z M150.809,672.157c0.111,1.352,0.198,2.723,0.267,4.133
	c0.436,0.869,0.854,1.758,1.256,2.663c0.125-1.131,0.28-2.245,0.46-3.342C152.228,674.379,151.559,673.203,150.809,672.157
	L150.809,672.157z M156.584,675.885c6.271-9.007,12.704-16.537,20.516-24.924c-3.245,5.39-5.777,9.42-7.742,13.588
	c2.131-1.715,4.35-2.675,6.563-2.576c0.358-1.258,0.744-2.591,1.18-4.006c-0.137,1.371-0.282,2.729-0.433,4.08
	c1.867,0.287,3.723,1.351,5.509,3.379c0.201-6.332-0.462-12.771-1.669-19.209C163.686,647.7,159.447,660.338,156.584,675.885
	L156.584,675.885z M165.504,676.345c-0.349,1.723-0.652,3.589-0.915,5.641c6.575-4.929,8.334-9.562,10.352-16.562
	C170.976,665.699,167.778,669.957,165.504,676.345L165.504,676.345z M176.289,665.479c-0.943,8.52-1.767,16.779-0.857,25.517
	c3.947-7.107,5.938-14.599,6.561-22.282C179.961,666.774,178.056,665.74,176.289,665.479L176.289,665.479z M315.786,683.968
	c-0.043,1.969-0.123,3.978-0.242,6.024c2.711-4.88,4.963-8.939,7.057-12.423C320.552,678.211,318.271,680.218,315.786,683.968
	L315.786,683.968z M329.563,681.513c-0.741,2.953-1.488,6.382-2.341,10.483l5.876,0.28
	C332.306,687.963,331.112,684.188,329.563,681.513L329.563,681.513z M343.569,692.778l4.502,0.216
	c1.118-5.367,1.951-10.319,2.564-15.146C347.281,679.565,344.855,685.439,343.569,692.778L343.569,692.778z M350.958,675.152
	c0.41-3.672,0.698-7.304,0.896-11.025c-9.006,2.938-11.39,11.881-13.229,22.37c0.402,1.441,0.684,3.034,0.818,4.767
	C342,683.854,346.371,676.776,350.958,675.152L350.958,675.152z M354.939,677.876c0.051,3.576-0.007,7.246-0.196,11.118
	c1.208-3.191,2.34-6.029,3.45-8.603C357.056,679.188,355.969,678.362,354.939,677.876L354.939,677.876z M335.758,687.304
	c0.092-0.828,0.203-1.648,0.337-2.455c-1.181-2.584-2.981-4.818-5.026-5.496C332.821,681.526,334.425,684.302,335.758,687.304
	L335.758,687.304z M437.75,666.929c-2.652,6.638-3.778,14.502-3.778,23.063c3.796-7.271,5.805-12.294,10.358-14.905
	C442.397,671.56,440.2,668.601,437.75,666.929L437.75,666.929z M445.424,677.188c-3.905,3.337-4.985,7.941-7.28,14.808h12.975
	C449.669,687.383,447.766,681.94,445.424,677.188L445.424,677.188z M270.529,693.191l0.813-0.197
	c2.271-5.739,4.527-11.241,6.81-16.583C274.822,680.693,272.261,687.684,270.529,693.191L270.529,693.191z"/>
</svg>
