<?xml version="1.0" encoding="utf-8"?>
<!-- Generator: Adobe Illustrator 16.0.2, SVG Export Plug-In . SVG Version: 6.00 Build 0)  -->
<!DOCTYPE svg PUBLIC "-//W3C//DTD SVG 1.1//EN" "http://www.w3.org/Graphics/SVG/1.1/DTD/svg11.dtd">
<svg version="1.1" id="lay" xmlns="http://www.w3.org/2000/svg" xmlns:xlink="http://www.w3.org/1999/xlink" x="0px" y="0px"
	 width="600px" height="550px" viewBox="0 0 600 550" enable-background="new 0 0 600 550" xml:space="preserve">
<g id="arvore">
	<g id="folhas2">
		<path fill-rule="evenodd" clip-rule="evenodd" fill="#00A551" d="M275.22,550c-41.737-8.677-87.017-24.745-119.687,0
			c43.91-33.33,82.233-24.14,111.759-17.967c-70.843-34.869-153.941-68.692-215.243-7.391c43.95-87.903,137.79-69.788,208.942-26.56
			c-32.914-30.623-64.331-61.967-99.449-90.348c-86.739-70.1-123.866,26.408-134.852,98.592
			c5.317-88.612,41.968-202.694,152.306-128.188c53.679,36.248,86.019,84.229,125.356,140.473
			c-27.403-49.517-56.536-96.186-96.084-139.3c20.899,12.982,41.413,28.935,59.346,47.368
			c-19.771-39.72-42.158-78.189-69.751-115.476c41.815,32.527,81.145,75.461,105.323,124.574
			c-8.594-50.795-13.063-101.485-17.316-154.932c16.276,68.765,27.706,135.314,35.655,204.574c1.465,5.944,2.686,11.956,3.64,18.017
			c-1.878-70.989,0.897-133.953,10.712-206.392c7.928,82.433,5.543,140.776-7.747,222.564
			c22.107-64.568,37.438-119.794,76.77-175.374c-12.063,39.155-22.822,74.25-36.373,108.479
			c30.325-36.444,78.734-68.054,161.917-76.233c-55.526,5.514-98.946,42.146-135.556,86.881
			c38.666-28.615,94.059-48.086,178.422-34.714C482.615,414.358,402.354,489.847,335.623,550H275.22L275.22,550z"/>
		<path fill-rule="evenodd" clip-rule="evenodd" fill="#00A551" d="M307.156,287.887c-20.389-43.158-27.876-82.096-29.708-124.139
			c-1.444-33.069-0.864-60.226-7.782-92.789c15.873,26.87,25.094,52.903,29.847,79.569c8.761-42.999,23.065-85.087,31.438-113.377
			c2.331,52.85-2.535,104.624-9.223,156.394c4.46-20.483,12.059-40.469,23.624-60.548c9.854-17.116,20.5-33.135,32.381-50.08
			c-0.43,23.401-6.069,42.434-14.781,60.752c-17.17,36.115-31.135,62.979-40.455,98.078c17.499-49.996,39.558-93.631,69.019-142.615
			c-13.068,70.909-42.872,128.302-77.87,190.166c-2.775-3.223-5.231-6.689-7.416-10.355L307.156,287.887L307.156,287.887z
			 M317.061,228.044c-2.582,18.494-5.242,37.018-7.738,55.619c2.449-8.71,4.993-17.168,7.648-25.434
			C316.477,247.947,316.48,237.907,317.061,228.044L317.061,228.044z"/>
		<path fill-rule="evenodd" clip-rule="evenodd" fill="#00A551" d="M291.563,358.456c-1.912-47.255-12.869-88.354-41.087-128.049
			c-11.383-16.004-23.414-30.839-36.738-46.466c2.879,23.227,10.364,41.572,20.758,58.891
			C259.214,284.018,277.97,312.3,291.563,358.456L291.563,358.456z"/>
		<path fill-rule="evenodd" clip-rule="evenodd" fill="#00A551" d="M293.669,357.043l-20.483-32.357
			c-18.816-22.653-40.816-42.814-58.91-65.56c-14.717-18.505-25.352-39.542-31.507-64.559c3.62,33.288,7.126,55.913,19.164,79.702
			C221.251,312.452,260.084,332.194,293.669,357.043L293.669,357.043z"/>
		<path fill-rule="evenodd" clip-rule="evenodd" fill="#00A551" d="M287.322,350.013c-0.013-4.394-0.05-8.615-0.129-12.703
			c0.81,3.742,1.74,7.734,2.636,12.188l2.478,6.685l4.026-9.161c-4.817-15.157-7.777-29.107-8.186-45.214
			c-0.976,2.709-1.706,5.253-2.234,7.681c-1.885-23.928-5.945-45.149-13.729-72.819c-5.328-18.953-9.587-38.142-11.972-58.455
			c-1.944,22.39-1.83,40.428,0.698,58.442C266.196,274.244,278.931,312.807,287.322,350.013L287.322,350.013z"/>
		<path fill-rule="evenodd" clip-rule="evenodd" fill="#00A551" d="M283.781,341.569c-6.413-17.58-13.503-34.74-20.528-52.08
			l-28.95-34.454l-34.596-43.599l42.434,86.546l38.128,48.522L283.781,341.569L283.781,341.569z"/>
	</g>
	<g id="tronco">
		<path id="troncol" fill-rule="evenodd" clip-rule="evenodd" fill="#BD9B90" d="M292.536,550
			c13.306-39.084,21.491-64.638,18.111-107.735c-1.725-22.006-4.312-43.592-6.825-66.038c-3.171-4.452-6.359-7.92-10.169-12.616
			c-2.077-2.557-3.495-5.62-4.619-9.516l6.692-6.338c0.542-3.8-0.498-5.98,2.621-2.758c0.795,0.822,1.616,1.583,2.471,2.312
			c-1.547-18.294-2.045-36.846-0.816-56.532l4.229-30.995l21.128-7.045l9.861,22.544h7.047v26.767
			c-2.798,19.019-3.539,33.267-2.4,46.506c2.594,30.188,8.529,58.112,13.177,87.116c6.739,42.077,3.248,74.519-2.918,114.329
			H292.536L292.536,550z"/>
		<path id="troncod" fill-rule="evenodd" clip-rule="evenodd" fill="#927368" d="M292.536,550
			c13.306-39.084,21.491-64.638,18.111-107.735c-1.725-22.006-4.312-43.592-6.825-66.038c-3.171-4.452-6.359-7.92-10.169-12.616
			c-2.077-2.557-3.495-5.62-4.619-9.516l6.22-5.887l0.473,1.661c21.588,29.201,26.254,57.145,27.285,90.447
			c7.064,2.365,9.845,3.186,17.789,1.115c-7.187,4.573-10.071,4.906-17.639,4.928c0.15,8.04,0.146,16.403,0.155,25.174
			c0.034,29.856-3.432,53.489-10.586,78.467H292.536L292.536,550z M349.609,489.322c-8.873,5.646-20.341,10.729-19.723-2.816
			C331.46,494.493,347.35,491.101,349.609,489.322L349.609,489.322z M316.362,387.022c5.58,2.161,5.593,2.159,10.85-0.707
			C323.28,387.282,320.43,387.218,316.362,387.022L316.362,387.022z M335.87,412.554c5.988,0,6.001-0.011,9.861-4.578
			C342.417,410.296,339.731,411.268,335.87,412.554L335.87,412.554z M300.646,347.166l0.172,0.145
			c-1.547-18.294-2.045-36.846-0.816-56.532l4.229-30.995l21.128-7.045l9.861,22.544h7.047v9.219
			c-8.422-2.293-11.037-6.791-19.072-15.63c-3.04,14.188-3.465,8.2-11.269-1.407c-10.424,19.83-8.941,53.642-8.98,83.284
			L300.646,347.166L300.646,347.166z"/>
	</g>
	<g id="folhas1">
		<path fill-rule="evenodd" clip-rule="evenodd" fill="#00A551" d="M346.435,388.605c1.821-47.259,12.692-88.378,40.837-128.129
			c11.344-16.027,23.35-30.884,36.642-46.541c-2.836,23.233-10.28,41.594-20.64,58.932
			C378.64,314.104,359.939,342.423,346.435,388.605L346.435,388.605z"/>
		<path fill-rule="evenodd" clip-rule="evenodd" fill="#00A551" d="M344.324,387.196l20.428-32.398
			c18.76-22.689,40.728-42.894,58.774-65.678c14.681-18.53,25.272-39.59,31.378-64.619c-3.556,33.293-7.015,55.927-19.009,79.742
			C416.658,342.464,377.866,362.283,344.324,387.196L344.324,387.196z"/>
		<path fill-rule="evenodd" clip-rule="evenodd" fill="#00A551" d="M350.662,380.155c0-4.394,0.032-8.617,0.104-12.705
			c-0.808,3.744-1.726,7.74-2.612,12.194l-2.465,6.688l-4.045-9.152c4.786-15.165,7.719-29.122,8.095-45.229
			c0.984,2.707,1.719,5.249,2.245,7.674c1.842-23.929,5.859-45.16,13.589-72.843c5.29-18.966,9.514-38.164,11.855-58.48
			c1.991,22.387,1.912,40.426-0.587,58.442C371.631,304.344,358.977,342.934,350.662,380.155L350.662,380.155z"/>
		<path fill-rule="evenodd" clip-rule="evenodd" fill="#00A551" d="M354.186,371.704c6.377-17.59,13.433-34.765,20.428-52.121
			l28.875-34.513l34.508-43.667l-42.255,86.631l-38.032,48.598L354.186,371.704L354.186,371.704z"/>
		<path fill-rule="evenodd" clip-rule="evenodd" fill="#47B549" d="M296.883,550c-15.533-45.026-67.774-86.244-99.757-100.821
			c54.396,18.573,77.664,39.66,105.647,87.334c-18.251-47.554-28.338-71.362-63.39-107.76
			c26.098,16.095,43.839,32.826,56.627,51.737c-20.351-50.785-52.319-93.64-105.942-124.283
			c83.985,22.906,118.903,86.686,140.237,158.884c21.409-71.034,56.504-133.459,139.391-156.065
			c-64.597,36.913-97.775,91.554-117.062,156.422c43.316-54.47,97.44-78.466,176.138-60.548
			c-81.119-1.411-126.187,25.513-164.88,95.101H296.883L296.883,550z"/>
		<path fill-rule="evenodd" clip-rule="evenodd" fill="#008746" d="M304.89,270.282l-12.682-45.078
			c-5.988-29.954-8.529-56.772-9.861-87.334c5.871,25.647,11.185,51.023,15.963,76.639c-1.319-18.017-1.938-35.77-0.467-54.454
			c4.028,17.716,6.531,34.812,7.814,51.919c1.327-23.196,4.356-45.087,9.797-70.582c-1.762,42.846-5.516,84.807-9.861,127.481
			L304.89,270.282L304.89,270.282z"/>
		<path fill-rule="evenodd" clip-rule="evenodd" fill="#008746" d="M292.938,357.417l-31.883-34.296
			c-19.022-23.899-33.542-46.591-48.697-73.167c16.949,20.129,33.271,40.271,49.229,60.865
			c-9.41-15.417-18.072-30.925-25.309-48.216c11.684,13.914,21.726,27.973,30.685,42.604c-9.419-21.237-16.736-42.092-23.552-67.252
			c18.021,38.908,33.864,77.945,49.505,117.887L292.938,357.417L292.938,357.417z"/>
		<path fill-rule="evenodd" clip-rule="evenodd" fill="#008746" d="M348.041,383.449l18.498-43.016
			c14.185-27.054,29.086-49.5,47.271-74.096c-11.567,23.633-23.401,46.7-35.798,69.616c10.309-14.833,20.99-29.025,33.892-42.623
			c-8.014,16.305-16.822,31.172-26.587,45.276c15.624-17.198,31.75-32.311,52.014-48.708
			c-28.316,32.199-57.632,62.458-87.854,92.898L348.041,383.449L348.041,383.449z"/>
	</g>
</g>
<path id="grass" fill-rule="evenodd" clip-rule="evenodd" fill="#669944" stroke="#000000" stroke-width="0.1833" stroke-miterlimit="10" d="
	M569.984,550h-462.55h-8.082H30.016c0.644-9.898,12.353-15.551,36.136-22.339c-11.917,4.648-18.891,6.409-22.9,10.851
	c4.498,0.492,7.784,1.538,8.895,2.634c1.17-0.31,2.394-0.584,3.665-0.828c-1.601-1.114-3.836-2.185-6.837-3.339
	c2.28,0.584,5.375,1.694,7.972,3.134c2.206-0.386,4.536-0.682,6.955-0.921c-2.005,0.532-3.901,1.096-5.643,1.704
	c2.016,1.31,3.509,2.831,3.684,4.445c1.797-2.033,3.679-3.708,6.562-5.205c-0.95-1.982-2.003-3.962-3.104-5.988
	c1.983,1.785,3.604,3.428,5.016,5.087c1.73-0.744,3.782-1.449,6.284-2.141c-2.142,0.851-4.08,1.75-5.812,2.703
	c0.685,0.835,1.324,1.678,1.933,2.549c1.408-0.265,2.895-0.438,4.478-0.499c0.478-0.017,0.934-0.022,1.366-0.019
	c4.125-4.231,9.447-7.818,15.26-12.004c-6.353,5.445-9.341,8.006-10.219,12.89c0.938,0.517,0.896,1.144-0.204,1.552
	c-0.058,0.664-0.087,1.371-0.087,2.132l9.13-3.331c-0.202-0.125-0.407-0.252-0.615-0.378c0.261,0.105,0.521,0.212,0.778,0.319
	l9.475-3.456l-1.495,0.718c0.566,1.157,1.238,2.328,1.713,3.52c0.32-0.149,0.651-0.309,1.001-0.477
	c0.542-1.727,0.607-3.397,0.237-5.175c-2.233,0.616-4.655,1.736-7.248,3.467c2.092-2.443,4.461-3.929,6.932-4.682
	c-0.497-1.618-1.329-3.347-2.467-5.298c1.883,1.725,3.589,3.251,5.059,4.771c2.861-0.311,5.775,0.222,8.482,1.271
	c1.034-0.073,2.092-0.035,3.13,0.104c0.48-1.097,0.592-2.409,0.592-4.344c1.015,1.825,1.733,3.409,2.214,4.99
	c1.047,0.349,2.029,0.81,2.893,1.37c3.068-5.191,10.854-9.059,24.225-9.164c-1.554-3.309-4.105-6.615-6.814-9.806
	c9.536,8.321,12.81,13.568,16.515,23.058c0-12.039,3.768-13.988,18.765-23.779c-10.184,9.166-11.896,11.646-10.507,21.979
	c8.002-4.482,12.962-5.994,24.019-8.647c-7.177,2.679-10.544,3.892-12.387,5.804c3.053-1.117,6.289-1.062,9.367-0.272
	c5.034-3.558,8.85-7.243,13.528-12.017c-3.143,4.527-6.815,8.524-8.38,12.851c2.063,0.226,4.071,0.854,5.713,1.826l0.923-0.59
	c2.877-4.05,8.827-7.16,18.302-8.069c0.465-0.67,0.951-1.354,1.457-2.054c-0.304,0.7-0.577,1.363-0.819,1.997
	c1.665-0.14,3.434-0.214,5.313-0.214c-1.97,0.057-3.751,0.179-5.37,0.36c-0.765,2.027-1.215,3.755-1.359,5.423
	c1.179-0.127,2.369-0.13,3.546,0.01c0.435-0.765,1.047-1.561,1.872-2.415c-0.531,0.879-0.915,1.711-1.168,2.515
	c1.396,0.235,2.774,0.683,4.104,1.378c1.442-2.993,4.426-5.596,11.003-6.646c-6.563,1.433-8.931,4.267-9.777,7.368
	c1.173,0.774,2.299,1.762,3.354,2.993c-1.227-0.819-2.417-1.501-3.565-2.057c-0.381,2.097-0.204,4.264-0.261,6.159
	c2.042-2.17,6.932-7.128,12.768-8.343c6.805-6.17,14.04-11.816,23.143-17.896c-8.484,7.288-12.92,11.743-15.713,18.703
	c1.055,0.485,2.114,1.149,3.168,2.026c-1.162-0.683-2.284-1.185-3.362-1.532c-0.5,1.307-0.948,2.703-1.358,4.223l3.529,0.375
	c2.766-2.292,5.069-3.926,9.302-5.846c-3.516,2.053-5.288,3.654-7.424,6.047l0.188,0.021c2.174-1.309,4.11-2.126,7.705-2.964
	c-2.781,1.086-4.185,2.044-5.327,3.218l5.539,0.59c0.754-6.273-0.441-12.477-2.251-18.736c3.76,6.44,6.923,12.904,8.256,19.457
	c2.452-6.082,3.441-11.639,2.252-17.654c2.573,4.589,4.183,9.119,3.989,14.354c2.312-2.169,4.984-2.969,7.642-2.883
	c5.615-3.521,10.605-5.304,22.897-7.869c-10.796,3.703-14.322,5.038-17.177,8.842c1.957,0.053,3.927,0.611,5.422,1.583
	c1.92-3.249,6.348-5.791,13.677-6.528c0.246-1.905,0.331-3.879,0.331-6.058c0.693,2.082,1.287,4.01,1.716,5.903
	c0.808-0.042,1.647-0.064,2.518-0.064c-0.886,0.025-1.718,0.069-2.504,0.13c0.314,1.401,0.537,2.785,0.644,4.2
	c1.229,0.202,2.436,0.625,3.587,1.316c4.732-4.242,9.242-6.501,18.808-10.404c-11.115,5.335-12.315,6.606-15.012,14.052l4.503,1.08
	c1.087-1.045,2.276-2.034,3.544-2.979c-2.773-0.524-1.463-1.948,2.573-1.791c1.28-0.835,2.621-1.64,4.004-2.418
	c-0.444-0.262-0.91-0.52-1.396-0.775c0.581,0.216,1.123,0.434,1.625,0.648c1.032-0.576,2.087-1.14,3.16-1.693
	c-0.501,0.729-1.226,1.464-2.004,2.221c3.056,1.482,4.488,2.987,5.611,4.88l0.51-0.158c1.014-1.494,3.586-2.729,6.157-3.584
	c-0.632-0.718-1.338-1.43-2.092-2.109c-1.65,0.65-3.393,1.566-5.217,2.785c1.336-1.563,2.788-2.732,4.307-3.57
	c-4.951-4.088-11.298-6.473-11.585-0.754c-0.772-6.12,6.577-3.936,12.916,0.11c3.306-1.386,6.854-1.34,10.203-0.435
	c1.039-3.162,1.015-6.355-0.04-10.914c2.318,4.268,3.809,7.638,4.311,11.625c0.564,0.039,1.126,0.107,1.68,0.207
	c3.127-7.164,1.223-11.836-2.238-19.398c6.413,6.199,9.167,11.681,10.16,17.97c4.142-3.491,11.307-5.825,21.914-5.825
	c-14.52,0.409-18.885,4.413-21.524,9.531c0.078,1.305,0.1,2.651,0.083,4.05c0.013,0.053,0.022,0.104,0.034,0.159
	c2.305-2.676,5.821-5.261,9.757-6.752c0.207-0.162,0.413-0.323,0.624-0.483c-2.333,0.266-4.854,1.087-7.549,2.668
	c3.128-2.598,6.284-3.745,9.325-3.935c3.493-2.345,7.735-4.336,13.121-5.643c-1.552-0.73-3.427-1.357-5.696-1.854
	c2.507,0.402,4.604,0.98,6.363,1.696c2.399-0.547,5.016-0.962,7.894-1.212c9.132-0.796,15.854,0.217,17.794,6.562
	c-4.188-4.523-9.57-5.471-15.766-4.841c-2.541,0.26-4.834,0.609-6.904,1.045c5.19,3.373,6.021,8.397,6.471,12.823
	c0.605,0.405,1.163,0.829,1.663,1.271c0.204-0.378,0.396-0.751,0.576-1.119l-0.476-6.132c0.524,1.085,1.152,2.182,1.628,3.295
	c0.981-3.173,0.76-6.221-1.448-9.872c2.016,2.086,3.037,3.909,3.391,5.682c1.188,1.072,2.291,2.192,3.278,3.386
	c0.411-0.403,0.769-0.687,1.032-0.764c-0.31,0.318-0.605,0.635-0.881,0.947c0.753,0.931,1.435,1.904,2.026,2.935
	c0.648-0.167,1.322-0.313,2.012-0.437c0.818-0.818,1.68-1.476,2.571-1.991c1.896-2.129,3.759-4.037,6.131-5.883
	c-1.319-0.148-2.774-0.247-4.381-0.293c1.601,0,3.105,0.065,4.516,0.189c2.299-1.771,5.08-3.486,8.827-5.285
	c-2.497,2.275-4.165,4.063-5.281,5.751c3.521,0.633,6.31,1.694,8.415,3.047c1.132-0.404,2.414-0.771,3.931-1.137
	c-4.69-1.567-0.166-4.686,10.418-3.56c5.726,0.609,10.396,2.093,14.415,4.088c0.907-0.46,1.861-0.914,2.874-1.368
	c-3.263-3.734-7.973-7.157-14.074-10.362c8.287,3.099,12.945,6.058,16.127,9.48c1.572-0.647,3.29-1.3,5.209-1.977
	c-1.399,0.733-3.07,1.561-4.777,2.453c1.369,1.556,2.463,3.21,3.474,5.018c1.549-3.855,7.713-7.063,14.084-9.279
	c-1.412-1.916-3.353-3.902-6.025-6.118c3.625,2.128,6.294,3.827,8.286,5.375c3.124-0.972,6.172-1.693,8.622-2.125
	c-3.066,0.875-5.721,1.734-8.013,2.611c2.491,2.044,3.804,3.867,4.612,6.14c3.308-0.528,6.512-0.74,9.443-0.72
	c5.523-4.354,12.476-6.104,28.091-10.562c-11.917,4.648-18.891,6.409-22.899,10.851c4.497,0.492,7.784,1.538,8.896,2.634
	c1.167-0.31,2.394-0.584,3.661-0.828c-1.6-1.114-3.833-2.185-6.835-3.339c2.28,0.584,5.375,1.694,7.972,3.134
	c2.205-0.386,4.537-0.682,6.955-0.921c-2.005,0.532-3.9,1.096-5.644,1.704c2.017,1.31,3.511,2.831,3.686,4.445
	c1.796-2.033,3.678-3.708,6.562-5.205c-0.95-1.982-2.001-3.962-3.103-5.988c1.982,1.785,3.603,3.428,5.015,5.087
	c1.73-0.744,3.781-1.449,6.284-2.141c-2.142,0.851-4.081,1.75-5.812,2.703c0.686,0.835,1.324,1.678,1.932,2.549
	c1.408-0.265,2.898-0.438,4.479-0.499c0.478-0.017,0.933-0.022,1.366-0.019c4.122-4.231,9.446-7.818,15.259-12.004
	c-6.354,5.445-9.339,8.006-10.219,12.89c0.937,0.517,0.897,1.144-0.204,1.552c-0.057,0.664-0.085,1.371-0.085,2.132l18.765-6.846
	l-13.51,6.486c10.24,0,10.7-0.813,18.015-4.325C566.983,545.763,565.4,546.479,569.984,550L569.984,550z M96.283,545.693
	c-0.835-0.676-1.755-1.34-2.746-1.992l-4.867,2.337C92.094,546.038,94.424,545.946,96.283,545.693L96.283,545.693z M93.91,543.522
	c1.379,0.606,2.676,1.239,3.839,1.92c1.147-0.244,2.148-0.574,3.216-1.017l-0.322-4.137L93.91,543.522L93.91,543.522z
	 M57.07,541.326c-1.652,0.624-3.146,1.296-4.433,2.025c2.328,0.852,4.57,2.043,6.496,3.667
	C59.365,544.719,58.8,542.941,57.07,541.326L57.07,541.326z M51.354,544.146c-1.465,0.996-2.569,2.099-3.217,3.331h0.195
	c3.695-1.133,6.11-0.656,8.92-0.095C55.437,545.979,53.415,544.924,51.354,544.146L51.354,544.146z M49.392,547.478h5.28
	C53.172,547.224,51.504,547.195,49.392,547.478L49.392,547.478z M63.622,547.478h7.785c-0.348-1.168-0.751-2.317-1.199-3.453
	C67.531,544.889,65.263,546.072,63.622,547.478L63.622,547.478z M69.822,543.074c-0.292-0.703-0.6-1.401-0.924-2.1
	c-2.333,1.488-4.209,3.107-5.617,4.879C65.298,544.755,67.447,543.786,69.822,543.074L69.822,543.074z M73.396,543.189
	c0.604,0.907,1.185,1.85,1.762,2.849c0.848-1.222,1.789-2.374,2.813-3.479C76.384,542.676,74.85,542.889,73.396,543.189
	L73.396,543.189z M47.053,542.907c-2.245-0.463-4.392-0.641-6.218-0.626c-0.361,0.814-0.679,1.701-0.955,2.676l-0.507,3.322
	l2.759-2.241C43.48,544.794,45.14,543.765,47.053,542.907L47.053,542.907z M41.186,541.542c2.244-0.055,4.856,0.133,7.51,0.692
	c0.563-0.21,1.144-0.409,1.741-0.596C47.906,539.406,42.575,538.802,41.186,541.542L41.186,541.542z M492.55,546.14
	c0.37-0.14,0.748-0.274,1.131-0.406c-0.331,0.444-0.667,0.905-1.01,1.385L492.55,546.14L492.55,546.14z M494.17,545.081
	c-0.583,0.081-1.158,0.173-1.718,0.278c-0.237-1.867-0.471-3.435-0.813-4.82c2.554-0.492,5.026-0.781,7.329-0.909
	C497.372,541.114,495.838,542.883,494.17,545.081L494.17,545.081z M487.412,546.898c-0.346,0.168-0.679,0.351-0.997,0.546
	c-0.053-0.235-0.067-0.475-0.049-0.72c0.342,0.046,0.691,0.097,1.046,0.155V546.898L487.412,546.898z M486.499,546.02
	c0.163-0.543,0.455-1.105,0.847-1.681c0.03,0.606,0.048,1.232,0.058,1.878C487.099,546.143,486.797,546.078,486.499,546.02
	L486.499,546.02z M487.318,543.819c-0.555,0.65-1.132,1.382-1.66,2.056c-0.618-0.093-1.225-0.155-1.824-0.191
	c-0.136-0.911-0.475-1.808-0.885-2.694c1.387-0.526,2.778-0.983,4.159-1.376C487.205,542.327,487.271,543.061,487.318,543.819
	L487.318,543.819z M485.103,546.584c-0.475,0.606-0.876,1.109-1.134,1.378l-0.276-0.02l0.001-0.002
	c0.146-0.483,0.207-0.962,0.205-1.437C484.293,546.521,484.694,546.548,485.103,546.584L485.103,546.584z M482.066,541.225
	c-0.183-0.354-0.366-0.707-0.535-1.058l0.095,1.216c-1.979,0.715-3.936,1.569-5.84,2.583c-0.563-0.261-1.142-0.515-1.732-0.767
	c3.283-1.624,6.414-3.298,9.61-5.089c-3.387,1.37-6.259,2.497-9.054,3.464c1.59-3.16,4.525-5.578,9.58-7.804
	c1.359,2.012,2.149,3.968,2.607,6.054C485.221,540.211,483.638,540.675,482.066,541.225L482.066,541.225z M481.787,543.448
	l0.171,2.196c-0.902,0.016-1.799,0.078-2.707,0.166c-0.366-0.229-0.747-0.451-1.139-0.67
	C479.325,544.516,480.553,543.953,481.787,543.448L481.787,543.448z M482.022,546.489l0.106,1.347l-0.268-0.019
	c-0.435-0.427-0.922-0.834-1.456-1.228C480.935,546.54,481.474,546.506,482.022,546.489L482.022,546.489z M473.878,543.346
	c0.475,0.301,0.932,0.604,1.372,0.91c-0.634,0.352-1.265,0.72-1.886,1.107C473.497,544.658,473.667,543.987,473.878,543.346
	L473.878,543.346z M477.133,545.658c0.14,0.113,0.277,0.227,0.413,0.339c-0.429,0.052-0.864,0.106-1.304,0.161
	C476.539,545.987,476.836,545.821,477.133,545.658L477.133,545.658z M478.504,546.848c0.281,0.262,0.548,0.527,0.801,0.795
	l-3.386-0.232C476.783,547.187,477.64,546.996,478.504,546.848L478.504,546.848z M409.711,545.563
	c0.138,0.274,0.269,0.552,0.392,0.834c0.454-0.519,0.89-1.022,1.314-1.514C410.83,545.102,410.261,545.328,409.711,545.563
	L409.711,545.563z M412.178,544.005l0.135-0.157c-0.11,0.061-0.222,0.124-0.334,0.188L412.178,544.005L412.178,544.005z
	 M406.7,547.118c0.321-0.202,0.656-0.397,1.003-0.587c0.056,0.199,0.105,0.395,0.148,0.587H406.7L406.7,547.118z M407.273,545.204
	c-0.797,0.299-1.542,0.651-2.22,1.07c-0.232-1.064,0.277-2.235,1.183-3.464C406.638,543.631,406.988,544.43,407.273,545.204
	L407.273,545.204z M406.084,542.5c-1.872,2.172-4.089,5.404-3.751,4.271c0.17-0.568,0.226-1.131,0.198-1.688
	c0.972-2.396,1.59-4.473,1.276-6.599C404.658,539.859,405.432,541.205,406.084,542.5L406.084,542.5z M395.626,543.376
	c-1.292-0.649-2.697-1.261-4.16-1.853c1.537,0.928,2.937,1.877,4.166,2.853c-0.004,0.942-0.02,1.863,0.001,2.742h-0.231
	c-1.442-1.521-3.82-3.915-6.809-6.059l0.187-0.039c0.595,0.342,1.196,0.715,1.809,1.124c-0.385-0.447-0.778-0.863-1.179-1.247
	c1.191-0.227,2.571-0.433,4.182-0.625c-1.782,0.009-3.32,0.067-4.667,0.175c-2.625-2.321-5.577-3.388-8.561-3.57
	c2.436-1.883,5.897-3.427,10.607-4.512C395.047,535.414,395.574,539.521,395.626,543.376L395.626,543.376z M519.62,541.326
	c-1.654,0.624-3.146,1.296-4.435,2.025c2.331,0.852,4.57,2.043,6.497,3.667C521.914,544.719,521.349,542.941,519.62,541.326
	L519.62,541.326z M513.904,544.146c-1.466,0.996-2.569,2.099-3.219,3.331h0.196c3.697-1.133,6.112-0.656,8.919-0.095
	C517.985,545.979,515.963,544.924,513.904,544.146L513.904,544.146z M511.941,547.478h5.28
	C515.722,547.224,514.053,547.195,511.941,547.478L511.941,547.478z M526.17,547.478h7.785c-0.349-1.168-0.75-2.317-1.197-3.453
	C530.082,544.889,527.813,546.072,526.17,547.478L526.17,547.478z M532.373,543.074c-0.294-0.703-0.603-1.401-0.926-2.1
	c-2.333,1.488-4.208,3.107-5.617,4.879C527.847,544.755,529.996,543.786,532.373,543.074L532.373,543.074z M535.946,543.189
	c0.604,0.907,1.185,1.85,1.762,2.849c0.848-1.222,1.79-2.374,2.812-3.479C538.933,542.676,537.399,542.889,535.946,543.189
	L535.946,543.189z M509.604,542.907c-2.246-0.463-4.395-0.641-6.22-0.626c-0.36,0.814-0.677,1.701-0.954,2.676l-0.509,3.322
	l2.76-2.241C506.029,544.794,507.69,543.765,509.604,542.907L509.604,542.907z M503.735,541.542
	c2.247-0.055,4.855,0.133,7.511,0.692c0.563-0.21,1.144-0.409,1.741-0.596c-1.034-0.912-4.008-1.721-8.103-1.994
	C504.464,540.23,504.081,540.859,503.735,541.542L503.735,541.542z M436.958,538.328c2.238-0.506,4.968-1.026,8.426-1.658
	c-2.678,0.857-4.854,1.544-6.69,2.185c0.964,0.222,2.15,0.41,3.566,0.54c-1.646-0.035-3.03-0.152-4.163-0.33
	c-1.742,0.624-3.167,1.217-4.426,1.893c0.889,0.785,1.596,1.639,2.129,2.541c1.969-1.279,4.679-1.914,7.221-1.736
	c3.832-1.48,8.165-1.704,11.911,0.728c1.236-0.81,2.475-1.568,3.785-2.3c-3.849-1.941-8.652-3.393-14.053-4.143
	C436.356,534.896,433.407,536.896,436.958,538.328L436.958,538.328z M464.18,538.363c-0.778,0.428-1.547,0.867-2.283,1.315
	c1.895,1.017,3.644,2.146,5.294,3.345C466.418,541.416,465.414,539.863,464.18,538.363L464.18,538.363z M460.026,540.893
	c-1.407,0.979-2.584,1.99-3.317,3.001c0.354,0.333,0.698,0.696,1.036,1.09c-0.421-0.281-0.835-0.542-1.244-0.784
	c-0.39,0.614-0.61,1.23-0.61,1.839c3.386-0.543,6.257-1.081,8.847-1.662C463.46,543.111,461.875,541.941,460.026,540.893
	L460.026,540.893z M466.634,546.655l-0.234,0.103l0.316,0.021L466.634,546.655L466.634,546.655z M320,544.008
	c0.572-0.422,1.16-0.834,1.761-1.239C318.833,542.57,318.098,543.461,320,544.008L320,544.008z M327.499,540.612
	c-0.7,0.679-1.424,1.377-2.052,2.104c2.75,0.548,4.882,1.604,6.719,2.876l0.23-0.071
	C331.437,543.737,329.795,542.117,327.499,540.612L327.499,540.612z M324.99,543.274c-1.127,1.464-1.767,3.055-0.999,4.851
	l6.974-2.161C329.538,544.797,327.468,543.854,324.99,543.274L324.99,543.274z M336.411,544.276l0.133-0.041l-0.215,0.145
	c-0.572,0.729-0.915,1.549-1.097,2.511c2.163-1.348,4.545-2.166,6.846-2.616c-0.449-0.823-1.061-1.685-1.786-2.539
	C338.453,542.497,337.218,543.303,336.411,544.276L336.411,544.276z M332.152,547.18l-1.082,0.726l1.538-0.009
	C332.48,547.652,332.328,547.413,332.152,547.18L332.152,547.18z M335.937,547.878l6.612-0.038l0.02-0.027
	C339.791,547.127,337.953,547.307,335.937,547.878L335.937,547.878z M342.645,547.707l0.226-0.317
	c0.115-0.711-0.061-1.542-0.456-2.434c-1.962,0.438-4.011,1.161-5.945,2.276C338.534,546.974,340.309,546.755,342.645,547.707
	L342.645,547.707z M342.492,540.934c0.576-0.188,1.191-0.375,1.854-0.563c-0.599,0.106-1.282,0.251-2.006,0.435
	c-0.833-0.694-1.734-1.379-2.675-2.029c3.177-0.94,5.978-0.868,8.34-0.085c-1.868,0.548-3.506,1.539-4.617,3.031
	C343.101,541.458,342.8,541.195,342.492,540.934L342.492,540.934z M423.45,536.871c-0.835,1.312-1.337,2.572-1.643,3.963
	c1.72,0.278,3.408,0.859,4.971,1.633c1.218-0.892,2.405-1.593,3.78-2.193C429.001,538.811,426.809,537.625,423.45,536.871
	L423.45,536.871z M421.628,541.828c-0.223,1.511-0.266,3.207-0.266,5.29c1.604-1.469,2.91-2.656,4.118-3.642
	C424.379,542.672,423.089,542.095,421.628,541.828L421.628,541.828z M432.023,541.957c-0.88,0.603-1.703,1.29-2.539,2.113
	c1.325,0.925,2.491,1.965,3.428,3.027l0.146,0.019c0.143-0.647,0.417-1.243,0.793-1.786
	C433.333,544.142,432.767,543.006,432.023,541.957L432.023,541.957z M427.811,545.875c-0.146,0.171-0.293,0.344-0.441,0.522
	l0.847,0.107C428.087,546.29,427.951,546.08,427.811,545.875L427.811,545.875z M439.265,547.9l2.364,0.299l0.525-4.277
	C440.901,544.989,439.928,546.365,439.265,547.9L439.265,547.9z M443.464,542.984l4.922,4.134c2.092-1.542,3.95-2.892,5.786-4.124
	c-3.468-1.528-6.465-1.64-8.896-0.834c1.777,0.52,3.302,1.533,4.187,3.113c-1.635-1.594-3.41-2.43-5.137-2.74
	C444.028,542.669,443.743,542.82,443.464,542.984L443.464,542.984z M436.724,545.652c-0.093-0.332-0.208-0.66-0.339-0.982
	c1.18-1.033,2.982-1.927,5.027-2.198C439.659,543.34,438.054,544.451,436.724,545.652L436.724,545.652z M343.561,541.881
	c0.681,0.634,1.293,1.267,1.807,1.883c1.005-1.537,1.814-2.932,2.439-4.281C346.373,539.933,344.933,540.703,343.561,541.881
	L343.561,541.881z M352.963,539.106l0.008,0.089c0.326,0.166,0.461,2.357,0.779,2.537c0.063-0.124,0.31-2.27,0.37-2.392
	C353.743,539.246,353.356,539.167,352.963,539.106L352.963,539.106z M362.896,546.663c-0.023,0.622-0.048,1.252-0.079,1.896
	c0.488-0.605,0.986-1.22,1.497-1.839L362.896,546.663L362.896,546.663z M387.916,540.542c-0.101-0.056-0.205-0.108-0.306-0.161
	l0.248,0.166L387.916,540.542L387.916,540.542z M175.837,540.966c-0.611,1.256-0.982,2.848-1.423,5.072
	c4.222-2.141,7.629-4.121,10.592-6.112C182.398,539.327,179.319,539.558,175.837,540.966L175.837,540.966z M191.269,540.676
	l-0.043,0.148c1.306,0.68,2.539,1.466,3.663,2.317l1.007-0.644C194.636,541.663,193.036,540.982,191.269,540.676L191.269,540.676z
	 M190.809,543.257c-0.049,0.788-0.015,1.594,0.118,2.421l1.208-0.773C191.738,544.318,191.295,543.767,190.809,543.257
	L190.809,543.257z M200.31,543.479c0.318,0.709,0.909,1.172,1.996,1.605c2.663-2.588,6.378-4.92,10.384-6.028
	c1.034-1.95,2.263-3.878,3.681-5.923C205.676,534.491,202.543,538.593,200.31,543.479L200.31,543.479z M206.495,546.304
	c0.927,0.236,1.986,0.501,3.198,0.814c0.488-2.23,1.188-4.258,2.087-6.22C209.468,542.089,207.682,544.016,206.495,546.304
	L206.495,546.304z M215.663,539.713c0.013,2.626,0.79,5.253,2.286,8.846l2.408-0.23l-0.045-0.258
	c-1.422-3.289-2.544-5.706-1.609-8.379C217.635,539.582,216.621,539.594,215.663,539.713L215.663,539.713z M219.665,539.822
	c-0.447,2.779,0.62,5.312,2.4,8.342l0.365-0.035c0.252-2.17,0.325-4.743,1.209-7.156
	C222.249,540.41,220.923,540.033,219.665,539.822L219.665,539.822z M106.999,537.569c0.585,0.667,1.123,1.344,1.61,2.044
	c0.887-0.652,1.918-1.137,3.029-1.462C110.242,537.688,108.689,537.473,106.999,537.569L106.999,537.569z M108.924,540.084
	c0.689,1.062,1.257,2.188,1.688,3.431c2.165-1.351,3.714-2.335,4.821-3.229c-0.789-0.667-1.666-1.234-2.63-1.677
	C111.513,538.84,110.202,539.311,108.924,540.084L108.924,540.084z M116.913,538.813c0.044-0.057,0.083-0.114,0.125-0.172
	c-0.223-0.043-0.448-0.079-0.676-0.109C116.548,538.623,116.73,538.717,116.913,538.813L116.913,538.813z M120.728,539.977
	c0.101,0.486,0.179,0.98,0.24,1.488c0.392,0.313,0.769,0.633,1.13,0.958c0.112-0.407,0.252-0.808,0.414-1.203
	C122.005,540.776,121.403,540.354,120.728,539.977L120.728,539.977z M125.926,541.318c5.643-3.242,11.434-5.953,18.464-8.973
	c-2.92,1.94-5.2,3.392-6.968,4.893c1.917-0.618,3.915-0.964,5.906-0.928c0.322-0.453,0.669-0.933,1.062-1.442
	c-0.123,0.493-0.254,0.982-0.389,1.469c1.68,0.104,3.35,0.486,4.958,1.217c0.181-2.28-0.416-4.598-1.502-6.916
	C132.317,531.172,128.502,535.722,125.926,541.318L125.926,541.318z M133.954,541.484c-0.314,0.62-0.587,1.292-0.824,2.03
	c5.918-1.774,7.5-3.442,9.316-5.962C138.878,537.652,136,539.185,133.954,541.484L133.954,541.484z M143.66,537.572
	c-0.849,3.067-1.59,6.041-0.771,9.186c3.552-2.559,5.344-5.255,5.904-8.021C146.965,538.039,145.25,537.667,143.66,537.572
	L143.66,537.572z M269.208,544.229c-0.039,0.709-0.111,1.432-0.218,2.169c2.439-1.757,4.466-3.218,6.351-4.473
	C273.497,542.156,271.444,542.879,269.208,544.229L269.208,544.229z M281.606,543.345c-0.667,1.063-1.34,2.297-2.107,3.773
	l5.289,0.102C284.075,545.667,283.001,544.308,281.606,543.345L281.606,543.345z M294.212,547.4l4.052,0.077
	c1.006-1.932,1.756-3.715,2.308-5.452C297.553,542.644,295.37,544.758,294.212,547.4L294.212,547.4z M300.862,541.055
	c0.369-1.321,0.628-2.629,0.807-3.969c-8.105,1.058-10.25,4.277-11.906,8.053c0.362,0.52,0.615,1.093,0.737,1.717
	C292.8,544.188,296.734,541.64,300.862,541.055L300.862,541.055z M304.445,542.035c0.046,1.288-0.006,2.609-0.176,4.003
	c1.087-1.149,2.105-2.171,3.105-3.097C306.35,542.508,305.372,542.211,304.445,542.035L304.445,542.035z M287.182,545.43
	c0.083-0.299,0.183-0.594,0.303-0.884c-1.063-0.931-2.684-1.735-4.524-1.979C284.539,543.35,285.982,544.349,287.182,545.43
	L287.182,545.43z M378.975,538.094c-2.387,2.391-3.4,5.222-3.4,8.304c3.416-2.618,5.224-4.426,9.322-5.366
	C383.158,539.762,381.18,538.696,378.975,538.094L378.975,538.094z M385.881,541.788c-3.515,1.201-4.487,2.858-6.552,5.33h11.677
	C389.702,545.458,387.989,543.499,385.881,541.788L385.881,541.788z M228.477,547.549l0.732-0.071
	c2.044-2.065,4.075-4.047,6.128-5.97C232.34,543.05,230.035,545.566,228.477,547.549L228.477,547.549z"/>
</svg>
