<?xml version="1.0" encoding="utf-8"?>
<!-- Generator: Adobe Illustrator 16.0.2, SVG Export Plug-In . SVG Version: 6.00 Build 0)  -->
<!DOCTYPE svg PUBLIC "-//W3C//DTD SVG 1.1//EN" "http://www.w3.org/Graphics/SVG/1.1/DTD/svg11.dtd">
<svg version="1.1" id="lay" xmlns="http://www.w3.org/2000/svg" xmlns:xlink="http://www.w3.org/1999/xlink" x="0px" y="0px"
	 width="600px" height="600px" viewBox="0 0 600 600" enable-background="new 0 0 600 600" xml:space="preserve">
<g id="arvore">
	<path id="f4" fill-rule="evenodd" clip-rule="evenodd" fill="#A9B540" d="M248.035,531.873
		c-16.025-62.377-35.732-122.559-50.365-183.355c-5.445-22.613-10.188-45.309-13.781-68.232l14.66,13.611l-15.363-18.203
		c-2.559-17.094-4.461-34.316-5.527-51.734c-0.195-3.193-0.379-6.377-0.561-9.547l21.563,26.957l-22.193-38.668
		c-2.777-53.381-4.018-104.35-10.762-158.855c29.875,49.914,54.543,71.938,46.422,129.57l13.984-23.078
		c10.4,76.191,30.016,152.926,5.615,223.318c-17.885,51.602,8.789,110.42,29.756,174.148L248.035,531.873L248.035,531.873z"/>
	<path id="f3" fill-rule="evenodd" clip-rule="evenodd" fill="#74A33B" d="M235.841,533.254
		c-14.832-51.717-29.922-134.428-63.594-176.643c-4.629-5.807-9.227-11.689-13.607-17.666
		c-8.252-11.264-15.736-22.869-21.236-34.943c-12.152-26.719-14.125-54.625-11.508-91.275
		c13.813,53.283,57.152,90.545,69.268,138.984c15.586,62.354,30.605,156.607,60.248,199.246h-9.32L235.841,533.254L235.841,533.254z
		"/>
	<g id="f2">
		<path fill-rule="evenodd" clip-rule="evenodd" fill="#90AB35" d="M240.501,539.777c-3.043-57.863-14.215-105.248-25.207-161.83
			c-6.195-31.895-8.07-61.947-5.541-99.066l11.182,45.656l-4.658-46.586c12.455-33.484,24.029-51.336,46.588-79.201l3.725,33.541
			l0.932-35.404c41.656-49.465,81.543-57.363,144.426-65.225l-54.043,62.43l-27.023,12.111l23.297-0.93
			c-14.707,27.188-29.453,54.145-42.861,81.994l-39.135,13.977h27.953l-8.383,19.566l-10.25,27.021L250.75,378.58l20.502-9.318
			c-30.326,38.594-29.891,46.881-24.227,96.904l7.455,64.293l4.658,61.496l-28.887-1.863L240.501,539.777L240.501,539.777z"/>
		<path fill-rule="evenodd" clip-rule="evenodd" fill="#A1B030" d="M267.091,255.533c26.725-43.244,43.561-66.018,83.34-97.229
			c-25.848,22.73-42.82,39.393-61.289,68.236l39.063-1.563l-41.664,6.596l-14.586,21.182l35.416-1.389l-36.113,4.863l-9.545,19.096
			l33.158,1.043l-35.42,2.777c-5.176,12.037-9.229,24.076-11.631,36.113l31.771-6.945l-33.504,10.592
			c-20.605,67.771-6.367,155.471,7.813,225.533l-6.25,13.197C234.167,459.791,214.904,342.494,267.091,255.533L267.091,255.533z"/>
	</g>
	<g id="f1">
		<path fill-rule="evenodd" clip-rule="evenodd" fill="#7C9647" d="M222.019,600l4.506-64.883l-9.316-39.135l-13.047-38.203
			l-10.248-15.84l-13.047,16.773c-33.314-3.174-46.654,18.479-69.877,40.996c-13.092-14.539-21.445-0.316-5.592,10.252
			c-23.584,18.344-28.975,40.734-41.002,68.018c-25.828-44.635-37.059-115.441,7.734-159.793
			c46.188-45.734,103.355-57.273,131.1,6.982l5.592,14.91L258.626,600H222.019L222.019,600z"/>
		<path fill-rule="evenodd" clip-rule="evenodd" fill="#8A9D40" d="M188.787,401.113c1.836,2.178,3.609,4.541,5.316,7.088
			c-22.41-9.184-42.172-9.195-59.281-2.553c-4.736,18.24-2.914,31.258-1.07,54.76c-5.795-20.742-5.32-32.637-2.684-53.188
			c-4.068,1.855-7.984,4.098-11.738,6.686c-4.469,16.387-2.676,28.326-0.855,49.629c-5.576-18.365-5.352-29.195-2.979-46.824
			c-3.99,3.094-7.787,6.592-11.4,10.441c-4.082,15.6-2.33,27.318-0.553,47.84c-5.279-17.15-5.357-27.639-3.34-43.465
			c-24.434,28.895-39.447,74.559-44.928,120.553C59.181,472.943,99.167,375.52,188.787,401.113L188.787,401.113z"/>
	</g>
	<g id="f5">
		<path fill-rule="evenodd" clip-rule="evenodd" fill="#84A03F" d="M244.232,547.23c24.414-78.129,40.691-195.918,104.355-247.852
			v8.387c25.586-21.746,48.871-20.73,81.996-26.088l-20.498,24.225l26.088-26.088c77.994,16.135,93.854,62.141,122.063,127.65
			l-47.52-38.203l-19.57-27.951l5.59,25.156l-28.883-0.93l-30.746-33.545l13.975,25.158
			c-44.434,19.748-80.416,26.215-122.061,53.109l-13.98-12.113v18.637c-30.906,21.148-42.871,59.137-48.27,93.441
			c8.438-13.813,15.443-20.789,26.645-27.508c7.715-4.627,14.352-7.121,20.869-8.375c29.361-5.641,46.826,4.715,59.264,22.791
			c15.785,22.939,15.027,42.625,42.859,20.223c-21.758,34.689-63.66,26.1-87.133-7.266c-7.262-10.318-14.756-21.57-21.582-27.588
			c-2.51-2.211-5.967-0.691-14.209,4.559c-8.799,5.607-11.959,12.168-15.475,23.467l7.219-4.295
			c-9.66,33.807-1.588,62.102,8.074,93.768h-49.07V547.23L244.232,547.23z"/>
		<path fill-rule="evenodd" clip-rule="evenodd" fill="#90AB35" d="M260.15,495.826C291.076,386.174,373.962,262.258,510.857,335.4
			c-36.059-18.563-68.949-23.16-98.441-17.387c11.543,14.602,22.656,28.219,32.006,42.027l-0.424,0.178
			c-11.379-13.871-23.766-27.557-37.164-40.986c-9.516,2.316-18.662,5.732-27.438,10.102c16.465,13.184,27.887,23.988,40.5,40.377
			l-0.24,0.088c-13.506-15.684-25.924-28.52-44.752-38.133c-11.863,6.443-23.021,14.66-33.451,24.322
			c14.225,7.918,25.391,16.182,38.145,26.639c-13.779-8.93-26.494-16.762-41.314-23.639c-29.408,28.467-52.84,68.504-69.799,112.533
			L260.15,495.826L260.15,495.826z"/>
	</g>
</g>
<path id="grass" fill-rule="evenodd" clip-rule="evenodd" fill="#89C540" stroke="#000000" stroke-width="0.1818" stroke-miterlimit="10" d="
	M567.841,600H108.962h-8.018H32.159c0.638-9.819,12.255-15.427,35.849-22.161c-11.822,4.611-18.741,6.358-22.718,10.766
	c4.462,0.487,7.722,1.524,8.824,2.611c1.161-0.308,2.374-0.58,3.635-0.821c-1.588-1.106-3.806-2.167-6.782-3.313
	c2.262,0.58,5.332,1.68,7.908,3.108c2.188-0.382,4.5-0.676,6.899-0.913c-1.988,0.528-3.87,1.087-5.598,1.69
	c2,1.3,3.481,2.809,3.655,4.41c1.782-2.018,3.649-3.679,6.51-5.164c-0.942-1.968-1.987-3.93-3.079-5.941
	c1.967,1.771,3.575,3.402,4.976,5.047c1.717-0.737,3.752-1.437,6.234-2.123c-2.125,0.844-4.048,1.736-5.766,2.682
	c0.679,0.828,1.313,1.664,1.917,2.527c1.396-0.262,2.872-0.434,4.442-0.493c0.475-0.018,0.926-0.023,1.354-0.019
	c4.092-4.199,9.372-7.757,15.139-11.91c-6.303,5.403-9.267,7.942-10.138,12.788c0.931,0.513,0.89,1.134-0.202,1.54
	c-0.058,0.658-0.086,1.359-0.086,2.114l9.058-3.305c-0.201-0.124-0.404-0.249-0.61-0.374c0.259,0.104,0.517,0.21,0.771,0.316
	l9.398-3.428l-1.482,0.712c0.562,1.147,1.229,2.31,1.699,3.491c0.317-0.148,0.646-0.307,0.993-0.474
	c0.537-1.713,0.603-3.37,0.234-5.133c-2.215,0.61-4.618,1.722-7.189,3.438c2.075-2.425,4.426-3.897,6.877-4.644
	c-0.494-1.606-1.319-3.321-2.448-5.256c1.869,1.711,3.562,3.225,5.02,4.731c2.839-0.308,5.729,0.222,8.414,1.262
	c1.025-0.073,2.076-0.035,3.105,0.104c0.476-1.089,0.588-2.391,0.588-4.31c1.006,1.81,1.72,3.382,2.196,4.95
	c1.039,0.346,2.014,0.803,2.87,1.359c3.044-5.15,10.769-8.986,24.032-9.092c-1.542-3.282-4.072-6.563-6.76-9.727
	c9.46,8.254,12.707,13.461,16.384,22.874c0-11.943,3.737-13.878,18.615-23.592c-10.103,9.094-11.802,11.555-10.424,21.805
	c7.938-4.446,12.859-5.946,23.828-8.578c-7.12,2.657-10.461,3.861-12.289,5.758c3.029-1.108,6.239-1.053,9.293-0.271
	c4.994-3.529,8.779-7.186,13.421-11.922c-3.118,4.491-6.761,8.457-8.313,12.749c2.047,0.224,4.038,0.847,5.667,1.813l0.917-0.586
	c2.854-4.019,8.756-7.104,18.155-8.005c0.462-0.666,0.944-1.343,1.446-2.038c-0.302,0.694-0.573,1.353-0.813,1.981
	c1.651-0.139,3.406-0.212,5.271-0.212c-1.954,0.056-3.722,0.177-5.326,0.356c-0.759,2.012-1.206,3.726-1.349,5.381
	c1.17-0.127,2.35-0.13,3.518,0.01c0.432-0.76,1.039-1.549,1.857-2.396c-0.526,0.87-0.908,1.696-1.159,2.493
	c1.385,0.234,2.753,0.679,4.072,1.368c1.431-2.97,4.391-5.551,10.915-6.595c-6.511,1.422-8.859,4.233-9.699,7.311
	c1.164,0.768,2.281,1.748,3.328,2.97c-1.218-0.813-2.398-1.489-3.538-2.041c-0.377,2.08-0.202,4.229-0.259,6.11
	c2.025-2.152,6.877-7.071,12.666-8.275c6.752-6.122,13.929-11.724,22.96-17.755c-8.416,7.229-12.817,11.649-15.588,18.554
	c1.046,0.482,2.097,1.142,3.143,2.01c-1.152-0.676-2.266-1.175-3.335-1.52c-0.496,1.297-0.94,2.682-1.347,4.188l3.501,0.373
	c2.743-2.273,5.029-3.895,9.229-5.8c-3.488,2.037-5.246,3.626-7.365,5.999l0.187,0.021c2.157-1.298,4.077-2.109,7.644-2.941
	c-2.759,1.078-4.151,2.029-5.285,3.192l5.495,0.586c0.748-6.224-0.438-12.378-2.234-18.587c3.73,6.389,6.868,12.802,8.191,19.303
	c2.433-6.034,3.413-11.547,2.234-17.516c2.553,4.553,4.149,9.049,3.957,14.241c2.293-2.152,4.944-2.946,7.582-2.859
	c5.57-3.493,10.521-5.262,22.715-7.807c-10.711,3.673-14.209,4.998-17.041,8.771c1.94,0.053,3.896,0.607,5.379,1.571
	c1.905-3.223,6.297-5.745,13.568-6.477c0.244-1.891,0.327-3.849,0.327-6.01c0.688,2.064,1.277,3.978,1.703,5.856
	c0.802-0.041,1.634-0.063,2.498-0.063c-0.878,0.025-1.704,0.068-2.483,0.129c0.311,1.39,0.532,2.763,0.638,4.166
	c1.219,0.201,2.417,0.62,3.56,1.307c4.694-4.208,9.168-6.45,18.658-10.322c-11.026,5.293-12.217,6.555-14.893,13.94l4.468,1.072
	c1.079-1.037,2.259-2.019,3.517-2.955c-2.751-0.521-1.452-1.934,2.553-1.777c1.27-0.828,2.6-1.626,3.972-2.398
	c-0.44-0.26-0.902-0.516-1.384-0.77c0.576,0.215,1.112,0.43,1.61,0.644c1.024-0.571,2.071-1.131,3.136-1.68
	c-0.497,0.723-1.216,1.452-1.987,2.202c3.031,1.472,4.451,2.964,5.565,4.842l0.506-0.157c1.006-1.482,3.558-2.708,6.108-3.555
	c-0.626-0.713-1.327-1.419-2.075-2.093c-1.637,0.645-3.365,1.554-5.176,2.763c1.327-1.55,2.767-2.711,4.273-3.542
	c-4.912-4.056-11.209-6.42-11.493-0.748c-0.767-6.071,6.524-3.904,12.813,0.109c3.278-1.374,6.799-1.329,10.122-0.432
	c1.03-3.138,1.007-6.303-0.04-10.827c2.301,4.234,3.779,7.577,4.277,11.533c0.56,0.038,1.116,0.106,1.666,0.205
	c3.103-7.106,1.214-11.742-2.22-19.245c6.361,6.151,9.094,11.589,10.079,17.828c4.109-3.465,11.218-5.78,21.74-5.78
	c-14.405,0.407-18.735,4.379-21.354,9.456c0.076,1.294,0.099,2.63,0.082,4.02c0.013,0.051,0.022,0.103,0.034,0.156
	c2.287-2.655,5.774-5.219,9.679-6.699c0.205-0.16,0.41-0.32,0.619-0.478c-2.315,0.263-4.814,1.078-7.489,2.646
	c3.104-2.578,6.234-3.716,9.251-3.903c3.466-2.326,7.675-4.303,13.017-5.599c-1.539-0.725-3.399-1.347-5.651-1.839
	c2.488,0.398,4.568,0.974,6.313,1.684c2.38-0.543,4.977-0.954,7.83-1.202c9.061-0.79,15.729,0.215,17.654,6.51
	c-4.155-4.488-9.494-5.429-15.642-4.804c-2.521,0.258-4.796,0.605-6.849,1.036c5.148,3.347,5.974,8.331,6.419,12.722
	c0.601,0.403,1.154,0.823,1.649,1.263c0.202-0.375,0.393-0.745,0.571-1.11l-0.473-6.083c0.521,1.075,1.144,2.164,1.616,3.269
	c0.973-3.146,0.754-6.172-1.438-9.794c2,2.069,3.013,3.878,3.364,5.636c1.178,1.064,2.272,2.176,3.252,3.359
	c0.407-0.399,0.764-0.681,1.023-0.757c-0.307,0.315-0.6,0.629-0.874,0.939c0.747,0.923,1.424,1.889,2.01,2.911
	c0.644-0.167,1.312-0.311,1.996-0.434c0.812-0.812,1.666-1.463,2.55-1.975c1.881-2.111,3.729-4.006,6.083-5.836
	c-1.309-0.147-2.752-0.246-4.347-0.291c1.588,0,3.081,0.064,4.479,0.188c2.281-1.758,5.04-3.458,8.757-5.243
	c-2.477,2.258-4.132,4.032-5.239,5.705c3.494,0.628,6.26,1.682,8.348,3.022c1.124-0.4,2.395-0.765,3.9-1.127
	c-4.653-1.555-0.165-4.648,10.336-3.531c5.68,0.604,10.313,2.076,14.3,4.057c0.9-0.458,1.846-0.908,2.851-1.359
	c-3.236-3.704-7.909-7.101-13.963-10.28c8.221,3.075,12.843,6.011,15.999,9.406c1.56-0.643,3.264-1.29,5.169-1.961
	c-1.389,0.728-3.046,1.548-4.739,2.434c1.358,1.543,2.443,3.184,3.446,4.978c1.537-3.825,7.652-7.007,13.974-9.205
	c-1.401-1.901-3.327-3.871-5.979-6.07c3.597,2.111,6.245,3.797,8.221,5.332c3.099-0.963,6.123-1.68,8.554-2.108
	c-3.043,0.869-5.676,1.722-7.949,2.591c2.471,2.028,3.773,3.837,4.575,6.092c3.281-0.524,6.459-0.734,9.367-0.715
	c5.479-4.318,12.377-6.055,27.868-10.477c-11.822,4.611-18.741,6.358-22.718,10.766c4.462,0.487,7.723,1.524,8.826,2.611
	c1.158-0.308,2.374-0.58,3.632-0.821c-1.587-1.106-3.803-2.167-6.781-3.313c2.262,0.58,5.332,1.68,7.908,3.108
	c2.188-0.382,4.501-0.676,6.899-0.913c-1.989,0.528-3.869,1.087-5.599,1.69c2.001,1.3,3.483,2.809,3.656,4.41
	c1.782-2.018,3.648-3.679,6.51-5.164c-0.942-1.968-1.985-3.93-3.078-5.941c1.967,1.771,3.574,3.402,4.976,5.047
	c1.716-0.737,3.751-1.437,6.233-2.123c-2.125,0.844-4.048,1.736-5.766,2.682c0.681,0.828,1.313,1.664,1.917,2.527
	c1.396-0.262,2.874-0.434,4.443-0.493c0.475-0.018,0.925-0.023,1.354-0.019c4.09-4.199,9.371-7.757,15.138-11.91
	c-6.304,5.403-9.265,7.942-10.138,12.788c0.93,0.513,0.89,1.134-0.202,1.54c-0.057,0.658-0.085,1.359-0.085,2.114l18.616-6.79
	l-13.403,6.434c10.158,0,10.615-0.807,17.872-4.29C564.865,595.796,563.293,596.507,567.841,600L567.841,600z M97.899,595.728
	c-0.828-0.67-1.74-1.33-2.724-1.977l-4.828,2.318C93.744,596.069,96.055,595.979,97.899,595.728L97.899,595.728z M95.545,593.573
	c1.368,0.602,2.655,1.229,3.809,1.905c1.138-0.241,2.131-0.569,3.19-1.009l-0.319-4.104L95.545,593.573L95.545,593.573z
	 M58.999,591.396c-1.64,0.619-3.121,1.285-4.398,2.009c2.311,0.845,4.534,2.026,6.444,3.638
	C61.275,594.761,60.714,592.997,58.999,591.396L58.999,591.396z M53.328,594.193c-1.454,0.987-2.549,2.081-3.191,3.305h0.193
	c3.665-1.124,6.062-0.651,8.849-0.094C57.377,596.012,55.372,594.964,53.328,594.193L53.328,594.193z M51.381,597.498h5.237
	C55.131,597.246,53.476,597.218,51.381,597.498L51.381,597.498z M65.498,597.498h7.723c-0.346-1.159-0.745-2.299-1.189-3.426
	C69.375,594.929,67.125,596.104,65.498,597.498L65.498,597.498z M71.649,593.129c-0.289-0.696-0.596-1.391-0.916-2.082
	c-2.315,1.476-4.176,3.081-5.573,4.839C67.161,594.796,69.292,593.835,71.649,593.129L71.649,593.129z M75.194,593.244
	c0.6,0.899,1.176,1.833,1.749,2.825c0.841-1.212,1.774-2.355,2.79-3.451C78.159,592.733,76.637,592.945,75.194,593.244
	L75.194,593.244z M49.06,592.964c-2.227-0.46-4.357-0.637-6.169-0.621c-0.358,0.809-0.673,1.688-0.946,2.653l-0.504,3.297
	l2.737-2.224C45.516,594.835,47.163,593.814,49.06,592.964L49.06,592.964z M43.24,591.609c2.227-0.055,4.817,0.132,7.451,0.687
	c0.559-0.208,1.135-0.406,1.728-0.591C49.907,589.49,44.618,588.891,43.24,591.609L43.24,591.609z M491.022,596.17
	c0.367-0.138,0.741-0.271,1.122-0.403c-0.328,0.44-0.662,0.898-1.002,1.375L491.022,596.17L491.022,596.17z M492.629,595.12
	c-0.579,0.081-1.148,0.172-1.704,0.274c-0.235-1.85-0.468-3.406-0.807-4.78c2.534-0.488,4.985-0.774,7.271-0.902
	C495.805,591.186,494.284,592.94,492.629,595.12L492.629,595.12z M485.924,596.923c-0.344,0.166-0.674,0.348-0.989,0.542
	c-0.052-0.233-0.065-0.471-0.048-0.714c0.339,0.045,0.685,0.096,1.037,0.154V596.923L485.924,596.923z M485.018,596.051
	c0.161-0.539,0.451-1.097,0.84-1.667c0.029,0.604,0.048,1.223,0.058,1.863C485.614,596.175,485.315,596.109,485.018,596.051
	L485.018,596.051z M485.831,593.868c-0.55,0.646-1.122,1.37-1.646,2.039c-0.613-0.092-1.216-0.153-1.81-0.189
	c-0.135-0.904-0.471-1.793-0.878-2.673c1.376-0.522,2.756-0.976,4.126-1.366C485.718,592.387,485.784,593.115,485.831,593.868
	L485.831,593.868z M483.634,596.611c-0.472,0.602-0.869,1.101-1.125,1.368l-0.274-0.021l0.002-0.003
	c0.145-0.479,0.205-0.953,0.203-1.426C482.831,596.549,483.228,596.575,483.634,596.611L483.634,596.611z M480.622,591.295
	c-0.182-0.351-0.363-0.702-0.531-1.05l0.094,1.206c-1.962,0.709-3.904,1.557-5.793,2.563c-0.559-0.259-1.133-0.511-1.72-0.761
	c3.257-1.609,6.363-3.271,9.534-5.048c-3.36,1.358-6.21,2.477-8.982,3.437c1.577-3.136,4.489-5.534,9.504-7.742
	c1.348,1.996,2.132,3.936,2.587,6.006C483.75,590.288,482.18,590.749,480.622,591.295L480.622,591.295z M480.344,593.499l0.169,2.18
	c-0.895,0.017-1.785,0.078-2.686,0.164c-0.363-0.227-0.74-0.448-1.13-0.664C477.902,594.56,479.12,594.001,480.344,593.499
	L480.344,593.499z M480.578,596.517l0.105,1.337l-0.266-0.019c-0.432-0.424-0.915-0.828-1.444-1.218
	C479.5,596.566,480.034,596.533,480.578,596.517L480.578,596.517z M472.499,593.397c0.471,0.3,0.924,0.601,1.361,0.904
	c-0.629,0.348-1.255,0.713-1.871,1.1C472.12,594.701,472.29,594.035,472.499,593.397L472.499,593.397z M475.727,595.692
	c0.139,0.112,0.275,0.225,0.409,0.337c-0.426,0.052-0.857,0.105-1.293,0.159C475.137,596.019,475.432,595.854,475.727,595.692
	L475.727,595.692z M477.087,596.873c0.278,0.26,0.543,0.523,0.795,0.789l-3.36-0.231C475.38,597.209,476.23,597.02,477.087,596.873
	L477.087,596.873z M408.84,595.599c0.137,0.271,0.267,0.548,0.39,0.827c0.449-0.514,0.882-1.014,1.303-1.501
	C409.951,595.14,409.385,595.365,408.84,595.599L408.84,595.599z M411.288,594.053l0.135-0.156
	c-0.109,0.061-0.221,0.123-0.331,0.187L411.288,594.053L411.288,594.053z M405.853,597.142c0.318-0.201,0.65-0.396,0.995-0.582
	c0.056,0.197,0.104,0.39,0.147,0.582H405.853L405.853,597.142z M406.421,595.242c-0.791,0.297-1.529,0.646-2.202,1.063
	c-0.23-1.057,0.275-2.219,1.174-3.437C405.792,593.683,406.139,594.475,406.421,595.242L406.421,595.242z M405.242,592.56
	c-1.857,2.155-4.057,5.361-3.721,4.236c0.169-0.563,0.224-1.121,0.196-1.675c0.965-2.377,1.577-4.438,1.267-6.547
	C403.828,589.94,404.595,591.274,405.242,592.56L405.242,592.56z M394.867,593.429c-1.281-0.645-2.675-1.251-4.127-1.839
	c1.524,0.921,2.914,1.863,4.132,2.831c-0.003,0.935-0.019,1.849,0.002,2.721h-0.229c-1.431-1.51-3.79-3.885-6.755-6.011l0.185-0.039
	c0.59,0.339,1.187,0.709,1.794,1.115c-0.382-0.445-0.771-0.856-1.17-1.237c1.182-0.225,2.551-0.43,4.149-0.62
	c-1.769,0.009-3.294,0.067-4.631,0.173c-2.604-2.303-5.532-3.36-8.492-3.541c2.416-1.868,5.851-3.399,10.523-4.477
	C394.293,585.53,394.816,589.604,394.867,593.429L394.867,593.429z M517.877,591.396c-1.641,0.619-3.122,1.285-4.399,2.009
	c2.312,0.845,4.533,2.026,6.444,3.638C520.153,594.761,519.592,592.997,517.877,591.396L517.877,591.396z M512.206,594.193
	c-1.454,0.987-2.548,2.081-3.192,3.305h0.194c3.667-1.124,6.063-0.651,8.849-0.094C516.255,596.012,514.249,594.964,512.206,594.193
	L512.206,594.193z M510.259,597.498h5.238C514.01,597.246,512.354,597.218,510.259,597.498L510.259,597.498z M524.375,597.498h7.724
	c-0.346-1.159-0.744-2.299-1.188-3.426C528.255,594.929,526.004,596.104,524.375,597.498L524.375,597.498z M530.529,593.129
	c-0.292-0.696-0.598-1.391-0.919-2.082c-2.313,1.476-4.175,3.081-5.572,4.839C526.039,594.796,528.17,593.835,530.529,593.129
	L530.529,593.129z M534.073,593.244c0.6,0.899,1.176,1.833,1.749,2.825c0.841-1.212,1.774-2.355,2.789-3.451
	C537.037,592.733,535.515,592.945,534.073,593.244L534.073,593.244z M507.94,592.964c-2.229-0.46-4.359-0.637-6.171-0.621
	c-0.357,0.809-0.672,1.688-0.946,2.653l-0.504,3.297l2.737-2.224C504.394,594.835,506.042,593.814,507.94,592.964L507.94,592.964z
	 M502.118,591.609c2.229-0.055,4.817,0.132,7.452,0.687c0.559-0.208,1.135-0.406,1.727-0.591c-1.025-0.905-3.976-1.707-8.038-1.978
	C502.841,590.308,502.461,590.933,502.118,591.609L502.118,591.609z M435.871,588.421c2.221-0.501,4.929-1.019,8.358-1.646
	c-2.656,0.851-4.815,1.532-6.637,2.168c0.956,0.22,2.134,0.406,3.538,0.535c-1.633-0.035-3.006-0.151-4.129-0.327
	c-1.729,0.619-3.143,1.207-4.392,1.878c0.882,0.778,1.584,1.625,2.112,2.521c1.953-1.269,4.642-1.898,7.164-1.723
	c3.801-1.469,8.1-1.691,11.816,0.723c1.226-0.804,2.455-1.557,3.754-2.282c-3.817-1.926-8.583-3.366-13.941-4.109
	C435.274,585.016,432.348,587.001,435.871,588.421L435.871,588.421z M462.876,588.456c-0.771,0.425-1.534,0.86-2.266,1.305
	c1.88,1.009,3.615,2.128,5.253,3.318C465.097,591.483,464.101,589.944,462.876,588.456L462.876,588.456z M458.756,590.964
	c-1.396,0.973-2.564,1.976-3.291,2.978c0.351,0.331,0.692,0.691,1.028,1.081c-0.418-0.277-0.828-0.537-1.234-0.777
	c-0.387,0.609-0.604,1.22-0.604,1.824c3.359-0.539,6.207-1.073,8.776-1.648C462.163,593.167,460.589,592.005,458.756,590.964
	L458.756,590.964z M465.312,596.683l-0.232,0.102l0.313,0.021L465.312,596.683L465.312,596.683z M319.841,594.056
	c0.567-0.419,1.151-0.828,1.748-1.229C318.684,592.629,317.954,593.512,319.841,594.056L319.841,594.056z M327.28,590.687
	c-0.694,0.674-1.412,1.366-2.034,2.088c2.727,0.544,4.843,1.591,6.664,2.854l0.229-0.07
	C331.187,593.787,329.558,592.179,327.28,590.687L327.28,590.687z M324.792,593.327c-1.118,1.453-1.754,3.031-0.991,4.813
	l6.919-2.144C329.304,594.838,327.25,593.902,324.792,593.327L324.792,593.327z M336.123,594.323l0.132-0.042l-0.214,0.144
	c-0.567,0.723-0.907,1.535-1.089,2.49c2.146-1.337,4.51-2.148,6.792-2.595c-0.445-0.817-1.053-1.672-1.771-2.52
	C338.148,592.557,336.922,593.355,336.123,594.323L336.123,594.323z M331.897,597.202l-1.073,0.72l1.525-0.009
	C332.222,597.671,332.072,597.434,331.897,597.202L331.897,597.202z M335.652,597.895l6.56-0.039l0.02-0.025
	C339.475,597.151,337.652,597.328,335.652,597.895L335.652,597.895z M342.306,597.725l0.225-0.314
	c0.113-0.704-0.061-1.529-0.452-2.414c-1.947,0.435-3.979,1.151-5.897,2.259C338.228,596.998,339.989,596.78,342.306,597.725
	L342.306,597.725z M342.154,591.006c0.571-0.187,1.183-0.372,1.84-0.56c-0.594,0.104-1.272,0.249-1.991,0.432
	c-0.826-0.689-1.721-1.368-2.653-2.014c3.152-0.933,5.931-0.861,8.273-0.084c-1.853,0.543-3.478,1.526-4.579,3.007
	C342.758,591.526,342.46,591.265,342.154,591.006L342.154,591.006z M422.47,586.976c-0.828,1.301-1.327,2.552-1.629,3.932
	c1.706,0.275,3.38,0.852,4.932,1.619c1.208-0.885,2.386-1.58,3.75-2.176C427.977,588.899,425.802,587.723,422.47,586.976
	L422.47,586.976z M420.663,591.894c-0.221,1.498-0.263,3.181-0.263,5.248c1.591-1.458,2.887-2.636,4.085-3.614
	C423.392,592.729,422.112,592.157,420.663,591.894L420.663,591.894z M430.975,592.021c-0.873,0.599-1.689,1.279-2.519,2.097
	c1.313,0.917,2.471,1.949,3.4,3.003l0.145,0.018c0.142-0.641,0.413-1.233,0.788-1.772
	C432.274,594.188,431.713,593.062,430.975,592.021L430.975,592.021z M426.796,595.908c-0.146,0.169-0.291,0.341-0.438,0.518
	l0.84,0.106C427.071,596.319,426.936,596.11,426.796,595.908L426.796,595.908z M438.16,597.917l2.346,0.297l0.521-4.243
	C439.783,595.029,438.818,596.394,438.16,597.917L438.16,597.917z M442.326,593.04l4.882,4.102c2.076-1.529,3.919-2.869,5.74-4.092
	c-3.44-1.516-6.414-1.627-8.825-0.828c1.763,0.517,3.275,1.521,4.153,3.09c-1.622-1.582-3.383-2.41-5.097-2.719
	C442.885,592.728,442.601,592.878,442.326,593.04L442.326,593.04z M435.638,595.687c-0.093-0.329-0.206-0.654-0.337-0.975
	c1.171-1.025,2.959-1.911,4.988-2.181C438.55,593.393,436.958,594.495,435.638,595.687L435.638,595.687z M343.215,591.944
	c0.676,0.63,1.282,1.258,1.793,1.869c0.996-1.525,1.8-2.908,2.419-4.247C346.004,590.013,344.577,590.776,343.215,591.944
	L343.215,591.944z M352.542,589.193l0.008,0.087c0.323,0.166,0.458,2.34,0.772,2.518c0.062-0.123,0.308-2.251,0.367-2.372
	C353.316,589.331,352.933,589.253,352.542,589.193L352.542,589.193z M362.397,596.69c-0.022,0.615-0.048,1.242-0.078,1.88
	c0.484-0.601,0.979-1.21,1.484-1.824L362.397,596.69L362.397,596.69z M387.218,590.616c-0.101-0.055-0.203-0.105-0.304-0.159
	l0.246,0.165L387.218,590.616L387.218,590.616z M176.823,591.038c-0.606,1.245-0.975,2.824-1.412,5.031
	c4.188-2.123,7.568-4.088,10.509-6.063C183.332,589.412,180.277,589.641,176.823,591.038L176.823,591.038z M192.131,590.749
	l-0.043,0.148c1.297,0.674,2.519,1.454,3.634,2.299l0.999-0.639C195.472,591.729,193.885,591.054,192.131,590.749L192.131,590.749z
	 M191.676,593.311c-0.049,0.782-0.016,1.581,0.116,2.401l1.198-0.768C192.597,594.363,192.158,593.816,191.676,593.311
	L191.676,593.311z M201.101,593.53c0.316,0.703,0.902,1.163,1.98,1.593c2.642-2.567,6.327-4.882,10.302-5.98
	c1.025-1.936,2.245-3.847,3.651-5.876C206.424,584.613,203.317,588.684,201.101,593.53L201.101,593.53z M207.237,596.332
	c0.92,0.234,1.971,0.499,3.173,0.81c0.484-2.213,1.178-4.225,2.071-6.171C210.187,592.151,208.414,594.062,207.237,596.332
	L207.237,596.332z M216.333,589.795c0.012,2.604,0.783,5.211,2.268,8.775l2.389-0.229l-0.044-0.256
	c-1.411-3.264-2.524-5.661-1.597-8.313C218.289,589.665,217.283,589.676,216.333,589.795L216.333,589.795z M220.302,589.902
	c-0.444,2.758,0.614,5.271,2.381,8.276l0.362-0.035c0.251-2.152,0.323-4.705,1.2-7.099
	C222.866,590.487,221.55,590.112,220.302,589.902L220.302,589.902z M108.53,587.668c0.581,0.663,1.115,1.333,1.598,2.028
	c0.88-0.648,1.902-1.128,3.005-1.451C111.748,587.784,110.208,587.572,108.53,587.668L108.53,587.668z M110.441,590.163
	c0.683,1.054,1.246,2.171,1.674,3.403c2.147-1.341,3.685-2.317,4.782-3.203c-0.782-0.662-1.653-1.225-2.609-1.664
	C113.009,588.929,111.708,589.395,110.441,590.163L110.441,590.163z M118.366,588.902c0.043-0.057,0.083-0.113,0.124-0.17
	c-0.221-0.042-0.444-0.078-0.67-0.109C118.004,588.714,118.185,588.807,118.366,588.902L118.366,588.902z M122.151,590.056
	c0.099,0.483,0.177,0.974,0.237,1.477c0.389,0.311,0.764,0.628,1.122,0.951c0.111-0.404,0.25-0.801,0.41-1.193
	C123.417,590.85,122.82,590.43,122.151,590.056L122.151,590.056z M127.307,591.388c5.599-3.217,11.343-5.906,18.317-8.901
	c-2.897,1.925-5.158,3.364-6.912,4.853c1.902-0.612,3.883-0.955,5.858-0.921c0.32-0.448,0.665-0.925,1.054-1.43
	c-0.122,0.489-0.252,0.976-0.386,1.456c1.667,0.104,3.323,0.483,4.918,1.208c0.18-2.263-0.412-4.561-1.49-6.86
	C133.648,581.321,129.864,585.835,127.307,591.388L127.307,591.388z M135.271,591.552c-0.312,0.615-0.582,1.282-0.816,2.015
	c5.87-1.761,7.44-3.415,9.242-5.915C140.157,587.749,137.302,589.27,135.271,591.552L135.271,591.552z M144.901,587.671
	c-0.842,3.043-1.577,5.992-0.766,9.113c3.524-2.539,5.302-5.215,5.857-7.958C148.179,588.134,146.478,587.765,144.901,587.671
	L144.901,587.671z M269.452,594.274c-0.038,0.703-0.109,1.42-0.216,2.151c2.421-1.743,4.431-3.192,6.301-4.438
	C273.707,592.218,271.67,592.936,269.452,594.274L269.452,594.274z M281.752,593.397c-0.662,1.055-1.329,2.278-2.091,3.744
	l5.247,0.1C284.202,595.701,283.136,594.353,281.752,593.397L281.752,593.397z M294.258,597.421l4.02,0.077
	c0.998-1.917,1.742-3.686,2.29-5.409C297.573,592.702,295.407,594.8,294.258,597.421L294.258,597.421z M300.855,591.126
	c0.366-1.311,0.624-2.607,0.801-3.938c-8.041,1.049-10.169,4.244-11.812,7.989c0.359,0.514,0.611,1.083,0.731,1.702
	C292.857,594.233,296.76,591.706,300.855,591.126L300.855,591.126z M304.41,592.099c0.046,1.277-0.006,2.588-0.175,3.971
	c1.079-1.141,2.09-2.152,3.081-3.072C306.3,592.567,305.33,592.272,304.41,592.099L304.41,592.099z M287.284,595.466
	c0.082-0.296,0.182-0.588,0.301-0.877c-1.054-0.923-2.662-1.721-4.488-1.963C284.662,593.402,286.093,594.394,287.284,595.466
	L287.284,595.466z M378.348,588.188c-2.368,2.37-3.373,5.18-3.373,8.237c3.389-2.597,5.183-4.391,9.248-5.323
	C382.498,589.843,380.536,588.786,378.348,588.188L378.348,588.188z M385.2,591.853c-3.486,1.192-4.451,2.837-6.5,5.289h11.584
	C388.991,595.495,387.291,593.55,385.2,591.853L385.2,591.853z M229.044,597.568l0.726-0.07c2.028-2.05,4.043-4.015,6.08-5.922
	C232.877,593.104,230.59,595.601,229.044,597.568L229.044,597.568z"/>
</svg>
