<?xml version="1.0" encoding="utf-8"?>
<!-- Generator: Adobe Illustrator 16.0.2, SVG Export Plug-In . SVG Version: 6.00 Build 0)  -->
<!DOCTYPE svg PUBLIC "-//W3C//DTD SVG 1.1//EN" "http://www.w3.org/Graphics/SVG/1.1/DTD/svg11.dtd">
<svg version="1.1" id="lay" xmlns="http://www.w3.org/2000/svg" xmlns:xlink="http://www.w3.org/1999/xlink" x="0px" y="0px"
	 width="600px" height="600px" viewBox="0 0 600 600" enable-background="new 0 0 600 600" xml:space="preserve">
<g id="arvore">
	<g id="folhas">
		<g id="folhasc">
			<path fill="#99CC66" d="M427.211,307.043c-7.109-21.566-33.473-23.5-52.727-21.137c-20.785,2.539-35.762,10.484-52.98,20.367
				c-7.934,8.859-15.766,17.895-23.125,27.219c0.172,0.105,0.316,0.234,0.504,0.324c8.738,4.711,18.785,5.996,28.602,6.074
				c14.5,0.113,32.871-1.398,44.898-10.652c8.34-6.434,13.867-15.504,21.992-22.141c16.254-13.273,36.832,5.395,25.48,16.637
				c16.176-5.758,22.98-28.66,0.105-33.422c-0.484-0.098-0.484-0.871,0-0.969c15.254-3.109,28.758,4.422,43.594,6.453
				c17.602,2.398,39.711-0.012,50.973-14.547c-15.027,3.262-29.363-1.906-42.516-11.516c-23.43-17.109-45.184-21.918-73.91-17.781
				c-0.863,0.125-1.348-0.719-0.813-1.414c3.27-4.227,6.863-7.453,11.148-9.5c-26.449-2.348-54.93-1.414-79.633,7.82
				c-15.918,5.945-32.551,16.105-38.117,33.223c-4.93,15.152-3.211,25.789,2.223,38.918c6.09-6.09,14.797-13.297,24.359-22.215
				c1.863-7.598,5.781-14.617,8.977-21.148c4.195-8.559,9.84-14.949,17.809-20.199c0.191-0.121,0.344,0.168,0.172,0.293
				c-9.629,7.375-14.797,16.34-18.246,27.789c-0.813,2.68-1.516,5.672-2.41,8.605c2.848-2.512,5.727-5,8.648-7.402
				c4.625-3.82,9.414-7.664,14.43-11.141c0.051-0.098,0.082-0.18,0.164-0.281c14.027-14.91,27.813-27.918,48.879-30.773
				c0.207-0.035,0.301,0.289,0.09,0.324c-17.703,3.094-29.93,13.398-41.379,25.816c5.07-2.859,10.41-5.168,16.145-6.516
				c40.281-9.508,75.758,19.688,115.473,20.496c0.215,0.004,0.215,0.328,0,0.336c-17.395,0.168-33.629-4.148-50.004-9.789
				c-19.121-6.578-40.41-14.609-60.785-8.809c-17.809,5.078-32.215,16.258-44.574,29.75c31.367-17.164,87.461-25.02,96.66,10.875
				C427.332,307.09,427.227,307.113,427.211,307.043z"/>
			<path fill="#99CC66" d="M342.508,207.73c13.563-12.516,32.59-21.727,48.359-11.039c-7.738-13.977-25-17.797-40.504-19.805
				c-0.551-0.07-0.934-0.535-0.766-1.098c2.484-8.445,8.305-14.23,12.637-21.68c6.586-11.32,7.121-23.602,6.223-36.074
				c-2.402,9.258-10.852,16.867-20.395,21.52c-0.723,0.359-1.52-0.16-1.52-0.953c-0.207-23.395-9.926-43.238-30.457-55.387
				c-15.668-9.273-32.484-10.969-49.316-16.875c-18.289-6.418-33.762-24.371-33.566-43.785c-9.652,23.027-6.406,56,12.137,69.609
				c6.133,4.508,14.824,9.543,17.699,17.152c3.27,8.676,2.727,16.859,2.242,26.055c-0.047,0.984-1.566,0.922-1.523-0.055
				c0.688-15.645-10.652-21.805-23.332-24.539c12.258,6.961,19.984,22.738,4.656,32.414c-33.102,20.898-23.066,74.645,13.23,82.645
				c0,0,2.836-9.922,4.152-14.836c-12.238-3.094-23.133-17.605-24.434-28.91c-2.055-17.93,21.375-25.625,19.766-44.145
				c-0.012-0.184,0.309-0.219,0.328-0.027c1.52,11.727-5.395,18.273-11.477,27.52c-6.605,10.043-7.07,21.613,2.441,30.383
				c4.605,4.246,10.008,6.484,15.121,9.309c0.719-2.145,1.484-4.219,2.281-6.215c4.289-10.652,11.457-19.871,17.984-29.383
				c2.773-7.488,4.094-14.598,3.402-23.371c-0.859-11.039-3.504-32.711-17.379-34.848c-0.141-0.023-0.141-0.246,0.008-0.227
				c12.57,1.293,17.281,19.363,18.922,29.523c0.684,4.234,1.762,11.703,1.473,18.789c2.215-3.895,4.156-7.926,5.578-12.199
				c13.813-41.641-27.035-51.449-47.281-78.398c-0.043-0.055,0.035-0.133,0.082-0.078c16.18,19.871,52.754,30.332,54.145,60.027
				c0.684,14.547-4.496,27.203-11.012,39.523c4.004-2.117,8.695-3.406,12.539-3.969c21.75-3.184,43.949-2.57,55.418-25.207
				c0.059-0.109,0.258-0.02,0.199,0.094c-5.363,11.855-14.902,19.863-27.559,23.301c-8.02,2.18-16.195,2.363-24.234,4.211
				c-12.711,2.918-28.051,17.953-34.676,47.277c2.902,0.492,5.734,0.945,8.984-0.211c4.434-1.559,8.551-3.543,12.504-6.066
				c7.254-4.633,14.176-9.934,21.77-14c13.508-7.234,26.117-9.746,41.254-6.734c0.184,0.035,0.129,0.359-0.059,0.324
				c-25.98-3.574-40.988,10.84-60.906,24.285c-5.055,3.41-16.039,9.098-23.57,7.324c-1.188,4.066-1.676,11.953-1.676,11.953
				c10.613,2.195,26.543,0.488,34.828-1.547C322.008,225.684,331.566,217.82,342.508,207.73z"/>
			<path fill="#99CC66" d="M394.508,434.836c21.547-5.23,31.109-20.734,45.66-35.746c9.656-9.973,21.98-21.539,36.836-16.188
				c13.656,4.914,14.145,20.164,9.086,31.555c14.172-12.641,20.602-35.457,0.223-46.285c-0.949-0.5-0.293-2.066,0.727-1.73
				c45.125,14.871,68.188-26.43,61.887-64.434c0.879,9.906-1.141,19.672-8.82,27.191c-15.02,14.68-42.25-0.164-59.766,1.715
				c-0.637,0.07-0.992-0.738-0.707-1.238c3.738-6.418,5.836-12.832,6.914-19.59c-4.73,5.719-10.953,9.914-19.25,11.461
				c-16.785,3.137-33.863,0.016-50.727,2.109c-23.254,2.875-45.809,12.199-58.719,32.836c-8.445,13.516-13.258,25.125-14.848,39.523
				c0,0,11.094-4.438,16.719-7.164c9.957-21.012,26.84-42.477,47.477-53.121c0.129-0.07,0.246,0.125,0.109,0.195
				c-12.734,7.031-22.23,17.207-29.941,29.449c-4.551,7.234-7.176,13.949-12.145,21.094c6.668-3.223,12.172-4.852,18.789-8.145
				c10.605-5.273,21.594-10.848,32.965-14.949c17.164-17.73,48.125-21.023,61.117-42.648c0.074-0.129,0.262-0.023,0.195,0.105
				c-10.914,20.531-37.434,25.773-54.574,40.336c2.469-0.738,4.941-1.383,7.438-1.934c0.391-0.113,0.793-0.188,1.184-0.273
				c0.242-0.055,0.492-0.121,0.742-0.16c0.066-0.023,0.141-0.023,0.203-0.043c0.48-0.094,0.953-0.176,1.445-0.246
				c34.313-6.035,75.449,6.523,102.148-22.051c0.102-0.105,0.254,0.055,0.156,0.16c-21.316,24.793-53.867,21.301-83.406,22.887
				c5.5,1.133,10.719,2.793,14.953,4.43c12.215,4.742,22.805,14.059,23.398,27.781c0.012,0.219-0.309,0.203-0.344,0
				c-3.875-30.367-44.688-30.402-66.82-26.656c-0.156,0.031-0.305,0.016-0.434,0.008c-13.129,4.289-25.574,10.617-37.816,17.621
				c-5.977,3.418-11.984,6.801-17.996,10.18c9.355,6.02,23.746-2.207,34.094-1.172c9.797,0.992,14.055,7.27,16.109,16.488
				c0.023,0.063-0.082,0.098-0.105,0.02c-9.02-31.156-36.242-0.379-53.664-13.316c-7.508,4.234-15,8.523-22.383,12.957
				C349.695,430.168,377.605,438.934,394.508,434.836z"/>
			<path fill="#99CC66" d="M181.242,352.59c-10.141-7.602-16.016-23.125-15.301-37.434c-8.617,13.316-4.703,31.836,2.387,46.863
				c0.363,0.766-0.051,2.066-1.105,1.926c-37.945-4.809-76.207-16.605-72.734-61.719c1.82-23.543,5.605-48.102-7.371-69.484
				c-6.477-10.672-15.23-19.84-25.48-26.781c7.98,9.859,13.68,22.332,16.156,33.09c4.504,19.496-1.629,36.891-10.418,54.223
				c-12.25,24.188-23.051,47.25-13.918,74.766c8.297,24.996,27.141,39.91,52.934,44.105c1.207,0.191,1.078,2.027,0,2.313
				c-58.965,15.617-5.992,93.723,31.375,77.121c-14.293-0.781-26.297-19.105-10.352-33.773c14.531-13.359,27.379-3.871,43.598,0.297
				c19.707,5.07,39.676,2.441,51.855-13.141c-10.68-6.203-20.637-13.383-30.699-20.371c-17.348,10.961-36.273-0.844-54.398-4.238
				c-34.523-6.457-54.031,31.984-25.867,53.992c0.152,0.121-0.059,0.316-0.199,0.203c-16.777-13.52-22.25-35.52-3.766-50.371
				c9.672-7.77,22.863-8.578,34.348-5.23c8.652,2.516,18.012,6.828,27.18,6.242c6.203-0.387,11.117-2.996,16.387-4.922
				c-13.207-8.902-26.867-17.035-42.805-21.711c-5.98-1.758-12.93-3.137-20.086-4.699c-16.27,0.668-36.566-4.855-48.859-13.746
				c-15.762-11.402-18.68-26.824-14.98-45.188c0.035-0.184,0.32-0.105,0.273,0.078c-4.906,20.594,3.371,39.164,23.098,47.613
				c6.117,2.625,12.219,4.07,18.355,5.063c-8.926-3.418-16.844-8.191-22.004-15.688c-23.063-33.504,7.359-79.465,7-115.375
				c0-0.219,0.32-0.219,0.336,0c0.711,18.555-4.996,36.738-8.605,54.754c-3.684,18.43-9.477,45.352,5.539,60.609
				c8.563,8.703,19.645,11.883,31.07,14.484c-5.215-3.277-9.891-7.18-13.398-11.172c-9.434-10.754-6.844-24.477-6.324-37.465
				c0.008-0.184,0.281-0.184,0.289,0c0.23,13.488-0.82,28.363,10.414,38.172c10.52,9.191,23.949,9.676,35.129,16.313
				c9.102,2.074,18.172,4.219,27.195,6.738c9.578,2.648,18.984,5.457,27.953,9.379c4.082-3.895,9.109-7.434,7.438-13.449
				c-1.887-6.785-7.133-12.688-12.078-17.508c-5.883-5.73-16.25-13.215-16.051-22.453c0-0.141,0.215-0.141,0.223,0
				c1.145,14.949,24.418,21.102,31.289,33.105c4.082,7.121,2.629,18.098-3.305,23.918c1.969,1.07,3.926,2.168,5.848,3.375
				c7.289,4.621,14.438,9.438,21.867,13.762c2.344-13.965-3.301-31.172-8.895-42.695C213.609,369.668,195.41,363.215,181.242,352.59
				z"/>
			<path fill="#99CC66" d="M217.461,152.375c-12.648-7.566-28.27-0.465-27.984,17.852c0.008,0.867-1.066,1.598-1.836,1.051
				c-11.063-7.836-25.137-11.988-35.355-20.871c-9.34-8.098-14.168-19.145-16.082-31.289c-1.969-12.527-0.797-24.82,5.379-33.582
				c-17.008,12.434-28.969,32.941-32.801,53.066c-2.574,13.535-2.895,28.977,4.066,41.406c8.73,15.609,23.043,22.77,39.395,28.336
				c0.91,0.309,1.164,1.949,0,2.102c-12.41,1.684-29.055-1.637-39.961,5.563c-21.254,14.02-9.941,43.012,10.473,50.016
				c-1.949-9.121-3.645-21.215,4.598-25.355c14.406-7.242,35.414,11.426,37.734,38.715c2.867,33.68,67.336,62.359,70.227,1.434
				c-3.105-10.512-16.129-24.457-25.086-32.246c-15.746-13.703-33.941-22.605-55.957-24.02
				c-16.141-1.031-41.328-0.563-38.402,22.113c0.035,0.238-0.395,0.305-0.438,0.059c-3.379-18.066,12.367-24.555,28.035-25.301
				c20.93-1.012,41.496,4.445,59.484,14.871c-5.672-9.047-10.906-18.941-18.234-26.766c-7.5-8.023-16.738-13.34-25.348-19.992
				c-25.246-19.488-37.727-42.656-30.508-74.762c0.051-0.219,0.367-0.129,0.324,0.082c-3.652,18.914-2.023,38.355,10.984,53.559
				c5.746,6.723,12.324,11.918,19.195,16.77c-4.504-7.328-5.711-16.684-4.824-25.469c0.031-0.352,0.559-0.363,0.559,0
				c-0.016,5.973,0.496,12.242,2.84,17.813c2.977,7.059,7.781,11.016,13.773,15.469c0.387,0.293,0.551,0.68,0.563,1.047
				c1.793,1.238,3.582,2.496,5.363,3.789c11.547,8.445,19.43,19.406,27.602,30.867c-3.492-8.445-6.008-17.121-7.379-24.727
				c-3.258-18.102-1.781-35.988,12.254-49.148c0.16-0.148,0.387,0.074,0.234,0.238c-28.793,29.859-3.203,71.34,18.277,96.848
				c3.82,4.543,6.934,7.297,11.703,10.273c19.203-29.672-26.445-51.602-30.93-79.336
				C207.586,171.641,208.449,158.086,217.461,152.375z"/>
		</g>
		<g id="folhase">
			<path fill="#99CC33" d="M486.148,284.852c-0.023,0.063-0.047,0.133-0.129,0.133c-17.395,0.168-33.629-4.148-50.004-9.789
				c-19.121-6.578-40.41-14.609-60.785-8.809c-17.809,5.078-32.215,16.258-44.574,29.75c31.367-17.164,87.461-25.02,96.66,10.875
				c0.016,0.078-0.09,0.102-0.105,0.031c-7.109-21.566-33.473-23.5-52.727-21.137c-20.785,2.539-35.762,10.484-52.98,20.367
				c-7.934,8.859-15.766,17.895-23.125,27.219c0.172,0.105,0.316,0.234,0.504,0.324c8.738,4.711,18.785,5.996,28.602,6.074
				c14.5,0.113,31.625-2.824,43.652-12.086c8.34-6.426,13.363-15.328,21.492-21.965c16.25-13.277,40.957,5.371,27.227,17.895
				c16.176-5.758,22.98-28.66,0.105-33.422c-0.484-0.098-0.418-0.715,0-0.969c12.199-7.277,29.004,2.758,43.848,4.781
				c17.594,2.41,39.457,1.66,50.719-12.875C508.973,282.461,490.484,285.238,486.148,284.852z"/>
			<path fill="#99CC33" d="M342.508,207.73c13.563-12.516,32.59-21.727,48.359-11.039c-7.738-13.977-40.598-16.719-57.789-11.223
				c5.73-6.926,35.824-30.57,35.379-67.434c-2.402,9.258-10.852,16.867-20.395,21.52c-0.723,0.359-1.145-0.25-1.52-0.953
				c-9.406-17.383-12.031-31.473-35.441-43.66c-19.535-10.16-34.156-14.328-51.359-22.211c-17.613-8.07-26.734-30.762-26.539-50.176
				c-9.652,23.027-6.406,56,12.137,69.609c6.133,4.508,14.824,9.543,17.699,17.152c3.27,8.676,2.727,16.859,2.242,26.055
				c-0.047,0.984-1.566,0.922-1.523-0.055c0.688-15.645-10.652-21.805-23.332-24.539c12.258,6.961,23.184,24.883,7.855,34.566
				c-33.098,20.895-21.254,67.828,10.031,80.492c0,0,2.836-9.922,4.152-14.836c-12.238-3.094-23.133-17.605-24.434-28.91
				c-2.055-17.93,21.375-25.625,19.766-44.145c-0.012-0.184,0.309-0.219,0.328-0.027c1.52,11.727-5.395,18.273-11.477,27.52
				c-6.605,10.043-7.07,21.613,2.441,30.383c4.605,4.246,10.008,6.484,15.121,9.309c0.719-2.145,1.484-4.219,2.281-6.215
				c4.289-10.652,11.457-19.871,17.984-29.383c2.773-7.488,4.094-14.598,3.402-23.371c-0.859-11.039-3.504-32.711-17.379-34.848
				c-0.141-0.023-0.141-0.246,0.008-0.227c12.57,1.293,17.281,19.363,18.922,29.523c0.684,4.234,1.762,11.703,1.473,18.789
				c2.215-3.895,4.156-7.926,5.578-12.199c13.813-41.641-27.035-51.449-47.281-78.398c-0.043-0.055,0.035-0.133,0.082-0.078
				c16.18,19.871,52.754,30.332,54.145,60.027c0.684,14.547-4.496,27.203-11.012,39.523c4.004-2.117,8.695-3.406,12.539-3.969
				c21.75-3.184,43.949-2.57,55.418-25.207c0.059-0.109,0.258-0.02,0.199,0.094c-5.363,11.855-14.902,19.863-27.559,23.301
				c-8.02,2.18-16.195,2.363-24.234,4.211c-12.711,2.918-28.051,17.953-34.676,47.277c2.902,0.492,5.734,0.945,8.984-0.211
				c4.434-1.559,8.551-3.543,12.504-6.066c7.254-4.633,14.176-9.934,21.77-14c13.508-7.234,26.117-9.746,41.254-6.734
				c0.184,0.035,0.129,0.359-0.059,0.324c-25.98-3.574-40.988,10.84-60.906,24.285c-5.055,3.41-16.039,9.098-23.57,7.324
				c-1.188,4.066-1.676,11.953-1.676,11.953c10.613,2.195,26.543,0.488,34.828-1.547C322.008,225.684,331.566,217.82,342.508,207.73
				z"/>
			<path fill="#99CC33" d="M537.031,336.621c-21.316,24.793-53.867,21.301-83.406,22.887c5.5,1.133,10.719,2.793,14.953,4.43
				c12.215,4.742,22.805,14.059,23.398,27.781c0.012,0.219-0.309,0.203-0.344,0c-3.785-29.656-42.789-30.387-65.23-26.906
				c-3.043,0.879-6.051,1.805-9.031,2.781c-10.578,4.078-20.77,9.348-30.809,15.098c-5.977,3.418-11.984,6.801-17.996,10.18
				c9.355,6.02,23.746-2.207,34.094-1.172c9.797,0.992,14.055,7.27,16.109,16.488c0.023,0.063-0.082,0.098-0.105,0.02
				c-9.02-31.156-36.242-0.379-53.664-13.316c-7.508,4.234-15,8.523-22.383,12.957c7.078,22.32,34.988,31.086,51.891,26.988
				c21.547-5.23,29.297-21.355,43.855-36.367c9.652-9.969,24.922-22.547,39.766-17.203c13.664,4.922,15.41,22.398,7.961,33.191
				c14.172-12.641,20.602-35.457,0.223-46.285c-0.949-0.5-0.305-2.031,0.727-1.73c37.313,10.711,67.344-21.297,61.887-64.434
				C550.926,333.438,537.129,336.516,537.031,336.621z"/>
			<path fill="#99CC33" d="M137.77,420.352c-34.523-6.457-54.031,31.984-25.867,53.992c0.152,0.121-0.059,0.316-0.199,0.203
				c-16.777-13.52-22.25-35.52-3.766-50.371c9.672-7.77,22.863-8.578,34.348-5.23c8.652,2.516,18.012,6.828,27.18,6.242
				c6.203-0.387,11.117-2.996,16.387-4.922c-13.207-8.902-26.867-17.035-42.805-21.711c-5.98-1.758-12.93-3.137-20.086-4.699
				c-16.27,0.668-36.566-4.855-48.859-13.746c-15.762-11.402-18.68-26.824-14.98-45.188c0.035-0.184,0.32-0.105,0.273,0.078
				c-4.906,20.594,3.371,39.164,23.098,47.613c6.117,2.625,12.219,4.07,18.355,5.063c-8.926-3.418-16.844-8.191-22.004-15.688
				c-22.836-33.172,6.754-78.574,6.98-114.32c-0.313-2.25-2.68-33.059-24.188-51.707c7.98,9.859,15.199,22.695,17.688,33.453
				c4.508,19.508-1.957,38.074-10.75,55.414c-12.246,24.176-22.742,45.816-13.609,73.328c8.297,25.012,27.707,37.02,51.426,43.988
				c1.172,0.344,1.059,1.941,0,2.313c-49.523,17.234-11.063,84.117,31.375,77.121c-14.293-0.781-28.762-22.051-12.82-36.719
				c14.535-13.367,29.402-2.734,45.621,1.434c19.703,5.07,38.699,4.066,52.301-11.332c-10.68-6.203-20.637-13.383-30.699-20.371
				C174.82,435.551,155.895,423.746,137.77,420.352z"/>
			<path fill="#99CC33" d="M210.227,248.57c-15.746-13.703-33.941-22.605-55.957-24.02c-16.141-1.031-41.328-0.563-38.402,22.113
				c0.035,0.238-0.395,0.305-0.438,0.059c-3.379-18.066,12.367-24.555,28.035-25.301c20.93-1.012,41.496,4.445,59.484,14.871
				c-5.672-9.047-10.906-18.941-18.234-26.766c-7.5-8.023-16.738-13.34-25.348-19.992c-24.523-18.926-36.945-41.363-31.023-72.055
				c-0.348-2.77,7.125-25.242,13.238-31.945c-16.02,13.629-27.844,33.52-31.672,53.637c-2.57,13.543-2.652,28.301,4.301,40.723
				c8.734,15.605,21.68,22.883,38.031,28.449c0.91,0.309,1.148,1.836,0,2.102c-11.762,2.773-26.891,0.113-37.793,7.313
				c-21.25,14.027-12.109,41.262,8.305,48.266c-1.949-9.121-3.645-21.215,4.598-25.355c14.406-7.242,38.691,8.621,40.602,38.473
				c2.164,33.738,64.469,62.602,67.359,1.676C232.207,270.305,219.184,256.359,210.227,248.57z"/>
		</g>
	</g>
	<g id="tronco">
		<linearGradient id="troncoe_1_" gradientUnits="userSpaceOnUse" x1="252.0879" y1="229.1377" x2="269.788" y2="556.5858">
			<stop  offset="0" style="stop-color:#6E6831"/>
			<stop  offset="0.022" style="stop-color:#6C652F"/>
			<stop  offset="0.2557" style="stop-color:#5D4A1E"/>
			<stop  offset="0.4939" style="stop-color:#523711"/>
			<stop  offset="0.7374" style="stop-color:#4B2C09"/>
			<stop  offset="0.9939" style="stop-color:#492807"/>
		</linearGradient>
		<path id="troncoe" fill="url(#troncoe_1_)" d="M299.902,440.805c-1.652,3.426-3.831,6.749-3.762,10.344
			c0.322,16.736,44.094,104.862,45.23,135.941C332.852,595.336,313,600,297.742,600c-15.617-0.008-43.715-7.164-48.969-12.91
			c-7.873-23.746-6.736-121.787-7.87-126.709c-2.184-9.483-35.528-33.325-67.419-53.881c-10.375-6.688-27.055-9.134-30.298-10.417
			c-0.375-0.148-6.199-2.15-5.786-2c6.184,2.25,24.478,5.479,31.412,8.917c33.013,16.369,72.464,41.526,71.257,35.184
			c-1.05-5.516,4.43-130.704,5.603-142.923c1.561-16.259-41.318-60.288-41.318-60.288s43.879,41.949,45.212,35.028
			c2.798-14.521,6.58-29.163,10.833-42.888c10.001-32.279,20.385-45.469,28.501-57.446c-6.539,14.161-16.916,29.418-20.601,58.51
			c-6.5,51.32,0.428,111.876,3.021,114.121c2.682,2.323,49.053-41.166,75.58-65.631c0.148-0.141,1.66-0.466,1.5-0.333
			c-23.785,21.629-44.624,42.459-57.015,64.775c-6.938,12.48-10.512,25.078-11.898,37.688c-0.629,5.598,1.746,32.541,7.246,37.208
			c5.129,4.353,62.422-20.243,94.23-33.411c1.16-0.48,3.82-0.063,2.84,0.441C349.336,400.742,309.457,420.957,299.902,440.805z"/>
		<linearGradient id="troncoc_1_" gradientUnits="userSpaceOnUse" x1="283.6309" y1="224.1787" x2="307.0821" y2="566.4218">
			<stop  offset="0" style="stop-color:#746E39"/>
			<stop  offset="0.2393" style="stop-color:#645327"/>
			<stop  offset="0.4823" style="stop-color:#59401B"/>
			<stop  offset="0.7314" style="stop-color:#523513"/>
			<stop  offset="0.9939" style="stop-color:#503111"/>
		</linearGradient>
		<path id="troncoc" fill="url(#troncoc_1_)" d="M251.629,418.094c1.828,70.77,11.172,130.992,19.227,170.277
			c2.523,7.684,16.613,11.648,26.887,11.629c11.996-0.023,35.465-5.371,39.93-11.73c-15.738-40.352-36.199-85.203-51.781-136.652
			c3.152-8.113,8.543-15.383,14.207-21.836c11.191-12.777,26.662-19.759,41.861-27.114c0.172-0.074-0.056-1.259-0.22-1.19
			c-18.613,7.773-32.905,13.023-43.359,22.656c-3.432,3.162-15.522,12.88-18.754,16.492c-5.695-19.934-7.168-39.566-10.723-61.57
			c0.395-1.77,0.836-3.516,1.348-5.18c6.52-21.129,19.412-38.469,33.818-55.035c0.113-0.133,0.129-0.129,0,0
			c-14.84,13.941-28.064,28.012-37.248,46.125c-6.777-51.242-12.32-110.045,8.605-172.539
			c-25.697,76.746-25.09,150.453-23.98,216.824C251.188,412.309,251.238,415.266,251.629,418.094z"/>
		<linearGradient id="troncosc_1_" gradientUnits="userSpaceOnUse" x1="285.5127" y1="222.9717" x2="309.0067" y2="565.8402">
			<stop  offset="0" style="stop-color:#918C63"/>
			<stop  offset="0.1478" style="stop-color:#897E5A"/>
			<stop  offset="0.4202" style="stop-color:#7E6B4D"/>
			<stop  offset="0.6996" style="stop-color:#776046"/>
			<stop  offset="0.9939" style="stop-color:#755C43"/>
		</linearGradient>
		<path id="troncosc" fill="url(#troncosc_1_)" d="M282.57,589.727c3.348,8.832,9.664,9.555,14.977,9.824
			c7.332,0.371,34.234-3.496,32.086-8.516c-15.738-40.34-34.582-87.203-50.164-138.648c3.16-8.117,13.687-17.551,19.348-24.008
			c11.199-12.774,26.867-18.297,42.066-25.652c0.172-0.074-2.76,0.87-2.924,0.94c-17.426,7.992-28.845,12.349-42.833,25.708
			c-3.375,3.223-13.375,13.375-17.793,17.238c-5.691-19.934-8.551-43.355-12.109-65.363c0.398-1.777,0.836-3.516,1.352-5.176
			c6.52-21.129,23.087-40.668,37.494-57.234c0.113-0.133,0.129-0.129,0,0c-14.84,13.941-31.185,35.887-40.361,54.016
			c-5.414-40.866-7.641-90.414,1.527-142.854c2.329-13.319,8.414-24.641,12.167-38.834c-3.896,11.279-8.869,13.628-13.5,37.5
			C245.003,326.086,254.16,497.553,282.57,589.727z"/>
	</g>
</g>
<path id="grass_1_" fill-rule="evenodd" clip-rule="evenodd" fill="#999933" stroke="#000000" stroke-width="0.25" stroke-miterlimit="10" d="
	M567.841,600H108.962h-8.018H32.159c0.638-24.549,12.255-38.568,35.849-55.403c-11.822,11.528-18.741,15.896-22.718,26.912
	c4.462,1.219,7.722,3.813,8.824,6.53c1.161-0.77,2.374-1.449,3.635-2.053c-1.588-2.766-3.806-5.419-6.782-8.281
	c2.262,1.449,5.332,4.2,7.908,7.77c2.188-0.953,4.5-1.689,6.899-2.281c-1.988,1.32-3.87,2.717-5.598,4.227
	c2,3.248,3.481,7.021,3.655,11.023c1.782-5.042,3.649-9.195,6.51-12.91c-0.942-4.917-1.987-9.825-3.079-14.852
	c1.967,4.428,3.575,8.503,4.976,12.618c1.717-1.845,3.752-3.593,6.234-5.311c-2.125,2.11-4.048,4.341-5.766,6.706
	c0.679,2.069,1.313,4.16,1.917,6.319c1.396-0.657,2.872-1.085,4.442-1.236c0.475-0.043,0.926-0.058,1.354-0.045
	c4.092-10.496,9.372-19.393,15.139-29.773c-6.303,13.507-9.267,19.855-10.138,31.968c0.931,1.282,0.89,2.837-0.202,3.85
	c-0.058,1.647-0.086,3.399-0.086,5.287l9.058-8.262c-0.201-0.311-0.404-0.623-0.61-0.936c0.259,0.262,0.517,0.525,0.771,0.79
	l9.398-8.57l-1.482,1.781c0.562,2.868,1.229,5.773,1.699,8.727c0.317-0.37,0.646-0.765,0.993-1.183
	c0.537-4.282,0.603-8.426,0.234-12.833c-2.215,1.526-4.618,4.305-7.189,8.599c2.075-6.062,4.426-9.744,6.877-11.61
	c-0.494-4.015-1.319-8.304-2.448-13.14c1.869,4.278,3.562,8.063,5.02,11.83c2.839-0.77,5.729,0.552,8.414,3.152
	c1.025-0.181,2.076-0.088,3.105,0.26c0.476-2.722,0.588-5.978,0.588-10.774c1.006,4.525,1.72,8.455,2.196,12.376
	c1.039,0.865,2.014,2.007,2.87,3.399c3.044-12.877,10.769-22.467,24.032-22.731c-1.542-8.205-4.072-16.405-6.76-24.317
	c9.46,20.638,12.707,33.652,16.384,57.187c0-29.858,3.737-34.694,18.615-58.978c-10.103,22.734-11.802,28.887-10.424,54.511
	c7.938-11.116,12.859-14.867,23.828-21.446c-7.12,6.644-10.461,9.652-12.289,14.396c3.029-2.771,6.239-2.634,9.293-0.677
	c4.994-8.824,8.779-17.964,13.421-29.803c-3.118,11.227-6.761,21.142-8.313,31.871c2.047,0.559,4.038,2.117,5.667,4.529l0.917-1.464
	c2.854-10.045,8.756-17.758,18.155-20.012c0.462-1.663,0.944-3.357,1.446-5.096c-0.302,1.737-0.573,3.382-0.813,4.955
	c1.651-0.347,3.406-0.53,5.271-0.53c-1.954,0.138-3.722,0.441-5.326,0.892c-0.759,5.029-1.206,9.313-1.349,13.45
	c1.17-0.314,2.35-0.322,3.518,0.024c0.432-1.897,1.039-3.872,1.857-5.987c-0.526,2.176-0.908,4.24-1.159,6.234
	c1.385,0.585,2.753,1.693,4.072,3.419c1.431-7.424,4.391-13.877,10.915-16.485c-6.511,3.552-8.859,10.582-9.699,18.274
	c1.164,1.919,2.281,4.369,3.328,7.423c-1.218-2.032-2.398-3.723-3.538-5.102c-0.377,5.201-0.202,10.573-0.259,15.276
	c2.025-5.381,6.877-17.679,12.666-20.69c6.752-15.303,13.929-29.308,22.96-44.386c-8.416,18.073-12.817,29.123-15.588,46.385
	c1.046,1.204,2.097,2.853,3.143,5.026c-1.152-1.692-2.266-2.938-3.335-3.801c-0.496,3.242-0.94,6.704-1.347,10.473l3.501,0.931
	c2.743-5.684,5.029-9.737,9.229-14.5c-3.488,5.094-5.246,9.066-7.365,14.999l0.187,0.051c2.157-3.245,4.077-5.272,7.644-7.352
	c-2.759,2.693-4.151,5.071-5.285,7.98l5.495,1.464c0.748-15.561-0.438-30.944-2.234-46.468c3.73,15.973,6.868,32.005,8.191,48.256
	c2.433-15.085,3.413-28.866,2.234-43.787c2.553,11.383,4.149,22.619,3.957,35.603c2.293-5.38,4.944-7.364,7.582-7.148
	c5.57-8.734,10.521-13.155,22.715-19.518c-10.711,9.182-14.209,12.496-17.041,21.928c1.94,0.131,3.896,1.518,5.379,3.928
	c1.905-8.057,6.297-14.364,13.568-16.192c0.244-4.727,0.327-9.622,0.327-15.024c0.688,5.163,1.277,9.945,1.703,14.643
	c0.802-0.104,1.634-0.159,2.498-0.159c-0.878,0.063-1.704,0.17-2.483,0.321c0.311,3.475,0.532,6.906,0.638,10.417
	c1.219,0.501,2.417,1.55,3.56,3.264c4.694-10.52,9.168-16.123,18.658-25.805c-11.026,13.233-12.217,16.388-14.893,34.851
	l4.468,2.681c1.079-2.592,2.259-5.046,3.517-7.388c-2.751-1.301-1.452-4.832,2.553-4.441c1.27-2.072,2.6-4.066,3.972-5.997
	c-0.44-0.65-0.902-1.29-1.384-1.924c0.576,0.537,1.112,1.075,1.61,1.608c1.024-1.429,2.071-2.826,3.136-4.199
	c-0.497,1.806-1.216,3.63-1.987,5.507c3.031,3.679,4.451,7.409,5.565,12.104l0.506-0.393c1.006-3.706,3.558-6.77,6.108-8.889
	c-0.626-1.781-1.327-3.547-2.075-5.231c-1.637,1.611-3.365,3.884-5.176,6.908c1.327-3.876,2.767-6.777,4.273-8.854
	c-4.912-10.14-11.209-16.053-11.493-1.872c-0.767-15.178,6.524-9.76,12.813,0.274c3.278-3.435,6.799-3.323,10.122-1.078
	c1.03-7.844,1.007-15.76-0.04-27.069c2.301,10.586,3.779,18.942,4.277,28.834c0.56,0.095,1.116,0.267,1.666,0.512
	c3.103-17.766,1.214-29.354-2.22-48.111c6.361,15.378,9.094,28.972,10.079,44.568c4.109-8.659,11.218-14.448,21.74-14.448
	c-14.405,1.017-18.735,10.946-21.354,23.641c0.076,3.234,0.099,6.574,0.082,10.045c0.013,0.13,0.022,0.259,0.034,0.392
	c2.287-6.636,5.774-13.046,9.679-16.745c0.205-0.401,0.41-0.801,0.619-1.197c-2.315,0.658-4.814,2.695-7.489,6.618
	c3.104-6.444,6.234-9.289,9.251-9.76c3.466-5.815,7.675-10.755,13.017-13.996c-1.539-1.811-3.399-3.366-5.651-4.595
	c2.488,0.996,4.568,2.432,6.313,4.206c2.38-1.356,4.977-2.385,7.83-3.005c9.061-1.975,15.729,0.538,17.654,16.273
	c-4.155-11.22-9.494-13.568-15.642-12.006c-2.521,0.642-4.796,1.512-6.849,2.59c5.148,8.367,5.974,20.827,6.419,31.805
	c0.601,1.006,1.154,2.056,1.649,3.155c0.202-0.938,0.393-1.863,0.571-2.777l-0.473-15.206c0.521,2.688,1.144,5.409,1.616,8.171
	c0.973-7.868,0.754-15.429-1.438-24.484c2,5.172,3.013,9.693,3.364,14.09c1.178,2.659,2.272,5.438,3.252,8.397
	c0.407-1,0.764-1.701,1.023-1.892c-0.307,0.788-0.6,1.572-0.874,2.348c0.747,2.307,1.424,4.723,2.01,7.277
	c0.644-0.415,1.312-0.774,1.996-1.082c0.812-2.03,1.666-3.659,2.55-4.938c1.881-5.28,3.729-10.014,6.083-14.59
	c-1.309-0.369-2.752-0.616-4.347-0.729c1.588,0,3.081,0.162,4.479,0.469c2.281-4.393,5.04-8.646,8.757-13.107
	c-2.477,5.645-4.132,10.08-5.239,14.264c3.494,1.57,6.26,4.204,8.348,7.557c1.124-1.003,2.395-1.913,3.9-2.819
	c-4.653-3.887-0.165-11.62,10.336-8.828c5.68,1.511,10.313,5.19,14.3,10.141c0.9-1.143,1.846-2.27,2.851-3.396
	c-3.236-9.262-7.909-17.751-13.963-25.7c8.221,7.687,12.843,15.026,15.999,23.515c1.56-1.607,3.264-3.226,5.169-4.903
	c-1.389,1.819-3.046,3.87-4.739,6.085c1.358,3.856,2.443,7.96,3.446,12.442c1.537-9.561,7.652-17.517,13.974-23.013
	c-1.401-4.752-3.327-9.678-5.979-15.173c3.597,5.275,6.245,9.49,8.221,13.329c3.099-2.409,6.123-4.201,8.554-5.271
	c-3.043,2.171-5.676,4.302-7.949,6.477c2.471,5.07,3.773,9.591,4.575,15.228c3.281-1.311,6.459-1.835,9.367-1.787
	c5.479-10.795,12.377-15.137,27.868-26.19c-11.822,11.528-18.741,15.896-22.718,26.912c4.462,1.219,7.723,3.813,8.826,6.53
	c1.158-0.77,2.374-1.449,3.632-2.053c-1.587-2.766-3.803-5.419-6.781-8.281c2.262,1.449,5.332,4.2,7.908,7.77
	c2.188-0.953,4.501-1.689,6.899-2.281c-1.989,1.32-3.869,2.717-5.599,4.227c2.001,3.248,3.483,7.021,3.656,11.023
	c1.782-5.042,3.648-9.195,6.51-12.91c-0.942-4.917-1.985-9.825-3.078-14.852c1.967,4.428,3.574,8.503,4.976,12.618
	c1.716-1.845,3.751-3.593,6.233-5.311c-2.125,2.11-4.048,4.341-5.766,6.706c0.681,2.069,1.313,4.16,1.917,6.319
	c1.396-0.657,2.874-1.085,4.443-1.236c0.475-0.043,0.925-0.058,1.354-0.045c4.09-10.496,9.371-19.393,15.138-29.773
	c-6.304,13.507-9.265,19.855-10.138,31.968c0.93,1.282,0.89,2.837-0.202,3.85c-0.057,1.647-0.085,3.399-0.085,5.287l18.616-16.978
	l-13.403,16.085c10.158,0,10.615-2.016,17.872-10.725C564.865,589.49,563.293,591.267,567.841,600L567.841,600z M97.899,589.318
	c-0.828-1.675-1.74-3.323-2.724-4.94l-4.828,5.794C93.744,590.172,96.055,589.945,97.899,589.318L97.899,589.318z M95.545,583.934
	c1.368,1.503,2.655,3.072,3.809,4.762c1.138-0.604,2.131-1.424,3.19-2.522l-0.319-10.257L95.545,583.934L95.545,583.934z
	 M58.999,578.488c-1.64,1.548-3.121,3.213-4.398,5.022c2.311,2.111,4.534,5.064,6.444,9.093
	C61.275,586.902,60.714,582.492,58.999,578.488L58.999,578.488z M53.328,585.482c-1.454,2.47-2.549,5.202-3.191,8.263h0.193
	c3.665-2.811,6.062-1.629,8.849-0.236C57.377,590.029,55.372,587.409,53.328,585.482L53.328,585.482z M51.381,593.745h5.237
	C55.131,593.115,53.476,593.045,51.381,593.745L51.381,593.745z M65.498,593.745h7.723c-0.346-2.899-0.745-5.748-1.189-8.565
	C69.375,587.323,67.125,590.259,65.498,593.745L65.498,593.745z M71.649,582.821c-0.289-1.742-0.596-3.475-0.916-5.204
	c-2.315,3.689-4.176,7.703-5.573,12.098C67.161,586.99,69.292,584.588,71.649,582.821L71.649,582.821z M75.194,583.109
	c0.6,2.248,1.176,4.585,1.749,7.063c0.841-3.028,1.774-5.887,2.79-8.628C78.159,581.832,76.637,582.363,75.194,583.109
	L75.194,583.109z M49.06,582.409c-2.227-1.15-4.357-1.59-6.169-1.553c-0.358,2.02-0.673,4.218-0.946,6.635l-0.504,8.241l2.737-5.561
	C45.516,587.088,47.163,584.535,49.06,582.409L49.06,582.409z M43.24,579.023c2.227-0.137,4.817,0.329,7.451,1.716
	c0.559-0.521,1.135-1.015,1.728-1.478C49.907,573.725,44.618,572.227,43.24,579.023L43.24,579.023z M491.022,590.425
	c0.367-0.346,0.741-0.679,1.122-1.008c-0.328,1.102-0.662,2.246-1.002,3.436L491.022,590.425L491.022,590.425z M492.629,587.8
	c-0.579,0.202-1.148,0.428-1.704,0.688c-0.235-4.627-0.468-8.516-0.807-11.952c2.534-1.221,4.985-1.937,7.271-2.257
	C495.805,577.962,494.284,582.349,492.629,587.8L492.629,587.8z M485.924,592.307c-0.344,0.416-0.674,0.869-0.989,1.355
	c-0.052-0.584-0.065-1.178-0.048-1.786c0.339,0.112,0.685,0.24,1.037,0.387V592.307L485.924,592.307z M485.018,590.127
	c0.161-1.347,0.451-2.741,0.84-4.168c0.029,1.507,0.048,3.057,0.058,4.658C485.614,590.435,485.315,590.273,485.018,590.127
	L485.018,590.127z M485.831,584.669c-0.55,1.614-1.122,3.428-1.646,5.099c-0.613-0.23-1.216-0.384-1.81-0.475
	c-0.135-2.259-0.471-4.482-0.878-6.682c1.376-1.306,2.756-2.438,4.126-3.413C485.718,580.968,485.784,582.787,485.831,584.669
	L485.831,584.669z M483.634,591.527c-0.472,1.504-0.869,2.752-1.125,3.419l-0.274-0.049l0.002-0.007
	c0.145-1.198,0.205-2.385,0.203-3.563C482.831,591.371,483.228,591.438,483.634,591.527L483.634,591.527z M480.622,578.237
	c-0.182-0.878-0.363-1.755-0.531-2.626l0.094,3.017c-1.962,1.772-3.904,3.892-5.793,6.406c-0.559-0.647-1.133-1.278-1.72-1.901
	c3.257-4.026,6.363-8.18,9.534-12.621c-3.36,3.396-6.21,6.191-8.982,8.591c1.577-7.838,4.489-13.835,9.504-19.354
	c1.348,4.989,2.132,9.839,2.587,15.014C483.75,575.72,482.18,576.871,480.622,578.237L480.622,578.237z M480.344,583.749
	l0.169,5.449c-0.895,0.04-1.785,0.193-2.686,0.41c-0.363-0.566-0.74-1.121-1.13-1.663
	C477.902,586.398,479.12,585.003,480.344,583.749L480.344,583.749z M480.578,591.292l0.105,3.341l-0.266-0.046
	c-0.432-1.06-0.915-2.07-1.444-3.044C479.5,591.417,480.034,591.332,480.578,591.292L480.578,591.292z M472.499,583.495
	c0.471,0.747,0.924,1.498,1.361,2.259c-0.629,0.87-1.255,1.784-1.871,2.747C472.12,586.751,472.29,585.088,472.499,583.495
	L472.499,583.495z M475.727,589.23c0.139,0.281,0.275,0.561,0.409,0.842c-0.426,0.128-0.857,0.264-1.293,0.398
	C475.137,590.047,475.432,589.635,475.727,589.23L475.727,589.23z M477.087,592.181c0.278,0.651,0.543,1.31,0.795,1.973l-3.36-0.577
	C475.38,593.021,476.23,592.55,477.087,592.181L477.087,592.181z M408.84,588.996c0.137,0.68,0.267,1.37,0.39,2.068
	c0.449-1.284,0.882-2.534,1.303-3.753C409.951,587.851,409.385,588.412,408.84,588.996L408.84,588.996z M411.288,585.131l0.135-0.39
	c-0.109,0.15-0.221,0.307-0.331,0.466L411.288,585.131L411.288,585.131z M405.853,592.853c0.318-0.501,0.65-0.986,0.995-1.454
	c0.056,0.492,0.104,0.976,0.147,1.454H405.853L405.853,592.853z M406.421,588.105c-0.791,0.742-1.529,1.616-2.202,2.656
	c-0.23-2.642,0.275-5.547,1.174-8.593C405.792,584.204,406.139,586.186,406.421,588.105L406.421,588.105z M405.242,581.398
	c-1.857,5.388-4.057,13.402-3.721,10.59c0.169-1.408,0.224-2.804,0.196-4.186c0.965-5.943,1.577-11.094,1.267-16.366
	C403.828,574.85,404.595,578.186,405.242,581.398L405.242,581.398z M394.867,583.57c-1.281-1.611-2.675-3.126-4.127-4.595
	c1.524,2.302,2.914,4.657,4.132,7.075c-0.003,2.338-0.019,4.622,0.002,6.802h-0.229c-1.431-3.772-3.79-9.71-6.755-15.025
	l0.185-0.098c0.59,0.847,1.187,1.772,1.794,2.788c-0.382-1.112-0.771-2.141-1.17-3.095c1.182-0.561,2.551-1.074,4.149-1.55
	c-1.769,0.021-3.294,0.168-4.631,0.435c-2.604-5.758-5.532-8.402-8.492-8.854c2.416-4.671,5.851-8.498,10.523-11.191
	C394.293,563.824,394.816,574.01,394.867,583.57L394.867,583.57z M517.877,578.488c-1.641,1.548-3.122,3.213-4.399,5.022
	c2.312,2.111,4.533,5.064,6.444,9.093C520.153,586.902,519.592,582.492,517.877,578.488L517.877,578.488z M512.206,585.482
	c-1.454,2.47-2.548,5.202-3.192,8.263h0.194c3.667-2.811,6.063-1.629,8.849-0.236C516.255,590.029,514.249,587.409,512.206,585.482
	L512.206,585.482z M510.259,593.745h5.238C514.01,593.115,512.354,593.045,510.259,593.745L510.259,593.745z M524.375,593.745h7.724
	c-0.346-2.899-0.744-5.748-1.188-8.565C528.255,587.323,526.004,590.259,524.375,593.745L524.375,593.745z M530.529,582.821
	c-0.292-1.742-0.598-3.475-0.919-5.204c-2.313,3.689-4.175,7.703-5.572,12.098C526.039,586.99,528.17,584.588,530.529,582.821
	L530.529,582.821z M534.073,583.109c0.6,2.248,1.176,4.585,1.749,7.063c0.841-3.028,1.774-5.887,2.789-8.628
	C537.037,581.832,535.515,582.363,534.073,583.109L534.073,583.109z M507.94,582.409c-2.229-1.15-4.359-1.59-6.171-1.553
	c-0.357,2.02-0.672,4.218-0.946,6.635l-0.504,8.241l2.737-5.561C504.394,587.088,506.042,584.535,507.94,582.409L507.94,582.409z
	 M502.118,579.023c2.229-0.137,4.817,0.329,7.452,1.716c0.559-0.521,1.135-1.015,1.727-1.478c-1.025-2.262-3.976-4.268-8.038-4.943
	C502.841,575.768,502.461,577.329,502.118,579.023L502.118,579.023z M435.871,571.051c2.221-1.253,4.929-2.546,8.358-4.113
	c-2.656,2.126-4.815,3.83-6.637,5.419c0.956,0.552,2.134,1.017,3.538,1.339c-1.633-0.087-3.006-0.379-4.129-0.817
	c-1.729,1.548-3.143,3.017-4.392,4.693c0.882,1.948,1.584,4.064,2.112,6.302c1.953-3.17,4.642-4.746,7.164-4.305
	c3.801-3.674,8.1-4.229,11.816,1.804c1.226-2.007,2.455-3.89,3.754-5.704c-3.817-4.815-8.583-8.416-13.941-10.273
	C435.274,562.539,432.348,567.501,435.871,571.051L435.871,571.051z M462.876,571.138c-0.771,1.063-1.534,2.153-2.266,3.264
	c1.88,2.522,3.615,5.319,5.253,8.295C465.097,578.709,464.101,574.859,462.876,571.138L462.876,571.138z M458.756,577.41
	c-1.396,2.432-2.564,4.938-3.291,7.444c0.351,0.826,0.692,1.728,1.028,2.703c-0.418-0.697-0.828-1.345-1.234-1.944
	c-0.387,1.523-0.604,3.05-0.604,4.559c3.359-1.346,6.207-2.681,8.776-4.12C462.163,582.915,460.589,580.012,458.756,577.41
	L458.756,577.41z M465.312,591.704l-0.232,0.255l0.313,0.053L465.312,591.704L465.312,591.704z M319.841,585.139
	c0.567-1.048,1.151-2.07,1.748-3.074C318.684,581.573,317.954,583.78,319.841,585.139L319.841,585.139z M327.28,576.715
	c-0.694,1.685-1.412,3.417-2.034,5.22c2.727,1.36,4.843,3.979,6.664,7.134l0.229-0.177
	C331.187,584.468,329.558,580.448,327.28,576.715L327.28,576.715z M324.792,583.319c-1.118,3.632-1.754,7.576-0.991,12.03
	l6.919-5.359C329.304,587.094,327.25,584.755,324.792,583.319L324.792,583.319z M336.123,585.806l0.132-0.103l-0.214,0.358
	c-0.567,1.806-0.907,3.84-1.089,6.227c2.146-3.343,4.51-5.372,6.792-6.487c-0.445-2.044-1.053-4.18-1.771-6.299
	C338.148,581.391,336.922,583.39,336.123,585.806L336.123,585.806z M331.897,593.006l-1.073,1.799l1.525-0.021
	C332.222,594.178,332.072,593.584,331.897,593.006L331.897,593.006z M335.652,594.735l6.56-0.096l0.02-0.065
	C339.475,592.876,337.652,593.32,335.652,594.735L335.652,594.735z M342.306,594.312l0.225-0.787
	c0.113-1.762-0.061-3.824-0.452-6.034c-1.947,1.086-3.979,2.88-5.897,5.646C338.228,592.495,339.989,591.951,342.306,594.312
	L342.306,594.312z M342.154,577.513c0.571-0.465,1.183-0.93,1.84-1.396c-0.594,0.262-1.272,0.622-1.991,1.078
	c-0.826-1.723-1.721-3.421-2.653-5.034c3.152-2.332,5.931-2.152,8.273-0.21c-1.853,1.358-3.478,3.815-4.579,7.518
	C342.758,578.814,342.46,578.161,342.154,577.513L342.154,577.513z M422.47,567.439c-0.828,3.251-1.327,6.378-1.629,9.827
	c1.706,0.69,3.38,2.131,4.932,4.048c1.208-2.21,2.386-3.948,3.75-5.438C427.977,572.249,425.802,569.307,422.47,567.439
	L422.47,567.439z M420.663,579.733c-0.221,3.746-0.263,7.951-0.263,13.119c1.591-3.643,2.887-6.589,4.085-9.033
	C423.392,581.824,422.112,580.392,420.663,579.733L420.663,579.733z M430.975,580.054c-0.873,1.494-1.689,3.197-2.519,5.24
	c1.313,2.293,2.471,4.874,3.4,7.508l0.145,0.044c0.142-1.603,0.413-3.082,0.788-4.429
	C432.274,585.471,431.713,582.652,430.975,580.054L430.975,580.054z M426.796,589.77c-0.146,0.422-0.291,0.853-0.438,1.295
	l0.84,0.267C427.071,590.799,426.936,590.276,426.796,589.77L426.796,589.77z M438.16,594.791l2.346,0.741l0.521-10.606
	C439.783,587.572,438.818,590.984,438.16,594.791L438.16,594.791z M442.326,582.6l4.882,10.253c2.076-3.824,3.919-7.173,5.74-10.228
	c-3.44-3.79-6.414-4.069-8.825-2.072c1.763,1.293,3.275,3.806,4.153,7.725c-1.622-3.955-3.383-6.024-5.097-6.796
	C442.885,581.818,442.601,582.194,442.326,582.6L442.326,582.6z M435.638,589.218c-0.093-0.824-0.206-1.638-0.337-2.438
	c1.171-2.563,2.959-4.778,4.988-5.451C438.55,583.48,436.958,586.238,435.638,589.218L435.638,589.218z M343.215,579.862
	c0.676,1.572,1.282,3.143,1.793,4.67c0.996-3.813,1.8-7.27,2.419-10.616C346.004,575.031,344.577,576.939,343.215,579.862
	L343.215,579.862z M352.542,572.981l0.008,0.22c0.323,0.414,0.458,5.849,0.772,6.293c0.062-0.309,0.308-5.627,0.367-5.931
	C353.316,573.326,352.933,573.131,352.542,572.981L352.542,572.981z M362.397,591.724c-0.022,1.541-0.048,3.105-0.078,4.702
	c0.484-1.503,0.979-3.025,1.484-4.561L362.397,591.724L362.397,591.724z M387.218,576.542c-0.101-0.137-0.203-0.268-0.304-0.399
	l0.246,0.412L387.218,576.542L387.218,576.542z M176.823,577.595c-0.606,3.112-0.975,7.062-1.412,12.577
	c4.188-5.308,7.568-10.219,10.509-15.159C183.332,573.528,180.277,574.102,176.823,577.595L176.823,577.595z M192.131,576.874
	l-0.043,0.368c1.297,1.685,2.519,3.637,3.634,5.747l0.999-1.596C195.472,579.323,193.885,577.635,192.131,576.874L192.131,576.874z
	 M191.676,583.274c-0.049,1.957-0.016,3.954,0.116,6.004l1.198-1.917C192.597,585.908,192.158,584.54,191.676,583.274
	L191.676,583.274z M201.101,583.824c0.316,1.758,0.902,2.907,1.98,3.982c2.642-6.419,6.327-12.203,10.302-14.951
	c1.025-4.837,2.245-9.617,3.651-14.69C206.424,561.534,203.317,571.708,201.101,583.824L201.101,583.824z M207.237,590.831
	c0.92,0.586,1.971,1.244,3.173,2.021c0.484-5.532,1.178-10.561,2.071-15.427C210.187,580.377,208.414,585.155,207.237,590.831
	L207.237,590.831z M216.333,574.485c0.012,6.513,0.783,13.028,2.268,21.94l2.389-0.573l-0.044-0.638
	c-1.411-8.16-2.524-14.152-1.597-20.781C218.289,574.162,217.283,574.189,216.333,574.485L216.333,574.485z M220.302,574.757
	c-0.444,6.893,0.614,13.175,2.381,20.69l0.362-0.088c0.251-5.382,0.323-11.764,1.2-17.747
	C222.866,576.216,221.55,575.281,220.302,574.757L220.302,574.757z M108.53,569.169c0.581,1.656,1.115,3.332,1.598,5.07
	c0.88-1.619,1.902-2.818,3.005-3.627C111.748,569.461,110.208,568.93,108.53,569.169L108.53,569.169z M110.441,575.407
	c0.683,2.633,1.246,5.428,1.674,8.508c2.147-3.35,3.685-5.791,4.782-8.007c-0.782-1.655-1.653-3.062-2.609-4.16
	C113.009,572.322,111.708,573.487,110.441,575.407L110.441,575.407z M118.366,572.256c0.043-0.143,0.083-0.283,0.124-0.427
	c-0.221-0.105-0.444-0.195-0.67-0.271C118.004,571.784,118.185,572.016,118.366,572.256L118.366,572.256z M122.151,575.14
	c0.099,1.208,0.177,2.432,0.237,3.69c0.389,0.776,0.764,1.57,1.122,2.377c0.111-1.009,0.25-2.003,0.41-2.982
	C123.417,577.123,122.82,576.074,122.151,575.14L122.151,575.14z M127.307,578.469c5.599-8.043,11.343-14.766,18.317-22.254
	c-2.897,4.813-5.158,8.411-6.912,12.131c1.902-1.529,3.883-2.388,5.858-2.3c0.32-1.123,0.665-2.313,1.054-3.576
	c-0.122,1.225-0.252,2.438-0.386,3.643c1.667,0.257,3.323,1.206,4.918,3.018c0.18-5.654-0.412-11.402-1.49-17.151
	C133.648,553.304,129.864,564.586,127.307,578.469L127.307,578.469z M135.271,578.879c-0.312,1.538-0.582,3.204-0.816,5.036
	c5.87-4.4,7.44-8.538,9.242-14.788C140.157,569.374,137.302,573.175,135.271,578.879L135.271,578.879z M144.901,569.176
	c-0.842,7.608-1.577,14.982-0.766,22.783c3.524-6.346,5.302-13.034,5.857-19.894C148.179,570.333,146.478,569.411,144.901,569.176
	L144.901,569.176z M269.452,585.685c-0.038,1.759-0.109,3.552-0.216,5.38c2.421-4.357,4.431-7.981,6.301-11.093
	C273.707,580.545,271.67,582.337,269.452,585.685L269.452,585.685z M281.752,583.493c-0.662,2.636-1.329,5.697-2.091,9.359
	l5.247,0.251C284.202,589.252,283.136,585.882,281.752,583.493L281.752,583.493z M294.258,593.551l4.02,0.194
	c0.998-4.794,1.742-9.214,2.29-13.524C297.573,581.755,295.407,586.998,294.258,593.551L294.258,593.551z M300.855,577.814
	c0.366-3.278,0.624-6.521,0.801-9.844c-8.041,2.621-10.169,10.608-11.812,19.974c0.359,1.285,0.611,2.708,0.731,4.255
	C292.857,585.582,296.76,579.264,300.855,577.814L300.855,577.814z M304.41,580.246c0.046,3.193-0.006,6.469-0.175,9.926
	c1.079-2.849,2.09-5.382,3.081-7.68C306.3,581.418,305.33,580.681,304.41,580.246L304.41,580.246z M287.284,588.664
	c0.082-0.74,0.182-1.472,0.301-2.192c-1.054-2.308-2.662-4.302-4.488-4.908C284.662,583.505,286.093,585.983,287.284,588.664
	L287.284,588.664z M378.348,570.472c-2.368,5.926-3.373,12.948-3.373,20.593c3.389-6.492,5.183-10.977,9.248-13.31
	C382.498,574.606,380.536,571.965,378.348,570.472L378.348,570.472z M385.2,579.632c-3.486,2.979-4.451,7.091-6.5,13.221h11.584
	C388.991,588.735,387.291,583.875,385.2,579.632L385.2,579.632z M229.044,593.92l0.726-0.175c2.028-5.126,4.043-10.038,6.08-14.807
	C232.877,582.762,230.59,589.003,229.044,593.92L229.044,593.92z"/>
</svg>
