<?xml version="1.0" encoding="utf-8"?>
<!-- Generator: Adobe Illustrator 16.0.2, SVG Export Plug-In . SVG Version: 6.00 Build 0)  -->
<!DOCTYPE svg PUBLIC "-//W3C//DTD SVG 1.1//EN" "http://www.w3.org/Graphics/SVG/1.1/DTD/svg11.dtd">
<svg version="1.1" id="lay" xmlns="http://www.w3.org/2000/svg" xmlns:xlink="http://www.w3.org/1999/xlink" x="0px" y="0px"
	 width="600px" height="500px" viewBox="0 0 600 500" enable-background="new 0 0 600 500" xml:space="preserve">
<path id="sol" fill="#FF9900" d="M29.311,96.212c-16.418,45.104,6.842,94.979,51.945,111.393
	c45.105,16.418,94.979-6.836,111.396-51.941c16.414-45.105-6.842-94.977-51.947-111.398C95.602,27.849,45.727,51.108,29.311,96.212z
	"/>
<g id="arvore">
	<g id="lyr1t">
		<g id="lyr1m">
			<path id="lyr1" fill="#42210B" d="M285.797,321.034c-7.355,9.854-24.641,26.449-42.361,59.09
				c-17.725,32.641-68.439,116.016-68.439,116.016c13.139,7.059,70.934,2.844,95.555-0.129c0,0,12.658-34.367,31.928-91.352
				c8.754-25.893,21.205-46.73,29.521-61.955c7.973-14.602,16.105-28.896,30.354-59.045c14.287-30.232,31.756-95.006,33.42-108.523
				c1.947-15.84,4.631-39.766-0.156-61.102c-10.844-14.166-6.096,0.027-6.23,1.635c-0.488,5.855-15.911,56.818-19.547,67.369
				c-6.153,17.857-17.936,46.218-33.441,67.762C324.841,266.859,297.461,305.407,285.797,321.034z"/>
			
				<linearGradient id="lyr1n_1_" gradientUnits="userSpaceOnUse" x1="1136.333" y1="327.1211" x2="1330.9258" y2="327.1211" gradientTransform="matrix(1 0 0 1 -944.0469 0)">
				<stop  offset="0" style="stop-color:#42210B"/>
				<stop  offset="1" style="stop-color:#8C6239"/>
			</linearGradient>
			<path id="lyr1n" fill="url(#lyr1n_1_)" d="M369.286,214.229C360.667,231.864,310.66,298.578,296.25,321
				c-31.375,48.809-102.011,146.905-103.958,166.401c-0.258,2.6,9.285,0.443,10.271-1.977
				c12.598-30.871,99.097-159.979,100.187-161.675c1.336-2.078,31.879-45.134,36.223-49.411c0.451-0.438,4.992-5.172,4.764-4.816
				c-2.086,3.244-27.108,42.638-33.737,55.228c-28.094,47.223-92.917,130.993-99.828,160.21c-0.92,3.893,19.531,3.52,21.205,0.363
				c23.346-44.078,55.898-116.276,84.373-160.573c1.484-2.313,46.217-80.509,47.702-80.509c0.441,0-13.377,31.884-17.641,38.922
				c-5.326,8.793-21.898,40.26-25.354,46.23c-5.207,9.012-82.779,144.15-77.875,157.266c1.906,5.096,19.938,5.793,22.475-3.832
				c13.836-52.48,62.729-145.698,81.313-183.422c16.979-34.469,34.476-75.463,40.494-135.262
				C387.148,161.32,383.608,184.924,369.286,214.229z"/>
			
				<linearGradient id="lyr1e_1_" gradientUnits="userSpaceOnUse" x1="1756.9824" y1="-492.2778" x2="1764.0547" y2="-492.2778" gradientTransform="matrix(0.6089 0.7932 -0.7932 0.6089 -1050.9174 -988.7905)">
				<stop  offset="0" style="stop-color:#42210B"/>
				<stop  offset="1" style="stop-color:#8C6239"/>
			</linearGradient>
			<path id="lyr1e" fill="url(#lyr1e_1_)" d="M390.012,120.925l38.402-32.914l0.828,1.08l-35.355,34.34
				C393.887,123.431,390.838,124.825,390.012,120.925z"/>
		</g>
		<g id="lyf1">
			<g id="lyf1petalas">
				<path id="lyf1p5" fill="#FFCCCC" stroke="#000000" stroke-width="0.8316" stroke-miterlimit="10" d="M426.889,84.019
					c-4.203-0.041-12.479,0.834-17.063,2.973c-4.58,2.141-11.076,6.771-13.24,9.98c-2.164,3.207,0.764,5.824,0,8.082
					s-0.383,5.109,2.039,6.299c2.416,1.186,12.604,2.139,15.785,2.26c3.184,0.119,7.385-0.24,11.842-2.975
					c4.455-2.734,10.566-7.957,11.713-10.814c1.146-2.852,2.672-7.725,1.656-10.098C438.602,87.347,438.221,84.138,426.889,84.019z"
					/>
				<path id="lyf1p4" fill="#FFCCCC" stroke="#000000" stroke-width="0.8316" stroke-miterlimit="10" d="M429.688,83.425
					c-3.574-0.328-8.398-0.711-16.934-1.191c-8.529-0.471-16.805-4.271-21.008-5.461c-4.199-1.189-5.729-1.43-6.238-4.16
					s3.564-2.498,3.564-4.398s-0.889-5.82,3.188-7.484c4.07-1.666,12.473-4.045,17.439-1.781c4.967,2.256,8.273,3.209,12.986,6.414
					c4.713,3.211,7.641,6.891,9.17,11.055C433.381,80.573,440.262,84.401,429.688,83.425z"/>
				<path id="lyf1p3" fill="#FFCCCC" stroke="#000000" stroke-width="0.8316" stroke-miterlimit="10" d="M435.465,80.812
					c-1.66-2.279-3.992-7.844-5.648-13.07c-1.656-5.229-2.674-12.836,0-15.807s10.188-5.096,12.988-6.234
					c2.801-1.131,2.926,0.768,5.602,1.004c2.676,0.24,5.598-0.355,7.766,2.498c2.164,2.852,6.238,7.965,6.238,10.932
					c0,2.971-6.873,12.479-9.166,16.516c-2.291,4.041-4.967,5.66-6.621,6.928C444.969,84.853,439.592,86.466,435.465,80.812z"/>
				<path id="lyf1p2" fill="#FFCCCC" stroke="#000000" stroke-width="0.8316" stroke-miterlimit="10" d="M440.895,87.587
					c-0.018,2.516-0.605,6.553-0.939,11.234c-0.334,4.686,3.867,10.154,7.303,14.08c3.438,3.916,5.857,4.986,11.207,6.887
					c5.346,1.902,5.602,0.834,10.568-3.922c4.963-4.75,7.125-7.785,5.348-11.732c-1.783-3.955-3.057-11.557-6.367-13.936
					c-3.309-2.375-10.951-5.742-16.17-6.18C446.624,83.577,440.917,84.366,440.895,87.587z"/>
				<path id="lyf1p1" fill="#FFCCCC" stroke="#000000" stroke-width="0.8316" stroke-miterlimit="10" d="M451.209,80.69
					c4.131-3.199,6.107-11.766,12.092-14.262c5.988-2.49,12.098-3.445,18.846-2.727c6.748,0.711,7.764,3.322,9.803,7.602
					c2.037,4.279,3.184,3.209,0,7.014c-3.182,3.801-10.188,7.01-13.242,7.842c-3.053,0.832-5.727,2.254-8.527,2.139
					c-2.805-0.115-9.383-3.094-12.715-4.279C454.137,82.829,445.221,85.327,451.209,80.69z"/>
			</g>
			<g id="lyf1centro">
				<path id="lyf1outline" fill="#751316" d="M441.327,78.722c0.465,0.047,0.018,0.895,0.459,0.977
					c0.439,0.074,1.779-0.615,2.188-0.512c0.145,0.039,0.279,0.082,0.418,0.121c0.398,0.117,3.789-1.816,4.143-1.668
					c0.348,0.145-2.336,2.373-2.035,2.541c0.021,0.01,0.039,0.023,0.055,0.029c0.295,0.172,3.719-0.129,3.949,0.059
					c0.234,0.188-2.725,0.871-2.566,1.07c0.041,0.047,0.08,0.096,0.113,0.145c0.154,0.211-1.377,0.543-1.301,0.758
					c0.076,0.223,1.758,0.328,1.758,0.547c0,0.211,5.379,0.332,5.307,0.539c-0.07,0.217-5.594,0.52-5.734,0.727
					c-0.031,0.047-0.066,0.094-0.105,0.143c-0.16,0.205,3.27,1.117,3.041,1.309c-0.229,0.189-4.119-0.346-4.412-0.17
					c-0.129,0.078-0.262,0.15-0.406,0.223c-0.311,0.164,1.361,1.469,0.998,1.605s-2.768-0.895-3.174-0.785
					c-0.141,0.039-0.279,0.07-0.426,0.109c-0.428,0.098,1.063,3.441,0.605,3.51c-0.451,0.068-2.861-3.139-3.334-3.1
					c-0.475,0.033-1.088,1.328-1.566,1.328c-0.48,0-0.838-1.295-1.309-1.328c-0.109-0.008-0.217-0.018-0.326-0.027
					c-0.465-0.043-2.691,2.115-3.141,2.035c-0.445-0.074,0.871-2.381,0.459-2.488c-0.1-0.023-0.195-0.055-0.295-0.078
					c-0.402-0.113-2.365,0.469-2.725,0.332c-0.361-0.145,0.865-1.012,0.557-1.18c-0.23-0.123-0.449-0.256-0.65-0.393
					c-0.266-0.182-5.568,0.607-5.77,0.406c-0.18-0.182,3.826-1.172,4.482-1.518c0.316-0.16,1.248-0.457,1.205-0.676
					c-0.037-0.215-1.453-0.4-1.443-0.615c0.008-0.227-3.82-1.131-3.732-1.35c0.088-0.217,4.096,0.252,4.254,0.039
					c0.098-0.119,0.209-0.246,0.334-0.361c0.193-0.191,2.012,0.242,2.242,0.055c0.234-0.186-0.734-0.957-0.861-1.162
					c-0.285-0.457-2.264-1.859-1.939-1.982c0.371-0.143,3.758,1.385,4.178,1.271c0.236-0.064,0.482-0.123,0.73-0.182
					c0.432-0.092-0.014-1.469,0.441-1.527c0.395-0.055,1.486,0.898,2.07,1.121c0.352,0.137,1.025-2.533,1.492-2.521
					c0.467,0.006,0.846,2.555,1.311,2.582C441.016,78.694,441.174,78.706,441.327,78.722z"/>
				<path id="lyf1nucleo" d="M445.292,83.044c0,0.824-2.678,1.486-5.982,1.486c-3.309,0-5.984-0.662-5.984-1.486
					c0-0.816,2.676-1.486,5.984-1.486C442.614,81.558,445.292,82.228,445.292,83.044z"/>
			</g>
			<g id="lyf1steams">
				<path id="lyf1s12" fill="#FFFFFF" d="M422.024,89.796l-0.352-0.422c0.426-0.201,2.326-0.898,4.568-1.727
					c3.336-1.215,7.254-3.117,9.006-3.895c0.201-0.09,0.537-0.268,0.529-0.459c-0.064-1.619-9.182-5.271-14.244-7.109
					c-2.896-1.053-5.236-2.303-6.188-2.822l0.26-0.164c0.877,0.477,3.242,1.336,5.979,2.33c8.566,3.111,15.129,5.654,15.209,7.732
					c0.018,0.385-0.164,0.932-1.107,1.35c-1.785,0.795-5.949,2.326-9.299,3.545C424.252,88.933,422.413,89.614,422.024,89.796
					L422.024,89.796z"/>
				<path id="lyf1s11" fill="#FFFFFF" d="M435.868,83.813c-0.725-1.189-3.932-3.568-7.65-6.316
					c-6.428-4.758-14.428-10.678-17.313-15.838l0.447-0.219c2.789,4.982,11.482,10.861,17.498,15.313
					c3.959,2.926,7.082,5.242,7.902,6.592L435.868,83.813L435.868,83.813z"/>
				<path id="lyf1s10" fill="#FFFFFF" d="M437.157,83.3c-4.283-6.262-16.951-24.434-20.674-29.219l0.342-0.203
					c3.73,4.801,16.9,22.641,21.188,28.91C437.94,83.226,437.692,83.437,437.157,83.3L437.157,83.3z"/>
				<path id="lyf1s9" fill="#FFFFFF" d="M439.241,82.487c-0.336,0.281-0.678,0.328-1.02-0.023c0.127-5.117-5.947-25.119-7.604-28.34
					l0.432-0.121C432.481,56.776,439.375,77.001,439.241,82.487L439.241,82.487z"/>
				<path id="lyf1s8" fill="#FFFFFF" d="M441.532,83.075c-0.357,0.383-0.695,0.459-1.021-0.061
					c0.307-4.32,1.529-23.938,1.658-27.529l0.506,0.014C442.547,59.101,441.836,78.749,441.532,83.075L441.532,83.075z"/>
				<path id="lyf1s7" fill="#FFFFFF" d="M443.159,83.202l-0.963-0.313c0.102-0.275,10.313-27.797,11.127-30.604l0.68,0.123
					C453.176,55.245,443.581,82.067,443.159,83.202L443.159,83.202z"/>
				<path id="lyf1s6" fill="#FFFFFF" d="M444.276,83.409l-0.65-0.73c4.742-3.664,19.242-19.879,21.047-23.93l0.5,0.023
					C463.182,63.229,448.667,80.017,444.276,83.409L444.276,83.409z"/>
				<path id="lyf1s5" fill="#FFFFFF" d="M444.125,84.026l-0.352-0.893c5.023-1.727,23.039-10.121,25.098-12.359l0.418,0.334
					C466.956,73.642,448.764,82.433,444.125,84.026L444.125,84.026z"/>
				<path id="lyf1s4" fill="#FFFFFF" d="M450.202,93.497c-0.223-0.223-5.414-5.432-7.957-9.346c-0.459-0.699-0.525-1.35-0.205-1.93
					c1.031-1.859,5.703-1.867,12.688-2.313c3.58-0.225,7.197-0.383,8.473-0.969l0.201,0.383c-1.457,0.668-4.775,0.875-8.619,1.117
					c-4.895,0.311-10.99,0.693-11.84,2.221c-0.055,0.096-0.223,0.4,0.168,0.994c2.49,3.836,7.416,9.455,7.467,9.51L450.202,93.497
					L450.202,93.497z"/>
				<path id="lyf1s3" fill="#FFFFFF" d="M429.868,92.163l0.039-0.361c0.074-0.059,7.273-5.795,8.623-7.42
					c0.326-0.082,0.463,0.012,0.402,0.285c-1.383,1.668-8.553,7.094-8.852,7.328L429.868,92.163z"/>
				<path id="lyf1s2" fill="#FFFFFF" d="M441.344,93.243c-0.037-0.229-0.902-5.902-0.77-9.033c0.234-0.355,0.518-0.355,0.824-0.072
					c-0.123,3.033,0.348,8.99,0.355,9.049L441.344,93.243L441.344,93.243z"/>
				<path id="lyf1s1" fill="#FFFFFF" d="M463.848,93.007c-2.646-1.176-20.453-9.453-20.633-9.535l0.453-0.855
					c0.178,0.09,17.678,8.809,20.316,9.98L463.848,93.007L463.848,93.007z"/>
			</g>
			<g id="lyf1botoes">
				<path id="lyf1b24" fill="#FEB900" d="M417.331,52.942c0,0.803-0.707,1.453-1.584,1.453c-0.871,0-1.582-0.65-1.582-1.453
					c0-0.799,0.711-1.449,1.582-1.449C416.624,51.493,417.331,52.144,417.331,52.942z"/>
				<path id="lyf1b23" fill="#FEB900" d="M412.235,61.44c0,0.762-0.619,1.377-1.391,1.377c-0.766,0-1.383-0.615-1.383-1.377
					c0-0.76,0.617-1.375,1.383-1.375C411.616,60.065,412.235,60.681,412.235,61.44z"/>
				<path id="lyf1b22" fill="#FEB900" d="M416.483,72.626c0,0.605-0.912,1.098-2.035,1.098s-2.037-0.492-2.037-1.098
					c0-0.598,0.914-1.09,2.037-1.09S416.483,72.028,416.483,72.626z"/>
				<path id="lyf1b21" fill="#FEB900" d="M442.842,52.937c1.232,0.156,2.127,0.949,2.006,1.762
					c-0.123,0.818-1.217,1.352-2.449,1.191c-1.23-0.164-2.131-0.951-2.008-1.768C440.51,53.304,441.612,52.772,442.842,52.937z"/>
				<path id="lyf1b20" fill="#FEB900" d="M435.358,70.972c0.904,0.373,1.359,1.281,1.01,2.041c-0.354,0.752-1.377,1.066-2.285,0.697
					c-0.91-0.369-1.361-1.281-1.01-2.037C433.426,70.917,434.45,70.603,435.358,70.972z"/>
				<path id="lyf1b19" fill="#FEB900" d="M431.473,76.042c0.908,0.367,1.359,1.277,1.012,2.035c-0.354,0.754-1.377,1.07-2.285,0.699
					c-0.91-0.367-1.361-1.279-1.01-2.031C429.542,75.987,430.565,75.671,431.473,76.042z"/>
				<path id="lyf1b18" fill="#FEB900" d="M440.59,75.479c0.914,0.371,1.365,1.285,1.012,2.039c-0.354,0.758-1.375,1.072-2.283,0.695
					c-0.912-0.365-1.361-1.273-1.008-2.029C438.663,75.425,439.684,75.112,440.59,75.479z"/>
				<path id="lyf1b17" fill="#FEB900" d="M448.885,75.823c0.908,0.365,1.361,1.277,1.006,2.035c-0.352,0.754-1.373,1.07-2.283,0.699
					c-0.91-0.367-1.359-1.279-1.008-2.035C446.954,75.769,447.973,75.452,448.885,75.823z"/>
				<path id="lyf1b16" fill="#FEB900" d="M452.417,79.384c0.906,0.365,1.359,1.279,1.01,2.033c-0.352,0.756-1.379,1.07-2.283,0.705
					c-0.91-0.373-1.365-1.283-1.014-2.041C450.483,79.329,451.506,79.015,452.417,79.384z"/>
				<path id="lyf1b15" fill="#FEB900" d="M444.079,80.905c0.906,0.369,1.361,1.281,1.012,2.033c-0.355,0.76-1.381,1.072-2.285,0.705
					c-0.91-0.371-1.361-1.279-1.01-2.039C442.149,80.854,443.167,80.536,444.079,80.905z"/>
				<path id="lyf1b14" fill="#FEB900" d="M438.649,81.64c0.912,0.375,1.365,1.285,1.012,2.037c-0.352,0.76-1.375,1.072-2.281,0.705
					c-0.912-0.371-1.363-1.283-1.012-2.039C436.721,81.589,437.741,81.274,438.649,81.64z"/>
				<path id="lyf1b13" fill="#FEB900" d="M441.792,84.962c0.91,0.373,1.363,1.285,1.014,2.041c-0.354,0.754-1.375,1.07-2.287,0.699
					c-0.908-0.367-1.357-1.277-1.006-2.035C439.864,84.913,440.883,84.597,441.792,84.962z"/>
				<path id="lyf1b12" fill="#FEB900" d="M442.709,92.728c0.91,0.373,1.363,1.281,1.008,2.041c-0.35,0.754-1.375,1.07-2.279,0.699
					c-0.914-0.367-1.367-1.277-1.014-2.035C440.778,92.679,441.797,92.366,442.709,92.728z"/>
				<path id="lyf1b11" fill="#FEB900" d="M442.823,71.022c0.717,0.066,1.229,0.781,1.148,1.602c-0.084,0.82-0.732,1.438-1.445,1.373
					c-0.713-0.061-1.225-0.779-1.143-1.596C441.465,71.577,442.114,70.962,442.823,71.022z"/>
				<path id="lyf1b10" fill="#FEB900" d="M432.071,52.942c0,0.814-0.777,1.471-1.742,1.471c-0.957,0-1.738-0.656-1.738-1.471
					c0-0.807,0.781-1.463,1.738-1.463C431.293,51.479,432.071,52.136,432.071,52.942z"/>
				<path id="lyf1b9" fill="#FEB900" d="M471.346,70.37c0,0.92-0.627,1.664-1.402,1.664c-0.771,0-1.4-0.744-1.4-1.664
					c0-0.912,0.629-1.654,1.4-1.654C470.719,68.716,471.346,69.458,471.346,70.37z"/>
				<ellipse id="lyf1b8" fill="#FEB900" cx="457.467" cy="61.44" rx="2.016" ry="1.377"/>
				<path id="lyf1b7" fill="#FEB900" d="M455.834,51.302c0,0.756-0.904,1.373-2.021,1.373c-1.111,0-2.016-0.617-2.016-1.373
					c0-0.76,0.904-1.373,2.016-1.373C454.93,49.929,455.834,50.542,455.834,51.302z"/>
				<path id="lyf1b6" fill="#FEB900" d="M467.016,58.589c0,0.758-0.9,1.375-2.018,1.375c-1.111,0-2.016-0.617-2.016-1.375
					s0.904-1.375,2.016-1.375C466.116,57.214,467.016,57.831,467.016,58.589z"/>
				<path id="lyf1b5" fill="#FEB900" d="M452.766,93.882c0,0.787-0.758,1.43-1.684,1.43c-0.932,0-1.686-0.643-1.686-1.43
					c0-0.785,0.754-1.422,1.686-1.422C452.008,92.46,452.766,93.097,452.766,93.882z"/>
				<path id="lyf1b4" fill="#FEB900" d="M466.167,93.132c0,0.984-0.568,1.779-1.271,1.779c-0.707,0-1.275-0.795-1.275-1.779
					s0.568-1.785,1.275-1.785C465.598,91.347,466.167,92.147,466.167,93.132z"/>
				<path id="lyf1b3" fill="#FEB900" d="M464.694,78.376c0.277,0.674,0.084,1.369-0.434,1.555c-0.52,0.191-1.164-0.205-1.445-0.881
					c-0.275-0.674-0.082-1.367,0.436-1.553C463.772,77.306,464.415,77.702,464.694,78.376z"/>
				<path id="lyf1b2" fill="#FEB900" d="M430.833,92.577c0,0.523-0.684,0.949-1.527,0.949c-0.84,0-1.523-0.426-1.523-0.949
					c0-0.527,0.684-0.953,1.523-0.953C430.149,91.624,430.833,92.05,430.833,92.577z"/>
				<path id="lyf1b1" fill="#FEB900" d="M422.051,89.999c0,0.896-0.742,1.625-1.654,1.625c-0.916,0-1.656-0.729-1.656-1.625
					c0-0.895,0.74-1.625,1.656-1.625C421.309,88.374,422.051,89.104,422.051,89.999z"/>
			</g>
		</g>
	</g>
	<g id="lyr12t">
		<g id="lyr12m">
			<path id="lyr12" fill="#42210B" d="M206.993,245.558c1.545,6.707,4.793,28.684,12.314,48.078
				c7.518,19.395,22.799,63.598,33.691,78.586c7.408,10.191,40.193-25.512,40.844-36.047c1.088-17.588-32.443-47.697-40.582-61.369
				c-8.961-15.057-13.977-25.76-18.916-43.303c-4.945-17.539-8.109-30.074-10.613-48.629c-2.502-18.561-0.67-39.602-0.656-48.539
				c0.018-8.936-0.527-36.094-5.146-39.57c-5.221,0.912-3.32,2.078-3.32,2.078s6.844,12.26,2.996,42.369
				c-3.848,30.111-12.203,57.018-10.342,67.939C209.122,218.071,204.547,234.915,206.993,245.558z"/>
			
				<linearGradient id="lyr12n_1_" gradientUnits="userSpaceOnUse" x1="347.4336" y1="619.2412" x2="500.3721" y2="619.2412" gradientTransform="matrix(0.6469 -0.7626 0.7626 0.6469 -506.1252 170.2498)">
				<stop  offset="0" style="stop-color:#42210B"/>
				<stop  offset="1" style="stop-color:#8C6239"/>
			</linearGradient>
			<path id="lyr12n" fill="url(#lyr12n_1_)" d="M219.967,132.644c-2.322,16.18-7.475,46.277-6.48,65.57
				c1.053,20.531-3.143,36.609,1.049,50.934c19.336,66.109,27.889,99.791,41.789,112.266c3.115,2.797,15.031-9.771,11.561-12.113
				c-17.82-12.004-43.828-85.965-49.186-103.023c-0.352-1.125-1.545-3.711-1.875-4.793c-1.328-4.359,5.172-4.613,6.236-1.123
				c0.631,2.064,0.463,3.633,1.248,5.916c16.85,55.57,30.881,87.285,46.57,102.246c1.24,1.186,4.098-2.441,3.324-3.326
				c-6.881-7.9-31.512-41.361-48.646-105.811c-1.885-7.096,1.334-10.377,3.74-3.131c20.719,62.402,41.27,103.141,48.016,104.422
				c2.832,0.537,6.699-6.006,6.344-9.617c-0.676-6.885-30.609-42.779-52.279-94.805c-7.082-16.998-14.455-72.037-9.756-104.836
				L219.967,132.644z"/>
			
				<linearGradient id="lyr12e_1_" gradientUnits="userSpaceOnUse" x1="1161.0078" y1="88.9609" x2="1164.2578" y2="88.9609" gradientTransform="matrix(1 0 0 1 -944.0469 0)">
				<stop  offset="0" style="stop-color:#42210B"/>
				<stop  offset="1" style="stop-color:#8C6239"/>
			</linearGradient>
			<path id="lyr12e" fill="url(#lyr12e_1_)" d="M216.057,102.507l0.664-28.023h0.924l1.662,28.859
				C219.307,103.343,216.588,103.853,216.057,102.507z"/>
		</g>
		<g id="lyr121c">
			<path id="lyr121" fill="#42210B" d="M206.141,229.761c-13.127-15.268-71.076-54.367-88.336-64.695l-0.578-0.346l-3.154-5.096
				l4.375,3.316c17.416,10.42,78.746,36.715,92.348,52.537l0.41,11.486L206.141,229.761z"/>
			<g id="lyf121">
				<g id="lyf121petalas">
					<path id="lyf121p5" fill="#FFCCCC" stroke="#000000" stroke-width="0.8316" stroke-miterlimit="10" d="M94.262,155.241
						c-4.025-0.043-11.949,0.855-16.338,3.051c-4.393,2.193-10.613,6.951-12.682,10.246c-2.074,3.291,0.734,5.975,0,8.293
						c-0.732,2.316-0.367,5.242,1.949,6.459c2.318,1.221,12.074,2.193,15.121,2.318c3.051,0.121,7.074-0.244,11.34-3.051
						c4.268-2.809,10.119-8.164,11.217-11.094c1.098-2.926,2.563-7.93,1.588-10.367C105.481,158.659,105.114,155.366,94.262,155.241
						z"/>
					<path id="lyf121p4" fill="#FFCCCC" stroke="#000000" stroke-width="0.8316" stroke-miterlimit="10" d="M96.948,154.634
						c-3.43-0.342-8.053-0.732-16.221-1.217c-8.168-0.492-16.098-4.395-20.119-5.613c-4.027-1.219-5.484-1.461-5.977-4.266
						c-0.488-2.801,3.416-2.563,3.416-4.512c0-1.951-0.855-5.977,3.049-7.686c3.9-1.705,11.949-4.146,16.709-1.822
						c4.752,2.311,7.922,3.289,12.432,6.58c4.514,3.291,7.32,7.072,8.781,11.344C100.485,151.708,107.073,155.632,96.948,154.634z"
						/>
					<path id="lyf121p3" fill="#FFCCCC" stroke="#000000" stroke-width="0.8316" stroke-miterlimit="10" d="M102.475,151.948
						c-1.594-2.34-3.824-8.047-5.412-13.41c-1.578-5.365-2.559-13.168,0-16.219c2.568-3.051,9.758-5.234,12.441-6.398
						c2.686-1.16,2.809,0.787,5.367,1.033c2.563,0.246,5.363-0.369,7.438,2.561c2.076,2.93,5.979,8.172,5.979,11.221
						s-6.59,12.803-8.779,16.947c-2.197,4.148-4.758,5.803-6.342,7.109C111.581,156.097,106.426,157.751,102.475,151.948z"/>
					<path id="lyf121p2" fill="#FFCCCC" stroke="#000000" stroke-width="0.8316" stroke-miterlimit="10" d="M107.676,158.903
						c-0.018,2.588-0.576,6.723-0.898,11.535c-0.32,4.807,3.707,10.414,6.994,14.438c3.293,4.02,5.609,5.119,10.73,7.072
						c5.127,1.951,5.369,0.854,10.121-4.023c4.758-4.875,6.832-7.984,5.125-12.045c-1.705-4.051-2.93-11.854-6.1-14.295
						c-3.168-2.439-10.482-5.891-15.482-6.344C113.167,154.792,107.698,155.601,107.676,158.903z"/>
					<path id="lyf121p1" fill="#FFCCCC" stroke="#000000" stroke-width="0.8316" stroke-miterlimit="10" d="M117.551,151.831
						c3.965-3.289,5.854-12.076,11.59-14.637c5.729-2.555,11.58-3.533,18.043-2.805c6.467,0.734,7.439,3.414,9.395,7.809
						c1.951,4.387,3.043,3.293,0,7.191c-3.053,3.898-9.758,7.191-12.682,8.047c-2.926,0.855-5.49,2.316-8.174,2.195
						c-2.684-0.125-8.984-3.172-12.176-4.391C120.358,154.022,111.823,156.581,117.551,151.831z"/>
				</g>
				<g id="lyf121centro">
					<path id="lyf121outline" fill="#751316" d="M108.092,149.808c0.445,0.047,0.014,0.92,0.436,0.998
						c0.424,0.082,1.705-0.629,2.098-0.52c0.133,0.037,0.27,0.076,0.4,0.119c0.381,0.127,3.627-1.863,3.971-1.711
						c0.33,0.148-2.24,2.439-1.953,2.609c0.018,0.008,0.039,0.021,0.059,0.035c0.279,0.178,3.561-0.137,3.779,0.055
						c0.223,0.191-2.613,0.895-2.455,1.102c0.033,0.051,0.066,0.102,0.105,0.148c0.146,0.213-1.318,0.555-1.246,0.773
						c0.068,0.227,1.684,0.336,1.684,0.561s5.15,0.342,5.08,0.557c-0.064,0.215-5.354,0.537-5.49,0.742
						c-0.031,0.045-0.066,0.1-0.107,0.146c-0.15,0.209,3.133,1.152,2.916,1.35c-0.219,0.191-3.945-0.355-4.225-0.18
						c-0.121,0.078-0.25,0.152-0.389,0.229c-0.299,0.164,1.303,1.51,0.961,1.654c-0.354,0.133-2.654-0.926-3.047-0.813
						c-0.133,0.033-0.268,0.074-0.402,0.109c-0.41,0.105,1.016,3.533,0.58,3.605c-0.441,0.07-2.744-3.217-3.195-3.184
						c-0.455,0.035-1.043,1.361-1.502,1.361c-0.455,0-0.799-1.326-1.25-1.361c-0.109-0.006-0.211-0.012-0.313-0.027
						c-0.451-0.039-2.578,2.176-3.01,2.094c-0.43-0.076,0.83-2.449,0.439-2.559c-0.094-0.027-0.188-0.051-0.279-0.078
						c-0.391-0.119-2.268,0.482-2.613,0.34c-0.348-0.145,0.83-1.039,0.535-1.211c-0.225-0.123-0.436-0.26-0.625-0.402
						c-0.258-0.186-5.336,0.629-5.527,0.422c-0.172-0.191,3.664-1.209,4.297-1.564c0.303-0.164,1.191-0.465,1.152-0.689
						c-0.037-0.223-1.395-0.414-1.389-0.637c0.018-0.227-3.652-1.158-3.57-1.381c0.082-0.219,3.92,0.26,4.074,0.049
						c0.094-0.131,0.203-0.262,0.318-0.381c0.191-0.201,1.93,0.25,2.152,0.059c0.219-0.186-0.703-0.984-0.822-1.193
						c-0.277-0.471-2.174-1.91-1.859-2.039c0.355-0.137,3.598,1.422,3.996,1.305c0.23-0.063,0.465-0.123,0.707-0.182
						c0.404-0.092-0.018-1.506,0.416-1.568c0.381-0.055,1.428,0.922,1.982,1.152c0.34,0.141,0.988-2.602,1.434-2.594
						c0.449,0.012,0.809,2.625,1.252,2.658C107.795,149.772,107.944,149.794,108.092,149.808z"/>
					<path id="lyf121nucleo" d="M111.891,154.247c0,0.842-2.564,1.521-5.734,1.521c-3.164,0-5.727-0.68-5.727-1.521
						c0-0.844,2.563-1.527,5.727-1.527C109.327,152.72,111.891,153.403,111.891,154.247z"/>
				</g>
				<g id="lyf121steams">
					<path id="lyf121s12" fill="#FFFFFF" d="M89.6,161.169l-0.332-0.432c0.406-0.203,2.227-0.922,4.373-1.766
						c3.195-1.254,6.945-3.199,8.627-4.004c0.193-0.088,0.51-0.273,0.506-0.471c-0.057-1.662-8.793-5.408-13.643-7.297
						c-2.775-1.074-5.016-2.361-5.924-2.896l0.246-0.17c0.84,0.492,3.105,1.373,5.729,2.393c8.205,3.191,14.486,5.805,14.568,7.938
						c0.012,0.395-0.16,0.957-1.066,1.387c-1.705,0.813-5.699,2.379-8.906,3.645C91.739,160.294,89.973,160.981,89.6,161.169
						L89.6,161.169z"/>
					<path id="lyf121s11" fill="#FFFFFF" d="M102.864,155.034c-0.691-1.225-3.77-3.658-7.334-6.484
						c-6.148-4.881-13.813-10.955-16.574-16.25l0.432-0.225c2.666,5.109,10.992,11.143,16.754,15.717
						c3.789,3,6.781,5.371,7.574,6.76L102.864,155.034L102.864,155.034z"/>
					<path id="lyf121s10" fill="#CCCCCC" d="M104.092,154.503c-4.098-6.422-16.234-25.07-19.791-29.988l0.322-0.201
						c3.574,4.932,16.188,23.232,20.293,29.664C104.85,154.425,104.606,154.647,104.092,154.503L104.092,154.503z"/>
					<path id="lyf121s9" fill="#FFFFFF" d="M106.094,153.671c-0.322,0.289-0.65,0.334-0.98-0.021
						c0.127-5.256-5.691-25.779-7.279-29.08l0.414-0.129C99.614,127.29,106.223,148.044,106.094,153.671L106.094,153.671z"/>
					<path id="lyf121s8" fill="#FFFFFF" d="M108.288,154.278c-0.338,0.389-0.67,0.465-0.975-0.064
						c0.291-4.441,1.461-24.566,1.584-28.258l0.49,0.021C109.26,129.673,108.577,149.835,108.288,154.278L108.288,154.278z"/>
					<path id="lyf121s7" fill="#FFFFFF" d="M109.844,154.409l-0.922-0.322c0.1-0.287,9.881-28.533,10.66-31.408l0.648,0.127
						C119.442,125.718,110.249,153.239,109.844,154.409L109.844,154.409z"/>
					<path id="lyf121s6" fill="#CCCCCC" d="M110.915,154.62l-0.621-0.756c4.539-3.752,18.43-20.395,20.158-24.551l0.48,0.021
						C129.024,133.911,115.124,151.138,110.915,154.62L110.915,154.62z"/>
					<path id="lyf121s5" fill="#FFFFFF" d="M110.77,155.253l-0.336-0.92c4.814-1.771,22.064-10.385,24.035-12.682l0.404,0.344
						C132.637,144.599,115.215,153.612,110.77,155.253L110.77,155.253z"/>
					<path id="lyf121s4" fill="#FFFFFF" d="M116.59,164.964c-0.213-0.223-5.189-5.566-7.623-9.586
						c-0.439-0.717-0.502-1.387-0.193-1.979c0.99-1.91,5.465-1.92,12.154-2.371c3.43-0.236,6.889-0.396,8.113-1.002l0.191,0.396
						c-1.395,0.684-4.572,0.898-8.252,1.148c-4.693,0.318-10.529,0.711-11.342,2.275c-0.051,0.104-0.213,0.41,0.162,1.027
						c2.383,3.93,7.102,9.699,7.146,9.754L116.59,164.964L116.59,164.964z"/>
					<path id="lyf121s3" fill="#FFFFFF" d="M97.12,163.599l0.033-0.373c0.07-0.055,6.963-5.943,8.258-7.611
						c0.311-0.084,0.443,0.018,0.385,0.299c-1.322,1.705-8.184,7.27-8.475,7.512L97.12,163.599z"/>
					<path id="lyf121s2" fill="#FFFFFF" d="M108.108,164.706c-0.035-0.234-0.859-6.059-0.74-9.266
						c0.236-0.369,0.5-0.369,0.793-0.074c-0.115,3.117,0.33,9.225,0.34,9.281L108.108,164.706L108.108,164.706z"/>
					<path id="lyf121s1" fill="#FFFFFF" d="M129.657,164.46c-2.529-1.207-19.586-9.689-19.762-9.781l0.438-0.871
						c0.172,0.084,16.934,9.033,19.459,10.238L129.657,164.46L129.657,164.46z"/>
				</g>
				<g id="lyf121botoes">
					<path id="lyf121b24" fill="#FEB900" d="M85.112,123.358c0,0.814-0.684,1.484-1.518,1.484c-0.838,0-1.514-0.67-1.514-1.484
						c0-0.822,0.676-1.488,1.514-1.488C84.428,121.87,85.112,122.536,85.112,123.358z"/>
					<ellipse id="lyf121b23" fill="#FEB900" cx="78.9" cy="132.075" rx="1.327" ry="1.408"/>
					<path id="lyf121b22" fill="#FEB900" d="M84.301,143.554c0,0.621-0.879,1.117-1.953,1.117c-1.08,0-1.951-0.496-1.951-1.117
						c0-0.623,0.871-1.121,1.951-1.121C83.422,142.433,84.301,142.931,84.301,143.554z"/>
					<path id="lyf121b21" fill="#FEB900" d="M109.542,123.343c1.182,0.164,2.039,0.98,1.922,1.818s-1.168,1.377-2.344,1.213
						c-1.178-0.168-2.041-0.977-1.924-1.814S108.364,123.175,109.542,123.343z"/>
					<path id="lyf121b20" fill="#FEB900" d="M102.374,141.851c0.869,0.383,1.305,1.32,0.967,2.098
						c-0.336,0.773-1.318,1.094-2.186,0.711c-0.871-0.375-1.307-1.309-0.967-2.084C100.526,141.796,101.502,141.476,102.374,141.851
						z"/>
					<path id="lyf121b19" fill="#FEB900" d="M98.651,147.056c0.873,0.381,1.305,1.316,0.969,2.096
						c-0.334,0.77-1.314,1.09-2.188,0.715c-0.869-0.379-1.303-1.316-0.965-2.092C96.807,146.999,97.786,146.677,98.651,147.056z"/>
					<path id="lyf121b18" fill="#FEB900" d="M107.387,146.485c0.873,0.377,1.305,1.313,0.965,2.084
						c-0.334,0.781-1.313,1.102-2.186,0.727c-0.873-0.383-1.303-1.32-0.965-2.096C105.543,146.425,106.514,146.106,107.387,146.485z
						"/>
					<path id="lyf121b17" fill="#FEB900" d="M115.327,146.831c0.875,0.379,1.307,1.313,0.967,2.088
						c-0.336,0.779-1.316,1.1-2.186,0.717c-0.869-0.375-1.305-1.305-0.967-2.084S114.458,146.452,115.327,146.831z"/>
					<path id="lyf121b16" fill="#FEB900" d="M118.713,150.483c0.869,0.381,1.299,1.313,0.961,2.094
						c-0.332,0.775-1.316,1.096-2.188,0.717c-0.865-0.377-1.301-1.313-0.965-2.092C116.864,150.429,117.84,150.104,118.713,150.483z
						"/>
					<path id="lyf121b15" fill="#FEB900" d="M110.725,152.05c0.871,0.375,1.307,1.313,0.967,2.086
						c-0.336,0.775-1.316,1.1-2.188,0.723c-0.871-0.383-1.305-1.313-0.965-2.09C108.875,151.987,109.856,151.667,110.725,152.05z"/>
					<path id="lyf121b14" fill="#FEB900" d="M105.53,152.802c0.867,0.379,1.297,1.313,0.965,2.092
						c-0.338,0.779-1.314,1.102-2.186,0.721c-0.871-0.379-1.305-1.318-0.965-2.088C103.68,152.747,104.657,152.425,105.53,152.802z"
						/>
					<path id="lyf121b13" fill="#FEB900" d="M108.54,156.214c0.869,0.379,1.301,1.313,0.965,2.09
						c-0.338,0.777-1.316,1.098-2.186,0.719c-0.871-0.375-1.305-1.316-0.967-2.088C106.688,156.159,107.667,155.837,108.54,156.214z
						"/>
					<path id="lyf121b12" fill="#FEB900" d="M109.415,164.177c0.873,0.383,1.301,1.318,0.967,2.1
						c-0.334,0.771-1.318,1.094-2.191,0.711c-0.867-0.377-1.297-1.311-0.961-2.086C107.567,164.126,108.543,163.8,109.415,164.177z"
						/>
					<path id="lyf121b11" fill="#FEB900" d="M109.528,141.913c0.684,0.061,1.176,0.795,1.096,1.633
						c-0.084,0.848-0.699,1.477-1.381,1.412c-0.688-0.064-1.174-0.797-1.096-1.641C108.227,142.472,108.84,141.843,109.528,141.913z
						"/>
					<ellipse id="lyf121b10" fill="#FEB900" cx="97.562" cy="123.358" rx="1.667" ry="1.504"/>
					<path id="lyf121b9" fill="#FEB900" d="M136.844,141.241c0,0.938-0.602,1.699-1.344,1.699c-0.74,0-1.344-0.762-1.344-1.699
						c0-0.941,0.604-1.701,1.344-1.701C136.243,139.54,136.844,140.3,136.844,141.241z"/>
					<path id="lyf121b8" fill="#FEB900" d="M125.481,132.075c0,0.775-0.867,1.408-1.934,1.408c-1.064,0-1.926-0.633-1.926-1.408
						s0.861-1.408,1.926-1.408C124.614,130.667,125.481,131.3,125.481,132.075z"/>
					<path id="lyf121b7" fill="#FEB900" d="M121.981,121.667c0,0.783-0.861,1.412-1.926,1.412c-1.066,0-1.932-0.629-1.932-1.412
						c0-0.779,0.865-1.408,1.932-1.408C121.12,120.259,121.981,120.888,121.981,121.667z"/>
					<ellipse id="lyf121b6" fill="#FEB900" cx="130.762" cy="129.146" rx="1.93" ry="1.412"/>
					<path id="lyf121b5" fill="#FEB900" d="M119.043,165.366c0,0.807-0.721,1.463-1.609,1.463c-0.891,0-1.611-0.656-1.611-1.463
						c0-0.813,0.721-1.467,1.611-1.467C118.323,163.899,119.043,164.554,119.043,165.366z"/>
					<path id="lyf121b4" fill="#FEB900" d="M131.879,164.591c0,1.012-0.543,1.834-1.217,1.834c-0.67,0-1.217-0.822-1.217-1.834
						c0-1.01,0.547-1.83,1.217-1.83C131.336,162.761,131.879,163.581,131.879,164.591z"/>
					<path id="lyf121b3" fill="#FEB900" d="M130.469,149.452c0.264,0.691,0.082,1.408-0.418,1.596
						c-0.496,0.195-1.109-0.211-1.379-0.904c-0.264-0.691-0.078-1.406,0.42-1.602C129.588,148.358,130.202,148.761,130.469,149.452z
						"/>
					<path id="lyf121b2" fill="#FEB900" d="M98.043,164.026c0,0.537-0.656,0.971-1.465,0.971c-0.805,0-1.461-0.434-1.461-0.971
						c0-0.547,0.656-0.977,1.461-0.977C97.387,163.05,98.043,163.479,98.043,164.026z"/>
					<path id="lyf121b1" fill="#FEB900" d="M89.633,161.378c0,0.922-0.715,1.672-1.588,1.672c-0.879,0-1.586-0.75-1.586-1.672
						c0-0.924,0.707-1.672,1.586-1.672C88.918,159.706,89.633,160.454,89.633,161.378z"/>
				</g>
			</g>
			<g id="lyr1211c">
				
					<linearGradient id="lyr1211_1_" gradientUnits="userSpaceOnUse" x1="1072.1797" y1="211.4014" x2="1150.6123" y2="211.4014" gradientTransform="matrix(1 0 0 1 -944.0469 0)">
					<stop  offset="0" style="stop-color:#42210B"/>
					<stop  offset="1" style="stop-color:#8C6239"/>
				</linearGradient>
				<path id="lyr1211" fill="url(#lyr1211_1_)" d="M108.264,219.019l2.482-1.473l73.707-13.762c0.273,0.137,0.521,0.291,0.75,0.451
					c0.209,0.15-4.822,1.127-4.643,1.309c0.182,0.182,5.588-0.428,5.73-0.215c0.195,0.297,0.334,0.605,0.404,0.908
					c0.051,0.234-3.299,0.846-3.334,1.078c-0.035,0.234,3.248,0.125,3.123,0.332c-0.229,0.361-0.605,0.676-1.145,0.908
					l-71.824,10.363L108.264,219.019z"/>
				<g id="lyf1211">
					<g id="lyf1211petalas">
						<path id="lyf1211p5" fill="#FFCCCC" stroke="#000000" stroke-width="0.8316" stroke-miterlimit="10" d="M100.473,221.374
							c-3.232-0.031-9.59,0.566-13.115,2.016c-3.521,1.453-8.51,4.604-10.172,6.781c-1.664,2.178,0.586,3.957,0,5.488
							c-0.588,1.531-0.295,3.473,1.564,4.281c1.859,0.805,9.688,1.451,12.133,1.531c2.443,0.084,5.676-0.158,9.102-2.018
							c3.424-1.859,8.121-5.408,9-7.346c0.881-1.938,2.053-5.246,1.271-6.859C109.473,223.636,109.178,221.456,100.473,221.374z"/>
						<path id="lyf1211p4" fill="#FFCCCC" stroke="#000000" stroke-width="0.8316" stroke-miterlimit="10" d="M102.625,220.97
							c-2.75-0.225-6.457-0.486-13.014-0.807c-6.555-0.324-12.916-2.906-16.145-3.711c-3.23-0.809-4.402-0.973-4.793-2.832
							c-0.395-1.852,2.74-1.691,2.74-2.982c0-1.289-0.688-3.955,2.443-5.084c3.133-1.133,9.59-2.746,13.406-1.215
							c3.814,1.537,6.355,2.18,9.979,4.359c3.621,2.182,5.871,4.684,7.047,7.51C105.461,219.028,110.747,221.632,102.625,220.97z"/>
						<path id="lyf1211p3" fill="#FFCCCC" stroke="#000000" stroke-width="0.8316" stroke-miterlimit="10" d="M107.063,219.192
							c-1.281-1.545-3.07-5.326-4.34-8.881c-1.275-3.547-2.055-8.715,0-10.73c2.055-2.018,7.828-3.467,9.979-4.236
							c2.15-0.771,2.252,0.52,4.307,0.682c2.055,0.164,4.305-0.24,5.965,1.695c1.662,1.934,4.799,5.41,4.799,7.426
							c0,2.02-5.285,8.473-7.047,11.223c-1.762,2.74-3.814,3.838-5.088,4.703C114.366,221.94,110.233,223.034,107.063,219.192z"/>
						<path id="lyf1211p2" fill="#FFCCCC" stroke="#000000" stroke-width="0.8316" stroke-miterlimit="10" d="M111.235,223.792
							c-0.014,1.717-0.465,4.451-0.721,7.637c-0.258,3.186,2.971,6.895,5.611,9.561c2.645,2.662,4.502,3.387,8.611,4.678
							c4.107,1.297,4.305,0.564,8.121-2.662c3.816-3.229,5.477-5.287,4.107-7.971c-1.367-2.686-2.346-7.844-4.891-9.465
							c-2.545-1.613-8.414-3.898-12.424-4.195C115.637,221.073,111.25,221.612,111.235,223.792z"/>
						<path id="lyf1211p1" fill="#FFCCCC" stroke="#000000" stroke-width="0.8316" stroke-miterlimit="10" d="M119.159,219.11
							c3.18-2.174,4.697-7.99,9.293-9.684c4.602-1.697,9.297-2.342,14.486-1.855c5.184,0.486,5.965,2.256,7.529,5.162
							c1.566,2.91,2.447,2.184,0,4.764c-2.443,2.584-7.826,4.764-10.172,5.328c-2.352,0.564-4.406,1.535-6.557,1.453
							c-2.154-0.082-7.209-2.1-9.768-2.904C121.409,220.565,114.561,222.261,119.159,219.11z"/>
					</g>
					<g id="lyf1211centro">
						<path id="lyf1211outline" fill="#751316" d="M111.563,217.771c0.359,0.033,0.016,0.615,0.355,0.666
							c0.338,0.051,1.367-0.42,1.68-0.344c0.113,0.027,0.219,0.051,0.322,0.082c0.309,0.078,2.914-1.234,3.184-1.137
							s-1.791,1.613-1.563,1.727c0.014,0.012,0.031,0.018,0.045,0.023c0.225,0.117,2.855-0.088,3.035,0.035
							c0.176,0.129-2.1,0.594-1.975,0.73c0.029,0.031,0.061,0.063,0.086,0.098c0.117,0.143-1.059,0.367-0.998,0.516
							c0.055,0.146,1.35,0.223,1.35,0.369s4.133,0.229,4.08,0.369c-0.057,0.143-4.301,0.352-4.408,0.488
							c-0.025,0.035-0.055,0.068-0.08,0.096c-0.123,0.143,2.51,0.766,2.334,0.893c-0.176,0.133-3.164-0.232-3.389-0.113
							c-0.096,0.047-0.203,0.1-0.313,0.15c-0.236,0.109,1.043,0.998,0.766,1.088c-0.279,0.094-2.123-0.609-2.438-0.535
							c-0.105,0.027-0.217,0.049-0.33,0.076c-0.322,0.068,0.818,2.338,0.467,2.385c-0.348,0.049-2.197-2.133-2.564-2.107
							c-0.359,0.023-0.83,0.898-1.199,0.898s-0.645-0.875-1.01-0.898c-0.08-0.004-0.162-0.01-0.246-0.018
							c-0.361-0.027-2.07,1.439-2.414,1.385c-0.344-0.049,0.672-1.621,0.35-1.693c-0.074-0.016-0.15-0.033-0.225-0.051
							c-0.311-0.078-1.818,0.318-2.094,0.223c-0.279-0.096,0.666-0.688,0.43-0.801c-0.18-0.082-0.348-0.174-0.502-0.262
							c-0.207-0.127-4.277,0.41-4.436,0.273c-0.137-0.121,2.939-0.797,3.447-1.029c0.242-0.113,0.957-0.314,0.926-0.459
							c-0.029-0.148-1.119-0.275-1.109-0.422c0.006-0.152-2.938-0.766-2.867-0.918c0.064-0.143,3.145,0.176,3.27,0.035
							c0.076-0.09,0.158-0.172,0.254-0.254c0.15-0.129,1.549,0.164,1.725,0.043c0.178-0.127-0.564-0.654-0.658-0.793
							c-0.225-0.313-1.744-1.266-1.492-1.348c0.283-0.096,2.889,0.939,3.207,0.861c0.186-0.041,0.371-0.082,0.566-0.115
							c0.326-0.07-0.012-1.002,0.334-1.043c0.307-0.039,1.145,0.615,1.592,0.762c0.275,0.096,0.789-1.723,1.146-1.715
							c0.361,0.006,0.652,1.738,1.006,1.76C111.331,217.753,111.448,217.765,111.563,217.771z"/>
						<ellipse id="lyf1211nucleo" cx="110.015" cy="220.71" rx="4.599" ry="1.012"/>
					</g>
					<g id="lyf1211steams">
						<path id="lyf1211s12" fill="#FFFFFF" d="M96.733,225.294l-0.27-0.283c0.328-0.137,1.785-0.617,3.512-1.17
							c2.564-0.834,5.574-2.119,6.918-2.648c0.156-0.059,0.412-0.182,0.408-0.311c-0.049-1.102-7.057-3.582-10.949-4.83
							c-2.221-0.715-4.023-1.563-4.75-1.918l0.197-0.115c0.676,0.328,2.49,0.908,4.596,1.586c6.582,2.111,11.625,3.84,11.688,5.25
							c0.014,0.266-0.125,0.635-0.852,0.922c-1.369,0.539-4.574,1.572-7.15,2.406C98.444,224.716,97.03,225.171,96.733,225.294
							L96.733,225.294z"/>
						<path id="lyf1211s11" fill="#FFFFFF" d="M107.374,221.233c-0.559-0.811-3.023-2.424-5.883-4.289
							c-4.939-3.234-11.088-7.254-13.307-10.762l0.35-0.148c2.141,3.387,8.82,7.379,13.445,10.4c3.039,1.992,5.441,3.561,6.074,4.48
							L107.374,221.233L107.374,221.233z"/>
						<path id="lyf1211s10" fill="#FFFFFF" d="M108.36,220.884c-3.289-4.256-13.025-16.598-15.883-19.848l0.26-0.141
							c2.867,3.264,12.99,15.385,16.283,19.641C108.963,220.833,108.77,220.976,108.36,220.884L108.36,220.884z"/>
						<path id="lyf1211s9" fill="#FFFFFF" d="M109.963,220.327c-0.26,0.191-0.518,0.227-0.785-0.01
							c0.102-3.48-4.568-17.063-5.844-19.25l0.336-0.086C104.766,202.864,110.063,216.604,109.963,220.327L109.963,220.327z"/>
						<path id="lyf1211s8" fill="#FFFFFF" d="M111.721,220.729c-0.27,0.264-0.533,0.313-0.779-0.039
							c0.238-2.938,1.172-16.264,1.268-18.701l0.395,0.01C112.508,204.448,111.959,217.792,111.721,220.729L111.721,220.729z"/>
						<path id="lyf1211s7" fill="#FFFFFF" d="M112.975,220.812l-0.74-0.203c0.08-0.191,7.928-18.889,8.553-20.793l0.52,0.086
							C120.672,201.829,113.297,220.044,112.975,220.812L112.975,220.812z"/>
						<path id="lyf1211s6" fill="#FFFFFF" d="M113.833,220.96l-0.498-0.496c3.641-2.488,14.787-13.504,16.172-16.256l0.385,0.014
							C128.366,207.249,117.208,218.655,113.833,220.96L113.833,220.96z"/>
						<path id="lyf1211s5" fill="#FFFFFF" d="M113.719,221.376l-0.27-0.604c3.857-1.176,17.701-6.879,19.285-8.395l0.32,0.225
							C131.264,214.325,117.284,220.292,113.719,221.376L113.719,221.376z"/>
						<path id="lyf1211s4" fill="#FFFFFF" d="M118.385,227.806c-0.168-0.146-4.158-3.686-6.115-6.344
							c-0.352-0.475-0.402-0.916-0.156-1.313c0.795-1.262,4.387-1.268,9.752-1.568c2.752-0.154,5.531-0.258,6.508-0.66l0.158,0.26
							c-1.119,0.455-3.67,0.598-6.621,0.76c-3.77,0.211-8.447,0.475-9.102,1.506c-0.043,0.068-0.17,0.273,0.129,0.682
							c1.914,2.604,5.697,6.418,5.736,6.455L118.385,227.806L118.385,227.806z"/>
						<path id="lyf1211s3" fill="#FFFFFF" d="M102.76,226.903l0.027-0.246c0.059-0.041,5.594-3.938,6.631-5.037
							c0.25-0.055,0.355,0.006,0.309,0.197c-1.063,1.127-6.57,4.813-6.801,4.973L102.76,226.903z"/>
						<path id="lyf1211s2" fill="#FFFFFF" d="M111.583,227.638c-0.031-0.154-0.693-4.01-0.594-6.135
							c0.186-0.242,0.398-0.242,0.631-0.047c-0.09,2.057,0.27,6.104,0.275,6.137L111.583,227.638L111.583,227.638z"/>
						<path id="lyf1211s1" fill="#FFFFFF" d="M128.874,227.478c-2.035-0.799-15.719-6.42-15.855-6.48l0.348-0.574
							c0.139,0.055,13.586,5.979,15.613,6.775L128.874,227.478L128.874,227.478z"/>
					</g>
					<g id="lyf1211botoes">
						<path id="lyf1211b24" fill="#FEB900" d="M93.125,200.265c0,0.547-0.541,0.984-1.217,0.984c-0.672,0-1.215-0.438-1.215-0.984
							c0-0.541,0.543-0.984,1.215-0.984C92.584,199.28,93.125,199.724,93.125,200.265z"/>
						<path id="lyf1211b23" fill="#FEB900" d="M89.211,206.034c0,0.52-0.479,0.936-1.066,0.936c-0.59,0-1.066-0.416-1.066-0.936
							c0-0.514,0.477-0.93,1.066-0.93C88.733,205.104,89.211,205.521,89.211,206.034z"/>
						<ellipse id="lyf1211b22" fill="#FEB900" cx="90.913" cy="213.636" rx="1.564" ry="0.74"/>
						<path id="lyf1211b21" fill="#FEB900" d="M112.731,200.257c0.949,0.109,1.637,0.648,1.545,1.203
							c-0.096,0.555-0.938,0.912-1.887,0.803c-0.945-0.109-1.633-0.646-1.539-1.199
							C110.946,200.511,111.786,200.144,112.731,200.257z"/>
						<path id="lyf1211b20" fill="#FEB900" d="M106.977,212.511c0.701,0.25,1.047,0.871,0.777,1.383
							c-0.27,0.514-1.059,0.727-1.756,0.473c-0.699-0.246-1.047-0.865-0.775-1.381C105.495,212.476,106.282,212.257,106.977,212.511
							z"/>
						<path id="lyf1211b19" fill="#FEB900" d="M103.993,215.952c0.703,0.254,1.049,0.871,0.777,1.387
							c-0.27,0.514-1.055,0.727-1.756,0.473c-0.697-0.246-1.045-0.867-0.775-1.381C102.51,215.915,103.295,215.702,103.993,215.952z
							"/>
						<path id="lyf1211b18" fill="#FEB900" d="M111.004,215.577c0.697,0.246,1.043,0.867,0.775,1.379
							c-0.271,0.514-1.061,0.727-1.76,0.48c-0.693-0.254-1.041-0.875-0.775-1.385C109.516,215.534,110.303,215.323,111.004,215.577z
							"/>
						<path id="lyf1211b17" fill="#FEB900" d="M117.374,215.806c0.697,0.248,1.047,0.867,0.773,1.385
							c-0.268,0.512-1.053,0.723-1.752,0.471c-0.697-0.252-1.045-0.869-0.775-1.381
							C115.891,215.769,116.676,215.556,117.374,215.806z"/>
						<path id="lyf1211b16" fill="#FEB900" d="M120.088,218.222c0.699,0.254,1.047,0.867,0.773,1.385
							c-0.268,0.516-1.055,0.725-1.752,0.475c-0.697-0.254-1.049-0.867-0.777-1.381
							C118.606,218.187,119.389,217.968,120.088,218.222z"/>
						<path id="lyf1211b15" fill="#FEB900" d="M113.68,219.257c0.699,0.25,1.047,0.869,0.775,1.385
							c-0.268,0.514-1.055,0.725-1.754,0.475c-0.697-0.25-1.045-0.871-0.777-1.383C112.2,219.224,112.981,219.007,113.68,219.257z"
							/>
						<path id="lyf1211b14" fill="#FEB900" d="M109.51,219.761c0.701,0.246,1.047,0.867,0.775,1.379
							c-0.27,0.514-1.057,0.729-1.756,0.48c-0.697-0.254-1.045-0.873-0.775-1.385C108.026,219.718,108.811,219.507,109.51,219.761z"
							/>
						<path id="lyf1211b13" fill="#FEB900" d="M111.924,222.015c0.697,0.254,1.049,0.869,0.777,1.385
							c-0.271,0.51-1.057,0.729-1.754,0.475c-0.701-0.252-1.047-0.867-0.775-1.383C110.442,221.976,111.227,221.767,111.924,222.015
							z"/>
						<path id="lyf1211b12" fill="#FEB900" d="M112.629,227.29c0.699,0.252,1.045,0.871,0.775,1.385
							c-0.27,0.512-1.057,0.727-1.754,0.477c-0.701-0.252-1.045-0.871-0.775-1.387C111.145,227.253,111.93,227.04,112.629,227.29z"
							/>
						<path id="lyf1211b11" fill="#FEB900" d="M112.717,212.544c0.549,0.045,0.943,0.529,0.877,1.088
							c-0.061,0.557-0.555,0.973-1.102,0.934c-0.553-0.045-0.943-0.535-0.881-1.088
							C111.674,212.921,112.168,212.499,112.717,212.544z"/>
						<path id="lyf1211b10" fill="#FEB900" d="M104.454,200.265c0,0.549-0.6,0.996-1.34,0.996c-0.732,0-1.338-0.447-1.338-0.996
							c0-0.547,0.605-0.996,1.338-0.996C103.854,199.269,104.454,199.718,104.454,200.265z"/>
						<path id="lyf1211b9" fill="#FEB900" d="M134.635,212.104c0,0.621-0.482,1.123-1.074,1.123c-0.598,0-1.08-0.502-1.08-1.123
							c0-0.623,0.482-1.129,1.08-1.129C134.153,210.976,134.635,211.481,134.635,212.104z"/>
						<path id="lyf1211b8" fill="#FEB900" d="M125.522,206.034c0,0.52-0.697,0.936-1.551,0.936c-0.855,0-1.551-0.416-1.551-0.936
							c0-0.514,0.695-0.93,1.551-0.93C124.825,205.104,125.522,205.521,125.522,206.034z"/>
						<ellipse id="lyf1211b7" fill="#FEB900" cx="121.164" cy="199.146" rx="1.55" ry="0.934"/>
						<path id="lyf1211b6" fill="#FEB900" d="M131.307,204.099c0,0.514-0.689,0.936-1.547,0.936s-1.553-0.422-1.553-0.936
							s0.695-0.93,1.553-0.93S131.307,203.585,131.307,204.099z"/>
						<path id="lyf1211b5" fill="#FEB900" d="M120.356,228.073c0,0.531-0.58,0.969-1.293,0.969c-0.717,0-1.293-0.438-1.293-0.969
							c0-0.535,0.576-0.973,1.293-0.973C119.776,227.101,120.356,227.538,120.356,228.073z"/>
						<ellipse id="lyf1211b4" fill="#FEB900" cx="129.676" cy="227.56" rx="0.979" ry="1.209"/>
						<path id="lyf1211b3" fill="#FEB900" d="M129.524,217.538c0.215,0.457,0.064,0.93-0.336,1.057
							c-0.398,0.129-0.891-0.141-1.105-0.6c-0.215-0.457-0.066-0.93,0.334-1.055C128.813,216.813,129.309,217.081,129.524,217.538z"
							/>
						<path id="lyf1211b2" fill="#FEB900" d="M103.504,227.19c0,0.352-0.525,0.643-1.172,0.643c-0.65,0-1.172-0.291-1.172-0.643
							c0-0.363,0.521-0.652,1.172-0.652C102.979,226.538,103.504,226.827,103.504,227.19z"/>
						<path id="lyf1211b1" fill="#FEB900" d="M96.754,225.433c0,0.609-0.57,1.105-1.273,1.105c-0.701,0-1.27-0.496-1.27-1.105
							c0-0.607,0.568-1.104,1.27-1.104C96.184,224.329,96.754,224.825,96.754,225.433z"/>
					</g>
				</g>
			</g>
		</g>
		<g id="lyr122c">
			
				<linearGradient id="lyr122_1_" gradientUnits="userSpaceOnUse" x1="1162.7461" y1="158.5166" x2="1253.3379" y2="158.5166" gradientTransform="matrix(1 0 0 1 -944.0469 0)">
				<stop  offset="0" style="stop-color:#42210B"/>
				<stop  offset="1" style="stop-color:#8C6239"/>
			</linearGradient>
			<path id="lyr122" fill="url(#lyr122_1_)" d="M219.579,192.413c-0.063-0.242,4.215-2.643,4.152-2.889
				c-0.059-0.242-4.455,1.672-4.516,1.428l-0.516-2.066c18.139-8.746,70.85-54.664,85.275-68.678l0.486-0.471l4.83-1.936
				l-3.717,4.242c-16.625,11.611-63.551,68.119-82.348,77.188C220.627,197.841,219.379,195.589,219.579,192.413z"/>
			<g id="lyf122">
				<g id="lyf122petalas">
					<path id="lyf122p5" fill="#FFCCCC" stroke="#000000" stroke-width="0.8316" stroke-miterlimit="10" d="M292.02,143.669
						c0.639,2.178-3.322,7.307-3.727,12.146c-0.406,4.84,1.633,13.498,9.355,15.99c7.727,2.494,9.469,1.553,14.17,3.588
						c4.703,2.039,12.855-2.193,15.303-6.52c2.449-4.328,4.146-5.627,4.682-7.359c0.531-1.734-3.852-9.309-6.736-11.68
						c-2.887-2.371,0.719-3.301-3.613-5.332s-18.533-3.828-21.807-4.313C296.37,139.698,294.907,143.976,292.02,143.669z"/>
					<path id="lyf122p4" fill="#FFCCCC" stroke="#000000" stroke-width="0.8316" stroke-miterlimit="10" d="M281.358,138.364
						c-4.803,0.225-14.184-0.629-19.49,0.52c-5.309,1.148-18.832,11.105-21.598,15.869c-2.768,4.762-0.301,12.869,3.945,16.27
						c4.244,3.395,17.342,6.252,28.365-0.803c11.029-7.049,14.959-14.496,15.949-18.576c0.994-4.082-0.338-6.902-0.486-8.125
						C287.897,142.302,281.358,138.364,281.358,138.364z"/>
					<path id="lyf122p3" fill="#FFCCCC" stroke="#000000" stroke-width="0.8316" stroke-miterlimit="10" d="M281.25,137.495
						c-7.137,0.322-19.973,0.629-23.666,0.773c-3.697,0.15-17.094-3.172-18.484-13.68c-1.393-10.506,5.305-10.369,6.25-14.887
						c0.936-4.512,7.537-6.861,12.482-6.584c4.945,0.283,20.75,2.057,24.725,10.35c3.971,8.299,1.568,9.666,3.635,12.045
						C288.262,127.896,278.491,132.054,281.25,137.495z"/>
					<path id="lyf122p2" fill="#FFCCCC" stroke="#000000" stroke-width="0.8316" stroke-miterlimit="10" d="M290.542,124.228
						c-1.738-7.205-6.395-11.936-3.076-18.26c3.324-6.326,4.15-10.232,11.814-15.914c7.67-5.68,17.332-7.129,24.242-8.34
						c6.906-1.205,13.809,2.15,12.93,11.758c-0.885,9.602-3.125,12.545-10.508,20.578c-7.387,8.031-16.451,11.354-20.525,12.977
						C297.055,123.872,294.891,122.948,290.542,124.228z"/>
					<path id="lyf122p1" fill="#FFCCCC" stroke="#000000" stroke-width="0.8316" stroke-miterlimit="10" d="M307.36,127.714
						c7.389-4.023,21.959-13.379,29.502-17.021c7.541-3.637,16.025-1.053,19.668-0.088c3.643,0.967,1.293,6.08,4.635,6.104
						c3.344,0.027,8.951,3.418,8.344,7.588c-0.613,4.174-8.268,11.465-14.629,14.156c-6.355,2.695-26.357,6.15-35.773,3.504
						c-9.418-2.635-7.084-3.291-13.771-3.346C298.647,138.562,306.475,128.196,307.36,127.714z"/>
				</g>
				<g id="lyf122shadow">
					
						<linearGradient id="lyf122h5_1_" gradientUnits="userSpaceOnUse" x1="1200.668" y1="342.3848" x2="1236.3945" y2="342.3848" gradientTransform="matrix(0.973 -0.2063 0.085 0.6398 -906.2155 191.9871)">
						<stop  offset="0" style="stop-color:#E69EA0"/>
						<stop  offset="1" style="stop-color:#AD7778"/>
					</linearGradient>
					<path id="lyf122h5" fill="url(#lyf122h5_1_)" d="M295.159,148.112c-1.523,1.727-4.049,3.354-4.744,5.811
						c-0.693,2.455,0.32,14.93,11.25,17.305c10.93,2.377,12.082,3.717,16.086,2.52c2.906-0.879,6.664-4.381,8.514-6.787
						c0.691-0.902,1.273-1.959,0.512-1.949c-2.682,0.047-6.537,5.287-11.586,5.479c-5.053,0.195-14.717-3.982-16.41-7.758
						c-1.691-3.773,3.971-8.494,4.039-12.363C302.887,146.507,299.625,143.044,295.159,148.112z"/>
					
						<linearGradient id="lyf122h4_1_" gradientUnits="userSpaceOnUse" x1="1143.3779" y1="319.7686" x2="1189.6367" y2="319.7686" gradientTransform="matrix(0.973 -0.2063 0.085 0.6398 -906.2155 191.9871)">
						<stop  offset="0" style="stop-color:#E69EA0"/>
						<stop  offset="1" style="stop-color:#AD7778"/>
					</linearGradient>
					<path id="lyf122h4" fill="url(#lyf122h4_1_)" d="M249.792,171.444c-4.445-0.404-7.076-4.889-7.906-9.455
						c-0.832-4.58-0.596-7.252,1.721-9.604c2.313-2.352,12.086-10.771,18.172-12.43c6.088-1.656,14.154-1.086,18.229-0.471
						c4.076,0.615,6.33,5.236,5.979,7.471c-2.131,1.836-2.561-1.732-5.791-2.855c-3.229-1.129-13.084-4.84-23.004,1.15
						c-9.922,5.992-8.213,5.77-9.465,11.793c-1.254,6.018,2.93,8.896,6.389,9.881C257.575,167.901,256.485,172.058,249.792,171.444z
						"/>
					
						<linearGradient id="lyf122h3_1_" gradientUnits="userSpaceOnUse" x1="1155.3271" y1="263.3867" x2="1196.6836" y2="263.3867" gradientTransform="matrix(0.973 -0.2063 0.085 0.6398 -906.2155 191.9871)">
						<stop  offset="0" style="stop-color:#E69EA0"/>
						<stop  offset="1" style="stop-color:#AD7778"/>
					</linearGradient>
					<path id="lyf122h3" fill="url(#lyf122h3_1_)" d="M251.782,133.573c1.021,0.504-0.463,1.406-1.613,0.699
						c-6.109-3.756-11.332-9.58-9.461-14.584c1.871-5,3.502-3.268,4.771-6.986c0.975-2.867,4.773-7.455,8.406-8.121
						c3.633-0.67,5.828-0.199,6.426,0.291c0.598,0.488-1.064,3.109,2.328,2.498c3.389-0.611,6.498-1.514,8.59,0.418
						c2.09,1.926,8.238,4.551,9.453,7.402c0.52,1.227-0.484,1.477-1.738,0.25c-1.285-1.27-4.879-2.355-9.744-1.9
						c-7.908,0.74-8.434,0.725-12.551-0.557c-4.113-1.279-3.83,2.227-6.205,6.137c-2.371,3.914-6.957,4.742-3.088,8.723
						C248.86,129.396,249.856,132.616,251.782,133.573z"/>
					
						<linearGradient id="lyf122h2_1_" gradientUnits="userSpaceOnUse" x1="1206.9492" y1="246.2109" x2="1254.21" y2="246.2109" gradientTransform="matrix(0.973 -0.2063 0.085 0.6398 -906.2155 191.9871)">
						<stop  offset="0" style="stop-color:#E69EA0"/>
						<stop  offset="1" style="stop-color:#AD7778"/>
					</linearGradient>
					<path id="lyf122h2" fill="url(#lyf122h2_1_)" d="M290.542,107.849c1.492-4.506,0.555-8.723,5.754-12.801
						c5.203-4.08,10.684-8.385,19.016-10.145c8.32-1.768,15.582-2.594,17.893,1.17c2.314,3.762,3.096,10.77,1.041,13.258
						c-0.836,1.02-1.453,0.883-1.908-0.02c-0.652-1.316-0.535-3.822-2.135-4.293c-2.697-0.809-2.004-8.695-10.104-4.396
						c-7.416,3.938-14.176-0.15-17.977,3.336c-3.803,3.479-7.846,12.031-7.918,13.48C294.129,108.888,289,112.503,290.542,107.849z"
						/>
					
						<linearGradient id="lyf122h1_1_" gradientUnits="userSpaceOnUse" x1="1222.4707" y1="290.7979" x2="1277.2012" y2="290.7979" gradientTransform="matrix(0.973 -0.2063 0.085 0.6398 -906.2155 191.9871)">
						<stop  offset="0" style="stop-color:#E69EA0"/>
						<stop  offset="1" style="stop-color:#AD7778"/>
					</linearGradient>
					<path id="lyf122h1" fill="url(#lyf122h1_1_)" d="M311.504,126.683c6.707-3.719,20.893-13.727,28.184-14.76
						c7.293-1.025,13.617-2.16,16.84,1.619c1.486,1.744,0.545,4.66,3.984,5.469c3.441,0.809,0.311,4.082-4.803,3.266
						c-5.109-0.82,0.604-8.867-10.098-6.771c-10.701,2.092-31.508,11.207-32.648,12.496
						C311.823,129.292,304.239,130.708,311.504,126.683z"/>
				</g>
				<g id="lyf122centro">
					<path id="lyf122outline" fill="#751316" d="M293.571,124.343c0.672-0.047,0.268,2.045,0.916,2.076
						c0.648,0.029,2.354-1.994,2.965-1.885c0.213,0.043,0.42,0.082,0.625,0.131c0.598,0.143,4.873-5.396,5.412-5.178
						c0.541,0.215-2.648,6.189-2.182,6.477c0.029,0.02,0.061,0.041,0.092,0.059c0.463,0.289,5.234-1.527,5.611-1.18
						c0.381,0.348-3.629,2.885-3.34,3.291c0.066,0.1,0.133,0.191,0.197,0.291c0.27,0.424-1.807,1.691-1.637,2.168
						c0.166,0.471,2.58,0.156,2.643,0.662c0.057,0.482,7.721-1.025,7.68-0.52c-0.041,0.502-7.793,3.029-7.939,3.541
						c-0.031,0.119-0.068,0.238-0.111,0.365c-0.166,0.518,4.947,1.475,4.674,1.982c-0.271,0.506-5.934,0.578-6.295,1.07
						c-0.164,0.215-0.336,0.43-0.516,0.643c-0.398,0.469,2.332,2.904,1.854,3.336c-0.477,0.432-4.174-1.135-4.719-0.752
						c-0.188,0.133-0.379,0.264-0.576,0.387c-0.574,0.371,2.459,7.516,1.832,7.82c-0.625,0.305-4.926-6.211-5.588-5.979
						c-0.658,0.236-1.174,3.391-1.852,3.549c-0.68,0.16-1.545-2.674-2.225-2.596c-0.154,0.018-0.311,0.035-0.467,0.045
						c-0.676,0.063-3.236,5.723-3.889,5.697c-0.654-0.023,0.576-5.734-0.043-5.842c-0.145-0.023-0.289-0.051-0.432-0.082
						c-0.611-0.121-3.227,1.857-3.781,1.656c-0.551-0.207,0.953-2.598,0.473-2.869c-0.367-0.209-0.711-0.434-1.035-0.68
						c-0.426-0.328-7.732,3.221-8.068,2.834c-0.305-0.352,5.098-3.949,5.938-4.945c0.404-0.48,1.637-1.465,1.523-1.941
						c-0.115-0.482-2.176-0.438-2.221-0.938c-0.047-0.506-5.729-1.313-5.662-1.84c0.063-0.52,5.875-0.777,6.045-1.305
						c0.105-0.32,0.23-0.637,0.367-0.949c0.229-0.504,2.924-0.113,3.203-0.609c0.277-0.5-1.305-1.949-1.545-2.375
						c-0.531-0.951-3.723-3.494-3.295-3.879c0.488-0.445,5.715,1.914,6.271,1.516c0.32-0.225,0.65-0.443,0.994-0.648
						c0.576-0.352-0.432-3.35,0.193-3.645c0.549-0.248,2.361,1.566,3.246,1.887c0.543,0.191,0.758-6.131,1.426-6.262
						c0.664-0.129,1.904,5.559,2.57,5.48C293.125,124.378,293.35,124.364,293.571,124.343z"/>
					<path id="lyf122nucleo" fill="#1D0506" d="M300.629,132.239c0.424,3.521-3.1,7.268-7.869,8.381
						c-4.768,1.111-8.98-0.834-9.402-4.348c-0.426-3.518,3.098-7.266,7.865-8.377C295.993,126.784,300.204,128.729,300.629,132.239z
						"/>
				</g>
				<g id="lyf122steams">
					<path id="lyf122s0" fill="#FFFFFF" d="M294.42,128.661l-1.377-0.1c2.5-6.117,9.561-21.865,9.947-22.412l0.572,0.246
						C303.209,107.001,297.024,122.292,294.42,128.661L294.42,128.661z"/>
					<path id="lyf122s9" fill="#FFFFFF" d="M326.692,142.022c-3.986,0.93-14.615-0.547-22.41-1.629
						c-3.014-0.42-5.617-0.781-6.711-0.832l0.408-1.094c1.168,0.055,3.68,0.402,6.863,0.84c7.322,1.02,18.307,2.961,21.783,2.037
						l0.252,0.629C326.815,141.987,326.754,142.007,326.692,142.022L326.692,142.022z"/>
					<path id="lyf122s8" fill="#FFFFFF" d="M325.459,130.257c-0.727,0.109-3.221,0.574-6.166,1.25
						c-6.563,1.512-16.373,4.229-20.48,4.561l0.172-1.09c3.961-0.318,13.781-2.58,20.281-4.078c3.109-0.715,5.354-1.23,6.152-1.354
						l0.393,0.441L325.459,130.257z"/>
					<path id="lyf122s7" fill="#FFFFFF" d="M303.176,132.185l-0.209-1.025c10.338-2.861,18.025-5.51,22.615-8.84l0.436,0.355
						C321.233,126.146,313.762,129.255,303.176,132.185L303.176,132.185z"/>
					<path id="lyf122s6" fill="#FFFFFF" d="M275.833,153.841l-0.24-0.469c2.139-0.877,11.072-11.049,12.615-12.967l1.197,0.406
						C287.993,142.562,277.862,152.741,275.833,153.841L275.833,153.841z"/>
					<path id="lyf122s5" fill="#FFFFFF" d="M262.397,144.948l-0.102-0.605c0.934-0.23,2.793-0.701,5.072-1.289
						c5.873-1.521,14.684-4.266,17.904-4.887l0.047,1.059c-3.154,0.615-11.992,2.898-17.836,4.41
						C265.192,144.229,263.334,144.714,262.397,144.948L262.397,144.948z"/>
					<path id="lyf122s4" fill="#FFFFFF" d="M283.512,136.554c-2.902-1.93-16.834-6.068-20.621-6.953l0.332-0.506
						c3.287,0.766,18.174,4.436,21.373,6.568L283.512,136.554L283.512,136.554z"/>
					<path id="lyf122s3" fill="#FFFFFF" d="M287,131.155c-0.383-0.393-0.809-0.934-1.303-1.559c-1.414-1.787-2.949-4.986-6.453-7.25
						l0.475-0.395c3.627,2.344,5.82,5.105,7.268,6.938c0.48,0.605,0.893,1.135,1.25,1.5L287,131.155L287,131.155z"/>
					<path id="lyf122s2" fill="#FFFFFF" d="M299.684,130.817l-1.047-0.564c1.324-1.24,5.418-4.381,9.75-7.703
						c4.803-3.682,10.666-7.488,12.049-8.891l0.674,0.156c-1.471,1.484-6.725,5.518-11.805,9.41
						C305.004,126.524,300.946,129.636,299.684,130.817L299.684,130.817z"/>
					<path id="lyf122s1" fill="#FFFFFF" d="M305.709,161.315c-0.465-0.68-12.154-16.293-13.021-21.598l1.439-0.369
						c0.842,5.141,12.064,21.502,12.176,21.666l-0.242,0.625L305.709,161.315z"/>
				</g>
				<g id="lyf122botoes">
					<path id="lyf122b17" fill="#FEB900" d="M305.649,105.944c-0.697,1.189-2.066,2.008-3.053,1.826
						c-0.984-0.182-1.223-1.295-0.525-2.486c0.697-1.188,2.063-2.008,3.051-1.824C306.108,103.644,306.344,104.753,305.649,105.944z
						"/>
					<path id="lyf122b16" fill="#FEB900" d="M322.979,113.349c-1.188,1.008-2.75,1.445-3.494,0.977
						c-0.742-0.467-0.383-1.664,0.801-2.672c1.186-1.01,2.746-1.447,3.488-0.975C324.518,111.144,324.161,112.343,322.979,113.349z"
						/>
					<path id="lyf122b15" fill="#FEB900" d="M328.168,135.624c-1.328,0.895-2.906,1.172-3.527,0.607
						c-0.621-0.561-0.047-1.744,1.277-2.639c1.332-0.902,2.91-1.176,3.531-0.615C330.071,133.542,329.495,134.728,328.168,135.624z"
						/>
					<path id="lyf122b14" fill="#FEB900" d="M326.911,131.187c-1.574,0.52-3.043,0.336-3.271-0.418
						c-0.238-0.75,0.85-1.777,2.426-2.297c1.574-0.521,3.045-0.334,3.275,0.418C329.573,129.642,328.485,130.667,326.911,131.187z"
						/>
					<path id="lyf122b13" fill="#FEB900" d="M279.877,120.495c1.068,0.711,1.268,1.832,0.449,2.506
						c-0.822,0.674-2.35,0.646-3.42-0.064c-1.068-0.711-1.268-1.836-0.449-2.51C277.278,119.753,278.809,119.784,279.877,120.495z"
						/>
					<path id="lyf122b12" fill="#FEB900" d="M263.163,127.509c1.35,0.424,1.951,1.4,1.35,2.178
						c-0.602,0.775-2.182,1.063-3.527,0.633c-1.35-0.426-1.949-1.402-1.348-2.176C260.235,127.366,261.815,127.081,263.163,127.509z
						"/>
					<path id="lyf122b11" fill="#FEB900" d="M308.729,161.835c-0.096,1.199-1.057,2.287-2.152,2.428
						c-1.092,0.139-1.902-0.729-1.811-1.932c0.096-1.203,1.055-2.289,2.15-2.426C308.01,159.769,308.819,160.628,308.729,161.835z"
						/>
					<path id="lyf122b10" fill="#FEB900" d="M261.731,146.062c-1.564,0.555-3.004,0.533-3.207-0.041
						c-0.207-0.574,0.893-1.49,2.459-2.045c1.563-0.549,3-0.531,3.205,0.043C264.395,144.599,263.293,145.507,261.731,146.062z"/>
					<path id="lyf122b9" fill="#FEB900" d="M275.598,155.022c-1.238,0.973-2.682,1.443-3.232,1.057
						c-0.545-0.393,0.012-1.494,1.252-2.467c1.236-0.975,2.68-1.445,3.227-1.057S276.831,154.054,275.598,155.022z"/>
					<path id="lyf122b8" fill="#FEB900" d="M293.6,134.667c-0.088,0.881-0.848,1.678-1.695,1.77
						c-0.852,0.096-1.469-0.537-1.379-1.422c0.086-0.883,0.848-1.676,1.697-1.77C293.071,133.146,293.688,133.784,293.6,134.667z"/>
					<path id="lyf122b7" fill="#FEB900" d="M289.221,139.622c-0.088,0.881-0.852,1.674-1.699,1.771
						c-0.85,0.098-1.467-0.541-1.381-1.422c0.09-0.887,0.848-1.676,1.697-1.771C288.688,138.101,289.309,138.741,289.221,139.622z"
						/>
					<path id="lyf122b6" fill="#FEB900" d="M289.741,130.702c-0.086,0.885-0.848,1.674-1.699,1.773
						c-0.848,0.098-1.467-0.541-1.379-1.422c0.092-0.887,0.848-1.68,1.697-1.773C289.211,129.183,289.833,129.819,289.741,130.702z"
						/>
					<path id="lyf122b5" fill="#FEB900" d="M300.049,133.931c-0.088,0.885-0.852,1.678-1.699,1.775
						c-0.85,0.094-1.467-0.541-1.381-1.422c0.09-0.887,0.85-1.68,1.699-1.775C299.522,132.413,300.137,133.054,300.049,133.931z"/>
					<path id="lyf122b4" fill="#FEB900" d="M286.473,135.526c-0.088,0.883-0.848,1.68-1.697,1.771
						c-0.85,0.096-1.467-0.541-1.381-1.422c0.088-0.885,0.85-1.674,1.701-1.771C285.944,134.007,286.561,134.646,286.473,135.526z"
						/>
					<path id="lyf122b3" fill="#FEB900" d="M295.317,129.183c-0.088,0.883-0.85,1.684-1.699,1.771
						c-0.852,0.104-1.469-0.533-1.379-1.422c0.088-0.879,0.846-1.672,1.695-1.771C294.788,127.667,295.405,128.306,295.317,129.183z
						"/>
					<path id="lyf122b2" fill="#FEB900" d="M295.004,139.845c-0.088,0.885-0.848,1.674-1.699,1.773
						c-0.848,0.096-1.469-0.541-1.383-1.422c0.09-0.881,0.852-1.678,1.701-1.773C294.475,138.323,295.094,138.962,295.004,139.845z"
						/>
					<path id="lyf122b1" fill="#FEB900" d="M327.375,143.03c-1.5-0.186-2.459-0.855-2.143-1.49c0.318-0.639,1.781-1.01,3.281-0.818
						c1.498,0.189,2.457,0.855,2.143,1.492C330.34,142.854,328.872,143.218,327.375,143.03z"/>
				</g>
			</g>
		</g>
	</g>
	<g id="lyr13t">
		<g id="lyr13m">
			<path id="r13_1_" fill="#42210B" d="M437.206,214.413c-3.98,2.012-10.207,4.648-21.098,8.443
				c-10.887,3.807-39.574,15.008-39.574,15.008c-2.854-3.168-0.246-9.385,7.199-20.914c0,0,31.865-5.865,39.854-7.635
				c6.197-1.375,12.059-2.586,22.277-7.24c10.221-4.662,17.598-8.23,28.951-14.951c11.359-6.715,25.174-17.402,30.883-21.443
				c5.713-4.033,22.957-15.914,24.256-14.443c-1.627,3.838-1.994,3.117-1.994,3.117s-6.465,1.027-26.471,17.123
				c-20.008,16.092-37.197,26.951-43.807,30.652C451.083,205.827,443.512,211.229,437.206,214.413z"/>
			
				<linearGradient id="r13n_1_" gradientUnits="userSpaceOnUse" x1="1049.0078" y1="-1484.2461" x2="1182.8203" y2="-1484.2461" gradientTransform="matrix(0.6167 -0.7685 -0.2608 -0.2093 -634.0583 744.1123)">
				<stop  offset="0" style="stop-color:#42210B"/>
				<stop  offset="1" style="stop-color:#8C6239"/>
			</linearGradient>
			<path id="r13n" fill="url(#r13n_1_)" d="M506.258,166.696c-10.803,8.814-23.072,17.436-35.201,25.477
				c-12.91,8.563-24.572,16.332-32.822,19.9c-17.967,7.781-45.701,18.719-57.227,21.324l0.914-3.492
				c11.074-2.504,37.518-11.488,55.432-19.08c0.643-0.273,1.283-0.543,1.902-0.814c2.525-1.09,4.078-2.02,2.061-1.141
				c-1.195,0.516-2.445,1.031-3.748,1.545c-16.596,6.557-41.244,12.764-54.938,15.859l0.375-2.338
				c14.73-3.328,43.035-10.07,59.334-17.131c4.057-1.756,4.281-2.111,0.059-0.287c-12.529,5.428-31.947,8.791-46.127,11.246
				c-5.408,0.936-9.424,1.598-12.732,2.344l0.439-2.375c3.334-0.752,8.184-1.184,13.602-2.117
				c14.123-2.449,33.467-5.797,45.842-11.156c16.1-6.975,41.945-20.93,63.842-38.801L506.258,166.696z"/>
		</g>
		
			<linearGradient id="lyr131_1_" gradientUnits="userSpaceOnUse" x1="1459.4785" y1="-281.4971" x2="1515.1641" y2="-281.4971" gradientTransform="matrix(0.7396 0.673 -0.673 0.7396 -781.171 -600.9514)">
			<stop  offset="0" style="stop-color:#42210B"/>
			<stop  offset="1" style="stop-color:#8C6239"/>
		</linearGradient>
		<path id="lyr131" fill="url(#lyr131_1_)" d="M474.506,187.589c11.859,3.525,54.82,4.457,67.178,4.055l0.416-0.014l2.996,1.121
			l-3.447,0.389c-12.361-1.598-56.215,2.893-68.51-0.762l-0.322-1.656L474.506,187.589z"/>
		<g id="lyf13">
			<g id="lyf13petalas">
				<path id="lyf13p5" fill="#FFCCCC" stroke="#000000" stroke-width="0.8316" stroke-miterlimit="10" d="M503.766,183.304
					c1.039,2.064-0.613,7.09,0.324,11.73c0.938,4.645,4.684,12.871,11.117,15.047c6.434,2.17,7.496,1.215,11.543,3.035
					c4.047,1.816,9.074-2.455,9.797-6.666c0.725-4.215,1.668-5.496,1.621-7.174c-0.045-1.68-5.271-8.801-8.043-10.988
					c-2.773-2.191-0.309-3.18-4.076-5.004c-3.77-1.826-14.879-3.145-17.455-3.521C506.01,179.386,506.012,183.522,503.766,183.304z"
					/>
				<path id="lyf13p4" fill="#FFCCCC" stroke="#000000" stroke-width="0.8316" stroke-miterlimit="10" d="M494.413,178.526
					c-3.545,0.348-10.795-0.213-14.479,1.039c-3.688,1.25-11.271,11.156-12.121,15.789c-0.852,4.637,3.078,12.33,7.133,15.465
					c4.053,3.129,14.602,5.496,21.063-1.557c6.459-7.055,7.49-14.297,7.189-18.229c-0.303-3.93-2.027-6.6-2.451-7.758
					C500.323,182.11,494.413,178.526,494.413,178.526z"/>
				<path id="lyf13p3" fill="#FFCCCC" stroke="#000000" stroke-width="0.8316" stroke-miterlimit="10" d="M494.11,177.694
					c-5.27,0.51-14.813,1.16-17.545,1.406c-2.734,0.238-13.629-2.564-17.367-12.582c-3.74-10.02,1.318-10.07,0.863-14.422
					c-0.455-4.348,3.893-6.777,7.672-6.646c3.783,0.127,16.084,1.385,21.189,9.211c5.107,7.834,3.654,9.209,5.82,11.426
					C496.903,168.312,490.645,172.565,494.11,177.694z"/>
				<path id="lyf13p2" fill="#FFCCCC" stroke="#000000" stroke-width="0.8316" stroke-miterlimit="10" d="M497.672,164.737
					c-3.156-6.85-7.855-11.246-6.99-17.391s0.482-9.908,4.773-15.563c4.295-5.648,11.164-7.305,16.035-8.654
					c4.869-1.35,10.904,1.672,12.709,10.887c1.805,9.221,0.875,12.096-2.598,19.992c-3.477,7.895-9.422,11.326-12.063,12.99
					C502.467,164.218,500.6,163.39,497.672,164.737z"/>
				<path id="lyf13p1" fill="#FFCCCC" stroke="#000000" stroke-width="0.8316" stroke-miterlimit="10" d="M511.174,167.608
					c4.51-4.055,13.029-13.422,17.752-17.109c4.723-3.695,11.744-1.457,14.723-0.637c2.977,0.82,2.529,5.779,5.043,5.711
					s7.588,3.021,8.197,7.031c0.615,4.006-3.256,11.203-7.334,13.953c-4.076,2.758-18.182,6.623-25.92,4.354
					c-7.738-2.256-6.154-2.953-11.184-2.816S510.635,168.093,511.174,167.608z"/>
			</g>
			<g id="lyf13shadow">
				
					<linearGradient id="lyf13h5_1_" gradientUnits="userSpaceOnUse" x1="1183.2979" y1="199.543" x2="1208.8828" y2="199.543" gradientTransform="matrix(0.9397 -0.342 0.342 0.9397 -671.9617 419.6828)">
					<stop  offset="0" style="stop-color:#E69EA0"/>
					<stop  offset="1" style="stop-color:#AD7778"/>
				</linearGradient>
				<path id="lyf13h5" fill="url(#lyf13h5_1_)" d="M507.26,187.47c-0.697,1.693-2.178,3.326-2.066,5.691
					c0.111,2.375,4.072,14.283,12.871,16.252c8.811,1.965,10.014,3.221,12.707,1.959c1.955-0.916,3.881-4.371,4.643-6.73
					c0.289-0.881,0.451-1.91-0.113-1.877c-1.998,0.117-3.545,5.244-7.283,5.566c-3.736,0.328-12.053-3.406-14.295-6.971
					c-2.236-3.564,0.803-8.24-0.141-11.945C512.641,185.718,509.305,182.497,507.26,187.47z"/>
				
					<linearGradient id="lyf13h4_1_" gradientUnits="userSpaceOnUse" x1="1142.417" y1="183.8193" x2="1175.3379" y2="183.8193" gradientTransform="matrix(0.9397 -0.342 0.342 0.9397 -671.9617 419.6828)">
					<stop  offset="0" style="stop-color:#E69EA0"/>
					<stop  offset="1" style="stop-color:#AD7778"/>
				</linearGradient>
				<path id="lyf13h4" fill="url(#lyf13h4_1_)" d="M479.233,211.067c-3.436-0.266-6.559-4.48-8.352-8.834
					c-1.797-4.355-2.311-6.918-1.176-9.236c1.131-2.318,6.297-10.643,10.438-12.404c4.137-1.756,10.338-1.432,13.547-0.953
					c3.213,0.473,6.088,4.832,6.398,6.98c-1.131,1.816-2.369-1.584-5.082-2.574c-2.709-0.988-11.045-4.262-16.945,1.746
					c-5.902,6.008-4.674,5.75-4.07,11.547c0.604,5.799,4.477,8.434,7.322,9.279C484.161,207.462,484.409,211.468,479.233,211.067z"
					/>
				
					<linearGradient id="lyf13h3_1_" gradientUnits="userSpaceOnUse" x1="1150.6074" y1="147.0918" x2="1180.0879" y2="147.0918" gradientTransform="matrix(0.9397 -0.342 0.342 0.9397 -671.9617 419.6828)">
					<stop  offset="0" style="stop-color:#E69EA0"/>
					<stop  offset="1" style="stop-color:#AD7778"/>
				</linearGradient>
				<path id="lyf13h3" fill="url(#lyf13h3_1_)" d="M471.008,174.763c0.896,0.457,0.014,1.357-1.025,0.713
					c-5.549-3.424-10.955-8.852-10.838-13.691s1.789-3.227,1.785-6.822c-0.006-2.768,1.664-7.268,4.217-8.006
					c2.555-0.74,4.32-0.352,4.893,0.098s0,3.008,2.387,2.33c2.383-0.68,4.484-1.635,6.547,0.158c2.063,1.789,7.344,4.129,8.986,6.82
					c0.705,1.16,0.018,1.43-1.24,0.289c-1.287-1.176-4.258-2.121-7.793-1.547c-5.734,0.93-6.137,0.924-9.551-0.184
					c-3.41-1.107-2.299,2.242-3.074,6.051c-0.777,3.807-4.002,4.73-0.082,8.428C467.747,170.845,469.319,173.897,471.008,174.763z"
					/>
				
					<linearGradient id="lyf13h2_1_" gradientUnits="userSpaceOnUse" x1="1187.3691" y1="136.9961" x2="1220.9814" y2="136.9961" gradientTransform="matrix(0.9397 -0.342 0.342 0.9397 -671.9617 419.6828)">
					<stop  offset="0" style="stop-color:#E69EA0"/>
					<stop  offset="1" style="stop-color:#AD7778"/>
				</linearGradient>
				<path id="lyf13h2" fill="url(#lyf13h2_1_)" d="M493.467,149.056c-0.039-4.348-1.822-8.361,1.031-12.408
					s5.857-8.318,11.65-10.238c5.789-1.918,11.02-2.914,13.719,0.621c2.699,3.537,5.08,10.223,4.18,12.66
					c-0.363,0.998-0.863,0.889-1.436,0.035c-0.822-1.242-1.385-3.645-2.701-4.055c-2.229-0.691-3.729-8.262-8.703-3.92
					c-4.549,3.975-10.664,0.248-12.623,3.691c-1.957,3.441-2.791,11.736-2.473,13.125
					C496.426,149.958,493.506,153.562,493.467,149.056z"/>
				
					<linearGradient id="lyf13h1_1_" gradientUnits="userSpaceOnUse" x1="1198.626" y1="166.9082" x2="1237.6426" y2="166.9082" gradientTransform="matrix(0.9397 -0.342 0.342 0.9397 -671.9617 419.6828)">
					<stop  offset="0" style="stop-color:#E69EA0"/>
					<stop  offset="1" style="stop-color:#AD7778"/>
				</linearGradient>
				<path id="lyf13h1" fill="url(#lyf13h1_1_)" d="M514.018,166.501c4.074-3.746,12.143-13.721,17.342-14.908
					c5.201-1.191,9.652-2.449,13.043,1.082c1.559,1.625,1.602,4.441,4.389,5.121c2.785,0.68,1.277,3.896-2.764,3.258
					c-4.043-0.641-1.822-8.498-9.311-6.201c-7.484,2.301-20.74,11.607-21.271,12.873
					C514.924,168.995,509.604,170.562,514.018,166.501z"/>
			</g>
			<g id="lyf13centro">
				<path id="lyf13outline" fill="#751316" d="M499.971,164.765c0.49-0.068,0.727,1.949,1.221,1.961
					c0.494,0.016,1.25-1.975,1.734-1.887c0.172,0.031,0.338,0.07,0.508,0.109c0.484,0.117,2.268-5.305,2.727-5.109
					c0.459,0.191-0.395,6,0.027,6.266c0.027,0.014,0.057,0.031,0.084,0.047c0.42,0.268,3.529-1.609,3.906-1.287
					c0.373,0.328-1.982,2.867-1.66,3.244c0.076,0.092,0.146,0.184,0.221,0.273c0.311,0.402-0.92,1.674-0.672,2.117
					c0.246,0.449,1.975,0.082,2.15,0.564c0.17,0.463,5.529-1.199,5.625-0.713c0.096,0.484-5.066,3.117-5.045,3.609
					c0.012,0.121,0.012,0.238,0.014,0.355c0.008,0.498,4.082,1.273,4.012,1.77c-0.076,0.492-4.301,0.719-4.451,1.199
					c-0.064,0.209-0.137,0.422-0.221,0.625c-0.174,0.463,2.5,2.723,2.252,3.145c-0.25,0.426-3.422-0.969-3.732-0.586
					c-0.107,0.129-0.219,0.258-0.332,0.385c-0.334,0.369,3.771,7.119,3.379,7.436c-0.389,0.311-5.285-5.813-5.723-5.568
					c-0.434,0.246-0.01,3.277-0.475,3.447c-0.471,0.172-1.848-2.516-2.336-2.422c-0.113,0.023-0.225,0.043-0.338,0.059
					c-0.494,0.074-0.959,5.566-1.455,5.561c-0.498-0.004-1.039-5.504-1.531-5.588c-0.111-0.021-0.234-0.045-0.348-0.07
					c-0.484-0.102-1.941,1.871-2.404,1.689c-0.471-0.178,0.043-2.51-0.385-2.758c-0.324-0.189-0.643-0.4-0.951-0.619
					c-0.408-0.309-4.967,3.299-5.318,2.934c-0.322-0.328,2.805-3.918,3.184-4.898c0.176-0.469,0.85-1.443,0.639-1.9
					c-0.207-0.463-1.744-0.359-1.902-0.83c-0.164-0.486-4.629-1.098-4.719-1.602c-0.088-0.504,4.205-0.914,4.199-1.424
					c-0.004-0.305,0.01-0.611,0.031-0.916c0.043-0.488,2.164-0.191,2.242-0.674c0.082-0.486-1.475-1.832-1.764-2.229
					c-0.645-0.898-3.691-3.24-3.469-3.629c0.254-0.438,4.773,1.674,5.092,1.281c0.184-0.227,0.375-0.441,0.58-0.646
					c0.344-0.352-1.184-3.199-0.789-3.494c0.346-0.252,2.172,1.438,2.916,1.717c0.457,0.164-1.006-5.893-0.541-6.037
					c0.467-0.139,2.857,5.271,3.334,5.176C499.651,164.812,499.813,164.788,499.971,164.765z"/>
				<path id="lyf13nucleo" fill="#1D0506" d="M507.29,172.128c1.223,3.352-0.457,7.039-3.752,8.236
					c-3.287,1.197-6.945-0.547-8.162-3.896c-1.223-3.355,0.457-7.041,3.748-8.238C502.415,167.03,506.073,168.776,507.29,172.128z"
					/>
			</g>
			<g id="lyf13steams">
				<path id="lyf13s0" fill="#FFFFFF" d="M501.715,168.874l-1.059-0.055c0.307-5.928,1.559-21.195,1.707-21.729l0.496,0.219
					C502.749,147.897,502.032,162.706,501.715,168.874L501.715,168.874z"/>
				<path id="lyf13s9" fill="#FFFFFF" d="M529.34,180.761c-2.754,1.002-11.096-0.117-17.219-0.934
					c-2.369-0.316-4.414-0.59-5.25-0.611l0.025-1.061c0.891,0.021,2.865,0.285,5.365,0.619c5.752,0.77,14.482,2.322,16.854,1.34
					l0.348,0.596C529.426,180.726,529.383,180.747,529.34,180.761L529.34,180.761z"/>
				<path id="lyf13s8" fill="#FFFFFF" d="M525.397,169.53c-0.518,0.133-2.27,0.645-4.305,1.377
					c-4.527,1.631-11.188,4.502-14.182,4.932l-0.15-1.047c2.889-0.416,9.67-2.855,14.16-4.469c2.146-0.773,3.697-1.328,4.266-1.467
					l0.404,0.412L525.397,169.53z"/>
				<path id="lyf13s7" fill="#FFFFFF" d="M509.184,172.003l-0.416-0.977c7.014-3.025,12.096-5.777,14.684-9.092l0.416,0.328
					C521.172,165.714,516.37,168.903,509.184,172.003L509.184,172.003z"/>
				<path id="lyf13s6" fill="#FFFFFF" d="M494.239,193.493l-0.301-0.447c1.383-0.9,5.471-10.883,6.135-12.758l1,0.355
					C500.465,182.36,495.483,192.378,494.239,193.493L494.239,193.493z"/>
				<path id="lyf13s5" fill="#FFFFFF" d="M481.883,185.351l-0.227-0.574c0.639-0.242,1.91-0.744,3.469-1.373
					c4.016-1.621,9.914-4.488,12.168-5.178l0.309,1.012c-2.203,0.676-8.248,3.117-12.238,4.723
					C483.795,184.593,482.528,185.104,481.883,185.351L481.883,185.351z"/>
				<path id="lyf13s4" fill="#FFFFFF" d="M495.565,176.731c-2.674-1.768-14.178-5.336-17.248-6.078l0.119-0.494
					c2.666,0.641,14.766,3.738,17.715,5.688L495.565,176.731L495.565,176.731z"/>
				<path id="lyf13s3" fill="#FFFFFF" d="M496.793,171.472c-0.389-0.371-0.848-0.875-1.377-1.457
					c-1.516-1.672-3.492-4.695-6.699-6.762l0.26-0.393c3.314,2.143,5.67,4.729,7.227,6.439c0.516,0.564,0.961,1.061,1.32,1.398
					L496.793,171.472L496.793,171.472z"/>
				<path id="lyf13s2" fill="#FFFFFF" d="M506.217,170.79l-0.932-0.51c0.674-1.227,2.938-4.344,5.334-7.648
					c2.656-3.656,6.074-7.465,6.752-8.84l0.545,0.131c-0.719,1.459-3.627,5.463-6.436,9.334
					C509.102,166.532,506.858,169.624,506.217,170.79L506.217,170.79z"/>
				<path id="lyf13s1" fill="#FFFFFF" d="M518.559,199.812c-0.527-0.635-13.293-15.258-15.309-20.309l0.988-0.391
					c1.953,4.898,14.559,20.242,14.688,20.396l-0.02,0.604L518.559,199.812z"/>
			</g>
			<g id="lyf13botoes">
				<path id="lyf13b17" fill="#FEB900" d="M504.303,146.819c-0.213,1.156-1.027,1.98-1.818,1.832
					c-0.783-0.148-1.246-1.203-1.029-2.363c0.219-1.164,1.029-1.984,1.816-1.836C504.063,144.599,504.522,145.659,504.303,146.819z"
					/>
				<path id="lyf13b16" fill="#FEB900" d="M519.198,153.425c-0.629,0.996-1.689,1.455-2.367,1.031
					c-0.678-0.43-0.717-1.586-0.086-2.584c0.631-0.994,1.689-1.455,2.365-1.029C519.79,151.271,519.825,152.425,519.198,153.425z"/>
				
					<ellipse id="lyf13b15" transform="matrix(0.7612 0.6486 -0.6486 0.7612 229.5891 -301.601)" fill="#FEB900" cx="524.287" cy="160.919" rx="1.449" ry="2.134"/>
				<path id="lyf13b14" fill="#FEB900" d="M526.723,170.384c-1.047,0.547-2.195,0.404-2.561-0.307
					c-0.367-0.711,0.182-1.727,1.23-2.27c1.045-0.541,2.195-0.4,2.563,0.313C528.325,168.831,527.77,169.847,526.723,170.384z"/>
				<path id="lyf13b13" fill="#FEB900" d="M488.717,161.464c0.984,0.648,1.42,1.719,0.979,2.385
					c-0.441,0.67-1.594,0.684-2.578,0.033c-0.984-0.652-1.422-1.723-0.984-2.391C486.583,160.827,487.733,160.81,488.717,161.464z"
					/>
				<path id="lyf13b12" fill="#FEB900" d="M477.985,168.64c1.121,0.371,1.824,1.289,1.57,2.049c-0.25,0.762-1.363,1.076-2.479,0.707
					c-1.123-0.369-1.822-1.289-1.572-2.051C475.754,168.585,476.868,168.272,477.985,168.64z"/>
				<path id="lyf13b11" fill="#FEB900" d="M520.956,200.222c0.232,1.156-0.207,2.23-0.99,2.391s-1.615-0.646-1.855-1.801
					c-0.232-1.156,0.201-2.223,0.988-2.383S520.711,199.071,520.956,200.222z"/>
				<path id="lyf13b10" fill="#FEB900" d="M481.674,186.435c-1.035,0.574-2.117,0.602-2.416,0.055
					c-0.305-0.551,0.285-1.449,1.316-2.023c1.031-0.57,2.115-0.596,2.416-0.051C483.293,184.962,482.702,185.866,481.674,186.435z"
					/>
				<path id="lyf13b9" fill="#FEB900" d="M494.368,194.632c-0.678,0.963-1.643,1.455-2.152,1.1c-0.508-0.361-0.375-1.436,0.305-2.4
					c0.68-0.963,1.639-1.459,2.15-1.1C495.18,192.593,495.043,193.667,494.368,194.632z"/>
				<path id="lyf13b8" fill="#FEB900" d="M502.645,174.644c0.158,0.848-0.205,1.629-0.818,1.742c-0.615,0.117-1.238-0.473-1.4-1.32
					c-0.158-0.848,0.205-1.629,0.818-1.742C501.856,173.204,502.483,173.796,502.645,174.644z"/>
				<path id="lyf13b7" fill="#FEB900" d="M500.631,179.511c0.162,0.848-0.205,1.625-0.822,1.742
					c-0.611,0.117-1.234-0.475-1.398-1.322c-0.158-0.848,0.205-1.627,0.82-1.748C499.84,178.067,500.473,178.663,500.631,179.511z"
					/>
				<path id="lyf13b6" fill="#FEB900" d="M498.731,170.954c0.162,0.852-0.201,1.631-0.814,1.748c-0.613,0.115-1.244-0.48-1.402-1.32
					c-0.158-0.855,0.209-1.631,0.818-1.75C497.946,169.515,498.575,170.11,498.731,170.954z"/>
				<path id="lyf13b5" fill="#FEB900" d="M507.29,173.761c0.158,0.848-0.207,1.627-0.822,1.742
					c-0.607,0.117-1.236-0.475-1.398-1.318c-0.162-0.848,0.205-1.631,0.82-1.744C506.504,172.325,507.127,172.913,507.29,173.761z"
					/>
				<path id="lyf13b4" fill="#FEB900" d="M497.518,175.667c0.158,0.848-0.205,1.629-0.816,1.744s-1.24-0.475-1.398-1.322
					c-0.162-0.852,0.205-1.631,0.814-1.746C496.733,174.229,497.358,174.819,497.518,175.667z"/>
				<path id="lyf13b3" fill="#FEB900" d="M502.524,169.351c0.16,0.846-0.207,1.631-0.822,1.744
					c-0.611,0.115-1.236-0.479-1.398-1.322c-0.158-0.852,0.207-1.631,0.822-1.746C501.735,167.909,502.364,168.503,502.524,169.351z
					"/>
				<path id="lyf13b2" fill="#FEB900" d="M505.024,179.558c0.158,0.848-0.205,1.631-0.818,1.746
					c-0.613,0.117-1.24-0.475-1.402-1.322c-0.158-0.848,0.209-1.631,0.818-1.744C504.235,178.118,504.864,178.71,505.024,179.558z"
					/>
				<path id="lyf13b1" fill="#FEB900" d="M530.11,181.71c-1.172-0.139-2.061-0.75-1.988-1.369c0.072-0.623,1.078-1.012,2.248-0.873
					c1.172,0.137,2.064,0.754,1.99,1.367C532.288,181.458,531.28,181.847,530.11,181.71z"/>
			</g>
		</g>
	</g>
</g>
<path id="grass_1_" fill-rule="evenodd" clip-rule="evenodd" fill="#999933" stroke="#000000" stroke-width="0.2875" stroke-miterlimit="10" d="
	M567.841,500H108.962h-8.018H32.159c0.638-24.549,12.255-38.568,35.849-55.403c-11.822,11.528-18.741,15.896-22.718,26.912
	c4.462,1.219,7.722,3.813,8.824,6.53c1.161-0.77,2.374-1.449,3.635-2.053c-1.588-2.766-3.806-5.419-6.782-8.281
	c2.262,1.449,5.332,4.2,7.908,7.77c2.188-0.953,4.5-1.689,6.899-2.281c-1.988,1.32-3.87,2.717-5.598,4.227
	c2,3.248,3.481,7.021,3.655,11.023c1.782-5.042,3.649-9.195,6.51-12.91c-0.942-4.917-1.987-9.825-3.079-14.852
	c1.967,4.428,3.575,8.503,4.976,12.618c1.717-1.845,3.752-3.593,6.234-5.311c-2.125,2.11-4.048,4.341-5.766,6.706
	c0.679,2.069,1.313,4.16,1.917,6.319c1.396-0.657,2.872-1.085,4.442-1.236c0.475-0.043,0.926-0.058,1.354-0.045
	c4.092-10.496,9.372-19.393,15.139-29.773c-6.303,13.507-9.267,19.855-10.138,31.968c0.931,1.282,0.89,2.837-0.202,3.85
	c-0.058,1.647-0.086,3.399-0.086,5.287l9.058-8.262c-0.201-0.311-0.404-0.623-0.61-0.936c0.259,0.262,0.517,0.525,0.771,0.79
	l9.398-8.57l-1.482,1.781c0.562,2.868,1.229,5.773,1.699,8.727c0.317-0.37,0.646-0.765,0.993-1.183
	c0.537-4.282,0.603-8.426,0.234-12.833c-2.215,1.526-4.618,4.305-7.189,8.599c2.075-6.062,4.426-9.744,6.877-11.61
	c-0.494-4.015-1.319-8.304-2.448-13.14c1.869,4.278,3.562,8.063,5.02,11.83c2.839-0.77,5.729,0.552,8.414,3.152
	c1.025-0.181,2.076-0.088,3.105,0.26c0.476-2.722,0.588-5.978,0.588-10.774c1.006,4.525,1.72,8.455,2.196,12.376
	c1.039,0.865,2.014,2.007,2.87,3.399c3.044-12.877,10.769-22.467,24.032-22.731c-1.542-8.205-4.072-16.405-6.76-24.317
	c9.46,20.638,12.707,33.652,16.384,57.187c0-29.858,3.737-34.694,18.615-58.978c-10.103,22.734-11.802,28.887-10.424,54.511
	c7.938-11.116,12.859-14.867,23.828-21.446c-7.12,6.644-10.461,9.652-12.289,14.396c3.029-2.771,6.239-2.634,9.293-0.677
	c4.994-8.824,8.779-17.964,13.421-29.803c-3.118,11.227-6.761,21.142-8.313,31.871c2.047,0.559,4.038,2.117,5.667,4.529l0.917-1.464
	c2.854-10.045,8.756-17.758,18.155-20.012c0.462-1.663,0.944-3.357,1.446-5.096c-0.302,1.737-0.573,3.382-0.813,4.955
	c1.651-0.347,3.406-0.53,5.271-0.53c-1.954,0.138-3.722,0.441-5.326,0.892c-0.759,5.029-1.206,9.313-1.349,13.45
	c1.17-0.314,2.35-0.322,3.518,0.024c0.432-1.897,1.039-3.872,1.857-5.987c-0.526,2.176-0.908,4.24-1.159,6.234
	c1.385,0.585,2.753,1.693,4.072,3.419c1.431-7.424,4.391-13.877,10.915-16.485c-6.511,3.552-8.859,10.582-9.699,18.274
	c1.164,1.919,2.281,4.369,3.328,7.423c-1.218-2.032-2.398-3.723-3.538-5.102c-0.377,5.201-0.202,10.573-0.259,15.276
	c2.025-5.381,6.877-17.679,12.666-20.69c6.752-15.303,13.929-29.308,22.96-44.386c-8.416,18.073-12.817,29.123-15.588,46.385
	c1.046,1.204,2.097,2.853,3.143,5.026c-1.152-1.692-2.266-2.938-3.335-3.801c-0.496,3.242-0.94,6.704-1.347,10.473l3.501,0.931
	c2.743-5.684,5.029-9.737,9.229-14.5c-3.488,5.094-5.246,9.066-7.365,14.999l0.187,0.051c2.157-3.245,4.077-5.272,7.644-7.352
	c-2.759,2.693-4.151,5.071-5.285,7.98l5.495,1.464c0.748-15.561-0.438-30.944-2.234-46.468c3.73,15.973,6.868,32.005,8.191,48.256
	c2.433-15.085,3.413-28.866,2.234-43.787c2.553,11.383,4.149,22.619,3.957,35.603c2.293-5.38,4.944-7.364,7.582-7.148
	c5.57-8.734,10.521-13.155,22.715-19.518c-10.711,9.182-14.209,12.496-17.041,21.928c1.94,0.131,3.896,1.518,5.379,3.928
	c1.905-8.057,6.297-14.364,13.568-16.192c0.244-4.727,0.327-9.622,0.327-15.024c0.688,5.163,1.277,9.945,1.703,14.643
	c0.802-0.104,1.634-0.159,2.498-0.159c-0.878,0.063-1.704,0.17-2.483,0.321c0.311,3.475,0.532,6.906,0.638,10.417
	c1.219,0.501,2.417,1.55,3.56,3.264c4.694-10.52,9.168-16.123,18.658-25.805c-11.026,13.233-12.217,16.388-14.893,34.851
	l4.468,2.681c1.079-2.592,2.259-5.046,3.517-7.388c-2.751-1.301-1.452-4.832,2.553-4.441c1.27-2.072,2.6-4.066,3.972-5.997
	c-0.44-0.65-0.902-1.29-1.384-1.924c0.576,0.537,1.112,1.075,1.61,1.608c1.024-1.429,2.071-2.826,3.136-4.199
	c-0.497,1.806-1.216,3.63-1.987,5.507c3.031,3.679,4.451,7.409,5.565,12.104l0.506-0.393c1.006-3.706,3.558-6.77,6.108-8.889
	c-0.626-1.781-1.327-3.547-2.075-5.231c-1.637,1.611-3.365,3.884-5.176,6.908c1.327-3.876,2.767-6.777,4.273-8.854
	c-4.912-10.14-11.209-16.053-11.493-1.872c-0.767-15.178,6.524-9.76,12.813,0.274c3.278-3.435,6.799-3.323,10.122-1.078
	c1.03-7.844,1.007-15.76-0.04-27.069c2.301,10.586,3.779,18.942,4.277,28.834c0.56,0.095,1.116,0.267,1.666,0.512
	c3.103-17.766,1.214-29.354-2.22-48.111c6.361,15.378,9.094,28.972,10.079,44.568c4.109-8.659,11.218-14.448,21.74-14.448
	c-14.405,1.017-18.735,10.946-21.354,23.641c0.076,3.234,0.099,6.574,0.082,10.045c0.013,0.13,0.022,0.259,0.034,0.392
	c2.287-6.636,5.774-13.046,9.679-16.745c0.205-0.401,0.41-0.801,0.619-1.197c-2.315,0.658-4.814,2.695-7.489,6.618
	c3.104-6.444,6.234-9.289,9.251-9.76c3.466-5.815,7.675-10.755,13.017-13.996c-1.539-1.811-3.399-3.366-5.651-4.595
	c2.488,0.996,4.568,2.432,6.313,4.206c2.38-1.356,4.977-2.385,7.83-3.005c9.061-1.975,15.729,0.538,17.654,16.273
	c-4.155-11.22-9.494-13.568-15.642-12.006c-2.521,0.642-4.796,1.512-6.849,2.59c5.148,8.367,5.974,20.827,6.419,31.805
	c0.601,1.006,1.154,2.056,1.649,3.155c0.202-0.938,0.393-1.863,0.571-2.777l-0.473-15.206c0.521,2.688,1.144,5.409,1.616,8.171
	c0.973-7.868,0.754-15.429-1.438-24.484c2,5.172,3.013,9.693,3.364,14.09c1.178,2.659,2.272,5.438,3.252,8.397
	c0.407-1,0.764-1.701,1.023-1.892c-0.307,0.788-0.6,1.572-0.874,2.348c0.747,2.307,1.424,4.723,2.01,7.277
	c0.644-0.415,1.312-0.774,1.996-1.082c0.812-2.03,1.666-3.659,2.55-4.938c1.881-5.28,3.729-10.014,6.083-14.59
	c-1.309-0.369-2.752-0.616-4.347-0.729c1.588,0,3.081,0.162,4.479,0.469c2.281-4.393,5.04-8.646,8.757-13.107
	c-2.477,5.645-4.132,10.08-5.239,14.264c3.494,1.57,6.26,4.204,8.348,7.557c1.124-1.003,2.395-1.913,3.9-2.819
	c-4.653-3.887-0.165-11.62,10.336-8.828c5.68,1.511,10.313,5.19,14.3,10.141c0.9-1.143,1.846-2.27,2.851-3.396
	c-3.236-9.262-7.909-17.751-13.963-25.7c8.221,7.687,12.843,15.026,15.999,23.515c1.56-1.607,3.264-3.226,5.169-4.903
	c-1.389,1.819-3.046,3.87-4.739,6.085c1.358,3.856,2.443,7.96,3.446,12.442c1.537-9.561,7.652-17.517,13.974-23.013
	c-1.401-4.752-3.327-9.678-5.979-15.173c3.597,5.275,6.245,9.49,8.221,13.329c3.099-2.409,6.123-4.201,8.554-5.271
	c-3.043,2.171-5.676,4.302-7.949,6.477c2.471,5.07,3.773,9.591,4.575,15.228c3.281-1.311,6.459-1.835,9.367-1.787
	c5.479-10.795,12.377-15.137,27.868-26.19c-11.822,11.528-18.741,15.896-22.718,26.912c4.462,1.219,7.723,3.813,8.826,6.53
	c1.158-0.77,2.374-1.449,3.632-2.053c-1.587-2.766-3.803-5.419-6.781-8.281c2.262,1.449,5.332,4.2,7.908,7.77
	c2.188-0.953,4.501-1.689,6.899-2.281c-1.989,1.32-3.869,2.717-5.599,4.227c2.001,3.248,3.483,7.021,3.656,11.023
	c1.782-5.042,3.648-9.195,6.51-12.91c-0.942-4.917-1.985-9.825-3.078-14.852c1.967,4.428,3.574,8.503,4.976,12.618
	c1.716-1.845,3.751-3.593,6.233-5.311c-2.125,2.11-4.048,4.341-5.766,6.706c0.681,2.069,1.313,4.16,1.917,6.319
	c1.396-0.657,2.874-1.085,4.443-1.236c0.475-0.043,0.925-0.058,1.354-0.045c4.09-10.496,9.371-19.393,15.138-29.773
	c-6.304,13.507-9.265,19.855-10.138,31.968c0.93,1.282,0.89,2.837-0.202,3.85c-0.057,1.647-0.085,3.399-0.085,5.287l18.616-16.978
	l-13.403,16.085c10.158,0,10.615-2.016,17.872-10.725C564.865,489.49,563.293,491.267,567.841,500L567.841,500z M97.899,489.318
	c-0.828-1.675-1.74-3.323-2.724-4.94l-4.828,5.794C93.744,490.172,96.055,489.945,97.899,489.318L97.899,489.318z M95.545,483.934
	c1.368,1.503,2.655,3.072,3.809,4.762c1.138-0.604,2.131-1.424,3.19-2.522l-0.319-10.257L95.545,483.934L95.545,483.934z
	 M58.999,478.488c-1.64,1.548-3.121,3.213-4.398,5.022c2.311,2.111,4.534,5.064,6.444,9.093
	C61.275,486.902,60.714,482.492,58.999,478.488L58.999,478.488z M53.328,485.482c-1.454,2.47-2.549,5.202-3.191,8.263h0.193
	c3.665-2.811,6.062-1.629,8.849-0.236C57.377,490.029,55.372,487.409,53.328,485.482L53.328,485.482z M51.381,493.745h5.237
	C55.131,493.115,53.476,493.045,51.381,493.745L51.381,493.745z M65.498,493.745h7.723c-0.346-2.899-0.745-5.748-1.189-8.565
	C69.375,487.323,67.125,490.259,65.498,493.745L65.498,493.745z M71.649,482.821c-0.289-1.742-0.596-3.475-0.916-5.204
	c-2.315,3.689-4.176,7.703-5.573,12.098C67.161,486.99,69.292,484.588,71.649,482.821L71.649,482.821z M75.194,483.109
	c0.6,2.248,1.176,4.585,1.749,7.063c0.841-3.028,1.774-5.887,2.79-8.628C78.159,481.832,76.637,482.363,75.194,483.109
	L75.194,483.109z M49.06,482.409c-2.227-1.15-4.357-1.59-6.169-1.553c-0.358,2.02-0.673,4.218-0.946,6.635l-0.504,8.241l2.737-5.561
	C45.516,487.088,47.163,484.535,49.06,482.409L49.06,482.409z M43.24,479.023c2.227-0.137,4.817,0.329,7.451,1.716
	c0.559-0.521,1.135-1.015,1.728-1.478C49.907,473.725,44.618,472.227,43.24,479.023L43.24,479.023z M491.022,490.425
	c0.367-0.346,0.741-0.679,1.122-1.008c-0.328,1.102-0.662,2.246-1.002,3.436L491.022,490.425L491.022,490.425z M492.629,487.8
	c-0.579,0.202-1.148,0.428-1.704,0.688c-0.235-4.627-0.468-8.516-0.807-11.952c2.534-1.221,4.985-1.937,7.271-2.257
	C495.805,477.962,494.284,482.349,492.629,487.8L492.629,487.8z M485.924,492.307c-0.344,0.416-0.674,0.869-0.989,1.355
	c-0.052-0.584-0.065-1.178-0.048-1.786c0.339,0.112,0.685,0.24,1.037,0.387V492.307L485.924,492.307z M485.018,490.127
	c0.161-1.347,0.451-2.741,0.84-4.168c0.029,1.507,0.048,3.057,0.058,4.658C485.614,490.435,485.315,490.273,485.018,490.127
	L485.018,490.127z M485.831,484.669c-0.55,1.614-1.122,3.428-1.646,5.099c-0.613-0.23-1.216-0.384-1.81-0.475
	c-0.135-2.259-0.471-4.482-0.878-6.682c1.376-1.306,2.756-2.438,4.126-3.413C485.718,480.968,485.784,482.787,485.831,484.669
	L485.831,484.669z M483.634,491.527c-0.472,1.504-0.869,2.752-1.125,3.419l-0.274-0.049l0.002-0.007
	c0.145-1.198,0.205-2.385,0.203-3.563C482.831,491.371,483.228,491.438,483.634,491.527L483.634,491.527z M480.622,478.237
	c-0.182-0.878-0.363-1.755-0.531-2.626l0.094,3.017c-1.962,1.772-3.904,3.892-5.793,6.406c-0.559-0.647-1.133-1.278-1.72-1.901
	c3.257-4.026,6.363-8.18,9.534-12.621c-3.36,3.396-6.21,6.191-8.982,8.591c1.577-7.838,4.489-13.835,9.504-19.354
	c1.348,4.989,2.132,9.839,2.587,15.014C483.75,475.72,482.18,476.871,480.622,478.237L480.622,478.237z M480.344,483.749
	l0.169,5.449c-0.895,0.04-1.785,0.193-2.686,0.41c-0.363-0.566-0.74-1.121-1.13-1.663
	C477.902,486.398,479.12,485.003,480.344,483.749L480.344,483.749z M480.578,491.292l0.105,3.341l-0.266-0.046
	c-0.432-1.06-0.915-2.07-1.444-3.044C479.5,491.417,480.034,491.332,480.578,491.292L480.578,491.292z M472.499,483.495
	c0.471,0.747,0.924,1.498,1.361,2.259c-0.629,0.87-1.255,1.784-1.871,2.747C472.12,486.751,472.29,485.088,472.499,483.495
	L472.499,483.495z M475.727,489.23c0.139,0.281,0.275,0.561,0.409,0.842c-0.426,0.128-0.857,0.264-1.293,0.398
	C475.137,490.047,475.432,489.635,475.727,489.23L475.727,489.23z M477.087,492.181c0.278,0.651,0.543,1.31,0.795,1.973l-3.36-0.577
	C475.38,493.021,476.23,492.55,477.087,492.181L477.087,492.181z M408.84,488.996c0.137,0.68,0.267,1.37,0.39,2.068
	c0.449-1.284,0.882-2.534,1.303-3.753C409.951,487.851,409.385,488.412,408.84,488.996L408.84,488.996z M411.288,485.131l0.135-0.39
	c-0.109,0.15-0.221,0.307-0.331,0.466L411.288,485.131L411.288,485.131z M405.853,492.853c0.318-0.501,0.65-0.986,0.995-1.454
	c0.056,0.492,0.104,0.976,0.147,1.454H405.853L405.853,492.853z M406.421,488.105c-0.791,0.742-1.529,1.616-2.202,2.656
	c-0.23-2.642,0.275-5.547,1.174-8.593C405.792,484.204,406.139,486.186,406.421,488.105L406.421,488.105z M405.242,481.398
	c-1.857,5.388-4.057,13.402-3.721,10.59c0.169-1.408,0.224-2.804,0.196-4.186c0.965-5.943,1.577-11.094,1.267-16.366
	C403.828,474.85,404.595,478.186,405.242,481.398L405.242,481.398z M394.867,483.57c-1.281-1.611-2.675-3.126-4.127-4.595
	c1.524,2.302,2.914,4.657,4.132,7.075c-0.003,2.338-0.019,4.622,0.002,6.802h-0.229c-1.431-3.772-3.79-9.71-6.755-15.025
	l0.185-0.098c0.59,0.847,1.187,1.772,1.794,2.788c-0.382-1.112-0.771-2.141-1.17-3.095c1.182-0.561,2.551-1.074,4.149-1.55
	c-1.769,0.021-3.294,0.168-4.631,0.435c-2.604-5.758-5.532-8.402-8.492-8.854c2.416-4.671,5.851-8.498,10.523-11.191
	C394.293,463.824,394.816,474.01,394.867,483.57L394.867,483.57z M517.877,478.488c-1.641,1.548-3.122,3.213-4.399,5.022
	c2.312,2.111,4.533,5.064,6.444,9.093C520.153,486.902,519.592,482.492,517.877,478.488L517.877,478.488z M512.206,485.482
	c-1.454,2.47-2.548,5.202-3.192,8.263h0.194c3.667-2.811,6.063-1.629,8.849-0.236C516.255,490.029,514.249,487.409,512.206,485.482
	L512.206,485.482z M510.259,493.745h5.238C514.01,493.115,512.354,493.045,510.259,493.745L510.259,493.745z M524.375,493.745h7.724
	c-0.346-2.899-0.744-5.748-1.188-8.565C528.255,487.323,526.004,490.259,524.375,493.745L524.375,493.745z M530.529,482.821
	c-0.292-1.742-0.598-3.475-0.919-5.204c-2.313,3.689-4.175,7.703-5.572,12.098C526.039,486.99,528.17,484.588,530.529,482.821
	L530.529,482.821z M534.073,483.109c0.6,2.248,1.176,4.585,1.749,7.063c0.841-3.028,1.774-5.887,2.789-8.628
	C537.037,481.832,535.515,482.363,534.073,483.109L534.073,483.109z M507.94,482.409c-2.229-1.15-4.359-1.59-6.171-1.553
	c-0.357,2.02-0.672,4.218-0.946,6.635l-0.504,8.241l2.737-5.561C504.394,487.088,506.042,484.535,507.94,482.409L507.94,482.409z
	 M502.118,479.023c2.229-0.137,4.817,0.329,7.452,1.716c0.559-0.521,1.135-1.015,1.727-1.478c-1.025-2.262-3.976-4.268-8.038-4.943
	C502.841,475.768,502.461,477.329,502.118,479.023L502.118,479.023z M435.871,471.051c2.221-1.253,4.929-2.546,8.358-4.113
	c-2.656,2.126-4.815,3.83-6.637,5.419c0.956,0.552,2.134,1.017,3.538,1.339c-1.633-0.087-3.006-0.379-4.129-0.817
	c-1.729,1.548-3.143,3.017-4.392,4.693c0.882,1.948,1.584,4.064,2.112,6.302c1.953-3.17,4.642-4.746,7.164-4.305
	c3.801-3.674,8.1-4.229,11.816,1.804c1.226-2.007,2.455-3.89,3.754-5.704c-3.817-4.815-8.583-8.416-13.941-10.273
	C435.274,462.539,432.348,467.501,435.871,471.051L435.871,471.051z M462.876,471.138c-0.771,1.063-1.534,2.153-2.266,3.264
	c1.88,2.522,3.615,5.319,5.253,8.295C465.097,478.709,464.101,474.859,462.876,471.138L462.876,471.138z M458.756,477.41
	c-1.396,2.432-2.564,4.938-3.291,7.444c0.351,0.826,0.692,1.728,1.028,2.703c-0.418-0.697-0.828-1.345-1.234-1.944
	c-0.387,1.523-0.604,3.05-0.604,4.559c3.359-1.346,6.207-2.681,8.776-4.12C462.163,482.915,460.589,480.012,458.756,477.41
	L458.756,477.41z M465.312,491.704l-0.232,0.255l0.313,0.053L465.312,491.704L465.312,491.704z M319.841,485.139
	c0.567-1.048,1.151-2.07,1.748-3.074C318.684,481.573,317.954,483.78,319.841,485.139L319.841,485.139z M327.28,476.715
	c-0.694,1.685-1.412,3.417-2.034,5.22c2.727,1.36,4.843,3.979,6.664,7.134l0.229-0.177
	C331.187,484.468,329.558,480.448,327.28,476.715L327.28,476.715z M324.792,483.319c-1.118,3.632-1.754,7.576-0.991,12.03
	l6.919-5.359C329.304,487.094,327.25,484.755,324.792,483.319L324.792,483.319z M336.123,485.806l0.132-0.103l-0.214,0.358
	c-0.567,1.806-0.907,3.84-1.089,6.227c2.146-3.343,4.51-5.372,6.792-6.487c-0.445-2.044-1.053-4.18-1.771-6.299
	C338.148,481.391,336.922,483.39,336.123,485.806L336.123,485.806z M331.897,493.006l-1.073,1.799l1.525-0.021
	C332.222,494.178,332.072,493.584,331.897,493.006L331.897,493.006z M335.652,494.735l6.56-0.096l0.02-0.065
	C339.475,492.876,337.652,493.32,335.652,494.735L335.652,494.735z M342.306,494.312l0.225-0.787
	c0.113-1.762-0.061-3.824-0.452-6.034c-1.947,1.086-3.979,2.88-5.897,5.646C338.228,492.495,339.989,491.951,342.306,494.312
	L342.306,494.312z M342.154,477.513c0.571-0.465,1.183-0.93,1.84-1.396c-0.594,0.262-1.272,0.622-1.991,1.078
	c-0.826-1.723-1.721-3.421-2.653-5.034c3.152-2.332,5.931-2.152,8.273-0.21c-1.853,1.358-3.478,3.815-4.579,7.518
	C342.758,478.814,342.46,478.161,342.154,477.513L342.154,477.513z M422.47,467.439c-0.828,3.251-1.327,6.378-1.629,9.827
	c1.706,0.69,3.38,2.131,4.932,4.048c1.208-2.21,2.386-3.948,3.75-5.438C427.977,472.249,425.802,469.307,422.47,467.439
	L422.47,467.439z M420.663,479.733c-0.221,3.746-0.263,7.951-0.263,13.119c1.591-3.643,2.887-6.589,4.085-9.033
	C423.392,481.824,422.112,480.392,420.663,479.733L420.663,479.733z M430.975,480.054c-0.873,1.494-1.689,3.197-2.519,5.24
	c1.313,2.293,2.471,4.874,3.4,7.508l0.145,0.044c0.142-1.603,0.413-3.082,0.788-4.429
	C432.274,485.471,431.713,482.652,430.975,480.054L430.975,480.054z M426.796,489.77c-0.146,0.422-0.291,0.853-0.438,1.295
	l0.84,0.267C427.071,490.799,426.936,490.276,426.796,489.77L426.796,489.77z M438.16,494.791l2.346,0.741l0.521-10.606
	C439.783,487.572,438.818,490.984,438.16,494.791L438.16,494.791z M442.326,482.6l4.882,10.253c2.076-3.824,3.919-7.173,5.74-10.228
	c-3.44-3.79-6.414-4.069-8.825-2.072c1.763,1.293,3.275,3.806,4.153,7.725c-1.622-3.955-3.383-6.024-5.097-6.796
	C442.885,481.818,442.601,482.194,442.326,482.6L442.326,482.6z M435.638,489.218c-0.093-0.824-0.206-1.638-0.337-2.438
	c1.171-2.563,2.959-4.778,4.988-5.451C438.55,483.48,436.958,486.238,435.638,489.218L435.638,489.218z M343.215,479.862
	c0.676,1.572,1.282,3.143,1.793,4.67c0.996-3.813,1.8-7.27,2.419-10.616C346.004,475.031,344.577,476.939,343.215,479.862
	L343.215,479.862z M352.542,472.981l0.008,0.22c0.323,0.414,0.458,5.849,0.772,6.293c0.062-0.309,0.308-5.627,0.367-5.931
	C353.316,473.326,352.933,473.131,352.542,472.981L352.542,472.981z M362.397,491.724c-0.022,1.541-0.048,3.105-0.078,4.702
	c0.484-1.503,0.979-3.025,1.484-4.561L362.397,491.724L362.397,491.724z M387.218,476.542c-0.101-0.137-0.203-0.268-0.304-0.399
	l0.246,0.412L387.218,476.542L387.218,476.542z M176.823,477.595c-0.606,3.112-0.975,7.062-1.412,12.577
	c4.188-5.308,7.568-10.219,10.509-15.159C183.332,473.528,180.277,474.102,176.823,477.595L176.823,477.595z M192.131,476.874
	l-0.043,0.368c1.297,1.685,2.519,3.637,3.634,5.747l0.999-1.596C195.472,479.323,193.885,477.635,192.131,476.874L192.131,476.874z
	 M191.676,483.274c-0.049,1.957-0.016,3.954,0.116,6.004l1.198-1.917C192.597,485.908,192.158,484.54,191.676,483.274
	L191.676,483.274z M201.101,483.824c0.316,1.758,0.902,2.907,1.98,3.982c2.642-6.419,6.327-12.203,10.302-14.951
	c1.025-4.837,2.245-9.617,3.651-14.69C206.424,461.534,203.317,471.708,201.101,483.824L201.101,483.824z M207.237,490.831
	c0.92,0.586,1.971,1.244,3.173,2.021c0.484-5.532,1.178-10.561,2.071-15.427C210.187,480.377,208.414,485.155,207.237,490.831
	L207.237,490.831z M216.333,474.485c0.012,6.513,0.783,13.028,2.268,21.94l2.389-0.573l-0.044-0.638
	c-1.411-8.16-2.524-14.152-1.597-20.781C218.289,474.162,217.283,474.189,216.333,474.485L216.333,474.485z M220.302,474.757
	c-0.444,6.893,0.614,13.175,2.381,20.69l0.362-0.088c0.251-5.382,0.323-11.764,1.2-17.747
	C222.866,476.216,221.55,475.281,220.302,474.757L220.302,474.757z M108.53,469.169c0.581,1.656,1.115,3.332,1.598,5.07
	c0.88-1.619,1.902-2.818,3.005-3.627C111.748,469.461,110.208,468.93,108.53,469.169L108.53,469.169z M110.441,475.407
	c0.683,2.633,1.246,5.428,1.674,8.508c2.147-3.35,3.685-5.791,4.782-8.007c-0.782-1.655-1.653-3.062-2.609-4.16
	C113.009,472.322,111.708,473.487,110.441,475.407L110.441,475.407z M118.366,472.256c0.043-0.143,0.083-0.283,0.124-0.427
	c-0.221-0.105-0.444-0.195-0.67-0.271C118.004,471.784,118.185,472.016,118.366,472.256L118.366,472.256z M122.151,475.14
	c0.099,1.208,0.177,2.432,0.237,3.69c0.389,0.776,0.764,1.57,1.122,2.377c0.111-1.009,0.25-2.003,0.41-2.982
	C123.417,477.123,122.82,476.074,122.151,475.14L122.151,475.14z M127.307,478.469c5.599-8.043,11.343-14.766,18.317-22.254
	c-2.897,4.813-5.158,8.411-6.912,12.131c1.902-1.529,3.883-2.388,5.858-2.3c0.32-1.123,0.665-2.313,1.054-3.576
	c-0.122,1.225-0.252,2.438-0.386,3.643c1.667,0.257,3.323,1.206,4.918,3.018c0.18-5.654-0.412-11.402-1.49-17.151
	C133.648,453.304,129.864,464.586,127.307,478.469L127.307,478.469z M135.271,478.879c-0.312,1.538-0.582,3.204-0.816,5.036
	c5.87-4.4,7.44-8.538,9.242-14.788C140.157,469.374,137.302,473.175,135.271,478.879L135.271,478.879z M144.901,469.176
	c-0.842,7.608-1.577,14.982-0.766,22.783c3.524-6.346,5.302-13.034,5.857-19.894C148.179,470.333,146.478,469.411,144.901,469.176
	L144.901,469.176z M269.452,485.685c-0.038,1.759-0.109,3.552-0.216,5.38c2.421-4.357,4.431-7.981,6.301-11.093
	C273.707,480.545,271.67,482.337,269.452,485.685L269.452,485.685z M281.752,483.493c-0.662,2.636-1.329,5.697-2.091,9.359
	l5.247,0.251C284.202,489.252,283.136,485.882,281.752,483.493L281.752,483.493z M294.258,493.551l4.02,0.194
	c0.998-4.794,1.742-9.214,2.29-13.524C297.573,481.755,295.407,486.998,294.258,493.551L294.258,493.551z M300.855,477.814
	c0.366-3.278,0.624-6.521,0.801-9.844c-8.041,2.621-10.169,10.608-11.812,19.974c0.359,1.285,0.611,2.708,0.731,4.255
	C292.857,485.582,296.76,479.264,300.855,477.814L300.855,477.814z M304.41,480.246c0.046,3.193-0.006,6.469-0.175,9.926
	c1.079-2.849,2.09-5.382,3.081-7.68C306.3,481.418,305.33,480.681,304.41,480.246L304.41,480.246z M287.284,488.664
	c0.082-0.74,0.182-1.472,0.301-2.192c-1.054-2.308-2.662-4.302-4.488-4.908C284.662,483.505,286.093,485.983,287.284,488.664
	L287.284,488.664z M378.348,470.472c-2.368,5.926-3.373,12.948-3.373,20.593c3.389-6.492,5.183-10.977,9.248-13.31
	C382.498,474.606,380.536,471.965,378.348,470.472L378.348,470.472z M385.2,479.632c-3.486,2.979-4.451,7.091-6.5,13.221h11.584
	C388.991,488.735,387.291,483.875,385.2,479.632L385.2,479.632z M229.044,493.92l0.726-0.175c2.028-5.126,4.043-10.038,6.08-14.807
	C232.877,482.762,230.59,489.003,229.044,493.92L229.044,493.92z"/>
</svg>
