<?xml version="1.0" encoding="utf-8"?>
<!-- Generator: Adobe Illustrator 16.0.2, SVG Export Plug-In . SVG Version: 6.00 Build 0)  -->
<!DOCTYPE svg PUBLIC "-//W3C//DTD SVG 1.1//EN" "http://www.w3.org/Graphics/SVG/1.1/DTD/svg11.dtd">
<svg version="1.1" id="lay" xmlns="http://www.w3.org/2000/svg" xmlns:xlink="http://www.w3.org/1999/xlink" x="0px" y="0px"
	 width="400px" height="600px" viewBox="0 0 400 600" enable-background="new 0 0 400 600" xml:space="preserve">
<g id="arvore">
	<g id="tronco">
		<linearGradient id="SVGID_1_" gradientUnits="userSpaceOnUse" x1="151.7925" y1="167.4072" x2="128.5076" y2="95.6127">
			<stop  offset="0" style="stop-color:#763D2E"/>
			<stop  offset="1" style="stop-color:#008D48"/>
		</linearGradient>
		<path fill-rule="evenodd" clip-rule="evenodd" fill="url(#SVGID_1_)" d="M166.852,600c-3.851-44.275-3.971-75.387,2.137-118.586
			c5.529-39.104,5.322-75.143,6.836-119.19c0.857-25.089,6.407-41.883,13.269-66.398c1.408-33.831,4.762-40.853,21.355-69.575
			c10.945-18.938,14.998-46.946,17.703-69.994c2.206-18.743-5.177-32.815-28.678-64.237C182.68,69.563,177.768,45.44,165.234,7.84
			c58.479,35.087,108.868,52.463,69.98,125.386c13.075,62.994-1.899,97.101-19.823,159.368c0.555,24.541,0.949,49.051,1.204,73.561
			c0.414,39.871-0.215,72.144-6.702,108.131c-8.38,46.49,17.78,82.414,36.235,125.715H166.852L166.852,600z"/>
		<path fill-rule="evenodd" clip-rule="evenodd" fill="#663427" d="M166.852,600c-3.851-44.275-3.971-75.387,2.137-118.586
			c5.529-39.104,5.322-75.143,6.836-119.19c0.857-25.089,6.407-41.883,13.269-66.398c1.408-33.831,4.762-40.853,21.355-69.575
			c10.945-18.938,14.998-46.946,17.703-69.994c0.057-0.472,0.109-0.937,0.147-1.405l1.104,10.774
			c-1.295,51.032-20.318,70.104-35.968,139.083c-6.1,26.892-0.239,60.16-2.899,89.77c-7.241,80.741-10.438,127.443,13.91,205.522
			H166.852L166.852,600z"/>
	</g>
	<g id="folhas">
		<g id="petalas">
			<path fill-rule="evenodd" clip-rule="evenodd" fill="#007642" d="M172.403,474.879c-9.744-3.959-15.607-8.267-21.969-11.987
				c-16.704-9.771-27.901-5.436-41.764,1.348c-9.824,4.809-11.999,6.39-9.512,9.405c13.435,16.297,56.965,31.068,62.189,2.486
				l14.33,8.166L172.403,474.879L172.403,474.879z"/>
			<linearGradient id="SVGID_2_" gradientUnits="userSpaceOnUse" x1="147.0552" y1="449.6377" x2="97.0065" y2="405.4784">
				<stop  offset="0" style="stop-color:#763D2E"/>
				<stop  offset="1" style="stop-color:#008D48"/>
			</linearGradient>
			<path fill-rule="evenodd" clip-rule="evenodd" fill="url(#SVGID_2_)" d="M194.731,420.307
				c-9.249-16.271-21.474-52.982-33.506-64.865c-3.179-3.135-7.792-5.847-15.241-9.354C81.1,315.524,36.377,348.701,14.051,404.88
				c-8.706,21.899-9.441,28.371-0.739,32.764c28.546,14.397,55.795,8.402,81.736-3.325c30.397-13.738,44.711-29.559,56.33-54.353
				c5.102-10.887,7.934-15.079,9.989-14.795c11.096,1.532,12.637,33.23,26.896,68.881L194.731,420.307L194.731,420.307z"/>
			<linearGradient id="SVGID_3_" gradientUnits="userSpaceOnUse" x1="161.9355" y1="367.998" x2="138.6515" y2="336.4686">
				<stop  offset="0" style="stop-color:#663427"/>
				<stop  offset="1" style="stop-color:#008D48"/>
			</linearGradient>
			<path fill-rule="evenodd" clip-rule="evenodd" fill="url(#SVGID_3_)" d="M178.563,356.432
				c-5.257-31.545-49.672-39.92-82.917-42.102c-23.236-1.526-33.233,2.805-7.081-12.325c36.136-20.905,74.34-30.178,80.295,29.363
				l13.746,16.17L178.563,356.432L178.563,356.432z"/>
			<linearGradient id="SVGID_4_" gradientUnits="userSpaceOnUse" x1="205.2427" y1="310.8643" x2="392.0826" y2="310.8643">
				<stop  offset="0" style="stop-color:#763D2E"/>
				<stop  offset="1" style="stop-color:#008D48"/>
			</linearGradient>
			<path fill-rule="evenodd" clip-rule="evenodd" fill="url(#SVGID_4_)" d="M209.285,340.262
				c20.244-32.385,36.279-76.183,78.278-83.482c34.832-6.053,75.681,11.614,95.077,40.802
				c19.295,29.037,13.087,32.081-34.374,39.027c-41.193,6.025-90.009,0.878-114.725-23.839l-6.47,13.745l-10.51,19.405
				l-6.464,20.215l-4.855-17.791L209.285,340.262L209.285,340.262z"/>
			<linearGradient id="SVGID_5_" gradientUnits="userSpaceOnUse" x1="173.9443" y1="312.0039" x2="155.5104" y2="279.5019">
				<stop  offset="0" style="stop-color:#663427"/>
				<stop  offset="1" style="stop-color:#008D48"/>
			</linearGradient>
			<path fill-rule="evenodd" clip-rule="evenodd" fill="url(#SVGID_5_)" d="M187.943,301.127
				c-13.883-41.652-47.861-60.966-90.558-55.791c17.143-30.481,35.629-37.961,54.842-25.233
				c12.675,8.392,23.318,17.418,19.544,32.51l22.643,46.087L187.943,301.127L187.943,301.127z"/>
			<linearGradient id="SVGID_6_" gradientUnits="userSpaceOnUse" x1="243.7319" y1="251.8477" x2="261.6988" y2="236.6891">
				<stop  offset="0" style="stop-color:#763D2E"/>
				<stop  offset="1" style="stop-color:#008D48"/>
			</linearGradient>
			<path fill-rule="evenodd" clip-rule="evenodd" fill="url(#SVGID_6_)" d="M227.072,233.528
				c12.024-8.287,18.68-15.884,26.183-22.836c19.716-18.252,36.186-15.734,57.014-10.695c14.758,3.57,18.179,5.059,15.714,9.896
				c-13.322,26.113-67.896,59.19-83.545,22.021l-16.98,15.363L227.072,233.528L227.072,233.528z"/>
			<linearGradient id="SVGID_7_" gradientUnits="userSpaceOnUse" x1="224.5459" y1="199.2832" x2="198.837" y2="155.6249">
				<stop  offset="0" style="stop-color:#663427"/>
				<stop  offset="1" style="stop-color:#008D48"/>
			</linearGradient>
			<path fill-rule="evenodd" clip-rule="evenodd" fill="url(#SVGID_7_)" d="M222.223,197.146
				c-1.75-26.309-5.445-28.989-25.542-46.879c-28.289-25.182-54.83-46.4-68.249-88.152c27.435,21.405,75.195,41.55,75.195,82.477
				l29.106,43.66l-8.083,8.895H222.223L222.223,197.146z"/>
			<linearGradient id="SVGID_8_" gradientUnits="userSpaceOnUse" x1="232.3477" y1="516.7188" x2="285.3413" y2="465.2003">
				<stop  offset="0" style="stop-color:#763D2E"/>
				<stop  offset="1" style="stop-color:#008D48"/>
			</linearGradient>
			<path fill-rule="evenodd" clip-rule="evenodd" fill="url(#SVGID_8_)" d="M196.351,515.716
				c10.376-20.397,18.357-40.609,33.957-57.407c3.24-17.261,9.208-28.477,18.082-35.189c18.549-14.033,37.174-10.497,54.523-2.121
				c17.475,8.44,34.245,17.708,52.34,24.123c8.761,3.11,13.667,2.86,13.354,6.358c-1.03,11.549-8.039,20.517-17.64,27.355
				c-35.052,24.964-104.703,35.914-119.039-13.25c-14.335,21.498-19.255,51.79-24.257,76.813L196.351,515.716L196.351,515.716z"/>
		</g>
		<g id="nervos">
			<path fill-rule="evenodd" clip-rule="evenodd" fill="#45A14A" d="M275.496,290.141c45.137-6.062,62.044-2.419,101.877,20.215
				c-36.248-15.284-64.301-19.712-103.499-20.215H275.496L275.496,290.141z"/>
			<path fill-rule="evenodd" clip-rule="evenodd" fill="#45A14A" d="M34.948,415.466c23.817-33.133,35.303-45.275,73.58-56.597
				C74.901,373.281,59.157,387.699,34.948,415.466L34.948,415.466z"/>
			<path fill-rule="evenodd" clip-rule="evenodd" fill="#45A14A" d="M240.728,460.342c23.449-7.925,36.882-7.173,53.989-1.566
				c20.64,6.77,27.458,7.229,49.501,4.395c-24.478,6.48-27.559,5.571-51.066-1.546C277.018,456.738,263.875,456.329,240.728,460.342
				L240.728,460.342z"/>
			<path fill-rule="evenodd" clip-rule="evenodd" fill="#45A14A" d="M253.228,228.753c23.137-15.961,33.454-18.689,61.703-17.383
				c-24.216,1.733-40.89,7.146-62.589,17.839L253.228,228.753L253.228,228.753z"/>
		</g>
	</g>
</g>
<path id="grass" fill-rule="evenodd" clip-rule="evenodd" fill="#89C540" stroke="#000000" stroke-width="0.1947" stroke-miterlimit="10" d="
	M391.989,600H63.064h-5.747H8.011c0.457-15.711,8.784-24.683,25.696-35.458c-8.475,7.378-13.435,10.174-16.284,17.224
	c3.198,0.78,5.534,2.44,6.325,4.18c0.832-0.492,1.701-0.928,2.605-1.314c-1.139-1.77-2.728-3.467-4.861-5.3
	c1.621,0.928,3.821,2.689,5.668,4.974c1.568-0.611,3.226-1.081,4.946-1.461c-1.426,0.845-2.774,1.739-4.013,2.705
	c1.434,2.079,2.495,4.494,2.62,7.056c1.277-3.228,2.616-5.886,4.666-8.263c-0.676-3.146-1.425-6.289-2.207-9.505
	c1.41,2.833,2.563,5.441,3.566,8.075c1.23-1.181,2.689-2.3,4.469-3.398c-1.523,1.351-2.901,2.778-4.133,4.292
	c0.486,1.324,0.94,2.662,1.374,4.044c1.001-0.42,2.059-0.694,3.185-0.791c0.34-0.027,0.663-0.037,0.971-0.029
	c2.934-6.717,6.718-12.411,10.852-19.055c-4.519,8.644-6.643,12.708-7.267,20.46c0.667,0.82,0.638,1.815-0.146,2.464
	c-0.041,1.054-0.062,2.175-0.062,3.383l6.492-5.288c-0.144-0.198-0.289-0.398-0.438-0.598c0.187,0.167,0.371,0.336,0.554,0.506
	l6.737-5.486l-1.063,1.141c0.402,1.836,0.88,3.695,1.218,5.585c0.228-0.236,0.463-0.489,0.711-0.757
	c0.386-2.74,0.433-5.392,0.169-8.213c-1.588,0.978-3.311,2.756-5.154,5.503c1.488-3.879,3.173-6.236,4.93-7.431
	c-0.354-2.569-0.946-5.313-1.755-8.409c1.34,2.737,2.553,5.159,3.598,7.571c2.035-0.493,4.107,0.354,6.031,2.018
	c0.735-0.115,1.488-0.056,2.227,0.166c0.341-1.742,0.422-3.825,0.422-6.896c0.721,2.896,1.232,5.411,1.573,7.921
	c0.745,0.554,1.444,1.284,2.058,2.176c2.182-8.242,7.719-14.379,17.227-14.548c-1.105-5.252-2.919-10.5-4.846-15.564
	c6.781,13.209,9.108,21.538,11.744,36.601c0-19.109,2.679-22.205,13.344-37.746c-7.242,14.551-8.46,18.488-7.472,34.887
	c5.688-7.114,9.217-9.515,17.079-13.726c-5.104,4.252-7.498,6.178-8.809,9.213c2.172-1.773,4.473-1.686,6.661-0.433
	c3.58-5.647,6.293-11.497,9.62-19.074c-2.234,7.185-4.846,13.531-5.959,20.397c1.467,0.357,2.895,1.355,4.063,2.899l0.657-0.938
	c2.045-6.429,6.276-11.365,13.014-12.808c0.331-1.063,0.677-2.148,1.036-3.261c-0.216,1.111-0.41,2.164-0.582,3.171
	c1.184-0.222,2.441-0.34,3.777-0.34c-1.4,0.089-2.667,0.283-3.817,0.571c-0.544,3.219-0.864,5.96-0.967,8.608
	c0.839-0.201,1.685-0.206,2.521,0.016c0.31-1.215,0.745-2.478,1.332-3.833c-0.378,1.394-0.651,2.715-0.832,3.991
	c0.993,0.374,1.975,1.083,2.92,2.188c1.025-4.751,3.147-8.882,7.824-10.55c-4.668,2.273-6.352,6.771-6.953,11.695
	c0.835,1.228,1.636,2.797,2.386,4.75c-0.873-1.301-1.72-2.382-2.536-3.265c-0.271,3.328-0.146,6.768-0.186,9.776
	c1.452-3.443,4.93-11.313,9.079-13.242c4.84-9.793,9.983-18.756,16.458-28.406c-6.033,11.567-9.188,18.64-11.174,29.687
	c0.75,0.771,1.503,1.825,2.253,3.217c-0.826-1.083-1.624-1.88-2.391-2.433c-0.355,2.075-0.674,4.291-0.966,6.703l2.51,0.596
	c1.967-3.638,3.605-6.232,6.615-9.28c-2.5,3.26-3.761,5.802-5.279,9.599l0.134,0.033c1.546-2.077,2.923-3.375,5.479-4.705
	c-1.978,1.724-2.976,3.245-3.788,5.107l3.939,0.937c0.535-9.958-0.315-19.804-1.603-29.739c2.674,10.223,4.923,20.482,5.872,30.885
	c1.743-9.655,2.446-18.476,1.602-28.024c1.829,7.285,2.975,14.476,2.836,22.785c1.644-3.442,3.545-4.713,5.435-4.575
	c3.993-5.589,7.542-8.419,16.282-12.49c-7.678,5.876-10.185,7.996-12.215,14.033c1.391,0.084,2.793,0.971,3.855,2.514
	c1.366-5.156,4.514-9.192,9.726-10.363c0.176-3.024,0.234-6.157,0.234-9.615c0.494,3.305,0.916,6.365,1.222,9.371
	c0.574-0.066,1.171-0.103,1.791-0.103c-0.631,0.041-1.222,0.109-1.781,0.206c0.224,2.224,0.382,4.421,0.457,6.668
	c0.874,0.32,1.732,0.991,2.552,2.088c3.365-6.732,6.571-10.318,13.374-16.515c-7.903,8.469-8.757,10.487-10.675,22.305l3.202,1.716
	c0.774-1.66,1.619-3.23,2.521-4.729c-1.972-0.833-1.041-3.093,1.829-2.843c0.91-1.326,1.864-2.603,2.847-3.839
	c-0.315-0.415-0.646-0.824-0.991-1.23c0.413,0.344,0.798,0.688,1.154,1.029c0.734-0.914,1.484-1.81,2.247-2.688
	c-0.355,1.155-0.871,2.323-1.424,3.524c2.173,2.354,3.19,4.741,3.989,7.746l0.362-0.252c0.721-2.372,2.55-4.332,4.378-5.688
	c-0.448-1.14-0.95-2.27-1.487-3.348c-1.172,1.031-2.411,2.485-3.71,4.421c0.952-2.479,1.983-4.338,3.063-5.667
	c-3.521-6.489-8.034-10.273-8.238-1.197c-0.549-9.714,4.677-6.247,9.185,0.175c2.35-2.198,4.874-2.126,7.256-0.689
	c0.738-5.02,0.722-10.087-0.028-17.324c1.648,6.774,2.709,12.123,3.065,18.453c0.401,0.061,0.8,0.171,1.194,0.328
	c2.224-11.37,0.87-18.788-1.591-30.792c4.56,9.842,6.519,18.542,7.225,28.524c2.945-5.542,8.041-9.247,15.583-9.247
	c-10.325,0.65-13.43,7.005-15.306,15.13c0.054,2.07,0.07,4.208,0.059,6.429c0.009,0.083,0.017,0.165,0.024,0.251
	c1.64-4.247,4.14-8.35,6.938-10.717c0.147-0.257,0.295-0.513,0.444-0.767c-1.66,0.421-3.451,1.725-5.368,4.235
	c2.225-4.124,4.469-5.944,6.63-6.245c2.485-3.723,5.502-6.884,9.331-8.958c-1.104-1.159-2.437-2.155-4.051-2.94
	c1.783,0.637,3.274,1.556,4.525,2.691c1.706-0.868,3.567-1.526,5.612-1.923c6.495-1.265,11.275,0.344,12.654,10.415
	c-2.978-7.181-6.805-8.684-11.211-7.684c-1.807,0.41-3.438,0.967-4.909,1.657c3.69,5.354,4.281,13.329,4.602,20.354
	c0.43,0.645,0.826,1.316,1.182,2.02c0.146-0.601,0.281-1.192,0.409-1.777l-0.339-9.732c0.373,1.721,0.82,3.463,1.159,5.229
	c0.697-5.036,0.54-9.874-1.03-15.67c1.434,3.311,2.159,6.204,2.411,9.018c0.844,1.702,1.629,3.48,2.331,5.374
	c0.292-0.64,0.547-1.089,0.733-1.211c-0.22,0.505-0.43,1.007-0.626,1.504c0.535,1.477,1.021,3.021,1.44,4.657
	c0.461-0.266,0.939-0.496,1.431-0.692c0.581-1.3,1.194-2.342,1.827-3.16c1.349-3.38,2.674-6.409,4.361-9.338
	c-0.938-0.236-1.973-0.394-3.116-0.466c1.139,0,2.209,0.104,3.21,0.3c1.636-2.812,3.613-5.533,6.278-8.389
	c-1.776,3.612-2.962,6.451-3.756,9.128c2.504,1.006,4.486,2.69,5.983,4.837c0.806-0.642,1.717-1.225,2.796-1.804
	c-3.336-2.487-0.119-7.438,7.408-5.65c4.071,0.967,7.393,3.322,10.251,6.489c0.646-0.731,1.322-1.451,2.043-2.173
	c-2.32-5.927-5.67-11.36-10.009-16.447c5.893,4.919,9.206,9.616,11.468,15.048c1.118-1.027,2.34-2.063,3.706-3.137
	c-0.996,1.164-2.184,2.477-3.397,3.894c0.974,2.469,1.752,5.095,2.47,7.964c1.103-6.119,5.485-11.211,10.017-14.729
	c-1.004-3.042-2.385-6.193-4.285-9.711c2.578,3.377,4.477,6.074,5.893,8.531c2.221-1.542,4.389-2.688,6.131-3.373
	c-2.181,1.389-4.067,2.753-5.697,4.145c1.771,3.244,2.704,6.139,3.278,9.746c2.353-0.839,4.631-1.175,6.715-1.144
	c3.928-6.909,8.872-9.688,19.977-16.763c-8.475,7.378-13.435,10.174-16.284,17.224c3.198,0.78,5.536,2.44,6.326,4.18
	c0.83-0.492,1.702-0.928,2.604-1.314c-1.138-1.77-2.726-3.467-4.86-5.3c1.621,0.928,3.822,2.689,5.668,4.974
	c1.568-0.611,3.227-1.081,4.945-1.461c-1.426,0.845-2.773,1.739-4.013,2.705c1.435,2.079,2.497,4.494,2.62,7.056
	c1.278-3.228,2.616-5.886,4.667-8.263c-0.676-3.146-1.423-6.289-2.207-9.505c1.41,2.833,2.563,5.441,3.567,8.075
	c1.229-1.181,2.688-2.3,4.468-3.398c-1.523,1.351-2.902,2.778-4.133,4.292c0.487,1.324,0.941,2.662,1.374,4.044
	c1.001-0.42,2.06-0.694,3.186-0.791c0.34-0.027,0.662-0.037,0.971-0.029c2.932-6.717,6.717-12.411,10.851-19.055
	c-4.519,8.644-6.642,12.708-7.267,20.46c0.666,0.82,0.637,1.815-0.146,2.464c-0.04,1.054-0.061,2.175-0.061,3.383l13.344-10.866
	l-9.607,10.296c7.281,0,7.608-1.291,12.811-6.864C389.855,593.274,388.729,594.411,391.989,600L391.989,600z M55.133,593.164
	c-0.593-1.072-1.247-2.127-1.952-3.162l-3.46,3.709C52.155,593.711,53.812,593.565,55.133,593.164L55.133,593.164z M53.447,589.718
	c0.98,0.962,1.903,1.967,2.729,3.048c0.815-0.388,1.527-0.911,2.287-1.614l-0.229-6.564L53.447,589.718L53.447,589.718z
	 M27.25,586.232c-1.175,0.991-2.237,2.057-3.152,3.214c1.655,1.352,3.25,3.242,4.619,5.82
	C28.881,591.618,28.48,588.795,27.25,586.232L27.25,586.232z M23.185,590.709c-1.043,1.581-1.827,3.33-2.288,5.288h0.139
	c2.628-1.799,4.346-1.043,6.343-0.151C26.087,593.618,24.651,591.942,23.185,590.709L23.185,590.709z M21.79,595.997h3.755
	C24.478,595.594,23.292,595.549,21.79,595.997L21.79,595.997z M31.909,595.997h5.535c-0.248-1.855-0.534-3.679-0.853-5.481
	C34.688,591.888,33.075,593.766,31.909,595.997L31.909,595.997z M36.318,589.006c-0.207-1.115-0.428-2.224-0.656-3.331
	c-1.66,2.361-2.994,4.931-3.996,7.743C33.101,591.674,34.628,590.137,36.318,589.006L36.318,589.006z M38.858,589.19
	c0.431,1.439,0.844,2.935,1.254,4.521c0.604-1.939,1.272-3.769,2-5.522C40.984,588.373,39.893,588.712,38.858,589.19L38.858,589.19z
	 M20.126,588.742c-1.597-0.736-3.124-1.018-4.423-0.994c-0.257,1.292-0.481,2.7-0.678,4.247l-0.361,5.273l1.962-3.558
	C17.585,591.736,18.766,590.103,20.126,588.742L20.126,588.742z M15.954,586.575c1.596-0.088,3.453,0.211,5.341,1.098
	c0.4-0.332,0.814-0.648,1.238-0.945C20.733,583.185,16.942,582.225,15.954,586.575L15.954,586.575z M336.924,593.872
	c0.263-0.221,0.531-0.435,0.805-0.645c-0.235,0.705-0.475,1.438-0.719,2.199L336.924,593.872L336.924,593.872z M338.077,592.192
	c-0.415,0.129-0.824,0.273-1.222,0.44c-0.169-2.962-0.335-5.45-0.578-7.65c1.816-0.781,3.573-1.239,5.211-1.443
	C340.353,585.896,339.262,588.703,338.077,592.192L338.077,592.192z M333.27,595.076c-0.246,0.267-0.482,0.557-0.709,0.867
	c-0.037-0.373-0.047-0.753-0.034-1.142c0.243,0.071,0.491,0.152,0.743,0.246V595.076L333.27,595.076z M332.621,593.681
	c0.115-0.86,0.323-1.754,0.602-2.667c0.021,0.964,0.035,1.956,0.042,2.981C333.047,593.878,332.833,593.774,332.621,593.681
	L332.621,593.681z M333.204,590.188c-0.395,1.033-0.805,2.194-1.18,3.263c-0.439-0.146-0.872-0.245-1.298-0.303
	c-0.097-1.446-0.337-2.869-0.629-4.276c0.986-0.836,1.976-1.561,2.957-2.185C333.123,587.82,333.169,588.984,333.204,590.188
	L333.204,590.188z M331.628,594.578c-0.338,0.962-0.623,1.761-0.807,2.188l-0.196-0.031l0.002-0.004
	c0.103-0.767,0.146-1.526,0.145-2.28C331.052,594.478,331.338,594.521,331.628,594.578L331.628,594.578z M329.469,586.071
	c-0.13-0.561-0.261-1.122-0.381-1.68l0.067,1.93c-1.406,1.135-2.799,2.491-4.153,4.101c-0.399-0.414-0.812-0.817-1.231-1.217
	c2.334-2.577,4.561-5.235,6.834-8.077c-2.409,2.174-4.451,3.963-6.438,5.498c1.13-5.017,3.218-8.854,6.813-12.387
	c0.966,3.193,1.527,6.297,1.854,9.609C331.712,584.461,330.586,585.198,329.469,586.071L329.469,586.071z M329.271,589.6l0.12,3.487
	c-0.641,0.025-1.279,0.124-1.925,0.263c-0.261-0.362-0.53-0.717-0.81-1.063C327.52,591.295,328.392,590.402,329.271,589.6
	L329.271,589.6z M329.438,594.427l0.075,2.139l-0.19-0.029c-0.309-0.679-0.656-1.325-1.035-1.949
	C328.665,594.508,329.047,594.453,329.438,594.427L329.438,594.427z M323.647,589.438c0.337,0.478,0.662,0.958,0.976,1.445
	c-0.451,0.557-0.899,1.142-1.341,1.758C323.375,591.521,323.497,590.456,323.647,589.438L323.647,589.438z M325.961,593.107
	c0.099,0.18,0.196,0.359,0.293,0.539c-0.306,0.081-0.615,0.169-0.927,0.255C325.539,593.63,325.75,593.367,325.961,593.107
	L325.961,593.107z M326.936,594.996c0.199,0.416,0.389,0.838,0.569,1.263l-2.408-0.37
	C325.712,595.534,326.322,595.232,326.936,594.996L326.936,594.996z M278.016,592.958c0.099,0.435,0.191,0.876,0.279,1.323
	c0.322-0.822,0.632-1.622,0.934-2.401C278.812,592.225,278.407,592.584,278.016,592.958L278.016,592.958z M279.77,590.484
	l0.097-0.25c-0.078,0.097-0.157,0.196-0.237,0.298L279.77,590.484L279.77,590.484z M275.875,595.427
	c0.229-0.321,0.467-0.632,0.714-0.932c0.04,0.315,0.075,0.625,0.105,0.932H275.875L275.875,595.427z M276.283,592.388
	c-0.567,0.475-1.097,1.034-1.579,1.699c-0.165-1.69,0.198-3.55,0.842-5.498C275.832,589.891,276.08,591.159,276.283,592.388
	L276.283,592.388z M275.437,588.095c-1.331,3.449-2.908,8.578-2.667,6.778c0.121-0.901,0.16-1.795,0.141-2.68
	c0.691-3.803,1.13-7.1,0.908-10.474C274.423,583.904,274.974,586.039,275.437,588.095L275.437,588.095z M268,589.485
	c-0.918-1.031-1.917-2.001-2.958-2.94c1.093,1.473,2.089,2.979,2.962,4.528c-0.002,1.495-0.014,2.958,0.002,4.354h-0.164
	c-1.026-2.415-2.717-6.215-4.842-9.617l0.132-0.063c0.423,0.542,0.851,1.134,1.286,1.784c-0.273-0.711-0.553-1.37-0.839-1.979
	c0.848-0.359,1.828-0.688,2.975-0.992c-1.268,0.014-2.361,0.107-3.319,0.277c-1.867-3.685-3.966-5.378-6.087-5.667
	c1.731-2.989,4.193-5.438,7.543-7.162C267.589,576.849,267.963,583.367,268,589.485L268,589.485z M356.174,586.232
	c-1.177,0.991-2.238,2.057-3.154,3.214c1.657,1.352,3.25,3.242,4.62,5.82C357.805,591.618,357.404,588.795,356.174,586.232
	L356.174,586.232z M352.108,590.709c-1.041,1.581-1.826,3.33-2.288,5.288h0.14c2.628-1.799,4.347-1.043,6.343-0.151
	C355.011,593.618,353.574,591.942,352.108,590.709L352.108,590.709z M350.713,595.997h3.755
	C353.402,595.594,352.215,595.549,350.713,595.997L350.713,595.997z M360.832,595.997h5.536c-0.248-1.855-0.533-3.679-0.852-5.481
	C363.613,591.888,362,593.766,360.832,595.997L360.832,595.997z M365.243,589.006c-0.209-1.115-0.429-2.224-0.658-3.331
	c-1.659,2.361-2.993,4.931-3.995,7.743C362.024,591.674,363.552,590.137,365.243,589.006L365.243,589.006z M367.784,589.19
	c0.429,1.439,0.843,2.935,1.253,4.521c0.603-1.939,1.271-3.769,1.999-5.522C369.908,588.373,368.817,588.712,367.784,589.19
	L367.784,589.19z M349.051,588.742c-1.598-0.736-3.125-1.018-4.424-0.994c-0.256,1.292-0.481,2.7-0.678,4.247l-0.361,5.273
	l1.962-3.558C346.509,591.736,347.69,590.103,349.051,588.742L349.051,588.742z M344.877,586.575
	c1.598-0.088,3.453,0.211,5.342,1.098c0.4-0.332,0.813-0.648,1.237-0.945c-0.734-1.447-2.85-2.73-5.762-3.164
	C345.396,584.492,345.125,585.49,344.877,586.575L344.877,586.575z M297.392,581.474c1.592-0.803,3.532-1.63,5.991-2.633
	c-1.904,1.36-3.452,2.451-4.757,3.468c0.685,0.353,1.528,0.65,2.535,0.856c-1.17-0.056-2.154-0.242-2.959-0.523
	c-1.239,0.991-2.253,1.932-3.148,3.004c0.633,1.247,1.136,2.602,1.515,4.034c1.399-2.03,3.326-3.038,5.135-2.756
	c2.725-2.351,5.806-2.706,8.471,1.154c0.878-1.284,1.76-2.489,2.69-3.65c-2.737-3.082-6.152-5.386-9.993-6.575
	C296.964,576.024,294.867,579.201,297.392,581.474L297.392,581.474z M316.75,581.528c-0.553,0.68-1.1,1.378-1.624,2.089
	c1.348,1.614,2.592,3.404,3.766,5.31C318.341,586.374,317.627,583.911,316.75,581.528L316.75,581.528z M313.796,585.543
	c-1.001,1.556-1.838,3.16-2.359,4.765c0.252,0.528,0.497,1.104,0.737,1.729c-0.3-0.446-0.594-0.86-0.885-1.244
	c-0.277,0.975-0.434,1.952-0.434,2.918c2.408-0.862,4.45-1.716,6.291-2.638C316.238,589.065,315.11,587.208,313.796,585.543
	L313.796,585.543z M318.495,594.69l-0.166,0.164l0.225,0.033L318.495,594.69L318.495,594.69z M214.222,590.489
	c0.406-0.671,0.825-1.325,1.253-1.968C213.392,588.208,212.869,589.62,214.222,590.489L214.222,590.489z M219.554,585.099
	c-0.498,1.078-1.013,2.186-1.459,3.34c1.955,0.871,3.472,2.546,4.777,4.566l0.164-0.114
	C222.354,590.06,221.187,587.487,219.554,585.099L219.554,585.099z M217.77,589.325c-0.801,2.324-1.257,4.848-0.71,7.699
	l4.959-3.431C221.004,591.74,219.533,590.243,217.77,589.325L217.77,589.325z M225.892,590.915l0.095-0.065l-0.153,0.229
	c-0.406,1.156-0.65,2.458-0.78,3.985c1.538-2.14,3.232-3.438,4.868-4.152c-0.319-1.308-0.755-2.675-1.27-4.031
	C227.344,588.091,226.465,589.37,225.892,590.915L225.892,590.915z M222.864,595.524l-0.77,1.15l1.094-0.014
	C223.096,596.274,222.989,595.894,222.864,595.524L222.864,595.524z M225.555,596.631l4.701-0.061l0.015-0.042
	C228.295,595.44,226.989,595.725,225.555,596.631L225.555,596.631z M230.325,596.359l0.161-0.503
	c0.081-1.129-0.044-2.448-0.324-3.863c-1.396,0.695-2.853,1.844-4.228,3.614C227.402,595.196,228.664,594.849,230.325,596.359
	L230.325,596.359z M230.215,585.608c0.41-0.298,0.848-0.595,1.319-0.894c-0.426,0.168-0.912,0.397-1.428,0.689
	c-0.592-1.103-1.233-2.188-1.902-3.222c2.26-1.492,4.252-1.377,5.932-0.135c-1.329,0.87-2.493,2.442-3.283,4.812
	C230.649,586.442,230.435,586.023,230.215,585.608L230.215,585.608z M287.787,579.161c-0.594,2.081-0.951,4.082-1.168,6.29
	c1.223,0.441,2.423,1.363,3.535,2.591c0.866-1.415,1.71-2.527,2.688-3.481C291.733,582.239,290.174,580.356,287.787,579.161
	L287.787,579.161z M286.491,587.029c-0.158,2.397-0.188,5.089-0.188,8.397c1.141-2.332,2.069-4.218,2.929-5.781
	C288.447,588.368,287.53,587.451,286.491,587.029L286.491,587.029z M293.882,587.234c-0.626,0.956-1.211,2.047-1.805,3.354
	c0.941,1.467,1.771,3.119,2.437,4.805l0.104,0.028c0.101-1.026,0.296-1.973,0.564-2.835
	C294.813,590.701,294.412,588.898,293.882,587.234L293.882,587.234z M290.887,593.453c-0.104,0.271-0.208,0.545-0.313,0.828
	l0.602,0.171C291.084,594.111,290.987,593.777,290.887,593.453L290.887,593.453z M299.033,596.667l1.682,0.474l0.373-6.788
	C300.196,592.047,299.504,594.23,299.033,596.667L299.033,596.667z M302.019,588.864l3.499,6.563
	c1.488-2.449,2.809-4.591,4.114-6.547c-2.466-2.426-4.597-2.604-6.325-1.325c1.263,0.826,2.348,2.435,2.977,4.943
	c-1.163-2.531-2.425-3.856-3.653-4.35C302.419,588.364,302.215,588.604,302.019,588.864L302.019,588.864z M297.225,593.1
	c-0.066-0.528-0.147-1.048-0.242-1.561c0.84-1.641,2.122-3.058,3.576-3.489C299.313,589.428,298.171,591.192,297.225,593.1
	L297.225,593.1z M230.976,587.112c0.485,1.006,0.92,2.011,1.285,2.989c0.714-2.44,1.29-4.653,1.734-6.796
	C232.975,584.021,231.952,585.242,230.976,587.112L230.976,587.112z M237.662,582.708l0.006,0.141
	c0.231,0.266,0.329,3.743,0.554,4.027c0.045-0.196,0.221-3.602,0.264-3.795C238.216,582.93,237.942,582.805,237.662,582.708
	L237.662,582.708z M244.726,594.703c-0.017,0.986-0.034,1.987-0.057,3.009c0.348-0.961,0.702-1.936,1.064-2.918L244.726,594.703
	L244.726,594.703z M262.517,584.987c-0.071-0.088-0.146-0.172-0.217-0.256l0.176,0.264L262.517,584.987L262.517,584.987z
	 M111.707,585.661c-0.435,1.992-0.699,4.52-1.013,8.05c3.003-3.397,5.425-6.541,7.533-9.702
	C116.372,583.059,114.182,583.425,111.707,585.661L111.707,585.661z M122.679,585.2l-0.031,0.235
	c0.93,1.078,1.806,2.327,2.605,3.679l0.716-1.022C125.074,586.767,123.937,585.687,122.679,585.2L122.679,585.2z M122.353,589.296
	c-0.035,1.252-0.011,2.53,0.084,3.843l0.858-1.228C123.013,590.981,122.699,590.106,122.353,589.296L122.353,589.296z
	 M129.109,589.648c0.227,1.125,0.646,1.86,1.42,2.548c1.894-4.107,4.535-7.81,7.384-9.568c0.735-3.096,1.609-6.154,2.617-9.401
	C132.924,575.383,130.697,581.894,129.109,589.648L129.109,589.648z M133.507,594.133c0.659,0.375,1.412,0.795,2.274,1.294
	c0.347-3.541,0.844-6.76,1.484-9.874C135.622,587.442,134.351,590.5,133.507,594.133L133.507,594.133z M140.027,583.671
	c0.008,4.168,0.562,8.338,1.625,14.041l1.713-0.366l-0.031-0.408c-1.012-5.222-1.81-9.058-1.145-13.3
	C141.429,583.464,140.708,583.481,140.027,583.671L140.027,583.671z M142.873,583.845c-0.318,4.411,0.439,8.432,1.706,13.242
	l0.26-0.057c0.181-3.444,0.231-7.529,0.86-11.358C144.709,584.778,143.767,584.181,142.873,583.845L142.873,583.845z
	 M62.754,580.269c0.416,1.06,0.799,2.133,1.145,3.245c0.631-1.036,1.363-1.805,2.154-2.321
	C65.06,580.455,63.957,580.115,62.754,580.269L62.754,580.269z M64.124,584.261c0.49,1.686,0.894,3.474,1.2,5.445
	c1.539-2.144,2.641-3.706,3.428-5.125c-0.562-1.06-1.185-1.959-1.87-2.662C65.964,582.286,65.032,583.032,64.124,584.261
	L64.124,584.261z M69.804,582.243c0.031-0.09,0.06-0.181,0.089-0.272c-0.158-0.067-0.318-0.125-0.479-0.174
	C69.545,581.942,69.674,582.091,69.804,582.243L69.804,582.243z M72.517,584.09c0.07,0.772,0.127,1.556,0.171,2.361
	c0.277,0.497,0.547,1.005,0.804,1.522c0.08-0.646,0.18-1.283,0.294-1.91C73.425,585.359,72.997,584.688,72.517,584.09L72.517,584.09
	z M76.213,586.22c4.014-5.146,8.131-9.449,13.13-14.242c-2.077,3.08-3.697,5.383-4.954,7.765c1.363-0.979,2.783-1.528,4.199-1.472
	c0.229-0.719,0.477-1.48,0.755-2.289c-0.087,0.783-0.181,1.559-0.276,2.331c1.195,0.164,2.382,0.771,3.525,1.931
	c0.129-3.618-0.296-7.297-1.068-10.977C80.758,570.114,78.046,577.336,76.213,586.22L76.213,586.22z M81.922,586.482
	c-0.225,0.984-0.418,2.051-0.586,3.224c4.208-2.816,5.334-5.464,6.625-9.464C85.424,580.399,83.378,582.833,81.922,586.482
	L81.922,586.482z M88.825,580.273c-0.604,4.868-1.131,9.588-0.549,14.581c2.526-4.062,3.8-8.342,4.198-12.732
	C91.174,581.014,89.955,580.423,88.825,580.273L88.825,580.273z M178.102,590.839c-0.027,1.125-0.078,2.272-0.154,3.442
	c1.735-2.788,3.176-5.108,4.517-7.099C181.153,587.549,179.693,588.696,178.102,590.839L178.102,590.839z M186.919,589.436
	c-0.475,1.688-0.952,3.647-1.499,5.991l3.762,0.16C188.675,593.122,187.912,590.965,186.919,589.436L186.919,589.436z
	 M195.884,595.873l2.881,0.124c0.715-3.067,1.249-5.897,1.642-8.655C198.259,588.323,196.708,591.68,195.884,595.873
	L195.884,595.873z M200.613,585.802c0.263-2.099,0.447-4.174,0.574-6.301c-5.765,1.679-7.29,6.789-8.467,12.783
	c0.257,0.823,0.438,1.733,0.524,2.724C194.879,590.773,197.677,586.729,200.613,585.802L200.613,585.802z M203.161,587.357
	c0.033,2.044-0.004,4.141-0.126,6.354c0.774-1.823,1.498-3.445,2.209-4.916C204.515,588.107,203.82,587.636,203.161,587.357
	L203.161,587.357z M190.884,592.745c0.06-0.474,0.131-0.942,0.216-1.403c-0.755-1.477-1.908-2.753-3.217-3.141
	C189.005,589.443,190.032,591.029,190.884,592.745L190.884,592.745z M256.16,581.103c-1.697,3.793-2.418,8.286-2.418,13.179
	c2.43-4.155,3.715-7.025,6.629-8.518C259.134,583.748,257.727,582.058,256.16,581.103L256.16,581.103z M261.071,586.965
	c-2.499,1.907-3.19,4.538-4.659,8.462h8.304C263.788,592.79,262.57,589.681,261.071,586.965L261.071,586.965z M149.139,596.109
	l0.52-0.112c1.454-3.28,2.898-6.424,4.358-9.477C151.886,588.968,150.247,592.962,149.139,596.109L149.139,596.109z"/>
</svg>
