<?xml version="1.0" encoding="utf-8"?>
<!-- Generator: Adobe Illustrator 16.0.2, SVG Export Plug-In . SVG Version: 6.00 Build 0)  -->
<!DOCTYPE svg PUBLIC "-//W3C//DTD SVG 1.1//EN" "http://www.w3.org/Graphics/SVG/1.1/DTD/svg11.dtd">
<svg version="1.1" id="Layer_1" xmlns="http://www.w3.org/2000/svg" xmlns:xlink="http://www.w3.org/1999/xlink" x="0px" y="0px"
	 width="600px" height="600px" viewBox="0 0 600 600" enable-background="new 0 0 600 600" xml:space="preserve">
<g>
	<path fill-rule="evenodd" clip-rule="evenodd" fill="#01B9C3" d="M266.847,236.875c3.737-10.657,12.237-13.07,22.257-12.883
		c1.643,0.03,3.287-0.052,4.931-0.082c2.101,0.876,0.443,1.751-0.103,2.408c-1.152,1.387-2.822,2.427-3.257,4.287
		c-0.579,2.477,0.041,4.923,3.047,3.91c3.766-1.269,4.309,0.534,4.622,3.356c0.109,0.984,0.304,1.971,0.67,2.892
		c1.042,2.618,2.59,3.613,4.6,0.952c0.972-1.285,1.867-2.24,3.579-2.129c2.234,0.146,3.647-1.062,4.877-2.811
		c1.036-1.474,2.275-2.98,4.463-1.717c7.785,9.476,12.104,20.729,16.435,31.982c2.5,6.494,5.328,12.783,9.742,18.308
		c5.447,6.82,12.762,10.258,21.254,12.081c-6.681,6.429-34.777,14.793-52,15.714c-0.66,0.445-1.321,0.447-1.981-0.001
		c-2.985-0.122-5.972-0.243-8.957-0.365c-0.762,0.154-1.395-0.122-1.969-0.59c-16.44-4.449-29.208-13.178-34.516-30.24
		c-2.944-9.467-1.155-19.082-0.188-28.632c0.351-3.457,0.806-6.903,1.213-10.354C265.43,240.813,265.479,238.706,266.847,236.875z"
		/>
	<path fill-rule="evenodd" clip-rule="evenodd" fill="#FCC60D" d="M316.532,235.058c-1.543,0.055-3.146,0.445-3.499,2.048
		c-0.802,3.636-3.089,4.669-6.206,3.509c-2.077-0.773-1.82,0.314-1.854,1.481c-0.05,1.756-0.807,3.058-2.653,2.818
		c-1.683-0.219-3.722-0.354-4.216-2.624c-0.521-2.396-1.659-4.688-0.974-7.67c-2.812,1.285-5.837,3.591-7.596-0.011
		c-2.222-4.55,0.835-7.394,4.439-9.649c0.127-0.08,0.354-0.203,0.342-0.267c-0.054-0.27-0.182-0.524-0.282-0.784
		c-1.466-2.265-1.201-4.292,0.674-6.248c2.333-2.432,4.521-0.695,6.854,0.051c0.646-1.589,1.128-3.348,2.044-4.84
		c0.729-1.187,1.71-2.392,3.619-1.156c2.142,1.388,3.029,5.689,7.284,2.851c1.137-0.758,1.378,2.083,1.441,3.491
		c0.1,2.194-0.365,4.078,2.65,5.459C321.642,224.91,320.26,231.307,316.532,235.058z"/>
	<path fill-rule="evenodd" clip-rule="evenodd" fill="#FCC60D" d="M299.056,312.187c0.758-0.142,1.447-0.056,1.969,0.59
		c0,16.138,0,32.276,0,48.414c-0.656,0.002-1.313,0.003-1.969,0.005C299.056,344.858,299.056,328.522,299.056,312.187z"/>
	<path fill-rule="evenodd" clip-rule="evenodd" fill="#FCC60D" d="M309.981,313.142c0.661,0,1.321,0,1.981,0.001
		c0,15.841,0,31.682,0,47.523c-0.433,0.017-0.866,0.034-1.3,0.052C309.185,344.91,310.42,328.991,309.981,313.142z"/>
	<path fill-rule="evenodd" clip-rule="evenodd" fill="#784721" d="M266.847,236.875c0.41,2.205,0.129,4.265-1.277,6.088
		c-3.23-1.395-6.457-2.789-10.228-4.416C259.547,237.316,263.153,236.803,266.847,236.875z"/>
	<path fill-rule="evenodd" clip-rule="evenodd" fill="#FCC60D" d="M336.334,296.754c-14.812,0.807-27.628-0.37-39.157-7.761
		c-9.682-6.205-11.783-14.914-5.99-24.514c1.836-3.042,4.676-4.117,8.084-3.441c11.523,2.286,19.671,8.328,22.75,20.232
		C323.835,288.286,328.359,293.245,336.334,296.754z"/>
	<path fill-rule="evenodd" clip-rule="evenodd" fill="#784721" d="M281.637,240.262c1.171,1.272,3.745-0.448,3.78,2.95
		c0.03,2.949-1.429,2.65-3.109,3.037c-2.2,0.506-3.079-0.656-3.306-2.542C278.76,241.693,280.178,240.957,281.637,240.262z"/>
</g>
<g>
	<path fill-rule="evenodd" clip-rule="evenodd" fill="#FE9897" d="M127.042,81.839c-2.677,5.049-4.527,10.586-8.714,14.743
		c-6.247,6.201-13.567,10.282-22.393,11.464c-0.743,0.1-1.424,0.663-2.133,1.011c-0.522,0.461-1.014,0.478-1.465-0.1
		c-1.427,0.036-2.855,0.072-4.282,0.109c-1.017,0.414-2.016,0.31-3.005-0.1c-5.091-1.34-10.267-2.427-15.257-4.077
		c-7.937-2.623-14.578-7.527-20.946-12.802c0.58-3.113,0.782-6.316,2.206-9.228c0.217-3.236,1.886-6.173,3.948-8.236
		C58.625,71,64.909,63.981,69.202,60.388c9.621-8.049,20.237-12.735,33.072-11.413c9.837,1.015,17.151,5.54,21.448,14.601
		c1.065,2.245,2.154,4.479,3.232,6.718C129.148,74.125,129.182,77.975,127.042,81.839z"/>
	<path fill-rule="evenodd" clip-rule="evenodd" fill="#956137" d="M51.052,82.861c0.193,3.297,0.943,6.728-2.204,9.228
		c-2.165,1.502-4.225,3.188-6.512,4.465c-4.817,2.693-9.001,1.583-10.852-2.651c-1.673-3.827,0.549-8.809,4.782-10.565
		c0.896-0.371,1.909-0.459,3.143-0.739c-2.027-2.955-5.602-5.501-2.111-9.472c3.372-3.834,8.165-3.546,10.525,0.978
		C49.25,76.841,49.998,79.93,51.052,82.861z"/>
	<path fill-rule="evenodd" clip-rule="evenodd" fill="#956137" d="M85.049,109.281c1.037-1.051,2.036-0.938,3.005,0.099
		c-0.232,12.915,0.114,38.82-1.842,38.751C83.417,148.032,85.232,122.232,85.049,109.281z"/>
	<path fill-rule="evenodd" clip-rule="evenodd" fill="#956137" d="M92.337,108.958c0.489,0.033,0.977,0.067,1.465,0.101
		c2.382,6.619,1.854,13.684,3.088,20.489c0.795,4.378,0.856,8.887,1.333,13.329c0.146,1.355,0.973,6.042-1.963,4.842
		C94.978,147.195,92.161,121.71,92.337,108.958z"/>
	<path fill-rule="evenodd" clip-rule="evenodd" fill="#956137" d="M127.042,81.839c-0.029-3.849-0.058-7.697-0.087-11.545
		c5.689,2.399,9.971,6.975,16.335,10.274C137.25,81.282,132.251,82.538,127.042,81.839z"/>
	<path fill-rule="evenodd" clip-rule="evenodd" fill="#956137" d="M83.468,99.105c-0.831-0.006-1.662,0.015-2.493-0.01
		c-6.834-0.197-8.281-2.286-6.008-8.749c2.173-6.179,5.579-11.334,11.999-13.806c4.996-1.922,10.018-0.473,12.789,3.575
		c2.404,3.513,1.873,9.387-1.177,12.991C94.874,97.486,90.928,99.054,83.468,99.105z"/>
	<path fill-rule="evenodd" clip-rule="evenodd" fill="#2B2023" d="M115.034,73.87c-0.412,2.413-1.837,4.076-4.277,3.985
		c-2.382-0.09-3.978-1.604-3.924-4.236c0.055-2.647,1.59-3.972,4.124-3.912C113.512,69.768,114.804,71.331,115.034,73.87z"/>
</g>
<g>
	<path fill-rule="evenodd" clip-rule="evenodd" fill="#FD3341" d="M484.767,438.874c3.343-6.628,8.378-10.628,16.144-9.829
		c8.587,0.885,14.193,5.55,16.927,13.811c7.071,21.36-3.97,45.836-26.043,52.63c-0.307,0.095-0.568,0.339-0.852,0.514
		c-0.407,0.328-0.827,0.359-1.26,0.05c-12.083,2.574-22.959-1.022-33.339-6.72c-13.042-7.159-24.768-15.665-29.723-30.706
		c-0.514-1.56-1.748-3.284,0.148-4.401c1.834-1.08,3.632-0.049,4.728,1.598c1.45,2.178,2.662,4.513,4.202,7.172
		c0.215-1.678,0.377-2.95,0.571-4.461c3.798,0.633,4.822,3.643,5.937,6.499c1.064,2.725,2.001,5.501,3.825,8.123
		c0-2.647,0-5.295,0-8.539c3.812,2.016,4.488,4.994,4.9,8.11c0.926,6.995,2.166,7.735,8.854,5.736
		c13.251-3.96,20.239-13.139,22.086-26.5c0.26-1.879,1.69-3.765,0.456-5.784C482.113,443.399,482.414,440.794,484.767,438.874z"/>
	<path fill-rule="evenodd" clip-rule="evenodd" fill="#956137" d="M489.683,496.049c0.42-0.017,0.841-0.033,1.261-0.05
		c0.06,8.847-0.29,17.688,0.229,26.564c-2.009-1.685-0.194-4.845-3.227-5.759c0.443-1.256,2.228-1.363,2.096-3.381
		C489.663,507.648,489.768,501.843,489.683,496.049z"/>
	<path fill-rule="evenodd" clip-rule="evenodd" fill="#2B2023" d="M484.767,438.874c-0.811,2.435-1.621,4.87-2.436,7.303
		c-1.343-0.478-2.999,0.219-4.154-1.123c0.119-1.785,2.438-0.668,2.871-2.557c-0.953-0.552-2.08-1.205-3.764-2.18
		C480.179,439.759,482.473,439.316,484.767,438.874z"/>
	<path fill-rule="evenodd" clip-rule="evenodd" fill="#956137" d="M505.946,517.94c-1.442,0.14-0.608,1.658-1.816,2.626
		c0.949-2.996-5.138-4.272-0.6-7.907c-0.206,2.391,2.264,3.241,2.355,5.374L505.946,517.94z"/>
	<path fill-rule="evenodd" clip-rule="evenodd" fill="#956137" d="M505.886,518.033c0.259-0.038,0.518-0.076,0.776-0.114
		c-0.045,0.228-0.091,0.455-0.136,0.683c-0.193-0.221-0.386-0.442-0.579-0.662C505.946,517.94,505.886,518.033,505.886,518.033z"/>
	<path fill-rule="evenodd" clip-rule="evenodd" fill="#956137" d="M483.425,479.837c-3.781,0.964-5.245,4.499-8.645,4.805
		c-1.7,0.152-3.738,0.87-4.294-1.087c-0.713-2.516,1.931-1.56,3.008-1.858c4.715-1.308,7.277-4.881,9.492-8.733
		c2.679-4.663,4.955-4.843,7.825-0.335c3.415,5.363,3.044,11.507-0.917,14.847c-0.729,0.615-1.495,1.694-2.544,0.962
		c-1.623-1.132,0.291-1.42,0.672-2.061c0.878-1.479-0.068-3.163-1.098-2.651C482.303,486.024,482.367,483.48,483.425,479.837z"/>
	<path fill-rule="evenodd" clip-rule="evenodd" fill="#2B2023" d="M491.507,442.903c-1.516-0.126-2.386-1.023-2.547-2.479
		c-0.177-1.597,0.644-2.493,2.281-2.428c1.458,0.059,2.567,0.689,2.61,2.318C493.891,441.841,493.107,442.762,491.507,442.903z"/>
</g>
<g>
	<path fill-rule="evenodd" clip-rule="evenodd" fill="#FEEF5D" d="M74.106,486.604c-2.151-7.088-5.555-13.729-6.418-21.293
		c-1.282-11.229-0.011-22.111,5.621-31.727c4.83-8.246,13.637-10.781,22.849-10.512c8.277,0.243,13.827,4.76,17.013,12.443
		c2.75,6.633,4.172,13.624,5.672,20.551c3.803,17.57,15.378,26.841,32.021,30.81c7.137,1.703,8.468,0.475,9.255-7.087
		c0.796-7.655,1.61-9.253,6.221-12.12c2.527,3.979,0.22,8.285,0.816,13.018c1.94-3.298,2.441-6.394,3.133-9.49
		c0.868-3.886,2.251-7.65,5.07-10.654c0.987-1.051,1.819-2.751,3.569-2.174c1.662,0.549,0.825,2.286,1.022,3.511
		c0.127,0.793,0.114,1.609,0.18,2.688c1.542-3.238,2.797-6.277,4.406-9.116c1.156-2.041,2.784-3.747,5.568-3.504
		c2.435,0.212,3.958,0.434,3.175,3.854c-2.132,9.302-6.1,17.777-12.525,24.575c-13.523,14.308-29.244,25.393-48.608,30.775
		c-12.047,3.35-23.67,2.071-34.908-2.477c-3.608-1.46-6.516-4.851-10.154-6.765C80.855,498.423,76.929,492.981,74.106,486.604z"/>
	<path fill-rule="evenodd" clip-rule="evenodd" fill="#956137" d="M74.106,486.604c4.113,5.282,7.958,10.794,12.978,15.307
		c-3.053,4.579-7.033,7.268-12.755,6.562c-0.505-2.235,2.679-2.225,2.003-4.668c-5.187,1.413-10.446,5.823-15.879,0.55
		c5.517-1.842,11.715-2.516,14.849-9.911c-7.289,3.859-13.77,5.689-20.082-0.032C62.973,495.02,69.25,492.515,74.106,486.604z"/>
	<path fill-rule="evenodd" clip-rule="evenodd" fill="#956137" d="M94.183,530.068c0.837,3.128-1.363,5.88,0.515,9.078
		c0.568,0.967-1.587,3.979-3.055,5.52c-0.813,0.854-0.113-2.194-1.919-1.779c-0.806,0.185-1.16-0.797-0.529-1.23
		C93.319,538.828,92.639,533.953,94.183,530.068z"/>
	<path fill-rule="evenodd" clip-rule="evenodd" fill="#956137" d="M109.966,528.621c2.796,3.821-3.083,13.546,8.38,10.316
		c-6.78,1.764-6.78,1.764-7.873,10.824c-0.409-4.448-2.033-7.066-0.728-10.63C110.826,536.185,109.966,532.525,109.966,528.621z"/>
	<path fill-rule="evenodd" clip-rule="evenodd" fill="#956137" d="M116.419,503.579c-5.543,0.503-9.584-1.993-11.399-7.066
		c-2.357-6.593-0.513-12.382,3.667-17.554c2.078-2.571,5.358-1.615,8.256,1.536c3.567,3.879,5.981,9.117,11.608,10.724
		c2.839,0.811,5.761,1.33,9.036,2.069c-7.602,5.749-13.585,0.86-19.842-2.443c1.196,7.166,6.683,9.269,12.304,11.28
		c-5.805,4.123-11.235,1.077-19.236-10.607C111.087,495.866,111.087,495.866,116.419,503.579z"/>
	<path fill-rule="evenodd" clip-rule="evenodd" fill="#2B2023" d="M105.202,444.509c0.139,2.29-1.497,3.325-3.289,3.246
		c-1.425-0.063-3.008-0.884-3.016-3.081c-0.008-2.276,1.175-3.454,3.109-3.57C104.07,440.979,105.278,442.277,105.202,444.509z"/>
	<path fill-rule="evenodd" clip-rule="evenodd" fill="#2B2023" d="M85.995,445.95c-0.675,1.589-1.695,3.2-3.766,2.904
		c-1.858-0.265-3.354-1.588-3.04-3.674c0.257-1.708,1.633-3.089,3.398-2.913C84.398,442.448,85.932,443.554,85.995,445.95z"/>
	<path fill-rule="evenodd" clip-rule="evenodd" fill="#784721" d="M90.598,462.296c-0.608-1.944-1.339-3.863-1.775-5.847
		c-0.24-1.093-0.079-2.339,1.523-2.542c0.949-0.121,2.115-0.725,2.787-0.367c1.443,0.769,0.212,2-0.022,3.005
		c-0.439,1.891-0.993,3.754-1.499,5.63C91.274,462.215,90.936,462.256,90.598,462.296z"/>
	<path fill-rule="evenodd" clip-rule="evenodd" fill="#FEFEFE" d="M80.715,500.346c-0.119,0.063-0.449,0.24-0.78,0.417
		c-0.157-0.353-0.404-0.699-0.428-1.061c-0.011-0.159,0.493-0.538,0.658-0.485C80.526,499.332,81.125,499.434,80.715,500.346z"/>
</g>
<g>
	<path fill-rule="evenodd" clip-rule="evenodd" fill="#85F7FE" d="M411.138,63.239c0.387-0.59,0.519-1.034,0.73-1.077
		c8.304-1.686,13.595-7.622,19.615-12.956c13.673-12.114,18.878-9.208,32.986-2.824c10.247,4.638,18.462,12.352,25.981,20.362
		c9.203,9.805,20.163,15.165,33.095,17.297c0.974,0.16,1.922,0.467,2.889,0.671c6.108,1.295,7.359,0.326,7.503-5.886
		c0.063-2.726,0.128-5.852,3.229-6.539c2.961-0.658,5.472,0.644,5.942,4.338c0.267,2.096,2.449,1.239,3.71,1.753
		c3.704,1.513,4.323,4.214,1.396,6.947c-0.73,0.681-1.387,1.761-2.234,1.948c-10.723,2.374-13.931,12.435-19.886,19.562
		c-6.632,7.938-14.483,14.101-23.909,18.071c-4.193,1.767-4.448,3.61-2.025,6.89c1.766,2.39,3.034,5.134,5.267,7.195
		c1.597,1.474,3,2.872,5.624,2.229c1.773-0.435,4.953-1.086,5.209,1.213c0.326,2.943-3.227,0.587-4.594,2.074
		c0.212,1.52,2.478,3.3,0.697,4.774c-1.645,1.361-1.989-1.641-3.461-1.946c-1.952,1.172-0.157,3.513-1.463,4.862
		c-0.723-0.063-1.402-0.503-1.295-1.153c1.038-6.31-2.503-10.583-6.331-14.812c-1.095-1.21-2.122-2.65-2.647-4.169
		c-0.868-2.511-1.382-4.655-5.02-3.797c-3.316,0.781-4.756,2.172-4.296,5.695c0.342,2.623-0.364,5.425,0.206,7.966
		c1.218,5.427,2.238,11.251,9.365,12.397c0.778,0.125,1.993,0.5,2.072,1.832c-0.856,1.252-2.083,0.92-3.082,0.487
		c-1.817-0.785-2.416-0.171-2.484,1.625c-0.041,1.079,0.279,2.586-1.547,2.521c-1.981-0.071-0.872-2.194-1.836-3.001
		c-1.792,0.785-1.253,4.004-3.962,3.849c-0.169-0.317-0.525-0.73-0.44-0.864c3.457-5.456,2.286-10.767-0.132-16.243
		c-2.11-4.782,1.182-11.531-2.166-14.706c-3.11-2.949-9.476-0.41-14.396-1.766c-24.838-6.844-45.58-22.676-47.52-51.575
		c-0.272-4.086-1.381-7.736-5.619-9.701C414.441,65.913,412.854,64.439,411.138,63.239z"/>
	<path fill-rule="evenodd" clip-rule="evenodd" fill="#784721" d="M447.237,64.711c-0.272,2.713-1.796,5.108-4.727,5.104
		c-3.022-0.004-5.409-2.166-5.365-5.382c0.038-2.705,2.047-4.412,4.869-4.582C445.193,59.66,446.93,61.287,447.237,64.711z"/>
	<path fill-rule="evenodd" clip-rule="evenodd" fill="#2B2023" d="M442.385,66.902c-1.456-0.302-2.387-1.115-2.244-2.675
		c0.121-1.33,1.065-2.28,2.295-1.752c0.926,0.397,3.049-0.202,2.603,1.956C444.762,65.761,443.92,66.772,442.385,66.902z"/>
</g>
<g>
	<path fill-rule="evenodd" clip-rule="evenodd" fill="#D8FE12" d="M65.827,266.229c2.506-13.364,9.898-26.849,19.846-35.995
		c-9.233-3.126-17.748-7.284-24.632-14.223c-1.78-1.793-2.536-3.105,0.987-3.167c8.573,1.947,17.614,2.56,24.509,9.12
		c2.449,2.331,5.355,3.9,8.979,3.077c7.881-0.855,15.774-1.408,23.708-0.998c5.285,0.93,9.56-1.082,13.674-4.233
		c5.392-4.131,11.906-5.222,18.471-5.945c0.992,0.064,1.984,0.128,3.491,0.225c-5.7,7.722-14.021,11.026-22.424,15.265
		c10.78,7.792,15.297,19.253,20.319,30.382c0.743,1.645,1.079,3.098,1.26,5.232c0.167,1.966-2.862,0.126-4.062-0.682
		c-2.75-1.852-5.008-1.336-6.875,1.253c-8.401,11.663-12.24,24.69-10.453,38.954c0.95,7.582,7.309,10.607,13.716,12.99
		c1.545,0.574,3.221,0.811,4.874,1.004c5.682,0.664,6.376,0.154,8.624-5.02c0.931-2.143,0.956-5.085,4.08-5.719
		c0.317,3.473,0.54,6.997-0.368,10.369c-3.264,12.142-8.158,16.268-23.466,18.848c-2.109,0.355-4.228,0.658-6.341,0.985
		c-2.836,3.126-6.022,3.017-9.411,1.012c-5.538-2.18-11.303-0.796-16.944-0.878c-4.117-0.061-8.438-1.306-12.427,0.905
		c-1.807,1.23-3.394,1.441-4.424-0.948c-9.057-0.707-18.134-1.367-25.543-7.587c-2.726-2.288-4.723-5.061-5.349-8.662
		c2.772-1.802,6-1.749,9.095-2.177c14.407-1.992,20.337-10.264,18.509-24.677c-0.935-7.371-2.912-14.292-5.772-21.046
		c-1.44-3.399-3.458-6.434-6.166-8.976C71.614,261.449,69.054,266.267,65.827,266.229z"/>
	<path fill-rule="evenodd" clip-rule="evenodd" fill="#65FE02" d="M65.827,266.229c7.017-6.524,10.833-5.429,16.164,5.411
		c4.188,8.517,6.66,17.651,6.872,27.192c0.316,14.196-5.877,18.787-18.348,21.859c-3.5,0.861-7.236,0.767-10.866,1.107
		c-5.758-14.037-5.011-27.985,0.568-41.861C62.057,275.355,63.956,270.797,65.827,266.229z"/>
	<path fill-rule="evenodd" clip-rule="evenodd" fill="#65FE02" d="M163.918,307.75c-2.052,2.129-2.886,5.037-3.403,7.637
		c-0.902,4.533-3.525,5.059-7.22,4.643c-9.274-1.043-18.098-3.502-21.529-13.223c-2.206-6.25-1.538-13.215,0.327-19.671
		c2.149-7.438,4.009-14.979,9.111-21.307c4.279-5.308,5.695-6.043,11.13-1.912c0.688,0.523,0.877,0.514,1.62,1.224
		c1.041,0.995,2.165,3.401,2.901,6.165c2.125,7.975,5.831,15.239,6.446,23.611C163.615,299.2,166.019,303.334,163.918,307.75z"/>
	<path fill-rule="evenodd" clip-rule="evenodd" fill="#FCC60D" d="M124.332,338.964c3.17-0.028,6.381,0.308,9.412-1.013
		c4.763,4.29,4.269,13.871-1.184,17.088c-3.575,2.108-7.704,1.09-10.92-0.801c-2.896-1.704-1.609-5.049-0.624-7.684
		C121.981,343.972,123.216,341.489,124.332,338.964z"/>
	<path fill-rule="evenodd" clip-rule="evenodd" fill="#FCC60D" d="M90.537,338.043c1.267,1.286,2.901,0.854,4.424,0.948
		c2.027,3.236,2.98,6.876,4.238,10.438c1.585,4.49-1.243,6.314-4.146,7.661c-1.991,0.924-2.176-2.696-4.104-3.075
		c-1.166-1.738-1.962-3.616-2.116-5.736c0.133,2.123,0.742,4.058,2.199,5.657c-0.565,0.946,0.708,2.622-0.839,3.004
		c-1.738,0.429-3.087-0.655-4.159-2.029C80.731,348.105,82.42,341.754,90.537,338.043z"/>
	<path fill-rule="evenodd" clip-rule="evenodd" fill="#2B2023" d="M95.517,225.042c-1.382,1.847-3.374,2.58-4.991,0.945
		c-7.888-7.972-18.807-9.196-28.498-13.142c0.938-4.108,3.824-1.657,5.805-1.567C79.052,211.788,86.952,219.106,95.517,225.042z"/>
	<path fill-rule="evenodd" clip-rule="evenodd" fill="#2B2023" d="M151.369,213.865c-8.673,2.547-17.207,5.359-24.538,10.965
		c-2.611,1.997-5.17,0.475-7.607-0.787c6.33-2.034,11.806-5.384,17.181-9.379c3.97-2.951,9.532-3.573,14.615-3.633
		C154.937,210.984,151.807,212.816,151.369,213.865z"/>
	<path fill-rule="evenodd" clip-rule="evenodd" fill="#FEFEFE" d="M106.939,247.103c2.983,1.105,4.99,0.366,7.449-2.041
		c4.186-4.1,10.378-3.22,14.554,1.15c4.358,4.561,4.766,12.443,0.889,17.2c-3.988,4.894-7.462,5.736-14.598,3.542
		c-3.407-2.179-6.444-0.695-9.463,0.956c-8.417,1.968-13.937-0.69-16.162-7.784c-2.147-6.847,0.974-13.844,7.319-16.408
		c4.544-1.836,8.812-0.381,10.065,3.431c-0.988,1.083-2.432,0.971-3.669,1.396c-3.074,1.054-4.57,3.411-4.644,6.444
		c-0.067,2.727,0.788,5.373,3.394,6.823c2.735,1.523,5.204,0.682,7.176-1.531c1.76-1.975,3.371-1.522,5.202-0.143
		c2.911,2.193,5.587,1.863,7.783-1.097c2.115-2.851,1.868-7.34-0.54-9.693c-2.73-2.668-5.261-1.845-7.946,0.322
		C110.156,252.571,108.668,251.93,106.939,247.103z"/>
	<path fill-rule="evenodd" clip-rule="evenodd" fill="#2B2023" d="M105.77,267.911c2.839-3.439,5.735-6.315,9.463-0.956
		c-1.22,3.404-3.361,6.202-5.738,9.063C108.181,273.158,106.976,270.535,105.77,267.911z"/>
	<path fill-rule="evenodd" clip-rule="evenodd" fill="#FEFEFE" d="M128.816,354.144c-0.143,0.259-0.245,0.696-0.426,0.731
		c-0.462,0.091-0.934-0.035-0.593-0.701c0.141-0.275,0.352-0.516,0.531-0.772C128.492,353.647,128.656,353.893,128.816,354.144z"/>
	<path fill-rule="evenodd" clip-rule="evenodd" fill="#FEFEFE" d="M91.033,353.937c-2.864-1.658-2.627-4.465-2.287-7.292
		c0.734,2.456,1.469,4.914,2.204,7.371L91.033,353.937z"/>
	<path fill-rule="evenodd" clip-rule="evenodd" fill="#2B2023" d="M111.405,250.521c3.854-4.872,7.424-5.799,11.063-2.506
		c3.295,2.981,3.6,9.251,0.615,12.652c-3.116,3.547-6.878,3.123-11.622-1.5c-1.939,3.965-4.861,6.196-9.354,4.45
		c-3.54-1.378-5.438-6.322-4.413-10.56c1.209-5.001,5.472-7.431,9.298-5.907C108.602,247.79,110.501,249.333,111.405,250.521z"/>
</g>
<g>
	<path fill-rule="evenodd" clip-rule="evenodd" fill="#FE4250" d="M261.329,505.951c19.065-9.395,25.941-26.607,29.667-45.948
		c1.805-9.366,4.086-18.573,8.27-27.307c4.056-8.466,10.646-12.621,19.604-12.581c9.203,0.041,16.419,4.259,21.267,12.359
		c1.974,3.3,3.196,6.851,4.522,10.392c1.18,1.111,1.535,2.49,1.325,4.056c0.968,10.066,1.899,20.171-0.142,30.174
		c-0.654,3.207,0.84,7.439-3.463,9.443c-0.342,0.16-0.459,1.21-0.381,1.808c1.343,10.224-5.016,16.64-11.85,22.203
		c-9.53,7.759-21.271,10.406-33.219,11.293c-9.883,0.733-19.866,0.625-29.41-2.882c-4.545-1.67-8.823-3.724-10.665-8.725
		C257.127,507.536,258.515,505.999,261.329,505.951z"/>
	<path fill-rule="evenodd" clip-rule="evenodd" fill="#FD3341" d="M261.329,505.951c-1.491,1.428-2.983,2.856-4.474,4.285
		c-1.369-1.121-3.016-1.257-4.659-1.168c-1.599,0.086-2.878-0.673-4.146-1.382c-2.58-1.441-3.991-3.801-2.935-6.596
		c1.426-3.776,4.63-1.813,7.535-2.082c0.139-1.055,0.124-2.691,0.605-4.168c0.61-1.871,2.3-2.149,4.081-1.967
		c2.629,0.269,4.225,1.708,4.724,4.272C262.643,500.136,261.932,503.045,261.329,505.951z"/>
	<path fill-rule="evenodd" clip-rule="evenodd" fill="#784721" d="M345.983,446.922c-0.443-1.352-0.887-2.701-1.328-4.054
		c0.777-0.856,1.455-1.833,2.351-2.534c1.107-0.867,2.042-3.495,3.701-1.644c1.303,1.457-0.456,2.97-1.833,3.976
		c-0.782,0.571-1.595,1.099-2.354,1.618c-0.314,0.448-0.19,0.585,0.317,0.651c1.91,0.256,4.009,0.129,5.209,2.068
		c0.182,0.293-0.004,1.183-0.271,1.325C349.468,449.561,347.916,447.43,345.983,446.922z"/>
	<path fill-rule="evenodd" clip-rule="evenodd" fill="#956137" d="M266.907,545.017c1.483,0,2.965,0,4.742,0
		c-2.558,3.15-5.394,4.394-9.284,2.511c1.15-1.572,4.561,0.639,4.625-2.592L266.907,545.017z"/>
	<path fill-rule="evenodd" clip-rule="evenodd" fill="#956137" d="M266.99,544.936c-0.541-0.189-1.081-0.379-1.622-0.568
		c0.133-0.096,0.262-0.269,0.398-0.273c0.628-0.022,1.34-0.098,1.142,0.922C266.907,545.017,266.99,544.936,266.99,544.936z"/>
	<path fill-rule="evenodd" clip-rule="evenodd" fill="#FD3341" d="M282.312,503.347c10.739-0.644,13.927-8.803,17.459-16.456
		c1.876-4.063,3.173-8.424,6.865-11.35c5.94-4.709,11.892-2.53,13.277,4.834c1.277,6.793-5.142,20.048-12.403,24.202
		c-7.655,4.379-15.759,4.849-23.771,0.542C283.232,504.847,282.949,504.16,282.312,503.347z"/>
	<path fill-rule="evenodd" clip-rule="evenodd" fill="#FEFEFE" d="M325.954,446.972c-3.459-0.348-5.777-2.535-5.671-6.056
		c0.104-3.497,2.562-5.702,6.207-5.888c3.298-0.168,6.756,3.298,6.22,6.361C332.103,444.857,329.97,446.967,325.954,446.972z"/>
	<path fill-rule="evenodd" clip-rule="evenodd" fill="#01B9C3" d="M329.884,442.815c-1.276,3.4-3.923,2.691-6.023,1.491
		c-2.057-1.176-2.687-3.493-0.996-5.541c1.676-2.028,3.753-3.127,6.002-0.55C327.161,440.201,328,441.624,329.884,442.815z"/>
	<path fill-rule="evenodd" clip-rule="evenodd" fill="#2B2023" d="M329.884,442.815c-1.822,0.312-3.866,0.8-4.163-1.884
		c-0.236-2.128,1.245-2.79,3.146-2.717C330.466,439.47,331.694,440.807,329.884,442.815z"/>
</g>
<g>
	<path fill-rule="evenodd" clip-rule="evenodd" fill="#0FFAC8" d="M441.744,271.569c-3.176-0.794-2.79-3.937-3.243-5.936
		c-2.582-11.383-5.365-22.71-5.711-34.542c-0.21-7.195-1.446-14.288,0.063-21.531c1.554-7.458,3.996-10.378,11.326-9.422
		c8.999,1.173,17.328,4.785,24.793,10.121c-3.653,1.32-7.642,0.47-11.296,1.757c-0.611,0.286-1.214,0.587-1.799,0.922
		c-7.397,5.475-13.784,11.578-13.675,21.761c0.007,0.665-0.014,1.33-0.022,1.992c-0.008,1.077,0.136,2.14,0.301,3.201
		c0.009,1.499,0.338,2.902,1.247,4.135c1.255,2.45,3.736,4.02,4.754,6.629c0.485,0.974,0.921,1.982,1.801,2.702
		c5.894,5.44,15.076,5.006,22.351-0.93c2.402-1.961,4.072-4.789,7.101-6.004c1.34-0.166,2.263,0.569,3.122,1.438
		c0.735,1.577-1.465,3.034-0.144,4.673c1.64,2.034,2.093,5.845,4.55,6.106c2.332,0.25,2.201-3.53,3.33-5.433
		c0.856-1.446,1.679-2.862,3.266-3.626c3.342,0.123,4.962,2.932,7.277,4.657c0.729,0.765,1.516,1.44,2.642,1.545
		c2.973,0.507,5.88,1.576,8.967,0.954c1.237-0.297,2.543-0.254,3.728-0.796c0.787-0.35,1.547-0.75,2.293-1.175
		c3.079-1.827,5.581-4.078,5.928-7.94c1.228-1.034,3.09-1.389,3.508-3.293c1.679-5.785,2.276-11.56,0.033-17.342
		c-0.397-1.621,0.188-3.568-1.596-4.725c-1.691-1.723-3.353-3.472-5.016-5.222c-0.965-0.531,0.46-3.102-2.023-2.333
		c-0.909,0.089-1.772-0.017-2.571-0.472c-0.631-1.584-1.58-1.406-2.667-0.468c-2.376,0.479-4.665,0.075-6.915-0.66
		c-1.623-0.775-2.649,0.239-3.678,1.253c-8.683,4.233-12.533,11.527-13.651,20.804c-0.244,2.029,1.569,3.262,1.054,5.113
		c0.057,1.113,0.24,2.199,0.763,3.206c0.789,1.66,1.693,3.29,1.358,5.235c-0.564,0.918-1.543,1.764-2.411,1.109
		c-2.525-1.905-5.377-0.594-8.011-1.149c-0.973-1.295-2.338-2.344-2.576-4.102c-0.216-4.514,1.756-8.756,1.646-13.259
		c0.393-1.445,1.311-2.958-0.575-4.084c-2.719-1.323-2.71-4.388-4.185-6.494c-2.054-2.934-4.331-5.711-6.239-8.752
		c1.313-0.006,2.725-0.337,3.921,0.032c12.217,3.766,23.314,0.726,34.424-4.619c5.533-2.661,11.319-5.169,17.473-6.443
		c6.945-1.439,12.086,3.55,12.152,12.33c0.108,14.243,0.284,28.473-1.878,42.656c-2.442,16.032-5.157,32.005-11.436,47.016
		c-3.529,8.435-6.907,17.287-15.116,22.741c-1.772,1.178-3.619,2.243-5.432,3.361c-2.19,1.475-4.347,3.035-7.179,2.951
		c-5.419,1.063-10.817,1.028-16.191-0.312c-2.702,0.395-4.614-1.026-6.38-2.782c-6.723-3.223-13.788-6.036-16.564-13.946
		c0.145-0.185,0.29-0.37,0.434-0.558c2.65-0.809,4.509,0.908,6.271,2.274c4.463,3.462,8.688,3.283,13.247,0.143
		c4.962-3.42,8.292-8.085,6.662-13.874c-2.222-7.887-6.776-14.655-14.313-18.82c-0.398-0.25-0.743-0.563-1.054-0.913
		c-6.475-6.621-15.324-8.383-23.516-11.475C444.754,270.09,443.292,271.172,441.744,271.569z"/>
	<path fill-rule="evenodd" clip-rule="evenodd" fill="#F49B2C" d="M441.744,271.569c0.594-2.282,1.768-3.417,4.176-2.11
		c3.328,4.006,8.301,4.776,12.844,5.899c3.119,0.771,4.578,2.336,5.475,4.98c0.951,2.807-1.326,3.146-3.048,4.159
		c-2.135,1.256-2.235,4.721-5.516,4.776c1.181,2.279,2.976,1.985,4.583,2.154c0.472,0.061,0.906,0.224,1.31,0.472
		c1.441,1.216,2.201,2.848,2.726,4.599c0.296,0.987,0.301,2.468-0.743,2.516c-3.85,0.174-1.749,9.042-8.005,5.366
		c-2.143-1.522-3.844-3.29-3.448-6.217c0.442-1.63,1.655-3.079-0.418-4.776c-3.988-3.266-3.869-3.41-0.58-8.628
		c-3.518-1.068-7.297-2.266-5.125-7.197C444.314,275.74,441.727,274.574,441.744,271.569z"/>
	<path fill-rule="evenodd" clip-rule="evenodd" fill="#F49B2C" d="M470.938,211.193c4.674,1.779,6.474,6.306,8.374,10.133
		c0.885,1.781,2.203,3.261,3,5.047c-1.681,2.854-4.28,3.448-7.313,2.981c-1.587-1.634-2.982-3.451-4.5-5.151
		c-3.085-3.458-6.811-4.253-11.089-3.903c-2.66-2.593-2.848-5.862-2.529-9.268c3.952-1.469,7.994-1.563,12.091-0.773
		C469.627,210.571,470.282,210.882,470.938,211.193z"/>
	<path fill-rule="evenodd" clip-rule="evenodd" fill="#F49B2C" d="M497.868,331.219c2.027-1.875,4.335-3.065,7.179-2.951
		c-0.002,3.776,3.473,5.44,5.033,8.271c1.16,2.106,4.788,3.952,1.677,6.63c-2.954,2.542-3.865-1.882-6.416-2.741
		c-0.802,1.734,0.646,5.325-2.521,5.255c-3.804-0.085-2.525-3.808-3.147-6.122c-1.646,0.537-1.941,2.001-2.78,2.967
		c-1.075,1.235-2.238,2.098-3.826,0.946c-1.477-1.07-1.521-2.49-0.598-3.941C494.242,336.744,496.066,333.987,497.868,331.219z"/>
	<path fill-rule="evenodd" clip-rule="evenodd" fill="#F49B2C" d="M475.297,328.125c2.407,0.287,4.467,1.371,6.382,2.782
		c1.805,2.376,3.589,4.771,5.426,7.125c1.268,1.623,2.64,3.258,0.558,5.137c-2.14,1.93-3.182-0.219-4.461-1.38
		c-0.471-0.428-0.971-0.824-1.689-1.432c-0.991,2.051,0.221,5.61-3.173,5.348c-3.646-0.283-1.801-3.957-2.803-5.925
		c-1.498,0.171-1.851,1.426-2.49,2.334c-1.052,1.49-2.273,2.659-4.088,1.365c-1.705-1.217-1.241-2.79-0.371-4.424
		C470.603,335.271,474.201,332.465,475.297,328.125z"/>
	<path fill-rule="evenodd" clip-rule="evenodd" fill="#784721" d="M445.974,277.563c-0.1,3.271,1.396,5.062,4.682,5.768
		c3.218,0.691,1.528,2.781,0.476,3.924c-2.245,2.438-2.651,3.845,1.138,5.006c4.248,1.301,3.605,3.597,0.604,5.898
		c-1.685,0.498-2.579,0.113-2.064-1.848c-2.895-3.841-4.771-8.221-6.413-12.677C443.587,281.438,442.074,278.693,445.974,277.563z"
		/>
	<path fill-rule="evenodd" clip-rule="evenodd" fill="#0FFAC8" d="M450.809,296.311c-0.003,1.388,0.945,1.714,2.064,1.848
		c-0.495,2.899,1.922,4.059,3.438,5.757c-0.319,0.434-0.746,0.544-1.252,0.417c0.062,0.207,0.27,0.193,0.414,0.256
		c1.672,0.729,1.905,2.548,2.902,3.785c0.237,0.36,0.434,0.742,0.616,1.131c0.497,1.188,0.955,2.385,0.73,3.715
		c-0.329,0.32-0.659,0.641-0.989,0.96c-3.701-4.255-5.988-9.324-8.188-14.424C450.091,298.701,449.068,297.319,450.809,296.311z"/>
	<path fill-rule="evenodd" clip-rule="evenodd" fill="#784721" d="M526.843,287.549c1.66,3.415-0.247,6.09-1.829,8.833
		c-1.512-0.017-3.466-1.945-4.42,1.604c1.482-1.266,2.854-1.862,4.422-1.586c-1.48,7.857-5.112,14.404-11.435,19.466
		c-7.044,5.639-16.088-1.018-19.719-7.129c-4.612-7.764-0.376-14.354,3.319-20.386c4.138-6.754,9.901-12.398,17.042-16.31
		c1.314,2.261,0.004,4.032-0.686,5.629c2.034-1.462,4.64-2.703,7.678-2.517c1.274,0.078,2.858,0.103,3.062,1.839
		c0.158,1.354-0.892,2.026-2.08,2.386c-0.946,0.285-1.973,0.452-2.501,1.416c-0.376,0.685-0.977,2.118-0.387,2.124
		C522.844,282.954,523.01,288.254,526.843,287.549z"/>
	<path fill-rule="evenodd" clip-rule="evenodd" fill="#784721" d="M459.722,313.219c-0.604-1.239-1.21-2.478-1.813-3.717
		c4.511,1.877,6.011-2.846,9.049-4.2c0.733-0.327-0.063-1.14-0.42-1.593c-0.49-0.622-1.434-0.669-1.514,0.071
		c-0.472,4.34-4.461,4.205-7.093,5.784c-1.369-1.645-3.318-3.123-1.619-5.648c2.516,0.255,4.129,0.11,3.127-3.365
		c-1.247-4.325,2.38-1.893,4.061-2.448c0.012-2.388-1.934-4.014-2.556-6.147c1.198-1.396,2.934-0.378,5.174-0.575
		c-2.616-1.479-3.879-0.418-5.151,0.598c-4.083,2.283-6.022,0.065-7.532-3.577c1.78-1.251,6.194,0.68,4.908-4.093
		c-0.174-0.643,1.262-1.31,2.355-1.443c1.24-0.151,3.733,0.545,2.58-2.024c-0.724-1.613-0.642-4.712-3.887-4.07
		c-2.372,0.47-4.231-0.14-5.635-2.126c-0.451-0.64-0.81-1.567-1.875-1.071c-4.345,2.025-4.745-1.628-5.96-4.113
		c8.018,2.528,16.044,4.989,22.937,10.14c1.025,0.767,1.654,1.425,1.926,2.565c-0.359,0.343-0.69,0.711-1.028,1.074
		c-0.533,0.573-1.375,1.018-0.936,2.024c0.134,0.307,0.466,0.595,0.766,0.534c1.537-0.312,0.333-1.654,0.844-2.386
		c0.18-0.258,0.297-0.57,0.565-0.786c4.422-0.592,5.978,3.396,7.916,5.776c4.774,5.86,10.287,11.729,7.302,20.619
		c-3.182,9.472-14.278,13.369-22.217,7.537C462.539,315.487,461.145,314.334,459.722,313.219z"/>
	<path fill-rule="evenodd" clip-rule="evenodd" fill="#F49B2C" d="M480.168,246.854c-3.701,3.124-6.215,7.56-11.137,9.361
		c-7.256,2.657-14.248,4.434-20.254-2.495c-0.324-0.633-0.245-1.255,0.01-1.893c0.383-0.96,1.019-1.682,1.758-2.059
		c0.711-0.497,0.151-0.504,0.102-0.44c-0.717,0.896-1.645,1.574-2.733,1.998c-1.683-2.628-4.998-4.211-5.053-7.883
		c1.201-3.54,4.189-2.542,6.738-2.668c4.82,1.339,7.526,6.184,12.377,7.486c0.799,0.57,1.198,1.379,1.385,2.327
		c0.08,0.405-0.088,0.838,0.153,1.22c-0.053-0.618-0.039-1.235,0.045-1.854c2.639-3.329,6.595-5.158,9.418-8.281
		C476.421,241.943,478.632,243.931,480.168,246.854z"/>
	<path fill-rule="evenodd" clip-rule="evenodd" fill="#F49B2C" d="M490.317,240.403c-2.637-8.158,0.247-15.606,4.47-22.018
		c1.569-2.381,5.24-5.313,9.24-5.77c2.994,1.325,2.567,4.068,2.731,6.569c-0.161,0.745-0.519,1.393-1.019,1.961
		c-0.647,0.691-1.422,1.178-2.343,1.407c-0.934,0.132-2.004,0.084-2.002,1.502c-0.309,1.468-0.587,2.931-0.546,4.424
		c0.09,3.256-1.416,5.31-4.529,6.178c-1.733,1.71,0.768,1.327,1.031,2.046c0.559,0.518,0.922,1.111,0.823,1.908
		C495.921,240.817,493.31,241.446,490.317,240.403z"/>
	<path fill-rule="evenodd" clip-rule="evenodd" fill="#F49B2C" d="M529.031,225.979c1.111,2.91,3.969,7.28,2.994,8.445
		c-2.574,3.079-0.501,7.16-3.239,9.72c-2.633-0.837-4.269-0.458-3.486,2.863c0.428,4.566-1.667,7.189-6.693,8.38
		c-2.673-1.922-2.463-4.977-3.038-7.726c6.526-5.269,7.242-12.631,7.274-20.246C524.606,225.642,526.462,224.261,529.031,225.979z"
		/>
	<path fill-rule="evenodd" clip-rule="evenodd" fill="#F49B2C" d="M513.103,257.202c-2.114,1.688-4.458,0.634-6.679,0.437
		c-1.238-0.109-2.422-0.829-3.631-1.273c-0.748-1.453,0.188-2.595,0.69-3.847c-0.828,0.888-1.11,2.282-2.484,2.623
		c-2.652-2.059-5.304-4.119-7.955-6.18c-0.334-0.156-0.448-0.41-0.342-0.764c-0.487-1.799-0.671-3.731-2.222-5.064
		c1.887-2.102,4.442-2.43,7.034-2.657c4.035,3.265,8.532,5.774,13.243,7.925c2.442,2.045,1.066,5.102,1.996,7.549
		C512.937,256.35,513.051,256.768,513.103,257.202z"/>
	<path fill-rule="evenodd" clip-rule="evenodd" fill="#F49B2C" d="M442.136,240.322c-1.7-1.006-1.262-2.281-0.453-3.603
		c0.109-0.652-0.176-1.147-0.629-1.575c-0.126-11.012,6.13-17.981,14.827-23.402c1.373,2.327,1.937,4.861,1.929,7.539
		c-1.207,3.182-3.564,5.355-6.324,7.17c-1.289,0.296-3.455-0.387-2.415,2.401c0.401,1.075-0.673,1.62-1.388,2.195
		c-0.139,2.182-0.935,4.125-0.569,6.558C447.613,240.943,444.933,241.417,442.136,240.322z"/>
	<path fill-rule="evenodd" clip-rule="evenodd" fill="#F49B2C" d="M526.843,287.55c-1.457,0.305-2.914,0.61-4.427,0.927
		c-0.807-1.758,1.002-5.643-3.786-4.274c-1.5,0.429-0.414-1.681-0.507-2.567c-0.218-2.083,0.645-3.749,3.018-3.348
		c1.231,0.209,2.523,0.831,2.669-0.784c0.188-2.089-2.143-1.498-2.889-1.413c-3.206,0.365-6.092,1.904-9.356,3.886
		c1.115-3.026,2.5-5.289,2.658-7.933c0.001-0.001,0.311-0.088,0.311-0.088c2.463,0.388,4.899,0.952,6.204-2.214
		c0.449-1.09,1.719-1.449,3.013-1.185c4.831,0.992,7.167,6.996,3.997,10.826c-1.213,1.465-1.285,2.478-0.313,3.899
		c0.963,1.411,0.953,2.77-0.478,3.922C526.956,287.204,526.843,287.549,526.843,287.55z"/>
	<path fill-rule="evenodd" clip-rule="evenodd" fill="#784721" d="M526.956,287.204c0.974-1.547,0.535-2.898-0.843-3.811
		c-3.189-2.113-1.652-3.582,0.606-4.888c1.423-0.823,3.684-1.787,2.522-3.409c-1.66-2.32-3.63-4.735-6.51-5.847
		c-0.263-0.102-1.188,0.689-1.317,1.191c-1.316,5.119-3.916,4.066-6.88,1.514c4.777-4.088,10.51-6.351,16.275-8.576
		c1.734-0.67,2.819-0.143,2.48,1.572c-1.419,7.175-3.035,14.313-4.679,21.44C528.525,286.77,527.529,286.938,526.956,287.204z"/>
	<path fill-rule="evenodd" clip-rule="evenodd" fill="#2B2023" d="M492.702,248.198c0.12,0.252,0.235,0.506,0.344,0.764
		c-1.46,4.292-3.142,8.482-5.508,12.685c-2.196-3.385-4.054-6.682-6.341-9.648c-2.154-2.794,2.03-2.374,1.752-4.073l-0.078,0.074
		C486.225,244.31,489.426,248.098,492.702,248.198z"/>
	<path fill-rule="evenodd" clip-rule="evenodd" fill="#F49B2C" d="M482.545,229.56c1.243,5.044-0.464,9.745-1.692,14.501
		c-3.144,0.611-4.907-1.906-7.221-3.181c-0.373-2.021-0.023-3.943,0.797-5.799c1.141-1.314,2.535-1.596,4.032-1.36
		c-0.473-0.984-2.063,0.399-2.746-0.695c-0.236-0.482-0.302-0.98-0.202-1.508C477.313,228.902,479.669,228.293,482.545,229.56z"/>
	<path fill-rule="evenodd" clip-rule="evenodd" fill="#956137" d="M442.136,240.322c4.06-0.698,4.054-0.695,2.263-4.067
		c-0.614-1.158-0.102-1.729,1.038-2.119c1.992-0.685,1.5-1.027,0.138-2.404c-2.6-2.628,1.05-1.012,1.458-1.714
		c1.035,1.205,2.51-0.025,3.641,0.655c0.425,3.158,0.09,6.369,0.7,9.528c0.16,0.829-0.76,1.314-1.561,1.572
		c-2.362,0.37-5.088-0.762-6.951,1.675C441.042,242.77,441.395,241.591,442.136,240.322z"/>
	<path fill-rule="evenodd" clip-rule="evenodd" fill="#F49B2C" d="M521.907,215.581c2.159,1.586,4.556,2.959,5.25,5.86
		c-0.688,3.05-3.012,3.946-5.721,4.342c-2.21-0.289-3.271-1.638-3.484-3.775C518.378,219.318,518.771,216.604,521.907,215.581z"/>
	<path fill-rule="evenodd" clip-rule="evenodd" fill="#F49B2C" d="M506.734,211.619c2.825,0.136,5.65,0.271,8.476,0.408
		c0.841,2.764,0.082,5.122-1.822,7.193c-0.687,0.426-1.444,0.571-2.241,0.553C506.079,218.584,505.319,217.18,506.734,211.619z"/>
	<path fill-rule="evenodd" clip-rule="evenodd" fill="#956137" d="M506.734,211.619c0.333,3.009-0.815,6.835,4.048,7.351
		c0.134,2.631-1.773,3.303-3.728,3.402c-1.309,0.066-2.078-0.901-1.014-2.294c-0.234-2.605-0.64-5.163-2.017-7.459
		c0.109-0.895-0.443-2.116,0.658-2.551C505.903,209.584,506.149,210.947,506.734,211.619z"/>
	<path fill-rule="evenodd" clip-rule="evenodd" fill="#956137" d="M521.864,225.241c2.115-0.781,3.803-2.154,5.291-3.804
		c4.159,0.059,0.882,3.182,1.876,4.543c-2.293-0.2-4.187,0.821-6.035,1.979c-1.113,0.521-1.742-0.13-2.11-1.013
		C520.523,226.074,521.078,225.547,521.864,225.241z"/>
	<path fill-rule="evenodd" clip-rule="evenodd" fill="#956137" d="M482.545,229.56c-2.221,0.495-4.694,0.105-6.55,1.874
		c-0.712,1.661-1.516,0.435-1.905-0.104c-0.645-0.891-1.131-2.036,0.729-2.256c2.672-0.413,5.143-1.383,7.489-2.702
		c1.033-0.266,1.626,0.347,1.886,1.162C484.64,228.931,483.169,228.936,482.545,229.56z"/>
	<path fill-rule="evenodd" clip-rule="evenodd" fill="#956137" d="M498.33,240.955c-2.617,0.725-5.235,1.451-7.852,2.177
		c-1.311-0.835-1.341-1.75-0.162-2.733c2.586-0.478,5.216-0.796,7.573-2.094c1.728-0.797,2.37,0.257,2.38,1.653
		C500.276,241.095,499.495,241.624,498.33,240.955z"/>
	<path fill-rule="evenodd" clip-rule="evenodd" fill="#956137" d="M474.349,240.782c2.168,1.091,4.336,2.184,6.504,3.278
		c1.147,1.07,2.573,1.997,2.02,3.939c-0.001,0,0.079-0.074,0.078-0.074c-1.003-0.167-2.104-0.073-2.784-1.071
		c-2.23-1.627-4.463-3.254-6.695-4.881c-0.077-0.33-0.835-0.393-0.295-0.996C473.579,240.526,473.955,240.804,474.349,240.782z"/>
	<path fill-rule="evenodd" clip-rule="evenodd" fill="#956137" d="M525.3,247.008c-1.291-1.534-2.682-3.654-1.008-5.068
		c2.101-1.774,2.779,1.785,4.496,2.203C529.175,246.986,527.324,247.104,525.3,247.008z"/>
	<path fill-rule="evenodd" clip-rule="evenodd" fill="#F49B2C" d="M516.982,256.788c-1.223,0.801-2.445,1.595-3.88,0.414
		l-0.162-0.243c-1.275-2.695-0.783-5.522-0.617-8.328c0.635-1.055,1.518-1.404,2.684-0.938
		C516.157,250.617,517.281,253.549,516.982,256.788z"/>
	<path fill-rule="evenodd" clip-rule="evenodd" fill="#956137" d="M521.907,215.581c-1.505,1.948-2.751,4.024-3.201,6.492
		c-2.052,2.305-2.601,0.569-3.154-1.169c1.113-2.777,1.771-5.839,4.628-7.551C524.085,211.514,520.796,215.252,521.907,215.581z"/>
	<path fill-rule="evenodd" clip-rule="evenodd" fill="#F49B2C" d="M470.994,282.625c-0.299,1.801,1.102,3.082,1.503,5.001
		c-2.454,0.286-4.313-0.798-6.201-2.103c1.046-1.893,1.967-3.692,4.486-3.36C470.938,282.279,471.009,282.433,470.994,282.625z"/>
	<path fill-rule="evenodd" clip-rule="evenodd" fill="#956137" d="M456.972,220.413c0.664-3.02-1.224-5.719-1.09-8.673
		c0.333-0.235,0.667-0.472,1-0.708c0.884,2.969,1.769,5.937,2.653,8.905c1.379,1.132,0.83,2.1-0.499,2.446
		C457.677,222.737,456.366,222.421,456.972,220.413z"/>
	<path fill-rule="evenodd" clip-rule="evenodd" fill="#F49B2C" d="M525.016,296.4c-1.953,1.13-3.906,2.26-7.111,4.115
		c1.88-2.821,1.483-5.431,3.583-6.503c2.031-1.037,1.999,2.047,3.526,2.368C525.014,296.382,525.016,296.4,525.016,296.4z"/>
	<path fill-rule="evenodd" clip-rule="evenodd" fill="#956137" d="M512.907,219.169c0.766-2.38,1.531-4.761,2.3-7.142
		c1.318-0.945,1.583-0.086,1.716,0.998c1.208,3.355-0.17,5.986-2.349,8.396C513.016,221.412,512.094,220.933,512.907,219.169z"/>
	<path fill-rule="evenodd" clip-rule="evenodd" fill="#F49B2C" d="M514.882,220.581c0.681-2.519,1.361-5.038,2.041-7.556
		c1.085,0.108,2.169,0.217,3.255,0.326c-0.971,2.76-2.253,5.357-4.025,7.698C515.55,221.38,515.126,221.224,514.882,220.581z"/>
	<path fill-rule="evenodd" clip-rule="evenodd" fill="#956137" d="M516.982,256.788c-1.249-2.731-2.102-5.556-1.965-8.604
		c0.197-0.43,0.487-0.505,0.869-0.227c1.819,2.146,1.494,5.078,2.724,7.435C518.065,255.854,517.524,256.321,516.982,256.788z"/>
	<path fill-rule="evenodd" clip-rule="evenodd" fill="#956137" d="M500.999,255.142c1.292-1.952,1.546-4.626,4.963-6.621
		c-1.331,3.305-2.249,5.579-3.167,7.849C501.834,256.487,500.972,256.467,500.999,255.142z"/>
	<path fill-rule="evenodd" clip-rule="evenodd" fill="#956137" d="M447.913,251.326c1.737-1.477,3.474-2.954,5.401-4.592
		c-0.379,3.178-4.368,3.932-4.536,6.986C447.506,253.277,447.928,252.223,447.913,251.326z"/>
	<path fill-rule="evenodd" clip-rule="evenodd" fill="#956137" d="M441.054,235.144c0.519,0.163,1.31,0.178,1.497,0.521
		c0.343,0.632-0.154,1.042-0.869,1.058C441.474,236.194,441.264,235.669,441.054,235.144z"/>
	<path fill-rule="evenodd" clip-rule="evenodd" fill="#FEFEFE" d="M456.972,220.413c0.116,0.958,0.759,1.514,1.613,1.378
		c0.921-0.146,1.203-0.938,0.951-1.854c7.173-1.76,14.837,2.82,15.286,9.136c-1.485,1.72-0.398,2.161,1.172,2.36
		c0.125,0.49,0.249,0.98,0.373,1.472c-0.183,0.753-0.6,1.404-0.929,2.093c-0.363,1.931-0.727,3.861-1.09,5.788
		c-0.293,0.392-0.585,0.79-0.878,1.187c-2.111,3.873-5.669,5.968-9.499,7.727c-0.638,0.025-1.186-0.226-1.704-0.563
		c-3.959-0.367-6.85-2.708-9.339-5.465c-0.942-1.044-1.73-1.816-3.115-1.895c0.373-0.827,1.602-1.627,0.757-2.543
		c-2.48-2.69-0.198-5.572-0.547-8.323c-0.578-1.794,0.379-3.23,1.102-4.72C453.021,224.21,454.447,221.756,456.972,220.413z"/>
	<path fill-rule="evenodd" clip-rule="evenodd" fill="#F49B2C" d="M457.931,309.564c1.207-1.202,1.737-3.58,3.904-3.166
		c1.932,0.37,1.288-0.557,1.202-1.472c-0.194-2.081,1.275-3.152,2.61-4.375c1.743,1.069,2.137,2.98,3.157,4.426
		c0.428,0.605,0.841,1.827,0.541,2.218c-0.721,0.939-1.604,0.581-2.395-0.348c-1.375-1.613-1.886-0.465-2.069,0.856
		c-0.175,1.269-0.16,2.563-0.253,4.293c-2.453-0.91-4.587-1.701-6.721-2.494C457.908,309.502,457.931,309.564,457.931,309.564z"/>
	<path fill-rule="evenodd" clip-rule="evenodd" fill="#F49B2C" d="M507.772,307.457c-2.578,1.028-4.241,4.666-6.389,2.335
		c-5.575-6.05-5.382-6.228-2.718-10.65C501.188,302.529,503.94,305.518,507.772,307.457z"/>
	<path fill-rule="evenodd" clip-rule="evenodd" fill="#F49B2C" d="M514.452,295.162c-1.146-1.257,4.138-8.272-3.448-3.864
		c-0.171,0.099-2.226,0.368-1.486-0.868c1.031-1.724-0.89-4.75,2.374-5.348c1.095-0.2,7.851,5.418,7.943,6.536
		C519.929,292.734,518.906,293.408,514.452,295.162z"/>
	<path fill-rule="evenodd" clip-rule="evenodd" fill="#F49B2C" d="M506.995,314.465c0.566-1.604,1.093-2.961,1.521-4.348
		c0.368-1.189,0.949-2.201,2.287-2.245c1.654-0.055,0.966,1.739,1.761,2.51c1.499,1.453-0.375,1.821-1.106,2.423
		C510.352,313.715,509.423,315.097,506.995,314.465z"/>
	<path fill-rule="evenodd" clip-rule="evenodd" fill="#F49B2C" d="M497.895,297.057c0.851-2.624,1.365-4.302,1.944-5.958
		c0.296-0.848,0.388-2.163,1.809-1.591c0.995,0.401,2.029,0.762,2.546,2.028c0.58,1.423-0.439,1.712-1.162,2.212
		C501.627,294.722,500.161,295.606,497.895,297.057z"/>
	<path fill-rule="evenodd" clip-rule="evenodd" fill="#F49B2C" d="M510.714,296.846c-1.328,0.559-2.357,0.96-3.36,1.42
		c-0.961,0.442-1.895,0.945-3.037,1.521c-0.374-2.714,0.751-5.044,2.156-5.993C507.697,292.967,509.465,295.021,510.714,296.846z"/>
	<path fill-rule="evenodd" clip-rule="evenodd" fill="#F49B2C" d="M510.047,282.049c-0.677,2.875-3.499,2.916-5.465,4.388
		c0.589-6.422,1.428-7.097,5.326-4.527L510.047,282.049z"/>
	<path fill-rule="evenodd" clip-rule="evenodd" fill="#F49B2C" d="M510.027,303.873c0.55-2.7,1.176-4.564,2.43-6.305
		c1.43,0.78,3.564,1.639,2.98,3.302C514.823,302.619,512.49,303.156,510.027,303.873z"/>
	<path fill-rule="evenodd" clip-rule="evenodd" fill="#F49B2C" d="M517.16,302.285c4.608,3.368,4.608,3.368-2.879,6.793
		C515.381,306.485,516.257,304.419,517.16,302.285z"/>
	<path fill-rule="evenodd" clip-rule="evenodd" fill="#F49B2C" d="M509.908,281.909c0.159-0.125,0.318-0.25,0.478-0.375
		c-0.113,0.171-0.227,0.343-0.34,0.515C510.047,282.049,509.908,281.909,509.908,281.909z"/>
	<path fill-rule="evenodd" clip-rule="evenodd" fill="#F49B2C" d="M476.683,290.038c1.185,2.652,2.044,4.578,3.141,7.033
		c-2.682-0.499-5.401-1.019-6.33-2.984C472.817,292.658,475.392,291.445,476.683,290.038z"/>
	<path fill-rule="evenodd" clip-rule="evenodd" fill="#F49B2C" d="M476.982,305.99c-0.269-2.135,0.061-4.439,2.433-4.639
		c3.047-0.256,2.533,3.293,4.752,5.393c-2.943-0.325-5.086-0.562-7.229-0.798L476.982,305.99z"/>
	<path fill-rule="evenodd" clip-rule="evenodd" fill="#F49B2C" d="M473.09,316.563c-2.287-0.439-4.794-0.456-5.673-2.84
		c-0.242-0.658,0.338-2.64,1.668-2.584C472.259,311.271,472.104,314.393,473.09,316.563z"/>
	<path fill-rule="evenodd" clip-rule="evenodd" fill="#F49B2C" d="M474.752,301.839c-7.513-2.744-7.513-2.744-3.366-6.365
		C472.722,297.265,474.008,299.053,474.752,301.839z"/>
	<path fill-rule="evenodd" clip-rule="evenodd" fill="#F49B2C" d="M460.966,291.978c0.197-2.392,2.415-3.67,3.875-3.561
		c2.067,0.153,1.819,3.075,3.566,4.857c-3.185,0.73-5.074-1.81-7.464-1.319L460.966,291.978z"/>
	<path fill-rule="evenodd" clip-rule="evenodd" fill="#F49B2C" d="M476.938,305.946c-0.447,1.87,0.449,3.529,0.952,5.532
		c-2.388,0.642-5.028-0.195-5.298-1.973c-0.284-1.866,1.777-3.718,4.39-3.516L476.938,305.946z"/>
	<path fill-rule="evenodd" clip-rule="evenodd" fill="#956137" d="M462.268,249.136c0.696-0.195,1.345-0.248,1.705,0.565
		c-0.185,1.904,2,4.212,0.152,5.519c-1.475,1.044-2.02-0.927-1.858-2.324c0.109-0.941,0.901-1.792,0.327-2.83
		C462.438,249.782,462.374,249.447,462.268,249.136z"/>
	<path fill-rule="evenodd" clip-rule="evenodd" fill="#FEFEFE" d="M515.887,247.957c-0.324-0.057-0.614,0.02-0.87,0.227
		c-0.867-0.161-1.604,0.054-2.167,0.762c-0.534,0.594-1.151,0.697-1.852,0.313c-4.913-1.719-10.296-2.716-12.671-8.303
		c2.485-1.318,1.582-2.077-0.436-2.65c-0.362-0.446-0.722-0.893-1.081-1.34c0.342-1.131-0.329-1.999-0.757-2.931
		c3.166-1.193,4.465-3.886,3.595-6.715c-0.681-2.214,1.195-2.824,1.349-4.308c0.421-0.612,1.031-0.578,1.656-0.489
		c1.381,0.337,1.755-0.563,1.995-1.628c0.463-0.273,0.927-0.547,1.392-0.818c1.287,1.438,1.287,1.438,4.743-1.105
		c0.707,0.066,1.416,0.133,2.124,0.199c0.112,1.235,0.408,2.213,1.976,1.412c0.423,0.155,0.846,0.312,1.27,0.468
		c0.407,1.455,1.342,1.589,2.556,1.024c0.174,1.929,1.122,3.089,3.155,3.166c-0.926,1.45,0.234,2.03,1.133,2.719
		C525.122,235.457,523.653,243.276,515.887,247.957z"/>
	<path fill-rule="evenodd" clip-rule="evenodd" fill="#956137" d="M496.054,234.034c1.095,0.282,2.841-0.525,2.842,1.606
		c0,1.436-1.146,1.261-2.084,1.324c-1.252-0.382-3.324,0.622-3.586-1.368C492.964,233.612,495.018,234.441,496.054,234.034z"/>
	<path fill-rule="evenodd" clip-rule="evenodd" fill="#956137" d="M504.648,220.893c0.248,0.755,0.506,1.58-0.138,2.196
		c-0.54,0.516-1.118,0.233-1.512-0.363c-0.65-0.304-0.643-0.59,0.023-0.857C503.564,221.543,504.106,221.218,504.648,220.893z"/>
	<path fill-rule="evenodd" clip-rule="evenodd" fill="#FE9897" d="M503.022,221.868c0.103,0.29,0.095,0.577-0.022,0.859
		c-0.668,0.094-1.336,0.188-2.003,0.284c-0.775-0.444-0.557-0.939-0.028-1.38C501.715,221.006,502.348,221.694,503.022,221.868z"/>
	<path fill-rule="evenodd" clip-rule="evenodd" fill="#956137" d="M510.998,249.259c0.618-0.104,1.236-0.209,1.853-0.313
		c0.029,2.672,0.06,5.344,0.09,8.014C509.001,255.224,512.689,251.562,510.998,249.259z"/>
	<path fill-rule="evenodd" clip-rule="evenodd" fill="#FE9897" d="M451.125,226.189c2.289,2.194-0.257,3.259-1.102,4.72
		c-1.275,0.635-2.316,0.485-2.992-0.892c0.97-0.112,1.086-0.548,1.186-1.57c0.127-1.302-2.341-1.438-1.098-2.706
		C448.468,224.368,449.834,225.558,451.125,226.189z"/>
	<path fill-rule="evenodd" clip-rule="evenodd" fill="#956137" d="M475.438,234.998c-0.694-1.139-0.497-1.885,0.925-2.093
		c0.939,0.12,1.875,0.241,3.67,0.472C477.989,234.098,476.714,234.548,475.438,234.998z"/>
	<path fill-rule="evenodd" clip-rule="evenodd" fill="#01B9C3" d="M461.945,244.023c-5.565-0.051-8.996-3.953-9.005-10.244
		c-0.008-5.578,4.599-10.698,9.705-10.789c5.248-0.093,9.972,4.83,9.997,10.42C472.67,239.556,468.108,244.081,461.945,244.023z"/>
	<path fill-rule="evenodd" clip-rule="evenodd" fill="#01B9C3" d="M500.876,233.718c0.125-6.039,4.273-10.135,10.025-9.897
		c5.523,0.229,9.331,4.709,9.22,10.849c-0.103,5.655-4.391,10.216-9.513,10.119C505.071,244.684,500.751,239.769,500.876,233.718z"
		/>
	<path fill-rule="evenodd" clip-rule="evenodd" fill="#2B2023" d="M462.033,239.115c-1.068-1.606-5.369,0.771-4.747-4.072
		c0.512-3.984,3.344-8.138,7.015-8.006c3.103,0.112,4.477,2.635,4.753,5.458C469.381,235.853,465.998,239.09,462.033,239.115z"/>
	<path fill-rule="evenodd" clip-rule="evenodd" fill="#2B2023" d="M504.842,234.502c-0.362-3.188,0.61-5.765,4.036-6.202
		c3.243-0.415,7.309,3.113,7.042,5.889c-0.321,3.347-1.658,6.078-5.658,6.192C506.782,240.48,504.807,238.324,504.842,234.502z"/>
</g>
<g>
	<path fill-rule="evenodd" clip-rule="evenodd" fill="#99ECFE" d="M261.832,125.024c-9.102-0.603-18.025-2.138-26.659-5.153
		c-3.501-1.222-6.684-2.917-8.618-6.3c2.61-4.14-0.284-9.22,2.378-13.389c2.382-3.731,7.47-3.62,10.32-4.742
		c2.741-1.079,5.064-0.657,7.493,0.268c11.439,4.352,22.792,4.306,33.973-0.688c7.416-3.312,12.763-8.868,16.274-16.2
		c2.303-4.812,1.986-9.539-1.241-13.645c-3.133-3.987-7.504-5.107-12.563-4.036c-2.708,0.573-5.384,1.91-8.296,1.06
		c2.109-4.054,5.258-7.58,8.075-10.897c5.512-6.491,9.856-14.147,16.879-19.263c2.06-1.501,4.649-3.132,7.264-3.928
		c4.823-1.47,4.823-1.47,7.191-1.179c0.787,0.097,2.196,0.261,2.745,0.773c13.367,12.486,18.038,27.25,13.076,45.214
		c-3.246,11.757-8.532,22.358-17.025,30.823c-4.367,4.351-9.258,8.458-15.019,11.68c-7.03,3.933-13.93,7.292-21.827,8.709
		C275.426,124.283,262.967,125.843,261.832,125.024z"/>
	<path fill-rule="evenodd" clip-rule="evenodd" fill="#FE9897" d="M274.75,62.2c5.025-1.503,9.986-3.645,15.399-2.083
		c7.022,2.027,10.868,9.373,8.679,16.408c-4.092,13.15-17.771,22.709-32.624,23.373c-9.741,0.435-20.014,0.087-27.095-6.455
		c-3.11-2.873-13.151-11.847-15.104-14.967c-0.762-1.216-1.979-2.248-1.179-3.98c0.854-1.849,2.465-1.365,3.88-1.356
		c14.001,0.084,27.489-2.759,40.751-6.999C270.168,65.277,272.669,64.162,274.75,62.2z"/>
	<path fill-rule="evenodd" clip-rule="evenodd" fill="#85F7FE" d="M261.832,124.024c1.266,0.334,2.533,0.668,3.795,1.002
		c0.393,12.617,0.79,25.233,1.181,37.851c0.026,0.831,0.038,1.666-0.015,2.494c-0.094,1.474,0.036,3.363-2.019,3.375
		c-2.206,0.014-1.805-1.966-1.853-3.382c-0.341-10.121-0.669-20.242-0.958-30.365C261.858,131.343,261.872,127.683,261.832,124.024z
		"/>
	<path fill-rule="evenodd" clip-rule="evenodd" fill="#85F7FE" d="M270.338,124.041c1.228-0.016,2.457-0.03,3.685-0.046
		c0.339,12.76,0.687,25.519,1.002,38.279c0.032,1.317-0.009,2.662-0.245,3.952c-0.146,0.797-0.776,1.479-1.774,1.39
		c-0.832-0.074-0.974-0.783-1.107-1.412c-0.275-1.292-0.665-2.587-0.716-3.893C270.681,149.559,271.375,136.782,270.338,124.041z"/>
	<path fill-rule="evenodd" clip-rule="evenodd" fill="#FE9897" d="M228.136,101.908c1.9,2.901,1.702,11.56-1.578,12.666
		c-2.687,0.906-5.579,0.013-7.496-1.033c-3.559-1.943-4.918-6.194-4.19-8.79c1.044-3.725,6.052-6.396,10.271-4.541
		C226.385,100.756,227.394,100.774,228.136,101.908z"/>
	<path fill-rule="evenodd" clip-rule="evenodd" fill="#784721" d="M321.621,46.693c-0.138,1.707-1.214,2.693-2.824,2.837
		c-1.654,0.147-2.863-0.607-2.949-2.5c-0.081-1.8,0.769-2.812,2.57-2.9C320.172,44.045,321.119,45.074,321.621,46.693z"/>
	<path fill-rule="evenodd" clip-rule="evenodd" fill="#99ECFE" d="M264.216,96.249c-12.502,0.516-21.555-5.394-28.953-14.275
		c-2.761-3.315-1.784-5.008,2.438-5.164c12.833-0.476,25.079-3.602,37.097-7.919c4.474-1.606,9.177-2.571,12.901,1.527
		c3.357,3.694,3.501,8.729,0.207,13.866C282.34,92.961,274.142,96.785,264.216,96.249z"/>
	<path fill-rule="evenodd" clip-rule="evenodd" fill="#99ECFE" d="M227.145,107.056c-0.052,3.174-2.294,4.726-5.039,4.873
		c-3.195,0.17-4.843-2.444-4.973-5.204c-0.146-3.09,1.99-4.853,5.143-4.817C225.458,101.944,227.135,103.661,227.145,107.056z"/>
	<path fill-rule="evenodd" clip-rule="evenodd" fill="#784721" d="M328.513,44.875c-0.41,2.205-0.129,4.265,1.277,6.088
		c3.23-1.395,6.457-2.789,10.228-4.416C335.813,45.316,332.206,44.803,328.513,44.875z"/>
</g>
</svg>
