<?xml version="1.0" encoding="utf-8"?>
<!-- Generator: Adobe Illustrator 16.0.2, SVG Export Plug-In . SVG Version: 6.00 Build 0)  -->
<!DOCTYPE svg PUBLIC "-//W3C//DTD SVG 1.1//EN" "http://www.w3.org/Graphics/SVG/1.1/DTD/svg11.dtd">
<svg version="1.1" id="lay" xmlns="http://www.w3.org/2000/svg" xmlns:xlink="http://www.w3.org/1999/xlink" x="0px" y="0px"
	 width="600px" height="600px" viewBox="0 0 600 600" enable-background="new 0 0 600 600" xml:space="preserve">
<g>
	<path fill-rule="evenodd" clip-rule="evenodd" fill="#F552A7" d="M54.766,436.391c-1.77-0.531-3.402-1.476-5.077-2.176
		c-2.922-1.221-6.323-5.048-7.371-6.838c-1.318-2.252-3.083-14.373-2.315-22.291c3.091,1.515,5.679,5.326,9.142,4.479
		c3.094-0.756,2.942-6.146,5.959-8.076c2.229-1.427,3.474,1.268,4.799,3.26c0.987,1.483,1.088,3.809,2.857,4.609
		c2.667,1.207,5.407-3.19,8.241-5.305c1.151,8.418,2.123,19.571-4.523,28.122c-1.15,1.479-6.479,4.215-9.714,4.215
		C56.099,436.979,55.433,436.979,54.766,436.391z"/>
	<path fill-rule="evenodd" clip-rule="evenodd" fill="#41BD49" d="M54.766,436.391c0.667,0,1.333,0,2,0c0,11.272,0,22.547,0,33.633
		c-1.269,0.722-1.782,0.047-2.385-0.51c-5.459-5.046-10.737-10.287-13.349-17.438c-1.565-4.286-3.156-8.691-2.01-13.438
		c5.092,1.138,9.172,5.53,15.745,17.181C54.766,448.949,54.766,442.67,54.766,436.391z"/>
</g>
<g>
	<path fill-rule="evenodd" clip-rule="evenodd" fill="#E93335" d="M535.117,439.088c-3.459-1.357-6.932-2.639-9.963-4.928
		c-0.762-0.574-1.623-0.985-2.023-1.862c-2.079-4.558-4.318-9.188-3.912-14.304c0.289-3.639-2.555-7.23-1.074-10.307
		c0.384-0.798,1.033-1.152,1.609-1.795c2.977,1.432,6.029,2.682,8.393,5.917c2.135-4.285,4.684-7.589,7.412-10.767
		c3.07,2.799,5.301,6.036,6.973,10.11c2.594-2.777,5.637-4.781,9.584-6.431c0,6.05,1.722,11.925,0,17.257
		c-0.867,2.686-0.541,5.289-2.02,7.652c-2.805,4.485-6.234,7.998-11.895,8.493c-0.717,0.063-1.391,0.63-2.084,0.963
		C535.783,439.592,535.449,439.592,535.117,439.088z"/>
	<path fill-rule="evenodd" clip-rule="evenodd" fill="#41BD49" d="M535.117,439.088c0.332,0,0.666,0,1,0
		c0.367,3.352-0.83,6.832,0.947,10.093c0.344,0.631,0.309,1.777-0.039,2.424c-2.018,3.763-0.404,7.618-0.854,11.402
		c0.711,0.043,1.035,0.063,1.502,0.09c3.457-8.099,7.412-15.897,16.342-20.621c0.961,13.958-5.5,23.498-15.23,31.512
		c-1.129,0-2.246,0-3.668,0C535.117,462.291,535.117,450.69,535.117,439.088z"/>
</g>
<g>
	<path fill-rule="evenodd" clip-rule="evenodd" fill="#8CCE47" d="M477.898,264.848c1.068-5.189,3.477-9.719,7.1-13.525
		c1.697-1.784,2.742-3.985,5.111-5.421c3.789-2.296,7.135-5.239,11.924-5.051c1.664-1.432,3.93-1.534,5.525-0.866
		c2.884,1.206,6.078,0.713,8.909,2.71c3.929,2.771,7.011,5.961,9.073,10.347c1.412,1.408,3.818,1.361,5.348,3.374
		c-1.824,0.785-1.514,3.575-3.768,3.641c-0.486,14.981-6.781,26.46-19.064,34.755c-2.494-0.199-4.41,1.834-6.844,2.47
		c-1.725,0.449-3.893-0.008-5.317,1.563c-0.333,0.509-0.666,0.509-0.999,0c-3.334,0-6.666,0-10,0c-0.333,0.509-0.666,0.509-1,0
		c-4.412-0.885-8.814-1.692-13.031-3.451c-4.457-1.858-8.256-4.499-11.764-7.765c-2.068-1.924-2.821-4.501-4.279-6.635
		c0.51-1.533,1.414-1.989,2.914-2.229c2.425-0.389,4.925-0.734,7.163-1.918c3.456,0.072,6.173,2.26,9.304,3.287
		c12.119,3.977,22.031-3.03,22.305-16.294c-4.111-2.895-8.346-1.262-12.591,0.018C481.962,264.447,480.201,266.344,477.898,264.848z
		"/>
	<path fill-rule="evenodd" clip-rule="evenodd" fill="#E3E354" d="M477.898,264.848c1.601,0.367,2.662-0.859,3.877-1.452
		c3.465-1.69,7.07-2.838,10.896-2.47c2.229,0.215,4.711,0.457,6.17,2.388c-0.688,2.616-1.17,5.058-1.975,7.387
		c-2.092,6.056-6.243,10.308-12.408,11.899c-2.45,0.632-5.237,0.56-8.063-0.536c-3.951-1.532-8.15-2.374-11.497-5.218
		c2.226-2.707,4.335-5.44,7.57-7.202C474.549,268.512,475.685,266.012,477.898,264.848z"/>
	<path fill-rule="evenodd" clip-rule="evenodd" fill="#F6B84C" d="M494.896,298.844c0.333,0,0.666,0,0.999,0
		c0,2.492,0,4.986,0,7.628c1.792,0.91,3.832-0.039,5.944,0.637c-0.166,1.162-1.854,0.334-1.943,1.361
		c-0.395,0.959,0.75,1.27,0.856,2.02c-0.288,0.117-0.666,0.416-0.843,0.324c-2.211-1.145-4.356-2.453-7.132-2.016
		c0.476-1.166,1.271-0.814,2.118-1.318C494.896,304.744,494.896,301.793,494.896,298.844z"/>
	<path fill-rule="evenodd" clip-rule="evenodd" fill="#F6B84C" d="M483.896,298.844c0.334,0,0.667,0,1,0c0,2.896,0,5.791,0,8.482
		c0.704,0.799,1.396,0.4,2,0.516c0.352,0.223,0.468,0.445,0.352,0.668c-0.116,0.221-0.232,0.332-0.352,0.332
		c-0.113,0.281-0.227,0.563-0.34,0.842c-1.537,0.975-1.88-1.875-3.6-0.457C484.541,305.451,483.618,302.104,483.896,298.844z"/>
	<path fill-rule="evenodd" clip-rule="evenodd" fill="#FBF45F" d="M486.896,308.842c0-0.332,0-0.666,0-1c1.284,0,2.568,0,4.816,0
		C489.604,309.281,488.172,308.621,486.896,308.842z"/>
	<path fill-rule="evenodd" clip-rule="evenodd" fill="#492411" d="M517.855,257.369c-1.381,0.703-0.662,2.943-2.52,3.345
		c-1.656,0.689-2.801-0.822-4.36-1.222c0-1.421,0-2.864,0-3.992c1.104-2.246,2.903-1.524,4.364-1.65
		C516.869,254.617,516.797,256.398,517.855,257.369z"/>
</g>
<g>
	<path fill-rule="evenodd" clip-rule="evenodd" fill="#E53760" d="M219.008,259.55c-0.666-2.64,1.108-4.658,2.219-6.544
		c3.18-5.397,6.676-8.393,13.066-11.404c7.077-3.335,15.412-3.28,22.417,3.177c2.859,2.636,5.358,5.524,5.293,9.771
		c-0.607,1.854-0.229,3.513,1,5c0.389,4.245-1.658,7.843-2.91,11.694c-1.28,3.939-3.123,7.329-5.696,10.596
		c-2.49,3.162-5.575,5.358-8.759,7.574c-1.493,1.04-6.858,2.993-8.632,3.132c-0.446,0.774-1.457,0.419-2,1c-2.999,0-5.999,0-8.999,0
		c-0.333,0.508-0.666,0.508-0.999,0c-7.561,0.528-14.143-2.662-20.356-6.174c-3.224-1.821-6.089-4.908-7.585-8.666
		c-0.255-0.639-0.565-1.114-1.024-1.632c1.455-1.956,3.764-2.151,5.825-2.445c2.229-0.318,4.123-1.314,6.141-2.081
		c1.519-0.642,2.468,0.516,3.561,1.156c7.385,4.326,14.517,3.115,20.518-3.693c-0.74-4.295-4.454-5.575-7.807-7.215
		C222.417,261.885,219.959,261.944,219.008,259.55z"/>
	<path fill-rule="evenodd" clip-rule="evenodd" fill="#492411" d="M219.008,259.55c1.882,0.667,3.83,1.189,5.631,2.03
		c3.512,1.64,7.255,3,9.005,7.019c0.364,0.837,0.2,1.572,0.446,2.608c-2.662,0.685-4.004,3.248-6.533,4.429
		c-3.94,1.84-7.938,2.201-11.412,1.872c-3.479-1.239-5.767-3.16-8.135-4.96c0-0.494,0.208-1.255-0.031-1.441
		c-3.124-2.432-4.016-6.254-5.97-9.377c-0.139-1.053,0.854-1.323,1.422-2.18C208.532,259.55,213.77,259.55,219.008,259.55z"/>
	<path fill-rule="evenodd" clip-rule="evenodd" fill="#AB9995" d="M225.008,293.546c0.333,0,0.666,0,0.999,0c0,4.255,0,8.509,0,12.7
		c2.094,0.749,4.121-0.214,5.967,0.667c-0.684,1.231-1.821,0.657-2.614,0.559c-1.184-0.146-1.464,1.375-2.564,1.072
		c-0.832-0.383-1.43-1.254-2.505-1.188c-0.448-1.581-0.372-2.908,0.591-4.485c0.66-1.082,0.127-2.892,0.127-4.377
		C225.008,296.845,225.008,295.194,225.008,293.546z"/>
	<path fill-rule="evenodd" clip-rule="evenodd" fill="#AB9995" d="M235.006,293.546c0.086-1.496,1.242-0.85,2-1
		c0,4.561,0,9.122,0,13.573c1.066,0.705,2.063,0.306,3,0.425c0,0.497,0,0.994,0,1.557c-1.083,0.542-1.709-0.997-2.869-0.613
		c-0.866,0.287-1.904,0.057-3.305-0.608c1.036-0.178,2.072-0.354,2.174-0.372c0-4.764,0.002-8.222-0.001-11.681
		C236.004,294.147,235.985,293.47,235.006,293.546z"/>
	<path fill-rule="evenodd" clip-rule="evenodd" fill="#492411" d="M263.003,259.55c-1.496,0.262-2.603-0.474-2.939-1.773
		c-0.392-1.508,0.24-2.782,1.939-3.227c0.333,0,0.666,0,1,0c1.07,0.754-0.01,2.226,1,3c0,0.333,0,0.667,0,1
		c0.286,0.223,0.38,0.444,0.286,0.667c-0.096,0.222-0.19,0.333-0.286,0.333C263.669,259.55,263.336,259.55,263.003,259.55z"/>
	<path fill-rule="evenodd" clip-rule="evenodd" fill="#953877" d="M264.003,257.55c-1.927-0.469-0.619-2.016-1-3
		c0.063-1.254,0.861-1.05,1.673-0.856C265.896,255.243,263.135,256.083,264.003,257.55z"/>
	<path fill-rule="evenodd" clip-rule="evenodd" fill="#AB9995" d="M239.528,306.67c1.408-1.772,2.42-0.748,3.902-1.325
		C242.137,307.091,240.971,306.314,239.528,306.67z"/>
	<path fill-rule="evenodd" clip-rule="evenodd" fill="#AB9995" d="M266.93,260.147c-0.693,0.622-1.677,0.656-1.841-0.149
		c-0.207-1.021,0.888-0.148,1.328-0.419C266.455,259.555,266.745,259.939,266.93,260.147z"/>
	<path fill-rule="evenodd" clip-rule="evenodd" fill="#953877" d="M264.003,259.55c0-0.333,0-0.667,0-1
		c0.691-0.025,1.024,0.308,0.999,1C264.669,259.55,264.336,259.55,264.003,259.55z"/>
	<path fill-rule="evenodd" clip-rule="evenodd" fill="#492411" d="M247.41,252.625c0.922,0,1.896,0,3.23,0
		c0.691,0.691,1.6,1.599,2.482,2.481c-0.501,1.169-0.924,2.155-1.415,3.297c-1.348,0-2.798,0-4.349,0
		C245.37,256.414,245.354,255.526,247.41,252.625z"/>
</g>
<g>
	<path fill-rule="evenodd" clip-rule="evenodd" fill="#3FBFA3" d="M122.992,268.984c-2.216,3.05-4.386,6.132-6.661,9.137
		c-2.164,2.858-5.512,4.239-8.334,6.243c-3.894,2.764-8.599,3.938-13.042,5.57c-0.874,0.321-1.967,0.046-2.958,0.046
		c-0.446,0.774-1.457,0.419-2,1c-3,0-6,0-8.999,0c-0.333,0.509-0.667,0.509-1,0c-1.424-1.57-3.805-0.279-5.259-1.76
		c-4.015,0.191-6.661-2.531-9.563-4.604c-4.78-3.412-7.714-8.662-9.302-14.525c-0.562-2.072-0.825-4.037-0.872-6.107
		c1.524-2.81,1.157-6.039,2-8.999c-0.476-1.42,0.571-2.765,1.145-3.448c4.621-5.501,9.96-9.414,17.788-9.718
		c6.868-0.267,12.675,2.021,18.205,5.276c3.163,1.861,5.734,4.769,7.836,7.911c0.153,0.229,0.02,0.647,0.02,0.979
		c-0.651,1.921-2.5,1.986-4.006,2.566c-5.649,2.175-10.615,5.319-14.596,9.917c5.719,6.559,15.69,7.25,21.995,1.818
		c1.42-1.224,2.15-3.503,4.607-3.304c0,0.495,0,0.99,0,1.475c4.153,3.123,7.624,1.175,10.999-1.475
		C123.098,266.211,123.771,266.872,122.992,268.984z"/>
	<path fill-rule="evenodd" clip-rule="evenodd" fill="#492411" d="M109.994,266.984c-1.812,1.979-3.338,4.375-5.494,5.851
		c-4.714,3.224-14.349,3.213-18.523-0.323c-0.804-0.681-1.843-1.227-2.86-1.474c-1.104-0.267-1.557-1.032-2.31-2.031
		c1.353-1.911,3.445-3.086,5.12-4.69c3.189-3.055,7.065-4.608,10.762-6.66c1.739-0.965,3.882-0.1,5.306-1.67c4.26,0,8.52,0,12.783,0
		C113.775,260.101,111.616,263.423,109.994,266.984z"/>
	<path fill-rule="evenodd" clip-rule="evenodd" fill="#492411" d="M122.992,268.984c0-0.584,0-1.167,0-2c-0.833,0-1.416,0-2,0
		c0.697-4.017,2.725-7.478,4.56-10.989c1.467-0.229,1.728,0.642,1.346,1.88c1.483,0.072,2.602,0.127,3.698,0.18
		c0.428,0.733,1.479,0.951,1.372,2.505C129.072,263.099,126.514,266.526,122.992,268.984z"/>
	<path fill-rule="evenodd" clip-rule="evenodd" fill="#492411" d="M57,254.986c0.946,1.479,1.761,3.271,0.647,4.692
		c-1.064,1.359-0.151,2.787-0.858,4.026c-0.512,0.548-1.19,0.171-1.789,0.28c0.04-0.989-0.877-1.703-1.388-1.786
		c-1.832-0.299-2.42-1.929-3.953-2.856C51.495,256.514,54.282,255.806,57,254.986z"/>
	<path fill-rule="evenodd" clip-rule="evenodd" fill="#AB9995" d="M89.997,290.98c0.085-1.496,1.242-0.85,2-1
		c0,4.139,0,8.276,0,12.446c0.647,0.682,1.311,1.381,2.069,2.178c-1.738,1.012-4.148-0.806-4.912,1.597
		c-1.305-0.543-1.105-1.283-1.23-1.792c-0.766-1.021-2.022,0.141-2.776-0.773c0.127-0.217,0.252-0.624,0.387-0.628
		c1.654-0.044,3.309-0.028,5.463-0.028c0-1.902,0.02-3.829-0.005-5.754c-0.026-1.966-0.08-3.932-0.182-5.895
		C90.803,291.2,90.279,291.097,89.997,290.98z"/>
	<path fill-rule="evenodd" clip-rule="evenodd" fill="#AB9995" d="M79.998,303.979c0.113,0.601-0.516,1.12-0.703,0.954
		c-1.537-1.363-3.571-0.688-6.274-1.396c2.954-0.836,4.99-0.438,6.978-0.558c0.277,0.223,0.369,0.444,0.277,0.667
		C80.182,303.868,80.09,303.979,79.998,303.979z"/>
	<path fill-rule="evenodd" clip-rule="evenodd" fill="#953877" d="M80.998,294.98c0,1.667,0,3.332,0,4.999
		c-0.333,0.455-0.667,0.455-1,0c0-1.667,0-3.332,0-4.999C80.331,294.525,80.664,294.525,80.998,294.98z"/>
	<path fill-rule="evenodd" clip-rule="evenodd" fill="#492411" d="M79.998,299.979c0.333,0,0.667,0,1,0
		c0,0.941-0.003,1.883,0.001,2.824c0.003,0.683-0.134,1.237-1.001,1.176c0-0.333,0-0.667,0-1
		C79.998,301.979,79.998,300.979,79.998,299.979z"/>
	<path fill-rule="evenodd" clip-rule="evenodd" fill="#AB9995" d="M80.998,294.98c-0.333,0-0.667,0-1,0c0-1.333,0-2.667,0-4
		c0.333,0,0.667,0,1,0C80.998,292.313,80.998,293.647,80.998,294.98z"/>
	<path fill-rule="evenodd" clip-rule="evenodd" fill="#492411" d="M68.823,255.802c-2.052,1.556-3.89,1.926-5.735-0.239
		c0-1.353,0-2.803,0-4.183c1.848-2.104,3.685-1.779,5.735-0.377C68.823,252.566,68.823,254.025,68.823,255.802z"/>
</g>
<g>
	<path fill-rule="evenodd" clip-rule="evenodd" fill="#FBF45F" d="M366.054,295.01c-3.373-0.467-6.479-2.271-9.999-1.999
		c-0.333,0.481-0.667,0.481-1,0c-0.465-2.053-2.45-2.287-3.88-2.939c-4.254-1.937-7.656-4.883-10.804-8.225
		c-0.553-0.586-0.19-1.229-0.314-1.835c-0.813-0.902-2.628-1.137-2-2.999c0.95,0,1.902-0.051,2.848,0.012
		c1.568,0.103,2.729-0.357,3.151-2.012c2.274-1.426,3.738,0.437,5.334,1.42c1.845,1.137,3.587,2.417,5.758,2.893
		c7.616,1.669,10.294-2.164,11.083-9.049c0.406-3.55-2.633-4.899-5.609-6.049c-3.432-1.325-7.388,0.109-10.565-2.213
		c1.127-4.711,3.966-8.382,7.895-10.845c1.587-0.995,2.287-3.349,4.616-3.167c5.392-3.614,11.432-4.428,17.716-3.944
		c1.512,0.116,3.137,0.483,4.44,1.215c3.266,1.832,6.779,3.343,9.327,6.27c0,0.816,0,1.645,0,2.473
		c-1.004,0.896-3.128,0.742-2.763,2.988c1.746,1.59,2.503-0.711,3.763-0.989c0.5,0,0.999,0,1.499,0
		c1.648,2.758,1.048,6.123,2.425,8.992c0.338,0.704,0.556,2.072-0.276,2.793c-0.966,0.839-0.731,1.852-0.606,2.745
		c0.327,2.33-0.367,4.491-1.084,6.572c-2.742,7.969-7.154,13.043-15.086,16.397c-2.09,0.884-4.438,1.603-6.874,1.514
		c-2.328-0.085-4.662-0.019-6.994-0.019C367.386,295.604,366.721,295.604,366.054,295.01z"/>
	<path fill-rule="evenodd" clip-rule="evenodd" fill="#E3E354" d="M350.056,262.015c1.983,0,3.994,0.202,5.944-0.056
		c2.032-0.269,3.618,0.959,5.534,1.148c3.958,0.394,7.467,4.63,6.417,7.903c-1.116,3.486-1.986,7.282-5.564,10.029
		c-2.898-0.424-6.154,0.459-9.543-0.899c-2.623-1.052-4.219-3.228-6.556-4.507c-0.775-0.426-1.427-0.627-2.232-0.621
		c0-0.49,0.212-1.186-0.033-1.438c-2.277-2.352-3.783-5.133-4.779-8.227C342.546,263.386,346.774,264.232,350.056,262.015z"/>
	<path fill-rule="evenodd" clip-rule="evenodd" fill="#E3E354" d="M338.057,277.013c0.667,1,1.334,1.999,2,2.999
		c-1.857,0.51-2.373-1.459-3.64-1.969c-4.061-1.639-6.63-5.281-10.263-7.486c-0.623-0.378-1.502-0.914-0.865-2.29
		c0.805-0.885,2.267,0.18,3.435-0.418c1.365-0.432,0.958-2.258,2.518-3.086C334.804,268.107,336.585,272.468,338.057,277.013z"/>
	<path fill-rule="evenodd" clip-rule="evenodd" fill="#492411" d="M395.05,256.015c0.342,2.238-1.585,2.876-2.734,4.108
		c-2.335-0.57-2.211-2.857-3.364-4.149c1.086-1.058,2.072-2.019,3.104-3.025c0.67,0.358,1.332,0.713,1.994,1.067
		c0.307,0.359,0.641,0.693,1,1C395.05,255.348,395.05,255.682,395.05,256.015z"/>
	<path fill-rule="evenodd" clip-rule="evenodd" fill="#F6B84C" d="M366.054,295.01c0.667,0,1.332,0,1.999,0c0,1.827,0,3.654,0,5.549
		c1.433,1.021,3.176,0.037,4.701,0.641c0.3,1.408-1.186,0.399-1.357,0.89c-0.539,0.901,0.71,0.931,0.489,1.577
		c-0.263,0.108-0.606,0.394-0.82,0.316c-2.021-0.729-3.718-2.252-6.271-2.082C366.865,299.584,365.714,297.188,366.054,295.01z"/>
	<path fill-rule="evenodd" clip-rule="evenodd" fill="#F6B84C" d="M355.055,293.011c0.333,0,0.667,0,1,0c0,2.603,0,5.206,0,7.709
		c2.143,0.699,4.166-0.227,5.999,0.669c-0.574,1.465-2.823-0.461-2.999,1.62c-1.426-0.008-2.962,0.307-4-1.781
		C355.055,298.796,355.055,295.902,355.055,293.011z"/>
	<path fill-rule="evenodd" clip-rule="evenodd" fill="#F6B84C" d="M360.981,303.606c-0.693,0.622-1.677,0.656-1.84-0.149
		c-0.207-1.021,0.887-0.148,1.326-0.419C360.507,303.014,360.797,303.398,360.981,303.606z"/>
	<path fill-rule="evenodd" clip-rule="evenodd" fill="#FBF45F" d="M395.05,255.016c-0.692,0.025-1.025-0.308-1-1
		C394.742,253.99,395.075,254.323,395.05,255.016z"/>
	<path fill-rule="evenodd" clip-rule="evenodd" fill="#492411" d="M377.085,257.319c-0.263,1.538,1.452,2.334,0.802,4.222
		c-0.676,0.487-1.729,1.246-2.783,2.005c-2.775,1.172-2.947-1.668-4.067-3.429c0.45-0.977,0.898-1.947,1.406-3.049
		C373.949,257.074,375.538,256.734,377.085,257.319z"/>
	<path fill-rule="evenodd" clip-rule="evenodd" fill="#F6B84C" d="M383.051,263.014c-1.435-0.277-1.839-1.797-3.14-2.42
		c0.96-0.872,1.806-1.639,2.796-2.538c1.076,0,2.391,0,3.768,0c1.781,1.149,1.893,1.844,0.576,3.959
		C385.953,263.289,384.46,262.982,383.051,263.014z"/>
	<path fill-rule="evenodd" clip-rule="evenodd" fill="#E93335" d="M383.051,263.014c-0.062-0.865,0.493-1.003,1.176-1
		c0.941,0.004,1.883,0.001,2.824,0.001c-0.115,0.935,0.271,1.924-0.507,3.136C385.458,264.33,383.741,264.72,383.051,263.014z"/>
</g>
<g>
	<path fill-rule="evenodd" clip-rule="evenodd" fill="#F6B84C" d="M285.474,121.569c-2.329,0-4.67-0.153-6.984,0.034
		c-4.087,0.33-7.715-1.584-11.612-2.123c-2.353-0.324-2.224-3.313-4.286-3.907c-1.698-0.489-2.94-1.851-3.589-3.156
		c-0.903-1.815-2.452-2.946-3.526-4.477c0-0.54,0.211-1.207-0.032-1.512c-2.655-3.331-2.995-7.239-2.97-11.259
		c0.014-2.163-0.001-4.326,0.003-6.488c0.009-4.648,2.924-8.827,6.432-12.295c3.163-3.127,7.026-4.083,10.796-5.426
		c2.947-1.051,6.426-1.013,9.249-0.144c3.16,0.972,6.586,1.71,9.409,3.748c2.458,1.773,5.011,3.41,7.177,5.566
		c2.16,2.148,3.555,4.785,4.931,7.443c-2.542,2.21-5.725,0.973-8.575,1.557c-7.856,1.612-10.266,7.407-5.662,13.922
		c2.292,3.245,6.476,3.822,11.218,2.126c3.245-1.16,5.186-4.726,9.018-4.608c1.32-0.095,0.789,1.106,1.26,1.801
		c1.652,0.611,3.232,0.168,4.738-0.801c1.719-0.025,1.672,0.831,1,2c-0.596,1.335-1.914,2.039-2.799,3.155
		c-2.273,2.866-5.059,5.291-8.463,6.818c-0.803,0.36-0.764,0.899-0.732,1.752c-3.645,0.294-6.918,1.552-9.627,4.384
		c-1.92-0.95-3.448,1.066-5.375,0.888C286.144,120.906,286.071,121.5,285.474,121.569z"/>
	<path fill-rule="evenodd" clip-rule="evenodd" fill="#E93335" d="M306.473,100.572c-2.646,1.41-4.479,3.811-7.328,5.195
		c-3.755,1.825-7.064,2.519-10.849,0.821c-0.277-0.125-0.674,0.045-0.987-0.034c-0.29-0.073-0.541-0.297-1.128-0.643
		c-1.047-2.069-2.238-4.42-3.707-7.321c0-0.354,0.019-1.334-0.003-2.313c-0.072-3.225,1.401-5.351,4.323-6.744
		c2.307-1.098,4.564-2.065,7.185-1.975c2.162,0.075,4.329,0.016,6.494,0.016c2.971,1.633,6.145,2.307,9.697,1.939
		c1.107,3.522-1.064,5.982-2.729,8.485C306.875,98.853,306.324,99.527,306.473,100.572z"/>
	<path fill-rule="evenodd" clip-rule="evenodd" fill="#492411" d="M265.477,133.568c0.667,0,1.333,0,2,0
		c1.308,1.505,3.235,0.841,4.818,1.369c1.493-0.188,2.991-0.337,4.44-0.782c0.69-0.085,1.37-0.068,2.037,0.156
		c1.163,0.421,2.569,0.088,3.624,1.268c0.58,1.671-0.474,2.445-1.921,2.989c-5.253,1.712-10.629,2.262-16.148,2.037
		c-4.474-0.183-8.96-0.037-13.348-0.037c-0.445-0.445-0.798-0.798-1.5-1.5c0-1.251,0-2.875,0-4.5
		C254.743,133.141,260.215,135.044,265.477,133.568z"/>
	<path fill-rule="evenodd" clip-rule="evenodd" fill="#E53760" d="M313.471,103.572c-0.15-0.758,0.496-1.915-1-2
		c-0.119-1.695,0.994-2.883,1.727-4.235c1.533-2.826,3.039-5.666,4.809-8.972c0.42,1.97,1.742,2.95,2.844,4.089
		c1.172,0.482,2.609-0.478,3.971,1.063C322.34,97.647,318.172,100.917,313.471,103.572z"/>
	<path fill-rule="evenodd" clip-rule="evenodd" fill="#492411" d="M287.474,134.568c7.25,0,14.499,0,22.646,0
		c-2.256,1.426-4.342,0.635-5.631,2c-3.926-0.73-7.568,1.407-11.509,1.063c-3.51-0.307-6.901,1.661-10.505,0.938
		c-0.238-2.082,1.44-2.271,2.771-2.774C286.052,135.489,287.361,136.13,287.474,134.568z"/>
	<path fill-rule="evenodd" clip-rule="evenodd" fill="#F6B84C" d="M287.474,134.568c-0.158,1.582,1.729,0.478,1.958,1.79
		c-2.255,0.681-5.382-0.733-6.958,2.21c0.072,0.938-0.57,1.055-1.241,0.98c-0.5-0.056-0.872-0.371-0.758-0.98
		c0.192-1.201,1.424-1.604,1.952-2.547c-0.958-1.458-3.311,0.871-3.952-1.453c1.848-1.249,4.161,0.301,6-1c0.333,0,0.667,0,1,0
		C286.195,133.792,286.877,134.095,287.474,134.568z"/>
	<path fill-rule="evenodd" clip-rule="evenodd" fill="#F6B84C" d="M276.475,134.568c0.111,0.568-0.322,1.056-0.677,0.956
		c-1.383-0.386-2.247,0.619-3.322,1.043c-1.143-1.492-0.078-2.248,1-3c0.953,0.073,0.998-0.578,0.999-1.258
		c0.002-2.895,0.001-5.789,0.325-8.689c1.083,1.604,0.544,3.362,0.652,5.037c0.105,1.63,0.023,3.272,0.023,4.91
		C275.816,133.894,276.399,133.977,276.475,134.568z"/>
	<path fill-rule="evenodd" clip-rule="evenodd" fill="#AB9995" d="M265.477,133.568c-0.007,1.341-1.03,0.983-1.75,0.987
		c-4.749,0.024-9.499,0.013-14.248,0.013c0.007-1.341,1.03-0.983,1.75-0.987C255.978,133.556,260.727,133.568,265.477,133.568z"/>
	<path fill-rule="evenodd" clip-rule="evenodd" fill="#AB9995" d="M287.474,134.568c-0.758-0.15-1.914,0.496-2-1
		c0-4,0-7.999,0-11.999c-0.025-0.692,0.308-1.025,1-1c0,3.644,0.123,7.295-0.065,10.931
		C286.341,132.806,287.297,133.496,287.474,134.568z"/>
	<path fill-rule="evenodd" clip-rule="evenodd" fill="#AB9995" d="M273.476,133.568c-0.144,1.063-1.489,1.726-1,3
		c-1.393-1.102-3.078-1.07-5-0.959c0-0.852,0-1.445,0-2.04C269.476,133.568,271.476,133.568,273.476,133.568z"/>
	<path fill-rule="evenodd" clip-rule="evenodd" fill="#AB9995" d="M276.475,134.568c-0.692,0.025-1.025-0.308-1-1c3,0,6,0,8.999,0
		c0.067,0.901-0.528,1.001-1.209,1c-1.597-0.001-3.194,0-4.791,0C277.809,134.568,277.142,134.568,276.475,134.568z"/>
	<path fill-rule="evenodd" clip-rule="evenodd" fill="#E93335" d="M265.103,84.3c1.464,0.896,2.525,1.643,3.909,1.285
		c0.946,0.993,0.257,2.205,0.516,3.504c-2.383,0.693-3.686,2.811-5.545,4.423c-2.863-2.052-0.916-5.041-1.569-7.408
		C263.309,85.377,264.504,85.596,265.103,84.3z"/>
	<path fill-rule="evenodd" clip-rule="evenodd" fill="#492411" d="M274.054,83.591c0.981,0,1.968,0,2.938,0
		c0.367,0.367,0.717,0.718,1.246,1.245c0.669,0.833,0.042,2.028,0.216,2.958c-1.059,0.896-2.042,1.726-3.266,2.759
		c-1.004-0.131-1.486-1.578-2.564-2.299C272.373,86.65,272.108,85.048,274.054,83.591z"/>
	<path fill-rule="evenodd" clip-rule="evenodd" fill="#492411" d="M260.483,85.086c-0.815,0.777-1.646,1.57-2.479,2.363
		c-1.069-1.068-3.396-0.918-2.957-3.785c0.397-0.519,0.323-2.15,1.776-2.833c1.31-0.617,2.434-0.297,3.54,1.231
		C260.799,82.783,260.34,83.946,260.483,85.086z"/>
</g>
<g>
	<path fill-rule="evenodd" clip-rule="evenodd" fill="#37B3BE" d="M448.029,105.458c-0.274-1.443-1.535-2.507-2.507-2.839
		c-2.232-0.763-3.082-2.684-4.548-3.694c0.306-2.47,2.339-2.472,3.534-3.36c5.62-4.175,11.563-7.867,17.872-10.922
		c2.48-1.201,5.093-2.129,7.645-3.182c9.469-5.058,19.225-4.55,28.862-0.915c5.348,2.018,6.47,5.604,4.097,10.856
		c-2.392,5.296-4.942,10.538-9.025,14.823c-9.024,9.475-19.871,11.389-31.893,7.255
		C456.952,111.721,451.689,109.905,448.029,105.458z"/>
	<path fill-rule="evenodd" clip-rule="evenodd" fill="#C7CB4D" d="M448.029,105.458c0.5,0,1.171-0.213,1.473,0.032
		c4.303,3.482,9.245,5.809,14.467,7.332c10.531,3.072,17.633,2.106,26.875-5.558c5.889-4.884,8.355-11.752,11.875-18.041
		c0.746-1.331,0.205-2.886,0.262-4.297c-3.43-3.861-8.057-4.925-12.793-5.401c-3.299-0.332-6.659-0.023-9.991-0.076
		c-2.588-0.042-4.933,0.938-7.294,1.729c-1.012,0.338-1.934,0.098-2.877,0.283c0.451-1.526,1.702-2.569,2.869-3.25
		c3.316-1.933,5.639-5.167,9.178-6.75c1.595-0.713,2.898-2.021,4.367-2.743c4.008-1.975,8.1-4.044,12.715-4.215
		c1.631-0.061,2.817-1.546,4.585-1.063c2.606,0.711,5.456,0.607,7.935,1.389c2.894,0.913,5.576,2.766,7.98,4.796
		c0.209,0.177,0.248,0.555,0.365,0.839c1.867,3.526,3.002,7.12,1,10.998c-1.348,3.082-1.188,6.471-1.879,9.695
		c-1.627,7.568-7.501,14.937-12.433,18.429c-4.962,3.512-10.374,4.798-16.072,6.002c-2.222,0.469-4.368,0.854-6.611,0.87
		c-0.667,0.594-1.333,0.594-2,0c-2.999,0-5.999,0-8.999,0c-0.666,0.594-1.333,0.594-2,0c-1.838,0.514-3.241-1.017-5.008-1.046
		c-1.527-0.025-3.295,0.729-4.545-0.933c-0.118-0.158-0.638-0.071-0.955-0.014c-2.283,0.415-4.348-0.54-6.49-1.008
		c-3.504,1.604-6.41,0.52-8.998-2C444.496,108.691,446.611,107.249,448.029,105.458z"/>
	<path fill-rule="evenodd" clip-rule="evenodd" fill="#37B3BE" d="M445.029,111.457c3.088,0.271,5.82,2.138,8.998,2
		c0.706,5.073-1.54,9.95-0.999,15.012c-1.671,2.16-0.362,4.826-1.095,7.019c-1.305,3.913-0.131,8.269-2.667,11.99
		c-7.595-2.732-15.214-5.977-22.263-10.556c1.859-1.156,2.834-3.202,3.762-4.899c3.498-6.4,7.972-12.199,11.254-18.71
		C442.66,112.041,443.5,111.222,445.029,111.457z"/>
	<path fill-rule="evenodd" clip-rule="evenodd" fill="#37B3BE" d="M521.02,81.46c0-0.979-0.194-2.01,0.049-2.925
		c0.314-1.188-1.283-2.221-0.654-2.813c1.328-1.251-0.719-1.426-0.452-2.339c0.263-0.903,0.058-1.941,0.058-2.921
		c3.4,1.513,6.801,3.025,10.869,4.837C527.153,77.631,524.086,79.546,521.02,81.46z"/>
	<path fill-rule="evenodd" clip-rule="evenodd" fill="#953877" d="M486.023,129.455c-1.589,0-3.178,0-4.898,0
		c1.555-2.724,0.654-5.416,0.899-7.999c0.333-0.35,0.667-0.35,1,0c0,1.76,0,3.521,0,5.28c0.651,1.181,1.507,2.005,2.999,1.719
		c0.329,0.223,0.438,0.444,0.329,0.667C486.244,129.343,486.135,129.455,486.023,129.455z"/>
	<path fill-rule="evenodd" clip-rule="evenodd" fill="#492411" d="M472.025,129.455c-0.485,0-0.972,0-1.546,0
		c1.032-3.633,0.356-7.334,0.546-10.998c0.891-0.224,1.387-0.054,1,0.999c0,3,0,6,0,8.999c0.252,0.223,0.336,0.444,0.252,0.667
		C472.194,129.343,472.11,129.455,472.025,129.455z"/>
	<path fill-rule="evenodd" clip-rule="evenodd" fill="#AB9995" d="M483.024,121.456c-0.333,0-0.667,0-1,0c0-1.667,0-3.332,0-4.999
		c0.667,0,1.333,0,2,0c0,1.269-0.001,2.535,0.001,3.804C484.026,120.942,483.912,121.52,483.024,121.456z"/>
	<path fill-rule="evenodd" clip-rule="evenodd" fill="#AB9995" d="M472.025,119.456c0.025-0.692-0.308-1.024-1-0.999
		c0-0.667,0-1.333,0-2c0.667,0,1.334,0,2,0C472.645,117.441,473.952,118.987,472.025,119.456z"/>
	<path fill-rule="evenodd" clip-rule="evenodd" fill="#953877" d="M472.025,129.455c0-0.333,0-0.667,0-1c0.666,0,1.334,0,2,0
		c0.352,0.223,0.467,0.444,0.352,0.667c-0.117,0.222-0.233,0.333-0.352,0.333c0.072,0.938-0.57,1.056-1.242,0.98
		C472.285,130.379,471.912,130.064,472.025,129.455z"/>
	<path fill-rule="evenodd" clip-rule="evenodd" fill="#AB9995" d="M474.025,129.455c0-0.333,0-0.667,0-1c1.277,0,2.555,0,4.816,0
		C476.732,129.894,475.301,129.233,474.025,129.455z"/>
	<path fill-rule="evenodd" clip-rule="evenodd" fill="#AB9995" d="M486.023,129.455c0-0.333,0-0.667,0-1
		c0.941,0.122,1.942-0.287,3.039,0.457C488.093,129.781,486.988,129.327,486.023,129.455z"/>
	<path fill-rule="evenodd" clip-rule="evenodd" fill="#492411" d="M505.842,80.866c0.432-2.303-1.48-3.035-0.502-5.166
		c0.479-0.33,1.548-1.068,3.242-2.238c0.26,0,1.576,0,2.846,0c1.709,0.748,1.285,2.874,2.472,3.449
		c0.452,1.517-1.46,1.746-0.848,3.019c-1.073,0.539-2.146,1.078-3.22,1.618C508.268,82.135,507.818,79.699,505.842,80.866z"/>
</g>
<g>
	<path fill-rule="evenodd" clip-rule="evenodd" fill="#4DD2CE" d="M130.987,94.922c0.185,7.807-3.601,13.912-9.275,18.507
		c-3.63,2.938-8.37,4.81-13.149,5.333c-2.092,0.229-3.934,1.564-6.05,1.142c-5.517-1.1-11.153-1.497-16.544-3.395
		c-3-1.055-5.678-2.552-8.142-4.384c-1.432-1.064-3.024-1.584-4.561-2.5c-0.065-0.182-0.085-0.559-0.284-0.748
		c-3.654-3.493-5.834-8.09-8.986-11.956c-0.002-1.67,0.834-1.664,2-1c0.93,1.805,3.296,1.438,4.457,2.966c1.285,0,2.595,0,3.971,0
		c0.946-0.458,1.329-1.778,2.571-1.966c2.234-0.641,3.239,1.218,4.562,2.32c6.25,5.205,16.057,4.481,22.065-1.923
		c-3.575-4.51-8.501-7.087-13.572-9.486c-1.758-0.832-3.901-1.021-5.056-2.91c-0.154-1.054,0.23-1.799,1.011-2.579
		c1.224-1.223,2.958-2.111,3.17-3.968c1.421-0.776,3.102-1.221,4.041-2.306c1.893-2.19,4.443-2.873,6.921-3.764
		c5.577-2.009,11.405-1.774,16.89-0.42c4.957,1.224,8.144,4.766,11.535,8.11c0.214,2.824,2.921,4.885,2.427,7.927
		C130.453,90.256,131.077,92.589,130.987,94.922z"/>
	<path fill-rule="evenodd" clip-rule="evenodd" fill="#492411" d="M88.993,127.918c3.333,0,6.666,0,9.999,0
		c0.321,0.21,0.477,0.511,0.491,0.889c-0.02,0.528-0.12,1.023-0.588,1.351c0.008-0.003-0.436,0.169-0.436,0.169
		s-0.475-0.021-0.466-0.021c0.009,0,0.154,0.437,0.154,0.437s0.267-0.374,0.282-0.375c0.353-0.013,0.69-0.015,1.037-0.004
		c0.876,0.338,1.781,0.571,2.629,0.943c0.816,0.658,0.81-0.761,2.043-0.262c-1.308-0.771-1.996-0.086-2.71-0.296
		c-1.015-0.321-1.932-0.698-1.425-2.054c1.027-0.32,2.042-0.498,2.989,0.224c0.666,0,1.333,0,2,0c0.667-0.575,1.333-0.575,2,0
		c1,0,2,0,3,0c0.333-0.343,0.667-0.343,1,0c0.666,0,1.333,0,2,0c9.333-0.803,18.664-0.803,27.997,0c0.167,0,0.438-0.065,0.484,0.01
		c1.143,1.836,0.53,3.876,0.429,5.777c-0.095,1.789,2.057,3.102,0.686,5.281c-3.024-0.603-6.265,0.866-9.398-0.991
		c-0.863-0.512-2.287-0.078-3.453-0.078c-12.996,0-25.998,0.214-38.986-0.086c-7.023-0.163-14.021-1.3-21.082-0.914
		c-5.931-2.062-12.067-0.423-18.276-1.153c-2.789-4.158-0.651-8.988-1.732-14.18c6.389,2.337,12.412,3.249,18.433,3.834
		c6.283,0.612,12.536,1.845,18.9,1.5c1.064,0.979,0.676,2.039,0.125,3.162c1.509-0.21,2.822,0.115,3.91,1.142
		c0.353,0.053,0.598,0.238,0.762,0.632c0.011-0.713-0.744-0.703-0.917-1.178c0.038-1.168,0.881-1.174,1.619-1.224
		c-1.314-0.22-3.156,0.899-3.948-1.269C88.508,128.696,88.658,128.274,88.993,127.918z"/>
	<path fill-rule="evenodd" clip-rule="evenodd" fill="#F6B84C" d="M84.993,84.923c8.313,2.091,15.266,6.419,21.342,12.887
		c-6.898,5.691-14.306,7.833-23.036,4.886c-2.107-1.636-3.634-4.325-6.305-5.775c0.006-0.806-0.182-1.454-0.626-2.23
		c-1.668-2.916-3.071-5.983-4.773-9.394C76.284,84.551,80.658,85.104,84.993,84.923z"/>
	<path fill-rule="evenodd" clip-rule="evenodd" fill="#F6B84C" d="M65.996,95.922c-0.758,0.15-1.914-0.496-2,1
		c-0.494,0-0.988,0-1.148,0c-2.991-3.054-5.818-5.941-8.815-9.002c0-0.271,0-0.92,0-1.628c1.38-0.881,2.909,0.044,5.055-0.855
		c0.344-0.229-0.169-2.099,1.526-2.286C62.633,87.137,64.693,91.368,65.996,95.922z"/>
	<path fill-rule="evenodd" clip-rule="evenodd" fill="#E3E354" d="M130.987,94.922c-0.156-1.255-1.515-1.576-2-2.754
		c0-0.795,0-1.768,0-2.72c0.307-1.001,2.164,0.08,2-1.525c1.718,0.553,2.981-2.178,4.831-0.668c-0.803,1.445-1.236,3.14-2.791,4.037
		c0.485,1.058,1.813,1.4,1.959,2.63c0.262,0.929,0.024,1.357-1,1C132.987,94.922,131.987,94.922,130.987,94.922z"/>
	<path fill-rule="evenodd" clip-rule="evenodd" fill="#AB9995" d="M140.986,128.918c-9.333,0-18.664,0-27.997,0
		c-0.114-0.63,0.275-0.981,0.789-0.982c8.807-0.024,17.613-0.024,26.419,0C140.711,127.937,141.1,128.288,140.986,128.918z"/>
	<path fill-rule="evenodd" clip-rule="evenodd" fill="#F6B84C" d="M88.993,128.918c-0.069,0.915,0.541,1,1.222,1
		c1.561,0,3.123,0,5.157,0c-1.497,1.628-3.117,0.445-4.234,1.35c0.123,0.214,0.217,0.463,0.387,0.636
		c0.079,0.08,0.307,0.014,0.468,0.014c0.255,0.223,0.34,0.444,0.255,0.667c-0.084,0.222-0.169,0.333-0.255,0.333
		c-2.187-0.708-4.378-1.393-6.744-0.933c-0.162-1.587,1.162-0.7,1.745-1.826c0-0.389,0-1.315,0-2.241c0.333,0,0.666,0,1,0
		C88.594,127.983,88.62,128.624,88.993,128.918z"/>
	<path fill-rule="evenodd" clip-rule="evenodd" fill="#AB9995" d="M102.991,128.918c-1,0-2,0-3,0c-0.333,0.405-0.666,0.405-1,0
		c0-0.333,0-0.667,0-1c0-2.273,0-4.546,0-6.819c1.416,2.003,0.745,4.189,1.088,6.497
		C100.532,128.776,102.808,126.819,102.991,128.918z"/>
	<path fill-rule="evenodd" clip-rule="evenodd" fill="#FBF45F" d="M88.993,128.918c-0.692,0.025-1.025-0.308-1-1
		c0-1.277,0-2.554,0-4.815c1.439,2.109,0.779,3.541,1,4.815C88.993,128.251,88.993,128.585,88.993,128.918z"/>
	<path fill-rule="evenodd" clip-rule="evenodd" fill="#FBF45F" d="M133.987,94.922c0.691,0.025,1.025-0.308,1-1
		c0.973,0.142,1.435,0.87,1.972,1.748C135.818,95.723,134.582,96.791,133.987,94.922z"/>
	<path fill-rule="evenodd" clip-rule="evenodd" fill="#AB9995" d="M106.991,128.918c-0.667,0-1.333,0-2,0
		c-0.072-0.938,0.571-1.056,1.242-0.98C106.732,127.993,107.104,128.309,106.991,128.918z"/>
	<path fill-rule="evenodd" clip-rule="evenodd" fill="#AB9995" d="M110.99,128.918c-0.333,0-0.667,0-1,0
		c-0.036-0.486,0.063-0.929,0.663-0.793C110.817,128.162,110.88,128.642,110.99,128.918z"/>
	<path fill-rule="evenodd" clip-rule="evenodd" fill="#492411" d="M126.199,86.046c-1.378,1.287-1.281,3.576-4.299,3.273
		c-0.386-0.206-1.832-0.36-2.771-2.043c0-0.513,0-1.454,0-2.716c-0.013,0.028,0.053-0.311,0.255-0.51
		c1.129-1.11,2.037-2.673,4.085-2.093C124.916,82.773,125.095,84.501,126.199,86.046z"/>
	<path fill-rule="evenodd" clip-rule="evenodd" fill="#C7CB4D" d="M101.991,129.918c1.622,0,3.244,0,5.409,0
		c-1.554,1.608-3.222,0.459-4.314,1.301c0.18,1.222,1.544,0.263,1.945,1.416c-1.15,0.078-2.315,1.131-3.04-0.717
		C101.402,131.25,101.408,130.585,101.991,129.918z"/>
	<path fill-rule="evenodd" clip-rule="evenodd" fill="#F6B84C" d="M101.991,129.918c0,0.667,0,1.333,0,2
		c-0.606-0.125-1.357,0.335-1.815-0.335c-0.573-0.836-1.391-0.664-2.185-0.665c-0.257-0.223-0.342-0.444-0.257-0.667
		c0.085-0.222,0.171-0.333,0.257-0.333c0.692,0.025,1.025-0.308,1-1c0.333,0,0.666,0,1,0
		C100.077,130.414,101.233,129.768,101.991,129.918z"/>
	<path fill-rule="evenodd" clip-rule="evenodd" fill="#C7CB4D" d="M91.992,132.917c0-0.333,0-0.667,0-1
		c1.39,0.239,1.161,1.009,0.642,1.886C92.104,133.715,91.929,133.4,91.992,132.917z"/>
	<path fill-rule="evenodd" clip-rule="evenodd" fill="#E93335" d="M96.987,130.923c0.085,0.479-0.135,0.782-0.592,0.885
		c-0.078,0.018-0.312-0.217-0.294-0.294C96.205,131.058,96.507,130.837,96.987,130.923z"/>
	<path fill-rule="evenodd" clip-rule="evenodd" fill="#E93335" d="M97.992,129.918c0,0.333,0,0.667,0,1c-0.333,0-0.667,0-1,0
		C96.966,130.226,97.3,129.893,97.992,129.918z"/>
</g>
<g>
	<path fill-rule="evenodd" clip-rule="evenodd" fill="#E93335" d="M149.875,443.39c0.077,0.987-1.963,1.757-2.551,1.955
		c-1.747,0.588-3.907,0.566-5.884,0c-1.848-0.529-2.749-2.634-3.655-5.131c-0.808-2.226,0.905-4.781,2.519-7.371
		c-3.276-0.895-6.575-1.063-7.181-5.141c-0.557-3.75,0.457-6.886,4.517-8.678c1.341-0.592,6.364,0.928,8.436,1.534
		c-2.846-3.614-0.683-6.396,0.948-8.812c1.579-2.337,4.929-2.005,7.361-1.33c5.87,1.629,5.063,5.397,3.611,10.6
		c1.159,1.164,1.662-0.161,2.429-0.614c2.795-1.656,6.119-0.866,8.793,0.845c2.544,1.628,3.032,5.253,0.654,8.404
		c-1.835,2.432-4.195,3.521-7.134,4.053c4.804,5.493,4.747,9.77-2.204,12.545c-3.045,1.216-5.729-0.302-7.659-2.859
		c-1.248-0.479-1.575-1.48-1.521-2.557C151.479,441.934,151.121,442.904,149.875,443.39z"/>
	<path fill-rule="evenodd" clip-rule="evenodd" fill="#41BD49" d="M163.873,451.389c0.162,1.043-0.499,1.719-0.934,2.58
		c-2.47,4.886-4.716,9.884-7.088,14.82c-0.27,0.56-0.856,0.968-1.351,1.504c-1.178-0.371-2.823,1.21-3.626-0.906
		c0.877-0.504,0.703-1.377,0.762-2.168c0.214-1.363,1.179-2.135,2.237-2.832c0.839-4.61,3.01-8.637,5.88-12.217
		c0.726-0.904,0.555-2.554,2.119-2.781C163.965,448.631,164.714,449.215,163.873,451.389z"/>
	<path fill-rule="evenodd" clip-rule="evenodd" fill="#8CCE47" d="M151.875,467.387c-0.153,0.785,0.69,0.92,0.897,1.541
		c-0.396,0.807-1.229,0.347-1.897,0.459c0-7.912,0.021-15.824-0.032-23.736c-0.005-0.796,0.688-2.093-0.968-2.261
		c0.445-0.941,0.892-1.884,1.459-3.081c0.557,1.112,1.049,2.097,1.541,3.081c-1.35,0.009-0.984,1.039-0.987,1.76
		c-0.022,6.412-0.013,12.825-0.013,19.237C152.599,465.387,152.556,466.387,151.875,467.387z"/>
	<path fill-rule="evenodd" clip-rule="evenodd" fill="#8CCE47" d="M163.873,451.389c0-0.584,0-1.167,0-2c-0.833,0-1.416,0-2,0
		c0.593-1.408,1.593-2.408,3-3c0.334-0.421,0.666-0.421,1,0C165.967,448.359,165.78,450.219,163.873,451.389z"/>
	<path fill-rule="evenodd" clip-rule="evenodd" fill="#E3E354" d="M151.875,467.387c0-1,0-2,0-3c0.666,0,1.333,0,1.999,0
		C152.845,465.145,153.572,467.074,151.875,467.387z"/>
	<path fill-rule="evenodd" clip-rule="evenodd" fill="#AB9995" d="M165.873,446.389c-0.334,0-0.666,0-1,0
		c-0.039-1.116,1.177-1.173,1.407-2.254C167.041,445.369,167.277,446.141,165.873,446.389z"/>
	<path fill-rule="evenodd" clip-rule="evenodd" fill="#FBF45F" d="M157.939,429.785c-0.587,2.426-1.811,4.218-3.62,5.586
		c-1.678,0-3.33,0-4.963,0c-1.074-1.074-2.13-2.129-3.333-3.332c0-1.287,0-2.737,0-4.296c0.947-0.946,2.002-2.002,3.204-3.204
		c1.62,0,3.401,0,5.267,0C156.106,425.935,157.508,427.623,157.939,429.785z"/>
</g>
<g>
	<path fill-rule="evenodd" clip-rule="evenodd" fill="#E93335" d="M343.155,438.088c-1.201,0.017-1.44,1.169-3.035,1.883
		c-0.87,0.39-1.662,0.602-2.556,0.059c-0.739-0.449-0.965-1.369-1.394-2.064c-1.26,0.758-1.59,2.196-2.479,3.271
		c-0.938,1.134-2.507,1.509-3.902,1.119c-2.669-0.745-5.06-4.735-2.573-6.885c-1.697-0.668-3.436-0.217-4.702-1.801
		c-0.937-1.172-2.053-2.988-1.407-4.509c0.683-1.61,2.091-3.358,3.658-2.942c1.339,0.355,1.565,1.461,2.746,0.901
		c0.675-0.371,0.802-1.351,0.692-2.035c-0.134-0.84-0.539-1.326-0.62-2.165c-0.083-0.855-0.083-2.772,1.678-3.567
		c2.201-0.994,3.641-0.861,5.021,0.565c0.84,0.868,1.727,2.944,2.283,4.172c0.592,0,1.09,0,1.59,0
		c1.813,0.848,2.02-2.439,3.869-1.505c1.982,0.676,2.719,2.758,4.355,3.876c1.715,0.456,3.455,1.05,5.01-0.479
		c0.504-0.466,1.066-0.816,1.764-0.893c0.982-0.021,1.029-0.41,2.365-1.179c1.592-0.915,4.014,0.684,4.627,2.706
		c0.436,1.437,0.584,3.397-1.027,5.266c1.549,0,3.116-0.567,4.396,0c1.228,0.544,2.104,1.592,2.594,2.862
		c0.268,0.693,0.507,1.84,0,2.947c-0.4,0.875-1.353,1.794-2.703,2.338c-0.702,0.283-1.875,0.1-3.068,0.163
		c1.141,1.84,1.601,3.928,0.734,5.447c-1.488,2.612-4.238,2.779-6.213,1.47c-1.704-1.13-1.582-2.524-2.16-4.612
		c-0.786,1.72-0.948,2.313-1.874,2.979c-2.324,1.675-3.993-0.037-5.669-1.391c-2.061-0.95-1.338-2.827-1.471-4.412
		c0.127-0.723,0.445-1.413,0.428-2.171C343.503,437.219,343.534,437.99,343.155,438.088
		C341.954,438.104,343.534,437.99,343.155,438.088C341.954,438.104,343.534,437.99,343.155,438.088z"/>
	<path fill-rule="evenodd" clip-rule="evenodd" fill="#E53760" d="M342.489,423.09c-0.488,0-0.977,0-1.525,0
		c-0.895,1.309-0.377,1.2-2.475,1c-0.174-0.638,0.439-0.815,0.904-1.581c-1.439-0.953-3.916-2.02-3.81-3.801
		c0.094-1.566,1.007-4.354,3.776-3.736c0.432-1.79-1.313-2.026-1.721-3.294c-0.376-1.167-0.6-2.787,0-4.235
		c0.381-0.92,1.449-1.612,1.998-1.999c2.534-1.786,4.242,0.567,5.455,1.644c0.574,0.006,1.03-0.183,1.249-0.735
		c0.281-0.715,0.365-2.029,0.982-2.562c1.01-0.87,2.677-1.62,4.792-0.641c0.813,0.376,1.739,1.402,2.301,3.244
		c0.25,0.819,0.559,2.742-0.816,4.554c3.014-0.307,5.733,1.473,5.879,3.677c0.143,2.165-0.619,3.975-2.121,5.202
		c-1.083,0.886-2.598,0.092-3.871,0.264c-0.64,0.009-0.366,0.634,0,1c0.942,0.942,0.68,2.66,0,4
		c-0.313,0.617-3.237,2.743-6.246,1.736C344.958,426.098,344.778,423.316,342.489,423.09
		C342.001,423.09,344.778,423.316,342.489,423.09C342.001,423.09,344.778,423.316,342.489,423.09z"/>
	<path fill-rule="evenodd" clip-rule="evenodd" fill="#41BD49" d="M344.155,474.084c-0.498,0-0.994,0-1.492,0
		c-2.279-3.67-3.938-7.676-6.092-11.43c-1.838-3.199-3.625-6.765-4.414-10.568c-0.373-1.038,0.074-1.258,1-1
		c3.559,1.885,5.031,5.507,6.914,8.686c1.035,1.752,1.654,3.766,3.084,5.313c0.877-0.089,1.455,0.422,2,1c0,2.332,0,4.666,0,6.999
		C344.778,473.374,344.763,474.024,344.155,474.084z"/>
	<path fill-rule="evenodd" clip-rule="evenodd" fill="#C7CB4D" d="M345.155,466.085c-0.758-0.15-1.914,0.496-2-1
		c0-8.666,0-17.331,0-25.997c0.334-0.345,0.666-0.345,1,0c0.025,1.729-0.314,3.529,1,4.999
		C345.155,451.419,345.155,458.753,345.155,466.085z"/>
	<path fill-rule="evenodd" clip-rule="evenodd" fill="#8CCE47" d="M344.155,439.088c-0.334,0-0.666,0-1,0c0-0.333,0-0.667,0-1
		c0-1.246,0-2.49,0-3.943C345.618,436.354,345.667,436.657,344.155,439.088z"/>
	<path fill-rule="evenodd" clip-rule="evenodd" fill="#3FBFA3" d="M333.157,451.086c-0.693-0.025-1.025,0.308-1,1
		c-1.869-0.596-0.803-1.831-0.75-2.972C332.286,449.652,333.015,450.114,333.157,451.086z"/>
	<path fill-rule="evenodd" clip-rule="evenodd" fill="#F552A7" d="M353.153,421.09c-1.389-0.238-1.16-1.009-0.641-1.885
		c0.529,0.088,0.705,0.403,0.641,0.885C353.153,420.423,353.153,420.757,353.153,421.09z"/>
	<path fill-rule="evenodd" clip-rule="evenodd" fill="#C7CB4D" d="M344.155,474.084c-0.025-0.692,0.309-1.025,1-1
		c-0.117,0.604,0.285,1.3-0.316,1.823C344.204,474.966,344.12,474.574,344.155,474.084z"/>
	<path fill-rule="evenodd" clip-rule="evenodd" fill="#FBF45F" d="M336.196,428.119c1.641,1.054,1.723,2.874,0.787,4.708
		c-0.799,1.14-2.202,2.052-3.807,2.312c-1.372,0.222-2.314-1.278-2.926-2.422c-0.521-0.975-0.181-2.229,0-3.085
		c0.353-1.671,1.975-1.772,3.189-2.331C334.411,426.854,334.918,427.298,336.196,428.119z"/>
	<path fill-rule="evenodd" clip-rule="evenodd" fill="#FBF45F" d="M355.454,440.075c-1.24,0.316-3.477,0.832-4.094-1.433
		c-0.313-1.15-0.349-2.797,0-4.158c0.512-1.998,2.723-2.097,4.34-1.409c0.976,0.415,2.316,1.4,2.494,2.788
		C358.378,437.3,357.66,439.513,355.454,440.075z"/>
	<path fill-rule="evenodd" clip-rule="evenodd" fill="#FEFEFE" d="M342.155,423.09c-0.271-0.578,0.26-0.935,0.787-1
		c2.398-0.296,2.608,2.724,3.355,4c1.241,2.121,3.608,1.034,5.855,0c0.901-0.415,0.247,1.861-0.691,2.284
		c-1.692,0.762-1.604-0.972-2.805-0.361c-0.795,0.404-2.017,0.412-2.961,0.077C343.7,427.381,343.025,424.945,342.155,423.09z"/>
	<path fill-rule="evenodd" clip-rule="evenodd" fill="#FEFEFE" d="M343.075,430.949c0.704,0.586,0.812,1.828,0,2.285
		c-0.946,0.533-2.306-1.101-1.777-1.957C341.545,430.877,342.393,430.381,343.075,430.949z"/>
	<path fill-rule="evenodd" clip-rule="evenodd" fill="#FBF45F" d="M344.624,412.076c0.924-0.67,1.508-1.123,2.594-0.985
		c1.16,0.147,1.271,0.221,2.803,1.017c1.658,0.861,0.283,3.35,0,4.455c-0.55,2.145-2.795,2.229-4.412,1.542
		c-0.976-0.415-2.348-1.384-2.549-2.85C342.91,414.166,343.634,412.794,344.624,412.076z"/>
</g>
<g>
	<path fill-rule="evenodd" clip-rule="evenodd" fill="#FBF45F" d="M259.526,413.394c0,0.667,0,1.333,0,1.999
		c2.143,5.225,0.281,10.065-5,12.999c-1.775,2.04-4.209,2.645-6.721,3.086c-0.506,0.063-1.014,0.061-1.521,0.016
		c-2.518-0.452-4.973-1.046-6.756-3.102c-2.588-1.369-3.658-3.897-4.852-6.343c-0.176-0.497-0.283-1.005-0.352-1.526
		c-0.133-2.148-0.396-4.324,1.203-6.129c0-0.333,0-0.667,0-1c0.178-2.771,1.383-4.856,4-5.999c0.334,0,0.666,0,1,0
		C246.661,401.311,256.729,404.49,259.526,413.394z"/>
	<path fill-rule="evenodd" clip-rule="evenodd" fill="#41BD49" d="M249.528,453.389c2.055-2.325,3.195-5.318,5.742-7.329
		c2.268-1.791,9.967-4.729,11.537-4.785c3.793-0.137,7.172,0.922,10.646,2.474c0.377,2.727-0.555,5.225-1.971,7.479
		c-1.428,2.273-2.949,4.582-4.863,6.425c-1.752,1.688-4.039,3.193-6.463,3.476c-2.689,0.313-5.17,1.893-7.988,1.271
		c-0.432-0.095-7.1-1.762-7.641-2.011C246.571,457.728,247.241,455.442,249.528,453.389z"/>
	<path fill-rule="evenodd" clip-rule="evenodd" fill="#41BD49" d="M244.528,461.388c-2.604-0.258-4.896,1.232-7.584,1.094
		c-5.338-0.276-9.82-2.053-13.637-5.779c-2.313-2.26-5.092-4.43-5.674-8.694c-0.058-0.421-0.058-1.878,0-2.302
		c0.512-3.752,1.33-2.904,3.221-4.14c5.167-3.375,18.605,1.081,22.809,9.386c0.309,0.608,0.854,1.472,1.865,1.437
		C247.442,455.638,247.86,458.721,244.528,461.388z"/>
	<path fill-rule="evenodd" clip-rule="evenodd" fill="#37B3BE" d="M259.526,413.394c-0.731-2.435-3.189-5.876-5.719-7.378
		c-4.771-2.328-9.337-2.373-14.279,2.379c0.072-2.798-2.945-5.198-0.945-8.555c0.971-1.63,3.303-1.903,5.504-1.329
		c1.598,1.101,2.736,3.718,2.699,5.849c2.426,0.259,1.111-2.529,1.832-3.65c0.448-0.696,0.55-2.225,1.49-2.883
		c1.725-1.207,5.141,0.123,6.418,1.857c1.084,1.473,0.144,5.116-1,6.711c1.436-0.454,4.297-2.551,6.324-1.956
		c2.082,0.61,3.796,2.841,3.547,4.62c-0.266,1.897-2.698,3.727-4.314,4.335C260.184,413.731,259.763,414.183,259.526,413.394z"/>
	<path fill-rule="evenodd" clip-rule="evenodd" fill="#37B3BE" d="M254.526,428.392c0.734-1.885,2.678-2.704,3.748-4.484
		c1.078-2.604,1.529-7.509,1.252-10.515c0.872,1.532,2.528-0.642,6.537,1.04c0.613,0.257,1.167,0.785,1.436,1.434
		c0.622,1.501,0.797,3.458,0,5.124c-0.216,0.452-0.724,1.048-1.748,1.409c-1.58,0.558-3.789,0-6.002,0
		c1.158,1.858,4.057,1.455,4.693,3.442c0.362,1.131,0.771,2.674,0,4.211c-0.356,0.711-1.292,1.668-2.988,2.231
		c-0.17,0.057-1.182,0.295-2.389,0C257.269,431.846,256.583,429.182,254.526,428.392z"/>
	<path fill-rule="evenodd" clip-rule="evenodd" fill="#8CCE47" d="M244.528,461.388c0.172-1.071,1.219-1.74,1.061-3.062
		c-0.234-1.954-0.061-3.955-0.061-5.938c0-4.418,0.012-8.834-0.014-13.252c-0.004-0.719,0.352-1.739-0.986-1.746
		c-0.297-2.608,0.564-4.887,2-6.999c0.332,0,0.666,0,1,0c1.506,2.165,2.363,4.423,1,6.999c0,4.749-0.012,9.498,0.012,14.248
		c0.004,0.721-0.354,1.742,0.988,1.75c0.479,1.409-1.193,2.174-1.029,3.542c0.137,1.138,0.029,2.304,0.029,3.457
		c0,3.246,0,6.492,0,9.585c-0.967,0.69-1.781,0.322-3,0.394c0-2.585,0.002-5.153-0.002-7.721
		C245.526,461.968,245.483,461.313,244.528,461.388z"/>
	<path fill-rule="evenodd" clip-rule="evenodd" fill="#37B3BE" d="M248.528,437.391c0.479-1.41-1.193-2.175-1.029-3.543
		c0.137-1.138,0.029-2.304,0.029-3.456c2.332-0.667,4.666-1.333,6.998-2c-0.508,1.291,0.572,2.143,1.072,3
		c0.865,1.482,1.039,2.944,0.889,4.539c-0.24,0.24-0.438,0.532-0.711,0.696C252.747,438.452,252.743,438.447,248.528,437.391z"/>
	<path fill-rule="evenodd" clip-rule="evenodd" fill="#37B3BE" d="M235.528,422.393c1.66,1.782,3.113,3.702,4,5.999
		c-2.248,1.094-3.447,3.813-6.287,4.001c-2.741,0.181-4.866-3.018-3.643-6.451c0.607-1.703,2.787-2.108,3.932-3.549
		c0.143-0.136,0.287-0.271,0.432-0.408C234.571,421.781,235.112,421.851,235.528,422.393z"/>
	<path fill-rule="evenodd" clip-rule="evenodd" fill="#37B3BE" d="M235.528,414.394c0,2.332,0,4.666,0,6.999
		c-0.508,0.648-1.25,0.642-1.998,1c-1.725,0.826-3.941,0.528-5.482-1.441c-1.408-1.697-2.246-3.81,0.352-6.573
		c1.074-0.627,2.945-1.75,5.168-0.03C233.983,414.67,234.862,414.394,235.528,414.394z"/>
	<path fill-rule="evenodd" clip-rule="evenodd" fill="#37B3BE" d="M246.528,430.392c0,1.467,0,2.935-0.002,4.402
		c-0.543,0.961-1.793,1.376-1.998,2.597c-0.822-0.141-0.992,0.729-1.813,1.106c-1.918-0.924-4.115-1.719-5.156-3.827
		c-0.352-2.579,2.277-3.942,1.969-6.278C241.862,429.059,244.194,429.725,246.528,430.392z"/>
	<path fill-rule="evenodd" clip-rule="evenodd" fill="#37B3BE" d="M239.528,408.395c-0.85,2.269-2.246,3.279-4,4.999
		c-3.188-0.167-5.846-1.891-5.998-4.884c-0.125-2.464,1.766-4.741,5.23-4.866C236.461,403.582,240.159,406.711,239.528,408.395z"/>
</g>
<g>
	<path fill-rule="evenodd" clip-rule="evenodd" fill="#41BD49" d="M441.506,468.084c-3.215-0.112-6.379,0.1-9.609-0.886
		c-3.512-1.07-6.758-2.423-9.512-4.78c-3.064-2.622-5.758-5.578-6.902-9.726c0.4-0.435,0.725-1.042,1.328-1.44
		c1.532-1.011,2.942-1.504,5.656-1.47c2.088,0.026,3.137,1.448,4.865,1.256c1.715-0.191,3.193,0.456,4.561,1.104
		c3.836,1.821,7.512,3.963,10.613,6.943C444.42,462.335,444.838,465.418,441.506,468.084z"/>
	<path fill-rule="evenodd" clip-rule="evenodd" fill="#FBF45F" d="M450.504,434.089c-1.496,0.085-0.85,1.242-1,1.999
		c-1.229,1.381-2.988,1.423-4.602,1.835c-0.477,0.066-0.955,0.07-1.434,0.034c-1.625-0.293-3.238-0.641-4.799-1.209
		c-0.648-0.311-1.182-0.766-1.635-1.316c-0.703-1.377-0.614-2.566-1.529-4.343c-0.35-0.679-0.568,0.255-1-1
		c-0.826-2.402-1.566-3.999,0-5.999c1.752-5.806,3.941-7.266,9-5.999c0.666,0,1.332,0,2,0c1.361-1.197,2.602-0.331,3.865,0.218
		c0.6,0.338,1.135,0.766,1.633,1.238c1.422,1.188,2.098,2.791,2.5,4.543c0,0.333,0,0.667,0,1c1.324,1.667,1.934,4.108,0,4.999
		c-0.629,0.289-1.161,0.326-1,1C453.037,433.322,452.748,434.141,450.504,434.089z"/>
	<path fill-rule="evenodd" clip-rule="evenodd" fill="#953877" d="M444.287,418.091c-1.884,0.759-4.711,0.048-6.428,1
		c-1.841,1.021-1.525,5.068-3.572,4.999c-2.142-0.072-3.314-1.986-4.992-2.918c-0.748-0.415-1.517-0.728-1.943-1.464
		c-0.652-1.125-0.541-2.716,0-4.086c0.415-1.051,1.44-2.042,2.324-2.487c2.773-1.399,6.887,5.365,7.611,4.956
		c0.664-0.375-2.904-6.942-1.408-9.237c0.945-1.449,3.027-2.322,4.764-1.823c2.452,0.705,2.875,1.476,3.52,3.47
		C444.694,412.147,446.375,417.25,444.287,418.091z"/>
	<path fill-rule="evenodd" clip-rule="evenodd" fill="#8CCE47" d="M443.506,437.088c0.332,0,0.666,0,1,0
		c1.742,2.844,2.646,5.78,1,8.999c0,9.552,0,19.104,0,28.507c-0.852,0.831-1.723,0.314-2.881,0.58
		c-0.041-1.98-0.082-3.898-0.119-5.816c-0.014-0.679-0.029-1.35-1-1.273c0.172-1.071,1.219-1.739,1.061-3.061
		c-0.234-1.954-0.061-3.956-0.061-5.938c0-4.333,0-8.666,0-12.999C441.201,442.906,441.73,439.928,443.506,437.088z"/>
	<path fill-rule="evenodd" clip-rule="evenodd" fill="#953877" d="M445.506,446.087c-0.096-3.025-1.68-5.887-1-8.999
		c1.471-1.314,3.433-1.729,4.998-1c2.926,1.36,5.66,5.154,4.002,8.498c-0.516,1.039-1.391,2.016-2.477,2.47
		C449.283,447.786,447.168,447.469,445.506,446.087z"/>
	<path fill-rule="evenodd" clip-rule="evenodd" fill="#953877" d="M453.504,424.09c-1.652,0.216-2-2.667-3-4
		c-0.121-0.143-0.242-0.286-0.365-0.43c0.01-0.188,0.02-0.375,0.027-0.563c0.115-0.358,1.538-1.94,1.917-2.342
		c0.154-0.098,2.427-1.991,3.792-2.523c1.181-0.461,2.776-0.475,4.328,0c1.382,0.423,2.185,2.217,2.303,3.749
		c0.105,1.371-0.287,1.581-1.002,2.531c-1.646,2.187-4.704,3.93-7.66,3.772C453.746,424.28,453.804,424.051,453.504,424.09z"/>
	<path fill-rule="evenodd" clip-rule="evenodd" fill="#953877" d="M443.506,437.088c0,1.651-0.184,3.33,0.053,4.947
		c0.23,1.581-0.549,2.514-1.053,4.052c-0.854,2.606-4.409,1.245-6.551-0.179c-0.901-0.6-1.08-0.627-1.566-2.365
		c-0.598-2.135,1.98-3.416,2.117-5.455c0.014-0.202,1.119-1.874,2-2C440.234,436.114,442.035,435.773,443.506,437.088z"/>
	<path fill-rule="evenodd" clip-rule="evenodd" fill="#953877" d="M435.506,431.089c0.582,0.786,0.828,1.336,1.381,1.822
		c0.74,0.65,0.447,1.42,0.619,2.178c0.32,1.41-0.059,2.509-1,2.999c-2.226,1.159-2.885,2.439-4.715,3.01
		c-2.747,0.856-4.104-1.752-5.25-3.409c-1.794-2.592,1.457-4.737,3.377-5.618C431.818,431.198,434.287,429.442,435.506,431.089z"/>
	<path fill-rule="evenodd" clip-rule="evenodd" fill="#953877" d="M449.504,419.091c-0.729-0.313-3.607-0.521-3.998-1
		c-0.831-1.02-0.296-2.897-0.36-4.209c-0.104-2.088-0.35-4.669,1.745-5.696c1.519-0.745,3.556-0.578,5.203,0
		c3.777,1.326,1.614,5.546,0.41,7.905c-0.371,0.726-0.418,1.458-1,2c-0.342,0.324-0.676,0.657-1,1
		C450.172,419.44,449.948,419.281,449.504,419.091z"/>
	<path fill-rule="evenodd" clip-rule="evenodd" fill="#953877" d="M453.504,431.089c-0.857-1.431-1.23-4.875,0-5.999
		c1.329-1.214,3.211-0.536,5.082-1c2.561-0.635,4.236-1.312,5.756,0.266c1.283,1.332,1.189,4.301,0,5.395
		c-0.354,0.325-0.752,0.886-1.088,1.089C460.121,432.731,453.938,431.813,453.504,431.089z"/>
	<path fill-rule="evenodd" clip-rule="evenodd" fill="#953877" d="M434.506,424.09c1.414,1.414,1.444,4.615,0,5.999
		c-2.093,2.004-5.771,2.439-8.854,0.715c-1.095-0.612-2.37-2.147-2.193-3.746c0.156-1.413,0.59-3.374,2.662-3.934
		c1.773-0.479,2.691-0.562,5.316,0.095C432.153,423.397,434.036,423.62,434.506,424.09z"/>
	<path fill-rule="evenodd" clip-rule="evenodd" fill="#953877" d="M450.504,434.089c0.774-1.432,0.856-1.938,2-3
		c2.564-2.383,7.794,1.014,9,4.583c0.296,0.874,0.395,1.992,0,2.927c-0.442,1.047-1.38,1.993-2.525,2.458
		c-0.829,0.336-1.951,0.395-2.941,0C453.306,439.968,448.995,436.881,450.504,434.089z"/>
</g>
</svg>
