<?xml version="1.0" encoding="UTF-8" standalone="no"?>
<!-- Created with Inkscape (http://www.inkscape.org/) -->

<svg
   xmlns:dc="http://purl.org/dc/elements/1.1/"
   xmlns:cc="http://creativecommons.org/ns#"
   xmlns:rdf="http://www.w3.org/1999/02/22-rdf-syntax-ns#"
   xmlns:svg="http://www.w3.org/2000/svg"
   xmlns="http://www.w3.org/2000/svg"
   xmlns:inkscape="http://www.inkscape.org/namespaces/inkscape"
   version="1.1"
   width="143"
   height="59"
   id="svg21664">
  <defs
     id="defs21666" />
  <metadata
     id="metadata21669">
    <rdf:RDF>
      <cc:Work
         rdf:about="">
        <dc:format>image/svg+xml</dc:format>
        <dc:type
           rdf:resource="http://purl.org/dc/dcmitype/StillImage" />
        <dc:title />
      </cc:Work>
    </rdf:RDF>
  </metadata>
  <g
     id="g3880">
    <g
       id="g3866">
      <path
         d="m 20.158894,23.392289 c -1.9e-5,0.437518 -0.246055,0.656267 -0.738107,0.656251 -2.044009,1.6e-5 -3.652705,-0.05466 -4.826093,-0.164063 0.05676,1.367203 0.113541,3.27215 0.170333,5.714844 0.01891,1.039072 0.104077,2.843759 0.255499,5.414062 0.132466,2.315109 0.198706,4.119794 0.198721,5.414063 -1.5e-5,0.382812 -0.264976,0.601562 -0.794885,0.65625 -0.643493,0.07292 -2.252189,0.109375 -4.8260926,0.109375 -2.1386284,0 -3.5296771,-0.05469 -4.1731503,-0.164063 C 4.7816358,40.919634 4.4598966,40.545936 4.4599007,39.907914 l 0,-15.066405 C 4.4598966,24.31288 4.08138,24.048556 3.3243497,24.04854 3.1918658,24.048556 2.9742187,24.05764 2.6714078,24.07588 2.3875179,24.09413 2.1793337,24.10324 2.0468547,24.10322 1.5169296,24.103241 1.242505,23.957408 1.2235801,23.665724 1.0532467,22.079809 0.96808049,19.773822 0.96808117,16.747759 0.96808049,16.073304 1.3276713,15.663148 2.0468547,15.517289 2.6903313,15.462628 3.3432724,15.417055 4.0056803,15.380571 3.9110474,13.922265 3.8637329,12.782943 3.8637364,11.962602 3.8637329,8.8272178 4.4977482,6.5485742 5.7657845,5.1266648 8.2829147,2.3011827 12.351969,0.88842364 17.972959,0.8883835 c 0.378498,4.014e-5 0.605609,0.10941508 0.68133,0.328125 0.151389,0.8203515 0.369035,2.0325898 0.652942,3.6367187 0.01891,0.1458694 0.141925,0.6562856 0.369054,1.53125 0.170313,0.6745132 0.25548,1.1940439 0.255499,1.5585938 -1.9e-5,0.4375327 -0.671886,0.7200844 -2.015603,0.8476563 -1.551936,0.1640945 -2.507691,0.4375317 -2.867266,0.8203124 -0.624567,0.6562813 -0.936844,1.9414363 -0.93683,3.8554683 -1.4e-5,0.60159 0.0473,1.166693 0.141943,1.695313 0.52991,2.6e-5 1.353184,-0.01821 2.469824,-0.05468 1.116608,-0.03643 1.958807,-0.05467 2.526601,-0.05468 0.567757,2.6e-5 0.851644,0.200546 0.851663,0.601562 -1.9e-5,0.856796 0.0095,2.151065 0.02839,3.882813 0.01891,1.713561 0.02837,2.998717 0.02839,3.855468"
         inkscape:connector-curvature="0"
         id="path8546"
         style="font-size:57.06007385px;font-style:normal;font-variant:normal;font-weight:bold;font-stretch:normal;text-align:start;line-height:100%;letter-spacing:0px;word-spacing:0px;writing-mode:lr-tb;text-anchor:start;fill:#3d8e8e;fill-opacity:1;stroke:none;font-family:Berlin Sans FB Demi;-inkscape-font-specification:Berlin Sans FB Demi Bold" />
      <path
         d="m 42.07503,23.993852 c -2.1e-5,0.710954 -0.406927,1.066423 -1.220718,1.066406 -0.359611,1.7e-5 -0.889534,-0.01822 -1.589771,-0.05469 -0.681349,-0.05467 -1.192347,-0.08202 -1.532994,-0.08203 -1.570861,1.6e-5 -2.640171,0.236995 -3.207932,0.710937 -0.567788,0.473974 -0.851676,1.431003 -0.851663,2.871093 -1.3e-5,0.783867 0.0095,1.977876 0.02839,3.582032 0.03784,1.585945 0.05676,2.770839 0.05678,3.554687 -1.3e-5,0.528651 0.03784,1.321619 0.113555,2.378907 0.07569,1.039064 0.113542,1.813803 0.113555,2.324218 -1.3e-5,0.437501 -0.31229,0.683594 -0.936829,0.738282 -0.908453,0.07292 -2.299501,0.109374 -4.173151,0.109374 -1.797962,0 -3.236325,-0.05468 -4.315094,-0.164062 -0.624556,-0.07292 -0.936832,-0.373697 -0.936829,-0.902344 -3e-6,-1.458331 0.0095,-3.636714 0.02839,-6.535156 0.01892,-2.916656 0.02839,-5.104154 0.02839,-6.562499 -3e-6,-4.283837 -0.406908,-7.811177 -1.220717,-10.582032 -0.03785,-0.164037 -0.05677,-0.300756 -0.05677,-0.410156 -1e-6,-0.273413 0.141942,-0.455704 0.425832,-0.546875 1.040918,-0.109349 2.564448,-0.30987 4.570592,-0.601563 2.990275,-0.565077 4.532732,-0.847629 4.627372,-0.847656 0.340654,2.7e-5 0.5583,0.574245 0.652941,1.722657 0.09462,1.14846 0.264951,1.72268 0.510999,1.722656 -0.264975,2.4e-5 0.510985,-0.473934 2.32788,-1.421875 1.816865,-0.96612 3.567503,-1.449193 5.251923,-1.449219 1.059827,2.6e-5 1.58975,0.218776 1.589771,0.65625 -2.1e-5,0.528671 -0.0568,1.276066 -0.170332,2.242187 -0.113576,1.039086 -0.179817,1.786481 -0.198721,2.242188 -2.2e-5,0.528666 0.0095,1.230489 0.02839,2.105469 0.03783,1.075539 0.05675,1.786475 0.05677,2.132812"
         inkscape:connector-curvature="0"
         id="path8548"
         style="font-size:57.06007385px;font-style:normal;font-variant:normal;font-weight:bold;font-stretch:normal;text-align:start;line-height:100%;letter-spacing:0px;word-spacing:0px;writing-mode:lr-tb;text-anchor:start;fill:#3d8e8e;fill-opacity:1;stroke:none;font-family:Berlin Sans FB Demi;-inkscape-font-specification:Berlin Sans FB Demi Bold" />
      <path
         d="m 74.608569,16.17354 c -3.1e-5,1.348982 -0.06627,3.372417 -0.198722,6.070312 -0.132512,2.697933 -0.198752,4.721368 -0.198721,6.070313 -3.1e-5,1.312511 0.04729,3.281259 0.141944,5.906249 0.0946,2.625005 0.141913,4.584638 0.141943,5.878907 -3e-5,0.492188 -0.236603,0.802084 -0.709719,0.929687 -0.719212,0.182291 -2.242741,0.273437 -4.570592,0.273438 -2.062942,-1e-6 -3.501306,-0.05469 -4.315095,-0.164062 -0.359612,-0.05468 -0.586722,-0.273438 -0.68133,-0.65625 -0.05679,-0.546874 -0.113577,-1.093749 -0.170333,-1.640626 -0.09465,-0.838538 -0.227131,-1.257808 -0.397443,-1.257812 0.264941,4e-6 -0.690813,0.619794 -2.867266,1.859375 -2.176489,1.239584 -4.154238,1.859374 -5.933255,1.859375 -5.015358,-1e-6 -7.986713,-2.178383 -8.914076,-6.535156 -0.416371,-2.02343 -0.624555,-4.958323 -0.624553,-8.804688 -2e-6,-4.15623 0.350126,-7.437478 1.050385,-9.84375 0.208181,-0.74737 0.59616,-1.121067 1.163939,-1.121094 0.870584,2.7e-5 2.195393,0.0091 3.974429,0.02734 1.77902,0.01825 3.103829,0.02737 3.974429,0.02734 0.586688,2.6e-5 0.880039,0.237005 0.880053,0.710938 -1.4e-5,0.127629 -0.01894,0.319035 -0.05677,0.574218 -0.397456,2.479189 -0.596177,4.994812 -0.596165,7.546875 -1.2e-5,3.171889 0.10408,5.341158 0.312277,6.507812 0.340652,2.005218 1.580294,3.007821 3.71893,3.007814 0.832719,7e-6 1.731697,-0.355461 2.696934,-1.066407 0.984123,-0.710929 1.495121,-1.449209 1.532993,-2.214844 0.03783,-0.674467 0.05676,-5.249984 0.05677,-13.726562 -2.1e-5,-0.601537 0.0473,-0.957006 0.141944,-1.066406 0.113533,-0.182266 0.454198,-0.273412 1.021996,-0.273438 0.927343,2.6e-5 2.318393,0.0091 4.173151,0.02734 1.87363,0.01825 3.274141,0.02737 4.201538,0.02734 0.567745,2.5e-5 0.898947,0.136744 0.993607,0.410155 0.03782,0.145859 0.05675,0.364609 0.05678,0.656251"
         inkscape:connector-curvature="0"
         id="path8550"
         style="font-size:57.06007385px;font-style:normal;font-variant:normal;font-weight:bold;font-stretch:normal;text-align:start;line-height:100%;letter-spacing:0px;word-spacing:0px;writing-mode:lr-tb;text-anchor:start;fill:#3d8e8e;fill-opacity:1;stroke:none;font-family:Berlin Sans FB Demi;-inkscape-font-specification:Berlin Sans FB Demi Bold" />
      <path
         d="m 141.03831,27.357133 c -3e-5,1.403658 0.0852,3.490896 0.2555,6.261719 0.1703,2.770838 0.25547,4.848961 0.2555,6.234375 -3e-5,0.729168 -0.33123,1.121093 -0.99361,1.175781 -2.34684,0.164063 -5.0343,0.246094 -8.06241,0.246094 -0.35961,0 -0.60565,-0.519531 -0.7381,-1.558593 -0.11358,-1.05729 -0.25553,-1.59505 -0.42585,-1.613282 -0.15142,0.07292 -0.35014,0.227867 -0.59615,0.464844 -2.11972,2.059896 -4.39081,3.089843 -6.81331,3.089844 -3.69055,-1e-6 -6.74708,-1.403645 -9.16957,-4.210938 -2.29004,-2.624993 -3.43505,-5.760407 -3.43505,-9.40625 0,-4.21092 1.18286,-7.601542 3.5486,-10.171874 2.46035,-2.661433 5.82915,-3.992161 10.1064,-3.992189 2.97135,2.8e-5 5.31815,1.002631 7.04042,3.007814 0.0757,0.09117 0.14192,0.136742 0.19872,0.136718 0.17031,2.4e-5 0.35958,-0.437476 0.56777,-1.3125 0.22709,-0.893203 0.49205,-1.339817 0.79489,-1.339844 0.70024,2.7e-5 2.03451,0.191433 4.00282,0.574219 1.87363,0.364609 3.21737,0.674505 4.03121,0.929687 0.28385,0.1094 0.4258,0.255234 0.42583,0.437501 -3e-5,0.07294 -0.0284,0.264346 -0.0852,0.574219 -0.60566,3.299499 -0.90848,6.790381 -0.90845,10.472655 m -9.14119,0.164063 c -2e-5,-1.549464 -0.51101,-2.825505 -1.53299,-3.828125 -1.00309,-1.020815 -2.31843,-1.531231 -3.94604,-1.53125 -1.62764,1.9e-5 -2.94298,0.50132 -3.94604,1.503906 -1.00308,1.002621 -1.50461,2.287776 -1.5046,3.855469 -1e-5,1.476574 0.5299,2.743501 1.58976,3.800781 1.05984,1.057301 2.34679,1.585946 3.86088,1.585938 1.60868,8e-6 2.92403,-0.501294 3.94604,-1.503907 1.02198,-1.020822 1.53297,-2.315092 1.53299,-3.882812"
         inkscape:connector-curvature="0"
         id="path8554"
         style="font-size:57.06007385px;font-style:normal;font-variant:normal;font-weight:bold;font-stretch:normal;text-align:start;line-height:100%;letter-spacing:0px;word-spacing:0px;writing-mode:lr-tb;text-anchor:start;fill:#3d8e8e;fill-opacity:1;stroke:none;font-family:Berlin Sans FB Demi;-inkscape-font-specification:Berlin Sans FB Demi Bold" />
      <g
         id="g3857">
        <g
           id="g4478">
          <path
             d="m 84.660726,7.5864079 c -8e-6,0.6679721 -0.02432,1.0625029 -0.07292,1.1835937 -0.101653,0.2773463 -0.406584,0.7480493 -0.914799,1.4121094 -0.441937,0.570313 -0.819788,1.015625 -1.133554,1.335938 -0.114907,0.121093 -0.461823,0.18164 -1.040749,0.18164 -0.503804,0 -0.830833,-0.01563 -0.981087,-0.04688 -0.09281,-0.01953 -0.170146,-0.05859 -0.232013,-0.117187 C 80.020438,11.281719 79.642587,10.840313 79.152045,10.211406 78.626146,9.5356272 78.312375,9.0727367 78.210731,8.8227341 78.100248,8.5532059 78.045006,8.1489095 78.045007,7.6098435 c -10e-7,-0.1523395 0.0022,-0.3808549 0.0066,-0.6855469 0.0045,-0.3085886 0.0066,-0.5410102 0.0066,-0.6972656 0,-0.1015569 0.07734,-0.152338 0.232014,-0.1523437 0.225383,5.7e-6 0.563462,0.00587 1.014232,0.017578 0.455187,0.011725 0.795475,0.017584 1.020861,0.017578 0.101643,5.6e-6 0.152465,0.060552 0.152467,0.1816407 -2e-6,0.1093802 -0.0088,0.2753957 -0.02652,0.4980468 -0.01768,0.2187547 -0.02652,0.3847702 -0.02652,0.4980469 -3e-6,0.4062539 0.01325,0.7382848 0.03977,0.9960937 0.01325,0.1328157 0.141415,0.3828155 0.384481,0.75 0.251897,0.3867207 0.435298,0.58008 0.550204,0.5800782 0.110479,1.8e-6 0.287252,-0.1894511 0.530317,-0.5683595 0.23422,-0.3554658 0.36017,-0.597653 0.377852,-0.7265625 0.03535,-0.2773401 0.05302,-0.6132772 0.05303,-1.0078124 -5e-6,-0.1132768 -0.01326,-0.2831985 -0.03977,-0.5097656 -0.02652,-0.2304637 -0.03978,-0.4003854 -0.03977,-0.5097656 -4e-6,-0.1210882 0.0464,-0.1816351 0.139209,-0.1816407 0.106056,5.6e-6 0.262944,0.00196 0.470657,0.00586 0.212122,0.00391 0.371217,0.00587 0.477286,0.00586 0.106056,5.4e-6 0.265153,-0.0078 0.477285,-0.023437 0.216541,-0.01562 0.377846,-0.023432 0.483916,-0.023437 0.110476,5.6e-6 0.183394,0.050787 0.218756,0.1523437 0.07513,0.2226615 0.112685,0.675786 0.112692,1.359375"
             inkscape:connector-curvature="0"
             id="path8705"
             style="font-size:12.76376057px;font-style:normal;font-variant:normal;font-weight:bold;font-stretch:normal;text-align:start;line-height:100%;letter-spacing:0px;word-spacing:0px;writing-mode:lr-tb;text-anchor:start;fill:#9cd2d2;fill-opacity:1;stroke:none;font-family:Berlin Sans FB Demi;-inkscape-font-specification:Berlin Sans FB Demi Bold" />
          <path
             d="m 88.200596,4.6098456 c -3e-6,0.6796938 -0.433095,1.0195371 -1.299278,1.0195311 -0.371225,6e-6 -0.678366,-0.085932 -0.921427,-0.2578125 -0.265159,-0.1874935 -0.397739,-0.4413994 -0.397739,-0.7617186 0,-0.3046802 0.136999,-0.55468 0.410996,-0.7500001 0.251901,-0.1796794 0.554623,-0.2695231 0.90817,-0.2695312 0.344704,8.1e-6 0.643007,0.091805 0.894911,0.2753906 0.269575,0.1953201 0.404364,0.4433667 0.404367,0.7441407 M 88.028243,8.963361 c -3e-6,0.2851586 0.0066,0.7109391 0.01989,1.277343 0.01325,0.562502 0.01988,0.984376 0.01989,1.265625 -3e-6,0.08203 -0.05524,0.13086 -0.165724,0.146485 -0.150259,0.02344 -0.488336,0.03515 -1.014233,0.03515 -0.530319,0 -0.870606,-0.01172 -1.020862,-0.03515 -0.09723,-0.01563 -0.156886,-0.04102 -0.178982,-0.07617 -0.0088,-0.01563 -0.01325,-0.07422 -0.01325,-0.175781 -10e-7,-0.269531 0.0066,-0.673827 0.01989,-1.21289 0.01325,-0.5429672 0.01989,-0.9511702 0.01989,-1.22461 0,-1.1093712 -0.04861,-1.9921827 -0.145837,-2.6484374 -0.0088,-0.062495 -0.01326,-0.1035101 -0.01326,-0.1230469 0,-0.07812 0.05966,-0.1171818 0.178982,-0.1171875 0.123741,5.7e-6 0.311562,0.011725 0.563463,0.035156 0.256319,0.023443 0.448559,0.035162 0.576721,0.035156 0.128158,5.5e-6 0.320398,-0.00976 0.57672,-0.029296 0.256317,-0.019525 0.448558,-0.029292 0.576721,-0.029297 0.106056,5.6e-6 0.159092,0.039068 0.159095,0.1171875 -3e-6,0.01563 -0.0045,0.052739 -0.01325,0.1113281 -0.09723,0.7617233 -0.145841,1.6445349 -0.145838,2.6484375"
             inkscape:connector-curvature="0"
             id="path8707"
             style="font-size:12.76376057px;font-style:normal;font-variant:normal;font-weight:bold;font-stretch:normal;text-align:start;line-height:100%;letter-spacing:0px;word-spacing:0px;writing-mode:lr-tb;text-anchor:start;fill:#9cd2d2;fill-opacity:1;stroke:none;font-family:Berlin Sans FB Demi;-inkscape-font-specification:Berlin Sans FB Demi Bold" />
          <path
             d="m 95.691334,7.5864079 c -7e-6,0.6679721 -0.02432,1.0625029 -0.07292,1.1835937 -0.101653,0.2773463 -0.406584,0.7480493 -0.914798,1.4121094 -0.441937,0.570313 -0.819788,1.015625 -1.133554,1.335938 -0.114907,0.121093 -0.461823,0.18164 -1.040749,0.18164 -0.503805,0 -0.830833,-0.01563 -0.981087,-0.04688 -0.0928,-0.01953 -0.170147,-0.05859 -0.232015,-0.117187 C 91.051047,11.281719 90.673197,10.840313 90.182654,10.211406 89.656755,9.5356272 89.342984,9.0727367 89.241341,8.8227341 89.130858,8.5532059 89.075616,8.1489095 89.075616,7.6098435 c 0,-0.1523395 0.0022,-0.3808549 0.0066,-0.6855469 0.0045,-0.3085886 0.0066,-0.5410102 0.0066,-0.6972656 0,-0.1015569 0.07734,-0.152338 0.232015,-0.1523437 0.225383,5.7e-6 0.563461,0.00587 1.014232,0.017578 0.455187,0.011725 0.795474,0.017584 1.020861,0.017578 0.101642,5.6e-6 0.152464,0.060552 0.152466,0.1816407 -2e-6,0.1093802 -0.0088,0.2753957 -0.02652,0.4980468 -0.01768,0.2187547 -0.02652,0.3847702 -0.02652,0.4980469 -3e-6,0.4062539 0.01325,0.7382848 0.03977,0.9960937 0.01325,0.1328157 0.141415,0.3828155 0.384479,0.75 0.251899,0.3867207 0.4353,0.58008 0.550206,0.5800782 0.110479,1.8e-6 0.287251,-0.1894511 0.530317,-0.5683595 0.234219,-0.3554658 0.36017,-0.597653 0.377851,-0.7265625 0.03536,-0.2773401 0.05303,-0.6132772 0.05303,-1.0078124 -4e-6,-0.1132768 -0.01326,-0.2831985 -0.03977,-0.5097656 -0.02652,-0.2304637 -0.03978,-0.4003854 -0.03977,-0.5097656 -4e-6,-0.1210882 0.0464,-0.1816351 0.139209,-0.1816407 0.106056,5.6e-6 0.262944,0.00196 0.470656,0.00586 0.212122,0.00391 0.371217,0.00587 0.477286,0.00586 0.106056,5.4e-6 0.265153,-0.0078 0.477286,-0.023437 0.216541,-0.01562 0.377845,-0.023432 0.483915,-0.023437 0.110476,5.6e-6 0.183395,0.050787 0.218757,0.1523437 0.07512,0.2226615 0.112685,0.675786 0.112692,1.359375"
             inkscape:connector-curvature="0"
             id="path8709"
             style="font-size:12.76376057px;font-style:normal;font-variant:normal;font-weight:bold;font-stretch:normal;text-align:start;line-height:100%;letter-spacing:0px;word-spacing:0px;writing-mode:lr-tb;text-anchor:start;fill:#9cd2d2;fill-opacity:1;stroke:none;font-family:Berlin Sans FB Demi;-inkscape-font-specification:Berlin Sans FB Demi Bold" />
          <path
             d="m 102.67827,8.4711734 c -1e-5,0.3945341 -0.14363,0.6191433 -0.43088,0.6738282 -0.0486,0.00781 -0.50602,0.050784 -1.3722,0.1289062 -0.52148,0.050784 -1.299283,0.1113304 -2.333398,0.1816402 0.06187,0.2539085 0.249688,0.4472678 0.563462,0.580079 0.256317,0.109376 0.547991,0.164064 0.875024,0.164062 0.393312,2e-6 0.788842,-0.09374 1.186582,-0.2812495 0.16793,-0.093744 0.33587,-0.1874984 0.50381,-0.2812504 0.0928,0.039064 0.24747,0.2382831 0.46402,0.5976559 0.22096,0.359376 0.33145,0.587892 0.33145,0.685547 0,0.02735 -0.0331,0.07227 -0.0994,0.134766 -0.53916,0.511719 -1.37662,0.767578 -2.512378,0.767578 -1.051799,0 -1.900307,-0.271485 -2.545525,-0.814454 -0.662898,-0.550779 -0.994346,-1.2871063 -0.994346,-2.2089835 0,-0.8984337 0.296094,-1.6347611 0.888282,-2.2089843 0.609865,-0.5937443 1.418598,-0.890619 2.426204,-0.890625 0.848503,6e-6 1.568853,0.2734432 2.161043,0.8203125 0.59218,0.5468796 0.88828,1.1972695 0.88828,1.9511717 m -2.32014,-0.3574218 c 0,-0.2421837 -0.0972,-0.4550741 -0.29167,-0.6386718 -0.194459,-0.1835893 -0.426472,-0.2753862 -0.696047,-0.2753906 -0.27842,4.4e-6 -0.508224,0.10352 -0.689413,0.3105468 -0.167936,0.1914103 -0.251904,0.4160194 -0.251901,0.6738281 -3e-6,0.1054722 0.06187,0.1582065 0.185611,0.1582031 0.327027,3.4e-6 0.835247,-0.044918 1.52466,-0.1347656 0.14584,-0.019528 0.21876,-0.050778 0.21876,-0.09375"
             inkscape:connector-curvature="0"
             id="path8711"
             style="font-size:12.76376057px;font-style:normal;font-variant:normal;font-weight:bold;font-stretch:normal;text-align:start;line-height:100%;letter-spacing:0px;word-spacing:0px;writing-mode:lr-tb;text-anchor:start;fill:#9cd2d2;fill-opacity:1;stroke:none;font-family:Berlin Sans FB Demi;-inkscape-font-specification:Berlin Sans FB Demi Bold" />
          <path
             d="m 107.81572,8.0024236 c 0,0.1523472 -0.095,0.228519 -0.28505,0.2285155 -0.0839,3.5e-6 -0.20771,-0.0039 -0.37121,-0.011719 -0.1591,-0.011715 -0.27842,-0.017575 -0.35797,-0.017578 -0.36681,3.4e-6 -0.6165,0.050785 -0.74907,0.1523437 -0.13259,0.1015658 -0.19888,0.3066436 -0.19887,0.6152344 -1e-5,0.1679713 0.002,0.4238304 0.007,0.7675784 0.009,0.3398444 0.0132,0.5937514 0.0133,0.7617184 0,0.113282 0.009,0.283203 0.0265,0.509765 0.0177,0.222657 0.0265,0.388673 0.0265,0.498047 0,0.09375 -0.0729,0.146485 -0.21876,0.158203 -0.21213,0.01563 -0.53695,0.02344 -0.97446,0.02344 -0.41983,0 -0.7557,-0.01172 -1.0076,-0.03515 -0.14584,-0.01563 -0.21876,-0.08007 -0.21876,-0.193359 0,-0.312499 0.002,-0.779297 0.007,-1.400391 0.004,-0.6249968 0.007,-1.0937466 0.007,-1.4062494 0,-0.9179648 -0.095,-1.6738233 -0.28504,-2.267578 -0.009,-0.035151 -0.0133,-0.064448 -0.0133,-0.087891 0,-0.058588 0.0332,-0.097651 0.0994,-0.1171875 0.24307,-0.023432 0.59882,-0.066401 1.06727,-0.1289062 0.69825,-0.1210881 1.05842,-0.1816348 1.08052,-0.1816407 0.0795,5.9e-6 0.13037,0.1230526 0.15247,0.3691407 0.0221,0.2460989 0.0619,0.3691456 0.11932,0.3691406 -0.0619,5e-6 0.11932,-0.1015574 0.54357,-0.3046875 0.42426,-0.2070257 0.83304,-0.3105412 1.22637,-0.3105469 0.24747,5.7e-6 0.37121,0.04688 0.37122,0.1406251 -1e-5,0.1132865 -0.0133,0.2734426 -0.0398,0.4804687 -0.0265,0.222661 -0.042,0.3828171 -0.0464,0.4804687 -1e-5,0.1132856 0.002,0.2636762 0.006,0.4511719 0.008,0.2304725 0.0133,0.3828162 0.0133,0.4570312"
             inkscape:connector-curvature="0"
             id="path8713"
             style="font-size:12.76376057px;font-style:normal;font-variant:normal;font-weight:bold;font-stretch:normal;text-align:start;line-height:100%;letter-spacing:0px;word-spacing:0px;writing-mode:lr-tb;text-anchor:start;fill:#9cd2d2;fill-opacity:1;stroke:none;font-family:Berlin Sans FB Demi;-inkscape-font-specification:Berlin Sans FB Demi Bold" />
        </g>
        <path
           d="m 95.758071,25.511522 c 0.55229,0.05124 0.89956,0.387109 0.96875,0.96875 0.0619,0.527017 -0.407078,0.98645 -0.96875,1 -0.61219,0.01355 -0.97802,-0.249388 -1.03125,-0.875 -0.0489,-0.58615 0.392862,-1.07508 1.03125,-1.09375 z m 0.9375,-5.84375 c -1.033634,-0.0025 -1.72141,1.465845 -1.9375,1.96875 -0.167114,0.389007 -0.471685,0.32572 -0.84375,0.1875 -1.203408,-0.252586 -1.909138,-0.169552 -2.78125,0.15625 -0.775654,0.289769 -1.439603,0.894376 -1.96875,1.53125 -0.36427,0.438428 -0.566325,0.972061 -0.78125,1.5 -0.10992,0.270005 -0.19819,0.564272 -0.28125,0.84375 -0.895448,-0.40188 -1.001351,1.52227 -1.125,1.5 -0.200628,0.02105 -0.0905,-1.49368 -0.53125,-1.53125 -0.548489,-0.0468 -0.619583,2.5113 0.46875,2.59375 0.964256,0.07315 1.12021,-1.5695 1.1875,-1.5625 0.06727,0.0074 0.01019,0.693679 0.09375,1.0625 0.330903,1.462316 0.607792,1.795973 1.5625,2.71875 0.607749,0.587388 0.368906,1.225763 0.21875,1.75 -0.179821,0.586104 0.133466,0.97854 0.40625,1.03125 0.42199,0.08149 1.295227,0.120324 1.78125,0 0.2729,-0.03357 0.438912,-0.522549 0.28125,-0.96875 -0.191221,-0.542367 -0.02786,-1.34318 0.5625,-1.3125 0.26706,0.01362 1.116172,-0.01503 1.53125,0.03125 0.450207,0.05042 0.584514,0.728648 0.46875,1.21875 -0.206708,0.58587 -0.07796,1.00183 0.34375,1.0625 0.380686,0.07873 1.22117,0.07559 1.78125,-0.03125 0.338362,-0.0867 0.61725,-0.510318 0.4375,-1 -0.27801,-0.605542 -0.23901,-1.360883 0,-1.59375 0.177375,-0.173149 0.460949,-0.41827 0.625,-0.5 1.22621,-0.868479 1.39011,-1.291266 1.6875,-3 0.09382,-0.538372 -0.363074,-0.437289 -0.9375,-0.4375 -0.683373,-5.84e-4 -0.77991,0.0088 -0.84375,-0.625 -0.102938,-1.025226 -0.392845,-1.830667 -1,-2.65625 -0.237152,-0.257212 -0.10836,-0.502289 -0.09375,-0.84375 0.02379,-0.556362 -0.01427,-1.130834 0,-1.6875 0.0069,-0.269267 -0.03817,-1.47057 -0.3125,-1.40625 z m 10.929149,14.251861 c -4e-5,5.195315 -1.13558,8.923175 -3.40665,11.183594 -2.34684,2.315098 -6.245556,3.472649 -11.696181,3.472657 -1.589786,-8e-6 -3.756794,-0.246102 -6.50103,-0.738282 -3.501289,-0.619798 -5.251927,-1.348964 -5.251924,-2.1875 -3e-6,-0.346358 0.406902,-2.132815 1.220717,-5.359375 0.132477,-0.510415 0.34066,-0.765623 0.624554,-0.765625 0.09463,0.01824 0.198715,0.05469 0.312276,0.109376 2.914573,1.385416 5.611504,2.078124 8.090802,2.078124 1.362645,0 2.715842,-0.328125 4.059595,-0.984375 1.627604,-0.783853 2.441414,-1.768227 2.441434,-2.953125 l 0,-1.832031 c -1.930455,1.750003 -4.409739,2.625002 -7.437859,2.625 -3.558069,2e-6 -6.482111,-1.230465 -8.772132,-3.691407 -2.214327,-2.369783 -3.321488,-5.286447 -3.321487,-8.749999 -10e-7,-3.481753 1.059845,-6.371073 3.179544,-8.667969 2.214318,-2.387995 5.10997,-3.582004 8.686965,-3.582032 2.857787,2.8e-5 5.043721,0.984402 6.557807,2.953126 0.302795,0.401065 0.510978,0.601586 0.624553,0.601562 0.170312,2.4e-5 0.255479,-0.328101 0.255499,-0.984375 -2e-5,-1.458307 0.170312,-2.187473 0.510998,-2.187499 0.302793,2.6e-5 1.939878,0.154974 4.911259,0.464843 2.97132,0.291692 4.51378,0.455755 4.62737,0.492187 0.32171,0.109401 0.48258,0.34638 0.48261,0.710938 -3e-5,1.257836 -0.0474,3.135439 -0.14194,5.632813 -0.0757,2.497412 -0.11359,4.375014 -0.11356,5.632812 -3e-5,0.747409 0.009,1.868502 0.0284,3.363282 0.019,1.4948 0.0283,2.615892 0.0284,3.36328"
           inkscape:connector-curvature="0"
           id="path8533"
           style="fill:#9cd2d2;fill-opacity:1" />
      </g>
    </g>
    <g
       id="g3840">
      <path
         d="m 10.829842,45.245118 c -10e-6,-0.128893 -0.0238,0.06446 -0.07137,0.580079 -0.06544,0.650401 -0.115997,1.482432 -0.151676,2.496094 -0.0476,1.148445 -0.07138,2.455085 -0.07137,3.919921 -10e-6,2.419925 0.06839,4.142579 0.205211,5.167969 0.01189,0.111328 0.01783,0.18164 0.01784,0.210937 -10e-6,0.06445 -0.04462,0.10254 -0.133832,0.114258 -0.214142,0.0293 -1.0022667,0.04395 -2.3643768,0.04395 -0.3212058,0 -0.5055973,-0.06153 -0.553175,-0.184571 -0.011903,-0.222656 -0.023799,-0.445312 -0.035688,-0.667969 -0.00595,-0.04688 -0.029748,-0.09375 -0.071377,-0.140625 -0.035695,0.01758 -0.080306,0.05273 -0.1338326,0.105469 -0.642403,0.621094 -1.4453982,0.93164 -2.4089879,0.931641 -1.2550562,-10e-7 -2.2602871,-0.433594 -3.015696,-1.300781 -0.7197296,-0.826173 -1.07959036,-1.869141 -1.07959001,-3.12891 -3.5e-7,-1.277338 0.35391241,-2.329094 1.06173911,-3.155273 0.7494607,-0.878898 1.7606399,-1.31835 3.0335403,-1.318359 0.8981606,9e-6 1.5970637,0.281258 2.0967118,0.843749 0.083267,0.09376 0.1427481,0.140633 0.1784434,0.140625 0.053526,8e-6 0.080293,-0.07616 0.080299,-0.228515 -6.9e-6,-0.451163 -0.011903,-1.12499 -0.035688,-2.021484 -0.023799,-0.896474 -0.035695,-1.567371 -0.035688,-2.012695 -6.7e-6,-0.169911 0.047578,-0.26659 0.1427549,-0.290039 0.3806724,-0.01757 0.9041062,-0.05272 1.5703032,-0.10547 1.1896146,-0.146472 1.7160226,-0.219713 1.5792256,-0.219726 0.130849,1.3e-5 0.196278,0.07326 0.196288,0.219726 M 7.4661813,53.322267 C 7.4661745,52.859381 7.3026014,52.455085 6.9754616,52.109376 6.6483091,51.757819 6.2527596,51.582039 5.788812,51.582033 c -0.4877504,6e-6 -0.8773517,0.175786 -1.1688053,0.527343 -0.2855133,0.345709 -0.4282681,0.761723 -0.4282644,1.248047 -3.7e-6,0.474614 0.1457251,0.87598 0.4371866,1.204101 0.2974016,0.351566 0.6840289,0.527347 1.1598831,0.527345 0.4758438,2e-6 0.8743673,-0.175779 1.1955717,-0.527345 0.3211918,-0.351558 0.4817908,-0.764644 0.4817976,-1.239257"
         inkscape:connector-curvature="0"
         id="path4486"
         style="font-size:18.1357975px;font-style:normal;font-variant:normal;font-weight:bold;font-stretch:normal;text-align:start;line-height:100%;letter-spacing:0px;word-spacing:0px;writing-mode:lr-tb;text-anchor:start;fill:#cc9d3e;fill-opacity:1;stroke:none;font-family:Berlin Sans FB Demi;-inkscape-font-specification:Berlin Sans FB Demi Bold" />
      <path
         d="m 20.323039,52.944337 c -9e-6,0.591801 -0.193323,0.928715 -0.579941,1.010742 -0.06544,0.01172 -0.681068,0.07618 -1.846892,0.19336 -0.701883,0.07617 -1.748751,0.166995 -3.140606,0.27246 0.08327,0.380863 0.336066,0.670902 0.758385,0.870118 0.344987,0.164065 0.737562,0.246096 1.177727,0.246093 0.529377,3e-6 1.061733,-0.140622 1.59707,-0.421874 0.226021,-0.140623 0.45205,-0.281247 0.678086,-0.421875 0.124903,0.0586 0.333086,0.357424 0.624552,0.896484 0.297398,0.539064 0.4461,0.881837 0.446109,1.02832 -9e-6,0.04102 -0.04462,0.108399 -0.133833,0.202148 -0.725678,0.767578 -1.852845,1.151368 -3.381505,1.151368 -1.415655,0 -2.557693,-0.407227 -3.426116,-1.22168 -0.892219,-0.82617 -1.338327,-1.930661 -1.338326,-3.313476 -1e-6,-1.347651 0.398523,-2.452142 1.195571,-3.313476 0.820838,-0.890617 1.909343,-1.33593 3.265518,-1.335939 1.142032,9e-6 2.111575,0.410166 2.908629,1.230469 0.797039,0.82032 1.195563,1.795904 1.195572,2.926758 m -3.122763,-0.536132 c -5e-6,-0.363277 -0.130863,-0.682612 -0.392575,-0.958009 -0.261723,-0.275383 -0.573998,-0.413078 -0.936829,-0.413085 -0.374735,7e-6 -0.684037,0.155279 -0.927906,0.46582 -0.226032,0.287115 -0.339046,0.624029 -0.339043,1.010742 -3e-6,0.158208 0.08327,0.23731 0.249821,0.237305 0.440157,5e-6 1.12419,-0.06738 2.052101,-0.202148 0.196282,-0.02929 0.294426,-0.07617 0.294431,-0.140625"
         inkscape:connector-curvature="0"
         id="path4488"
         style="font-size:18.1357975px;font-style:normal;font-variant:normal;font-weight:bold;font-stretch:normal;text-align:start;line-height:100%;letter-spacing:0px;word-spacing:0px;writing-mode:lr-tb;text-anchor:start;fill:#cc9d3e;fill-opacity:1;stroke:none;font-family:Berlin Sans FB Demi;-inkscape-font-specification:Berlin Sans FB Demi Bold" />
      <path
         d="m 24.569994,52.425782 c -4e-6,1.599613 0.0059,2.827151 0.01784,3.682617 -4e-6,0.134767 0.009,0.366212 0.02677,0.694337 0.01784,0.298828 0.02676,0.530273 0.02677,0.694335 -4e-6,0.123047 -0.07436,0.19629 -0.223055,0.219727 -0.267668,0.04688 -0.749466,0.07031 -1.445392,0.07031 -0.713777,0 -1.168807,-0.02343 -1.365094,-0.07031 -0.130859,-0.0293 -0.20521,-0.108398 -0.223054,-0.237305 -1e-6,-0.01758 -1e-6,-0.143554 0,-0.37793 -1e-6,-0.521482 0.0059,-1.300779 0.01784,-2.33789 0.0119,-1.042964 0.01784,-1.822261 0.01784,-2.337891 -1e-6,-2.460929 0.003,-3.582999 0.009,-3.36621 -0.01784,-1.294912 -0.0922,-2.411122 -0.223056,-3.348633 -0.0119,-0.06444 -0.01784,-0.114246 -0.01784,-0.149414 -10e-7,-0.128894 0.07732,-0.193347 0.231976,-0.19336 l 3.185217,0 c 0.148699,1.3e-5 0.217103,0.06154 0.205211,0.184571 l -0.009,0.158203 c -0.154655,2.531259 -0.23198,4.769538 -0.231976,6.714843"
         inkscape:connector-curvature="0"
         id="path4490"
         style="font-size:18.1357975px;font-style:normal;font-variant:normal;font-weight:bold;font-stretch:normal;text-align:start;line-height:100%;letter-spacing:0px;word-spacing:0px;writing-mode:lr-tb;text-anchor:start;fill:#cc9d3e;fill-opacity:1;stroke:none;font-family:Berlin Sans FB Demi;-inkscape-font-specification:Berlin Sans FB Demi Bold" />
      <path
         d="m 29.744858,47.152346 c -4e-6,1.01954 -0.58292,1.529305 -1.748747,1.529296 -0.499644,9e-6 -0.913038,-0.128897 -1.240183,-0.386718 -0.356888,-0.281241 -0.535331,-0.6621 -0.53533,-1.142578 -10e-7,-0.457021 0.184391,-0.83202 0.553175,-1.125001 0.339041,-0.269519 0.746486,-0.404285 1.222338,-0.404297 0.463951,1.2e-5 0.865448,0.137707 1.204494,0.413087 0.36283,0.292979 0.544249,0.665049 0.544253,1.116211 m -0.231977,6.530272 c -4e-6,0.427738 0.009,1.06641 0.02677,1.916016 0.01784,0.843751 0.02676,1.476563 0.02677,1.898437 -4e-6,0.123047 -0.07436,0.19629 -0.223054,0.219727 -0.20224,0.03516 -0.657271,0.05273 -1.365093,0.05273 -0.713777,0 -1.171781,-0.01758 -1.374015,-0.05273 -0.13086,-0.02343 -0.211159,-0.06153 -0.240899,-0.114258 -0.0119,-0.02343 -0.01784,-0.111327 -0.01784,-0.263672 -1e-6,-0.404296 0.009,-1.010741 0.02677,-1.819335 0.01784,-0.814451 0.02676,-1.426754 0.02677,-1.836915 -10e-7,-1.664057 -0.06543,-2.988273 -0.196288,-3.972656 -0.0119,-0.09374 -0.01784,-0.155265 -0.01784,-0.18457 -1e-6,-0.117179 0.0803,-0.175773 0.240899,-0.175781 0.166546,8e-6 0.41934,0.01759 0.758385,0.05273 0.344988,0.03516 0.603732,0.05274 0.776229,0.05273 0.172493,9e-6 0.431235,-0.01464 0.77623,-0.04395 0.344987,-0.02929 0.603729,-0.04394 0.776229,-0.04395 0.142751,8e-6 0.214128,0.0586 0.214132,0.175781 -4e-6,0.02344 -0.0059,0.07911 -0.01784,0.166992 -0.130863,1.142585 -0.196292,2.466803 -0.196288,3.972656"
         inkscape:connector-curvature="0"
         id="path4492"
         style="font-size:18.1357975px;font-style:normal;font-variant:normal;font-weight:bold;font-stretch:normal;text-align:start;line-height:100%;letter-spacing:0px;word-spacing:0px;writing-mode:lr-tb;text-anchor:start;fill:#cc9d3e;fill-opacity:1;stroke:none;font-family:Berlin Sans FB Demi;-inkscape-font-specification:Berlin Sans FB Demi Bold" />
      <path
         d="m 40.915424,53.418946 c -1e-5,1.230472 -0.356897,2.258791 -1.070662,3.084961 -0.761367,0.878906 -1.754702,1.318359 -2.980007,1.31836 -0.892223,-10e-7 -1.611945,-0.251953 -2.159167,-0.755859 -0.04164,-0.03516 -0.07733,-0.05273 -0.107066,-0.05273 -0.05949,0 -0.115992,0.108399 -0.169521,0.325195 -0.04759,0.216797 -0.10707,0.336914 -0.178443,0.360351 -0.101123,0.0293 -0.948728,0.04395 -2.542822,0.04395 -0.374731,0 -0.562097,-0.06738 -0.562096,-0.202148 -1e-6,-0.01758 0.0059,-0.06153 0.01784,-0.131836 0.118961,-0.93164 0.178442,-2.707029 0.178443,-5.326172 -1e-6,-2.501944 -0.08922,-4.6787 -0.267665,-6.530273 l -0.009,-0.09668 c -1e-6,-0.09374 0.09219,-0.146472 0.276587,-0.158203 0.130858,-0.0059 0.648344,-0.0498 1.552459,-0.131836 0.636445,-0.05858 1.153931,-0.08788 1.552459,-0.08789 0.11301,1.3e-5 0.169517,0.09669 0.169521,0.290039 -4e-6,0.228528 -0.01487,0.530285 -0.04461,0.905274 -0.0357,0.462901 -0.05651,0.767588 -0.06246,0.914062 -0.02974,0.580088 -0.04461,1.371103 -0.04461,2.373047 -3e-6,0.181649 0.04759,0.272469 0.142755,0.272461 0.04759,8e-6 0.09219,-0.02343 0.133833,-0.07031 0.535325,-0.562491 1.237203,-0.84374 2.105633,-0.843749 1.302631,9e-6 2.319758,0.436531 3.051385,1.30957 0.678076,0.808601 1.017118,1.872075 1.017129,3.190429 m -3.229829,-0.09668 c -7e-6,-0.486323 -0.151684,-0.896479 -0.455031,-1.230469 -0.303361,-0.339838 -0.69891,-0.50976 -1.186649,-0.509766 -0.499648,6e-6 -0.895196,0.169928 -1.18665,0.509766 -0.285514,0.33399 -0.428269,0.750005 -0.428265,1.248047 -4e-6,0.515629 0.139777,0.931644 0.419342,1.248046 0.297402,0.333988 0.701874,0.50098 1.213417,0.500978 0.505584,2e-6 0.907081,-0.172849 1.204494,-0.518555 0.279554,-0.322263 0.419335,-0.738277 0.419342,-1.248047"
         inkscape:connector-curvature="0"
         id="path4494"
         style="font-size:18.1357975px;font-style:normal;font-variant:normal;font-weight:bold;font-stretch:normal;text-align:start;line-height:100%;letter-spacing:0px;word-spacing:0px;writing-mode:lr-tb;text-anchor:start;fill:#cc9d3e;fill-opacity:1;stroke:none;font-family:Berlin Sans FB Demi;-inkscape-font-specification:Berlin Sans FB Demi Bold" />
      <path
         d="m 50.19449,52.944337 c -9e-6,0.591801 -0.193323,0.928715 -0.579942,1.010742 -0.06544,0.01172 -0.681066,0.07618 -1.84689,0.19336 -0.701884,0.07617 -1.748752,0.166995 -3.140607,0.27246 0.08327,0.380863 0.336065,0.670902 0.758386,0.870118 0.344986,0.164065 0.737561,0.246096 1.177727,0.246093 0.529377,3e-6 1.061732,-0.140622 1.59707,-0.421874 0.226021,-0.140623 0.45205,-0.281247 0.678085,-0.421875 0.124903,0.0586 0.333087,0.357424 0.624553,0.896484 0.297396,0.539064 0.4461,0.881837 0.446108,1.02832 -8e-6,0.04102 -0.04462,0.108399 -0.133832,0.202148 -0.725679,0.767578 -1.852846,1.151368 -3.381505,1.151368 -1.415656,0 -2.557694,-0.407227 -3.426116,-1.22168 -0.892219,-0.82617 -1.338327,-1.930661 -1.338327,-3.313476 0,-1.347651 0.398523,-2.452142 1.195572,-3.313476 0.820837,-0.890617 1.909342,-1.33593 3.265516,-1.335939 1.142034,9e-6 2.111575,0.410166 2.908631,1.230469 0.797039,0.82032 1.195562,1.795904 1.195571,2.926758 m -3.122762,-0.536132 c -6e-6,-0.363277 -0.130865,-0.682612 -0.392575,-0.958009 -0.261723,-0.275383 -0.573999,-0.413078 -0.936829,-0.413085 -0.374736,7e-6 -0.684038,0.155279 -0.927907,0.46582 -0.226032,0.287115 -0.339046,0.624029 -0.339043,1.010742 -3e-6,0.158208 0.08327,0.23731 0.249822,0.237305 0.440157,5e-6 1.124189,-0.06738 2.0521,-0.202148 0.196282,-0.02929 0.294426,-0.07617 0.294432,-0.140625"
         inkscape:connector-curvature="0"
         id="path4496"
         style="font-size:18.1357975px;font-style:normal;font-variant:normal;font-weight:bold;font-stretch:normal;text-align:start;line-height:100%;letter-spacing:0px;word-spacing:0px;writing-mode:lr-tb;text-anchor:start;fill:#cc9d3e;fill-opacity:1;stroke:none;font-family:Berlin Sans FB Demi;-inkscape-font-specification:Berlin Sans FB Demi Bold" />
      <path
         d="m 57.109175,52.241212 c -7e-6,0.228521 -0.127892,0.342778 -0.383654,0.342773 -0.11302,5e-6 -0.279567,-0.0059 -0.499642,-0.01758 -0.214138,-0.01757 -0.374737,-0.02636 -0.481798,-0.02637 -0.493699,5e-6 -0.829767,0.07617 -1.008205,0.228516 -0.178448,0.152349 -0.26767,0.459965 -0.267666,0.922852 -4e-6,0.251956 0.0029,0.635745 0.009,1.151366 0.01189,0.509769 0.01784,0.890627 0.01784,1.142578 -4e-6,0.169924 0.01189,0.424807 0.03569,0.764649 0.02379,0.333985 0.03569,0.583008 0.03569,0.747071 -5e-6,0.140625 -0.09815,0.219726 -0.294433,0.237304 -0.285513,0.02343 -0.722699,0.03516 -1.31156,0.03516 -0.565073,0 -1.01713,-0.01758 -1.35617,-0.05273 -0.196289,-0.02343 -0.294433,-0.120117 -0.294432,-0.290039 -10e-7,-0.46875 0.0029,-1.168944 0.009,-2.100585 0.0059,-0.937498 0.009,-1.640622 0.009,-2.109376 -10e-7,-1.376947 -0.127884,-2.510735 -0.383653,-3.401367 -0.0119,-0.05273 -0.01784,-0.09667 -0.01784,-0.131836 -10e-7,-0.08788 0.04461,-0.146476 0.133832,-0.175781 0.327146,-0.03514 0.805969,-0.0996 1.436471,-0.193359 0.939799,-0.181633 1.424571,-0.272453 1.454315,-0.272462 0.107062,9e-6 0.175466,0.184579 0.20521,0.553711 0.02973,0.369149 0.08327,0.553719 0.160599,0.553712 -0.08327,7e-6 0.160595,-0.152337 0.731618,-0.457032 0.571015,-0.310538 1.121216,-0.465812 1.650603,-0.46582 0.333089,8e-6 0.499636,0.07032 0.499643,0.210938 -7e-6,0.16993 -0.01785,0.410163 -0.05353,0.720702 -0.0357,0.333992 -0.05651,0.574226 -0.06246,0.720703 -7e-6,0.169929 0.0029,0.395514 0.009,0.676758 0.01189,0.345709 0.01783,0.574224 0.01784,0.685547"
         inkscape:connector-curvature="0"
         id="path4498"
         style="font-size:18.1357975px;font-style:normal;font-variant:normal;font-weight:bold;font-stretch:normal;text-align:start;line-height:100%;letter-spacing:0px;word-spacing:0px;writing-mode:lr-tb;text-anchor:start;fill:#cc9d3e;fill-opacity:1;stroke:none;font-family:Berlin Sans FB Demi;-inkscape-font-specification:Berlin Sans FB Demi Bold" />
      <path
         d="m 67.119858,53.322267 c -10e-6,0.451176 0.02676,1.122073 0.0803,2.012695 0.05352,0.890627 0.08029,1.558595 0.0803,2.003906 -9e-6,0.234376 -0.104101,0.360351 -0.312275,0.37793 -0.737576,0.05273 -1.582208,0.0791 -2.533898,0.0791 -0.113022,0 -0.190348,-0.166991 -0.231977,-0.500976 -0.0357,-0.339843 -0.0803,-0.512695 -0.133833,-0.518554 -0.0476,0.02343 -0.110046,0.07324 -0.187365,0.149413 -0.666196,0.662109 -1.379969,0.993164 -2.141323,0.993165 -1.159886,-10e-7 -2.120507,-0.451172 -2.881864,-1.353516 -0.719723,-0.843748 -1.079584,-1.85156 -1.079583,-3.023438 -10e-7,-1.35351 0.371757,-2.443353 1.115272,-3.269531 0.773253,-0.85546 1.832017,-1.283194 3.176295,-1.283203 0.933849,9e-6 1.671415,0.322274 2.2127,0.966797 0.02379,0.0293 0.0446,0.04395 0.06246,0.04395 0.05353,8e-6 0.113007,-0.140617 0.178443,-0.421874 0.07137,-0.287101 0.154644,-0.430656 0.249821,-0.430665 0.220072,9e-6 0.639414,0.06154 1.258027,0.18457 0.588854,0.117196 1.011171,0.216806 1.266949,0.298829 0.08921,0.03516 0.133823,0.08204 0.133833,0.140625 -1e-5,0.02344 -0.009,0.08497 -0.02677,0.18457 -0.190351,1.060553 -0.28552,2.182623 -0.28551,3.366211 m -2.872941,0.05273 c -7e-6,-0.498042 -0.160607,-0.908197 -0.481798,-1.230468 -0.315256,-0.32812 -0.72865,-0.492182 -1.240183,-0.492188 -0.511542,6e-6 -0.924936,0.161138 -1.240182,0.483398 -0.315254,0.322271 -0.472879,0.735356 -0.472876,1.239258 -3e-6,0.474613 0.166544,0.88184 0.499642,1.22168 0.33309,0.339846 0.737562,0.509768 1.213416,0.509765 0.505585,3e-6 0.918978,-0.161129 1.240183,-0.483398 0.321191,-0.328121 0.481791,-0.744137 0.481798,-1.248047"
         inkscape:connector-curvature="0"
         id="path4500"
         style="font-size:18.1357975px;font-style:normal;font-variant:normal;font-weight:bold;font-stretch:normal;text-align:start;line-height:100%;letter-spacing:0px;word-spacing:0px;writing-mode:lr-tb;text-anchor:start;fill:#cc9d3e;fill-opacity:1;stroke:none;font-family:Berlin Sans FB Demi;-inkscape-font-specification:Berlin Sans FB Demi Bold" />
      <path
         d="m 78.352882,45.245118 c -10e-6,-0.128893 -0.0238,0.06446 -0.07137,0.580079 -0.06544,0.650401 -0.115998,1.482432 -0.151677,2.496094 -0.0476,1.148445 -0.07138,2.455085 -0.07137,3.919921 -1e-5,2.419925 0.06839,4.142579 0.20521,5.167969 0.01189,0.111328 0.01783,0.18164 0.01784,0.210937 -1e-5,0.06445 -0.04462,0.10254 -0.133832,0.114258 -0.214143,0.0293 -1.002267,0.04395 -2.364377,0.04395 -0.321206,0 -0.505598,-0.06153 -0.553175,-0.184571 -0.0119,-0.222656 -0.0238,-0.445312 -0.03569,-0.667969 -0.0059,-0.04688 -0.02974,-0.09375 -0.07138,-0.140625 -0.0357,0.01758 -0.08031,0.05273 -0.133832,0.105469 -0.642403,0.621094 -1.445398,0.93164 -2.408988,0.931641 -1.255057,-10e-7 -2.260288,-0.433594 -3.015696,-1.300781 -0.719723,-0.82617 -1.079584,-1.869138 -1.079584,-3.128907 0,-1.277338 0.353912,-2.329094 1.061739,-3.155273 0.749461,-0.878898 1.760641,-1.31835 3.033541,-1.318359 0.89816,9e-6 1.597064,0.281258 2.096712,0.843749 0.08326,0.09376 0.142748,0.140633 0.178443,0.140625 0.05353,8e-6 0.08029,-0.07616 0.0803,-0.228515 -7e-6,-0.451163 -0.0119,-1.12499 -0.03569,-2.021484 -0.0238,-0.896474 -0.0357,-1.567371 -0.03569,-2.012695 -7e-6,-0.169911 0.04758,-0.26659 0.142755,-0.290039 0.380671,-0.01757 0.904106,-0.05272 1.570303,-0.10547 1.189613,-0.146472 1.716021,-0.219713 1.579225,-0.219726 0.130849,1.3e-5 0.196278,0.07326 0.196288,0.219726 m -3.363661,8.077149 c -7e-6,-0.462886 -0.16358,-0.867182 -0.49072,-1.212891 -0.327152,-0.351557 -0.722702,-0.527338 -1.18665,-0.527343 -0.48775,5e-6 -0.877351,0.175786 -1.168804,0.527343 -0.285514,0.345709 -0.428269,0.761723 -0.428265,1.248047 -4e-6,0.474614 0.145725,0.87598 0.437186,1.204101 0.297402,0.351566 0.684029,0.527347 1.159883,0.527345 0.475844,2e-6 0.874367,-0.175779 1.195573,-0.527345 0.321191,-0.351558 0.48179,-0.764644 0.481797,-1.239257"
         inkscape:connector-curvature="0"
         id="path4502"
         style="font-size:18.1357975px;font-style:normal;font-variant:normal;font-weight:bold;font-stretch:normal;text-align:start;line-height:100%;letter-spacing:0px;word-spacing:0px;writing-mode:lr-tb;text-anchor:start;fill:#cc9d3e;fill-opacity:1;stroke:none;font-family:Berlin Sans FB Demi;-inkscape-font-specification:Berlin Sans FB Demi Bold" />
      <path
         d="m 86.561386,54.355469 c -7e-6,0.350914 0.0205,0.872724 0.06152,1.565429 0.04101,0.69271 0.06151,1.212241 0.06152,1.558594 -8e-6,0.182292 -0.07976,0.280274 -0.239258,0.293945 -0.565111,0.04102 -1.212246,0.06152 -1.941406,0.06152 -0.08659,0 -0.145839,-0.129883 -0.177734,-0.389649 -0.02735,-0.264322 -0.06153,-0.398762 -0.10254,-0.40332 -0.03646,0.01823 -0.08431,0.05697 -0.143554,0.116211 -0.510421,0.514974 -1.057296,0.772461 -1.640625,0.772461 -0.888675,0 -1.624676,-0.350911 -2.208008,-1.052734 -0.551433,-0.656249 -0.827149,-1.440102 -0.827148,-2.351563 -10e-7,-1.05273 0.28483,-1.900385 0.854492,-2.542969 0.592446,-0.665358 1.403643,-0.99804 2.433593,-0.998046 0.715491,6e-6 1.280595,0.250657 1.695313,0.751953 0.01822,0.02279 0.03417,0.03419 0.04785,0.03418 0.04101,6e-6 0.08658,-0.109369 0.136718,-0.328125 0.05468,-0.2233 0.118484,-0.334954 0.191407,-0.334961 0.168614,7e-6 0.489902,0.04786 0.963867,0.143555 0.451165,0.09115 0.774732,0.168626 0.970703,0.232422 0.06835,0.02735 0.102531,0.06381 0.102539,0.109375 -8e-6,0.01823 -0.0068,0.06609 -0.02051,0.143555 -0.145841,0.824875 -0.218757,1.697595 -0.21875,2.618164 m -2.201172,0.04102 c -5e-6,-0.387366 -0.123052,-0.706376 -0.36914,-0.957031 -0.241541,-0.255204 -0.558273,-0.382808 -0.950196,-0.382812 -0.39193,4e-6 -0.708662,0.12533 -0.950195,0.375976 -0.241539,0.250655 -0.362307,0.571944 -0.362305,0.963867 -2e-6,0.369144 0.127602,0.685875 0.382813,0.950196 0.255205,0.264325 0.5651,0.396486 0.929687,0.396484 0.387366,2e-6 0.704097,-0.125323 0.950196,-0.375977 0.246088,-0.255205 0.369135,-0.578773 0.36914,-0.970703"
         inkscape:connector-curvature="0"
         id="path4514"
         style="font-size:14px;font-style:normal;font-variant:normal;font-weight:bold;font-stretch:normal;text-align:start;line-height:100%;letter-spacing:0px;word-spacing:0px;writing-mode:lr-tb;text-anchor:start;fill:#cc9d3e;fill-opacity:1;stroke:none;font-family:Berlin Sans FB Demi;-inkscape-font-specification:Berlin Sans FB Demi Bold" />
      <path
         d="m 98.845566,57.520508 c -1.2e-5,0.159505 -0.06837,0.248372 -0.205078,0.266601 -0.13673,0.01823 -0.473969,0.02734 -1.011719,0.02734 -0.555999,0 -0.902353,-0.01367 -1.039063,-0.04102 -0.136727,-0.02734 -0.205087,-0.138997 -0.205078,-0.33496 -9e-6,-0.209635 0.0068,-0.521809 0.02051,-0.936524 0.01366,-0.419269 0.0205,-0.733722 0.02051,-0.943359 -9e-6,-0.797523 -0.0091,-1.364906 -0.02734,-1.702149 -0.02735,-0.542313 -0.284839,-0.813472 -0.772461,-0.813476 -0.214201,4e-6 -0.428393,0.09115 -0.642578,0.273437 -0.209643,0.177739 -0.325854,0.375981 -0.348633,0.594727 -0.01824,0.19141 -0.02735,0.751956 -0.02734,1.68164 -8e-6,0.214195 0.0068,0.540041 0.02051,0.977539 0.01367,0.432944 0.0205,0.75879 0.02051,0.97754 -7e-6,0.15039 -0.06609,0.225585 -0.198242,0.225585 l -2.071289,0 c -0.127609,0 -0.191411,-0.09342 -0.191406,-0.280273 -5e-6,-0.214192 0.0068,-0.535481 0.02051,-0.963867 0.01367,-0.428384 0.0205,-0.751951 0.02051,-0.970703 -5e-6,-0.168618 -0.0046,-0.423826 -0.01367,-0.765625 -0.0091,-0.341794 -0.01368,-0.599281 -0.01367,-0.772461 -5e-6,-0.651688 -0.248377,-0.977535 -0.745118,-0.977539 -0.200524,4e-6 -0.416996,0.07748 -0.649414,0.232422 -0.255211,0.168624 -0.382815,0.346358 -0.382812,0.533203 -3e-6,0.414717 0.0023,1.034508 0.0068,1.859375 0.0046,0.824871 0.0068,1.442383 0.0068,1.852539 -3e-6,0.113932 -0.01368,0.18457 -0.04102,0.211914 -0.02735,0.02734 -0.09799,0.04557 -0.211914,0.05469 -0.205081,0.01823 -0.528648,0.02734 -0.970703,0.02734 -0.287111,0 -0.612957,-0.01367 -0.977539,-0.04102 -0.109376,-0.0091 -0.175457,-0.02506 -0.198242,-0.04785 -0.01823,-0.02279 -0.02734,-0.09115 -0.02734,-0.205078 -1e-6,-0.364583 0.0023,-0.909179 0.0068,-1.633789 0.0046,-0.729164 0.0068,-1.276039 0.0068,-1.640625 -10e-7,-0.747392 -0.05469,-1.588211 -0.164063,-2.522461 -0.0091,-0.05468 -0.01367,-0.0957 -0.01367,-0.123047 0,-0.07747 0.0319,-0.129877 0.0957,-0.157227 0.10026,-0.04101 0.289388,-0.07519 0.567383,-0.102539 0.341796,-0.03189 0.544595,-0.0524 0.608399,-0.06152 0.04557,-0.0091 0.225584,-0.05696 0.540039,-0.143555 0.223305,-0.06379 0.403317,-0.0957 0.540039,-0.0957 0.08658,7e-6 0.132158,0.159512 0.136719,0.478516 0.0046,0.314459 0.02278,0.471685 0.05469,0.471679 0.04557,-0.01822 0.09798,-0.05012 0.157227,-0.0957 0.410152,-0.319004 0.73372,-0.537754 0.970703,-0.65625 0.350907,-0.168613 0.73144,-0.252923 1.141601,-0.252929 0.419265,6e-6 0.792963,0.09343 1.121094,0.280273 0.369134,0.209642 0.608391,0.503587 0.717774,0.881836 0.241529,-0.328119 0.574211,-0.603835 0.998046,-0.827149 0.42382,-0.2233 0.836254,-0.334954 1.237305,-0.33496 0.601553,6e-6 1.091461,0.139004 1.469727,0.416992 0.428374,0.314459 0.642566,0.763352 0.642578,1.346679 -1.2e-5,0.241542 -0.0068,0.606125 -0.02051,1.09375 -0.01368,0.483077 -0.02052,0.845381 -0.02051,1.086914 -1.1e-5,0.287112 0.0068,0.720055 0.02051,1.298829 0.01366,0.574219 0.0205,1.004883 0.02051,1.291992"
         inkscape:connector-curvature="0"
         id="path4516"
         style="font-size:14px;font-style:normal;font-variant:normal;font-weight:bold;font-stretch:normal;text-align:start;line-height:100%;letter-spacing:0px;word-spacing:0px;writing-mode:lr-tb;text-anchor:start;fill:#cc9d3e;fill-opacity:1;stroke:none;font-family:Berlin Sans FB Demi;-inkscape-font-specification:Berlin Sans FB Demi Bold" />
      <path
         d="m 106.40611,54.061523 c 0,0.46029 -0.14812,0.722334 -0.44433,0.786133 -0.0501,0.0091 -0.52182,0.05925 -1.41504,0.150391 -0.53777,0.05925 -1.33985,0.129885 -2.40625,0.211914 0.0638,0.296226 0.25748,0.521812 0.58105,0.676758 0.26432,0.127606 0.5651,0.191408 0.90235,0.191406 0.40559,2e-6 0.81347,-0.109373 1.22363,-0.328125 0.17317,-0.109373 0.34635,-0.218748 0.51953,-0.328125 0.0957,0.04557 0.2552,0.277997 0.47852,0.697266 0.22785,0.419272 0.34179,0.685873 0.34179,0.799804 0,0.0319 -0.0342,0.08431 -0.10254,0.157227 -0.55599,0.597005 -1.4196,0.895507 -2.59082,0.895508 -1.08463,-10e-7 -1.95963,-0.316732 -2.625,-0.950196 -0.68359,-0.642576 -1.025388,-1.501625 -1.025387,-2.577148 -1e-6,-1.048173 0.305337,-1.907221 0.916017,-2.577149 0.6289,-0.692701 1.46289,-1.039055 2.50195,-1.039062 0.875,7e-6 1.61783,0.319017 2.22852,0.957031 0.61067,0.638026 0.91601,1.396815 0.91601,2.276367 m -2.39258,-0.416992 c 0,-0.282547 -0.10026,-0.53092 -0.30078,-0.745117 -0.20052,-0.214188 -0.43978,-0.321284 -0.71777,-0.321289 -0.28711,5e-6 -0.52409,0.120773 -0.71094,0.362305 -0.17318,0.223312 -0.25977,0.485356 -0.25976,0.786132 -1e-5,0.123051 0.0638,0.184575 0.1914,0.184571 0.33724,4e-6 0.86133,-0.05241 1.57227,-0.157227 0.15038,-0.02278 0.22558,-0.05924 0.22558,-0.109375"
         inkscape:connector-curvature="0"
         id="path4518"
         style="font-size:14px;font-style:normal;font-variant:normal;font-weight:bold;font-stretch:normal;text-align:start;line-height:100%;letter-spacing:0px;word-spacing:0px;writing-mode:lr-tb;text-anchor:start;fill:#cc9d3e;fill-opacity:1;stroke:none;font-family:Berlin Sans FB Demi;-inkscape-font-specification:Berlin Sans FB Demi Bold" />
      <path
         d="m 119.51132,57.405273 c -1e-5,0.175782 -0.11301,0.276693 -0.33897,0.302735 -0.226,0.02604 -0.81516,0.03906 -1.76751,0.03906 -1.01694,0 -1.64646,-0.01953 -1.88857,-0.05859 -0.24213,-0.03906 -0.36319,-0.172526 -0.36319,-0.400391 0,-0.305988 0.0121,-0.768228 0.0363,-1.386719 0.0242,-0.618487 0.0363,-1.083981 0.0363,-1.396484 0,-0.240881 -0.008,-0.598954 -0.0242,-1.074219 -0.0161,-0.481766 -0.0243,-0.843094 -0.0242,-1.083984 -1e-5,-0.891921 -0.48022,-1.337884 -1.44064,-1.33789 -0.31477,6e-6 -0.68199,0.110683 -1.10166,0.332031 -0.45197,0.247402 -0.67795,0.491542 -0.67795,0.732422 l 0,5.273437 c 0,0.214844 -0.1251,0.335286 -0.3753,0.361328 -0.28247,0.02604 -0.85954,0.03906 -1.73118,0.03906 -0.94429,0 -1.55767,-0.01953 -1.84014,-0.0586 -0.2502,-0.03255 -0.3753,-0.139974 -0.3753,-0.322265 0,-0.507812 0.004,-1.272785 0.0121,-2.294922 0.008,-1.022132 0.0121,-1.79036 0.0121,-2.304688 0,-1.621087 -0.15738,-2.893871 -0.47214,-3.818359 -0.0162,-0.05859 -0.0242,-0.107413 -0.0242,-0.146484 0,-0.104158 0.0605,-0.175773 0.18159,-0.214844 0.50846,-0.04556 1.18641,-0.117179 2.03385,-0.214844 1.28325,-0.201813 2.00559,-0.302724 2.16701,-0.302734 0.0887,10e-6 0.15737,0.221363 0.20581,0.664062 0.0484,0.436207 0.11702,0.654306 0.2058,0.654297 -0.0887,9e-6 0.34301,-0.224601 1.29536,-0.673828 0.96042,-0.45572 1.79979,-0.683584 2.51809,-0.683593 1.02498,9e-6 1.88049,0.195322 2.56652,0.585937 0.76671,0.449227 1.15008,1.074227 1.15009,1.875 l 0,3.115234 c -10e-6,0.423181 0.004,1.057946 0.0121,1.904297 0.008,0.839845 0.0121,1.471355 0.0121,1.894531"
         inkscape:connector-curvature="0"
         id="path4524"
         style="font-size:22.26814651px;font-style:normal;font-variant:normal;font-weight:bold;font-stretch:normal;text-align:start;line-height:100%;letter-spacing:0px;word-spacing:0px;writing-mode:lr-tb;text-anchor:start;fill:#cc9d3e;fill-opacity:1;stroke:none;font-family:Berlin Sans FB Demi;-inkscape-font-specification:Berlin Sans FB Demi Bold" />
      <path
         d="m 129.62001,54.827148 c -2e-5,0.195316 -0.0323,0.491539 -0.0969,0.888672 -0.0566,0.397137 -0.0847,0.690105 -0.0847,0.878907 0,0.182293 -0.0242,0.29948 -0.0726,0.351562 -0.0484,0.05208 -0.1816,0.126954 -0.39951,0.22461 -1.04113,0.462239 -2.19526,0.693359 -3.46237,0.693359 -2.33247,0 -3.4987,-0.719401 -3.4987,-2.158203 0,-0.429686 0.0202,-1.074216 0.0606,-1.933594 0.0403,-0.86588 0.0606,-1.513667 0.0606,-1.943359 0,-0.286452 -0.2058,-0.429681 -0.61741,-0.429688 -0.0323,7e-6 -0.0847,7e-6 -0.15738,0 -0.0726,0.0066 -0.1251,0.0098 -0.15738,0.0098 -0.30669,7e-6 -0.46004,-0.08788 -0.46004,-0.263671 0,-0.104161 0.008,-0.263666 0.0243,-0.478516 0.0242,-0.214837 0.0363,-0.374342 0.0363,-0.478516 0,-0.136711 -0.0121,-0.345044 -0.0363,-0.625 -0.0161,-0.279939 -0.0243,-0.488273 -0.0243,-0.625 0,-0.130199 0.25826,-0.201814 0.7748,-0.214844 0.29055,-0.0065 0.44793,-0.07161 0.47214,-0.195312 0.0484,-0.247387 0.0646,-0.638011 0.0484,-1.171875 -0.0323,-0.839833 -0.0484,-1.240223 -0.0484,-1.201172 0,-0.755196 0.0887,-1.1328 0.26633,-1.132813 0.21792,1.3e-5 0.52864,0.03908 0.93218,0.117188 0.46004,0.08465 0.77883,0.133476 0.9564,0.146485 0.4116,0.04559 1.03305,0.107434 1.86435,0.185546 0.20176,0.01303 0.30265,0.06837 0.30266,0.166016 -10e-6,0.260429 -0.0283,0.654308 -0.0847,1.18164 -0.0484,0.527354 -0.0726,0.924489 -0.0726,1.191407 -2e-5,0.31902 0.11702,0.478525 0.35108,0.478515 0.28247,1e-5 0.71022,-0.0098 1.28325,-0.0293 0.57302,-0.01953 1.00481,-0.02929 1.29536,-0.0293 0.17756,9e-6 0.26633,0.04884 0.26634,0.146484 -1e-5,0.149749 -0.0202,0.374358 -0.0606,0.673829 -0.0403,0.299487 -0.0606,0.524095 -0.0606,0.673828 -1e-5,0.156257 0.004,0.384121 0.0121,0.683593 0.008,0.299486 0.0121,0.527351 0.0121,0.683593 0,0.136726 -0.11703,0.205085 -0.35108,0.205079 -0.16143,6e-6 -0.43179,-0.0032 -0.81111,-0.0098 -0.37934,-0.01301 -0.64972,-0.01952 -0.81112,-0.01953 l -0.90797,0 c -0.12106,6e-6 -0.1816,0.143236 -0.18159,0.429688 -1e-5,0.156255 -1e-5,0.387375 0,0.693359 0.008,0.312504 0.0121,0.543624 0.0121,0.69336 -1e-5,0.546878 0.0767,0.924482 0.23002,1.132811 0.2179,0.279952 0.64565,0.419926 1.28326,0.419922 0.20176,4e-6 0.48827,-0.0358 0.85954,-0.107421 0.37931,-0.07812 0.64565,-0.117185 0.79901,-0.117187 0.16947,2e-6 0.25421,0.07162 0.25423,0.214843"
         inkscape:connector-curvature="0"
         id="path4526"
         style="font-size:22.26814651px;font-style:normal;font-variant:normal;font-weight:bold;font-stretch:normal;text-align:start;line-height:100%;letter-spacing:0px;word-spacing:0px;writing-mode:lr-tb;text-anchor:start;fill:#cc9d3e;fill-opacity:1;stroke:none;font-family:Berlin Sans FB Demi;-inkscape-font-specification:Berlin Sans FB Demi Bold" />
      <path
         d="m 142.00466,52.385743 c -1e-5,0.657556 -0.26231,1.031905 -0.7869,1.123046 -0.0889,0.01302 -0.92412,0.08464 -2.50599,0.214844 -0.95237,0.08464 -2.37282,0.18555 -4.26138,0.302735 0.11298,0.42318 0.456,0.745445 1.02902,0.966796 0.4681,0.182294 1.00078,0.27344 1.59802,0.273438 0.71829,2e-6 1.44064,-0.156247 2.16701,-0.46875 0.30668,-0.156248 0.61338,-0.312497 0.92008,-0.468751 0.16947,0.06511 0.45195,0.397139 0.84744,0.996094 0.40352,0.598961 0.60529,0.979819 0.6053,1.142578 -10e-6,0.04557 -0.0606,0.120444 -0.1816,0.22461 -0.98464,0.852865 -2.51406,1.279296 -4.58825,1.279296 -1.92085,0 -3.47044,-0.452473 -4.64877,-1.357421 -1.21064,-0.917967 -1.81594,-2.145179 -1.81594,-3.681641 0,-1.497389 0.54074,-2.724601 1.62224,-3.68164 1.11376,-0.989574 2.59072,-1.484365 4.43087,-1.484375 1.54958,1e-5 2.86512,0.455738 3.94661,1.367187 1.08149,0.911466 1.62223,1.995449 1.62224,3.251954 m -4.23717,-0.595704 c -1e-5,-0.40364 -0.17757,-0.758457 -0.53268,-1.064453 -0.35512,-0.305982 -0.77884,-0.458977 -1.27114,-0.458984 -0.50847,7e-6 -0.92815,0.172533 -1.25906,0.517578 -0.30669,0.319017 -0.46003,0.693366 -0.46003,1.123047 0,0.175786 0.11299,0.263677 0.33897,0.263672 0.59724,5e-6 1.52538,-0.07486 2.78444,-0.22461 0.26632,-0.03255 0.39949,-0.08463 0.3995,-0.15625"
         inkscape:connector-curvature="0"
         id="path4528"
         style="font-size:22.26814651px;font-style:normal;font-variant:normal;font-weight:bold;font-stretch:normal;text-align:start;line-height:100%;letter-spacing:0px;word-spacing:0px;writing-mode:lr-tb;text-anchor:start;fill:#cc9d3e;fill-opacity:1;stroke:none;font-family:Berlin Sans FB Demi;-inkscape-font-specification:Berlin Sans FB Demi Bold" />
    </g>
  </g>
</svg>
