<?xml version="1.0" encoding="UTF-8" standalone="no"?>
<!-- Created with Inkscape (http://www.inkscape.org/) -->

<svg
   xmlns:dc="http://purl.org/dc/elements/1.1/"
   xmlns:cc="http://creativecommons.org/ns#"
   xmlns:rdf="http://www.w3.org/1999/02/22-rdf-syntax-ns#"
   xmlns:svg="http://www.w3.org/2000/svg"
   xmlns="http://www.w3.org/2000/svg"
   xmlns:inkscape="http://www.inkscape.org/namespaces/inkscape"
   version="1.2"
   width="500"
   height="343"
   viewBox="0 0 500 343"
   id="Layer_1"
   xml:space="preserve"><metadata
   id="metadata113"><rdf:RDF><cc:Work
       rdf:about=""><dc:format>image/svg+xml</dc:format><dc:type
         rdf:resource="http://purl.org/dc/dcmitype/StillImage" /></cc:Work></rdf:RDF></metadata><defs
   id="defs111" />
<g
   id="g3">
	<path
   d="m 1,105 c 0,-0.333 0,-0.667 0,-1 1.506,-1.916 3.629,-2.14 5.843,-2.155 4.64,-0.032 9.281,-0.184 13.594,0.15 C 12.95,95.662 9.209,87.142 8.924,77.375 8.498,62.748 8.715,48.101 8.854,33.463 c 0.066,-7.021 1.578,-8.597 8.547,-8.602 24.45,-0.021 48.901,-0.168 73.351,-0.014 2.136,0.015 4.378,-0.153 6.096,1.557 1.479,1.883 0.738,3.771 -0.085,5.62 -0.608,1.371 -1.501,2.594 -2.307,3.853 -9.63,15.063 -5.997,13.131 -23.971,13.235 -15.154,0.087 -30.31,-0.002 -45.465,0.038 -2.269,0.006 -4.668,-0.412 -6.863,1.259 -0.388,4.181 1.813,7.299 4.237,10.217 7.677,9.239 17.573,12.973 29.553,12.545 15.797,-0.563 27.08,-8.937 37.022,-20.036 2.164,-2.415 3.88,-5.495 7.947,-5.357 3.078,3.603 -0.429,7.054 -0.075,10.498 -0.278,8.36 1.562,16.128 6.162,23.22 1.108,1.708 2.221,3.406 3.853,4.521 8.772,5.99 17.694,11.173 28.536,13.354 9.349,1.881 18.533,0.905 27.773,1.455 2.656,0.157 5.338,-0.12 7.987,0.167 4.239,0.46 5.736,2.688 4.905,6.882 -0.528,2.661 -2.07,4.883 -3.01,7.365 -5.218,13.786 -9.236,28.008 -15.108,41.56 -0.917,2.118 -1.04,4.475 -1.26,8.015 19.205,0.036 38.106,0.105 57.264,-0.066 0.49,-5.675 -2.491,-8.863 -3.861,-12.342 -2.199,-1.533 -4.423,-1.21 -6.557,-1.229 -8.159,-0.067 -16.321,0.081 -24.479,-0.07 -7.006,-0.13 -8.897,-2.949 -6.958,-9.535 3.569,-12.12 9.218,-23.453 13.241,-35.402 1.343,-3.988 4.695,-5.275 8.736,-5.296 11.99,-0.061 24.076,0.945 35.944,-0.291 13.154,-1.37 25.339,-6.103 31.902,-19.046 3.663,-7.225 3.565,-15.075 2.33,-22.914 -6.246,-17.085 -18.897,-25.976 -36.482,-28.673 -1.833,-0.281 -4.783,-0.148 -3.315,-3.694 1.8,-1.633 4.041,-1.402 6.163,-1.416 17.086,-0.104 34.172,-0.108 51.258,-0.005 4.942,0.03 9.865,1.403 14.83,0.221 21.94,-1.616 43.88,-3.394 65.91,-3.228 2.629,0.02 5.332,-0.333 7.827,0.945 0.583,0.279 1.065,0.677 1.462,1.181 1.597,4.21 2.282,8.398 -0.358,12.479 -1.756,2.48 -4.345,2.717 -7.101,2.719 -8.992,0.006 -17.998,-0.325 -26.972,0.1 -8.599,0.406 -17.235,0.725 -25.624,3.318 -6.966,2.154 -12.742,5.619 -16.543,11.985 -0.773,1.293 -1.967,2.255 -2.813,3.491 -0.34,0.44 -0.761,0.788 -1.248,1.044 -3.429,1.479 -7.266,0.51 -11.247,1.83 -2.819,11.438 0.68,21.32 7.63,30.44 7.496,9.838 18.43,10.77 28.855,10.836 2.122,2.391 2.026,4.301 1.358,6.302 -4.15,12.458 -9.244,24.571 -13.513,36.987 -0.825,2.4 -2.479,4.341 -5.18,5.024 -4.717,0.813 -9.417,1.539 -13.977,-0.648 -2.524,-3.055 -0.439,-6.12 0.396,-8.914 1.223,-4.082 2.651,-8.15 4.72,-11.967 0.974,-1.795 2.225,-3.748 1.618,-6.013 -1.371,-2.136 -3.519,-1.751 -5.433,-1.76 -13.756,-0.059 -27.514,-0.033 -41.27,-0.04 -2.369,-0.001 -4.55,0.781 -6.83,1.121 -10.946,-0.273 -21.896,-0.104 -32.846,-0.1 -7.669,0.004 -10.429,3.247 -10.08,11.754 3.244,1.607 6.779,0.736 10.19,0.857 4.475,0.158 8.961,-0.069 13.438,0.107 5.272,0.208 7.508,1.928 8.725,7.083 0.467,1.979 0.962,3.832 2.264,5.413 0.265,0.499 0.407,1.031 0.448,1.59 2.455,9.084 4.346,18.354 8.95,27.7 17.236,0.202 34.538,0.296 51.539,-0.077 3.525,-5.614 0.119,-11.771 3.497,-16.539 1.001,-1.498 2.804,-2.362 3.364,-4.225 0.283,-0.443 0.651,-0.806 1.09,-1.095 4.57,-4.89 9.945,-8.666 15.96,-11.57 2.411,-1.165 4.87,-2.131 7.6,-2.251 6.104,-1.536 12.248,-2.918 18.322,-4.402 8.683,-2.123 17.512,-0.999 25.557,-2.189 2.878,-2.604 2.368,-5.416 2.377,-8.014 0.063,-19.823 0.03,-39.647 0.029,-59.471 0,-2.833 0.005,-5.664 0.308,-8.483 -0.52,-5.093 0.006,-10.229 -0.701,-15.321 -0.287,-2.056 0.393,-3.915 1.938,-5.377 1.271,-1.319 2.541,-2.605 4.587,-2.696 18.106,-0.798 35.71,0.702 50.902,12.017 8.387,6.245 14.391,13.992 13.146,25.284 -0.59,5.354 -3.784,9.846 -5.46,14.862 -2.842,8.517 -6.566,16.693 -9.956,25 -1.071,2.628 -1.839,5.385 -2.127,8.197 -0.627,6.121 5.238,11.417 11.204,10.192 3.26,-0.669 5.531,-2.608 5.715,-6.036 0.174,-3.229 -1.751,-5.26 -4.815,-6.141 -1.747,-0.501 -3.667,-0.612 -4.736,-2.454 -0.286,-4.947 2.424,-8.24 7.912,-9.578 9.778,-2.384 20.429,5.579 21.272,15.961 0.377,4.653 -0.185,9.029 -4.326,12.1 -2.474,1.693 -4.654,3.752 -7.049,5.546 -11.691,8.765 -27.095,5.777 -34.967,-6.727 -5.724,-9.092 -6.271,-18.576 -2.872,-28.611 2.021,-5.963 5.106,-11.523 6.525,-17.702 0.188,-0.816 0.382,-1.621 -0.556,-3.397 -9.754,-0.612 -20.043,-0.468 -31.381,-10e-4 -0.346,17.218 -0.239,33.683 -0.078,50.54 8.771,1.007 16.41,3.096 24.109,4.898 8.691,2.034 17.373,4.236 25.286,8.605 0.943,0.801 1.858,1.658 3.127,1.978 6.123,2.229 11.415,5.568 16.253,10.069 11.587,10.779 12.479,30.957 1.322,42.216 -1.992,2.011 -3.869,4.113 -5.73,6.226 -3.467,3.931 -2.957,8.056 1.492,10.918 6.457,4.156 13.313,3.642 20.059,0.848 4.896,-2.028 9.727,-4.26 13.844,-7.773 1.456,-1.242 2.896,-2.877 5.208,-2.473 1.071,0.26 1.944,0.995 2.079,1.959 1.013,7.243 2.093,14.55 -1.516,21.438 -2.045,3.901 -5.442,5.672 -9.884,5.389 -8.013,-4.098 -16.487,-5.52 -25.47,-5.234 -10.609,0.338 -21.236,0.063 -31.855,0.085 -6.607,0.015 -13.255,-0.434 -19.719,1.452 -3.129,-1.472 -1.965,-3.82 -1.004,-5.9 2.041,-4.424 5.348,-8.015 8.45,-11.664 6.159,-7.25 11.376,-15.07 15.831,-23.465 2.85,-5.371 1.092,-11.148 1.977,-16.672 -4.563,-13.826 -14.84,-20.62 -28.381,-24.207 -6.62,-1.753 -13.125,-1.354 -19.711,-1.591 -2.648,-0.096 -5.32,0.14 -7.92,-0.604 -17.447,-1.172 -34.694,-0.501 -50.754,7.358 -13.361,6.539 -14.408,21.64 -2.803,30.838 7.149,5.668 15.326,10.006 21.42,17.065 10.852,12.572 9.214,28.706 -4.285,38.592 -6.289,4.606 -13.482,7.464 -21.141,8.419 -4.439,0.555 -8.72,2.271 -13.283,1.897 -30.742,1.038 -61.539,-0.808 -92.198,0.887 -16.81,0.931 -25.36,10.249 -26.97,26.435 -1.025,10.308 2.022,18.564 10.167,24.996 1.681,1.326 3.253,2.84 4.688,4.463 3.182,3.33 7.404,4.977 11.358,7.061 4.687,2.471 8.649,5.686 10.197,11.02 1.729,5.968 -0.808,9.398 -7.033,9.418 -20.301,0.059 -40.602,0.018 -60.902,0.022 -7.624,0.002 -12.239,-4.675 -15.727,-10.58 -2.034,-3.444 -0.167,-6.227 4.607,-7.41 8.824,-2.188 16.58,-6.271 22.182,-13.474 5.572,-7.165 10.027,-14.951 8.136,-24.678 -1.245,-11.702 -6.246,-20.815 -16.759,-27.06 -6.524,-3.875 -13.588,-6.024 -20.465,-8.832 -2.216,-0.905 -4.543,-2.048 -1.949,-4.985 0.55,-0.25 1.112,-0.386 1.718,-0.416 24.623,-0.732 49.233,-0.938 73.848,-0.806 8.11,0.044 16.241,1.775 24.326,-0.264 8.332,0.851 16.735,-0.356 25.05,0.753 12.635,-0.819 25.305,0.005 37.953,-0.438 9.832,-0.344 19.577,-1.516 28.655,-5.789 5.967,-2.811 9.45,-8.262 8.469,-13.883 -0.798,-4.568 -4.303,-7.397 -7.676,-10.046 -2.74,-2.149 -5.515,-4.332 -8.496,-6.132 -6.691,-4.04 -11.089,-10.289 -16.021,-16.043 -1.289,-1.287 -1.763,-3.234 -3.518,-4.852 -28.303,15.223 -58.162,18.664 -89.299,12.501 -7.827,-2.177 -15.572,-4.828 -23.46,-6.533 -12.247,-2.646 -24.16,-7.349 -36.995,-6.937 -1.824,0.059 -3.692,0.006 -5.223,-1.267 -1.878,-1.969 -1.573,-4.174 -0.773,-6.503 1.996,-5.811 4.208,-11.545 6.148,-17.374 0.571,-1.716 1.49,-3.379 0.867,-5.333 -1.425,-1.941 -3.574,-1.429 -5.494,-1.46 -5.992,-0.097 -11.987,0.057 -17.979,-0.077 -5.643,-0.126 -7.827,-1.616 -9.406,-7.063 -1.341,-4.627 -2.953,-9.168 -4.229,-13.806 -3.081,-11.858 -6.341,-23.638 -12.362,-34.473 -4.541,-8.171 -11.034,-13.492 -20.334,-15.158 -0.45,-0.158 -0.868,-0.387 -1.263,-0.644 -2.646,-1.94 -5.325,-2.055 -8.039,-0.124 -0.364,0.312 -0.763,0.559 -1.183,0.784 -3.025,1.394 -6.224,2.013 -9.477,2.705 -5.304,1.128 -9.151,5.163 -13.072,8.59 -4.462,3.898 -9.153,7.657 -12.623,12.605 -0.954,1.36 -2.271,2.421 -4.057,2.654 C 18.697,109.75 11.796,106.129 4.844,106.968 3.26,107.165 2.072,106.081 1,105 z"
   inkscape:connector-curvature="0"
   id="path5"
   style="fill:#e45353" />
	<path
   d="M 370.975,4.048 C 370.982,3.032 370.991,2.016 371,1 c 33.666,0 67.334,0 101,0 1.23,1.273 0.719,2.907 0.934,4.398 -0.558,4.615 -0.41,9.251 -0.457,13.881 -0.02,1.957 0.259,4.027 -1.416,5.593 -2.014,1.591 -4.428,1.302 -6.718,1.308 -28.616,0.083 -57.23,0.08 -85.847,0.003 -2.605,-0.007 -5.432,0.38 -7.303,-2.208 l -0.06,-0.312 c -1.149,-0.749 -2.098,-1.783 -2.043,-3.151 0.226,-5.53 -2.126,-11.37 1.885,-16.464 z"
   inkscape:connector-curvature="0"
   id="path7"
   style="fill:#5bd6d6" />
	<path
   d="m 501,57 c -12.958,-1.149 -25.921,-0.393 -38.883,-0.088 -2.496,1.133 -3.699,-0.929 -4.947,-2.257 -5.855,-6.231 -12.514,-11.342 -20.146,-15.211 -1.899,-0.964 -1.832,-1.1 -3.191,-4.216 2.704,-3.211 6.28,-2.046 9.645,-1.808 8.604,0.612 17.221,1.176 25.768,-0.477 10.334,-1.998 15.511,-8.3 15.65,-18.68 0.045,-3.317 -0.225,-6.63 -0.139,-9.953 0.225,-1.456 1.29,-2.345 2.243,-3.31 4.666,0 9.334,0 14,0 0,18.667 0,37.333 0,56 z"
   inkscape:connector-curvature="0"
   id="path9"
   style="fill:#e45353" />
	<path
   d="m 1,105 c 8.338,-0.353 16.691,-1.051 24.922,1.077 1.276,2.035 0.111,3.74 -0.694,5.532 -3.377,7.519 -6.092,15.238 -6.93,23.516 -0.969,3.626 -0.863,7.284 -0.4,10.965 -0.082,1.248 -0.498,2.354 -1.347,3.281 C 11.331,150.946 6.127,151.551 1,149 1,134.333 1,119.667 1,105 z"
   inkscape:connector-curvature="0"
   id="path11"
   style="fill:#0e4626" />
	<path
   d="M 33.188,178.686 C 22.455,178.659 11.691,180.044 1,178 c 0,-9.333 0,-18.667 0,-28 4.492,-0.992 9.044,-0.353 13.556,-0.503 3.197,-0.244 4.335,2.174 5.296,4.445 3.063,7.234 6.432,14.228 12.188,19.817 1.291,1.254 2.327,2.927 1.148,4.927 z"
   inkscape:connector-curvature="0"
   id="path13"
   style="fill:#e45353" />
	<path
   d="m 73,344 c 1.031,-3.346 3.875,-1.88 5.849,-1.928 65.298,-1.614 130.612,-0.945 195.92,-1.275 2.662,-0.014 5.326,0.021 7.988,-0.021 2.227,-0.036 3.527,0.776 3.242,3.226 C 215,344 144,344 73,344 z"
   inkscape:connector-curvature="0"
   id="path15"
   style="fill:#5bd6d6" />
	<path
   d="M 15.826,150.188 C 10.884,150.125 5.942,150.063 1,150 c 0,-0.333 0,-0.667 0,-1 4.927,-0.032 9.854,-0.064 14.781,-0.097 0.464,0.412 0.479,0.841 0.045,1.285 z"
   inkscape:connector-curvature="0"
   id="path17"
   style="fill:#433e7e" />
	<path
   d="m 289,1 c -0.334,0 -0.666,0 -1,0 0.334,0 0.666,0 1,0 z"
   inkscape:connector-curvature="0"
   id="path19"
   style="fill:#e45353" />
	<path
   d="m 67.37,319.482 c -0.945,1.738 -1.891,3.479 -2.942,5.412 -15.432,0 -31.063,0 -47.088,0 6.034,-7.73 11.785,-15.39 17.906,-22.738 1.555,-1.866 2.462,-3.709 2.973,-5.928 -0.621,-2.431 0.161,-4.66 1.234,-6.728 7.287,-14.031 8.054,-28.478 3.458,-43.514 -2.58,-8.441 -4.391,-17.073 -1.996,-25.998 2.804,-10.451 9.588,-17.164 19.372,-21.212 6.564,-2.717 13.577,-4.196 19.981,-7.313 4.59,-0.589 9.176,-1.355 13.82,-1.619 2.728,-0.154 5.185,-1.127 5.645,-3.976 1.453,-8.988 5.065,-17.532 5.207,-26.801 0.108,-7.148 -2.728,-11.402 -10.905,-13.975 -6.804,-2.141 -13.804,-3.457 -21.47,-3.681 0.791,1.869 2.352,2.667 3.601,3.762 6.682,5.852 12.45,12.444 16.285,20.548 0.854,1.804 1.49,3.709 1.377,5.781 -0.244,1.866 -0.431,3.725 -0.272,5.605 -1.138,5.139 -4.768,7.369 -9.602,7.88 -14.647,1.548 -27.429,-2.56 -38.187,-12.771 -5.288,-5.021 -8.235,-11.096 -8.841,-18.342 0.43,-2.488 0.487,-4.977 -0.099,-7.457 0.955,-15.939 13.636,-28.316 30.45,-29.409 12.987,-0.845 25.479,0.923 36.966,7.712 2.198,1.299 3.825,3.123 5.839,4.543 2.08,6.564 4.159,13.13 6.314,19.938 10.895,0 21.499,0 32.441,0 -1.533,11.441 -7.617,21.016 -10.008,31.727 -0.291,2.466 -2.224,3.407 -4.166,3.679 -7.268,1.018 -14.164,3.641 -19.066,4.386 12.85,-0.17 27.575,2.151 41.922,7.178 5.166,1.81 9.58,4.576 13.283,8.538 7.655,8.191 7.125,20.74 -1.409,28.016 -6.956,5.932 -15.373,8.526 -24.325,9.189 -4.793,0.354 -9.608,0.863 -14.439,0.625 -0.613,0.095 -1.226,0.189 -1.839,0.285 -0.876,1.354 -2.134,2.17 -3.731,2.146 -12.111,-0.179 -24.278,1.261 -36.315,-1.11 -2.952,-0.582 -5.714,-1.783 -8.324,-3.278 -7.206,-4.128 -9.904,-11.683 -6.708,-18.687 2.697,-5.91 10.182,-8.388 17.7,-5.89 1.275,0.425 2.411,1.108 3.607,1.685 -0.599,-0.394 -1.25,-0.697 -1.849,-1.101 -12.747,-8.551 -20.072,-6.666 -30.417,3.576 -5.375,5.322 -5.3,12.595 -2.815,19.647 2.377,6.746 5.548,13.164 8.448,19.677 5.111,11.477 8.579,23.036 5.43,35.698 -0.158,0.637 0.169,1.313 0.158,1.984 -0.469,4.734 -1.659,9.303 -3.178,13.79 -0.083,3.268 -1.649,5.937 -3.426,8.521 z"
   inkscape:connector-curvature="0"
   id="path21"
   style="fill:#0e4626" />
	<path
   d="m 310.08,336.734 c -7.533,5.425 -16.139,2.99 -24.629,3.804 -1.109,-3.97 -2.111,-7.558 -3.206,-11.474 6.901,-0.071 13.226,-0.754 19.041,-3.323 4.438,-1.962 8.468,-4.747 6.823,-10.813 -4.274,-4.866 -6.881,-10.977 -11.59,-15.547 -2.799,-2.42 -6.196,-2.161 -9.513,-2.165 -22.619,-0.027 -45.239,-0.007 -67.859,-0.016 -2.329,-10e-4 -4.659,0.033 -6.983,-0.122 -6.052,-0.406 -10.575,-4.506 -11.165,-10.085 -0.71,-6.716 2.345,-11.405 8.533,-13.387 2.936,-0.939 5.921,-0.774 8.896,-0.783 20.791,-0.065 41.581,0.004 62.371,-0.057 2.943,-0.01 6.105,0.422 8.152,-2.537 0.289,-3.091 0.719,-6.119 2.074,-9.011 2.022,-4.315 5.025,-7.208 9.905,-7.816 8.317,-2.872 17.283,-2.968 25.515,-6.516 13.61,-5.864 20.659,-18.751 16.522,-31.505 -1.699,-5.24 -5.516,-8.938 -9.595,-12.236 -5.115,-4.138 -10.479,-7.982 -15.886,-11.739 -14.771,-10.263 -14.092,-28.838 3,-36.436 15.467,-6.874 31.829,-7.484 48.324,-7.415 1.027,0.005 2,0.222 2.359,1.404 1.778,1.609 1.989,3.742 1.993,5.949 0.015,7.323 0.271,14.65 -0.229,21.967 0.729,23.744 -0.135,47.503 0.539,71.248 -0.264,0.893 -0.72,1.676 -1.414,2.293 -2.409,1.891 -5.286,1.616 -8.1,1.71 -9.787,0.325 -19.628,-0.86 -29.357,1.006 -8.115,1.558 -15.079,5.356 -20.295,11.732 -5.175,6.327 -6.441,13.435 -3.826,21.519 2.194,6.786 6.235,12.438 9.549,18.547 5.013,9.243 3.891,13.676 -4.971,19.556 -0.694,0.461 -1.397,0.901 -1.897,1.589 -2.25,3.198 0.523,7.851 -3.081,10.659 z"
   inkscape:connector-curvature="0"
   id="path23"
   style="fill:#0e4626" />
	<path
   d="m 471.59,4.401 c 4.848,-0.099 9.695,-0.198 14.543,-0.298 4.084,19.059 -2.258,31.168 -23.652,31.387 -9.062,0.092 -18.125,0.015 -28.258,0.015 11.635,5.126 20.369,12.509 27.896,21.408 5.65,7.685 8.404,16.178 6.895,25.748 -1.726,10.924 -13.568,18.42 -21.977,13.993 -3.796,-1.999 -5.165,-5.201 -3.661,-9.163 1.262,-3.326 3.899,-4.299 7.642,-2.74 0.706,1.329 1.523,2.868 2.372,4.465 3.563,-4.544 2.442,-9.121 -2.916,-10.983 -7.313,-2.543 -13.829,-0.479 -16.63,8.26 -2.555,7.977 2.371,16.632 10.653,18.385 9.399,1.988 18.927,0.468 28.393,0.694 18.781,0.45 23.8,5.352 23.994,24.041 0.072,6.82 0.013,13.643 0.013,20.568 -21.229,0.383 -42.019,-0.987 -62.782,0.336 0.155,-0.405 0.31,-0.806 0.464,-1.206 0.324,-2.563 2.463,-3.437 4.33,-4.41 5.5,-2.868 10.146,-6.764 14.233,-11.377 3.998,-6.428 4.091,-13.175 -0.258,-19.104 -3.319,-4.528 -8.164,-7.769 -14.512,-6.444 -4.218,0.879 -7.763,2.642 -9.136,7.093 0.56,0.483 0.798,0.867 1.019,0.855 6.25,-0.28 10.59,2.025 10.623,8.847 0.026,5.386 -5.799,9.091 -12.072,8.181 -6.053,-0.878 -10.47,-7.307 -9.297,-13.742 2.017,-11.067 7.627,-20.795 11.89,-31.002 9.938,-23.804 3.158,-38.917 -21.563,-47.27 -12.652,-4.273 -25.715,-4.352 -38.834,-3.952 l 0.092,0.095 c 0.035,-4.372 0.069,-8.743 0.104,-13.111 32.525,0.005 65.054,0.01 97.58,-0.018 0.785,-0.001 1.567,-0.373 2.353,-0.571 0.879,-6.309 0.035,-12.659 0.459,-18.98 z"
   inkscape:connector-curvature="0"
   id="path25"
   style="fill:#0e4626" />
	<path
   d="M 92.172,171.393 C 88.093,157.105 76.654,148.78 64.983,138.736 c 13.789,0.874 26.157,0.938 37.217,8.034 4.802,3.081 4.993,7.742 4.848,12.389 -0.338,10.88 -4.119,21.106 -6.086,31.744 -7.015,0.827 -13.599,1.603 -20.183,2.378 -3.284,-0.081 -6.397,2.22 -9.785,0.699 -5.153,-3.935 -11.733,-3.011 -17.472,-5.11 -7.207,-2.638 -13.464,-6.984 -20.334,-10.185 -7.703,-8.333 -13.427,-17.872 -17.362,-28.5 -0.016,-0.426 -0.03,-0.854 -0.045,-1.281 0.1,-1.082 0.2,-2.164 0.301,-3.245 0.789,-3.698 0.481,-7.411 0.158,-11.125 0.841,-10.298 4.229,-19.729 9.682,-28.457 6.683,-9.173 14.871,-16.755 24.341,-22.97 4.394,-2.883 9.766,-2.494 14.502,-4.242 3.452,-1.317 6.911,-1.27 10.375,-0.048 14.277,0.755 20.499,10.998 25.592,22.185 4.121,9.051 7.004,18.587 9.348,28.266 -5.398,-0.404 -9.415,-4.153 -14.282,-5.943 -12.584,-4.629 -25.493,-6.708 -38.061,-1.983 -10.73,4.033 -17.591,12.604 -19.079,24.58 -0.156,2.674 -0.463,5.35 0.17,8.007 3.023,21.469 28.737,31.855 46.896,28.721 3.043,-0.524 5.552,-2.823 6.403,-6.223 0.62,-1.674 0.54,-3.353 0.045,-5.034 z"
   inkscape:connector-curvature="0"
   id="path27"
   style="fill:#ffff00" />
	<path
   d="m 370.689,58.256 c 0,26.113 0,52.228 0,78.917 -15.442,-1.191 -29.146,0.819 -42.8,3.714 -2.321,0.492 -4.327,2.802 -7.014,1.518 -0.122,-2.861 2.125,-3.877 4.012,-5.209 4.921,-3.476 9.648,-7.061 11.304,-13.379 1.596,-6.096 -0.228,-11.614 -5.176,-15.466 -5.178,-4.03 -11.179,-6.477 -16.988,-9.325 -7.785,-3.816 -15.42,-7.873 -20.586,-15.261 -4.163,-5.956 -5.982,-12.538 -5.453,-19.775 0.162,-2.215 0.453,-4.364 2.975,-5.243 0.182,-0.239 0.286,-0.509 0.313,-0.809 2.169,-1.839 4.752,-2.148 7.475,-2.151 21.597,-0.017 43.193,-0.052 64.79,0.04 2.602,0.008 5.439,-0.357 7.148,2.429 z"
   inkscape:connector-curvature="0"
   id="path29"
   style="fill:#1f66e4" />
	<path
   d="m 266.146,57.536 c 5.18,17.827 -3.367,33.829 -21.054,41.624 -11.134,4.907 -22.591,4.521 -33.985,3.864 -14.348,-0.827 -26.563,-0.667 -29.622,17.829 -1.549,9.371 -6.128,18.24 -9.719,28.421 14.16,0 27.183,0 40.228,0 1.766,6.123 5.283,10.894 5.079,17.274 -21.343,0 -42.536,0 -64.936,0 7.547,-20.691 14.966,-41.031 22.401,-61.416 -0.603,-1.789 -2.077,-1.764 -3.644,-1.738 -15.428,0.25 -31.135,0.806 -45.829,-3.942 C 116.55,96.7 107.838,91.812 102.06,84.358 96.264,76.88 93.506,67.978 95.327,58.22 c 0.753,-1.161 1.764,-2.105 3.161,-2.141 5.396,-0.13 10.854,-1.192 16.127,0.846 2.01,1.385 2.304,3.521 2.427,5.718 0.139,2.493 0.119,4.99 0.13,7.486 0.042,9.632 1.1,11.753 10.433,14.106 7.496,1.891 15.076,3.601 22.744,4.979 16.744,3.013 33.546,1.963 50.184,1.18 12.202,-0.573 24.816,-0.968 36.667,-5.494 6.273,-2.396 7.55,-3.549 7.603,-10.431 0.024,-3.159 0.067,-6.316 -0.202,-9.478 -0.245,-2.866 0.015,-5.663 2.237,-7.881 6.49,-2.152 12.926,-1.99 19.308,0.426 z"
   inkscape:connector-curvature="0"
   id="path31"
   style="fill:#1f66e4" />
	<path
   d="m 205.548,194.984 c 6.616,0.623 13.222,1.381 19.849,1.848 24.92,1.754 47.971,-4.338 69.75,-17.372 1.41,3.136 2.658,5.909 3.904,8.683 4.815,8.918 8.844,18.189 12.066,27.783 2.591,7.715 0.803,10.143 -7.221,10.201 -14.123,0.105 -28.248,10e-4 -42.371,0.061 -2.107,0.01 -4.353,-0.438 -6.328,1.166 -1.018,2.851 0.54,5.425 1.154,8.104 0.549,2.404 1.588,4.794 -0.229,7.108 -9.292,-0.081 -18.583,-0.164 -27.874,-0.247 -10.949,0.075 -21.395,-1.628 -30.693,-8.023 -7.662,-5.27 -10.873,-12.526 -9.265,-21.483 1.595,-8.886 7.085,-14.709 15.931,-17.146 0.472,-0.131 0.889,-0.444 1.327,-0.683 z"
   inkscape:connector-curvature="0"
   id="path33"
   style="fill:#0e4626" />
	<path
   d="m 71.991,296.898 c 3.545,-16.764 -3.47,-31.215 -9.782,-45.92 -3.398,-7.916 -8.09,-15.547 -5.563,-25.067 2.124,-8.003 12.026,-16.36 21.385,-16.879 10.097,-0.56 19.649,5.812 22.394,15.616 -6.995,-7.033 -14.341,-9.73 -22.99,-4.658 -5.921,9.742 -1.722,18.481 10.539,21.063 13.471,2.839 27.192,1.56 40.816,1.771 4.073,3.896 9.836,3.703 14.624,6.023 9.947,4.822 19.727,9.699 24.325,20.523 1.684,3.965 2.084,8.476 3.069,12.737 -2.097,11.801 -8.384,21.067 -18.868,26.401 -12.26,6.239 -25.879,7.563 -39.528,7.597 -10.295,0.023 -20.592,-0.105 -30.887,-0.256 -5.078,-0.074 -9.861,0.791 -14.159,3.633 -1.05,-3.119 1.167,-5.647 1.531,-8.51 3.466,-5.056 8.35,-6.378 14.279,-6.213 10.645,0.295 21.302,0.076 31.955,0.081 8.478,0.004 16.434,-3.184 22.695,-7.85 8.047,-5.996 10.979,-20.876 0.755,-30.927 -5.911,-5.811 -13.019,-8.16 -20.537,-8.647 -12.604,-0.817 -25.285,-0.324 -37.934,-0.181 -0.831,0.009 -1.659,0.151 -2.887,1.167 0.016,6.462 3.179,12.142 6.146,17.655 3.673,1.338 7.029,0.646 10.32,0.763 3.325,0.118 6.667,-0.148 9.98,0.184 5.022,0.504 9.051,4.629 9.031,9.058 -0.021,4.429 -4.096,8.763 -9.115,8.892 -6.911,0.176 -13.999,1.393 -20.545,-2.251 -1.286,-0.716 -2.806,-1.068 -4.464,-0.605 -2.404,1.191 -2.474,5.805 -6.585,4.8 z"
   inkscape:connector-curvature="0"
   id="path35"
   style="fill:#1f66e4" />
	<path
   d="m 371.484,248.966 c -0.024,-23.979 -0.049,-47.962 -0.074,-71.942 1.359,-2.19 3.599,-2.151 5.746,-2.17 15.246,-0.129 30.492,-0.131 45.736,0 2.153,0.02 4.385,0.006 5.729,2.205 1.984,11.781 -3.044,21.063 -9.329,30.623 -5.345,8.131 -13.478,13.996 -17.469,23.015 -0.439,0.991 -0.604,2.105 -0.896,3.164 1.205,2.108 1.084,4.438 1.227,6.756 0.566,9.282 10.05,17.837 19.353,17.546 0.319,-0.463 0.176,-0.93 0.008,-1.395 -2.509,-6.912 -1.396,-11.796 3.412,-14.971 4.766,-3.146 12.682,-2.301 17.076,1.984 3.506,3.418 5.218,7.604 4.691,12.592 0.966,7.349 -3.777,11.104 -9.082,14.518 -9.605,5.945 -19.228,5.954 -28.854,0.063 -7.83,-3.663 -14.36,-9.399 -21.776,-13.743 -3.479,-2.037 -7.009,-3.717 -11.056,-4.171 -2.438,-0.272 -4.708,-0.813 -4.442,-4.074 z"
   inkscape:connector-curvature="0"
   id="path37"
   style="fill:#5bd6d6" />
	<path
   d="m 300.934,253.404 c -6.111,3.354 -9.104,8.836 -10.504,15.404 -1.84,3.065 -4.94,2.326 -7.645,2.34 -22.115,0.106 -44.23,0.031 -66.345,0.064 -3.149,0.005 -6.217,0.055 -9.218,1.559 -6.453,3.233 -8.598,6.759 -7.92,14.44 0.509,5.763 4.136,8.502 9.432,10.12 3.256,0.995 6.427,1.466 9.762,1.466 23.778,0 47.556,0.017 71.334,-0.024 3.363,-0.006 6.629,0.218 9.72,1.649 3.729,4.32 8.302,8.144 8.563,14.507 -34.021,0.246 -68.035,0.576 -102.05,0.621 -3.647,0.006 -7.297,-1.65 -10.945,-2.537 -18.617,-11.541 -20.641,-29.466 -11.811,-45.718 4.687,-8.626 13.526,-13.464 22.812,-13.669 31.59,-0.695 63.207,-0.238 94.815,-0.222 z"
   inkscape:connector-curvature="0"
   id="path39"
   style="fill:#1f66e4" />
	<path
   d="m 266.146,57.536 c -6.224,1.636 -12.582,0.307 -18.854,0.852 -2.359,0.258 -3.23,-1.491 -3.932,-3.16 -5.521,-13.124 -16.266,-18.64 -29.583,-18.913 -24.487,-0.504 -48.99,-0.273 -73.485,-0.084 -9.776,0.076 -18.559,7.029 -21.977,16.869 -0.712,2.05 -1.074,4.253 -3.488,5.102 -6.5,0.006 -12.999,0.012 -19.498,0.019 -0.77,-3.379 1.071,-6.35 2.104,-10.183 -4.237,1.884 -5.861,5.248 -7.968,7.947 C 75.451,73.947 51.516,80.129 31.021,70.895 22.2,66.921 14.626,55.562 15.412,47.084 c 23.049,0 46.136,0 69.508,0 4.068,-6.549 8.072,-12.993 12.074,-19.438 5.604,0.034 11.208,0.069 16.813,0.104 5.53,-0.5 11.069,-0.204 16.605,-0.169 6.558,0.043 13.116,0.086 19.674,0.13 3.223,-0.33 6.446,-0.371 9.667,0.022 16.591,-0.021 33.183,-0.041 49.774,-0.062 h -0.03 c 5.044,-0.006 10.089,-0.012 15.14,-0.019 20.053,1.336 34.435,10.536 41.509,29.884 z"
   inkscape:connector-curvature="0"
   id="path41"
   style="fill:#0e4626" />
	<path
   d="m 205.548,194.984 c -0.542,2.367 -2.89,2.604 -4.494,3.523 -7.239,4.152 -11.523,10.401 -11.476,18.568 0.049,8.389 5.406,13.994 12.555,17.768 8.172,4.313 16.945,6.687 26.133,7.473 -32.561,0.965 -65.108,0.612 -97.646,0.226 9.981,-0.468 19.667,-2.323 28.973,-5.997 9.292,-3.668 15.678,-11.361 14.99,-19.172 -0.843,-9.573 -7.467,-14.969 -15.639,-18.307 -15.497,-6.329 -31.944,-7.56 -48.461,-8.074 -2.118,-0.066 -4.241,-0.01 -6.6,-1.403 9.65,-2.235 19.296,-4.485 28.952,-6.696 2.063,-0.474 4.403,-0.057 5.995,-1.959 20.21,0.022 39.226,6.01 58.332,11.603 2.792,0.817 6.019,0.133 8.386,2.447 z"
   inkscape:connector-curvature="0"
   id="path43"
   style="fill:#1f66e4" />
	<path
   d="m 453.141,133.524 c -3.731,8.155 -10.781,12.409 -18.569,15.787 -7.068,-2.201 -14.177,-4.296 -21.205,-6.629 -9.802,-3.252 -19.818,-5.313 -31.375,-6.251 -1.418,-18.004 -0.254,-36.301 -0.55,-55.163 12.843,0 25.017,0 37.771,0 -0.634,5.676 -3.094,10.702 -5.146,15.805 -4.32,10.752 -8.391,21.636 -1.973,32.806 8.748,15.222 26.556,17.7 41.047,3.645 z"
   inkscape:connector-curvature="0"
   id="path45"
   style="fill:#5bd6d6" />
	<path
   d="m 445.154,255.871 c -0.635,-6.627 -3.191,-12.125 -10.167,-13.737 -4.823,-1.114 -9.751,-0.469 -12.216,4.831 -2.392,5.141 -0.659,9.186 5.348,12.486 -7.275,2.781 -12.587,0.566 -17.773,-2.434 -8.592,-4.972 -12.063,-13.554 -9.419,-23.158 2.653,-2.215 5.636,-2.989 9.147,-2.965 16.57,0.117 33.144,0.011 49.715,-0.037 7.439,-0.021 14.303,1.809 20.4,6.188 8.698,7.542 10.551,17.744 11.059,28.468 l -10e-4,-0.02 c 0.017,1.018 0.033,2.035 0.05,3.054 l 0.004,-0.006 c -0.1,0.777 -0.197,1.556 -0.297,2.333 -3.24,3.363 -6.5,2.825 -9.77,0.065 -2.25,-3.478 -0.567,-7.902 -2.318,-11.132 -2.201,-1.886 -4.441,-1.554 -6.564,-1.579 -6.981,-0.086 -13.967,0.026 -20.949,-0.068 -2.346,-0.032 -4.717,-0.019 -6.249,-2.289 z"
   inkscape:connector-curvature="0"
   id="path47"
   style="fill:#0e4626" />
	<path
   d="m 370.975,4.048 c 0.054,6.544 0.107,13.088 0.161,19.624 -15.552,0.443 -31.101,1.143 -46.653,1.252 -8.893,0.063 -17.438,4.08 -26.442,2.01 C 282.843,24.5 279.194,19.03 275.685,4.048 c 31.777,0 63.533,0 95.29,0 z"
   inkscape:connector-curvature="0"
   id="path49"
   style="fill:#0e4626" />
	<path
   d="m 285.148,149.198 c 4.971,0.084 9.942,0.167 14.914,0.251 2.467,2.623 0.639,4.484 -1.129,6.354 l -0.115,0.163 c -0.781,1.382 -0.816,3.173 -2.291,4.174 -3.375,5.88 0.236,12.739 -2.58,18.995 -18.764,0 -37.486,0 -56.794,0 -2.935,-9.93 -7.578,-19.406 -8.105,-30.076 1.449,-1.968 3.569,-2.201 5.765,-2.218 14.874,-0.117 29.748,-0.123 44.621,-0.003 2.246,0.02 4.263,0.474 5.714,2.36 z"
   inkscape:connector-curvature="0"
   id="path51"
   style="fill:#0e4626" />
	<path
   d="m 285.148,149.198 c -18.7,-0.046 -37.4,-0.092 -56.101,-0.138 -0.144,-0.299 -0.289,-0.597 -0.433,-0.896 -0.796,-1.735 -0.917,-3.604 -0.355,-5.34 2.032,-6.28 4.127,-12.545 6.734,-18.617 0.663,-1.546 1.577,-2.934 3.424,-3.3 0.52,-0.407 1.039,-1.17 1.561,-1.172 18.108,-0.063 36.218,-0.051 55.81,-0.051 -3.686,10.232 -7.163,19.873 -10.64,29.514 z"
   inkscape:connector-curvature="0"
   id="path53"
   style="fill:#1f66e4" />
	<path
   d="m 370.689,58.256 c -23.654,0.04 -47.311,0.096 -70.965,0.102 -2.816,0 -5.634,-0.274 -8.451,-0.422 4.104,-11.999 13.725,-16.947 25.168,-18.86 18.098,-3.024 36.394,-2.363 54.649,-1.994 0,10e-4 -0.094,-0.096 -0.094,-0.095 -0.1,7.089 -0.203,14.179 -0.307,21.269 z"
   inkscape:connector-curvature="0"
   id="path55"
   style="fill:#0e4626" />
	<path
   d="m 428.621,177.059 c -19.07,-0.012 -38.141,-0.022 -57.211,-0.035 -0.078,-9.354 -0.157,-18.707 -0.235,-28.061 15.252,-0.896 30.203,0.095 43.729,8.156 7.518,4.483 11.994,11.33 13.717,19.94 z"
   inkscape:connector-curvature="0"
   id="path57"
   style="fill:#1f66e4" />
	<path
   d="m 238.419,120.908 c -3.268,9.085 -6.535,18.17 -9.803,27.256 -3.196,-2.783 -2.674,-7.173 -4.842,-11.069 -10.588,0 -21.49,0 -33.167,0 2.152,-6.104 4.048,-11.482 6.051,-17.164 13.832,0 27.274,-0.008 40.716,0.041 0.349,0.001 0.696,0.61 1.045,0.936 z"
   inkscape:connector-curvature="0"
   id="path59"
   style="fill:#0e4626" />
	<path
   d="m 65.11,77.848 c 3.292,-1.246 6.569,-1.479 9.818,0.147 -3.284,0.727 -6.562,1.014 -9.818,-0.147 z"
   inkscape:connector-curvature="0"
   id="path61"
   style="fill:#e45353" />
	<path
   d="m 65.11,77.848 c 3.272,0.049 6.547,0.099 9.819,0.147 0.083,0.271 0.153,0.545 0.21,0.822 -3.457,0.016 -6.914,0.031 -10.372,0.048 0.113,-0.339 0.228,-0.678 0.343,-1.017 z"
   inkscape:connector-curvature="0"
   id="path63"
   style="fill:#ff8a8a" />
	<path
   d="m 296.527,160.142 c 0.983,-1.271 0.287,-3.464 2.291,-4.174 1.305,2.527 -0.021,3.609 -2.291,4.174 z"
   inkscape:connector-curvature="0"
   id="path65"
   style="fill:#f7f7f7" />
	<path
   d="m 371.484,248.966 c 5.521,3.236 12.381,2.71 17.719,6.909 6.082,4.786 12.811,8.753 19.258,13.076 1.771,2.835 5.564,3.986 6.367,7.637 2.17,3.24 3.43,6.757 3.296,10.701 -0.467,5.109 -2.144,10.395 2.181,14.807 3.566,1.359 7.267,0.856 10.904,0.887 7.49,0.062 14.988,0.238 22.466,-0.06 4.888,-0.194 8.294,1.851 11.081,5.48 3.358,4.374 3.475,17.063 0.235,21.81 -0.157,1.919 0.586,4.064 -1.882,5.922 -9.658,-5.271 -19.722,-2.788 -30.403,-1.795 -19.933,1.854 -40.161,0.533 -60.528,0.533 -0.402,-5.48 -0.8,-10.889 -1.197,-16.296 -2.139,-1.619 -2.145,-3.989 -2.155,-6.314 -0.088,-18.715 -0.081,-37.43 -0.015,-56.145 0.011,-2.376 0.295,-4.632 2.093,-6.411 0.071,-0.345 0.265,-0.592 0.58,-0.741 z"
   inkscape:connector-curvature="0"
   id="path67"
   style="fill:#1f66e4" />
	<path
   d="m 370.902,249.707 c 0.025,22.957 0.052,45.914 0.078,68.87 -12.978,-5.599 -24.979,-4.045 -36.025,4.838 -6.07,4.882 -12.654,8.948 -19.686,12.327 -1.715,0.822 -3.298,1.497 -5.19,0.992 10e-4,-3.953 10e-4,-7.905 10e-4,-11.814 0.296,-0.27 0.498,-0.564 0.775,-0.688 12.336,-5.349 13.639,-11.813 4.606,-22.918 -10.567,-12.995 -11.17,-29.112 -1.829,-38.993 7.915,-8.372 17.737,-11.873 28.876,-12.242 9.459,-0.314 18.93,-0.263 28.394,-0.372 z"
   inkscape:connector-curvature="0"
   id="path69"
   style="fill:#5bd6d6" />
	<path
   d="m 70.994,193.98 c 3.262,-0.233 6.524,-0.468 9.785,-0.7 -7.553,2.885 -15.52,4.645 -22.581,8.862 -12.708,7.592 -17.521,17.582 -15.331,32.228 1.488,9.959 5.516,19.435 5.367,29.719 -0.169,11.738 -2.918,22.595 -10.016,32.138 -8.345,-11.615 -18.135,-22.396 -21.552,-36.886 -4.76,-20.186 3.786,-40.975 20.856,-52.644 10.237,-6.998 21.971,-9.398 33.472,-12.717 z"
   inkscape:connector-curvature="0"
   id="path71"
   style="fill:#1f66e4" />
	<path
   d="m 413.143,277.166 c -1.002,-3.057 -4.362,-4.77 -4.682,-8.215 9.273,5.06 18.59,4.965 27.941,0.219 12.805,-2.488 25.748,-1.063 38.631,-1.333 2.604,-0.054 5.455,-0.313 6.969,2.674 3,0.121 6.001,0.242 9.002,0.363 0,6.455 0,12.911 0,19.966 -19.859,0 -39.738,0 -59.252,0 -1.251,1.823 -1.186,3.007 0.016,4.481 10.066,0 20.358,0.028 30.649,-0.007 16.858,-0.059 28.864,6.928 26.749,26.309 -0.355,3.26 -0.049,6.592 -0.049,10.104 -4.926,0.947 -9.297,-0.239 -13.691,-0.612 -2.257,-3.104 -1.691,-6.708 -1.59,-10.136 0.383,-12.903 -4.188,-16.522 -18,-17.826 -8.573,-0.811 -17.285,-0.12 -25.934,-0.162 -6.156,-0.03 -7.75,-1.557 -8.041,-7.498 -0.613,-12.557 0.446,-13.68 13.041,-13.694 12.143,-0.016 24.285,0.019 36.428,-0.024 1.9,-0.006 3.926,0.355 6.029,-1.149 -2.032,-1.956 -4.262,-1.372 -6.238,-1.38 -16.301,-0.068 -32.602,-0.044 -48.902,-0.025 -3.201,-10e-4 -6.319,-0.186 -9.076,-2.055 z"
   inkscape:connector-curvature="0"
   id="path73"
   style="fill:#e45353" />
	<path
   d="m 413.143,277.166 c 22.743,0 45.486,0 68.677,0 0.116,2.24 0.215,4.146 0.354,6.813 -19.438,0 -38.465,0 -57.89,0 0,5.929 0,11.127 0,17.067 9.629,0 19.055,0.103 28.477,-0.044 4.544,-0.07 8.956,0.338 13.273,1.752 6.251,2.048 9.611,6.293 9.639,12.923 0.021,5.146 -0.148,10.29 -0.24,15.438 -3.482,-0.3 -6.961,-0.602 -10.438,-0.9 -0.095,-5.125 0.163,-10.288 -0.377,-15.367 -0.624,-5.866 -3.677,-9.807 -10.245,-9.817 -12.41,-0.021 -24.821,-0.081 -37.232,-0.126 -1.345,-4.113 -0.313,-8.35 -0.638,-12.515 -0.138,-1.77 0.349,-3.585 -0.388,-5.31 -0.993,-3.307 -1.982,-6.61 -2.972,-9.914 z"
   inkscape:connector-curvature="0"
   id="path75"
   style="fill:#0e4626" />
	<path
   d="m 491.247,265.493 10e-4,0.02 -10e-4,-0.02 z"
   inkscape:connector-curvature="0"
   id="path77"
   style="fill:#e45353" />
	<path
   d="m 491.301,268.541 -0.004,0.005 c 0,0.001 0.004,-0.005 0.004,-0.005 z"
   inkscape:connector-curvature="0"
   id="path79"
   style="fill:#e45353" />
	<path
   d="m 257.969,16.076 c -78.691,0 -156.575,0 -234.417,0 -0.85,-8.266 3.546,-12.177 13.339,-12.175 47.943,0.01 95.888,0.045 143.83,0.063 24.294,0.009 48.587,0.002 73.456,0.002 1.253,4.001 2.466,7.875 3.792,12.11 z"
   inkscape:connector-curvature="0"
   id="path81"
   style="fill:#0e4626" />
	<path
   d="m 130.412,27.581 c -5.542,0.056 -11.083,0.112 -16.615,0.169 5.544,-0.057 11.079,-0.113 16.615,-0.169 z"
   inkscape:connector-curvature="0"
   id="path83"
   style="fill:#e45353" />
	<path
   d="m 159.753,27.733 c -3.232,-0.008 -6.464,-0.016 -9.682,-0.023 3.237,0.008 6.46,0.016 9.682,0.023 z"
   inkscape:connector-curvature="0"
   id="path85"
   style="fill:#e45353" />
	<path
   d="m 209.497,27.672 c 0,0 0.029,0 0.03,0 h -0.03 z"
   inkscape:connector-curvature="0"
   id="path87"
   style="fill:#e45353" />
	<path
   d="m 471.59,4.401 c -0.121,6.33 1.123,12.693 -0.463,18.983 0.045,-6.408 0.088,-12.813 0.135,-19.215 0.002,0.004 0.328,0.232 0.328,0.232 z"
   inkscape:connector-curvature="0"
   id="path89"
   style="fill:#1f66e4" />
	<path
   d="m 16.24,134.534 c 0.712,3.723 0.66,7.434 -0.159,11.13 0.054,-3.713 0.107,-7.422 0.159,-11.13 z"
   inkscape:connector-curvature="0"
   id="path91"
   style="fill:#e45353" />
	<path
   d="m 71.991,296.898 c 1.451,-2.533 2.901,-5.067 4.537,-7.927 6.222,-0.551 11.214,4.233 17.392,4.068 6.1,-0.162 12.216,0.431 17.035,-4.681 0,-1.368 0,-2.857 0.011,-4.35 -1.31,-4.691 -10.785,-6.238 -29.572,-4.734 -2.687,-7.809 -5.405,-15.709 -8.407,-24.433 20.222,0.351 40.32,-3.376 59.521,4.238 7.749,3.074 15.553,11.659 14.769,23.001 -0.702,10.143 -5.513,16.893 -15.113,21.099 -13.208,5.787 -27.003,3.245 -40.584,3.761 -7.771,0.295 -15.797,-1.141 -22.68,4.035 1.028,-4.691 2.059,-9.383 3.091,-14.077 z"
   inkscape:connector-curvature="0"
   id="path93"
   style="fill:#e45353" />
	<path
   d="m 38.829,153.928 c -1.264,-2.644 -1.313,-5.313 -0.17,-8.007 0.056,2.669 0.113,5.338 0.17,8.007 z"
   inkscape:connector-curvature="0"
   id="path95"
   style="fill:#669933" />
	<path
   d="m 92.172,171.393 c 1.016,1.689 0.995,3.37 -0.045,5.037 0.016,-1.682 0.03,-3.36 0.045,-5.037 z"
   inkscape:connector-curvature="0"
   id="path97"
   style="fill:#e45353" />
	<path
   d="m 299.55,300.424 c -8.597,1.34 -17.247,0.481 -25.868,0.551 -19.797,0.157 -39.596,0.108 -59.394,0.063 -8.568,-0.02 -15.575,-4.218 -17.097,-10 -2.528,-9.606 0.545,-16.326 9.714,-21.065 0.971,-0.502 2.124,-0.92 3.193,-0.925 26.777,-0.115 53.557,-0.171 80.332,-0.236 -0.001,1.638 -0.001,3.274 -0.001,4.668 -2.188,1.945 -4.458,1.209 -6.529,1.219 -23.461,0.104 -46.921,0.056 -70.38,0.24 -6.612,0.053 -10.792,3.471 -10.7,10.433 0.087,6.688 4.215,9.707 10.574,10.095 1.493,0.092 2.991,0.133 4.487,0.123 23.459,-0.15 46.918,-0.316 70.377,-0.473 2.486,-0.018 4.973,-0.003 7.373,-0.003 1.4,1.896 2.66,3.603 3.919,5.31 z"
   inkscape:connector-curvature="0"
   id="path99"
   style="fill:#e45353" />
	<path
   d="m 114.827,58.201 c 1.049,-12.076 11.278,-24.64 27.072,-24.632 23.92,0.013 47.85,-0.326 71.756,0.267 16.436,0.407 28.433,8.14 33.638,24.552 0,7.791 0,15.582 0,22.904 -19.845,17.036 -115.397,15.344 -132.466,-2.606 0,-6.326 0,-13.405 0,-20.485 z"
   inkscape:connector-curvature="0"
   id="path101"
   style="fill:#e45353" />
	<path
   d="m 416.111,287.078 c 1.856,5.854 0.205,11.91 1.024,17.824 -2.326,-5.828 -0.703,-11.881 -1.024,-17.824 z"
   inkscape:connector-curvature="0"
   id="path103"
   style="fill:#0929a8" />
	<path
   d="m 212.979,49.093 c 13.372,-0.694 19.771,8.645 17.452,26.643 -32.276,7.535 -64.651,8.018 -96.859,-0.521 -2.674,-16.663 2.281,-26.258 12.948,-26.152 2.242,0.923 2.47,2.874 2.599,4.936 0.133,2.127 -0.2,4.354 1.411,6.755 5.227,2.988 11.511,3.737 17.754,3.964 12.444,0.453 24.882,0.337 37.229,-1.86 3.635,-0.646 5.183,-2.376 5.308,-5.929 0.095,-2.749 -0.521,-5.771 2.158,-7.836 z"
   inkscape:connector-curvature="0"
   id="path105"
   style="fill:#0e4626" />
	<path
   d="m 212.979,49.093 c 0,4.312 0,8.622 0,14.133 -21.849,5.307 -43.753,6.548 -66.46,-0.38 0,-4.588 0,-9.187 0,-13.786 22.153,-0.736 44.306,-0.611 66.46,0.033 z"
   inkscape:connector-curvature="0"
   id="path107"
   style="fill:#f7f7f7" />
</g>
</svg>