<?xml version="1.0" encoding="UTF-8" standalone="no"?>
<!-- Created with Inkscape (http://www.inkscape.org/) -->

<svg
   xmlns:dc="http://purl.org/dc/elements/1.1/"
   xmlns:cc="http://creativecommons.org/ns#"
   xmlns:rdf="http://www.w3.org/1999/02/22-rdf-syntax-ns#"
   xmlns:svg="http://www.w3.org/2000/svg"
   xmlns="http://www.w3.org/2000/svg"
   xmlns:inkscape="http://www.inkscape.org/namespaces/inkscape"
   version="1.2"
   width="960"
   height="292.60699"
   viewBox="0 0 960 292.607"
   id="Layer_1"
   xml:space="preserve"><metadata
   id="metadata199"><rdf:RDF><cc:Work
       rdf:about=""><dc:format>image/svg+xml</dc:format><dc:type
         rdf:resource="http://purl.org/dc/dcmitype/StillImage" /></cc:Work></rdf:RDF></metadata><defs
   id="defs197" />
<g
   id="g3">
	<path
   d="m 0,237.779 c 14.431,0 28.862,0 43.718,0 0,-42.993 0,-85.498 0,-129 -14.615,0 -29.167,0 -43.718,0 0,-5.667 0,-11.333 0,-17 1.823,-2.237 4.243,-2.974 7.047,-2.987 15.07,-0.07 30.14,-0.117 45.211,-0.083 1.981,0.005 4.008,-0.143 5.7,1.232 0.046,18.809 -0.171,37.623 0.195,56.426 0.647,33.241 0.757,66.483 0.783,99.729 0.003,4.111 -1.282,8.205 -0.158,12.326 -1.805,1.519 -3.99,1.439 -6.146,1.444 -15.251,0.033 -30.501,0.035 -45.752,0 -2.501,-0.006 -5.025,0.054 -6.88,-2.087 0,-6.667 0,-13.333 0,-20 z"
   inkscape:connector-curvature="0"
   id="path5"
   style="fill:#96c8eb;fill-rule:evenodd" />
	<path
   d="m 960,138.779 c -4.76,-0.227 -9.564,0.482 -14.707,-0.529 0,-15.71 0,-31.249 0,-46.788 -1.351,-3.987 1.938,-5.826 3.889,-8.233 1.59,-1.964 3.721,-3.643 2.619,-6.658 -2.467,-0.008 -3.275,3.295 -5.827,2.262 -1.77,-2.586 -0.785,-5.509 -0.819,-8.235 -0.184,-14.594 -0.144,-29.189 -0.16,-43.785 0,-0.648 0.2,-1.297 0.389,-2.437 4.783,-1.088 9.754,-0.135 14.617,-0.596 C 960,62.112 960,100.446 960,138.779 z"
   inkscape:connector-curvature="0"
   id="path7"
   style="fill:#96c8eb;fill-rule:evenodd" />
	<path
   d="m 57.958,89.941 c -1.626,1.653 -3.792,1.148 -5.682,1.161 C 36.999,91.207 21.722,91.138 6.444,91.191 4.295,91.198 2.148,91.574 0,91.779 c 0,-5.667 0,-11.333 0,-17 19.056,0 38.113,0 57.313,0 1.173,5.265 0.246,10.248 0.645,15.162 z"
   inkscape:connector-curvature="0"
   id="path9"
   style="fill:#060708;fill-rule:evenodd" />
	<path
   d="m 0,257.779 c 15.947,0.212 31.893,0.433 47.84,0.63 3.645,0.045 7.292,0.011 10.938,0.013 -0.398,2.77 0.568,5.646 -0.659,8.35 -3.115,1.315 -6.228,-0.106 -9.35,-0.068 -14.33,0.173 -28.662,0.093 -42.994,0.058 -1.96,-0.005 -4.036,0.423 -5.775,-0.981 0,-2.669 0,-5.335 0,-8.002 z"
   inkscape:connector-curvature="0"
   id="path11"
   style="fill:#ff9900;fill-rule:evenodd" />
	<path
   d="m 929.97,255.749 c -0.119,-1.955 -0.464,-3.919 0.254,-6.384 9.862,-1.082 19.858,0.204 29.776,-0.586 0,2.333 0,4.667 0,7 -0.246,0.219 -0.465,0.575 -0.744,0.631 -9.809,1.96 -19.6,2.862 -29.286,-0.661 z"
   inkscape:connector-curvature="0"
   id="path13"
   style="fill:#ff9900;fill-rule:evenodd" />
	<path
   d="m 929.97,255.749 c 10.011,0.01 20.021,0.021 30.03,0.03 0,1.333 0,2.667 0,4 -9.918,0 -19.836,0 -29.618,0 -0.952,-1.465 -0.77,-2.741 -0.412,-4.03 z"
   inkscape:connector-curvature="0"
   id="path15"
   style="fill:#e0321c;fill-rule:evenodd" />
	<path
   d="m 0,265.779 c 14.096,0.028 28.192,0.077 42.288,0.074 5.298,-0.001 10.595,-0.098 15.831,0.918 -1.349,1.517 -3.121,0.794 -4.702,0.803 -17.805,0.101 -35.611,0.146 -53.417,0.205 0,-0.667 0,-1.333 0,-2 z"
   inkscape:connector-curvature="0"
   id="path17"
   style="fill:#e45353;fill-rule:evenodd" />
	<path
   d="m 268.876,25.112 c 1.835,-0.146 3.671,-0.29 5.507,-0.436 1.813,2.142 1.633,4.847 2.099,7.375 0.345,1.504 0.667,3.007 0.428,4.565 -0.327,1.976 -0.425,3.959 -0.423,5.961 0.016,25.777 0.044,51.556 -0.031,77.333 -0.01,3.386 0.728,6.589 1.436,9.833 0.273,23.959 0.477,47.92 -0.067,71.881 0.355,3.95 0.254,7.908 0.248,11.866 -0.003,2.069 -0.502,3.904 -1.887,5.465 0,15.61 0,31.221 0,47.829 -44.257,-0.785 -87.821,1.28 -131.872,-0.247 0,-80.853 0,-161.339 0,-242.467 8.367,0 16.645,0 24.921,0 33.201,1.511 66.421,1.309 99.641,1.042 z"
   inkscape:connector-curvature="0"
   id="path19"
   style="fill:#ff9900;fill-rule:evenodd" />
	<path
   d="m 884.834,219.927 c -29.561,-0.065 -59.123,-0.128 -88.684,-0.205 -1.323,-0.003 -2.646,-0.141 -3.969,-0.216 -1.023,-0.929 -0.664,-2.165 -0.665,-3.283 -0.019,-24.079 -0.017,-48.158 -0.014,-72.237 0,-0.831 -0.009,-1.661 0.33,-2.446 -0.026,-8.438 -0.052,-16.876 -0.079,-25.314 -0.42,-2.258 -0.302,-4.523 -0.092,-6.791 0.094,-27.856 0.187,-55.714 0.28,-83.571 1.967,-1.081 4.125,-1.078 6.272,-1.076 14.941,0.014 29.884,-0.061 44.813,0.035 0.824,0.079 1.632,0.225 2.596,1.703 -3.486,7.083 -10.744,11.396 -15.662,17.648 -0.346,0.342 -0.74,0.628 -1.158,0.869 -5.502,4.286 -8.959,10.33 -13.34,15.583 -4.391,4.247 -5.557,10.327 -8.686,15.296 -4.536,7.757 -5.619,16.55 -7.439,25.087 -5.072,23.785 -1.979,46.773 7.18,69.097 0.301,0.405 0.521,0.858 0.672,1.338 0.559,2.387 -0.308,5.265 2.386,6.927 0.859,0.854 1.534,1.819 1.789,3.028 0.644,2.928 1.253,5.875 4.376,7.327 4.025,4.107 7.287,8.876 11.322,12.984 1.029,1.049 1.841,2.312 3.165,3.074 4.343,3.479 8.001,7.888 13.322,10.096 2.072,-2.516 1.329,-5.115 1.331,-7.509 0.049,-57.564 0.028,-115.129 0.051,-172.693 0.002,-3.284 -0.459,-6.717 2.15,-9.431 12.916,-0.929 25.814,-0.444 38.27,-0.249 1.628,2.053 1.123,3.785 1.123,5.392 0.027,61.559 0.04,123.117 -0.071,184.676 -0.003,1.552 1.711,4.172 -1.569,4.861 z"
   inkscape:connector-curvature="0"
   id="path21"
   style="fill:#ff9900;fill-rule:evenodd" />
	<path
   d="m 302.693,215.834 c 0.01,0.95 0.323,1.96 -0.711,2.94 -1.903,0 -3.99,0 -6.077,0 -2.151,-1.658 -1.95,-4.069 -1.97,-6.366 -0.081,-9.269 -0.202,-18.542 0.013,-27.806 0.237,-10.256 -1.986,-20.433 -0.829,-30.704 2.115,-6.609 1.465,-13.436 1.323,-20.173 -0.199,-9.375 1.215,-18.842 -1.337,-28.109 -0.424,-25.051 -0.148,-50.104 -0.168,-75.156 -0.001,-2.033 0.202,-3.997 1.885,-5.448 2.41,0 4.821,0 7.265,0 0.703,1.606 -0.754,3.214 0.168,4.718 0.627,2.059 -0.168,4.241 0.551,6.292 -1.013,23.715 0.064,47.438 -0.304,71.156 -0.069,4.467 0.13,8.938 0.206,13.406 0.284,0.772 0.653,0.733 1.084,0.115 4.297,-32.674 15.691,-62.801 32.527,-91 0.845,-1.415 1.87,-2.146 3.268,-2.646 56.139,81.996 41.234,179.597 0.412,236.907 -7.039,-9.838 -12.992,-20.123 -17.943,-31.029 -6.25,-13.766 -11.408,-27.966 -15.481,-42.466 -2.025,-7.21 -1.827,-15.045 -2.635,-22.597 -0.304,-0.457 -0.618,-0.81 -1.039,-0.105 -0.083,9.328 -0.165,18.656 -0.248,27.985 -0.149,2.03 -0.444,4.064 0.178,6.072 -0.007,1.308 -0.014,2.616 -0.021,3.925 -0.374,0.681 -0.333,1.376 -0.076,2.08 -0.052,1.313 -0.104,2.625 -0.156,3.938 -0.071,1.36 -0.215,2.722 0.115,4.071 z"
   inkscape:connector-curvature="0"
   id="path23"
   style="fill:#060708;fill-rule:evenodd" />
	<path
   d="m 464.052,24.587 c -2.509,-6.44 1.074,-12.695 -0.313,-19.464 21.755,0 42.618,0 63.386,0 0.963,3.459 1.263,208.877 0.262,214.556 -19.734,0 -39.625,0 -59.516,0 -1.678,-1.837 -1.769,-3.818 -0.55,-5.92 2.063,-2.213 4.814,-1.845 7.45,-2.013 3.921,-0.249 7.941,0.706 12.163,-0.896 -0.198,-7.233 -2.137,-14.129 -3.68,-21.022 -4.356,-19.461 -8.008,-39.074 -12.865,-58.43 -1.239,-4.938 -2.164,-10.061 -1.882,-15.256 0.121,-2.225 -0.308,-4.296 -1.62,-6.143 -0.67,-1.646 -0.849,-3.354 -0.663,-5.106 1.02,-6.1 -0.081,-12.191 -0.071,-18.287 0.027,-16.409 1.231,-32.795 0.887,-49.218 -0.095,-4.563 -0.487,-8.882 -2.988,-12.801 z"
   inkscape:connector-curvature="0"
   id="path25"
   style="fill:#96c8eb;fill-rule:evenodd" />
	<path
   d="m 709.855,29.914 c 0.03,27.828 0.041,55.656 0.096,83.483 0.066,32.924 0.166,65.847 0.275,98.77 0.008,2.299 0.223,4.596 0.362,7.296 -18.786,0 -37.358,0 -57.091,0 18.295,-63.482 36.469,-126.549 54.645,-189.614 0.596,-0.652 1.169,-0.661 1.713,0.065 z"
   inkscape:connector-curvature="0"
   id="path27"
   style="fill:#ff9900;fill-rule:evenodd" />
	<path
   d="m 595.789,24.617 c 17.277,0 34.555,0 50.995,0 1.847,1.718 1.572,2.888 1.424,4.034 -1.898,10.574 -4.323,21.011 -7.163,31.387 -8.69,31.761 -17.218,63.568 -25.561,95.423 -5.099,19.466 -11.173,38.668 -15.672,58.295 -0.479,2.087 -0.818,4.293 -2.688,5.754 -0.453,0.094 -0.908,0.188 -1.361,0.281 -0.859,-6.886 -1.885,-13.75 -1.887,-20.722 -0.002,-17.432 0.109,-34.864 -0.084,-52.298 0.602,-3.276 0.736,-6.578 0.73,-9.91 -0.037,-23.588 -0.029,-47.177 -0.006,-70.765 0.004,-2.666 -0.088,-5.31 -0.643,-7.924 -0.221,-9.257 0.66,-18.533 -0.673,-27.783 -0.317,-2.209 -0.311,-4.769 2.589,-5.772 z"
   inkscape:connector-curvature="0"
   id="path29"
   style="fill:#e0321c;fill-rule:evenodd" />
	<path
   d="m 597.125,219.51 c 0.069,-6.063 2.113,-11.73 3.664,-17.469 10.688,-39.543 21.844,-78.964 32.078,-118.623 4.379,-16.969 9.495,-33.744 13.4,-50.836 0.322,-1.407 0.57,-2.98 1.94,-3.931 0,63.408 0,126.816 0,189.93 -2.007,1.599 -3.933,1.187 -5.69,1.2 -14.483,0.113 -28.969,0.134 -43.452,0.153 -0.647,0.002 -1.294,-0.276 -1.94,-0.424 z"
   inkscape:connector-curvature="0"
   id="path31"
   style="fill:#ff9900;fill-rule:evenodd" />
	<path
   d="m 736.893,258.189 c -30.094,11.714 -59.869,23.304 -88.426,34.418 -31.113,-11.544 -60.939,-22.61 -91.359,-33.897 4.497,-3.086 9.175,-4.934 13.736,-6.399 11.873,-3.815 23.011,-9.433 34.734,-13.524 11.78,-4.111 22.884,-9.806 34.584,-14.115 5,-1.842 8.996,0.358 12.838,1.665 18.125,6.167 36.066,12.896 53.93,19.795 9.441,3.646 18.672,7.818 28.547,10.245 0.358,0.087 0.583,0.717 1.416,1.812 z"
   inkscape:connector-curvature="0"
   id="path33"
   style="fill:#96c8eb;fill-rule:evenodd" />
	<path
   d="m 595.789,24.617 c -0.02,9.687 -0.039,19.372 -0.056,29.059 -0.002,1.318 0.02,2.637 0.03,3.955 -0.592,8.983 -0.262,17.978 -0.234,26.965 0.065,20.819 -0.365,41.641 0.229,62.457 0.002,24.246 0.004,48.492 0.006,72.738 -2.904,-3.531 -2.256,-8.16 -3.488,-12.201 -5.58,-18.306 -10.32,-36.869 -15.288,-55.359 -3.049,-11.35 -5.944,-22.74 -8.946,-34.102 -1.48,-5.599 -4.117,-10.902 -4.239,-16.849 -0.015,-0.734 -0.606,-1.128 -1.301,-1.307 -1.515,-0.572 -1.718,-1.876 -1.821,-3.239 1.223,-4.93 0.464,-9.88 0.369,-14.86 -0.336,-17.645 -0.156,-35.296 -0.115,-52.944 0.003,-1.54 0.291,-2.975 1.232,-4.23 1.027,-1.961 2.84,-1.086 4.217,-0.926 7.893,0.924 15.789,-0.111 23.674,0.237 1.869,0.083 3.431,-0.733 5.259,-1.385 0.18,0.762 0.326,1.377 0.472,1.991 z"
   inkscape:connector-curvature="0"
   id="path35"
   style="fill:#96c8eb;fill-rule:evenodd" />
	<path
   d="m 748.137,24.941 c 6.573,-1.242 13.234,0.139 20.803,-1.097 -1.497,65.395 0.578,130.336 0.164,195.689 -6.943,0 -13.534,0 -20.125,0 -2.863,-1.964 -3.051,-4.934 -3.063,-8.004 -0.054,-12.483 -0.021,-24.968 -0.022,-37.451 -0.004,-46.773 -0.021,-93.546 0.032,-140.318 0.002,-3.07 -0.755,-6.443 2.211,-8.819 z"
   inkscape:connector-curvature="0"
   id="path37"
   style="fill:#ff9900;fill-rule:evenodd" />
	<path
   d="m 418.872,59.429 c -0.183,23.086 -0.495,46.172 -0.514,69.259 -0.021,25.402 0.237,50.804 0.347,76.206 0.02,4.477 -0.094,8.953 -0.146,13.43 -0.686,1.525 -2.002,2.284 -3.537,2.324 -5.586,0.145 -11.199,0.844 -16.737,-0.531 -0.616,-0.183 -1.167,-0.49 -1.657,-0.906 -1.285,-1.449 -1.692,-3.241 -1.546,-5.066 0.938,-11.659 -0.642,-23.307 -0.133,-34.966 1.2,-9.283 0.515,-18.606 0.488,-27.901 -0.03,-10.459 0.79,-20.945 -0.619,-31.38 0.213,-17.13 -0.012,-34.262 0.096,-51.393 0.053,-8.425 0.828,-9.241 9.095,-9.187 3.356,0.022 6.634,-0.295 9.866,-1.152 1.786,-0.083 3.787,-0.945 4.997,1.263 z"
   inkscape:connector-curvature="0"
   id="path39"
   style="fill:#060708;fill-rule:evenodd" />
	<path
   d="m 562.178,96.398 c 0.107,1.191 0.215,2.384 0.323,3.575 0,39.728 0,79.455 0,119.535 -6.602,0 -13.162,0 -19.644,0 -1.134,-1.46 -0.758,-3.004 -0.76,-4.461 -0.088,-61.126 -0.159,-122.251 -0.238,-183.377 -0.002,-1.847 0.12,-3.661 0.929,-5.362 2.748,0.721 3.263,3.148 3.897,5.345 4.153,14.387 7.123,29.098 11.496,43.407 2.15,7.035 3.743,14.022 3.997,21.338 z"
   inkscape:connector-curvature="0"
   id="path41"
   style="fill:#ff9900;fill-rule:evenodd" />
	<path
   d="m 449.959,219.523 c -5.122,0 -10.245,0 -15.99,0 -0.441,-64.819 -0.341,-129.398 0,-194.364 5.459,-0.326 10.696,-1.511 16.026,-0.202 2.927,4.711 1.717,10.067 1.853,15.04 0.607,22.282 0.235,44.581 0.255,66.874 0.031,34.771 0.034,69.542 -0.027,104.313 -0.006,2.903 0.71,6.103 -2.117,8.339 z"
   inkscape:connector-curvature="0"
   id="path43"
   style="fill:#ff9900;fill-rule:evenodd" />
	<path
   d="m 449.959,219.523 c 0.012,-64.855 0.024,-129.711 0.036,-194.566 0.273,-0.046 0.532,-0.002 0.774,0.133 2.082,1.158 2.735,3.141 3.306,5.3 3.398,12.85 4.862,26.079 7.761,39.034 1.805,8.066 3.735,16.132 4.878,24.356 0.499,3.587 -0.167,7.295 1.203,10.77 0.176,1.927 0.352,3.854 0.528,5.78 0.763,8.23 1.502,16.487 1.582,24.734 0.227,23.56 0.099,47.122 0.061,70.684 -0.004,2.784 0.422,5.71 -1.811,8.01 -0.135,1.974 -0.271,3.947 -0.406,5.921 -5.971,-0.052 -11.941,-0.104 -17.912,-0.156 z"
   inkscape:connector-curvature="0"
   id="path45"
   style="fill:#e0321c;fill-rule:evenodd" />
	<path
   d="m 748.137,24.941 c -0.027,62.732 -0.063,125.465 -0.042,188.196 10e-4,2.133 0.576,4.265 0.884,6.396 -4.979,0.217 -9.955,0.374 -14.907,-0.389 -2.634,-1.868 -2.134,-4.713 -2.146,-7.307 -0.084,-17.481 -0.039,-34.963 -0.039,-52.443 -10e-4,-41.955 -0.025,-83.91 0.037,-125.865 0.004,-3.06 -0.786,-6.461 2.354,-8.73 4.618,0.057 9.245,-0.574 13.859,0.142 z"
   inkscape:connector-curvature="0"
   id="path47"
   style="fill:#e0321c;fill-rule:evenodd" />
	<path
   d="m 904.299,24.235 c 3.775,-0.278 7.553,-0.725 11.648,0.054 0,65.039 0,129.886 0,195.068 -3.84,0.948 -7.787,0.425 -11.705,0.397 -1.391,-1.401 -0.705,-3.164 -0.705,-4.74 -0.041,-62.028 -0.041,-124.057 -0.001,-186.084 0.001,-1.564 -0.716,-3.336 0.763,-4.695 z"
   inkscape:connector-curvature="0"
   id="path49"
   style="fill:#ff9900;fill-rule:evenodd" />
	<path
   d="m 734.277,24.8 c -0.063,53.791 -0.125,107.583 -0.186,161.375 -0.012,10.99 -0.014,21.98 -0.021,32.971 -3.729,1.475 -7.495,0.371 -11.978,0.631 0,-65.257 0,-130.053 0,-194.977 4.33,0 8.258,0 12.185,0 z"
   inkscape:connector-curvature="0"
   id="path51"
   style="fill:#96c8eb;fill-rule:evenodd" />
	<path
   d="m 61.137,158.065 c 2.493,-13.037 5.631,-25.703 13.459,-36.946 8.812,-12.655 30.337,-19.595 44.531,-1.379 8.752,11.232 12.659,24.407 14.788,38.131 1.557,10.033 1.473,20.188 0.33,30.328 -1.395,12.378 -5.577,23.81 -13.56,33.199 -14.5,17.055 -36.259,13.705 -47.687,-3.269 -7.208,-10.707 -11.424,-22.57 -12.089,-35.57 -0.997,-2.606 0.081,-5.383 -0.655,-8.011 -0.002,-2.178 -0.004,-4.354 -0.006,-6.532 0.922,-3.261 -0.647,-6.745 0.889,-9.951 z"
   inkscape:connector-curvature="0"
   id="path53"
   style="fill:#e0321c;fill-rule:evenodd" />
	<path
   d="m 294.82,25.012 c 0.105,19.077 0.214,38.154 0.316,57.231 0.042,7.796 0.068,15.591 0.101,23.387 0.473,16.118 0.349,32.236 0.065,48.355 0.143,17.954 0.292,35.909 0.423,53.863 0.026,3.644 -0.84,7.299 0.179,10.926 -4.237,1.733 -8.641,1.016 -12.937,0.577 -2.27,-0.231 -4.501,-0.574 -6.784,-0.396 -0.863,-5.732 -0.324,-11.467 -0.018,-17.2 2.486,-3.242 6.81,-0.986 10.719,-3.992 0.115,-53.794 0.068,-108.355 -0.261,-161.326 -3.768,-4.885 -8.655,-1.257 -11.117,-4.899 -1.983,-2.023 -0.992,-4.534 -1.125,-6.861 6.809,0.438 13.644,-0.858 20.439,0.335 z"
   inkscape:connector-curvature="0"
   id="path55"
   style="fill:#96c8eb;fill-rule:evenodd" />
	<path
   d="m 414.925,60.039 c -5.836,1.292 -11.903,-0.239 -18.139,1.209 0,19.628 0,39.021 0,58.415 -0.426,20.053 -0.576,40.105 0.081,60.157 0.289,12.906 1.029,25.809 0.366,38.724 2.281,3.876 0.862,8.136 1.265,12.205 0.204,9.4 -0.434,18.813 0.382,28.202 0.195,1.853 -0.018,3.627 -1.081,5.212 -1.012,1.502 -2.763,0.831 -4.084,1.409 -1.412,-0.332 -2.989,0.211 -4.287,-0.65 1.002,-7.891 0.401,-15.66 0.465,-23.41 0.131,-15.803 0.019,-31.609 -0.006,-47.414 -0.028,-17.518 -0.14,-35.036 -0.046,-52.554 0.017,-3.233 -1.671,-6.471 -0.032,-9.698 -0.479,-1.398 -0.371,-2.809 -0.092,-4.224 0.005,-1.233 0.011,-2.467 0.016,-3.699 -0.368,-3.775 -0.391,-7.55 0.013,-11.324 0,-17.354 0,-34.708 0,-52.022 2.364,-1.278 4.749,-0.303 6.988,-0.742 4.428,-3.139 14.18,-3.029 18.191,0.204 z"
   inkscape:connector-curvature="0"
   id="path57"
   style="fill:#e0321c;fill-rule:evenodd" />
	<path
   d="m 393.715,265.572 c 1.031,-0.391 2.327,-0.104 3.476,-1.783 0,-0.853 0,-2.29 0,-3.728 0.699,-9.735 0.122,-19.483 0.312,-29.225 0.389,-4.033 -0.8,-8.15 0.649,-12.126 6.802,-0.129 13.604,-0.259 20.407,-0.388 2.078,15.489 1.121,31.03 1.356,47.024 -9.086,0.795 -17.648,0.315 -26.2,0.226 z"
   inkscape:connector-curvature="0"
   id="path59"
   style="fill:#96c8eb;fill-rule:evenodd" />
	<path
   d="M 52.163,56.187 C 49.479,42.623 51.054,29.61 56.389,16.815 58.735,11.189 61.727,6.279 65.967,2.004 67.191,0.771 68.342,-0.333 70.232,0.093 93.846,25.907 91.06,66.48 68.679,87.091 61.505,79.754 56.495,71.203 53.783,61.302 c -0.59,-1.69 0.154,-3.801 -1.62,-5.115 z"
   inkscape:connector-curvature="0"
   id="path61"
   style="fill:#96c8eb;fill-rule:evenodd" />
	<path
   d="m 945.974,78.832 c 2.31,-1.087 3.091,-3.738 5.335,-5.213 2.508,1.052 2.857,3.187 2.92,5.42 -2.523,4.651 -7.219,7.475 -8.936,12.423 -6.261,6.839 -9.121,15.424 -11.301,24.048 -5.063,20.031 -4.613,39.971 3.886,59.112 4.108,9.253 9.103,18.117 16.247,25.45 -0.734,2.026 -2.417,2.911 -3.592,4.128 -1.1,0.203 -1.646,-0.501 -2.146,-1.122 -17.214,-21.378 -25.552,-45.424 -22.961,-73.147 1.793,-19.198 9.416,-35.789 20.548,-51.099 z"
   inkscape:connector-curvature="0"
   id="path63"
   style="fill:#e0321c;fill-rule:evenodd" />
	<path
   d="m 414.925,60.039 c -6.064,-0.068 -12.128,-0.137 -18.192,-0.205 -1.22,-11.401 0.095,-22.804 -0.39,-34.618 7.844,-1.056 15.354,-0.079 22.528,-0.542 0,11.979 0,23.366 0,34.755 -1.315,0.203 -2.63,0.407 -3.946,0.61 z"
   inkscape:connector-curvature="0"
   id="path65"
   style="fill:#ff9900;fill-rule:evenodd" />
	<path
   d="m 467.917,104.55 c -2.52,-4.457 -2.42,-9.599 -3.49,-14.395 -4.823,-21.628 -9.152,-43.367 -13.659,-65.065 4.428,-0.168 8.855,-0.336 13.283,-0.503 1.129,0.184 2.258,0.366 4.095,0.665 1.115,26.39 -0.155,52.848 -0.229,79.298 z"
   inkscape:connector-curvature="0"
   id="path67"
   style="fill:#060708;fill-rule:evenodd" />
	<path
   d="m 562.178,96.398 c -2.663,-9.663 -5.205,-19.36 -8.018,-28.979 -3.989,-13.65 -6.48,-27.713 -11.372,-41.11 0.146,-2.245 1.849,-1.384 2.982,-1.407 5.464,-0.114 10.931,-0.143 16.396,-0.202 1.371,10.952 0.383,21.938 0.471,32.908 0.095,11.657 0.203,23.314 0.293,34.973 0.009,1.315 0.187,2.681 -0.752,3.817 z"
   inkscape:connector-curvature="0"
   id="path69"
   style="fill:#060708;fill-rule:evenodd" />
	<path
   d="m 884.834,219.927 c 1.389,-1.104 1.125,-2.66 1.125,-4.138 0.022,-62.208 0.043,-124.416 0.053,-186.624 0,-0.819 -0.145,-1.638 -0.275,-3.042 -12.902,-0.898 -25.806,-0.296 -38.69,-0.402 -0.653,0.651 -1.295,0.651 -1.925,-0.035 -17.727,0.06 -35.452,0.118 -53.179,0.177 0.095,-1.146 0.813,-1.53 1.855,-1.518 29.892,-0.146 59.783,-0.024 89.675,-0.062 0.832,-0.002 1.662,-0.008 2.438,0.362 1.855,1.332 1.221,3.297 1.219,5.054 -0.055,42.233 -0.146,84.467 -0.201,126.701 -0.024,19.952 0.043,39.904 -0.033,59.855 -0.007,1.364 1.448,4.066 -2.062,3.672 z"
   inkscape:connector-curvature="0"
   id="path71"
   style="fill:#e45353;fill-rule:evenodd" />
	<path
   d="m 904.299,24.235 c -0.063,26.267 -0.176,52.533 -0.177,78.8 -0.002,38.907 0.076,77.813 0.12,116.72 -1.61,-1.063 -0.945,-2.68 -0.946,-4.097 -0.063,-58.806 -0.164,-117.61 -0.069,-176.415 0.008,-4.978 -1.093,-10.143 1.072,-15.008 z"
   inkscape:connector-curvature="0"
   id="path73"
   style="fill:#e45353;fill-rule:evenodd" />
	<path
   d="m 885.91,24.646 c -29.883,0.009 -59.767,0.021 -89.649,0.014 -0.821,-0.001 -1.642,-0.205 -2.463,-0.314 0.966,-0.19 1.931,-0.547 2.896,-0.546 28.46,0.041 56.92,0.112 85.379,0.206 1.293,0.003 2.689,-0.345 3.837,0.64 z"
   inkscape:connector-curvature="0"
   id="path75"
   style="fill:#ff8a8a;fill-rule:evenodd" />
	<path
   d="m 791.833,141.539 c 0.078,19.491 0.153,38.981 0.235,58.472 0.027,6.499 0.075,12.997 0.113,19.495 -1.195,-0.771 -1.016,-2.005 -1.016,-3.145 0,-23.978 0.006,-47.955 0.05,-71.933 0.003,-0.963 0.403,-1.926 0.618,-2.889 z"
   inkscape:connector-curvature="0"
   id="path77"
   style="fill:#e45353;fill-rule:evenodd" />
	<path
   d="m 389.745,112.599 c 0.4,3.774 0.43,7.55 -0.013,11.324 -1.002,-3.777 -1.082,-7.551 0.013,-11.324 z"
   inkscape:connector-curvature="0"
   id="path79"
   style="fill:#e45353;fill-rule:evenodd" />
	<path
   d="m 303.791,120.699 c -0.1,1.381 0.511,2.847 -0.755,4.484 -0.865,-1.647 -0.634,-3.118 -0.33,-4.6 0.361,0.039 0.723,0.078 1.085,0.116 z"
   inkscape:connector-curvature="0"
   id="path81"
   style="fill:#98d4dc;fill-rule:evenodd" />
	<path
   d="m 61.137,158.065 c 0.039,3.347 0.207,6.705 -0.888,9.951 -0.196,-3.361 -0.776,-6.756 0.888,-9.951 z"
   inkscape:connector-curvature="0"
   id="path83"
   style="fill:#f5859d;fill-rule:evenodd" />
	<path
   d="m 52.163,56.187 c 3.06,0.907 1.076,3.411 1.62,5.115 -0.541,-1.705 -1.08,-3.41 -1.62,-5.115 z"
   inkscape:connector-curvature="0"
   id="path85"
   style="fill:#e45353;fill-rule:evenodd" />
	<path
   d="m 60.254,174.549 c 0.935,2.612 0.842,5.308 0.655,8.011 -1.485,-2.567 -0.816,-5.31 -0.655,-8.011 z"
   inkscape:connector-curvature="0"
   id="path87"
   style="fill:#f5859d;fill-rule:evenodd" />
	<path
   d="m 302.83,201.821 c -1.033,-1.996 -1.221,-4.017 -0.178,-6.072 0.06,2.023 0.119,4.048 0.178,6.072 z"
   inkscape:connector-curvature="0"
   id="path89"
   style="fill:#3f3f3f;fill-rule:evenodd" />
	<path
   d="m 791.662,109.434 c 0.031,2.264 0.062,4.527 0.092,6.791 -1.398,-2.246 -1.082,-4.514 -0.092,-6.791 z"
   inkscape:connector-curvature="0"
   id="path91"
   style="fill:#e45353;fill-rule:evenodd" />
	<path
   d="m 709.855,29.914 c -0.571,-0.022 -1.143,-0.044 -1.713,-0.065 -0.042,-1.294 0.105,-2.496 1.477,-3.142 0.687,1.059 0.537,2.128 0.236,3.207 z"
   inkscape:connector-curvature="0"
   id="path93"
   style="fill:#e45353;fill-rule:evenodd" />
	<path
   d="m 302.9,167.764 c -1.159,-1.142 -0.112,-1.949 0.273,-3.158 1.185,1.133 0.929,2.207 0.766,3.264 -0.347,-0.036 -0.693,-0.071 -1.039,-0.106 z"
   inkscape:connector-curvature="0"
   id="path95"
   style="fill:#3f3f3f;fill-rule:evenodd" />
	<path
   d="m 302.804,36.021 c -0.184,-2.098 -0.367,-4.195 -0.551,-6.292 1.671,1.967 0.853,4.153 0.551,6.292 z"
   inkscape:connector-curvature="0"
   id="path97"
   style="fill:#98d4dc;fill-rule:evenodd" />
	<path
   d="m 389.716,127.622 c 0.031,1.408 0.062,2.815 0.092,4.224 -0.94,-1.389 -0.813,-2.8 -0.092,-4.224 z"
   inkscape:connector-curvature="0"
   id="path99"
   style="fill:#e45353;fill-rule:evenodd" />
	<path
   d="m 302.693,215.834 c -0.833,-1.334 -1.083,-2.686 -0.116,-4.07 0.039,1.356 0.077,2.714 0.116,4.07 z"
   inkscape:connector-curvature="0"
   id="path101"
   style="fill:#3f3f3f;fill-rule:evenodd" />
	<path
   d="m 302.733,207.826 c -0.672,-0.719 -0.509,-1.407 0.076,-2.08 -0.025,0.693 -0.051,1.387 -0.076,2.08 z"
   inkscape:connector-curvature="0"
   id="path103"
   style="fill:#3f3f3f;fill-rule:evenodd" />
	<path
   d="m 214.208,57.784 c 16.162,1.746 27.99,10.876 37.19,23.294 13.848,18.691 19.574,40.355 20.628,63.338 0.843,18.37 -0.155,36.664 -5.908,54.243 -5.011,15.313 -13.046,29.113 -25.238,39.897 -7.682,6.796 -16.932,10.385 -27.5,9.466 -2.283,2.139 -4.924,1.518 -7.534,0.941 -12.132,-2.676 -21.235,-9.947 -28.716,-19.414 -13.991,-17.707 -21.354,-37.932 -23.307,-60.417 -1.1,-12.659 -1.092,-25.147 1.183,-37.634 0.657,-1.595 1.391,-3.174 1.157,-4.982 0.031,-1.713 0.205,-3.383 1.536,-4.658 2.502,-1.591 0.113,-3.759 0.629,-5.591 4.717,-20.324 13.338,-38.303 30.5,-51.24 6.038,-4.551 13.098,-6.422 20.215,-8.21 1.821,-0.457 3.657,-0.482 5.165,0.967 z"
   inkscape:connector-curvature="0"
   id="path105"
   style="fill:#e0321c;fill-rule:evenodd" />
	<path
   d="m 275.508,31.538 c 3.935,0.24 7.857,-1.058 12.187,0.037 2.214,8.612 1.409,17.625 1.039,26.485 -0.27,6.475 0.112,12.878 0.137,19.315 0.158,39.793 0.143,79.586 0.174,119.379 10e-4,1.484 0.118,3.029 -1.354,4.505 -3.596,0.915 -7.587,0.284 -11.524,0.496 -0.134,-20.098 -0.264,-40.195 -0.405,-60.293 -0.026,-3.821 -0.096,-7.642 -0.146,-11.463 -0.265,-29.602 -0.032,-59.203 -0.128,-88.805 -0.006,-1.814 0.308,-3.66 -0.328,-5.441 -0.09,-1.421 -0.474,-2.868 0.348,-4.215 z"
   inkscape:connector-curvature="0"
   id="path107"
   style="fill:#ecdee3;fill-rule:evenodd" />
	<path
   d="m 158.98,121.742 c -1.152,1.496 -0.879,3.282 -1.015,4.985 -1.116,1.533 0.171,3.503 -0.917,5.041 -1.954,9.988 -2.229,20.103 -1.75,30.204 0.786,16.546 3.911,32.65 11.517,47.514 5.974,11.675 12.853,22.792 23.944,30.535 6.811,4.754 14.213,7.787 22.621,8.001 0.689,2.488 0.814,4.911 -1.19,7.617 -8.69,-0.509 -16.712,-3.857 -23.917,-8.877 -17.64,-12.292 -28.175,-29.52 -34.746,-49.784 -5.071,-15.641 -5.797,-31.55 -5.665,-47.7 0.18,-21.802 4.457,-42.741 14.815,-61.931 10.039,-18.598 24.634,-32.139 46.405,-36.008 0.974,-0.174 1.966,-0.296 2.952,-0.318 0.46,-0.01 0.928,0.276 1.471,0.453 1.101,2.01 0.241,4.244 0.701,6.31 -4.771,0.512 -9.339,1.92 -13.885,3.325 -8.639,2.671 -15.091,8.533 -20.76,15.215 -10.065,11.865 -16.415,25.598 -19.597,40.81 -1.141,1.361 0.235,3.262 -0.984,4.608 z"
   inkscape:connector-curvature="0"
   id="path109"
   style="fill:#ecdee3;fill-rule:evenodd" />
	<path
   d="m 275.159,35.754 c 1.019,1.107 0.797,2.49 0.798,3.8 0.016,29.161 0.022,58.321 0.009,87.482 0,0.988 -0.228,1.977 -0.35,2.964 -0.77,-1.196 -0.667,-2.549 -0.668,-3.873 -0.018,-29.299 -0.033,-58.598 -0.033,-87.896 0,-0.826 0.159,-1.651 0.244,-2.477 z"
   inkscape:connector-curvature="0"
   id="path111"
   style="fill:#ff8a8a;fill-rule:evenodd" />
	<path
   d="m 845.121,25.686 c 0.643,0.012 1.283,0.023 1.925,0.035 0,64.187 0,128.373 0,194.075 -8.173,-4.149 -14.157,-8.884 -19.02,-15.137 -0.057,-0.323 -0.113,-0.646 -0.17,-0.97 -0.482,-1.968 -0.345,-3.975 -0.346,-5.969 -0.009,-48.795 -0.016,-97.589 0.017,-146.384 0.002,-2.609 -0.584,-5.383 1.365,-7.672 1.881,-4.476 6.072,-6.913 9.132,-10.35 2.31,-2.593 5.24,-4.613 7.097,-7.628 z"
   inkscape:connector-curvature="0"
   id="path113"
   style="fill:#e0321c;fill-rule:evenodd" />
	<path
   d="m 815.049,59.701 c 1.309,4.882 -0.086,9.775 -0.047,14.666 0.203,25.071 -0.295,50.149 0.082,75.217 0.186,12.41 -0.415,24.784 -0.408,37.177 -3.221,-0.155 -3.273,-3.21 -4.634,-5.067 -0.063,-1.1 -0.279,-2.081 -1.675,-2.138 -2.557,-1.896 -0.085,-5.482 -2.496,-7.427 l 0.092,-0.411 c -1.375,-4.479 -2.09,-9.048 -2.084,-13.748 0.025,-23.488 0.027,-46.977 -0.003,-70.464 -0.005,-4.362 0.397,-8.628 2.044,-12.709 1.959,-5.688 4.226,-11.189 9.129,-15.096 z"
   inkscape:connector-curvature="0"
   id="path115"
   style="fill:#96c8eb;fill-rule:evenodd" />
	<path
   d="m 827.97,204.304 c 0.013,-32.133 0.032,-64.266 0.038,-96.398 0.004,-21.312 -0.014,-42.622 -0.021,-63.934 0.263,-0.217 0.564,-0.319 0.905,-0.307 0.037,21.95 0.084,43.9 0.112,65.85 0.038,30.437 0.067,60.872 0.07,91.309 0.001,1.228 0.55,2.734 -1.104,3.48 z"
   inkscape:connector-curvature="0"
   id="path117"
   style="fill:#f5859d;fill-rule:evenodd" />
	<path
   d="m 810.042,181.693 c 2.339,0.963 2.265,4.132 4.634,5.067 0.184,0.897 0.367,1.796 0.55,2.694 -4.554,-0.699 -4.529,-4.457 -5.184,-7.761 z"
   inkscape:connector-curvature="0"
   id="path119"
   style="fill:#e45353;fill-rule:evenodd" />
	<path
   d="m 805.871,172.129 c 3.008,1.743 1.98,4.845 2.496,7.427 -2.695,-1.85 -2.519,-4.664 -2.496,-7.427 z"
   inkscape:connector-curvature="0"
   id="path121"
   style="fill:#e45353;fill-rule:evenodd" />
	<path
   d="m 329.521,219.816 c -8.794,-21.321 -13.737,-43.493 -14.912,-66.872 16.446,0 32.67,0 49.059,0 -1.674,21.204 -5.044,41.905 -12.645,61.749 -0.699,1.823 -1.057,3.879 -3.055,4.901 -6.104,3.794 -12.261,3.164 -18.447,0.222 z"
   inkscape:connector-curvature="0"
   id="path123"
   style="fill:#96c8eb;fill-rule:evenodd" />
	<path
   d="m 320.668,96.44 c 4.254,-16.465 10.652,-31.075 18.094,-46.322 8.361,15.188 14.559,30.171 17.8,46.322 -11.884,0 -23.499,0 -35.894,0 z"
   inkscape:connector-curvature="0"
   id="path125"
   style="fill:#96c8eb;fill-rule:evenodd" />
	<path
   d="m 359.102,105.725 c 1.477,5.15 1.581,10.596 2.211,16.44 -15.241,1.251 -30.104,-0.702 -45.326,0.021 -0.39,-5.517 2.743,-10.532 1.826,-16.461 13.772,0 27.164,0 41.289,0 z"
   inkscape:connector-curvature="0"
   id="path127"
   style="fill:#96c8eb;fill-rule:evenodd" />
	<path
   d="m 329.521,219.816 c 6.149,-0.074 12.298,-0.147 18.447,-0.222 -0.191,7.822 -5.448,13.485 -8.405,21.201 -5.542,-6.704 -6.977,-14.247 -10.042,-20.979 z"
   inkscape:connector-curvature="0"
   id="path129"
   style="fill:#ecdee3;fill-rule:evenodd" />
	<path
   d="m 295.303,153.985 c -0.386,-16.118 -0.442,-32.236 -0.065,-48.355 0.902,1.335 0.697,2.854 0.7,4.329 0.03,13.397 0.049,26.795 0.066,40.191 10e-4,1.319 0.099,2.661 -0.701,3.835 z"
   inkscape:connector-curvature="0"
   id="path131"
   style="fill:#433e7e;fill-rule:evenodd" />
	<path
   d="m 521.713,213.528 c -10.195,0 -19.621,0 -30.117,0 9.422,-48.566 19.41,-96.467 30.117,-144.269 0,47.941 0,95.882 0,144.269 z"
   inkscape:connector-curvature="0"
   id="path133"
   style="fill:#ecdee3;fill-rule:evenodd" />
	<path
   d="m 468.277,213.758 c -10e-4,-30.319 -0.01,-60.64 0.003,-90.959 0.001,-4.156 0.107,-8.313 0.165,-12.469 1.476,0.063 1.414,1.207 1.384,2.156 -0.312,9.824 2.93,19.014 4.969,28.425 5.027,23.201 9.966,46.423 14.91,69.642 0.166,0.779 0.021,1.624 0.021,3.205 -7.268,0 -14.36,0 -21.452,0 z"
   inkscape:connector-curvature="0"
   id="path135"
   style="fill:#ecdee3;fill-rule:evenodd" />
	<path
   d="m 469.742,23.38 c -1.557,-4.18 0.851,-7.785 0.314,-12.059 17.228,0 34.145,0 51.188,0 1.375,4.041 0.791,7.795 0.553,12.059 -17.318,0 -34.5,0 -52.055,0 z"
   inkscape:connector-curvature="0"
   id="path137"
   style="fill:#ecdee3;fill-rule:evenodd" />
	<path
   d="m 595.758,147.053 c -1.312,-5.391 -0.791,-10.887 -0.809,-16.332 -0.076,-22.419 -0.023,-44.839 0.023,-67.258 0.004,-1.959 -0.338,-4.008 0.791,-5.832 0.078,17.651 0.207,35.304 0.219,52.955 0.008,12.156 -0.144,24.311 -0.224,36.467 z"
   inkscape:connector-curvature="0"
   id="path139"
   style="fill:#433e7e;fill-rule:evenodd" />
	<path
   d="m 601.43,258.148 c 15.05,-7.356 29.766,-12.256 44.369,-18.232 14.478,5.704 29.307,11.145 43.652,17.547 -0.465,1.614 -1.292,1.834 -2.039,2.14 -12.315,5.048 -24.652,10.044 -36.926,15.189 -1.804,0.756 -3.47,1.197 -5.26,0.5 -14.154,-5.516 -28.294,-11.069 -43.796,-17.144 z"
   inkscape:connector-curvature="0"
   id="path141"
   style="fill:#ecdee3;fill-rule:evenodd" />
	<path
   d="m 396.867,179.82 c -0.861,-0.95 -0.792,-2.133 -0.793,-3.283 -0.007,-17.854 -0.007,-35.71 -0.009,-53.565 0,-1.155 -0.08,-2.328 0.721,-3.309 0.027,20.053 0.054,40.105 0.081,60.157 z"
   inkscape:connector-curvature="0"
   id="path143"
   style="fill:#3f3f3f;fill-rule:evenodd" />
	<path
   d="m 398.151,218.711 c -0.115,4.026 -0.229,8.053 -0.344,12.079 -0.222,-0.021 -0.443,-0.042 -0.665,-0.063 0.03,-4.062 0.06,-8.122 0.089,-12.184 0.327,-0.051 0.633,0.005 0.92,0.168 z"
   inkscape:connector-curvature="0"
   id="path145"
   style="fill:#f5859d;fill-rule:evenodd" />
	<path
   d="m 127.541,172.313 c -0.35,10.153 -0.648,17.663 -2.564,24.915 -3.201,12.117 -8.327,22.96 -21.296,27.484 -6.833,2.383 -16.879,-1.185 -21.678,-6.688 -8.032,-9.21 -12.222,-20.219 -13.667,-31.915 -2.373,-19.208 -0.564,-38.079 8.787,-55.584 0.781,-1.463 1.668,-2.878 2.604,-4.247 9.162,-13.396 24.219,-14.113 34.212,-1.354 6.812,8.696 10.335,18.951 11.951,29.769 1.004,6.716 1.286,13.54 1.651,17.62 z"
   inkscape:connector-curvature="0"
   id="path147"
   style="fill:#ff9900;fill-rule:evenodd" />
	<path
   d="m 397.143,230.728 c 0.222,0.02 0.443,0.041 0.665,0.063 -0.157,9.758 1.049,19.545 -0.617,29.271 -0.016,-9.779 -0.032,-19.557 -0.048,-29.334 z"
   inkscape:connector-curvature="0"
   id="path149"
   style="fill:#ff8a8a;fill-rule:evenodd" />
	<path
   d="m 61.887,19.625 c 1.712,-3.729 3.557,-7.366 6.813,-10.254 4.553,2.158 5.148,6.851 7.286,10.448 1.396,0.977 0.687,2.961 1.922,4.015 0.081,0.588 0.162,1.176 0.244,1.763 1.085,1.209 0.567,3.075 1.742,4.247 0.131,2.513 0.263,5.024 0.395,7.537 1.073,4.846 1.284,9.681 -0.164,14.498 -0.087,1.3 -0.173,2.6 -0.26,3.899 -1.172,1.111 -0.586,2.956 -1.704,4.09 -0.786,5.223 -3.634,9.539 -6.146,14.005 -0.842,0.864 -0.425,2.836 -2.04,2.655 -2.455,0.293 -2.911,-1.634 -4,-2.73 -2.474,-4.409 -5.426,-8.604 -6.161,-13.791 -1.012,-1.265 -0.557,-3.099 -1.676,-4.321 -0.367,-3.094 -0.467,-6.151 -1.647,-9.197 -1.56,-4.023 0.797,-8.055 1.055,-12.124 0.136,-2.151 0.458,-4.292 0.696,-6.437 1.028,-1.168 0.385,-3.063 1.777,-4.072 l 0.039,-0.082 c 1.27,-1.092 0.672,-3.007 1.829,-4.149 z"
   inkscape:connector-curvature="0"
   id="path151"
   style="fill:#ff9900;fill-rule:evenodd" />
	<path
   d="m 80.124,51.879 c 0.055,-4.833 0.109,-9.666 0.164,-14.498 0.43,-0.171 0.86,-0.342 1.29,-0.513 0.216,5.071 1.788,10.275 -1.454,15.011 z"
   inkscape:connector-curvature="0"
   id="path153"
   style="fill:#e45353;fill-rule:evenodd" />
	<path
   d="m 65.975,73.798 c 1.086,0.596 2.172,1.191 3.257,1.786 1.304,0.04 1.758,-1.299 2.782,-1.711 0.357,2.737 -1.37,3.745 -3.561,4.351 -1.825,-0.948 -2.723,-2.371 -2.478,-4.426 z"
   inkscape:connector-curvature="0"
   id="path155"
   style="fill:#e45353;fill-rule:evenodd" />
	<path
   d="m 61.887,19.625 c -0.048,1.631 0.79,3.651 -1.829,4.148 0.056,-1.627 -0.397,-3.477 1.829,-4.148 z"
   inkscape:connector-curvature="0"
   id="path157"
   style="fill:#e45353;fill-rule:evenodd" />
	<path
   d="m 77.907,23.834 c -2.255,-0.565 -1.901,-2.38 -1.922,-4.015 2.456,0.469 1.858,2.401 1.922,4.015 z"
   inkscape:connector-curvature="0"
   id="path159"
   style="fill:#e45353;fill-rule:evenodd" />
	<path
   d="m 60.019,23.855 c 0.014,1.622 0.52,3.459 -1.777,4.072 -0.149,-1.68 -0.362,-3.389 1.777,-4.072 z"
   inkscape:connector-curvature="0"
   id="path161"
   style="fill:#e45353;fill-rule:evenodd" />
	<path
   d="m 79.893,29.844 c -2.243,-0.733 -1.87,-2.54 -1.742,-4.247 2.193,0.755 1.829,2.557 1.742,4.247 z"
   inkscape:connector-curvature="0"
   id="path163"
   style="fill:#e45353;fill-rule:evenodd" />
	<path
   d="m 78.159,59.868 c -0.126,-1.652 -0.55,-3.429 1.704,-4.09 0.144,1.66 0.396,3.366 -1.704,4.09 z"
   inkscape:connector-curvature="0"
   id="path165"
   style="fill:#e45353;fill-rule:evenodd" />
	<path
   d="m 58.138,55.686 c 2.396,0.728 1.811,2.612 1.676,4.321 -2.203,-0.803 -1.746,-2.638 -1.676,-4.321 z"
   inkscape:connector-curvature="0"
   id="path167"
   style="fill:#e45353;fill-rule:evenodd" />
	<path
   d="m 245.962,219.776 c -6.239,7.527 -12.5,15.327 -22.399,17.95 -15.963,4.229 -28.082,-2.475 -37.732,-14.797 -2.24,-2.86 -4.113,-6.007 -6.156,-9.021 -1.742,-35.037 -0.321,-70.098 -0.776,-105.145 -0.078,-5.972 -0.222,-11.951 1.086,-17.84 7.433,-16.747 22.95,-24.725 42.669,-21.935 1.798,2.687 1.428,5.74 1.429,8.713 0.015,43.599 -0.001,87.196 0.03,130.795 0.002,2.624 -0.454,5.339 1.137,8.29 4.035,1.525 8.503,1.201 12.86,0.339 3.317,-0.656 5.907,-0.238 7.852,2.651 z"
   inkscape:connector-curvature="0"
   id="path169"
   style="fill:#ecdee3;fill-rule:evenodd" />
	<path
   d="m 245.962,219.776 c -1.42,-0.463 -2.841,-0.925 -4.28,-1.393 -6.242,2.272 -12.631,1.005 -18.708,1.111 -1.38,-1.941 -0.975,-3.654 -0.975,-5.271 0.003,-46.604 0.023,-93.208 0.079,-139.813 0.002,-1.808 0.376,-3.615 0.577,-5.423 11.648,4.154 19.256,12.761 25.364,23.02 1.669,4.244 2.102,8.663 2.095,13.195 -0.041,28.612 -0.034,57.226 -0.001,85.838 0.003,2.46 -0.405,5.01 0.851,7.163 1.368,1.625 3.555,1.373 4.886,2.711 -1.817,7.064 -5.951,12.911 -9.888,18.862 z"
   inkscape:connector-curvature="0"
   id="path171"
   style="fill:#96c8eb;fill-rule:evenodd" />
	<path
   d="m 179.985,90.924 c 1.697,1.632 1.07,3.732 1.071,5.663 0.021,37.264 0.017,74.526 -0.009,111.79 -0.001,1.928 0.583,4.062 -1.372,5.531 -5.882,-9.34 -10.129,-19.338 -12.176,-30.223 0.115,-1.484 -0.381,-2.762 -1.318,-3.889 -0.593,-6.289 -1.507,-12.567 -1.719,-18.869 -0.681,-20.247 1.651,-40.086 9.567,-58.922 1.608,-3.824 3.084,-7.869 5.956,-11.081 z"
   inkscape:connector-curvature="0"
   id="path173"
   style="fill:#96c8eb;fill-rule:evenodd" />
	<path
   d="m 255.85,200.916 c -2.357,1.096 -4.739,1.288 -7.831,0.027 0,-36.199 0,-72.567 0,-108.935 6.975,11.782 11.587,24.438 13.937,37.915 2.819,16.174 2.433,32.353 -0.029,48.529 -1.176,7.721 -3.071,15.241 -6.077,22.464 z"
   inkscape:connector-curvature="0"
   id="path175"
   style="fill:#ecdee3;fill-rule:evenodd" />
	<path
   d="m 158.98,121.742 c 0.159,-1.572 -0.117,-3.238 0.986,-4.608 0,1.838 0,3.677 0,6.738 -0.717,-1.552 -0.852,-1.841 -0.986,-2.13 z"
   inkscape:connector-curvature="0"
   id="path177"
   style="fill:#3f3f3f;fill-rule:evenodd" />
	<path
   d="m 166.182,179.797 c 2.034,0.756 1.56,2.361 1.318,3.889 -0.974,-1.116 -1.444,-2.401 -1.318,-3.889 z"
   inkscape:connector-curvature="0"
   id="path179"
   style="fill:#e45353;fill-rule:evenodd" />
	<path
   d="m 157.049,131.769 c -0.056,-1.746 0.002,-3.471 0.917,-5.041 -0.228,1.694 0.634,3.586 -0.917,5.041 z"
   inkscape:connector-curvature="0"
   id="path181"
   style="fill:#3f3f3f;fill-rule:evenodd" />
	<path
   d="m 111.908,139.019 c 7.723,21.85 8.967,43.707 0.089,65.579 -0.702,1.08 -1.024,2.395 -2.032,3.284 -2.381,4.386 -6.404,6.418 -10.757,7.701 -12.896,-1.979 -16.158,-12.421 -19.012,-22.24 -5.227,-17.983 -3.21,-36.081 2.181,-53.712 1.73,-5.657 5.939,-10.217 11.47,-13.088 2.72,-0.193 5.467,-0.885 8.105,0.437 1.917,1.606 3.834,3.213 5.751,4.819 1.293,0.648 1.585,1.983 2.147,3.134 0.021,0.277 0.1,0.536 0.238,0.776 0.855,0.968 1.312,2.152 1.82,3.31 z"
   inkscape:connector-curvature="0"
   id="path183"
   style="fill:#ecdee3;fill-rule:evenodd" />
	<path
   d="m 101.953,126.979 c -2.702,-0.146 -5.403,-0.291 -8.105,-0.437 2.767,-1.07 5.517,-1.823 8.105,0.437 z"
   inkscape:connector-curvature="0"
   id="path185"
   style="fill:#e45353;fill-rule:evenodd" />
	<path
   d="m 109.851,134.933 c -1.155,-0.743 -1.788,-1.845 -2.147,-3.134 2.091,0.101 2.379,1.44 2.147,3.134 z"
   inkscape:connector-curvature="0"
   id="path187"
   style="fill:#e45353;fill-rule:evenodd" />
	<path
   d="m 111.908,139.019 c -0.925,-0.928 -1.84,-1.861 -1.819,-3.31 2.076,0.296 1.96,1.796 1.819,3.31 z"
   inkscape:connector-curvature="0"
   id="path189"
   style="fill:#e45353;fill-rule:evenodd" />
	<path
   d="m 109.965,207.882 c 0.069,-1.471 1.105,-2.344 2.032,-3.284 0.112,1.583 -0.012,3.02 -2.032,3.284 z"
   inkscape:connector-curvature="0"
   id="path191"
   style="fill:#e45353;fill-rule:evenodd" />
	<path
   d="M 69.007,69.895 C 58.968,58.399 57.129,32.716 68.826,16.15 78.45,27.285 79.013,58.618 69.007,69.895 z"
   inkscape:connector-curvature="0"
   id="path193"
   style="fill:#ecdee3;fill-rule:evenodd" />
</g>
</svg>