<?xml version="1.0" encoding="UTF-8" standalone="no"?>
<!-- Created with Inkscape (http://www.inkscape.org/) -->

<svg
   xmlns:dc="http://purl.org/dc/elements/1.1/"
   xmlns:cc="http://creativecommons.org/ns#"
   xmlns:rdf="http://www.w3.org/1999/02/22-rdf-syntax-ns#"
   xmlns:svg="http://www.w3.org/2000/svg"
   xmlns="http://www.w3.org/2000/svg"
   xmlns:inkscape="http://www.inkscape.org/namespaces/inkscape"
   version="1.2"
   width="470"
   height="399"
   viewBox="0 0 470 399"
   id="Layer_1"
   xml:space="preserve"><metadata
   id="metadata349"><rdf:RDF><cc:Work
       rdf:about=""><dc:format>image/svg+xml</dc:format><dc:type
         rdf:resource="http://purl.org/dc/dcmitype/StillImage" /></cc:Work></rdf:RDF></metadata><defs
   id="defs347" />
<g
   id="g3">
	<path
   d="M 1,21 C -2.751,3.915 3.882,0.307 21.005,0.493 117.328,1.544 213.667,1 310,1 c 1.738,1.402 3.813,0.981 5.771,0.982 49.125,0.022 98.25,-0.005 147.375,0.079 2.62,0.005 5.237,-1.173 7.854,-0.061 0,132.562 0,265.124 0,398 -78.333,0 -156.666,0 -235,0 -3.253,-3.448 -1.129,-7.275 -0.529,-10.834 3.104,-18.397 8.838,-36.249 11.471,-54.752 0.467,-3.281 1.945,-6.341 2.159,-9.677 0.353,-1.73 1.325,-3.262 1.645,-5.009 0.28,-1.613 -1.061,-2.624 -1.487,-3.975 -0.577,-4.314 -2.934,-8.365 -1.947,-12.913 0.199,-1.779 0.02,-3.458 -1.308,-4.831 -0.323,-0.404 -0.571,-0.848 -0.772,-1.321 -2.238,-6.506 -2.489,-13.581 -5.701,-19.81 -0.538,-9.681 -3.267,-18.978 -4.978,-28.452 -0.268,-1.481 -0.593,-2.937 -0.411,-4.446 -1.809,-6.778 -3.668,-13.544 -4.795,-20.479 -2.132,-5.424 -2.249,-11.316 -3.984,-16.848 -2.727,-8.687 -8.147,-14.661 -16.859,-17.53 -1.018,-0.105 -2.048,-0.093 -3.042,-0.385 -1.324,-0.297 -2.452,-1.05 -3.69,-1.548 -6.005,-1.385 -12.098,-0.388 -18.138,-0.69 -6.033,-0.259 -11.966,-0.043 -17.122,3.72 -4.308,3.268 -9.314,4.699 -14.551,5.508 -0.801,-0.062 -1.678,-0.011 -1.884,-1.17 -1,1.686 -2.741,2.615 -3.937,4.087 -3.25,3.093 -7.01,5.564 -10.347,8.549 -4.452,5.482 -9.86,10.263 -12.492,17.083 -1.665,3.699 -3.644,7.245 -4.901,11.13 -0.555,1.715 -1.757,3.096 -3.378,4.034 -1.926,1.383 -4.15,1.034 -6.285,1.041 -11.815,0.039 -23.631,0.014 -35.446,0.021 -2.499,0.001 -4.997,0.014 -7.424,0.71 -2.778,0.49 -5.478,1.291 -8.146,2.185 -1.465,0.815 -2.288,1.911 -1.62,3.781 1.662,2.184 4.171,1.543 6.401,1.557 14.33,0.084 28.661,-0.029 42.99,0.086 2.598,0.021 5.438,-0.432 7.359,2.126 0.995,2.208 0.735,4.564 0.606,6.836 -0.348,6.15 0.638,12.157 1.608,18.18 -0.072,2.565 0.545,5.268 -1.469,7.445 -2.037,1.566 -4.44,1.062 -6.711,1.067 -17.062,0.047 -34.123,0.002 -51.185,0.051 -2.257,0.007 -4.688,-0.548 -6.594,1.287 -0.258,0.477 -0.555,0.924 -0.816,1.382 -0.295,3.731 2.546,3.411 4.741,3.472 7.473,0.207 14.952,0.072 22.428,0.084 10.634,0.017 21.267,-0.022 31.9,0.022 2.482,0.011 5,-0.138 7.335,1.004 4.866,4.397 4.712,10.719 6.289,16.379 0.212,4.545 3.838,8.166 3.502,12.861 -0.028,1.35 0.078,2.71 -0.372,4.021 -0.646,1.225 -1.721,2.082 -2.636,3.077 -8.483,5.681 -17.364,10.369 -27.822,11.143 -3.324,-0.685 -6.53,-0.671 -9.384,1.546 -21.956,2.645 -43.827,0.956 -65.653,-1.459 -7.346,-0.813 -8.271,-2.705 -6.376,-10.052 0.333,-1.293 0.607,-2.594 0.86,-3.895 0.959,-2.243 1.363,-4.583 1.118,-7.029 1.567,-8.475 3.365,-16.904 4.97,-25.375 2.281,-12.042 3.985,-24.184 6.565,-36.172 4.112,-19.111 6.566,-38.527 10.505,-57.675 0.968,-4.703 1.321,-9.514 1.728,-14.318 C 39.259,169.824 32.299,159.812 19.497,153.059 15.501,150.953 11.36,149.283 6.958,148.342 4.577,147.833 2.594,146.814 1,145 c 0,-15 0,-30 0,-45 0.991,-1 2.212,-1.473 3.598,-1.439 8.62,0.209 17.257,-0.697 25.864,0.613 4.776,0.727 9.623,0.298 14.438,0.313 15.12,0.049 30.24,-0.015 45.348,0.033 0.578,0.009 1.165,0.046 1.741,0.106 7.027,6.273 13.15,13.305 17.748,21.582 0.224,0.403 -0.05,0.962 -0.179,1.441 -1.37,2.35 -3.703,1.75 -5.771,1.831 -8.232,0.321 -16.492,-0.58 -24.69,0.558 -2.284,0.88 -2.553,2.823 -2.589,4.909 -0.037,2.101 0.201,4.225 -0.686,6.253 0.659,-0.759 1.18,-0.311 1.709,-0.049 2.586,3.011 1.454,6.56 1.484,9.935 0.19,3.167 -3.025,7.591 3.169,8.528 7.248,0.156 14.488,0.463 21.7,-0.224 3.721,-2.003 1.408,-4.863 1.039,-7.445 -0.65,-2.313 -0.939,-4.595 0.534,-6.735 0.629,-1.283 1.587,-2.073 3.083,-2.051 2.144,0.259 3.506,1.775 4.886,3.181 6.009,6.123 11.806,12.475 19.077,17.202 9.234,6.649 19.853,9.469 30.858,11.267 11.989,1.96 24.018,1.824 36.067,0.843 2.792,-0.229 5.538,1.925 8.354,0.133 1.051,-1.407 2.556,-2.273 4.166,-2.456 8.466,-0.958 15.856,-5.261 23.894,-7.527 1.625,-0.458 2.85,-1.594 3.854,-2.938 3.412,-3.218 8.271,-4.872 10.574,-9.639 -1.899,-1.733 -4.185,-0.872 -6.181,-1.268 -4.195,-0.831 -5.076,-3.007 -2.804,-6.987 3.099,-0.91 6.272,-0.28 9.407,-0.47 1.801,-0.108 3.691,0.222 5.197,-1.15 0.243,-0.406 0.529,-0.779 0.808,-1.156 2.038,-2.302 2.696,-5.17 3.479,-8.032 0.503,-1.841 0.676,-3.947 2.521,-5.175 0.425,-0.184 0.854,-0.176 1.295,0.027 -0.408,-1.573 -1.205,-2.99 -1.444,-4.588 -0.111,-0.474 -0.143,-0.951 -0.124,-1.436 0.719,-4.441 0.232,-8.918 0.398,-13.374 0.081,-2.205 -0.797,-3.46 -3.039,-3.678 -4.213,0.282 -8.369,-0.788 -12.578,-0.438 -1.17,0 -2.34,0.002 -3.51,0.037 -24.91,2.434 -49.889,1.701 -74.85,1.561 -5.512,-0.03 -7.476,-2.533 -6.863,-8.563 1.533,-15.071 3.698,-30.06 7.524,-44.742 1.719,-6.597 3.265,-13.257 5.682,-19.659 0.607,-1.609 0.939,-3.232 -0.566,-4.602 -3.723,-1.79 -7.677,-2.045 -11.707,-2.044 C 111.48,22.505 60.041,22.51 8.601,22.472 6.01,22.47 3.208,23.15 1,21 z"
   inkscape:connector-curvature="0"
   id="path5"
   style="fill:#1f66e4;fill-rule:evenodd" />
	<path
   d="m 160,400 c -45,0 -90,0 -135,0 -3.499,-1.963 -3.999,-5.169 -4.277,-8.863 -0.931,-12.361 1.542,-24.474 2.278,-36.708 0.144,-2.398 1.749,-4.288 2.404,-6.506 0.616,-2.69 2.541,-3.847 5.079,-3.922 16.612,-0.492 33.245,-1.179 48.895,6.143 8.46,3.957 15.359,9.705 20.713,17.341 0.468,0.667 0.918,1.395 2.171,1.895 2.858,-3.341 4.225,-7.605 5.787,-11.643 3.416,-8.829 7.452,-17.393 10.866,-26.213 0.698,-1.805 2.167,-2.899 3.108,-4.438 0.358,-0.713 0.994,-1.114 1.657,-1.479 0.477,-0.142 0.958,-0.139 1.438,-0.016 3.754,2.746 3.125,7.757 5.863,11.463 2.75,-2.503 2.614,-6.274 4.472,-8.979 1.246,-1.637 2.144,-3.387 1.873,-5.543 4.785,-14.014 11.099,-27.412 16.441,-41.198 1.794,-4.631 4.909,-6.56 9.942,-6.582 13.808,-0.062 27.625,0.54 41.428,-0.398 2.161,0.573 2.151,2.482 2.57,4.135 0.537,1.936 1.1,3.866 1.292,5.878 0.054,2.02 0.214,4.063 -1.129,5.809 -2.075,2.146 -4.796,1.979 -7.439,1.998 -9.796,0.07 -19.594,0.111 -29.388,-0.013 -4.107,-0.052 -6.419,1.504 -7.726,5.432 -2.04,6.136 -4.736,12.036 -7.087,18.063 -0.598,1.533 -1.432,3.021 -0.998,4.86 0.769,1.84 3.648,1.698 4.037,4.013 -1.175,3.542 -5.034,1.839 -7.631,4.133 -1.797,2.415 -2.73,5.917 -3.828,9.389 -1.546,4.889 -3.092,9.846 -5.571,14.323 -4.836,8.736 -4.674,17.68 -1.984,26.883 0.517,1.769 0.841,3.545 0.648,5.296 -0.04,0.073 -0.037,0.242 0.026,0.399 0.532,-6.978 4.586,-12.703 6.837,-19.063 4.137,-11.694 8.753,-23.222 13.01,-34.881 0.911,-2.494 0.242,-4.788 0.191,-7.189 1.388,-1.836 3.312,-2.009 5.377,-1.768 3.897,0.201 7.929,-1.206 11.661,0.973 0.732,0.587 1.149,1.363 1.34,2.266 1.146,4.977 -0.911,9.486 -2.088,14.125 -4.418,17.411 -8.659,34.868 -13.072,52.281 -0.782,3.088 -1.572,6.148 -4.186,8.304 z"
   inkscape:connector-curvature="0"
   id="path7"
   style="fill:#1f66e4;fill-rule:evenodd" />
	<path
   d="m 123.258,327.016 c -6.616,15.923 -13.231,31.845 -20.138,48.468 -18.343,-30.056 -46.339,-31.788 -76.095,-28.717 -1.105,1.766 -3.172,2.354 -5.016,4.13 -3.171,12.299 -4.718,25.17 -3.279,38.346 0.405,3.704 1.612,7.621 -1.73,10.758 -5.324,0 -10.647,0 -15.985,0 C 1,315 1,230 1,145 c 34.916,4.247 44.394,22.521 35.546,67.699 -6.939,35.432 -13.535,70.931 -20.283,106.4 0.133,1.832 0.842,3.713 -0.453,5.426 -0.794,3.866 -1.587,7.732 -3.006,14.641 24.628,0 48.408,0 72.188,0 2.65,-2.256 6.079,-1.11 9.026,-2.069 8.98,-3.434 17.96,-6.867 26.941,-10.301 0.824,-0.539 1.758,-2.208 2.299,0.22 z"
   inkscape:connector-curvature="0"
   id="path9"
   style="fill:#060708;fill-rule:evenodd" />
	<path
   d="M 1,99 C 1,73.667 1,48.333 1,23 c 6.939,-1.94 13.966,-0.898 20.97,-0.618 3.462,5.081 8.603,6.165 14.299,6.136 11.26,-0.058 22.52,-0.034 33.78,-0.001 1.967,0.005 3.988,-0.288 5.865,0.638 1.596,1.256 2.077,3.08 1.802,4.879 -0.905,5.924 -0.246,11.86 -0.397,17.783 -0.155,1.456 -1.053,2.496 -1.983,3.513 -1.419,1.347 -3.649,1.363 -4.905,2.988 -0.542,0.445 -1.135,0.819 -1.747,1.159 -2.396,1.713 -5.222,2.991 -6.147,6.166 -0.148,0.418 -0.368,0.799 -0.635,1.151 -0.963,0.843 -1.884,1.717 -2.078,3.087 -0.112,0.667 -0.316,1.303 -0.579,1.927 -0.168,0.443 -0.389,0.854 -0.637,1.26 -0.242,0.427 -0.531,0.813 -0.838,1.189 -3.919,5.365 -4.299,11.605 -4.467,17.908 -0.881,2.608 0.844,6.227 -2.996,7.674 C 33.856,100.345 17.43,99.578 1,99 z"
   inkscape:connector-curvature="0"
   id="path11"
   style="fill:#060708;fill-rule:evenodd" />
	<path
   d="m 177.608,324.849 c -3.903,-0.163 -7.807,-0.326 -11.71,-0.49 -1.066,-1.848 -1.044,-3.734 -0.385,-5.73 0.83,-2.512 1.583,-5.053 2.514,-7.527 3.267,-8.687 4.099,-9.278 13.355,-9.319 7.276,-0.032 14.553,-0.113 21.829,0.071 2.776,0.07 5.33,0.523 6.305,3.676 1.567,3.73 -0.253,7.997 1.68,11.537 2,2.052 4.44,1.635 6.715,1.656 8.481,0.08 16.963,-0.023 25.444,0.065 2.291,0.023 4.691,-0.348 6.758,1.092 0.331,0.339 0.654,0.698 0.668,1.232 0.467,-0.211 0.907,-0.385 1.379,-0.463 -5.387,26.45 -10.771,52.9 -16.158,79.352 -11.667,0 -23.333,0 -35,0 -1.134,-5.059 -0.761,-10.192 -0.152,-15.214 1.354,-11.183 2.123,-22.396 2.693,-33.632 0.005,-1.156 0.37,-2.246 0.628,-3.354 0.349,-1.619 0.28,-3.281 0.476,-4.917 0.756,-2.348 0.91,-4.768 0.854,-7.213 0.116,-3.208 -0.262,-6.431 0.271,-9.601 0.086,-0.237 0.193,-0.498 0.31,-0.772 -0.348,-0.208 -0.641,0.114 -1.002,0.107 -7.595,0.418 -15.185,-0.46 -22.723,0.573 -1.764,0.242 -3.154,-0.815 -4.749,-1.129 z"
   inkscape:connector-curvature="0"
   id="path13"
   style="fill:#060708;fill-rule:evenodd" />
	<path
   d="m 160,400 c 6.019,-24.65 12.039,-49.301 18.058,-73.951 8.306,-2.24 16.774,-0.359 25.145,-0.984 0.658,-0.049 1.321,0.118 2.58,1.026 1.007,4.567 0.641,9.908 -0.024,14.938 -1.022,7.727 -1.254,15.511 -2.317,23.203 -1.476,10.669 -1.382,21.469 -2.99,32.115 -0.201,1.336 -0.566,2.594 -1.45,3.652 C 186,400 173,400 160,400 z"
   inkscape:connector-curvature="0"
   id="path15"
   style="fill:#5bd6d6;fill-rule:evenodd" />
	<path
   d="m 17,400 c -0.67,-17.561 -1.84,-35.151 3.296,-52.836 2.176,-0.128 4.452,-0.263 6.729,-0.397 -2.343,17.68 -6.914,35.277 -2.025,53.233 -2.667,0 -5.333,0 -8,0 z"
   inkscape:connector-curvature="0"
   id="path17"
   style="fill:#3d8e8e;fill-rule:evenodd" />
	<path
   d="M 471,2 C 418.058,2.335 365.115,2.679 312.174,2.922 311.451,2.925 310.725,1.669 310,1 c 52.334,0 104.666,-0.008 157,0.042 1.334,10e-4 2.666,0.625 4,0.958 z"
   inkscape:connector-curvature="0"
   id="path19"
   style="fill:#060708;fill-rule:evenodd" />
	<path
   d="M 21.73,23.258 C 14.82,23.172 7.91,23.086 1,23 c 0,-0.667 0,-1.333 0,-2 57.424,0.002 114.848,-0.005 172.272,0.042 1.927,0.002 3.853,0.55 5.779,0.843 -1.377,2.579 -3.909,2.245 -6.174,2.301 -7.662,0.191 -15.327,0.079 -22.99,0.081 -34.987,0.009 -69.975,0.002 -104.962,0.005 -6.827,0.001 -13.655,-0.077 -20.479,0.233 -1.005,-0.2 -1.857,-0.732 -2.716,-1.247 z"
   inkscape:connector-curvature="0"
   id="path21"
   style="fill:#0929a8;fill-rule:evenodd" />
	<path
   d="m 199,400 c 2.306,-24.275 4.611,-48.552 7.023,-73.952 -9.909,0 -18.938,0 -27.966,0 -0.148,-0.401 -0.297,-0.803 -0.447,-1.202 9.73,-0.239 19.464,-0.481 29.197,-0.724 0.396,0.164 0.586,0.46 0.57,0.89 -0.188,3.588 -0.375,7.176 -0.562,10.764 -0.874,2.35 0.316,4.912 -0.746,7.243 -0.083,1.579 -0.165,3.159 -0.248,4.738 -0.235,0.733 -0.438,1.471 -0.269,2.252 -1.518,16.664 -3.036,33.327 -4.553,49.991 -0.666,0 -1.332,0 -1.999,0 z"
   inkscape:connector-curvature="0"
   id="path23"
   style="fill:#b2e5e5;fill-rule:evenodd" />
	<path
   d="m 1,99 c 16.674,-0.009 33.348,-0.017 50.021,-0.025 1.518,-0.733 3.107,-1.155 4.804,-1.17 10.153,-0.092 20.307,-0.213 30.456,0.085 2.316,0.068 5.176,-0.157 5.829,3.226 C 61.74,100.743 31.37,100.372 1,100 1,99.667 1,99.333 1,99 z"
   inkscape:connector-curvature="0"
   id="path25"
   style="fill:#0929a8;fill-rule:evenodd" />
	<path
   d="m 453.855,376.518 c 0.069,-0.151 0.099,-0.366 0.217,-0.44 0.229,-0.144 0.506,-0.209 0.764,-0.307 0,6.052 0,12.103 0,19.693 -54.818,0 -108.229,0 -162.314,0 3.634,-25.326 4.232,-52.383 25.112,-73.192 -12.634,-1.297 -24.153,-2.479 -35.674,-3.661 0.546,-0.343 1.105,-0.662 1.678,-0.957 1.536,-0.781 3.209,-0.868 4.874,-0.866 15.32,0.017 30.641,-0.292 45.953,0.169 6.143,-0.386 12.29,-0.256 18.424,-0.015 0.678,0.075 1.365,0.087 2.021,-0.076 1.145,-0.621 0.627,-1.654 0.615,-2.569 -2.498,-6.795 -5.146,-13.535 -6.184,-20.752 0.428,-1.896 -0.061,-3.526 -1.447,-4.895 -1.945,-4.068 -2.824,-8.497 -4.328,-12.714 -0.207,-1.417 0.268,-2.827 0.096,-4.138 -0.447,-1.188 -1.52,-1.75 -2.084,-2.713 -0.556,-2.097 -2.363,-3.776 -2.07,-6.156 -0.037,-2.257 0.084,-4.519 -0.183,-6.366 -0.402,-2.114 -2.371,-2.042 -3.187,-3.237 -0.787,-1.088 -1.08,-2.298 -0.902,-3.622 0.289,-4.113 1.26,-8.38 -2.633,-11.543 -0.342,-0.361 -0.605,-0.774 -0.799,-1.231 -0.594,-1.708 0.236,-3.213 0.734,-4.818 0.436,-0.416 -0.705,-0.024 -0.177,0.373 0.069,0.053 -0.255,0.585 -0.552,0.733 -0.449,0.226 -0.949,0.197 -1.441,0.083 -3.338,-1.304 -2.564,-4.665 -3.58,-7.131 -0.143,-1.233 -0.791,-2.296 -1.188,-3.445 -1.458,-7.423 -4.769,-14.258 -6.827,-21.484 -0.257,-1.777 1.118,-3.956 -1.291,-5.211 -0.905,-1.523 -2.965,-1.501 -3.941,-2.933 -4.1,-7.631 -5.977,-16.071 -8.701,-24.194 -1.942,-5.79 -3.575,-11.689 -5.646,-17.443 -0.823,-2.287 -1.232,-4.479 0.527,-6.529 4.485,-1.918 8.97,-3.836 13.454,-5.754 1.188,-2.385 3.471,-2.297 5.59,-2.338 9.421,-0.181 18.844,-0.183 28.265,0.002 2.12,0.041 4.403,-0.043 5.571,2.362 12.549,5.288 25.099,10.576 37.648,15.863 0.289,0.761 0.631,1.503 0.841,2.293 0.05,3.011 -0.923,5.937 -0.728,8.961 -2.598,14.379 -4.691,28.84 -7.219,43.229 -4.594,26.168 -8.974,52.371 -13.13,78.612 -0.421,2.653 -1.284,5.125 -3.017,7.233 2.137,7.61 4.273,15.222 6.561,23.371 21.508,0 42.867,0 64.559,0 9.435,15.67 11.814,32.993 14.922,50.093 -3.141,0.26 -3.096,-2.449 -3.76,-4.264 -2.568,-7.021 -4.121,-14.358 -7.523,-21.142 -4.013,-7.996 -9.84,-13.337 -18.681,-15.046 -17.692,-3.419 -35.471,-5.505 -53.537,-3.483 -5.798,0.648 -11.662,0.03 -17.481,0.314 -8.314,0.407 -16.602,1.193 -24.504,4.106 -7.615,2.808 -12.813,8.379 -16.232,15.445 -5.123,10.587 -7.452,22.017 -8.977,33.607 -0.234,1.785 -0.313,3.683 1.223,5.538 3.813,1.849 8.309,0.21 12.47,1.254 0.497,0.065 1.001,0.119 1.499,0.151 0.477,0.006 0.961,0.002 1.438,-0.021 1.627,-0.256 3.279,-0.419 4.787,-1.075 3.041,-3.118 2.797,-7.315 3.793,-11.09 0.68,-1.409 1.955,-2.551 1.9,-4.288 -0.004,-0.689 0.111,-1.354 0.408,-1.979 0.76,-1.297 2.209,-2.133 2.5,-3.745 0.083,-0.418 0.159,-0.837 0.217,-1.26 0.164,-1.08 0.818,-1.971 1.139,-2.995 0.182,-0.408 0.416,-0.779 0.691,-1.128 0.764,-0.902 0.913,-2.117 1.548,-3.091 1.808,-2.659 4.221,-3.926 7.478,-3.25 3.719,0.471 7.176,-0.236 10.344,-2.285 18.688,-0.768 37.377,-0.341 56.065,-0.246 2.05,0.011 3.912,0.564 5.571,1.756 1.938,0.713 3.083,2.777 5.264,3.101 6.147,2.796 7.482,8.552 8.32,14.312 0.781,5.367 2.534,10.483 2.82,15.397 2.098,1.485 3.769,1.078 5.405,0.956 4.333,-1.31 8.985,0.226 12.985,-1.257 2.321,-1.888 0.981,-5.311 3.647,-6.632 z"
   inkscape:connector-curvature="0"
   id="path27"
   style="fill:#0929a8;fill-rule:evenodd" />
	<path
   d="m 352.602,139.201 c -13.144,-0.009 -26.287,-0.018 -39.428,-0.026 -14.307,0.023 -28.613,0.046 -42.922,0.069 -1.148,0.806 -2.221,0.783 -3.198,-0.293 -0.102,-9.965 -0.203,-19.93 -0.306,-29.895 -0.392,-2.061 -0.369,-4.123 -0.015,-6.187 -1.052,-33.938 1.101,-66.836 30.247,-90.652 3.887,-3.177 8.294,-5.716 13.131,-9.007 2.635,7.637 4.744,13.75 6.853,19.864 0.292,2.008 -0.955,3.042 -2.479,3.881 -10.182,5.604 -17.881,13.553 -22.792,24.135 -1.663,3.185 -3.493,6.314 -2.845,10.145 0.449,7.578 -0.129,15.291 3.301,22.444 5.609,11.7 14.188,20.288 26.263,25.231 1.997,0.817 3.968,1.697 5.979,2.483 1.998,1.729 4.307,2.378 6.917,1.994 0.773,-0.17 1.546,-0.158 2.321,-0.035 6.43,1.899 12.818,1.354 19.188,-0.326 3.01,-0.443 6.111,1.266 9.064,-0.404 0.611,-0.474 1.28,-0.841 1.986,-1.146 7.998,-1.986 15.824,-4.314 22.445,-9.605 1.582,-1.265 3.551,-2.67 5.809,-0.938 21.453,0 42.907,0 65.202,0 -6.411,18.04 -0.921,43.297 -34.441,38.502 -22.968,-3.284 -46.823,-0.373 -70.28,-0.234 z"
   inkscape:connector-curvature="0"
   id="path29"
   style="fill:#e0321c;fill-rule:evenodd" />
	<path
   d="m 360.117,114.042 c -2.31,0.361 -4.619,0.723 -6.928,1.084 -6.692,0.576 -13.385,0.662 -20.077,-0.003 -0.802,-0.115 -1.604,-0.231 -2.406,-0.347 -1.927,-1.627 -4.783,0.108 -6.624,-1.832 -21.926,-2.751 -39.183,-27.28 -36.802,-52.309 1.857,-3.207 2.86,-6.654 2.917,-10.368 4.521,-13.396 15.107,-20.822 26.767,-27.192 0.202,-0.024 0.403,-0.06 0.602,-0.106 2.523,0.951 3.794,2.871 4.828,5.326 7.096,16.856 14.128,33.736 20.947,50.708 2.258,5.62 4.562,11.28 7.589,17.231 1.936,-3.411 2.311,-6.545 2.854,-9.595 3.096,-17.338 7.082,-34.496 10.438,-51.782 1.386,-7.137 6.446,-9.798 13.512,-7.688 3.926,1.173 4.268,4.109 3.584,7.585 -2.563,13.045 -5.253,26.063 -7.955,39.08 -1.613,7.77 -3.558,15.485 -4.505,23.393 3.735,2.687 7.683,1.089 10.901,1.925 2.535,-1.612 2.748,-3.821 3.134,-5.937 3.076,-16.837 7.256,-33.453 9.985,-50.359 0.769,-4.758 2.551,-9.289 3.415,-14.047 0.285,-1.57 1.019,-3.218 2.884,-3.789 11.199,4.302 20.611,10.859 22.662,23.44 3.739,22.921 -11.332,36.411 -26.332,49.69 -1.093,0.968 -2.256,1.857 -3.387,2.783 -9.311,4.037 -18.622,8.075 -27.934,12.112 -1.188,1.018 -2.925,-0.207 -4.069,0.997 z"
   inkscape:connector-curvature="0"
   id="path31"
   style="fill:#5bd6d6;fill-rule:evenodd" />
	<path
   d="m 336.775,318.64 c -17.958,0.003 -35.916,0.005 -53.873,0.008 0.185,-2.433 -4.318,-3.368 -2.064,-6.461 -0.021,-0.399 -0.041,-0.799 -0.063,-1.198 -1.22,-1.72 -2.205,-3.543 -2.506,-5.669 -0.025,-2.049 -0.661,-3.982 -1.176,-5.939 -0.122,-1.555 -0.691,-3.024 -0.914,-4.561 -0.258,-1.853 -1.028,-3.595 -1.201,-5.467 -0.628,-8.06 -2.512,-15.93 -3.6,-23.921 -0.361,-2.647 -0.604,-5.221 -0.139,-7.845 0.246,-2.989 0.375,-5.956 -1.828,-8.419 -2.229,-7.527 -2.732,-15.314 -3.378,-23.07 -0.247,-2.972 0.218,-6.003 -0.774,-8.914 -0.086,-7.581 -0.174,-15.163 -0.261,-22.744 0.28,-0.642 0.487,-1.311 0.741,-1.961 0.572,-2.006 -0.186,-4.246 1.083,-6.128 0.097,-1.36 0.194,-2.722 0.29,-4.083 0.762,-1.192 -0.046,-2.705 0.795,-3.881 4.785,-8.488 6.689,-18.927 16.326,-24.132 2.391,0.591 2.72,0.589 2.732,2.847 0.025,4.525 2.049,8.271 3.869,12.189 2.307,4.967 3.233,10.354 4.409,15.684 1.38,6.254 4.49,11.988 6.315,18.113 2.498,8.38 5.571,16.587 7.587,25.107 0.764,3.228 1.753,6.389 2.949,9.46 6.358,16.322 11.544,33.077 16.257,49.882 2.061,7.348 4.59,14.385 7.406,21.372 1.319,3.266 1.519,6.401 1.018,9.731 z"
   inkscape:connector-curvature="0"
   id="path33"
   style="fill:#e3b912;fill-rule:evenodd" />
	<path
   d="m 23.991,22.726 c 51.687,-0.28 103.373,-0.561 155.06,-0.841 -4.846,23.561 -9.713,47.117 -14.502,70.688 -0.421,2.073 -0.334,4.25 -0.527,6.992 26.878,0 53.357,0 79.836,0 0.754,0.403 1.6,0.403 2.411,0.553 0.325,0.06 0.718,0.309 0.95,0.204 0.394,-0.179 -0.295,-0.527 -0.031,-0.831 4.719,-0.031 9.438,-0.063 14.156,-0.093 4.453,1.978 0.951,3.853 -0.417,4.891 -3.311,2.511 -7.246,3.974 -11.124,5.5 -7.555,2.972 -14.469,7.362 -22.306,9.781 -5.405,1.667 -10.727,3.292 -16.457,2.935 -2.521,-0.157 -4.976,0.289 -7.407,0.912 -7.414,0.557 -14.898,-0.785 -22.268,0.847 -1.346,0.254 -2.695,0.245 -4.045,0.051 -4.319,-1.277 -8.674,-2.426 -13.035,-3.542 -12.419,-3.178 -23.909,-8.333 -30.438,-20.532 0.642,-7.439 1.281,-14.879 1.636,-22.336 0.292,-6.139 2.69,-11.984 2.413,-18.196 3.091,-8.748 4.886,-17.865 8.026,-26.412 -2.085,-2.573 -4.761,-2.285 -7.135,-2.692 -1.797,-0.308 -3.657,-0.133 -5.488,-0.097 -35.772,0.715 -71.517,-1.604 -107.288,-1.015 -0.981,0.017 -1.99,0.12 -3.115,-0.505 -0.599,-2.19 -0.949,-4.391 1.095,-6.262 z"
   inkscape:connector-curvature="0"
   id="path35"
   style="fill:#5bd6d6;fill-rule:evenodd" />
	<path
   d="m 399.178,25.021 c -5.213,25.257 -10.426,50.513 -15.702,76.08 -5.81,0 -11.493,0 -17.913,0 4.894,-24.144 9.661,-47.664 14.533,-71.7 -4.168,0 -7.892,0 -12.316,0 -4.965,23.961 -9.996,48.234 -15.738,75.945 -12.443,-29.733 -23.459,-56.055 -34.475,-82.377 27.415,-7.816 54.687,-9.799 81.611,2.052 z"
   inkscape:connector-curvature="0"
   id="path37"
   style="fill:#0929a8;fill-rule:evenodd" />
	<path
   d="m 453.855,376.518 c 0,2.949 0,5.899 0,9.927 -5.763,0 -11.299,0 -16.836,0 -3.59,-3.172 -2.272,-7.702 -2.988,-11.597 -0.807,-4.39 -1.453,-8.785 -2.676,-13.102 -2.55,-9.007 -8.691,-14.093 -17.404,-16.613 -5.756,-1.665 -11.801,-1.431 -17.595,-2.823 -4.716,-3.164 -10.104,-2.14 -15.026,-1.574 -7.807,0.896 -15.587,0.354 -23.355,0.824 -7.244,0.438 -14.592,0.582 -21.418,3.573 -0.401,0.233 -0.8,0.493 -1.154,0.801 -1.219,0.764 -2.574,1.391 -3.124,2.895 -0.771,1.47 -1.758,2.769 -3.011,3.857 -0.424,0.396 -0.883,0.753 -1.332,1.118 -0.256,0.273 -0.539,0.519 -0.816,0.769 -0.379,0.412 -0.768,0.814 -1.15,1.228 -0.246,0.303 -0.525,0.565 -0.814,0.818 -1.064,1.234 -0.43,2.76 -0.701,4.131 -1.993,5.29 -3.257,10.753 -3.985,16.353 -0.172,0.487 -0.415,0.936 -0.693,1.365 -2.259,2.379 -0.094,6.229 -2.802,8.455 -5.454,0 -10.908,0 -16.364,0 0.771,-36.237 8.874,-64.79 51.675,-63.931 14.129,0.284 28.291,0.027 42.41,-0.613 33.138,-1.504 53.684,12.421 58.346,46.479 0.269,2.552 0.542,5.106 0.813,7.66 z"
   inkscape:connector-curvature="0"
   id="path39"
   style="fill:#b2e5e5;fill-rule:evenodd" />
	<path
   d="m 77.004,146.988 c -0.311,-3.688 -0.621,-7.377 -0.932,-11.065 -1.04,-1.989 -0.525,-4.076 -0.385,-6.14 0.556,-1.539 -0.036,-3.316 1.358,-5.334 10.479,-1.287 21.476,0.313 32.351,-0.809 0.505,-0.256 1.044,-0.432 1.604,-0.528 2.071,-0.025 3.193,1.833 4.919,2.495 11.592,6.471 23.509,12.123 36.664,14.746 1.626,0.324 3.267,0.502 4.894,0.806 2.768,0.523 5.323,1.911 8.203,1.972 0.822,-0.024 1.629,0.063 2.435,0.209 7.75,1.787 15.48,1.732 23.192,-0.216 1.647,-0.167 3.293,-0.365 4.927,-0.64 4.975,-0.451 10.003,-0.614 14.679,-2.693 4.443,-0.83 8.594,-2.679 12.957,-3.793 0.728,-0.093 1.432,-0.308 2.148,-0.459 7.972,-3.255 15.657,-7.18 23.723,-10.216 1.237,-0.298 2.636,0.151 3.73,-0.821 0.284,-0.327 0.61,-0.601 0.962,-0.845 1.004,-0.549 1.396,-1.668 2.207,-2.399 2.273,-1.598 4.335,-3.963 7.572,-2.147 0.094,0.271 0.156,0.549 0.189,0.834 -0.034,1.339 0.55,2.753 -0.482,3.971 -1.684,4.999 -3.367,9.999 -5.051,14.998 -3.279,2.179 -6.943,0.679 -10.41,1.059 -2.087,0.229 -4.217,-0.161 -6.305,0.278 -0.569,0.209 -0.934,0.606 -1.092,1.191 0.076,1.087 0.152,2.173 0.242,3.454 4.605,0 8.896,0 16.717,0 -7.044,5.914 -11.961,10.041 -16.877,14.169 -3.713,1.69 -7.63,2.217 -11.678,2.215 -29.325,-0.012 -58.65,-0.014 -87.976,0.007 -3.73,0.002 -7.281,-0.653 -10.711,-2.07 -7.472,-6.811 -14.943,-13.621 -22.416,-20.432 -2.075,-0.347 -1.995,0.756 -1.455,2.166 0.068,1.972 0.136,3.944 0.204,5.916 0.727,3.372 0.409,6.733 -0.103,10.093 -8.672,0.01 -17.343,0.021 -26.015,0.031 -0.744,-0.852 -2.063,-0.98 -2.615,-2.074 -1.09,-2.535 0.615,-5.554 -1.374,-7.929 z"
   inkscape:connector-curvature="0"
   id="path41"
   style="fill:#ecdee3;fill-rule:evenodd" />
	<path
   d="m 366.998,295.393 c 6.11,-37.845 12.217,-75.689 18.334,-113.533 0.914,-5.649 1.879,-11.291 2.82,-16.936 1.883,-2.298 2.115,-5.012 1.971,-7.82 0.043,-0.68 0.084,-1.358 0.127,-2.038 8.895,8.192 17.791,16.386 26.686,24.579 1.555,6.252 -0.859,12.085 -2.278,17.896 -7.354,30.113 -14.446,60.29 -21.748,90.416 -0.815,3.365 -1.382,6.904 -4.586,9.086 -7.109,-0.55 -14.217,-1.101 -21.326,-1.65 z"
   inkscape:connector-curvature="0"
   id="path43"
   style="fill:#5bd6d6;fill-rule:evenodd" />
	<path
   d="m 112.904,282.975 c -0.009,-2.367 -0.017,-4.734 -0.025,-7.102 -0.886,-8.072 -0.098,-16.174 -0.413,-24.255 -1.661,-3.038 -2.18,-6.193 -0.963,-9.52 0.312,-1.177 1.149,-1.894 2.165,-2.447 0.901,-0.654 0.542,-2.074 1.592,-2.644 2.176,-4.728 4.353,-9.454 6.529,-14.182 2.226,-1.749 4.826,-2.077 7.548,-2.08 31.492,-0.031 62.984,-0.056 94.477,0.028 2.653,0.007 5.42,-0.146 7.229,2.442 1.39,6.414 2.78,12.827 4.169,19.241 -0.99,2.912 -3.542,2.676 -5.8,2.704 -9.451,0.121 -18.904,0.265 -28.352,-0.077 -2.001,-0.572 -4.094,-0.306 -6.121,-0.616 -0.549,-0.046 -1.092,-0.158 -1.614,-0.324 -0.478,-0.221 -0.891,-0.543 -1.23,-0.947 -1.757,-3.794 -5.468,-5.949 -7.827,-9.246 -0.849,-2.181 -2.415,-3.387 -4.784,-3.498 -8.884,-4.787 -18.76,-2.181 -24.689,6.847 -2.715,4.134 -5.079,8.504 -5.882,13.579 -0.677,4.282 -2.87,8.147 -4.579,12.04 -6.304,14.36 -11.357,29.211 -17.545,43.606 -2.115,4.921 -3.478,5.627 -7.631,4.212 -1.472,-6.021 -2.943,-12.043 -4.415,-18.064 -2.161,-1.878 -2.565,-4.471 -2.893,-7.098 -0.021,-0.488 0.047,-0.963 0.208,-1.424 0.254,-0.411 0.538,-0.802 0.846,-1.175 z"
   inkscape:connector-curvature="0"
   id="path45"
   style="fill:#e3b912;fill-rule:evenodd" />
	<path
   d="m 336.775,318.64 c -9.893,-30.003 -19.975,-59.945 -29.614,-90.03 -7.914,-24.699 -15.3,-49.568 -22.923,-74.358 5.16,-3.104 10.322,-6.211 15.484,-9.32 5.197,16.276 10.396,32.555 15.594,48.833 3.949,5.288 4.768,11.817 6.965,17.789 2.66,7.235 4.613,14.71 6.734,22.118 -0.164,2.644 0.282,5.063 2.58,6.782 2.886,6.096 3.369,12.918 5.818,19.142 0.096,0.933 -0.154,1.854 -0.139,2.792 0.184,1.211 1.365,1.646 1.984,2.526 2.783,4.558 3.945,9.787 5.496,14.753 1.546,4.954 3.109,9.95 4.624,14.926 1.909,6.272 3.204,12.759 6.012,18.77 0.786,1.684 1.659,3.77 -0.214,5.535 -6.133,-0.086 -12.268,-0.172 -18.401,-0.258 z"
   inkscape:connector-curvature="0"
   id="path47"
   style="fill:#5bd6d6;fill-rule:evenodd" />
	<path
   d="m 134.759,100.566 c 11.031,12.886 26.548,17.392 41.809,22.377 -4.299,3.16 -9.217,0.836 -13.792,1.557 -11.07,0 -22.14,0 -33.207,0 -5.634,-0.301 -11.314,0.651 -16.917,-0.577 -1.417,-0.375 -2.632,-1.033 -3.325,-2.412 C 103.828,114.725 98.329,107.939 92.83,101.153 80.433,90.437 76.355,76.171 75.5,60.529 c 0.07,-2.482 -0.286,-5.008 0.777,-7.385 0.584,-2.637 2.212,-4.59 4.619,-5.497 10.482,-3.953 20.687,-9.058 32.41,-8.181 3.544,0.265 6.833,-1.196 10.239,-1.885 3.438,0.303 7.137,-1.226 10.233,1.466 0.963,1.471 1.158,3.076 0.75,4.758 -2.105,8.68 -4.072,17.389 -5.731,26.166 -0.212,1.123 -0.84,2.153 -1.551,3.076 -3.191,2.194 -6.899,1.938 -10.503,2.102 -4.405,0.202 -8.854,-0.306 -13.344,0.365 0.397,3.063 3.289,3.227 4.317,5.086 0.262,0.422 0.446,0.874 0.563,1.355 -0.109,4.659 -1.805,9.019 -2.933,14.03 9.136,1.931 18.248,1.268 27.162,2.457 1.032,0.413 1.507,1.411 2.251,2.124 z"
   inkscape:connector-curvature="0"
   id="path49"
   style="fill:#e3b912;fill-rule:evenodd" />
	<path
   d="m 424.117,189.148 c 30.645,37.813 22.175,83.399 -19.523,104.64 -1.779,0.905 -4.08,0.787 -6.139,1.146 -1.98,-2.454 -1.014,-5.118 -0.388,-7.654 4.823,-19.543 9.156,-39.202 14.084,-58.721 2.769,-10.963 5.624,-21.909 7.9,-32.995 0.528,-2.569 1.053,-5.333 4.066,-6.416 z"
   inkscape:connector-curvature="0"
   id="path51"
   style="fill:#5bd6d6;fill-rule:evenodd" />
	<path
   d="m 111.946,180.902 c 2.454,13.654 4.909,27.309 7.619,42.387 -16.048,0 -31.246,0 -46.444,0 -0.627,0.173 -1.181,0.041 -1.664,-0.395 -2.978,-4.851 -2.732,-10.479 -3.679,-15.793 -1.276,-7.161 -2.585,-14.329 -3.081,-21.613 -0.141,-2.062 -0.417,-4.015 1.868,-5.127 14.361,-0.781 28.728,-0.229 43.09,-0.282 0.849,-0.004 1.608,0.325 2.291,0.823 z"
   inkscape:connector-curvature="0"
   id="path53"
   style="fill:#ecdee3;fill-rule:evenodd" />
	<path
   d="m 231.042,223.217 c -36.418,-0.13 -72.835,-0.261 -109.253,-0.391 4.378,-5.661 8.756,-11.321 13.134,-16.982 3.885,-0.985 7.836,-1.132 11.827,-1.121 17.079,0.047 34.158,0.044 51.236,-0.003 2.45,-0.007 5.009,0.375 7.344,-1.277 2.138,-2.652 1.167,-5.935 1.425,-8.998 0.218,-2.595 -0.345,-5.408 2.218,-7.281 18.274,5.334 19.52,21.092 22.069,36.053 z"
   inkscape:connector-curvature="0"
   id="path55"
   style="fill:#5bd6d6;fill-rule:evenodd" />
	<path
   d="m 251.383,320.536 c -14.063,0 -28.125,0 -43.105,0 0,-4.596 0,-9.489 0,-14.382 0.211,-3.11 -1.774,-5.544 -2.598,-8.338 -0.838,-2.844 -1.221,-5.513 1.262,-7.772 -0.007,-2.091 -0.015,-4.183 -0.022,-6.273 -0.8,-1.746 -0.272,-3.59 -0.4,-5.389 0.03,-1.975 1.528,-2.596 2.992,-3.252 8.874,-0.772 17.757,-0.316 26.638,-0.287 2.138,0.007 3.8,0.88 5.158,2.456 1.993,6.606 3.985,13.213 5.978,19.818 1.033,1.172 0.478,2.727 0.971,4.027 0.196,0.348 0.419,0.677 0.668,0.989 0.784,4.72 1.568,9.439 2.353,14.159 0.659,1.399 1.05,2.805 0.105,4.244 z"
   inkscape:connector-curvature="0"
   id="path57"
   style="fill:#e3b912;fill-rule:evenodd" />
	<path
   d="m 241.308,277.299 c -10.904,-0.146 -21.807,-0.292 -32.71,-0.438 -3.324,-1.626 -4.583,-4.744 -4.947,-7.997 -0.639,-5.717 -3.075,-10.681 -5.604,-15.664 -0.282,-0.444 -0.462,-0.925 -0.556,-1.439 -0.275,-1.913 -1.345,-3.728 -0.704,-5.746 0.371,-1.705 2.056,-1.96 3.154,-2.864 11.757,-0.23 23.515,-0.461 35.271,-0.691 2.032,11.612 4.063,23.226 6.096,34.839 z"
   inkscape:connector-curvature="0"
   id="path59"
   style="fill:#5bd6d6;fill-rule:evenodd" />
	<path
   d="m 208.974,187.163 c 0,6.418 0,12.836 0,18.681 -25.054,0 -49.552,0 -74.05,0 3.29,-2.978 6.58,-5.955 9.87,-8.932 1.758,-0.853 3.969,-0.46 5.48,-1.992 4.858,-1.94 9.716,-3.882 14.574,-5.822 5.838,-2.674 12.081,-3.244 18.378,-3.535 3.207,-0.101 6.414,-0.1 9.622,-10e-4 4.313,0.756 8.741,0.181 13.037,1.13 1.029,0.157 2.059,0.314 3.089,0.471 z"
   inkscape:connector-curvature="0"
   id="path61"
   style="fill:#e3b912;fill-rule:evenodd" />
	<path
   d="m 130.779,159.216 c 36.788,-0.051 73.576,-0.101 110.364,-0.151 -9.834,7.653 -21.833,9.599 -33.409,12.658 -2.493,1.849 -5.579,-0.119 -8.143,1.265 -23.944,0.439 -48.241,2.643 -68.812,-13.772 z"
   inkscape:connector-curvature="0"
   id="path63"
   style="fill:#5bd6d6;fill-rule:evenodd" />
	<path
   d="m 424.117,189.148 c -8.554,35.263 -17.107,70.525 -25.662,105.787 -3.378,0.701 -6.756,1.404 -10.133,2.107 9.539,-39.132 19.076,-78.264 28.613,-117.396 2.395,3.167 4.789,6.334 7.182,9.502 z"
   inkscape:connector-curvature="0"
   id="path65"
   style="fill:#0929a8;fill-rule:evenodd" />
	<path
   d="m 119.158,310.737 c 1.063,0.185 2.125,0.369 3.433,0.596 9.528,-24.071 18.134,-48.586 28.993,-72.059 5.34,-11.543 15.218,-20.054 29.61,-10.133 1.132,1.291 1.711,3.187 3.775,3.46 2.633,3.101 5.266,6.201 7.899,9.302 -1.456,1.849 -3.535,1.578 -5.51,1.586 -7.816,0.029 -15.632,-0.021 -23.447,0.03 -2.137,0.015 -4.39,-0.206 -5.962,1.749 -0.281,0.398 -0.611,0.764 -0.935,1.124 -1.251,1.09 -1.865,2.462 -1.791,4.138 -0.18,1.161 -0.595,2.231 -1.232,3.216 -2.27,2.082 -3.583,4.57 -3.265,7.75 -0.092,0.706 -0.315,1.369 -0.644,1.998 -2.216,2.471 -4.061,5.078 -3.255,8.686 -0.31,2.625 -1.051,5.047 -3.249,6.758 -0.372,0.181 -0.785,0.189 -1.196,0.207 -0.006,0.592 0.06,1.175 0.088,1.763 -0.002,0.426 -0.06,0.843 -0.159,1.255 -0.09,0.413 -0.235,0.809 -0.395,1.197 -0.075,0.193 -0.17,0.381 -0.244,0.575 -0.334,0.753 -0.658,1.511 -0.916,2.3 -0.109,0.417 -0.268,0.811 -0.445,1.201 -0.366,0.801 -0.79,1.564 -1.318,2.271 -0.29,0.346 -0.613,0.656 -0.954,0.948 -2.947,7.335 -6.429,14.459 -8.54,22.116 -0.083,0.474 -0.243,0.917 -0.464,1.341 -1.062,1.586 -2.274,3.051 -2.654,5.042 -0.285,1.491 -0.991,2.819 -2.969,1.904 -1.416,-3.44 -2.835,-6.88 -4.254,-10.321 z"
   inkscape:connector-curvature="0"
   id="path67"
   style="fill:#5bd6d6;fill-rule:evenodd" />
	<path
   d="m 251.045,126.854 c -8.292,3.24 -16.584,6.48 -24.875,9.721 -3.141,-2.697 -0.788,-7.097 -3.145,-10.029 -0.3,-0.369 -0.565,-0.759 -0.847,-1.134 -4.931,-1.923 -10.058,-0.43 -15.061,-0.94 -1.097,-0.044 -2.175,-0.136 -3.025,-0.957 -0.398,-0.48 -0.432,-0.984 -0.104,-1.513 20.39,-1.394 37.888,-11.036 55.743,-19.624 1.048,-0.504 1.697,-1.837 2.531,-2.784 -0.307,-0.065 -0.612,-0.13 -0.918,-0.195 1.106,0 2.213,0 4.079,0 -0.415,6.766 -0.812,13.238 -1.21,19.712 -2.381,1.343 -4.762,2.686 -7.143,4.028 -0.695,0.52 -1.362,1.078 -2.084,1.562 l -0.324,0.211 c -0.847,1.316 -2.497,1.136 -3.617,1.942 z"
   inkscape:connector-curvature="0"
   id="path69"
   style="fill:#e3b912;fill-rule:evenodd" />
	<path
   d="m 280.312,304.197 c 0.155,2.265 0.31,4.529 0.464,6.792 -4.391,-10e-4 -8.782,-10e-4 -15.516,-10e-4 0,-31.651 0,-62.73 0,-93.808 1.951,10.808 3.902,21.612 5.853,32.417 1.056,0.824 0.837,1.991 0.832,3.098 -0.188,1.168 -0.923,2.37 0.198,3.47 0.277,0.304 0.529,0.627 0.758,0.967 1.479,10.861 2.957,21.724 4.436,32.585 0.542,1.393 -0.506,3.082 0.814,4.322 0.016,0.015 0.192,-0.11 0.264,-0.196 0.098,-0.116 0.167,-0.257 0.248,-0.387 0.152,1.839 0.304,3.679 0.455,5.519 1.183,1.561 -0.707,3.825 1.194,5.222 z"
   inkscape:connector-curvature="0"
   id="path71"
   style="fill:#3d8e8e;fill-rule:evenodd" />
	<path
   d="m 113.938,241.098 c -0.379,3.24 -0.758,6.481 -1.137,9.722 -0.013,0.604 -0.234,0.658 -0.633,0.239 -19.913,0 -39.825,0 -61.131,0 3.682,-3.418 -1.308,-9.628 5.859,-10.196 18.097,-1.589 36.232,-0.615 54.35,-0.812 1.011,-0.011 1.994,0.185 2.692,1.047 z"
   inkscape:connector-curvature="0"
   id="path73"
   style="fill:#ecdee3;fill-rule:evenodd" />
	<path
   d="m 113.106,284.527 c 0.545,2.716 1.091,5.431 1.636,8.146 -23.175,0 -46.35,0 -70.239,0 0.567,-2.943 1.023,-5.311 1.479,-7.678 1.101,-0.933 2.435,-0.981 3.776,-0.982 20.139,-0.017 40.277,-0.029 60.416,0.007 1.005,0.001 1.993,0.122 2.932,0.507 z"
   inkscape:connector-curvature="0"
   id="path75"
   style="fill:#ecdee3;fill-rule:evenodd" />
	<path
   d="m 76.827,61.057 c 1.692,14.819 8.31,27.672 16.004,40.096 l -0.36,-0.043 c 0,0 -0.363,0.004 -0.362,0.005 -13.695,-0.713 -27.392,-1.426 -41.088,-2.14 0.353,-2.674 0.705,-5.348 1.058,-8.021 0.199,-0.13 0.398,-0.26 0.596,-0.39 0.472,-0.071 0.936,-0.038 1.389,0.112 5.162,0.927 10.335,2.094 15.302,-0.768 0.292,-0.38 0.618,-0.72 0.95,-1.056 2.106,-4.021 1.119,-8.216 0.743,-12.375 -0.365,-2.435 -0.202,-4.87 -0.064,-7.307 1.149,-4.729 2.582,-9.406 2.633,-14.338 0.778,-0.624 1.555,-1.249 2.333,-1.874 0.155,0.198 0.311,0.396 0.466,0.595 0.33,2.491 -0.34,5.035 0.4,7.504 z"
   inkscape:connector-curvature="0"
   id="path77"
   style="fill:#ecdee3;fill-rule:evenodd" />
	<path
   d="m 66.183,180.979 c 2.187,13.97 4.374,27.938 6.562,41.908 -6.562,0.979 -13.122,1.021 -19.68,-0.029 4.275,-14.269 8.551,-28.538 12.827,-42.808 0.155,0.121 0.311,0.242 0.466,0.363 -0.059,0.19 -0.117,0.378 -0.175,0.566 z"
   inkscape:connector-curvature="0"
   id="path79"
   style="fill:#060708;fill-rule:evenodd" />
	<path
   d="m 57.22,132.868 c -1.244,-8.473 -2.488,-16.944 -3.961,-26.985 13.97,21.384 18.498,42.97 11.99,70.313 -2.554,-14.721 -4.498,-25.926 -6.442,-37.132 -1.205,-1.892 -0.811,-4.194 -1.587,-6.196 z"
   inkscape:connector-curvature="0"
   id="path81"
   style="fill:#060708;fill-rule:evenodd" />
	<path
   d="m 109.328,121.511 c 0.553,0.629 1.107,1.258 1.66,1.886 l 0.14,0.091 c -11.072,0.696 -22.144,1.393 -33.47,2.105 -0.458,1.4 -0.959,2.936 -1.461,4.471 -0.946,-2.363 -1.413,-4.711 0.24,-6.985 10.964,-0.523 21.927,-1.046 32.891,-1.568 z"
   inkscape:connector-curvature="0"
   id="path83"
   style="fill:#b2e5e5;fill-rule:evenodd" />
	<path
   d="m 112.904,282.975 c 0.205,0.306 0.218,0.62 0.04,0.942 -0.833,0.756 -1.865,0.575 -2.842,0.575 -20.573,0.009 -41.146,0.011 -61.719,0.006 -0.832,0 -1.66,0.007 -2.416,-0.42 22.313,-0.368 44.625,-0.736 66.937,-1.103 z"
   inkscape:connector-curvature="0"
   id="path85"
   style="fill:#0929a8;fill-rule:evenodd" />
	<path
   d="m 45.968,284.078 c 22.326,-0.054 44.651,-0.107 66.977,-0.161 0.194,0.168 0.248,0.372 0.163,0.612 -22.375,0.154 -44.75,0.31 -67.125,0.466 -0.018,-0.306 -0.023,-0.611 -0.015,-0.917 z"
   inkscape:connector-curvature="0"
   id="path87"
   style="fill:#5bd6d6;fill-rule:evenodd" />
	<path
   d="m 113.938,241.098 c -19.014,-0.078 -38.028,-0.157 -57.042,-0.235 2.724,-0.265 5.448,-0.529 8.171,-0.794 1.345,-0.984 2.896,-0.558 4.347,-0.545 15.102,0.135 30.207,-0.374 45.306,0.251 -0.261,0.44 -0.522,0.881 -0.782,1.323 z"
   inkscape:connector-curvature="0"
   id="path89"
   style="fill:#5bd6d6;fill-rule:evenodd" />
	<path
   d="m 114.72,239.774 c -16.552,0.098 -33.104,0.195 -49.654,0.294 14.74,-0.373 29.481,-0.677 44.216,-1.196 2.012,-0.071 3.985,-1.216 5.978,-1.864 -0.18,0.922 -0.361,1.844 -0.54,2.766 z"
   inkscape:connector-curvature="0"
   id="path91"
   style="fill:#0929a8;fill-rule:evenodd" />
	<path
   d="m 280.838,312.187 c 0.688,2.153 1.377,4.308 2.064,6.461 l -0.475,0.08 c 0,0 -0.467,-0.114 -0.467,-0.116 -3.729,-6.984 -10.595,0.351 -17.357,-5.545 5.338,-0.436 8.861,-0.722 12.387,-1.009 0.343,1.71 -0.886,1.739 -1.934,1.889 1.686,0.322 2.857,-0.602 3.869,-1.866 0.638,0.034 1.276,0.069 1.913,0.106 z"
   inkscape:connector-curvature="0"
   id="path93"
   style="fill:#5bd6d6;fill-rule:evenodd" />
	<path
   d="m 267.054,138.951 c 1.066,0.098 2.133,0.195 3.199,0.293 -10e-4,4.635 -10e-4,9.271 -10e-4,13.905 -1.066,-0.137 -2.132,-0.273 -3.198,-0.409 0,-4.596 0,-9.192 0,-13.789 z"
   inkscape:connector-curvature="0"
   id="path95"
   style="fill:#060708;fill-rule:evenodd" />
	<path
   d="m 65.892,180.051 c 15.413,0.046 30.826,0.091 46.239,0.137 -15.385,0.453 -30.77,0.645 -46.153,-0.096 l -0.086,-0.041 z"
   inkscape:connector-curvature="0"
   id="path97"
   style="fill:#0929a8;fill-rule:evenodd" />
	<path
   d="m 65.978,180.092 c 15.383,0.031 30.767,0.063 46.151,0.095 -0.041,0.244 -0.102,0.483 -0.183,0.717 -15.255,0.024 -30.509,0.051 -45.764,0.076 -0.122,-0.284 -0.191,-0.58 -0.204,-0.888 z"
   inkscape:connector-curvature="0"
   id="path99"
   style="fill:#b2e5e5;fill-rule:evenodd" />
	<path
   d="m 183.571,185.815 c -6.24,1.094 -12.479,2.188 -18.722,3.281 6.037,-1.352 12.075,-2.705 18.114,-4.058 0.33,0.16 0.532,0.419 0.608,0.777 z"
   inkscape:connector-curvature="0"
   id="path101"
   style="fill:#0929a8;fill-rule:evenodd" />
	<path
   d="m 112.167,251.059 c 0.196,-0.118 0.407,-0.197 0.633,-0.238 0.026,8.352 0.052,16.704 0.079,25.055 -0.237,-8.274 -0.475,-16.546 -0.712,-24.817 z"
   inkscape:connector-curvature="0"
   id="path103"
   style="fill:#b2e5e5;fill-rule:evenodd" />
	<path
   d="m 123.415,321.058 c 1.689,-2.485 3.377,-4.971 5.066,-7.456 2.563,4.613 -1.032,7.935 -2.457,11.712 -0.318,0.438 -0.738,0.73 -1.259,0.879 l -0.261,0.029 -0.263,-10e-4 c -0.72,-0.334 -1.365,-0.709 -0.944,-1.683 0.039,-1.16 0.078,-2.32 0.118,-3.48 z"
   inkscape:connector-curvature="0"
   id="path105"
   style="fill:#b2e5e5;fill-rule:evenodd" />
	<path
   d="m 77.004,146.988 c 1.331,3.334 2.661,6.668 3.991,10.002 -1.224,0 -2.448,0 -3.991,0 0,-3.738 0,-6.87 0,-10.002 z"
   inkscape:connector-curvature="0"
   id="path107"
   style="fill:#b2e5e5;fill-rule:evenodd" />
	<path
   d="m 53.064,222.858 c 6.56,0.01 13.12,0.02 19.68,0.029 0.252,0.014 0.377,0.147 0.376,0.4 -0.068,0.221 -0.096,0.445 -0.083,0.676 l -0.046,0.06 c -6.642,-0.387 -13.284,-0.776 -19.927,-1.165 z"
   inkscape:connector-curvature="0"
   id="path109"
   style="fill:#0929a8;fill-rule:evenodd" />
	<path
   d="m 183.571,185.815 c -0.202,-0.259 -0.404,-0.518 -0.607,-0.776 6.765,0.305 13.531,0.609 20.296,0.914 -2.009,1.325 -4.367,-0.077 -6.425,0.834 -0.066,0.028 -0.118,0.214 -0.091,0.299 0.047,0.146 0.162,0.271 0.249,0.403 -4.473,-0.558 -8.948,-1.116 -13.422,-1.674 z"
   inkscape:connector-curvature="0"
   id="path111"
   style="fill:#669933;fill-rule:evenodd" />
	<path
   d="m 278.926,312.08 c -1.242,6.762 -5.947,1.246 -5.498,0.864 -1.12,0.278 1.221,-0.304 3.563,-0.887 0.644,0.008 1.29,0.015 1.935,0.023 z"
   inkscape:connector-curvature="0"
   id="path113"
   style="fill:#1f66e4;fill-rule:evenodd" />
	<path
   d="m 241.063,141.441 c 0.04,-0.511 0.08,-1.021 0.12,-1.533 5.893,-0.668 11.784,-0.688 17.677,0.011 -5.933,0.508 -11.866,1.015 -17.797,1.522 z"
   inkscape:connector-curvature="0"
   id="path115"
   style="fill:#0929a8;fill-rule:evenodd" />
	<path
   d="m 258.859,139.919 c -5.894,-0.003 -11.787,-0.005 -17.678,-0.009 5.896,-0.333 11.791,-0.664 17.688,-0.996 -0.004,0.335 -0.007,0.67 -0.01,1.005 z"
   inkscape:connector-curvature="0"
   id="path117"
   style="fill:#b2e5e5;fill-rule:evenodd" />
	<path
   d="m 247.188,99.491 c 1.938,0.289 3.874,0.579 7.526,1.125 -5.118,0 -8.54,0 -12.231,0 0.52,-0.396 0.947,-0.725 1.376,-1.052 1.108,-0.024 2.218,-0.048 3.329,-0.073 z"
   inkscape:connector-curvature="0"
   id="path119"
   style="fill:#b2e5e5;fill-rule:evenodd" />
	<path
   d="m 73.038,223.964 c 4.739,0 9.479,0 14.218,0 -0.021,0.456 -0.042,0.912 -0.064,1.368 -4.733,-0.437 -9.467,-0.872 -14.2,-1.309 l 0.046,-0.059 z"
   inkscape:connector-curvature="0"
   id="path121"
   style="fill:#0929a8;fill-rule:evenodd" />
	<path
   d="m 76.437,123.078 c -0.08,2.328 -0.16,4.656 -0.24,6.985 -0.041,1.953 -0.083,3.905 -0.124,5.858 -0.125,0.475 -0.249,0.949 -0.374,1.424 -0.434,-0.047 -0.867,-0.094 -1.3,-0.14 0.679,-4.708 1.359,-9.418 2.038,-14.127 z"
   inkscape:connector-curvature="0"
   id="path123"
   style="fill:#0929a8;fill-rule:evenodd" />
	<path
   d="m 94.017,337.097 c -3.009,0.689 -6.017,1.379 -9.026,2.069 3.009,-0.689 6.017,-1.38 9.026,-2.069 z"
   inkscape:connector-curvature="0"
   id="path125"
   style="fill:#0929a8;fill-rule:evenodd" />
	<path
   d="m 196.993,187.489 c 2.089,-0.512 4.179,-1.023 6.268,-1.536 0.875,0.247 1.75,0.493 2.624,0.739 -3.537,-0.517 -7.073,-1.033 -15.61,-2.28 5.339,2.445 6.029,2.761 6.718,3.077 z"
   inkscape:connector-curvature="0"
   id="path127"
   style="fill:#5bd6d6;fill-rule:evenodd" />
	<path
   d="m 251.383,320.536 c -0.035,-1.416 -0.07,-2.832 -0.106,-4.246 0.285,1.462 0.57,2.921 0.868,4.369 -0.145,0.122 -0.303,0.255 -0.438,0.395 -0.092,-0.169 -0.208,-0.344 -0.324,-0.518 z"
   inkscape:connector-curvature="0"
   id="path129"
   style="fill:#5bd6d6;fill-rule:evenodd" />
	<path
   d="m 150.273,194.92 c -1.826,0.664 -3.651,1.328 -5.479,1.992 1.826,-0.664 3.653,-1.328 5.479,-1.992 z"
   inkscape:connector-curvature="0"
   id="path131"
   style="fill:#0929a8;fill-rule:evenodd" />
	<path
   d="m 107.01,156.959 c 0.034,-3.365 0.068,-6.729 0.103,-10.093 -0.034,3.364 -0.069,6.729 -0.103,10.093 z"
   inkscape:connector-curvature="0"
   id="path133"
   style="fill:#b2e5e5;fill-rule:evenodd" />
	<path
   d="m 57.22,132.868 c 0.529,2.065 1.058,4.131 1.586,6.196 -0.529,-2.065 -1.057,-4.13 -1.586,-6.196 z"
   inkscape:connector-curvature="0"
   id="path135"
   style="fill:#0929a8;fill-rule:evenodd" />
	<path
   d="m 199.592,172.987 c 2.714,-0.421 5.429,-0.843 8.144,-1.264 -2.715,0.422 -5.43,0.843 -8.144,1.264 z"
   inkscape:connector-curvature="0"
   id="path137"
   style="fill:#0929a8;fill-rule:evenodd" />
	<path
   d="m 106.909,140.95 c -0.418,-1.286 -0.837,-2.571 -2.056,-6.312 2.282,2.691 2.9,3.421 3.514,4.147 -0.488,0.721 -0.973,1.444 -1.458,2.165 z"
   inkscape:connector-curvature="0"
   id="path139"
   style="fill:#3d8e8e;fill-rule:evenodd" />
	<path
   d="m 265.982,191.203 c -0.328,1.077 -0.656,2.154 -0.983,3.234 0.364,-2.483 0.728,-4.969 1.092,-7.453 0.59,1.422 0.784,2.835 -0.109,4.219 z"
   inkscape:connector-curvature="0"
   id="path141"
   style="fill:#3f3f3f;fill-rule:evenodd" />
	<path
   d="m 265.982,191.203 c 0.035,-1.406 0.072,-2.813 0.108,-4.22 0.223,-0.24 0.467,-0.453 0.732,-0.635 -0.279,1.621 -0.559,3.238 -0.84,4.855 z"
   inkscape:connector-curvature="0"
   id="path143"
   style="fill:#5bd6d6;fill-rule:evenodd" />
	<path
   d="m 15.81,324.525 c 0.151,-1.809 0.302,-3.617 0.453,-5.426 -0.151,1.809 -0.302,3.618 -0.453,5.426 z"
   inkscape:connector-curvature="0"
   id="path145"
   style="fill:#3d8e8e;fill-rule:evenodd" />
	<path
   d="m 248.069,300.579 c -0.261,-1.154 -0.522,-2.309 -0.784,-3.463 0.188,-0.063 0.379,-0.1 0.577,-0.108 0.996,1.137 0.826,2.341 0.207,3.571 z"
   inkscape:connector-curvature="0"
   id="path147"
   style="fill:#5bd6d6;fill-rule:evenodd" />
	<path
   d="m 266.733,102.87 c 0.005,2.062 0.011,4.124 0.015,6.187 -0.004,-2.062 -0.01,-4.124 -0.015,-6.187 z"
   inkscape:connector-curvature="0"
   id="path149"
   style="fill:#0929a8;fill-rule:evenodd" />
	<path
   d="m 267.908,178.387 c -0.266,1.293 -0.529,2.587 -0.795,3.88 0.266,-1.293 0.53,-2.586 0.795,-3.88 z"
   inkscape:connector-curvature="0"
   id="path151"
   style="fill:#3f3f3f;fill-rule:evenodd" />
	<path
   d="m 248.069,300.579 c -0.069,-1.19 -0.138,-2.381 -0.207,-3.571 0.354,1.708 0.708,3.417 1.062,5.125 -0.285,-0.518 -0.57,-1.035 -0.855,-1.554 z"
   inkscape:connector-curvature="0"
   id="path153"
   style="fill:#3f3f3f;fill-rule:evenodd" />
	<path
   d="m 123.297,324.538 c 0.314,0.56 0.629,1.119 0.944,1.681 -0.327,0.268 -0.655,0.532 -0.982,0.797 -0.767,-0.073 -1.534,-0.146 -2.301,-0.22 0.78,-0.753 1.559,-1.505 2.339,-2.258 z"
   inkscape:connector-curvature="0"
   id="path155"
   style="fill:#0929a8;fill-rule:evenodd" />
	<path
   d="m 263.92,123.915 c 0.16,-1.323 0.321,-2.647 0.482,-3.971 -0.161,1.324 -0.322,2.647 -0.482,3.971 z"
   inkscape:connector-curvature="0"
   id="path157"
   style="fill:#0929a8;fill-rule:evenodd" />
	<path
   d="m 125.132,324.846 c 1.117,-3.749 2.234,-7.498 3.35,-11.245 -0.001,10e-4 -0.035,-0.231 -0.035,-0.231 2.657,-8.288 5.726,-16.412 9.625,-24.206 l 0.004,-0.095 c 0.51,-0.699 0.389,-1.673 1.009,-2.324 l -0.017,-0.122 c 0.845,-0.979 -0.426,-2.951 1.587,-3.382 l -0.272,-0.144 -0.132,0.277 c -0.096,-0.701 0.443,-1.068 0.805,-1.529 l 0,-0.235 c 0.301,-0.809 0.247,-1.779 1.074,-2.347 0.932,-2.441 1.864,-4.882 2.795,-7.322 1.417,-2.9 1.402,-6.383 3.637,-8.951 0.188,-0.645 0.377,-1.29 0.565,-1.935 0.955,-2.727 1.464,-5.656 3.572,-7.859 0.382,-1.031 0.764,-2.063 1.146,-3.094 -0.169,-1.571 0.158,-2.974 1.387,-4.068 l -0.125,0.112 c 0.424,-2.023 1.495,-3.16 3.736,-3.132 11.089,0.143 22.174,-0.152 33.257,-0.489 0.562,-0.018 0.908,0.329 1.32,0.584 l 0.115,0.035 c 4.044,1.795 3.788,5.841 4.82,9.213 l -0.065,0.187 c 2.895,2.723 3.421,6.577 4.601,10.058 1.448,4.271 2.732,8.639 2.725,13.238 -15.777,0 -31.554,0 -47.438,0 -6.744,17.042 -12.991,32.831 -19.239,48.62 -0.808,0.571 -1.31,1.521 -2.3,1.869 -2.107,0.97 -4.337,0.74 -6.55,0.67 -1.19,-0.075 -2.351,-0.306 -3.469,-0.733 -0.645,-0.315 -1.112,-0.821 -1.488,-1.42 z"
   inkscape:connector-curvature="0"
   id="path159"
   style="fill:#060708;fill-rule:evenodd" />
	<path
   d="m 206.942,290.044 c 0.445,5.369 0.891,10.738 1.335,16.108 -11.204,-6.086 -23.169,0.063 -34.843,-2.894 -2.65,7.419 -5.092,14.257 -7.536,21.098 -1.3,0.119 -2.599,0.236 -3.897,0.354 -1.343,0.968 -2.678,0.971 -4.003,-0.036 -2.27,-0.175 -4.54,-0.351 -7.521,-0.58 4.53,-11.607 8.837,-22.641 13.291,-34.05 14.658,0 28.916,0 43.174,0 z"
   inkscape:connector-curvature="0"
   id="path161"
   style="fill:#5bd6d6;fill-rule:evenodd" />
	<path
   d="m 157.998,324.674 c 1.33,0.012 2.66,0.023 3.997,0.035 1.147,0.092 2.287,0.183 3.894,0.311 -8.916,22.075 -17.728,43.893 -26.54,65.711 -1.659,-1.424 -0.682,-3.143 -0.532,-4.768 -7.971,-22.553 4.63,-41.104 11.75,-61.289 2.512,0 4.972,0 7.431,0 z"
   inkscape:connector-curvature="0"
   id="path163"
   style="fill:#060708;fill-rule:evenodd" />
	<path
   d="m 125.132,324.846 c 0.49,-0.06 0.98,-0.118 1.47,-0.177 0.844,-0.116 1.688,-0.249 2.52,0.063 2.633,10e-4 5.266,0.003 7.899,0.004 1.127,1.437 0.666,2.863 -0.028,4.288 -1.874,4.661 -3.747,9.321 -6.383,15.88 -2.394,-7.666 -4.119,-13.188 -5.844,-18.711 0.122,-0.45 0.244,-0.899 0.366,-1.347 z"
   inkscape:connector-curvature="0"
   id="path165"
   style="fill:#ecdee3;fill-rule:evenodd" />
	<path
   d="m 205.616,275.839 c -2.441,-7.764 -4.883,-15.528 -7.325,-23.294 3.437,8.104 6.875,16.21 10.31,24.315 -0.604,0.641 -1.205,1.281 -1.805,1.921 -0.188,0.058 -0.375,0.115 -0.563,0.173 -0.206,-1.038 -0.411,-2.076 -0.617,-3.115 z"
   inkscape:connector-curvature="0"
   id="path167"
   style="fill:#b2e5e5;fill-rule:evenodd" />
	<path
   d="m 136.993,329.024 c 0.009,-1.43 0.018,-2.858 0.027,-4.288 0.64,-0.093 1.279,-0.186 1.918,-0.278 -0.647,1.522 -1.296,3.044 -1.945,4.566 z"
   inkscape:connector-curvature="0"
   id="path169"
   style="fill:#b2e5e5;fill-rule:evenodd" />
	<path
   d="m 138.816,385.963 c 0.177,1.588 0.354,3.177 0.532,4.767 -0.178,-1.589 -0.355,-3.178 -0.532,-4.767 z"
   inkscape:connector-curvature="0"
   id="path171"
   style="fill:#1f66e4;fill-rule:evenodd" />
	<path
   d="m 206.233,278.954 c 0.186,-0.063 0.374,-0.119 0.563,-0.17 0.042,1.662 0.083,3.326 0.125,4.988 -0.23,-1.607 -0.459,-3.212 -0.688,-4.818 z"
   inkscape:connector-curvature="0"
   id="path173"
   style="fill:#5bd6d6;fill-rule:evenodd" />
	<path
   d="m 73.089,68.993 c -0.081,2.624 -0.162,5.248 -0.242,7.871 -1.523,2.645 -0.59,5.539 -0.843,8.313 -0.177,1.948 0.458,4.021 -0.917,5.779 l -0.128,0.153 c -5.968,1.352 -11.924,1.638 -17.856,-0.202 l -0.006,-0.02 c -0.942,-6.78 2.087,-12.756 3.848,-18.988 l -0.038,0.113 c 0.406,-0.282 0.727,-0.645 0.991,-1.06 0.146,-0.648 0.293,-1.298 0.44,-1.946 1.09,-0.921 2.207,-1.825 2.083,-3.474 l 0.078,0.213 c 2.965,-2.119 4.904,-5.214 7.389,-7.789 0.445,-0.304 0.889,-0.607 1.333,-0.911 1.465,-0.843 2.959,-1.254 5.015,-0.074 0.663,3.93 -1.111,7.928 -1.147,12.022 z"
   inkscape:connector-curvature="0"
   id="path175"
   style="fill:#5bd6d6;fill-rule:evenodd" />
	<path
   d="m 122.516,38.811 c -15.691,3.286 -31.906,4.872 -45.775,14.08 -0.075,0.246 -0.15,0.492 -0.225,0.737 -0.161,-0.2 -0.321,-0.401 -0.481,-0.602 L 75.96,52.959 c 0.035,-7.612 0.07,-15.226 0.104,-22.838 2.223,-0.358 4.448,-1.086 6.662,0.053 1.513,1.949 1.667,3.967 0.319,6.063 -0.348,0.282 -0.65,0.647 -1.996,0.674 1.323,0.03 1.727,-0.197 2.151,-0.362 3.687,-1.339 7.481,-0.536 11.232,-0.579 2.098,0.233 4.197,0.223 6.3,-0.016 2.83,-0.143 5.656,-0.147 8.482,0.034 4.348,1.351 9.141,0.597 13.302,2.823 z"
   inkscape:connector-curvature="0"
   id="path177"
   style="fill:#ecdee3;fill-rule:evenodd" />
	<path
   d="m 81.616,30.029 c -1.851,0.03 -3.703,0.06 -5.553,0.091 -17.851,10e-4 -35.703,10e-4 -53.964,10e-4 -0.129,-2.4 -0.249,-4.633 -0.369,-6.863 0.755,-0.177 1.51,-0.354 2.263,-0.532 -0.298,1.724 -0.595,3.447 -1.067,6.194 42.246,0 83.771,0 126.471,0 -3.713,11.149 -7.04,21.136 -10.365,31.123 -0.241,-0.167 -0.481,-0.335 -0.724,-0.5 -2.774,-5.439 0.563,-10.289 1.581,-15.332 0.705,-3.492 3.14,-6.625 2.335,-10.334 -2.042,-2.117 -4.5,-1.602 -6.759,-1.612 -15.312,-0.073 -30.625,-0.009 -45.937,-0.048 -2.833,-0.007 -5.703,0.092 -7.912,-2.188 z"
   inkscape:connector-curvature="0"
   id="path179"
   style="fill:#b2e5e5;fill-rule:evenodd" />
	<path
   d="m 56.945,71.899 c -1.283,6.329 -2.566,12.659 -3.849,18.989 -0.339,0.021 -0.678,0.043 -1.018,0.064 1.623,-6.35 3.245,-12.702 4.867,-19.053 z"
   inkscape:connector-curvature="0"
   id="path181"
   style="fill:#b2e5e5;fill-rule:evenodd" />
	<path
   d="m 73.089,68.993 c 0,-3.56 0,-7.12 0,-11.502 -0.882,-0.102 -2.375,-0.273 -3.869,-0.445 1.469,-0.737 2.938,-1.475 4.406,-2.213 -0.179,4.721 -0.358,9.44 -0.537,14.16 z"
   inkscape:connector-curvature="0"
   id="path183"
   style="fill:#b2e5e5;fill-rule:evenodd" />
	<path
   d="m 67.887,57.957 c -2.463,2.595 -4.926,5.19 -7.389,7.787 2.463,-2.595 4.926,-5.19 7.389,-7.787 z"
   inkscape:connector-curvature="0"
   id="path185"
   style="fill:#b2e5e5;fill-rule:evenodd" />
	<path
   d="m 60.42,65.533 c -0.694,1.157 -1.388,2.315 -2.082,3.473 0.694,-1.157 1.388,-2.316 2.082,-3.473 z"
   inkscape:connector-curvature="0"
   id="path187"
   style="fill:#b2e5e5;fill-rule:evenodd" />
	<path
   d="m 57.898,70.953 c -0.331,0.353 -0.661,0.706 -0.991,1.059 0.33,-0.353 0.66,-0.705 0.991,-1.059 z"
   inkscape:connector-curvature="0"
   id="path189"
   style="fill:#b2e5e5;fill-rule:evenodd" />
	<path
   d="m 206.069,343.019 c 0.249,-2.415 0.498,-4.829 0.746,-7.243 -0.248,2.413 -0.497,4.828 -0.746,7.243 z"
   inkscape:connector-curvature="0"
   id="path191"
   style="fill:#3f3f3f;fill-rule:evenodd" />
	<path
   d="m 205.553,350.009 c 0.09,-0.75 0.179,-1.501 0.269,-2.252 -0.09,0.751 -0.179,1.502 -0.269,2.252 z"
   inkscape:connector-curvature="0"
   id="path193"
   style="fill:#3f3f3f;fill-rule:evenodd" />
	<path
   d="m 207.377,325.012 c -0.19,-0.297 -0.38,-0.593 -0.57,-0.89 0.19,0.297 0.381,0.593 0.57,0.89 z"
   inkscape:connector-curvature="0"
   id="path195"
   style="fill:#3f3f3f;fill-rule:evenodd" />
	<path
   d="m 415.848,360.395 c 0,8.76 0,17.197 0,26.131 -25.225,0 -50.25,0 -75.605,0 0,-8.539 0,-17.103 0,-26.131 25.101,0 50.107,0 75.605,0 z"
   inkscape:connector-curvature="0"
   id="path197"
   style="fill:#b2e5e5;fill-rule:evenodd" />
	<path
   d="m 327.875,352.164 c 1.078,-1.435 2.157,-2.87 3.236,-4.306 0.595,-1.442 1.551,-2.437 3.197,-2.575 l -0.223,0.025 c 7.134,-4.257 15.104,-4.054 22.988,-4.309 3.916,-0.144 7.856,0.379 11.743,-0.483 7.626,0 15.231,-0.849 22.862,-0.512 1.797,0.079 3.68,-0.318 5.284,0.901 32.587,-1.74 40.181,18.503 40.056,45.537 -2.458,0.145 -4.916,0.289 -7.127,0.419 -4.752,-10.572 1.234,-24.256 -10.842,-31.869 -1.081,-0.152 -1.229,-1.445 -2.167,-1.773 -21.171,-5.257 -42.61,-1.669 -63.933,-1.943 -3.152,1.849 -7.032,-0.551 -10.108,1.733 -1.944,1.275 -3.888,2.55 -5.831,3.824 -0.584,0.739 -1.266,1.397 -1.801,2.178 l -0.195,0.232 c -0.83,0.694 -1.512,1.447 -1.053,2.652 -0.035,0.394 -0.071,0.787 -0.107,1.182 -1.137,1.127 -1.943,2.479 -2.661,3.892 -0.13,0.706 -0.26,1.413 -0.39,2.119 -1.105,1.071 -0.532,2.788 -1.502,3.912 -0.852,4.518 -1.702,9.035 -2.604,13.822 -2.553,0 -5.176,0 -7.797,0 -1.435,-3.384 -1.263,-6.781 -0.083,-10.187 1.405,-5.922 2.811,-11.844 4.216,-17.766 0.057,-1.606 0.936,-2.787 2.006,-3.869 l -0.029,0.046 c 0.596,-0.47 0.249,-1.64 1.312,-1.762 l -0.126,0.049 c 0.152,-0.975 1.16,-0.72 1.679,-1.169 z"
   inkscape:connector-curvature="0"
   id="path199"
   style="fill:#e0321c;fill-rule:evenodd" />
	<path
   d="m 336.613,260.522 c -2.242,-6.601 -4.484,-13.202 -6.727,-19.803 -1.586,-1.552 -1.224,-3.909 -2.342,-5.655 -4.076,-13.768 -8.152,-27.535 -12.229,-41.302 1.258,0.455 2.517,0.909 3.774,1.363 1.35,1.449 0.711,3.313 1.039,4.977 2.408,7.604 4.817,15.206 7.226,22.809 0.373,0.729 0.904,1.334 1.498,1.89 0.758,2.695 1.518,5.392 2.276,8.088 1.25,1.126 0.519,3.11 1.823,4.213 l -0.035,-0.078 c 3.238,3.578 2.46,8.453 4.057,12.561 0.091,1.184 0.182,2.367 0.271,3.551 3.646,2.291 1.827,6.708 3.758,9.666 0.656,2.034 1.313,4.067 1.971,6.101 2.053,1.595 0.467,4.396 2.037,6.15 1.416,4.662 2.834,9.324 4.251,13.986 1.109,1.041 0.38,2.852 1.606,3.844 2.117,7.329 4.236,14.658 6.354,21.988 0.817,1.374 0.879,2.747 -0.009,4.118 -0.679,-0.03 -1.358,-0.062 -2.036,-0.092 -5.993,-17.916 -11.985,-35.833 -17.979,-53.75 -1.741,-1.345 -1.137,-2.988 -0.584,-4.625 z"
   inkscape:connector-curvature="0"
   id="path201"
   style="fill:#e0321c;fill-rule:evenodd" />
	<path
   d="m 336.975,249.584 c -1.352,-4.187 -2.704,-8.373 -4.057,-12.561 6.19,2.624 3.186,8.219 4.057,12.561 z"
   inkscape:connector-curvature="0"
   id="path203"
   style="fill:#1f66e4;fill-rule:evenodd" />
	<path
   d="m 341.004,262.801 c -1.252,-3.223 -2.506,-6.445 -3.758,-9.667 6.996,0.99 1.73,6.747 3.758,9.667 z"
   inkscape:connector-curvature="0"
   id="path205"
   style="fill:#1f66e4;fill-rule:evenodd" />
	<path
   d="m 342.843,353.01 c 3.369,-0.577 6.739,-1.155 10.108,-1.733 -3.37,0.577 -6.739,1.156 -10.108,1.733 z"
   inkscape:connector-curvature="0"
   id="path207"
   style="fill:#1f66e4;fill-rule:evenodd" />
	<path
   d="m 345.012,275.052 c -0.68,-2.049 -1.357,-4.099 -2.037,-6.148 0.678,2.048 1.357,4.098 2.037,6.148 z"
   inkscape:connector-curvature="0"
   id="path209"
   style="fill:#1f66e4;fill-rule:evenodd" />
	<path
   d="m 390.123,157.104 c 0.635,0.943 1.269,1.887 2.045,3.041 -1.24,1.476 -2.628,3.128 -4.016,4.779 0.658,-2.607 1.315,-5.214 1.971,-7.82 z"
   inkscape:connector-curvature="0"
   id="path211"
   style="fill:#b2e5e5;fill-rule:evenodd" />
	<path
   d="m 331.194,366.97 c 0,-1.075 0,-2.15 0,-3.607 0.979,-0.105 1.821,-0.196 2.663,-0.285 -0.888,1.297 -1.776,2.594 -2.663,3.892 z"
   inkscape:connector-curvature="0"
   id="path213"
   style="fill:#1f66e4;fill-rule:evenodd" />
	<path
   d="m 350.869,292.882 c -0.535,-1.281 -1.071,-2.563 -1.607,-3.845 0.391,-0.259 0.779,-0.52 1.607,-1.072 0,1.863 0,3.389 0,4.917 z"
   inkscape:connector-curvature="0"
   id="path215"
   style="fill:#1f66e4;fill-rule:evenodd" />
	<path
   d="m 320.13,200.103 c -0.347,-1.659 -0.693,-3.319 -1.04,-4.978 0.348,1.66 0.693,3.318 1.04,4.978 z"
   inkscape:connector-curvature="0"
   id="path217"
   style="fill:#1f66e4;fill-rule:evenodd" />
	<path
   d="m 318.819,376.637 c 0.028,3.396 0.056,6.792 0.083,10.188 -0.342,0.045 -0.682,0.091 -1.023,0.136 -0.475,-3.342 -0.881,-6.683 0.221,-9.989 0.254,-0.081 0.494,-0.193 0.719,-0.335 z"
   inkscape:connector-curvature="0"
   id="path219"
   style="fill:#3d8e8e;fill-rule:evenodd" />
	<path
   d="m 332.953,237.102 c -0.607,-1.403 -1.215,-2.808 -1.822,-4.212 0.607,1.403 1.215,2.807 1.822,4.212 z"
   inkscape:connector-curvature="0"
   id="path221"
   style="fill:#1f66e4;fill-rule:evenodd" />
	<path
   d="m 318.1,376.971 c -0.073,3.33 -0.146,6.659 -0.221,9.989 l -0.457,0.103 c 0,0 -0.447,-0.141 -0.448,-0.141 0.375,-3.318 0.751,-6.635 1.126,-9.951 z"
   inkscape:connector-curvature="0"
   id="path223"
   style="fill:#ecdee3;fill-rule:evenodd" />
	<path
   d="m 357.214,318.988 c 0.003,-1.372 0.007,-2.744 0.009,-4.117 -0.003,1.371 -0.006,2.744 -0.009,4.117 z"
   inkscape:connector-curvature="0"
   id="path225"
   style="fill:#1f66e4;fill-rule:evenodd" />
	<path
   d="m 416.884,353.22 c 0.722,0.591 1.444,1.182 2.167,1.772 -0.293,0.341 -0.585,0.681 -1.195,1.391 -0.387,-1.258 -0.68,-2.211 -0.972,-3.163 z"
   inkscape:connector-curvature="0"
   id="path227"
   style="fill:#1f66e4;fill-rule:evenodd" />
	<path
   d="m 329.303,373.001 c 0.502,-1.307 1.004,-2.612 1.504,-3.915 -0.502,1.307 -1.004,2.61 -1.504,3.915 z"
   inkscape:connector-curvature="0"
   id="path229"
   style="fill:#1f66e4;fill-rule:evenodd" />
	<path
   d="m 333.963,361.896 c 0.352,-0.885 0.702,-1.769 1.053,-2.653 -0.352,0.885 -0.702,1.77 -1.053,2.653 z"
   inkscape:connector-curvature="0"
   id="path231"
   style="fill:#1f66e4;fill-rule:evenodd" />
	<path
   d="m 335.211,359.012 c 0.6,-0.726 1.2,-1.451 1.801,-2.177 -0.6,0.725 -1.2,1.451 -1.801,2.177 z"
   inkscape:connector-curvature="0"
   id="path233"
   style="fill:#1f66e4;fill-rule:evenodd" />
	<path
   d="m 328.854,224.801 c -0.5,-0.629 -0.999,-1.258 -1.498,-1.889 0.498,0.629 0.998,1.259 1.498,1.889 z"
   inkscape:connector-curvature="0"
   id="path235"
   style="fill:#1f66e4;fill-rule:evenodd" />
	<path
   d="m 290.197,50.268 c -0.973,3.458 -1.945,6.917 -2.917,10.371 0.972,-3.459 1.945,-6.915 2.917,-10.371 z"
   inkscape:connector-curvature="0"
   id="path237"
   style="fill:#b2e5e5;fill-rule:evenodd" />
	<path
   d="m 333.112,115.123 c 6.692,10e-4 13.384,0.002 20.076,0.003 -6.691,-0.001 -13.383,-0.002 -20.076,-0.003 z"
   inkscape:connector-curvature="0"
   id="path239"
   style="fill:#f5859d;fill-rule:evenodd" />
	<path
   d="m 324.082,112.944 c 2.211,0.611 4.42,1.222 6.627,1.832 -2.211,-0.61 -4.418,-1.22 -6.627,-1.832 z"
   inkscape:connector-curvature="0"
   id="path241"
   style="fill:#b2e5e5;fill-rule:evenodd" />
	<path
   d="m 360.117,114.042 c -0.584,-0.068 -1.168,-0.137 -8.508,-0.995 8.703,0 10.641,0 12.578,0 -1.356,0.332 -2.713,0.664 -4.07,0.995 z"
   inkscape:connector-curvature="0"
   id="path243"
   style="fill:#b2e5e5;fill-rule:evenodd" />
	<path
   d="m 270.978,252.749 c 0.045,-1.055 0.09,-2.108 0.135,-3.157 0.597,2.517 1.192,5.027 1.788,7.54 -0.259,-0.15 -0.533,-0.264 -0.823,-0.338 -1.483,-1.045 -1.566,-2.471 -1.1,-4.045 z"
   inkscape:connector-curvature="0"
   id="path245"
   style="fill:#fac2ce;fill-rule:evenodd" />
	<path
   d="m 280.312,304.197 c -0.397,-1.741 -0.796,-3.482 -1.194,-5.224 0.398,1.743 0.796,3.483 1.194,5.224 z"
   inkscape:connector-curvature="0"
   id="path247"
   style="fill:#669933;fill-rule:evenodd" />
	<path
   d="m 278.662,293.456 c -0.442,-1.246 -0.885,-2.492 -1.326,-3.739 0.441,1.246 0.885,2.492 1.326,3.739 z"
   inkscape:connector-curvature="0"
   id="path249"
   style="fill:#669933;fill-rule:evenodd" />
	<path
   d="m 134.759,100.566 c -0.467,-0.245 -0.934,-0.49 -1.401,-0.734 -2.927,-4.752 -1.623,-9.977 -1.26,-14.931 0.48,-6.551 1.533,-13.084 2.854,-19.541 0.48,-2.346 0.696,-5.055 3.986,-5.401 l 0.093,0.084 c -1.424,13.508 -2.848,27.016 -4.272,40.523 z"
   inkscape:connector-curvature="0"
   id="path251"
   style="fill:#b2e5e5;fill-rule:evenodd" />
	<path
   d="m 204.556,122.925 c 0.911,0.097 1.822,0.194 2.733,0.292 0.017,0.693 -0.263,1.232 -0.84,1.618 -3.213,1.223 -6.568,0.693 -9.841,0.617 -11.072,-0.257 -22.168,0.846 -33.218,-0.588 -0.552,-0.382 -0.907,-0.898 -1.065,-1.55 4.749,-0.124 9.499,-0.247 14.246,-0.371 1.405,-0.046 2.813,-0.093 4.222,-0.139 7.923,-0.533 15.845,-0.572 23.763,0.121 z"
   inkscape:connector-curvature="0"
   id="path253"
   style="fill:#3d8e8e;fill-rule:evenodd" />
	<path
   d="m 204.556,122.925 c -7.92,-0.04 -15.841,-0.08 -23.762,-0.12 7.73,-0.268 15.462,-0.535 23.194,-0.803 0.189,0.308 0.378,0.615 0.568,0.923 z"
   inkscape:connector-curvature="0"
   id="path255"
   style="fill:#b2e5e5;fill-rule:evenodd" />
	<path
   d="m 356.861,341.765 c -7.59,1.182 -15.182,2.362 -22.773,3.544 20.463,-8.526 41.699,-6.056 62.877,-4.402 -9.662,0.098 -19.322,0.195 -28.983,0.293 -3.675,0.817 -7.443,-0.195 -11.121,0.565 z"
   inkscape:connector-curvature="0"
   id="path257"
   style="fill:#ecdee3;fill-rule:evenodd" />
	<path
   d="m 325.041,355.002 c -0.669,1.291 -1.338,2.581 -2.006,3.87 0.669,-1.29 1.337,-2.58 2.006,-3.87 z"
   inkscape:connector-curvature="0"
   id="path259"
   style="fill:#ecdee3;fill-rule:evenodd" />
	<path
   d="m 334.309,345.283 c -1.066,0.859 -2.133,1.718 -3.199,2.576 1.067,-0.859 2.132,-1.717 3.199,-2.576 z"
   inkscape:connector-curvature="0"
   id="path261"
   style="fill:#ecdee3;fill-rule:evenodd" />
	<path
   d="m 326.323,353.286 c -0.437,0.587 -0.874,1.175 -1.311,1.762 0.437,-0.587 0.875,-1.175 1.311,-1.762 z"
   inkscape:connector-curvature="0"
   id="path263"
   style="fill:#ecdee3;fill-rule:evenodd" />
	<path
   d="m 327.875,352.164 c -0.56,0.391 -1.119,0.78 -1.678,1.171 0.56,-0.391 1.118,-0.78 1.678,-1.171 z"
   inkscape:connector-curvature="0"
   id="path265"
   style="fill:#ecdee3;fill-rule:evenodd" />
	<path
   d="m 197.207,144.812 c -2.428,0.192 -4.856,0.386 -7.285,0.579 -6.899,0.142 -13.799,0.261 -20.698,-0.062 -1.625,-0.178 -3.251,-0.355 -4.877,-0.532 -2.175,-2.535 -5.412,-0.419 -7.853,-1.792 -15.025,-2.136 -28.95,-7.071 -41.231,-16.192 -1.244,-1.386 -0.333,-2.104 0.896,-2.514 1.601,-0.533 3.297,-0.268 4.953,-0.293 25.256,-0.383 50.501,0.677 75.757,0.545 7.475,-0.038 14.921,-0.901 22.399,-0.548 1.81,0.086 3.67,-0.276 5.392,0.598 1.572,4.367 0.928,8.792 0.342,13.215 -4.343,1.314 -8.685,2.629 -13.028,3.942 -5.107,0.123 -10.029,1.141 -14.767,3.054 z"
   inkscape:connector-curvature="0"
   id="path267"
   style="fill:#0929a8;fill-rule:evenodd" />
	<path
   d="m 224.898,125.453 c -35.624,-0.103 -71.249,-0.218 -106.873,-0.237 -0.922,-10e-4 -1.845,1.041 -2.765,1.597 -0.832,-1.025 -1.667,-2.052 -2.5,-3.077 5.555,-0.532 11.123,-0.093 16.685,-0.235 11.149,0.143 22.301,-0.29 33.445,0.231 14.934,0.043 29.867,0.087 44.8,0.131 5.691,-0.71 11.392,-0.367 17.092,-0.173 0.261,-0.028 0.468,0.064 0.621,0.278 0.131,0.596 -0.038,1.092 -0.505,1.485 z"
   inkscape:connector-curvature="0"
   id="path269"
   style="fill:#060708;fill-rule:evenodd" />
	<path
   d="m 169.224,145.329 c 6.917,0.018 13.834,0.036 20.725,0.058 -6.926,-0.017 -13.825,-0.037 -20.725,-0.058 z"
   inkscape:connector-curvature="0"
   id="path271"
   style="fill:#1f66e4;fill-rule:evenodd" />
	<path
   d="m 197.207,144.812 c 4.922,-1.018 9.844,-2.035 14.767,-3.053 -4.922,1.017 -9.845,2.035 -14.767,3.053 z"
   inkscape:connector-curvature="0"
   id="path273"
   style="fill:#060708;fill-rule:evenodd" />
	<path
   d="m 128.811,123.691 c -5.356,0.016 -10.713,0.03 -16.06,0.045 -0.535,-0.083 -1.08,-0.165 -1.624,-0.248 0,-0.001 -0.142,-0.092 -0.141,-0.092 6.062,0.022 12.123,0.045 18.184,0.066 l -0.359,0.229 z"
   inkscape:connector-curvature="0"
   id="path275"
   style="fill:#5bd6d6;fill-rule:evenodd" />
	<path
   d="m 224.898,125.453 c 0.168,-0.495 0.336,-0.991 0.504,-1.486 0.256,4.204 0.511,8.407 0.766,12.609 -0.389,0.412 -0.778,0.826 -1.167,1.239 -0.033,-4.12 -0.068,-8.241 -0.103,-12.362 z"
   inkscape:connector-curvature="0"
   id="path277"
   style="fill:#669933;fill-rule:evenodd" />
	<path
   d="m 156.495,143.005 c 2.621,0.597 5.242,1.194 7.858,1.792 -2.624,-0.598 -5.241,-1.195 -7.858,-1.792 z"
   inkscape:connector-curvature="0"
   id="path279"
   style="fill:#060708;fill-rule:evenodd" />
	<path
   d="m 251.045,126.854 c 1.207,-0.648 2.414,-1.297 3.619,-1.944 -1.208,0.649 -2.414,1.296 -3.619,1.944 z"
   inkscape:connector-curvature="0"
   id="path281"
   style="fill:#fac2ce;fill-rule:evenodd" />
	<path
   d="m 254.986,124.7 c 0.694,-0.521 1.389,-1.041 2.084,-1.562 -0.695,0.521 -1.389,1.042 -2.084,1.562 z"
   inkscape:connector-curvature="0"
   id="path283"
   style="fill:#fac2ce;fill-rule:evenodd" />
	<path
   d="m 193.42,243.108 c -12.706,1.831 -25.933,-2.911 -38.313,3.037 6.444,-9.123 15.688,-2.188 23.46,-3.937 4.559,-1.025 9.52,-0.263 14.3,-0.305 0.185,0.402 0.369,0.804 0.553,1.205 z"
   inkscape:connector-curvature="0"
   id="path285"
   style="fill:#b2e5e5;fill-rule:evenodd" />
	<path
   d="m 198.355,252.356 c -1.607,-3.071 -3.214,-6.142 -4.82,-9.213 2.135,0.003 4.271,0.005 6.406,0.007 -0.529,3.069 -1.057,6.138 -1.586,9.206 z"
   inkscape:connector-curvature="0"
   id="path287"
   style="fill:#b2e5e5;fill-rule:evenodd" />
	<path
   d="m 184.969,232.602 c -0.478,0.515 -0.957,1.029 -1.435,1.545 -0.782,-1.669 -1.563,-3.337 -2.343,-5.005 1.261,1.153 2.519,2.306 3.778,3.46 z"
   inkscape:connector-curvature="0"
   id="path289"
   style="fill:#b2e5e5;fill-rule:evenodd" />
	<path
   d="m 327.545,235.064 c 0.781,1.886 1.563,3.771 2.342,5.656 -0.782,-1.885 -1.561,-3.77 -2.342,-5.656 z"
   inkscape:connector-curvature="0"
   id="path291"
   style="fill:#b2e5e5;fill-rule:evenodd" />
	<path
   d="m 336.613,260.522 c 0.195,1.541 0.391,3.081 0.586,4.623 -4.615,-0.979 -1.763,-2.907 -0.586,-4.623 z"
   inkscape:connector-curvature="0"
   id="path293"
   style="fill:#5bd6d6;fill-rule:evenodd" />
	<path
   d="m 138.938,59.959 c -1.86,13.291 -3.721,26.582 -5.581,39.873 -10.418,0 -20.836,0 -31.919,0 2.139,-6.585 3.961,-12.195 5.784,-17.806 2.2,-1.392 3.601,0.596 5.319,1.25 0.414,0.135 0.83,0.254 1.258,0.341 0.649,0.172 1.253,0.445 1.834,0.777 0.612,0.319 1.169,0.71 1.639,1.219 1.237,1.027 2.068,2.648 4.296,2.729 3.618,-3.832 0.539,-9.377 3.059,-13.517 0.305,-0.639 0.752,-1.169 1.25,-1.662 2.492,-11.123 4.984,-22.246 7.477,-33.369 -0.904,-2.178 -2.823,-1.202 -4.293,-1.253 -6.566,-0.227 -13.143,0.225 -19.708,-0.247 -3.185,-0.016 -6.369,-0.031 -9.553,-0.047 -1.474,0.401 -2.954,0.334 -4.436,0.058 -4.578,-0.167 -9.156,-0.334 -13.734,-0.5 -0.042,-0.173 -0.083,-0.345 -0.125,-0.517 0.038,-2.42 0.076,-4.84 0.112,-7.259 21.53,0 43.061,0 64.577,0 -2.657,10.962 -4.956,20.446 -7.256,29.93 z"
   inkscape:connector-curvature="0"
   id="path295"
   style="fill:#060708;fill-rule:evenodd" />
	<path
   d="m 125.878,73.163 c -0.107,0.539 -0.215,1.079 -0.323,1.618 -1.701,2.82 -1.027,6.051 -1.506,9.08 -0.261,1.649 -0.21,3.291 -2.067,4.36 -2.298,0.519 -4.299,-0.249 -5.911,-2.169 -0.722,-0.095 -1.443,-0.189 -2.165,-0.284 -0.346,-0.237 -0.676,-0.497 -0.986,-0.781 l 0.031,0.124 c -0.676,-0.736 -1.127,-1.644 -1.803,-2.384 -1.231,-0.922 -2.931,-0.653 -4.141,-1.625 -3.341,-2.096 -6.683,-4.191 -12.657,-7.939 12.755,0 22.142,0 31.528,0 z"
   inkscape:connector-curvature="0"
   id="path297"
   style="fill:#5bd6d6;fill-rule:evenodd" />
	<path
   d="m 128.811,123.691 c 0,0 0.356,-0.229 0.358,-0.229 11.058,-0.05 22.114,-0.1 33.163,-0.148 0.076,0.282 0.265,0.421 0.56,0.417 -11.361,-0.013 -22.721,-0.026 -34.081,-0.04 z"
   inkscape:connector-curvature="0"
   id="path299"
   style="fill:#b2e5e5;fill-rule:evenodd" />
	<path
   d="m 109.354,38.294 c 8,0.5 16.001,1 24.001,1.5 -3.613,-0.327 -7.226,-0.655 -10.839,-0.983 -4.388,-0.173 -8.775,-0.345 -13.162,-0.517 z"
   inkscape:connector-curvature="0"
   id="path301"
   style="fill:#b2e5e5;fill-rule:evenodd" />
	<path
   d="m 107.008,81.103 c 1.461,0 2.922,0 5.038,0 0.322,1.423 0.614,2.716 0.907,4.009 -1.91,-1.028 -3.819,-2.057 -5.729,-3.085 -0.087,-0.305 -0.159,-0.613 -0.216,-0.924 z"
   inkscape:connector-curvature="0"
   id="path303"
   style="fill:#b2e5e5;fill-rule:evenodd" />
	<path
   d="m 76.034,53.026 c 0.207,-0.195 0.442,-0.24 0.707,-0.136 0.028,2.722 0.057,5.443 0.086,8.166 -0.264,-2.676 -0.529,-5.353 -0.793,-8.03 z"
   inkscape:connector-curvature="0"
   id="path305"
   style="fill:#fac2ce;fill-rule:evenodd" />
	<path
   d="m 89.586,73.762 c 6.535,0.603 6.013,0.555 0,0 6.056,0 6.592,0 0,0 z"
   inkscape:connector-curvature="0"
   id="path307"
   style="fill:#5bd6d6;fill-rule:evenodd" />
	<path
   d="m 138.073,289.163 c -3.209,8.068 -6.417,16.136 -9.626,24.205 3.209,-8.067 6.417,-16.136 9.626,-24.205 z"
   inkscape:connector-curvature="0"
   id="path309"
   style="fill:#b2e5e5;fill-rule:evenodd" />
	<path
   d="m 148.563,262.989 c -1.212,2.983 -2.424,5.967 -3.637,8.95 1.212,-2.983 2.424,-5.966 3.637,-8.95 z"
   inkscape:connector-curvature="0"
   id="path311"
   style="fill:#b2e5e5;fill-rule:evenodd" />
	<path
   d="m 152.7,253.195 c -1.191,2.621 -2.382,5.241 -3.572,7.86 1.191,-2.619 2.381,-5.24 3.572,-7.86 z"
   inkscape:connector-curvature="0"
   id="path313"
   style="fill:#b2e5e5;fill-rule:evenodd" />
	<path
   d="m 155.232,246.033 c -0.462,1.355 -0.924,2.711 -1.387,4.067 0.462,-1.355 0.925,-2.71 1.387,-4.067 z"
   inkscape:connector-curvature="0"
   id="path315"
   style="fill:#b2e5e5;fill-rule:evenodd" />
	<path
   d="m 140.656,283.24 c -0.529,1.127 -1.058,2.254 -1.587,3.381 0.529,-1.126 1.058,-2.254 1.587,-3.381 z"
   inkscape:connector-curvature="0"
   id="path317"
   style="fill:#b2e5e5;fill-rule:evenodd" />
	<path
   d="m 142.13,279.263 c -0.358,0.782 -0.716,1.563 -1.074,2.347 0.358,-0.783 0.716,-1.565 1.074,-2.347 z"
   inkscape:connector-curvature="0"
   id="path319"
   style="fill:#b2e5e5;fill-rule:evenodd" />
	<path
   d="m 139.085,286.744 c -0.336,0.774 -0.671,1.55 -1.008,2.324 0.336,-0.774 0.672,-1.549 1.008,-2.324 z"
   inkscape:connector-curvature="0"
   id="path321"
   style="fill:#b2e5e5;fill-rule:evenodd" />
	<path
   d="m 141.056,281.845 c -0.264,0.512 -0.528,1.022 -0.798,1.532 0.261,-0.513 0.529,-1.023 0.798,-1.532 z"
   inkscape:connector-curvature="0"
   id="path323"
   style="fill:#b2e5e5;fill-rule:evenodd" />
	<path
   d="m 224.783,123.689 c -5.702,0.058 -11.403,0.115 -17.098,0.173 -0.063,-0.257 -0.198,-0.472 -0.397,-0.646 5.833,0.158 11.664,0.315 17.495,0.473 z"
   inkscape:connector-curvature="0"
   id="path325"
   style="fill:#1f66e4;fill-rule:evenodd" />
	<path
   d="m 270.978,252.749 c 0.366,1.349 0.733,2.698 1.1,4.046 -0.983,-0.271 -1.966,-0.542 -3.706,-1.02 1.229,-1.427 1.917,-2.227 2.606,-3.026 z"
   inkscape:connector-curvature="0"
   id="path327"
   style="fill:#3d8e8e;fill-rule:evenodd" />
	<path
   d="m 53.103,90.907 c 5.953,0.067 11.905,0.134 17.857,0.202 -5.986,2.853 -11.943,3.233 -17.857,-0.202 z"
   inkscape:connector-curvature="0"
   id="path329"
   style="fill:#b2e5e5;fill-rule:evenodd" />
	<path
   d="m 71.087,90.956 c 0.587,-4.697 1.173,-9.394 1.76,-14.092 -0.587,4.698 -1.173,9.395 -1.76,14.092 z"
   inkscape:connector-curvature="0"
   id="path331"
   style="fill:#b2e5e5;fill-rule:evenodd" />
	<path
   d="m 129.122,324.732 c -0.842,-0.021 -1.684,-0.041 -2.522,-0.063 0.842,0.021 1.682,0.042 2.522,0.063 z"
   inkscape:connector-curvature="0"
   id="path333"
   style="fill:#b2e5e5;fill-rule:evenodd" />
	<path
   d="m 95.364,38.305 c 1.48,-0.02 2.96,-0.038 4.438,-0.058 -1.481,0.02 -2.959,0.038 -4.438,0.058 z"
   inkscape:connector-curvature="0"
   id="path335"
   style="fill:#b2e5e5;fill-rule:evenodd" />
	<path
   d="m 81.505,37.288 c 0.233,0.127 0.275,0.301 0.126,0.519 -0.001,-0.002 -0.288,-0.209 -0.288,-0.209 l 0.162,-0.31 z"
   inkscape:connector-curvature="0"
   id="path337"
   style="fill:#b2e5e5;fill-rule:evenodd" />
	<path
   d="m 356.861,341.765 c 3.707,-0.188 7.414,-0.377 11.121,-0.565 -3.707,0.188 -7.414,0.376 -11.121,0.565 z"
   inkscape:connector-curvature="0"
   id="path339"
   style="fill:#ff6666;fill-rule:evenodd" />
	<path
   d="m 116.072,86.053 c 1.973,0.387 3.947,0.772 5.634,1.104 1.426,-4.584 2.638,-8.478 3.85,-12.373 -0.596,5.531 -1.192,11.064 -1.916,17.781 -2.887,-2.484 -5.227,-4.499 -7.568,-6.512 z"
   inkscape:connector-curvature="0"
   id="path341"
   style="fill:#b2e5e5;fill-rule:evenodd" />
	<path
   d="m 112.921,84.987 c 0.329,0.26 0.658,0.521 0.986,0.781 -0.329,-0.26 -0.657,-0.521 -0.986,-0.781 z"
   inkscape:connector-curvature="0"
   id="path343"
   style="fill:#b2e5e5;fill-rule:evenodd" />
</g>
</svg>