<?xml version="1.0" encoding="UTF-8" standalone="no"?>
<!-- Created with Inkscape (http://www.inkscape.org/) -->

<svg
   xmlns:dc="http://purl.org/dc/elements/1.1/"
   xmlns:cc="http://creativecommons.org/ns#"
   xmlns:rdf="http://www.w3.org/1999/02/22-rdf-syntax-ns#"
   xmlns:svg="http://www.w3.org/2000/svg"
   xmlns="http://www.w3.org/2000/svg"
   version="1.2"
   width="600"
   height="600"
   viewBox="-3634.171 2600.323 600 600"
   id="Layer_1"
   xml:space="preserve"><metadata
   id="metadata17"><rdf:RDF><cc:Work
       rdf:about=""><dc:format>image/svg+xml</dc:format><dc:type
         rdf:resource="http://purl.org/dc/dcmitype/StillImage" /><dc:title></dc:title></cc:Work></rdf:RDF></metadata><defs
   id="defs15">
	
	

		
		
	</defs>
<g
   transform="translate(-4.213,-0.004)"
   id="g4281"><path
     d="m -3319.208,2928.928 -18.922,-14.691 c -5.762,-4.777 -13.643,-11.086 -13.643,-22.629 0,-11.598 7.881,-18.969 14.719,-25.797 22.043,-17.344 44.063,-35.805 44.063,-74.715 0,-40.008 -25.174,-61.059 -37.238,-71.043 h 32.531 l 34.148,-21.453 h -103.451 c -28.387,0 -69.293,6.719 -99.242,31.438 -22.572,19.477 -33.582,46.328 -33.582,70.5 0,41.035 31.506,82.629 87.143,82.629 5.256,0 11.004,-0.512 16.787,-1.051 -2.598,6.32 -5.223,11.582 -5.223,20.52 0,16.297 8.373,26.289 15.754,35.758 -23.641,1.621 -67.771,4.242 -100.305,24.238 -30.984,18.426 -40.414,45.242 -40.414,64.172 0,38.961 36.723,75.25 112.869,75.25 90.299,0 138.1,-49.965 138.1,-99.426 0.01,-36.344 -20.989,-54.231 -44.094,-73.7 z m -68.777,-60.5 c -45.172,0 -65.639,-58.398 -65.639,-93.633 0,-13.723 2.602,-27.883 11.537,-38.945 8.42,-10.535 23.086,-17.375 36.783,-17.375 43.547,0 66.135,58.922 66.135,96.816 0,9.48 -1.049,26.281 -13.123,38.426 -8.441,8.43 -22.576,14.711 -35.693,14.711 z m 0.515,211.579 c -56.172,0 -92.395,-26.871 -92.395,-64.238 0,-37.355 33.586,-49.984 45.145,-54.176 22.037,-7.41 50.4,-8.445 55.133,-8.445 5.248,0 7.873,0 12.053,0.523 39.934,28.422 57.27,42.59 57.27,69.492 -10e-4,32.578 -26.79,56.844 -77.206,56.844 z"
     id="path9"
     style="fill:#3f3f3f" /><polygon
     points="-3186.616,2946.827 -3186.616,2893.893 -3133.833,2893.893 -3133.833,2867.624 -3186.616,2867.624 -3186.616,2815.018 -3212.603,2815.018 -3212.603,2867.624 -3265.122,2867.624 -3265.122,2893.893 -3212.603,2893.893 -3212.603,2946.827 "
     id="polygon11"
     style="fill:#3f3f3f" /></g>
</svg>