<?xml version="1.0" encoding="UTF-8" standalone="no"?>
<!-- Created with Inkscape (http://www.inkscape.org/) -->

<svg
   xmlns:dc="http://purl.org/dc/elements/1.1/"
   xmlns:cc="http://creativecommons.org/ns#"
   xmlns:rdf="http://www.w3.org/1999/02/22-rdf-syntax-ns#"
   xmlns:svg="http://www.w3.org/2000/svg"
   xmlns="http://www.w3.org/2000/svg"
   version="1.2"
   width="600"
   height="600"
   viewBox="-3615.747 2604.189 600 600"
   id="svg2"
   xml:space="preserve"><metadata
   id="metadata8"><rdf:RDF><cc:Work
       rdf:about=""><dc:format>image/svg+xml</dc:format><dc:type
         rdf:resource="http://purl.org/dc/dcmitype/StillImage" /><dc:title></dc:title></cc:Work></rdf:RDF></metadata><defs
   id="defs6" />

<g
   transform="translate(-282.321,-396.3085)"
   id="layer1"
   style="fill:#3f3f3f;fill-opacity:1">
	<path
   d="m -2736.722,3116.458 c -21.832,9.684 -45.297,16.227 -69.924,19.168 25.137,-15.066 44.439,-38.926 53.529,-67.355 -23.523,13.957 -49.578,24.086 -77.313,29.547 -22.207,-23.664 -53.846,-38.445 -88.861,-38.445 -67.234,0 -121.75,54.508 -121.75,121.742 0,9.539 1.078,18.832 3.156,27.742 -101.182,-5.074 -190.888,-53.543 -250.935,-127.203 -10.481,17.98 -16.485,38.895 -16.485,61.203 0,42.242 21.493,79.504 54.16,101.336 -19.956,-0.633 -38.729,-6.109 -55.144,-15.227 -0.014,0.508 -0.014,1.016 -0.014,1.531 0,58.984 41.966,108.188 97.661,119.379 -10.215,2.781 -20.97,4.266 -32.073,4.266 -7.846,0 -15.472,-0.762 -22.905,-2.18 15.492,48.363 60.451,83.563 113.73,84.543 -41.668,32.652 -94.16,52.117 -151.203,52.117 -9.825,0 -19.517,-0.574 -29.041,-1.699 53.88,34.543 117.873,54.699 186.623,54.699 223.934,0 346.393,-185.508 346.393,-346.395 0,-5.277 -0.119,-10.531 -0.352,-15.754 23.781,-17.16 44.422,-38.602 60.742,-63.016 h 0.01 z"
   id="path5"
   style="fill:#3f3f3f;fill-opacity:1" />
</g>
</svg>