<?xml version="1.0" encoding="UTF-8" standalone="no"?>
<!-- Created with Inkscape (http://www.inkscape.org/) -->

<svg
   xmlns:dc="http://purl.org/dc/elements/1.1/"
   xmlns:cc="http://creativecommons.org/ns#"
   xmlns:rdf="http://www.w3.org/1999/02/22-rdf-syntax-ns#"
   xmlns:svg="http://www.w3.org/2000/svg"
   xmlns="http://www.w3.org/2000/svg"
   version="1.2"
   width="600"
   height="600"
   viewBox="-3201.52 3034.48 600 600"
   id="svg2"
   xml:space="preserve"><metadata
   id="metadata16"><rdf:RDF><cc:Work
       rdf:about=""><dc:format>image/svg+xml</dc:format><dc:type
         rdf:resource="http://purl.org/dc/dcmitype/StillImage" /><dc:title></dc:title></cc:Work></rdf:RDF></metadata><defs
   id="defs14" />








<g
   transform="translate(2.10895,1.818)"
   id="g4208"><path
     d="m -2895.1232,3043.988 c -66.78,0 -165.4534,4.0447 -194.9888,5.0329 -32.0802,2.8697 -43.954,4.5479 -61.5238,19.5847 -26.7708,23.8093 -33.1218,70.5913 -33.1218,142.1658 v 68.1182 c 0,81.6952 10.8507,123.1993 28.7138,138.3795 20.6213,17.6898 34.2166,19.103 47.9469,21.2228 5.3311,0.805 43.059,7.491 210.4773,7.491 104.4013,0 194.1389,-4.9312 203.4163,-6.1261 14.9135,-1.8815 36.3347,-4.6128 52.5132,-22.5894 23.9492,-27.2189 28.7136,-72.4061 28.7136,-137.8729 v -79.3521 c 0,-42.3773 -2.3613,-102.2664 -28.7136,-127.3389 -19.9631,-16.9 -27.2741,-21.6828 -68.5866,-23.761 -11.6855,-0.5765 -113.6319,-4.9545 -184.8465,-4.9545 z m -61.7971,121.0979 154.1812,79.587 -154.1812,80.212 v -159.799 z"
     id="path3042"
     style="fill:#3f3f3f" /><path
     d="m -3151.0476,3578.6019 v 40.8842 h -8.1158 v -41.0292 l -36.368,-66.3367 h 9.5273 l 30.8953,58.3726 31.0536,-58.3726 h 9.2124 l -36.2048,66.4818 z"
     id="path3048"
     style="fill:#3f3f3f" /><path
     d="m -3072.3571,3538.1976 c -13.6286,0 -35.1515,6.4627 -35.1515,41.3942 0,31.0586 17.6649,41.6659 34.8398,41.6659 17.525,0 36.048,-9.7641 36.048,-41.7442 0,-31.3602 -18.2381,-41.3159 -35.7363,-41.3159 z m 0,7.2576 c 21.0295,0 27.5039,18.6181 27.5039,34.4499 0,22.4128 -11.4272,34.0183 -27.1923,34.0183 -13.542,0 -27.4272,-8.3542 -27.4272,-34.4866 0,-16.3367 7.0942,-33.9816 27.1156,-33.9816 z"
     id="path3050"
     style="fill:#3f3f3f" /><path
     d="m -3016.2161,3539.5858 h 7.4909 v 53.683 c 0,13.3153 6.411,20.6712 20.5629,20.6712 14.1053,0 27.5006,-5.591 27.5006,-26.9139 v -47.4402 h 7.491 v 79.9002 h -6.636 l -1.4065,-10.9355 c -5.2662,8.5358 -14.6803,12.7187 -27.4223,12.7187 -14.2602,0 -27.5806,-5.2461 -27.5806,-26.9106 v -54.7728 z"
     id="path3052"
     style="fill:#3f3f3f" /><path
     d="m -2906.0437,3619.4861 v -99.8766 h -35.2682 v -7.4893 h 78.6505 v 7.4893 h -35.2682 v 99.8766 h -8.1141 z"
     id="path3054"
     style="fill:#3f3f3f" /><path
     d="m -2850.3026,3539.5858 h 7.4909 v 53.683 c 0,13.3153 6.4126,20.6712 20.5628,20.6712 14.1053,0 27.5006,-5.591 27.5006,-26.9139 v -47.4402 h 7.491 v 79.9002 h -6.636 l -1.4065,-10.9355 c -5.2662,8.5358 -14.6803,12.7187 -27.4223,12.7187 -14.2619,0 -27.5805,-5.2461 -27.5805,-26.9106 v -54.7728 z"
     id="path3056"
     style="fill:#3f3f3f" /><path
     d="m -2761.2249,3505.8942 v 113.6086 h 5.6961 l 1.3649,-12.4854 c 5.3211,8.7625 14.4318,14.2403 26.4124,14.2403 20.6312,0 34.4481,-12.8371 34.4481,-41.5876 0,-18.0415 -4.7611,-41.3941 -33.6683,-41.3941 -12.6637,0 -18.5198,2.7547 -26.139,13.1487 v -45.5288 h -8.1143 z m 33.94,39.2477 c 17.0383,0 25.789,12.3038 25.789,34.9165 0,23.8626 -11.4971,34.2933 -25.789,34.2933 -21.8778,0 -25.8274,-15.6384 -25.8274,-34.8382 0,-27.8455 10.6289,-34.3716 25.8274,-34.3716 z"
     id="path3058"
     style="fill:#3f3f3f" /><path
     d="m -2642.2351,3538.1193 c -16.6834,0 -34.605,11.1905 -34.605,42.2525 0,29.722 16.5885,40.9642 37.9997,40.9642 14.4952,0 24.6174,-5.5795 24.6174,-5.5795 v -7.0626 c 0,0 -9.219,5.1512 -24.7741,5.1512 -24.3842,0 -29.5321,-17.2067 -29.5321,-33.0434 h 56.8027 v -9.9874 c 0,-19.4647 -13.0687,-32.695 -30.5086,-32.695 z m -0.077,7.0226 c 11.7105,0 23.0961,9.2641 23.0961,29.2621 h -49.3135 c 0,-13.8437 8.7509,-29.2621 26.2174,-29.2621 z"
     id="path3060"
     style="fill:#3f3f3f" /></g>
</svg>