<?xml version="1.0" encoding="utf-8"?>
<!-- Generator: Adobe Illustrator 16.0.2, SVG Export Plug-In . SVG Version: 6.00 Build 0)  -->
<svg version="1.2" baseProfile="tiny" id="Layer_1" xmlns="http://www.w3.org/2000/svg" xmlns:xlink="http://www.w3.org/1999/xlink"
	 x="0px" y="0px" width="1024px" height="463.818px" viewBox="0 0 1024 463.818" xml:space="preserve">
<g>
	<path fill-rule="evenodd" fill="#111017" d="M836.5,198.621c-0.111-2.828-0.223-5.656-0.334-8.485
		c2.213-2.582,5.311-1.665,7.975-1.7c14.291-0.191,28.585,0.194,42.879,0.095c9.138-0.063,18.262,0.276,27.359-1.391
		c7.227-1.323,14.606,0.051,21.852,0.383c21.621,0.99,43.236,0.969,64.859,1.023c2.518,0.007,4.946-0.655,7.437-0.788
		c5.454-1.275,10.651-0.768,15.474,2.271c0,12.333,0,24.667,0,37c-33.631,0.281-67.263,0.635-100.895,0.82
		c-28.658,0.158-57.316,0.123-85.975,0.174l0.133,0.124c-0.186-4.604-0.37-9.208-0.555-13.812
		C836.236,209.104,836.633,203.858,836.5,198.621z"/>
	<path fill-rule="evenodd" fill="#4AB3BB" d="M1024,190.029c-4.941-0.258-9.885-0.516-14.826-0.773
		c-0.284-0.163-0.568-0.326-0.854-0.488c-2.701-2.193-2.395-5.289-2.404-8.248c-0.059-18.881-0.021-37.761-0.023-56.642
		c0-2.98-0.035-5.96-0.104-8.94c1.565-12.878,0.374-25.807,0.679-38.707c0.083-3.479,0.311-6.872,1.699-10.103
		c5.278-0.032,10.557-0.065,15.834-0.099C1024,107.362,1024,148.696,1024,190.029z"/>
	<path fill-rule="evenodd" fill="#111017" d="M0,63.029c3.966,0.063,7.933,0.127,11.899,0.19c2.515,1.683,2.152,4.333,2.181,6.782
		c0.167,14.304-0.475,28.591-0.804,42.885c-0.571,24.796-0.11,49.613-0.191,74.421c-0.009,2.825,0.318,6.179-2.853,7.401
		c-3.312,1.278-7.031,2.496-10.232-0.68C0,150.362,0,106.696,0,63.029z"/>
	<path fill-rule="evenodd" fill="#E4E4E8" d="M0,194.029c3.461,0,6.923,0,11.899,0c0-43.839,0-87.324,0-130.81
		c4.171-1.987,8.309-4.217,14.202-1.155c4.757,19.15-2.065,39.573,0.768,57.59c0,16.875-0.013,31.849,0.005,46.822
		c0.009,7.919,0.915,15.949-0.114,23.727c-1.167,8.831-7.736,5.783-13.354,4.209c-3.828,3.063-8.521,3.706-13.405,3.617
		C0,196.696,0,195.362,0,194.029z"/>
	<path fill-rule="evenodd" fill="#9FCDD6" d="M238.112,48.096c17.089-14.078,36.351-20.457,57.631-12.317
		c20.265,7.75,31.635,23.384,33.273,45.466c0.219,2.959,0.538,5.912,0.81,8.867c-0.917,4.596-0.845,9.335-2.019,13.895
		c-5.214,9.409-11.507,17.856-20.499,24.115c-3.568,2.484-7.645,3.993-12.29,7.071c14.405,5.068,24.685,13.96,30.589,26.732
		c1.162,0.458,1.578,0.183,1.835-0.247c8.2-13.693,19.584-23.273,35.246-27.355c0.97-0.253,1.676-1.089,2.669-1.337
		c7.766,0.018,15.521,0.189,23.131-1.947c14.647-4.112,24.676-13.578,31.646-26.745c1.076-2.033,1.237-5.143,4.788-4.736
		c1.751,0.922,2.367,2.723,3.267,4.29c6.933,12.084,16.636,21.054,29.561,26.446c2.117,0.884,4.414,1.613,5.444,4.07
		c-0.196,2.767-2.381,3.921-4.372,4.994c-15.071,8.126-24.851,20.71-31.03,36.403c-1.162,2.95-1.251,2.915-3.974,4.683
		c-2.494-0.811-2.685-3.168-3.238-5.171c-8.2-29.701-44.76-45.229-72.987-23.037c-9.518,7.483-15.458,17.738-17.119,30.06
		c-0.489,2.391-1.672,4.78-0.352,6.652c2.11,2.546,5.548,0.455,6.954,3.24c-2.71,0.498-5.421,0.995-8.391,1.54
		c-3.584,14.215-9.974,26.446-22.613,34.85c-15.472,10.287-32.123,9.458-49.187,6.274c-8.52-3.921-16.137-9.142-22.762-15.804
		c-0.181-1.346-0.63-2.618-1.427-3.694c-8.729-11.797-9.507-25.486-8.253-39.181c0.765-8.354,6.038-15.373,10.706-22.294
		c0.812-1.203,2.302-2.017,2.126-3.774c0.237-1.417,1.104-2.445,2.279-3.109c6.92-3.912,13.336-8.734,20.853-11.633
		c-13.574-5.979-25.94-13.329-31.34-28.373c-5.841-11.611-8.211-23.541-3.357-36.137c0.357-0.928,0.657-1.863,0.761-2.849
		c1.071-6.73,4.432-12.217,9.273-16.877C236.689,50.222,237.801,49.48,238.112,48.096z"/>
	<path fill-rule="evenodd" fill="#1FAAB2" d="M328.931,181.995c1.675-28.471,35.555-49.607,63.142-39.458
		c17.325,6.374,27.488,18.837,31.89,38.2c7.043-21.147,19.286-36.454,39.638-45.961c-18.041-6.992-32.128-16.757-38.75-34.578
		c-6.036-2.246-6.641-3.345-6.875-10.222c-0.275-8.095,0.646-16.166,0.143-24.278c-0.247-3.969-2.105-7.587-1.69-11.685
		c0.445-4.393,0.284-8.672,1.837-13.097c1.498-4.267,2.215-9.594-3.072-12.831c-1.605-3.442-2.134-6.795,0.83-9.849
		c17.976,0,35.952,0,54.619,0c0,9.463,0,18.691,0,28.653c20.638,0.647,41.329-1.742,60.197,11.071
		c0,35.142-0.004,70.616,0.005,106.091c0.002,4.499,0.078,8.998,0.109,13.497c0.015,2.065-0.014,4.121-2.74,4.539
		c-5.234,0.48-9.539,3.543-14.285,5.338c-6.307,2.384-12.693,2.094-19.123,2.029c-3.865-0.038-4.235-2.936-4.301-5.985
		c-0.27-12.563-1.219-25.123-0.031-37.692c0.185-1.962,0.149-3.976-0.26-6.241c-3.529-2.771-7.121-2.66-10.791-0.063
		c-1.53,1.381-3.473,1.886-5.362,2.521c-20.587,6.927-34.055,20.679-39.874,41.712c-0.726,2.624-1.279,5.251-4.51,5.929
		c-3.462,0.775-6.965,0.235-10.442,0.387c-6.945,0.305-13.896-0.478-20.851,0.879c-5.575,1.086-11.219-1.055-16.818-0.799
		c-14.929,0.684-29.854,1.146-44.798,0.916c-1.98-0.03-3.994,0.273-5.999-0.46C327.725,188.262,328.288,185.137,328.931,181.995z"/>
	<path fill-rule="evenodd" fill="#2DACB6" d="M230.88,107.104c6.771,15.396,19.604,23.188,35.944,28.089
		c-11.386,2.774-19.634,9.756-28.969,14.705c-1.519,3.194-4.59,4.295-7.585,5.127c-16.657,4.625-33.183,4.595-49.461-1.81
		c-1.665-0.655-3.221-1.7-5.642-1.661c5.915,10.448,7.747,21.67,7.782,33.206c0.036,11.571-3.449,22.275-9.679,33.616
		c8.565-4.743,16.715-6.753,25.194-7.857c11.27-1.468,21.821,1.242,32.304,4.7c1.943,0.642,3.509,1.903,4.119,4.025
		c7.549,4.9,15.614,9.073,22.002,15.607c-21.172,19.565-45.709,26.45-72.953,16.241c-26.299-9.855-39.892-30.679-43.909-58.073
		c-2.664-2.547-2.13-5.872-1.882-8.944c1.152-14.256,5.846-27.25,14.365-38.8c1.467-1.988,3.308-3.735,4.032-6.292
		c-1.099-2.874-3.401-4.894-5.254-7.188c-20.746-25.688-22.432-63.184-0.71-91.067c2.421-3.107,4.818-6.449,9.462-6.319
		c9.042,8.423,18.65,15.623,30.953,19.088c16.628,4.684,32.117,2.544,47.119-5.401c2.704,1.41-0.05,2.016-0.529,2.654
		c-3.818,5.088-7.69,10.126-9.662,16.304c-1.037,1.389-0.776,3.231-1.816,4.982c-2.889,2.488-5.901,1.348-8.826-0.795
		c-3.057,2.196-6.808,2.021-9.696,4.092c-6.272,1.666-12.487,0.308-18.833-0.641c-1.023,2.418,0.382,4.373,0.57,6.418
		c0.846,9.236,2.231,18.526-2.698,27.19c-4.271,1.129-5.593,0.432-6.36-3.427c-0.424-2.131-0.126-4.307-0.329-6.886
		c0.149,3.534-0.15,6.655,0.212,9.658c1.409,1.457,3.188,2.088,4.541,3.33c1.279,1.175,3.061,1.908,4.639,1.351
		c10.709-3.789,21.743-0.893,32.582-1.759c0.99-0.079,1.992,0.199,3.251-0.124C227.027,109.622,227.521,105.842,230.88,107.104z"/>
	<path fill-rule="evenodd" fill="#11111A" d="M160.041,34.409c-17.513,15.338-24.587,34.757-22.709,57.745
		c1.515,18.55,9.727,33.812,23.045,46.705c-14.321,15.455-21.352,33.326-20.349,54.161c-7.671-0.191-15.342-0.383-23.014-0.574
		c-3.071-0.916-4.061-3.795-5.521-6.108c-5.675-8.988-11.406-17.941-17.071-26.936c-1.042-1.654-1.905-3.526-4.114-4.701
		c-5.946,4.935-8.383,13.09-14.633,18.005c-1.589-1.735-1.171-3.032-0.927-4.308c0-44.892,0-89.782,0-135.039
		c29.128,0,56.706-0.004,84.283,0.044C159.367,33.403,159.704,34.06,160.041,34.409z"/>
	<path fill-rule="evenodd" fill="#45AEB5" d="M1009.174,189.256c-23.587,0.113-47.174,0.223-70.76,0.343
		c-34.083,0.174-68.166,0.357-102.248,0.537c-13.211,0-26.422,0-41.184,0c0-10.862,0-21.005,0-31.146
		c-0.143-0.302-0.416-0.609-0.402-0.904c0.666-14.277-1.74-28.403-1.938-42.679c-0.363-26.453-0.838-52.902-0.721-79.359
		c0.013-2.738-0.653-5.779,2.121-7.819c10.303-0.094,20.604-0.187,30.906-0.28c1.758-1.911,4.074-2.014,6.436-2.016
		c39.705-0.039,79.41-0.055,119.115,0.013c2.35,0.004,4.707,0.043,6.277,2.249c0.36,15.366,0.722,30.731,1.083,46.098
		c2.651,3.236,2.206,7.16,2.214,10.89c0.069,30.957,0.021,61.915,0.064,92.873c0.004,2.607-0.511,5.363,1.263,7.664
		c2.112,1.531,4.511,1.165,6.804,1.177c11.152,0.057,22.304,0.005,33.455,0.034c2.504,0.007,5.031-0.09,7.064,1.781
		C1008.879,188.888,1009.029,189.07,1009.174,189.256z"/>
	<path fill-rule="evenodd" fill="#A3CED6" d="M794.043,28.228c0.313,43.588,0.627,87.175,0.939,130.763
		c-2.372-5.874,0.149-12.188-1.516-18.374c-6.289-1.749-12.979,0.75-19.482-1.979c0-4.342,0-8.748,0-13.155
		c-4.237,20.014-15.043,35.591-32.273,45.853c-13.895,8.273-29.715,11.851-45.568,6.983c-36.67-11.258-50.742-39.882-47.327-66.298
		c5.145-39.797,34.341-56.42,65.171-56.676c24.463-0.204,58.673,27.31,56.199,50.279c1.174,1.755,3.21,3.222,3.324,5.794
		c0-36.405,0-72.811,0-109.547c6.818-1.981,13.156,0.384,20.533,0.443C794.043,11.356,794.043,19.792,794.043,28.228z"/>
	<path fill-rule="evenodd" fill="#0E0E15" d="M837.131,228.023c0,7.688,0,15.377,0,23.949c-4.342,0-8.215,0-12.089,0
		c-1.446,2.063-3.645,2.162-5.824,2.115c-14.618-0.315-29.257,0.908-43.86-0.823c-8.477-1.005-16.894,0.941-25.377,0.92
		c-37.106-0.096-74.214-0.048-111.32-0.033c-4.152,0.001-8.296-0.089-12.436,0.671c-2.782,0.512-5.633,0.267-8.384-1.671
		c-0.724-4.604-0.169-9.411-0.339-14.187c0.124-3.309-0.275-6.634,0.232-9.793c1.584-2.13,3.773-2.202,5.95-2.208
		c32.394-0.096,64.788-0.071,97.182-0.034c2.08,0.002,3.909,0.587,5.651,1.621c27.259-0.133,54.518-0.275,81.777-0.391
		c9.652-0.041,19.306-0.014,28.964-0.016C837.264,228.147,837.131,228.023,837.131,228.023z"/>
	<path fill-rule="evenodd" fill="#0E0F15" d="M586.271,229.441c0,20.282,0,40.563,0,61.224c-28.5,0-56.839,0-85.635,0
		c0-28.847,0-57.518,0-86.862c12.276,0,24.376,0,36.476,0c16.298-0.477,32.597-0.392,48.898-0.046
		c0.366,0.328,0.931,0.558,1.013,1.052C588.402,213.067,589.533,221.324,586.271,229.441z"/>
	<path fill-rule="evenodd" fill="#A1CFD7" d="M956.777,28.193c-42.114-0.039-84.228-0.077-126.341-0.123
		c-1.829-0.002-3.657-0.08-5.486-0.123c-0.001-8.619-0.001-17.238-0.001-26.619c43.645-1.578,86.791-1.421,130.062-1.166
		C957.59,9.841,957.826,18.973,956.777,28.193z"/>
	<path fill-rule="evenodd" fill="#100F16" d="M61.004,192.817c-7.616,0-15.232,0-22.624,0c0-53.019,0-106.033,0-159.362
		c7.963,0,15.176,0,22.58,0c0,53.335,0,106.405,0,159.477L61.004,192.817z"/>
	<path fill-rule="evenodd" fill="#22ACB3" d="M586.271,229.441c-0.035-8.387-0.069-16.774-0.104-25.161
		c1.947-2.835,4.955-2.331,7.719-2.338c24.6-0.067,49.199-0.032,73.799-0.033c16.953,0,33.907-0.038,50.86,0.031
		c2.606,0.011,5.376-0.376,7.689,2.032c0.835,5.234-0.346,10.74,0.61,16.133c-0.105,2.816-0.211,5.633-0.322,8.447
		c-32.75,0.239-65.492,0.481-98.236,0.718c-3.291,0.023-6.584,0.003-10.635,0.003c0,3.497,0,6.435,0,9.371l-0.312,0.289
		c0-2.968,0-5.936,0-9.492C606.639,229.441,596.455,229.441,586.271,229.441z"/>
	<path fill-rule="evenodd" fill="#A6D1D9" d="M962.019,66.994c-0.016-9.318-0.031-18.638-0.047-27.956c0-12.582,0-25.164,0-37.806
		c6.401-2.863,11.854,0.109,16.918,1.523c28.455,7.942,40.347,41.986,26.672,63.382c-0.489,0.765-0.369,1.918-0.532,2.89
		c-6.164,5.787-11.271,12.506-19.453,16.298c-7.107,3.295-14.316,2.99-21.4,4.413c-2.018-3.455-0.776-6.681-1.221-9.711
		c-1.688-2.24-1.069-4.761-0.794-7.2C962.383,70.862,962.934,68.92,962.019,66.994z"/>
	<path fill-rule="evenodd" fill="#A6CDD7" d="M652.447,69.13c-23.004,33.966-21.5,64.934,0.76,97.791
		c-12.101-3.842-21.752-6.906-31.1-9.875c-27.258-3.241-53.002,1.323-79.17,15.858c29.881-34.237,30.295-68.16,5.174-103.381
		C582.443,84.812,616.043,84.803,652.447,69.13z"/>
	<path fill-rule="evenodd" fill="#A6CFD7" d="M430.99,188.081c4.946-22.315,17.408-38.372,39.045-46.712
		c2.621-1.01,5.413-1.573,8.125-2.344c3.29-2.95,7.073-2.05,10.809-1.562c2.269,2.608,2.121,5.682,1.989,8.607
		c-0.555,12.279-0.038,24.552,0.065,36.826c0.016,1.938-0.501,4.006,0.815,5.72c2.417,2.124,6.215-0.568,8.258,2.517
		c-3.056,0.504-6.112,1.009-10.071,1.662c1.072,21.509-1.056,43.168,1.267,64.729c-27.393,3.67-63.282-22.133-61.316-65.463
		C429.474,190.521,429.716,189.169,430.99,188.081z"/>
	<path fill-rule="evenodd" fill="#0C0B13" d="M416.022,18.237c0.025,3.261,0.05,6.521,0.075,9.781
		c3.458,4.459,2.153,9.568,1.567,14.373c-0.788,6.461-0.826,12.798,0.022,19.256c0.909,6.921,0.259,13.933,0.309,20.903
		c0.033,4.652-0.008,9.304,0.024,13.956c0.016,2.186-0.031,4.381-2.306,5.646c-25.82-1.106-43.073-19.9-41.917-45.662
		C374.717,35.967,395.409,17.221,416.022,18.237z"/>
	<path fill-rule="evenodd" fill="#ACCBD3" d="M448.333,332.13c-15.072,9.775-30.12,19.59-45.235,29.3
		c-3.55,2.28-7.327,4.21-12.448,7.125c4.702-22.503,11.375-43.086,17.893-65.438c-21.07,10.856-37.318,25.734-57.553,35.549
		c1.507-13.865,6.952-25.786,10.993-38.099c2-6.094,4.737-12.049,5.88-18.297c1.915-10.464,9.328-15.672,17.348-20.763
		c11.717-7.437,24.385-13.416,34.848-22.793c1.902-1.706,4.426-2.133,8.032-1.709c-4.468,21.15-13.353,40.974-17.246,63.023
		c18.852-12.037,36.801-23.499,56.161-35.86c-5.27,19.794-10.108,38.014-14.982,56.224c-0.772,2.884-1.971,5.723-0.042,8.601
		c0.098,0.198,0.197,0.397,0.296,0.596c-0.022,0.705-0.32,1.281-0.817,1.769C450.524,332.04,449.518,332.448,448.333,332.13z"/>
	<path fill-rule="evenodd" fill="#3EACB4" d="M836.809,272.842c-72.865,0.309-145.729,0.618-218.594,0.928
		c-1.457-3.525-0.502-7.123-0.516-10.428c1.246-1.795,2.817-2.253,4.534-2.309c10.97-0.362,21.962-0.593,32.916-0.706
		c9.731-0.101,19.589,0.799,29.313,0.437c47.787-1.779,95.582-0.354,143.369-0.834c5.834-0.058,5.834,0.018,9.311,1.936
		C837.465,265.42,838.188,269.135,836.809,272.842z"/>
	<path fill-rule="evenodd" fill="#B4CCD6" d="M535.005,328.041c3.657-1.022,7.315-2.045,12.18-3.405
		c5.524,22.659-1.104,43.083-7.704,64.484c16.723-9.979,33.445-19.956,51.369-30.65c-1.871,9.423-2.85,17.771-5.253,25.688
		c-3.995,13.158-4.296,27.157-9.543,39.978c-0.607,1.483-0.96,3.539-2.105,4.264c-18.78,11.883-37.667,23.598-56.55,35.316
		c-0.35,0.217-0.951,0.027-2.49,0.027c5.383-21.647,10.678-42.941,15.973-64.234c-13.046,12.859-27.066,22.753-43.885,28.492
		c-1.262-1.408-3.782-0.97-4.558-3.1c-0.107-0.484-0.109-0.968,0.002-1.452c2.997-3.731,7.608-4.031,11.668-5.508
		c1.657-0.223,3.575,0.186,4.469-1.877c2.668-3.155,6.084-5.234,9.825-6.853c2.747,0.334,3.69-1.708,4.727-3.622
		c1.827-2.801,4.238-5.102,6.465-7.552c12.454-13.707,19.316-29.947,21.93-48.126c1.711-4.658,0.596-9.56,1.202-14.306
		c0.237-1.905,2.761-2.503,2.651-4.774c-1.576-1.824-3.561-0.783-5.436-0.653C537.956,330.315,535.494,331.414,535.005,328.041z"/>
	<path fill-rule="evenodd" fill="#A3D1D9" d="M836.809,272.842c0-3.303,0-6.604,0-10.066c-72.973,0-145.473,0-218.592,0
		c0,4.162,0,7.58-0.001,10.996c-2.964-8.348-0.072-16.96-1.128-25.415c-0.385-3.083,0.142-6.279,0.253-9.423
		c0,0,0.312-0.286,0.312-0.287c0,4.459,0,8.919,0,13.479c23.569,0,46.632,0.059,69.693-0.012
		c44.082-0.137,88.164-0.352,132.245-0.509c1.816-0.006,3.634,0.24,5.45,0.368c3.642,0.574,7.281,1.148,11.279,1.779
		C837.631,260.14,839.486,266.386,836.809,272.842z"/>
	<path fill-rule="evenodd" fill="#A6CED8" d="M726.846,220.105c-0.378-5.076-0.756-10.152-1.152-15.479
		c-1.198-0.225-2.299-0.61-3.398-0.61c-44.552-0.034-89.104-0.034-133.654-0.023c-0.824,0-1.65,0.186-2.474,0.286
		c-16.353-0.158-32.704-0.317-49.056-0.477c13.578-1.694,27.211-0.383,40.814-0.741c2.436-0.064,4.875-0.009,7.742-0.009
		c0.215-4.142,0.393-7.562,0.622-11.982c53.175,0,106.163,0,159.846,0c1.947,3.42,0.507,7.704,0.718,12.847
		c-6.439,0-12.609,0-20.008,0C726.846,209.95,726.846,215.027,726.846,220.105z"/>
	<path fill-rule="evenodd" fill="#42B0BA" d="M74.747,168.398c0.2,0.921,0.399,1.842,0.685,3.158
		c5.019-7.083,9.807-13.841,15.276-21.562c8.988,14.504,17.648,28.479,26.307,42.452c-4.481,10.864-12.632,19.402-18.618,29.317
		c-2.733,4.526-5.856,8.817-9.003,13.513c-9.44-14.258-20.085-27.564-28.39-42.459c0-0.001-0.045,0.115-0.044,0.114
		C64.287,184.04,73.626,178.528,74.747,168.398z"/>
	<path fill-rule="evenodd" fill="#0D0C14" d="M448.333,332.13c0.348-0.5,0.696-0.999,1.044-1.499
		c0.563,0.138,1.125,0.275,1.688,0.414c1.209-0.171,2.262,0.119,3.284,0.836c10.496,7.357,21.084,14.591,30.696,23.127
		c1.72,1.187,3.892,1.938,4.303,4.515c-0.8,3.668-3.732,4.041-6.769,4.251c-17.151,11.632-34.302,23.263-52.156,35.37
		C436.512,376.359,442.422,354.244,448.333,332.13z"/>
	<path fill-rule="evenodd" fill="#AFCAD2" d="M482.579,363.773c1.968-1.373,3.935-2.747,6.118-4.271
		c-1.585-1.23-3.063-2.378-4.542-3.524c-0.988-8.802,3.838-16.42,5.086-24.792c0.854-5.731,2.271-11.421,4.384-16.882
		c0.354-0.913,0.501-1.915-0.328-3.051c-13.5,5.937-23.723,17.641-37.07,21.875c-3.107-0.838-3.395-2.661-4.201-4.068
		c0,0-0.046-0.065-0.047-0.066c7.008-7.196,16.468-10.8,24.441-16.63c8.588-6.278,17.882-11.592,29.144-18.778
		c-5.287,21.744-9.957,40.951-15.215,62.576c14.181-13.318,27.621-23.754,44.655-28.12c3.528,2.661,6.589-1.06,10.09-0.719
		c3.261,1.382,3.163,4.107,2.526,7.426c-1.08,0.099-2.207,0.201-3.148,0.286c-0.447,5.184-0.869,10.092-1.291,15
		c-3.145-2.302-1.887-5.721-2.223-8.737c-0.24-2.158,0.473-4.288,0.172-6.431c-0.389-0.968-0.909-1.777-2.153-1.643
		c-0.362,0.115-0.728,0.201-1.095,0.286c-0.977,0.26-1.616,1.045-2.43,1.562c-0.711,0.444-1.48,0.732-2.299,0.897
		c-1.039,0.114-2.008,0.442-2.906,0.984c-0.38,0.194-0.778,0.333-1.188,0.443c-1.759,0.086-3.191,0.933-4.541,1.97
		c-1.309,0.815-2.656,1.553-4.109,2.083c-2.561,0.758-4.965,1.796-6.832,3.802c-0.256,0.379-0.557,0.714-0.886,1.025
		c-1.165,0.816-1.624,2.235-2.666,3.157c-10.112,8.353-18.459,18.247-24.555,29.814c-4.762,9.034-7.88,18.739-7.551,29.155
		c0.146,4.614-2.321,9.154-0.296,13.776c0.453,0.755,1.193,1.152,1.957,1.512c0.983,0.778,2.382,0.505,3.354,1.31
		c1.825,0.362,3.626,0.756,4.061,2.999c-5.055,1.266-10.109,2.53-15.737,3.939c-4.299-19.913-1.456-38.15,6.894-55.945
		C479.945,372.175,484.275,368.949,482.579,363.773z"/>
	<path fill-rule="evenodd" fill="#4DA7AF" d="M415.714,102.153c0.128-24.712,0.256-49.423,0.384-74.135
		c1.438,0.144,2.876,0.286,4.583,0.456c0,4.83,0,9.269,0,14.229c-0.648,0.692-1.631,1.741-3.435,3.667
		c3.792,16.163,3.146,33.256,2.689,49.301c2.324,2.14,3.62,3.333,4.916,4.527c-2.762,4.545-5.156,9.368-8.349,13.585
		c-13.01,17.183-30.557,23.26-51.574,20.348c-2.396,1.66-4.894,0.571-7.138-0.106c-13.137-3.969-22.751-12.47-29.863-23.975
		c-1.083-1.752-2.503-3.668-1.017-5.959c-1.058-5.083,0.32-9.658,2.917-13.979c4.849,19.968,16.58,33.745,37.176,37.366
		c20.173,3.546,35.699-5.354,47.263-21.694C414.999,104.75,415.243,103.371,415.714,102.153z"/>
	<path fill-rule="evenodd" fill="#51A6AB" d="M430.99,188.081c-0.338,1.327-0.676,2.653-1.014,3.98
		c-30.965,0.042-61.931,0.084-92.896,0.126c-2.427-0.128-4.854-0.256-7.343-0.388c-2.31-3.229-2.067-6.471-0.805-9.805
		c-0.694,6.389,2.257,8.285,8.471,8.127c14.191-0.363,28.532-2.098,42.483-1.409C397.038,189.559,413.964,186.366,430.99,188.081z"
		/>
	<path fill-rule="evenodd" fill="#60A4A6" d="M500.096,191.134c-3.106,0-6.213,0-9.743,0c-1.39-17.897,0.842-35.291-1.307-52.345
		c-4.144-1.344-7.515-0.499-10.888,0.236c2.556-4.759,7-3.142,10.642-2.625c3.641,0.517,3.25,4.06,3.156,6.886
		c-0.484,14.659-0.92,29.315,0.524,44.2c10.03,1.53,19.465,0.887,28.14-4.589c2.417-1.525,4.929-1.777,7.592-0.809
		C519.767,187.982,510.104,190.095,500.096,191.134z"/>
	<path fill-rule="evenodd" fill="#A6D1D9" d="M1007.868,115.02c-1.905-13.14-0.366-26.354-0.852-39.524
		c-0.079-2.147-0.061-4.3-0.088-6.449c0.412-0.973,0.825-1.945,1.237-2.918C1008.066,82.426,1007.968,98.723,1007.868,115.02z"/>
	<path fill-rule="evenodd" fill="#45AEB5" d="M836.5,198.621c0.07,5.244,0.14,10.488,0.209,15.724
		C836.64,209.098,836.57,203.859,836.5,198.621z"/>
	<path fill-rule="evenodd" fill="#08070C" d="M16.017,192.978c0-43.107,0-86.215,0-129.634c3.576,0,5.825,0,8.893,0
		c0,7.289,0,14.69,0,22.092c-0.662,1.77-0.399,3.614-0.401,5.427c-0.017,21.576-0.003,43.152-0.026,64.729
		c-0.002,1.812,0.295,3.653-0.311,5.435c0.001,1.669,0.002,3.339,0.003,5.008c0.496,2.999,0.536,5.996-0.022,8.993
		c-0.045,6.026-0.091,12.053-0.137,18.079C21.339,193.728,18.669,193.919,16.017,192.978z"/>
	<path fill-rule="evenodd" fill="#D9D7D6" d="M24.172,161.025c0.246-25.196,0.492-50.393,0.738-75.59
		c0.025,24.258,0.059,48.515,0.04,72.772C24.95,159.147,24.443,160.086,24.172,161.025z"/>
	<path fill-rule="evenodd" fill="#D9D7D6" d="M24.153,175.026c0.007-2.998,0.015-5.995,0.022-8.993
		C25.443,169.034,25.466,172.031,24.153,175.026z"/>
	<path fill-rule="evenodd" fill="#D9D7D6" d="M16.017,192.978c2.667,0.042,5.333,0.085,8,0.128
		C21.324,194.697,18.654,194.877,16.017,192.978z"/>
	<path fill-rule="evenodd" fill="#33ABB5" d="M312.905,84.109c0.002,20.346-16.227,35.896-37.396,35.835
		c-18.138-0.053-34.415-16.995-34.44-35.849c-0.026-19.044,15.883-35.241,34.594-35.22C297.115,48.9,312.903,63.837,312.905,84.109z
		"/>
	<path fill-rule="evenodd" fill="#D7D8DC" d="M326.911,104.091c7.873,16.087,20.318,26.39,38.018,30.04
		c-3.38,3.52-8.538,3.224-12.338,5.626c-10.07,6.364-19.896,13.088-24.22,25.08c-0.238,0.661-1.123,1.09-2.399,2.264
		c-6.382-16.423-18.271-26.431-35.87-31.731c5.629-2.879,10.215-4.706,14.231-7.387c7.947-5.306,14.695-11.905,19.355-20.42
		C324.451,106.169,324.838,104.314,326.911,104.091z"/>
	<path fill-rule="evenodd" fill="#58A7B0" d="M207.968,74.045c4.995-5.26,11.111-3.372,16.612-2.113
		c1.378-2.013,2.36-3.446,3.34-4.879c-3.87,13.71-3.819,27.129,2.96,40.051c-3.324,0.665-2.515,5.015-6.013,6.238
		c-14.963-5.688-31.839,4.471-47.761-3.879c2.412-5.754-0.966-12.059,4.417-17.233c0.245,4.8,0.49,9.601,0.742,14.401
		c0.75,1.542,2.205,1.201,3.487,1.313c1.599,0.326,3.001,1.37,4.805,0.972c10.482-2.314,21.084-2.325,32.714-1.175
		c-3.961-10.569-4.918-21.036-4.182-31.687C215.248,74.521,210.961,77.649,207.968,74.045z"/>
	<path fill-rule="evenodd" fill="#DAD7D8" d="M469.442,20.307c0,26.052,0,51.895,0,78.39c-12.746,0.189-22.839-5.446-30.507-14.795
		c-9.83-11.984-12.054-26.104-5.571-40.171C440.4,28.464,455.313,19.327,469.442,20.307z"/>
	<path fill-rule="evenodd" fill="#D8D7DA" d="M207.968,74.045c4.274-0.28,8.549-0.562,13.187-0.865
		c0,6.293-0.394,12.579,0.11,18.791c0.509,6.277,2.679,12.258,5.818,18.801c-14.339-3.061-27.88-2.463-41.732,1.517
		c0.175-1.887,0.289-3.115,0.402-4.345c3.211-12.062,3.149-24.079-1.665-37.198C192.746,73.48,200.255,74.835,207.968,74.045z"/>
	<path fill-rule="evenodd" fill="#DBDBD8" d="M820.038,163.993c0-38.112,0-76.225,0-114.764c37.264,0,75.278,0,114.159,0
		c0,38.1,0,75.842,0,114.762c-37.742,0-75.952,0-114.162,0L820.038,163.993z"/>
	<path fill-rule="evenodd" fill="#33AEB7" d="M820.035,163.991c1.436,3.97,4.758,4.09,8.188,4.042
		c24.093-0.334,48.181,1.75,72.814-0.506c-5.849,7.259-14.215,2.712-21.349,5.862c4.725,4.513,9.947,1.499,14.816,3.202
		c0.686,0.807,1.729,2.035,3.258,3.837c4.506,0,9.395,0,15.717,0c-5.288,6.15-11.729,1.798-18.146,5.4c6.433,0,11.031,0,15.629,0
		c0.001,0.399,0.001,0.8,0.002,1.2c-20.18,0-40.358,0-62.434,0c-3.827-3.093-9.779,2.085-15.764,0.633
		c-0.74-2.801-1.449-5.479-2.326-8.793c0.284-0.948,0.752-2.512,1.418-4.738c-5.01-1.538-10.609-1.016-14.813-5.485
		c-1.961,4.887-0.389,7.722,1.87,9.617c3.139,1.521,5.763-1.572,8.367,1.689c-7.152,0.688-12.86,4.008-18.538,7.612
		c-15.621-5.259-10.938-18.632-10.354-29.045c0.992-17.717-0.732-35.279-0.756-52.912c-0.026-20.507-3.741-41.022,0.354-61.156
		c-1.883-5.257-1.883-5.257-1.62-8.357c2.38-3.349,5.604-4.308,9.584-4.099c20.498,1.076,40.993,2.355,61.507,2.868
		c14.05,0.351,28.127-0.521,42.194-0.689c10.985-0.133,21.975-0.027,33.053,1.214c-3.695,5.511-9.766,3.029-13.609,5.378
		c-1.65,1.903,0.092,3.139,0.303,4.892c-5.691,0-11.072,0-16.385,0c-2.684-7.137-10.822-9.492-15.957-3.831
		c-5.523,6.091-11.36,4.13-16.697,1.758c-3.699-1.644-6.93-1.887-10.479-1.278c-14.548,2.493-29.237,3.233-43.95,3.658
		c-1.731,0.051-3.486-0.687-5.243-1.062c-6.071,2.886-5.518,8.595-4.372,13.413c1.678,7.067,2.053,13.657-0.09,20.728
		c-1.816,5.991,1.521,12.039,1.629,18.069c0.322,17.763-0.064,35.538,0.268,53.3c0.079,4.263-3.655,7.685-1.853,12.059
		c0.682,1.834,2.31,1.467,3.766,1.522L820.035,163.991z"/>
	<path fill-rule="evenodd" fill="#0B0B12" d="M710.707,167.147c-26.818-0.021-49.77-22.692-49.673-49.066
		c0.103-27.963,22.61-50.168,50.692-50.011c26.532,0.148,49.007,22.948,49.004,49.714
		C760.728,145.207,738.472,167.169,710.707,167.147z"/>
	<path fill-rule="evenodd" fill="#DAD7D8" d="M516.908,221.106c17.045,0,33.795,0,51.193,0c0,17.345,0,34.674,0,52.419
		c-16.74,0-33.734,0-51.193,0C516.908,256.024,516.908,238.669,516.908,221.106z"/>
	<path fill-rule="evenodd" fill="#30ADB4" d="M635.398,151.461c-11.996-2.808-22.996-4.341-34.029-4.227
		c-10.9,0.112-21.766,1.579-33.481,5.273c9.188-23.03,9.804-44.965-0.414-67.885c22.779,5.044,44.411,5.234,67.002-0.535
		C625.697,106.874,625.696,128.678,635.398,151.461z"/>
	<path fill-rule="evenodd" fill="#04050A" d="M479.555,149.437c0,32.512,0,64.563,0,96.603
		c-18.208-1.454-36.111-21.612-38.363-43.373C438.708,178.676,453.742,157.477,479.555,149.437z"/>
	<path fill-rule="evenodd" fill="#D9D7D6" d="M444.949,325.932c-14.236,9.8-28.244,19.958-44.486,28.855
		c1.797-7.464,3.092-13.778,4.856-19.957c2.837-9.934,5.968-19.782,9.049-29.644c0.149-0.478,1.01-0.732,1.539-1.091
		c1.843-1.008,3.243,0.142,4.535,1.105c7.341,5.473,14.637,11.007,21.87,16.623C443.689,322.894,444.563,324.247,444.949,325.932z"
		/>
	<path fill-rule="evenodd" fill="#D8D9DB" d="M404.918,296.213c-13.861,9.88-27.722,19.76-41.752,29.761
		c-4.393-6.379,0.386-9.941,1.537-13.735c3.805-12.551,8.669-24.779,13.127-37.132c2.173-0.523,3.898,0.505,5.466,1.742
		c5.841,4.605,11.896,8.925,17.811,13.429C403.034,291.744,405.253,293.21,404.918,296.213z"/>
	<path fill-rule="evenodd" fill="#D9D7D6" d="M452.027,329.06c0.997,0.786,1.994,1.571,3.593,2.83
		c13.952-6.204,25.592-17.109,39.894-24.438c2.083,8.183-3.387,14.789-3.995,22.3c-0.677,8.362-5.333,16.08-5.887,24.683
		c-0.035,0.544-0.963,1.03-1.476,1.544c-11.031-8.312-22.062-16.622-33.091-24.933C451.385,330.384,451.706,329.722,452.027,329.06z
		"/>
	<path fill-rule="evenodd" fill="#0C0D16" d="M444.949,325.932c-9.681-7.278-19.362-14.558-29.042-21.836
		c1.864-1.645,3.728-3.289,5.592-4.934c1.141-2.945,4.015-3.21,6.442-4.165c2.418-1.48,4.836-2.961,7.254-4.442
		c1.102-2.011,3.24-2.413,5.083-3.274l-0.078,0.089c0.876-1.391,2.107-2.202,3.769-2.311c1.402-0.861,2.805-1.724,4.208-2.585
		c1.414-1.954,3.206-3.323,5.666-3.657c1.224-0.676,2.448-1.353,4.203-2.322c-0.354,2.244-0.619,3.917-0.883,5.59
		c0.188,0.338,0.132,0.628-0.168,0.871c-1.957,7.062-3.914,14.123-5.871,21.185c0.948,1.907,0.143,3.406-1.118,4.799
		c-1.24,4.04-2.481,8.08-3.721,12.12c0.755,1.327,0.978,2.582-0.492,3.606C445.511,325.087,445.23,325.51,444.949,325.932z"/>
	<path fill-rule="evenodd" fill="#0F0F14" d="M404.918,296.213c-9.029-7.036-18.059-14.071-27.088-21.106
		c0.098-0.695,0.195-1.391,0.292-2.086c0.74-1.589,2.162-2.016,3.731-2.192c3.11-2.145,6.22-4.29,9.331-6.435
		c1.832-3.49,5.714-3.743,8.656-5.48c1.428-0.973,2.856-1.945,4.284-2.917c3.459-3.367,7.515-5.838,11.844-7.9
		c1.144-0.611,2.288-1.223,4.166-2.226c-0.729,2.771-1.315,5.002-1.902,7.232c0.377,3.258-0.719,6.125-2.343,8.853
		c-2.99,10.015-5.983,20.028-8.966,30.045C406.473,293.513,406.788,295.38,404.918,296.213z"/>
	<path fill-rule="evenodd" fill="#D9D7D6" d="M415.968,248.096c-3.949,2.634-7.897,5.268-11.845,7.9
		C407.324,252.24,410.226,248.039,415.968,248.096z"/>
	<path fill-rule="evenodd" fill="#D9D7D6" d="M399.84,258.913c-2.886,1.827-5.771,3.654-8.657,5.481
		C391.803,258.986,396.437,259.922,399.84,258.913z"/>
	<path fill-rule="evenodd" fill="#D9D7D6" d="M415.889,261.955c0.781-2.951,1.563-5.902,2.343-8.853
		C420.085,256.751,418.908,259.597,415.889,261.955z"/>
	<path fill-rule="evenodd" fill="#D9D7D6" d="M427.942,294.997c-2.148,1.389-4.297,2.778-6.444,4.166
		c-1.676-1.842,0.411-3.327,1.108-2.89C425.113,297.844,425.177,290.568,427.942,294.997z"/>
	<path fill-rule="evenodd" fill="#D9D7D6" d="M450.005,308.938c0.373-1.601,0.746-3.2,1.118-4.8c2.882,1.641,1.157,3.78,0.306,5.469
		C450.764,310.926,450.292,309.641,450.005,308.938z"/>
	<path fill-rule="evenodd" fill="#D9D7D6" d="M445.792,324.665c0.164-1.202,0.328-2.404,0.492-3.606
		c1.332,0.264,2.375,0.835,2.53,2.493C448.221,324.869,447.548,326.08,445.792,324.665z"/>
	<path fill-rule="evenodd" fill="#D9D7D6" d="M453.842,278.816c-1.889,1.22-3.778,2.439-5.667,3.658
		C449.136,279.814,450.72,278.124,453.842,278.816z"/>
	<path fill-rule="evenodd" fill="#D9D7D6" d="M456.994,282.955c-0.059-0.313-0.003-0.604,0.168-0.871
		c0.673-0.232,1.345-0.466,2.446-0.847C459.279,283.469,458.798,284.398,456.994,282.955z"/>
	<path fill-rule="evenodd" fill="#D9D7D6" d="M381.854,270.828c-1.245,0.73-2.489,1.462-3.732,2.192
		C378.109,270.149,379.887,270.327,381.854,270.828z"/>
	<path fill-rule="evenodd" fill="#D9D7D6" d="M440.278,287.28c-1.695,1.093-3.39,2.185-5.084,3.276
		C435.861,287.867,437.887,287.29,440.278,287.28z"/>
	<path fill-rule="evenodd" fill="#D9D7D6" d="M443.969,285.059c-1.256,0.771-2.513,1.54-3.77,2.311
		C440.993,285.843,441.198,283.356,443.969,285.059z"/>
	<path fill-rule="evenodd" fill="#D9D7D6" d="M525.404,452.506c1.611-20.482,8.623-38.027,12.111-53.759
		c14.418-9.071,26.781-16.849,38.938-24.495c3.279,1.003,3.904,3.114,3.328,5.625c-2.173,9.458-5.47,18.791-6.42,28.361
		c-1.071,10.798-7.43,16.923-15.348,22.37C547.805,437.633,537.443,444.438,525.404,452.506z"/>
	<path fill-rule="evenodd" fill="#0C0D15" d="M542.17,332.107c2.415,5.858,0.52,11.96,1.012,17.927
		c-2.548,21.063-11.227,39.081-26.66,53.76c-0.951,0.904-1.689,2.031-2.527,3.055c-1.66,1.085-2.352,3.602-4.928,3.331
		c-3.378,2.29-6.757,4.579-10.136,6.868c-0.872,1.475-2.121,2.221-3.869,2c-4.039,1.651-8.079,3.302-12.118,4.953
		c-1.125,0.921-2.402,1.308-3.849,1.104c-0.842-0.191-2.108,0.414-2.209-1.173c-0.138-2.879,1.5-4.987,3.041-7.169
		c17.715-25.091,35.928-49.825,53.545-74.986c1.993-2.848,3.683-5.921,6.132-8.44C540.375,332.755,541.38,332.658,542.17,332.107z"
		/>
	<path fill-rule="evenodd" fill="#D9D7D6" d="M509.066,410.18c1.644-1.11,3.287-2.221,4.929-3.331
		C512.773,408.583,512.796,412.157,509.066,410.18z"/>
	<path fill-rule="evenodd" fill="#D9D7D6" d="M495.061,419.048c1.29-0.667,2.581-1.334,3.87-2
		C498.645,419.658,497.237,420.095,495.061,419.048z"/>
	<path fill-rule="evenodd" fill="#D9D7D6" d="M479.094,425.104c1.284-0.368,2.567-0.735,3.85-1.104
		c-0.003,0.334-0.005,0.667-0.009,1.001C481.668,425.55,480.415,426.588,479.094,425.104z"/>
	<path fill-rule="evenodd" fill="#D7D7DD" d="M102.51,192.835c-4.174,6.233-8.111,12.112-12.646,18.885
		c-4.663-6.507-8.921-12.447-13.468-18.791c4.542-6.253,8.781-12.091,13.357-18.391C95.456,179.813,97.938,186.583,102.51,192.835z"
		/>
	<path fill-rule="evenodd" fill="#D9D7D6" d="M540.907,333.785c-21.341,30.049-42.683,60.098-64.023,90.146
		c-4.785-7.89-1.279-16.352-0.205-23.963c2.972-21.063,15.222-37.343,31.058-51.021c0.587-0.508,1.495-0.646,2.253-0.955
		c1.03-0.74,1.208-2.067,2.033-2.948l-0.01,0.008c2.297-2.271,5.531-3.041,8.016-5.009c1.324-0.673,2.646-1.346,3.971-2.019
		c1.572-0.939,3.576-0.775,5.051-1.967c0.316-0.007,0.633-0.021,0.949-0.042c0.945-0.528,2.092-0.425,3.035-0.96
		c0.654-0.343,1.309-0.686,1.962-1.029c0.921-0.794,2.22-1.007,3.034-1.968l-0.019,0.011
		C539.471,331.81,540.807,331.755,540.907,333.785z"/>
	<path fill-rule="evenodd" fill="#B4CCD6" d="M520.029,340.043c-1.821,3.029-5.119,3.696-8.016,5.009
		C513.806,341.974,516.834,340.873,520.029,340.043z"/>
	<path fill-rule="evenodd" fill="#B4CCD6" d="M540.907,333.785c-0.965-0.572-1.93-1.145-2.895-1.717
		c1.401-1.649,2.776-0.516,4.157,0.039C541.749,332.667,541.328,333.226,540.907,333.785z"/>
	<path fill-rule="evenodd" fill="#B4CCD6" d="M529.051,336.058c-1.122,2.098-3.094,2.014-5.051,1.967
		C525.346,336.502,527.081,335.979,529.051,336.058z"/>
	<path fill-rule="evenodd" fill="#B4CCD6" d="M538.031,332.059c-0.266,1.807-1.574,2.004-3.034,1.968
		C536.008,333.371,537.02,332.715,538.031,332.059z"/>
	<path fill-rule="evenodd" fill="#B4CCD6" d="M533.035,335.056c-0.661,1.43-1.687,1.707-3.035,0.96
		C530.643,334.527,531.693,334.334,533.035,335.056z"/>
	<path fill-rule="evenodd" fill="#B4CCD6" d="M512.023,345.044c-0.011,1.442-0.189,2.77-2.033,2.949
		C510.668,347.01,511.346,346.026,512.023,345.044z"/>
	<path fill-rule="evenodd" fill="#A1CCD6" d="M296.033,84.09c-0.018,11.394-7.917,19.056-19.568,18.979
		c-10.971-0.071-18.545-8.098-18.51-19.613c0.034-10.921,8.576-18.427,20.885-18.352C288.125,65.162,296.049,73.911,296.033,84.09z"
		/>
	<path fill-rule="evenodd" fill="#0D0F13" d="M307.817,134.714c3.5-2.82,6.754-5.135,9.632-7.848
		c2.883-2.719,5.391-5.836,8.244-8.978c5.288,7.139,12.341,12.514,19.972,17.525c-7.093,4.657-13.778,9.473-18.492,17.262
		C321.775,145.4,315.776,139.09,307.817,134.714z"/>
	<path fill-rule="evenodd" fill="#34AFB7" d="M836.086,65.818c25.98,0,52.184,0,79.112,0c0,26.483,0,52.342,0,78.366
		c-25.999,0-52.184,0-79.112,0C836.086,117.664,836.086,91.785,836.086,65.818z"/>
	<path fill-rule="evenodd" fill="#DBD9D5" d="M718.16,156.811c-20.073,2.035-35.012-5.536-42.97-21.777
		c-7.464-15.232-5.026-33.123,6.919-45.085c8.088-8.1,17.787-13.277,29.887-11.73c1.482,2.077,1.08,4.478,1.084,6.774
		c0.028,20.149,0.006,40.299,0.029,60.448c0.002,2.315-0.256,4.673,0.564,6.69C714.766,154.3,717.837,154.207,718.16,156.811z"/>
	<path fill-rule="evenodd" fill="#2DACB5" d="M718.16,156.811c-2.088-0.328-4.176-0.657-7.11-1.118
		c0-16.064-0.308-32.152,0.115-48.222c0.257-9.748-1.594-19.57,0.829-29.253c15.201-1.157,31.508,10.639,37.344,27.012
		c5.33,14.956-1.283,35.424-14.398,44.553C729.85,153.325,724.451,156.132,718.16,156.811z"/>
	<path fill-rule="evenodd" fill="#D9D8D9" d="M475.613,156.32c0,27.86,0,55.673,0,83.575c-18.215-5.191-30.399-23.427-29.749-44.137
		C446.43,177.771,459.976,159.7,475.613,156.32z"/>
</g>
</svg>
