<?xml version="1.0" encoding="utf-8"?>
<!-- Generator: Adobe Illustrator 16.0.2, SVG Export Plug-In . SVG Version: 6.00 Build 0)  -->
<svg version="1.2" baseProfile="tiny" id="Layer_1" xmlns="http://www.w3.org/2000/svg" xmlns:xlink="http://www.w3.org/1999/xlink"
	 x="0px" y="0px" width="1024px" height="752px" viewBox="0 0 1024 752" xml:space="preserve">
<path fill="#0A0B14" d="M442.742,588.301c6.393-17.457,12.785-34.915,19.438-53.088c7.054,18.25,13.913,35.993,20.771,53.736
	c2.018,1.271,2.522,3.605,3.809,5.396c8.474,21.115,15.727,42.693,24.175,63.813c5.728,14.32,10.187,29.143,17.156,42.979
	c1.461,2.9,2.48,6.166,2.473,9.57c0.109,2.029,0.602,4.063-0.075,6.083c-144.047,1.104-288.094,2.201-432.141,3.321
	C65.899,720.365,33.45,720.702,1,721c0-0.333,0-0.667,0-1c7.31-29.552,19.416-57.5,28.853-86.341
	c4.082-12.474,8.534-24.815,13.187-37.088c0.785-2.068,1.742-3.934,3.477-5.339c7.922-22.137,15.843-44.271,24.012-67.1
	c6.389,22.792,12.584,44.895,18.78,66.994c2.279,1.18,3.074,3.291,3.76,5.598c9.292,31.233,17.87,62.672,26.8,94.008
	c1.944,6.822,3.844,13.662,6.352,21.172c2.565-5.155,3.828-9.913,5.496-14.524c10.238-28.29,19.928-56.774,30.538-84.933
	c2.049-5.438,3.423-11.122,5.744-16.477c0.866-1.998,1.584-4.053,3.68-5.149c7.592-21.271,15.186-42.544,23.137-64.825
	c7.651,22.124,14.958,43.257,22.267,64.391c2.26,1.307,2.694,3.668,3.424,5.875c11.928,36.027,23.716,72.104,35.647,108.131
	c0.457,1.379,0.596,2.957,2.114,4.31c2.529-4.56,3.749-9.513,5.456-14.218c12.092-33.331,24.444-66.568,36.34-99.971
	c0.749-2.103,1.564-4.054,3.815-4.949c7.968-21.454,15.936-42.908,24.105-64.906c8.248,22.107,16.333,43.777,24.417,65.445
	c2.511,1.26,3.118,3.8,3.978,6.101c11.466,30.695,22.713,61.47,33.803,92.302c2.575,7.16,5.252,14.285,8.229,21.823
	c1.984-2.287,2.52-4.587,3.215-6.712c12.042-36.832,25.714-73.105,37.632-109.98C439.939,591.516,440.97,589.682,442.742,588.301z"
	/>
<path fill="#C2B4A4" d="M557,1c54.666,0,109.334,0,164,0c1.537,2.342-0.006,4.36-0.668,6.473c-1.664,4.037-3.276,8.096-4.668,12.237
	c-1.516,6.813-5.256,12.9-6.861,20.148c6.383,3.922,13.367,6.121,19.961,9.127c3.169,1.444,6.69,2.436,7.521,6.556
	c-1.43,11.852-2.253,23.848-8.271,34.599c-0.85,1.518-0.938,3.184-0.979,4.847c-0.076,3.106-0.914,6.142-2.896,8.359
	c-4.772,5.345-6.642,12.192-10.127,18.163c-6.379,10.927-15.248,19.887-25.668,26.859c-20.045,13.414-42.481,19.511-66.391,16.299
	c-13.778-1.85-26.83-7.363-38.48-15.65c-12.14-8.636-22.606-18.8-29.12-32.249c-6.132-12.659-10.845-25.82-12.464-40.079
	c-1.999-17.607-1.018-34.761,3.938-51.795c1.674-5.751,4.427-11.071,5.882-16.881C552.456,5.032,554.354,2.672,557,1z"/>
<path fill="#129C1C" d="M65.122,509.963C43.748,509.977,22.374,509.987,1,510c0-50.333,0-100.667,0-151
	c1.815-1.415,3.639-2.941,5.045,0.431c38.647-0.109,77.295-0.222,115.943-0.333c1.35,1.139,1.974,2.581,2.071,4.354
	c1.191,21.745,1.635,43.497,0.725,65.265c0.801,25.119,0.258,50.242,0.306,75.364c0.004,1.865-0.238,3.67-1.806,4.979
	c-4.267,0.941-8.591,0.381-12.884,0.407c-13.461,0.087-26.923,0.017-40.384,0.054C68.384,509.523,66.688,509.119,65.122,509.963z"/>
<path fill="#0249C7" d="M1025,729c-26.947-0.064-53.895-0.129-80.842-0.193c-2.003-1.447-2.544-3.598-2.124-5.775
	c1.218-6.312-0.019-12.562-0.054-18.836c-0.271-47.895-0.205-95.788-0.092-143.683c0.036-15.286-0.199-30.573-0.031-45.86
	c0.03-2.789-0.359-5.719,1.774-8.069c1.753-1.562,3.912-1.698,6.097-1.707c22.967-0.099,45.932-0.074,68.897-0.013
	c2.356,0.006,4.699,0.083,6.373,2.138C1025,581,1025,655,1025,729z"/>
<path fill="#03AD81" d="M557,1c-18.285,40.229-21.048,80.745,2.344,119.533c18.797,31.168,48.152,45.973,84.631,41.945
	c33.642-3.715,57.9-21.865,74.019-52.242c9.375-17.671,14.022-36.161,17.27-55.406c1.916-1.62,3.744-0.583,5.507,0.267
	c7.276,3.51,14.36,7.379,21.157,11.751c1.798,1.156,3.695,2.332,3.416,4.959c-3.34,31.721-18.505,58.158-37.096,83.067
	c0.002,0.175,0.004,0.351,0.008,0.526c-0.057,0.352-0.174,0.683-0.341,0.997c-0.095,0.149-0.198,0.294-0.291,0.445
	c-0.203,0.293-0.438,0.563-0.68,0.823c-0.116,0.136-0.245,0.261-0.362,0.397c-0.231,0.282-0.486,0.541-0.742,0.802
	c-0.123,0.142-0.256,0.268-0.379,0.41c-0.246,0.3-0.515,0.569-0.789,0.843c-0.137,0.146-0.281,0.277-0.42,0.424
	c-0.287,0.302-0.603,0.563-0.931,0.816c-0.172,0.128-0.349,0.24-0.521,0.368c-0.369,0.24-0.758,0.428-1.168,0.584
	c-0.432,0.142-0.871,0.214-1.32,0.24c-1.225,0.119-2.268,0.685-3.025,1.578c-3.762,4.422-8.705,7.492-12.903,11.408
	c-0.555,1.07-1.562,1.725-2.354,2.578c-0.51,0.5-1.076,0.923-1.688,1.291c-2.945,1.513-5.865,3.066-8.488,5.123
	c-5.119,2.642-10.639,4.319-15.895,6.621c-3.586,1.57-7.358,1.183-11.045,1.69c-79.801,10.138-135.094-24.458-152.787-96.813
	C504.217,63.688,509.948,31.926,521,1C533,1,545,1,557,1z"/>
<path fill="#7FC3F6" d="M1,90c61.891,0,123.781,0,186.863,0c0,13.364,0,26.372,0,40.299c-2.633,0.148-5.948,0.493-9.264,0.498
	C119.399,130.89,60.2,130.94,1,131C1,117.333,1,103.667,1,90z"/>
<path fill="#03AD81" d="M6.045,359.431C4.363,359.287,2.682,359.145,1,359c0-42.333,0-84.667,0-127
	c33.844,1.199,61.995,27.062,63.912,58.715C67.082,326.561,44.275,353.184,6.045,359.431z"/>
<path fill="#0249C7" d="M944.688,377.054c26.771-0.018,53.541-0.036,80.313-0.054c0,26,0,52,0,78
	c-1.409,1.676-3.292,2.1-5.372,2.109c-23.453,0.109-46.905,0.11-70.358-0.006c-1.346-0.007-2.645-0.266-3.897-0.743
	c-0.635-0.21-1.19-0.552-1.67-1.018c-1.297-8.987-2.563-18.063-1.685-27.102c1.404-14.404,0.437-28.808,0.838-43.201
	C942.934,382.268,942.414,379.334,944.688,377.054z"/>
<path fill="#404B6F" d="M944.919,455.374c26.694-0.125,53.388-0.249,80.081-0.374c0,17.333,0,34.667,0,52
	c-26.973,0.117-53.943,0.234-80.916,0.352c-0.563-0.3-1.004-0.726-1.327-1.272c-0.778-1.162-0.813-2.497-0.827-3.817
	c-0.15-14.197-0.165-28.393,1.014-42.561C943.085,457.986,943.414,456.431,944.919,455.374z"/>
<path fill="#129C1C" d="M46.517,591.232C31.344,634.155,16.172,677.078,1,720c0-9,0-18,0-27c1.284-1.333,1.284-2.667,0-4
	c0-32.667,0-65.333,0-98C16.172,591.078,31.344,591.155,46.517,591.232z"/>
<path fill="#0A0B14" d="M719.148,6.755C719.766,4.837,720.383,2.918,721,1c5.666,0,11.334,0,17,0
	c55.328,19.165,105.563,45.733,135.928,98.801c20.087,35.107,22.499,72.773,11.563,111.466c-3.259-1.339-2.443-4.207-1.843-6.362
	c4.135-14.823,2.287-29.933,0.813-44.657c-1.24-12.393-5.119-24.625-10.859-36.123c-8.931-17.889-19.584-34.495-34.219-48.184
	c-14.229-13.311-29.604-25.087-46.668-34.794c-16.143-9.182-33.182-16.183-50.261-23.171c-6.127-2.507-12.329-4.895-18.563-7.165
	C721.873,10.075,719.827,9.156,719.148,6.755z"/>
<path fill="#7FC3F6" d="M1,180c62.327,0,124.653,0,187.57,0c0,3.338,0,6.997,0,12c-62.701,0-125.136,0-187.57,0C1,188,1,184,1,180z"
	/>
<path fill="#C2B4A4" d="M1015.002,749.002c1.525-0.083,3.05-0.167,6.675-0.366c-3.329,2.177-5.003,3.271-6.677,4.364
	c-0.334,0-0.666,0-1,0c-2.492-0.506-4.982-1.011-13.738-2.787c8.868-0.73,11.803-0.974,14.735-1.216L1015.002,749.002z"/>
<path fill="#529204" d="M1,689c3,1.333,2.86,2.667,0,4C1,691.667,1,690.333,1,689z"/>
<path fill="#0A0B14" d="M765.342,71.807c-10.027-5.659-20.054-11.316-30.08-16.977c-9.623-4.555-19.246-9.109-29.479-13.951
	c2.91-7.285,5.887-14.734,8.863-22.184c2.254-0.642,4.276,0.154,6.26,1.061c15.127,6.91,30.439,13.405,45.313,20.878
	c7.568,3.802,15.613,7.195,22.418,11.846c9.545,6.523,19.16,13.139,28.263,20.411c14.437,11.533,26.725,25.035,37.84,39.634
	c10.214,13.412,16.688,28.51,20.184,45.128c3.383,16.079,3.53,32.438,1.512,48.226c-2.981,23.312-10.084,45.815-24.867,65.022
	c-3.877,5.037-8.565,9.286-12.7,14.061l0.11-0.075c-0.508,0.576-1.211,0.892-1.812,1.342
	c-50.188,43.164-113.065,51.952-174.552,64.845c-46.262,9.699-93.579,17.693-128.881,53.584
	c-16.386,16.658-23.004,37.754-23.832,61.779c-17.912-12.795-34.746-26.118-35.664-49.653c-1.137-29.104,18.964-44.509,41.8-55.318
	c52.562-24.881,110.901-29.055,166.184-44.317c48.972-13.521,96.48-30.505,132.308-68.884
	c47.186-50.549,33.531-119.548-32.047-165.409C776.917,78.959,771.063,75.479,765.342,71.807z"/>
<path fill="#017523" d="M122.983,428.973c-0.332-23.292-0.663-46.583-0.995-69.875c42.425-0.531,84.85-1.064,127.274-1.598
	c4.341-3.889,8.597-1.355,12.866,0.17c39.672-0.121,79.345-0.243,119.018-0.364c3.949,1.649,3.849,5.452,3.735,8.548
	c-0.433,11.777,0.434,23.551-0.218,35.33c-0.42,7.58,0.224,15.2,0.236,22.803c0.013,7.632,0.072,15.265,0.093,22.896
	c0.047,16.974,0.156,33.948,0.09,50.923c-0.011,2.963,0.373,6.088-2.426,8.519c-2.463,1.086-5.266,1.171-8.104,1.188
	c-12.329,0.079-24.66-0.226-36.988,0.15c-3.796,0.037-7.593,0.073-11.39,0.11c-4.248-2.325-3.604-6.547-3.527-10.202
	c0.426-19.979,0.101-39.958,0.131-59.937c0.009-6.275-1.129-7.413-7.253-7.426c-34.636-0.074-69.294-0.805-103.902,0.222
	c-26.966,0.802-53.91,0.31-80.861,0.679C128.053,431.146,124.976,431.845,122.983,428.973z"/>
<path fill="#029CF7" d="M944.084,507.352c0.023,73.818,0.049,147.638,0.073,221.455c-32.448,0-64.896,0-98.272,0
	c0-72.892,0-145.601,0-218.31c1.146-1.125,0.098-3.04,1.342-3.97c1.85-1.852,4.097-1.643,6.222-1.648
	c27.897-0.09,55.798-0.075,83.696-0.017c2.493,0.005,5.05-0.091,6.816,2.204L944.084,507.352z"/>
<path fill="#234627" d="M122.983,428.973c66.692,0,133.383,0,203.19,0c0,25.979,0,52.39,0.002,78.799
	c-65.604,0.547-131.211,1.093-196.818,1.639c-2.093-0.233-4.33,0.883-6.284-0.665C123.043,482.153,123.013,455.563,122.983,428.973z
	"/>
<path fill="#03AD81" d="M737.122,727.551c-39.347-10.408-66.985-37.869-94.541-65.279c-23.744-23.618-46.068-48.48-64.884-78.856
	c44.117,22.267,86.438,43.624,129.594,65.403c3.798-12.168,7.387-23.667,10.977-35.165c0.562-0.548,0.519-1.345,0.824-2.005
	c0.65-2.33,0.299-4.722,0.471-7.08c0.218-2.203,1.41-4.021,2.31-5.954c2.256-3.422,3.834-7.058,3.604-11.274
	c-0.063-0.729,0.064-1.429,0.324-2.107c0.746-1.471,1.699-2.82,2.524-4.247c0.356-0.322,0.776-0.526,1.243-0.638
	c0.731-0.049,1.369,0.18,1.892,0.664c0.539,0.721,1.111,1.367,1.653-0.011c0.982-2.495-0.396-4.504-1.402-6.589
	c-0.271-1.718-0.144-3.475-0.566-5.175c-0.258-3.418,1.652-6.3,2.342-9.483c0.521-1.566,1.922-2.695,2.193-4.392
	c0.14-0.438,0.334-0.853,0.574-1.241c1.512-1.68,1.282-3.712,1.141-5.729c-0.207-1.207,0.031-2.352,0.464-3.473
	c0.739-1.486,1.831-2.849,1.616-4.671c1.729-7.687,4.635-15.038,6.402-22.714c0.426-1.844,1.604-3.213,3.299-4.104
	c16.088,8.844,32.176,17.688,48.265,26.531c1.879,6.835-1.107,12.989-3.003,19.186c-1.821,5.959-3.711,11.933-6.071,17.722
	c-1.421,1.927-1.919,4.108-1.758,6.469c-1.582,3.931-1.198,8.527-4.024,12.045c-1.085,1.241-2.306,2.425-1.787,4.336
	c0.563,3.438-0.997,6.326-2.382,9.263c-0.824,1.453-2.115,2.729-1.713,4.642c-1.536,8.856-4.185,17.358-8.129,25.445
	c-1.11,1.896-2.201,3.798-1.73,6.146c0.136,2.866-1.426,5.23-2.278,7.807c-1.013,1.886-2.164,3.726-1.881,6.021
	c-0.074,0.714-0.254,1.401-0.529,2.063c-0.699,1.422-1.85,2.687-1.532,4.463c0.288,2.785-1.233,5.009-2.271,7.386
	c-1.493,1.606-1.979,3.581-2.071,5.701c-0.127,0.455-0.314,0.883-0.554,1.288c-1.213,3.667-2.684,7.263-3.004,11.17
	c-0.097,0.706-0.305,1.381-0.586,2.033c-0.746,1.418-1.819,2.719-1.578,4.489c0.094,2.786-1.465,5.062-2.314,7.557
	c-1.388,1.765-1.941,3.775-1.785,6.005c-0.021,1.851-1.015,3.249-2.109,4.604c-1.985,1.545-1.972,3.678-1.709,5.883
	C742.85,725.564,741.248,727.747,737.122,727.551z"/>
<path fill="#03AD81" d="M189.201,297.598c0.155,32.408-26.931,60.633-58.41,60.868c-35.573,0.265-63.717-26.778-63.772-61.279
	c-0.053-33.331,26.917-60.877,59.929-61.206C161.662,235.634,189.035,262.727,189.201,297.598z"/>
<path fill="#03AD81" d="M262.13,357.67c-4.304-0.063-8.607-0.125-12.888-0.179c-33.766-5.22-57.046-32.138-54.749-63.321
	c2.468-33.514,27.059-57.59,59.37-58.129c31.414-0.524,58.834,23.688,61.992,54.738C319.221,323.88,297.458,350.977,262.13,357.67z"
	/>
<path fill="#129C1C" d="M337.566,507.661c14.932,0,29.864,0,44.328,0c0-45.791,0-88.73,0-131.67
	c0.422-0.064,0.845-0.129,1.267-0.193c-0.672-6.164-1.344-12.328-2.015-18.491c8.34-0.141,16.679-0.278,25.018-0.419
	c13.036-0.885,26.087-0.236,39.13-0.313c2.902-0.017,5.912-1.269,8.765,0.342l0.029,0.04c0.936,9.956,0.147,19.936,0.415,29.9
	c0.084,3.158-0.233,6.324,0.203,9.475c0,36.71,0,73.421,0,111.329C415.6,507.661,376.583,507.661,337.566,507.661z"/>
<path fill="#0249C7" d="M742.882,715.736c0.827-1.813,1.654-3.629,2.481-5.442c1.146-1.297,0.18-3.124,1.121-4.473
	c0.916-3.065,1.832-6.132,2.748-9.198c0.826-0.648,0.623-1.783,1.201-2.55c0.301-1.286,0.602-2.572,0.901-3.858
	c2.965-2.863,2.476-6.763,3.095-10.33c0.313-0.539,0.624-1.078,0.938-1.619c1.244-1.351,0.04-3.345,1.236-4.707
	c0.871-3.016,1.743-6.028,2.614-9.044c0.896-0.688,0.664-1.821,1.063-2.706c0.404-1.277,0.809-2.556,1.213-3.834
	c0.734-1.088,0.465-2.461,1.023-3.6c1.081-3.417,2.163-6.834,3.245-10.251c0.332-1.106,0.177-2.334,0.824-3.362
	c2.94-9.404,5.883-18.808,8.824-28.211c0.616-0.736,0.52-1.748,0.977-2.547c1.054-3.798,2.107-7.595,3.162-11.393
	c0.586-0.84,0.265-2.045,1.115-2.777c1.561-4.594,3.12-9.188,4.68-13.782c1.027-1.329,1.763-2.752,1.456-4.512
	c3.545-12.526,7.09-25.053,10.636-37.578c18.789,52.949,40.236,106.202,8.339,161.226c-15.043,25.948-39.688,33.377-68.652,26.364
	c1.412-2.264,2.824-4.526,4.238-6.79C742.612,719.313,741.264,717.075,742.882,715.736z"/>
<path fill="#029CF7" d="M944.688,377.054c-0.207,25.962-0.412,51.925-0.618,77.886c-1.222,2.021-3.255,2.145-5.267,2.154
	c-28.785,0.15-57.57,0.129-86.354,0.012c-2.003-0.009-4.042-0.076-5.598-2.196c-0.793-2.986-0.257-6.32-0.332-9.615
	c-0.293-12.797,0.127-25.594-0.37-38.401c-0.341-8.766,0.803-17.578-0.03-26.38c-0.107-1.144,0.271-2.306,0.861-3.343
	C879.549,377.131,912.118,377.092,944.688,377.054z"/>
<path fill="#0249C7" d="M723.172,598.484c-0.818,2.343-1.637,4.685-2.455,7.026c-1.65,1.81,0.311,4.548-1.615,6.285
	c-0.279,0.629-0.56,1.257-0.837,1.87c-29.139-54.748-58.278-109.482-88.218-165.716c40.701,22.372,79.915,43.926,119.129,65.479
	c-2.838,9.387-5.677,18.772-8.515,28.159c-0.686,0.647-0.595,1.627-1.021,2.385c-0.3,1.646-0.6,3.294-0.899,4.941
	c-1.474,1.64,0.162,4.255-1.799,5.742l-0.219,0.384c-0.729,0.771-0.583,1.926-1.193,2.75c-0.931,3.764-1.86,7.527-2.791,11.29
	c-1.301,3.688-0.254,8.143-3.64,11.149c-0.209,0.416-0.417,0.83-0.625,1.246c-0.514,0.781-0.401,1.808-1,2.555
	c-0.223,1.08-0.444,2.158-0.668,3.237C725.965,591.129,724.975,594.938,723.172,598.484z"/>
<path fill="#129C1C" d="M442.742,588.301c-14.367,42.465-28.735,84.93-43.929,129.838c-16.097-44.406-31.258-86.229-46.416-128.043
	C382.515,589.503,412.628,588.9,442.742,588.301z"/>
<path fill="#129C1C" d="M303.878,589.563c-15.039,41.545-30.077,83.09-46.036,127.179c-14.132-43.808-27.447-85.082-40.762-126.356
	C246.014,590.111,274.946,589.838,303.878,589.563z"/>
<path fill="#9EB815" d="M401.028,337.561c-21.836,27.666-56.071,21.754-69.908-12.076c-1.04-1.345-1.399-2.93-1.611-4.564
	c0.191-3.479-0.21-6.905-0.923-10.301c0.735-17.205,16.162-33.156,34.675-35.525c-4.158-3.143-7.244-6.791-8.713-11.668
	c-1.488-4.938-1.911-9.731,0.445-14.572c4.999-10.269,13.776-12.965,22.961-12.637c10.09,0.359,17.417,7.502,19.411,17.169
	c1.901,9.216-3.063,18.337-13.362,24.422c4.293,1.641,8.17,3.88,11.643,6.774c5.27,4.391,5.751,7.11,1.925,12.779
	c-3.13,4.639-5.362,9.439-5.597,15.201c-0.293,7.195,1.913,13.396,6.264,18.98c1.118,1.434,2.517,2.689,2.996,4.551
	C401.354,336.609,401.283,337.1,401.028,337.561z"/>
<path fill="#029CF7" d="M529.08,711.266c-14.889-39.205-29.777-78.412-44.665-117.617c0.219-1.441-0.781-2.954,0.829-5.133
	c27.506,0.416,55.584-0.867,83.425-0.438c2.444,3.279,1.665,6.311,0.474,8.932c-3.627,7.969-5.364,16.521-8.11,24.758
	c-0.357,1.082-0.718,2.164-1.074,3.246c-2.519,2.672-2.617,6.4-3.562,9.571c-3.674,12.354-8.596,24.328-11.33,36.962
	c-0.094,0.563-0.186,1.124-0.276,1.688c-3.315,5.199-4.68,11.174-6.313,16.965c-1.817,6.443-3.352,12.945-6.168,19.059
	C531.639,710.706,531.074,712.064,529.08,711.266z"/>
<path fill="#129C1C" d="M171.679,590.821c-14.958,42.196-29.916,84.394-45.624,128.709c-12.656-44.22-24.702-86.313-36.748-128.403
	C116.765,591.025,144.222,590.924,171.679,590.821z"/>
<path fill="#5476A5" d="M846.98,377.169c0,25.599,0,51.196,0,77.771c32.705,0,64.896,0,97.086,0c0.295,0.125,0.58,0.269,0.854,0.434
	c-0.321,17.232-0.64,34.464-0.96,51.693c-31.763,0-63.525,0-95.402,0c-0.944,1.217-1.81,2.328-2.674,3.436
	c-0.17-43.374-0.352-86.744-0.441-130.114C845.441,379.314,846.445,378.242,846.98,377.169z"/>
<path fill="#0249C7" d="M838.867,284.961c19.523-23.817,32.412-50.541,35.84-81.456c7.512-67.769-28.751-111.494-81.607-144.54
	c-24.836-15.528-52.225-26.973-78.453-40.269c1.502-3.98,3.002-7.96,4.504-11.94c67.199,24.755,131.479,53.453,160.482,126.41
	c10.006,25.168,10.682,51.562,5.855,78.104C879.568,241.917,862.674,265.625,838.867,284.961z"/>
<path fill="#0A0B14" d="M401.086,336.895c-14.492-12.742-15.188-27.688-1.769-45.166c-5.141-7.537-12.73-11.529-22.036-14.125
	c12.111-3.007,18.958-9.962,18.354-21.969c-0.579-11.523-8.599-17.343-19.023-18.254c-10.699-0.935-18.596,5.264-20.798,15.579
	c-2.243,10.509,2.914,18.546,13.634,23.429c-21.655,1.702-34.816,12.447-39.211,33.239c0.604,3.838,0.039,7.711,0.33,11.56
	c0.184,1.434,0.368,2.866,0.552,4.3c-2.46-6.828-4.921-13.654-7.382-20.481c-0.214-0.822-0.457-1.642-0.354-2.509
	c-2.387-37.842,24.762-67.882,61.397-67.937c35.659-0.054,63.211,30.377,60.917,67.28c-1.039,0.448-2.063,0.407-3.07-0.094
	c-3.63-3.107-6.163-7.27-10.301-9.975c-8.471-5.539-20.897-5.539-28.457,0.45c-0.642,2.306,0.803,4.095,1.686,6.004
	c5.225,11.306,5.851,22.683,0.481,34.108C405.044,334.441,404.552,337.357,401.086,336.895z"/>
<path fill="#7FC3F6" d="M720.889,161.364c0.542-0.265,1.084-0.528,1.626-0.793l-0.056,0.056c0.338-0.39,0.678-0.778,1.016-1.167
	l0.028-0.022c0.337-0.325,0.674-0.65,1.011-0.975l0.225,0.294l-0.213-0.303c0.302-0.337,0.602-0.674,0.9-1.011l0.038-0.012
	c0.364-0.313,0.729-0.626,1.093-0.938l0.008,0.008c0.282-0.28,0.563-0.562,0.847-0.842l0.301-0.353
	c0.029-0.327,0.207-0.471,0.534-0.432c11.011,6.742,13.961,17.241,12.689,29.108c-1.457,13.596-8.483,24.479-20.639,30.354
	c-13.168,6.366-27.14,6.064-39.029-3.479c-6.246-5.015-10.953-11.949-16.354-18.017c9.139-3.381,18.276-6.761,27.415-10.141
	c2.255-1.065,5.154-0.834,6.695-3.333c0.683-0.793,1.362-1.587,2.043-2.38c1.307-0.663,3.013-0.854,3.259-2.77
	C710.67,170.995,714.539,164.581,720.889,161.364z"/>
<path fill="#029CF7" d="M401.086,336.895c9.803-15.092,7.862-30.068-0.844-44.491c10.667-12.849,35.493-7.404,42.979,8.84
	c2.189,1.571,2.129,4.067,2.2,6.274c0.132,4.107,0.347,8.237-0.142,12.347c-2.606,18.901-21.399,26.418-44.25,17.696
	C401.066,337.34,401.085,337.117,401.086,336.895z"/>
<path fill="#0249C7" d="M561.031,621.768c2.765-10.595,5.529-21.188,8.459-32.416c-28.536,0-56.149,0-83.997,0
	c-0.372,1.498-0.722,2.904-1.075,4.306c-0.491-1.575-0.979-3.144-1.466-4.708c29.682,0.001,59.362,0.001,89.546,0.001
	C568.814,599.49,564.923,610.629,561.031,621.768z"/>
<path fill="#0249C7" d="M529.08,711.266c4.012-11.319,7.945-22.668,12.123-33.928c0.59-1.593,2.361-2.749,3.586-4.105
	c-4.77,14.521-9.539,29.041-14.305,43.562C530.02,714.949,529.55,713.107,529.08,711.266z"/>
<path fill="#0249C7" d="M545.064,671.547c4.965-15.511,9.929-31.021,14.893-46.534C554.993,640.523,550.029,656.036,545.064,671.547
	z"/>
<path fill="#5476A5" d="M123.073,508.744c2.094,0.222,4.188,0.443,6.283,0.665c-21.411,0.185-42.824,0.369-64.235,0.554
	C84.438,509.557,103.756,509.15,123.073,508.744z"/>
<path fill="#C2B4A4" d="M454.059,356.917c-15.967-0.01-31.933-0.021-47.896-0.029C422.128,356.896,438.093,356.907,454.059,356.917z
	"/>
<path fill="#C2B4A4" d="M454.706,396.332c-0.206-13.125-0.412-26.25-0.618-39.375C454.294,370.082,454.5,383.207,454.706,396.332z"
	/>
<path fill="#0249C7" d="M445.278,319.863c-0.688-6.209-1.374-12.418-2.06-18.624c0.827,0.196,1.653,0.392,2.479,0.594
	C445.559,307.848,445.418,313.855,445.278,319.863z"/>
<path fill="#C2B4A4" d="M1003.489,751.501c-0.208-1.084-0.416-2.169-0.646-3.364c0.566,0.042,1.029,0.004,1.056,0.09
	c0.287,1.013,0.51,2.043,0.748,3.068C1004.262,751.364,1003.875,751.434,1003.489,751.501z"/>
<path fill="#0249C7" d="M837.167,286.228c0.604-0.447,1.207-0.895,1.812-1.342C838.375,285.333,837.771,285.78,837.167,286.228z"/>
<path fill="#C2B4A4" d="M323.383,302.496c0.118,0.837,0.236,1.673,0.354,2.51C323.619,304.169,323.501,303.333,323.383,302.496z"/>
<path fill="#029CF7" d="M720.889,161.364c-5.297,4.403-10.595,8.808-15.892,13.211c-0.257,0.657-0.583,0.995-1.14,0.242
	C709.534,170.333,715.211,165.849,720.889,161.364z"/>
<path fill="#D8DAEC" d="M699.023,179.367c-2.236,1.113-4.474,2.226-6.703,3.336C694.559,181.589,696.791,180.479,699.023,179.367z"
	/>
<path fill="#2AD0C8" d="M703.857,174.817c0.379-0.078,0.759-0.157,1.139-0.239c-1.311,0.801-2.62,1.605-3.93,2.409
	C701.996,176.264,702.927,175.541,703.857,174.817z"/>
<path fill="#D8DAEC" d="M725.464,157.432c0,0-0.041,0.019-0.039,0.015C725.426,157.443,725.464,157.432,725.464,157.432z"/>
<path fill="#D8DAEC" d="M723.503,159.438c0,0-0.03,0.028-0.028,0.025C723.475,159.46,723.503,159.438,723.503,159.438z"/>
<path fill="#D8DAEC" d="M727.711,155.307l-0.275,0.072c0,0-0.026,0.285-0.026,0.282
	C727.406,155.453,727.506,155.336,727.711,155.307z"/>
<path fill="#D8DAEC" d="M724.525,158.454c0,0-0.016,0.016-0.014,0.012C724.514,158.463,724.525,158.454,724.525,158.454z"/>
<path fill="#D8DAEC" d="M726.564,156.5c0,0-0.015,0-0.012-0.004C726.557,156.492,726.564,156.5,726.564,156.5z"/>
<path fill="#D8DAEC" d="M722.459,160.627c0,0,0.054-0.054,0.055-0.055S722.459,160.627,722.459,160.627z"/>
<path fill="#D8DAEC" d="M1015.002,749.002c-0.082,0.141-0.164,0.279-0.245,0.419c0.08-0.142,0.16-0.282,0.24-0.424L1015.002,749.002
	z"/>
<path fill="#029CF7" d="M760.568,528.154c2.539,1.547,5.401,2.465,6.826,4.427c1.099,1.517,0.995,4.521,0.396,6.558
	c-6.646,22.553-13.491,45.047-20.909,69.633c0.76-0.635-0.343,0.285-0.938,0.781c-5.453,18.883-10.756,37.236-16.152,55.92
	c-2.245-0.347-5.059-0.781-11.141-1.72C732.548,618.797,746.257,574.448,760.568,528.154z"/>
<path fill="#029CF7" d="M732.987,575.018c4.618,4.566-1.087,8.338-1.354,12.604c-0.206-2.21-0.412-4.42-0.617-6.63
	c0.019-0.217,0.037-0.434,0.056-0.65c0.608-1.62,0.071-3.549,1.344-4.99C732.604,575.238,732.795,575.128,732.987,575.018z"/>
<path fill="#029CF7" d="M754.432,679.885c0,2.473,0,4.944,0,7.992c-0.806,0.61-1.951,1.48-3.097,2.344
	C752.367,686.771,753.398,683.328,754.432,679.885z"/>
<path fill="#029CF7" d="M723.172,598.484c1.213-3.739,2.425-7.479,3.637-11.217C725.596,591.009,724.384,594.747,723.172,598.484z"
	/>
<path fill="#029CF7" d="M729.1,580.232c1.213-3.717,2.428-7.434,3.641-11.149c0.082,1.979,0.165,3.957,0.248,5.935l0.025-0.033
	c-1.883,1.604-0.147,4.424-2.023,6.029l0.025-0.021C730.376,580.738,729.738,580.484,729.1,580.232z"/>
<path fill="#029CF7" d="M786.802,577.54c3.573,2.817,0.53,3.506-1.458,4.522C785.831,580.548,786.316,579.044,786.802,577.54z"/>
<path fill="#029CF7" d="M719.102,611.797c0.539-2.1,1.08-4.197,1.618-6.292C720.178,607.605,719.641,609.702,719.102,611.797z"/>
<path fill="#029CF7" d="M750.436,526.249c0,1.831,0,3.663,0,5.494c-0.225,0.013-0.446,0.026-0.672,0.039c0-1.812,0-3.621,0-5.433
	C749.988,526.316,750.211,526.283,750.436,526.249z"/>
<path fill="#029CF7" d="M756.604,673.559c-0.412,1.573-0.825,3.147-1.237,4.715C755.779,676.696,756.191,675.127,756.604,673.559z"
	/>
<path fill="#029CF7" d="M736.941,554.659c0.6-1.913,1.199-3.827,1.8-5.741C738.141,550.831,737.541,552.745,736.941,554.659z"/>
<path fill="#029CF7" d="M746.484,705.821c-0.375,1.495-0.75,2.991-1.123,4.479C745.737,708.803,746.111,707.313,746.484,705.821z"/>
<path fill="#029CF7" d="M742.882,715.736c-0.509,1.677-1.017,3.353-1.521,5.026C741.867,719.087,742.375,717.411,742.882,715.736z"
	/>
<path fill="#029CF7" d="M766.588,640.762c-0.277,1.129-0.558,2.256-0.83,3.374C766.039,643.003,766.313,641.883,766.588,640.762z"/>
<path fill="#029CF7" d="M762.52,654.375c-0.344,1.208-0.686,2.416-1.026,3.611C761.836,656.775,762.178,655.575,762.52,654.375z"/>
<path fill="#029CF7" d="M760.281,661.809c-0.355,0.904-0.709,1.811-1.063,2.711C759.573,663.612,759.927,662.71,760.281,661.809z"/>
<path fill="#029CF7" d="M727.475,584.034c0.336-0.856,0.672-1.713,1.004-2.563C728.141,582.331,727.809,583.184,727.475,584.034z"/>
<path fill="#029CF7" d="M780.666,595.834c-0.375,0.93-0.749,1.857-1.119,2.782C779.922,597.686,780.294,596.76,780.666,595.834z"/>
<path fill="#029CF7" d="M739.641,543.977c0.344-0.801,0.687-1.601,1.023-2.394C740.321,542.386,739.98,543.182,739.641,543.977z"/>
<path fill="#029CF7" d="M750.434,694.073c-0.399,0.853-0.803,1.705-1.201,2.554C749.633,695.773,750.033,694.924,750.434,694.073z"
	/>
<path fill="#029CF7" d="M776.389,610.004c-0.326,0.854-0.654,1.705-0.979,2.553C775.738,611.702,776.063,610.854,776.389,610.004z"
	/>
<path fill="#029CF7" d="M735.53,557.793c0.398-0.918,0.798-1.835,1.194-2.751C736.326,555.96,735.928,556.877,735.53,557.793z"/>
<path fill="#C2B4A4" d="M330.567,321.188c-0.11-3.853-0.22-7.703-0.33-11.558C330.348,313.48,330.458,317.333,330.567,321.188z"/>
<path fill="#03AD81" d="M730.989,581.014c0.675-2.01,1.351-4.02,2.023-6.029C732.34,576.993,731.664,579.004,730.989,581.014z"/>
</svg>
