<?xml version="1.0" encoding="utf-8"?>
<!-- Generator: Adobe Illustrator 16.0.2, SVG Export Plug-In . SVG Version: 6.00 Build 0)  -->
<svg version="1.2" baseProfile="tiny" id="Layer_1" xmlns="http://www.w3.org/2000/svg" xmlns:xlink="http://www.w3.org/1999/xlink"
	 x="0px" y="0px" width="1846px" height="1248px" viewBox="0 0 1846 1248" xml:space="preserve">
<g>
	<path fill="#529281" d="M1825.446,851.531c-2.384-0.275-2.623-2.582-3.226-4.043c-4.91-11.937-11.517-23.066-16.246-35.109
		c-2.907-7.406-7.105-14.314-10.873-21.367c-0.881-1.647-1.922-3.109-1.506-5.082c3.235-1.346,2.724-4.305,2.736-6.846
		c0.16-31.244,0.104-62.49,0.126-93.734c0.001-1.994-0.028-4,0.713-5.906c0.583-1.229,1.413-2.135,3.043-2.155
		c2.186,0.514,3.783,2.082,5.329,3.725c0.289,6.14,3.422,11.287,6.15,16.478c5.139,9.771,9.648,19.809,13.752,30.043
		C1825.446,768.865,1825.446,810.199,1825.446,851.531z"/>
	<path fill="#4D9481" d="M1798.693,583.68c0.439,1.205,0.882,2.411,1.392,3.811c8.843,0.517,16.578-5.313,25.36-3.958
		c0,28,0,56,0,84c-0.495,0.438-0.973,1.059-1.588,1.155c-8.131,1.289-16.276,1.314-23.932,0.789
		c-1.984-2.291-2.525-4.373-3.142-6.43c-0.811-15.4-0.198-30.813-0.38-46.218c1.162-9.074,0.371-18.189,0.58-27.283
		C1797.034,587.479,1796.43,585.136,1798.693,583.68z"/>
	<path fill="#B3A696" d="M1825.446,727.531c-4.205-3.83-5.575-9.234-7.905-14.121c-4.468-9.369-9.064-18.676-14.063-28.939
		c-0.151-0.68,1.406-1.611,1.869-2.986c5.213-3.725,14.813-4.18,20.099-0.952C1825.446,696.199,1825.446,711.865,1825.446,727.531z"
		/>
	<path fill="#134A3C" d="M1825.446,680.531c-6.699,0.318-13.398,0.635-20.099,0.953c-1.638-0.172-3.279-0.25-4.015-2.181
		c-0.519-1.354-1.574-1.512-2.801-0.887c-1.624-4.955-3.582-9.908,0.014-14.856c0.417,1.397,0.834,2.799,1.185,3.971
		c8.619,0,17.168,0,25.715,0C1825.446,671.865,1825.446,676.199,1825.446,680.531z"/>
	<path fill="#342B28" d="M575.465,575.47c-17.798-6.491-35.292-13.713-52.645-21.321c-22.401-9.823-44.202-20.868-65.81-32.264
		c-23.801-12.552-47.094-26.066-69.448-41.066c-36.972-24.812-73.803-49.934-106.853-79.9
		c-36.103-32.735-68.386-68.91-95.255-109.81c-16.597-25.263-31.21-51.576-44.769-78.532c-0.608-1.209-1.262-2.311-0.738-4.765
		c123.621-31.505,247.675-63.121,372.851-95.022c-5.656,11.737-10.999,22.003-15.083,32.868
		c-15.14,40.269-23.842,81.675-22.175,124.885c1.193,30.942,6.295,61.155,17.499,90.21c11.418,29.612,27.485,56.263,48.72,79.924
		c14.491,16.146,29.246,32.027,46.5,45.196c20.34,15.524,41.771,29.438,64.444,41.466c25.164,13.35,50.673,25.848,77.93,34.319
		c19.343,6.011,38.664,12.18,58.623,15.965c7.886-1.108,15.291,1.929,22.607,3.629c18.416,4.282,37.036,7.123,55.696,9.646
		c22.23,3.007,44.45,6.217,66.864,7.813c6.129,0.438,12.292,0.538,18.406,1.293c3.052,0.844,6.147,1.191,9.317,1.049
		c9.73-0.438,19.449-0.418,29.125,0.937c1.33,0.187,2.632-0.161,3.938-0.361c2.849-0.185,5.688-0.166,8.515,0.312
		c3.545,1.069,7.179,1.146,10.85,1.127c10.801-0.061,21.602-0.069,32.4,0.006c3.514,0.023,6.965-0.18,10.346-1.182
		c5.703-0.68,11.428-0.317,17.146-0.353c9.251,0.954,18.527,0.932,27.73-0.193c6.944-0.85,13.849-1.082,20.789-0.534
		c1.736,0.135,3.244-0.521,4.859-0.777c1.82-0.346,3.654-0.508,5.507-0.362c3.822,0.754,7.581,0.427,11.288-0.711
		c15.247-1.394,30.578-1.633,45.798-3.283c2.611-0.706,2.739-3.141,3.4-5.104c5.39-15.998,12.3-31.24,22.127-45.056
		c0.386-0.543,0.723-1.121,1.13-1.646c4.605-5.954,9.124-5.294,12.046,1.763c1.979,3.64,2.394,7.631,2.304,11.619
		c-0.623,27.619,0.938,55.209,1.32,82.812c0.217,15.613,0.082,31.265,0.826,46.867c1.309,27.41,1.982,54.826,1.938,82.267
		c-0.006,4.338-0.646,8.618-0.625,12.936c-0.115,3.916-2.459,6.822-4.492,9.869c-1.01,1.201-2.26,1.908-4.614,1.896
		c-5.178-4.565-9.38-10.479-12.864-16.891c-11.914-21.918-20.371-45.146-25.988-69.428c-0.16-0.744-0.513-1.426-0.729-2.15
		c-1.464-3.613,0.44-7.567-1.155-11.172c-0.289-1.314-0.421-2.641-0.299-3.984c0.612-2.795-0.186-5.44-0.865-8.1
		c-2.523-21.34-0.427-42.547,2.668-64.359c-16.396,0.634-31.574,4.364-47.026,5.563c-5.65-0.03-11.075,1.626-16.651,2.223
		c-10.021,1.069-20.064,1.987-30.05,3.387c-1.446,0.299-2.906,0.438-4.384,0.332c-2.949-0.76-5.738,0.137-8.547,0.854
		c-21.869,2.463-43.77,4.498-65.765,5.511c-4.944,0.227-9.862,1.139-14.852,0.815c-3.466-0.656-6.787-0.295-10.273,0.465
		c-5.67,1.234-11.512,0.631-17.295,0.361c-7.252-0.341-14.526-1.015-21.711,0.717c-14.795,0.578-29.58,0.933-44.389-0.262
		c-8.94-0.72-17.938-0.65-26.913-1.132c-19.273-1.03-38.467-2.846-57.672-4.649c-33.166-3.119-65.832-9.587-98.651-14.942
		c-14.881-2.428-29.735-5.445-44.424-9.231c-9.771-2.52-19.625-4.869-29.353-7.554c-17.078-4.711-34.318-9.052-50.853-15.438
		C590.273,581.939,582.068,580.525,575.465,575.47z"/>
	<path fill="#241F21" d="M778.525,202.753c9.871-2.246,19.731-4.54,29.615-6.729c47.246-10.461,94.561-20.596,142.068-29.82
		c25.787-5.007,51.494-10.43,77.236-15.664c10.65-0.69,20.961-3.455,31.386-5.408c36.933-6.917,73.884-13.637,111.146-18.613
		c31.855-4.255,63.771-7.426,95.938-7.731c18.48-0.175,36.91,1.069,55.357,1.83c5.211,0.253,10.383,0.995,15.604,1.184
		c2.909,0.104,5.635,1.495,8.568,1.689c0.588,0.055,1.175,0.108,1.762,0.162c9.229,1.198,18.49,2.247,27.336,5.375
		c1.051,0.372,2.262,0.657,2.725,1.924c0.847,0.908,1.97,0.604,3.004,0.682c9.818,4.758,19.953,8.916,28.785,15.521
		c28.629,21.402,42.09,49.631,38.74,85.529c-2.59,27.745-10.361,54.406-16.824,81.342c-5.149,21.467-10.223,42.934-13.729,64.763
		c-3.936,24.483-3.391,48.449,7.229,71.303c6.594,14.197,16.088,26.318,28.564,35.97c8.818,6.822,18.125,12.856,28.182,17.711
		c0.967,0.468,2.182,0.766,2.852,2.527c-10.139,1.102-19.994,1.083-29.882,0.727c-27.497-0.991-54.729-4.229-81.743-9.389
		c-0.639-0.122-1.321-0.005-1.984,0.001c-2.271,1.271-4.531,0.328-6.801-0.02c-8.057-1.235-15.814-3.834-23.857-5.146
		c-2.102-0.343-4.266-0.926-5.463-3.04c1.898-3.858,5.426-4.015,8.9-3.494c2.572,0.385,4.877,0.623,7.152-0.931
		c1.934-1.317,3.785-1.069,5.01,0.933c3.574-1.739,3.772-6.031,6.764-7.927c3.489,3.059,4.604,7.496,2.938,11.272
		c0.037,0.617,0.658,0.996,0.973,0.947c6.135-0.957,11.266,2.69,16.875,3.979c7.451,1.711,14.898,2.628,22.396,3.766
		c5.918,0.896,11.578-0.004,17.342,0.232c0.324,0.014,0.721-0.252,0.977-0.139c8.166,3.625,16.512-2.955,24.691,0.43
		c0.621,0.257,1.23-0.362,2.05-1.114c0.604-3.475-1.491-5.958-4.021-8.192c-1.244-1.104-2.709-1.961-4.146-2.779
		c-10.236-5.83-14.641-16.338-20.604-25.587c-0.715-1.108-0.881-2.649-1.78-3.558c-4.627-4.672-5.825-10.551-6.351-16.757
		c-0.227-2.663-2.136-4.362-3.897-6.191c-2.334-2.423-5.41-4.47-5.581-8.199c1.443-1.762,3.441-0.494,5.15-1.706
		c-1.364-5.199-0.327-10.973-3.866-15.987c-2.131-3.019,1.125-5.544,2.065-8.563c-0.412-5.959-2.189-12.411,2.902-17.931
		c-1.18-3.851-0.549-7.375,1.591-10.867c1.484-2.424,1.423-5.366,1.149-8.271c-0.658-6.958-0.418-13.535,3.469-20.042
		c3.004-5.028,2.975-11.444,2.998-17.371c0.014-3.649,0.027-7.288,0.104-10.389c0.705-2.181,2.638-2.136,3.642-3.426
		c0.837-2.22,1.452-4.648,2.796-7.468c-3.123-5.019,0.444-8.234,3.848-10.813c1.299-3.388-1.271-5.685-0.78-8.381
		c0.446-1.965,2.485-2.611,3.364-3.915c1.422-7.921,3.539-15.435,3.879-23.327c0.27-6.268,4.88-11.691,4.174-18.33
		c-0.174-1.627,0.376-3.407-0.329-4.936c-1.849-3.998-1.552-7.744,1.01-11.25c-1.246-6.048-0.028-12.085-1.067-18.029
		c-0.353-2.011-0.59-3.892-2.074-5.454c-4.938-5.2-4.917-5.219-4.342-11.65c-4.969-8.533-11.752-14.938-19.197-19.567
		c-1.299-2.545-0.321-4.351-0.365-6.255c-1.361-4.555-6.229-5.084-8.873-7.701c-2.229-0.615-3.092,1.783-4.905,1.468
		c-2.61-0.5-1.642-3.347-3.081-4.777c-2.033,0.756-2.094,3.958-5.395,3.878c-5.5-2.451-0.403-7.517-2.123-11.815
		c-7.971-1.092-17.035-0.049-23.354-6.348c-4.724-0.552-8.444,3.999-12.545,1.422c-1.292-1.81-0.098-3.314-0.502-5.027
		c-4.067-1.56-8.254-1.688-13.166-0.323c3.134,0.894,5.948,1.645,4.55,5.716c-4.148,1.524-8.277,1.063-12.101-0.594
		c-2.976,0.085-5.226,2.063-7.944,1.845c-4.224-2.971-4.313-3.642-1.304-9.52c-0.604-1.716-1.91-2.076-3.524-1.817
		c-1.391,0.752-2.459,1.881-3.271,3.089c-2.632,3.915-5.479,6.74-10.92,6.247c-2.813-0.255-4.94,2.492-6.447,4.975
		c-2.497,4.117-6.535,6.37-10.053,9.22c-3.626-2.04-4.925-4.951-2.449-7.553c2.709-2.846,3.914-6.025,4.738-9.593
		c0.842-1.872,3.712-0.935,4.539-3.957c-2.603,3.213-4.117,0.571-5.968-0.104c-1.733-0.085-2.852,1.803-4.494,1.479
		c-2.063-0.146-3.443-1.607-5.504-2.072c-6.307,0.209-9.696,8.266-16.705,6.202c-1.097,3.382,2.258,5.097,1.189,8.181
		c-2.539,4.544-6.536-2.462-9.477,0.597c-1.224,1.3-0.248,3.313-1.717,4.829c-8.431,6.079-12.447,6.161-18.468,0.032
		c1.029-7.325,8.604,0.031,10.722-4.831c1.387-4.168,4.075-7.38,8.327-9.265c-2.198,1.07-4.53,1.792-6.461,3.17
		c-1.149,1.84-0.356,4.074-1.559,5.909c-2.813,2.979-5.677,0.863-8.324-0.295c-2.224,1.419-2.151,3.966-3.576,5.656
		c-3.124,2.023-5.92,1.554-8.429-1.092c-1.154-1.38-0.346-3.122-0.821-5.173c-2.26,11.591-2.26,11.591-12.954,7.085
		c-0.693,8.555-0.693,8.555-2.923,10.846c-2.821-3.98-8.26-5.785-8.461-11.663c0.526-2.229,3.81-2.944,2.644-6.001
		c-3.961-0.126-7.679,0.85-11.92,3.326c2.281-0.655,3.799-0.766,5.271-0.203c2.022,0.774,3.479,2.103,3.493,4.388
		c0.012,2.079-1.323,3.359-3.146,4.094c-2.815,1.136-5.813,1.396-8.803,1.68c-1.251,0.119-2.785-0.412-3.433,1.802
		c4.136,1.57,8.703,2.252,12.373,4.437c-0.526,10.394-1.338,11.187-13.051,13.555c3.543,0.305,7.166,0.611,10.283-1.548
		c1.955-1.354,3.752-2.198,5.938-0.85c2.101,1.298,2.634,3.307,2.34,5.638c-0.104,0.826-0.187,1.657-0.057,2.492
		c0.413,1.617,1.866,2.791,1.937,4.55c0.215,2.735-2.122,3.987-3.703,6.232c6.06,2.502,7.791,7.928,8.894,13.613
		c0.369,1.9-0.715,3.513-3.461,4.658c-2.148-5.34-8.736-5.388-11.88-10.24c-3.108-4.802-1.957-10.294-3.003-15.316
		c-2.339-0.348-3.479,0.74-4.428,2.142c-0.036,1.649,1.689,2.551,1.58,4.104c0.236,2.892-2.292,4.345-3.309,6.521
		c0.056,1.663,0.865,2.874,2.002,3.97c2.09,0.241,3.299-2.416,6.369-1.412c2.035,3.464,5.325,7.071,5.784,12.071
		c0.419,4.563-1.896,6.369-6.716,5.622c-1.593-1.032-1.359-3.002-2.484-4.583c-3.524-0.347-6.135-2.13-7.944-5.6
		c-2.3-4.405-7.097-5.154-11.337-6.577c-1.413-0.05-2.579,0.52-3.623,1.387c-0.969,1.447-0.51,2.887-0.032,4.427
		c0.432-1.615-0.025-3.426,1.703-4.809c3.124-1.389,5.049,0.571,6.651,3.126c2.498,3.981,3.494,8.634,5.61,12.792
		c0.224,0.438,0.446,1.107,0.228,1.448c-3.912,6.082,0.137,11.785,1.146,18.596c0.201,0.525,1.604,1.246,2.454,2.476
		c2.271-0.445,3.4-2.173,4.843-3.328c0.265-1.587-1.685-2.2-1.356-3.688c0.682-4.232,5.675-6.735,4.43-11.516
		c2.204-2.461,4.693-3.979,7.66-2.878c3.154,1.172,3.462,4.172,3.178,8.085c2.229-3.965,5.337-4.943,8.994-5.009
		c-2.867-1.694-6.889-1.545-7.541-6.1c0.77-3.325,2.906-5.532,6.193-6.248c3.242,0.348,3.771,3.572,5.991,4.61
		c1.688,0.104,1.788-1.195,2.287-2.208c-1.563-2.777-4.653-3.805-6.485-5.968c2.183-5.937,12.639-7.646,17.891-3.142
		c0.672,2.969-3.23,4.258-2.68,7.173c7.987,5.073,8.116,5.278,6.334,10.099c-2.724,0.439-2.724,0.439-6.605-1.74
		c-2.407,2.011-3.406,4.451-3.287,7.736c0.223,6.142-1.654,8.098-7.602,8.281c-1.7,0.053-2.846,0.426-3.611,1.903
		c-0.82,1.681-2.788,2.094-4.02,3.335c0.938,1.507,2.67,1.568,3.746,2.972c-0.074-2.338-1.091-4.508,0.354-6.479
		c2.157-1.166,2.946,0.673,3.948,1.871c1.596,1.908,2.845,4.072,4.145,6.049c1.676,0.897,3.242,1.042,5.145,0.282
		c-3.676-8.174,4.437-10.507,6.88-14.545c2.842-3.699-0.806-6.548,0.698-9.425c2.121-2.125,1.572-4.477,0.334-6.292
		c1.017-2.876,2.687-4.021,5.287-4.394c2.812,1.751,6.058,2.833,9.441,2.794c2.559,5.716-4.537,5.872-4.516,11.483
		c1.043,3.045-1.936,6.317-5.229,9.79c5.12,2.224,8.465,6.606,13.746,7.217c1.877-0.5,3.049-1.601,3.809-3.016
		c0.58-1.632-0.404-3.086,0.032-5.023c1.655-2.299,2.253-5.71,4.731-8.355c6.115,1.766,1.246,6.61,3.146,10.046
		c2.999,1.902,8.7,2.833,6.266,8.61c4.063-2.129,8.968-3.268,13.877-3.063c4.25,0.177,5.523,4.268,2.904,7.725
		c-1.162,1.534-3.158,2.437-3.777,4.815c2.863,0.813,5.762,0.639,8.231,2.234c2.161,1.396,4.741,2.496,3.636,5.631
		c-1.164,3.302-3.813,3.173-7.638,1.5c4.05,3.137,8.335,0.838,11.582,3.717c2.935,2.604,3.107,7.084,6.692,8.936
		c7.999-4.646,10.48-4.168,13.222,2.438c-0.346,3.455-3.706,3.917-5.843,5.743c6.473-1.447,7.146-0.888,8.866,5.111
		c1.171,4.083,1.844,8.069,0.545,12.003c3.632,4.199,10.737,4.979,10.735,12.367c1.172,0.631,3.129-0.851,4.356,0.973
		c1.562,3.269,0.319,5.389-3.144,6.073c-2.506,0.495-4.873,1.04-6.748,2.989c-0.351,2.052,2.214,2.854,2.096,5.286
		c-3.441,3.229,0.627,9.518-4.477,12.303c-0.226,5.21,0.313,9.672,4.553,12.945c1.404,1.084,1.764,2.797,0.521,4.371
		c-1.974,1.692-3.879-0.102-6.812,0.114c1.474,6.2-3.983,10.172-5.235,15.105c0.279,2.313,1.658,3.217,2.34,4.528
		c1.163,2.241,0.959,4.569-1.309,5.622c-3.013,1.398-5.66,3.46-8.796,4.571c-5.502,1.952-9.678,5.007-10.193,11.45
		c-0.295,3.68-3.044,5.762-5.542,7.729c-1.088,1.416-0.426,3.112-1.226,4.426c-0.84,1.467-2.771,1.021-3.895,2.245
		c-0.895,2.509,0.648,4.366,1.971,6.254c1.297,1.853,2.332,3.678,0.512,6.083c-3.99-0.534-8.1-1.538-12.222,0.249
		c-2.497,3.065-3.63,6.265-2.034,10.473c2.601,6.863,1.074,8.505-6.092,7.368c-0.494-0.079-0.994-0.078-1.889,0.34
		c-1.358,1.897-2.578,4.424-4.906,6.303c1.912,0.959,3.619,0.786,4.859,1.243c2.277-0.302,3.672-2.496,6.172-1.495
		c1.837,1.176,1.945,3.447,2.589,5.48c0.646,2.046-1.408,4.232,0.494,6.372c3.313-3.912,7.813-6.538,10.712-11.015
		c0.702-3.099-1.246-7.591,4.088-8.918c3.757,1.534,4.473,4.437,3.588,8.077c-0.683,0.651-1.232,1.401-1.639,2.257
		c0.536-0.726,0.846-1.615,1.588-2.189c4.832,0.188,9.438,0.842,12.834,6.385c-6.947,2.6-12.982,5.964-21.098,4.841
		c2.776,3.728,6.19,3.688,8.842,4.556c2.039-0.734,2.713-2.592,4.654-3.084c10.885-0.309,12.055,0.316,11.735,6.414
		c-2.553,2.584-6.147-0.954-8.72,1.242c-0.115,1.67,0.896,1.883,1.928,1.914c9.124,0.28,16.073,5.623,23.359,10.114
		c1.275,0.787,2.908,1.872,2.154,3.989c-2.146,1.801-4.502,0.896-6.672,0.297c-25.92-7.153-51.033-16.453-75.113-28.464
		c-2.637-1.315-3.114-1.86-5.329-5.563c14.091-17.28,29.061-34.376,41.267-53.542c11.521-16.423,21.797-33.485,27.335-52.988
		c7.913-27.857,0.534-54.964-23.041-73.211c-14.063-10.885-30.241-16.265-47.935-18c-20.514-2.012-40.476,1.268-60.426,5.051
		c-7.175,1.36-14.357,2.769-21.432,4.631c-3.438,1.104-6.799,2.476-10.376,3.116c-5.673,1.142-11.231,2.689-16.662,4.693
		c-0.467,0.195-0.954,0.311-1.453,0.371c-6.722,1.401-13.146,3.698-19.407,6.476c-0.437,0.221-0.897,0.371-1.369,0.489
		c-3.713,0.734-7.256,1.973-10.655,3.631c-1.052,0.446-2.117,0.861-3.212,1.193c-3.133,0.972-6.317,1.803-9.236,3.363
		c-0.375,0.231-0.771,0.414-1.179,0.579c-1.427,0.523-2.849,1.057-4.256,1.635c-0.396,0.196-0.813,0.336-1.236,0.455
		c-2.437,0.463-4.453,1.842-6.569,3.01c-4.039,1.899-8.134,3.662-12.412,4.96c-1.877,0.11-3.527,0.814-5.021,1.934
		c-1.639,0.91-3.365,1.613-5.154,2.17c-2.461,0.652-4.908,1.337-7.015,2.865c-3.094,1.811-6.401,3.104-9.839,4.086
		c-2.496,0.574-4.893,1.412-7.084,2.771c-1.706,0.791-3.383,1.653-5.169,2.269c-2.554,0.675-5.017,1.569-7.261,3.006
		c-37.688,16.051-74.741,33.46-111.478,51.572c-21.04,10.372-42.599,19.659-63.66,30c-1.792,0.881-3.73,1.529-6.172,0.22
		c-26.809-63.923-52.288-128.785-78.624-192.583c1.073-2.755,3.018-1.723,4.229-2.464
		C768.138,205.887,773.422,204.685,778.525,202.753z"/>
	<path fill="#8EC9AD" d="M113.377,743.613c2.046,0.393,2.639,3.039,6.036,3.25c0.745-34.152,1.488-68.238,2.241-102.756
		c10.328-1.41,20.098-0.092,29.802-0.588c66.995,7.883,134.296,12.791,201.729,20.764c-17.354,19.453-37.355,35.973-55.278,54.52
		c4.877,7.924,12.654,11.291,17.328,17.689c-2.06,1.521-3.714-0.412-5.569-0.619c-9.211-1.029-18.43-0.201-27.32-0.637
		c-2.188,3.572-1.452,7.164-2.883,10.172c-2.16,3.262-5.402,5.359-8.452,7.621c-7.47,5.539-14.913,11.112-22.02,17.112
		c-1.855,1.566-3.827,3.117-5.501,6.357c8.524,0.336,16.333,0.521,24.197-0.258c4.002-0.398,8.291-1.806,11.758,1.78
		c1.288,2.429,1.531,5.095,1.36,7.717c-0.662,10.22-0.185,20.447-0.374,30.668c-0.046,2.457,0.146,5.021-2.071,6.832
		c-1.525-1.522-0.891-3.469-0.896-5.223c-0.031-10.826,0.061-21.65,0.055-32.477c-0.001-1.785,0.411-3.666-0.9-5.695
		c-14.05,0-28.297,0-42.735,0c-10.722,9.469-22.926,17.289-33.741,27.613c0,8.646,0,17.408,0,26.617
		c-22.003,1.723-43.524,1.438-65.266,1.571c-2.839,7.703-0.082,15.55-2.11,23.298c-4.094,0.526-8.05,1.575-12.021-0.396
		c2.295-2.854,6.105-1.094,9.014-2.986c1.47-4.024,0.651-8.383,0.758-12.643c0.219-8.74,1.569-10.466,10.196-10.226
		c16.989,0.474,33.915-1.338,50.89-1.104c1.484,0.021,3.013,0.084,4.986-1.039c1.911-5.342,0.64-11.254,0.849-17.385
		c-3.186-0.017-4.705,2.235-6.688,3.491c-4.602,2.916-7.514,3.099-11.071-0.969c-10.098-11.541-21.582-21.721-31.882-33.061
		c-7.267-8-15.042-15.537-22.171-23.676c-0.646-0.738-1.396-1.396-2.18-1.654c-0.561,0.207-0.852,0.428-0.868,0.771
		c-0.713,14.78,0.072,29.551,0.448,44.319c0.296,11.646,0.855,23.291-0.326,34.912c-0.49,4.824-0.202,9.646-0.38,14.465
		c-0.085,2.302,0.173,4.732-1.898,6.463c-1.701-1.448-0.986-3.418-0.952-5.141c0.205-10.445,1.207-20.924,0.677-31.326
		c-1.083-21.252-0.318-42.498-0.732-63.742c-0.025-1.268,0.33-2.666-0.765-3.84c-2.172-0.319-3,2.623-5.198,2.238
		c-0.896-2.482,1.907-3.666,2.015-5.789C115.593,748.049,111.486,746.73,113.377,743.613z"/>
	<path fill="#85C7AB" d="M441.366,669.574c1.875,0.598,3.789,1.801,5.621,1.688c9.146-0.568,17.997,2.049,27.051,2.203
		c15.397,0.26,30.617,2.896,45.992,3.418c10.892,0.369,21.8,0.391,32.642,1.684c0.955,0.113,1.877,0.505,2.815,0.767
		c-1.55,2.328-4.03,2.125-6.308,2.135c-6.488,0.029-12.998,0.453-19.432-0.907c-1.271-0.271-2.63-0.502-4.872,0.305
		c-0.894,16-1.039,32.463-2.133,49.1c-11.968,2.137-23.224-0.174-34.986,2.545c1.207,10.955,2.369,21.896,0.903,32.668
		c5.396,1.674,10.63-1.565,14.708,2.424c-5.081,2.229-10.701,1.375-16.685,2.695c-1.695,16.57-8.41,31.564-16.399,47.455
		c13.396-1.408,25.321-4.787,37.633-6.268c-3.55,2.237-7.121,4.242-11.34,4.744c-2.692-1.197-5.301,0.082-7.669,0.784
		c-13.687,4.056-27.725,6.544-41.588,9.798c-8.724,2.049-17.542,3.633-26.25,5.735c-2.253,0.545-4.606,1.152-6.418-1.104
		c7.272-3.512,15.326-3.954,23.022-5.778c7.732-1.836,15.572-3.217,23.345-4.888c1.709-0.366,3.765-0.256,4.868-2.696
		c-1.471-2.979-2.736-6.422-4.717-9.388c-6.181-9.26-8.604-19.909-11.551-30.348c-0.711-2.52-1.479-4.322-4.125-4.898
		c-0.59-11.424,0.009-22.84,0.25-34.26c0.031-1.475,0.604-2.955-0.313-5.088c-5.984-1.897-12.547-1.877-19.061-1.182
		c-6.64,0.709-13.242-1.117-19.866,0.068c-1.115,0.2-2.271-0.433-2.965-1.519c4.524-4.752,10.555-8.037,14.448-14.879
		c-19.166-16.793-39.216-32.693-57.607-51.672c5.462-2.103,9.482-1.078,13.498-0.408c9.012,1.5,18.21,2.031,27.229,2.479
		C414.544,667.654,427.866,670.176,441.366,669.574z"/>
	<path fill="#376D58" d="M278.362,823.24c-0.542-15.258,1.281-30.523-0.093-45.779c-1.073-1.131-1.745-2.518-1.645-4.031
		c0.569-8.537,0.099-17.104,0.79-25.637c0.065-0.811,0.575-1.539,1.04-2.229c0.224-3.603,0.447-7.203,0.727-11.699
		c10.286,0,20.669,0,31.052,0c2.036,0.035,2.827,2.496,5.006,2.629c13.394,11.756,26.789,23.514,40.184,35.273
		c4.235,2.024,4.143,5.545,2.319,8.823c-1.655,2.979-1.768,5.937-1.819,9.101c-0.169,10.467,0.486,20.942-0.354,31.401
		c-1.587,1.107-3.47,1.136-5.249,1.175c-23.174,0.512-46.351,0.954-69.526,1.389C279.985,823.67,279.172,823.387,278.362,823.24z"/>
	<path fill="#8EC9AF" d="M324.324,734.406c-5.645-5.021-12.542-8.814-16.651-16.557c15.24-15.813,31.981-29.543,47.012-44.58
		c3.865-0.261,6.412,1.159,8.878,3.444c6.204,5.75,12.358,11.613,19.048,16.763c8.207,6.313,14.841,14.289,22.922,20.692
		c1.042,0.824,1.935,1.867,1.802,3.808c-1.22,2.846-4.209,4.534-6.548,6.823c-5.145,5.035-10.25,10.113-15.37,15.177
		c-1.663,1.645-3.315,3.305-5.81,3.606c-1.304-4.203,3.837-5.459,4.269-9.726C363.917,732.633,344.119,733.957,324.324,734.406z"/>
	<path fill="#409F84" d="M355.567,821.094c0.332-15.092-1.413-30.258,1.649-45.709c-0.477-0.961-1.136-2.291-1.795-3.619
		c6.384-0.412,9.429-5.858,13.499-9.442c11.598-10.216,22.74-20.945,34.618-30.854c7.996-1.75,16.082,0.086,24.161-0.666
		c6.563-0.609,13.418-0.646,19.603,1.256c1.978,2.877,0.286,5.26,0.251,7.658c-0.122,8.426-0.162,16.855-0.148,25.283
		c0.004,2.988,0.421,6.014-1.912,8.447c-29.231,2.994-58.464,5.99-87.396,8.955c-1.872,1.94-1.447,4.026-1.461,5.983
		c-0.068,9.162-0.041,18.324-0.165,27.484C356.447,817.617,357.059,819.564,355.567,821.094z"/>
	<path fill="#308F72" d="M324.324,734.406c-0.37-2.365,1.416-1.699,2.573-1.773c18.274-1.197,36.579-0.912,54.874-1.07
		c2.012-0.018,4.032-0.014,5.509,2.205c-0.992,4.379-5.994,5.863-7.673,9.818c-7.423,6.061-13.968,13.162-22.469,19.125
		C344.973,754.762,335.514,743.543,324.324,734.406z"/>
	<path fill="#689E8D" d="M1468.441,575.511c0.308-0.067,0.615-0.071,0.925-0.016c3.45-0.489,3.45-0.489,7.024,0.595
		c1.474-0.543,2.55-1.845,4.028-2.476c0.663-0.035,1.325-0.07,1.989-0.105c1.512-1.06,3.363,0.017,4.917-0.78
		c9.762-0.569,19.408-2.132,28.962-4.037c6.752-1.346,13.587-0.786,20.334-1.935c7.809-1.328,15.706-2.31,23.605-2.896
		c12.406-0.92,24.517-4.17,37.012-4.36c5.804-0.089,11.557-1.382,17.243-2.283c18.022-2.856,36.21-4.405,54.243-7.209
		c7.455-1.159,15.002-3.034,22.709-2.622c9.354-1.127,18.687-2.479,28.063-3.324c13.781-1.244,27.313-4.584,41.349-4.892
		c4.68,3.5,1.151,7.781,1.867,11.896c-12.188,1.148-23.396,4.209-35.005,4.82c-1.971,3.313-1.606,6.456-0.252,9.633
		c0.615,0.674,0.503,1.319-0.071,1.948c-1.533,4.699-1.548,9.396,0.039,14.085v-0.011c0,7.06,0,14.117,0,21.596
		c9.484-0.928,17.608-3.104,25.803-4.806c2.738-0.568,6.211,0.497,8.039-2.813c0.474,0.254,0.806,0.635,1,1.137
		c0.222,0.747,0.215,1.494,0.013,2.242c-1.849,4.219-5.3,5.797-9.662,5.608c-3.716-0.159-7.29,0.634-10.892,1.28
		c-2.511,0.451-4.713,1.348-6.342,3.563c-2.101,2.857-5.238,3.123-7.298,0.616c-4.479-5.452-10.606-6.372-16.854-7.366
		c-1.043,0.284-1.745,1.063-2.188,1.933c-3.915,7.688-11.574,10.196-18.684,13.306c-4.143,1.811-13.807-2.872-15.459-7.4
		c-1.298-3.557-2.641-7.75-2.037-11.097c0.904-5.013,0.811-9.758,0.307-14.661c-0.062-0.604,0.478-1.218,0.213-2.001
		c1.293,6.261-2.09,10.643-5.537,14.306c-0.36,1.451-0.438,2.291-0.211,3.104c1.144,4.094-0.338,6.762-4.271,8.262
		c-3.025,1.154-5.467,3.141-7.438,5.679c-1.062,3.103,0.098,6.833-3.316,9.901c-5.46-1.117-10.342,3.695-16.32,3.082
		c-6.039-0.617-10.217-5.283-15.24-7.562c-0.468,0.146-0.705,0.146-0.766,0.251c-5.453,9.275-14.982,12.727-24.041,16.855
		c-1.066,0.484-2.238,1.297-3.305,0.941c-5.902-1.969-12.075-3.51-17.434-6.549c-2.506-1.42-4.82-3.865-7.931-5.867
		c3.406-6.936,4.207-13.504-4.045-17.285c-0.629-2.729,1.717-3.307,2.653-4.836c-0.311-1.668-2.432-2.294-2.42-3.961
		c-1.01-2.83,2.551-4.473,1.254-7.975c-5.877-0.582-11.908,1.442-18.03,0.968c-1.86,3.323-4.642,5.063-7.554,6.372
		c-0.319,6.54-0.356,12.805-1.857,19.006c-1.021,4.222-0.042,8.628,0.548,12.902c0.991,7.178-1.85,10.717-9.126,10.946
		c-4.161,0.134-8.338-0.223-12.484,0.275c-2.302,0.276-4.633,0.563-6.627,1.789c-1.691,2.541-1.318,6.676-5.533,6.873
		c-3.166-0.402-3.396-4.183-6.514-5.078c-5.402,2.604-12.755,0.121-17.636,5.461c1.119,6.848,3.384,12.61,8.722,17.416
		c4.08,3.674,5.138,9.414,5.529,14.437c-1.261,2.104-2.615,2.413-4.236,2.047c-2.623-1.156-3.47-3.537-4.162-6.023
		c0.125-2.271-0.797-3.979-2.803-5.096c-6.775-8.531-10.75-18.732-16.578-27.834c-0.809-1.263-1.183-2.838,0.535-3.949
		c3.799-1.404,7.81-1.561,11.769-1.951c2.345-0.23,4.626-0.457,6.944-2.219c1.106-4.959,0.295-10.295,0.553-15.566
		c0.136-2.791-0.396-5.714,1.557-8.16c0.475-0.381,1-0.461,1.568-0.248c1.891,1.817,1.719,4.227,1.775,6.528
		c0.106,4.488-0.033,8.979,0.075,13.468c0.048,1.936-0.34,4.147,2.25,4.944c2.718,0.152,5.802,2.869,7.865-1.201
		c0.414-6.135-1.502-12.421,1.338-18.354c3.647-0.783,3.015,2.252,3.274,4.02c0.574,3.916-0.08,7.943,0.646,12.52
		c7.534,0.629,14.408-2.674,21.072-1.951c2.02-2.596,1.561-4.844,1.573-6.957c0.067-11.49-0.034-22.98,0.056-34.469
		c0.063-8.065,1.971-10.116,10.008-10.269c9.979-0.188,19.963-0.384,29.918,0.894c5.891,0.755,7.661,2.199,7.846,8.146
		c0.317,10.313,1.589,20.563,1.813,30.877c0.036,1.631,0.079,3.348,0.997,4.68c0.312,0.383,0.576,0.705,0.88,0.698
		c7.432-0.153,14.745-1.61,22.163-2.006c2.078-0.11,3.274-2.133,4.276-3.903c2.464-4.355,4.399-8.953,6.193-13.612
		c1.096-2.845,2.335-5.544,6.02-6.692c8.707,2.795,8.177,13.493,14.734,18.242c9.515,1.621,12.217,0.012,16.332-8.607
		c5.736-12.011,12.08-23.727,17.592-35.849c1.337-2.937,4.718-4.739,4.914-8.356c-5.078-1.512-157.311,16.902-166.61,20.037
		c-1.539,1.633-1.146,3.723-1.177,5.674c-0.102,6.492,0.048,12.988-0.084,19.48c-0.047,2.284,0.195,4.743-2.006,6.391
		c-3.31-1.231-2.793-4.205-2.834-6.718c-0.151-9.131-0.026-18.266-0.078-27.397c-0.014-2.133,0.299-4.338-0.989-6.474
		c-2.304-2.026-4.962-1.893-8.232-0.713c-1.771,7.164-0.038,14.675-1.002,22.006c-0.403,1.109-0.538,2.356-1.571,3.148
		c-3.054-0.253-2.814-2.771-3.029-4.729c-0.342-3.085-0.168-6.207-0.137-9.303c-0.211-2.174-1.75-3.474-3.379-5.047
		c-4.117,0.554-8.248-1.427-12.642-0.339c-2.336,0.579-3.606-1.103-3.78-2.308C1465.646,576.868,1467.5,576.584,1468.441,575.511z"
		/>
	<path fill="#68A392" d="M1480.42,573.615c-0.564,1.334-1.129,2.667-1.585,3.744c-4.248,3.804-5.946-3.094-9.468-1.862
		c1.367-0.634,2.734-1.267,4.104-1.899C1475.786,573.604,1478.104,573.609,1480.42,573.615z"/>
	<path fill="#68A392" d="M1487.326,572.729c-1.48,1.26-3.255,0.662-4.917,0.78C1483.876,572.167,1485.634,572.655,1487.326,572.729z
		"/>
	<path fill="#489C89" d="M503.368,767.6c-5.259-0.621-10.491,0.521-16.927,0.736c1.36-12.914,1.266-25.322-1.379-38.037
		c12.435-1.709,23.891-1.277,36.078-1.244c0.536-16.854,1.074-33.764,1.642-51.594c11.306,2.23,21.997,2.389,32.707,1.871
		c29.335,2.104,58.672,4.205,88.008,6.307c3.383,1.082,6.969-0.289,10.877,0.984c2.944,4.209,2.639,9.504,2.665,14.5
		c0.032,6.129,0.773,12.297-0.477,18.426c-0.437,2.143,0.092,4.314,1.914,6.387c5.449,0.431,11.152,1.127,16.615,0.252
		c1.538-2.771,0.281-4.745-0.375-6.729c-2.615-7.9-5.082-15.848-7.771-23.727c-2.244-6.574-0.634-8.625,6.209-9.563
		c4.909-0.672,9.616,0.375,14.391,0.938c2.304,0.271,4.592,0.867,6.856-0.254c1.66-2.021,0.979-4.482,1.253-6.73
		c0.475-3.896,2.523-6.021,6.432-6.354c2.495-0.211,5.005-0.324,7.479,0.039c1.725,0.252,3.824,0.229,4.053,2.78
		c-3.495,3.459-8.454,0.601-12.92,3.16c-0.362,15.045-2.438,30.392-1.594,45.514c5.692,1.839,8.394,1.709,12.809-0.434
		c1.041-6.929,0.699-14.207,1.201-21.429c0.326-4.684-1.187-9.571,1.271-14.067c5.341,1.418,10.804,1.168,16.25,1.279
		c2.252,0.047,4.782-0.156,6.032,2.493c-1.362,2.599-3.909,2.097-6.148,2.277c-2.6,0.211-5.26-0.191-8.428,0.598
		c6.583,14.466,17.557,25.787,23.813,39.179c-0.487,3.018-1.921,4.278-4.057,4.715c-10.577,2.158-21.15,4.221-31.991,4.754
		c-8.119,0.398-16.129,2.31-24.178,2.992c-9.77,0.83-19.32,3.014-29.08,3.687c-14.606,1.008-29.001,4.012-43.559,5.178
		c-16.605,1.33-32.925,4.569-49.477,6.219c-11.049,1.1-22.086,2.578-33.113,4.012c-1.96,0.254-3.924,0.818-5.581,2.441
		c-1.032,3.594-0.171,7.463-0.626,11.231c-0.232,1.927,0.429,4.541-2.73,4.919c0-5.962,0-11.923,0-18.138
		C515.074,765.295,509.234,767.77,503.368,767.6z"/>
	<path fill="#2E6B5D" d="M521.514,785.307c1.979-4.291,0.469-8.832,0.93-13.233c0.188-1.795,0.031-3.625,0.031-5.726
		c15.875-2.701,31.556-4.352,47.265-5.926c9.541-0.955,18.94-3.404,28.487-4.191c13.207-1.092,26.334-2.86,39.375-4.911
		c12.523-1.97,25.32-1.38,37.707-4.908c4.645-1.322,9.891-0.728,14.942-1.545c12.179-1.974,24.635-2.166,36.896-3.728
		c5.205-0.662,10.295-2.449,15.601-2.965c0.977-0.096,1.688-0.996,2.071-2.012c-8.207-14.139-18.362-27.047-26.827-42.65
		c6.741,0,12.603,0,18.463,0c1.686-2.113,4.103-2.096,6.409-1.977c17.1,0.889,34.237,0.531,51.328,1.789
		c9.279,0.684,18.611,0.565,27.912,0.904c13.12,0.477,26.231,1.862,39.392,1.293c2.159-0.095,4.349-0.056,6.256,1.207
		c1.891,1.764,0.354,2.627-1.035,3.229c-3.397,1.475-6.266,3.693-8.75,6.055c-2.803,0.188-3.978-2.074-6.252-3.154
		c-2.786-0.045-5.909-0.43-8.514-2.141c-2.827,0.219-5.509,1.344-8.214-0.707c1.418,3.254,2.548,6.236-1.375,7.748
		c-2.322,0.457-3.522-1.682-5.598-1.512c-1.889,2.078,0.832,4.98-1.178,7.098c-3.002,2.863-6.425,1.43-9.79,0.732
		c1.915,5.559-0.174,6.498-11.991,5.396c-1.348,0.388-1.789,1.984-3.842,2.554c-3.943-1.353-8.48-0.892-13.03,0.448
		c-2.714,0.8-5.204-0.711-7.786-1.266c-2.02-0.435-4.347-1.531-5.384,1.979c3.253,1.879,6.869,1.838,10.449,2.227
		c2.824,0.305,6.351,0.451,5.426,4.828c-2.241,2.486-5.565,0.344-7.7,2.508c-0.916,1.438,0.524,3.254-0.757,4.986
		c-3.172,2.862-6.241,0.514-9.407-1.07c-1.789,2.029-2.13,4.195-1.992,5.709c0.863,3.148,4.014,3.043,4.662,5.775
		c-1.254,3.395-4.48,2.414-7.063,2.453c-4.292,0.063-5.214-3.449-6.129-6.443c-1.451-1.293-2.94-1.213-4.665-1.049
		c-2.604,1.74-4.508,5.512-8.777,4.078c-2.017-0.81-2.259-3.265-4.008-4.33c-1.423-0.685-2.537-0.177-3.631,0.858
		c0.493,3.99,7.967,4.443,5.304,9.744c-1.657,1.545-3.542,0.597-5.151,1.394c-1.106,1.828-0.881,3.682,0.354,6.08
		c10.134-0.601,20.996,2.268,30.558-6.281c0.989-0.467,2.531,0.18,4.127,0.711c6.08,2.025,10.201,0.602,13.569-4.646
		c1.175-1.83,2.509-3.535,4.011-5.1c1.459-1.521,3.151-2.678,5.303-1.512c2.171,1.176,2.152,3.137,1.46,5.221
		c-0.31,0.932-0.888,1.816-0.534,3.215c3.128,2.791,6.27,1.004,9.382-0.504c7.415-3.588,15.149-3.047,22.935-1.805
		c0.834,0.133,1.544,0.604,1.938,1.422c-13.204,2.615-26.383,5.361-39.617,7.813c-20.771,3.848-41.593,7.438-62.374,11.242
		c-25.846,4.732-51.68,9.529-77.504,14.375c-33.823,6.348-67.634,12.762-101.442,19.184c-1.435,0.273-3.033,0.166-4.231,1.283
		c-9.124,1.619-18.248,3.238-27.995,4.969C521.514,801.801,521.514,793.553,521.514,785.307z"/>
	<path fill="#356C55" d="M414.651,831.441c7.17,0.076,13.903-2.437,20.795-3.814c16.013-3.203,31.757-7.695,47.925-10.244
		c3.732-0.588,7.38-1.699,11.081-2.512c1.057-0.232,2.487-0.76,2.123,1.357c-12.063,3.104-23.468,8.139-35.245,12.094
		c-13.688,4.6-27.212,9.69-40.793,14.604c-28.365,10.263-56.694,20.625-85.089,30.804c-24.077,8.629-48.269,16.938-72.33,25.604
		c-21.99,7.922-43.856,16.186-65.816,24.19c-6.391,2.33-12.933,4.242-19.371,6.449c-3.087,1.057-5.869,0.715-8.495-1.176
		c-12.813-9.225-25.641-18.432-38.425-27.699c-1.427-1.033-3.142-1.951-3.612-4.492c5-2.865,10.819-3.5,16.29-4.737
		c26.424-5.979,53.07-10.923,79.473-17.035c26.523-6.142,53.17-11.748,79.729-17.74c21.242-4.793,42.427-9.842,63.649-14.725
		C382.565,838.684,398.612,835.082,414.651,831.441z"/>
	<path fill="#2B6758" d="M757.302,807.59c5.952,16.955,10.835,34.127,12.202,52.189c1.86,24.584,0.859,48.844-6.707,72.529
		c-0.349,1.094-0.521,2.241-0.777,3.366c-0.347,8.916-2.594,17.25-7.603,24.734c-2.077,4.764-4.153,9.524-6.231,14.289
		c-0.474,1.229,0.403,3.293-2.043,3.305c-3.041-1.289-3.06-4.391-4.131-6.862c-0.184-1.168-0.574-2.263-1.346-3.173
		c-3.466-4.092-4.466-9.075-5.165-14.174c-9.813-26.772-13.202-54.496-12.001-82.844c0.373-8.799,1.361-17.57,2.068-26.354
		c2.716-12.962,5.238-25.972,9.641-38.511c2.684-7.641,6.043-14.977,10.115-22.705C750.883,791.107,753.409,799.697,757.302,807.59z
		"/>
	<path fill="#38997D" d="M655.388,904.58c-0.769,20.127,0.744,40.313-0.429,60.428c-0.544,0.131-1.088,0.262-1.633,0.391
		c-6-7.396-11.669-15.098-18.105-22.094c-5.326-5.789-6.313-12.246-6.055-19.625c0.645-18.414-0.987-36.838-0.002-55.271
		c0.189-3.563,0.83-6.457,3.625-8.797c1.242-1.039,2.584-2.158,2.8-3.988c4.14-1.914,5.979-6.072,8.86-9.201
		c2.915-3.166,5.71-6.418,9.691-9.729C655.689,859.744,655.011,882.176,655.388,904.58z"/>
	<path fill="#8DC4A5" d="M85.397,781.545c-3.947,5.059-7.978,8.436-13.579,11.375c-7.246-1.697-10.82-7.773-15.356-12.762
		c-8.47-9.314-17.263-18.344-25.546-27.82c-5.144-5.883-4.822-6.938,0.631-12.408c11.715-11.754,23.459-23.479,35.206-35.201
		c1.633-1.631,3.147-3.477,6.047-3.908c7.422,5.845,12.79,14.029,19.895,20.498c1.896,1.73,4.367,3.197,4.763,6.162
		c-2.625,0.896-3.975-1.168-5.524-2.52c-4.524-3.947-8.336-8.623-12.749-12.688c-1.563-1.439-2.89-3.244-5.87-3.99
		c-1.846,26.297-0.444,52.342-0.693,78.486c4-0.046,5.34-2.188,7.176-3.498C81.461,782.082,82.864,779.953,85.397,781.545z"/>
	<path fill="#429F7F" d="M85.397,781.545c-3.511,0.484-4.669,4.088-7.4,5.58c-1.713,0.934-2.995,2.729-6.629,2.684
		c-0.777-28.305-1.494-56.608,0.416-85.826c10.421,7.021,16.686,16.755,25.673,23.498c5.307,5.377,10.614,10.755,15.921,16.134
		c0.455,2.983,3.655,4.077,4.679,6.799c-0.455,2.778-3.588,3.604-4.603,6.01C104.102,764.795,94.75,773.17,85.397,781.545z"/>
	<path fill="#41987E" d="M680.409,898.447c-2.052,3.463-2.711,7.703-5.802,10.604c-2.545-0.209-3.229-2.729-5.021-3.777
		c-1.819-6.526-3.708-12.997-3.205-19.944c0.515-7.097,2.396-13.609,6.467-19.388c3.144-0.366,3.666,1.968,4.593,3.847
		C681.971,878.975,682.333,888.592,680.409,898.447z"/>
	<path fill="#298673" d="M851.475,879.58c10.59-6.102,22.256-3.582,33.531-4.184c15.467-0.826,30.99-0.213,46.42-1.078
		c20.973-1.176,41.936-0.76,62.889-0.736c12.175,0.014,21.929-3.598,31.146-11.445c12.99-11.059,26.855-21.088,40.299-31.619
		c1.973-1.545,4.074-1.963,6.492-1.979c51.779-0.357,103.556-1.002,155.336-1.361c27.465-0.189,54.939-0.463,82.41-0.832
		c5.482-0.074,10.963-0.492,16.443-0.752c0.963-0.752,2.082-1.051,3.271-1.023c11.367,0.253,22.718-0.911,34.109,0.009
		c6.822,0.551,13.787,0.403,20.566-0.271c9.135-0.908,18.278-0.986,27.333-0.541c8.689,0.428,17.335,0.26,26.002,0.26
		c2.786,0.002,4.661,1.392,6.147,3.609c5.808,8.668,12.156,17.016,15.693,27.006c0.387,1.092,1.336,1.908,1.799,2.988l-0.039-0.047
		c4.988,4.99,7.455,11.824,12.358,16.887c1.29,1.332,0.609,3.512,1.813,4.951c0,0,0.071,0.082,0.073,0.082
		c4.797,9.682,10.916,18.551,16.863,27.527c15.115,22.809,29.44,46.123,44.393,69.039c8.686,13.313,17.606,26.565,25.291,40.461
		c5.05,9.131,12.451,16.834,16.016,27.045c-2.007,1.799-4.47,1.779-6.934,1.793c-20.62,0.115-41.246,0.021-61.862,0.404
		c-46.267,0.854-92.527,1.864-138.808,2.104c-17.434,0.09-34.902,0.107-52.32,0.854c-38.967,1.666-77.94,0.127-116.9,0.988
		c-8.938,0.197-17.863,1.006-26.941,0.74c-5.588-4.764-10.644-9.967-15.566-15.277c1.568-2.219,3.463-2.479,5.525-2.568
		c28.965-1.256,57.953-0.946,86.93-1.389c18.557-0.283,37.107-0.467,55.67-1.197c28.078-1.106,56.238-0.01,84.332-0.869
		c35.438-1.084,70.875-1.432,106.316-1.954c14.102-0.209,28.229-0.757,42.348-1.158c1.396-0.039,3.029,0.01,4.154-1.431
		c-0.062-3.102-2.422-5.038-3.877-7.336c-15.703-24.799-31.672-49.432-47.254-74.307c-9.592-15.313-19.559-30.373-29.491-45.461
		c-4.341-6.838-8.7-13.664-13.02-20.518c-6.454-10.246-12.932-20.479-19.286-30.787c-2.006-3.252-4.433-4.971-8.484-4.908
		c-23.977,0.367-47.953,0.611-71.932,0.766c-38.959,0.248-77.927,0-116.877,0.713c-30.787,0.562-61.576,0.418-92.359,1.009
		c-17.764,0.342-35.584,1.516-53.271,1.032c-10.689-0.293-17.933,3.572-25.289,9.631c-15.519,12.779-30.815,25.83-46.826,38.005
		c-4.898,3.725-9.884,7.334-14.729,11.125c-2.764,2.161-5.736,2.895-9.242,2.977c-33.953,0.781-67.909,0.998-101.869,1.285
		c-18.462,0.154-36.917,1.354-55.377,1.397c-6.956,0.019-11.807,3.693-17.229,6.707c-0.999,0.556-1.755,1.574-3.062,1.492
		c-1.33-0.963-1.251-2.332-0.69-3.539c2.694-5.805,5.077-11.746,7.762-17.551c0.521-1.125,1.289-2.402,3.003-1.838
		c0.098,0.795,0.195,1.59,0.371,3.027C834.301,891.594,843.266,886.16,851.475,879.58z"/>
	<path fill="#1B1615" d="M1761.095,598.764c0.162-0.81,0.325-1.619,0.488-2.43c0.896-2.03-0.099-4.247,0.623-6.294
		c0.166-0.978,0.331-1.952,0.496-2.928c0.604-1.334-0.117-2.831,0.516-4.161c0.138-0.604,0.273-1.209,0.41-1.813
		c0.873-2.344-0.244-4.872,0.666-7.213c2.177-10.442,2.37-21.136,4.013-31.646c0.715-4.586,1.459-9.17,2.188-13.754
		c2.276-14.375,3.341-28.9,5.437-43.304c3.647-25.088,6.594-50.27,9.739-75.423c1.748-13.984,3.375-27.982,4.871-41.997
		c0.299-2.791,0.687-5.606,1.892-8.257c3.264-0.501,3.637,1.551,3.498,3.938c-0.408,6.976,0.004,13.947,0.021,20.922
		c0.075,31.624,0.522,63.257,1.245,94.858c0.883,38.617,0.279,77.222,0.808,115.825c0.097,7.121-0.746,14.268,0.376,21.371
		c0.055,15.7,0.11,31.398,0.166,47.098c-1.152,4.953,1.423,9.91-0.014,14.861c-0.187,37.137-0.373,74.275-0.562,111.521
		c-3.598-0.277-2.827-3.113-4.378-4.017c-10.418-22.147-20.839-44.303-31.259-66.457c-5.968-4.631-6.812-12.266-10.631-18.182
		c-6.296-9.75-3.457-20.188-1.507-30.443c0.313-1.645,0.63-3.229,0.502-4.897c2.031-18.828,4.939-37.547,7.048-56.363
		C1758.179,605.727,1759.588,602.249,1761.095,598.764z"/>
	<path fill="#1B1819" d="M1487.354,677.641c0.205,2.385,1.698,4.129,2.977,5.98c0.385,0.295,0.793,0.553,1.223,0.781
		c1.572,0.422,2.541,1.539,3.24,2.912c4.086,8.006,9.035,15.537,12.91,23.659c0.955,2,1.355,4.009,0.758,6.171
		c-12.853,12.975-27.254,24.151-41.549,36.479c-5.652-9.777-10.93-19.088-16.4-28.285c-2.356-3.963-4.088-8.313-7.16-11.846
		c-5.018-1.961-6.262-7.052-8.411-11.039c-3.575-6.634-8.552-12.506-10.933-19.781c-5.943-8.983-11.257-18.35-16.717-27.627
		c-1.167-1.983-0.773-4.207-1.615-6.18c-10.504-17.816-21.008-35.632-31.91-54.125c16.47-9.173,32.615-18.166,48.813-27.188
		c4.319,2.221,4.628,7.284,7.715,10.225c4.33,3.929,6.651,9.182,9.364,14.179c8.874,14.843,17,30.112,25.781,45.009
		c0.99,1.682,2.101,3.482,1.11,5.623c5.886,10,11.77,20,17.653,30C1485.869,673.891,1486.873,675.602,1487.354,677.641z"/>
	<path fill="#134338" d="M1508.46,717.145c-3.16-8.896-8.437-16.705-12.953-24.895c-1.473-2.668-2.143-5.922-4.905-7.801
		c6.827-2.432,14.002-2.594,21.09-2.871c22.429-0.873,44.811-2.529,67.219-3.646c13.949-0.694,27.843-2.104,41.813-2.625
		c13.931-0.516,27.875-1.49,41.806-2.344c13.426-0.822,26.869-1.479,40.278-2.516c14.25-1.103,28.556-1.26,42.78-2.766
		c2.314-0.244,4.391-1.675,6.8-1.166c-0.645,4.735-0.737,9.631-2.058,14.17c-2.242,7.719-0.073,14.655,3.536,20.963
		c3.302,5.771,5.309,12.053,8.47,17.821c-1.506-1.469-3.379-1.036-5.193-1.063c-49.462-0.724-98.926-1.41-148.387-2.222
		c-32.805-0.537-65.605-1.254-97.968-1.881C1508.907,714.768,1509.436,716.477,1508.46,717.145z"/>
	<path fill="#124F45" d="M1425.334,681.771c4.368,10.016,10.977,18.776,15.943,28.457c0.588,1.143,1.379,2.18,2.074,3.266
		c-20.731-0.715-41.463-1.455-62.193-2.133c-21.24-0.695-42.482-1.33-63.725-1.992c-4.485,0.162-9.171-1.459-13.332,1.66
		c-0.748,0.559-1.949,0.43-2.924,0.27c-11.332-1.854-22.844,0.275-34.188-1.561c-2.227-0.361-4.684-0.428-6.643,1.777
		c-0.848,2.432-0.689,5.336-1.805,7.932c-1.927,4.037-1.311,8.885-4.027,12.67c-3.062-5.787-2.549-12.221-2.944-18.391
		c-0.521-8.121-0.306-16.304-0.085-24.449c0.234-8.672-0.9-17.234-1.612-25.828c-0.403-4.863,0.688-9.623,0.535-14.438
		c-0.538-16.942-1.235-33.881-0.968-50.835c0.055-3.43-2.725-6.65-0.659-10.184c2.899-1.598,3.618,1.104,4.069,2.604
		c2.625,8.715,6.489,17.022,7.715,26.215c0.869,6.527,3.377,12.748,4.49,19.332c1.647,9.756,1.484,19.535,1.676,29.304
		c0.098,4.936,0.588,9.938-0.147,14.893c-0.071,3.285-0.586,6.563-0.464,10.054c4.611,1.926,9.129,1.272,13.479,0.823
		c3.98-0.409,7.94-0.641,11.932-0.703c17.605-0.272,35.154-1.62,52.716-2.76c7.29-0.473,14.606-0.781,21.892-1.031
		c16.933-0.579,33.813-2.319,50.768-2.227C1420.02,684.512,1422.736,683.334,1425.334,681.771z"/>
	<path fill="#1D7360" d="M1738.416,767.955c-0.497,7.742-0.917,15.486-3.354,23.854c-32.496-4.504-64.756-10.043-97.287-15.739
		c-1.258-7.945,1.146-15.152,1.697-22.136c1.752-2.508,3.883-2.25,6.088-1.891c22.625,3.674,45.246,7.365,67.884,10.969
		c6.067,0.967,12.18,1.683,18.278,2.445C1733.882,765.727,1736.016,765.939,1738.416,767.955z"/>
	<path fill="#5DA592" d="M1258.545,719.447c-0.332-4.269,0.766-8.123,3.184-12.082c12.069,1.395,24.053,0.643,35.942,1.656
		c4.728,0.403,9.271-0.49,13.9-0.324c1.965,0.07,4.012-0.41,5.864,0.672c-1,0.387-1.998,0.773-2.994,1.16
		c-1.944-0.371-3.85-1.146-6.523-0.865c-8.074,16.889-14.753,34.414-21.471,51.584c-3.587,0.131-4.268-1.732-5.055-3.924
		c-5.563-15.471-13.075-30.1-19.521-45.848C1259.525,714.123,1261.081,717.68,1258.545,719.447z"/>
	<path fill="#2B896E" d="M746.52,977.58c0.556-0.963,1.111-1.924,1.668-2.883c1.192,2.758,2.522,0.99,3.809,0.104
		c5.042-3.463,10.064-6.955,15.128-10.389c1.052-0.713,2.133-1.556,3.933-1.185c-0.797,3.004-2.841,5.172-4.477,7.527
		c-10.573,15.221-20.938,30.545-29.963,46.787c-12.432,22.375-15.775,46.166-12.21,71.131c1.047,7.336,2.995,14.574,7.007,21.021
		c0.605,3.293,2.333,6.108,3.751,9.071c2.019,4.216,0.492,6.408-4.201,6.986c-11.184,1.379-22.401,0.201-33.553,0.604
		c-12.698,0.459-25.396,1.778-38.131,1.883c-13.272,0.106-26.561,1.303-39.789,0.514c-4.886-0.293-9.231-0.367-13.929,1.178
		c-6.127,2.017-11.172-2.354-11.609-9.26c-0.405-6.402,0.97-12.52,3.02-18.51c0.646-1.889,1.332-3.758,1.729-5.709
		c1.769-6.762,6.771-11.379,11.284-16.168c12.478-13.246,26.696-24.486,41.352-35.232c13.822-10.135,27.745-20.137,41.789-29.945
		c16.915-11.813,33.802-23.649,50.213-36.153C744.309,978.217,745.434,977.977,746.52,977.58z"/>
	<path fill="#298673" d="M754.417,960.41c2.536-8.246,5.072-16.492,7.604-24.736c0.218,0.951,0.438,1.9,0.777,3.369
		c14.106-7.818,26.531-17.723,39.735-26.43c4.021,0.586,3.377,5.156,5.958,6.973c2.453,3.523-1.11,4.354-2.822,5.266
		c-3.241,1.728-6.098,3.744-8.381,6.597c-9.738,4.264-17.618,11.383-26.354,17.184C765.305,952.371,759.915,956.473,754.417,960.41z
		"/>
	<path fill="#58A38C" d="M600.316,1095.506c-0.383,4.998-2.857,9.406-4.002,14.195c-1.572,6.58-2.256,15.682,4.981,19.518
		c0.327,0.051,0.74,0.256,0.97,0.129c6.463-3.569,13.053-2.619,20.196-2.184c17.34,1.061,34.797,0.559,52.194,0.15
		c7.054-0.164,14.117-1.494,21.089-2.771c2.262-0.412,3.612,1.305,5.673,1.041c7.403-0.953,14.838,0.131,22.255-0.117
		c3.371-0.11,6.417-2.78,10.304-0.885c2.16-5.826-4.225-9.717-2.562-14.889c2.83,5.498,6.708,10.471,8.761,16.118
		c-1.829,2.152-3.797,1.685-5.546,1.716c-12.089,0.219-24.194,0.096-36.269,0.34c-22.237,0.448-44.492,0.901-66.704,2.44
		c-10.787,0.746-21.624,0.771-32.436,1.189c-3.644,0.143-5.175-1.443-6.02-5.064c-1.415-6.061-0.131-11.897,0.337-17.823
		l-0.031-0.019c1.157-1.615,0.59-3.582,1.067-5.297C595.482,1100.035,595.921,1096.262,600.316,1095.506z"/>
	<path fill="#316358" d="M808.492,919.586c-4.416-0.25-3.93-4.686-5.958-6.975c-4.185-13.125-8.142-26.297-10.409-39.941
		c-3.443-20.73-2.887-41.375-0.021-62.131c1.303-9.432,3.928-18.52,5.65-27.824c0.291-1.572,0.591-3.254,2.346-4.975
		c4.166,8.09,8.256,15.914,12.215,23.803c1.041,2.076,0.097,4.23-0.416,6.334c-7.7,31.604-7.36,63.648-5.223,95.789
		c0.065,0.979,0.442,1.936,0.674,2.904C806.783,910.992,808.658,915.199,808.492,919.586z"/>
	<path fill="#2F6256" d="M824.676,894.51c-3.726,7.482-7.134,15.105-10.076,22.93c-0.593,1.191-1.182,2.39-2.894,2.295
		c-1.001-2.526,1.369-4.747,0.64-7.217c6.496-22.526,8.672-45.641,9.249-68.957c0.163-6.565,0.025-13.139,0.945-19.979
		c4.363,10.106,9.117,20.072,12.896,30.396c1.52,4.147-0.803,8.821-1.875,13.168C831.26,876.477,828.471,885.658,824.676,894.51z"/>
	<path fill="#3A9A7D" d="M735.501,953.795c2.593,5.615,5.185,11.232,7.776,16.85c-16.763,10.845-32.783,22.765-49.283,33.986
		c-9.071,6.17-18.702,11.543-27.493,18.098c-19.615,14.627-40.664,27.242-59.875,42.379c-11.56,9.107-20.628,20.564-27.846,33.607
		c-4.873,8.808-5.332,17.902-4.852,27.383c0.333,6.574-1.642,9.115-8.249,8.806c-4.344-0.205-8.602,0.174-12.9,0.295
		c-3.028,0.086-6.112-0.133-7.393-3.662c0.113-10.106,1.85-19.803,6.21-28.934l-0.043,0.049c2.134-6.146,5.22-11.789,8.979-17.078
		l-0.027,0.033c4.943-8.574,11.654-15.611,19.115-21.998c14.636-12.277,30.64-22.582,46.691-32.869
		c11.963-7.668,23.344-16.236,35.153-24.146c16.644-11.148,33.433-22.08,50.185-33.066c6.498-4.26,13.158-8.281,19.547-12.697
		C733.487,959.248,736.622,957.68,735.501,953.795z"/>
	<path fill="#2D664F" d="M100.821,902.188c14.938,9.806,28.531,20.822,43.759,31.771c-22.843,8.768-44.662,16.59-66.832,23.83
		c-18.861-12.627-38.423-23.715-57.194-38.75C47.907,912.504,73.991,906.57,100.821,902.188z"/>
	<path fill="#4C3B34" d="M1798.38,616.46c-1.342-1.586-0.854-3.499-0.86-5.282c-0.103-34.313,0.44-68.643-0.439-102.936
		c-0.67-26.051,0.081-52.113-1.162-78.137c-0.786-16.478-0.17-32.951-0.622-49.42c-0.141-5.117-0.628-10.216-0.056-15.351
		c0.188-1.667,0.714-3.75-1.785-5.112c-2.818,4.561-2.152,9.815-2.829,14.659c-2.893,20.688-4.563,41.526-7.733,62.19
		c-1.559,10.152-2.188,20.443-3.489,30.639c-1.07,8.38-2.638,16.695-3.761,25.07c-1.477,11.009-2.735,22.048-4.078,33.074
		c-0.12,0.994-0.131,2.012-1.067,2.67c0.437-13.122,2.685-26.049,4.274-39.043c4.144-33.803,8.428-67.588,12.576-101.39
		c1.885-15.342,4.318-30.618,5.449-46.054c0.162-2.211,0.797-4.389,1.721-6.523c1.703,5.969,1.601,12.008,1.691,17.998
		c0.249,16.312,0.152,32.629,0.505,48.937c1.14,52.746,1.673,105.499,1.927,158.256c0.037,7.655,0.037,15.312,0.054,22.969
		C1798.589,594.607,1798.484,605.534,1798.38,616.46z"/>
	<path fill="#4E998A" d="M1764.294,573.925c0.299,2.457,0.313,4.888-0.667,7.22C1763.37,578.689,1763.009,576.232,1764.294,573.925z
		"/>
	<path fill="#4E998A" d="M1762.206,590.041c0.285,2.148,0.483,4.29-0.624,6.297c-0.1-0.275-0.204-0.549-0.314-0.816
		C1761.805,593.732,1760.95,591.705,1762.206,590.041z"/>
	<path fill="#4E998A" d="M1763.218,582.952c0.247,1.442,0.441,2.881-0.518,4.168C1762.426,585.67,1762.016,584.211,1763.218,582.952
		z"/>
	<path fill="#1F8375" d="M1264.614,679.602c0.502-13.604,0.25-27.166-0.978-40.754c-0.822-9.092-4.025-17.591-5.734-26.445
		c-1.623-8.406-4.358-17.002-8.389-24.881c-1.009-0.354-1.572-1.148-2.144-2.308c-0.046,9.933,0.061,19.614-0.061,29.294
		c-0.032,2.547,0.52,5.378-2.064,7.256c-3.436-1.479-2.701-4.658-2.736-7.303c-0.153-11.611-0.052-23.229-0.067-34.842
		c-0.004-3.176-0.28-6.262-2.873-9.77c-0.244,9.209-0.039,17.558-0.142,25.897c-0.032,2.623,0.317,5.358-1.573,7.617
		c-3.949,0.026-3.154-3.204-3.233-5.284c-0.328-8.492-0.364-17.005-0.074-25.493c0.344-10.108-2.14-19.367-7.084-28.073
		c-0.994-1.541-2.171-2.896-4.22-3.984c-5.713,3.57-8.585,9.652-11.801,15.195c-7.104,12.246-12.939,25.12-17.059,38.722
		c-0.32,1.057-1.127,1.966-1.705,2.939c-9.265-14.694-18.559-29.37-27.793-44.085c-9.594-15.283-19.074-30.64-28.708-45.897
		c-9.017-14.28-18.202-28.454-27.252-42.716c-6.042-9.523-11.96-19.127-17.976-28.668c-0.602-0.953-1.488-1.729-2.242-2.586
		c-2.546-1.273-3.385-3.757-4.316-5.834c-0.242-1.953,0.609-3.088,1.771-4.071c0.435-0.36,0.868-0.722,1.302-1.081
		c3.526-3.619,8.063-5.868,12.044-8.869l-0.028,0.023c2.649-2.05,5.355-4.024,8.072-5.985l-0.013,0.039
		c2.871-3.984,7.116-6.229,11.104-8.811c4.677-3.024,8.519-7.31,13.929-9.229l-0.037,0.063c0.569-1.198,1.994-1.28,2.813-2.153
		c0.363-0.322,0.728-0.646,1.09-0.97c2.111-2.03,4.217-4.073,7.146-4.919l-0.032,0.055c0.938-1.369,1.983-2.595,3.449-3.481
		c4.171-2.526,6.402-1.938,8.6,2.466c0.518,1.038,1.351,1.885,1.719,2.999l-0.06-0.005c2.851,1.943,3.247,5.425,5.039,8.031
		l-0.062-0.072c8.227,10.063,14.812,21.26,21.748,32.174c8.916,14.029,17.849,28.055,26.688,42.135
		c8.222,13.095,16.669,26.052,25.034,39.06c0.896,1.392,1.881,2.783,1.555,4.603c4.758,10.074,11.533,18.937,17.321,28.383
		c11.247,18.358,23.2,36.285,34.884,54.375c0.709,1.097,1.631,2.055,2.418,3.031c2.161,0.157,4.142,0.301,6.12,0.444
		c0.849,1.459-1.554,2.011-0.942,3.217c0.441,2.638,3.904,2.383,4.252,4.927c-0.696,0.645-2.016,0.467-2.407,2.676
		c2.901,4.459,6.169,9.563,9.524,14.607c4.154,6.241,4.332,6.696-0.701,12.331c-7.264,8.133-14.789,16.031-22.204,24.029
		c-6.569,5.598-9.087,14.561-16.308,19.631C1267.784,678.258,1266.811,680.104,1264.614,679.602z"/>
	<path fill="#66AE9D" d="M1188.188,706.441c-3.817,0-7.637,0-11.901,0c-7.804,11.686-15.205,23.608-23.465,34.905
		c-8.101,11.076-14.665,23.476-25.453,33.322c-9.22-10.418-19.313-18.197-27.688-28.396c-1.084-12.354-1.549-25.199-0.547-38.66
		c-0.361-0.818-0.962-2.17-1.572-3.547c0-25.281,0-50.556,0-75.969c-2.075-0.33-3.521-0.562-4.965-0.789
		c15.569-1.849,31.137-3.694,46.703-5.541c-0.511,2.537-0.001,4.804,1.403,7.026c8.785,13.912,15.184,29.094,22.848,43.604
		c3.005,5.688,5.955,11.457,8.806,17.252c1.541,3.133,3.425,5.61,7.035,6.481c1.125,0.271,2.834,0.66,1.93,2.664
		c-1.406,1.437-3.24,1.681-5.079,1.691c-22.618,0.149-45.163,2.258-65.032,2.506c16.74-1.416,36.163,0.471,55.613,1.012
		c4.627,0.129,9.287-0.623,13.953-0.479c2.334,0.072,4.707-0.021,6.515,1.873C1187.589,705.746,1187.888,706.094,1188.188,706.441z"
		/>
	<path fill="#CBBEB2" d="M1194.586,697.211c-2.074-6.094-1.816-12.518-2.146-18.768c-1.235-23.519-0.129-46.988,5.58-69.899
		c4.584-18.394,11.142-36.174,21.172-52.458c0.521-0.845,1.092-1.662,1.701-2.443c0.172-0.219,0.565-0.263,2.287-0.994
		c0,7.096-0.059,13.623,0.01,20.15c0.298,27.993,0.627,55.986,0.966,83.979c0.016,1.324,0.227,2.646,0.347,3.969
		c1.04,11.533,0.083,23.07,0.495,34.232c-2.899,3.127-6.396,3.059-9.586,3.396c-5.589,0.59-11.242-0.053-16.858,0.485
		C1197.02,699.01,1195.621,698.453,1194.586,697.211z"/>
	<path fill="#69AE9C" d="M999.293,634.746c-2.189,1.551-4.974-0.039-7.911,1.799c0.528,22.426-0.688,45.299,1.336,68.6
		c7.607,0.748,15.063,1.877,22.772,1.121c5.189-15.274,10.563-30.082,16.517-45.063c3.033,1.604,4.481,3.5,5.361,5.846
		c4.756,12.693,9.553,25.373,14.184,38.113c1.771,4.867,6.42,3.137,10.013,4.885c-3.263,1.09-6.267,2.096-8.955,2.994
		c-6.25,14.162-10.396,28.818-17.599,42.18c-3.229-0.813-3.937-3.213-4.696-5.297c-3.285-9.002-8.377-17.234-11.156-26.451
		c-0.545-1.809-1.979-3.029-3.903-3.854c-3.158,0.297-6.397,1.297-9.749,0.91c0.797-3.849,4.247-3.113,6.676-3.482
		c11.262-1.719,22.451-3.838,33.695-5.643c1.137-0.183,2.27-0.447,3.354-0.865c0.453,0.486,0.594-0.738,0.035-0.441
		c-0.22,0.117-0.826-0.432-1.242-0.736c-2.664-2.799-3.697-6.397-4.004-9.975c-0.389-4.545-1.955-8.281-5.058-11.533
		c-1.591-1.668-2.697-3.698-3.468-6.271c-0.955,2.371-1.527,4.531-2.987,6.06c-3.597,3.76-5.366,8.069-5.743,13.313
		c-0.342,4.75-3.99,6.959-8.284,8.139c-10.12,0.641-20.245,1.359-29.989-2.479c-1.45-1.094-2.077-2.586-1.797-4.353
		c1.494-9.403,0.26-18.797,0.201-28.202c-0.061-9.64-0.216-19.175-2.105-28.617c-2.741-2.883-5.164-1.883-7.875,0.799
		c1.001,4.264,0.574,8.58-1.122,12.818c-0.855,2.135,0.471,4.174,1.058,6.219c0.491,3.699,1.209,7.367,1.335,11.108
		c-0.309,3.265-0.006,6.605-1.209,9.757c-0.051,0.541-0.119,1.079-0.184,1.62c-0.978,2.316-1.045,4.701-0.495,7.132
		c-0.305,3.358,1.531,6.885-0.77,10.094c-1.791,1.049-3.482,1.145-4.992-0.517c1.144-2.455-0.097-4.897-0.088-7.352
		c0.039-11.08-1.239-22.304,0.146-33.193c1.159-9.102-3.239-17.692,0.339-27.516c-7.787,0-14.526,0-21.263-0.002
		c3.043-1.164,6.227-0.611,9.34-0.701C972.436,635.322,985.864,635.057,999.293,634.746z"/>
	<path fill="#235A51" d="M1227.462,544.516c6.278,6.666,9.047,14.637,8.989,23.728c-0.063,9.983-0.03,19.969,0.021,29.953
		c0.01,1.778-0.494,3.694,0.895,5.261c2.314,1.788,2.047,4.396,2.066,6.844c0.209,25.858,1.729,51.678,2.043,77.532
		c0.018,1.328,0.024,2.658,0.445,3.582c0.966,1.85,2.605,1.873,3.958,2.41c2.997,4.545,2.804,9.192,0.41,13.905
		c-1.967-0.121-3.953-0.647-6.197,0.398c-0.928,4.063-0.42,8.348-0.325,12.604c0.355,16.086,1.104,32.177,0.926,48.257
		c-0.062,5.391-3.979,9.961-7.229,14.338c-0.094-18.947,0.225-37.904-0.382-56.832c-0.819-25.574-1.142-51.158-1.963-76.722
		c-0.453-14.129,0.204-28.277-0.793-42.356c-1.294-18.281-0.687-36.562-0.785-54.84
		C1229.525,549.553,1227.123,547.447,1227.462,544.516z"/>
	<path fill="#C8BBB1" d="M1225.298,716.5c0.454,20.426,0.911,40.854,1.359,61.279c0.034,1.598,0.004,3.197-0.696,4.977
		c-13.895-22.916-23.874-47.324-29.65-73.447c-0.798-1.912-0.047-3.16,1.678-4.049c4.08-2.098,22.391-0.451,26.642,2.457
		C1225.489,710.555,1224.38,713.613,1225.298,716.5z"/>
	<path fill="#72B1A0" d="M1074.717,603.409c5.021-1.698,10.193-0.388,15.283-0.759c2.112-0.154,4.245-0.025,6.281-0.025
		c1.126-17.291-2.299-34.064,1.339-50.646c4.528,3.842,6.524,8.817,8.896,13.436c5.26,10.243,11.021,20.243,15.349,30.97
		c1.03,2.556,2.598,5.56,6.375,5.349c-14.181,1.257-28.4,1.549-42.615,1.93C1081.993,603.757,1078.354,603.502,1074.717,603.409z"/>
	<path fill="#72B1A0" d="M952.573,601.771c5.607,0,11.218,0,16.92,0c0-6.717-0.013-12.789,0.003-18.861
		c0.015-5.9,2.332-8.596,8.007-8.033c3.955,0.393,7.856,0.531,12.008,0.152c3.203,8.883,1.277,17.894,1.909,27.009
		c1.122,0.389,2.465,0.854,3.805,1.317C980.995,603.104,966.757,603.148,952.573,601.771z"/>
	<path fill="#266C5C" d="M1181.313,697.59c2.264-0.078,4.948,0.65,5.43-2.834c1.322,3.49,0.001,7.115,0.549,10.643
		c-29.043,1.007-57.985-0.948-86.973-1.606c-0.002-0.584-0.004-1.168-0.008-1.752c6.996-0.474,13.984-1.17,20.988-1.375
		c19.082-0.56,38.113-2.356,57.221-2.283C1179.45,698.385,1180.382,697.865,1181.313,697.59z"/>
	<path fill="#2A5B51" d="M1225.298,716.5c-0.289-2.773-0.576-5.547-0.918-8.836c-8.94-1.035-17.961-0.963-26.524-1.193
		c-1.586,0.789-1.142,1.994-1.545,2.84c-1.902-3.846,0.069-8.239-1.725-12.1c9.75-0.496,19.501-0.992,29.632-1.508
		c1.113-11.906-0.563-23.459,0.284-34.961c1.42,1.564,0.861,3.49,0.818,5.244c-0.271,11.242,0.949,22.502-0.799,33.74
		C1223.657,705.281,1226.482,710.83,1225.298,716.5z"/>
	<path fill="#72B1A0" d="M1003.673,603.696c17.868,0.01,35.736,0.019,53.603,0.026c-11.744,1.274-23.519,0.42-35.273,0.459
		C1015.898,604.204,1009.754,604.825,1003.673,603.696z"/>
	<path fill="#72B1A0" d="M1133.72,601.381c3.438-1.502,7.011-0.83,10.55-0.65C1140.79,601.616,1137.266,601.662,1133.72,601.381z"/>
	<path fill="#66AE9D" d="M1088.15,627.777c-2.403,1.307-4.952,0.715-7.463,0.563C1083.118,627.34,1085.636,627.58,1088.15,627.777z"
		/>
	<path fill="#266C5C" d="M1186.218,690.387c-0.971-2.442-0.878-4.961-0.547-7.494
		C1186.921,685.316,1186.318,687.869,1186.218,690.387z"/>
	<path fill="#1A1718" d="M1234.446,222.533c-0.065-1.484-0.132-2.968-0.185-4.141c-1.925-2.683-4.328-3.449-7.092-3.143
		c-3.8-4.669,0.518-6.815,3.676-9.888c-3.313-0.783-5.777-1.366-7.63-1.806c-2.271,0.576-3.005,1.997-4.166,3.1
		c-1.653,0.054-3.919-2.513-5.142,0.72c0.996,1.977,4.105,0.279,4.392,2.799c0.362,3.213,2.959-0.372,3.919,1.706
		c-0.488,2.598-1.66,5.179-3.156,7.45c-4.739-0.084-5.047-4.312-7.164-6.725c-2.836,1.242-4.424,3.278-5.916,5.324
		c1.269,4.437,5.158,3.1,7.877,3.967c1.338,0.989,2.185,2.13,2,3.996c-2.918,1.675-6.678-1.543-9.891,2.206
		c-0.24,0.661-0.795,2.186-1.285,3.532c-1.699,0.957-2.742,0.273-3.869-1.001c0.535-1.243,1.104-2.566,1.604-3.729
		c-0.231-2.118-0.81-3.792-2.547-4.961c-2.218,0.069-3.976,1.406-5.813,2.144c-1.154,2.034,0.76,2.73,1.631,4.227
		c-4.024,0.939-4.114,5.104-6.42,7.568c1.256,1.349,3.601,1.043,4.605,3.409c-3.712,1.245-6.405,4.02-9.266,6.447
		c-1.971-0.65-0.522-2.644-1.639-3.651c-1.245-0.344-2.49-0.688-4.098-1.132c3.201-4.528,0.759-7.88-2.154-10.837
		c0.495-3.335,1.666-6.047,3.848-8.593c-5.029-4.884-3.314-13.74-10.707-16.995c-3.043,2.545,1.574,6.054-1.942,7.951
		c-3.095-2.307-3.63-3.851-2.897-8.644c7.577-4.382,16.667-0.62,20.194,8.233c2.233,2.397,4.763,0.8,7.188,0.691
		c1.695,1.977-2.17,4.589,1.254,6.513c1.675,0.418,2.908-0.813,4.166-2.364c-0.185-1.855-0.362-3.657-0.561-5.646
		c-2.188-2.303-4.104-4.926-4.398-8.234c-2.944-0.62-2.613,2.493-4.366,3.106c-5.73,1.299-2.771-5.686-7.259-6.205
		c2.897-2.447,5.39-3.938,5.988-6.551c-0.32-2.397-3.267-1.348-3.669-4.106c1.214-2.998,4.858-3.678,7.343-5.688
		c2.551,1.47,2.479,3.58,2.438,5.809c-0.137,7.361-0.186,14.681,9.468,16.546c2.431,0.47,2.242,3.378,3.63,5.348
		c3.875-4.229-0.503-7.179-0.894-10.528c-0.623-5.348-5.775-3.296-8.404-5.229c0.587-3.891,5.683-3.817,6.187-7.714
		c-1.189-1.271-2.406-2.572-3.695-3.949c0.604-1.658,1.164-3.202,1.703-4.685c-0.559-2.344-1.901-3.537-3.901-3.521
		c-2.302,0.336-1.604,2.639-3.174,3.578c-3.573-0.613-7.268,0.46-11.079,0.889c-1.592-0.775-2.236-2.258-2.951-4.241
		c4.631-0.532,9.19-0.747,13.201-2.119c1.223-1.594-0.113-2.884,0.279-4.269c0.141-1.731,2.848-2.389,2.227-4.51
		c-1.326-2.206-3.153-0.132-5.123-0.951c-0.762-0.562-1.955-1.442-2.566-1.894c-2.768-1.306-4.778,1.177-7.178-0.265
		c0.578-2.193,4.019-3.572,1.516-6.697c6.255,1.633,11.427,0.966,16.333-1.998c-0.362-4.061-2.854-4.531-5.656-4.563
		c-1.95-0.073-2.188,3.256-4.894,2.141c-0.588-4.097,4.31-3.986,4.881-6.81c3.883-0.418,7.349-0.51,9.964-2.466
		c2.729,1.785,2.254,4.151,2.813,6.196c-1.476,0.88-2.871,1.713-4.16,2.481c-1.053,4.19,2.144,4.858,4.229,5.9
		c1.818,1.311,1.063,3.89,3.367,4.634c2.53-3.662-0.418-6.99-0.669-10.892c4.634-3.145,6.4,1.388,9.036,3.539
		c2.644,0.487,3.723-1.597,4.929-2.758c0.837-2.165-1.37-2.978-0.766-5.974c0.375-1.167,2.328-2.546,4.358-3.891
		c3.456,2.881-1.517,4.97-0.052,7.608c2.063,2.036,4.436,3.043,7.48,0.773c1.133-2.126,0.594-5.111,2.576-7.259
		c3.366-0.556,4.153,6.092,8.604,2.812c1.299-1.479-0.551-3.217-0.168-5.646c2.264-3.836,8.627-2.358,10.742-7.297
		c2.77,2.161,1.753,4.755,0.25,5.195c-6.385,1.871-7.658,9.112-13.108,11.772c-0.298,0.146-0.576,0.327-0.865,0.49
		c-1.918,0.938-4.276-3.743-6.483,1.266c4.041,0.269,6.591,4.021,11.19,2.764c0.584-0.876,1.3-1.949,1.87-2.806
		c1.457-1.201,3.273,0.822,3.822-0.148c1.672-2.49-0.618-3.436-0.314-5.121c1.208-2.213,3.639-2.393,5.752-2.995
		c2.258,0.261,2.936,3.385,5.621,2.964c2.021-3.831-5.779-5.572-1.377-10.063c1.988-1.44,4.895,0.037,7.87-0.317
		c2.233-4.319,6.812-5.153,10.577-6.884c2.456,0.651,3.213,3.404,5.548,3.469c2.032-0.343,1.101-2.785,2.742-3.46
		c2.692-0.287,3.249,2.287,4.972,4.165c0.703-1.775-0.604-4.266,2.063-4.868c2.156,1.642,1.889,3.919,1.549,6.07
		c-1.014,1.948-3.323,0.753-4.949,2.863c0.898,4.021-0.27,7.888-5.223,9.205c-0.289,2.38,0.226,4.019,1.686,5.759
		c2.754-2.021,3.903-6.034,8.063-5.862c0.414-5.298,4.591-6.909,7.727-9.658c1.823,0.331,3.6,0.652,6.024,1.093
		c2.674-3.375,5.51-6.953,8.413-10.617c3.462-0.051,5.813,1.819,7.712,4.598c-0.483,1.906-2.839,1.64-3.619,3.164
		c-1.021,2.143-0.494,3.817,1.688,5.126c2.681-1.086,5.418-2.197,7.692-3.119c2.315-0.074,2.719,1.894,4.468,2.607
		c2.004-1.367,4.422-1.138,7.069,0.107c0.425-2.898-0.399-3.73-2.88-3.419c-1.775,0.224-3.553-0.242-5.338-1.552
		c2.09-3.128,6.093-1.437,8.022-3.551c4.242,0.467,8.16,0.899,12.08,1.337c1.949,2.689-1.799,3.916-1.654,6.418
		c4.537,0.423,8.031-3.103,12.63-3.167c2.291,2.364,5.053,4.366,8.579,5.816c2.349-0.796,4.859-0.548,6.933,1.244
		c3.944-0.477,8.297-3.021,10.354,2.706c-2.179,7.269-2.179,7.269-0.412,9.794c2.901-0.435,1.637-3.255,2.783-4.851
		c1.402-1.011,2.968-0.886,4.532-0.229c1.655,1.839-1.177,3.926,0.545,5.754c2.464,0.069,1.576-2.991,3.619-3.852
		c3.231,1.748,5.235,5.943,9.391,5.881c1.396,1.99,2.819,3.433,3.308,5.749c-0.518,1.311-1.109,2.813-1.687,4.271
		c6.883,4.645,14.06,8.729,17.569,17.224c0.951,0.297,2.328,0.727,3.941,1.23c-0.643,3.237-1.246,6.282-1.842,9.275
		c2.352,2.851,6.57,3.461,7.227,7.435c1.157,6.85-0.099,13.932,1.648,21.502c-0.146,1.798-3.037,2.829-3.266,6.091
		c4.201,4.417,1.299,10.487,2.121,16.153c-2.609,5.966-7.748,31.43-7.347,36.47c-0.913,1.779-3.151,0.871-4.584,2.408
		c-0.227,3.131,4.034,5.819,1.658,9.514c-1.485,2.28-5.412,2.137-5.795,5.863c0.085,1.559,2.307,2.255,2.121,4.575
		c-0.683,1.032-1.584,2.398-2.535,3.838c-0.179,1.729-0.362,3.523-0.501,4.877c-1.339,1.937-3.189,0.4-4.637,1.646
		c2.322,3.825-1.637,8.436,1.662,12.184c-1.207,4.407-3.813,8.453-1.766,13.271c-2.592,2.817-3.253,6.864-6.588,9.172
		c0.573,1.694,1.044,3.086,1.357,4.014c-2.68,7.709,3.08,16.647-4.584,22.424c0.092,2.589,2.802,4.035,1.598,6.497
		c-1.033,2.032-3.527,3.069-4.01,6.271c0.656,1.666,1.32,4.036-0.373,6.214c0.729,1.693,1.385,3.214,2.109,4.897
		c-1.433,2.152-2.881,4.327-4.207,6.318c0.418,2.297,2.432,3.067,3.37,5.047c0.435,2.881,1.722,6.049,0.388,9.307
		c0.969,1.355,1.822,2.554,2.675,3.746c-1.37,4.138-4.126,3.088-7.86,1.457c3.385,4.133,5.633,7.703,9.576,9.738
		c1.615,4.635,2.581,9.268,2.09,14.177c7.458,6.172,8.135,17.095,16.077,22.817c0.224,3.563,1.696,5.54,4.632,7.679
		c4.577,3.331,9.979,5.803,13.505,10.536c1.624,2.181,2.642,4.566,2.849,7.278c-1.168,1.602-2.827,2.355-4.651,3.351
		c-1.295-0.872-2.644-1.78-3.99-2.688c-4.518-0.122-8.491,1.548-12.661,3.683c-4.648-4.893-10.386-1.748-15.703-2.067
		c-3.695-0.224-7.598,1.844-10.717-1.498c-4.976,1.546-9.714-1.328-14.275,0.656c-5.619-6.503-15.26-1.394-20.021-8.173
		c-2.391,0.574-1.553,3.351-3.702,3.611c-1.514-0.663-0.388-2.994-1.916-3.469c-1.722-1.701-3.651,0.208-5.413-0.639
		c0.34-3.306,3.812-1.303,5.188-3.418c-0.428-2.647-2.926-4.996-2.145-8.521c-2.377,1.326-1.02,3.561-2.205,4.844
		c-1.162,0.93-2.324,1.858-3.599,2.879c-1.358,0.981-0.065,3.221-1.762,4.332c-2.144-1.306,0.104-4.422-2.687-5.719
		c-3.113,3.447-6.895,4.725-10.998,1.582c-2.634,0.866-4.881,2.096-7.465,1.887l0.079,0.016c-5.761-6.276-14.229-8.01-21.114-12.628
		c-2.649-0.216-5.444,1.51-8.221-0.167c-0.908-1.91-0.934-3.762,0.469-5.615c3.142-1.628,5.994,1.205,9.375,0.684
		c0.086-2.187-1.076-3.604-2.455-4.66c-1.99-0.913-2.854,1.18-4.865,1.063c-0.887-0.371-2.213-0.927-3.288-1.376
		c-2.207,0.868-1.423,3.211-3.442,4.716c-4.26-2.104-10.343-1.358-13.289-7.354c3.514-3.382,7.125-0.925,10.97-0.774
		c2.841-3.064,6.559-4.688,11.415-3.555c-2.846-4.803-8.207-3.678-11.51-6.423v0.004c-1.689-2.166,0.011-5.906-3.379-7.367
		c-4.619,1.892-1.313,5.463-1.813,8.479c-1.4,2.787-5.301,3.777-6.066,7.229c-1.414,0.502-2.645,0.939-3.203,1.138
		c-2.328,1.689-0.33,3.638-1.512,5.187c-3.58,0.769-3.855-2.821-5.604-4.059c-0.191-1.906,1.416-2.505,1.925-4.109
		c-0.938-1.598-1.392-3.662-1.694-5.695c-3.414-1.039-3.162,2.229-4.843,3.875c-2.11-4.08-5.956-2.084-9.306-2.195
		c-0.226-3.939,2.857-4.259,4.587-5.736c1.423-1.226,0.474-3.276,1.608-4.54c3.102-3.845,6.375,2.215,9.698-0.203
		c0.568-4.069-2.718-7.066-2.989-11.361c0.891-1.934,3.397-3.629,2.864-6.317c3.533-2.473,7.443-0.177,10.234-2.49
		c1.506,0.967,2.6,1.668,4.586,2.943c-0.832-5.562-8.379-9.061-3.812-14.464c1.748-1.426,2.758,0.941,4.073-0.03
		c0.774-1.506-1.524-2.2-0.954-3.715c1.807-2.901,6.422-3.05,6.912-6.537c1.027-2.063-0.336-3.418-0.167-4.615
		c1.159-4.24,9.239-10.229,13.255-9.955c0.748-0.999,1.535-2.05,2.209-2.951c2.418-1.111,6.504,0.588,6.18-4.463
		c-1.1-0.93-2.336-1.975-3.487-2.949c-0.302-4.838-0.302-4.838,5.368-12.857c0.759-1.791-0.53-3.301-0.475-4.916
		c0.344-1.683,1.479-2.543,2.537-3.022c2.571-0.339,2.873,3.421,5.615,2.147c1.502-3.56-2.542-2.929-3.92-4.989
		c-2.549-3.244-1.538-8.023-3.221-12.155c1.057-1.838,4.418-1.23,4.412-3.834c0.571-2.129-1.921-2.976-1.466-4.742
		c0.203-2.097,3.025-1.505,3.384-3.813c-0.803-1.931-4.726-2.001-3.94-5.679c1.271-1.814,4.753-0.967,5.497-3.606
		c1.965-0.573,3.563,0.923,5.219,0.005c1.771-1.049,1.873-2.474,1.176-3.919c-2.9-1.794-4.002,3.592-6.84,1.197
		c-1.17-2.571,2.754-3.318,1.777-6.414c-1.209-1.923-5.672-1.162-5.889-5.077c-1.709-0.278-3.16-0.516-4.578-0.746
		c-2.316-3.037,0.489-5.396,0.873-8.155c-0.408-3.301-3.027-6.244-2.029-9.778c-3.285-3.886-5.353,0.2-7.746,0.919
		c-1.74-0.494-2.65-1.529-2.877-3.485c2.346-2.131,6.363-1.639,8.463-4.875c-0.863-3.137-3.317-4.439-6.53-5.246
		c-1.429,1.651-2.81,3.249-4.271,4.938c-7.637-0.457-4.666-10.897-13.418-11.33c-2.963,1.396-6.035-1.324-8.776-4.701
		c0.095-1.373,0.711-2.035,1.792-2.28c1.909,0.251,2.158,2.492,3.992,3.162c2.734,0.271,3.578-1.248,3.373-3.882
		c-2.107-1.319-4.732-1.33-5.826-3.484c-2.796-0.228-5.641,1.864-7.672-1.129c-0.715-5.198,7.389-4.84,6.462-10.172
		c-1.589-2.352-3.897-2.263-6.546-2.003c-0.943,0.814-2.047,1.767-2.785,2.405c-2.169,0.654-3.084-1.301-4.751-1.126
		c-2.738,0.889-0.757,5.504-4.688,5.815c-2.523-3.202,2.58-6.039,1.368-7.937c-2.146-3.873-5.207-2.854-6.632-3.581
		c-4.236-3.815,1.143-7.834-1.031-11.525c-2.521,1.247-1.128,3.364-1.752,4.941c-1.188,0.896-2.379,1.791-3.693,2.782
		c1.014,1.604,1.775,2.812,2.594,4.104c-1.596,2.584-3.67,4.392-6.219,6.215c-4.301-1.718-8.794-2.799-11.594-6.961
		c-1.787-0.228-3.563-0.454-5.582-0.711c0.672-4.042,3.725-5.919,5.785-7.659c1.516-2.547-0.418-3.989-0.553-5.554
		c1.463-3.51,3.893-5.878,7.426-7.339c-2.189-3.657-4.199-0.63-6.121-0.535c-1.56-0.773-1.068-3.257-3.11-3.688
		c-2.067-0.359-3.208,1.068-4.22,2.175c-0.623,2.042,1.674,2.224,1.643,3.826c-0.195,1.831-1.834,2.425-3.311,3.18v0.003H1234.446z"
		/>
	<path fill="#1A1718" d="M1234.446,222.531c1.721,2.99,2.844,6.121,2.063,10.082c-4.459,1.714-6.766,6.107-9.811,9.301
		c0.44,2.704,3.42,3.676,2.343,6.661c-2.691-0.551-5.451,1.108-8.584-0.011c-1.661-3.726-3.516-7.478-7.014-10.033l0.003,0.002
		c-1.425-2.977-0.122-4.082,2.771-3.812c1.604,0.15,3.133,1.259,4.977,0.203c2.879-2.914,2.056-6.524,1.266-9.958
		c1.201-2.922,4.482-4.369,4.251-8.104C1230.055,218.316,1230.95,222.25,1234.446,222.531L1234.446,222.531L1234.446,222.531z"/>
	<path fill="#1A1718" d="M1223.109,137.027c-2.293,2.316-4.446,2.56-6.81,2.603c0.215,2.362,3.191,2.176,3.265,4.356
		c-1.893,1.281-4.135,1.715-6.274,2.225c-1.688-0.547-3.222-1.147-4.638-2.723c-0.144-2.145-0.307-4.576-0.477-7.131
		C1213.244,134.364,1217.911,135.021,1223.109,137.027z"/>
	<path fill="#1A1718" d="M1263.479,251.311c0.308,1.469,0.644,3.07,1.133,5.409c-1.866-0.852-3.225-1.471-4.473-2.039
		c-1.15-2.854-0.514-5.488-0.627-7.812c1.404-1.887,2.994-2.512,4.82-2.725C1265.313,247.295,1265.313,247.295,1263.479,251.311z"/>
	<path fill="#1A1718" d="M1213.443,238.531c2.092,6.408,1.974,8.094-0.717,10.237c-1.838-0.741-0.305-2.387-0.957-3.533
		c-1.193-1.354-3.207-0.146-5.088-1.782c-0.559-4.949,4.236-3.639,6.764-4.92L1213.443,238.531z"/>
	<path fill="#1A1718" d="M1298.446,452.53c0.614,2.469,1.438,5.03-2.339,5.587c-1.51-0.813-1.756-2.014-1.395-3.475
		c0.809-1.453,2.211-1.886,3.732-2.108L1298.446,452.53L1298.446,452.53z"/>
	<path fill="#1A1718" d="M1309.925,128.117c0.019,1.841-0.335,3.425-1.601,4.715c-1.688-0.179-2.364-1.102-2.52-2.574
		C1306.648,128.712,1307.878,127.925,1309.925,128.117z"/>
	<path fill="#1A1718" d="M1303.52,129.296c0.905,2.819-0.807,4.07-2.045,5.489C1301.421,132.908,1300.818,130.833,1303.52,129.296z"
		/>
	<path fill="#1A1718" d="M1237.175,137.351c-0.698,1.962-1.745,2.171-3.144,1.691
		C1234.554,135.914,1234.554,135.914,1237.175,137.351z"/>
	<path fill="#1A1718" d="M1239.984,247.489c0.502-1.629,1.144-2.445,2.65-2.431c0.203,0.332,0.635,0.712,0.637,1.095
		C1243.282,248.719,1242.046,248.696,1239.984,247.489z"/>
	<path fill="#1A1718" d="M1319.552,366.513c-2.649-0.806-3.291-1.598-2.653-3.104
		C1318.505,363.507,1318.299,364.865,1319.552,366.513z"/>
	<path fill="#1A1718" d="M1323.689,320.059c0.711,0.805,0.843,1.441-0.31,1.899C1322.313,321.109,1322.335,320.5,1323.689,320.059z"
		/>
	<path fill="#CDC0B6" d="M1135.35,387.527c-0.393,1.433-1.567,1.839-2.815,2.152C1132.553,387.76,1133.857,387.523,1135.35,387.527z
		"/>
	<path fill="#ECDBC5" d="M840.962,586.336c-0.245,1.201-0.86,1.194-1.715,0.577C839.55,585.895,840.038,585.52,840.962,586.336z"/>
	<path fill="#2D6C57" d="M120.424,858.232c1.808-34.996-0.018-70.021,1.398-105.558c20.982,21.813,41.966,43.625,63.22,65.722
		c4.85-3.564,9.034-6.64,13.624-10.013c0,8.701,0,16.67,0,25.068c-22.077,0.039-43.456,1.446-65.229,0.934
		c-1.77,7.949-0.368,15.488-1.424,22.97c-3.65,1.744-7.564,0.606-11.269,1.192C120.747,858.551,120.424,858.232,120.424,858.232z"/>
	<path fill="#3C9C82" d="M278.453,745.564c1.457,10.643,0.133,21.268-0.183,31.896c-12.443,0.076-24.907,2.201-37.709-0.514
		C251.548,764.303,265.235,755.213,278.453,745.564z"/>
	<path fill="#246158" d="M1048.4,708.377c2.041,0.576,4.08,1.152,7.248,2.049c-10.077,3.146-19.518,4.31-28.793,6.185
		c-7.094,1.436-14.48,1.272-21.353,3.92c-1.724,0.319-3.448,0.641-5.172,0.961c-7.146,1.086-13.534,4.895-20.776,5.709
		c-3.111,0.352-6.17,1.418-9.149-0.293c-2.324,0.582-4.533,1.223-6.828,1.391c-5.401,0.867-10.803,1.734-16.303,2.617
		c-5.856,10.836-9.416,22.406-14.953,33.949c-5.384-9.412-8.148-19.423-14.183-28.527c-7.479,1.211-15.178,2.265-22.796,3.729
		c-19.417,3.729-38.798,7.649-58.198,11.471c-0.799,0.158-1.645,0.086-2.469,0.121c-6.392-0.969-12.822-0.262-19.598-0.287
		c-13.627,5.969-13.85,5.982-17.421,0.924c-0.224-2.277,2.53-3.066,2.599-5.324c-0.26-1.695-1.26-2.483-3.422-2.053
		c-2.427,3.426-6.284,6.105-6.852,10.574c-3.722,2.141-7.467,2.098-10.688,2.984c-2.597-0.449-4.04-2.966-6.546-2.632
		c-1.803,0.615-0.881,2.951-2.478,3.527c-4.183,3.379-9.974,0.754-14.213,4.225c-5.486-2.631-11.459,0.479-17.44-1.567
		c1.806-3.389-1.28-7.137,1.581-10.012c2.178-0.949,3.271,1.93,5.902,0.889c0.049-5.346-7.805-4.75-7.623-10.563
		c1.112-1.635,4.315-0.521,5.672-2.537c3.303,1.011,4.039,3.63,4.849,6.095c4.888,1.678,5.252-3.689,8.312-5.174
		c2.284,0.362,4.709,0.747,7.468,1.188c0.184,2.582-1.257,5.838,2.709,7.383c2.06-1.072,4.903,0.504,8.62-1.682
		c-4.756-0.142-6.899-1.98-7.535-5.73c0.818-1.992,2.604-4.041,1.031-6.883c2.361-0.24,4.308-0.125,6.223-1.26
		c0.111,1.32,0.189,2.264,0.273,3.27c1.965,0.701,3.834,0.9,5.767-0.168c0.334-1.938-2.062-2.637-1.98-4.301
		c2.664-3.689,6.627-2.68,11.505-2.176c-3.595-4.08-6.688-3.789-9.808-2.896c-2.51-1.223-4.906-2.465-7.651-1.18
		c-3.119-3.555,0.161-5.521,1.44-8.227c3.483,1.315,7.231,1.188,10.21,3.389c2.829-0.883,5.816-0.596,8.143-2.805
		c2.697,0.686,5.395,1.37,8.06,2.047c1.245-1.187,0.076-3.129,1.903-4.367c1.621-0.617,2.221,1.945,4.479,2.008
		c2.343-1.461,5.904,1.42,8.806-1.102c-0.369-2.648-5.098-1.154-3.92-5.277c4.137-1.182,8.237,3.367,12.639,0.959
		c1.712-2.039-0.391-3.59-0.998-5.432c0.873-1.586,1.729-3.146,2.617-4.759c2.896,0.207,3.086,3.666,5.82,4.063
		c1.348-0.383,2.19-1.402,2.045-3.121c-0.785-1.994-4.838-1.979-3.181-5.385c2.79-1.881,4.554,0.182,6.379,1.793
		c1.854-0.324,3.235-2.068,5.104-1.438c1.852,0.105,2.261,2.052,4.07,2.666c1.273-0.207,2.883-0.469,3.91-0.637
		c3.318,0.264,3.51,3.521,5.659,4.385c1.848-0.551,0.131-2.188,1.352-3.192c3.548,0.135,5.839-4.449,10.093-3.388
		c3.858-3.09,8.26-1.641,12.444-1.334c11.089,0.814,22.208,0.484,33.201,1.677c6.752-7.623,8.867-17.91,16.964-24.767
		c9.001,7.146,11.02,18.115,17.872,27.127c6.088,1.259,13.082,2.729,20.228,3.445c0.42-0.049,0.84-0.097,1.262-0.146
		c1.639,0.01,3.275,0.021,4.912,0.031c4.55-2.504,8.811-1.242,12.994,1.004c10.309,2.176,20.72,2.443,31.187,1.664
		c7.815-2.965,15.763-0.875,23.663-0.625C1045.218,706.609,1046.752,707.617,1048.4,708.377z"/>
	<path fill="#78BCA9" d="M969.271,704.619c-6.782,0.635-13.474-0.354-20.16-1.213c-2.292-0.293-2.82-2.353-3.82-4.135
		c-4.428-7.896-7.961-16.33-13.989-24.201c-6.149,8.108-9.808,17.188-15.216,25.465c-16.009-0.695-31.766-1.379-47.521-2.064
		c-3.004-1.479-6.241-0.779-9.348-0.83c-32.292-0.522-64.512-3.043-96.818-3.354c-8.627-0.082-17.295-0.479-25.942-0.775
		c-5.12-1.99-10.46-0.791-15.692-0.977c-2.714-0.098-4.873-0.582-6.264-3.045c-3.113-4.072-2.367-8.475-1.107-12.922
		c-4.977-1.965-9.97-0.979-14.909-0.578c-2.157,4.332-0.278,8.674-1.729,13.33c-9.303,1.19-18.659-3.287-28.578-0.683
		c-1.478,1.675-0.489,3.798,0.283,6.025c3.2,9.228,6.312,18.483,9.455,27.729c0.604,1.777,1.003,3.537-0.647,5.563
		c-6.679,1.451-13.699-0.275-21.502,0.512c-2.5-13.848,1.498-27.686-2.115-40.924c-3.188-2.133-7.104,0.272-10.153-1.906
		c3.313,0,6.625,0,9.346,0c2.662-1.909,2.597-4.106,2.595-6.288c-0.004-4.664,0.078-9.33-0.021-13.994
		c-0.085-3.931,1.576-5.925,5.622-5.847c13.634,0.265,27.293-0.758,40.901,0.937c2.633,0.328,5.334,0.377,7.896-0.869
		c2.872,1.852,6.054,1.996,9.164,1.916c22.979-0.592,45.832,2.238,68.806,2.522c13.896,0.175,27.938,0.654,41.813,1.843
		c23.523,2.012,47.109,2.307,70.632,3.862c13.433,0.892,26.865,1.855,40.313,2.172c6.119,0.146,12.229-0.592,18.901,1.695
		c2.73,9.42-0.719,19.776,1.959,29.281C964.446,703.545,966.857,704.082,969.271,704.619z"/>
	<path fill="#3D9E8A" d="M481.38,769.145c-7.692,0.841-14.714,1.605-21.561,2.354c-4.566-7.305-3.23-36.369,1.45-41.037
		c5.125,0,10.035,0.015,14.943-0.004c3.188-0.012,5.127,1.438,5.145,4.719C481.416,746.281,481.38,757.387,481.38,769.145z"/>
	<path fill="#E5D5C2" d="M459.048,773.215c7.13-1.387,13.859-2.508,21.267-1.006c-1.502,11.422-3.072,22.172-11.095,32.518
		C463.523,794.164,459.594,784.447,459.048,773.215z"/>
	<path fill="#57A295" d="M1264.614,679.602c6.514-5.348,11.276-12.283,16.825-18.508c1.185-1.328,2.271-2.854,4.087-3.475
		c-0.814,3.504-4.907,4.813-6.201,9.412c7.244-0.787,13.885-1.264,20.423-2.353c2.253-0.375,4.458-1.151,6.797-1.077
		c9.012,0.286,17.723-1.578,26.412-3.63c0.959-0.225,1.968-0.282,2.958-0.327c15.526-0.709,30.806-3.527,46.187-5.466
		c6.563-0.827,13.106-1.809,19.682-2.532c1.986-0.22,3.656-0.357,3.889-2.783c6.648,10.916,12.411,22.354,19.662,32.906
		c0.045,1.127,0.533,2.297-0.268,3.321c-8.742,2.375-156.614,9.025-161.629,7.076C1263.818,688.08,1264.217,683.84,1264.614,679.602
		z"/>
	<path fill="#68A392" d="M1438.355,592.439c-3.119-4.651-5.935-9.47-8.064-14.661c6.241,2.579,12.348-0.214,18.464-0.689
		c6.56-0.512,13.043-1.989,19.687-1.577c0.113,1.855-3.68,3.303-0.571,5.504c1.993,0.549,3.315-1.445,4.749-1.332
		c2.383-0.255,3.855,1.101,5.807,1.613c1.531,0.533,2.229-1.755,4.317-1.438c2.13,0.992,1.979,4.596,4.7,5.552
		c-1.325,1.606-2.976,2.694-5.088,2.821c-13.754,0.814-27.336,3.205-41.035,4.514
		C1440.302,592.842,1439.342,592.553,1438.355,592.439z"/>
	<path fill="#32271C" d="M1301.314,603.977c-4.465,0.025-6.156-2.992-7.418-6.422c1.07-1.756,3.009-0.647,4.113-1.722
		c21.928-1.026,43.86-2.052,65.793-3.077c0.059,0.374,0.118,0.748,0.178,1.122C1343.092,597.245,1322.204,600.611,1301.314,603.977z
		"/>
	<path fill="#4E998A" d="M1752.388,666.516c-0.954,1.806-1.975,3.041-4.463,3.176c-22.041,1.205-44.094,2.316-66.099,4.021
		c-28.109,2.177-56.289,2.996-84.405,4.935c-16.703,1.149-33.422,2.002-50.129,3.035c-18.892,1.17-37.765,2.456-56.692,2.77
		c-0.105-0.27-0.197-0.547-0.271-0.828c1.137-0.145,2.354-0.133,3.075-1.689c-2.358-6.619-3.998-13.717-10.756-17.951
		c-3.016-1.889-2.853-5.012-2.24-7.506c-0.444-2.852-3.644-3.922-2.491-7.307c4.665-2.564,9.534-5.682,15.588-4.045
		c1.722-0.361,2.017-2.527,3.828-2.447c4.142,0.078,4.776,3.875,6.44,6.479c4.198-0.625,3.446-3.468,3.006-6.479
		c8.514-5.168,18.137-2.133,27.053-3.461c1.99-1.623,2.738-3.813,3.51-6.09c-3.828-8.529-0.581-17.271-0.855-26.005
		c0.627-1.328,1.256-2.657,1.93-4.083c-0.648-1.343-1.286-2.664-1.805-3.738c0.646-4.516,4.81-3.09,7.043-4.699
		c1.427-1.17-0.231-2.98,1.029-4.385c3.93,1.103,7.988-1.777,11.981,0.422c3.079-1.671,6.104-3.062,9.61-1.457
		c1.301,1.331,1.635,3.112,1.95,4.842c-0.472,1.93-3.125,1.453-3.584,4.125c-0.248,3.03,3.818,2.364,5.236,4.211
		c0.08,4.13-4.841,1.485-5.647,4.369c0.913,1.586,2.562-0.342,3.438,0.701c4.42,3.489,5.049,11.563,1.08,17.457
		c4.778-0.431,6.461,3.004,8.508,6.698c6.295-1.963,10.503,3.306,15.521,4.896c10.127-5.672,22.515-7.538,26.727-20.537
		c8.837,5.26,16.396,15.029,27.216,6.018c2.291-0.142,3.899,1.371,5.925,0.63c1.557-2.866,0.936-6.052,0.979-8.952
		c3.18-5.112,9.224-6.138,13.416-9.518c-0.888-2.866-2.349-5.102-0.944-8.428c6.561-3.601,6.901-10.859,6.788-18.372
		c3.771,2.987,2.292,5.459,0.844,8.096c3.04,2.908,0.726,7.069,2.437,9.946c0.177,2.269-2.514,2.018-2.455,4.236
		c0.615,1.092,1.423,2.522,2.377,4.217c-0.839,3.149-0.911,6.391,2.558,9.128c2.621,0.491,5.618,1.372,7.244,4.92
		c9.615-4.156,19.688-6.677,23.333-17.669c9.078,1.019,17.046,3.838,22.413,10.387c3.088-1.212,2.41-3.477,4.003-4.936
		c5.979-1.604,12.271-3.729,19.271-2.545c2.373-0.75,4.734-1.883,6.188-4.338c-1.776,14.019-3.538,28.035-5.333,42.047
		C1754.664,649.381,1753.516,657.947,1752.388,666.516z"/>
	<path fill="#BCADA3" d="M1682.237,611.587c-3.455-15.485-3.113-31.263-2.138-48.582c12.845-3.151,26.595-4.696,40.767-5.948
		c0.11,3.209-0.45,5.4-1.455,7.491c-6.377,13.272-12.92,26.468-19.072,39.843c-2.137,4.646-5.245,7.104-10.226,7.025
		C1687.534,611.375,1685.025,613.439,1682.237,611.587z"/>
	<path fill="#241C19" d="M1503.382,617.355c0.017,0.455,0.033,0.908,0.052,1.365c0.01,6.949,0.02,13.895,0.028,20.84
		c-2.981,1.286-6.239-0.3-9.229,0.891c-1.442-0.166-2.885-0.332-5.346-0.615c0-8.879,0-17.643,0-26.407
		c-0.029-4.905,0.379-9.815-0.235-14.712c0-7.951,0-15.9,0-24.35c4.564-0.905,8.843-1.061,13.855,0.816
		c0,8.32-0.038,16.584,0.015,24.846C1502.559,605.814,1502.132,611.628,1503.382,617.355z"/>
	<path fill="#4E998A" d="M1714.729,584.289c1.744-0.989,2.823-0.215,3.869,0.583c1.193,1.862,0.602,11.698-0.93,13.423
		c-2.224-0.907-3.958-3.38-7.143-2.159C1711.252,591.367,1713.174,587.755,1714.729,584.289z"/>
	<path fill="#4E998A" d="M1488.65,598.717c0.908,4.893,0.656,9.803,0.236,14.714c0-0.002-0.348,0.087-0.348,0.087
		c-0.107-3.972-0.215-7.943-0.324-11.916C1488.359,600.639,1488.505,599.678,1488.65,598.717z"/>
	<path fill="#4E998A" d="M1494.23,640.451c2.961-1.492,6.18-0.332,9.23-0.891c-0.143,2.698-1.945,0.926-2.93,0.983
		C1498.441,640.672,1496.333,640.5,1494.23,640.451z"/>
	<path fill="#4E998A" d="M1537.262,591.188c-1.027-1.422-0.685-2.295,0.881-3.156
		C1539.583,589.648,1539.198,590.512,1537.262,591.188z"/>
	<path fill="#4E998A" d="M1487.354,677.641c-1.451-1.432-2.47-3.135-3.148-5.051c0.969,0.516,1.938,1.031,2.99,1.59
		C1487.251,675.434,1487.302,676.537,1487.354,677.641z"/>
	<path fill="#63AC9D" d="M963.577,728.297c12.226-2.412,24.396-5.129,36.756-6.807c-2.076,1.863-5.151,1.098-7.729,3.109
		c-1.061,16.541,2.509,33.645-0.478,50.807c-7.589-0.258-13.907,1.34-20.569-1.971c0-14.939,0-29.998,0-44.853
		C968.432,727.256,965.982,729.271,963.577,728.297z"/>
	<path fill="#237265" d="M713.391,676.568c2.11,4.158,0.264,8.656,1.107,12.922c1.436,12.143-0.273,24.246-0.086,36.412
		c-5.195,4.51-10.87,2.051-16.801,2.479c-2.127-17.365,1.513-34.02,0.791-50.939C703.816,675.795,708.656,676.887,713.391,676.568z"
		/>
	<path fill="#246158" d="M748.462,728.598c1.673,3.051,4.365,4.599,6.97,6.601c-1.092,4.315-3.463,5.149-7.48,3.317
		c0.542-1.742,1.021-3.283,1.5-4.824C749.922,731.939,747.339,730.973,748.462,728.598z"/>
	<path fill="#246158" d="M755.708,726.811c0.79-2.297,1.173-4.162,0.333-5.862c1.02-1.56,2.379-1.933,3.908-2.095
		c1.82,1.603,2.602,3.461,2.359,5.732C760.813,726.76,759.003,727.752,755.708,726.811z"/>
	<path fill="#246158" d="M799.555,709.125c1.489,1.094,1.926,2.207,1.417,3.844c-2.032,1.322-4.056,3.029-7.221,2.076
		C794.153,711.092,798.182,711.488,799.555,709.125z"/>
	<path fill="#246158" d="M737.243,711.141c-0.24,2.572-1.593,2.767-3.343,3.015C733.551,711.338,734.482,710.479,737.243,711.141z"
		/>
	<path fill="#D9CDB6" d="M746.548,797.605c21.956,29.426,22.884,133.684,0,160.317C746.548,904.465,746.548,851.006,746.548,797.605
		z"/>
	<path fill="#242722" d="M1246.29,707.73c0.371-4.396-1.072-8.791,0.012-13.187c-1.704-1.44-1.909-3.432-1.86-5.442
		c0.49-20.373-1.724-40.701-1.043-61.078c0.082-2.486-0.109-5.021,1.871-6.986c0-13.792,0-27.584,0-42.646
		c2.713,3.406,3.865,6.081,4.244,9.131c2.959,10.371,1.95,21.029,1.979,31.563c0.034,13.057,1.763,26.075,0.584,39.165
		c-0.513,5.699,0.062,11.438,1.03,17.121c0.39,2.272,0.267,4.639,0.324,6.963c0.355,14.449-0.879,28.938,1.168,43.35
		c0.297,2.101-0.041,4.289-0.084,6.437c-1.503,6.525-3.324,12.947-7.014,19.008C1247.1,736.662,1246.693,722.197,1246.29,707.73z"/>
	<path fill="#58A38C" d="M661.904,1097.502c14.113,1.439,27.776-0.975,41.678-0.801c2.338,3.604,4.361,7.129,1.068,10.854
		c-7.213,3.476-14.619,1.787-21.731,2.699c-8.991,1.154-18.108-0.141-26.995,0.994c-4.371,0.559-8.881,0.553-13.14,1.559
		c-6.128,1.447-12.192-0.451-17.826,0.74c-2.454-1.666-2.547-3.941-3.222-6.043c0.941-2.631,2.041-5.199,3.709-7.199
		C637.738,1097.158,650.338,1100.529,661.904,1097.502z"/>
	<path fill="#B9B7AC" d="M1245.27,621.038c0.346,24.501,0.688,49.003,1.033,73.505c-2.058,0.924-4.119,1.201-6.83-0.23
		c-0.697-30.092-1.401-60.473-2.105-90.854c0-12.825,0-25.647,0-38.473c0.537-0.074,1.074-0.148,1.611-0.224
		c3.037,3.781,5.557,7.745,5.547,13.036c-0.024,13.131,0.068,26.263,0.15,39.396C1244.684,618.484,1244.352,619.87,1245.27,621.038z
		"/>
	<path fill="#63AF9E" d="M988.438,705.51c-4.396,0.504-8.676-0.516-12.994-1.004c-0.487-3.309-1.379-6.578-0.997-9.975
		c1.813-2.121,0.182-4.736,1-7c0-0.332,0-0.666,0-1c4.87-2.535,3.946,2.92,6.594,4.771c1.594-4.569-3.715-8.473-0.447-13.096
		c-3.002,1.742-4.521,0.99-5.142-1.674c-0.221-4.011-1.534-7.929-1.006-12c-0.176-5.707,3.244-10.488,4.117-15.979
		c0.521-3.283,3.275-5.135,6.883-5.022c1.021,7.6,2.652,15.092,2.539,22.866c-0.153,10.705,0.166,21.425,0.533,32.129
		C989.604,701.012,986.505,702.859,988.438,705.51z"/>
	<path fill="#64AF9F" d="M1048.4,708.377c-9.637,0.674-19.176-1.037-28.777-1.201c4.212-1.387,6.079-4.342,5.82-8.709
		c-0.241-4.08,1.007-7.395,4.394-9.979c2.953-2.256,2.886-6.58,5.011-8.863C1043.845,687.281,1045.563,698.078,1048.4,708.377z"/>
	<path fill="#64AF9F" d="M986.446,643.531c-1.931,1.49-3.859,2.981-5.373,4.15c-1.136,2.348,0.286,4.018,0.235,5.11
		c-0.492,2.535-2.666,2.701-3.396,4.207c-0.831,1.506,0.497,2.844,0.385,4.129c-0.392,1.763-1.536,2.656-2.852,3.404
		c-1.687-1.617-2.602-3.595-1.502-5.767c2.096-4.149,2.983-8.283,0.743-12.135c0.97-3.365,3.5-3.938,5.85-4.963
		C982.493,642.182,984.684,642.131,986.446,643.531z"/>
	<path fill="#64AF9F" d="M976.451,676.533c0.855,0.412,1.161,1.725,1.861,1.594c2.591-0.627,1.504-3.207,3.916-4.439
		c0.976,3.533,1.177,6.687-0.469,9.795c0.567,2.31,3.188,3.121,3.56,5.582c-0.478,2.066-2.091,3.486-3.156,5.209
		c-2.813-0.664-3.402-2.436-3.328-4.561c0.086-2.42-1.201-3.248-3.389-3.182C975.368,683.158,976.975,679.953,976.451,676.533z"/>
	<path fill="#64AF9F" d="M975.446,687.531c0.436,1.172,0.87,2.346,1.422,3.83c-0.716,0.936-1.568,2.053-2.422,3.17
		C974.759,692.195,973.653,689.656,975.446,687.531z"/>
	<path fill="#241F21" d="M1220.453,179.817c-5.868,2.084-8.156-3.254-12.12-4.005c-1.173-2.369-1.255-4.535,0.086-7.404
		C1213.417,171.122,1217.816,174.036,1220.453,179.817z"/>
	<path fill="#241F21" d="M1183.251,227.197c-0.164-2.159-1.744-3.4-1.196-5.511c3.106-1.95,5.805-1.9,8.063,2.002
		c-1.747,1.976-2.473,4.123-0.942,6.278c-1.537,1.983-2.873,3.646-5.351,3.91C1181.229,231.849,1182.98,229.43,1183.251,227.197z"/>
	<path fill="#241F21" d="M1212.123,194.595c4.28,0.3,5.867,2.003,4.734,5.922c-2.541,1.19-5.145,1.628-8.061,1.542
		C1208.639,198.835,1210.994,197.197,1212.123,194.595z"/>
	<path fill="#241F21" d="M1206.423,188.88c1.701-2.247,3.162-2.024,4.744-0.603C1209.723,191.839,1209.723,191.839,1206.423,188.88z
		"/>
	<path fill="#241F21" d="M1201.243,162.64c-2.111-1.339-1.875-2.311-0.42-3.484C1202.574,159.986,1202.542,160.987,1201.243,162.64z
		"/>
</g>
</svg>
