<?xml version="1.0" encoding="utf-8"?>
<!-- Generator: Adobe Illustrator 16.0.2, SVG Export Plug-In . SVG Version: 6.00 Build 0)  -->
<!DOCTYPE svg PUBLIC "-//W3C//DTD SVG 1.1//EN" "http://www.w3.org/Graphics/SVG/1.1/DTD/svg11.dtd">
<svg version="1.1" id="Layer_1" xmlns="http://www.w3.org/2000/svg" xmlns:xlink="http://www.w3.org/1999/xlink" x="0px" y="0px"
	 width="700px" height="262.146px" viewBox="0 0 700 262.146" enable-background="new 0 0 700 262.146" xml:space="preserve">
<path fill-rule="evenodd" clip-rule="evenodd" fill="#447484" d="M700,132.275c-1.631,4.967-3.416,9.89-4.854,14.912
	c-2.058,7.181-3.868,14.432-5.767,21.657c-0.532,2.028-1.109,4.063,2.311,3.808c5.849-0.436,2.459,4.129,3.184,6.328
	c0.935,2.84-1.309,2.925-3.467,3.201c-7.214,0.924-14.383-0.476-21.581-0.192c-2.3,0.091-4.478-0.167-4.44,3.071
	c-0.484,0.71-1.172,0.83-1.953,0.682c-3.732-3.315-12.625-3.144-17.125,0.346c-1.679,0.438-3.282,0.549-4.523-0.984
	c0.686-0.596,1.371-1.192,2.057-1.789c-0.74-0.429-1.436-1.073-2.229-1.232c-1.125-0.225-2.357-0.288-3.479-0.076
	c-4.348,0.819-5.253-1.11-5.158-5.15c0.088-3.663,1.458-3.962,4.527-3.616c6.394,0.721,6.373,0.562,6.428-5.744
	c0.32-37.631,0.66-75.262,0.993-112.893c0.008-0.833-0.165-1.729,0.089-2.481c0.302-0.896,0.974-1.665,1.485-2.489
	c0.492,0.888,1.38,1.764,1.409,2.666c0.131,4.155,0.033,8.319,0,12.479c-0.279,34.619-0.567,69.238-0.839,103.857
	c-0.018,2.254-0.55,4.396,3.212,4.722c3.801,0.328,4.732-0.465,4.749-4.299c0.121-27.644,0.489-55.287,0.782-82.931
	c0.012-1.165-0.129-2.369,0.129-3.479c0.129-0.552,1.014-1.302,1.534-1.285c0.538,0.019,1.374,0.784,1.503,1.353
	c0.25,1.112,0.111,2.316,0.111,3.481c0.004,19.43,0.002,38.858,0.002,59.749c7.714-16.642,14.86-32.059,22.007-47.476
	c0.354,0.07,0.708,0.141,1.062,0.211c-0.168,1.308-0.15,2.672-0.532,3.913c-6.91,22.46-13.888,44.899-20.72,67.383
	c-0.201,0.659,0.933,2.444,1.596,2.529c4.295,0.553,7.317-0.322,9.73-5.024c8.1-15.78,16.957-31.173,25.591-46.677
	c0.389-0.697,1.437-1.028,2.177-1.529C700,123.608,700,127.942,700,132.275z"/>
<path fill-rule="evenodd" clip-rule="evenodd" fill="#447484" d="M0,186.275c6.328,0.42,12.656,0.84,18.984,1.261
	c0.536,0.959,0.826,1.904-0.146,2.785c-6.279-0.016-12.559-0.03-18.838-0.046C0,188.942,0,187.608,0,186.275z"/>
<path fill-rule="evenodd" clip-rule="evenodd" fill="#0929A8" d="M587.258,0.366c26.371,0.319,52.741,0.624,79.111,0.986
	c1.946,0.026,3.887,0.47,5.83,0.72c-2.386,2.151-5.523,1.464-8.285,2.192c-6.934,1.262-13.879,2.458-20.797,3.802
	c-11.043,2.146-22.076,4.354-33.101,6.6c-15.147,3.085-29.805,7.898-43.915,14.06c-9.356,4.086-18.302,9.239-27.055,14.537
	c-6.08,3.681-11.52,8.419-17.244,12.685c-2.172-0.086-1.924-1.901-2.164-3.218c-0.328-1.796-0.272-3.651-0.176-5.471
	c0.197-3.68-1.214-5.354-5.135-5.51c-7.316-0.289-7.785-0.974-7.862-8.298c-0.058-5.481-0.073-10.966,0.001-16.446
	c0.048-3.434-1.116-5.092-4.863-5.233c-9.836-0.372-10.012-0.303-10.07,9.557c-0.041,6.803,0.233,13.602-0.729,20.396
	c-0.692,4.884,0.375,5.634,5.365,6.039c4.152,0.337,10.02-2.04,12.013,2.241c2.769,5.947,2.306,12.899-0.078,19.354
	c-3.833,6.829-8.282,13.395-11.354,20.552c-4.459,10.392-7.926,21.209-11.816,31.845c1.245,1.245,1.236,2.799,0.513,4.137
	c-1.605,2.966-1.706,6.375-3.019,9.404c-2.258,4.966-0.506,10.21-1.041,15.293c0.074,1.328-0.014,2.656-0.058,3.984
	c-0.216,6.658-2.066,7.954-8.384,5.373c-15.483-6.327-29.193-15.65-42.531-25.57c-0.256-0.19-0.401-0.524-0.595-0.804
	c-0.48-0.772-0.802-1.601-0.982-2.491c-0.236-18.445-0.739-36.887,0.243-55.319c1.642-4.864,5.182-6.525,10.068-6.007
	c1.15,0.122,2.329-0.044,3.489,0.009c3.269,0.149,4.983-1.148,4.87-4.644c-0.113-3.488-0.067-6.984-0.02-10.475
	c0.045-3.333-1.455-4.848-4.798-4.85c-4.489-0.002-8.981,0.096-13.468-0.06c-5.111-0.178-5.718-0.813-5.733-5.847
	c-0.017-5.155,0.005-10.311,0.002-15.465c-0.001-1.33,0.054-2.671-0.25-3.975c-0.274-1.177-0.708-2.316-2.239-2.15
	c-1.3,0.142-1.395,1.237-1.494,2.228c-0.117,1.159-0.016,2.326-0.014,3.49c0.02,9.479,0.036,18.957-0.014,28.436
	c-0.012,2.29,0.322,4.714-1.533,6.599c-0.246,15.575-0.492,31.149-0.74,46.725c-1.428-2.827-0.608-5.848-0.648-8.767
	c-0.119-8.729-0.051-17.46-0.055-26.188c-0.019,13.095,0.02,26.189-0.064,39.283c-0.012,1.719,0.829,3.66-0.75,5.188
	c-16.508-15.91-26.422-35.314-30.592-57.76c0.739-3.484,0.555-6.978,0.09-10.474c2.209-9.366,5.238-18.561,13.709-24.019
	c7.052-4.544,14.526-9.15,22.473-11.433c14.926-4.286,30.196-7.877,45.566-9.978c17.898-2.445,36.057-2.983,54.102-4.349
	c1.727-0.936,3.595-0.464,5.389-0.468c18.473-0.04,36.945-0.011,55.417-0.045C583.646,0.766,585.505,1.17,587.258,0.366z"/>
<path fill-rule="evenodd" clip-rule="evenodd" fill="#F9A410" d="M481.436,136.827c1.166-5.022,2.332-10.046,3.498-15.07
	c7.061-3.006,14.126-5.997,21.178-9.02c5.735-2.457,11.457-4.943,17.18-7.432c3.197-1.39,5.102-1.169,5.847,3.017
	c1.854,10.416,4.222,20.739,6.216,31.132c0.215,1.125-0.295,3.134-1.111,3.599c-10.404,5.916-21.025,11.449-31.391,17.43
	c-13.139,7.58-26.072,15.515-39.155,23.193c-1.321,0.775-3.06,0.843-4.604,1.239c-2.608-0.503-3.042,1.545-3.781,3.244
	c-4.05,4.585-5.32,4.848-9.011,1.893c-1.516-4.627-0.07-9.509-1.163-14.826c-1.853,5.008,0.819,10.079-2.18,14.258
	c-3.385,1.438-3.806-1.332-4.761-3.348c-0.066-0.246-0.131-0.493-0.194-0.74c-0.993-4.865-1.634-9.838-3.072-14.567
	c-1.597-5.251-3.92-10.28-5.927-15.406c-2.705-6.851-1.35-13.882-0.836-20.855c0.089-1.213,1.137-1.991,2.574-1.411
	c9.118,5.968,18.057,12.236,27.42,17.792c5.734,3.403,12.234,5.492,18.171,8.591c3.854,2.012,3.81-0.026,3.764-2.759
	c-0.036-2.165,0.023-4.331,0.04-6.497c1.162-2.585,0.771-5.218,0.503-7.927C480.461,140.546,479.715,138.446,481.436,136.827z"/>
<path fill-rule="evenodd" clip-rule="evenodd" fill="#060708" d="M302.843,173.976c1.071-1.729,2.141-3.458,3.211-5.187
	c0.381-0.858,0.531-1.877,1.572-2.28c4.42-6.384,8.885-12.737,13.208-19.187c0.599-0.894,0.489-2.262,0.707-3.41
	c0.508-1.21,1.415-2.168,2.066-3.292c3.539-4.436,5.766-9.752,9.458-14.082c0.558-0.534,1.116-1.067,1.674-1.602
	c-0.837-0.234-1.673-0.665-2.513-0.673c-9.371-0.095-18.743-0.123-28.115-0.17c-0.32-0.624-0.173-1.107,0.435-1.451
	c7.218-1.781,14.561-0.72,21.836-0.751c4.414-0.019,8.205-0.536,10.794-4.482c1.236-0.976,2.962-1.693,3.631-2.967
	c5.527-10.522,8.431-21.417,5.259-33.449c-2.555-9.692-4.435-19.563-6.711-29.791c0.806,0.3,1.729,0.343,2.053,0.806
	c9.125,13.045,18.685,25.822,27.119,39.304c7.818,12.497,8.808,26.097,2.577,39.834c1.548,2.293,0.352,4.495-0.319,6.657
	c-0.486,1.569-1.411,3.009-1.181,4.754c-1.569,4.468-2.667,9.086-4.252,13.55c-0.793,0.916-2.002,1.712-2.309,2.769
	c-1.485,5.11-2.728,10.292-4.056,15.448c-0.239,0.211-0.479,0.421-0.717,0.635c-2.515,1.212-5.216,0.821-7.857,0.885
	c-13.462,0.322-26.942-0.642-40.393,0.579C307.398,176.287,304.081,178.161,302.843,173.976z"/>
<path fill-rule="evenodd" clip-rule="evenodd" fill="#E0321C" d="M259.629,98.54c3.229-27.742,13.182-52.512,31.294-72.897
	c0.518,9.919-0.262,20.356,1.841,30.176c5.004,23.366,17.165,42.58,37.192,56.316c0.674,0.462,1.21,1.125,1.812,1.694
	c-1.546,2.527-4.115,1.804-6.32,1.815c-15.314,0.085-30.629,0.035-45.943,0.049c-2.325,0.002-4.666-0.15-6.942,0.519
	c-1.936,0.264-3.76-0.271-5.587-0.794c-1.791-0.737-3.582-1.475-5.373-2.212c-2.917-2.176-2.004-5.338-2.067-8.221
	C259.487,102.839,259.398,100.685,259.629,98.54z"/>
<path fill-rule="evenodd" clip-rule="evenodd" fill="#060708" d="M243.793,154.624c2.295-1.557,4.591-3.112,6.955-4.716
	c0.229,4.354,0.467,8.865,0.705,13.376c0.207,0.634,0.155-0.221,0.235,0.434c1.684,13.869,1.02,27.764,0.377,41.656
	c-0.03,0.65-0.552,1.189-1.055,1.642c0,6.235,0,12.47,0,19.643c-5.151-4.749-9.189-8.951-13.717-12.535
	c-7.125-5.641-15.383-8.979-24.462-9.769c-2.83-0.246-3.789-1.113-3.61-3.853c0.205-3.139,0.133-6.295,0.181-9.443
	c-1.154-5.563-0.869-11.199-0.759-16.813c0.118-6.03,2.231-8.701,8.076-8.205C227.942,166.993,235.928,161.158,243.793,154.624z"/>
<path fill-rule="evenodd" clip-rule="evenodd" fill="#447484" d="M591.748,185.141c2.57-0.358,6.729,0.066,7.373-1.241
	c1.27-2.576,0.684-6.112,0.697-9.251c0.058-12.868-0.008-25.736,0.159-38.602c0.017-1.293,1.063-3.424,2.038-3.692
	c2.859-0.787,3.025,1.399,3.007,3.602c-0.062,7.154-0.022,14.31,0.692,21.636c2.736-10.681,5.471-21.362,8.521-33.272
	c4.14,16.94,8.239,32.422,11.525,48.073c0.823,3.922-0.967,8.393-1.555,12.61c1.258,2.535,3.664,2.638,5.978,2.65
	c19.212,0.104,38.423,0.102,57.636,0.004c2.327-0.012,4.69-0.188,6.108-2.521c2.364,4.279,1.985,5.176-2.24,5.307
	c-8.14,0.252-8.128,0.255-10.24,8.091c-1.222,4.531-2.493,9.05-3.742,13.574c-0.416-0.055-0.833-0.109-1.249-0.164
	c0-1.123-0.225-2.302,0.039-3.359c1.197-4.813,2.371-9.645,3.882-14.364c0.861-2.693,0.851-3.882-2.528-3.859
	c-17.314,0.116-34.631-0.019-51.943,0.187c-1.317,0.016-3.423,1.768-3.784,3.09c-2.507,9.165-4.638,18.433-6.933,27.657
	c-0.176,0.709-0.678,1.337-1.029,2.002c-0.637-0.449-1.654-0.774-1.847-1.367c-0.915-2.818-1.686-5.691-2.361-8.579
	c-1.685-7.202-3.29-14.423-5.489-21.519c0,2.076,0.211,4.186-0.102,6.215c-0.129,0.84-1.357,2.07-2.127,2.101
	c-0.828,0.032-2.369-1.068-2.439-1.788c-0.258-2.63-0.031-5.308,0.012-7.968c-0.759-2.548-2.186-4.14-5.128-3.956
	C593.596,186.503,592.426,186.246,591.748,185.141z"/>
<path fill-rule="evenodd" clip-rule="evenodd" fill="#447484" d="M590.088,190.26c-0.253,11.305-0.464,22.61-0.818,33.911
	c-0.039,1.261-0.894,2.495-1.37,3.741c-0.551-1.173-1.532-2.33-1.577-3.522c-0.182-4.806-0.075-9.623-0.879-14.835
	c-3.223,5.209-6.447,10.418-10.338,16.704c0-10.54,0.066-19.898-0.049-29.255c-0.026-2.175-0.395-6.114-1.071-6.219
	c-3.726-0.574-7.63-0.466-11.39,0.035c-0.813,0.108-1.36,2.765-1.888,4.296c-0.737,2.14-1.341,4.325-2.071,6.72
	c-1.534-3.984-1.958-9.105-4.616-10.882c-2.778-1.856-7.707-0.524-11.695-0.536c-7.548-0.021-7.536-0.004-9.221,7.313
	c-0.571,2.48-1.216,4.944-2.976,7.453c-1.027-3.542-2.402-7.028-2.982-10.643c-0.581-3.619-2.303-4.391-5.686-4.295
	c-8.486,0.241-16.984,0.141-25.477,0.027c-1.617-0.022-3.226-0.731-4.838-1.124c1.957-1.697,4.359-1.344,6.643-1.365
	c7.877-0.075,15.756,0.012,23.636-0.433c-7.683-0.767-15.388-0.428-23.081-0.585c-2.434-0.05-5.02,0.457-7.126-1.381
	c7.548-0.232,15.103-0.799,22.64-0.62c10.754,0.256,10.743,0.488,13.962-9.737c0.785-2.494,1.618-4.973,2.719-8.345
	c1.688,5.094,3.086,9.317,4.487,13.54c0.366,1.103,0.524,2.353,1.158,3.271c1.871,2.713,16.921,0.976,18.203-2.041
	c1.403-3.301,2.764-6.619,4.535-10.87c1.447,4.055,2.855,7.177,3.666,10.447c1.555,6.269,6.489,3.117,9.892,3.542
	c3.976,0.496,2.515-3.107,2.546-5.043c0.148-9.078,0.066-18.16,1.004-27.516c4.368,8.538,8.736,17.076,13.105,25.614
	c0.357-0.069,0.714-0.139,1.07-0.208c0-19.72,0.011-39.44-0.011-59.16c-0.003-2.973-0.263-5.949-0.16-8.915
	c0.026-0.748,1.06-2.105,1.511-2.057c0.84,0.09,1.82,0.858,2.31,1.622c0.385,0.601,0.148,1.619,0.138,2.451
	c-0.287,21.312-0.531,42.624-0.979,63.933c-0.03,1.444-1.965,2.762-2.371,4.307c-0.52,1.981-0.385,4.135-0.533,6.213
	C591.232,187.302,591.194,188.783,590.088,190.26z"/>
<path fill-rule="evenodd" clip-rule="evenodd" fill="#F9A410" d="M399.738,188.341c0.203,2.167,0.407,4.333,0.611,6.5
	c-1.813,2.741-4.648,1.535-7.078,1.768c-1.768,0.169-3.569,0.073-5.281,0.037c3.642,0.966,7.393-0.355,10.943,0.874
	c0.436,0.23,0.746,0.573,0.936,1.025c0.047,7.326,0.188,14.654,0.072,21.979c-0.028,1.841-0.883,3.668-1.358,5.501
	c-1.325-0.762-2.628-1.566-3.98-2.278c-10.747-5.652-21.501-11.292-32.258-16.925c-1.445-0.757-2.92-1.458-4.381-2.185
	c-0.742-0.646-1.05-1.506-1.218-2.438c0.111-4.856-1.59-9.897,1.449-14.467c1.491-0.918,3.166-0.845,4.809-0.851
	c10.395-0.037,20.789-0.041,31.183,0.004C396.139,186.895,398.202,186.662,399.738,188.341z"/>
<path fill-rule="evenodd" clip-rule="evenodd" fill="#E0321C" d="M188.193,102.196c0.003-23.086,0.005-46.172,0.011-69.258
	c0.001-5.15,0.242-10.313-0.05-15.447c-0.206-3.613,1.186-4.688,4.533-4.355c2.306,0.229,4.645,0.131,6.968,0.179
	c2.168,1.464,1.811,3.783,1.843,5.869c0.413,26.048-1.032,52.071-1.064,78.116C200.424,104.617,195.795,106.323,188.193,102.196z"/>
<path fill-rule="evenodd" clip-rule="evenodd" fill="#447484" d="M508.104,69.359c-0.089-5.318-0.396-10.646-0.188-15.952
	c0.136-3.428-1.188-4.329-4.335-4.152c-3.65,0.205-7.326-0.096-10.98,0.073c-2.887,0.133-3.795-1.104-3.714-3.828
	c0.321-10.801,0.456-21.608,0.913-32.403c0.042-1.004,1.859-1.939,2.871-2.887c0.092-0.086,0.324-0.019,0.49-0.029
	c15.277-1.051,15.277-1.051,15.176,14.237c-0.01,1.498-0.045,2.997-0.014,4.494c0.072,3.478-1.006,7.794,0.666,10.151
	c1.217,1.718,6.143,0.573,9.286,1.278c1.212,0.272,2.8,2.039,2.953,3.28c0.502,4.071,0.425,8.214,0.571,12.327
	C517.236,60.418,512.67,64.889,508.104,69.359z"/>
<path fill-rule="evenodd" clip-rule="evenodd" fill="#060708" d="M274.359,220.861c-0.785-0.307-1.981-0.386-2.294-0.953
	c-4.766-8.635-9.873-17.222-9.811-27.521c0.037-6.233-0.088-12.598,1.105-18.657c1.211-6.148,3.956-11.995,6.201-18.473
	c-2.464,0-5.048-0.225-7.576,0.057c-3.227,0.357-3.847-0.983-3.838-3.936c0.009-3.096-0.79-6.193-1.235-9.29
	c-0.027-0.864,0.513-1.3,1.218-1.616c0.469-0.166,0.951-0.268,1.444-0.332c0.993-0.104,1.987-0.115,2.985-0.065
	c2.461,0.37,4.951,0.631,7.222,1.769c1.584,4.203,2.144,8.714,6.77,11.526c2.462,1.498,2.715,5.542,4.044,8.402
	c0.535,2.007,1.782,3.846,1.443,6.059c0.641,6.216,1.851,12.439,1.766,18.646c-0.09,6.552-1.417,13.088-2.203,19.63
	C280.465,211.652,278.092,216.591,274.359,220.861z"/>
<path fill-rule="evenodd" clip-rule="evenodd" fill="#447484" d="M417.947,63.053c-0.068-11.957-0.14-23.914-0.206-35.872
	c-0.005-0.996-0.058-2.001,0.041-2.989c0.161-1.608-2.841-4.491,1.8-4.357c3.17,0.092,5.846-0.028,5.555,4.648
	c-0.41,6.624,0.225,13.317-0.283,19.927c-0.285,3.711,1.102,3.985,4.019,3.898c5.147-0.152,10.308,0.126,15.453-0.04
	c3.55-0.115,5.19,0.996,4.964,4.833c-0.293,4.971,0.053,9.981-0.321,14.941c-0.086,1.137-1.822,2.709-3.085,3.064
	c-1.847,0.521-3.951,0.103-5.945,0.122c-3.728,0.037-7.835-0.891-9.804,3.752c-1.245-0.88-1.315-2.235-1.457-3.561
	c0.632-4.65-0.796-7.516-6.098-7.138c-0.636,0.045-1.194-0.426-1.652-0.901C419.934,63.271,418.941,63.162,417.947,63.053z"/>
<path fill-rule="evenodd" clip-rule="evenodd" fill="#E0321C" d="M420.927,63.381c0.165-0.002,0.331,0.001,0.497-0.007
	c8.441-0.373,8.441-0.373,8.317,7.807c-0.591,18.309-0.089,36.622-0.258,54.933c-0.02,2.156,0.21,4.337-0.569,6.427
	c-0.916,5.784-0.171,11.61-0.445,17.409c-0.086,1.796,0.474,3.659-0.479,5.38c-1.493,0.068-2.992,0.071-4.477,0.22
	c-2.565,0.255-3.509-0.793-3.479-3.401C420.377,122.559,420.642,92.97,420.927,63.381z"/>
<path fill-rule="evenodd" clip-rule="evenodd" fill="#060708" d="M188.193,102.196c10.842,0.706,10.692,0.705,10.757-10.276
	c0.153-26.203,0.462-52.405,0.707-78.606c6.397-1.264,6.415-1.264,6.4,4.961c-0.075,31.786-0.16,63.572-0.24,95.358
	c-0.004,1.435,0,2.869,0,4.129c-1.855-0.4-3.426-0.74-4.997-1.08c-0.476,0.012-0.885-0.152-1.239-0.466
	c-1.022-1.75-2.169-3.434-2.939-5.325C193.825,107.993,191.009,105.095,188.193,102.196z"/>
<path fill-rule="evenodd" clip-rule="evenodd" fill="#060708" d="M184.935,175.709c1.664-4.418,3.327-8.836,5.421-14.396
	c2.877,9.834,5.689,18.491,7.798,27.317c0.532,2.226-1.08,5.021-1.88,7.498c-2.126,6.582-4.347,13.133-6.703,20.216
	c-1.611-4.612-3.083-8.654-4.428-12.738c-0.851-2.584-0.845-5.836-5.083-5.179c-0.26,0.04-1.165-1.734-1.157-2.66
	c0.161-19.647,0.375-39.295,0.748-58.938c0.018-0.96,1.583-1.892,2.427-2.836c0.765,1.065,2.181,2.123,2.194,3.197
	c0.154,12.801,0.099,25.604,0.099,38.407C184.56,175.634,184.747,175.671,184.935,175.709z"/>
<path fill-rule="evenodd" clip-rule="evenodd" fill="#060708" d="M133.081,154.751c4.164,12.735,7.942,24.231,11.638,35.753
	c0.214,0.667-0.105,1.601-0.397,2.32c-3.774,9.316-7.588,18.617-11.764,28.832c-3.787-10.348-7.269-19.835-10.715-29.334
	c-0.263-0.727-0.576-1.641-0.36-2.305C125.166,178.656,128.929,167.32,133.081,154.751z"/>
<path fill-rule="evenodd" clip-rule="evenodd" fill="#0929A8" d="M243.793,154.624c-0.55,1.279-0.739,3.145-1.709,3.745
	c-7.526,4.656-14.561,10.324-24.528,8.999c-6.915-0.92-7.65,0.341-7.735,7.39c-0.066,5.436-0.275,10.87-0.42,16.303
	c-0.521-0.556-1.141-1.653-1.549-1.58c-4.84,0.871-4.659-1.968-4.56-5.435c0.284-9.908,0.265-19.825,0.365-29.738
	c1.381-2.046,3.553-2.402,5.73-2.472c7.996-0.255,15.996-0.155,23.994-0.06c1.694,0.021,3.326,0.327,4.57,1.649
	C239.898,153.825,241.846,154.225,243.793,154.624z"/>
<path fill-rule="evenodd" clip-rule="evenodd" fill="#060708" d="M170.747,157.686c1.657,5.157,3.478,10.269,4.939,15.481
	c4.786,17.07,1.598,32.837-7.933,48.082c-7.095-10.188-8.219-21.552-10.009-32.711c-1.218-2.563-0.733-5.193-0.268-7.806
	c1.197-6.709,2.949-13.286,5.733-19.5C164.569,158.197,166.426,154.995,170.747,157.686z"/>
<path fill-rule="evenodd" clip-rule="evenodd" fill="#F9A410" d="M151.741,13.236c0.333,0.004,0.666,0.019,0.997,0.001
	c3.99-0.208,6.008-0.225,5.696,5.664c-0.924,17.399-0.373,34.876-0.5,52.321c-0.011,1.438-0.789,2.87-1.21,4.304
	c-1.392-1.327-3.729-2.475-4.021-4.011c-1.724-9.071-2.953-18.236-4.385-27.363c-1.231-7.846-2.423-15.698-3.794-23.52
	C143.229,13.254,143.237,13.167,151.741,13.236z"/>
<path fill-rule="evenodd" clip-rule="evenodd" fill="#060708" d="M283.892,141.639c5.649-0.058,5.649-0.058,6.251-11.502
	c3.977,2.123,9.248,2.427,8.081,9.156c-0.624,3.595,2.477,2.901,4.427,2.752c3.306-0.253,4.862,0.607,4.41,4.305
	c-0.382,3.119-0.153,6.314-0.194,9.477c-5.208,0.41-7.371,3.137-6.534,8.347c0.202,1.257-0.047,2.616-0.886,3.731
	c-3.379-0.021-6.758-0.04-10.137-0.061c-1.354-0.977-1.759-2.533-1.531-3.922c0.891-5.415-1.819-7.666-6.743-8.204
	c-1.087-0.921-1.484-2.214-1.911-3.493c-0.645-2.942-0.555-5.911-0.292-8.888c0.091-0.545,0.282-1.054,0.557-1.532
	c0.192-0.193,0.388-0.385,0.584-0.576c0.694,0.119,1.389,0.238,2.084,0.357C282.664,141.804,283.276,141.799,283.892,141.639z"/>
<path fill-rule="evenodd" clip-rule="evenodd" fill="#F9A410" d="M270.102,142.27c-3.046-0.4-6.091-0.8-9.137-1.2
	c-2.59-1.942-1.695-5.175-2.844-7.642c-0.47-0.46-1.075-0.603-1.697-0.705c-3.517-0.422-5.041,1.215-5.13,4.655
	c-0.04,1.521,0.183,3.305-1.617,4.222c-1.417-0.074-2.837-0.123-4.253-0.229c-1.792-0.134-3.58-0.314-5.37-0.476
	c-1.322-1.022-1.447-2.557-1.299-3.953c0.365-3.435-1.408-4.581-4.45-4.618c-0.459-0.186-0.899-0.406-1.324-0.656
	c-0.258,2.406-0.339,4.852-0.861,7.2c-0.211,0.95-1.381,1.688-2.115,2.523c-0.737-0.834-1.916-1.571-2.125-2.521
	c-0.52-2.36-0.597-4.818-0.852-7.236c-0.453,0.275-0.93,0.498-1.43,0.676c-1.842,0.341-3.679,0.379-5.505-0.116
	c-0.46-0.259-0.927-0.506-1.403-0.736c-0.161,1.15-0.23,2.322-0.501,3.446c-0.504,2.09-0.922,5.831-1.734,5.93
	c-3.298,0.399-7.441,0.765-9.955-0.877c-4.119-2.688-7.212-6.949-10.738-10.547c1.935-1.9,4.019-1.74,6.183-0.444
	c2.605,0.015,5.21,0.03,7.816,0.046c2.493-1.463,5.133-1.365,7.824-0.739c0.542,0.253,1.057,0.557,1.545,0.904
	c2.58-0.019,5.159-0.036,7.739-0.054c2.059-1.4,4.125-1.472,6.201-0.038c2.215-0.042,4.43-0.085,6.645-0.127
	c0.228,0.003,0.455,0.006,0.682,0.006c2.948,0.088,5.896,0.09,8.844,0.045c0.227,0.022,0.454,0.048,0.68,0.073
	c2.909,0.009,5.817,0.018,8.726,0.026c2.874-0.086,5.758-0.934,8.617,0.109c1.521,0.731,3.042,1.462,4.562,2.193
	c1.413,2.771,0.167,5.729,0.612,8.571c-0.233,0.957-0.842,1.616-1.668,2.104C270.548,142.149,270.325,142.209,270.102,142.27z"/>
<path fill-rule="evenodd" clip-rule="evenodd" fill="#F9A410" d="M171.663,87.349c-5.287-0.762-6.951-3.983-6.841-9.074
	c0.425-19.767,0.661-39.537,0.889-59.307c0.069-5.993-0.047-5.995,6.104-5.434c1.91,1.638,1.556,3.897,1.575,6.009
	c0.08,9.266-0.039,18.531,0.078,27.798c0.349,11.555,0.14,23.111,0.096,34.666C173.556,83.945,173.621,86.043,171.663,87.349z"/>
<path fill-rule="evenodd" clip-rule="evenodd" fill="#E0321C" d="M357.841,203.358c0.04,0.428,0.081,0.856,0.122,1.281
	c-0.086,8.667-0.086,8.649-8.875,8.651c-6.939,0.001-13.878,0.054-20.818,0.084c-0.243-0.117-0.485-0.233-0.73-0.349
	c-0.725-0.74-1.381-1.7-1.065-2.652c1.934-5.819,0.864-11.819,1.222-17.729c0.295-4.876,1.542-5.827,5.833-3.487
	C341.768,193.647,350.67,197.036,357.841,203.358z"/>
<path fill-rule="evenodd" clip-rule="evenodd" fill="#0929A8" d="M266.975,115.418c1.653-0.295,3.307-0.59,4.96-0.885
	c16.531,0.588,33.067,0.077,49.6,0.269c4.129,0.048,8.266-0.271,12.389,0.201c1.083,0.802,2.167,1.604,3.252,2.406
	c0.098,4.781-2.057,6.467-6.954,6.228c-8.634-0.423-17.301-0.158-25.955-0.181c-7.146,0.885-14.348-0.263-21.495,0.595
	C277.506,121.174,272.24,118.296,266.975,115.418z"/>
<path fill-rule="evenodd" clip-rule="evenodd" fill="#0929A8" d="M399.98,175.36c0.008,3.927,0.017,7.854,0.025,11.782
	c-2.682,1.267-5.527,0.562-8.281,0.575c-10.773,0.054-21.547,0.145-32.319-0.034c-3.1-3.693-1.78-7.799-1.109-11.846
	c0.347-0.589,0.86-0.927,1.538-1.016c12.103-0.074,24.207-0.023,36.311-0.014C397.432,174.81,398.813,174.418,399.98,175.36z"/>
<path fill-rule="evenodd" clip-rule="evenodd" fill="#060708" d="M18.838,190.321c0.049-0.929,0.099-1.857,0.147-2.785
	c21.098,0.483,42.199,0.934,63.295,1.534c1.328,0.038,4.818-1.451,3.355,2.638c-6.273,3.277-12.298,7.042-18.836,9.795
	c-4.06,1.71-7.921,3.765-11.691,6.019c-0.415,0.239-0.83,0.479-1.246,0.719c-10.98,6.622-22.035,13.125-32.137,21.098
	c-1.53,1.207-3.537,3.088-5.281-0.004c0.79-1.227,1.314-2.806,2.408-3.627c16.592-12.463,34.1-23.417,53.116-31.85
	c0.701-0.311,1.332-0.777,3.154-1.859C55.488,191.413,37.164,190.867,18.838,190.321z"/>
<path fill-rule="evenodd" clip-rule="evenodd" fill="#060708" d="M441.631,188.863c0.453-4.265,0.763-8.552,1.437-12.78
	c0.235-1.479,1.366-2.816,2.089-4.219c0.689,1.398,1.906,2.771,1.973,4.199c0.225,4.796,0.037,9.611,0.008,14.419
	c0.935,1.451,1.272,3.104,1.609,4.759c0.143,1.006,0.095,1.966-0.699,2.731c-0.369,3.647-0.789,7.29-1.086,10.943
	c-0.148,1.818,0.198,3.713-0.181,5.465c-0.294,1.361-1.366,2.555-2.093,3.822c-0.76-1.324-2.104-2.62-2.171-3.979
	c-0.194-3.968,0.298-7.968,0.139-11.939c-0.056-1.381-1.371-3.928-1.874-3.87c-2.605,0.298-6.197-2.306-7.67,2.062
	c-1.669,4.949-3.326,9.901-5.26,15.665c-2.214-6.548-4.103-12.137-5.991-17.726c-0.309-0.503-0.266-0.973,0.128-1.411
	c1.27-0.754,2.43-0.551,3.504,0.401c1.252,1.167,1.332,2.986,2.368,4.366c0.846-1.115,0.704-2.507,1.274-3.64
	c0.654-1.393,1.682-2.634,1.72-4.278c0.544-2.3,0.657-4.196-2.622-4.314c-2.869-0.103-3.765,1.188-3.416,3.828
	c0.107,0.817-0.196,1.593-0.769,2.235c-1.253,0.71-2.446,0.741-3.552-0.29c-0.739-3.173-1.479-6.347-2.311-9.918
	c6.67,0,13.244,0,19.817,0l-0.088-0.091c1.48,1.515,0.295,3.047,0.034,4.576c-0.205,1.199-1.353,2.846,0.295,3.442
	c1.997,0.724,2.189-1.345,2.684-2.656C441.156,190.063,441.602,189.543,441.631,188.863z"/>
<path fill-rule="evenodd" clip-rule="evenodd" fill="#0E4626" d="M333.064,126.538c-3.132,4.968-6.265,9.937-9.397,14.905
	c-2.329,2.096-4.857,0.234-7.285,0.368c-9.317-4.871-18.635-9.741-29.217-15.273C303.417,126.538,318.241,126.538,333.064,126.538z"
	/>
<path fill-rule="evenodd" clip-rule="evenodd" fill="#E0321C" d="M365.352,156.106c0.529-3.087,1.006-6.185,1.609-9.258
	c0.357-1.815,0.916-3.592,1.384-5.386c1.233-2.745,3.478-3.656,6.345-3.713c5.576-0.109,11.133-0.141,16.572,1.361
	c0.173,5.05,0.471,10.103,0.377,15.147c-0.014,0.706-1.941,1.958-2.996,1.972C380.881,156.33,373.115,156.179,365.352,156.106z"/>
<path fill-rule="evenodd" clip-rule="evenodd" fill="#0929A8" d="M552.013,208.866c1.314,0.002,2.629,0.004,3.944,0.005
	c0.561-0.229,1.009,0.332,1.553,0.224c0.17,0.607,0.469,1.212,0.489,1.824c0.212,6.439,0.2,6.419-6.104,6.408
	c-12.406-0.021-24.817-0.179-37.219,0.071c-4.208,0.084-6.632-0.566-5.574-5.436c0.17-0.78-0.047-1.645-0.086-2.469
	c0.207-0.243,0.412-0.486,0.617-0.731c1.322-0.862,2.851-1.023,4.306-0.817C526.598,209.736,539.329,208.285,552.013,208.866z"/>
<path fill-rule="evenodd" clip-rule="evenodd" fill="#E0321C" d="M251.009,207.016c0.148-14.585,0.297-29.171,0.444-43.744
	c6.751-2.623,8.373-1.695,8.376,4.848c0.003,4.999-0.036,9.998-0.056,14.997c-0.653,6.373-0.08,12.766-0.312,19.144
	c-0.058,1.589,0.54,3.283-0.563,4.757C256.269,207.017,253.639,207.017,251.009,207.016z"/>
<path fill-rule="evenodd" clip-rule="evenodd" fill="#0929A8" d="M560.19,220.36c1.821-0.029,3.748-0.436,5.429,0.035
	c1.266,0.355,2.795,1.651,3.176,2.854c0.676,2.133-0.042,3.683-2.965,3.667c-18.057-0.102-36.115-0.017-54.171-0.151
	c-0.897-0.007-2.413-1.396-2.543-2.301c-0.269-1.855-1.122-4.739,2.727-4.112c7.712,1.003,15.458,0.384,23.183,0.378
	C543.412,220.725,551.816,221.335,560.19,220.36z"/>
<path fill-rule="evenodd" clip-rule="evenodd" fill="#E0321C" d="M170.747,157.686c-5.237-1.628-6.344,3.019-7.172,5.826
	c-2.42,8.206-3.949,16.675-5.829,25.033c-3.341-5.265-6.936-10.388-9.829-15.88c-0.669-1.271,0.501-4.339,1.777-5.661
	c5.801-6.015,11.94-11.703,17.963-17.503c0.93-0.895,1.89-1.758,3.695-3.434C171.116,150.591,170.932,154.138,170.747,157.686z"/>
<path fill-rule="evenodd" clip-rule="evenodd" fill="#060708" d="M105.428,220.427c0.089-1.333,0.177-2.666,0.266-3.999
	c-1.357-3.829-1.324-7.807-1.308-11.795c0.038-8.954-0.031-17.908,0.04-26.862c0.019-2.278-0.313-4.697,1.492-6.599
	c0-3.648,0-7.296,0-12.464c1.109,2.234,1.676,3.181,2.061,4.196c0.638,1.686,1.176,3.411,1.725,5.129
	c2.343,7.327,6.56,14.678,6.482,21.981c-0.078,7.362-4.418,14.681-6.905,22.014c-1,2.947-2.037,5.883-3.057,8.823
	C105.988,220.654,105.723,220.513,105.428,220.427z"/>
<path fill-rule="evenodd" clip-rule="evenodd" fill="#060708" d="M237.95,153.426c-8.646,0.041-17.294,0.024-25.939,0.154
	c-2.79,0.043-5.574,0.473-8.357,0.726c-2.155-0.053-4.329-0.297-6.466-0.116c-3.332,0.281-4.653-0.906-4.83-4.382
	c-0.211-4.155,2.338-3.529,4.796-3.478c11.62,0.243,23.243,0.768,34.857,0.605C237.16,146.864,239.42,148.087,237.95,153.426z"/>
<path fill-rule="evenodd" clip-rule="evenodd" fill="#060708" d="M299.188,174.476c0.891,0.279,1.781,0.558,2.672,0.836
	c1.991,1.241,2.63,3.295,3.318,5.362c1.673,5.026,3.116,10.145,5.641,14.853c0.577,1.869,0.545,3.743,0.055,5.622
	c-2.493,6.286-4.972,12.577-7.061,19.02c-0.476,1.467-0.879,3.508-2.999,3.459c-2.211-0.051-2.989-1.977-3.421-3.726
	c-1.371-5.56-5.186-10.477-4.394-16.602c0-2.666-0.001-5.331-0.001-7.997c0.918-1.396,0.831-3.074,1.292-4.6
	C294.637,184.904,297.958,180.007,299.188,174.476z"/>
<path fill-rule="evenodd" clip-rule="evenodd" fill="#447484" d="M650.23,195.003c2.12,8.429,5.232,15.441,5.261,22.468
	c0.028,6.606-3.192,13.229-5.097,19.811c-0.015,0.051-2.232-0.151-2.375-0.582c-1.759-5.3-3.625-10.602-4.772-16.048
	c-0.406-1.93,1.074-4.25,1.67-6.399C646.583,208.242,648.236,202.229,650.23,195.003z"/>
<path fill-rule="evenodd" clip-rule="evenodd" fill="#E0321C" d="M309.681,201.497c0.017-1.967,0.034-3.934,0.052-5.9
	c-1.222-5.392-2.344-10.784-0.188-16.218c2.413-1.92,4.788-1.743,7.133,0.129c1.539,1.743,1.689,3.892,1.686,6.061
	c-0.013,6.778,0.187,13.559-0.111,20.332c-0.043,0.592-0.156,1.175-0.309,1.746c-1.353,5.061,0.046,10.287-0.891,15.377
	c-0.185,0.564-0.497,1.047-0.928,1.453c-2.081,0.206-4.162,0.412-6.243,0.617c-2.75-5.258-1.223-10.883-1.252-16.342
	C308.617,206.36,309.042,203.875,309.681,201.497z"/>
<path fill-rule="evenodd" clip-rule="evenodd" fill="#0929A8" d="M316.125,224.477c0.042-0.341,0.085-0.683,0.128-1.023
	c0.782-5.363-0.313-10.799,0.613-16.156l-0.084-0.425c1.591-4.278,0.443-8.71,0.696-13.063c0.258-4.431-0.142-8.882,0.166-13.32
	c0.909-1.118,2.063-1.143,3.311-0.747c2.369,1.473,2.553,3.843,2.184,6.18c-0.966,6.132-0.341,12.305-0.723,18.437
	c-0.275,4.42,1.102,7.369,5.476,8.635c0.131,0.122,0.257,0.25,0.378,0.382c-0.091,4.434-0.377,8.876-0.202,13.3
	c0.114,2.876-0.863,3.93-3.621,3.498c-0.161-0.025-0.333-0.03-0.493-0.006C319.466,230.854,316,230.137,316.125,224.477z"/>
<path fill-rule="evenodd" clip-rule="evenodd" fill="#F9A410" d="M105.917,171.172c-0.076,15.093-0.151,30.186-0.226,45.268
	c-3.063-8.8-6.963-17.417-8.816-26.454c-0.843-4.11,2.283-9.078,3.762-13.606c1.042-3.188,2.342-6.292,3.728-9.963
	C105.029,168.449,105.473,169.811,105.917,171.172z"/>
<path fill-rule="evenodd" clip-rule="evenodd" fill="#0929A8" d="M693.929,185.137c0.714,2.964-0.277,4.296-3.499,4.285
	c-20.99-0.068-41.98-0.071-62.97,0.017c-3.484,0.015-3.877-1.708-3.255-4.437c5.86,0.035,11.719,0.068,17.578,0.102
	c1.894-0.027,3.787-0.056,5.68-0.084c5.023-1.879,10.048-1.868,15.073-0.008c0.949,0.016,1.898,0.032,2.849,0.049
	C674.899,185.086,684.414,185.111,693.929,185.137z"/>
<path fill-rule="evenodd" clip-rule="evenodd" fill="#447484" d="M171.663,87.349c0.198-13.278,0.395-26.558,0.592-39.837
	c0.292-0.526,0.505-1.084,0.64-1.672c0.25-8.914,0.014-17.828,0.13-26.741c0.025-1.929-0.502-4.003,1.026-5.679
	c0.723,0.762,2.073,1.521,2.077,2.286c0.11,24.91,0.091,49.821-1.054,75.276C173.937,89.771,172.8,88.56,171.663,87.349z"/>
<path fill-rule="evenodd" clip-rule="evenodd" fill="#0929A8" d="M309.681,201.497c0.067,7.865,0.134,15.731,0.201,23.597
	c-4.941,0.018-9.887,0.157-14.818-0.05c-1.021-0.042-2.853-1.381-2.845-2.104c0.075-6.549,0.476-13.095,0.781-19.641
	c2.379,6.569,4.758,13.139,7.511,20.74C303.847,215.838,306.764,208.668,309.681,201.497z"/>
<path fill-rule="evenodd" clip-rule="evenodd" fill="#060708" d="M429.728,260.912c-0.833,0.409-1.664,1.167-2.501,1.174
	c-8.782,0.072-17.568,0.131-26.344-0.143c-0.967-0.03-2.559-2.129-2.602-3.313c-0.041-1.121,1.569-3.299,2.463-3.305
	c9.75-0.058,19.502,0.22,29.253,0.406C431.438,257.537,431.594,259.277,429.728,260.912z"/>
<path fill-rule="evenodd" clip-rule="evenodd" fill="#060708" d="M357.803,250.666c0.104-3.255,1.121-4.875,5.028-4.536
	c6.431,0.558,12.929,0.335,19.399,0.442c1.767,3.129,1.832,6.193-0.346,9.177c-7.746,1.587-15.48,2.25-23.158-0.388
	c-0.248,0.031-0.455-0.048-0.619-0.236C356.748,253.725,356.658,252.237,357.803,250.666z"/>
<path fill-rule="evenodd" clip-rule="evenodd" fill="#F9A410" d="M16.445,229.334c1.691-0.554,3.599-0.776,5.038-1.717
	c8.717-5.694,17.27-11.641,26.019-17.283c1.82-1.173,4.237-1.421,6.37-2.095c-1.353,1.473-2.442,3.377-4.084,4.338
	c-5.724,3.348-11.965,5.896-17.396,9.639c-6.221,4.287-11.743,9.579-17.675,14.3c-1.134,0.902-2.766,1.18-4.168,1.745
	c0.163-1.861-0.29-4.163,0.646-5.471C12.334,231.2,14.643,230.448,16.445,229.334z"/>
<path fill-rule="evenodd" clip-rule="evenodd" fill="#447484" d="M358.727,255.361c7.664-0.115,15.329-0.231,22.994-0.347
	c2.367-1.229,4.679-1.748,6.762,0.547c0.166,6.226,0.166,6.229-6.134,6.158c-6.134-0.069-12.284-0.46-18.396-0.121
	C358.891,261.879,357.348,260.062,358.727,255.361z"/>
<path fill-rule="evenodd" clip-rule="evenodd" fill="#F9A410" d="M509.016,209.494c-8.875-0.243-17.754-0.434-26.627-0.766
	c-2.158-0.081-5.029,0.323-4.518-3.451c1.864-1.875,4.271-1.413,6.534-1.477c11.022-0.307,22.063,0.582,33.074-0.491
	c0.015,1.624,0.029,3.249,0.044,4.873c-2.479,1.661-5.578-0.585-8.024,1.276L509.016,209.494z"/>
<path fill-rule="evenodd" clip-rule="evenodd" fill="#0929A8" d="M357.803,250.666c0.102,1.486,0.203,2.973,0.305,4.458
	c-8.272,0.003-16.546,0.061-24.817-0.07c-0.901-0.015-2.388-0.98-2.559-1.74c-0.426-1.897,0.227-2.978,2.751-2.891
	C341.583,250.701,349.695,250.612,357.803,250.666z"/>
<path fill-rule="evenodd" clip-rule="evenodd" fill="#0929A8" d="M491.218,185.386c9.958-0.002,19.918-0.095,29.872,0.098
	c1.387,0.027,2.744,1.463,4.115,2.247c-1.229,0.529-2.455,1.51-3.688,1.519c-10.123,0.069-20.248-0.042-30.371-0.099
	C491.17,187.895,491.193,186.641,491.218,185.386z"/>
<path fill-rule="evenodd" clip-rule="evenodd" fill="#060708" d="M517.479,203.31c-1.331,0.562-2.654,1.586-3.996,1.611
	c-11.868,0.22-23.74,0.262-35.612,0.356c0.214-1.036,0.436-2.98,0.642-2.979c12.884,0.108,25.765,0.375,38.646,0.644
	C517.269,202.945,517.373,203.182,517.479,203.31z"/>
<path fill-rule="evenodd" clip-rule="evenodd" fill="#0929A8" d="M239.714,128.958c0.135-3.879,0.271-7.758,0.406-11.638
	c3.224-2.115,6.462-2.147,9.715-0.067c0.028,3.943,0.057,7.886,0.085,11.829l-0.338,0.213c-3.125,0.759-6.254,0.707-9.385,0.037
	C240.079,129.153,239.917,129.028,239.714,128.958z"/>
<path fill-rule="evenodd" clip-rule="evenodd" fill="#E0321C" d="M280.831,155.223c8.702,0.346,8.701,0.346,8.542,9.227
	c-0.021,1.133-0.032,2.265-0.055,3.396c-2.432-0.003-4.856-0.005-7.28-0.01c-0.74-1.854-1.481-3.704-2.222-5.554
	c-0.502-2.162-1.325-4.304-0.398-6.554C279.75,155.172,280.222,155.004,280.831,155.223z"/>
<path fill-rule="evenodd" clip-rule="evenodd" fill="#F9A410" d="M55.108,207.521c2.428-1.844,4.689-3.98,7.317-5.472
	c5.765-3.271,11.665-6.322,17.625-9.224c1.653-0.806,3.715-0.771,5.587-1.121c-0.406,1.053-0.527,2.725-1.257,3.056
	c-8.527,3.87-17.145,7.538-25.74,11.258C57.466,206.526,56.286,207.021,55.108,207.521z"/>
<path fill-rule="evenodd" clip-rule="evenodd" fill="#E0321C" d="M299.447,167.904c-0.073-1.626-0.2-3.253-0.21-4.879
	c-0.047-7.701-0.036-7.701,7.63-7.204c0.254,3.564,0.509,7.124,0.761,10.686c-0.527,0.765-1.053,1.527-1.576,2.286
	C303.852,168.494,301.65,168.199,299.447,167.904z"/>
<path fill-rule="evenodd" clip-rule="evenodd" fill="#0929A8" d="M267.263,129.218c-2.872-0.036-5.745-0.072-8.617-0.109
	c0.12-2.326,0.615-4.708,0.28-6.968c-0.67-4.521,1.357-5.278,5.283-4.939c2.264,0.195,3.292,0.559,3.137,3.026
	C267.157,123.214,267.277,126.221,267.263,129.218z"/>
<path fill-rule="evenodd" clip-rule="evenodd" fill="#0929A8" d="M303.445,250.463c2.499,0,5.035-0.246,7.478,0.125
	c0.926,0.141,1.636,1.702,2.444,2.615c-0.88,0.639-1.744,1.801-2.643,1.829c-4.826,0.15-9.667,0.145-14.486-0.114
	c-1.047-0.056-2.026-1.367-3.037-2.101c1.082-0.833,2.076-2.188,3.266-2.39c2.268-0.384,4.646-0.111,6.979-0.111
	C303.445,250.365,303.445,250.414,303.445,250.463z"/>
<path fill-rule="evenodd" clip-rule="evenodd" fill="#0929A8" d="M425.453,198.388c-1.498-0.387-2.994-0.772-4.492-1.159
	c-6.978,1.224-14.013,0.19-21.014,0.531c-5.223-0.247-10.475,0.514-15.677-0.436c1.062-0.728,2.081-1.998,3.192-2.086
	c4.279-0.338,8.588-0.297,12.887-0.397c6.715,0.158,13.432,0.315,20.146,0.473c1.381-0.051,2.761-0.102,4.142-0.152
	c2.208-1.501,4.557-1.421,6.97-0.62c-0.646,1.193-1.29,2.387-1.935,3.58C428.358,199.674,426.925,199.337,425.453,198.388z"/>
<path fill-rule="evenodd" clip-rule="evenodd" fill="#0E4626" d="M391.262,139.111c-5.618,0.028-11.248-0.14-16.848,0.19
	c-2.058,0.121-4.046,1.421-6.067,2.173c0.918-3.451,1.837-6.891,2.757-10.33C377.823,133.801,384.543,136.456,391.262,139.111z"/>
<path fill-rule="evenodd" clip-rule="evenodd" fill="#0929A8" d="M201.944,128.966c-2.061,0.147-4.121,0.296-6.182,0.444
	c-0.644-0.376-1.858-0.781-1.84-1.124c0.199-3.923,0.585-7.835,0.921-11.751c1.702-1.182,3.469-0.949,5.257-0.241
	c0.26,0.089,0.5,0.217,0.72,0.386C201.194,120.776,201.569,124.871,201.944,128.966z"/>
<path fill-rule="evenodd" clip-rule="evenodd" fill="#0929A8" d="M218.101,129.094c-2.78-0.027-5.561-0.055-8.341-0.082
	c0.079-3.941,0.157-7.883,0.236-11.824c2.669-1.791,5.364-1.837,8.084-0.123C218.753,121.071,218.722,125.082,218.101,129.094z"/>
<path fill-rule="evenodd" clip-rule="evenodd" fill="#0929A8" d="M310.095,179.652c-0.121,5.313-0.241,10.626-0.362,15.942
	c-2.624-6.76-5.248-13.521-7.873-20.283c0.327-0.444,0.655-0.89,0.982-1.335c2.332,0.449,4.665,0.898,6.997,1.348
	C311.346,176.684,310.917,178.156,310.095,179.652z"/>
<path fill-rule="evenodd" clip-rule="evenodd" fill="#0929A8" d="M271.754,139.884c0.024-2.824,0.048-5.648,0.072-8.473
	c8.513,0.354,8.513,0.354,8.148,9.817l0.073,0.095C276.977,142.61,273.813,144.433,271.754,139.884z"/>
<path fill-rule="evenodd" clip-rule="evenodd" fill="#0929A8" d="M249.676,141.6c0.042-0.811,0.114-1.621,0.121-2.433
	c0.072-8.948-0.602-7.751,7.872-7.825c2.083,3.235,1.777,6.552,0.341,9.907c-0.365,0.28-0.73,0.561-1.097,0.841
	C254.5,141.926,252.088,141.763,249.676,141.6z"/>
<path fill-rule="evenodd" clip-rule="evenodd" fill="#447484" d="M9.093,195.188c2.426-0.514,4.837-1.123,7.283-1.521
	c3.625-0.589,7.265-1.221,10.919-1.39c0.881-0.04,1.842,1.667,2.766,2.569c-0.989,0.791-1.955,2.229-2.972,2.267
	c-5.963,0.217-11.938,0.106-17.909,0.106C9.152,196.543,9.123,195.865,9.093,195.188z"/>
<path fill-rule="evenodd" clip-rule="evenodd" fill="#E0321C" d="M274.359,220.861c2.416-4.925,4.832-9.851,7.244-14.766
	c0.284,4.643,0.648,9.272,0.735,13.908c0.009,0.45-1.675,1.286-2.6,1.326C277.956,221.407,276.154,221.043,274.359,220.861z"/>
<path fill-rule="evenodd" clip-rule="evenodd" fill="#060708" d="M454.955,187.493c0.635-1.47,1.271-2.939,1.907-4.409
	c0.743,0.612,1.487,1.225,2.23,1.834c0.02,3.443,0.04,6.889,0.06,10.335c0.227,0.918,0.106,1.875,0.323,2.794
	c-0.489,1.063-1.03,2.104-1.456,3.191c-0.518,1.324-0.938,2.686-1.401,4.03c-0.541-1.424-1.08-2.85-1.624-4.273
	c-0.374-0.979-0.755-1.958-1.133-2.937c-0.499-1.231-0.139-2.508-0.213-3.765C453.563,191.927,453.924,189.645,454.955,187.493z"/>
<path fill-rule="evenodd" clip-rule="evenodd" fill="#F9A410" d="M429.728,260.912c0.089-1.728,0.179-3.455,0.269-5.182
	c2.793-0.061,5.606-0.342,8.367-0.079c1.152,0.11,2.194,1.379,3.286,2.12c-0.968,1.3-1.833,3.593-2.925,3.707
	C435.777,261.785,432.733,261.164,429.728,260.912z"/>
<path fill-rule="evenodd" clip-rule="evenodd" fill="#0929A8" d="M233.069,129.085c-2.067,0.013-4.134,0.025-6.201,0.038
	c0.073-4.001,0.146-8.002,0.218-12.003c2.035-1.397,4.004-1.542,5.869,0.307C232.993,121.313,233.031,125.199,233.069,129.085z"/>
<path fill-rule="evenodd" clip-rule="evenodd" fill="#0929A8" d="M388.482,255.562c-2.254-0.182-4.508-0.363-6.762-0.546
	c0.168-2.815,0.336-5.63,0.507-8.444c1.315-0.046,2.667-0.311,3.929-0.081c1.45,0.265,4.062,1.091,4.025,1.461
	C389.927,250.519,389.115,253.031,388.482,255.562z"/>
<path fill-rule="evenodd" clip-rule="evenodd" fill="#447484" d="M587.258,0.366c-0.94,0.259-1.881,0.74-2.822,0.744
	c-21.133,0.089-42.266,0.126-63.398,0.172c14.102-0.433,28.2-0.991,42.305-1.248C571.309-0.111,579.285,0.239,587.258,0.366z"/>
<path fill-rule="evenodd" clip-rule="evenodd" fill="#6C102C" d="M333.923,115.003c-20.04,0.032-40.079,0.07-60.118,0.074
	c-0.625,0-1.25-0.348-1.873-0.539c5.299-0.152,10.595-0.382,15.893-0.431c14.648-0.132,29.296-0.188,43.943-0.277
	C332.486,114.22,333.205,114.611,333.923,115.003z"/>
<path fill-rule="evenodd" clip-rule="evenodd" fill="#F9A410" d="M249.835,117.253c-3.238,0.022-6.477,0.045-9.715,0.067
	c0.052-2.918-1.263-6.07,4.114-6.259C249.464,110.879,250.391,112.996,249.835,117.253z"/>
<path fill-rule="evenodd" clip-rule="evenodd" fill="#0929A8" d="M299.188,174.476c0.273,0.903,1.001,1.968,0.747,2.684
	c-1.688,4.748-3.585,9.421-5.414,14.119c-1.994-5.252-0.949-10.606-0.537-15.938C295.718,175.052,297.453,174.764,299.188,174.476z"
	/>
<path fill-rule="evenodd" clip-rule="evenodd" fill="#0929A8" d="M219.918,131.528c2.034,0.027,4.068,0.055,6.102,0.082
	c0.673,3.221,0.921,6.434-0.168,9.623c-1.801,0.021-3.603,0.042-5.404,0.063C218.576,138.133,219.642,134.809,219.918,131.528z"/>
<path fill-rule="evenodd" clip-rule="evenodd" fill="#F9A410" d="M218.194,117.152c-2.733,0.012-5.465,0.023-8.198,0.035
	c0.19-3.051-0.875-6.327,4.651-6.209c5.032,0.107,3.831,3.234,4.338,5.834C218.921,117.391,218.667,117.528,218.194,117.152z"/>
<path fill-rule="evenodd" clip-rule="evenodd" fill="#0929A8" d="M590.088,190.26c0.007-1.481,0.014-2.964,0.021-4.445
	c0.547-0.225,1.094-0.449,1.64-0.674c1.316,0.081,2.658,0.364,3.946,0.208c4.151-0.504,5.402,1.196,4.113,5.045
	C596.567,190.348,593.328,190.304,590.088,190.26z"/>
<path fill-rule="evenodd" clip-rule="evenodd" fill="#F9A410" d="M182.027,117.091c-0.091-1.753-0.689-3.731-0.056-5.166
	c0.314-0.713,2.889-0.429,4.44-0.596c0.164,1.919,0.327,3.837,0.49,5.756c-0.189,0.396-0.471,0.701-0.861,0.908
	c-1.055,0.365-2.11,0.346-3.166-0.001C182.478,117.802,182.195,117.5,182.027,117.091z"/>
<path fill-rule="evenodd" clip-rule="evenodd" fill="#447484" d="M415.689,119.293c0.152-13.448,0.307-26.896,0.453-40.345
	c0.021-1.804,0.004-3.607,1.058-5.404c0,12.089,0,24.178,0.004,36.25c0.025,3.059,0.063,6.135,0.003,9.209
	C417.205,119.11,416.217,119.197,415.689,119.293z"/>
<path fill-rule="evenodd" clip-rule="evenodd" fill="#F9A410" d="M232.955,117.427c-1.957-0.102-3.913-0.204-5.869-0.307
	c0.162-2.213-2.331-5.497,2.45-5.822C235.103,110.921,233.548,114.42,232.955,117.427z"/>
<path fill-rule="evenodd" clip-rule="evenodd" fill="#447484" d="M560.19,220.36c-1.267,0.269-2.532,0.765-3.8,0.771
	c-13.757,0.058-27.514,0.057-41.27,0.005c-1.093-0.004-2.184-0.511-3.276-0.783C527.959,220.355,544.074,220.357,560.19,220.36z"/>
<path fill-rule="evenodd" clip-rule="evenodd" fill="#0929A8" d="M459.476,198.047c-0.108-0.932-0.217-1.863-0.324-2.795
	c3.944,0.011,7.894-0.088,11.828,0.105c0.979,0.048,1.914,1.036,2.87,1.592c-1.022,0.466-2.037,1.311-3.067,1.33
	C467.016,198.351,463.244,198.147,459.476,198.047z"/>
<path fill-rule="evenodd" clip-rule="evenodd" fill="#447484" d="M509.499,209.459c2.677-0.425,5.354-0.85,8.028-1.275
	c9.702,0.087,19.408,0.156,29.114,0.28c1.792,0.022,3.58,0.263,5.37,0.402c-10.373,0.156-20.747,0.315-31.121,0.465
	C517.094,209.386,513.297,209.417,509.499,209.459z"/>
<path fill-rule="evenodd" clip-rule="evenodd" fill="#9A7C0F" d="M358.972,187.065c13.679,0.026,27.356,0.052,41.034,0.077
	c-0.09,0.398-0.178,0.798-0.268,1.197c-13.854,0-27.709-0.001-41.563-0.002c-0.147-0.154-0.295-0.309-0.442-0.463
	c0.03-0.211,0.061-0.422,0.091-0.633C358.17,186.943,358.551,186.872,358.972,187.065z"/>
<path fill-rule="evenodd" clip-rule="evenodd" fill="#447484" d="M399.98,175.36c-13.771-0.105-27.54-0.211-41.311-0.317
	c-0.103-0.391,0.033-0.66,0.409-0.809l-0.093,0.089c12.693-0.008,25.387-0.04,38.08,0.021
	C398.039,174.349,399.009,175.006,399.98,175.36z"/>
<path fill-rule="evenodd" clip-rule="evenodd" fill="#F9A410" d="M200.1,116.294c-1.752,0.08-3.504,0.16-5.257,0.241
	c-3.011-3.03-2.784-5.032,1.796-5.649C197.794,112.692,198.947,114.493,200.1,116.294z"/>
<path fill-rule="evenodd" clip-rule="evenodd" fill="#AD884A" d="M173.083,47.272c-0.259,0.14-0.535,0.22-0.828,0.238
	c-0.146-11.325-0.292-22.651-0.439-33.978c0.415-0.052,0.832-0.104,1.249-0.156C173.778,24.675,173.736,35.974,173.083,47.272z"/>
<path fill-rule="evenodd" clip-rule="evenodd" fill="#9A7C0F" d="M173.083,47.272c-0.006-11.299-0.013-22.597-0.019-33.896
	c0.329,0.015,0.657,0.028,0.985,0.042c-0.047,9.722-0.059,19.443-0.178,29.164C173.853,44.149,173.358,45.709,173.083,47.272z"/>
<path fill-rule="evenodd" clip-rule="evenodd" fill="#447484" d="M185.927,117.313c0.325-0.075,0.65-0.15,0.975-0.228
	c0.076,3.115,0.379,6.251,0.103,9.336c-0.092,1.025-1.818,2.799-2.532,2.678c-1.259-0.215-3.246-1.588-3.283-2.539
	c-0.12-3.142,0.495-6.312,0.832-9.47c0.004,0,0.103,0.276,0.103,0.276c2.097,1.946,0.847,4.7,1.791,7.578
	C185.357,122.241,184.014,119.283,185.927,117.313z"/>
<path fill-rule="evenodd" clip-rule="evenodd" fill="#447484" d="M233.831,131.658c6.059-0.881,6.205-0.771,6.249,4.873
	c0.011,1.455-0.017,2.91-0.026,4.365c-2.022,0.203-4.045,0.406-6.067,0.61c0.111-0.205,0.223-0.409,0.332-0.616
	c4.681-3.296,4.624-4.706-0.3-7.246C233.507,133.024,233.464,132.36,233.831,131.658z"/>
<path fill-rule="evenodd" clip-rule="evenodd" fill="#C65005" d="M427.989,155.329c0.062-7.783,0.124-15.566,0.185-23.349
	c0.65-0.232,1.284-0.302,1.861,0.188c0.236,0.33,0.473,0.66,0.708,0.988c-0.579,1.34-1.615,2.668-1.656,4.026
	c-0.183,6.074-0.081,12.157-0.082,18.238C428.666,155.391,428.328,155.359,427.989,155.329z"/>
<path fill-rule="evenodd" clip-rule="evenodd" fill="#FDB79F" d="M258.898,207.017c0.292-7.967,0.584-15.934,0.876-23.9
	C259.482,191.083,259.19,199.05,258.898,207.017z"/>
<path fill-rule="evenodd" clip-rule="evenodd" fill="#447484" d="M400.33,197.288c6.884-0.02,13.768-0.039,20.641-0.059
	c0.29,0.395,0.59,0.791,0.89,1.187c-7.329,0.042-14.659,0.085-21.99,0.128c-0.001,0.001-0.339-0.347-0.339-0.347
	C399.65,197.765,399.924,197.468,400.33,197.288z"/>
<path fill-rule="evenodd" clip-rule="evenodd" fill="#447484" d="M293.983,175.34c0.182,5.313,0.362,10.625,0.54,15.938
	c-0.51,1.342-1.018,2.684-1.524,4.025c-0.088-5.931-0.22-11.862-0.208-17.793C292.792,176.786,293.567,176.063,293.983,175.34z"/>
<path fill-rule="evenodd" clip-rule="evenodd" fill="#447484" d="M282.771,124.051c7.164-0.198,14.328-0.397,21.494-0.596
	c-0.078,0.207-0.13,0.419-0.155,0.639C296.997,124.08,289.884,124.065,282.771,124.051z"/>
<path fill-rule="evenodd" clip-rule="evenodd" fill="#0929A8" d="M454.817,195.28c-0.317,0.927-0.636,1.853-0.954,2.778
	c-1.941-0.028-3.88-0.058-5.817-0.086c-0.055-0.843-0.111-1.687-0.167-2.529C450.145,193.4,452.461,193.497,454.817,195.28z"/>
<path fill-rule="evenodd" clip-rule="evenodd" fill="#447484" d="M259.629,98.54c0.039,2.646-0.148,5.321,0.186,7.93
	c0.293,2.285,1.171,4.495,1.789,6.737c-0.889-1.107-2.496-2.191-2.532-3.324C258.953,106.111,259.399,102.322,259.629,98.54z"/>
<path fill-rule="evenodd" clip-rule="evenodd" fill="#E0321C" d="M316.382,141.812c2.428-0.123,4.857-0.246,7.285-0.369
	c-0.699,0.824-1.398,1.648-2.112,2.471C319.821,143.212,318.102,142.512,316.382,141.812z"/>
<path fill-rule="evenodd" clip-rule="evenodd" fill="#447484" d="M663.914,4.265c2.762-0.731,5.523-1.463,8.286-2.193
	c-0.001,0.001-0.134,0.071-0.134,0.071c0.483,0.496,0.481,0.991-0.006,1.483C669.345,3.839,666.629,4.052,663.914,4.265z"/>
<path fill-rule="evenodd" clip-rule="evenodd" fill="#447484" d="M218.194,117.152c0.178-0.313,0.441-0.426,0.791-0.339
	c0.048,4.12,0.096,8.242,0.145,12.363c-0.344-0.027-0.688-0.056-1.031-0.083C218.131,125.113,218.163,121.133,218.194,117.152z"/>
<path fill-rule="evenodd" clip-rule="evenodd" fill="#060708" d="M672.061,3.626c0.002-0.494,0.003-0.987,0.005-1.482
	c3.253-0.001,6.507-0.001,9.759-0.001c0.006,0.283,0.012,0.567,0.018,0.852C678.581,3.205,675.32,3.416,672.061,3.626z"/>
<path fill-rule="evenodd" clip-rule="evenodd" fill="#060708" d="M225.852,141.233c0.056-3.208,0.112-6.416,0.168-9.623
	c0.335,0.007,0.67,0.014,1.006,0.022C226.636,134.834,226.244,138.034,225.852,141.233z"/>
<path fill-rule="evenodd" clip-rule="evenodd" fill="#060708" d="M233.831,131.658c0.065,0.68,0.13,1.359,0.194,2.038
	c1.766,2.373,1.742,4.756,0.039,7.147l-0.281,0.303c0,0,0.203,0.36,0.203,0.36c-0.334-3.281-0.669-6.563-1.004-9.842
	C233.265,131.725,233.548,131.722,233.831,131.658z"/>
<path fill-rule="evenodd" clip-rule="evenodd" fill="#060708" d="M219.918,131.528c0.174,3.256,0.349,6.513,0.526,9.769
	c-0.509-1.366-1.249-2.696-1.477-4.108c-0.302-1.877-0.204-3.818-0.278-5.731C219.099,131.481,219.509,131.505,219.918,131.528z"/>
<path fill-rule="evenodd" clip-rule="evenodd" fill="#447484" d="M385.188,51.06c-0.03,3.49-0.061,6.979-0.09,10.472
	C385.127,58.042,385.157,54.551,385.188,51.06z"/>
<path fill-rule="evenodd" clip-rule="evenodd" fill="#F9A410" d="M105.428,220.427c0.27,0.143,0.54,0.284,0.803,0.426
	C105.958,220.71,105.693,220.568,105.428,220.427z"/>
<path fill-rule="evenodd" clip-rule="evenodd" fill="#447484" d="M283.892,141.639c-0.613-0.018-1.226-0.035-1.836-0.053
	C282.67,141.604,283.281,141.621,283.892,141.639z"/>
<path fill-rule="evenodd" clip-rule="evenodd" fill="#447484" d="M557.51,209.095c-0.518-0.074-1.035-0.148-1.553-0.224
	C556.475,208.946,556.992,209.021,557.51,209.095z"/>
<path fill-rule="evenodd" clip-rule="evenodd" fill="#FDFDFD" d="M698.203,127.102c-2.61,9.712-5.227,19.423-7.828,29.138
	c-0.599,2.236-1.135,4.489-1.718,6.73c-2.675,10.292-5.591,11.909-16.954,9.269c8.486-15.255,16.947-30.465,25.408-45.674
	C697.476,126.743,697.84,126.923,698.203,127.102z"/>
<path fill-rule="evenodd" clip-rule="evenodd" fill="#FDFDFD" d="M671.098,128.111c-3.813,12.877-7.624,25.753-11.552,39.021
	c-4.162-15.641,6.285-26.613,10.405-39.422C670.334,127.845,670.716,127.978,671.098,128.111z"/>
<path fill-rule="evenodd" clip-rule="evenodd" fill="#FDFDFD" d="M662.536,185.012c-5.024,0.002-10.05,0.004-15.073,0.008
	c0.524-1.014,0.953-2.835,1.588-2.91c4.207-0.5,8.459-0.691,12.696-0.709C662.006,181.399,662.273,183.753,662.536,185.012z"/>
<path fill-rule="evenodd" clip-rule="evenodd" fill="#447484" d="M468.07,30.789c0.007,3.329-0.007,6.658,0.01,9.986
	c0.045,9.271-0.846,6.476,7.305,8.226c0.161,0.034,0.332,0.023,0.498,0.04c3.372,0.342,8.188-0.517,9.735,1.344
	c1.755,2.108,0.626,6.653,0.669,10.139c0.049,3.994-0.115,7.995,0.049,11.982c0.121,2.943-0.787,4.23-3.958,4.038
	c-3.979-0.241-7.988-0.139-11.978,0.012c-2.605,0.099-3.521-0.899-3.465-3.492c0.139-6.321-0.107-12.654,0.136-18.97
	c0.138-3.557-0.732-5.359-4.663-4.897c-2.299,0.271-4.706-0.257-6.975,0.119c-5.102,0.846-6.494-2.174-6.57-6.193
	c-0.168-8.985-0.172-17.979,0.078-26.959c0.029-1.074,2.039-2.1,3.149-3.127c0.089-0.083,0.329-0.038,0.488-0.003
	c5.099,1.141,12.155-3.115,15.029,2.035C469.875,19.129,468.064,25.464,468.07,30.789z"/>
<path fill-rule="evenodd" clip-rule="evenodd" fill="#447484" d="M448.35,90.054c0.244-3.427-1.045-9.479,1.33-11.83
	c2.344-2.321,8.42-0.674,12.812-1.181c4.394-0.507,5.895,0.925,5.579,5.44c-0.416,5.958-0.219,11.966-0.098,17.948
	c0.061,2.95-0.87,4.202-4.02,4.019c-4.309-0.252-8.652,0.09-12.955-0.209c-0.941-0.065-2.435-1.698-2.527-2.715
	C448.154,98.069,448.35,94.564,448.35,90.054z"/>
<path fill-rule="evenodd" clip-rule="evenodd" fill="#447484" d="M528.547,21.093c0.281-3.08-0.804-8.717,1.496-11.136
	c2.021-2.127,7.858-0.407,11.965-0.829c4.666-0.479,6.598,0.864,6.183,5.929c-0.489,5.96-0.246,11.988-0.151,17.984
	c0.041,2.592-0.936,3.728-3.512,3.475c-0.496-0.048-1-0.026-1.498-0.055c-4.596-0.261-10.641,1.111-13.348-1.285
	C527.349,33.109,528.816,26.75,528.547,21.093z"/>
<path fill-rule="evenodd" clip-rule="evenodd" fill="#447484" d="M396.692,70.401c0.002-0.167,0.001-0.334,0.003-0.5
	c0.152-12.784,0.147-12.705,12.967-12c2.629,0.145,3.483,1.044,3.433,3.573c-0.123,6.16-0.118,12.325-0.053,18.486
	c0.026,2.473-0.769,3.854-3.458,3.523c-0.164-0.021-0.333-0.011-0.5-0.007C396.539,83.764,396.539,83.764,396.692,70.401z"/>
<path fill-rule="evenodd" clip-rule="evenodd" fill="#6C102C" d="M430.035,132.169c-0.621-0.062-1.242-0.123-1.861-0.187
	c0.258-6.598,0.675-13.191,0.738-19.789c0.113-11.916-0.02-23.834,0.041-35.751c0.01-1.755,0.514-3.508,0.788-5.261
	c0.13,1.269,0.261,2.537,0.392,3.803C430.101,94.043,430.068,113.106,430.035,132.169z"/>
<path fill-rule="evenodd" clip-rule="evenodd" fill="#060708" d="M481.436,136.827c-0.433,4.493-0.866,8.985-1.299,13.467
	c0.055-4.536,0.107-9.061,0.17-13.584c0.002-0.156,0.084-0.311,0.129-0.466C480.77,136.438,481.103,136.633,481.436,136.827z"/>
<path fill-rule="evenodd" clip-rule="evenodd" fill="#FDFDFD" d="M441.631,188.863c0.119,1.302,0.826,3.153,0.232,3.789
	c-1.186,1.27-3.084,1.872-4.689,2.75c-0.402-1.22-1.268-2.505-1.107-3.645c0.31-2.194,1.199-4.307,1.849-6.453
	C439.154,186.49,440.393,187.677,441.631,188.863z"/>
<path fill-rule="evenodd" clip-rule="evenodd" fill="#FDFDFD" d="M454.817,195.28c-2.313,0.055-4.625,0.108-6.938,0.163
	c-0.248-1.654-0.494-3.308-0.742-4.961c3.986,2.613,5.567-1.064,7.818-2.99C454.908,190.089,454.863,192.685,454.817,195.28z"/>
<path fill-rule="evenodd" clip-rule="evenodd" fill="#FDFDFD" d="M359.079,174.234c-0.136,0.269-0.271,0.538-0.408,0.808
	c-0.001,0.001,0.131,0.141,0.131,0.141c-1.052,3.93,0.61,8.078-0.964,11.966l0.178,0.089c-0.768,0.648-1.61,1.251-2.621,1.285
	c-8.222,0.276-16.449,0.842-24.653-0.369c-1.933-0.285-3.628-0.903-3.914-3.076c-0.462-3.523-2.979-4.391-5.883-4.874
	c-0.965,0.08-1.93,0.159-2.896,0.239c-0.721,0.423-1.42,0.383-2.1-0.096c-1.952-0.232-3.903-0.464-5.855-0.695
	c-0.085-1.442-0.17-2.885-0.255-4.327c1.675-0.352,3.348-0.998,5.025-1.008C329.603,174.225,344.341,174.246,359.079,174.234z"/>
<path fill-rule="evenodd" clip-rule="evenodd" fill="#0929A8" d="M543.983,189.34c-1.832,0-3.678,0.133-5.49-0.056
	c-0.919-0.095-1.778-0.767-2.665-1.179c0.77-0.89,1.5-2.504,2.314-2.548c4.482-0.239,8.988-0.188,13.477,0.002
	c0.855,0.036,1.664,1.146,2.493,1.76c-0.879,0.661-1.706,1.79-2.646,1.893c-2.469,0.269-4.986,0.091-7.483,0.091
	C543.983,189.315,543.983,189.327,543.983,189.34z"/>
<path fill-rule="evenodd" clip-rule="evenodd" fill="#0929A8" d="M569.033,185.424c0.658,0,1.414-0.211,1.955,0.042
	c1.346,0.63,2.594,1.47,3.882,2.226c-1.326,0.389-2.636,0.857-3.984,1.142c-1.245,0.263-2.61,0.662-3.782,0.392
	c-1.354-0.312-2.556-1.29-3.823-1.979c1.095-0.613,2.14-1.362,3.303-1.791c0.725-0.267,1.627-0.049,2.45-0.049
	C569.033,185.412,569.033,185.418,569.033,185.424z"/>
<path fill-rule="evenodd" clip-rule="evenodd" fill="#060708" d="M320.945,180.203c5.979-2.034,6.919-1.604,6.989,3.961
	c0.037,2.868,1.413,3.173,3.704,3.149c8.792-0.087,17.584-0.061,26.377-0.076c0.053,0.367,0.106,0.733,0.16,1.101
	c-0.111,5.006-0.223,10.012-0.334,15.019c-8.258-4.458-16.598-8.773-24.733-13.444c-3.633-2.085-4.826-1.682-4.788,2.658
	c0.061,6.806-0.267,13.615-0.43,20.423c-6.692,0.366-6.858,0.364-6.791-6.167c0.073-7.107,0.57-14.21,0.717-21.318
	C321.854,183.746,321.253,181.972,320.945,180.203z"/>
<path fill-rule="evenodd" clip-rule="evenodd" fill="#5E5411" d="M400.33,197.288c-0.265,0.303-0.529,0.606-0.797,0.909
	c-5.09-0.292-10.177-0.584-15.264-0.875C389.623,197.312,394.977,197.3,400.33,197.288z"/>
<path fill-rule="evenodd" clip-rule="evenodd" fill="#FDFDFD" d="M273.329,157.52c0,19.505,0,37.898,0,56.57
	C264.02,203.309,261.909,175.503,273.329,157.52z"/>
<path fill-rule="evenodd" clip-rule="evenodd" fill="#FDFDFD" d="M280.149,155.423c-0.11,2.286-0.221,4.572-0.333,6.858
	c-1.898-3.806-3.796-7.61-5.987-12.004c-1.127,1.363-1.925,2.329-3.728,4.51c0-5.11,0-8.814,0-12.518l-0.031,0.092
	c3.285-1.032,6.574-0.849,9.866-0.033c0.074,3.308,0.147,6.616,0.222,9.924C280.589,153.311,280.645,154.367,280.149,155.423z"/>
<path fill-rule="evenodd" clip-rule="evenodd" fill="#FDFDFD" d="M259.233,132.842c0.583,2.742,1.167,5.484,1.741,8.227
	c-0.634,0.006-1.259,0.011-1.883,0.016C258.304,138.322,257.915,135.567,259.233,132.842z"/>
<path fill-rule="evenodd" clip-rule="evenodd" fill="#9A7C0F" d="M259.233,132.842c-0.047,2.748-0.094,5.496-0.142,8.243
	c-0.361,0.055-0.721,0.109-1.082,0.164c-0.112-3.302-0.225-6.604-0.339-9.906C258.19,131.842,258.711,132.342,259.233,132.842z"/>
<path fill-rule="evenodd" clip-rule="evenodd" fill="#FDFDFD" d="M189.915,203.398c-6.503-10.275-6.22-19.673,0-29.309
	C189.915,183.812,189.915,193.211,189.915,203.398z"/>
<path fill-rule="evenodd" clip-rule="evenodd" fill="#FDFDFD" d="M130.613,177.965c0,7.891,0,16.049,0,24.709
	C124.982,193.406,125.156,185.121,130.613,177.965z"/>
<path fill-rule="evenodd" clip-rule="evenodd" fill="#FDFDFD" d="M135.255,202.37c0-8.294,0-16.311,0-24.326
	C139.586,186.024,141.911,194.023,135.255,202.37z"/>
<path fill-rule="evenodd" clip-rule="evenodd" fill="#E0321C" d="M162.673,199.119c0.49-9.23,0.767-18.481,1.663-27.672
	c0.166-1.704,2.829-3.165,4.34-4.738c0.854,1.162,1.797,2.273,2.51,3.517c0.228,0.397-0.052,1.615-0.271,1.663
	c-4.59,0.991-2.754,4.637-2.875,7.247c-0.293,6.312-0.267,12.637-0.37,18.957C166.305,199.901,164.477,199.449,162.673,199.119z"/>
<path fill-rule="evenodd" clip-rule="evenodd" fill="#FDFDFD" d="M162.673,199.119c1.667-0.342,3.334-0.684,4.999-1.025
	c6.347,0.562,6.437,0.621,4.28,6.705c-1.143,3.223-2.562,6.348-3.855,9.517c-0.464-0.021-0.928-0.044-1.392-0.066
	C165.361,209.206,164.017,204.162,162.673,199.119z"/>
<path fill-rule="evenodd" clip-rule="evenodd" fill="#447484" d="M279.936,142.328c-3.289,0.011-6.577,0.022-9.866,0.033
	c0.561-0.824,1.121-1.649,1.683-2.476c2.766,0.479,5.53,0.958,8.294,1.438C280.01,141.658,279.973,141.993,279.936,142.328z"/>
<path fill-rule="evenodd" clip-rule="evenodd" fill="#447484" d="M280.149,155.423c0.003-1.057,0.005-2.114,0.008-3.171
	c0.225,0.991,0.45,1.981,0.674,2.971C280.614,155.324,280.387,155.392,280.149,155.423z"/>
<path fill-rule="evenodd" clip-rule="evenodd" fill="#9A7C0F" d="M240.198,129.332c3.129-0.013,6.258-0.025,9.386-0.037
	C246.454,129.308,243.326,129.319,240.198,129.332z"/>
<path fill-rule="evenodd" clip-rule="evenodd" fill="#447484" d="M357.838,187.148c0.321-3.989,0.643-7.978,0.964-11.966
	c0.058,3.962,0.116,7.923,0.172,11.884C358.594,187.094,358.216,187.121,357.838,187.148z"/>
<path fill-rule="evenodd" clip-rule="evenodd" fill="#FDFDFD" d="M431.607,194.541c-2.324,0.206-4.648,0.413-6.971,0.619
	c-0.461-2.11-0.924-4.222-1.386-6.334c2.948,0.021,5.897,0.042,8.847,0.063C431.934,190.772,431.771,192.657,431.607,194.541z"/>
<path fill-rule="evenodd" clip-rule="evenodd" fill="#FDFDFD" d="M425.453,198.388c1.408-0.088,2.817-0.176,4.223-0.265
	c-0.428,2.409-0.854,4.821-1.279,7.233c-0.346-0.029-0.693-0.058-1.039-0.087C426.723,202.976,426.088,200.682,425.453,198.388z"/>
<path fill-rule="evenodd" clip-rule="evenodd" fill="#0929A8" d="M301.226,213.234c-4.379-8.247-6.019-16.132-1.782-24.396
	c0.418-0.815,0.955-1.57,1.437-2.353c0.765,0.776,2.016,1.447,2.214,2.349c1.113,5.063,4.899,9.813,1.324,15.47
	C302.845,206.796,302.35,209.97,301.226,213.234z"/>
<path fill-rule="evenodd" clip-rule="evenodd" fill="#6C102C" d="M315.95,180.347c0.7,0.031,1.399,0.063,2.1,0.096
	c-0.051,7.386-0.047,14.773-0.204,22.157c-0.031,1.434-0.691,2.854-1.063,4.276c-0.004-7.075,0.047-14.147-0.047-21.218
	C316.712,183.885,316.224,182.117,315.95,180.347z"/>
<path fill-rule="evenodd" clip-rule="evenodd" fill="#644A81" d="M316.866,207.297c-0.205,5.385-0.409,10.769-0.613,16.154
	C316.458,218.067,316.662,212.682,316.866,207.297z"/>
<path fill-rule="evenodd" clip-rule="evenodd" fill="#0929A8" d="M185.927,117.313c0.046,2.662,0.254,5.339,0.031,7.978
	c-0.061,0.72-1.424,1.329-2.189,1.988c-0.557-0.683-1.542-1.334-1.593-2.053c-0.187-2.607-0.061-5.237-0.052-7.859
	C183.393,117.349,184.66,117.331,185.927,117.313z"/>
<path fill-rule="evenodd" clip-rule="evenodd" fill="#0929A8" d="M234.064,140.844c-0.012-2.386-0.023-4.771-0.037-7.152
	c2.609-0.786,4.966-1.317,5.001,2.772C239.059,139.992,238.008,141.974,234.064,140.844z"/>
</svg>
