<?xml version="1.0" encoding="utf-8"?>
<!-- Generator: Adobe Illustrator 16.0.2, SVG Export Plug-In . SVG Version: 6.00 Build 0)  -->
<svg version="1.2" baseProfile="tiny" id="Layer_1" xmlns="http://www.w3.org/2000/svg" xmlns:xlink="http://www.w3.org/1999/xlink"
	 x="0px" y="0px" width="500px" height="343px" viewBox="0 0 500 343" xml:space="preserve">
<g>
	<path fill="#F05D5A" d="M1,105c0-0.333,0-0.667,0-1c1.506-1.916,3.629-2.14,5.843-2.155c4.64-0.032,9.281-0.184,13.594,0.15
		C12.95,95.662,9.209,87.142,8.924,77.375c-0.426-14.627-0.209-29.274-0.07-43.912c0.066-7.021,1.578-8.597,8.547-8.602
		c24.45-0.021,48.901-0.168,73.351-0.014c2.136,0.015,4.378-0.153,6.096,1.557c1.479,1.883,0.738,3.771-0.085,5.62
		c-0.608,1.371-1.501,2.594-2.307,3.853c-9.63,15.063-5.997,13.131-23.971,13.235C55.331,49.199,40.175,49.11,25.02,49.15
		c-2.269,0.006-4.668-0.412-6.863,1.259c-0.388,4.181,1.813,7.299,4.237,10.217c7.677,9.239,17.573,12.973,29.553,12.545
		c15.797-0.563,27.08-8.937,37.022-20.036c2.164-2.415,3.88-5.495,7.947-5.357c3.078,3.603-0.429,7.054-0.075,10.498
		c-0.278,8.36,1.562,16.128,6.162,23.22c1.108,1.708,2.221,3.406,3.853,4.521c8.772,5.99,17.694,11.173,28.536,13.354
		c9.349,1.881,18.533,0.905,27.773,1.455c2.656,0.157,5.338-0.12,7.987,0.167c4.239,0.46,5.736,2.688,4.905,6.882
		c-0.528,2.661-2.07,4.883-3.01,7.365c-5.218,13.786-9.236,28.008-15.108,41.56c-0.917,2.118-1.04,4.475-1.26,8.015
		c19.205,0.036,38.106,0.105,57.264-0.066c0.49-5.675-2.491-8.863-3.861-12.342c-2.199-1.533-4.423-1.21-6.557-1.229
		c-8.159-0.067-16.321,0.081-24.479-0.07c-7.006-0.13-8.897-2.949-6.958-9.535c3.569-12.12,9.218-23.453,13.241-35.402
		c1.343-3.988,4.695-5.275,8.736-5.296c11.99-0.061,24.076,0.945,35.944-0.291c13.154-1.37,25.339-6.103,31.902-19.046
		c3.663-7.225,3.565-15.075,2.33-22.914c-6.246-17.085-18.897-25.976-36.482-28.673c-1.833-0.281-4.783-0.148-3.315-3.694
		c1.8-1.633,4.041-1.402,6.163-1.416c17.086-0.104,34.172-0.108,51.258-0.005c4.942,0.03,9.865,1.403,14.83,0.221
		c21.94-1.616,43.88-3.394,65.91-3.228c2.629,0.02,5.332-0.333,7.827,0.945c0.583,0.279,1.065,0.677,1.462,1.181
		c1.597,4.21,2.282,8.398-0.358,12.479c-1.756,2.48-4.345,2.717-7.101,2.719c-8.992,0.006-17.998-0.325-26.972,0.1
		c-8.599,0.406-17.235,0.725-25.624,3.318c-6.966,2.154-12.742,5.619-16.543,11.985c-0.773,1.293-1.967,2.255-2.813,3.491
		c-0.34,0.44-0.761,0.788-1.248,1.044c-3.429,1.479-7.266,0.51-11.247,1.83c-2.819,11.438,0.68,21.32,7.63,30.44
		c7.496,9.838,18.43,10.77,28.855,10.836c2.122,2.391,2.026,4.301,1.358,6.302c-4.15,12.458-9.244,24.571-13.513,36.987
		c-0.825,2.4-2.479,4.341-5.18,5.024c-4.717,0.813-9.417,1.539-13.977-0.648c-2.524-3.055-0.439-6.12,0.396-8.914
		c1.223-4.082,2.651-8.15,4.72-11.967c0.974-1.795,2.225-3.748,1.618-6.013c-1.371-2.136-3.519-1.751-5.433-1.76
		c-13.756-0.059-27.514-0.033-41.27-0.04c-2.369-0.001-4.55,0.781-6.83,1.121c-10.946-0.273-21.896-0.104-32.846-0.1
		c-7.669,0.004-10.429,3.247-10.08,11.754c3.244,1.607,6.779,0.736,10.19,0.857c4.475,0.158,8.961-0.069,13.438,0.107
		c5.272,0.208,7.508,1.928,8.725,7.083c0.467,1.979,0.962,3.832,2.264,5.413c0.265,0.499,0.407,1.031,0.448,1.59
		c2.455,9.084,4.346,18.354,8.95,27.7c17.236,0.202,34.538,0.296,51.539-0.077c3.525-5.614,0.119-11.771,3.497-16.539
		c1.001-1.498,2.804-2.362,3.364-4.225c0.283-0.443,0.651-0.806,1.09-1.095c4.57-4.89,9.945-8.666,15.96-11.57
		c2.411-1.165,4.87-2.131,7.6-2.251c6.104-1.536,12.248-2.918,18.322-4.402c8.683-2.123,17.512-0.999,25.557-2.189
		c2.878-2.604,2.368-5.416,2.377-8.014c0.063-19.823,0.03-39.647,0.029-59.471c0-2.833,0.005-5.664,0.308-8.483
		c-0.52-5.093,0.006-10.229-0.701-15.321c-0.287-2.056,0.393-3.915,1.938-5.377c1.271-1.319,2.541-2.605,4.587-2.696
		c18.106-0.798,35.71,0.702,50.902,12.017c8.387,6.245,14.391,13.992,13.146,25.284c-0.59,5.354-3.784,9.846-5.46,14.862
		c-2.842,8.517-6.566,16.693-9.956,25c-1.071,2.628-1.839,5.385-2.127,8.197c-0.627,6.121,5.238,11.417,11.204,10.192
		c3.26-0.669,5.531-2.608,5.715-6.036c0.174-3.229-1.751-5.26-4.815-6.141c-1.747-0.501-3.667-0.612-4.736-2.454
		c-0.286-4.947,2.424-8.24,7.912-9.578c9.778-2.384,20.429,5.579,21.272,15.961c0.377,4.653-0.185,9.029-4.326,12.1
		c-2.474,1.693-4.654,3.752-7.049,5.546c-11.691,8.765-27.095,5.777-34.967-6.727c-5.724-9.092-6.271-18.576-2.872-28.611
		c2.021-5.963,5.106-11.523,6.525-17.702c0.188-0.816,0.382-1.621-0.556-3.397c-9.754-0.612-20.043-0.468-31.381-0.001
		c-0.346,17.218-0.239,33.683-0.078,50.54c8.771,1.007,16.41,3.096,24.109,4.898c8.691,2.034,17.373,4.236,25.286,8.605
		c0.943,0.801,1.858,1.658,3.127,1.978c6.123,2.229,11.415,5.568,16.253,10.069c11.587,10.779,12.479,30.957,1.322,42.216
		c-1.992,2.011-3.869,4.113-5.73,6.226c-3.467,3.931-2.957,8.056,1.492,10.918c6.457,4.156,13.313,3.642,20.059,0.848
		c4.896-2.028,9.727-4.26,13.844-7.773c1.456-1.242,2.896-2.877,5.208-2.473c1.071,0.26,1.944,0.995,2.079,1.959
		c1.013,7.243,2.093,14.55-1.516,21.438c-2.045,3.901-5.442,5.672-9.884,5.389c-8.013-4.098-16.487-5.52-25.47-5.234
		c-10.609,0.338-21.236,0.063-31.855,0.085c-6.607,0.015-13.255-0.434-19.719,1.452c-3.129-1.472-1.965-3.82-1.004-5.9
		c2.041-4.424,5.348-8.015,8.45-11.664c6.159-7.25,11.376-15.07,15.831-23.465c2.85-5.371,1.092-11.148,1.977-16.672
		c-4.563-13.826-14.84-20.62-28.381-24.207c-6.62-1.753-13.125-1.354-19.711-1.591c-2.648-0.096-5.32,0.14-7.92-0.604
		c-17.447-1.172-34.694-0.501-50.754,7.358c-13.361,6.539-14.408,21.64-2.803,30.838c7.149,5.668,15.326,10.006,21.42,17.065
		c10.852,12.572,9.214,28.706-4.285,38.592c-6.289,4.606-13.482,7.464-21.141,8.419c-4.439,0.555-8.72,2.271-13.283,1.897
		c-30.742,1.038-61.539-0.808-92.198,0.887c-16.81,0.931-25.36,10.249-26.97,26.435c-1.025,10.308,2.022,18.564,10.167,24.996
		c1.681,1.326,3.253,2.84,4.688,4.463c3.182,3.33,7.404,4.977,11.358,7.061c4.687,2.471,8.649,5.686,10.197,11.02
		c1.729,5.968-0.808,9.398-7.033,9.418c-20.301,0.059-40.602,0.018-60.902,0.022c-7.624,0.002-12.239-4.675-15.727-10.58
		c-2.034-3.444-0.167-6.227,4.607-7.41c8.824-2.188,16.58-6.271,22.182-13.474c5.572-7.165,10.027-14.951,8.136-24.678
		c-1.245-11.702-6.246-20.815-16.759-27.06c-6.524-3.875-13.588-6.024-20.465-8.832c-2.216-0.905-4.543-2.048-1.949-4.985
		c0.55-0.25,1.112-0.386,1.718-0.416c24.623-0.732,49.233-0.938,73.848-0.806c8.11,0.044,16.241,1.775,24.326-0.264
		c8.332,0.851,16.735-0.356,25.05,0.753c12.635-0.819,25.305,0.005,37.953-0.438c9.832-0.344,19.577-1.516,28.655-5.789
		c5.967-2.811,9.45-8.262,8.469-13.883c-0.798-4.568-4.303-7.397-7.676-10.046c-2.74-2.149-5.515-4.332-8.496-6.132
		c-6.691-4.04-11.089-10.289-16.021-16.043c-1.289-1.287-1.763-3.234-3.518-4.852c-28.303,15.223-58.162,18.664-89.299,12.501
		c-7.827-2.177-15.572-4.828-23.46-6.533c-12.247-2.646-24.16-7.349-36.995-6.937c-1.824,0.059-3.692,0.006-5.223-1.267
		c-1.878-1.969-1.573-4.174-0.773-6.503c1.996-5.811,4.208-11.545,6.148-17.374c0.571-1.716,1.49-3.379,0.867-5.333
		c-1.425-1.941-3.574-1.429-5.494-1.46c-5.992-0.097-11.987,0.057-17.979-0.077c-5.643-0.126-7.827-1.616-9.406-7.063
		c-1.341-4.627-2.953-9.168-4.229-13.806c-3.081-11.858-6.341-23.638-12.362-34.473c-4.541-8.171-11.034-13.492-20.334-15.158
		c-0.45-0.158-0.868-0.387-1.263-0.644c-2.646-1.94-5.325-2.055-8.039-0.124c-0.364,0.312-0.763,0.559-1.183,0.784
		c-3.025,1.394-6.224,2.013-9.477,2.705c-5.304,1.128-9.151,5.163-13.072,8.59c-4.462,3.898-9.153,7.657-12.623,12.605
		c-0.954,1.36-2.271,2.421-4.057,2.654c-6.962,2.594-13.863-1.027-20.815-0.188C3.26,107.165,2.072,106.081,1,105z"/>
	<path fill="#02CCBB" d="M370.975,4.048C370.982,3.032,370.991,2.016,371,1c33.666,0,67.334,0,101,0
		c1.23,1.273,0.719,2.907,0.934,4.398c-0.558,4.615-0.41,9.251-0.457,13.881c-0.02,1.957,0.259,4.027-1.416,5.593
		c-2.014,1.591-4.428,1.302-6.718,1.308c-28.616,0.083-57.23,0.08-85.847,0.003c-2.605-0.007-5.432,0.38-7.303-2.208l-0.06-0.312
		c-1.149-0.749-2.098-1.783-2.043-3.151C369.316,14.982,366.964,9.142,370.975,4.048z"/>
	<path fill="#F05D5A" d="M501,57c-12.958-1.149-25.921-0.393-38.883-0.088c-2.496,1.133-3.699-0.929-4.947-2.257
		c-5.855-6.231-12.514-11.342-20.146-15.211c-1.899-0.964-1.832-1.1-3.191-4.216c2.704-3.211,6.28-2.046,9.645-1.808
		c8.604,0.612,17.221,1.176,25.768-0.477c10.334-1.998,15.511-8.3,15.65-18.68c0.045-3.317-0.225-6.63-0.139-9.953
		C484.982,2.854,486.047,1.965,487,1c4.666,0,9.334,0,14,0C501,19.667,501,38.333,501,57z"/>
	<path fill="#1F2034" d="M1,105c8.338-0.353,16.691-1.051,24.922,1.077c1.276,2.035,0.111,3.74-0.694,5.532
		c-3.377,7.519-6.092,15.238-6.93,23.516c-0.969,3.626-0.863,7.284-0.4,10.965c-0.082,1.248-0.498,2.354-1.347,3.281
		C11.331,150.946,6.127,151.551,1,149C1,134.333,1,119.667,1,105z"/>
	<path fill="#F05D5A" d="M33.188,178.686C22.455,178.659,11.691,180.044,1,178c0-9.333,0-18.667,0-28
		c4.492-0.992,9.044-0.353,13.556-0.503c3.197-0.244,4.335,2.174,5.296,4.445c3.063,7.234,6.432,14.228,12.188,19.817
		C33.331,175.013,34.367,176.686,33.188,178.686z"/>
	<path fill="#02CCBB" d="M73,344c1.031-3.346,3.875-1.88,5.849-1.928c65.298-1.614,130.612-0.945,195.92-1.275
		c2.662-0.014,5.326,0.021,7.988-0.021c2.227-0.036,3.527,0.776,3.242,3.226C215,344,144,344,73,344z"/>
	<path fill="#7B3C61" d="M15.826,150.188C10.884,150.125,5.942,150.063,1,150c0-0.333,0-0.667,0-1
		c4.927-0.032,9.854-0.064,14.781-0.097C16.245,149.315,16.26,149.744,15.826,150.188z"/>
	<path fill="#F05D5A" d="M289,1c-0.334,0-0.666,0-1,0C288.334,1,288.666,1,289,1z"/>
	<path fill="#1F2034" d="M67.37,319.482c-0.945,1.738-1.891,3.479-2.942,5.412c-15.432,0-31.063,0-47.088,0
		c6.034-7.73,11.785-15.39,17.906-22.738c1.555-1.866,2.462-3.709,2.973-5.928c-0.621-2.431,0.161-4.66,1.234-6.728
		c7.287-14.031,8.054-28.478,3.458-43.514c-2.58-8.441-4.391-17.073-1.996-25.998c2.804-10.451,9.588-17.164,19.372-21.212
		c6.564-2.717,13.577-4.196,19.981-7.313c4.59-0.589,9.176-1.355,13.82-1.619c2.728-0.154,5.185-1.127,5.645-3.976
		c1.453-8.988,5.065-17.532,5.207-26.801c0.108-7.148-2.728-11.402-10.905-13.975c-6.804-2.141-13.804-3.457-21.47-3.681
		c0.791,1.869,2.352,2.667,3.601,3.762c6.682,5.852,12.45,12.444,16.285,20.548c0.854,1.804,1.49,3.709,1.377,5.781
		c-0.244,1.866-0.431,3.725-0.272,5.605c-1.138,5.139-4.768,7.369-9.602,7.88c-14.647,1.548-27.429-2.56-38.187-12.771
		c-5.288-5.021-8.235-11.096-8.841-18.342c0.43-2.488,0.487-4.977-0.099-7.457c0.955-15.939,13.636-28.316,30.45-29.409
		c12.987-0.845,25.479,0.923,36.966,7.712c2.198,1.299,3.825,3.123,5.839,4.543c2.08,6.564,4.159,13.13,6.314,19.938
		c10.895,0,21.499,0,32.441,0c-1.533,11.441-7.617,21.016-10.008,31.727c-0.291,2.466-2.224,3.407-4.166,3.679
		c-7.268,1.018-14.164,3.641-19.066,4.386c12.85-0.17,27.575,2.151,41.922,7.178c5.166,1.81,9.58,4.576,13.283,8.538
		c7.655,8.191,7.125,20.74-1.409,28.016c-6.956,5.932-15.373,8.526-24.325,9.189c-4.793,0.354-9.608,0.863-14.439,0.625
		c-0.613,0.095-1.226,0.189-1.839,0.285c-0.876,1.354-2.134,2.17-3.731,2.146c-12.111-0.179-24.278,1.261-36.315-1.11
		c-2.952-0.582-5.714-1.783-8.324-3.278c-7.206-4.128-9.904-11.683-6.708-18.687c2.697-5.91,10.182-8.388,17.7-5.89
		c1.275,0.425,2.411,1.108,3.607,1.685c-0.599-0.394-1.25-0.697-1.849-1.101c-12.747-8.551-20.072-6.666-30.417,3.576
		c-5.375,5.322-5.3,12.595-2.815,19.647c2.377,6.746,5.548,13.164,8.448,19.677c5.111,11.477,8.579,23.036,5.43,35.698
		c-0.158,0.637,0.169,1.313,0.158,1.984c-0.469,4.734-1.659,9.303-3.178,13.79C70.713,314.229,69.147,316.898,67.37,319.482z"/>
	<path fill="#1F2034" d="M310.08,336.734c-7.533,5.425-16.139,2.99-24.629,3.804c-1.109-3.97-2.111-7.558-3.206-11.474
		c6.901-0.071,13.226-0.754,19.041-3.323c4.438-1.962,8.468-4.747,6.823-10.813c-4.274-4.866-6.881-10.977-11.59-15.547
		c-2.799-2.42-6.196-2.161-9.513-2.165c-22.619-0.027-45.239-0.007-67.859-0.016c-2.329-0.001-4.659,0.033-6.983-0.122
		c-6.052-0.406-10.575-4.506-11.165-10.085c-0.71-6.716,2.345-11.405,8.533-13.387c2.936-0.939,5.921-0.774,8.896-0.783
		c20.791-0.065,41.581,0.004,62.371-0.057c2.943-0.01,6.105,0.422,8.152-2.537c0.289-3.091,0.719-6.119,2.074-9.011
		c2.022-4.315,5.025-7.208,9.905-7.816c8.317-2.872,17.283-2.968,25.515-6.516c13.61-5.864,20.659-18.751,16.522-31.505
		c-1.699-5.24-5.516-8.938-9.595-12.236c-5.115-4.138-10.479-7.982-15.886-11.739c-14.771-10.263-14.092-28.838,3-36.436
		c15.467-6.874,31.829-7.484,48.324-7.415c1.027,0.005,2,0.222,2.359,1.404c1.778,1.609,1.989,3.742,1.993,5.949
		c0.015,7.323,0.271,14.65-0.229,21.967c0.729,23.744-0.135,47.503,0.539,71.248c-0.264,0.893-0.72,1.676-1.414,2.293
		c-2.409,1.891-5.286,1.616-8.1,1.71c-9.787,0.325-19.628-0.86-29.357,1.006c-8.115,1.558-15.079,5.356-20.295,11.732
		c-5.175,6.327-6.441,13.435-3.826,21.519c2.194,6.786,6.235,12.438,9.549,18.547c5.013,9.243,3.891,13.676-4.971,19.556
		c-0.694,0.461-1.397,0.901-1.897,1.589C310.911,329.273,313.684,333.926,310.08,336.734z"/>
	<path fill="#1F2034" d="M471.59,4.401c4.848-0.099,9.695-0.198,14.543-0.298c4.084,19.059-2.258,31.168-23.652,31.387
		c-9.062,0.092-18.125,0.015-28.258,0.015c11.635,5.126,20.369,12.509,27.896,21.408c5.65,7.685,8.404,16.178,6.895,25.748
		c-1.726,10.924-13.568,18.42-21.977,13.993c-3.796-1.999-5.165-5.201-3.661-9.163c1.262-3.326,3.899-4.299,7.642-2.74
		c0.706,1.329,1.523,2.868,2.372,4.465c3.563-4.544,2.442-9.121-2.916-10.983c-7.313-2.543-13.829-0.479-16.63,8.26
		c-2.555,7.977,2.371,16.632,10.653,18.385c9.399,1.988,18.927,0.468,28.393,0.694c18.781,0.45,23.8,5.352,23.994,24.041
		c0.072,6.82,0.013,13.643,0.013,20.568c-21.229,0.383-42.019-0.987-62.782,0.336c0.155-0.405,0.31-0.806,0.464-1.206
		c0.324-2.563,2.463-3.437,4.33-4.41c5.5-2.868,10.146-6.764,14.233-11.377c3.998-6.428,4.091-13.175-0.258-19.104
		c-3.319-4.528-8.164-7.769-14.512-6.444c-4.218,0.879-7.763,2.642-9.136,7.093c0.56,0.483,0.798,0.867,1.019,0.855
		c6.25-0.28,10.59,2.025,10.623,8.847c0.026,5.386-5.799,9.091-12.072,8.181c-6.053-0.878-10.47-7.307-9.297-13.742
		c2.017-11.067,7.627-20.795,11.89-31.002c9.938-23.804,3.158-38.917-21.563-47.27c-12.652-4.273-25.715-4.352-38.834-3.952
		l0.092,0.095c0.035-4.372,0.069-8.743,0.104-13.111c32.525,0.005,65.054,0.01,97.58-0.018c0.785-0.001,1.567-0.373,2.353-0.571
		C472.01,17.072,471.166,10.722,471.59,4.401z"/>
	<path fill="#F8E116" d="M92.172,171.393c-4.079-14.288-15.518-22.613-27.189-32.657c13.789,0.874,26.157,0.938,37.217,8.034
		c4.802,3.081,4.993,7.742,4.848,12.389c-0.338,10.88-4.119,21.106-6.086,31.744c-7.015,0.827-13.599,1.603-20.183,2.378
		c-3.284-0.081-6.397,2.22-9.785,0.699c-5.153-3.935-11.733-3.011-17.472-5.11c-7.207-2.638-13.464-6.984-20.334-10.185
		c-7.703-8.333-13.427-17.872-17.362-28.5c-0.016-0.426-0.03-0.854-0.045-1.281c0.1-1.082,0.2-2.164,0.301-3.245
		c0.789-3.698,0.481-7.411,0.158-11.125c0.841-10.298,4.229-19.729,9.682-28.457c6.683-9.173,14.871-16.755,24.341-22.97
		c4.394-2.883,9.766-2.494,14.502-4.242c3.452-1.317,6.911-1.27,10.375-0.048c14.277,0.755,20.499,10.998,25.592,22.185
		c4.121,9.051,7.004,18.587,9.348,28.266c-5.398-0.404-9.415-4.153-14.282-5.943c-12.584-4.629-25.493-6.708-38.061-1.983
		c-10.73,4.033-17.591,12.604-19.079,24.58c-0.156,2.674-0.463,5.35,0.17,8.007c3.023,21.469,28.737,31.855,46.896,28.721
		c3.043-0.524,5.552-2.823,6.403-6.223C92.747,174.753,92.667,173.074,92.172,171.393z"/>
	<path fill="#178CE8" d="M370.689,58.256c0,26.113,0,52.228,0,78.917c-15.442-1.191-29.146,0.819-42.8,3.714
		c-2.321,0.492-4.327,2.802-7.014,1.518c-0.122-2.861,2.125-3.877,4.012-5.209c4.921-3.476,9.648-7.061,11.304-13.379
		c1.596-6.096-0.228-11.614-5.176-15.466c-5.178-4.03-11.179-6.477-16.988-9.325c-7.785-3.816-15.42-7.873-20.586-15.261
		c-4.163-5.956-5.982-12.538-5.453-19.775c0.162-2.215,0.453-4.364,2.975-5.243c0.182-0.239,0.286-0.509,0.313-0.809
		c2.169-1.839,4.752-2.148,7.475-2.151c21.597-0.017,43.193-0.052,64.79,0.04C366.143,55.835,368.98,55.47,370.689,58.256z"/>
	<path fill="#178CE8" d="M266.146,57.536c5.18,17.827-3.367,33.829-21.054,41.624c-11.134,4.907-22.591,4.521-33.985,3.864
		c-14.348-0.827-26.563-0.667-29.622,17.829c-1.549,9.371-6.128,18.24-9.719,28.421c14.16,0,27.183,0,40.228,0
		c1.766,6.123,5.283,10.894,5.079,17.274c-21.343,0-42.536,0-64.936,0c7.547-20.691,14.966-41.031,22.401-61.416
		c-0.603-1.789-2.077-1.764-3.644-1.738c-15.428,0.25-31.135,0.806-45.829-3.942c-8.515-2.752-17.227-7.64-23.005-15.094
		c-5.796-7.478-8.554-16.38-6.733-26.138c0.753-1.161,1.764-2.105,3.161-2.141c5.396-0.13,10.854-1.192,16.127,0.846
		c2.01,1.385,2.304,3.521,2.427,5.718c0.139,2.493,0.119,4.99,0.13,7.486c0.042,9.632,1.1,11.753,10.433,14.106
		c7.496,1.891,15.076,3.601,22.744,4.979c16.744,3.013,33.546,1.963,50.184,1.18c12.202-0.573,24.816-0.968,36.667-5.494
		c6.273-2.396,7.55-3.549,7.603-10.431c0.024-3.159,0.067-6.316-0.202-9.478c-0.245-2.866,0.015-5.663,2.237-7.881
		C253.328,54.958,259.764,55.12,266.146,57.536z"/>
	<path fill="#1F2034" d="M205.548,194.984c6.616,0.623,13.222,1.381,19.849,1.848c24.92,1.754,47.971-4.338,69.75-17.372
		c1.41,3.136,2.658,5.909,3.904,8.683c4.815,8.918,8.844,18.189,12.066,27.783c2.591,7.715,0.803,10.143-7.221,10.201
		c-14.123,0.105-28.248,0.001-42.371,0.061c-2.107,0.01-4.353-0.438-6.328,1.166c-1.018,2.851,0.54,5.425,1.154,8.104
		c0.549,2.404,1.588,4.794-0.229,7.108c-9.292-0.081-18.583-0.164-27.874-0.247c-10.949,0.075-21.395-1.628-30.693-8.023
		c-7.662-5.27-10.873-12.526-9.265-21.483c1.595-8.886,7.085-14.709,15.931-17.146C204.693,195.536,205.11,195.223,205.548,194.984z
		"/>
	<path fill="#178CE8" d="M71.991,296.898c3.545-16.764-3.47-31.215-9.782-45.92c-3.398-7.916-8.09-15.547-5.563-25.067
		c2.124-8.003,12.026-16.36,21.385-16.879c10.097-0.56,19.649,5.812,22.394,15.616c-6.995-7.033-14.341-9.73-22.99-4.658
		c-5.921,9.742-1.722,18.481,10.539,21.063c13.471,2.839,27.192,1.56,40.816,1.771c4.073,3.896,9.836,3.703,14.624,6.023
		c9.947,4.822,19.727,9.699,24.325,20.523c1.684,3.965,2.084,8.476,3.069,12.737c-2.097,11.801-8.384,21.067-18.868,26.401
		c-12.26,6.239-25.879,7.563-39.528,7.597c-10.295,0.023-20.592-0.105-30.887-0.256c-5.078-0.074-9.861,0.791-14.159,3.633
		c-1.05-3.119,1.167-5.647,1.531-8.51c3.466-5.056,8.35-6.378,14.279-6.213c10.645,0.295,21.302,0.076,31.955,0.081
		c8.478,0.004,16.434-3.184,22.695-7.85c8.047-5.996,10.979-20.876,0.755-30.927c-5.911-5.811-13.019-8.16-20.537-8.647
		c-12.604-0.817-25.285-0.324-37.934-0.181c-0.831,0.009-1.659,0.151-2.887,1.167c0.016,6.462,3.179,12.142,6.146,17.655
		c3.673,1.338,7.029,0.646,10.32,0.763c3.325,0.118,6.667-0.148,9.98,0.184c5.022,0.504,9.051,4.629,9.031,9.058
		c-0.021,4.429-4.096,8.763-9.115,8.892c-6.911,0.176-13.999,1.393-20.545-2.251c-1.286-0.716-2.806-1.068-4.464-0.605
		C76.172,293.289,76.102,297.903,71.991,296.898z"/>
	<path fill="#02CCBB" d="M371.484,248.966c-0.024-23.979-0.049-47.962-0.074-71.942c1.359-2.19,3.599-2.151,5.746-2.17
		c15.246-0.129,30.492-0.131,45.736,0c2.153,0.02,4.385,0.006,5.729,2.205c1.984,11.781-3.044,21.063-9.329,30.623
		c-5.345,8.131-13.478,13.996-17.469,23.015c-0.439,0.991-0.604,2.105-0.896,3.164c1.205,2.108,1.084,4.438,1.227,6.756
		c0.566,9.282,10.05,17.837,19.353,17.546c0.319-0.463,0.176-0.93,0.008-1.395c-2.509-6.912-1.396-11.796,3.412-14.971
		c4.766-3.146,12.682-2.301,17.076,1.984c3.506,3.418,5.218,7.604,4.691,12.592c0.966,7.349-3.777,11.104-9.082,14.518
		c-9.605,5.945-19.228,5.954-28.854,0.063c-7.83-3.663-14.36-9.399-21.776-13.743c-3.479-2.037-7.009-3.717-11.056-4.171
		C373.488,252.768,371.218,252.227,371.484,248.966z"/>
	<path fill="#178CE8" d="M300.934,253.404c-6.111,3.354-9.104,8.836-10.504,15.404c-1.84,3.065-4.94,2.326-7.645,2.34
		c-22.115,0.106-44.23,0.031-66.345,0.064c-3.149,0.005-6.217,0.055-9.218,1.559c-6.453,3.233-8.598,6.759-7.92,14.44
		c0.509,5.763,4.136,8.502,9.432,10.12c3.256,0.995,6.427,1.466,9.762,1.466c23.778,0,47.556,0.017,71.334-0.024
		c3.363-0.006,6.629,0.218,9.72,1.649c3.729,4.32,8.302,8.144,8.563,14.507c-34.021,0.246-68.035,0.576-102.05,0.621
		c-3.647,0.006-7.297-1.65-10.945-2.537c-18.617-11.541-20.641-29.466-11.811-45.718c4.687-8.626,13.526-13.464,22.812-13.669
		C237.709,252.931,269.326,253.388,300.934,253.404z"/>
	<path fill="#1F2034" d="M266.146,57.536c-6.224,1.636-12.582,0.307-18.854,0.852c-2.359,0.258-3.23-1.491-3.932-3.16
		c-5.521-13.124-16.266-18.64-29.583-18.913c-24.487-0.504-48.99-0.273-73.485-0.084c-9.776,0.076-18.559,7.029-21.977,16.869
		c-0.712,2.05-1.074,4.253-3.488,5.102c-6.5,0.006-12.999,0.012-19.498,0.019c-0.77-3.379,1.071-6.35,2.104-10.183
		c-4.237,1.884-5.861,5.248-7.968,7.947c-14.014,17.962-37.949,24.144-58.444,14.91C22.2,66.921,14.626,55.562,15.412,47.084
		c23.049,0,46.136,0,69.508,0c4.068-6.549,8.072-12.993,12.074-19.438c5.604,0.034,11.208,0.069,16.813,0.104
		c5.53-0.5,11.069-0.204,16.605-0.169c6.558,0.043,13.116,0.086,19.674,0.13c3.223-0.33,6.446-0.371,9.667,0.022
		c16.591-0.021,33.183-0.041,49.774-0.062h-0.03c5.044-0.006,10.089-0.012,15.14-0.019C244.69,28.988,259.072,38.188,266.146,57.536
		z"/>
	<path fill="#178CE8" d="M205.548,194.984c-0.542,2.367-2.89,2.604-4.494,3.523c-7.239,4.152-11.523,10.401-11.476,18.568
		c0.049,8.389,5.406,13.994,12.555,17.768c8.172,4.313,16.945,6.687,26.133,7.473c-32.561,0.965-65.108,0.612-97.646,0.226
		c9.981-0.468,19.667-2.323,28.973-5.997c9.292-3.668,15.678-11.361,14.99-19.172c-0.843-9.573-7.467-14.969-15.639-18.307
		c-15.497-6.329-31.944-7.56-48.461-8.074c-2.118-0.066-4.241-0.01-6.6-1.403c9.65-2.235,19.296-4.485,28.952-6.696
		c2.063-0.474,4.403-0.057,5.995-1.959c20.21,0.022,39.226,6.01,58.332,11.603C199.954,193.354,203.181,192.67,205.548,194.984z"/>
	<path fill="#02CCBB" d="M453.141,133.524c-3.731,8.155-10.781,12.409-18.569,15.787c-7.068-2.201-14.177-4.296-21.205-6.629
		c-9.802-3.252-19.818-5.313-31.375-6.251c-1.418-18.004-0.254-36.301-0.55-55.163c12.843,0,25.017,0,37.771,0
		c-0.634,5.676-3.094,10.702-5.146,15.805c-4.32,10.752-8.391,21.636-1.973,32.806C420.842,145.101,438.65,147.579,453.141,133.524z
		"/>
	<path fill="#1F2034" d="M445.154,255.871c-0.635-6.627-3.191-12.125-10.167-13.737c-4.823-1.114-9.751-0.469-12.216,4.831
		c-2.392,5.141-0.659,9.186,5.348,12.486c-7.275,2.781-12.587,0.566-17.773-2.434c-8.592-4.972-12.063-13.554-9.419-23.158
		c2.653-2.215,5.636-2.989,9.147-2.965c16.57,0.117,33.144,0.011,49.715-0.037c7.439-0.021,14.303,1.809,20.4,6.188
		c8.698,7.542,10.551,17.744,11.059,28.468l-0.001-0.02c0.017,1.018,0.033,2.035,0.05,3.054l0.004-0.006
		c-0.1,0.777-0.197,1.556-0.297,2.333c-3.24,3.363-6.5,2.825-9.77,0.065c-2.25-3.478-0.567-7.902-2.318-11.132
		c-2.201-1.886-4.441-1.554-6.564-1.579c-6.981-0.086-13.967,0.026-20.949-0.068C449.057,258.128,446.686,258.141,445.154,255.871z"
		/>
	<path fill="#1F2034" d="M370.975,4.048c0.054,6.544,0.107,13.088,0.161,19.624c-15.552,0.443-31.101,1.143-46.653,1.252
		c-8.893,0.063-17.438,4.08-26.442,2.01c-15.198-2.434-18.847-7.904-22.356-22.886C307.462,4.048,339.218,4.048,370.975,4.048z"/>
	<path fill="#1F2034" d="M285.148,149.198c4.971,0.084,9.942,0.167,14.914,0.251c2.467,2.623,0.639,4.484-1.129,6.354l-0.115,0.163
		c-0.781,1.382-0.816,3.173-2.291,4.174c-3.375,5.88,0.236,12.739-2.58,18.995c-18.764,0-37.486,0-56.794,0
		c-2.935-9.93-7.578-19.406-8.105-30.076c1.449-1.968,3.569-2.201,5.765-2.218c14.874-0.117,29.748-0.123,44.621-0.003
		C281.68,146.858,283.697,147.312,285.148,149.198z"/>
	<path fill="#178CE8" d="M285.148,149.198c-18.7-0.046-37.4-0.092-56.101-0.138c-0.144-0.299-0.289-0.597-0.433-0.896
		c-0.796-1.735-0.917-3.604-0.355-5.34c2.032-6.28,4.127-12.545,6.734-18.617c0.663-1.546,1.577-2.934,3.424-3.3
		c0.52-0.407,1.039-1.17,1.561-1.172c18.108-0.063,36.218-0.051,55.81-0.051C292.102,129.916,288.625,139.557,285.148,149.198z"/>
	<path fill="#1F2034" d="M370.689,58.256c-23.654,0.04-47.311,0.096-70.965,0.102c-2.816,0-5.634-0.274-8.451-0.422
		c4.104-11.999,13.725-16.947,25.168-18.86c18.098-3.024,36.394-2.363,54.649-1.994c0,0.001-0.094-0.096-0.094-0.095
		C370.896,44.076,370.793,51.166,370.689,58.256z"/>
	<path fill="#178CE8" d="M428.621,177.059c-19.07-0.012-38.141-0.022-57.211-0.035c-0.078-9.354-0.157-18.707-0.235-28.061
		c15.252-0.896,30.203,0.095,43.729,8.156C422.422,161.602,426.898,168.449,428.621,177.059z"/>
	<path fill="#1F2034" d="M238.419,120.908c-3.268,9.085-6.535,18.17-9.803,27.256c-3.196-2.783-2.674-7.173-4.842-11.069
		c-10.588,0-21.49,0-33.167,0c2.152-6.104,4.048-11.482,6.051-17.164c13.832,0,27.274-0.008,40.716,0.041
		C237.723,119.973,238.07,120.582,238.419,120.908z"/>
	<path fill="#EB7D2F" d="M65.11,77.848c3.292-1.246,6.569-1.479,9.818,0.147C71.644,78.722,68.366,79.009,65.11,77.848z"/>
	<path fill="#FEA658" d="M65.11,77.848c3.272,0.049,6.547,0.099,9.819,0.147c0.083,0.271,0.153,0.545,0.21,0.822
		c-3.457,0.016-6.914,0.031-10.372,0.048C64.88,78.526,64.995,78.187,65.11,77.848z"/>
	<path fill="#F2EFF0" d="M296.527,160.142c0.983-1.271,0.287-3.464,2.291-4.174C300.123,158.495,298.797,159.577,296.527,160.142z"
		/>
	<path fill="#178CE8" d="M371.484,248.966c5.521,3.236,12.381,2.71,17.719,6.909c6.082,4.786,12.811,8.753,19.258,13.076
		c1.771,2.835,5.564,3.986,6.367,7.637c2.17,3.24,3.43,6.757,3.296,10.701c-0.467,5.109-2.144,10.395,2.181,14.807
		c3.566,1.359,7.267,0.856,10.904,0.887c7.49,0.062,14.988,0.238,22.466-0.06c4.888-0.194,8.294,1.851,11.081,5.48
		c3.358,4.374,3.475,17.063,0.235,21.81c-0.157,1.919,0.586,4.064-1.882,5.922c-9.658-5.271-19.722-2.788-30.403-1.795
		c-19.933,1.854-40.161,0.533-60.528,0.533c-0.402-5.48-0.8-10.889-1.197-16.296c-2.139-1.619-2.145-3.989-2.155-6.314
		c-0.088-18.715-0.081-37.43-0.015-56.145c0.011-2.376,0.295-4.632,2.093-6.411C370.975,249.362,371.169,249.115,371.484,248.966z"
		/>
	<path fill="#02CCBB" d="M370.902,249.707c0.025,22.957,0.052,45.914,0.078,68.87c-12.978-5.599-24.979-4.045-36.025,4.838
		c-6.07,4.882-12.654,8.948-19.686,12.327c-1.715,0.822-3.298,1.497-5.19,0.992c0.001-3.953,0.001-7.905,0.001-11.814
		c0.296-0.27,0.498-0.564,0.775-0.688c12.336-5.349,13.639-11.813,4.606-22.918c-10.567-12.995-11.17-29.112-1.829-38.993
		c7.915-8.372,17.737-11.873,28.876-12.242C351.967,249.765,361.438,249.816,370.902,249.707z"/>
	<path fill="#178CE8" d="M70.994,193.98c3.262-0.233,6.524-0.468,9.785-0.7c-7.553,2.885-15.52,4.645-22.581,8.862
		c-12.708,7.592-17.521,17.582-15.331,32.228c1.488,9.959,5.516,19.435,5.367,29.719c-0.169,11.738-2.918,22.595-10.016,32.138
		c-8.345-11.615-18.135-22.396-21.552-36.886c-4.76-20.186,3.786-40.975,20.856-52.644C47.759,199.699,59.493,197.299,70.994,193.98
		z"/>
	<path fill="#F05D5A" d="M413.143,277.166c-1.002-3.057-4.362-4.77-4.682-8.215c9.273,5.06,18.59,4.965,27.941,0.219
		c12.805-2.488,25.748-1.063,38.631-1.333c2.604-0.054,5.455-0.313,6.969,2.674c3,0.121,6.001,0.242,9.002,0.363
		c0,6.455,0,12.911,0,19.966c-19.859,0-39.738,0-59.252,0c-1.251,1.823-1.186,3.007,0.016,4.481c10.066,0,20.358,0.028,30.649-0.007
		c16.858-0.059,28.864,6.928,26.749,26.309c-0.355,3.26-0.049,6.592-0.049,10.104c-4.926,0.947-9.297-0.239-13.691-0.612
		c-2.257-3.104-1.691-6.708-1.59-10.136c0.383-12.903-4.188-16.522-18-17.826c-8.573-0.811-17.285-0.12-25.934-0.162
		c-6.156-0.03-7.75-1.557-8.041-7.498c-0.613-12.557,0.446-13.68,13.041-13.694c12.143-0.016,24.285,0.019,36.428-0.024
		c1.9-0.006,3.926,0.355,6.029-1.149c-2.032-1.956-4.262-1.372-6.238-1.38c-16.301-0.068-32.602-0.044-48.902-0.025
		C419.018,279.22,415.9,279.035,413.143,277.166z"/>
	<path fill="#1F2034" d="M413.143,277.166c22.743,0,45.486,0,68.677,0c0.116,2.24,0.215,4.146,0.354,6.813
		c-19.438,0-38.465,0-57.89,0c0,5.929,0,11.127,0,17.067c9.629,0,19.055,0.103,28.477-0.044c4.544-0.07,8.956,0.338,13.273,1.752
		c6.251,2.048,9.611,6.293,9.639,12.923c0.021,5.146-0.148,10.29-0.24,15.438c-3.482-0.3-6.961-0.602-10.438-0.9
		c-0.095-5.125,0.163-10.288-0.377-15.367c-0.624-5.866-3.677-9.807-10.245-9.817c-12.41-0.021-24.821-0.081-37.232-0.126
		c-1.345-4.113-0.313-8.35-0.638-12.515c-0.138-1.77,0.349-3.585-0.388-5.31C415.122,283.773,414.133,280.47,413.143,277.166z"/>
	<path fill="#F05D5A" d="M491.247,265.493l0.001,0.02L491.247,265.493z"/>
	<path fill="#F05D5A" d="M491.301,268.541l-0.004,0.005C491.297,268.547,491.301,268.541,491.301,268.541z"/>
	<path fill="#1F2034" d="M257.969,16.076c-78.691,0-156.575,0-234.417,0C22.702,7.81,27.098,3.899,36.891,3.901
		c47.943,0.01,95.888,0.045,143.83,0.063c24.294,0.009,48.587,0.002,73.456,0.002C255.43,7.967,256.643,11.841,257.969,16.076z"/>
	<path fill="#F05D5A" d="M130.412,27.581c-5.542,0.056-11.083,0.112-16.615,0.169C119.341,27.693,124.876,27.637,130.412,27.581z"/>
	<path fill="#F05D5A" d="M159.753,27.733c-3.232-0.008-6.464-0.016-9.682-0.023C153.308,27.718,156.531,27.726,159.753,27.733z"/>
	<path fill="#F05D5A" d="M209.497,27.672c0,0,0.029,0,0.03,0H209.497z"/>
	<path fill="#178CE8" d="M471.59,4.401c-0.121,6.33,1.123,12.693-0.463,18.983c0.045-6.408,0.088-12.813,0.135-19.215
		C471.264,4.173,471.59,4.401,471.59,4.401z"/>
	<path fill="#F05D5A" d="M16.24,134.534c0.712,3.723,0.66,7.434-0.159,11.13C16.135,141.951,16.188,138.242,16.24,134.534z"/>
	<path fill="#F05D5A" d="M71.991,296.898c1.451-2.533,2.901-5.067,4.537-7.927c6.222-0.551,11.214,4.233,17.392,4.068
		c6.1-0.162,12.216,0.431,17.035-4.681c0-1.368,0-2.857,0.011-4.35c-1.31-4.691-10.785-6.238-29.572-4.734
		c-2.687-7.809-5.405-15.709-8.407-24.433c20.222,0.351,40.32-3.376,59.521,4.238c7.749,3.074,15.553,11.659,14.769,23.001
		c-0.702,10.143-5.513,16.893-15.113,21.099c-13.208,5.787-27.003,3.245-40.584,3.761c-7.771,0.295-15.797-1.141-22.68,4.035
		C69.928,306.284,70.959,301.592,71.991,296.898z"/>
	<path fill="#93871A" d="M38.829,153.928c-1.264-2.644-1.313-5.313-0.17-8.007C38.715,148.59,38.772,151.259,38.829,153.928z"/>
	<path fill="#F05D5A" d="M92.172,171.393c1.016,1.689,0.995,3.37-0.045,5.037C92.143,174.748,92.157,173.07,92.172,171.393z"/>
	<path fill="#F05D5A" d="M299.55,300.424c-8.597,1.34-17.247,0.481-25.868,0.551c-19.797,0.157-39.596,0.108-59.394,0.063
		c-8.568-0.02-15.575-4.218-17.097-10c-2.528-9.606,0.545-16.326,9.714-21.065c0.971-0.502,2.124-0.92,3.193-0.925
		c26.777-0.115,53.557-0.171,80.332-0.236c-0.001,1.638-0.001,3.274-0.001,4.668c-2.188,1.945-4.458,1.209-6.529,1.219
		c-23.461,0.104-46.921,0.056-70.38,0.24c-6.612,0.053-10.792,3.471-10.7,10.433c0.087,6.688,4.215,9.707,10.574,10.095
		c1.493,0.092,2.991,0.133,4.487,0.123c23.459-0.15,46.918-0.316,70.377-0.473c2.486-0.018,4.973-0.003,7.373-0.003
		C297.031,297.01,298.291,298.717,299.55,300.424z"/>
	<path fill="#F05D5A" d="M114.827,58.201c1.049-12.076,11.278-24.64,27.072-24.632c23.92,0.013,47.85-0.326,71.756,0.267
		c16.436,0.407,28.433,8.14,33.638,24.552c0,7.791,0,15.582,0,22.904c-19.845,17.036-115.397,15.344-132.466-2.606
		C114.827,72.36,114.827,65.281,114.827,58.201z"/>
	<path fill="#0257A0" d="M416.111,287.078c1.856,5.854,0.205,11.91,1.024,17.824C414.809,299.074,416.432,293.021,416.111,287.078z"
		/>
	<path fill="#1F2034" d="M212.979,49.093c13.372-0.694,19.771,8.645,17.452,26.643c-32.276,7.535-64.651,8.018-96.859-0.521
		c-2.674-16.663,2.281-26.258,12.948-26.152c2.242,0.923,2.47,2.874,2.599,4.936c0.133,2.127-0.2,4.354,1.411,6.755
		c5.227,2.988,11.511,3.737,17.754,3.964c12.444,0.453,24.882,0.337,37.229-1.86c3.635-0.646,5.183-2.376,5.308-5.929
		C210.916,54.18,210.3,51.158,212.979,49.093z"/>
	<path fill="#F2EFF0" d="M212.979,49.093c0,4.312,0,8.622,0,14.133c-21.849,5.307-43.753,6.548-66.46-0.38c0-4.588,0-9.187,0-13.786
		C168.672,48.324,190.825,48.449,212.979,49.093z"/>
</g>
</svg>
