<?xml version="1.0" encoding="utf-8"?>
<!-- Generator: Adobe Illustrator 16.0.2, SVG Export Plug-In . SVG Version: 6.00 Build 0)  -->
<svg version="1.2" baseProfile="tiny" id="Layer_1" xmlns="http://www.w3.org/2000/svg" xmlns:xlink="http://www.w3.org/1999/xlink"
	 x="0px" y="0px" width="470px" height="399px" viewBox="0 0 470 399" xml:space="preserve">
<g>
	<path fill-rule="evenodd" fill="#0575EE" d="M1,21C-2.751,3.915,3.882,0.307,21.005,0.493C117.328,1.544,213.667,1,310,1
		c1.738,1.402,3.813,0.981,5.771,0.982c49.125,0.022,98.25-0.005,147.375,0.079C465.766,2.066,468.383,0.888,471,2
		c0,132.562,0,265.124,0,398c-78.333,0-156.666,0-235,0c-3.253-3.448-1.129-7.275-0.529-10.834
		c3.104-18.397,8.838-36.249,11.471-54.752c0.467-3.281,1.945-6.341,2.159-9.677c0.353-1.73,1.325-3.262,1.645-5.009
		c0.28-1.613-1.061-2.624-1.487-3.975c-0.577-4.314-2.934-8.365-1.947-12.913c0.199-1.779,0.02-3.458-1.308-4.831
		c-0.323-0.404-0.571-0.848-0.772-1.321c-2.238-6.506-2.489-13.581-5.701-19.81c-0.538-9.681-3.267-18.978-4.978-28.452
		c-0.268-1.481-0.593-2.937-0.411-4.446c-1.809-6.778-3.668-13.544-4.795-20.479c-2.132-5.424-2.249-11.316-3.984-16.848
		c-2.727-8.687-8.147-14.661-16.859-17.53c-1.018-0.105-2.048-0.093-3.042-0.385c-1.324-0.297-2.452-1.05-3.69-1.548
		c-6.005-1.385-12.098-0.388-18.138-0.69c-6.033-0.259-11.966-0.043-17.122,3.72c-4.308,3.268-9.314,4.699-14.551,5.508
		c-0.801-0.062-1.678-0.011-1.884-1.17c-1,1.686-2.741,2.615-3.937,4.087c-3.25,3.093-7.01,5.564-10.347,8.549
		c-4.452,5.482-9.86,10.263-12.492,17.083c-1.665,3.699-3.644,7.245-4.901,11.13c-0.555,1.715-1.757,3.096-3.378,4.034
		c-1.926,1.383-4.15,1.034-6.285,1.041c-11.815,0.039-23.631,0.014-35.446,0.021c-2.499,0.001-4.997,0.014-7.424,0.71
		c-2.778,0.49-5.478,1.291-8.146,2.185c-1.465,0.815-2.288,1.911-1.62,3.781c1.662,2.184,4.171,1.543,6.401,1.557
		c14.33,0.084,28.661-0.029,42.99,0.086c2.598,0.021,5.438-0.432,7.359,2.126c0.995,2.208,0.735,4.564,0.606,6.836
		c-0.348,6.15,0.638,12.157,1.608,18.18c-0.072,2.565,0.545,5.268-1.469,7.445c-2.037,1.566-4.44,1.062-6.711,1.067
		c-17.062,0.047-34.123,0.002-51.185,0.051c-2.257,0.007-4.688-0.548-6.594,1.287c-0.258,0.477-0.555,0.924-0.816,1.382
		c-0.295,3.731,2.546,3.411,4.741,3.472c7.473,0.207,14.952,0.072,22.428,0.084c10.634,0.017,21.267-0.022,31.9,0.022
		c2.482,0.011,5-0.138,7.335,1.004c4.866,4.397,4.712,10.719,6.289,16.379c0.212,4.545,3.838,8.166,3.502,12.861
		c-0.028,1.35,0.078,2.71-0.372,4.021c-0.646,1.225-1.721,2.082-2.636,3.077c-8.483,5.681-17.364,10.369-27.822,11.143
		c-3.324-0.685-6.53-0.671-9.384,1.546c-21.956,2.645-43.827,0.956-65.653-1.459c-7.346-0.813-8.271-2.705-6.376-10.052
		c0.333-1.293,0.607-2.594,0.86-3.895c0.959-2.243,1.363-4.583,1.118-7.029c1.567-8.475,3.365-16.904,4.97-25.375
		c2.281-12.042,3.985-24.184,6.565-36.172c4.112-19.111,6.566-38.527,10.505-57.675c0.968-4.703,1.321-9.514,1.728-14.318
		c1.271-15.006-5.689-25.018-18.491-31.771c-3.996-2.106-8.137-3.776-12.539-4.717C4.577,147.833,2.594,146.814,1,145
		c0-15,0-30,0-45c0.991-1,2.212-1.473,3.598-1.439c8.62,0.209,17.257-0.697,25.864,0.613c4.776,0.727,9.623,0.298,14.438,0.313
		c15.12,0.049,30.24-0.015,45.348,0.033c0.578,0.009,1.165,0.046,1.741,0.106c7.027,6.273,13.15,13.305,17.748,21.582
		c0.224,0.403-0.05,0.962-0.179,1.441c-1.37,2.35-3.703,1.75-5.771,1.831c-8.232,0.321-16.492-0.58-24.69,0.558
		c-2.284,0.88-2.553,2.823-2.589,4.909c-0.037,2.101,0.201,4.225-0.686,6.253c0.659-0.759,1.18-0.311,1.709-0.049
		c2.586,3.011,1.454,6.56,1.484,9.935c0.19,3.167-3.025,7.591,3.169,8.528c7.248,0.156,14.488,0.463,21.7-0.224
		c3.721-2.003,1.408-4.863,1.039-7.445c-0.65-2.313-0.939-4.595,0.534-6.735c0.629-1.283,1.587-2.073,3.083-2.051
		c2.144,0.259,3.506,1.775,4.886,3.181c6.009,6.123,11.806,12.475,19.077,17.202c9.234,6.649,19.853,9.469,30.858,11.267
		c11.989,1.96,24.018,1.824,36.067,0.843c2.792-0.229,5.538,1.925,8.354,0.133c1.051-1.407,2.556-2.273,4.166-2.456
		c8.466-0.958,15.856-5.261,23.894-7.527c1.625-0.458,2.85-1.594,3.854-2.938c3.412-3.218,8.271-4.872,10.574-9.639
		c-1.899-1.733-4.185-0.872-6.181-1.268c-4.195-0.831-5.076-3.007-2.804-6.987c3.099-0.91,6.272-0.28,9.407-0.47
		c1.801-0.108,3.691,0.222,5.197-1.15c0.243-0.406,0.529-0.779,0.808-1.156c2.038-2.302,2.696-5.17,3.479-8.032
		c0.503-1.841,0.676-3.947,2.521-5.175c0.425-0.184,0.854-0.176,1.295,0.027c-0.408-1.573-1.205-2.99-1.444-4.588
		c-0.111-0.474-0.143-0.951-0.124-1.436c0.719-4.441,0.232-8.918,0.398-13.374c0.081-2.205-0.797-3.46-3.039-3.678
		c-4.213,0.282-8.369-0.788-12.578-0.438c-1.17,0-2.34,0.002-3.51,0.037c-24.91,2.434-49.889,1.701-74.85,1.561
		c-5.512-0.03-7.476-2.533-6.863-8.563c1.533-15.071,3.698-30.06,7.524-44.742c1.719-6.597,3.265-13.257,5.682-19.659
		c0.607-1.609,0.939-3.232-0.566-4.602c-3.723-1.79-7.677-2.045-11.707-2.044C111.48,22.505,60.041,22.51,8.601,22.472
		C6.01,22.47,3.208,23.15,1,21z"/>
	<path fill-rule="evenodd" fill="#0575EE" d="M160,400c-45,0-90,0-135,0c-3.499-1.963-3.999-5.169-4.277-8.863
		c-0.931-12.361,1.542-24.474,2.278-36.708c0.144-2.398,1.749-4.288,2.404-6.506c0.616-2.69,2.541-3.847,5.079-3.922
		c16.612-0.492,33.245-1.179,48.895,6.143c8.46,3.957,15.359,9.705,20.713,17.341c0.468,0.667,0.918,1.395,2.171,1.895
		c2.858-3.341,4.225-7.605,5.787-11.643c3.416-8.829,7.452-17.393,10.866-26.213c0.698-1.805,2.167-2.899,3.108-4.438
		c0.358-0.713,0.994-1.114,1.657-1.479c0.477-0.142,0.958-0.139,1.438-0.016c3.754,2.746,3.125,7.757,5.863,11.463
		c2.75-2.503,2.614-6.274,4.472-8.979c1.246-1.637,2.144-3.387,1.873-5.543c4.785-14.014,11.099-27.412,16.441-41.198
		c1.794-4.631,4.909-6.56,9.942-6.582c13.808-0.062,27.625,0.54,41.428-0.398c2.161,0.573,2.151,2.482,2.57,4.135
		c0.537,1.936,1.1,3.866,1.292,5.878c0.054,2.02,0.214,4.063-1.129,5.809c-2.075,2.146-4.796,1.979-7.439,1.998
		c-9.796,0.07-19.594,0.111-29.388-0.013c-4.107-0.052-6.419,1.504-7.726,5.432c-2.04,6.136-4.736,12.036-7.087,18.063
		c-0.598,1.533-1.432,3.021-0.998,4.86c0.769,1.84,3.648,1.698,4.037,4.013c-1.175,3.542-5.034,1.839-7.631,4.133
		c-1.797,2.415-2.73,5.917-3.828,9.389c-1.546,4.889-3.092,9.846-5.571,14.323c-4.836,8.736-4.674,17.68-1.984,26.883
		c0.517,1.769,0.841,3.545,0.648,5.296c-0.04,0.073-0.037,0.242,0.026,0.399c0.532-6.978,4.586-12.703,6.837-19.063
		c4.137-11.694,8.753-23.222,13.01-34.881c0.911-2.494,0.242-4.788,0.191-7.189c1.388-1.836,3.312-2.009,5.377-1.768
		c3.897,0.201,7.929-1.206,11.661,0.973c0.732,0.587,1.149,1.363,1.34,2.266c1.146,4.977-0.911,9.486-2.088,14.125
		c-4.418,17.411-8.659,34.868-13.072,52.281C163.404,394.784,162.614,397.844,160,400z"/>
	<path fill-rule="evenodd" fill="#0D0E19" d="M123.258,327.016c-6.616,15.923-13.231,31.845-20.138,48.468
		c-18.343-30.056-46.339-31.788-76.095-28.717c-1.105,1.766-3.172,2.354-5.016,4.13c-3.171,12.299-4.718,25.17-3.279,38.346
		c0.405,3.704,1.612,7.621-1.73,10.758c-5.324,0-10.647,0-15.985,0C1,315,1,230,1,145c34.916,4.247,44.394,22.521,35.546,67.699
		c-6.939,35.432-13.535,70.931-20.283,106.4c0.133,1.832,0.842,3.713-0.453,5.426c-0.794,3.866-1.587,7.732-3.006,14.641
		c24.628,0,48.408,0,72.188,0c2.65-2.256,6.079-1.11,9.026-2.069c8.98-3.434,17.96-6.867,26.941-10.301
		C121.783,326.257,122.717,324.588,123.258,327.016z"/>
	<path fill-rule="evenodd" fill="#0D0E19" d="M1,99c0-25.333,0-50.667,0-76c6.939-1.94,13.966-0.898,20.97-0.618
		c3.462,5.081,8.603,6.165,14.299,6.136c11.26-0.058,22.52-0.034,33.78-0.001c1.967,0.005,3.988-0.288,5.865,0.638
		c1.596,1.256,2.077,3.08,1.802,4.879c-0.905,5.924-0.246,11.86-0.397,17.783c-0.155,1.456-1.053,2.496-1.983,3.513
		c-1.419,1.347-3.649,1.363-4.905,2.988c-0.542,0.445-1.135,0.819-1.747,1.159c-2.396,1.713-5.222,2.991-6.147,6.166
		c-0.148,0.418-0.368,0.799-0.635,1.151c-0.963,0.843-1.884,1.717-2.078,3.087c-0.112,0.667-0.316,1.303-0.579,1.927
		c-0.168,0.443-0.389,0.854-0.637,1.26c-0.242,0.427-0.531,0.813-0.838,1.189c-3.919,5.365-4.299,11.605-4.467,17.908
		c-0.881,2.608,0.844,6.227-2.996,7.674C33.856,100.345,17.43,99.578,1,99z"/>
	<path fill-rule="evenodd" fill="#0D0E19" d="M177.608,324.849c-3.903-0.163-7.807-0.326-11.71-0.49
		c-1.066-1.848-1.044-3.734-0.385-5.73c0.83-2.512,1.583-5.053,2.514-7.527c3.267-8.687,4.099-9.278,13.355-9.319
		c7.276-0.032,14.553-0.113,21.829,0.071c2.776,0.07,5.33,0.523,6.305,3.676c1.567,3.73-0.253,7.997,1.68,11.537
		c2,2.052,4.44,1.635,6.715,1.656c8.481,0.08,16.963-0.023,25.444,0.065c2.291,0.023,4.691-0.348,6.758,1.092
		c0.331,0.339,0.654,0.698,0.668,1.232c0.467-0.211,0.907-0.385,1.379-0.463c-5.387,26.45-10.771,52.9-16.158,79.352
		c-11.667,0-23.333,0-35,0c-1.134-5.059-0.761-10.192-0.152-15.214c1.354-11.183,2.123-22.396,2.693-33.632
		c0.005-1.156,0.37-2.246,0.628-3.354c0.349-1.619,0.28-3.281,0.476-4.917c0.756-2.348,0.91-4.768,0.854-7.213
		c0.116-3.208-0.262-6.431,0.271-9.601c0.086-0.237,0.193-0.498,0.31-0.772c-0.348-0.208-0.641,0.114-1.002,0.107
		c-7.595,0.418-15.185-0.46-22.723,0.573C180.593,326.22,179.203,325.163,177.608,324.849z"/>
	<path fill-rule="evenodd" fill="#6DCEF2" d="M160,400c6.019-24.65,12.039-49.301,18.058-73.951
		c8.306-2.24,16.774-0.359,25.145-0.984c0.658-0.049,1.321,0.118,2.58,1.026c1.007,4.567,0.641,9.908-0.024,14.938
		c-1.022,7.727-1.254,15.511-2.317,23.203c-1.476,10.669-1.382,21.469-2.99,32.115c-0.201,1.336-0.566,2.594-1.45,3.652
		C186,400,173,400,160,400z"/>
	<path fill-rule="evenodd" fill="#05A0AD" d="M17,400c-0.67-17.561-1.84-35.151,3.296-52.836c2.176-0.128,4.452-0.263,6.729-0.397
		C24.682,364.447,20.111,382.044,25,400C22.333,400,19.667,400,17,400z"/>
	<path fill-rule="evenodd" fill="#0D0E19" d="M471,2c-52.942,0.335-105.885,0.679-158.826,0.922C311.451,2.925,310.725,1.669,310,1
		c52.334,0,104.666-0.008,157,0.042C468.334,1.043,469.666,1.667,471,2z"/>
	<path fill-rule="evenodd" fill="#0258B8" d="M21.73,23.258C14.82,23.172,7.91,23.086,1,23c0-0.667,0-1.333,0-2
		c57.424,0.002,114.848-0.005,172.272,0.042c1.927,0.002,3.853,0.55,5.779,0.843c-1.377,2.579-3.909,2.245-6.174,2.301
		c-7.662,0.191-15.327,0.079-22.99,0.081c-34.987,0.009-69.975,0.002-104.962,0.005c-6.827,0.001-13.655-0.077-20.479,0.233
		C23.441,24.305,22.589,23.773,21.73,23.258z"/>
	<path fill-rule="evenodd" fill="#ACD6F4" d="M199,400c2.306-24.275,4.611-48.552,7.023-73.952c-9.909,0-18.938,0-27.966,0
		c-0.148-0.401-0.297-0.803-0.447-1.202c9.73-0.239,19.464-0.481,29.197-0.724c0.396,0.164,0.586,0.46,0.57,0.89
		c-0.188,3.588-0.375,7.176-0.562,10.764c-0.874,2.35,0.316,4.912-0.746,7.243c-0.083,1.579-0.165,3.159-0.248,4.738
		c-0.235,0.733-0.438,1.471-0.269,2.252c-1.518,16.664-3.036,33.327-4.553,49.991C200.333,400,199.667,400,199,400z"/>
	<path fill-rule="evenodd" fill="#0258B8" d="M1,99c16.674-0.009,33.348-0.017,50.021-0.025c1.518-0.733,3.107-1.155,4.804-1.17
		c10.153-0.092,20.307-0.213,30.456,0.085c2.316,0.068,5.176-0.157,5.829,3.226C61.74,100.743,31.37,100.372,1,100
		C1,99.667,1,99.333,1,99z"/>
	<path fill-rule="evenodd" fill="#0258B8" d="M453.855,376.518c0.069-0.151,0.099-0.366,0.217-0.44
		c0.229-0.144,0.506-0.209,0.764-0.307c0,6.052,0,12.103,0,19.693c-54.818,0-108.229,0-162.314,0
		c3.634-25.326,4.232-52.383,25.112-73.192c-12.634-1.297-24.153-2.479-35.674-3.661c0.546-0.343,1.105-0.662,1.678-0.957
		c1.536-0.781,3.209-0.868,4.874-0.866c15.32,0.017,30.641-0.292,45.953,0.169c6.143-0.386,12.29-0.256,18.424-0.015
		c0.678,0.075,1.365,0.087,2.021-0.076c1.145-0.621,0.627-1.654,0.615-2.569c-2.498-6.795-5.146-13.535-6.184-20.752
		c0.428-1.896-0.061-3.526-1.447-4.895c-1.945-4.068-2.824-8.497-4.328-12.714c-0.207-1.417,0.268-2.827,0.096-4.138
		c-0.447-1.188-1.52-1.75-2.084-2.713c-0.556-2.097-2.363-3.776-2.07-6.156c-0.037-2.257,0.084-4.519-0.183-6.366
		c-0.402-2.114-2.371-2.042-3.187-3.237c-0.787-1.088-1.08-2.298-0.902-3.622c0.289-4.113,1.26-8.38-2.633-11.543
		c-0.342-0.361-0.605-0.774-0.799-1.231c-0.594-1.708,0.236-3.213,0.734-4.818c0.436-0.416-0.705-0.024-0.177,0.373
		c0.069,0.053-0.255,0.585-0.552,0.733c-0.449,0.226-0.949,0.197-1.441,0.083c-3.338-1.304-2.564-4.665-3.58-7.131
		c-0.143-1.233-0.791-2.296-1.188-3.445c-1.458-7.423-4.769-14.258-6.827-21.484c-0.257-1.777,1.118-3.956-1.291-5.211
		c-0.905-1.523-2.965-1.501-3.941-2.933c-4.1-7.631-5.977-16.071-8.701-24.194c-1.942-5.79-3.575-11.689-5.646-17.443
		c-0.823-2.287-1.232-4.479,0.527-6.529c4.485-1.918,8.97-3.836,13.454-5.754c1.188-2.385,3.471-2.297,5.59-2.338
		c9.421-0.181,18.844-0.183,28.265,0.002c2.12,0.041,4.403-0.043,5.571,2.362c12.549,5.288,25.099,10.576,37.648,15.863
		c0.289,0.761,0.631,1.503,0.841,2.293c0.05,3.011-0.923,5.937-0.728,8.961c-2.598,14.379-4.691,28.84-7.219,43.229
		c-4.594,26.168-8.974,52.371-13.13,78.612c-0.421,2.653-1.284,5.125-3.017,7.233c2.137,7.61,4.273,15.222,6.561,23.371
		c21.508,0,42.867,0,64.559,0c9.435,15.67,11.814,32.993,14.922,50.093c-3.141,0.26-3.096-2.449-3.76-4.264
		c-2.568-7.021-4.121-14.358-7.523-21.142c-4.013-7.996-9.84-13.337-18.681-15.046c-17.692-3.419-35.471-5.505-53.537-3.483
		c-5.798,0.648-11.662,0.03-17.481,0.314c-8.314,0.407-16.602,1.193-24.504,4.106c-7.615,2.808-12.813,8.379-16.232,15.445
		c-5.123,10.587-7.452,22.017-8.977,33.607c-0.234,1.785-0.313,3.683,1.223,5.538c3.813,1.849,8.309,0.21,12.47,1.254
		c0.497,0.065,1.001,0.119,1.499,0.151c0.477,0.006,0.961,0.002,1.438-0.021c1.627-0.256,3.279-0.419,4.787-1.075
		c3.041-3.118,2.797-7.315,3.793-11.09c0.68-1.409,1.955-2.551,1.9-4.288c-0.004-0.689,0.111-1.354,0.408-1.979
		c0.76-1.297,2.209-2.133,2.5-3.745c0.083-0.418,0.159-0.837,0.217-1.26c0.164-1.08,0.818-1.971,1.139-2.995
		c0.182-0.408,0.416-0.779,0.691-1.128c0.764-0.902,0.913-2.117,1.548-3.091c1.808-2.659,4.221-3.926,7.478-3.25
		c3.719,0.471,7.176-0.236,10.344-2.285c18.688-0.768,37.377-0.341,56.065-0.246c2.05,0.011,3.912,0.564,5.571,1.756
		c1.938,0.713,3.083,2.777,5.264,3.101c6.147,2.796,7.482,8.552,8.32,14.312c0.781,5.367,2.534,10.483,2.82,15.397
		c2.098,1.485,3.769,1.078,5.405,0.956c4.333-1.31,8.985,0.226,12.985-1.257C452.529,381.262,451.189,377.839,453.855,376.518z"/>
	<path fill-rule="evenodd" fill="#F21C1B" d="M352.602,139.201c-13.144-0.009-26.287-0.018-39.428-0.026
		c-14.307,0.023-28.613,0.046-42.922,0.069c-1.148,0.806-2.221,0.783-3.198-0.293c-0.102-9.965-0.203-19.93-0.306-29.895
		c-0.392-2.061-0.369-4.123-0.015-6.187c-1.052-33.938,1.101-66.836,30.247-90.652c3.887-3.177,8.294-5.716,13.131-9.007
		c2.635,7.637,4.744,13.75,6.853,19.864c0.292,2.008-0.955,3.042-2.479,3.881c-10.182,5.604-17.881,13.553-22.792,24.135
		c-1.663,3.185-3.493,6.314-2.845,10.145c0.449,7.578-0.129,15.291,3.301,22.444c5.609,11.7,14.188,20.288,26.263,25.231
		c1.997,0.817,3.968,1.697,5.979,2.483c1.998,1.729,4.307,2.378,6.917,1.994c0.773-0.17,1.546-0.158,2.321-0.035
		c6.43,1.899,12.818,1.354,19.188-0.326c3.01-0.443,6.111,1.266,9.064-0.404c0.611-0.474,1.28-0.841,1.986-1.146
		c7.998-1.986,15.824-4.314,22.445-9.605c1.582-1.265,3.551-2.67,5.809-0.938c21.453,0,42.907,0,65.202,0
		c-6.411,18.04-0.921,43.297-34.441,38.502C399.914,136.151,376.059,139.062,352.602,139.201z"/>
	<path fill-rule="evenodd" fill="#6DCEF2" d="M360.117,114.042c-2.31,0.361-4.619,0.723-6.928,1.084
		c-6.692,0.576-13.385,0.662-20.077-0.003c-0.802-0.115-1.604-0.231-2.406-0.347c-1.927-1.627-4.783,0.108-6.624-1.832
		c-21.926-2.751-39.183-27.28-36.802-52.309c1.857-3.207,2.86-6.654,2.917-10.368c4.521-13.396,15.107-20.822,26.767-27.192
		c0.202-0.024,0.403-0.06,0.602-0.106c2.523,0.951,3.794,2.871,4.828,5.326c7.096,16.856,14.128,33.736,20.947,50.708
		c2.258,5.62,4.562,11.28,7.589,17.231c1.936-3.411,2.311-6.545,2.854-9.595c3.096-17.338,7.082-34.496,10.438-51.782
		c1.386-7.137,6.446-9.798,13.512-7.688c3.926,1.173,4.268,4.109,3.584,7.585c-2.563,13.045-5.253,26.063-7.955,39.08
		c-1.613,7.77-3.558,15.485-4.505,23.393c3.735,2.687,7.683,1.089,10.901,1.925c2.535-1.612,2.748-3.821,3.134-5.937
		c3.076-16.837,7.256-33.453,9.985-50.359c0.769-4.758,2.551-9.289,3.415-14.047c0.285-1.57,1.019-3.218,2.884-3.789
		c11.199,4.302,20.611,10.859,22.662,23.44c3.739,22.921-11.332,36.411-26.332,49.69c-1.093,0.968-2.256,1.857-3.387,2.783
		c-9.311,4.037-18.622,8.075-27.934,12.112C362.998,114.063,361.261,112.838,360.117,114.042z"/>
	<path fill-rule="evenodd" fill="#E7C809" d="M336.775,318.64c-17.958,0.003-35.916,0.005-53.873,0.008
		c0.185-2.433-4.318-3.368-2.064-6.461c-0.021-0.399-0.041-0.799-0.063-1.198c-1.22-1.72-2.205-3.543-2.506-5.669
		c-0.025-2.049-0.661-3.982-1.176-5.939c-0.122-1.555-0.691-3.024-0.914-4.561c-0.258-1.853-1.028-3.595-1.201-5.467
		c-0.628-8.06-2.512-15.93-3.6-23.921c-0.361-2.647-0.604-5.221-0.139-7.845c0.246-2.989,0.375-5.956-1.828-8.419
		c-2.229-7.527-2.732-15.314-3.378-23.07c-0.247-2.972,0.218-6.003-0.774-8.914c-0.086-7.581-0.174-15.163-0.261-22.744
		c0.28-0.642,0.487-1.311,0.741-1.961c0.572-2.006-0.186-4.246,1.083-6.128c0.097-1.36,0.194-2.722,0.29-4.083
		c0.762-1.192-0.046-2.705,0.795-3.881c4.785-8.488,6.689-18.927,16.326-24.132c2.391,0.591,2.72,0.589,2.732,2.847
		c0.025,4.525,2.049,8.271,3.869,12.189c2.307,4.967,3.233,10.354,4.409,15.684c1.38,6.254,4.49,11.988,6.315,18.113
		c2.498,8.38,5.571,16.587,7.587,25.107c0.764,3.228,1.753,6.389,2.949,9.46c6.358,16.322,11.544,33.077,16.257,49.882
		c2.061,7.348,4.59,14.385,7.406,21.372C337.076,312.175,337.276,315.31,336.775,318.64z"/>
	<path fill-rule="evenodd" fill="#6DCEF2" d="M23.991,22.726c51.687-0.28,103.373-0.561,155.06-0.841
		c-4.846,23.561-9.713,47.117-14.502,70.688c-0.421,2.073-0.334,4.25-0.527,6.992c26.878,0,53.357,0,79.836,0
		c0.754,0.403,1.6,0.403,2.411,0.553c0.325,0.06,0.718,0.309,0.95,0.204c0.394-0.179-0.295-0.527-0.031-0.831
		c4.719-0.031,9.438-0.063,14.156-0.093c4.453,1.978,0.951,3.853-0.417,4.891c-3.311,2.511-7.246,3.974-11.124,5.5
		c-7.555,2.972-14.469,7.362-22.306,9.781c-5.405,1.667-10.727,3.292-16.457,2.935c-2.521-0.157-4.976,0.289-7.407,0.912
		c-7.414,0.557-14.898-0.785-22.268,0.847c-1.346,0.254-2.695,0.245-4.045,0.051c-4.319-1.277-8.674-2.426-13.035-3.542
		c-12.419-3.178-23.909-8.333-30.438-20.532c0.642-7.439,1.281-14.879,1.636-22.336c0.292-6.139,2.69-11.984,2.413-18.196
		c3.091-8.748,4.886-17.865,8.026-26.412c-2.085-2.573-4.761-2.285-7.135-2.692c-1.797-0.308-3.657-0.133-5.488-0.097
		c-35.772,0.715-71.517-1.604-107.288-1.015c-0.981,0.017-1.99,0.12-3.115-0.505C22.297,26.798,21.947,24.597,23.991,22.726z"/>
	<path fill-rule="evenodd" fill="#0258B8" d="M399.178,25.021c-5.213,25.257-10.426,50.513-15.702,76.08c-5.81,0-11.493,0-17.913,0
		c4.894-24.144,9.661-47.664,14.533-71.7c-4.168,0-7.892,0-12.316,0c-4.965,23.961-9.996,48.234-15.738,75.945
		c-12.443-29.733-23.459-56.055-34.475-82.377C344.982,15.153,372.254,13.17,399.178,25.021z"/>
	<path fill-rule="evenodd" fill="#ACD6F4" d="M453.855,376.518c0,2.949,0,5.899,0,9.927c-5.763,0-11.299,0-16.836,0
		c-3.59-3.172-2.272-7.702-2.988-11.597c-0.807-4.39-1.453-8.785-2.676-13.102c-2.55-9.007-8.691-14.093-17.404-16.613
		c-5.756-1.665-11.801-1.431-17.595-2.823c-4.716-3.164-10.104-2.14-15.026-1.574c-7.807,0.896-15.587,0.354-23.355,0.824
		c-7.244,0.438-14.592,0.582-21.418,3.573c-0.401,0.233-0.8,0.493-1.154,0.801c-1.219,0.764-2.574,1.391-3.124,2.895
		c-0.771,1.47-1.758,2.769-3.011,3.857c-0.424,0.396-0.883,0.753-1.332,1.118c-0.256,0.273-0.539,0.519-0.816,0.769
		c-0.379,0.412-0.768,0.814-1.15,1.228c-0.246,0.303-0.525,0.565-0.814,0.818c-1.064,1.234-0.43,2.76-0.701,4.131
		c-1.993,5.29-3.257,10.753-3.985,16.353c-0.172,0.487-0.415,0.936-0.693,1.365c-2.259,2.379-0.094,6.229-2.802,8.455
		c-5.454,0-10.908,0-16.364,0c0.771-36.237,8.874-64.79,51.675-63.931c14.129,0.284,28.291,0.027,42.41-0.613
		c33.138-1.504,53.684,12.421,58.346,46.479C453.311,371.41,453.584,373.964,453.855,376.518z"/>
	<path fill-rule="evenodd" fill="#DCDFED" d="M77.004,146.988c-0.311-3.688-0.621-7.377-0.932-11.065
		c-1.04-1.989-0.525-4.076-0.385-6.14c0.556-1.539-0.036-3.316,1.358-5.334c10.479-1.287,21.476,0.313,32.351-0.809
		c0.505-0.256,1.044-0.432,1.604-0.528c2.071-0.025,3.193,1.833,4.919,2.495c11.592,6.471,23.509,12.123,36.664,14.746
		c1.626,0.324,3.267,0.502,4.894,0.806c2.768,0.523,5.323,1.911,8.203,1.972c0.822-0.024,1.629,0.063,2.435,0.209
		c7.75,1.787,15.48,1.732,23.192-0.216c1.647-0.167,3.293-0.365,4.927-0.64c4.975-0.451,10.003-0.614,14.679-2.693
		c4.443-0.83,8.594-2.679,12.957-3.793c0.728-0.093,1.432-0.308,2.148-0.459c7.972-3.255,15.657-7.18,23.723-10.216
		c1.237-0.298,2.636,0.151,3.73-0.821c0.284-0.327,0.61-0.601,0.962-0.845c1.004-0.549,1.396-1.668,2.207-2.399
		c2.273-1.598,4.335-3.963,7.572-2.147c0.094,0.271,0.156,0.549,0.189,0.834c-0.034,1.339,0.55,2.753-0.482,3.971
		c-1.684,4.999-3.367,9.999-5.051,14.998c-3.279,2.179-6.943,0.679-10.41,1.059c-2.087,0.229-4.217-0.161-6.305,0.278
		c-0.569,0.209-0.934,0.606-1.092,1.191c0.076,1.087,0.152,2.173,0.242,3.454c4.605,0,8.896,0,16.717,0
		c-7.044,5.914-11.961,10.041-16.877,14.169c-3.713,1.69-7.63,2.217-11.678,2.215c-29.325-0.012-58.65-0.014-87.976,0.007
		c-3.73,0.002-7.281-0.653-10.711-2.07c-7.472-6.811-14.943-13.621-22.416-20.432c-2.075-0.347-1.995,0.756-1.455,2.166
		c0.068,1.972,0.136,3.944,0.204,5.916c0.727,3.372,0.409,6.733-0.103,10.093c-8.672,0.01-17.343,0.021-26.015,0.031
		c-0.744-0.852-2.063-0.98-2.615-2.074C77.288,152.382,78.993,149.363,77.004,146.988z"/>
	<path fill-rule="evenodd" fill="#6DCEF2" d="M366.998,295.393c6.11-37.845,12.217-75.689,18.334-113.533
		c0.914-5.649,1.879-11.291,2.82-16.936c1.883-2.298,2.115-5.012,1.971-7.82c0.043-0.68,0.084-1.358,0.127-2.038
		c8.895,8.192,17.791,16.386,26.686,24.579c1.555,6.252-0.859,12.085-2.278,17.896c-7.354,30.113-14.446,60.29-21.748,90.416
		c-0.815,3.365-1.382,6.904-4.586,9.086C381.215,296.493,374.107,295.942,366.998,295.393z"/>
	<path fill-rule="evenodd" fill="#E7C809" d="M112.904,282.975c-0.009-2.367-0.017-4.734-0.025-7.102
		c-0.886-8.072-0.098-16.174-0.413-24.255c-1.661-3.038-2.18-6.193-0.963-9.52c0.312-1.177,1.149-1.894,2.165-2.447
		c0.901-0.654,0.542-2.074,1.592-2.644c2.176-4.728,4.353-9.454,6.529-14.182c2.226-1.749,4.826-2.077,7.548-2.08
		c31.492-0.031,62.984-0.056,94.477,0.028c2.653,0.007,5.42-0.146,7.229,2.442c1.39,6.414,2.78,12.827,4.169,19.241
		c-0.99,2.912-3.542,2.676-5.8,2.704c-9.451,0.121-18.904,0.265-28.352-0.077c-2.001-0.572-4.094-0.306-6.121-0.616
		c-0.549-0.046-1.092-0.158-1.614-0.324c-0.478-0.221-0.891-0.543-1.23-0.947c-1.757-3.794-5.468-5.949-7.827-9.246
		c-0.849-2.181-2.415-3.387-4.784-3.498c-8.884-4.787-18.76-2.181-24.689,6.847c-2.715,4.134-5.079,8.504-5.882,13.579
		c-0.677,4.282-2.87,8.147-4.579,12.04c-6.304,14.36-11.357,29.211-17.545,43.606c-2.115,4.921-3.478,5.627-7.631,4.212
		c-1.472-6.021-2.943-12.043-4.415-18.064c-2.161-1.878-2.565-4.471-2.893-7.098c-0.021-0.488,0.047-0.963,0.208-1.424
		C112.312,283.739,112.596,283.348,112.904,282.975z"/>
	<path fill-rule="evenodd" fill="#6DCEF2" d="M336.775,318.64c-9.893-30.003-19.975-59.945-29.614-90.03
		c-7.914-24.699-15.3-49.568-22.923-74.358c5.16-3.104,10.322-6.211,15.484-9.32c5.197,16.276,10.396,32.555,15.594,48.833
		c3.949,5.288,4.768,11.817,6.965,17.789c2.66,7.235,4.613,14.71,6.734,22.118c-0.164,2.644,0.282,5.063,2.58,6.782
		c2.886,6.096,3.369,12.918,5.818,19.142c0.096,0.933-0.154,1.854-0.139,2.792c0.184,1.211,1.365,1.646,1.984,2.526
		c2.783,4.558,3.945,9.787,5.496,14.753c1.546,4.954,3.109,9.95,4.624,14.926c1.909,6.272,3.204,12.759,6.012,18.77
		c0.786,1.684,1.659,3.77-0.214,5.535C349.043,318.812,342.908,318.726,336.775,318.64z"/>
	<path fill-rule="evenodd" fill="#E7C809" d="M134.759,100.566c11.031,12.886,26.548,17.392,41.809,22.377
		c-4.299,3.16-9.217,0.836-13.792,1.557c-11.07,0-22.14,0-33.207,0c-5.634-0.301-11.314,0.651-16.917-0.577
		c-1.417-0.375-2.632-1.033-3.325-2.412c-5.499-6.786-10.998-13.572-16.497-20.358C80.433,90.437,76.355,76.171,75.5,60.529
		c0.07-2.482-0.286-5.008,0.777-7.385c0.584-2.637,2.212-4.59,4.619-5.497c10.482-3.953,20.687-9.058,32.41-8.181
		c3.544,0.265,6.833-1.196,10.239-1.885c3.438,0.303,7.137-1.226,10.233,1.466c0.963,1.471,1.158,3.076,0.75,4.758
		c-2.105,8.68-4.072,17.389-5.731,26.166c-0.212,1.123-0.84,2.153-1.551,3.076c-3.191,2.194-6.899,1.938-10.503,2.102
		c-4.405,0.202-8.854-0.306-13.344,0.365c0.397,3.063,3.289,3.227,4.317,5.086c0.262,0.422,0.446,0.874,0.563,1.355
		c-0.109,4.659-1.805,9.019-2.933,14.03c9.136,1.931,18.248,1.268,27.162,2.457C133.54,98.855,134.015,99.853,134.759,100.566z"/>
	<path fill-rule="evenodd" fill="#6DCEF2" d="M424.117,189.148c30.645,37.813,22.175,83.399-19.523,104.64
		c-1.779,0.905-4.08,0.787-6.139,1.146c-1.98-2.454-1.014-5.118-0.388-7.654c4.823-19.543,9.156-39.202,14.084-58.721
		c2.769-10.963,5.624-21.909,7.9-32.995C420.579,192.995,421.104,190.231,424.117,189.148z"/>
	<path fill-rule="evenodd" fill="#DCDFED" d="M111.946,180.902c2.454,13.654,4.909,27.309,7.619,42.387c-16.048,0-31.246,0-46.444,0
		c-0.627,0.173-1.181,0.041-1.664-0.395c-2.978-4.851-2.732-10.479-3.679-15.793c-1.276-7.161-2.585-14.329-3.081-21.613
		c-0.141-2.062-0.417-4.015,1.868-5.127c14.361-0.781,28.728-0.229,43.09-0.282C110.504,180.075,111.263,180.404,111.946,180.902z"
		/>
	<path fill-rule="evenodd" fill="#6DCEF2" d="M231.042,223.217c-36.418-0.13-72.835-0.261-109.253-0.391
		c4.378-5.661,8.756-11.321,13.134-16.982c3.885-0.985,7.836-1.132,11.827-1.121c17.079,0.047,34.158,0.044,51.236-0.003
		c2.45-0.007,5.009,0.375,7.344-1.277c2.138-2.652,1.167-5.935,1.425-8.998c0.218-2.595-0.345-5.408,2.218-7.281
		C227.247,192.498,228.493,208.256,231.042,223.217z"/>
	<path fill-rule="evenodd" fill="#E7C809" d="M251.383,320.536c-14.063,0-28.125,0-43.105,0c0-4.596,0-9.489,0-14.382
		c0.211-3.11-1.774-5.544-2.598-8.338c-0.838-2.844-1.221-5.513,1.262-7.772c-0.007-2.091-0.015-4.183-0.022-6.273
		c-0.8-1.746-0.272-3.59-0.4-5.389c0.03-1.975,1.528-2.596,2.992-3.252c8.874-0.772,17.757-0.316,26.638-0.287
		c2.138,0.007,3.8,0.88,5.158,2.456c1.993,6.606,3.985,13.213,5.978,19.818c1.033,1.172,0.478,2.727,0.971,4.027
		c0.196,0.348,0.419,0.677,0.668,0.989c0.784,4.72,1.568,9.439,2.353,14.159C251.937,317.691,252.328,319.097,251.383,320.536z"/>
	<path fill-rule="evenodd" fill="#6DCEF2" d="M241.308,277.299c-10.904-0.146-21.807-0.292-32.71-0.438
		c-3.324-1.626-4.583-4.744-4.947-7.997c-0.639-5.717-3.075-10.681-5.604-15.664c-0.282-0.444-0.462-0.925-0.556-1.439
		c-0.275-1.913-1.345-3.728-0.704-5.746c0.371-1.705,2.056-1.96,3.154-2.864c11.757-0.23,23.515-0.461,35.271-0.691
		C237.244,254.072,239.275,265.686,241.308,277.299z"/>
	<path fill-rule="evenodd" fill="#E7C809" d="M208.974,187.163c0,6.418,0,12.836,0,18.681c-25.054,0-49.552,0-74.05,0
		c3.29-2.978,6.58-5.955,9.87-8.932c1.758-0.853,3.969-0.46,5.48-1.992c4.858-1.94,9.716-3.882,14.574-5.822
		c5.838-2.674,12.081-3.244,18.378-3.535c3.207-0.101,6.414-0.1,9.622-0.001c4.313,0.756,8.741,0.181,13.037,1.13
		C206.914,186.849,207.944,187.006,208.974,187.163z"/>
	<path fill-rule="evenodd" fill="#6DCEF2" d="M130.779,159.216c36.788-0.051,73.576-0.101,110.364-0.151
		c-9.834,7.653-21.833,9.599-33.409,12.658c-2.493,1.849-5.579-0.119-8.143,1.265C175.647,173.427,151.35,175.631,130.779,159.216z"
		/>
	<path fill-rule="evenodd" fill="#0258B8" d="M424.117,189.148c-8.554,35.263-17.107,70.525-25.662,105.787
		c-3.378,0.701-6.756,1.404-10.133,2.107c9.539-39.132,19.076-78.264,28.613-117.396C419.33,182.813,421.724,185.98,424.117,189.148
		z"/>
	<path fill-rule="evenodd" fill="#6DCEF2" d="M119.158,310.737c1.063,0.185,2.125,0.369,3.433,0.596
		c9.528-24.071,18.134-48.586,28.993-72.059c5.34-11.543,15.218-20.054,29.61-10.133c1.132,1.291,1.711,3.187,3.775,3.46
		c2.633,3.101,5.266,6.201,7.899,9.302c-1.456,1.849-3.535,1.578-5.51,1.586c-7.816,0.029-15.632-0.021-23.447,0.03
		c-2.137,0.015-4.39-0.206-5.962,1.749c-0.281,0.398-0.611,0.764-0.935,1.124c-1.251,1.09-1.865,2.462-1.791,4.138
		c-0.18,1.161-0.595,2.231-1.232,3.216c-2.27,2.082-3.583,4.57-3.265,7.75c-0.092,0.706-0.315,1.369-0.644,1.998
		c-2.216,2.471-4.061,5.078-3.255,8.686c-0.31,2.625-1.051,5.047-3.249,6.758c-0.372,0.181-0.785,0.189-1.196,0.207
		c-0.006,0.592,0.06,1.175,0.088,1.763c-0.002,0.426-0.06,0.843-0.159,1.255c-0.09,0.413-0.235,0.809-0.395,1.197
		c-0.075,0.193-0.17,0.381-0.244,0.575c-0.334,0.753-0.658,1.511-0.916,2.3c-0.109,0.417-0.268,0.811-0.445,1.201
		c-0.366,0.801-0.79,1.564-1.318,2.271c-0.29,0.346-0.613,0.656-0.954,0.948c-2.947,7.335-6.429,14.459-8.54,22.116
		c-0.083,0.474-0.243,0.917-0.464,1.341c-1.062,1.586-2.274,3.051-2.654,5.042c-0.285,1.491-0.991,2.819-2.969,1.904
		C121.996,317.618,120.577,314.178,119.158,310.737z"/>
	<path fill-rule="evenodd" fill="#E7C809" d="M251.045,126.854c-8.292,3.24-16.584,6.48-24.875,9.721
		c-3.141-2.697-0.788-7.097-3.145-10.029c-0.3-0.369-0.565-0.759-0.847-1.134c-4.931-1.923-10.058-0.43-15.061-0.94
		c-1.097-0.044-2.175-0.136-3.025-0.957c-0.398-0.48-0.432-0.984-0.104-1.513c20.39-1.394,37.888-11.036,55.743-19.624
		c1.048-0.504,1.697-1.837,2.531-2.784c-0.307-0.065-0.612-0.13-0.918-0.195c1.106,0,2.213,0,4.079,0
		c-0.415,6.766-0.812,13.238-1.21,19.712c-2.381,1.343-4.762,2.686-7.143,4.028c-0.695,0.52-1.362,1.078-2.084,1.562l-0.324,0.211
		C253.815,126.228,252.165,126.048,251.045,126.854z"/>
	<path fill-rule="evenodd" fill="#6F8AAB" d="M280.312,304.197c0.155,2.265,0.31,4.529,0.464,6.792
		c-4.391-0.001-8.782-0.001-15.516-0.001c0-31.651,0-62.73,0-93.808c1.951,10.808,3.902,21.612,5.853,32.417
		c1.056,0.824,0.837,1.991,0.832,3.098c-0.188,1.168-0.923,2.37,0.198,3.47c0.277,0.304,0.529,0.627,0.758,0.967
		c1.479,10.861,2.957,21.724,4.436,32.585c0.542,1.393-0.506,3.082,0.814,4.322c0.016,0.015,0.192-0.11,0.264-0.196
		c0.098-0.116,0.167-0.257,0.248-0.387c0.152,1.839,0.304,3.679,0.455,5.519C280.301,300.536,278.411,302.8,280.312,304.197z"/>
	<path fill-rule="evenodd" fill="#DCDFED" d="M113.938,241.098c-0.379,3.24-0.758,6.481-1.137,9.722
		c-0.013,0.604-0.234,0.658-0.633,0.239c-19.913,0-39.825,0-61.131,0c3.682-3.418-1.308-9.628,5.859-10.196
		c18.097-1.589,36.232-0.615,54.35-0.812C112.257,240.04,113.24,240.236,113.938,241.098z"/>
	<path fill-rule="evenodd" fill="#DCDFED" d="M113.106,284.527c0.545,2.716,1.091,5.431,1.636,8.146c-23.175,0-46.35,0-70.239,0
		c0.567-2.943,1.023-5.311,1.479-7.678c1.101-0.933,2.435-0.981,3.776-0.982c20.139-0.017,40.277-0.029,60.416,0.007
		C111.179,284.021,112.167,284.142,113.106,284.527z"/>
	<path fill-rule="evenodd" fill="#DCDFED" d="M76.827,61.057c1.692,14.819,8.31,27.672,16.004,40.096l-0.36-0.043
		c0,0-0.363,0.004-0.362,0.005c-13.695-0.713-27.392-1.426-41.088-2.14c0.353-2.674,0.705-5.348,1.058-8.021
		c0.199-0.13,0.398-0.26,0.596-0.39c0.472-0.071,0.936-0.038,1.389,0.112c5.162,0.927,10.335,2.094,15.302-0.768
		c0.292-0.38,0.618-0.72,0.95-1.056c2.106-4.021,1.119-8.216,0.743-12.375c-0.365-2.435-0.202-4.87-0.064-7.307
		c1.149-4.729,2.582-9.406,2.633-14.338c0.778-0.624,1.555-1.249,2.333-1.874c0.155,0.198,0.311,0.396,0.466,0.595
		C76.757,56.044,76.087,58.588,76.827,61.057z"/>
	<path fill-rule="evenodd" fill="#0D0E19" d="M66.183,180.979c2.187,13.97,4.374,27.938,6.562,41.908
		c-6.562,0.979-13.122,1.021-19.68-0.029c4.275-14.269,8.551-28.538,12.827-42.808c0.155,0.121,0.311,0.242,0.466,0.363
		C66.299,180.603,66.241,180.791,66.183,180.979z"/>
	<path fill-rule="evenodd" fill="#0D0E19" d="M57.22,132.868c-1.244-8.473-2.488-16.944-3.961-26.985
		c13.97,21.384,18.498,42.97,11.99,70.313c-2.554-14.721-4.498-25.926-6.442-37.132C57.602,137.172,57.996,134.87,57.22,132.868z"/>
	<path fill-rule="evenodd" fill="#ACD6F4" d="M109.328,121.511c0.553,0.629,1.107,1.258,1.66,1.886l0.14,0.091
		c-11.072,0.696-22.144,1.393-33.47,2.105c-0.458,1.4-0.959,2.936-1.461,4.471c-0.946-2.363-1.413-4.711,0.24-6.985
		C87.401,122.556,98.364,122.033,109.328,121.511z"/>
	<path fill-rule="evenodd" fill="#0258B8" d="M112.904,282.975c0.205,0.306,0.218,0.62,0.04,0.942
		c-0.833,0.756-1.865,0.575-2.842,0.575c-20.573,0.009-41.146,0.011-61.719,0.006c-0.832,0-1.66,0.007-2.416-0.42
		C68.28,283.71,90.592,283.342,112.904,282.975z"/>
	<path fill-rule="evenodd" fill="#6DCEF2" d="M45.968,284.078c22.326-0.054,44.651-0.107,66.977-0.161
		c0.194,0.168,0.248,0.372,0.163,0.612c-22.375,0.154-44.75,0.31-67.125,0.466C45.965,284.689,45.96,284.384,45.968,284.078z"/>
	<path fill-rule="evenodd" fill="#6DCEF2" d="M113.938,241.098c-19.014-0.078-38.028-0.157-57.042-0.235
		c2.724-0.265,5.448-0.529,8.171-0.794c1.345-0.984,2.896-0.558,4.347-0.545c15.102,0.135,30.207-0.374,45.306,0.251
		C114.459,240.215,114.198,240.656,113.938,241.098z"/>
	<path fill-rule="evenodd" fill="#0258B8" d="M114.72,239.774c-16.552,0.098-33.104,0.195-49.654,0.294
		c14.74-0.373,29.481-0.677,44.216-1.196c2.012-0.071,3.985-1.216,5.978-1.864C115.08,237.93,114.899,238.852,114.72,239.774z"/>
	<path fill-rule="evenodd" fill="#6DCEF2" d="M280.838,312.187c0.688,2.153,1.377,4.308,2.064,6.461l-0.475,0.08
		c0,0-0.467-0.114-0.467-0.116c-3.729-6.984-10.595,0.351-17.357-5.545c5.338-0.436,8.861-0.722,12.387-1.009
		c0.343,1.71-0.886,1.739-1.934,1.889c1.686,0.322,2.857-0.602,3.869-1.866C279.563,312.115,280.201,312.15,280.838,312.187z"/>
	<path fill-rule="evenodd" fill="#0D0E19" d="M267.054,138.951c1.066,0.098,2.133,0.195,3.199,0.293
		c-0.001,4.635-0.001,9.271-0.001,13.905c-1.066-0.137-2.132-0.273-3.198-0.409C267.054,148.144,267.054,143.548,267.054,138.951z"
		/>
	<path fill-rule="evenodd" fill="#0258B8" d="M65.892,180.051c15.413,0.046,30.826,0.091,46.239,0.137
		c-15.385,0.453-30.77,0.645-46.153-0.096L65.892,180.051z"/>
	<path fill-rule="evenodd" fill="#ACD6F4" d="M65.978,180.092c15.383,0.031,30.767,0.063,46.151,0.095
		c-0.041,0.244-0.102,0.483-0.183,0.717c-15.255,0.024-30.509,0.051-45.764,0.076C66.06,180.696,65.991,180.4,65.978,180.092z"/>
	<path fill-rule="evenodd" fill="#0258B8" d="M183.571,185.815c-6.24,1.094-12.479,2.188-18.722,3.281
		c6.037-1.352,12.075-2.705,18.114-4.058C183.293,185.198,183.495,185.457,183.571,185.815z"/>
	<path fill-rule="evenodd" fill="#ACD6F4" d="M112.167,251.059c0.196-0.118,0.407-0.197,0.633-0.238
		c0.026,8.352,0.052,16.704,0.079,25.055C112.642,267.602,112.404,259.33,112.167,251.059z"/>
	<path fill-rule="evenodd" fill="#ACD6F4" d="M123.415,321.058c1.689-2.485,3.377-4.971,5.066-7.456
		c2.563,4.613-1.032,7.935-2.457,11.712c-0.318,0.438-0.738,0.73-1.259,0.879l-0.261,0.029l-0.263-0.001
		c-0.72-0.334-1.365-0.709-0.944-1.683C123.336,323.378,123.375,322.218,123.415,321.058z"/>
	<path fill-rule="evenodd" fill="#ACD6F4" d="M77.004,146.988c1.331,3.334,2.661,6.668,3.991,10.002c-1.224,0-2.448,0-3.991,0
		C77.004,153.252,77.004,150.12,77.004,146.988z"/>
	<path fill-rule="evenodd" fill="#0258B8" d="M53.064,222.858c6.56,0.01,13.12,0.02,19.68,0.029c0.252,0.014,0.377,0.147,0.376,0.4
		c-0.068,0.221-0.096,0.445-0.083,0.676l-0.046,0.06C66.349,223.636,59.707,223.247,53.064,222.858z"/>
	<path fill-rule="evenodd" fill="#849A21" d="M183.571,185.815c-0.202-0.259-0.404-0.518-0.607-0.776
		c6.765,0.305,13.531,0.609,20.296,0.914c-2.009,1.325-4.367-0.077-6.425,0.834c-0.066,0.028-0.118,0.214-0.091,0.299
		c0.047,0.146,0.162,0.271,0.249,0.403C192.52,186.931,188.045,186.373,183.571,185.815z"/>
	<path fill-rule="evenodd" fill="#0CB3E8" d="M278.926,312.08c-1.242,6.762-5.947,1.246-5.498,0.864
		c-1.12,0.278,1.221-0.304,3.563-0.887C277.635,312.065,278.281,312.072,278.926,312.08z"/>
	<path fill-rule="evenodd" fill="#0258B8" d="M241.063,141.441c0.04-0.511,0.08-1.021,0.12-1.533
		c5.893-0.668,11.784-0.688,17.677,0.011C252.927,140.427,246.994,140.934,241.063,141.441z"/>
	<path fill-rule="evenodd" fill="#ACD6F4" d="M258.859,139.919c-5.894-0.003-11.787-0.005-17.678-0.009
		c5.896-0.333,11.791-0.664,17.688-0.996C258.865,139.249,258.862,139.584,258.859,139.919z"/>
	<path fill-rule="evenodd" fill="#ACD6F4" d="M247.188,99.491c1.938,0.289,3.874,0.579,7.526,1.125c-5.118,0-8.54,0-12.231,0
		c0.52-0.396,0.947-0.725,1.376-1.052C244.967,99.54,246.077,99.516,247.188,99.491z"/>
	<path fill-rule="evenodd" fill="#0258B8" d="M73.038,223.964c4.739,0,9.479,0,14.218,0c-0.021,0.456-0.042,0.912-0.064,1.368
		c-4.733-0.437-9.467-0.872-14.2-1.309L73.038,223.964z"/>
	<path fill-rule="evenodd" fill="#0258B8" d="M76.437,123.078c-0.08,2.328-0.16,4.656-0.24,6.985
		c-0.041,1.953-0.083,3.905-0.124,5.858c-0.125,0.475-0.249,0.949-0.374,1.424c-0.434-0.047-0.867-0.094-1.3-0.14
		C75.078,132.497,75.758,127.787,76.437,123.078z"/>
	<path fill-rule="evenodd" fill="#0258B8" d="M94.017,337.097c-3.009,0.689-6.017,1.379-9.026,2.069
		C88,338.477,91.008,337.786,94.017,337.097z"/>
	<path fill-rule="evenodd" fill="#6DCEF2" d="M196.993,187.489c2.089-0.512,4.179-1.023,6.268-1.536
		c0.875,0.247,1.75,0.493,2.624,0.739c-3.537-0.517-7.073-1.033-15.61-2.28C195.614,186.857,196.304,187.173,196.993,187.489z"/>
	<path fill-rule="evenodd" fill="#6DCEF2" d="M251.383,320.536c-0.035-1.416-0.07-2.832-0.106-4.246
		c0.285,1.462,0.57,2.921,0.868,4.369c-0.145,0.122-0.303,0.255-0.438,0.395C251.615,320.885,251.499,320.71,251.383,320.536z"/>
	<path fill-rule="evenodd" fill="#0258B8" d="M150.273,194.92c-1.826,0.664-3.651,1.328-5.479,1.992
		C146.62,196.248,148.447,195.584,150.273,194.92z"/>
	<path fill-rule="evenodd" fill="#ACD6F4" d="M107.01,156.959c0.034-3.365,0.068-6.729,0.103-10.093
		C107.079,150.23,107.044,153.595,107.01,156.959z"/>
	<path fill-rule="evenodd" fill="#0258B8" d="M57.22,132.868c0.529,2.065,1.058,4.131,1.586,6.196
		C58.277,136.999,57.749,134.934,57.22,132.868z"/>
	<path fill-rule="evenodd" fill="#0258B8" d="M199.592,172.987c2.714-0.421,5.429-0.843,8.144-1.264
		C205.021,172.145,202.306,172.566,199.592,172.987z"/>
	<path fill-rule="evenodd" fill="#6F8AAB" d="M106.909,140.95c-0.418-1.286-0.837-2.571-2.056-6.312
		c2.282,2.691,2.9,3.421,3.514,4.147C107.879,139.506,107.394,140.229,106.909,140.95z"/>
	<path fill-rule="evenodd" fill="#304049" d="M265.982,191.203c-0.328,1.077-0.656,2.154-0.983,3.234
		c0.364-2.483,0.728-4.969,1.092-7.453C266.681,188.406,266.875,189.819,265.982,191.203z"/>
	<path fill-rule="evenodd" fill="#6DCEF2" d="M265.982,191.203c0.035-1.406,0.072-2.813,0.108-4.22
		c0.223-0.24,0.467-0.453,0.732-0.635C266.543,187.969,266.263,189.586,265.982,191.203z"/>
	<path fill-rule="evenodd" fill="#6F8AAB" d="M15.81,324.525c0.151-1.809,0.302-3.617,0.453-5.426
		C16.112,320.908,15.961,322.717,15.81,324.525z"/>
	<path fill-rule="evenodd" fill="#6DCEF2" d="M248.069,300.579c-0.261-1.154-0.522-2.309-0.784-3.463
		c0.188-0.063,0.379-0.1,0.577-0.108C248.858,298.145,248.688,299.349,248.069,300.579z"/>
	<path fill-rule="evenodd" fill="#0258B8" d="M266.733,102.87c0.005,2.062,0.011,4.124,0.015,6.187
		C266.744,106.995,266.738,104.933,266.733,102.87z"/>
	<path fill-rule="evenodd" fill="#304049" d="M267.908,178.387c-0.266,1.293-0.529,2.587-0.795,3.88
		C267.379,180.974,267.643,179.681,267.908,178.387z"/>
	<path fill-rule="evenodd" fill="#304049" d="M248.069,300.579c-0.069-1.19-0.138-2.381-0.207-3.571
		c0.354,1.708,0.708,3.417,1.062,5.125C248.639,301.615,248.354,301.098,248.069,300.579z"/>
	<path fill-rule="evenodd" fill="#0258B8" d="M123.297,324.538c0.314,0.56,0.629,1.119,0.944,1.681
		c-0.327,0.268-0.655,0.532-0.982,0.797c-0.767-0.073-1.534-0.146-2.301-0.22C121.738,326.043,122.517,325.291,123.297,324.538z"/>
	<path fill-rule="evenodd" fill="#0258B8" d="M263.92,123.915c0.16-1.323,0.321-2.647,0.482-3.971
		C264.241,121.268,264.08,122.591,263.92,123.915z"/>
	<path fill-rule="evenodd" fill="#0D0E19" d="M125.132,324.846c1.117-3.749,2.234-7.498,3.35-11.245
		c-0.001,0.001-0.035-0.231-0.035-0.231c2.657-8.288,5.726-16.412,9.625-24.206l0.004-0.095c0.51-0.699,0.389-1.673,1.009-2.324
		l-0.017-0.122c0.845-0.979-0.426-2.951,1.587-3.382l-0.272-0.144l-0.132,0.277c-0.096-0.701,0.443-1.068,0.805-1.529l0-0.235
		c0.301-0.809,0.247-1.779,1.074-2.347c0.932-2.441,1.864-4.882,2.795-7.322c1.417-2.9,1.402-6.383,3.637-8.951
		c0.188-0.645,0.377-1.29,0.565-1.935c0.955-2.727,1.464-5.656,3.572-7.859c0.382-1.031,0.764-2.063,1.146-3.094
		c-0.169-1.571,0.158-2.974,1.387-4.068l-0.125,0.112c0.424-2.023,1.495-3.16,3.736-3.132c11.089,0.143,22.174-0.152,33.257-0.489
		c0.562-0.018,0.908,0.329,1.32,0.584l0.115,0.035c4.044,1.795,3.788,5.841,4.82,9.213l-0.065,0.187
		c2.895,2.723,3.421,6.577,4.601,10.058c1.448,4.271,2.732,8.639,2.725,13.238c-15.777,0-31.554,0-47.438,0
		c-6.744,17.042-12.991,32.831-19.239,48.62c-0.808,0.571-1.31,1.521-2.3,1.869c-2.107,0.97-4.337,0.74-6.55,0.67
		c-1.19-0.075-2.351-0.306-3.469-0.733C125.975,325.951,125.508,325.445,125.132,324.846z"/>
	<path fill-rule="evenodd" fill="#6DCEF2" d="M206.942,290.044c0.445,5.369,0.891,10.738,1.335,16.108
		c-11.204-6.086-23.169,0.063-34.843-2.894c-2.65,7.419-5.092,14.257-7.536,21.098c-1.3,0.119-2.599,0.236-3.897,0.354
		c-1.343,0.968-2.678,0.971-4.003-0.036c-2.27-0.175-4.54-0.351-7.521-0.58c4.53-11.607,8.837-22.641,13.291-34.05
		C178.426,290.044,192.684,290.044,206.942,290.044z"/>
	<path fill-rule="evenodd" fill="#0D0E19" d="M157.998,324.674c1.33,0.012,2.66,0.023,3.997,0.035
		c1.147,0.092,2.287,0.183,3.894,0.311c-8.916,22.075-17.728,43.893-26.54,65.711c-1.659-1.424-0.682-3.143-0.532-4.768
		c-7.971-22.553,4.63-41.104,11.75-61.289C153.079,324.674,155.539,324.674,157.998,324.674z"/>
	<path fill-rule="evenodd" fill="#DCDFED" d="M125.132,324.846c0.49-0.06,0.98-0.118,1.47-0.177c0.844-0.116,1.688-0.249,2.52,0.063
		c2.633,0.001,5.266,0.003,7.899,0.004c1.127,1.437,0.666,2.863-0.028,4.288c-1.874,4.661-3.747,9.321-6.383,15.88
		c-2.394-7.666-4.119-13.188-5.844-18.711C124.888,325.743,125.01,325.294,125.132,324.846z"/>
	<path fill-rule="evenodd" fill="#ACD6F4" d="M205.616,275.839c-2.441-7.764-4.883-15.528-7.325-23.294
		c3.437,8.104,6.875,16.21,10.31,24.315c-0.604,0.641-1.205,1.281-1.805,1.921c-0.188,0.058-0.375,0.115-0.563,0.173
		C206.027,277.916,205.822,276.878,205.616,275.839z"/>
	<path fill-rule="evenodd" fill="#ACD6F4" d="M136.993,329.024c0.009-1.43,0.018-2.858,0.027-4.288
		c0.64-0.093,1.279-0.186,1.918-0.278C138.291,325.98,137.642,327.502,136.993,329.024z"/>
	<path fill-rule="evenodd" fill="#26A1FD" d="M138.816,385.963c0.177,1.588,0.354,3.177,0.532,4.767
		C139.17,389.141,138.993,387.552,138.816,385.963z"/>
	<path fill-rule="evenodd" fill="#6DCEF2" d="M206.233,278.954c0.186-0.063,0.374-0.119,0.563-0.17
		c0.042,1.662,0.083,3.326,0.125,4.988C206.691,282.165,206.462,280.56,206.233,278.954z"/>
	<path fill-rule="evenodd" fill="#6DCEF2" d="M73.089,68.993c-0.081,2.624-0.162,5.248-0.242,7.871
		c-1.523,2.645-0.59,5.539-0.843,8.313c-0.177,1.948,0.458,4.021-0.917,5.779l-0.128,0.153c-5.968,1.352-11.924,1.638-17.856-0.202
		l-0.006-0.02c-0.942-6.78,2.087-12.756,3.848-18.988l-0.038,0.113c0.406-0.282,0.727-0.645,0.991-1.06
		c0.146-0.648,0.293-1.298,0.44-1.946c1.09-0.921,2.207-1.825,2.083-3.474l0.078,0.213c2.965-2.119,4.904-5.214,7.389-7.789
		c0.445-0.304,0.889-0.607,1.333-0.911c1.465-0.843,2.959-1.254,5.015-0.074C74.899,60.901,73.125,64.899,73.089,68.993z"/>
	<path fill-rule="evenodd" fill="#DCDFED" d="M122.516,38.811c-15.691,3.286-31.906,4.872-45.775,14.08
		c-0.075,0.246-0.15,0.492-0.225,0.737c-0.161-0.2-0.321-0.401-0.481-0.602l-0.075-0.067c0.035-7.612,0.07-15.226,0.104-22.838
		c2.223-0.358,4.448-1.086,6.662,0.053c1.513,1.949,1.667,3.967,0.319,6.063c-0.348,0.282-0.65,0.647-1.996,0.674
		c1.323,0.03,1.727-0.197,2.151-0.362c3.687-1.339,7.481-0.536,11.232-0.579c2.098,0.233,4.197,0.223,6.3-0.016
		c2.83-0.143,5.656-0.147,8.482,0.034C113.562,37.339,118.355,36.585,122.516,38.811z"/>
	<path fill-rule="evenodd" fill="#ACD6F4" d="M81.616,30.029c-1.851,0.03-3.703,0.06-5.553,0.091
		c-17.851,0.001-35.703,0.001-53.964,0.001c-0.129-2.4-0.249-4.633-0.369-6.863c0.755-0.177,1.51-0.354,2.263-0.532
		c-0.298,1.724-0.595,3.447-1.067,6.194c42.246,0,83.771,0,126.471,0c-3.713,11.149-7.04,21.136-10.365,31.123
		c-0.241-0.167-0.481-0.335-0.724-0.5c-2.774-5.439,0.563-10.289,1.581-15.332c0.705-3.492,3.14-6.625,2.335-10.334
		c-2.042-2.117-4.5-1.602-6.759-1.612c-15.312-0.073-30.625-0.009-45.937-0.048C86.695,32.21,83.825,32.309,81.616,30.029z"/>
	<path fill-rule="evenodd" fill="#ACD6F4" d="M56.945,71.899c-1.283,6.329-2.566,12.659-3.849,18.989
		c-0.339,0.021-0.678,0.043-1.018,0.064C53.701,84.602,55.323,78.25,56.945,71.899z"/>
	<path fill-rule="evenodd" fill="#ACD6F4" d="M73.089,68.993c0-3.56,0-7.12,0-11.502c-0.882-0.102-2.375-0.273-3.869-0.445
		c1.469-0.737,2.938-1.475,4.406-2.213C73.447,59.554,73.268,64.273,73.089,68.993z"/>
	<path fill-rule="evenodd" fill="#ACD6F4" d="M67.887,57.957c-2.463,2.595-4.926,5.19-7.389,7.787
		C62.961,63.149,65.424,60.554,67.887,57.957z"/>
	<path fill-rule="evenodd" fill="#ACD6F4" d="M60.42,65.533c-0.694,1.157-1.388,2.315-2.082,3.473
		C59.032,67.849,59.726,66.69,60.42,65.533z"/>
	<path fill-rule="evenodd" fill="#ACD6F4" d="M57.898,70.953c-0.331,0.353-0.661,0.706-0.991,1.059
		C57.237,71.659,57.567,71.307,57.898,70.953z"/>
	<path fill-rule="evenodd" fill="#304049" d="M206.069,343.019c0.249-2.415,0.498-4.829,0.746-7.243
		C206.567,338.189,206.318,340.604,206.069,343.019z"/>
	<path fill-rule="evenodd" fill="#304049" d="M205.553,350.009c0.09-0.75,0.179-1.501,0.269-2.252
		C205.732,348.508,205.643,349.259,205.553,350.009z"/>
	<path fill-rule="evenodd" fill="#304049" d="M207.377,325.012c-0.19-0.297-0.38-0.593-0.57-0.89
		C206.997,324.419,207.188,324.715,207.377,325.012z"/>
	<path fill-rule="evenodd" fill="#ACD6F4" d="M415.848,360.395c0,8.76,0,17.197,0,26.131c-25.225,0-50.25,0-75.605,0
		c0-8.539,0-17.103,0-26.131C365.344,360.395,390.35,360.395,415.848,360.395z"/>
	<path fill-rule="evenodd" fill="#F21C1B" d="M327.875,352.164c1.078-1.435,2.157-2.87,3.236-4.306
		c0.595-1.442,1.551-2.437,3.197-2.575l-0.223,0.025c7.134-4.257,15.104-4.054,22.988-4.309c3.916-0.144,7.856,0.379,11.743-0.483
		c7.626,0,15.231-0.849,22.862-0.512c1.797,0.079,3.68-0.318,5.284,0.901c32.587-1.74,40.181,18.503,40.056,45.537
		c-2.458,0.145-4.916,0.289-7.127,0.419c-4.752-10.572,1.234-24.256-10.842-31.869c-1.081-0.152-1.229-1.445-2.167-1.773
		c-21.171-5.257-42.61-1.669-63.933-1.943c-3.152,1.849-7.032-0.551-10.108,1.733c-1.944,1.275-3.888,2.55-5.831,3.824
		c-0.584,0.739-1.266,1.397-1.801,2.178l-0.195,0.232c-0.83,0.694-1.512,1.447-1.053,2.652c-0.035,0.394-0.071,0.787-0.107,1.182
		c-1.137,1.127-1.943,2.479-2.661,3.892c-0.13,0.706-0.26,1.413-0.39,2.119c-1.105,1.071-0.532,2.788-1.502,3.912
		c-0.852,4.518-1.702,9.035-2.604,13.822c-2.553,0-5.176,0-7.797,0c-1.435-3.384-1.263-6.781-0.083-10.187
		c1.405-5.922,2.811-11.844,4.216-17.766c0.057-1.606,0.936-2.787,2.006-3.869l-0.029,0.046c0.596-0.47,0.249-1.64,1.312-1.762
		l-0.126,0.049C326.348,352.358,327.356,352.613,327.875,352.164z"/>
	<path fill-rule="evenodd" fill="#F21C1B" d="M336.613,260.522c-2.242-6.601-4.484-13.202-6.727-19.803
		c-1.586-1.552-1.224-3.909-2.342-5.655c-4.076-13.768-8.152-27.535-12.229-41.302c1.258,0.455,2.517,0.909,3.774,1.363
		c1.35,1.449,0.711,3.313,1.039,4.977c2.408,7.604,4.817,15.206,7.226,22.809c0.373,0.729,0.904,1.334,1.498,1.89
		c0.758,2.695,1.518,5.392,2.276,8.088c1.25,1.126,0.519,3.11,1.823,4.213l-0.035-0.078c3.238,3.578,2.46,8.453,4.057,12.561
		c0.091,1.184,0.182,2.367,0.271,3.551c3.646,2.291,1.827,6.708,3.758,9.666c0.656,2.034,1.313,4.067,1.971,6.101
		c2.053,1.595,0.467,4.396,2.037,6.15c1.416,4.662,2.834,9.324,4.251,13.986c1.109,1.041,0.38,2.852,1.606,3.844
		c2.117,7.329,4.236,14.658,6.354,21.988c0.817,1.374,0.879,2.747-0.009,4.118c-0.679-0.03-1.358-0.062-2.036-0.092
		c-5.993-17.916-11.985-35.833-17.979-53.75C335.456,263.802,336.06,262.159,336.613,260.522z"/>
	<path fill-rule="evenodd" fill="#0575EE" d="M336.975,249.584c-1.352-4.187-2.704-8.373-4.057-12.561
		C339.108,239.647,336.104,245.242,336.975,249.584z"/>
	<path fill-rule="evenodd" fill="#0575EE" d="M341.004,262.801c-1.252-3.223-2.506-6.445-3.758-9.667
		C344.242,254.124,338.976,259.881,341.004,262.801z"/>
	<path fill-rule="evenodd" fill="#0575EE" d="M342.843,353.01c3.369-0.577,6.739-1.155,10.108-1.733
		C349.581,351.854,346.212,352.433,342.843,353.01z"/>
	<path fill-rule="evenodd" fill="#0575EE" d="M345.012,275.052c-0.68-2.049-1.357-4.099-2.037-6.148
		C343.653,270.952,344.332,273.002,345.012,275.052z"/>
	<path fill-rule="evenodd" fill="#ACD6F4" d="M390.123,157.104c0.635,0.943,1.269,1.887,2.045,3.041
		c-1.24,1.476-2.628,3.128-4.016,4.779C388.81,162.317,389.467,159.71,390.123,157.104z"/>
	<path fill-rule="evenodd" fill="#0575EE" d="M331.194,366.97c0-1.075,0-2.15,0-3.607c0.979-0.105,1.821-0.196,2.663-0.285
		C332.969,364.375,332.081,365.672,331.194,366.97z"/>
	<path fill-rule="evenodd" fill="#0575EE" d="M350.869,292.882c-0.535-1.281-1.071-2.563-1.607-3.845
		c0.391-0.259,0.779-0.52,1.607-1.072C350.869,289.828,350.869,291.354,350.869,292.882z"/>
	<path fill-rule="evenodd" fill="#0575EE" d="M320.13,200.103c-0.347-1.659-0.693-3.319-1.04-4.978
		C319.438,196.785,319.783,198.443,320.13,200.103z"/>
	<path fill-rule="evenodd" fill="#987F80" d="M318.819,376.637c0.028,3.396,0.056,6.792,0.083,10.188
		c-0.342,0.045-0.682,0.091-1.023,0.136c-0.475-3.342-0.881-6.683,0.221-9.989C318.354,376.891,318.594,376.779,318.819,376.637z"/>
	<path fill-rule="evenodd" fill="#0575EE" d="M332.953,237.102c-0.607-1.403-1.215-2.808-1.822-4.212
		C331.738,234.293,332.346,235.697,332.953,237.102z"/>
	<path fill-rule="evenodd" fill="#DCDFED" d="M318.1,376.971c-0.073,3.33-0.146,6.659-0.221,9.989l-0.457,0.103
		c0,0-0.447-0.141-0.448-0.141C317.349,383.604,317.725,380.287,318.1,376.971z"/>
	<path fill-rule="evenodd" fill="#0575EE" d="M357.214,318.988c0.003-1.372,0.007-2.744,0.009-4.117
		C357.22,316.242,357.217,317.615,357.214,318.988z"/>
	<path fill-rule="evenodd" fill="#0575EE" d="M416.884,353.22c0.722,0.591,1.444,1.182,2.167,1.772
		c-0.293,0.341-0.585,0.681-1.195,1.391C417.469,355.125,417.176,354.172,416.884,353.22z"/>
	<path fill-rule="evenodd" fill="#0575EE" d="M329.303,373.001c0.502-1.307,1.004-2.612,1.504-3.915
		C330.305,370.393,329.803,371.696,329.303,373.001z"/>
	<path fill-rule="evenodd" fill="#0575EE" d="M333.963,361.896c0.352-0.885,0.702-1.769,1.053-2.653
		C334.664,360.128,334.314,361.013,333.963,361.896z"/>
	<path fill-rule="evenodd" fill="#0575EE" d="M335.211,359.012c0.6-0.726,1.2-1.451,1.801-2.177
		C336.412,357.56,335.812,358.286,335.211,359.012z"/>
	<path fill-rule="evenodd" fill="#0575EE" d="M328.854,224.801c-0.5-0.629-0.999-1.258-1.498-1.889
		C327.854,223.541,328.354,224.171,328.854,224.801z"/>
	<path fill-rule="evenodd" fill="#ACD6F4" d="M290.197,50.268c-0.973,3.458-1.945,6.917-2.917,10.371
		C288.252,57.18,289.225,53.724,290.197,50.268z"/>
	<path fill-rule="evenodd" fill="#F49596" d="M333.112,115.123c6.692,0.001,13.384,0.002,20.076,0.003
		C346.497,115.125,339.805,115.124,333.112,115.123z"/>
	<path fill-rule="evenodd" fill="#ACD6F4" d="M324.082,112.944c2.211,0.611,4.42,1.222,6.627,1.832
		C328.498,114.166,326.291,113.556,324.082,112.944z"/>
	<path fill-rule="evenodd" fill="#ACD6F4" d="M360.117,114.042c-0.584-0.068-1.168-0.137-8.508-0.995c8.703,0,10.641,0,12.578,0
		C362.831,113.379,361.474,113.711,360.117,114.042z"/>
	<path fill-rule="evenodd" fill="#D4C39C" d="M270.978,252.749c0.045-1.055,0.09-2.108,0.135-3.157
		c0.597,2.517,1.192,5.027,1.788,7.54c-0.259-0.15-0.533-0.264-0.823-0.338C270.595,255.749,270.512,254.323,270.978,252.749z"/>
	<path fill-rule="evenodd" fill="#999B36" d="M280.312,304.197c-0.397-1.741-0.796-3.482-1.194-5.224
		C279.516,300.716,279.914,302.456,280.312,304.197z"/>
	<path fill-rule="evenodd" fill="#938A57" d="M278.662,293.456c-0.442-1.246-0.885-2.492-1.326-3.739
		C277.777,290.963,278.221,292.209,278.662,293.456z"/>
	<path fill-rule="evenodd" fill="#ACD6F4" d="M134.759,100.566c-0.467-0.245-0.934-0.49-1.401-0.734
		c-2.927-4.752-1.623-9.977-1.26-14.931c0.48-6.551,1.533-13.084,2.854-19.541c0.48-2.346,0.696-5.055,3.986-5.401l0.093,0.084
		C137.607,73.551,136.183,87.059,134.759,100.566z"/>
	<path fill-rule="evenodd" fill="#6F8AAB" d="M204.556,122.925c0.911,0.097,1.822,0.194,2.733,0.292
		c0.017,0.693-0.263,1.232-0.84,1.618c-3.213,1.223-6.568,0.693-9.841,0.617c-11.072-0.257-22.168,0.846-33.218-0.588
		c-0.552-0.382-0.907-0.898-1.065-1.55c4.749-0.124,9.499-0.247,14.246-0.371c1.405-0.046,2.813-0.093,4.222-0.139
		C188.716,122.271,196.638,122.232,204.556,122.925z"/>
	<path fill-rule="evenodd" fill="#ACD6F4" d="M204.556,122.925c-7.92-0.04-15.841-0.08-23.762-0.12
		c7.73-0.268,15.462-0.535,23.194-0.803C204.177,122.31,204.366,122.617,204.556,122.925z"/>
	<path fill-rule="evenodd" fill="#DCDFED" d="M356.861,341.765c-7.59,1.182-15.182,2.362-22.773,3.544
		c20.463-8.526,41.699-6.056,62.877-4.402c-9.662,0.098-19.322,0.195-28.983,0.293C364.307,342.017,360.539,341.005,356.861,341.765
		z"/>
	<path fill-rule="evenodd" fill="#DCDFED" d="M325.041,355.002c-0.669,1.291-1.338,2.581-2.006,3.87
		C323.704,357.582,324.372,356.292,325.041,355.002z"/>
	<path fill-rule="evenodd" fill="#DCDFED" d="M334.309,345.283c-1.066,0.859-2.133,1.718-3.199,2.576
		C332.177,347,333.242,346.142,334.309,345.283z"/>
	<path fill-rule="evenodd" fill="#DCDFED" d="M326.323,353.286c-0.437,0.587-0.874,1.175-1.311,1.762
		C325.449,354.461,325.887,353.873,326.323,353.286z"/>
	<path fill-rule="evenodd" fill="#DCDFED" d="M327.875,352.164c-0.56,0.391-1.119,0.78-1.678,1.171
		C326.757,352.944,327.315,352.555,327.875,352.164z"/>
	<path fill-rule="evenodd" fill="#0258B8" d="M197.207,144.812c-2.428,0.192-4.856,0.386-7.285,0.579
		c-6.899,0.142-13.799,0.261-20.698-0.062c-1.625-0.178-3.251-0.355-4.877-0.532c-2.175-2.535-5.412-0.419-7.853-1.792
		c-15.025-2.136-28.95-7.071-41.231-16.192c-1.244-1.386-0.333-2.104,0.896-2.514c1.601-0.533,3.297-0.268,4.953-0.293
		c25.256-0.383,50.501,0.677,75.757,0.545c7.475-0.038,14.921-0.901,22.399-0.548c1.81,0.086,3.67-0.276,5.392,0.598
		c1.572,4.367,0.928,8.792,0.342,13.215c-4.343,1.314-8.685,2.629-13.028,3.942C206.867,141.881,201.945,142.899,197.207,144.812z"
		/>
	<path fill-rule="evenodd" fill="#0D0E19" d="M224.898,125.453c-35.624-0.103-71.249-0.218-106.873-0.237
		c-0.922-0.001-1.845,1.041-2.765,1.597c-0.832-1.025-1.667-2.052-2.5-3.077c5.555-0.532,11.123-0.093,16.685-0.235
		c11.149,0.143,22.301-0.29,33.445,0.231c14.934,0.043,29.867,0.087,44.8,0.131c5.691-0.71,11.392-0.367,17.092-0.173
		c0.261-0.028,0.468,0.064,0.621,0.278C225.534,124.564,225.365,125.06,224.898,125.453z"/>
	<path fill-rule="evenodd" fill="#0575EE" d="M169.224,145.329c6.917,0.018,13.834,0.036,20.725,0.058
		C183.023,145.37,176.124,145.35,169.224,145.329z"/>
	<path fill-rule="evenodd" fill="#0D0E19" d="M197.207,144.812c4.922-1.018,9.844-2.035,14.767-3.053
		C207.052,142.776,202.129,143.794,197.207,144.812z"/>
	<path fill-rule="evenodd" fill="#6DCEF2" d="M128.811,123.691c-5.356,0.016-10.713,0.03-16.06,0.045
		c-0.535-0.083-1.08-0.165-1.624-0.248c0-0.001-0.142-0.092-0.141-0.092c6.062,0.022,12.123,0.045,18.184,0.066L128.811,123.691z"/>
	<path fill-rule="evenodd" fill="#716C11" d="M224.898,125.453c0.168-0.495,0.336-0.991,0.504-1.486
		c0.256,4.204,0.511,8.407,0.766,12.609c-0.389,0.412-0.778,0.826-1.167,1.239C224.968,133.695,224.933,129.574,224.898,125.453z"/>
	<path fill-rule="evenodd" fill="#0D0E19" d="M156.495,143.005c2.621,0.597,5.242,1.194,7.858,1.792
		C161.729,144.199,159.112,143.602,156.495,143.005z"/>
	<path fill-rule="evenodd" fill="#D4C39C" d="M251.045,126.854c1.207-0.648,2.414-1.297,3.619-1.944
		C253.456,125.559,252.25,126.206,251.045,126.854z"/>
	<path fill-rule="evenodd" fill="#D4C39C" d="M254.986,124.7c0.694-0.521,1.389-1.041,2.084-1.562
		C256.375,123.659,255.681,124.18,254.986,124.7z"/>
	<path fill-rule="evenodd" fill="#ACD6F4" d="M193.42,243.108c-12.706,1.831-25.933-2.911-38.313,3.037
		c6.444-9.123,15.688-2.188,23.46-3.937c4.559-1.025,9.52-0.263,14.3-0.305C193.052,242.305,193.236,242.707,193.42,243.108z"/>
	<path fill-rule="evenodd" fill="#ACD6F4" d="M198.355,252.356c-1.607-3.071-3.214-6.142-4.82-9.213
		c2.135,0.003,4.271,0.005,6.406,0.007C199.412,246.219,198.884,249.288,198.355,252.356z"/>
	<path fill-rule="evenodd" fill="#ACD6F4" d="M184.969,232.602c-0.478,0.515-0.957,1.029-1.435,1.545
		c-0.782-1.669-1.563-3.337-2.343-5.005C182.452,230.295,183.71,231.448,184.969,232.602z"/>
	<path fill-rule="evenodd" fill="#ACD6F4" d="M327.545,235.064c0.781,1.886,1.563,3.771,2.342,5.656
		C329.105,238.835,328.326,236.95,327.545,235.064z"/>
	<path fill-rule="evenodd" fill="#2BDEB7" d="M336.613,260.522c0.195,1.541,0.391,3.081,0.586,4.623
		C332.584,264.166,335.436,262.238,336.613,260.522z"/>
	<path fill-rule="evenodd" fill="#0D0E19" d="M138.938,59.959c-1.86,13.291-3.721,26.582-5.581,39.873c-10.418,0-20.836,0-31.919,0
		c2.139-6.585,3.961-12.195,5.784-17.806c2.2-1.392,3.601,0.596,5.319,1.25c0.414,0.135,0.83,0.254,1.258,0.341
		c0.649,0.172,1.253,0.445,1.834,0.777c0.612,0.319,1.169,0.71,1.639,1.219c1.237,1.027,2.068,2.648,4.296,2.729
		c3.618-3.832,0.539-9.377,3.059-13.517c0.305-0.639,0.752-1.169,1.25-1.662c2.492-11.123,4.984-22.246,7.477-33.369
		c-0.904-2.178-2.823-1.202-4.293-1.253c-6.566-0.227-13.143,0.225-19.708-0.247c-3.185-0.016-6.369-0.031-9.553-0.047
		c-1.474,0.401-2.954,0.334-4.436,0.058c-4.578-0.167-9.156-0.334-13.734-0.5c-0.042-0.173-0.083-0.345-0.125-0.517
		c0.038-2.42,0.076-4.84,0.112-7.259c21.53,0,43.061,0,64.577,0C143.537,40.991,141.238,50.475,138.938,59.959z"/>
	<path fill-rule="evenodd" fill="#6DCEF2" d="M125.878,73.163c-0.107,0.539-0.215,1.079-0.323,1.618
		c-1.701,2.82-1.027,6.051-1.506,9.08c-0.261,1.649-0.21,3.291-2.067,4.36c-2.298,0.519-4.299-0.249-5.911-2.169
		c-0.722-0.095-1.443-0.189-2.165-0.284c-0.346-0.237-0.676-0.497-0.986-0.781l0.031,0.124c-0.676-0.736-1.127-1.644-1.803-2.384
		c-1.231-0.922-2.931-0.653-4.141-1.625c-3.341-2.096-6.683-4.191-12.657-7.939C107.105,73.163,116.492,73.163,125.878,73.163z"/>
	<path fill-rule="evenodd" fill="#ACD6F4" d="M128.811,123.691c0,0,0.356-0.229,0.358-0.229c11.058-0.05,22.114-0.1,33.163-0.148
		c0.076,0.282,0.265,0.421,0.56,0.417C151.531,123.718,140.171,123.705,128.811,123.691z"/>
	<path fill-rule="evenodd" fill="#ACD6F4" d="M109.354,38.294c8,0.5,16.001,1,24.001,1.5c-3.613-0.327-7.226-0.655-10.839-0.983
		C118.128,38.638,113.741,38.466,109.354,38.294z"/>
	<path fill-rule="evenodd" fill="#ACD6F4" d="M107.008,81.103c1.461,0,2.922,0,5.038,0c0.322,1.423,0.614,2.716,0.907,4.009
		c-1.91-1.028-3.819-2.057-5.729-3.085C107.137,81.722,107.065,81.414,107.008,81.103z"/>
	<path fill-rule="evenodd" fill="#D4C39C" d="M76.034,53.026c0.207-0.195,0.442-0.24,0.707-0.136
		c0.028,2.722,0.057,5.443,0.086,8.166C76.563,58.38,76.298,55.703,76.034,53.026z"/>
	<path fill-rule="evenodd" fill="#6DCEF2" d="M89.586,73.762C96.121,74.365,95.599,74.317,89.586,73.762
		C95.642,73.762,96.178,73.762,89.586,73.762z"/>
	<path fill-rule="evenodd" fill="#ACD6F4" d="M138.073,289.163c-3.209,8.068-6.417,16.136-9.626,24.205
		C131.656,305.301,134.864,297.232,138.073,289.163z"/>
	<path fill-rule="evenodd" fill="#ACD6F4" d="M148.563,262.989c-1.212,2.983-2.424,5.967-3.637,8.95
		C146.138,268.956,147.35,265.973,148.563,262.989z"/>
	<path fill-rule="evenodd" fill="#ACD6F4" d="M152.7,253.195c-1.191,2.621-2.382,5.241-3.572,7.86
		C150.319,258.436,151.509,255.815,152.7,253.195z"/>
	<path fill-rule="evenodd" fill="#ACD6F4" d="M155.232,246.033c-0.462,1.355-0.924,2.711-1.387,4.067
		C154.307,248.745,154.77,247.39,155.232,246.033z"/>
	<path fill-rule="evenodd" fill="#ACD6F4" d="M140.656,283.24c-0.529,1.127-1.058,2.254-1.587,3.381
		C139.598,285.495,140.127,284.367,140.656,283.24z"/>
	<path fill-rule="evenodd" fill="#ACD6F4" d="M142.13,279.263c-0.358,0.782-0.716,1.563-1.074,2.347
		C141.414,280.827,141.772,280.045,142.13,279.263z"/>
	<path fill-rule="evenodd" fill="#ACD6F4" d="M139.085,286.744c-0.336,0.774-0.671,1.55-1.008,2.324
		C138.413,288.294,138.749,287.519,139.085,286.744z"/>
	<path fill-rule="evenodd" fill="#ACD6F4" d="M141.056,281.845c-0.264,0.512-0.528,1.022-0.798,1.532
		C140.519,282.864,140.787,282.354,141.056,281.845z"/>
	<path fill-rule="evenodd" fill="#0575EE" d="M224.783,123.689c-5.702,0.058-11.403,0.115-17.098,0.173
		c-0.063-0.257-0.198-0.472-0.397-0.646C213.121,123.374,218.952,123.531,224.783,123.689z"/>
	<path fill-rule="evenodd" fill="#759084" d="M270.978,252.749c0.366,1.349,0.733,2.698,1.1,4.046
		c-0.983-0.271-1.966-0.542-3.706-1.02C269.601,254.348,270.289,253.548,270.978,252.749z"/>
	<path fill-rule="evenodd" fill="#ACD6F4" d="M53.103,90.907c5.953,0.067,11.905,0.134,17.857,0.202
		C64.974,93.962,59.017,94.342,53.103,90.907z"/>
	<path fill-rule="evenodd" fill="#ACD6F4" d="M71.087,90.956c0.587-4.697,1.173-9.394,1.76-14.092
		C72.26,81.562,71.674,86.259,71.087,90.956z"/>
	<path fill-rule="evenodd" fill="#ACD6F4" d="M129.122,324.732c-0.842-0.021-1.684-0.041-2.522-0.063
		C127.442,324.69,128.282,324.711,129.122,324.732z"/>
	<path fill-rule="evenodd" fill="#ACD6F4" d="M95.364,38.305c1.48-0.02,2.96-0.038,4.438-0.058
		C98.321,38.267,96.843,38.285,95.364,38.305z"/>
	<path fill-rule="evenodd" fill="#ACD6F4" d="M81.505,37.288c0.233,0.127,0.275,0.301,0.126,0.519
		c-0.001-0.002-0.288-0.209-0.288-0.209L81.505,37.288z"/>
	<path fill-rule="evenodd" fill="#F95A5A" d="M356.861,341.765c3.707-0.188,7.414-0.377,11.121-0.565
		C364.275,341.388,360.568,341.576,356.861,341.765z"/>
	<path fill-rule="evenodd" fill="#ACD6F4" d="M116.072,86.053c1.973,0.387,3.947,0.772,5.634,1.104
		c1.426-4.584,2.638-8.478,3.85-12.373c-0.596,5.531-1.192,11.064-1.916,17.781C120.753,90.081,118.413,88.066,116.072,86.053z"/>
	<path fill-rule="evenodd" fill="#ACD6F4" d="M112.921,84.987c0.329,0.26,0.658,0.521,0.986,0.781
		C113.578,85.508,113.25,85.247,112.921,84.987z"/>
</g>
</svg>
