<?xml version="1.0" encoding="utf-8"?>
<!-- Generator: Adobe Illustrator 16.0.2, SVG Export Plug-In . SVG Version: 6.00 Build 0)  -->
<svg version="1.2" baseProfile="tiny" id="Layer_1" xmlns="http://www.w3.org/2000/svg" xmlns:xlink="http://www.w3.org/1999/xlink"
	 x="0px" y="0px" width="960px" height="292.607px" viewBox="0 0 960 292.607" xml:space="preserve">
<g>
	<path fill-rule="evenodd" fill="#8BA6EF" d="M0,237.779c14.431,0,28.862,0,43.718,0c0-42.993,0-85.498,0-129
		c-14.615,0-29.167,0-43.718,0c0-5.667,0-11.333,0-17c1.823-2.237,4.243-2.974,7.047-2.987c15.07-0.07,30.14-0.117,45.211-0.083
		c1.981,0.005,4.008-0.143,5.7,1.232c0.046,18.809-0.171,37.623,0.195,56.426c0.647,33.241,0.757,66.483,0.783,99.729
		c0.003,4.111-1.282,8.205-0.158,12.326c-1.805,1.519-3.99,1.439-6.146,1.444c-15.251,0.033-30.501,0.035-45.752,0
		c-2.501-0.006-5.025,0.054-6.88-2.087C0,251.112,0,244.446,0,237.779z"/>
	<path fill-rule="evenodd" fill="#8BA6EF" d="M960,138.779c-4.76-0.227-9.564,0.482-14.707-0.529c0-15.71,0-31.249,0-46.788
		c-1.351-3.987,1.938-5.826,3.889-8.233c1.59-1.964,3.721-3.643,2.619-6.658c-2.467-0.008-3.275,3.295-5.827,2.262
		c-1.77-2.586-0.785-5.509-0.819-8.235c-0.184-14.594-0.144-29.189-0.16-43.785c0-0.648,0.2-1.297,0.389-2.437
		c4.783-1.088,9.754-0.135,14.617-0.596C960,62.112,960,100.446,960,138.779z"/>
	<path fill-rule="evenodd" fill="#0C0C12" d="M57.958,89.941c-1.626,1.653-3.792,1.148-5.682,1.161
		c-15.277,0.105-30.554,0.036-45.832,0.089C4.295,91.198,2.148,91.574,0,91.779c0-5.667,0-11.333,0-17c19.056,0,38.113,0,57.313,0
		C58.486,80.044,57.559,85.027,57.958,89.941z"/>
	<path fill-rule="evenodd" fill="#DE8F17" d="M0,257.779c15.947,0.212,31.893,0.433,47.84,0.63
		c3.645,0.045,7.292,0.011,10.938,0.013c-0.398,2.77,0.568,5.646-0.659,8.35c-3.115,1.315-6.228-0.106-9.35-0.068
		c-14.33,0.173-28.662,0.093-42.994,0.058c-1.96-0.005-4.036,0.423-5.775-0.981C0,263.112,0,260.446,0,257.779z"/>
	<path fill-rule="evenodd" fill="#DE8F17" d="M929.97,255.749c-0.119-1.955-0.464-3.919,0.254-6.384
		c9.862-1.082,19.858,0.204,29.776-0.586c0,2.333,0,4.667,0,7c-0.246,0.219-0.465,0.575-0.744,0.631
		C949.447,258.37,939.656,259.272,929.97,255.749z"/>
	<path fill-rule="evenodd" fill="#C8372E" d="M929.97,255.749c10.011,0.01,20.021,0.021,30.03,0.03c0,1.333,0,2.667,0,4
		c-9.918,0-19.836,0-29.618,0C929.43,258.314,929.612,257.038,929.97,255.749z"/>
	<path fill-rule="evenodd" fill="#B59161" d="M0,265.779c14.096,0.028,28.192,0.077,42.288,0.074
		c5.298-0.001,10.595-0.098,15.831,0.918c-1.349,1.517-3.121,0.794-4.702,0.803C35.612,267.675,17.806,267.72,0,267.779
		C0,267.112,0,266.446,0,265.779z"/>
	<path fill-rule="evenodd" fill="#DE8F17" d="M268.876,25.112c1.835-0.146,3.671-0.29,5.507-0.436
		c1.813,2.142,1.633,4.847,2.099,7.375c0.345,1.504,0.667,3.007,0.428,4.565c-0.327,1.976-0.425,3.959-0.423,5.961
		c0.016,25.777,0.044,51.556-0.031,77.333c-0.01,3.386,0.728,6.589,1.436,9.833c0.273,23.959,0.477,47.92-0.067,71.881
		c0.355,3.95,0.254,7.908,0.248,11.866c-0.003,2.069-0.502,3.904-1.887,5.465c0,15.61,0,31.221,0,47.829
		c-44.257-0.785-87.821,1.28-131.872-0.247c0-80.853,0-161.339,0-242.467c8.367,0,16.645,0,24.921,0
		C202.436,25.581,235.656,25.379,268.876,25.112z"/>
	<path fill-rule="evenodd" fill="#DE8F17" d="M884.834,219.927c-29.561-0.065-59.123-0.128-88.684-0.205
		c-1.323-0.003-2.646-0.141-3.969-0.216c-1.023-0.929-0.664-2.165-0.665-3.283c-0.019-24.079-0.017-48.158-0.014-72.237
		c0-0.831-0.009-1.661,0.33-2.446c-0.026-8.438-0.052-16.876-0.079-25.314c-0.42-2.258-0.302-4.523-0.092-6.791
		c0.094-27.856,0.187-55.714,0.28-83.571c1.967-1.081,4.125-1.078,6.272-1.076c14.941,0.014,29.884-0.061,44.813,0.035
		c0.824,0.079,1.632,0.225,2.596,1.703c-3.486,7.083-10.744,11.396-15.662,17.648c-0.346,0.342-0.74,0.628-1.158,0.869
		c-5.502,4.286-8.959,10.33-13.34,15.583c-4.391,4.247-5.557,10.327-8.686,15.296c-4.536,7.757-5.619,16.55-7.439,25.087
		c-5.072,23.785-1.979,46.773,7.18,69.097c0.301,0.405,0.521,0.858,0.672,1.338c0.559,2.387-0.308,5.265,2.386,6.927
		c0.859,0.854,1.534,1.819,1.789,3.028c0.644,2.928,1.253,5.875,4.376,7.327c4.025,4.107,7.287,8.876,11.322,12.984
		c1.029,1.049,1.841,2.312,3.165,3.074c4.343,3.479,8.001,7.888,13.322,10.096c2.072-2.516,1.329-5.115,1.331-7.509
		c0.049-57.564,0.028-115.129,0.051-172.693c0.002-3.284-0.459-6.717,2.15-9.431c12.916-0.929,25.814-0.444,38.27-0.249
		c1.628,2.053,1.123,3.785,1.123,5.392c0.027,61.559,0.04,123.117-0.071,184.676C886.4,216.618,888.114,219.238,884.834,219.927z"/>
	<path fill-rule="evenodd" fill="#0C0C12" d="M302.693,215.834c0.01,0.95,0.323,1.96-0.711,2.94c-1.903,0-3.99,0-6.077,0
		c-2.151-1.658-1.95-4.069-1.97-6.366c-0.081-9.269-0.202-18.542,0.013-27.806c0.237-10.256-1.986-20.433-0.829-30.704
		c2.115-6.609,1.465-13.436,1.323-20.173c-0.199-9.375,1.215-18.842-1.337-28.109c-0.424-25.051-0.148-50.104-0.168-75.156
		c-0.001-2.033,0.202-3.997,1.885-5.448c2.41,0,4.821,0,7.265,0c0.703,1.606-0.754,3.214,0.168,4.718
		c0.627,2.059-0.168,4.241,0.551,6.292c-1.013,23.715,0.064,47.438-0.304,71.156c-0.069,4.467,0.13,8.938,0.206,13.406
		c0.284,0.772,0.653,0.733,1.084,0.115c4.297-32.674,15.691-62.801,32.527-91c0.845-1.415,1.87-2.146,3.268-2.646
		c56.139,81.996,41.234,179.597,0.412,236.907c-7.039-9.838-12.992-20.123-17.943-31.029c-6.25-13.766-11.408-27.966-15.481-42.466
		c-2.025-7.21-1.827-15.045-2.635-22.597c-0.304-0.457-0.618-0.81-1.039-0.105c-0.083,9.328-0.165,18.656-0.248,27.985
		c-0.149,2.03-0.444,4.064,0.178,6.072c-0.007,1.308-0.014,2.616-0.021,3.925c-0.374,0.681-0.333,1.376-0.076,2.08
		c-0.052,1.313-0.104,2.625-0.156,3.938C302.507,213.123,302.363,214.485,302.693,215.834z"/>
	<path fill-rule="evenodd" fill="#8BA6EF" d="M464.052,24.587c-2.509-6.44,1.074-12.695-0.313-19.464c21.755,0,42.618,0,63.386,0
		c0.963,3.459,1.263,208.877,0.262,214.556c-19.734,0-39.625,0-59.516,0c-1.678-1.837-1.769-3.818-0.55-5.92
		c2.063-2.213,4.814-1.845,7.45-2.013c3.921-0.249,7.941,0.706,12.163-0.896c-0.198-7.233-2.137-14.129-3.68-21.022
		c-4.356-19.461-8.008-39.074-12.865-58.43c-1.239-4.938-2.164-10.061-1.882-15.256c0.121-2.225-0.308-4.296-1.62-6.143
		c-0.67-1.646-0.849-3.354-0.663-5.106c1.02-6.1-0.081-12.191-0.071-18.287c0.027-16.409,1.231-32.795,0.887-49.218
		C466.945,32.825,466.553,28.506,464.052,24.587z"/>
	<path fill-rule="evenodd" fill="#DE8F17" d="M709.855,29.914c0.03,27.828,0.041,55.656,0.096,83.483
		c0.066,32.924,0.166,65.847,0.275,98.77c0.008,2.299,0.223,4.596,0.362,7.296c-18.786,0-37.358,0-57.091,0
		c18.295-63.482,36.469-126.549,54.645-189.614C708.738,29.197,709.311,29.188,709.855,29.914z"/>
	<path fill-rule="evenodd" fill="#C8372E" d="M595.789,24.617c17.277,0,34.555,0,50.995,0c1.847,1.718,1.572,2.888,1.424,4.034
		c-1.898,10.574-4.323,21.011-7.163,31.387c-8.69,31.761-17.218,63.568-25.561,95.423c-5.099,19.466-11.173,38.668-15.672,58.295
		c-0.479,2.087-0.818,4.293-2.688,5.754c-0.453,0.094-0.908,0.188-1.361,0.281c-0.859-6.886-1.885-13.75-1.887-20.722
		c-0.002-17.432,0.109-34.864-0.084-52.298c0.602-3.276,0.736-6.578,0.73-9.91c-0.037-23.588-0.029-47.177-0.006-70.765
		c0.004-2.666-0.088-5.31-0.643-7.924c-0.221-9.257,0.66-18.533-0.673-27.783C592.883,28.18,592.889,25.62,595.789,24.617z"/>
	<path fill-rule="evenodd" fill="#DE8F17" d="M597.125,219.51c0.069-6.063,2.113-11.73,3.664-17.469
		c10.688-39.543,21.844-78.964,32.078-118.623c4.379-16.969,9.495-33.744,13.4-50.836c0.322-1.407,0.57-2.98,1.94-3.931
		c0,63.408,0,126.816,0,189.93c-2.007,1.599-3.933,1.187-5.69,1.2c-14.483,0.113-28.969,0.134-43.452,0.153
		C598.418,219.936,597.771,219.658,597.125,219.51z"/>
	<path fill-rule="evenodd" fill="#8BA6EF" d="M736.893,258.189c-30.094,11.714-59.869,23.304-88.426,34.418
		c-31.113-11.544-60.939-22.61-91.359-33.897c4.497-3.086,9.175-4.934,13.736-6.399c11.873-3.815,23.011-9.433,34.734-13.524
		c11.78-4.111,22.884-9.806,34.584-14.115c5-1.842,8.996,0.358,12.838,1.665c18.125,6.167,36.066,12.896,53.93,19.795
		c9.441,3.646,18.672,7.818,28.547,10.245C735.835,256.464,736.06,257.094,736.893,258.189z"/>
	<path fill-rule="evenodd" fill="#8BA6EF" d="M595.789,24.617c-0.02,9.687-0.039,19.372-0.056,29.059
		c-0.002,1.318,0.02,2.637,0.03,3.955c-0.592,8.983-0.262,17.978-0.234,26.965c0.065,20.819-0.365,41.641,0.229,62.457
		c0.002,24.246,0.004,48.492,0.006,72.738c-2.904-3.531-2.256-8.16-3.488-12.201c-5.58-18.306-10.32-36.869-15.288-55.359
		c-3.049-11.35-5.944-22.74-8.946-34.102c-1.48-5.599-4.117-10.902-4.239-16.849c-0.015-0.734-0.606-1.128-1.301-1.307
		c-1.515-0.572-1.718-1.876-1.821-3.239c1.223-4.93,0.464-9.88,0.369-14.86c-0.336-17.645-0.156-35.296-0.115-52.944
		c0.003-1.54,0.291-2.975,1.232-4.23c1.027-1.961,2.84-1.086,4.217-0.926c7.893,0.924,15.789-0.111,23.674,0.237
		c1.869,0.083,3.431-0.733,5.259-1.385C595.497,23.388,595.643,24.003,595.789,24.617z"/>
	<path fill-rule="evenodd" fill="#DE8F17" d="M748.137,24.941c6.573-1.242,13.234,0.139,20.803-1.097
		c-1.497,65.395,0.578,130.336,0.164,195.689c-6.943,0-13.534,0-20.125,0c-2.863-1.964-3.051-4.934-3.063-8.004
		c-0.054-12.483-0.021-24.968-0.022-37.451c-0.004-46.773-0.021-93.546,0.032-140.318C745.928,30.69,745.171,27.317,748.137,24.941z
		"/>
	<path fill-rule="evenodd" fill="#0C0C12" d="M418.872,59.429c-0.183,23.086-0.495,46.172-0.514,69.259
		c-0.021,25.402,0.237,50.804,0.347,76.206c0.02,4.477-0.094,8.953-0.146,13.43c-0.686,1.525-2.002,2.284-3.537,2.324
		c-5.586,0.145-11.199,0.844-16.737-0.531c-0.616-0.183-1.167-0.49-1.657-0.906c-1.285-1.449-1.692-3.241-1.546-5.066
		c0.938-11.659-0.642-23.307-0.133-34.966c1.2-9.283,0.515-18.606,0.488-27.901c-0.03-10.459,0.79-20.945-0.619-31.38
		c0.213-17.13-0.012-34.262,0.096-51.393c0.053-8.425,0.828-9.241,9.095-9.187c3.356,0.022,6.634-0.295,9.866-1.152
		C415.661,58.083,417.662,57.221,418.872,59.429z"/>
	<path fill-rule="evenodd" fill="#DE8F17" d="M562.178,96.398c0.107,1.191,0.215,2.384,0.323,3.575c0,39.728,0,79.455,0,119.535
		c-6.602,0-13.162,0-19.644,0c-1.134-1.46-0.758-3.004-0.76-4.461c-0.088-61.126-0.159-122.251-0.238-183.377
		c-0.002-1.847,0.12-3.661,0.929-5.362c2.748,0.721,3.263,3.148,3.897,5.345c4.153,14.387,7.123,29.098,11.496,43.407
		C560.331,82.095,561.924,89.082,562.178,96.398z"/>
	<path fill-rule="evenodd" fill="#DE8F17" d="M449.959,219.523c-5.122,0-10.245,0-15.99,0c-0.441-64.819-0.341-129.398,0-194.364
		c5.459-0.326,10.696-1.511,16.026-0.202c2.927,4.711,1.717,10.067,1.853,15.04c0.607,22.282,0.235,44.581,0.255,66.874
		c0.031,34.771,0.034,69.542-0.027,104.313C452.07,214.087,452.786,217.287,449.959,219.523z"/>
	<path fill-rule="evenodd" fill="#C8372E" d="M449.959,219.523c0.012-64.855,0.024-129.711,0.036-194.566
		c0.273-0.046,0.532-0.002,0.774,0.133c2.082,1.158,2.735,3.141,3.306,5.3c3.398,12.85,4.862,26.079,7.761,39.034
		c1.805,8.066,3.735,16.132,4.878,24.356c0.499,3.587-0.167,7.295,1.203,10.77c0.176,1.927,0.352,3.854,0.528,5.78
		c0.763,8.23,1.502,16.487,1.582,24.734c0.227,23.56,0.099,47.122,0.061,70.684c-0.004,2.784,0.422,5.71-1.811,8.01
		c-0.135,1.974-0.271,3.947-0.406,5.921C461.9,219.627,455.93,219.575,449.959,219.523z"/>
	<path fill-rule="evenodd" fill="#C8372E" d="M748.137,24.941c-0.027,62.732-0.063,125.465-0.042,188.196
		c0.001,2.133,0.576,4.265,0.884,6.396c-4.979,0.217-9.955,0.374-14.907-0.389c-2.634-1.868-2.134-4.713-2.146-7.307
		c-0.084-17.481-0.039-34.963-0.039-52.443c-0.001-41.955-0.025-83.91,0.037-125.865c0.004-3.06-0.786-6.461,2.354-8.73
		C738.896,24.856,743.523,24.225,748.137,24.941z"/>
	<path fill-rule="evenodd" fill="#DE8F17" d="M904.299,24.235c3.775-0.278,7.553-0.725,11.648,0.054c0,65.039,0,129.886,0,195.068
		c-3.84,0.948-7.787,0.425-11.705,0.397c-1.391-1.401-0.705-3.164-0.705-4.74c-0.041-62.028-0.041-124.057-0.001-186.084
		C903.537,27.366,902.82,25.594,904.299,24.235z"/>
	<path fill-rule="evenodd" fill="#8BA6EF" d="M734.277,24.8c-0.063,53.791-0.125,107.583-0.186,161.375
		c-0.012,10.99-0.014,21.98-0.021,32.971c-3.729,1.475-7.495,0.371-11.978,0.631c0-65.257,0-130.053,0-194.977
		C726.422,24.8,730.35,24.8,734.277,24.8z"/>
	<path fill-rule="evenodd" fill="#C8372E" d="M61.137,158.065c2.493-13.037,5.631-25.703,13.459-36.946
		c8.812-12.655,30.337-19.595,44.531-1.379c8.752,11.232,12.659,24.407,14.788,38.131c1.557,10.033,1.473,20.188,0.33,30.328
		c-1.395,12.378-5.577,23.81-13.56,33.199c-14.5,17.055-36.259,13.705-47.687-3.269c-7.208-10.707-11.424-22.57-12.089-35.57
		c-0.997-2.606,0.081-5.383-0.655-8.011c-0.002-2.178-0.004-4.354-0.006-6.532C61.17,164.755,59.601,161.271,61.137,158.065z"/>
	<path fill-rule="evenodd" fill="#8BA6EF" d="M294.82,25.012c0.105,19.077,0.214,38.154,0.316,57.231
		c0.042,7.796,0.068,15.591,0.101,23.387c0.473,16.118,0.349,32.236,0.065,48.355c0.143,17.954,0.292,35.909,0.423,53.863
		c0.026,3.644-0.84,7.299,0.179,10.926c-4.237,1.733-8.641,1.016-12.937,0.577c-2.27-0.231-4.501-0.574-6.784-0.396
		c-0.863-5.732-0.324-11.467-0.018-17.2c2.486-3.242,6.81-0.986,10.719-3.992c0.115-53.794,0.068-108.355-0.261-161.326
		c-3.768-4.885-8.655-1.257-11.117-4.899c-1.983-2.023-0.992-4.534-1.125-6.861C281.19,25.115,288.025,23.819,294.82,25.012z"/>
	<path fill-rule="evenodd" fill="#C8372E" d="M414.925,60.039c-5.836,1.292-11.903-0.239-18.139,1.209c0,19.628,0,39.021,0,58.415
		c-0.426,20.053-0.576,40.105,0.081,60.157c0.289,12.906,1.029,25.809,0.366,38.724c2.281,3.876,0.862,8.136,1.265,12.205
		c0.204,9.4-0.434,18.813,0.382,28.202c0.195,1.853-0.018,3.627-1.081,5.212c-1.012,1.502-2.763,0.831-4.084,1.409
		c-1.412-0.332-2.989,0.211-4.287-0.65c1.002-7.891,0.401-15.66,0.465-23.41c0.131-15.803,0.019-31.609-0.006-47.414
		c-0.028-17.518-0.14-35.036-0.046-52.554c0.017-3.233-1.671-6.471-0.032-9.698c-0.479-1.398-0.371-2.809-0.092-4.224
		c0.005-1.233,0.011-2.467,0.016-3.699c-0.368-3.775-0.391-7.55,0.013-11.324c0-17.354,0-34.708,0-52.022
		c2.364-1.278,4.749-0.303,6.988-0.742C401.162,56.696,410.914,56.806,414.925,60.039z"/>
	<path fill-rule="evenodd" fill="#8BA6EF" d="M393.715,265.572c1.031-0.391,2.327-0.104,3.476-1.783c0-0.853,0-2.29,0-3.728
		c0.699-9.735,0.122-19.483,0.312-29.225c0.389-4.033-0.8-8.15,0.649-12.126c6.802-0.129,13.604-0.259,20.407-0.388
		c2.078,15.489,1.121,31.03,1.356,47.024C410.829,266.141,402.267,265.661,393.715,265.572z"/>
	<path fill-rule="evenodd" fill="#8BA6EF" d="M52.163,56.187c-2.684-13.564-1.109-26.577,4.226-39.372
		c2.346-5.626,5.338-10.536,9.578-14.811c1.224-1.233,2.375-2.337,4.265-1.911c23.614,25.814,20.828,66.387-1.553,86.998
		c-7.174-7.337-12.184-15.888-14.896-25.789C53.193,59.612,53.937,57.501,52.163,56.187z"/>
	<path fill-rule="evenodd" fill="#C8372E" d="M945.974,78.832c2.31-1.087,3.091-3.738,5.335-5.213
		c2.508,1.052,2.857,3.187,2.92,5.42c-2.523,4.651-7.219,7.475-8.936,12.423c-6.261,6.839-9.121,15.424-11.301,24.048
		c-5.063,20.031-4.613,39.971,3.886,59.112c4.108,9.253,9.103,18.117,16.247,25.45c-0.734,2.026-2.417,2.911-3.592,4.128
		c-1.1,0.203-1.646-0.501-2.146-1.122c-17.214-21.378-25.552-45.424-22.961-73.147C927.219,110.733,934.842,94.142,945.974,78.832z"
		/>
	<path fill-rule="evenodd" fill="#DE8F17" d="M414.925,60.039c-6.064-0.068-12.128-0.137-18.192-0.205
		c-1.22-11.401,0.095-22.804-0.39-34.618c7.844-1.056,15.354-0.079,22.528-0.542c0,11.979,0,23.366,0,34.755
		C417.556,59.632,416.241,59.836,414.925,60.039z"/>
	<path fill-rule="evenodd" fill="#0C0C12" d="M467.917,104.55c-2.52-4.457-2.42-9.599-3.49-14.395
		c-4.823-21.628-9.152-43.367-13.659-65.065c4.428-0.168,8.855-0.336,13.283-0.503c1.129,0.184,2.258,0.366,4.095,0.665
		C469.261,51.642,467.991,78.1,467.917,104.55z"/>
	<path fill-rule="evenodd" fill="#0C0C12" d="M562.178,96.398c-2.663-9.663-5.205-19.36-8.018-28.979
		c-3.989-13.65-6.48-27.713-11.372-41.11c0.146-2.245,1.849-1.384,2.982-1.407c5.464-0.114,10.931-0.143,16.396-0.202
		c1.371,10.952,0.383,21.938,0.471,32.908c0.095,11.657,0.203,23.314,0.293,34.973C562.939,93.896,563.117,95.262,562.178,96.398z"
		/>
	<path fill-rule="evenodd" fill="#B59161" d="M884.834,219.927c1.389-1.104,1.125-2.66,1.125-4.138
		c0.022-62.208,0.043-124.416,0.053-186.624c0-0.819-0.145-1.638-0.275-3.042c-12.902-0.898-25.806-0.296-38.69-0.402
		c-0.653,0.651-1.295,0.651-1.925-0.035c-17.727,0.06-35.452,0.118-53.179,0.177c0.095-1.146,0.813-1.53,1.855-1.518
		c29.892-0.146,59.783-0.024,89.675-0.062c0.832-0.002,1.662-0.008,2.438,0.362c1.855,1.332,1.221,3.297,1.219,5.054
		c-0.055,42.233-0.146,84.467-0.201,126.701c-0.024,19.952,0.043,39.904-0.033,59.855
		C886.889,217.619,888.344,220.321,884.834,219.927z"/>
	<path fill-rule="evenodd" fill="#B59161" d="M904.299,24.235c-0.063,26.267-0.176,52.533-0.177,78.8
		c-0.002,38.907,0.076,77.813,0.12,116.72c-1.61-1.063-0.945-2.68-0.946-4.097c-0.063-58.806-0.164-117.61-0.069-176.415
		C903.235,34.265,902.134,29.1,904.299,24.235z"/>
	<path fill-rule="evenodd" fill="#ECBE7B" d="M885.91,24.646c-29.883,0.009-59.767,0.021-89.649,0.014
		c-0.821-0.001-1.642-0.205-2.463-0.314c0.966-0.19,1.931-0.547,2.896-0.546c28.46,0.041,56.92,0.112,85.379,0.206
		C883.366,24.009,884.762,23.661,885.91,24.646z"/>
	<path fill-rule="evenodd" fill="#B59161" d="M791.833,141.539c0.078,19.491,0.153,38.981,0.235,58.472
		c0.027,6.499,0.075,12.997,0.113,19.495c-1.195-0.771-1.016-2.005-1.016-3.145c0-23.978,0.006-47.955,0.05-71.933
		C791.218,143.465,791.618,142.502,791.833,141.539z"/>
	<path fill-rule="evenodd" fill="#B59161" d="M389.745,112.599c0.4,3.774,0.43,7.55-0.013,11.324
		C388.73,120.146,388.65,116.372,389.745,112.599z"/>
	<path fill-rule="evenodd" fill="#A09B9B" d="M303.791,120.699c-0.1,1.381,0.511,2.847-0.755,4.484
		c-0.865-1.647-0.634-3.118-0.33-4.6C303.067,120.622,303.429,120.661,303.791,120.699z"/>
	<path fill-rule="evenodd" fill="#E69899" d="M61.137,158.065c0.039,3.347,0.207,6.705-0.888,9.951
		C60.053,164.655,59.473,161.26,61.137,158.065z"/>
	<path fill-rule="evenodd" fill="#B59161" d="M52.163,56.187c3.06,0.907,1.076,3.411,1.62,5.115
		C53.242,59.597,52.703,57.892,52.163,56.187z"/>
	<path fill-rule="evenodd" fill="#E69899" d="M60.254,174.549c0.935,2.612,0.842,5.308,0.655,8.011
		C59.424,179.993,60.093,177.25,60.254,174.549z"/>
	<path fill-rule="evenodd" fill="#434149" d="M302.83,201.821c-1.033-1.996-1.221-4.017-0.178-6.072
		C302.712,197.772,302.771,199.797,302.83,201.821z"/>
	<path fill-rule="evenodd" fill="#B59161" d="M791.662,109.434c0.031,2.264,0.062,4.527,0.092,6.791
		C790.356,113.979,790.672,111.711,791.662,109.434z"/>
	<path fill-rule="evenodd" fill="#B59161" d="M709.855,29.914c-0.571-0.022-1.143-0.044-1.713-0.065
		c-0.042-1.294,0.105-2.496,1.477-3.142C710.306,27.766,710.156,28.835,709.855,29.914z"/>
	<path fill-rule="evenodd" fill="#434149" d="M302.9,167.764c-1.159-1.142-0.112-1.949,0.273-3.158
		c1.185,1.133,0.929,2.207,0.766,3.264C303.592,167.834,303.246,167.799,302.9,167.764z"/>
	<path fill-rule="evenodd" fill="#A09B9B" d="M302.804,36.021c-0.184-2.098-0.367-4.195-0.551-6.292
		C303.924,31.696,303.106,33.882,302.804,36.021z"/>
	<path fill-rule="evenodd" fill="#B59161" d="M389.716,127.622c0.031,1.408,0.062,2.815,0.092,4.224
		C388.868,130.457,388.995,129.046,389.716,127.622z"/>
	<path fill-rule="evenodd" fill="#434149" d="M302.693,215.834c-0.833-1.334-1.083-2.686-0.116-4.07
		C302.616,213.12,302.654,214.478,302.693,215.834z"/>
	<path fill-rule="evenodd" fill="#434149" d="M302.733,207.826c-0.672-0.719-0.509-1.407,0.076-2.08
		C302.784,206.439,302.758,207.133,302.733,207.826z"/>
	<path fill-rule="evenodd" fill="#C8372E" d="M214.208,57.784c16.162,1.746,27.99,10.876,37.19,23.294
		c13.848,18.691,19.574,40.355,20.628,63.338c0.843,18.37-0.155,36.664-5.908,54.243c-5.011,15.313-13.046,29.113-25.238,39.897
		c-7.682,6.796-16.932,10.385-27.5,9.466c-2.283,2.139-4.924,1.518-7.534,0.941c-12.132-2.676-21.235-9.947-28.716-19.414
		c-13.991-17.707-21.354-37.932-23.307-60.417c-1.1-12.659-1.092-25.147,1.183-37.634c0.657-1.595,1.391-3.174,1.157-4.982
		c0.031-1.713,0.205-3.383,1.536-4.658c2.502-1.591,0.113-3.759,0.629-5.591c4.717-20.324,13.338-38.303,30.5-51.24
		c6.038-4.551,13.098-6.422,20.215-8.21C210.864,56.36,212.7,56.335,214.208,57.784z"/>
	<path fill-rule="evenodd" fill="#D4D0D1" d="M275.508,31.538c3.935,0.24,7.857-1.058,12.187,0.037
		c2.214,8.612,1.409,17.625,1.039,26.485c-0.27,6.475,0.112,12.878,0.137,19.315c0.158,39.793,0.143,79.586,0.174,119.379
		c0.001,1.484,0.118,3.029-1.354,4.505c-3.596,0.915-7.587,0.284-11.524,0.496c-0.134-20.098-0.264-40.195-0.405-60.293
		c-0.026-3.821-0.096-7.642-0.146-11.463c-0.265-29.602-0.032-59.203-0.128-88.805c-0.006-1.814,0.308-3.66-0.328-5.441
		C275.07,34.332,274.686,32.885,275.508,31.538z"/>
	<path fill-rule="evenodd" fill="#D4D0D1" d="M158.98,121.742c-1.152,1.496-0.879,3.282-1.015,4.985
		c-1.116,1.533,0.171,3.503-0.917,5.041c-1.954,9.988-2.229,20.103-1.75,30.204c0.786,16.546,3.911,32.65,11.517,47.514
		c5.974,11.675,12.853,22.792,23.944,30.535c6.811,4.754,14.213,7.787,22.621,8.001c0.689,2.488,0.814,4.911-1.19,7.617
		c-8.69-0.509-16.712-3.857-23.917-8.877c-17.64-12.292-28.175-29.52-34.746-49.784c-5.071-15.641-5.797-31.55-5.665-47.7
		c0.18-21.802,4.457-42.741,14.815-61.931c10.039-18.598,24.634-32.139,46.405-36.008c0.974-0.174,1.966-0.296,2.952-0.318
		c0.46-0.01,0.928,0.276,1.471,0.453c1.101,2.01,0.241,4.244,0.701,6.31c-4.771,0.512-9.339,1.92-13.885,3.325
		c-8.639,2.671-15.091,8.533-20.76,15.215c-10.065,11.865-16.415,25.598-19.597,40.81
		C158.823,118.495,160.199,120.396,158.98,121.742z"/>
	<path fill-rule="evenodd" fill="#ECBE7B" d="M275.159,35.754c1.019,1.107,0.797,2.49,0.798,3.8
		c0.016,29.161,0.022,58.321,0.009,87.482c0,0.988-0.228,1.977-0.35,2.964c-0.77-1.196-0.667-2.549-0.668-3.873
		c-0.018-29.299-0.033-58.598-0.033-87.896C274.915,37.405,275.074,36.58,275.159,35.754z"/>
	<path fill-rule="evenodd" fill="#C8372E" d="M845.121,25.686c0.643,0.012,1.283,0.023,1.925,0.035c0,64.187,0,128.373,0,194.075
		c-8.173-4.149-14.157-8.884-19.02-15.137c-0.057-0.323-0.113-0.646-0.17-0.97c-0.482-1.968-0.345-3.975-0.346-5.969
		c-0.009-48.795-0.016-97.589,0.017-146.384c0.002-2.609-0.584-5.383,1.365-7.672c1.881-4.476,6.072-6.913,9.132-10.35
		C840.334,30.721,843.264,28.701,845.121,25.686z"/>
	<path fill-rule="evenodd" fill="#8BA6EF" d="M815.049,59.701c1.309,4.882-0.086,9.775-0.047,14.666
		c0.203,25.071-0.295,50.149,0.082,75.217c0.186,12.41-0.415,24.784-0.408,37.177c-3.221-0.155-3.273-3.21-4.634-5.067
		c-0.063-1.1-0.279-2.081-1.675-2.138c-2.557-1.896-0.085-5.482-2.496-7.427l0.092-0.411c-1.375-4.479-2.09-9.048-2.084-13.748
		c0.025-23.488,0.027-46.977-0.003-70.464c-0.005-4.362,0.397-8.628,2.044-12.709C807.879,69.109,810.146,63.608,815.049,59.701z"/>
	<path fill-rule="evenodd" fill="#E69899" d="M827.97,204.304c0.013-32.133,0.032-64.266,0.038-96.398
		c0.004-21.312-0.014-42.622-0.021-63.934c0.263-0.217,0.564-0.319,0.905-0.307c0.037,21.95,0.084,43.9,0.112,65.85
		c0.038,30.437,0.067,60.872,0.07,91.309C829.075,202.052,829.624,203.558,827.97,204.304z"/>
	<path fill-rule="evenodd" fill="#B59161" d="M810.042,181.693c2.339,0.963,2.265,4.132,4.634,5.067
		c0.184,0.897,0.367,1.796,0.55,2.694C810.672,188.755,810.697,184.997,810.042,181.693z"/>
	<path fill-rule="evenodd" fill="#B59161" d="M805.871,172.129c3.008,1.743,1.98,4.845,2.496,7.427
		C805.672,177.706,805.848,174.892,805.871,172.129z"/>
	<path fill-rule="evenodd" fill="#8BA6EF" d="M329.521,219.816c-8.794-21.321-13.737-43.493-14.912-66.872
		c16.446,0,32.67,0,49.059,0c-1.674,21.204-5.044,41.905-12.645,61.749c-0.699,1.823-1.057,3.879-3.055,4.901
		C341.864,223.388,335.707,222.758,329.521,219.816z"/>
	<path fill-rule="evenodd" fill="#8BA6EF" d="M320.668,96.44c4.254-16.465,10.652-31.075,18.094-46.322
		c8.361,15.188,14.559,30.171,17.8,46.322C344.678,96.44,333.063,96.44,320.668,96.44z"/>
	<path fill-rule="evenodd" fill="#8BA6EF" d="M359.102,105.725c1.477,5.15,1.581,10.596,2.211,16.44
		c-15.241,1.251-30.104-0.702-45.326,0.021c-0.39-5.517,2.743-10.532,1.826-16.461C331.585,105.725,344.977,105.725,359.102,105.725
		z"/>
	<path fill-rule="evenodd" fill="#D4D0D1" d="M329.521,219.816c6.149-0.074,12.298-0.147,18.447-0.222
		c-0.191,7.822-5.448,13.485-8.405,21.201C334.021,234.091,332.586,226.548,329.521,219.816z"/>
	<path fill-rule="evenodd" fill="#4E5B98" d="M295.303,153.985c-0.386-16.118-0.442-32.236-0.065-48.355
		c0.902,1.335,0.697,2.854,0.7,4.329c0.03,13.397,0.049,26.795,0.066,40.191C296.005,151.469,296.103,152.811,295.303,153.985z"/>
	<path fill-rule="evenodd" fill="#D4D0D1" d="M521.713,213.528c-10.195,0-19.621,0-30.117,0
		c9.422-48.566,19.41-96.467,30.117-144.269C521.713,117.2,521.713,165.141,521.713,213.528z"/>
	<path fill-rule="evenodd" fill="#D4D0D1" d="M468.277,213.758c-0.001-30.319-0.01-60.64,0.003-90.959
		c0.001-4.156,0.107-8.313,0.165-12.469c1.476,0.063,1.414,1.207,1.384,2.156c-0.312,9.824,2.93,19.014,4.969,28.425
		c5.027,23.201,9.966,46.423,14.91,69.642c0.166,0.779,0.021,1.624,0.021,3.205C482.461,213.758,475.369,213.758,468.277,213.758z"
		/>
	<path fill-rule="evenodd" fill="#D4D0D1" d="M469.742,23.38c-1.557-4.18,0.851-7.785,0.314-12.059c17.228,0,34.145,0,51.188,0
		c1.375,4.041,0.791,7.795,0.553,12.059C504.479,23.38,487.297,23.38,469.742,23.38z"/>
	<path fill-rule="evenodd" fill="#73598B" d="M595.758,147.053c-1.312-5.391-0.791-10.887-0.809-16.332
		c-0.076-22.419-0.023-44.839,0.023-67.258c0.004-1.959-0.338-4.008,0.791-5.832c0.078,17.651,0.207,35.304,0.219,52.955
		C595.99,122.742,595.838,134.897,595.758,147.053z"/>
	<path fill-rule="evenodd" fill="#D4D0D1" d="M601.43,258.148c15.05-7.356,29.766-12.256,44.369-18.232
		c14.478,5.704,29.307,11.145,43.652,17.547c-0.465,1.614-1.292,1.834-2.039,2.14c-12.315,5.048-24.652,10.044-36.926,15.189
		c-1.804,0.756-3.47,1.197-5.26,0.5C631.072,269.776,616.932,264.223,601.43,258.148z"/>
	<path fill-rule="evenodd" fill="#6E373A" d="M396.867,179.82c-0.861-0.95-0.792-2.133-0.793-3.283
		c-0.007-17.854-0.007-35.71-0.009-53.565c0-1.155-0.08-2.328,0.721-3.309C396.813,139.716,396.84,159.768,396.867,179.82z"/>
	<path fill-rule="evenodd" fill="#E69899" d="M398.151,218.711c-0.115,4.026-0.229,8.053-0.344,12.079
		c-0.222-0.021-0.443-0.042-0.665-0.063c0.03-4.062,0.06-8.122,0.089-12.184C397.558,218.492,397.864,218.548,398.151,218.711z"/>
	<path fill-rule="evenodd" fill="#DE8F17" d="M127.541,172.313c-0.35,10.153-0.648,17.663-2.564,24.915
		c-3.201,12.117-8.327,22.96-21.296,27.484c-6.833,2.383-16.879-1.185-21.678-6.688c-8.032-9.21-12.222-20.219-13.667-31.915
		c-2.373-19.208-0.564-38.079,8.787-55.584c0.781-1.463,1.668-2.878,2.604-4.247c9.162-13.396,24.219-14.113,34.212-1.354
		c6.812,8.696,10.335,18.951,11.951,29.769C126.894,161.409,127.176,168.233,127.541,172.313z"/>
	<path fill-rule="evenodd" fill="#E07780" d="M397.143,230.728c0.222,0.02,0.443,0.041,0.665,0.063
		c-0.157,9.758,1.049,19.545-0.617,29.271C397.175,250.283,397.159,240.505,397.143,230.728z"/>
	<path fill-rule="evenodd" fill="#DE8F17" d="M61.887,19.625c1.712-3.729,3.557-7.366,6.813-10.254
		c4.553,2.158,5.148,6.851,7.286,10.448c1.396,0.977,0.687,2.961,1.922,4.015c0.081,0.588,0.162,1.176,0.244,1.763
		c1.085,1.209,0.567,3.075,1.742,4.247c0.131,2.513,0.263,5.024,0.395,7.537c1.073,4.846,1.284,9.681-0.164,14.498
		c-0.087,1.3-0.173,2.6-0.26,3.899c-1.172,1.111-0.586,2.956-1.704,4.09c-0.786,5.223-3.634,9.539-6.146,14.005
		c-0.842,0.864-0.425,2.836-2.04,2.655c-2.455,0.293-2.911-1.634-4-2.73c-2.474-4.409-5.426-8.604-6.161-13.791
		c-1.012-1.265-0.557-3.099-1.676-4.321c-0.367-3.094-0.467-6.151-1.647-9.197c-1.56-4.023,0.797-8.055,1.055-12.124
		c0.136-2.151,0.458-4.292,0.696-6.437c1.028-1.168,0.385-3.063,1.777-4.072l0.039-0.082C61.328,22.682,60.73,20.767,61.887,19.625z
		"/>
	<path fill-rule="evenodd" fill="#B59161" d="M80.124,51.879c0.055-4.833,0.109-9.666,0.164-14.498
		c0.43-0.171,0.86-0.342,1.29-0.513C81.794,41.939,83.366,47.143,80.124,51.879z"/>
	<path fill-rule="evenodd" fill="#B59161" d="M65.975,73.798c1.086,0.596,2.172,1.191,3.257,1.786
		c1.304,0.04,1.758-1.299,2.782-1.711c0.357,2.737-1.37,3.745-3.561,4.351C66.628,77.276,65.73,75.853,65.975,73.798z"/>
	<path fill-rule="evenodd" fill="#B59161" d="M61.887,19.625c-0.048,1.631,0.79,3.651-1.829,4.148
		C60.114,22.146,59.661,20.296,61.887,19.625z"/>
	<path fill-rule="evenodd" fill="#B59161" d="M77.907,23.834c-2.255-0.565-1.901-2.38-1.922-4.015
		C78.441,20.288,77.843,22.22,77.907,23.834z"/>
	<path fill-rule="evenodd" fill="#B59161" d="M60.019,23.855c0.014,1.622,0.52,3.459-1.777,4.072
		C58.093,26.247,57.88,24.538,60.019,23.855z"/>
	<path fill-rule="evenodd" fill="#B59161" d="M79.893,29.844c-2.243-0.733-1.87-2.54-1.742-4.247
		C80.344,26.352,79.98,28.154,79.893,29.844z"/>
	<path fill-rule="evenodd" fill="#B59161" d="M78.159,59.868c-0.126-1.652-0.55-3.429,1.704-4.09
		C80.007,57.438,80.259,59.144,78.159,59.868z"/>
	<path fill-rule="evenodd" fill="#B59161" d="M58.138,55.686c2.396,0.728,1.811,2.612,1.676,4.321
		C57.611,59.204,58.068,57.369,58.138,55.686z"/>
	<path fill-rule="evenodd" fill="#D4D0D1" d="M245.962,219.776c-6.239,7.527-12.5,15.327-22.399,17.95
		c-15.963,4.229-28.082-2.475-37.732-14.797c-2.24-2.86-4.113-6.007-6.156-9.021c-1.742-35.037-0.321-70.098-0.776-105.145
		c-0.078-5.972-0.222-11.951,1.086-17.84c7.433-16.747,22.95-24.725,42.669-21.935c1.798,2.687,1.428,5.74,1.429,8.713
		c0.015,43.599-0.001,87.196,0.03,130.795c0.002,2.624-0.454,5.339,1.137,8.29c4.035,1.525,8.503,1.201,12.86,0.339
		C241.427,216.469,244.017,216.887,245.962,219.776z"/>
	<path fill-rule="evenodd" fill="#8BA6EF" d="M245.962,219.776c-1.42-0.463-2.841-0.925-4.28-1.393
		c-6.242,2.272-12.631,1.005-18.708,1.111c-1.38-1.941-0.975-3.654-0.975-5.271c0.003-46.604,0.023-93.208,0.079-139.813
		c0.002-1.808,0.376-3.615,0.577-5.423c11.648,4.154,19.256,12.761,25.364,23.02c1.669,4.244,2.102,8.663,2.095,13.195
		c-0.041,28.612-0.034,57.226-0.001,85.838c0.003,2.46-0.405,5.01,0.851,7.163c1.368,1.625,3.555,1.373,4.886,2.711
		C254.033,207.978,249.899,213.825,245.962,219.776z"/>
	<path fill-rule="evenodd" fill="#8BA6EF" d="M179.985,90.924c1.697,1.632,1.07,3.732,1.071,5.663
		c0.021,37.264,0.017,74.526-0.009,111.79c-0.001,1.928,0.583,4.062-1.372,5.531c-5.882-9.34-10.129-19.338-12.176-30.223
		c0.115-1.484-0.381-2.762-1.318-3.889c-0.593-6.289-1.507-12.567-1.719-18.869c-0.681-20.247,1.651-40.086,9.567-58.922
		C175.637,98.181,177.113,94.136,179.985,90.924z"/>
	<path fill-rule="evenodd" fill="#D4D0D1" d="M255.85,200.916c-2.357,1.096-4.739,1.288-7.831,0.027c0-36.199,0-72.567,0-108.935
		c6.975,11.782,11.587,24.438,13.937,37.915c2.819,16.174,2.433,32.353-0.029,48.529
		C260.751,186.173,258.856,193.693,255.85,200.916z"/>
	<path fill-rule="evenodd" fill="#6E373A" d="M158.98,121.742c0.159-1.572-0.117-3.238,0.986-4.608c0,1.838,0,3.677,0,6.738
		C159.249,122.32,159.114,122.031,158.98,121.742z"/>
	<path fill-rule="evenodd" fill="#B59161" d="M166.182,179.797c2.034,0.756,1.56,2.361,1.318,3.889
		C166.526,182.57,166.056,181.285,166.182,179.797z"/>
	<path fill-rule="evenodd" fill="#6E373A" d="M157.049,131.769c-0.056-1.746,0.002-3.471,0.917-5.041
		C157.738,128.422,158.6,130.314,157.049,131.769z"/>
	<path fill-rule="evenodd" fill="#D4D0D1" d="M111.908,139.019c7.723,21.85,8.967,43.707,0.089,65.579
		c-0.702,1.08-1.024,2.395-2.032,3.284c-2.381,4.386-6.404,6.418-10.757,7.701c-12.896-1.979-16.158-12.421-19.012-22.24
		c-5.227-17.983-3.21-36.081,2.181-53.712c1.73-5.657,5.939-10.217,11.47-13.088c2.72-0.193,5.467-0.885,8.105,0.437
		c1.917,1.606,3.834,3.213,5.751,4.819c1.293,0.648,1.585,1.983,2.147,3.134c0.021,0.277,0.1,0.536,0.238,0.776
		C110.943,136.677,111.4,137.861,111.908,139.019z"/>
	<path fill-rule="evenodd" fill="#B59161" d="M101.953,126.979c-2.702-0.146-5.403-0.291-8.105-0.437
		C96.615,125.472,99.365,124.719,101.953,126.979z"/>
	<path fill-rule="evenodd" fill="#B59161" d="M109.851,134.933c-1.155-0.743-1.788-1.845-2.147-3.134
		C109.795,131.9,110.083,133.239,109.851,134.933z"/>
	<path fill-rule="evenodd" fill="#B59161" d="M111.908,139.019c-0.925-0.928-1.84-1.861-1.819-3.31
		C112.165,136.005,112.049,137.505,111.908,139.019z"/>
	<path fill-rule="evenodd" fill="#B59161" d="M109.965,207.882c0.069-1.471,1.105-2.344,2.032-3.284
		C112.109,206.181,111.985,207.618,109.965,207.882z"/>
	<path fill-rule="evenodd" fill="#D4D0D1" d="M69.007,69.895c-10.039-11.496-11.878-37.179-0.181-53.745
		C78.45,27.285,79.013,58.618,69.007,69.895z"/>
</g>
</svg>
