<?xml version="1.0" encoding="utf-8"?>
<!-- Generator: Adobe Illustrator 16.0.2, SVG Export Plug-In . SVG Version: 6.00 Build 0)  -->
<!DOCTYPE svg PUBLIC "-//W3C//DTD SVG 1.1//EN" "http://www.w3.org/Graphics/SVG/1.1/DTD/svg11.dtd">
<svg version="1.1" id="lay" xmlns="http://www.w3.org/2000/svg" xmlns:xlink="http://www.w3.org/1999/xlink" x="0px" y="0px"
	 width="114px" height="220px" viewBox="0 0 114 220" enable-background="new 0 0 114 220" xml:space="preserve">
<path d="M110.855,120.547c0,13.669-6.711,24.06-20.132,31.172c-1.238,0.619-1.855,1.269-1.855,1.948
	c0,1.052,2.876,5.427,8.628,13.127s8.628,11.736,8.628,12.107c0,1.67-8.196,2.505-24.585,2.505c-6.309,0-9.958-0.804-10.947-2.412
	c-2.475-4.144-6.34-10.081-11.597-17.813c-0.31-0.371-5.876-0.804-16.699-1.299c0,1.918,0.03,4.979,0.093,9.185
	c0.061,4.206,0.093,7.329,0.093,9.37c0,1.855-0.897,2.876-2.69,3.062c-1.113,0.123-6,0.186-14.658,0.186
	c-7.484,0-11.845-0.125-13.081-0.371c-1.67-0.309-2.505-1.577-2.505-3.804v-56.777c0-7.607-0.278-18.987-0.835-34.141
	C8.155,71.439,7.876,60.09,7.876,52.544c0-1.484,0.835-2.257,2.505-2.319c3.277,0,8.194-0.062,14.751-0.186
	c1.731-0.123,4.731-0.494,8.999-1.113c3.772-0.557,6.741-0.835,8.906-0.835c0.989,0,1.484,0.897,1.484,2.69
	c0,2.351-0.186,5.536-0.557,9.556c-0.434,4.701-0.681,7.917-0.742,9.648c-0.557,13.298-0.835,23.596-0.835,30.894
	c0,1.732,0.216,2.629,0.649,2.69c0.557-0.371,1.299-1.051,2.227-2.041c8.04-8.35,17.813-12.524,29.316-12.524
	c10.823,0,19.42,2.475,25.791,7.422C107.36,101.931,110.855,109.971,110.855,120.547z M74.024,126.577
	c0-7.483-4.237-11.226-12.71-11.226c-3.773,0-7.793,1.423-12.061,4.268c-4.578,3.031-6.865,6.34-6.865,9.927
	c0,5.134,0.71,8.227,2.134,9.277c1.113,0.742,4.669,1.113,10.669,1.113C67.746,139.937,74.024,135.483,74.024,126.577z"/>
</svg>
