<?xml version="1.0" encoding="utf-8"?>
<!-- Generator: Adobe Illustrator 16.0.2, SVG Export Plug-In . SVG Version: 6.00 Build 0)  -->
<!DOCTYPE svg PUBLIC "-//W3C//DTD SVG 1.1//EN" "http://www.w3.org/Graphics/SVG/1.1/DTD/svg11.dtd">
<svg version="1.1" id="lay" xmlns="http://www.w3.org/2000/svg" xmlns:xlink="http://www.w3.org/1999/xlink" x="0px" y="0px"
	 width="107px" height="220px" viewBox="0 0 107 220" enable-background="new 0 0 107 220" xml:space="preserve">
<path d="M99.748,178.438c0,1.67-0.867,2.629-2.598,2.876c-1.732,0.246-6.248,0.371-13.545,0.371c-7.793,0-12.617-0.186-14.473-0.557
	s-2.783-1.639-2.783-3.804c0-2.906,0.093-7.298,0.278-13.174c0.186-5.875,0.278-10.298,0.278-13.267
	c0-2.288-0.063-5.706-0.186-10.252c-0.125-4.546-0.186-7.962-0.186-10.251c0-8.473-3.681-12.71-11.04-12.71
	c-2.412,0-5.227,1.052-8.442,3.154c-3.464,2.351-5.195,4.67-5.195,6.958v50.098c0,2.041-0.959,3.186-2.876,3.433
	c-2.166,0.246-6.587,0.371-13.267,0.371c-7.236,0-11.938-0.186-14.102-0.557c-1.918-0.309-2.876-1.329-2.876-3.062
	c0-4.824,0.03-12.091,0.093-21.802c0.061-9.71,0.093-17.008,0.093-21.895c0-15.4-1.206-27.491-3.618-36.274
	c-0.125-0.557-0.186-1.021-0.186-1.392c0-0.989,0.464-1.67,1.392-2.041c3.896-0.433,9.092-1.113,15.586-2.041
	c9.834-1.917,15.369-2.876,16.606-2.876c0.68,0,1.206,2.087,1.577,6.262s0.896,6.263,1.577,6.263c-0.681,0,2.644-2.148,9.973-6.448
	c7.329-4.298,13.745-6.447,19.25-6.447c7.854,0,14.41,1.855,19.668,5.566c5.875,4.268,8.813,10.205,8.813,17.813v29.595
	c0,4.021,0.03,10.035,0.093,18.044C99.716,168.403,99.748,174.418,99.748,178.438z"/>
</svg>
