<?xml version="1.0" encoding="utf-8"?>
<!-- Generator: Adobe Illustrator 16.0.2, SVG Export Plug-In . SVG Version: 6.00 Build 0)  -->
<!DOCTYPE svg PUBLIC "-//W3C//DTD SVG 1.1//EN" "http://www.w3.org/Graphics/SVG/1.1/DTD/svg11.dtd">
<svg version="1.1" id="lay" xmlns="http://www.w3.org/2000/svg" xmlns:xlink="http://www.w3.org/1999/xlink" x="0px" y="0px"
	 width="102px" height="220px" viewBox="0 0 102 220" enable-background="new 0 0 102 220" xml:space="preserve">
<path d="M97.201,116.743c0,10.576-0.341,16.823-1.021,18.74c-1.423,4.392-5.691,11.845-12.803,22.358
	c-6.186,9.03-11.474,16.081-15.864,21.152c-1.609,1.918-6.464,2.876-14.565,2.876c-7.051,0-11.628-0.248-13.73-0.742
	c-1.299-0.309-2.382-0.928-3.247-1.855c-3.711-4.02-8.999-11.009-15.864-20.967c-7.361-10.699-11.752-18.028-13.174-21.987
	c-1.547-4.268-2.319-10.669-2.319-19.204c0-2.412,0.03-6.045,0.093-10.901c0.061-4.854,0.093-8.519,0.093-10.993
	c0-1.607,1.082-2.412,3.247-2.412c3.154,0,7.9,0.093,14.241,0.278c6.339,0.186,11.086,0.278,14.241,0.278
	c1.422,0,2.134,0.959,2.134,2.876c0,1.732-0.125,4.346-0.371,7.839c-0.248,3.495-0.371,6.14-0.371,7.933
	c0,6.433,0.186,11.689,0.557,15.771c0.186,2.104,1.979,6.062,5.381,11.875c3.525,6.123,6.091,9.185,7.7,9.185
	c1.545,0,4.02-2.999,7.422-8.999c3.277-5.628,5.04-9.463,5.288-11.504c0.494-4.391,0.742-9.71,0.742-15.957
	c0-1.793-0.186-4.5-0.557-8.118s-0.557-6.292-0.557-8.024c0-1.917,0.649-2.876,1.948-2.876c1.484,0,3.695,0.031,6.633,0.093
	c2.937,0.063,5.149,0.093,6.633,0.093s3.726-0.123,6.726-0.371c2.999-0.247,5.242-0.371,6.726-0.371
	c1.545,0,2.566,0.805,3.062,2.412C96.675,98.745,97.201,105.92,97.201,116.743z"/>
</svg>
