<?xml version="1.0" encoding="utf-8"?>
<!-- Generator: Adobe Illustrator 16.0.2, SVG Export Plug-In . SVG Version: 6.00 Build 0)  -->
<!DOCTYPE svg PUBLIC "-//W3C//DTD SVG 1.1//EN" "http://www.w3.org/Graphics/SVG/1.1/DTD/svg11.dtd">
<svg version="1.1" id="lay" xmlns="http://www.w3.org/2000/svg" xmlns:xlink="http://www.w3.org/1999/xlink" x="0px" y="0px"
	 width="136px" height="220px" viewBox="0 0 136 220" enable-background="new 0 0 136 220" xml:space="preserve">
<path d="M129.88,115.352c0,18.184-5.845,33.955-17.534,47.314c-10.33,11.938-24.833,18.215-43.511,18.833
	c-3.588,0.123-13.452,0.186-29.595,0.186c-3.031,0-7.593-0.093-13.684-0.278c-6.093-0.186-10.654-0.278-13.684-0.278
	c-1.794,0-2.69-0.711-2.69-2.134c0-6.803,0.262-17.024,0.789-30.662c0.525-13.638,0.789-23.857,0.789-30.661
	c0-7.112-0.264-17.767-0.789-31.961C9.444,71.516,9.182,60.894,9.182,53.843c0-1.299,0.896-2.071,2.69-2.319
	c4.391-0.494,11.597-0.742,21.616-0.742c19.049,0,31.388,0.278,37.017,0.835c14.658,1.484,26.13,5.195,34.419,11.133
	c7.793,5.566,13.946,13.359,18.462,23.379C127.714,95.591,129.88,105.332,129.88,115.352z M94.348,115.352
	c0-10.452-3.124-18.987-9.37-25.605c-6.309-6.865-14.658-10.298-25.049-10.298c-9.525,0-14.287,1.269-14.287,3.804
	c0,3.649-0.063,9.138-0.186,16.467c-0.125,7.329-0.186,12.819-0.186,16.468c0,3.588,0.061,8.984,0.186,16.188
	c0.123,7.206,0.186,12.634,0.186,16.282c0,2.66,4.947,3.989,14.844,3.989c10.699,0,19.111-3.556,25.234-10.669
	C91.472,135.236,94.348,126.361,94.348,115.352z"/>
</svg>
