<?xml version="1.0" encoding="utf-8"?>
<!-- Generator: Adobe Illustrator 16.0.2, SVG Export Plug-In . SVG Version: 6.00 Build 0)  -->
<!DOCTYPE svg PUBLIC "-//W3C//DTD SVG 1.1//EN" "http://www.w3.org/Graphics/SVG/1.1/DTD/svg11.dtd">
<svg version="1.1" id="lay" xmlns="http://www.w3.org/2000/svg" xmlns:xlink="http://www.w3.org/1999/xlink" x="0px" y="0px"
	 width="165px" height="220px" viewBox="0 0 165 220" enable-background="new 0 0 165 220" xml:space="preserve">
<path d="M155.698,177.695c0,2.165-0.928,3.371-2.783,3.618c-1.855,0.246-6.433,0.371-13.73,0.371
	c-7.546,0-12.246-0.186-14.102-0.557s-2.783-1.886-2.783-4.546c0-2.845,0.093-7.098,0.278-12.757s0.278-9.91,0.278-12.756
	c0-10.823-0.125-18.523-0.371-23.101c-0.371-7.359-3.866-11.04-10.483-11.04c-2.908,0-5.798,1.222-8.674,3.664
	c-2.876,2.444-4.469,5.149-4.778,8.118c-0.248,2.598-0.371,10.205-0.371,22.822c0,2.907,0.093,7.314,0.278,13.22
	c0.186,5.907,0.278,10.345,0.278,13.313c0,2.041-0.897,3.062-2.69,3.062h-28.11c-1.732,0-2.598-1.268-2.598-3.804
	c0-2.906,0.093-7.267,0.278-13.081c0.186-5.813,0.278-10.205,0.278-13.174c0-2.288-0.063-5.752-0.186-10.391
	c-0.125-4.639-0.186-8.133-0.186-10.483c0-8.844-3.372-13.267-10.112-13.267c-2.722,0-5.659,1.052-8.813,3.154
	c-3.464,2.289-5.195,4.701-5.195,7.236c0,5.629,0.03,14.04,0.093,25.234c0.061,11.195,0.093,19.575,0.093,25.142
	c0,1.547-0.186,2.505-0.557,2.876s-1.331,0.617-2.876,0.742c-2.783,0.246-7.175,0.371-13.174,0.371
	c-3.896,0-8.319-0.186-13.267-0.557c-1.484-0.123-2.366-0.34-2.644-0.649c-0.278-0.309-0.417-1.236-0.417-2.783
	c0-4.947,0.03-12.354,0.093-22.22c0.061-9.864,0.093-17.271,0.093-22.219c0-10.143-0.742-21.554-2.227-34.233
	c-0.125-0.742-0.186-1.299-0.186-1.67c0-1.051,0.432-1.763,1.299-2.134c1.36-0.557,3.927-1.021,7.7-1.392
	c4.639-0.433,7.39-0.711,8.257-0.835c0.618-0.123,3.062-0.772,7.329-1.948c3.03-0.865,5.474-1.299,7.329-1.299
	c1.174,0,1.793,2.149,1.855,6.447c0.061,4.3,0.309,6.448,0.742,6.448c0.618-0.247,1.329-0.68,2.134-1.299
	c5.566-4.329,9.957-7.298,13.174-8.906c4.762-2.288,9.927-3.433,15.493-3.433c5.689,0,10.762,1.269,15.215,3.804
	c5.01,2.846,8.257,6.835,9.741,11.968c3.277-4.453,7.793-8.194,13.545-11.226c5.752-3.03,11.349-4.546,16.792-4.546
	c8.164,0,14.812,1.887,19.946,5.659c5.813,4.268,8.721,10.36,8.721,18.276c0,3.278-0.093,8.21-0.278,14.797
	s-0.278,11.521-0.278,14.798c0,3.896,0.093,9.757,0.278,17.58C155.605,167.939,155.698,173.799,155.698,177.695z"/>
</svg>
