<?xml version="1.0" encoding="utf-8"?>
<!-- Generator: Adobe Illustrator 16.0.2, SVG Export Plug-In . SVG Version: 6.00 Build 0)  -->
<!DOCTYPE svg PUBLIC "-//W3C//DTD SVG 1.1//EN" "http://www.w3.org/Graphics/SVG/1.1/DTD/svg11.dtd">
<svg version="1.1" id="lay" xmlns="http://www.w3.org/2000/svg" xmlns:xlink="http://www.w3.org/1999/xlink" x="0px" y="0px"
	 width="52px" height="220px" viewBox="0 0 52 220" enable-background="new 0 0 52 220" xml:space="preserve">
<path d="M42.096,138.545c0,4.516,0.093,11.241,0.278,20.178c0.186,8.938,0.278,15.633,0.278,20.086c0,1.299-0.774,2.072-2.319,2.319
	c-2.104,0.371-6.835,0.557-14.194,0.557c-7.422,0-12.185-0.186-14.287-0.557c-1.361-0.247-2.196-0.649-2.505-1.206
	c-0.125-0.247-0.186-1.175-0.186-2.783c0-4.268,0.093-10.684,0.278-19.251c0.186-8.565,0.278-15.013,0.278-19.343
	c0-17.564-0.681-31.543-2.041-41.934c-0.125-0.989-0.186-1.639-0.186-1.948c0-1.236,0.835-1.855,2.505-1.855
	c1.731,0,4.375,0.186,7.932,0.557c3.556,0.371,6.23,0.557,8.025,0.557c1.793,0,4.483-0.154,8.071-0.464
	c3.586-0.309,6.277-0.464,8.071-0.464c1.484,0,2.227,0.619,2.227,1.855c0,0.248-0.063,0.835-0.186,1.763
	C42.776,108.672,42.096,122.65,42.096,138.545z M44.508,69.614c0,10.762-6.062,16.143-18.184,16.143
	c-5.195,0-9.495-1.36-12.896-4.082c-3.711-2.969-5.566-6.988-5.566-12.061c0-4.824,1.917-8.782,5.752-11.875
	c3.525-2.845,7.761-4.268,12.71-4.268c4.824,0,8.999,1.454,12.524,4.36C42.621,60.925,44.508,64.853,44.508,69.614z"/>
</svg>
