<?xml version="1.0" encoding="utf-8"?>
<!-- Generator: Adobe Illustrator 16.0.2, SVG Export Plug-In . SVG Version: 6.00 Build 0)  -->
<!DOCTYPE svg PUBLIC "-//W3C//DTD SVG 1.1//EN" "http://www.w3.org/Graphics/SVG/1.1/DTD/svg11.dtd">
<svg version="1.1" id="lay" xmlns="http://www.w3.org/2000/svg" xmlns:xlink="http://www.w3.org/1999/xlink" x="0px" y="0px"
	 width="93px" height="220px" viewBox="0 0 93 220" enable-background="new 0 0 93 220" xml:space="preserve">
<path d="M89.779,178.623c0,1.361-1.021,2.196-3.062,2.505c-3.65,0.494-7.515,0.742-11.597,0.742c-4.33,0-7.948-0.248-10.854-0.742
	c-0.742-0.123-1.887-0.742-3.433-1.855c-3.031-4.329-7.639-10.792-13.823-19.39c-1.547,1.855-6.619,8.227-15.215,19.111
	c-0.805,1.113-1.948,1.825-3.433,2.134c-2.166,0.494-5.566,0.742-10.205,0.742c-9.773,0-14.658-1.082-14.658-3.247
	c0-1.793,0.03-4.53,0.093-8.211c0.061-3.679,0.093-6.447,0.093-8.303c0-1.051,0.557-2.195,1.67-3.433
	c4.824-5.01,11.936-12.586,21.338-22.729c-4.33-4.144-8.628-8.287-12.896-12.432C6.932,116.774,3.5,112.785,3.5,111.548V95.22
	c0-1.607,1.082-2.412,3.247-2.412c2.473,0,6.169,0.093,11.086,0.278s8.612,0.278,11.086,0.278c1.236,0,2.38,0.681,3.433,2.041
	c3.401,4.516,8.164,10.236,14.287,17.163c5.566-6.741,9.988-12.462,13.267-17.163c0.928-1.236,2.071-1.855,3.433-1.855
	c2.598,0,6.462-0.123,11.597-0.371c5.133-0.247,8.999-0.371,11.597-0.371c2.164,0,3.247,0.805,3.247,2.412v16.328
	c0,1.176-0.526,2.258-1.577,3.247c-4.701,4.763-11.659,11.999-20.874,21.709c4.7,4.887,11.658,12.339,20.874,22.358
	c1.051,1.176,1.577,2.319,1.577,3.433V178.623z"/>
</svg>
