<?xml version="1.0" encoding="utf-8"?>
<!-- Generator: Adobe Illustrator 16.0.2, SVG Export Plug-In . SVG Version: 6.00 Build 0)  -->
<!DOCTYPE svg PUBLIC "-//W3C//DTD SVG 1.1//EN" "http://www.w3.org/Graphics/SVG/1.1/DTD/svg11.dtd">
<svg version="1.1" id="lay" xmlns="http://www.w3.org/2000/svg" xmlns:xlink="http://www.w3.org/1999/xlink" x="0px" y="0px"
	 width="142px" height="220px" viewBox="0 0 142 220" enable-background="new 0 0 142 220" xml:space="preserve">
<path d="M133.251,178.252c0,1.299-0.278,2.104-0.835,2.412c-0.248,0.186-1.113,0.341-2.598,0.464
	c-3.773,0.371-9.092,0.557-15.957,0.557c-9.711,0-15.417-0.186-17.117-0.557c-1.702-0.371-2.551-1.206-2.551-2.505
	c0-4.886,0.232-12.23,0.696-22.034c0.464-9.802,0.696-17.146,0.696-22.033c0-2.412-0.681-3.804-2.041-4.175
	c-2.104-0.494-9.587-0.742-22.451-0.742c-12.927,0-20.473,0.248-22.637,0.742c-1.361,0.31-2.041,1.701-2.041,4.175
	c0,4.824,0.154,12.046,0.464,21.662c0.309,9.618,0.464,16.839,0.464,21.663c0,1.855-0.835,2.938-2.505,3.247
	c-1.98,0.371-7.793,0.557-17.441,0.557c-8.35,0-13.669-0.186-15.957-0.557c-1.794-0.309-2.69-1.268-2.69-2.876
	c0-6.68,0.325-16.761,0.974-30.244c0.649-13.482,0.974-23.595,0.974-30.337c0-7.174-0.31-17.952-0.928-32.332
	C9.15,70.959,8.842,60.183,8.842,53.008c0-1.36,0.649-2.041,1.948-2.041c1.917,0,4.808,0.093,8.674,0.278
	c3.865,0.186,6.756,0.278,8.674,0.278c1.979,0,4.963-0.093,8.953-0.278s6.973-0.278,8.953-0.278c1.051,0,1.577,0.557,1.577,1.67
	c0,4.639-0.341,11.582-1.021,20.827c-0.681,9.247-1.021,16.189-1.021,20.828c0,2.165,0.587,3.433,1.763,3.804
	c1.607,0.495,9.524,0.742,23.75,0.742c13.235,0,20.904-0.247,23.008-0.742c1.484-0.371,2.227-1.639,2.227-3.804
	c0-4.453-0.217-11.18-0.649-20.179c-0.434-8.999-0.649-15.755-0.649-20.271c0-1.917,0.772-2.876,2.319-2.876
	c1.793,0,4.53,0.093,8.21,0.278c3.679,0.186,6.448,0.278,8.303,0.278c1.793,0,4.53-0.093,8.21-0.278
	c3.679-0.186,6.448-0.278,8.303-0.278c1.793,0,2.69,0.742,2.69,2.227c0,7.113-0.294,17.844-0.881,32.192
	c-0.588,14.35-0.881,25.111-0.881,32.285c0,6.742,0.325,16.854,0.974,30.337C132.926,161.491,133.251,171.572,133.251,178.252z"/>
</svg>
