<?xml version="1.0" encoding="utf-8"?>
<!-- Generator: Adobe Illustrator 16.0.2, SVG Export Plug-In . SVG Version: 6.00 Build 0)  -->
<!DOCTYPE svg PUBLIC "-//W3C//DTD SVG 1.1//EN" "http://www.w3.org/Graphics/SVG/1.1/DTD/svg11.dtd">
<svg version="1.1" id="lay" xmlns="http://www.w3.org/2000/svg" xmlns:xlink="http://www.w3.org/1999/xlink" x="0px" y="0px"
	 width="114px" height="220px" viewBox="0 0 114 220" enable-background="new 0 0 114 220" xml:space="preserve">
<path d="M110.02,136.504c0,13.236-3.896,24.214-11.689,32.935c-8.041,9.03-18.586,13.545-31.636,13.545
	c-4.763,0-9.866-1.176-15.308-3.525c-5.443-2.35-7.917-3.525-7.422-3.525c-0.805,0-1.206,0.928-1.206,2.783
	c0,3.154,0.154,7.9,0.464,14.24c0.309,6.339,0.464,11.087,0.464,14.241c0,1.979-1.021,2.969-3.062,2.969L21.7,210.259
	c-4.268,0-7.021-0.155-8.257-0.464c-1.855-0.434-2.783-1.577-2.783-3.433l0.186-71.436c0-14.41-1.083-26.563-3.247-36.46
	c-0.125-0.618-0.186-1.144-0.186-1.577c0-0.928,0.371-1.546,1.113-1.855c2.412-0.928,7.019-1.917,13.823-2.969
	c6.617-1.051,11.411-1.577,14.38-1.577c2.412,0,3.788,1.593,4.128,4.777c0.339,3.187,0.757,4.778,1.252,4.778
	c-0.619,0,2.025-1.685,7.932-5.057c5.906-3.37,11.272-5.056,16.096-5.056c13.42,0,24.151,4.423,32.192,13.267
	C106.124,111.733,110.02,122.836,110.02,136.504z M75.601,136.318c0-4.947-1.516-9.277-4.546-12.988
	c-3.279-3.896-7.329-5.845-12.153-5.845c-4.949,0-8.906,1.948-11.875,5.845c-2.598,3.525-3.896,7.855-3.896,12.988
	c0,5.258,1.36,9.618,4.082,13.081c2.906,3.773,6.926,5.659,12.061,5.659C70.158,155.059,75.601,148.813,75.601,136.318z"/>
</svg>
