<?xml version="1.0" encoding="utf-8"?>
<!-- Generator: Adobe Illustrator 16.0.2, SVG Export Plug-In . SVG Version: 6.00 Build 0)  -->
<!DOCTYPE svg PUBLIC "-//W3C//DTD SVG 1.1//EN" "http://www.w3.org/Graphics/SVG/1.1/DTD/svg11.dtd">
<svg version="1.1" id="lay" xmlns="http://www.w3.org/2000/svg" xmlns:xlink="http://www.w3.org/1999/xlink" x="0px" y="0px"
	 width="65px" height="220px" viewBox="0 0 65 220" enable-background="new 0 0 65 220" xml:space="preserve">
<path d="M55.487,130.752c0,15.463-1.269,27.431-3.804,35.903c-4.578,15.029-11.938,26.812-22.08,35.347
	c-1.176,1.051-2.134,1.577-2.876,1.577c-0.681,0-1.361-0.403-2.041-1.206c-2.166-2.537-5.536-6.341-10.112-11.411
	c-2.66-2.227-6.587-5.691-11.782-10.391c-0.681-0.742-1.021-1.36-1.021-1.855c0-0.557,0.339-1.144,1.021-1.763
	c4.576-4.02,7.483-6.772,8.721-8.257c2.412-2.906,4.268-6.556,5.566-10.947c1.731-5.999,2.598-15.864,2.598-29.595
	c0-31.79-1.113-56.437-3.34-73.94c-0.125-0.618-0.186-1.082-0.186-1.392c0-1.113,0.989-1.67,2.969-1.67
	c1.979,0,4.901,0.093,8.767,0.278c3.865,0.186,6.787,0.278,8.767,0.278c1.855,0,4.607-0.093,8.257-0.278
	c3.648-0.186,6.401-0.278,8.257-0.278c1.793,0,2.69,0.805,2.69,2.412c0,8.535-0.063,21.384-0.186,38.547
	C55.548,109.274,55.487,122.155,55.487,130.752z"/>
</svg>
