<?xml version="1.0" encoding="utf-8"?>
<!-- Generator: Adobe Illustrator 16.0.2, SVG Export Plug-In . SVG Version: 6.00 Build 0)  -->
<!DOCTYPE svg PUBLIC "-//W3C//DTD SVG 1.1//EN" "http://www.w3.org/Graphics/SVG/1.1/DTD/svg11.dtd">
<svg version="1.1" id="lay" xmlns="http://www.w3.org/2000/svg" xmlns:xlink="http://www.w3.org/1999/xlink" x="0px" y="0px"
	 width="104px" height="220px" viewBox="0 0 104 220" enable-background="new 0 0 104 220" xml:space="preserve">
<path d="M93.841,182.705c-5.32,0-12.246-0.125-20.781-0.371c-11.133-0.248-18.061-0.403-20.781-0.464l-27.739-0.371
	c-2.783,0.061-6.772-0.063-11.968-0.371c-1.794-0.309-2.69-1.268-2.69-2.876c0-6.741,0.107-16.839,0.325-30.291
	c0.216-13.452,0.325-23.548,0.325-30.29c0-7.174-0.217-17.92-0.649-32.239C9.447,71.114,9.231,60.368,9.231,53.193
	c0-1.36,0.928-2.041,2.783-2.041s4.623,0.093,8.303,0.278c3.679,0.186,6.416,0.278,8.21,0.278c2.041,0,5.071-0.107,9.092-0.325
	c4.02-0.216,7.051-0.324,9.092-0.324c0.928,0,1.36,0.588,1.299,1.763l-0.093,1.206c-0.742,11.628-1.577,29.101-2.505,52.417
	l-0.093,24.492c0,7.917,0.03,13.7,0.093,17.349c0.061,0.742,0.123,1.484,0.186,2.227c0.061,0.742,0.525,1.206,1.392,1.392
	c0.061,0,0.865,0,2.412,0c5.566,0,13.9-0.293,25.002-0.882c11.101-0.587,19.436-0.881,25.002-0.881c1.67,0,2.505,0.712,2.505,2.134
	c0,10.576-0.774,19.699-2.319,27.368c-0.31,1.607-0.959,2.565-1.948,2.876C97.334,182.643,96.067,182.705,93.841,182.705z"/>
</svg>
