<?xml version="1.0" encoding="utf-8"?>
<!-- Generator: Adobe Illustrator 16.0.2, SVG Export Plug-In . SVG Version: 6.00 Build 0)  -->
<!DOCTYPE svg PUBLIC "-//W3C//DTD SVG 1.1//EN" "http://www.w3.org/Graphics/SVG/1.1/DTD/svg11.dtd">
<svg version="1.1" id="lay" xmlns="http://www.w3.org/2000/svg" xmlns:xlink="http://www.w3.org/1999/xlink" x="0px" y="0px"
	 width="67px" height="220px" viewBox="0 0 67 220" enable-background="new 0 0 67 220" xml:space="preserve">
<path d="M61.842,106.074c0,0.619-0.464,1.454-1.392,2.505c-1.732-0.433-3.464-0.649-5.195-0.649c-3.65,0-6.711,0.805-9.185,2.412
	c-2.969,1.855-4.453,4.484-4.453,7.886c0,2.165,1.577,4.917,4.731,8.257c4.762,5.01,7.7,8.381,8.813,10.112
	c3.154,4.701,4.731,9.741,4.731,15.122c0,3.154-0.619,6.494-1.855,10.02c-1.423,3.896-3.217,6.742-5.381,8.535
	c-4.578,3.959-9.927,7.299-16.05,10.02c-6.619,2.844-12.71,4.268-18.276,4.268c-1.238,0-4.005-3.356-8.303-10.066
	c-4.299-6.71-6.448-10.808-6.448-12.292c0-0.557,0.339-0.896,1.021-1.021c4.329-0.804,8.689-1.607,13.081-2.412
	c5.442-1.731,8.164-4.576,8.164-8.535c0-2.721-1.577-5.875-4.731-9.463c-5.629-6.246-8.567-9.556-8.813-9.927
	c-3.154-4.453-4.731-9.153-4.731-14.102c0-9.277,4.7-17.163,14.102-23.657c8.411-5.752,17.41-8.628,26.997-8.628
	c0.989,0,3.433,3.325,7.329,9.973C59.894,101.08,61.842,104.961,61.842,106.074z"/>
</svg>
