<?xml version="1.0" encoding="utf-8"?>
<!-- Generator: Adobe Illustrator 16.0.2, SVG Export Plug-In . SVG Version: 6.00 Build 0)  -->
<!DOCTYPE svg PUBLIC "-//W3C//DTD SVG 1.1//EN" "http://www.w3.org/Graphics/SVG/1.1/DTD/svg11.dtd">
<svg version="1.1" id="lay" xmlns="http://www.w3.org/2000/svg" xmlns:xlink="http://www.w3.org/1999/xlink" x="0px" y="0px"
	 width="142px" height="220px" viewBox="0 0 142 220" enable-background="new 0 0 142 220" xml:space="preserve">
<path d="M132.973,53.843c0,7.051-0.294,17.643-0.881,31.774c-0.588,14.134-0.881,24.756-0.881,31.868v61.138
	c0,1.67-0.897,2.505-2.69,2.505c-1.484,0-3.727,0.061-6.726,0.186c-3,0.123-5.242,0.186-6.726,0.186
	c-1.609,0-4.021-0.125-7.236-0.371c-3.217-0.247-5.629-0.371-7.236-0.371c-1.113,0-2.444-1.021-3.989-3.062
	c-4.453-5.999-14.473-19.297-30.059-39.893c-4.268-5.752-10.762-14.225-19.482-25.42c-0.248-0.371-0.712-0.742-1.392-1.113
	c-0.496,0.434-0.742,1.113-0.742,2.041c0,7.175,0.2,17.937,0.603,32.285c0.401,14.35,0.603,25.111,0.603,32.285
	c0,2.165-0.835,3.247-2.505,3.247h-32.1c-1.794,0-2.69-0.958-2.69-2.876c0-6.68,0.325-16.761,0.974-30.244
	c0.649-13.482,0.974-23.595,0.974-30.337c0-7.112-0.294-17.75-0.881-31.914C9.32,71.594,9.027,60.986,9.027,53.936
	c0-1.36,1.206-2.041,3.618-2.041c3.586,0,8.009-0.247,13.267-0.742c1.236-0.123,3.679-0.525,7.329-1.206
	c3.092-0.557,5.535-0.835,7.329-0.835c0.742,0,1.886,1.052,3.433,3.154l34.604,47.407c3.092,4.268,7.761,10.515,14.009,18.74
	c1.545,1.918,2.876,2.876,3.989,2.876c0.803,0,1.206-2.412,1.206-7.236c0-6.494-0.356-16.266-1.067-29.316
	c-0.712-13.05-1.067-22.853-1.067-29.409c0-2.288,0.649-3.433,1.948-3.433c3.711,0,9.308-0.154,16.792-0.464
	c7.483-0.309,13.081-0.464,16.792-0.464C132.384,50.967,132.973,51.926,132.973,53.843z"/>
</svg>
