<?xml version="1.0" encoding="utf-8"?>
<!-- Generator: Adobe Illustrator 16.0.2, SVG Export Plug-In . SVG Version: 6.00 Build 0)  -->
<!DOCTYPE svg PUBLIC "-//W3C//DTD SVG 1.1//EN" "http://www.w3.org/Graphics/SVG/1.1/DTD/svg11.dtd">
<svg version="1.1" id="lay" xmlns="http://www.w3.org/2000/svg" xmlns:xlink="http://www.w3.org/1999/xlink" x="0px" y="0px"
	 width="108px" height="220px" viewBox="0 0 108 220" enable-background="new 0 0 108 220" xml:space="preserve">
<path d="M100.063,157.007c0,17.627-3.711,30.274-11.133,37.944c-7.671,7.854-20.41,11.781-38.224,11.781
	c-5.195,0-12.278-0.834-21.245-2.504c-11.443-2.104-17.163-4.578-17.163-7.422c0-1.177,1.329-7.236,3.989-18.185
	c0.432-1.731,1.113-2.599,2.041-2.599c0.309,0.063,0.649,0.187,1.021,0.371c9.524,4.701,18.337,7.051,26.44,7.051
	c4.453,0,8.875-1.112,13.268-3.34c5.317-2.658,7.979-5.998,7.979-10.02v-6.216c-6.309,5.938-14.412,8.905-24.307,8.905
	c-11.628,0-21.184-4.174-28.667-12.523c-7.236-8.04-10.854-17.936-10.854-29.688c0-11.813,3.463-21.616,10.391-29.41
	c7.236-8.102,16.699-12.153,28.389-12.153c9.338,0,16.482,3.34,21.431,10.02c0.989,1.361,1.67,2.041,2.041,2.041
	c0.557,0,0.835-1.113,0.835-3.34c0-4.947,0.558-7.422,1.67-7.422c0.989,0,6.339,0.51,16.05,1.53
	c9.709,1.021,14.752,1.594,15.122,1.717c1.052,0.371,1.577,1.176,1.577,2.412c0,4.268-0.139,10.639-0.417,19.11
	c-0.278,8.475-0.417,14.845-0.417,19.111c0,2.536,0.03,6.34,0.094,11.411C100.029,150.668,100.063,154.473,100.063,157.007z
	 M70,135.296c0-5.257-1.654-9.603-4.963-13.034c-3.311-3.434-7.624-5.148-12.942-5.148c-5.32,0-9.618,1.701-12.896,5.103
	c-3.279,3.402-4.917,7.763-4.917,13.081c0,5.01,1.731,9.309,5.195,12.896c3.463,3.588,7.668,5.381,12.617,5.381
	c5.256,0,9.557-1.717,12.896-5.149C68.33,144.993,70,140.615,70,135.296z"/>
</svg>
