<?xml version="1.0" encoding="utf-8"?>
<!-- Generator: Adobe Illustrator 16.0.2, SVG Export Plug-In . SVG Version: 6.00 Build 0)  -->
<!DOCTYPE svg PUBLIC "-//W3C//DTD SVG 1.1//EN" "http://www.w3.org/Graphics/SVG/1.1/DTD/svg11.dtd">
<svg version="1.1" id="lay" xmlns="http://www.w3.org/2000/svg" xmlns:xlink="http://www.w3.org/1999/xlink" x="0px" y="0px"
	 width="144px" height="220px" viewBox="0 0 144 220" enable-background="new 0 0 144 220" xml:space="preserve">
<path d="M141.116,116.187c0,9.648-0.774,16.359-2.319,20.132c-1.609,3.959-5.629,11.318-12.061,22.08
	c-6.557,11.071-11.072,17.937-13.545,20.596c-1.67,1.794-5.752,2.69-12.246,2.69c-5.381,0-8.783-0.186-10.205-0.557
	c-1.176-0.309-2.258-0.928-3.247-1.855c-3.525-3.463-8.969-11.968-16.328-25.513c-7.793,13.916-13.113,22.421-15.957,25.513
	c-1.484,1.608-5.536,2.412-12.153,2.412c-4.701,0-7.732-0.186-9.092-0.557c-3.093-0.865-8.319-7.576-15.679-20.132
	c-6-10.267-10.298-18.492-12.896-24.678c-1.609-3.958-2.412-10.669-2.412-20.132c0-11.441,0.309-18.431,0.928-20.967
	c0.432-1.607,1.515-2.412,3.247-2.412c2.844,0,7.112,0.093,12.803,0.278c5.689,0.186,9.957,0.278,12.803,0.278
	c1.422,0,2.134,1.021,2.134,3.062c0,1.794-0.063,4.531-0.186,8.21c-0.125,3.681-0.186,6.418-0.186,8.211
	c0,7.484,0.186,13.02,0.557,16.606c0.123,1.361,1.777,4.84,4.963,10.437c3.185,5.599,5.149,8.396,5.891,8.396
	c1.113,0,3.154-2.752,6.123-8.257c2.412-4.639,3.989-8.086,4.731-10.345c0.742-2.257,1.113-7.839,1.113-16.745
	c0-1.855-0.171-4.623-0.51-8.304c-0.341-3.679-0.51-6.416-0.51-8.21c0-1.917,0.71-2.876,2.134-2.876
	c1.731,0,5.164-0.03,10.298-0.093l3.804-0.093c-0.063,0-0.171-0.015-0.325-0.047c-0.155-0.03-0.202-0.015-0.139,0.047h0.649h2.412
	c2.35-0.062,5.782,0,10.298,0.186c1.36,0.186,2.041,1.145,2.041,2.876c0,2.351-0.155,5.923-0.464,10.715
	c-0.31,4.794-0.464,8.366-0.464,10.716c0,6.309,0.247,10.298,0.742,11.968c0.68,2.104,2.164,5.474,4.453,10.112
	c2.783,5.566,4.731,8.35,5.845,8.35s3.185-2.813,6.216-8.442c2.906-5.381,4.453-8.906,4.639-10.576
	c0.247-2.35,0.371-13.297,0.371-32.842c0-2.164,0.618-3.247,1.855-3.247c2.844,0,7.127-0.093,12.849-0.278
	c5.72-0.186,10.003-0.278,12.849-0.278c1.67,0,2.721,0.866,3.154,2.598C140.775,97.817,141.116,104.807,141.116,116.187z"/>
</svg>
