<?xml version="1.0" encoding="utf-8"?>
<!-- Generator: Adobe Illustrator 16.0.2, SVG Export Plug-In . SVG Version: 6.00 Build 0)  -->
<!DOCTYPE svg PUBLIC "-//W3C//DTD SVG 1.1//EN" "http://www.w3.org/Graphics/SVG/1.1/DTD/svg11.dtd">
<svg version="1.1" id="lay" xmlns="http://www.w3.org/2000/svg" xmlns:xlink="http://www.w3.org/1999/xlink" x="0px" y="0px"
	 width="67px" height="220px" viewBox="0 0 67 220" enable-background="new 0 0 67 220" xml:space="preserve">
<path d="M64.904,121.289c0,1.484-0.805,2.227-2.412,2.227c-6.68,0-11.938-0.186-15.771-0.557c0.186,4.639,0.371,11.103,0.557,19.39
	c0.061,3.525,0.339,9.648,0.835,18.369c0.432,7.855,0.649,13.979,0.649,18.369c0,1.299-0.867,2.041-2.598,2.227
	c-2.104,0.246-7.361,0.371-15.771,0.371c-6.99,0-11.536-0.186-13.638-0.557c-2.104-0.371-3.154-1.639-3.154-3.804v-51.118
	c0-1.793-1.238-2.69-3.711-2.69c-0.434,0-1.129,0.031-2.087,0.093c-0.959,0.063-1.655,0.093-2.087,0.093
	c-1.732,0-2.629-0.494-2.69-1.484c-0.557-5.381-0.835-13.204-0.835-23.472c0-2.288,1.174-3.68,3.525-4.175
	c2.102-0.186,4.236-0.34,6.401-0.464c-0.31-4.947-0.464-8.813-0.464-11.597c0-10.638,2.071-18.369,6.216-23.193
	c8.225-9.586,21.523-14.38,39.893-14.38c1.236,0,1.979,0.371,2.227,1.113c0.494,2.783,1.206,6.896,2.134,12.339
	c0.061,0.495,0.464,2.227,1.206,5.195c0.557,2.289,0.835,4.052,0.835,5.288c0,1.484-2.196,2.443-6.587,2.876
	c-5.072,0.557-8.196,1.484-9.37,2.783c-2.041,2.227-3.062,6.587-3.062,13.081c0,2.041,0.154,3.959,0.464,5.752
	c1.731,0,4.421-0.062,8.071-0.186c3.648-0.123,6.401-0.186,8.257-0.186s2.783,0.681,2.783,2.041c0,2.907,0.03,7.282,0.093,13.127
	C64.872,114.006,64.904,118.383,64.904,121.289z"/>
</svg>
