<?xml version="1.0" encoding="utf-8"?>
<!-- Generator: Adobe Illustrator 16.0.2, SVG Export Plug-In . SVG Version: 6.00 Build 0)  -->
<!DOCTYPE svg PUBLIC "-//W3C//DTD SVG 1.1//EN" "http://www.w3.org/Graphics/SVG/1.1/DTD/svg11.dtd">
<svg version="1.1" id="lay" xmlns="http://www.w3.org/2000/svg" xmlns:xlink="http://www.w3.org/1999/xlink" x="0px" y="0px"
	 width="57px" height="220px" viewBox="0 0 57 220" enable-background="new 0 0 57 220" xml:space="preserve">
<path d="M47.874,161.553c0,12.803-2.196,22.419-6.587,28.853c-4.887,7.111-13.329,11.936-25.327,14.473
	c-3.588,0.742-7.454,1.113-11.597,1.113c-2.474,0-3.711-5.351-3.711-16.05c0-5.381,0.805-8.319,2.412-8.813
	c4.885-1.484,7.979-2.938,9.277-4.36c1.545-1.731,2.442-5.164,2.69-10.298c0.186-3.34,0.278-11.875,0.278-25.605
	c0-16.328-1.113-31.141-3.34-44.438c-0.063-0.557-0.093-0.989-0.093-1.299c0-1.546,0.865-2.319,2.598-2.319
	c6.184,0,10.978-0.186,14.38-0.557c9.895-1.113,15.308-1.67,16.235-1.67c1.299,0,2.041,0.805,2.227,2.412
	c0.371,2.969,0.557,15.061,0.557,36.274V161.553z M48.616,68.687c0,10.391-6.123,15.586-18.369,15.586
	c-5.258,0-9.525-1.268-12.803-3.804c-3.65-2.783-5.474-6.71-5.474-11.782c0-4.762,1.886-8.658,5.659-11.689
	c3.525-2.721,7.73-4.082,12.617-4.082c4.885,0,9.092,1.361,12.617,4.082C46.698,59.966,48.616,63.862,48.616,68.687z"/>
</svg>
