<?xml version="1.0" encoding="utf-8"?>
<!-- Generator: Adobe Illustrator 16.0.2, SVG Export Plug-In . SVG Version: 6.00 Build 0)  -->
<!DOCTYPE svg PUBLIC "-//W3C//DTD SVG 1.1//EN" "http://www.w3.org/Graphics/SVG/1.1/DTD/svg11.dtd">
<svg version="1.1" id="lay" xmlns="http://www.w3.org/2000/svg" xmlns:xlink="http://www.w3.org/1999/xlink" x="0px" y="0px"
	 width="60px" height="220px" viewBox="0 0 60 220" enable-background="new 0 0 60 220" xml:space="preserve">
<path d="M47.905,112.568c0,7.299,0.186,18.276,0.557,32.935s0.557,25.637,0.557,32.935c0,1.237-0.278,2.011-0.835,2.319
	c-0.125,0.063-0.928,0.186-2.412,0.371c-4.021,0.494-9.402,0.742-16.143,0.742c-9.031,0-14.783-0.248-17.256-0.742
	c-1.794-0.371-2.69-1.329-2.69-2.876c0,0.99,0.278-4.453,0.835-16.328c1.113-25.049,1.67-41.5,1.67-49.355
	c0-6.617-0.217-16.544-0.649-29.78c-0.434-13.235-0.649-23.162-0.649-29.78c0-1.36,0.71-2.041,2.134-2.041
	c1.917,0,4.808,0.093,8.674,0.278c3.865,0.186,6.756,0.278,8.674,0.278c1.917,0,4.746-0.093,8.489-0.278
	c3.741-0.186,6.571-0.278,8.489-0.278c1.793,0,2.69,0.681,2.69,2.041c0,6.618-0.356,16.545-1.067,29.78
	C48.26,96.024,47.905,105.951,47.905,112.568z"/>
</svg>
