<?xml version="1.0" encoding="utf-8"?>
<!-- Generator: Adobe Illustrator 16.0.2, SVG Export Plug-In . SVG Version: 6.00 Build 0)  -->
<!DOCTYPE svg PUBLIC "-//W3C//DTD SVG 1.1//EN" "http://www.w3.org/Graphics/SVG/1.1/DTD/svg11.dtd">
<svg version="1.1" id="lay" xmlns="http://www.w3.org/2000/svg" xmlns:xlink="http://www.w3.org/1999/xlink" x="0px" y="0px"
	 width="95px" height="220px" viewBox="0 0 95 220" enable-background="new 0 0 95 220" xml:space="preserve">
<path d="M92.773,130.752c0,6.247-2.011,9.804-6.03,10.669c-0.681,0.124-7.083,0.805-19.204,2.041
	c-7.299,0.805-18.184,1.763-32.656,2.876c0.865,4.021,3.494,7.082,7.886,9.185c3.586,1.732,7.668,2.598,12.246,2.598
	c5.504,0,11.04-1.484,16.606-4.453c2.35-1.484,4.7-2.969,7.051-4.453c1.299,0.619,3.479,3.773,6.541,9.463
	c3.062,5.69,4.592,9.309,4.592,10.854c0,0.434-0.464,1.145-1.392,2.134c-7.546,8.103-19.267,12.153-35.161,12.153
	c-14.721,0-26.596-4.298-35.625-12.896c-9.277-8.721-13.916-20.379-13.916-34.976c0-14.225,4.143-25.884,12.432-34.976
	c8.535-9.4,19.854-14.102,33.955-14.102c11.875,0,21.956,4.33,30.244,12.988C88.629,108.518,92.773,118.815,92.773,130.752z
	 M60.303,125.093c0-3.834-1.361-7.205-4.082-10.112c-2.722-2.906-5.969-4.36-9.741-4.36c-3.896,0-7.113,1.64-9.648,4.917
	c-2.351,3.031-3.525,6.587-3.525,10.669c0,1.67,0.865,2.505,2.598,2.505c4.576,0,11.689-0.711,21.338-2.134
	C59.282,126.269,60.303,125.773,60.303,125.093z"/>
</svg>
