<?xml version="1.0" encoding="utf-8"?>
<!-- Generator: Adobe Illustrator 16.0.2, SVG Export Plug-In . SVG Version: 6.00 Build 0)  -->
<!DOCTYPE svg PUBLIC "-//W3C//DTD SVG 1.1//EN" "http://www.w3.org/Graphics/SVG/1.1/DTD/svg11.dtd">
<svg version="1.1" id="lay" xmlns="http://www.w3.org/2000/svg" xmlns:xlink="http://www.w3.org/1999/xlink" x="0px" y="0px"
	 width="119px" height="220px" viewBox="0 0 119 220" enable-background="new 0 0 119 220" xml:space="preserve">
<path d="M117.205,160.161c0,0.99-0.649,2.289-1.948,3.896c-11.381,13.545-26.503,20.317-45.366,20.317
	c-19.297,0-34.945-6.587-46.943-19.761c-11.689-12.74-17.534-28.821-17.534-48.242c0-18.802,5.72-34.759,17.163-47.871
	c11.936-13.73,27.12-20.596,45.552-20.596c20.039,0,35.748,6.154,47.129,18.462c1.236,1.361,1.855,2.567,1.855,3.618
	c0,1.176-2.15,5.536-6.448,13.081c-4.299,7.546-7.004,11.782-8.118,12.71c-0.496,0.495-1.113,0.742-1.855,0.742
	c-0.31,0-1.855-1.236-4.639-3.711c-3.34-2.969-6.619-5.288-9.834-6.958c-4.887-2.474-9.958-3.711-15.215-3.711
	c-9.092,0-16.36,3.402-21.802,10.205c-5.01,6.309-7.515,14.102-7.515,23.379c0,9.401,2.505,17.287,7.515,23.657
	c5.442,6.928,12.71,10.391,21.802,10.391c5.381,0,10.483-1.175,15.308-3.525c3.154-1.546,6.37-3.711,9.648-6.494
	c2.721-2.35,4.236-3.525,4.546-3.525c0.618,0,1.236,0.341,1.855,1.021c0.989,1.113,3.679,4.979,8.071,11.597
	C114.947,155.708,117.205,159.481,117.205,160.161z"/>
</svg>
