<?xml version="1.0" encoding="utf-8"?>
<!-- Generator: Adobe Illustrator 16.0.2, SVG Export Plug-In . SVG Version: 6.00 Build 0)  -->
<!DOCTYPE svg PUBLIC "-//W3C//DTD SVG 1.1//EN" "http://www.w3.org/Graphics/SVG/1.1/DTD/svg11.dtd">
<svg version="1.1" id="lay" xmlns="http://www.w3.org/2000/svg" xmlns:xlink="http://www.w3.org/1999/xlink" x="0px" y="0px"
	 width="50px" height="220px" viewBox="0 0 50 220" enable-background="new 0 0 50 220" xml:space="preserve">
<path d="M41.282,125.277c0,16.886,0.061,29.844,0.186,38.873c0,1.423,0.093,3.865,0.278,7.328c0.186,3.154,0.277,5.599,0.277,7.33
	c0,1.299-0.773,2.071-2.318,2.318c-2.783,0.494-7.793,0.742-15.029,0.742c-7.422,0-12.153-0.248-14.194-0.742
	c-1.361-0.309-2.134-1.145-2.319-2.505c0-0.187,0-1.515,0-3.989c0-5.504,0.061-13.744,0.186-24.725
	c0.123-10.979,0.186-19.188,0.186-24.631c0-25.978,0.03-37.82,0.093-35.532C8.44,76.078,7.666,58.296,6.306,48.399
	c-0.125-0.68-0.186-1.206-0.186-1.577c0-1.36,0.803-2.041,2.412-2.041h33.12c1.545,0,2.257,0.649,2.134,1.948l-0.093,1.67
	C42.085,75.118,41.282,104.745,41.282,125.277z"/>
</svg>
