<?xml version="1.0" encoding="utf-8"?>
<!-- Generator: Adobe Illustrator 16.0.2, SVG Export Plug-In . SVG Version: 6.00 Build 0)  -->
<!DOCTYPE svg PUBLIC "-//W3C//DTD SVG 1.1//EN" "http://www.w3.org/Graphics/SVG/1.1/DTD/svg11.dtd">
<svg version="1.1" id="lay" xmlns="http://www.w3.org/2000/svg" xmlns:xlink="http://www.w3.org/1999/xlink" x="0px" y="0px"
	 width="121px" height="220px" viewBox="0 0 121 220" enable-background="new 0 0 121 220" xml:space="preserve">
<path d="M119.086,180.2c0,0.434-0.619,0.742-1.855,0.928c-2.351,0.371-8.257,0.557-17.72,0.557c-8.103,0-13.607-0.186-16.514-0.557
	c-1.361-0.186-2.134-0.34-2.319-0.464c-0.371-0.186-0.805-0.804-1.299-1.855c-0.928-2.412-2.289-5.999-4.082-10.762
	c-2.412-6.185-6.186-15.308-11.318-27.368c-1.113-2.412-3.681-3.741-7.7-3.989c1.855,0.124-1.331,0.186-9.556,0.186
	c-0.928,0-1.392,1.577-1.392,4.731c0,4.206,0.386,10.483,1.16,18.833c0.772,8.35,1.16,14.628,1.16,18.833
	c0,1.052-0.278,1.67-0.835,1.855c-0.867,0.061-1.732,0.123-2.598,0.186c-3.65,0.246-9.34,0.371-17.07,0.371
	c-8.845,0-14.164-0.186-15.957-0.557c-1.794-0.371-2.69-1.329-2.69-2.876c0-6.803,0.325-17.07,0.974-30.801
	s0.974-24.028,0.974-30.894c0-26.162-0.588-46.572-1.763-61.23l-0.093-1.299c-0.063-1.051,0.912-1.763,2.922-2.134
	c2.009-0.371,11.458-0.742,28.342-1.113c11.441-0.247,20.564-0.371,27.368-0.371c14.102,0,25.605,3.186,34.512,9.556
	c10.081,7.175,15.122,17.534,15.122,31.079c0,9.03-1.299,16.235-3.896,21.616s-7.392,10.607-14.38,15.679
	c-1.423,0.99-2.134,1.918-2.134,2.783c0-0.062,3.772,7.7,11.318,23.286C115.313,169.995,119.086,178.593,119.086,180.2z
	 M80.122,96.982c0-7.545-2.475-12.771-7.422-15.679c-3.835-2.227-9.834-3.34-17.998-3.34c-5.876,0-8.999,0.897-9.37,2.69
	c-0.371,2.104-0.557,8.164-0.557,18.184c0,1.423,0.03,3.525,0.093,6.309c0.061,2.783,0.093,4.855,0.093,6.216
	c0,0.31,0.989,0.619,2.969,0.928c3.772,0.557,7.73,0.835,11.875,0.835C73.349,113.125,80.122,107.744,80.122,96.982z"/>
</svg>
