<?xml version="1.0" encoding="utf-8"?>
<!-- Generator: Adobe Illustrator 16.0.2, SVG Export Plug-In . SVG Version: 6.00 Build 0)  -->
<!DOCTYPE svg PUBLIC "-//W3C//DTD SVG 1.1//EN" "http://www.w3.org/Graphics/SVG/1.1/DTD/svg11.dtd">
<svg version="1.1" id="lay" xmlns="http://www.w3.org/2000/svg" xmlns:xlink="http://www.w3.org/1999/xlink" x="0px" y="0px"
	 width="79px" height="220px" viewBox="0 0 79 220" enable-background="new 0 0 79 220" xml:space="preserve">
<path d="M71.971,138.452c0,12.556-5.288,23.317-15.864,32.285c-9.277,7.917-20.565,12.956-33.862,15.122
	c-0.496,0.061-0.897,0.093-1.206,0.093c-1.423,0-4.578-4.346-9.463-13.035c-4.887-8.688-7.329-13.992-7.329-15.91
	c0-0.68,0.464-1.113,1.392-1.299c8.967-2.041,14.905-3.772,17.813-5.195c6.432-3.216,9.648-7.979,9.648-14.287
	c0-4.02-2.104-8.504-6.309-13.452c-7.299-8.411-11.257-13.081-11.875-14.009c-4.268-6.432-6.401-13.545-6.401-21.338
	c0-11.318,5.226-20.719,15.679-28.203c8.535-6.185,19.019-10.205,31.45-12.061c0.68-0.062,1.206-0.093,1.577-0.093
	c0.928,0,1.67,0.742,2.227,2.227c1.607,4.516,5.349,12.68,11.226,24.492c0.186,0.371,0.278,0.681,0.278,0.928
	c0,1.052-0.557,1.577-1.67,1.577c-0.496,0-1.331-0.093-2.505-0.278c-1.176-0.186-2.073-0.278-2.69-0.278
	c-4.453,0-8.35,1.021-11.689,3.062c-4.021,2.351-6.03,5.629-6.03,9.834c0,3.773,2.227,8.412,6.68,13.916
	c7.854,9.896,11.968,15.092,12.339,15.586C69.774,124.938,71.971,131.711,71.971,138.452z"/>
</svg>
