<?xml version="1.0" encoding="utf-8"?>
<!-- Generator: Adobe Illustrator 16.0.2, SVG Export Plug-In . SVG Version: 6.00 Build 0)  -->
<!DOCTYPE svg PUBLIC "-//W3C//DTD SVG 1.1//EN" "http://www.w3.org/Graphics/SVG/1.1/DTD/svg11.dtd">
<svg version="1.1" id="lay" xmlns="http://www.w3.org/2000/svg" xmlns:xlink="http://www.w3.org/1999/xlink" x="0px" y="0px"
	 width="101px" height="220px" viewBox="0 0 101 220" enable-background="new 0 0 101 220" xml:space="preserve">
<path d="M99.252,79.355c0,1.237-0.681,1.855-2.041,1.855c-2.351,0-11.659-0.464-27.925-1.392
	c-0.371,15.648-0.557,26.564-0.557,32.749c0,7.299,0.293,18.276,0.881,32.935c0.587,14.658,0.881,25.637,0.881,32.935
	c0,1.176-0.278,1.918-0.835,2.227c-0.186,0.124-1.052,0.278-2.598,0.464c-3.711,0.494-9.154,0.742-16.328,0.742
	c-7.979,0-13.577-0.248-16.792-0.742c-1.732-0.309-2.598-1.268-2.598-2.876c0-7.298,0.309-18.245,0.928-32.842
	c0.618-14.596,0.928-25.543,0.928-32.842c0-4.824-0.248-15.586-0.742-32.285c-12.371,1.237-22.235,1.855-29.595,1.855
	c-0.99,0-1.484-0.309-1.484-0.928c0-0.804,0.432-3.185,1.299-7.144c0.989-4.329,1.545-6.958,1.67-7.886
	c0.186-2.906,0.401-5.813,0.649-8.721c0.432-4.639,1.174-6.958,2.227-6.958c0.123,0,0.557,0.031,1.299,0.093
	c10.02,1.299,24.832,1.948,44.438,1.948c5.566,0,15.833-0.587,30.801-1.763c8.04-0.618,12.091-0.928,12.153-0.928
	c1.236,0,1.948,0.078,2.134,0.231c0.186,0.155,0.309,0.759,0.371,1.81c0,1.67-0.063,3.989-0.186,6.958
	c-0.125,3.278-0.186,5.598-0.186,6.958c0,1.547,0.2,3.819,0.603,6.818C99.051,75.63,99.252,77.871,99.252,79.355z"/>
</svg>
