<?xml version="1.0" encoding="utf-8"?>
<!-- Generator: Adobe Illustrator 16.0.2, SVG Export Plug-In . SVG Version: 6.00 Build 0)  -->
<!DOCTYPE svg PUBLIC "-//W3C//DTD SVG 1.1//EN" "http://www.w3.org/Graphics/SVG/1.1/DTD/svg11.dtd">
<svg version="1.1" id="lay" xmlns="http://www.w3.org/2000/svg" xmlns:xlink="http://www.w3.org/1999/xlink" x="0px" y="0px"
	 width="102px" height="220px" viewBox="0 0 102 220" enable-background="new 0 0 102 220" xml:space="preserve">
<path d="M91.82,182.612c-3.65,0-9.124-0.186-16.421-0.557c-7.299-0.371-12.772-0.557-16.421-0.557
	c-5.195,0-12.958-0.063-23.286-0.186c-10.33-0.125-18.091-0.186-23.286-0.186c-2.227,0-3.495-0.711-3.804-2.134
	c-0.125-3.958-0.742-9.834-1.855-17.627c-0.742-3.03-1.113-4.731-1.113-5.103c0-0.309,7.576-12.293,22.729-35.95
	c15.152-23.657,22.729-36.382,22.729-38.176c0-0.989-0.805-1.484-2.412-1.484c-4.33,0-10.871,0.124-19.622,0.371
	c-8.752,0.248-15.324,0.371-19.714,0.371c-1.361,0-2.041-0.711-2.041-2.134c0-2.288,0.696-6.741,2.087-13.359
	c1.392-6.617,2.087-11.411,2.087-14.38c0-0.989,0.835-1.484,2.505-1.484c8.535,0,21.353,0.186,38.455,0.557
	c17.101,0.371,29.919,0.557,38.455,0.557c1.299,0,2.134,0.712,2.505,2.134c1.113,4.948,1.67,12.03,1.67,21.245
	c0,1.113-0.557,2.505-1.67,4.175c-3.896,5.629-12.092,18.061-24.585,37.295c-14.226,21.957-21.338,33.461-21.338,34.512
	c0,0.495,0.525,0.742,1.577,0.742c12.555,0,22.203-0.247,28.945-0.742c1.36-0.062,4.329-0.433,8.906-1.113
	c3.896-0.618,6.772-0.928,8.628-0.928c0.865,0,1.299,0.649,1.299,1.948c0,10.082-0.897,20.132-2.69,30.151
	C93.892,181.931,93.119,182.612,91.82,182.612z"/>
</svg>
