<?xml version="1.0" encoding="utf-8"?>
<!-- Generator: Adobe Illustrator 16.0.2, SVG Export Plug-In . SVG Version: 6.00 Build 0)  -->
<!DOCTYPE svg PUBLIC "-//W3C//DTD SVG 1.1//EN" "http://www.w3.org/Graphics/SVG/1.1/DTD/svg11.dtd">
<svg version="1.1" id="lay" xmlns="http://www.w3.org/2000/svg" xmlns:xlink="http://www.w3.org/1999/xlink" x="0px" y="0px"
	 width="178px" height="220px" viewBox="0 0 178 220" enable-background="new 0 0 178 220" xml:space="preserve">
<path d="M173.099,98.467c0,0.186-5.752,12.648-17.256,37.388c-11.689,25.234-18.369,39.429-20.039,42.583
	c-0.557,1.113-0.897,1.732-1.021,1.855c-0.248,0.31-0.835,0.588-1.763,0.835c-1.547,0.371-5.938,0.557-13.174,0.557
	c-6.742,0-10.854-0.186-12.339-0.557c-1.238-0.309-1.98-0.557-2.227-0.742c-0.248-0.186-0.649-0.772-1.206-1.763
	c-0.371-0.68-2.134-5.04-5.288-13.081l-10.112-25.791L78.377,165.82c-1.052,2.969-2.783,7.236-5.195,12.803
	c-0.619,1.052-1.052,1.686-1.299,1.901c-0.248,0.218-0.959,0.418-2.134,0.604c-2.104,0.371-6.155,0.557-12.153,0.557
	c-7.422,0-11.875-0.186-13.359-0.557c-1.052-0.247-1.918-1.144-2.598-2.69C17.394,128.649,5.272,101.992,5.272,98.467
	c0-4.947,0.169-12.354,0.51-22.22c0.339-9.864,0.51-17.271,0.51-22.219c0-2.041,0.618-3.062,1.855-3.062
	c3.525,0,8.86,0.155,16.003,0.464c7.144,0.31,12.508,0.464,16.096,0.464c1.422,0,2.134,0.588,2.134,1.763
	c0,4.948-0.232,12.417-0.696,22.404c-0.464,9.989-0.696,17.458-0.696,22.405c0,1.855,2.257,7.763,6.772,17.72
	c4.082,8.906,7.051,14.937,8.906,18.091c0.928,1.608,1.545,2.412,1.855,2.412c0.494,0,1.763-2.969,3.804-8.906
	c5.813-16.637,8.782-26.471,8.906-29.502c0.247-5.689,0.278-12.926,0.093-21.709c-0.186-12.679-0.278-19.946-0.278-21.802
	c0-1.175,0.093-1.87,0.278-2.088c0.186-0.216,0.865-0.417,2.041-0.603c3.154-0.371,8.596-0.557,16.328-0.557
	c11.813,0,17.72,0.835,17.72,2.505c0,4.145-0.155,10.576-0.464,19.297c-0.31,8.474-0.434,14.906-0.371,19.297v4.731
	c0,3.154,3.185,13.205,9.556,30.151c2.164,5.876,3.463,8.813,3.896,8.813c0.309,0,0.928-0.804,1.855-2.412
	c1.731-3.03,4.514-9.029,8.35-17.998c4.268-9.771,6.401-15.586,6.401-17.441c0-5.01-0.232-12.509-0.696-22.498
	c-0.464-9.987-0.696-17.456-0.696-22.404c0-1.113,0.71-1.67,2.134-1.67c3.648,0,9.138-0.154,16.467-0.464
	c7.329-0.309,12.817-0.464,16.467-0.464c1.174,0,1.763,1.237,1.763,3.711c0,4.887,0.169,12.199,0.51,21.94
	C172.928,86.359,173.099,93.643,173.099,98.467z"/>
</svg>
