<?xml version="1.0" encoding="utf-8"?>
<!-- Generator: Adobe Illustrator 16.0.2, SVG Export Plug-In . SVG Version: 6.00 Build 0)  -->
<!DOCTYPE svg PUBLIC "-//W3C//DTD SVG 1.1//EN" "http://www.w3.org/Graphics/SVG/1.1/DTD/svg11.dtd">
<svg version="1.1" id="lay" xmlns="http://www.w3.org/2000/svg" xmlns:xlink="http://www.w3.org/1999/xlink" x="0px" y="0px"
	 width="89px" height="220px" viewBox="0 0 89 220" enable-background="new 0 0 89 220" xml:space="preserve">
<path d="M79.383,182.334c-2.104,0-5.072-0.218-8.906-0.649c-4.145-0.434-7.083-0.68-8.813-0.742
	c-4.021-0.123-10.422-0.186-19.204-0.186c-10.144,0-17.318,0.124-21.523,0.371c-0.867,0.061-3.031,0.246-6.494,0.557
	c-2.722,0.309-4.917,0.464-6.587,0.464c-1.113,0-1.67-0.774-1.67-2.319c-0.063-1.546-0.063-3.618,0-6.216
	c0.123-3.03,0.186-5.071,0.186-6.123c0-1.175-0.202-2.906-0.603-5.195c-0.403-2.288-0.603-3.958-0.603-5.01
	c0-0.804,0.464-1.607,1.392-2.412c12.617-10.762,24.182-21.771,34.697-33.027c-1.423,0-3.588-0.062-6.494-0.186
	c-2.908-0.123-5.103-0.186-6.587-0.186c-2.227,0-5.613,0.108-10.159,0.324c-4.546,0.218-7.932,0.325-10.159,0.325
	c-1.052,0-1.577-0.371-1.577-1.113c0-1.422,0.958-5.581,2.876-12.479c1.917-6.896,2.876-12.014,2.876-15.354
	c0-1.051,1.082-1.577,3.247-1.577c0.186,0,3.865,0.402,11.04,1.206c5.938,0.619,13.977,0.928,24.121,0.928
	c3.34,0,8.333-0.062,14.983-0.186c6.648-0.123,11.643-0.186,14.983-0.186c2.041,0,3.062,0.866,3.062,2.598v20.039
	c0,2.104-11.782,14.628-35.347,37.573c18.184,0,30.553-0.618,37.109-1.855c0.557-0.123,0.958-0.186,1.206-0.186
	c0.865,0,1.299,0.341,1.299,1.021c0-0.989-1.299,3.896-3.896,14.658c-0.434,2.969-1.176,7.36-2.227,13.174
	C81.299,181.685,80.557,182.334,79.383,182.334z"/>
</svg>
