<?xml version="1.0" encoding="utf-8"?>
<!-- Generator: Adobe Illustrator 16.0.2, SVG Export Plug-In . SVG Version: 6.00 Build 0)  -->
<!DOCTYPE svg PUBLIC "-//W3C//DTD SVG 1.1//EN" "http://www.w3.org/Graphics/SVG/1.1/DTD/svg11.dtd">
<svg version="1.1" id="lay" xmlns="http://www.w3.org/2000/svg" xmlns:xlink="http://www.w3.org/1999/xlink" x="0px" y="0px"
	 width="156px" height="220px" viewBox="0 0 156 220" enable-background="new 0 0 156 220" xml:space="preserve">
<path d="M147.07,178.252c0,1.918-0.897,2.876-2.69,2.876h-32.842c-1.794,0-2.69-1.082-2.69-3.247c0-6.246,0.232-15.616,0.696-28.11
	c0.464-12.493,0.696-21.863,0.696-28.11c0-1.793-0.278-2.752-0.835-2.876c-0.681,0.371-4.824,9.927-12.432,28.667
	c-4.453,11.01-8.906,21.987-13.359,32.935c-0.619,1.422-1.392,2.257-2.319,2.505c-0.31,0.061-1.547,0.093-3.711,0.093
	c-3.217,0-5.134-0.619-5.752-1.855c-3.34-6.803-7.732-16.699-13.174-29.688c-5.814-13.73-10.175-23.657-13.081-29.78
	c-0.125-0.309-0.403-0.649-0.835-1.021c-0.434,0.557-0.649,1.454-0.649,2.69c0,6.062,0.154,15.153,0.464,27.275
	c0.309,12.123,0.464,21.215,0.464,27.275c0,2.165-0.867,3.247-2.598,3.247H11.435c-1.238,0-1.995-0.2-2.273-0.604
	c-0.278-0.401-0.417-1.097-0.417-2.087c0-6.741,0.325-16.869,0.974-30.384c0.649-13.513,0.974-23.641,0.974-30.383
	c0-7.174-0.31-20.626-0.928-40.356C9.703,72.182,9.424,64.543,8.93,54.399l-0.093-1.577c-0.063-1.236,1.236-1.855,3.896-1.855
	c3.401,0,8.503-0.107,15.308-0.325c6.803-0.216,11.905-0.324,15.308-0.324c0.68,0,1.638,1.299,2.876,3.896l27.09,59.468
	c1.917,4.021,3.525,6.03,4.824,6.03c0.68,0,2.134-2.319,4.36-6.958c6.246-12.988,15.493-32.563,27.739-58.726
	c1.051-2.412,2.195-3.618,3.433-3.618c1.793,0,4.5,0.093,8.118,0.278s6.355,0.278,8.21,0.278c1.545,0,3.911-0.154,7.097-0.464
	c3.185-0.309,5.55-0.464,7.097-0.464c1.855,0,2.783,0.742,2.783,2.227c0,7.299-0.264,18.199-0.789,32.702
	c-0.526,14.505-0.789,25.405-0.789,32.703c0,6.742,0.278,16.854,0.835,30.337C146.792,161.491,147.07,171.572,147.07,178.252z"/>
</svg>
