<?xml version="1.0" encoding="utf-8"?>
<!-- Generator: Adobe Illustrator 16.0.2, SVG Export Plug-In . SVG Version: 6.00 Build 0)  -->
<!DOCTYPE svg PUBLIC "-//W3C//DTD SVG 1.1//EN" "http://www.w3.org/Graphics/SVG/1.1/DTD/svg11.dtd">
<svg version="1.1" id="lay" xmlns="http://www.w3.org/2000/svg" xmlns:xlink="http://www.w3.org/1999/xlink" x="0px" y="0px"
	 width="125px" height="220px" viewBox="0 0 125 220" enable-background="new 0 0 125 220" xml:space="preserve">
<path d="M122.803,175.933c0,2.66-1.145,4.392-3.433,5.195c-1.855,0.617-6.742,0.928-14.658,0.928
	c-7.607,0-13.174-0.311-16.699-0.928c-1.67-0.309-2.769-0.634-3.293-0.975c-0.526-0.339-1.191-1.221-1.995-2.644
	c-4.516-8.287-8.999-16.575-13.452-24.863c-7.361-13.359-11.752-20.719-13.174-22.08c-6.68,2.412-10.02,4.145-10.02,5.195
	c0,4.639,0.186,11.643,0.557,21.013s0.557,16.406,0.557,21.106c0,1.918-0.835,3-2.505,3.247c-3.217,0.494-9.031,0.742-17.441,0.742
	c-8.041,0-13.359-0.248-15.957-0.742c-1.794-0.371-2.69-1.329-2.69-2.876c0-6.68,0.325-16.761,0.974-30.244
	c0.649-13.482,0.974-23.595,0.974-30.337c0-7.174-0.31-17.952-0.928-32.332C9,70.959,8.691,60.183,8.691,53.008
	c0-1.36,0.649-2.041,1.948-2.041c1.917,0,4.808,0.093,8.674,0.278c3.865,0.186,6.756,0.278,8.674,0.278
	c1.979,0,4.917-0.093,8.813-0.278s6.803-0.278,8.721-0.278c1.051,0,1.577,0.557,1.577,1.67c0,4.577-0.232,11.489-0.696,20.734
	c-0.464,9.247-0.696,16.159-0.696,20.735c0,5.319,1.453,7.979,4.36,7.979c7.359,0,13.081-2.01,17.163-6.03
	c3.03-2.969,6.091-8.38,9.185-16.235c1.979-5.999,5.226-14.844,9.741-26.533c0.68-1.546,2.071-2.319,4.175-2.319
	c1.607,0,4.036,0.093,7.283,0.278s5.674,0.278,7.283,0.278c1.67,0,4.159-0.062,7.468-0.186c3.308-0.123,5.767-0.186,7.375-0.186
	c1.484,0,2.227,0.712,2.227,2.134c0,2.041-1.299,7.021-3.896,14.937c-7.67,23.379-16.483,37.976-26.44,43.789
	c-2.041,1.176-3.062,2.134-3.062,2.876c0-0.062,5.706,9.216,17.117,27.832C117.097,161.337,122.803,172.407,122.803,175.933z"/>
</svg>
