<?xml version="1.0" encoding="utf-8"?>
<!-- Generator: Adobe Illustrator 16.0.2, SVG Export Plug-In . SVG Version: 6.00 Build 0)  -->
<!DOCTYPE svg PUBLIC "-//W3C//DTD SVG 1.1//EN" "http://www.w3.org/Graphics/SVG/1.1/DTD/svg11.dtd">
<svg version="1.1" id="lay" xmlns="http://www.w3.org/2000/svg" xmlns:xlink="http://www.w3.org/1999/xlink" x="0px" y="0px"
	 width="117px" height="220px" viewBox="0 0 117 220" enable-background="new 0 0 117 220" xml:space="preserve">
<path d="M110.917,168.789c0,6.062-0.278,9.648-0.835,10.762c-0.681,1.361-2.783,2.041-6.309,2.041c-0.557,0-1.794,0-3.711,0
	c-1.855-0.063-3.418-0.093-4.685-0.093c-1.269,0-3.154-0.063-5.659-0.186c-2.505-0.125-4.376-0.186-5.613-0.186
	c-0.99,0-5.443-5.938-13.359-17.813c-7.917-11.875-12.03-17.843-12.339-17.905c-1.299,1.052-5.752,7.299-13.359,18.74
	c-7.299,10.947-11.566,16.606-12.803,16.978c-0.867,0.246-3.186,0.371-6.958,0.371c-12.68,0-19.019-0.649-19.019-1.948
	s-0.078-3.154-0.232-5.566c-0.155-2.412-0.232-4.205-0.232-5.381c0-7.669,0.464-12.184,1.392-13.545
	c0.061-0.062,5.164-6.834,15.308-20.317c8.225-10.885,12.339-17.101,12.339-18.647c0-1.546-4.114-7.669-12.339-18.369
	c-5.195-6.617-10.36-13.267-15.493-19.946c-0.557-0.804-0.897-2.134-1.021-3.989c-0.063-1.299-0.063-3.062,0-5.288
	c0.186-2.659,0.278-4.144,0.278-4.453c0-1.236-0.109-3.154-0.325-5.752c-0.217-2.598-0.325-4.515-0.325-5.752
	c0-1.175,1.082-1.763,3.247-1.763c1.422,0,3.525,0.093,6.309,0.278s4.854,0.278,6.216,0.278c1.236,0,3.062-0.062,5.474-0.186
	c2.412-0.123,4.205-0.186,5.381-0.186c0.989,0,5.488,6.016,13.499,18.044c8.009,12.03,12.2,18.045,12.571,18.045
	c1.236-0.742,5.782-7.051,13.638-18.926c7.483-11.441,11.782-17.163,12.896-17.163h22.08c2.164,0,3.247,0.526,3.247,1.577v22.544
	c0,1.608-4.778,8.628-14.333,21.06s-14.333,19.019-14.333,19.761c0,1.052,4.205,7.144,12.617,18.276
	c9.895,13.051,15.06,19.885,15.493,20.503C110.483,156.049,110.917,160.749,110.917,168.789z"/>
</svg>
