<?xml version="1.0" encoding="utf-8"?>
<!-- Generator: Adobe Illustrator 16.0.2, SVG Export Plug-In . SVG Version: 6.00 Build 0)  -->
<!DOCTYPE svg PUBLIC "-//W3C//DTD SVG 1.1//EN" "http://www.w3.org/Graphics/SVG/1.1/DTD/svg11.dtd">
<svg version="1.1" id="lay" xmlns="http://www.w3.org/2000/svg" xmlns:xlink="http://www.w3.org/1999/xlink" x="0px" y="0px"
	 width="72px" height="220px" viewBox="0 0 72 220" enable-background="new 0 0 72 220" xml:space="preserve">
<path d="M70.048,153.945c0,1.855-0.232,4.67-0.696,8.442c-0.464,3.773-0.696,6.54-0.696,8.303s-0.186,2.893-0.557,3.387
	c-0.371,0.495-1.392,1.206-3.062,2.134c-7.979,4.392-16.824,6.587-26.533,6.587c-17.875,0-26.812-6.834-26.812-20.503
	c0-4.082,0.154-10.22,0.464-18.416c0.309-8.194,0.464-14.333,0.464-18.415c0-2.721-1.577-4.082-4.731-4.082
	c-0.248,0-0.649,0-1.206,0c-0.557,0.063-0.959,0.093-1.206,0.093c-2.351,0-3.525-0.835-3.525-2.505c0-0.989,0.077-2.505,0.232-4.546
	c0.154-2.041,0.232-3.556,0.232-4.546c0-1.299-0.078-3.277-0.232-5.938c-0.155-2.659-0.232-4.639-0.232-5.938
	c0-1.236,1.979-1.917,5.938-2.041c2.227-0.062,3.433-0.68,3.618-1.855c0.371-2.35,0.494-6.061,0.371-11.133
	c-0.248-7.979-0.371-11.782-0.371-11.411c0-7.174,0.68-10.762,2.041-10.762c1.67,0,4.05,0.371,7.144,1.113
	c3.525,0.805,5.968,1.269,7.329,1.392c3.154,0.434,7.916,1.021,14.287,1.763c1.545,0.124,2.319,0.649,2.319,1.577
	c0,2.475-0.202,6.216-0.603,11.226c-0.403,5.01-0.603,8.783-0.603,11.318c0,3.031,0.896,4.546,2.69,4.546
	c2.164,0,5.442-0.093,9.834-0.278c4.391-0.186,7.7-0.278,9.927-0.278c1.36,0,2.041,0.464,2.041,1.392
	c0,1.423-0.155,3.557-0.464,6.401c-0.31,2.846-0.464,4.979-0.464,6.401c0,1.484,0.03,3.649,0.093,6.494
	c0.061,2.846,0.093,5.01,0.093,6.494c0,1.299-0.897,1.948-2.69,1.948c-1.238,0-3.31-0.047-6.216-0.14
	c-2.908-0.093-4.979-0.139-6.216-0.139h-6.958c-0.928,0-1.392,1.361-1.392,4.082c0,1.484,0,3.681,0,6.587
	c0.061,2.969,0.093,5.165,0.093,6.587c0,5.195,0.587,8.783,1.763,10.762c1.67,2.66,4.947,3.989,9.834,3.989
	c1.545,0,3.757-0.355,6.633-1.067c2.876-0.71,4.901-1.066,6.077-1.066C69.398,151.904,70.048,152.585,70.048,153.945z"/>
</svg>
