<?xml version="1.0" encoding="utf-8"?>
<!-- Generator: Adobe Illustrator 16.0.2, SVG Export Plug-In . SVG Version: 6.00 Build 0)  -->
<!DOCTYPE svg PUBLIC "-//W3C//DTD SVG 1.1//EN" "http://www.w3.org/Graphics/SVG/1.1/DTD/svg11.dtd">
<svg version="1.1" id="lay" xmlns="http://www.w3.org/2000/svg" xmlns:xlink="http://www.w3.org/1999/xlink" x="0px" y="0px"
	 width="118px" height="220px" viewBox="0 0 118 220" enable-background="new 0 0 118 220" xml:space="preserve">
<path d="M114.942,84.644c0,2.66-0.496,4.979-1.484,6.958c-8.103,16.02-19.143,32.873-33.12,50.562
	c-1.98,2.598-2.969,4.948-2.969,7.051c0,3.278,0.186,8.195,0.557,14.751c0.371,6.557,0.557,11.442,0.557,14.658
	c0,1.113-0.248,1.794-0.742,2.041c-0.125,0.063-0.959,0.217-2.505,0.464c-2.227,0.371-7.793,0.557-16.699,0.557
	c-8.969,0-14.69-0.186-17.163-0.557c-1.732-0.247-2.598-1.144-2.598-2.69c0-3.277,0.278-8.271,0.835-14.983
	c0.557-6.71,0.835-11.735,0.835-15.075c0-1.979-0.742-4.112-2.227-6.401c-7.484-10.576-18.184-26.78-32.1-48.613
	c-1.423-2.412-2.134-4.391-2.134-5.938c0-3.711-0.186-9.277-0.557-16.699S2.872,57.739,2.872,54.028
	c0-2.041,0.618-3.062,1.855-3.062c3.772,0,9.493,0.155,17.163,0.464c7.668,0.31,13.42,0.464,17.256,0.464
	c1.422,0,2.134,0.464,2.134,1.392c0,3.154-0.139,7.901-0.417,14.24c-0.278,6.341-0.417,11.087-0.417,14.241
	c0,1.855,2.721,6.494,8.164,13.916c4.329,5.814,7.886,10.298,10.669,13.452c2.535-2.969,5.906-7.422,10.112-13.359
	c5.318-7.422,7.979-11.905,7.979-13.452c0-3.092-0.232-7.777-0.696-14.056c-0.464-6.276-0.696-10.962-0.696-14.055
	c0-1.299,0.278-2.041,0.835-2.227h2.319c3.711,0,9.292-0.17,16.746-0.511c7.452-0.339,13.065-0.51,16.838-0.51
	c1.236,0,1.855,1.33,1.855,3.989c0,3.278,0.061,8.21,0.186,14.797C114.88,76.34,114.942,81.304,114.942,84.644z"/>
</svg>
