<?xml version="1.0" encoding="utf-8"?>
<!-- Generator: Adobe Illustrator 16.0.2, SVG Export Plug-In . SVG Version: 6.00 Build 0)  -->
<!DOCTYPE svg PUBLIC "-//W3C//DTD SVG 1.1//EN" "http://www.w3.org/Graphics/SVG/1.1/DTD/svg11.dtd">
<svg version="1.1" id="lay" xmlns="http://www.w3.org/2000/svg" xmlns:xlink="http://www.w3.org/1999/xlink" x="0px" y="0px"
	 width="111px" height="220px" viewBox="0 0 111 220" enable-background="new 0 0 111 220" xml:space="preserve">
<path d="M108.01,135.762c0,12.988-3.711,23.843-11.133,32.563c-7.917,9.277-18.246,13.916-30.986,13.916
	c-9.277,0-16.762-2.659-22.451-7.979c-0.434-0.371-0.805-0.557-1.113-0.557c-0.619,0-1.191,1.145-1.716,3.433
	c-0.526,2.289-1.16,3.557-1.902,3.804c-1.052,0.309-9.866,0.464-26.44,0.464c-3.896,0-5.845-0.711-5.845-2.134
	c0-0.186,0.061-0.649,0.186-1.392c1.236-9.834,1.855-28.574,1.855-56.221c0-26.409-0.928-49.386-2.783-68.931l-0.093-1.021
	c0-0.989,0.958-1.546,2.876-1.67c1.36-0.062,6.741-0.525,16.143-1.392c6.617-0.618,11.998-0.928,16.143-0.928
	c1.174,0,1.763,1.021,1.763,3.062c0,2.412-0.155,5.598-0.464,9.556c-0.371,4.887-0.588,8.103-0.649,9.648
	c-0.31,6.123-0.464,14.473-0.464,25.049c0,1.918,0.494,2.876,1.484,2.876c0.494,0,0.958-0.247,1.392-0.742
	c5.566-5.938,12.864-8.906,21.895-8.906c13.545,0,24.121,4.608,31.729,13.823C104.484,110.62,108.01,121.846,108.01,135.762z
	 M74.426,134.741c0-5.133-1.577-9.478-4.731-13.035c-3.154-3.556-7.268-5.334-12.339-5.334c-5.195,0-9.293,1.778-12.292,5.334
	c-3,3.558-4.5,7.964-4.5,13.221c0,5.443,1.453,9.834,4.36,13.174c3.092,3.525,7.297,5.288,12.617,5.288
	c5.256,0,9.431-1.824,12.524-5.474C72.972,144.514,74.426,140.122,74.426,134.741z"/>
</svg>
