<?xml version="1.0" encoding="utf-8"?>
<!-- Generator: Adobe Illustrator 16.0.2, SVG Export Plug-In . SVG Version: 6.00 Build 0)  -->
<!DOCTYPE svg PUBLIC "-//W3C//DTD SVG 1.1//EN" "http://www.w3.org/Graphics/SVG/1.1/DTD/svg11.dtd">
<svg version="1.1" id="lay" xmlns="http://www.w3.org/2000/svg" xmlns:xlink="http://www.w3.org/1999/xlink" x="0px" y="0px"
	 width="112px" height="220px" viewBox="0 0 112 220" enable-background="new 0 0 112 220" xml:space="preserve">
<path d="M106.19,49.482c0-1.36-0.248,0.681-0.742,6.123c-0.681,6.865-1.206,15.648-1.577,26.348
	c-0.496,12.123-0.742,25.915-0.742,41.377c0,25.544,0.71,43.728,2.134,54.551c0.123,1.176,0.186,1.918,0.186,2.227
	c0,0.681-0.464,1.081-1.392,1.206c-2.227,0.309-10.422,0.464-24.585,0.464c-3.34,0-5.258-0.649-5.752-1.948
	c-0.125-2.35-0.248-4.7-0.371-7.051c-0.063-0.494-0.31-0.989-0.742-1.484c-0.371,0.186-0.835,0.557-1.392,1.113
	c-6.68,6.557-15.029,9.834-25.049,9.834c-13.051,0-23.503-4.576-31.357-13.73c-7.484-8.721-11.226-19.729-11.226-33.027
	c0-13.482,3.679-24.585,11.04-33.306C22.416,92.9,32.93,88.262,46.166,88.262c9.338,0,16.606,2.969,21.802,8.906
	c0.865,0.99,1.484,1.484,1.855,1.484c0.557,0,0.835-0.804,0.835-2.412c0-4.762-0.125-11.875-0.371-21.338
	c-0.248-9.463-0.371-16.544-0.371-21.245c0-1.793,0.494-2.813,1.484-3.062c3.958-0.186,9.4-0.557,16.328-1.113
	c12.369-1.546,17.843-2.319,16.421-2.319C105.509,47.163,106.19,47.937,106.19,49.482z M71.215,134.741
	c0-4.886-1.702-9.169-5.103-12.85c-3.402-3.679-7.515-5.52-12.339-5.52c-5.072,0-9.108,1.841-12.107,5.52
	c-3,3.681-4.5,8.088-4.5,13.221c0,5.01,1.515,9.247,4.546,12.71c3.092,3.711,7.112,5.566,12.061,5.566
	c4.947,0,9.092-1.855,12.432-5.566S71.215,139.751,71.215,134.741z"/>
</svg>
