<?xml version="1.0" encoding="utf-8"?>
<!-- Generator: Adobe Illustrator 16.0.2, SVG Export Plug-In . SVG Version: 6.00 Build 0)  -->
<!DOCTYPE svg PUBLIC "-//W3C//DTD SVG 1.1//EN" "http://www.w3.org/Graphics/SVG/1.1/DTD/svg11.dtd">
<svg version="1.1" id="lay" xmlns="http://www.w3.org/2000/svg" xmlns:xlink="http://www.w3.org/1999/xlink" x="0px" y="0px"
	 width="107px" height="220px" viewBox="0 0 107 220" enable-background="new 0 0 107 220" xml:space="preserve">
<path d="M104.479,81.211c0,0.681-0.619,1.021-1.855,1.021c-4.639,0-11.675-0.401-21.106-1.206
	c-9.433-0.804-16.499-1.206-21.199-1.206c-5.938,0-9.402,0.217-10.391,0.649c-2.289,1.052-3.433,4.021-3.433,8.906
	c0,5.876,1.484,9.216,4.453,10.02c1.236,0.31,3.123,0.464,5.659,0.464c4.268,0,10.653-0.232,19.158-0.696
	c8.503-0.464,14.89-0.695,19.158-0.695c2.041,0,3.062,5.443,3.062,16.328c0,9.463-0.341,14.968-1.021,16.514
	c-0.434,1.113-1.269,1.67-2.505,1.67c0.803,0-1.145-0.216-5.845-0.649c-6.619-0.618-16.638-0.928-30.059-0.928
	c-4.33,0-6.772,0.031-7.329,0.093c-3.154,0.495-4.731,1.825-4.731,3.989c0,8.783,0.371,18.896,1.113,30.337
	c0.618,10.329,0.928,14.937,0.928,13.823c0,1.607-1.948,2.535-5.845,2.783c1.051-0.063-1.702-0.093-8.257-0.093
	c-11.566,0-19.019-0.403-22.358-1.206c-1.794-0.433-2.69-1.392-2.69-2.876c0-6.865,0.232-17.178,0.696-30.94
	c0.464-13.761,0.696-24.074,0.696-30.939c0-8.164-0.371-18.431-1.113-30.801C8.551,66.46,7.963,56.193,7.902,54.771l-0.093-1.113
	c-0.063-1.546,0.865-2.319,2.783-2.319c4.576,0,11.488,0.093,20.735,0.278c9.246,0.186,16.189,0.278,20.828,0.278
	c4.947,0,12.385-0.371,22.312-1.113s17.363-1.113,22.312-1.113c3.092,0,4.824,1.269,5.195,3.804c0,2.66,0.123,6.649,0.371,11.968
	c0.123,1.361,0.525,3.989,1.206,7.886C104.169,76.728,104.479,79.355,104.479,81.211z"/>
</svg>
