<?xml version="1.0" encoding="utf-8"?>
<!-- Generator: Adobe Illustrator 16.0.2, SVG Export Plug-In . SVG Version: 6.00 Build 0)  -->
<!DOCTYPE svg PUBLIC "-//W3C//DTD SVG 1.1//EN" "http://www.w3.org/Graphics/SVG/1.1/DTD/svg11.dtd">
<svg version="1.1" id="lay" xmlns="http://www.w3.org/2000/svg" xmlns:xlink="http://www.w3.org/1999/xlink" x="0px" y="0px"
	 width="143px" height="220px" viewBox="0 0 143 220" enable-background="new 0 0 143 220" xml:space="preserve">
<path d="M137.555,116.187c0,16.452-4.485,30.615-13.452,42.49c-9.154,12.185-21.648,19.978-37.48,23.379
	c3.092,6.309,7.7,12.091,13.823,17.349c0.557,0.432,0.835,0.835,0.835,1.206c0,2.473-7.607,3.711-22.822,3.711
	c-11.195,0-18.091-0.434-20.688-1.299c-1.423-0.496-2.319-1.64-2.69-3.433c-0.742-3.588-0.99-9.556-0.742-17.905
	c-15.154-3.772-27.183-11.751-36.089-23.936C9.588,145.937,5.26,132.082,5.26,116.187c0-19.234,6.184-35.408,18.555-48.521
	c12.617-13.421,28.481-20.132,47.593-20.132c18.987,0,34.82,6.742,47.5,20.225C131.339,80.933,137.555,97.075,137.555,116.187z
	 M102.394,116.001c0-9.524-2.753-17.472-8.257-23.843c-5.814-6.68-13.391-10.02-22.729-10.02c-9.648,0-17.288,3.31-22.915,9.927
	c-5.381,6.247-8.071,14.287-8.071,24.121c0,10.02,2.628,18.061,7.886,24.121c5.504,6.433,13.204,9.648,23.101,9.648
	c9.586,0,17.224-3.309,22.915-9.927C99.703,133.721,102.394,125.712,102.394,116.001z"/>
</svg>
