<?xml version="1.0" encoding="utf-8"?>
<!-- Generator: Adobe Illustrator 16.0.2, SVG Export Plug-In . SVG Version: 6.00 Build 0)  -->
<!DOCTYPE svg PUBLIC "-//W3C//DTD SVG 1.1//EN" "http://www.w3.org/Graphics/SVG/1.1/DTD/svg11.dtd">
<svg version="1.1" id="lay" xmlns="http://www.w3.org/2000/svg" xmlns:xlink="http://www.w3.org/1999/xlink" x="0px" y="0px"
	 width="112px" height="220px" viewBox="0 0 112 220" enable-background="new 0 0 112 220" xml:space="preserve">
<path d="M102.016,147.266v13.174c0,5.01,0.154,12.603,0.464,22.775c0.309,10.174,0.464,17.767,0.464,22.776
	c0,1.855-0.959,2.876-2.876,3.062c-2.66,0.246-7.083,0.371-13.267,0.371c-1.67,0-4.175,0.123-7.515,0.371
	c-3.34,0.246-5.845,0.371-7.515,0.371c-1.238,0-1.855-0.928-1.855-2.783c0-3.65,0.03-9.139,0.093-16.468
	c0.061-7.329,0.093-12.817,0.093-16.467c0-0.865-0.278-1.299-0.835-1.299c0.989,0-1.516,1.686-7.515,5.056
	c-6,3.37-11.782,5.057-17.349,5.057c-12.246,0-22.266-4.793-30.059-14.38c-7.299-8.968-10.947-19.698-10.947-32.192
	c0-13.421,3.525-24.615,10.576-33.584c7.607-9.648,17.936-14.473,30.986-14.473c9.957,0,17.502,2.846,22.637,8.535
	c0.371,0.495,0.989,1.052,1.855,1.67c0.557-0.557,0.865-1.793,0.928-3.711c0-1.36,0-2.69,0-3.989
	c0.186-2.35,1.236-3.525,3.154-3.525c5.071,0,10.792,0.31,17.163,0.928c8.906,0.805,13.359,1.887,13.359,3.247l-0.186,2.134
	C102.633,110.497,102.016,128.278,102.016,147.266z M69.545,135.112c0-5.381-1.392-9.771-4.175-13.174
	c-2.969-3.711-7.113-5.566-12.432-5.566c-4.949,0-8.906,1.887-11.875,5.659c-2.722,3.525-4.082,7.824-4.082,12.896
	c0,5.195,1.515,9.525,4.546,12.988c3.215,3.649,7.359,5.474,12.432,5.474c5.071,0,8.999-1.793,11.782-5.381
	C68.276,144.73,69.545,140.432,69.545,135.112z"/>
</svg>
