<?xml version="1.0" encoding="utf-8"?>
<!-- Generator: Adobe Illustrator 16.0.2, SVG Export Plug-In . SVG Version: 6.00 Build 0)  -->
<!DOCTYPE svg PUBLIC "-//W3C//DTD SVG 1.1//EN" "http://www.w3.org/Graphics/SVG/1.1/DTD/svg11.dtd">
<svg version="1.1" id="lay" xmlns="http://www.w3.org/2000/svg" xmlns:xlink="http://www.w3.org/1999/xlink" x="0px" y="0px"
	 width="124px" height="220px" viewBox="0 0 124 220" enable-background="new 0 0 124 220" xml:space="preserve">
<path d="M60.933,181.499c-8.35,0-13.113-0.125-14.287-0.371c-1.176-0.247-2.166-1.144-2.969-2.69
	c-7.051-13.916-14.133-27.862-21.245-41.841C11.237,114.146,5.64,101.436,5.64,98.467c0-4.886,0.169-12.23,0.51-22.034
	c0.339-9.802,0.51-17.146,0.51-22.033c0-2.288,0.618-3.433,1.855-3.433c3.711,0,9.338,0.155,16.885,0.464
	c7.545,0.31,13.204,0.464,16.978,0.464c1.545,0,2.319,0.649,2.319,1.948c0,5.01-0.356,12.54-1.067,22.59
	c-0.712,10.052-1.067,17.581-1.067,22.591c0,3.835,6.277,17.534,18.833,41.099c3.401-6.123,7.267-13.638,11.597-22.544
	c5.813-11.998,8.721-19.358,8.721-22.08c0-4.515-0.063-11.303-0.186-20.364c-0.125-9.06-0.186-15.848-0.186-20.363
	c0-1.67,0.278-2.598,0.835-2.783h2.969c3.401,0,8.55-0.17,15.447-0.511c6.896-0.339,12.044-0.51,15.447-0.51
	c1.855,0,2.783,0.742,2.783,2.227c0,4.763-0.078,11.953-0.232,21.569c-0.155,9.618-0.232,16.839-0.232,21.663
	c0,3.835-6.093,17.937-18.276,42.305c-4.824,8.783-11.782,22.019-20.874,39.707c-0.619,1.361-1.037,2.119-1.252,2.272
	c-0.217,0.155-1.006,0.295-2.366,0.418C72.437,181.374,67.55,181.499,60.933,181.499z"/>
</svg>
