<?xml version="1.0" encoding="utf-8"?>
<!-- Generator: Adobe Illustrator 16.0.2, SVG Export Plug-In . SVG Version: 6.00 Build 0)  -->
<!DOCTYPE svg PUBLIC "-//W3C//DTD SVG 1.1//EN" "http://www.w3.org/Graphics/SVG/1.1/DTD/svg11.dtd">
<svg version="1.1" id="lay" xmlns="http://www.w3.org/2000/svg" xmlns:xlink="http://www.w3.org/1999/xlink" x="0px" y="0px"
	 width="122px" height="220px" viewBox="0 0 122 220" enable-background="new 0 0 122 220" xml:space="preserve">
<path d="M118.473,141.05c0,11.381-3.557,20.813-10.669,28.296c-8.103,8.598-22.328,12.896-42.676,12.896
	c-1.547,0-3.773-0.032-6.68-0.093c-2.969,0-5.165,0-6.587,0c-22.822,0-36.399-0.464-40.728-1.392
	c-1.794-0.371-2.69-1.329-2.69-2.876c0-6.617,0.386-16.637,1.16-30.059c0.772-13.421,1.16-23.472,1.16-30.151
	c0-7.174-0.371-20.657-1.113-40.449C9.464,72.15,9.124,64.543,8.629,54.399l-0.093-1.299c-0.063-1.175,0.912-1.886,2.922-2.134
	c2.009-0.247,9.168-0.371,21.477-0.371c19.729,0,31.265,0.063,34.604,0.186c15.215,0.557,26.44,3.031,33.677,7.422
	c9.586,5.876,14.38,15.803,14.38,29.78c0,3.649-1.113,7.515-3.34,11.597c-1.609,2.907-3.711,5.814-6.309,8.721
	c-2.289,2.536-3.433,3.711-3.433,3.525c0,0.434,0.803,1.113,2.412,2.041c4.329,2.475,7.73,6.401,10.205,11.782
	C117.36,130.474,118.473,135.607,118.473,141.05z M78.581,88.818c0-5.318-2.66-8.844-7.979-10.576
	c-2.969-0.928-7.855-1.392-14.658-1.392c-6.68,0-10.02,0.495-10.02,1.484c0,1.176-0.109,2.954-0.325,5.334
	c-0.217,2.382-0.325,4.16-0.325,5.335c0,6.186,0.525,9.648,1.577,10.391c0.68,0.557,4.607,0.835,11.782,0.835
	C71.931,100.229,78.581,96.426,78.581,88.818z M81.364,140.679c0-5.566-2.319-9.339-6.958-11.318
	c-2.969-1.236-7.793-1.855-14.473-1.855c-7.979,0-12.309,0.294-12.988,0.881c-0.681,0.589-1.021,4.377-1.021,11.365
	c0,7.299,0.401,11.334,1.206,12.106c0.803,0.774,5.256,1.16,13.359,1.16c6.68,0,11.379-0.525,14.102-1.577
	C79.105,149.647,81.364,146.06,81.364,140.679z"/>
</svg>
