<?xml version="1.0" encoding="utf-8"?>
<!-- Generator: Adobe Illustrator 16.0.2, SVG Export Plug-In . SVG Version: 6.00 Build 0)  -->
<!DOCTYPE svg PUBLIC "-//W3C//DTD SVG 1.1//EN" "http://www.w3.org/Graphics/SVG/1.1/DTD/svg11.dtd">
<svg version="1.1" id="lay" xmlns="http://www.w3.org/2000/svg" xmlns:xlink="http://www.w3.org/1999/xlink" x="0px" y="0px"
	 width="73px" height="220px" viewBox="0 0 73 220" enable-background="new 0 0 73 220" xml:space="preserve">
<path d="M69.713,123.33c0,2.412-1.331,3.618-3.989,3.618c-1.176,0-2.892-0.077-5.149-0.232c-2.258-0.153-3.943-0.231-5.056-0.231
	c-5.134,0-8.628,0.805-10.483,2.412c-1.855,1.608-2.783,4.855-2.783,9.741c0,2.66,0.046,6.695,0.139,12.106
	c0.093,5.413,0.139,9.448,0.139,12.107c0,1.794,0.123,4.469,0.371,8.024c0.247,3.558,0.371,6.201,0.371,7.933
	c0,1.484-1.021,2.319-3.062,2.505c-2.969,0.246-7.515,0.371-13.638,0.371c-5.876,0-10.576-0.186-14.102-0.557
	c-2.041-0.247-3.062-1.268-3.062-3.062c0-4.947,0.03-12.354,0.093-22.22c0.061-9.864,0.093-17.271,0.093-22.219
	c0-14.534-1.331-26.502-3.989-35.903c-0.125-0.557-0.186-1.021-0.186-1.392c0-0.928,0.464-1.546,1.392-1.855
	c3.401-0.371,8.38-1.051,14.937-2.041c9.771-1.917,14.812-2.876,15.122-2.876c1.113,0,1.824,1.948,2.134,5.845
	c0.309,3.896,0.865,5.845,1.67,5.845c-0.867,0,1.67-1.624,7.607-4.871s11.658-4.87,17.163-4.87c3.463,0,5.195,0.742,5.195,2.227
	c0,1.794-0.186,4.33-0.557,7.607c-0.371,3.525-0.588,6.062-0.649,7.607c0,1.794,0.03,4.175,0.093,7.144
	C69.65,119.743,69.713,122.155,69.713,123.33z"/>
</svg>
