<?xml version="1.0" encoding="utf-8"?>
<!-- Generator: Adobe Illustrator 16.0.2, SVG Export Plug-In . SVG Version: 6.00 Build 0)  -->
<!DOCTYPE svg PUBLIC "-//W3C//DTD SVG 1.1//EN" "http://www.w3.org/Graphics/SVG/1.1/DTD/svg11.dtd">
<svg version="1.1" id="lay" xmlns="http://www.w3.org/2000/svg" xmlns:xlink="http://www.w3.org/1999/xlink" x="0px" y="0px"
	 width="102px" height="220px" viewBox="0 0 102 220" enable-background="new 0 0 102 220" xml:space="preserve">
<path d="M98.871,104.451c0,11.999-0.371,19.297-1.113,21.895c-0.928,3.093-7.7,14.287-20.317,33.584
	c-1.98,3.031-7.083,10.051-15.308,21.06c-9.092,12.121-14.257,18.522-15.493,19.204c-1.484,0.928-10.979,1.392-28.481,1.392
	c-2.66,0-4.453-0.311-5.381-0.928c-0.805-2.537-1.825-5.536-3.062-8.999c-0.99-2.166-1.98-4.36-2.969-6.587
	c-1.423-3.217-2.134-5.351-2.134-6.401c0-1.176,0.525-1.763,1.577-1.763c17.193,0,25.791-3.929,25.791-11.782
	c0-0.68-4.207-6.834-12.617-18.462c-8.721-11.937-13.515-19.482-14.38-22.637c-0.496-1.793-0.742-8.194-0.742-19.204
	c0-2.227,0.061-5.581,0.186-10.066c0.123-4.483,0.186-7.839,0.186-10.065c0-1.607,1.021-2.412,3.062-2.412
	c3.154,0,7.932,0.093,14.333,0.278s11.179,0.278,14.333,0.278c1.299,0,1.948,0.959,1.948,2.876c0,1.732-0.093,4.346-0.278,7.839
	c-0.186,3.495-0.278,6.108-0.278,7.84c0,7.793,0.123,13.081,0.371,15.864c0.186,2.165,2.041,6.186,5.566,12.061
	c3.711,6.123,6.401,9.185,8.071,9.185c1.422,0,3.834-3.03,7.236-9.092c3.154-5.752,4.854-9.617,5.103-11.597
	c0.618-5.442,0.928-11.349,0.928-17.72c0-1.67-0.155-4.205-0.464-7.607c-0.31-3.401-0.464-5.968-0.464-7.7
	c0-1.175,0.649-1.763,1.948-1.763c3.154,0,7.87-0.123,14.148-0.371c6.277-0.247,10.994-0.371,14.148-0.371
	c1.607,0,2.69,0.805,3.247,2.412C98.438,87.536,98.871,94.123,98.871,104.451z"/>
</svg>
