<?xml version="1.0" encoding="utf-8"?>
<!-- Generator: Adobe Illustrator 16.0.2, SVG Export Plug-In . SVG Version: 6.00 Build 0)  -->
<!DOCTYPE svg PUBLIC "-//W3C//DTD SVG 1.1//EN" "http://www.w3.org/Graphics/SVG/1.1/DTD/svg11.dtd">
<svg version="1.1" id="lay" xmlns="http://www.w3.org/2000/svg" xmlns:xlink="http://www.w3.org/1999/xlink" x="0px" y="0px"
	 width="134px" height="220px" viewBox="0 0 134 220" enable-background="new 0 0 134 220" xml:space="preserve">
<path d="M131.988,178.809c0,1.113-0.774,1.887-2.319,2.319c-1.855,0.494-7.607,0.742-17.256,0.742
	c-8.845,0-14.535-0.248-17.07-0.742c-2.104-0.433-3.433-1.824-3.989-4.175c-2.104-8.906-3.743-13.668-4.917-14.287
	c-0.99-0.433-9.277-0.649-24.863-0.649c-10.515,0-16.112,0.278-16.792,0.835c-1.052,0.99-2.227,4.299-3.525,9.927
	c-1.176,5.134-2.598,7.917-4.268,8.35c-2.104,0.494-9.154,0.742-21.152,0.742c-9.463,0-14.194-0.896-14.194-2.69
	c0-1.607,6.988-21.368,20.967-59.282c15.152-41.006,23.379-63.55,24.678-67.632c0.742-2.35,1.607-3.525,2.598-3.525
	c1.67,0,4.251,0.155,7.747,0.464c3.494,0.31,6.107,0.464,7.839,0.464c1.67,0,4.128-0.107,7.375-0.325
	c3.247-0.216,5.674-0.324,7.283-0.324c1.174,0,2.257,1.021,3.247,3.062c3.03,6.494,11.875,28.76,26.533,66.797
	C124.627,157.162,131.988,177.139,131.988,178.809z M84.024,46.421c-3.154,0-9.463-5.752-18.926-17.256l-0.742,0.557
	c-1.113,2.598-3.557,5.876-7.329,9.834c-4.207,4.33-7.454,6.494-9.741,6.494c-0.063,0-2.815-1.021-8.257-3.062
	c-4.207-1.607-6.309-2.566-6.309-2.876c0-0.309,0.339-0.865,1.021-1.67c3.958-4.453,7.916-8.906,11.875-13.359
	c4.885-5.875,8.071-10.854,9.556-14.937c0.432-1.175,1.206-1.763,2.319-1.763h16.143c1.051,0,1.763,0.588,2.134,1.763
	c1.299,4.082,4.02,8.628,8.164,13.638c4.947,5.258,9.927,10.7,14.937,16.328c-0.125,0.186-2.505,1.284-7.144,3.293
	C87.085,45.416,84.518,46.421,84.024,46.421z M66.211,94.292c-1.299,2.722-3.495,8.628-6.587,17.72
	c-3.34,9.648-5.01,15.308-5.01,16.978c0,1.113,1.855,1.732,5.566,1.855c1.917,0.124,5.071,0.186,9.463,0.186
	c4.082,0,6.339-0.494,6.772-1.484c0.123-0.309,0.186-0.742,0.186-1.299c0-2.041-1.423-7.669-4.268-16.885
	C69.551,102.456,67.51,96.767,66.211,94.292z"/>
</svg>
