<?xml version="1.0" encoding="utf-8"?>
<!-- Generator: Adobe Illustrator 16.0.2, SVG Export Plug-In . SVG Version: 6.00 Build 0)  -->
<!DOCTYPE svg PUBLIC "-//W3C//DTD SVG 1.1//EN" "http://www.w3.org/Graphics/SVG/1.1/DTD/svg11.dtd">
<svg version="1.1" id="lay" xmlns="http://www.w3.org/2000/svg" xmlns:xlink="http://www.w3.org/1999/xlink" x="0px" y="0px"
	 width="108px" height="220px" viewBox="0 0 108 220" enable-background="new 0 0 108 220" xml:space="preserve">
<path d="M103.866,152.275c0,2.66-0.526,7.546-1.577,14.658c-1.113,7.731-2.104,12.339-2.969,13.823
	c-0.742,1.174-1.763,1.763-3.062,1.763c-0.557,0-1.484-0.093-2.783-0.278c-4.516-0.619-17.689-0.928-39.521-0.928
	c-4.763,0-11.845-0.032-21.245-0.093c-9.402-0.063-16.453-0.093-21.152-0.093c-2.041,0-3.062-0.896-3.062-2.69
	c0-6.927,0.386-17.333,1.16-31.219c0.772-13.884,1.16-24.29,1.16-31.218c0-7.051-0.371-20.193-1.113-39.429
	C9.515,71.625,9.174,64.233,8.68,54.399l-0.093-1.299c-0.125-1.422,0.649-2.134,2.319-2.134c4.576,0,11.458,0.124,20.642,0.371
	c9.185,0.248,16.064,0.371,20.642,0.371c4.514,0,11.318-0.123,20.41-0.371c9.092-0.247,15.895-0.371,20.41-0.371
	c3.215,0,5.071,1.206,5.566,3.618c0.309,1.423,0.789,5.737,1.438,12.941c0.649,7.206,0.974,11.582,0.974,13.128
	c0,1.299-0.619,1.948-1.855,1.948c-0.371,0-1.021-0.03-1.948-0.093c-16.453-1.36-31.234-2.041-44.346-2.041
	c-3.279,0-5.288,0.773-6.03,2.319c-0.31,0.742-0.464,3.124-0.464,7.144c0,4.206,0.618,6.989,1.855,8.35
	c1.051,1.176,3.062,1.763,6.03,1.763c0.618,0,1.824-0.047,3.618-0.14c1.793-0.093,3.277-0.139,4.453-0.139
	c7.793,0,15.679-0.216,23.657-0.649c0.68-0.062,2.38-0.216,5.103-0.464c2.102-0.247,3.772-0.371,5.01-0.371
	c1.484,0,2.227,0.712,2.227,2.134c0-1.299-0.557,3.433-1.67,14.194c-0.496,4.948-0.742,9.896-0.742,14.844
	c0,1.237-0.897,1.855-2.69,1.855l-8.35-0.928c-3.525-0.371-11.566-0.557-24.121-0.557h-9.834c-2.537,0-4.021,0.619-4.453,1.855
	c-0.063,0.31-0.093,2.227-0.093,5.752c0,4.701,0.309,7.731,0.928,9.092c1.051,2.351,5.01,3.742,11.875,4.175
	c-0.125,0,4.391,0,13.545,0c3.277,0,8.148-0.293,14.612-0.882c6.462-0.587,11.302-0.881,14.519-0.881
	C103.185,148.936,103.866,150.049,103.866,152.275z M78.724,45.679c0,1.176-0.681,1.763-2.041,1.763h-0.742
	c-8.041-0.804-17.195-3.309-27.461-7.515c-10.701-4.453-18.833-9.308-24.399-14.565c-0.928-0.804-1.392-1.484-1.392-2.041
	c0-0.494,0.464-1.082,1.392-1.763c1.793-1.051,4.453-2.69,7.979-4.917c1.484-1.422,3.804-3.525,6.958-6.309
	c0.371-0.309,0.928-0.618,1.67-0.928c5.071,3.711,11.163,8.01,18.276,12.896c7.422,4.268,13.39,7.329,17.905,9.185
	c1.236,0.495,1.855,1.113,1.855,1.855c0,0.681-0.093,1.701-0.278,3.062c-0.186,1.361-0.278,2.382-0.278,3.062
	c0,0.681,0.093,1.716,0.278,3.107S78.724,44.999,78.724,45.679z"/>
</svg>
