<?xml version="1.0" encoding="utf-8"?>
<!-- Generator: Adobe Illustrator 16.0.2, SVG Export Plug-In . SVG Version: 6.00 Build 0)  -->
<!DOCTYPE svg PUBLIC "-//W3C//DTD SVG 1.1//EN" "http://www.w3.org/Graphics/SVG/1.1/DTD/svg11.dtd">
<svg version="1.1" id="lay" xmlns="http://www.w3.org/2000/svg" xmlns:xlink="http://www.w3.org/1999/xlink" x="0px" y="0px"
	 width="66px" height="220px" viewBox="0 0 66 220" enable-background="new 0 0 66 220" xml:space="preserve">
<path d="M46.901,112.568c0,7.299,0.186,18.276,0.557,32.935s0.557,25.637,0.557,32.935c0,1.237-0.278,2.011-0.835,2.319
	c-0.124,0.063-0.928,0.186-2.412,0.371c-4.021,0.494-9.401,0.742-16.143,0.742c-9.03,0-14.782-0.248-17.256-0.742
	c-1.794-0.371-2.69-1.329-2.69-2.876c0,0.99,0.278-4.453,0.835-16.328c1.113-25.049,1.67-41.5,1.67-49.355
	c0-6.617-0.217-16.544-0.649-29.78c-0.434-13.235-0.649-23.162-0.649-29.78c0-1.36,0.711-2.041,2.134-2.041
	c1.917,0,4.809,0.093,8.675,0.278c3.864,0.186,6.756,0.278,8.674,0.278c1.917,0,4.746-0.093,8.489-0.278
	c3.741-0.186,6.57-0.278,8.488-0.278c1.793,0,2.69,0.681,2.69,2.041c0,6.618-0.356,16.545-1.066,29.78
	C47.257,96.024,46.901,105.951,46.901,112.568z M11.091,47.256c-1.176,0.063-1.763-0.587-1.763-1.948
	c0-0.494,0.062-1.268,0.186-2.319c0.123-1.051,0.186-1.855,0.186-2.412c0-0.742-0.108-1.886-0.324-3.433
	c-0.218-1.546-0.325-2.69-0.325-3.433c0-0.865,0.649-1.546,1.948-2.041c3.03-1.175,8.906-4.236,17.627-9.185
	c3.772-2.721,9.493-6.772,17.163-12.153c0.371-0.309,0.989-0.618,1.855-0.928c0.433,0.124,0.958,0.434,1.577,0.928
	c1.422,1.484,3.68,3.588,6.772,6.309c1.731,0.99,4.268,2.567,7.607,4.731c0.989,0.681,1.484,1.299,1.484,1.855
	c0,0.495-0.434,1.145-1.299,1.948c-5.443,5.134-13.607,10.005-24.492,14.611c-10.886,4.608-20.009,7.098-27.368,7.469H11.091z"/>
</svg>
