<?xml version="1.0" encoding="utf-8"?>
<!-- Generator: Adobe Illustrator 16.0.2, SVG Export Plug-In . SVG Version: 6.00 Build 0)  -->
<!DOCTYPE svg PUBLIC "-//W3C//DTD SVG 1.1//EN" "http://www.w3.org/Graphics/SVG/1.1/DTD/svg11.dtd">
<svg version="1.1" id="lay" xmlns="http://www.w3.org/2000/svg" xmlns:xlink="http://www.w3.org/1999/xlink" x="0px" y="0px"
	 width="68px" height="220px" viewBox="0 0 68 220" enable-background="new 0 0 68 220" xml:space="preserve">
<path d="M52.147,46.792c-3.154,0-9.463-5.752-18.926-17.256l-0.742,0.557c-1.113,2.598-3.558,5.877-7.329,9.834
	c-4.207,4.33-7.454,6.494-9.741,6.494c-0.063,0-2.815-1.021-8.257-3.062c-4.205-1.607-6.309-2.565-6.309-2.876
	c0-0.309,0.341-0.865,1.021-1.67c3.957-4.453,7.916-8.906,11.875-13.359c4.885-5.875,8.071-10.854,9.556-14.937
	c0.432-1.174,1.206-1.763,2.319-1.763h16.143c1.051,0,1.763,0.589,2.134,1.763c1.299,4.082,4.02,8.628,8.164,13.638
	c4.947,5.258,9.927,10.701,14.937,16.328c-0.125,0.186-2.505,1.284-7.144,3.294C55.209,45.788,52.642,46.792,52.147,46.792z
	 M50.941,112.568c0,7.299,0.186,18.276,0.557,32.935s0.557,25.638,0.557,32.935c0,1.238-0.278,2.011-0.835,2.319
	c-0.125,0.063-0.928,0.186-2.412,0.371c-4.021,0.494-9.402,0.742-16.143,0.742c-9.031,0-14.783-0.248-17.256-0.742
	c-1.795-0.371-2.69-1.329-2.69-2.876c0,0.99,0.278-4.453,0.835-16.328c1.113-25.049,1.67-41.5,1.67-49.355
	c0-6.617-0.218-16.544-0.649-29.78c-0.434-13.234-0.649-23.161-0.649-29.78c0-1.359,0.71-2.041,2.134-2.041
	c1.916,0,4.808,0.093,8.674,0.278c3.865,0.186,6.757,0.278,8.675,0.278c1.916,0,4.746-0.093,8.488-0.278
	c3.741-0.186,6.571-0.278,8.489-0.278c1.793,0,2.69,0.682,2.69,2.041c0,6.619-0.356,16.546-1.067,29.78
	C51.296,96.024,50.941,105.951,50.941,112.568z"/>
</svg>
