<?xml version="1.0" encoding="utf-8"?>
<!-- Generator: Adobe Illustrator 16.0.2, SVG Export Plug-In . SVG Version: 6.00 Build 0)  -->
<!DOCTYPE svg PUBLIC "-//W3C//DTD SVG 1.1//EN" "http://www.w3.org/Graphics/SVG/1.1/DTD/svg11.dtd">
<svg version="1.1" id="lay" xmlns="http://www.w3.org/2000/svg" xmlns:xlink="http://www.w3.org/1999/xlink" x="0px" y="0px"
	 width="63px" height="220px" viewBox="0 0 63 220" enable-background="new 0 0 63 220" xml:space="preserve">
<path d="M56.333,45.029c0,1.176-0.682,1.763-2.041,1.763H53.55c-8.041-0.803-17.195-3.308-27.461-7.515
	C15.388,34.824,7.256,29.97,1.689,24.712c-0.928-0.803-1.392-1.484-1.392-2.041c0-0.494,0.464-1.081,1.392-1.763
	c1.794-1.051,4.453-2.69,7.979-4.917c1.484-1.422,3.804-3.525,6.958-6.309c0.371-0.309,0.928-0.617,1.67-0.928
	c5.07,3.711,11.163,8.011,18.276,12.896c7.422,4.268,13.39,7.329,17.905,9.185c1.236,0.496,1.855,1.113,1.855,1.855
	c0,0.682-0.093,1.702-0.278,3.062c-0.186,1.361-0.278,2.382-0.278,3.062c0,0.682,0.093,1.717,0.278,3.108
	S56.333,44.35,56.333,45.029z M52.065,112.568c0,7.299,0.186,18.276,0.557,32.935s0.557,25.638,0.557,32.935
	c0,1.238-0.278,2.011-0.835,2.319c-0.125,0.063-0.928,0.186-2.412,0.371c-4.021,0.494-9.402,0.742-16.143,0.742
	c-9.031,0-14.783-0.248-17.256-0.742c-1.795-0.371-2.69-1.329-2.69-2.876c0,0.99,0.278-4.453,0.835-16.328
	c1.113-25.049,1.67-41.5,1.67-49.355c0-6.617-0.218-16.544-0.649-29.78c-0.434-13.234-0.649-23.161-0.649-29.78
	c0-1.359,0.71-2.041,2.134-2.041c1.916,0,4.808,0.093,8.674,0.278c3.865,0.186,6.757,0.278,8.675,0.278
	c1.916,0,4.746-0.093,8.488-0.278c3.741-0.186,6.571-0.278,8.489-0.278c1.793,0,2.69,0.682,2.69,2.041
	c0,6.619-0.356,16.546-1.067,29.78C52.42,96.024,52.065,105.951,52.065,112.568z"/>
</svg>
