<?xml version="1.0" encoding="utf-8"?>
<!-- Generator: Adobe Illustrator 16.0.2, SVG Export Plug-In . SVG Version: 6.00 Build 0)  -->
<!DOCTYPE svg PUBLIC "-//W3C//DTD SVG 1.1//EN" "http://www.w3.org/Graphics/SVG/1.1/DTD/svg11.dtd">
<svg version="1.1" id="lay" xmlns="http://www.w3.org/2000/svg" xmlns:xlink="http://www.w3.org/1999/xlink" x="0px" y="0px"
	 width="129px" height="220px" viewBox="0 0 129 220" enable-background="new 0 0 129 220" xml:space="preserve">
<path d="M119.283,135.576c0,15.771-1.887,26.533-5.659,32.285c-6.928,10.515-24.214,15.771-51.86,15.771
	c-12.494,0-22.112-0.96-28.853-2.876c-10.762-3.092-17.751-8.999-20.967-17.72c-1.609-4.268-2.412-11.875-2.412-22.822
	c0-2.535,0.093-6.309,0.278-11.318s0.278-8.751,0.278-11.226c0-7.174-0.341-17.936-1.021-32.285
	C8.387,71.037,8.047,60.307,8.047,53.193c0-1.484,0.649-2.227,1.948-2.227c3.772,0,9.478,0.155,17.117,0.464
	c7.638,0.31,13.343,0.464,17.117,0.464c1.545,0,2.319,0.681,2.319,2.041c0,8.164-0.264,20.396-0.789,36.691
	c-0.526,16.298-0.789,28.528-0.789,36.692c0,9.711,1.021,16.267,3.062,19.668c2.721,4.639,8.411,6.958,17.07,6.958
	c12.678,0,19.019-6.153,19.019-18.462c0-8.968-0.217-22.42-0.649-40.356c-0.434-17.936-0.649-31.388-0.649-40.356
	c0-1.917,0.772-2.876,2.319-2.876c3.648,0,9.153-0.154,16.514-0.464c7.359-0.309,12.864-0.464,16.514-0.464
	c1.793,0,2.69,0.742,2.69,2.227c0,7.113-0.294,17.844-0.881,32.192c-0.588,14.35-0.881,25.111-0.881,32.285
	c0,1.979,0.03,4.963,0.093,8.952C119.251,130.612,119.283,133.598,119.283,135.576z M48.868,46.235
	c-1.176,0.063-1.763-0.587-1.763-1.948c0-0.494,0.061-1.268,0.186-2.319c0.123-1.051,0.186-1.855,0.186-2.412
	c0-0.742-0.109-1.886-0.325-3.433c-0.217-1.546-0.325-2.69-0.325-3.433c0-0.865,0.649-1.546,1.948-2.041
	c3.03-1.175,8.906-4.236,17.627-9.185c3.772-2.721,9.493-6.772,17.163-12.153c0.371-0.309,0.989-0.618,1.855-0.928
	c0.432,0.124,0.958,0.434,1.577,0.928c1.422,1.484,3.679,3.588,6.772,6.309c1.731,0.99,4.268,2.567,7.607,4.731
	c0.989,0.681,1.484,1.299,1.484,1.855c0,0.495-0.434,1.145-1.299,1.948C96.12,29.289,87.956,34.16,77.071,38.767
	c-10.886,4.608-20.009,7.098-27.368,7.469H48.868z"/>
</svg>
