<?xml version="1.0" encoding="utf-8"?>
<!-- Generator: Adobe Illustrator 16.0.2, SVG Export Plug-In . SVG Version: 6.00 Build 0)  -->
<!DOCTYPE svg PUBLIC "-//W3C//DTD SVG 1.1//EN" "http://www.w3.org/Graphics/SVG/1.1/DTD/svg11.dtd">
<svg version="1.1" id="lay" xmlns="http://www.w3.org/2000/svg" xmlns:xlink="http://www.w3.org/1999/xlink" x="0px" y="0px"
	 width="129px" height="220px" viewBox="0 0 129 220" enable-background="new 0 0 129 220" xml:space="preserve">
<path d="M119.283,135.576c0,15.771-1.887,26.533-5.659,32.285c-6.928,10.516-24.214,15.771-51.86,15.771
	c-12.494,0-22.112-0.959-28.853-2.876c-10.762-3.092-17.751-8.999-20.967-17.72c-1.609-4.268-2.412-11.875-2.412-22.822
	c0-2.535,0.093-6.309,0.278-11.318s0.278-8.751,0.278-11.226c0-7.174-0.341-17.936-1.021-32.285
	C8.387,71.038,8.047,60.307,8.047,53.193c0-1.484,0.649-2.227,1.948-2.227c3.772,0,9.478,0.155,17.117,0.464
	c7.638,0.311,13.343,0.464,17.117,0.464c1.545,0,2.319,0.682,2.319,2.041c0,8.164-0.264,20.396-0.789,36.692
	c-0.526,16.298-0.789,28.527-0.789,36.691c0,9.711,1.021,16.268,3.062,19.668c2.721,4.639,8.411,6.958,17.07,6.958
	c12.678,0,19.019-6.153,19.019-18.462c0-8.967-0.217-22.419-0.649-40.356c-0.434-17.936-0.649-31.388-0.649-40.356
	c0-1.916,0.772-2.876,2.319-2.876c3.648,0,9.153-0.153,16.514-0.464c7.359-0.309,12.864-0.464,16.514-0.464
	c1.793,0,2.69,0.742,2.69,2.227c0,7.113-0.294,17.845-0.881,32.192c-0.588,14.35-0.881,25.111-0.881,32.285
	c0,1.98,0.03,4.964,0.093,8.953C119.251,130.613,119.283,133.598,119.283,135.576z M88.296,45.308c0,1.176-0.681,1.763-2.041,1.763
	h-0.742c-8.041-0.803-17.195-3.308-27.461-7.515c-10.701-4.453-18.833-9.308-24.399-14.565c-0.928-0.803-1.392-1.484-1.392-2.041
	c0-0.494,0.464-1.081,1.392-1.763c1.793-1.051,4.453-2.69,7.979-4.917c1.484-1.422,3.804-3.525,6.958-6.309
	c0.371-0.309,0.928-0.617,1.67-0.928c5.071,3.711,11.163,8.011,18.276,12.896c7.422,4.268,13.39,7.329,17.905,9.185
	c1.236,0.496,1.855,1.113,1.855,1.855c0,0.682-0.093,1.702-0.278,3.062c-0.186,1.361-0.278,2.382-0.278,3.062
	c0,0.682,0.093,1.717,0.278,3.108S88.296,44.628,88.296,45.308z"/>
</svg>
