<?xml version="1.0" encoding="utf-8"?>
<!-- Generator: Adobe Illustrator 16.0.2, SVG Export Plug-In . SVG Version: 6.00 Build 0)  -->
<!DOCTYPE svg PUBLIC "-//W3C//DTD SVG 1.1//EN" "http://www.w3.org/Graphics/SVG/1.1/DTD/svg11.dtd">
<svg version="1.1" id="lay" xmlns="http://www.w3.org/2000/svg" xmlns:xlink="http://www.w3.org/1999/xlink" x="0px" y="0px"
	 width="143px" height="220px" viewBox="0 0 143 220" enable-background="new 0 0 143 220" xml:space="preserve">
<path d="M137.555,116.187c0,19.297-6.155,35.471-18.462,48.521c-12.556,13.236-28.451,19.854-47.686,19.854
	c-19.111,0-34.976-6.68-47.593-20.039C11.444,151.473,5.26,135.361,5.26,116.187c0-19.234,6.184-35.408,18.555-48.521
	c12.617-13.42,28.481-20.132,47.593-20.132c18.987,0,34.82,6.711,47.5,20.132C131.339,80.903,137.555,97.076,137.555,116.187z
	 M105.641,31.207C97.848,39.99,89.652,44.38,81.056,44.38c-2.412,0-5.459-1.283-9.138-3.85c-3.681-2.566-6.696-3.85-9.045-3.85
	c-2.166,0-4.423,1.052-6.772,3.154c-2.351,2.104-3.896,3.154-4.639,3.154c-1.732-0.618-4.392-2.659-7.979-6.123
	c-3.588-3.463-5.413-5.938-5.474-7.422c0.68-2.598,3.865-5.597,9.556-8.999c5.689-3.401,10.02-5.103,12.988-5.103
	c2.598,0,5.999,1.145,10.205,3.433c4.205,2.289,7.576,3.433,10.112,3.433c2.164,0,4.7-1.082,7.607-3.247
	c2.906-2.164,4.824-3.247,5.752-3.247s3.092,2.196,6.494,6.587c3.401,4.392,5.103,7.113,5.103,8.164L105.641,31.207z
	 M102.394,116.001c0-9.277-2.815-17.163-8.442-23.657c-5.876-6.803-13.391-10.205-22.544-10.205
	c-8.721,0-16.112,3.525-22.173,10.576c-5.876,6.804-8.813,14.628-8.813,23.472c0,9.463,2.751,17.349,8.257,23.657
	c5.813,6.619,13.39,9.927,22.729,9.927c8.721,0,16.143-3.494,22.266-10.483C99.486,132.608,102.394,124.847,102.394,116.001z"/>
</svg>
