<?xml version="1.0" encoding="utf-8"?>
<!-- Generator: Adobe Illustrator 16.0.2, SVG Export Plug-In . SVG Version: 6.00 Build 0)  -->
<!DOCTYPE svg PUBLIC "-//W3C//DTD SVG 1.1//EN" "http://www.w3.org/Graphics/SVG/1.1/DTD/svg11.dtd">
<svg version="1.1" id="lay" xmlns="http://www.w3.org/2000/svg" xmlns:xlink="http://www.w3.org/1999/xlink" x="0px" y="0px"
	 width="143px" height="220px" viewBox="0 0 143 220" enable-background="new 0 0 143 220" xml:space="preserve">
<path d="M137.555,116.186c0,19.297-6.155,35.471-18.462,48.521c-12.556,13.236-28.451,19.854-47.686,19.854
	c-19.111,0-34.976-6.68-47.593-20.039C11.444,151.472,5.26,135.36,5.26,116.186c0-19.234,6.184-35.408,18.555-48.521
	c12.617-13.42,28.481-20.132,47.593-20.132c18.987,0,34.82,6.711,47.5,20.132C131.339,80.902,137.555,97.075,137.555,116.186z
	 M102.394,116c0-9.277-2.815-17.163-8.442-23.657c-5.876-6.803-13.391-10.205-22.544-10.205c-8.721,0-16.112,3.525-22.173,10.576
	c-5.876,6.804-8.813,14.628-8.813,23.472c0,9.463,2.751,17.349,8.257,23.657c5.813,6.619,13.39,9.927,22.729,9.927
	c8.721,0,16.143-3.494,22.266-10.483C99.486,132.607,102.394,124.846,102.394,116z M56.1,44.75
	c-1.176,0.063-1.763-0.587-1.763-1.948c0-0.494,0.061-1.267,0.186-2.319c0.123-1.051,0.186-1.855,0.186-2.412
	c0-0.742-0.109-1.886-0.325-3.433c-0.217-1.545-0.325-2.69-0.325-3.433c0-0.865,0.649-1.545,1.948-2.041
	c3.03-1.174,8.906-4.236,17.627-9.185c3.772-2.721,9.493-6.772,17.163-12.153c0.371-0.309,0.989-0.618,1.855-0.928
	c0.432,0.125,0.958,0.434,1.577,0.928c1.422,1.484,3.679,3.588,6.772,6.309c1.731,0.99,4.268,2.567,7.607,4.731
	c0.989,0.681,1.484,1.299,1.484,1.855c0,0.496-0.434,1.145-1.299,1.948c-5.443,5.134-13.607,10.005-24.492,14.612
	c-10.886,4.608-20.009,7.097-27.368,7.468H56.1z"/>
</svg>
