<?xml version="1.0" encoding="utf-8"?>
<!-- Generator: Adobe Illustrator 16.0.2, SVG Export Plug-In . SVG Version: 6.00 Build 0)  -->
<!DOCTYPE svg PUBLIC "-//W3C//DTD SVG 1.1//EN" "http://www.w3.org/Graphics/SVG/1.1/DTD/svg11.dtd">
<svg version="1.1" id="lay" xmlns="http://www.w3.org/2000/svg" xmlns:xlink="http://www.w3.org/1999/xlink" x="0px" y="0px"
	 width="129px" height="220px" viewBox="0 0 129 220" enable-background="new 0 0 129 220" xml:space="preserve">
<path d="M119.283,135.577c0,15.771-1.887,26.533-5.659,32.285c-6.928,10.515-24.214,15.771-51.86,15.771
	c-12.494,0-22.112-0.959-28.853-2.876c-10.762-3.092-17.751-8.999-20.967-17.72c-1.609-4.268-2.412-11.875-2.412-22.822
	c0-2.535,0.093-6.309,0.278-11.318s0.278-8.751,0.278-11.226c0-7.174-0.341-17.936-1.021-32.285
	C8.387,71.038,8.047,60.307,8.047,53.194c0-1.484,0.649-2.227,1.948-2.227c3.772,0,9.478,0.155,17.117,0.464
	c7.638,0.31,13.343,0.464,17.117,0.464c1.545,0,2.319,0.681,2.319,2.041c0,8.164-0.264,20.396-0.789,36.692
	c-0.526,16.298-0.789,28.528-0.789,36.692c0,9.711,1.021,16.267,3.062,19.668c2.721,4.639,8.411,6.958,17.07,6.958
	c12.678,0,19.019-6.153,19.019-18.462c0-8.967-0.217-22.419-0.649-40.356c-0.434-17.936-0.649-31.388-0.649-40.356
	c0-1.917,0.772-2.876,2.319-2.876c3.648,0,9.153-0.154,16.514-0.464c7.359-0.309,12.864-0.464,16.514-0.464
	c1.793,0,2.69,0.742,2.69,2.227c0,7.113-0.294,17.844-0.881,32.192c-0.588,14.35-0.881,25.111-0.881,32.285
	c0,1.98,0.03,4.963,0.093,8.953C119.251,130.613,119.283,133.598,119.283,135.577z M83.101,45.865
	c-3.154,0-9.463-5.752-18.926-17.256l-0.742,0.557c-1.113,2.598-3.557,5.876-7.329,9.834c-4.207,4.33-7.454,6.494-9.741,6.494
	c-0.063,0-2.815-1.021-8.257-3.062c-4.207-1.607-6.309-2.566-6.309-2.876c0-0.309,0.339-0.865,1.021-1.67
	c3.958-4.453,7.916-8.906,11.875-13.359c4.885-5.875,8.071-10.854,9.556-14.937c0.432-1.174,1.206-1.763,2.319-1.763H72.71
	c1.051,0,1.763,0.588,2.134,1.763c1.299,4.082,4.02,8.628,8.164,13.638c4.947,5.258,9.927,10.701,14.937,16.328
	c-0.125,0.186-2.505,1.284-7.144,3.293C86.163,44.86,83.595,45.865,83.101,45.865z"/>
</svg>
