<?xml version="1.0" encoding="utf-8"?>
<!-- Generator: Adobe Illustrator 16.0.2, SVG Export Plug-In . SVG Version: 6.00 Build 0)  -->
<!DOCTYPE svg PUBLIC "-//W3C//DTD SVG 1.1//EN" "http://www.w3.org/Graphics/SVG/1.1/DTD/svg11.dtd">
<svg version="1.1" id="lay" xmlns="http://www.w3.org/2000/svg" xmlns:xlink="http://www.w3.org/1999/xlink" x="0px" y="0px"
	 width="143px" height="220px" viewBox="0 0 143 220" enable-background="new 0 0 143 220" xml:space="preserve">
<path d="M137.555,116.187c0,19.297-6.155,35.471-18.462,48.521c-12.556,13.236-28.451,19.854-47.686,19.854
	c-19.111,0-34.976-6.68-47.593-20.039C11.444,151.473,5.26,135.361,5.26,116.187c0-19.234,6.184-35.408,18.555-48.521
	c12.617-13.42,28.481-20.132,47.593-20.132c18.987,0,34.82,6.711,47.5,20.132C131.339,80.903,137.555,97.076,137.555,116.187z
	 M90.333,45.679c-3.154,0-9.463-5.752-18.926-17.256l-0.742,0.557c-1.113,2.598-3.557,5.876-7.329,9.834
	c-4.207,4.33-7.454,6.494-9.741,6.494c-0.063,0-2.815-1.021-8.257-3.062c-4.207-1.607-6.309-2.566-6.309-2.876
	c0-0.309,0.339-0.865,1.021-1.67c3.958-4.453,7.916-8.906,11.875-13.359c4.885-5.875,8.071-10.854,9.556-14.937
	c0.432-1.174,1.206-1.763,2.319-1.763h16.143c1.051,0,1.763,0.588,2.134,1.763c1.299,4.082,4.02,8.628,8.164,13.638
	c4.947,5.258,9.927,10.701,14.937,16.328c-0.125,0.186-2.505,1.284-7.144,3.293C93.395,44.675,90.827,45.679,90.333,45.679z
	 M102.394,116.001c0-9.277-2.815-17.163-8.442-23.657c-5.876-6.803-13.391-10.205-22.544-10.205
	c-8.721,0-16.112,3.525-22.173,10.576c-5.876,6.804-8.813,14.628-8.813,23.472c0,9.463,2.751,17.349,8.257,23.657
	c5.813,6.619,13.39,9.927,22.729,9.927c8.721,0,16.143-3.494,22.266-10.483C99.486,132.608,102.394,124.847,102.394,116.001z"/>
</svg>
