<?xml version="1.0" encoding="utf-8"?>
<!-- Generator: Adobe Illustrator 16.0.2, SVG Export Plug-In . SVG Version: 6.00 Build 0)  -->
<!DOCTYPE svg PUBLIC "-//W3C//DTD SVG 1.1//EN" "http://www.w3.org/Graphics/SVG/1.1/DTD/svg11.dtd">
<svg version="1.1" id="lay" xmlns="http://www.w3.org/2000/svg" xmlns:xlink="http://www.w3.org/1999/xlink" x="0px" y="0px"
	 width="111px" height="220px" viewBox="0 0 111 220" enable-background="new 0 0 111 220" xml:space="preserve">
<path d="M100.773,134.741c0,4.763,0.278,11.845,0.835,21.245c0.557,9.401,0.835,16.452,0.835,21.152
	c0,2.475-1.083,3.804-3.247,3.989c-7.67,0.557-16.453,0.835-26.348,0.835c-1.176,0-1.964-1.777-2.366-5.335
	c-0.403-3.556-0.881-5.364-1.438-5.427c-0.496,0.248-1.145,0.773-1.948,1.577c-6.928,6.989-14.35,10.483-22.266,10.483
	c-12.061,0-22.05-4.762-29.966-14.287C7.381,160.068,3.64,149.431,3.64,137.061c0-14.287,3.865-25.791,11.597-34.512
	c8.04-9.029,19.049-13.545,33.027-13.545c9.709,0,17.379,3.402,23.008,10.205c0.247,0.31,0.464,0.464,0.649,0.464
	c0.557,0,1.19-1.499,1.902-4.5c0.71-2.999,1.561-4.499,2.551-4.499c2.288,0,6.648,0.649,13.081,1.948
	c6.123,1.237,10.514,2.289,13.174,3.154c0.928,0.371,1.392,0.866,1.392,1.484c0,0.248-0.093,0.897-0.278,1.948
	C101.762,110.404,100.773,122.248,100.773,134.741z M70.9,135.298c0-5.257-1.655-9.603-4.963-13.035
	c-3.31-3.433-7.624-5.148-12.942-5.148c-5.32,0-9.618,1.701-12.896,5.103c-3.279,3.402-4.917,7.763-4.917,13.081
	c0,5.01,1.731,9.309,5.195,12.896c3.463,3.588,7.668,5.381,12.617,5.381c5.256,0,9.556-1.717,12.896-5.149
	S70.9,140.617,70.9,135.298z M37.966,81.768c-1.176,0.063-1.763-0.587-1.763-1.948c0-0.494,0.061-1.268,0.186-2.319
	c0.123-1.051,0.186-1.855,0.186-2.412c0-0.742-0.109-1.886-0.325-3.433c-0.217-1.546-0.325-2.69-0.325-3.433
	c0-0.865,0.649-1.546,1.948-2.041c3.03-1.175,8.906-4.236,17.627-9.185c3.772-2.721,9.493-6.772,17.163-12.153
	c0.371-0.309,0.989-0.618,1.855-0.928c0.432,0.124,0.958,0.434,1.577,0.928c1.422,1.484,3.679,3.588,6.772,6.309
	c1.731,0.99,4.268,2.567,7.607,4.731c0.989,0.681,1.484,1.299,1.484,1.855c0,0.495-0.434,1.145-1.299,1.948
	c-5.443,5.134-13.607,10.005-24.492,14.611c-10.886,4.608-20.009,7.098-27.368,7.469H37.966z"/>
</svg>
