<?xml version="1.0" encoding="utf-8"?>
<!-- Generator: Adobe Illustrator 16.0.2, SVG Export Plug-In . SVG Version: 6.00 Build 0)  -->
<!DOCTYPE svg PUBLIC "-//W3C//DTD SVG 1.1//EN" "http://www.w3.org/Graphics/SVG/1.1/DTD/svg11.dtd">
<svg version="1.1" id="lay" xmlns="http://www.w3.org/2000/svg" xmlns:xlink="http://www.w3.org/1999/xlink" x="0px" y="0px"
	 width="68px" height="220px" viewBox="0 0 68 220" enable-background="new 0 0 68 220" xml:space="preserve">
<path d="M52.214,81.768c-3.154,0-9.463-5.752-18.926-17.256l-0.742,0.557c-1.113,2.598-3.557,5.876-7.329,9.834
	c-4.206,4.33-7.453,6.494-9.741,6.494c-0.063,0-2.814-1.021-8.257-3.062c-4.205-1.607-6.309-2.566-6.309-2.876
	c0-0.309,0.341-0.865,1.021-1.67c3.959-4.453,7.916-8.906,11.875-13.359c4.886-5.875,8.071-10.854,9.556-14.937
	c0.433-1.175,1.206-1.763,2.319-1.763h16.143c1.051,0,1.763,0.588,2.134,1.763c1.299,4.082,4.02,8.628,8.164,13.638
	c4.947,5.258,9.927,10.7,14.937,16.328c-0.124,0.186-2.505,1.284-7.144,3.293C55.275,80.763,52.708,81.768,52.214,81.768z
	 M49.987,138.545c0,4.33,0.093,10.808,0.278,19.436s0.278,15.107,0.278,19.437c0,2.475-0.773,3.711-2.319,3.711
	c-1.547,0-3.912-0.123-7.097-0.371c-3.187-0.247-5.552-0.371-7.098-0.371c-1.547,0-3.866,0.124-6.958,0.371
	c-3.093,0.248-5.412,0.371-6.958,0.371c-1.794,0-2.69-1.607-2.69-4.824c0-4.205,0.107-10.498,0.325-18.88
	c0.216-8.38,0.324-14.673,0.324-18.879c0-9.586-0.959-24.399-2.876-44.438c-0.063-0.865-0.093-1.484-0.093-1.855
	c0-1.422,0.865-2.134,2.598-2.134c1.793,0,4.5,0.278,8.118,0.835s6.354,0.835,8.21,0.835s4.623-0.278,8.304-0.835
	c3.679-0.557,6.416-0.835,8.21-0.835c1.731,0,2.598,0.712,2.598,2.134c0,4.763-0.526,12.401-1.577,22.915
	C50.513,125.681,49.987,133.474,49.987,138.545z"/>
</svg>
