<?xml version="1.0" encoding="utf-8"?>
<!-- Generator: Adobe Illustrator 16.0.2, SVG Export Plug-In . SVG Version: 6.00 Build 0)  -->
<!DOCTYPE svg PUBLIC "-//W3C//DTD SVG 1.1//EN" "http://www.w3.org/Graphics/SVG/1.1/DTD/svg11.dtd">
<svg version="1.1" id="lay" xmlns="http://www.w3.org/2000/svg" xmlns:xlink="http://www.w3.org/1999/xlink" x="0px" y="0px"
	 width="79px" height="220px" viewBox="0 0 79 220" enable-background="new 0 0 79 220" xml:space="preserve">
<path d="M69.28,120.083c-0.063,0-1.934-0.494-5.613-1.484c-3.681-0.989-6.665-1.484-8.953-1.484c-5.505,0-9.896,1.655-13.174,4.963
	c-3.279,3.31-4.917,7.717-4.917,13.221c0,5.69,1.793,10.158,5.381,13.405c3.586,3.247,8.257,4.871,14.009,4.871
	c2.721,0,5.782-0.696,9.185-2.088c3.401-1.392,5.01-2.087,4.824-2.087c1.051,0,2.412,3.928,4.082,11.782
	c1.422,7.175,2.134,11.938,2.134,14.287c0,2.351-3.835,4.36-11.504,6.03c-5.938,1.299-10.731,1.948-14.38,1.948
	c-13.607,0-24.833-4.576-33.677-13.73c-8.845-9.153-13.267-20.564-13.267-34.233c0-13.545,4.437-24.94,13.313-34.188
	c8.875-9.245,20.085-13.869,33.63-13.869c9.215,0,17.317,1.979,24.307,5.938c1.607,0.866,2.412,1.701,2.412,2.505
	c0,0.805-0.928,4.453-2.783,10.947c-1.732,6.247-2.861,10.02-3.386,11.318C70.377,119.434,69.837,120.083,69.28,120.083z
	 M65.198,189.756c0,18.615-8.906,27.925-26.719,27.925c-2.227,0-5.32-1.083-9.277-3.247c-4.207-2.289-6.309-4.3-6.309-6.03
	c0-0.186,1.453-1.855,4.36-5.01c0.928-1.484,1.886-2.938,2.876-4.36c1.422-2.166,2.535-3.247,3.34-3.247
	c0.247,0,1.221,0.649,2.922,1.948c1.7,1.299,3.262,1.948,4.685,1.948c2.041,0,3.865-0.759,5.474-2.273
	c1.607-1.516,2.412-3.293,2.412-5.334c0-5.195-2.505-9.277-7.515-12.246l17.905,2.134C60.713,183.633,62.662,186.23,65.198,189.756z
	"/>
</svg>
