<?xml version="1.0" encoding="utf-8"?>
<!-- Generator: Adobe Illustrator 16.0.2, SVG Export Plug-In . SVG Version: 6.00 Build 0)  -->
<!DOCTYPE svg PUBLIC "-//W3C//DTD SVG 1.1//EN" "http://www.w3.org/Graphics/SVG/1.1/DTD/svg11.dtd">
<svg version="1.1" id="lay" xmlns="http://www.w3.org/2000/svg" xmlns:xlink="http://www.w3.org/1999/xlink" x="0px" y="0px"
	 width="60px" height="220px" viewBox="0 0 60 220" enable-background="new 0 0 60 220" xml:space="preserve">
<path d="M57.377,80.376c0,1.176-0.681,1.763-2.041,1.763h-0.742c-8.041-0.804-17.195-3.309-27.461-7.515
	C16.432,70.171,8.3,65.316,2.733,60.059c-0.928-0.804-1.392-1.484-1.392-2.041c0-0.494,0.464-1.082,1.392-1.763
	c1.794-1.051,4.453-2.69,7.979-4.917c1.484-1.422,3.804-3.525,6.958-6.309c0.371-0.309,0.928-0.618,1.67-0.928
	c5.071,3.711,11.163,8.01,18.276,12.896c7.422,4.268,13.39,7.329,17.905,9.185c1.236,0.495,1.855,1.113,1.855,1.855
	c0,0.681-0.093,1.701-0.278,3.062c-0.186,1.361-0.278,2.382-0.278,3.062c0,0.681,0.093,1.716,0.278,3.107
	S57.377,79.696,57.377,80.376z M48.656,138.545c0,4.33,0.093,10.808,0.278,19.436s0.278,15.107,0.278,19.437
	c0,2.475-0.774,3.711-2.319,3.711c-1.547,0-3.913-0.123-7.097-0.371c-3.186-0.247-5.552-0.371-7.097-0.371
	c-1.547,0-3.866,0.124-6.958,0.371c-3.093,0.248-5.413,0.371-6.958,0.371c-1.794,0-2.69-1.607-2.69-4.824
	c0-4.205,0.107-10.498,0.325-18.88c0.216-8.38,0.325-14.673,0.325-18.879c0-9.586-0.959-24.399-2.876-44.438
	c-0.063-0.865-0.093-1.484-0.093-1.855c0-1.422,0.865-2.134,2.598-2.134c1.793,0,4.5,0.278,8.118,0.835s6.355,0.835,8.21,0.835
	s4.623-0.278,8.303-0.835c3.679-0.557,6.416-0.835,8.21-0.835c1.731,0,2.598,0.712,2.598,2.134c0,4.763-0.526,12.401-1.577,22.915
	C49.181,125.681,48.656,133.474,48.656,138.545z"/>
</svg>
