<?xml version="1.0" encoding="utf-8"?>
<!-- Generator: Adobe Illustrator 16.0.2, SVG Export Plug-In . SVG Version: 6.00 Build 0)  -->
<!DOCTYPE svg PUBLIC "-//W3C//DTD SVG 1.1//EN" "http://www.w3.org/Graphics/SVG/1.1/DTD/svg11.dtd">
<svg version="1.1" id="lay" xmlns="http://www.w3.org/2000/svg" xmlns:xlink="http://www.w3.org/1999/xlink" x="0px" y="0px"
	 width="61px" height="220px" viewBox="0 0 61 220" enable-background="new 0 0 61 220" xml:space="preserve">
<path d="M6.333,81.768C5.157,81.83,4.57,81.181,4.57,79.819c0-0.494,0.061-1.268,0.186-2.319c0.123-1.051,0.186-1.855,0.186-2.412
	c0-0.742-0.109-1.886-0.325-3.433c-0.217-1.546-0.325-2.69-0.325-3.433c0-0.865,0.649-1.546,1.948-2.041
	c3.03-1.175,8.906-4.236,17.627-9.185c3.772-2.721,9.493-6.772,17.163-12.153c0.371-0.309,0.989-0.618,1.855-0.928
	c0.432,0.124,0.958,0.434,1.577,0.928c1.422,1.484,3.679,3.588,6.772,6.309c1.731,0.99,4.268,2.567,7.607,4.731
	c0.989,0.681,1.484,1.299,1.484,1.855c0,0.495-0.434,1.145-1.299,1.948c-5.443,5.134-13.607,10.005-24.492,14.611
	c-10.886,4.608-20.009,7.098-27.368,7.469H6.333z M43.164,138.545c0,4.33,0.093,10.808,0.278,19.436s0.278,15.107,0.278,19.437
	c0,2.475-0.774,3.711-2.319,3.711c-1.547,0-3.913-0.123-7.097-0.371c-3.186-0.247-5.552-0.371-7.097-0.371
	c-1.547,0-3.866,0.124-6.958,0.371c-3.093,0.248-5.413,0.371-6.958,0.371c-1.794,0-2.69-1.607-2.69-4.824
	c0-4.205,0.107-10.498,0.325-18.88c0.216-8.38,0.325-14.673,0.325-18.879c0-9.586-0.959-24.399-2.876-44.438
	c-0.063-0.865-0.093-1.484-0.093-1.855c0-1.422,0.865-2.134,2.598-2.134c1.793,0,4.5,0.278,8.118,0.835s6.355,0.835,8.21,0.835
	s4.623-0.278,8.303-0.835c3.679-0.557,6.416-0.835,8.21-0.835c1.731,0,2.598,0.712,2.598,2.134c0,4.763-0.526,12.401-1.577,22.915
	C43.688,125.681,43.164,133.474,43.164,138.545z"/>
</svg>
