<?xml version="1.0" encoding="utf-8"?>
<!-- Generator: Adobe Illustrator 16.0.2, SVG Export Plug-In . SVG Version: 6.00 Build 0)  -->
<!DOCTYPE svg PUBLIC "-//W3C//DTD SVG 1.1//EN" "http://www.w3.org/Graphics/SVG/1.1/DTD/svg11.dtd">
<svg version="1.1" id="lay" xmlns="http://www.w3.org/2000/svg" xmlns:xlink="http://www.w3.org/1999/xlink" x="0px" y="0px"
	 width="100px" height="220px" viewBox="0 0 100 220" enable-background="new 0 0 100 220" xml:space="preserve">
<path d="M96.897,135.483c0,14.102-4.314,25.544-12.942,34.326c-8.628,8.783-19.962,13.174-34.001,13.174
	c-13.607,0-24.802-4.329-33.584-12.988c-8.783-8.658-13.174-19.791-13.174-33.398c0-14.349,4.205-25.991,12.617-34.93
	c8.411-8.937,19.791-13.405,34.141-13.405c13.977,0,25.295,4.376,33.955,13.127C92.567,110.142,96.897,121.506,96.897,135.483z
	 M84.001,68.037c-7.793,8.783-15.989,13.174-24.585,13.174c-2.412,0-5.459-1.283-9.138-3.851c-3.681-2.565-6.696-3.85-9.045-3.85
	c-2.166,0-4.423,1.052-6.772,3.154c-2.351,2.104-3.896,3.154-4.639,3.154c-1.732-0.618-4.392-2.659-7.979-6.123
	c-3.588-3.463-5.413-5.938-5.474-7.422c0.68-2.598,3.865-5.597,9.556-8.999c5.689-3.401,10.02-5.103,12.988-5.103
	c2.598,0,5.999,1.145,10.205,3.433c4.205,2.289,7.576,3.433,10.112,3.433c2.164,0,4.7-1.082,7.607-3.247
	c2.906-2.164,4.824-3.247,5.752-3.247s3.092,2.196,6.494,6.587c3.401,4.392,5.103,7.113,5.103,8.164L84.001,68.037z M66.467,135.483
	c0-4.886-1.516-9.199-4.546-12.942c-3.031-3.741-6.958-5.612-11.782-5.612c-4.887,0-8.906,1.918-12.061,5.752
	c-2.969,3.588-4.453,7.855-4.453,12.803c0,5.01,1.484,9.309,4.453,12.896c3.154,3.835,7.174,5.752,12.061,5.752
	c4.824,0,8.813-1.917,11.968-5.752C65.013,144.792,66.467,140.493,66.467,135.483z"/>
</svg>
