<?xml version="1.0" encoding="utf-8"?>
<!-- Generator: Adobe Illustrator 16.0.2, SVG Export Plug-In . SVG Version: 6.00 Build 0)  -->
<!DOCTYPE svg PUBLIC "-//W3C//DTD SVG 1.1//EN" "http://www.w3.org/Graphics/SVG/1.1/DTD/svg11.dtd">
<svg version="1.1" id="lay" xmlns="http://www.w3.org/2000/svg" xmlns:xlink="http://www.w3.org/1999/xlink" x="0px" y="0px"
	 width="100px" height="220px" viewBox="0 0 100 220" enable-background="new 0 0 100 220" xml:space="preserve">
<path d="M96.897,135.483c0,14.102-4.314,25.544-12.942,34.326c-8.628,8.783-19.962,13.174-34.001,13.174
	c-13.607,0-24.802-4.329-33.584-12.988c-8.783-8.658-13.174-19.791-13.174-33.398c0-14.349,4.205-25.991,12.617-34.93
	c8.411-8.937,19.791-13.405,34.141-13.405c13.977,0,25.295,4.376,33.955,13.127C92.567,110.142,96.897,121.506,96.897,135.483z
	 M67.488,82.139c-3.154,0-9.463-5.752-18.926-17.256l-0.742,0.557c-1.113,2.598-3.557,5.876-7.329,9.834
	c-4.207,4.33-7.454,6.494-9.741,6.494c-0.063,0-2.815-1.021-8.257-3.062c-4.207-1.607-6.309-2.566-6.309-2.876
	c0-0.309,0.339-0.865,1.021-1.67c3.958-4.453,7.916-8.906,11.875-13.359c4.885-5.875,8.071-10.854,9.556-14.937
	c0.432-1.175,1.206-1.763,2.319-1.763h16.143c1.051,0,1.763,0.588,2.134,1.763c1.299,4.082,4.02,8.628,8.164,13.638
	c4.947,5.258,9.927,10.7,14.937,16.328c-0.125,0.186-2.505,1.284-7.144,3.293C70.549,81.134,67.982,82.139,67.488,82.139z
	 M66.467,135.483c0-4.886-1.516-9.199-4.546-12.942c-3.031-3.741-6.958-5.612-11.782-5.612c-4.887,0-8.906,1.918-12.061,5.752
	c-2.969,3.588-4.453,7.855-4.453,12.803c0,5.01,1.484,9.309,4.453,12.896c3.154,3.835,7.174,5.752,12.061,5.752
	c4.824,0,8.813-1.917,11.968-5.752C65.013,144.792,66.467,140.493,66.467,135.483z"/>
</svg>
