<?xml version="1.0" encoding="utf-8"?>
<!-- Generator: Adobe Illustrator 16.0.2, SVG Export Plug-In . SVG Version: 6.00 Build 0)  -->
<!DOCTYPE svg PUBLIC "-//W3C//DTD SVG 1.1//EN" "http://www.w3.org/Graphics/SVG/1.1/DTD/svg11.dtd">
<svg version="1.1" id="lay" xmlns="http://www.w3.org/2000/svg" xmlns:xlink="http://www.w3.org/1999/xlink" x="0px" y="0px"
	 width="111px" height="220px" viewBox="0 0 111 220" enable-background="new 0 0 111 220" xml:space="preserve">
<path d="M103.464,96.797c0,4.577-0.217,11.442-0.649,20.596c-0.434,9.154-0.649,16.02-0.649,20.596
	c0,4.453,0.154,11.133,0.464,20.039c0.309,8.906,0.464,15.556,0.464,19.946c0,1.67-0.774,2.722-2.319,3.154
	c-2.351,0.617-7.329,0.928-14.937,0.928c-6.742,0-11.443-0.186-14.102-0.557c-1.176-0.186-1.918-0.928-2.227-2.227
	c-0.186-1.855-0.371-3.711-0.557-5.566c-0.31-2.845-0.742-4.268-1.299-4.268c0.865,0-2.258,2.104-9.37,6.309
	c-7.113,4.206-13.577,6.309-19.39,6.309c-16.391,0-26.101-7.391-29.131-22.173c-1.361-6.865-2.041-16.822-2.041-29.873
	c0-14.102,1.144-25.234,3.433-33.398c0.68-2.535,1.948-3.804,3.804-3.804c2.844,0,7.174,0.031,12.988,0.093
	c5.813,0.063,10.143,0.093,12.988,0.093c1.917,0,2.876,0.805,2.876,2.412c0,0.434-0.063,1.083-0.186,1.948
	c-1.299,8.412-1.948,16.947-1.948,25.605c0,10.762,0.339,18.122,1.021,22.08c1.113,6.804,5.164,10.205,12.153,10.205
	c2.721,0,5.674-1.206,8.86-3.618c3.185-2.412,4.839-4.917,4.963-7.515c0.123-2.288,0.186-17.813,0.186-46.572
	c0-2.041,0.154-3.247,0.464-3.618c0.371-0.618,1.484-0.928,3.34-0.928c3.03,0,7.591,0.031,13.684,0.093
	c6.091,0.063,10.653,0.093,13.684,0.093c1.855,0,2.937,0.464,3.247,1.392C103.401,95.065,103.464,95.808,103.464,96.797z
	 M75.446,82.139c-3.154,0-9.463-5.752-18.926-17.256l-0.742,0.557c-1.113,2.598-3.557,5.876-7.329,9.834
	c-4.207,4.33-7.454,6.494-9.741,6.494c-0.063,0-2.815-1.021-8.257-3.062c-4.207-1.607-6.309-2.566-6.309-2.876
	c0-0.309,0.339-0.865,1.021-1.67c3.958-4.453,7.916-8.906,11.875-13.359c4.885-5.875,8.071-10.854,9.556-14.937
	c0.432-1.175,1.206-1.763,2.319-1.763h16.143c1.051,0,1.763,0.588,2.134,1.763c1.299,4.082,4.02,8.628,8.164,13.638
	c4.947,5.258,9.927,10.7,14.937,16.328c-0.125,0.186-2.505,1.284-7.144,3.293C78.508,81.134,75.94,82.139,75.446,82.139z"/>
</svg>
