<?xml version="1.0" encoding="utf-8"?>
<!-- Generator: Adobe Illustrator 16.0.2, SVG Export Plug-In . SVG Version: 6.00 Build 0)  -->
<!DOCTYPE svg PUBLIC "-//W3C//DTD SVG 1.1//EN" "http://www.w3.org/Graphics/SVG/1.1/DTD/svg11.dtd">
<svg version="1.1" id="lay" xmlns="http://www.w3.org/2000/svg" xmlns:xlink="http://www.w3.org/1999/xlink" x="0px" y="0px"
	 width="100px" height="220px" viewBox="0 0 100 220" enable-background="new 0 0 100 220" xml:space="preserve">
<path d="M96.897,135.483c0,14.102-4.314,25.544-12.942,34.326c-8.628,8.783-19.962,13.174-34.001,13.174
	c-13.607,0-24.802-4.329-33.584-12.988c-8.783-8.658-13.174-19.791-13.174-33.398c0-14.349,4.205-25.991,12.617-34.93
	c8.411-8.937,19.791-13.405,34.141-13.405c13.977,0,25.295,4.376,33.955,13.127C92.567,110.142,96.897,121.506,96.897,135.483z
	 M30.657,81.768c-1.176,0.063-1.763-0.587-1.763-1.948c0-0.494,0.061-1.268,0.186-2.319c0.123-1.051,0.186-1.855,0.186-2.412
	c0-0.742-0.109-1.886-0.325-3.433c-0.217-1.546-0.325-2.69-0.325-3.433c0-0.865,0.649-1.546,1.948-2.041
	c3.03-1.175,8.906-4.236,17.627-9.185c3.772-2.721,9.493-6.772,17.163-12.153c0.371-0.309,0.989-0.618,1.855-0.928
	c0.432,0.124,0.958,0.434,1.577,0.928c1.422,1.484,3.679,3.588,6.772,6.309c1.731,0.99,4.268,2.567,7.607,4.731
	c0.989,0.681,1.484,1.299,1.484,1.855c0,0.495-0.434,1.145-1.299,1.948c-5.443,5.134-13.607,10.005-24.492,14.611
	c-10.886,4.608-20.009,7.098-27.368,7.469H30.657z M66.467,135.483c0-4.886-1.516-9.199-4.546-12.942
	c-3.031-3.741-6.958-5.612-11.782-5.612c-4.887,0-8.906,1.918-12.061,5.752c-2.969,3.588-4.453,7.855-4.453,12.803
	c0,5.01,1.484,9.309,4.453,12.896c3.154,3.835,7.174,5.752,12.061,5.752c4.824,0,8.813-1.917,11.968-5.752
	C65.013,144.792,66.467,140.493,66.467,135.483z"/>
</svg>
