<?xml version="1.0" encoding="utf-8"?>
<!-- Generator: Adobe Illustrator 16.0.2, SVG Export Plug-In . SVG Version: 6.00 Build 0)  -->
<!DOCTYPE svg PUBLIC "-//W3C//DTD SVG 1.1//EN" "http://www.w3.org/Graphics/SVG/1.1/DTD/svg11.dtd">
<svg version="1.1" id="lay" xmlns="http://www.w3.org/2000/svg" xmlns:xlink="http://www.w3.org/1999/xlink" x="0px" y="0px"
	 width="110px" height="220px" viewBox="0 0 110 220" enable-background="new 0 0 110 220" xml:space="preserve">
<path d="M102.964,96.797c0,4.577-0.217,11.442-0.649,20.596c-0.434,9.154-0.649,16.02-0.649,20.596
	c0,4.453,0.154,11.133,0.464,20.039c0.309,8.906,0.464,15.556,0.464,19.946c0,1.67-0.774,2.722-2.319,3.154
	c-2.351,0.617-7.329,0.928-14.937,0.928c-6.742,0-11.443-0.186-14.102-0.557c-1.176-0.186-1.918-0.928-2.227-2.227
	c-0.186-1.855-0.371-3.711-0.557-5.566c-0.31-2.845-0.742-4.268-1.299-4.268c0.865,0-2.258,2.104-9.37,6.309
	c-7.113,4.206-13.577,6.309-19.39,6.309c-16.391,0-26.101-7.391-29.131-22.173c-1.361-6.865-2.041-16.822-2.041-29.873
	c0-14.102,1.144-25.234,3.433-33.398c0.68-2.535,1.948-3.804,3.804-3.804c2.844,0,7.174,0.031,12.988,0.093
	c5.813,0.063,10.143,0.093,12.988,0.093c1.917,0,2.876,0.805,2.876,2.412c0,0.434-0.063,1.083-0.186,1.948
	c-1.299,8.412-1.948,16.947-1.948,25.605c0,10.762,0.339,18.122,1.021,22.08c1.113,6.804,5.164,10.205,12.153,10.205
	c2.721,0,5.674-1.206,8.86-3.618c3.185-2.412,4.839-4.917,4.963-7.515c0.123-2.288,0.186-17.813,0.186-46.572
	c0-2.041,0.154-3.247,0.464-3.618c0.371-0.618,1.484-0.928,3.34-0.928c3.03,0,7.591,0.031,13.684,0.093
	c6.091,0.063,10.653,0.093,13.684,0.093c1.855,0,2.937,0.464,3.247,1.392C102.901,95.065,102.964,95.808,102.964,96.797z
	 M37.744,82.139c-1.176,0.063-1.763-0.587-1.763-1.948c0-0.494,0.061-1.268,0.186-2.319c0.123-1.051,0.186-1.855,0.186-2.412
	c0-0.742-0.109-1.886-0.325-3.433c-0.217-1.546-0.325-2.69-0.325-3.433c0-0.865,0.649-1.546,1.948-2.041
	c3.03-1.175,8.906-4.236,17.627-9.185c3.772-2.721,9.493-6.772,17.163-12.153c0.371-0.309,0.989-0.618,1.855-0.928
	c0.432,0.124,0.958,0.434,1.577,0.928c1.422,1.484,3.679,3.588,6.772,6.309c1.731,0.99,4.268,2.567,7.607,4.731
	c0.989,0.681,1.484,1.299,1.484,1.855c0,0.495-0.434,1.145-1.299,1.948c-5.443,5.134-13.607,10.005-24.492,14.611
	c-10.886,4.608-20.009,7.098-27.368,7.469H37.744z"/>
</svg>
