<?xml version="1.0" encoding="utf-8"?>
<!-- Generator: Adobe Illustrator 16.0.2, SVG Export Plug-In . SVG Version: 6.00 Build 0)  -->
<!DOCTYPE svg PUBLIC "-//W3C//DTD SVG 1.1//EN" "http://www.w3.org/Graphics/SVG/1.1/DTD/svg11.dtd">
<svg version="1.1" id="lay" xmlns="http://www.w3.org/2000/svg" xmlns:xlink="http://www.w3.org/1999/xlink" x="0px" y="0px"
	 width="100px" height="220px" viewBox="0 0 100 220" enable-background="new 0 0 100 220" xml:space="preserve">
<path d="M96.897,135.483c0,14.102-4.314,25.544-12.942,34.326c-8.628,8.783-19.962,13.174-34.001,13.174
	c-13.607,0-24.802-4.329-33.584-12.988c-8.783-8.658-13.174-19.791-13.174-33.398c0-14.349,4.205-25.991,12.617-34.93
	c8.411-8.937,19.791-13.405,34.141-13.405c13.977,0,25.295,4.376,33.955,13.127C92.567,110.142,96.897,121.506,96.897,135.483z
	 M71.384,80.376c0,1.176-0.681,1.763-2.041,1.763h-0.742c-8.041-0.804-17.195-3.309-27.461-7.515
	c-10.701-4.453-18.833-9.308-24.399-14.565c-0.928-0.804-1.392-1.484-1.392-2.041c0-0.494,0.464-1.082,1.392-1.763
	c1.793-1.051,4.453-2.69,7.979-4.917c1.484-1.422,3.804-3.525,6.958-6.309c0.371-0.309,0.928-0.618,1.67-0.928
	c5.071,3.711,11.163,8.01,18.276,12.896c7.422,4.268,13.39,7.329,17.905,9.185c1.236,0.495,1.855,1.113,1.855,1.855
	c0,0.681-0.093,1.701-0.278,3.062c-0.186,1.361-0.278,2.382-0.278,3.062c0,0.681,0.093,1.716,0.278,3.107
	S71.384,79.696,71.384,80.376z M66.467,135.483c0-4.886-1.516-9.199-4.546-12.942c-3.031-3.741-6.958-5.612-11.782-5.612
	c-4.887,0-8.906,1.918-12.061,5.752c-2.969,3.588-4.453,7.855-4.453,12.803c0,5.01,1.484,9.309,4.453,12.896
	c3.154,3.835,7.174,5.752,12.061,5.752c4.824,0,8.813-1.917,11.968-5.752C65.013,144.792,66.467,140.493,66.467,135.483z"/>
</svg>
