<?xml version="1.0" encoding="utf-8"?>
<!-- Generator: Adobe Illustrator 16.0.2, SVG Export Plug-In . SVG Version: 6.00 Build 0)  -->
<!DOCTYPE svg PUBLIC "-//W3C//DTD SVG 1.1//EN" "http://www.w3.org/Graphics/SVG/1.1/DTD/svg11.dtd">
<svg version="1.1" id="Layer_1" xmlns="http://www.w3.org/2000/svg" xmlns:xlink="http://www.w3.org/1999/xlink" x="0px" y="0px"
	 width="136px" height="220px" viewBox="0 0 136 220" enable-background="new 0 0 136 220" xml:space="preserve">
<path d="M126.633,179.272c0,1.424-0.928,2.134-2.783,2.134c-1.052,0-2.676-0.093-4.871-0.278c-2.196-0.186-3.85-0.278-4.963-0.278
	c-1.176,0-2.954,0.093-5.334,0.278c-2.382,0.186-4.16,0.278-5.334,0.278c-1.423,0-2.134-0.71-2.134-2.134
	c0-5.566,0.169-13.916,0.51-25.049c0.339-11.133,0.51-19.482,0.51-25.049c0-2.412-0.712-3.804-2.134-4.175
	c-1.855-0.494-12.556-0.742-32.1-0.742c-19.482,0-30.183,0.248-32.1,0.742c-1.361,0.371-2.041,1.763-2.041,4.175
	c0,5.443,0.154,13.638,0.464,24.585c0.309,10.947,0.464,19.144,0.464,24.585c0,2.041-0.774,3.062-2.319,3.062
	c-1.176,0-2.938-0.093-5.288-0.278c-2.351-0.186-4.114-0.278-5.288-0.278c-1.113,0-2.769,0.093-4.963,0.278
	c-2.196,0.186-3.85,0.278-4.963,0.278c-1.547,0-2.319-0.71-2.319-2.134c0-6.803,0.325-17.023,0.974-30.661
	s0.974-23.857,0.974-30.662c0-7.174-0.325-17.951-0.974-32.331S9.646,60.462,9.646,53.286c0-1.359,0.772-2.041,2.319-2.041
	c1.113,0,2.813,0.093,5.103,0.278c2.288,0.186,4.02,0.278,5.195,0.278c1.113,0,2.844-0.093,5.195-0.278
	c2.35-0.186,4.082-0.278,5.195-0.278c1.422,0,2.134,0.557,2.134,1.67c0,5.32-0.232,13.313-0.696,23.982s-0.696,18.663-0.696,23.981
	c0,1.732,0.649,2.783,1.948,3.154c1.545,0.557,12.432,0.835,32.656,0.835c19.791,0,30.615-0.278,32.471-0.835
	c1.422-0.371,2.134-1.7,2.134-3.989c0-5.195-0.171-13.019-0.51-23.472c-0.341-10.451-0.51-18.276-0.51-23.472
	c0-1.236,0.71-1.855,2.134-1.855c1.174,0,2.891,0.093,5.149,0.278c2.257,0.186,3.973,0.278,5.149,0.278
	c1.113,0,2.783-0.093,5.01-0.278s3.896-0.278,5.01-0.278c1.607,0,2.412,0.682,2.412,2.041c0,7.176-0.31,17.952-0.928,32.332
	c-0.619,14.38-0.928,25.157-0.928,32.331c0,6.805,0.339,17.024,1.021,30.662C126.292,162.249,126.633,172.47,126.633,179.272z"/>
</svg>
