<?xml version="1.0" encoding="utf-8"?>
<!-- Generator: Adobe Illustrator 16.0.2, SVG Export Plug-In . SVG Version: 6.00 Build 0)  -->
<!DOCTYPE svg PUBLIC "-//W3C//DTD SVG 1.1//EN" "http://www.w3.org/Graphics/SVG/1.1/DTD/svg11.dtd">
<svg version="1.1" id="Layer_1" xmlns="http://www.w3.org/2000/svg" xmlns:xlink="http://www.w3.org/1999/xlink" x="0px" y="0px"
	 width="150px" height="220px" viewBox="0 0 150 220" enable-background="new 0 0 150 220" xml:space="preserve">
<path d="M140.034,179.087c0,1.547-0.774,2.319-2.319,2.319c-1.113,0-2.799-0.093-5.056-0.278c-2.258-0.186-3.943-0.278-5.056-0.278
	s-2.815,0.093-5.103,0.278c-2.289,0.186-3.989,0.278-5.103,0.278c-1.547,0-2.319-1.021-2.319-3.062
	c0-7.854,0.247-19.636,0.742-35.347c0.494-15.709,0.742-27.491,0.742-35.347c0-1.174-0.248-1.763-0.742-1.763
	c-0.557,0-0.99,0.341-1.299,1.021c-3.154,6.742-10.608,24.74-22.358,53.994c-1.918,5.629-4.67,12.649-8.257,21.06
	c-0.434,0.804-2.66,1.206-6.68,1.206c-5.814,0-9.031-0.526-9.648-1.577c-2.104-5.01-5.103-12.028-8.999-21.06
	c-5.134-12.246-13.02-30.49-23.657-54.736c-0.186-0.432-0.588-0.865-1.206-1.299c-0.496,0.371-0.742,1.053-0.742,2.041
	c0,7.979,0.139,19.946,0.417,35.903s0.417,27.925,0.417,35.903c0,2.041-0.774,3.062-2.319,3.062c-1.052,0-2.66-0.093-4.824-0.278
	c-2.166-0.186-3.773-0.278-4.824-0.278c-1.113,0-2.769,0.093-4.963,0.278c-2.196,0.186-3.85,0.278-4.963,0.278
	c-1.547,0-2.319-0.587-2.319-1.763c0-6.865,0.325-17.146,0.974-30.847c0.649-13.699,0.974-23.982,0.974-30.848
	c0-7.111-0.325-17.796-0.974-32.053c-0.649-14.256-0.974-24.94-0.974-32.054c0-1.174,0.71-1.855,2.134-2.041
	c8.411-1.113,14.751-1.67,19.019-1.67c0.618,0,1.484,1.269,2.598,3.804c14.967,32.904,27.832,62.283,38.594,88.135
	c2.535,6.063,4.05,9.092,4.546,9.092c0.618,0,1.948-2.473,3.989-7.422c8.411-20.039,20.069-49.787,34.976-89.248
	c0.928-2.412,1.948-3.618,3.062-3.618c2.102,0,5.272,0.125,9.509,0.371c4.236,0.248,7.406,0.371,9.509,0.371
	c1.545,0,2.319,0.742,2.319,2.227c0,7.113-0.232,17.798-0.696,32.054c-0.464,14.257-0.696,24.941-0.696,32.053
	c0,6.805,0.262,17.01,0.789,30.615C139.771,162.172,140.034,172.347,140.034,179.087z"/>
</svg>
