<?xml version="1.0" encoding="utf-8"?>
<!-- Generator: Adobe Illustrator 16.0.2, SVG Export Plug-In . SVG Version: 6.00 Build 0)  -->
<!DOCTYPE svg PUBLIC "-//W3C//DTD SVG 1.1//EN" "http://www.w3.org/Graphics/SVG/1.1/DTD/svg11.dtd">
<svg version="1.1" id="Layer_1" xmlns="http://www.w3.org/2000/svg" xmlns:xlink="http://www.w3.org/1999/xlink" x="0px" y="0px"
	 width="112px" height="220px" viewBox="0 0 112 220" enable-background="new 0 0 112 220" xml:space="preserve">
<path d="M109.484,180.664c0,0.496-0.496,0.742-1.484,0.742c-1.176,0-2.969-0.093-5.381-0.278s-4.207-0.278-5.381-0.278
	c-1.299,0-3.232,0.093-5.798,0.278c-2.567,0.186-4.5,0.278-5.798,0.278c-1.423,0-2.505-0.772-3.247-2.319
	c-1.98-4.205-7.607-17.224-16.885-39.058c-0.928-2.227-3.186-3.586-6.772-4.082c-0.805-0.061-3.618-0.093-8.442-0.093
	c-8.535,0-13.607,0.125-15.215,0.371c-1.299,0.186-1.948,1.763-1.948,4.731c0,4.33,0.2,10.809,0.603,19.437
	c0.401,8.628,0.603,15.075,0.603,19.343c0,1.299-0.619,1.948-1.855,1.948c-1.238,0-3.108-0.139-5.613-0.417
	s-4.407-0.418-5.706-0.418c-1.052,0-2.66,0.093-4.824,0.278c-2.166,0.186-3.773,0.278-4.824,0.278c-1.547,0-2.319-0.71-2.319-2.134
	c0-6.865,0.325-17.178,0.974-30.939c0.649-13.761,0.974-24.075,0.974-30.94c0-19.543-0.712-40.387-2.134-62.529l-0.093-1.484
	c-0.063-1.236,1.236-1.855,3.896-1.855c5.318,0,13.281-0.139,23.889-0.417c10.606-0.278,18.539-0.418,23.796-0.418
	c13.73,0,24.739,3.279,33.027,9.834c9.153,7.236,13.73,17.504,13.73,30.801c0,9.154-1.238,16.36-3.711,21.616
	c-2.598,5.566-7.422,10.854-14.473,15.864c-1.176,0.805-1.763,1.577-1.763,2.319c0,0.867,3.695,9.092,11.086,24.678
	C105.788,171.387,109.484,179.676,109.484,180.664z M84.064,96.519c0-11.193-3.217-18.678-9.648-22.451
	c-4.763-2.783-13.329-4.175-25.698-4.175c-10.02,0-15.122,0.805-15.308,2.412c-0.434,3.34-0.649,12.278-0.649,26.812v17.72
	c0.186,0.125,0.587,0.248,1.206,0.371c1.113,0.125,2.937,0.278,5.474,0.464c5.875,0.311,12.214,0.464,19.019,0.464
	C75.529,118.135,84.064,110.931,84.064,96.519z"/>
</svg>
