<?xml version="1.0" encoding="utf-8"?>
<!-- Generator: Adobe Illustrator 16.0.2, SVG Export Plug-In . SVG Version: 6.00 Build 0)  -->
<!DOCTYPE svg PUBLIC "-//W3C//DTD SVG 1.1//EN" "http://www.w3.org/Graphics/SVG/1.1/DTD/svg11.dtd">
<svg version="1.1" id="Layer_1" xmlns="http://www.w3.org/2000/svg" xmlns:xlink="http://www.w3.org/1999/xlink" x="0px" y="0px"
	 width="99px" height="220px" viewBox="0 0 99 220" enable-background="new 0 0 99 220" xml:space="preserve">
<path d="M97.51,161.274c0,8.66-0.464,14.813-1.392,18.462c-0.434,1.793-1.516,2.69-3.247,2.69c-4.578,0-11.443-0.264-20.596-0.788
	c-9.154-0.525-16.02-0.789-20.596-0.789c-4.33,0-10.793,0.093-19.39,0.278c-8.598,0.186-15.061,0.278-19.39,0.278
	c-1.547,0-2.319-0.772-2.319-2.319c0-6.74,0.232-16.915,0.696-30.522c0.464-13.605,0.696-23.811,0.696-30.615
	c0-7.174-0.325-17.92-0.974-32.238c-0.649-14.317-0.974-25.063-0.974-32.239c0-1.359,0.772-2.041,2.319-2.041
	c1.113,0,2.813,0.093,5.103,0.278c2.288,0.186,4.02,0.278,5.195,0.278c1.113,0,2.844-0.093,5.195-0.278
	c2.35-0.186,4.082-0.278,5.195-0.278c1.484,0,2.227,0.589,2.227,1.763c0,6.557-0.248,16.421-0.742,29.595
	c-0.496,13.174-0.742,23.07-0.742,29.688c0,3.217,0,8.104,0,14.658c-0.063,6.557-0.093,11.443-0.093,14.658
	c0,13.73,0.557,20.596,1.67,20.596c22.822,0,40.046-0.557,51.675-1.67c0.557-0.061,1.979-0.278,4.268-0.649
	c1.855-0.371,3.277-0.557,4.268-0.557C96.861,159.512,97.51,160.101,97.51,161.274z"/>
</svg>
