<?xml version="1.0" encoding="utf-8"?>
<!-- Generator: Adobe Illustrator 16.0.2, SVG Export Plug-In . SVG Version: 6.00 Build 0)  -->
<!DOCTYPE svg PUBLIC "-//W3C//DTD SVG 1.1//EN" "http://www.w3.org/Graphics/SVG/1.1/DTD/svg11.dtd">
<svg version="1.1" id="Layer_1" xmlns="http://www.w3.org/2000/svg" xmlns:xlink="http://www.w3.org/1999/xlink" x="0px" y="0px"
	 width="83px" height="220px" viewBox="0 0 83 220" enable-background="new 0 0 83 220" xml:space="preserve">
<path d="M79.305,179.736c0,0.867-0.649,1.454-1.948,1.763c-0.928,0.186-2.258,0.216-3.989,0.093c-2.537-0.124-3.65-0.186-3.34-0.186
	c-4.887,0-7.825-0.557-8.813-1.67c-3.773-5.627-9.525-13.884-17.256-24.771c-1.484-1.979-2.319-2.969-2.505-2.969
	c-0.557,0-4.021,4.731-10.391,14.194c-6.494,9.648-10.422,14.598-11.782,14.844c-1.361,0.248-5.752,0.371-13.174,0.371
	c-1.484,0-2.227-0.557-2.227-1.67v-10.112c0-0.68,4.112-5.998,12.339-15.957c8.225-9.957,12.339-15.431,12.339-16.421
	c0-0.928-4.114-6.339-12.339-16.235C7.993,111.116,3.88,105.673,3.88,104.683v-9.927c0-1.236,0.742-1.855,2.227-1.855
	c1.545,0,3.865,0.125,6.958,0.371c3.092,0.248,5.411,0.371,6.958,0.371c0.865,0,1.638,0.434,2.319,1.299
	c3.648,5.629,9.215,13.916,16.699,24.863c1.484,2.041,2.288,3.062,2.412,3.062c0.186,0,0.865-0.803,2.041-2.412
	c3.586-4.885,9.493-13.513,17.72-25.884c0.618-0.865,1.329-1.299,2.134-1.299c1.545,0,3.834-0.061,6.865-0.186
	c3.03-0.123,5.288-0.186,6.772-0.186c1.545,0,2.319,0.619,2.319,1.855v9.741c0,1.113-4.128,6.619-12.385,16.514
	c-8.257,9.896-12.385,15.34-12.385,16.328c0,0.619,4.128,5.907,12.385,15.864c8.257,9.959,12.385,15.493,12.385,16.606V179.736z"/>
</svg>
