<?xml version="1.0" encoding="utf-8"?>
<!-- Generator: Adobe Illustrator 16.0.2, SVG Export Plug-In . SVG Version: 6.00 Build 0)  -->
<!DOCTYPE svg PUBLIC "-//W3C//DTD SVG 1.1//EN" "http://www.w3.org/Graphics/SVG/1.1/DTD/svg11.dtd">
<svg version="1.1" id="Layer_1" xmlns="http://www.w3.org/2000/svg" xmlns:xlink="http://www.w3.org/1999/xlink" x="0px" y="0px"
	 width="65px" height="220px" viewBox="0 0 65 220" enable-background="new 0 0 65 220" xml:space="preserve">
<path d="M62.167,164.336c0,1.361-0.125,3.217-0.371,5.566c-0.31,2.908-0.496,4.794-0.557,5.659
	c-0.063,1.113-0.155,1.795-0.278,2.041c-0.248,0.434-0.835,0.867-1.763,1.299c-5.072,2.412-13.051,3.618-23.936,3.618
	c-14.473,0-21.709-6.555-21.709-19.668c0-5.256,0.123-13.157,0.371-23.703c0.247-10.545,0.371-18.446,0.371-23.704
	c0-2.535-1.269-3.896-3.804-4.082c-2.289,0-4.546-0.03-6.772-0.093c-1.299-0.309-1.948-2.844-1.948-7.607
	c0-1.793,0.123-3.679,0.371-5.659c0.186-1.484,1.174-2.38,2.969-2.69c1.545,0,3.062-0.03,4.546-0.093
	c2.844-0.123,4.268-1.392,4.268-3.804c0-2.473-0.078-6.246-0.232-11.318c-0.155-5.07-0.232-8.874-0.232-11.411
	c0-4.514,0.865-6.772,2.598-6.772c0.557,0,6.37,0.96,17.441,2.876c1.422,0.186,2.134,0.867,2.134,2.041
	c0,2.723-0.202,6.805-0.603,12.246c-0.403,5.443-0.603,9.525-0.603,12.246c0,1.795,0.835,2.69,2.505,2.69h22.266
	c1.051,0,1.577,0.371,1.577,1.113s-0.109,1.934-0.325,3.572c-0.217,1.64-0.325,2.861-0.325,3.664c0,0.928,0.03,2.352,0.093,4.268
	c0.061,1.918,0.093,3.34,0.093,4.268c0,1.176-0.867,1.763-2.598,1.763c-2.475,0-6.216-0.169-11.226-0.51
	c-5.01-0.34-8.752-0.511-11.226-0.511c-0.496,0-0.867,1.763-1.113,5.288c-0.31,4.393-0.464,10.546-0.464,18.462v13.823
	c0,5.32,0.494,9.031,1.484,11.133c1.484,3.217,4.546,4.824,9.185,4.824c1.917,0,4.731-0.417,8.442-1.252s6.462-1.253,8.257-1.253
	C61.796,162.666,62.167,163.223,62.167,164.336z"/>
</svg>
