<?xml version="1.0" encoding="utf-8"?>
<!-- Generator: Adobe Illustrator 16.0.2, SVG Export Plug-In . SVG Version: 6.00 Build 0)  -->
<!DOCTYPE svg PUBLIC "-//W3C//DTD SVG 1.1//EN" "http://www.w3.org/Graphics/SVG/1.1/DTD/svg11.dtd">
<svg version="1.1" id="Layer_1" xmlns="http://www.w3.org/2000/svg" xmlns:xlink="http://www.w3.org/1999/xlink" x="0px" y="0px"
	 width="170px" height="220px" viewBox="0 0 170 220" enable-background="new 0 0 170 220" xml:space="preserve">
<path d="M164.182,98.745c0,0.496-6.186,13.73-18.555,39.707c-4.145,9.031-10.483,22.514-19.019,40.449
	c-0.805,1.67-1.64,2.505-2.505,2.505h-16.699c-1.176,0-2.134-0.835-2.876-2.505c-4.578-10.762-11.165-27.707-19.761-50.84
	c-4.268,11.381-10.917,28.328-19.946,50.84c-0.681,1.67-1.609,2.505-2.783,2.505H45.432c-0.928,0-1.794-0.835-2.598-2.505
	c-4.268-8.967-10.669-22.451-19.204-40.449c-11.814-24.615-17.72-37.852-17.72-39.707c0-5.07,0.154-12.71,0.464-22.915
	c0.309-10.205,0.464-17.843,0.464-22.915c0-1.113,0.772-1.67,2.319-1.67c1.113,0,2.798,0.093,5.056,0.278
	c2.257,0.186,3.943,0.278,5.056,0.278c1.051,0,2.628-0.061,4.731-0.186c2.102-0.123,3.679-0.186,4.731-0.186
	c1.299,0,1.948,0.464,1.948,1.392c0,5.01-0.294,12.571-0.881,22.684c-0.588,10.112-0.881,17.673-0.881,22.683
	c0,3.154,6.246,17.441,18.74,42.861c4.143,8.412,6.401,12.617,6.772,12.617c0.123-0.061,0.278-0.278,0.464-0.649
	c0.742-1.422,2.319-5.381,4.731-11.875c4.453-12.061,9.029-25.759,13.73-41.099c0.186-1.545,0.278-6.432,0.278-14.658
	c0-3.648-0.109-9.106-0.325-16.374c-0.217-7.267-0.325-12.725-0.325-16.375c0-0.928,0.649-1.392,1.948-1.392
	c1.174,0,2.937,0.093,5.288,0.278c2.35,0.186,4.143,0.278,5.381,0.278c1.051,0,2.628-0.093,4.731-0.278
	c2.102-0.186,3.679-0.278,4.731-0.278c1.422,0,2.134,0.496,2.134,1.484c0,3.896-0.125,9.758-0.371,17.581
	c-0.248,7.824-0.371,13.684-0.371,17.58c0,6.371,0.03,10.237,0.093,11.597c0.186,3.094,4.854,16.669,14.009,40.728
	c0.989,2.723,2.598,6.619,4.824,11.689c0.061,0.248,0.186,0.464,0.371,0.649c0.371,0,2.566-4.112,6.587-12.339
	c12.184-24.924,18.276-38.995,18.276-42.212c0-5.07-0.278-12.647-0.835-22.729c-0.557-10.08-0.835-17.627-0.835-22.637
	c0-0.928,0.247-1.392,0.742-1.392c1.236,0,3.076,0.093,5.52,0.278c2.442,0.186,4.282,0.278,5.52,0.278
	c1.113,0,2.813-0.093,5.103-0.278c2.287-0.186,4.02-0.278,5.195-0.278c1.299,0,2.041,0.371,2.227,1.113c0-0.061,0,0.805,0,2.598
	c0,4.887,0.153,12.186,0.464,21.895C164.027,86.562,164.182,93.86,164.182,98.745z"/>
</svg>
