<?xml version="1.0" encoding="utf-8"?>
<!-- Generator: Adobe Illustrator 16.0.2, SVG Export Plug-In . SVG Version: 6.00 Build 0)  -->
<!DOCTYPE svg PUBLIC "-//W3C//DTD SVG 1.1//EN" "http://www.w3.org/Graphics/SVG/1.1/DTD/svg11.dtd">
<svg version="1.1" id="Layer_1" xmlns="http://www.w3.org/2000/svg" xmlns:xlink="http://www.w3.org/1999/xlink" x="0px" y="0px"
	 width="159px" height="220px" viewBox="0 0 159 220" enable-background="new 0 0 159 220" xml:space="preserve">
<path d="M150.286,177.974c0,2.412-0.712,3.618-2.134,3.618c-0.928,0-2.335-0.093-4.222-0.278s-3.325-0.278-4.313-0.278
	c-1.053,0-2.63,0.063-4.731,0.186c-2.104,0.125-3.681,0.186-4.731,0.186c-1.299,0-1.948-1.452-1.948-4.36
	c0-2.844,0.107-7.097,0.324-12.756s0.325-9.911,0.325-12.757c0-15.646-0.063-24.367-0.186-26.162
	c-0.496-6.369-1.794-10.762-3.896-13.174c-2.412-2.598-6.711-3.896-12.896-3.896c-3.896,0-8.289,1.855-13.174,5.566
	c-5.072,3.896-7.7,7.732-7.886,11.504c-0.248,4.824-0.371,13.638-0.371,26.44c0,3.031,0.123,7.577,0.371,13.638
	c0.247,6.063,0.371,10.608,0.371,13.638c0,1.67-0.557,2.505-1.67,2.505s-2.737-0.093-4.871-0.278s-3.757-0.278-4.871-0.278
	c-0.99,0-2.444,0.063-4.36,0.186c-1.918,0.125-3.372,0.186-4.36,0.186c-1.238,0-1.855-0.896-1.855-2.69
	c0-2.969,0.093-7.437,0.278-13.405c0.186-5.968,0.278-10.438,0.278-13.406v-22.358c0-6.988-0.835-11.968-2.505-14.937
	c-2.351-4.205-6.835-6.309-13.452-6.309c-3.896,0-8.535,1.64-13.916,4.917c-5.938,3.588-8.906,7.206-8.906,10.854v27.09
	c0,3.094,0.03,7.7,0.093,13.823c0.061,6.123,0.093,10.701,0.093,13.73c0,1.795-0.712,2.69-2.134,2.69H11.775
	c-1.238,0-1.855-0.835-1.855-2.505c0-5.01,0.03-12.539,0.093-22.59c0.061-10.05,0.093-17.581,0.093-22.591
	c0-11.318-1.206-22.604-3.618-33.862c-0.186-0.803-0.278-1.452-0.278-1.948c0-0.803,0.278-1.267,0.835-1.392
	c2.288-0.246,5.627-0.71,10.02-1.392c2.041-0.617,5.103-1.299,9.185-2.041l0.742-0.093c0.742,0,1.438,2.181,2.087,6.541
	s1.221,6.54,1.716,6.54l4.639-4.082c3.648-3.154,7.297-5.659,10.947-7.515c5.256-2.721,10.514-4.082,15.771-4.082
	c14.225,0,23.286,5.814,27.183,17.441c3.834-4.947,8.596-9.029,14.287-12.246c6.061-3.463,12.061-5.195,17.998-5.195
	c11.441,0,19.357,3.34,23.75,10.02c3.154,4.949,4.731,12.772,4.731,23.472c0,2.041-0.063,5.195-0.186,9.463
	c-0.125,4.268-0.186,7.422-0.186,9.463c0,3.896,0.093,9.758,0.278,17.581C150.193,168.218,150.286,174.077,150.286,177.974z"/>
</svg>
