<?xml version="1.0" encoding="utf-8"?>
<!-- Generator: Adobe Illustrator 16.0.2, SVG Export Plug-In . SVG Version: 6.00 Build 0)  -->
<!DOCTYPE svg PUBLIC "-//W3C//DTD SVG 1.1//EN" "http://www.w3.org/Graphics/SVG/1.1/DTD/svg11.dtd">
<svg version="1.1" id="Layer_1" xmlns="http://www.w3.org/2000/svg" xmlns:xlink="http://www.w3.org/1999/xlink" x="0px" y="0px"
	 width="98px" height="220px" viewBox="0 0 98 220" enable-background="new 0 0 98 220" xml:space="preserve">
<path d="M90.052,178.159c0,2.289-0.649,3.433-1.948,3.433c-1.918,0-4.824-0.031-8.721-0.093c-3.896-0.063-6.804-0.093-8.721-0.093
	c-1.547,0-2.319-1.021-2.319-3.062c0-2.969,0.107-7.452,0.325-13.452c0.216-5.998,0.325-10.514,0.325-13.545
	c0-2.844-0.109-7.158-0.325-12.941c-0.217-5.782-0.325-10.127-0.325-13.035c0-11.133-5.258-16.699-15.771-16.699
	c-3.402,0-7.855,1.702-13.359,5.103c-5.876,3.65-8.813,6.99-8.813,10.02v55.107c0,1.795-0.649,2.69-1.948,2.69
	c-1.918,0-4.794-0.031-8.628-0.093c-3.835-0.063-6.711-0.093-8.628-0.093c-1.423,0-2.134-0.835-2.134-2.505v-44.81
	c0-7.297-0.403-22.822-1.206-46.572C7.73,80.16,7.206,69.275,6.278,54.863c-0.125-0.742-0.186-1.236-0.186-1.484
	c0-1.051,0.371-1.7,1.113-1.948c1.051-0.371,4.546-0.557,10.483-0.557c1.299,0,3.247-0.231,5.845-0.695s4.483-0.696,5.659-0.696
	c0.803,0,1.206,0.589,1.206,1.763c0,5.814-0.232,14.551-0.696,26.209c-0.464,11.659-0.696,20.396-0.696,26.208
	c0,1.424,0.247,2.166,0.742,2.227c3.154-2.658,7.236-5.875,12.246-9.648c6.061-3.771,12.462-5.659,19.204-5.659
	c11.627,0,19.636,3.465,24.028,10.391c3.154,5.072,4.731,13.113,4.731,24.121c0,1.918-0.046,4.871-0.139,8.86
	s-0.139,6.943-0.139,8.859c0,3.959,0.061,9.866,0.186,17.72C89.99,168.388,90.052,174.263,90.052,178.159z"/>
</svg>
