<?xml version="1.0" encoding="utf-8"?>
<!-- Generator: Adobe Illustrator 16.0.2, SVG Export Plug-In . SVG Version: 6.00 Build 0)  -->
<!DOCTYPE svg PUBLIC "-//W3C//DTD SVG 1.1//EN" "http://www.w3.org/Graphics/SVG/1.1/DTD/svg11.dtd">
<svg version="1.1" id="Layer_1" xmlns="http://www.w3.org/2000/svg" xmlns:xlink="http://www.w3.org/1999/xlink" x="0px" y="0px"
	 width="96px" height="220px" viewBox="0 0 96 220" enable-background="new 0 0 96 220" xml:space="preserve">
<path d="M89.47,119.99c0,8.721-0.278,13.793-0.835,15.215c-0.928,2.783-5.938,10.917-15.029,24.399
	c-9.34,13.793-14.906,21.06-16.699,21.802c-0.867,0.371-3.464,0.557-7.793,0.557c-4.145,0-6.865-0.186-8.164-0.557
	c-1.732-0.557-7.392-7.545-16.978-20.967c-9.34-13.049-14.565-20.997-15.679-23.843c-1.484-3.896-2.227-9.927-2.227-18.091
	c0-2.535,0.061-6.339,0.186-11.411c0.123-5.07,0.186-8.874,0.186-11.411c0-1.359,0.68-2.041,2.041-2.041
	c2.041,0,5.086,0.093,9.138,0.278c4.05,0.186,7.097,0.278,9.138,0.278c1.113,0,1.67,0.619,1.67,1.855
	c0,1.98-0.125,4.902-0.371,8.768c-0.248,3.866-0.371,6.788-0.371,8.767c0,5.691,0.309,10.887,0.928,15.586
	c0.309,2.352,3.447,8.104,9.417,17.256c5.968,9.154,9.663,13.73,11.086,13.73c1.36,0,4.731-4.483,10.112-13.452
	c5.318-8.781,8.164-14.317,8.535-16.606c0.494-3.092,0.742-8.41,0.742-15.957c0-2.041-0.202-5.103-0.603-9.185
	c-0.403-4.082-0.603-7.144-0.603-9.185c0-0.928,0.464-1.392,1.392-1.392c2.041,0,5.04-0.107,8.999-0.324
	c3.958-0.216,6.926-0.325,8.906-0.325C88.51,93.735,89.47,102.488,89.47,119.99z"/>
</svg>
