<?xml version="1.0" encoding="utf-8"?>
<!-- Generator: Adobe Illustrator 16.0.2, SVG Export Plug-In . SVG Version: 6.00 Build 0)  -->
<!DOCTYPE svg PUBLIC "-//W3C//DTD SVG 1.1//EN" "http://www.w3.org/Graphics/SVG/1.1/DTD/svg11.dtd">
<svg version="1.1" id="Layer_1" xmlns="http://www.w3.org/2000/svg" xmlns:xlink="http://www.w3.org/1999/xlink" x="0px" y="0px"
	 width="138px" height="220px" viewBox="0 0 138 220" enable-background="new 0 0 138 220" xml:space="preserve">
<path d="M133.709,114.888c0,11.629-0.649,18.926-1.948,21.895c-1.732,4.082-6.309,12.216-13.73,24.399
	c-8.041,13.174-12.896,19.979-14.565,20.41c-0.496,0.123-2.969,0.186-7.422,0.186c-3.031,0-4.794-0.063-5.288-0.186
	c-1.918-0.494-9.277-11.133-22.08-31.914c-3.525,5.814-7.083,11.659-10.669,17.534c-5.814,9.154-9.525,13.948-11.133,14.38
	c-0.496,0.123-2.537,0.186-6.123,0.186c-3.65,0-5.722-0.063-6.216-0.186c-1.918-0.432-6.772-7.174-14.565-20.225
	c-7.361-12.307-11.814-20.503-13.359-24.585c-1.423-3.711-2.134-11.008-2.134-21.895c0-9.092,0.309-15.308,0.928-18.647
	c0.309-1.359,1.082-2.041,2.319-2.041c1.855,0,4.639,0.063,8.35,0.186c3.711,0.125,6.494,0.186,8.35,0.186
	c1.174,0,1.763,0.96,1.763,2.876c0,1.361-0.063,3.418-0.186,6.17c-0.125,2.753-0.186,4.81-0.186,6.169
	c0,10.762,0.309,18.369,0.928,22.822c0.557,3.896,5.411,12.061,14.565,24.492c1.113,1.484,1.763,2.227,1.948,2.227
	s0.742-0.68,1.67-2.041c8.04-11.689,12.617-19.668,13.73-23.936c0.742-2.969,1.113-9.616,1.113-19.946
	c0-2.102-0.125-5.226-0.371-9.37c-0.248-4.143-0.371-7.236-0.371-9.277c0-1.359,0.557-2.041,1.67-2.041h17.72
	c0.989,0,1.484,0.805,1.484,2.412c0,1.98-0.093,4.964-0.278,8.953s-0.278,6.974-0.278,8.952c0,10.947,0.186,17.272,0.557,18.973
	c0.371,1.701,3.277,6.557,8.721,14.565c5.442,8.01,8.565,12.014,9.37,12.014c0.186,0,0.742-0.742,1.67-2.227
	c7.854-11.936,12.091-19.914,12.71-23.936c0.557-3.34,0.835-8.999,0.835-16.978c0-2.35-0.186-5.735-0.557-10.158
	c-0.371-4.422-0.557-7.592-0.557-9.51c0-0.928,0.618-1.392,1.855-1.392c1.855,0,4.607-0.061,8.257-0.186
	c3.648-0.123,6.401-0.186,8.257-0.186c1.36,0,2.195,0.619,2.505,1.855C133.461,98.281,133.709,104.622,133.709,114.888z"/>
</svg>
