<?xml version="1.0" encoding="utf-8"?>
<!-- Generator: Adobe Illustrator 16.0.2, SVG Export Plug-In . SVG Version: 6.00 Build 0)  -->
<!DOCTYPE svg PUBLIC "-//W3C//DTD SVG 1.1//EN" "http://www.w3.org/Graphics/SVG/1.1/DTD/svg11.dtd">
<svg version="1.1" id="Layer_1" xmlns="http://www.w3.org/2000/svg" xmlns:xlink="http://www.w3.org/1999/xlink" x="0px" y="0px"
	 width="128px" height="220px" viewBox="0 0 128 220" enable-background="new 0 0 128 220" xml:space="preserve">
<path d="M123.097,176.86c0.123,1.361-0.649,2.041-2.319,2.041c-0.928,0-3.17-0.881-6.726-2.644c-3.557-1.763-5.83-3.016-6.819-3.758
	c-11.381,7.732-24.863,11.597-40.449,11.597c-18.184,0-33.152-6.803-44.902-20.41C10.748,150.823,5.182,135.145,5.182,116.65
	c0-18.926,5.474-34.82,16.421-47.686c11.565-13.605,26.626-20.41,45.181-20.41c9.524,0,18.694,2.243,27.507,6.727
	c8.813,4.484,15.848,10.622,21.106,18.415c0.803,1.176,1.206,2.073,1.206,2.69c0,0.867-2.212,3.728-6.633,8.582
	c-4.423,4.855-6.974,7.282-7.654,7.282c-0.496,0-2.382-1.886-5.659-5.659c-3.959-4.576-7.732-8.071-11.318-10.483
	c-5.629-3.771-11.504-5.659-17.627-5.659c-11.689,0-21.277,4.887-28.76,14.658c-6.804,8.906-10.205,19.422-10.205,31.543
	c0,11.814,3.494,22.266,10.483,31.357c7.607,9.834,17.163,14.751,28.667,14.751c11.318,0,21.709-3.092,31.172-9.277
	c-0.125-1.67-0.649-7.545-1.577-17.627c-0.742-7.174-1.113-13.019-1.113-17.534c0-1.051,0.68-1.577,2.041-1.577
	c1.174,0,2.937,0.078,5.288,0.232c2.35,0.155,4.112,0.231,5.288,0.231c1.174,0,2.969-0.061,5.381-0.186
	c2.412-0.123,4.205-0.186,5.381-0.186c1.299,0,1.948,0.99,1.948,2.969c0,2.166-0.078,5.428-0.232,9.788
	c-0.155,4.36-0.232,7.623-0.232,9.787c0,8.906,0.587,20.967,1.763,36.182L123.097,176.86z"/>
</svg>
