<?xml version="1.0" encoding="utf-8"?>
<!-- Generator: Adobe Illustrator 16.0.2, SVG Export Plug-In . SVG Version: 6.00 Build 0)  -->
<!DOCTYPE svg PUBLIC "-//W3C//DTD SVG 1.1//EN" "http://www.w3.org/Graphics/SVG/1.1/DTD/svg11.dtd">
<svg version="1.1" id="Layer_1" xmlns="http://www.w3.org/2000/svg" xmlns:xlink="http://www.w3.org/1999/xlink" x="0px" y="0px"
	 width="90px" height="220px" viewBox="0 0 90 220" enable-background="new 0 0 90 220" xml:space="preserve">
<path d="M87.351,116.836c0,10.453-0.311,16.762-0.928,18.926c-0.805,2.783-8.458,14.922-22.961,36.414
	c-14.505,21.491-23.117,33.505-25.838,36.042c-2.475,2.227-10.453,3.34-23.936,3.34c-1.609,0-2.644-0.171-3.108-0.511
	s-1.516-2.583-3.154-6.726c-1.64-4.145-2.458-6.619-2.458-7.422c0-1.361,1.638-2.041,4.917-2.041c6.926,0,12.028-0.99,15.308-2.969
	c1.113-0.682,2.798-2.815,5.057-6.401c2.257-3.588,3.386-5.998,3.386-7.236c0-1.67-4.485-8.194-13.452-19.575
	c-9.463-12.061-14.751-19.698-15.864-22.915c-0.867-2.535-1.299-8.596-1.299-18.184c0-2.35,0.03-5.891,0.093-10.622
	c0.061-4.731,0.093-8.304,0.093-10.716c0-1.359,0.742-2.041,2.227-2.041c1.979,0,4.901,0.125,8.767,0.371
	c3.865,0.248,6.787,0.371,8.767,0.371c0.988,0,1.484,0.649,1.484,1.948c0,1.732-0.093,4.33-0.278,7.793
	c-0.186,3.465-0.278,6.063-0.278,7.793c0,7.547,0.246,13.174,0.742,16.885c0.371,2.352,3.741,8.196,10.112,17.534
	c6.369,9.34,10.298,14.009,11.782,14.009c1.051,0,4.391-4.593,10.02-13.776c5.627-9.185,8.628-14.858,8.999-17.024
	c0.494-3.092,0.742-8.721,0.742-16.885c0-1.793-0.186-4.437-0.557-7.932c-0.371-3.494-0.557-6.107-0.557-7.84
	c0-1.545,0.494-2.319,1.484-2.319c1.979,0,4.964-0.139,8.952-0.417c3.99-0.278,6.973-0.418,8.953-0.418
	C86.423,94.292,87.351,101.807,87.351,116.836z"/>
</svg>
