<?xml version="1.0" encoding="utf-8"?>
<!-- Generator: Adobe Illustrator 16.0.2, SVG Export Plug-In . SVG Version: 6.00 Build 0)  -->
<!DOCTYPE svg PUBLIC "-//W3C//DTD SVG 1.1//EN" "http://www.w3.org/Graphics/SVG/1.1/DTD/svg11.dtd">
<svg version="1.1" id="Layer_1" xmlns="http://www.w3.org/2000/svg" xmlns:xlink="http://www.w3.org/1999/xlink" x="0px" y="0px"
	 width="102px" height="220px" viewBox="0 0 102 220" enable-background="new 0 0 102 220" xml:space="preserve">
<path d="M99.149,70.264c0,1.176-0.649,1.763-1.948,1.763c-4.824,0-12.742-0.278-23.75-0.835c-10.268-0.494-18.184-0.68-23.75-0.557
	l-6.772,0.093c-4.33,0.063-6.619,0.155-6.865,0.278c-1.238,0.496-1.855,2.444-1.855,5.845v22.358c0,4.207,0.896,6.309,2.69,6.309
	c5.999,0,15.044-0.278,27.136-0.835c12.091-0.557,21.136-0.835,27.136-0.835c1.299,0,1.948,0.496,1.948,1.484
	c0,1.053-0.078,2.614-0.232,4.686c-0.155,2.072-0.232,3.634-0.232,4.685c0,1.113,0.061,2.8,0.186,5.057
	c0.123,2.258,0.186,3.942,0.186,5.056c0,0.742-0.649,1.113-1.948,1.113c-4.268,0-10.747-0.123-19.436-0.371
	c-8.69-0.246-15.2-0.371-19.529-0.371c-7.979,0-12.494,0.063-13.545,0.186c-2.783,0.311-4.175,1.454-4.175,3.433
	c0,5.566,0.154,13.916,0.464,25.049c0.309,11.133,0.464,19.482,0.464,25.049c0,1.855-0.742,2.783-2.227,2.783
	c-1.238,0-3.078-0.139-5.52-0.417c-2.444-0.278-4.314-0.418-5.613-0.418c-1.052,0-2.66,0.093-4.824,0.278
	c-2.166,0.186-3.773,0.278-4.824,0.278c-1.547,0-2.319-0.68-2.319-2.041c0-6.865,0.293-17.193,0.881-30.986
	c0.587-13.791,0.881-24.121,0.881-30.986c0-6.369-0.649-27.09-1.948-62.158v-1.206c-0.063-1.299,0.71-2.041,2.319-2.227
	c0.494,0,4.421,0.093,11.782,0.278c9.709,0.186,18.708,0.218,26.997,0.093c11.194-0.123,25.45-0.742,42.769-1.855
	c2.35-0.186,3.679,0.835,3.989,3.062c-0.063,1.67,0.061,4.207,0.371,7.607C98.778,65.75,99.149,68.842,99.149,70.264z"/>
</svg>
