<?xml version="1.0" encoding="utf-8"?>
<!-- Generator: Adobe Illustrator 16.0.2, SVG Export Plug-In . SVG Version: 6.00 Build 0)  -->
<!DOCTYPE svg PUBLIC "-//W3C//DTD SVG 1.1//EN" "http://www.w3.org/Graphics/SVG/1.1/DTD/svg11.dtd">
<svg version="1.1" id="Layer_1" xmlns="http://www.w3.org/2000/svg" xmlns:xlink="http://www.w3.org/1999/xlink" x="0px" y="0px"
	 width="99px" height="220px" viewBox="0 0 99 220" enable-background="new 0 0 99 220" xml:space="preserve">
<path d="M91.016,179.551c0,1.361-0.619,2.041-1.855,2.041c-2.041,0-5.088-0.031-9.138-0.093c-4.052-0.063-7.097-0.093-9.138-0.093
	c-1.113,0-1.67-0.896-1.67-2.69c0-3.029,0.093-7.638,0.278-13.823c0.186-6.184,0.278-10.822,0.278-13.916
	c0-2.473-0.032-6.169-0.093-11.086c-0.063-4.917-0.093-8.612-0.093-11.087c0-7.051-1.021-12.028-3.062-14.937
	c-2.475-3.463-7.051-5.195-13.73-5.195c-3.093,0-7.392,1.732-12.896,5.195c-5.814,3.65-8.721,6.897-8.721,9.741v55.664
	c0,1.547-0.588,2.319-1.763,2.319c-1.98,0-4.949-0.031-8.906-0.093c-3.959-0.063-6.928-0.093-8.906-0.093
	c-1.299,0-1.948-0.71-1.948-2.134c0-4.885,0.077-12.214,0.232-21.987c0.154-9.771,0.232-17.131,0.232-22.08
	c0-13.174-1.392-25.327-4.175-36.46c-0.186-0.557-0.278-0.958-0.278-1.206c0-0.617,0.401-1.051,1.206-1.299
	c0.432-0.061,3.973-0.633,10.623-1.716C24.141,93.442,27.62,92.9,27.93,92.9c0.371,0,0.618,0.496,0.742,1.484
	c0.309,3.836,1.021,7.7,2.134,11.597c3.215-2.535,7.452-5.689,12.71-9.463c6.494-3.957,12.771-5.938,18.833-5.938
	c11.627,0,19.575,3.372,23.843,10.112c3.154,4.949,4.731,12.958,4.731,24.028c0,1.918-0.046,4.856-0.139,8.813
	c-0.093,3.959-0.139,6.928-0.139,8.906c0,4.145,0.061,10.33,0.186,18.555C90.954,169.223,91.016,175.408,91.016,179.551z"/>
</svg>
