<?xml version="1.0" encoding="utf-8"?>
<!-- Generator: Adobe Illustrator 16.0.2, SVG Export Plug-In . SVG Version: 6.00 Build 0)  -->
<!DOCTYPE svg PUBLIC "-//W3C//DTD SVG 1.1//EN" "http://www.w3.org/Graphics/SVG/1.1/DTD/svg11.dtd">
<svg version="1.1" id="Layer_1" xmlns="http://www.w3.org/2000/svg" xmlns:xlink="http://www.w3.org/1999/xlink" x="0px" y="0px"
	 width="138px" height="220px" viewBox="0 0 138 220" enable-background="new 0 0 138 220" xml:space="preserve">
<path d="M132.318,116.001c0,16.453-4.917,30.986-14.751,43.604c-10.33,13.236-23.441,20.874-39.336,22.915
	c2.288,6.865,6.339,13.081,12.153,18.647c0.371,0.371,0.557,0.772,0.557,1.206c0,1.67-2.104,2.659-6.309,2.969
	c0.061,0-2.722,0-8.35,0c-7.484,0-11.782-0.124-12.896-0.371c-3.154-0.742-4.917-8.288-5.288-22.637
	c-15.771-3.092-28.481-10.947-38.13-23.564c-9.463-12.246-14.194-26.501-14.194-42.769c0-18.121,5.968-33.83,17.905-47.129
	c12.307-13.791,27.429-20.688,45.366-20.688c17.998,0,33.15,6.897,45.459,20.688C126.38,82.171,132.318,97.88,132.318,116.001z
	 M110.145,116.001c0-12.121-3.804-22.637-11.411-31.543c-7.979-9.338-17.937-14.009-29.873-14.009
	c-11.752,0-21.616,4.764-29.595,14.287c-7.484,8.969-11.226,19.482-11.226,31.543c0,12,3.741,22.514,11.226,31.543
	c7.916,9.588,17.781,14.38,29.595,14.38c11.998,0,21.987-4.762,29.966-14.287C106.372,138.886,110.145,128.247,110.145,116.001z"/>
</svg>
