<?xml version="1.0" encoding="utf-8"?>
<!-- Generator: Adobe Illustrator 16.0.2, SVG Export Plug-In . SVG Version: 6.00 Build 0)  -->
<!DOCTYPE svg PUBLIC "-//W3C//DTD SVG 1.1//EN" "http://www.w3.org/Graphics/SVG/1.1/DTD/svg11.dtd">
<svg version="1.1" id="Layer_1" xmlns="http://www.w3.org/2000/svg" xmlns:xlink="http://www.w3.org/1999/xlink" x="0px" y="0px"
	 width="47px" height="220px" viewBox="0 0 47 220" enable-background="new 0 0 47 220" xml:space="preserve">
<path d="M38.699,95.313c0,4.082-0.186,10.222-0.557,18.416c-0.371,8.195-0.557,14.365-0.557,18.508
	c0,4.516,0.061,11.304,0.186,20.364c0.123,9.062,0.186,15.88,0.186,20.456c0,17.813-8.041,29.038-24.121,33.677
	c-4.578,1.36-7.917,2.041-10.02,2.041c-0.989,0-1.607-0.649-1.855-1.948c-0.247-0.866-0.309-2.165-0.186-3.896
	c0.186-2.351,0.278-3.371,0.278-3.062c0-0.805-0.107-2.026-0.325-3.664c-0.216-1.64-0.325-2.83-0.325-3.572
	c0-1.113,0.403-1.763,1.206-1.948c6.184-1.113,10.143-2.505,11.875-4.175c2.102-2.104,3.154-6.276,3.154-12.524
	c0-4.453-0.125-11.101-0.371-19.946c-0.248-8.844-0.371-15.493-0.371-19.946c0-8.781-0.712-21.06-2.134-36.831L14.67,96.24
	c0-0.865,0.557-1.422,1.67-1.67c0.371-0.123,3.741-0.432,10.112-0.928c6.37-0.494,9.957-0.742,10.762-0.742
	C38.203,92.9,38.699,93.705,38.699,95.313z M39.905,70.264c0,7.484-4.33,11.226-12.988,11.226c-3.65,0-6.649-0.928-8.999-2.783
	c-2.598-2.041-3.896-4.854-3.896-8.442c0-3.463,1.299-6.309,3.896-8.535c2.473-2.041,5.474-3.062,8.999-3.062
	s6.524,1.021,8.999,3.062C38.574,63.955,39.905,66.801,39.905,70.264z"/>
</svg>
