<?xml version="1.0" encoding="utf-8"?>
<!-- Generator: Adobe Illustrator 16.0.2, SVG Export Plug-In . SVG Version: 6.00 Build 0)  -->
<!DOCTYPE svg PUBLIC "-//W3C//DTD SVG 1.1//EN" "http://www.w3.org/Graphics/SVG/1.1/DTD/svg11.dtd">
<svg version="1.1" id="Layer_1" xmlns="http://www.w3.org/2000/svg" xmlns:xlink="http://www.w3.org/1999/xlink" x="0px" y="0px"
	 width="105px" height="220px" viewBox="0 0 105 220" enable-background="new 0 0 105 220" xml:space="preserve">
<path d="M98.284,51.987c0,7.979-0.356,19.932-1.067,35.857c-0.712,15.927-1.067,27.848-1.067,35.764
	c0,24.432,0.525,42.924,1.577,55.479l0.093,1.206c0.061,0.619-0.774,1.021-2.505,1.206c-1.176,0.123-2.846,0.123-5.01,0
	c-2.598-0.186-3.804-0.278-3.618-0.278c-0.928,0-2.289,0.093-4.082,0.278c-1.794,0.186-3.154,0.278-4.082,0.278
	c-0.867,0-1.377-2.148-1.531-6.447c-0.155-4.298-0.387-6.479-0.696-6.541c-0.371,0.186-0.835,0.589-1.392,1.206
	c-8.474,9.154-18.215,13.73-29.224,13.73c-12.494,0-22.761-4.762-30.801-14.287c-7.607-8.967-11.411-19.791-11.411-32.471
	c0-13.174,3.834-24.244,11.504-33.213c8.04-9.4,18.523-14.102,31.45-14.102c7.793,0,14.596,2.289,20.41,6.865
	c2.659,2.289,5.288,4.608,7.886,6.958c0.494-0.186,0.742-0.617,0.742-1.299V72.119c0-2.041-0.093-5.133-0.278-9.277
	c-0.186-4.143-0.278-7.267-0.278-9.37c0-1.484,0.494-2.227,1.484-2.227c2.288,0,5.689-0.2,10.205-0.603
	c4.514-0.401,7.886-0.604,10.112-0.604C97.757,50.039,98.284,50.688,98.284,51.987z M75.09,136.411
	c0-7.422-2.289-13.946-6.865-19.575c-4.887-5.998-10.947-8.999-18.184-8.999c-7.607,0-13.886,2.969-18.833,8.906
	c-4.701,5.566-7.051,12.246-7.051,20.039c0,7.422,2.442,13.886,7.329,19.39c5.01,5.814,11.194,8.721,18.555,8.721
	c7.422,0,13.545-2.937,18.369-8.813C72.864,150.575,75.09,144.019,75.09,136.411z"/>
</svg>
