<?xml version="1.0" encoding="utf-8"?>
<!-- Generator: Adobe Illustrator 16.0.2, SVG Export Plug-In . SVG Version: 6.00 Build 0)  -->
<!DOCTYPE svg PUBLIC "-//W3C//DTD SVG 1.1//EN" "http://www.w3.org/Graphics/SVG/1.1/DTD/svg11.dtd">
<svg version="1.1" id="Layer_1" xmlns="http://www.w3.org/2000/svg" xmlns:xlink="http://www.w3.org/1999/xlink" x="0px" y="0px"
	 width="76px" height="220px" viewBox="0 0 76 220" enable-background="new 0 0 76 220" xml:space="preserve">
<path d="M74.042,97.261c0,1.361-0.712,4.393-2.134,9.092c-1.423,4.701-2.412,7.051-2.969,7.051
	c-2.783-1.236-5.583-2.473-8.396-3.711c-2.815-1.236-5.891-1.855-9.231-1.855c-7.607,0-13.948,2.815-19.019,8.442
	c-5.072,5.629-7.607,12.278-7.607,19.946c0,7.547,2.535,14.071,7.607,19.575c5.195,5.691,11.534,8.535,19.019,8.535
	c4.143,0,8.225-1.021,12.246-3.062c4.02-2.041,5.782-3.062,5.288-3.062c0.803,0,1.7,2.598,2.69,7.793
	c0.928,4.701,1.392,7.948,1.392,9.741c0,1.918-3.618,3.804-10.854,5.659c-6.062,1.546-10.546,2.319-13.452,2.319
	c-12.742,0-23.503-4.762-32.285-14.287c-8.598-9.277-12.896-20.348-12.896-33.213c0-13.111,4.205-24.244,12.617-33.398
	c8.658-9.4,19.451-14.102,32.378-14.102c8.658,0,16.575,2.196,23.75,6.587C73.423,96.055,74.042,96.704,74.042,97.261z"/>
</svg>
