<?xml version="1.0" encoding="utf-8"?>
<!-- Generator: Adobe Illustrator 16.0.2, SVG Export Plug-In . SVG Version: 6.00 Build 0)  -->
<!DOCTYPE svg PUBLIC "-//W3C//DTD SVG 1.1//EN" "http://www.w3.org/Graphics/SVG/1.1/DTD/svg11.dtd">
<svg version="1.1" id="Layer_1" xmlns="http://www.w3.org/2000/svg" xmlns:xlink="http://www.w3.org/1999/xlink" x="0px" y="0px"
	 width="41px" height="220px" viewBox="0 0 41 220" enable-background="new 0 0 41 220" xml:space="preserve">
<path d="M32.514,46.729l-0.093,1.206c-1.36,23.008-2.041,48.769-2.041,65.282c0,7.361,0.123,18.387,0.371,33.074
	c0.247,14.689,0.371,25.684,0.371,32.98c0,1.424-0.496,2.133-1.483,2.133H11.918c-1.113,0-1.67-0.709-1.67-2.133
	c0-7.297,0.061-18.291,0.186-32.98c0.123-14.688,0.186-25.713,0.186-33.074c0-6.68-0.325-16.714-0.974-30.104
	C8.996,69.724,8.671,53.72,8.671,47.101c0-1.236,0.649-1.855,1.948-1.855c1.113,0,2.783,0.093,5.01,0.278s3.896,0.278,5.01,0.278
	c1.173,0,2.906-0.093,5.195-0.278c2.288-0.186,3.989-0.278,5.104-0.278C32.051,45.246,32.575,45.741,32.514,46.729z"/>
</svg>
