<?xml version="1.0" encoding="utf-8"?>
<!-- Generator: Adobe Illustrator 16.0.2, SVG Export Plug-In . SVG Version: 6.00 Build 0)  -->
<!DOCTYPE svg PUBLIC "-//W3C//DTD SVG 1.1//EN" "http://www.w3.org/Graphics/SVG/1.1/DTD/svg11.dtd">
<svg version="1.1" id="Layer_1" xmlns="http://www.w3.org/2000/svg" xmlns:xlink="http://www.w3.org/1999/xlink" x="0px" y="0px"
	 width="118px" height="220px" viewBox="0 0 118 220" enable-background="new 0 0 118 220" xml:space="preserve">
<path d="M114.479,99.302c0,14.535-3.928,26.162-11.782,34.883c-8.103,8.969-19.329,13.452-33.677,13.452
	c-3.525,0-8.86-0.139-16.003-0.417s-12.51-0.418-16.096-0.418c-1.98,0-2.969,1.269-2.969,3.804c0,3.279,0.2,8.196,0.603,14.751
	c0.401,6.557,0.603,11.474,0.603,14.751c0,1.053-0.588,1.577-1.763,1.577c-1.299,0-3.263-0.139-5.891-0.417
	c-2.629-0.278-4.592-0.418-5.891-0.418c-1.113,0-2.753,0.093-4.917,0.278c-2.166,0.186-3.773,0.278-4.824,0.278
	c-1.547,0-2.319-0.958-2.319-2.876c0-6.74,0.293-16.915,0.881-30.522c0.587-13.605,0.881-23.811,0.881-30.615
	c0-19.297-0.712-40.016-2.134-62.158l-0.093-1.392c-0.063-1.359,0.742-2.041,2.412-2.041c3.34,0,8.364,0.032,15.076,0.093
	c6.71,0.063,11.766,0.093,15.168,0.093c2.906,0,7.267-0.123,13.081-0.371c5.813-0.246,10.173-0.371,13.081-0.371
	c13.668,0,24.894,4.639,33.677,13.916C110.179,74.253,114.479,85.634,114.479,99.302z M91.1,100.693
	c0-9.277-2.505-16.699-7.515-22.266c-5.195-5.813-12.371-8.721-21.523-8.721c-2.846,0-7.917,0.248-15.215,0.742
	c-8.35,0.496-12.649,0.99-12.896,1.484c-0.434,0.742-0.649,11.381-0.649,31.914c0,2.598,0.077,6.494,0.232,11.689
	c0.154,5.195,0.232,9.092,0.232,11.689c0,0.557,0.68,0.99,2.041,1.299c3.401,0.682,12.833,1.021,28.296,1.021
	c8.658,0,15.4-2.69,20.225-8.071C88.841,116.342,91.1,109.414,91.1,100.693z"/>
</svg>
