<?xml version="1.0" encoding="utf-8"?>
<!-- Generator: Adobe Illustrator 16.0.2, SVG Export Plug-In . SVG Version: 6.00 Build 0)  -->
<!DOCTYPE svg PUBLIC "-//W3C//DTD SVG 1.1//EN" "http://www.w3.org/Graphics/SVG/1.1/DTD/svg11.dtd">
<svg version="1.1" id="Layer_1" xmlns="http://www.w3.org/2000/svg" xmlns:xlink="http://www.w3.org/1999/xlink" x="0px" y="0px"
	 width="138px" height="220px" viewBox="0 0 138 220" enable-background="new 0 0 138 220" xml:space="preserve">
<path d="M132.318,116.279c0,18.369-5.876,34.173-17.627,47.407c-12.246,13.73-27.461,20.596-45.645,20.596
	c-18.246,0-33.461-6.833-45.645-20.503c-11.752-13.174-17.627-29.006-17.627-47.5c0-18.307,5.938-34.108,17.813-47.407
	c12.246-13.791,27.398-20.688,45.459-20.688c18.121,0,33.306,6.897,45.552,20.688C126.411,82.108,132.318,97.91,132.318,116.279z
	 M109.959,116.001c0-12.121-3.773-22.667-11.318-31.636c-7.917-9.523-17.844-14.287-29.78-14.287
	c-11.814,0-21.648,4.824-29.502,14.473c-7.422,9.031-11.133,19.607-11.133,31.729c0,12.061,3.711,22.606,11.133,31.636
	c7.854,9.648,17.688,14.473,29.502,14.473c11.998,0,21.956-4.824,29.873-14.473C106.217,138.886,109.959,128.247,109.959,116.001z"
	/>
</svg>
