<?xml version="1.0" encoding="utf-8"?>
<!-- Generator: Adobe Illustrator 16.0.2, SVG Export Plug-In . SVG Version: 6.00 Build 0)  -->
<!DOCTYPE svg PUBLIC "-//W3C//DTD SVG 1.1//EN" "http://www.w3.org/Graphics/SVG/1.1/DTD/svg11.dtd">
<svg version="1.1" id="Layer_1" xmlns="http://www.w3.org/2000/svg" xmlns:xlink="http://www.w3.org/1999/xlink" x="0px" y="0px"
	 width="113px" height="220px" viewBox="0 0 113 220" enable-background="new 0 0 113 220" xml:space="preserve">
<path d="M112.21,177.046c0,2.908-0.897,4.36-2.69,4.36H88.182c-1.794,0-6.464-6.587-14.009-19.761
	c-6.371-11.133-10.608-19.172-12.71-24.121c-2.104-4.762-3.31-7.422-3.618-7.979c-1.855-3.092-4.021-4.731-6.494-4.917
	c-0.742-0.061-2.815-0.093-6.216-0.093c-7.793,0-11.689,0.96-11.689,2.876c0,5.691,0.2,14.194,0.603,25.513
	c0.401,11.318,0.603,19.793,0.603,25.42c0,2.041-0.774,3.062-2.319,3.062c-1.176,0-2.938-0.093-5.288-0.278
	c-2.351-0.186-4.114-0.278-5.288-0.278c-1.113,0-2.769,0.093-4.963,0.278c-2.196,0.186-3.85,0.278-4.963,0.278
	c-1.547,0-2.319-0.71-2.319-2.134c0-6.803,0.325-17.023,0.974-30.661s0.974-23.857,0.974-30.662c0-7.174-0.325-17.951-0.974-32.331
	S9.51,60.462,9.51,53.286c0-1.359,0.772-2.041,2.319-2.041c1.113,0,2.813,0.093,5.103,0.278c2.288,0.186,4.02,0.278,5.195,0.278
	c1.113,0,2.783-0.093,5.01-0.278s3.896-0.278,5.01-0.278c1.422,0,2.134,0.557,2.134,1.67c0,5.258-0.171,13.174-0.51,23.75
	c-0.341,10.576-0.51,18.524-0.51,23.843c0,2.412,0.154,3.929,0.464,4.546c0.494,1.113,1.763,1.67,3.804,1.67
	c11.998,0,20.781-2.227,26.348-6.68c4.762-3.957,9.277-11.226,13.545-21.802c3.092-8.287,6.184-16.574,9.277-24.863
	c0.432-1.051,1.392-1.763,2.876-2.134c0.989-0.246,4.268-0.371,9.834-0.371c6.803,0,10.205,0.96,10.205,2.876
	c0,1.113-1.423,6.123-4.268,15.029c-3.34,10.391-7.67,19.545-12.988,27.461c-3.525,5.381-8.196,10.794-14.009,16.235
	c-1.484,1.299-2.227,2.475-2.227,3.525c0,1.113,2.505,6.649,7.515,16.606c4.329,8.598,8.257,15.493,11.782,20.688
	c3.896,4.764,9.338,12.093,16.328,21.987C112.055,175.84,112.21,176.429,112.21,177.046z"/>
</svg>
