<?xml version="1.0" encoding="utf-8"?>
<!-- Generator: Adobe Illustrator 16.0.2, SVG Export Plug-In . SVG Version: 6.00 Build 0)  -->
<!DOCTYPE svg PUBLIC "-//W3C//DTD SVG 1.1//EN" "http://www.w3.org/Graphics/SVG/1.1/DTD/svg11.dtd">
<svg version="1.1" id="Layer_1" xmlns="http://www.w3.org/2000/svg" xmlns:xlink="http://www.w3.org/1999/xlink" x="0px" y="0px"
	 width="51px" height="220px" viewBox="0 0 51 220" enable-background="new 0 0 51 220" xml:space="preserve">
<path d="M42.411,53.286c0,6.063-0.232,15.169-0.696,27.322s-0.696,21.261-0.696,27.321c0,2.969,0.03,7.361,0.093,13.174
	c0.061,5.814,0.093,10.175,0.093,13.081c0,13.545-1.238,24.524-3.711,32.935c-3.34,11.381-9.309,20.503-17.905,27.368
	c-1.176,0.928-2.011,1.392-2.505,1.392c-0.434,0-0.928-0.341-1.484-1.021c-4.392-4.948-8.721-9.37-12.988-13.267
	c-0.557-0.494-0.835-0.958-0.835-1.392c0-0.494,0.339-1.051,1.021-1.67c4.205-3.648,7.051-6.369,8.535-8.164
	c2.288-2.969,4.02-6.587,5.195-10.854c1.545-5.689,2.319-17.409,2.319-35.161l-0.093-14.009c0-5.813-0.371-15.183-1.113-28.11
	c-0.742-12.432-1.113-21.802-1.113-28.11c0-1.793,0.896-2.69,2.69-2.69c1.174,0,2.937,0.093,5.288,0.278
	c2.35,0.186,4.112,0.278,5.288,0.278c1.174,0,2.906-0.093,5.195-0.278c2.288-0.186,3.989-0.278,5.103-0.278
	C41.637,51.431,42.411,52.05,42.411,53.286z"/>
</svg>
