<?xml version="1.0" encoding="utf-8"?>
<!-- Generator: Adobe Illustrator 16.0.2, SVG Export Plug-In . SVG Version: 6.00 Build 0)  -->
<!DOCTYPE svg PUBLIC "-//W3C//DTD SVG 1.1//EN" "http://www.w3.org/Graphics/SVG/1.1/DTD/svg11.dtd">
<svg version="1.1" id="Layer_1" xmlns="http://www.w3.org/2000/svg" xmlns:xlink="http://www.w3.org/1999/xlink" x="0px" y="0px"
	 width="104px" height="220px" viewBox="0 0 104 220" enable-background="new 0 0 104 220" xml:space="preserve">
<path d="M100.706,117.764c0,16.082-7.454,26.844-22.358,32.285c0,3.154,6.184,12.988,18.555,29.502c0,0.928-3.093,1.547-9.277,1.855
	c-4.082,0.186-7.144,0.278-9.185,0.278c-4.392,0-7.144-0.928-8.257-2.783c-2.908-4.947-7.484-12.153-13.73-21.616
	c-0.742-1.113-7.454-1.577-20.132-1.392l-3.618,0.093v22.915c0,1.918-0.681,2.876-2.041,2.876c-1.98,0-4.902-0.031-8.767-0.093
	c-3.866-0.063-6.789-0.093-8.767-0.093c-1.361,0-2.041-1.206-2.041-3.618v-57.705c0-7.545-0.294-18.833-0.881-33.862
	C9.617,71.377,9.324,60.091,9.324,52.544c0-1.113,0.587-1.73,1.763-1.855c2.041-0.061,5.133-0.186,9.277-0.371
	c0.865-0.061,2.69-0.278,5.474-0.649c2.227-0.309,4.02-0.464,5.381-0.464c0.865,0,1.299,0.742,1.299,2.227
	c0,3.34-0.155,8.319-0.464,14.937c-0.31,6.619-0.464,11.597-0.464,14.937v23.936c0,1.299,0.278,1.948,0.835,1.948
	c1.484-1.236,3.711-3.062,6.68-5.474c10.391-8.039,20.286-12.061,29.688-12.061c9.153,0,16.637,2.352,22.451,7.051
	C97.552,101.839,100.706,108.857,100.706,117.764z M78.348,122.124c0-8.844-5.722-13.267-17.163-13.267
	c-8.535,0-18.153,5.691-28.853,17.07v13.823c5.01,0.928,11.07,1.392,18.184,1.392c7.174,0,13.297-1.359,18.369-4.082
	C75.193,133.66,78.348,128.681,78.348,122.124z"/>
</svg>
