<?xml version="1.0" encoding="utf-8"?>
<!-- Generator: Adobe Illustrator 16.0.2, SVG Export Plug-In . SVG Version: 6.00 Build 0)  -->
<!DOCTYPE svg PUBLIC "-//W3C//DTD SVG 1.1//EN" "http://www.w3.org/Graphics/SVG/1.1/DTD/svg11.dtd">
<svg version="1.1" id="Layer_1" xmlns="http://www.w3.org/2000/svg" xmlns:xlink="http://www.w3.org/1999/xlink" x="0px" y="0px"
	 width="117px" height="220px" viewBox="0 0 117 220" enable-background="new 0 0 117 220" xml:space="preserve">
<path d="M111.566,97.632c0,2.598-6.062,15.34-18.184,38.223c-7.67,14.287-15.339,28.574-23.008,42.861
	c-0.928,1.795-1.948,2.69-3.062,2.69H48.666c-0.867,0-1.732-0.896-2.598-2.69c-0.186-0.371-7.546-14.225-22.08-41.563
	C11.557,113.714,5.341,100.911,5.341,98.745c0-4.885,0.169-12.229,0.51-22.033c0.339-9.803,0.51-17.147,0.51-22.034
	c0-2.287,0.742-3.433,2.227-3.433c1.174,0,2.891,0.093,5.149,0.278c2.257,0.186,3.973,0.278,5.149,0.278
	c1.113,0,2.813-0.093,5.103-0.278c2.288-0.186,3.989-0.278,5.103-0.278c1.422,0,2.134,0.589,2.134,1.763
	c0,5.01-0.325,12.557-0.974,22.637c-0.649,10.082-0.974,17.659-0.974,22.729c0,4.207,9.586,22.947,28.76,56.221
	c5.071-8.658,10.576-18.585,16.514-29.78c8.596-16.203,12.896-25.729,12.896-28.574c0-4.824-0.155-12.028-0.464-21.616
	c-0.31-9.586-0.464-16.76-0.464-21.523c0-1.236,0.68-1.855,2.041-1.855c1.174,0,2.906,0.093,5.195,0.278
	c2.288,0.186,3.989,0.278,5.103,0.278s2.798-0.093,5.056-0.278c2.257-0.186,3.943-0.278,5.056-0.278c1.36,0,2.134,0.589,2.319,1.763
	c-0.063-0.432-0.093,0.742-0.093,3.525c0,4.578,0.061,11.428,0.186,20.55C111.504,86.206,111.566,93.056,111.566,97.632z"/>
</svg>
