<?xml version="1.0" encoding="utf-8"?>
<!-- Generator: Adobe Illustrator 16.0.2, SVG Export Plug-In . SVG Version: 6.00 Build 0)  -->
<!DOCTYPE svg PUBLIC "-//W3C//DTD SVG 1.1//EN" "http://www.w3.org/Graphics/SVG/1.1/DTD/svg11.dtd">
<svg version="1.1" id="Layer_1" xmlns="http://www.w3.org/2000/svg" xmlns:xlink="http://www.w3.org/1999/xlink" x="0px" y="0px"
	 width="79px" height="220px" viewBox="0 0 79 220" enable-background="new 0 0 79 220" xml:space="preserve">
<path d="M77.815,163.779c0,0.311-0.464,2.505-1.392,6.587c-0.99,4.393-1.547,7.113-1.67,8.164c-0.248,2.166-0.805,3.247-1.67,3.247
	c-2.166,0-5.072-0.124-8.721-0.371c-4.145-0.309-7.021-0.494-8.628-0.557c-4.145-0.123-10.082-0.186-17.813-0.186
	c-6,0-12.649,0.248-19.946,0.742c-9.154,0.618-13.081,0.928-11.782,0.928c-1.299,0-2.134-0.557-2.505-1.67
	c-0.867-2.969-1.299-6.432-1.299-10.391c0-0.557,0.03-1.345,0.093-2.365c0.061-1.021,0.093-1.777,0.093-2.273
	c0-0.865,0.664-1.901,1.995-3.107c1.329-1.206,7.932-8.211,19.807-21.014c5.999-6.246,14.503-15.864,25.513-28.853H8.978
	c-0.99,0-1.484-0.649-1.484-1.948c0-1.793,0.386-4.468,1.16-8.024c0.772-3.556,1.16-6.2,1.16-7.933c0-0.742,0.865-1.113,2.598-1.113
	c3.463,0,8.628,0.155,15.493,0.464c6.865,0.311,12.029,0.464,15.493,0.464c16.946,0,26.501,0.125,28.667,0.371
	c1.545,0.186,2.319,0.835,2.319,1.948c0,9.34-0.371,14.598-1.113,15.771c-0.619,0.867-5.969,6.958-16.05,18.276
	c-6.494,7.361-16.298,18.309-29.409,32.842c20.596-0.557,36.553-0.835,47.871-0.835C77.104,162.944,77.815,163.223,77.815,163.779z"
	/>
</svg>
