<?xml version="1.0" encoding="utf-8"?>
<!-- Generator: Adobe Illustrator 16.0.2, SVG Export Plug-In . SVG Version: 6.00 Build 0)  -->
<!DOCTYPE svg PUBLIC "-//W3C//DTD SVG 1.1//EN" "http://www.w3.org/Graphics/SVG/1.1/DTD/svg11.dtd">
<svg version="1.1" id="Layer_1" xmlns="http://www.w3.org/2000/svg" xmlns:xlink="http://www.w3.org/1999/xlink" x="0px" y="0px"
	 width="109px" height="220px" viewBox="0 0 109 220" enable-background="new 0 0 109 220" xml:space="preserve">
<path d="M104.134,180.293c0,0.742-0.681,1.113-2.041,1.113l-14.937,0.093c-0.742,0-1.145-0.031-1.206-0.093
	c-0.928-0.309-6.262-8.009-16.003-23.101c-9.741-15.09-14.767-22.667-15.076-22.729c-1.113,0.805-6.587,8.753-16.421,23.843
	c-9.463,14.658-14.658,21.987-15.586,21.987h-15.4c-1.423,0-2.134-0.494-2.134-1.484v-13.359c0-1.174,5.813-9.478,17.441-24.909
	c11.627-15.431,17.441-23.765,17.441-25.003c0-1.359-5.784-9.834-17.349-25.42C11.298,75.645,5.516,67.388,5.516,66.46V52.173
	c0-0.865,0.835-1.299,2.505-1.299c1.731,0,4.329,0.063,7.793,0.186c3.463,0.125,6.061,0.186,7.793,0.186
	c0.309,0,1.453,1.424,3.433,4.268c5.813,9.154,14.596,22.822,26.348,41.006c0.309,0.434,0.835,0.897,1.577,1.392
	c0.865-0.432,6.216-8.38,16.05-23.843c9.709-15.215,14.998-22.822,15.864-22.822h14.658c1.607,0,2.412,0.434,2.412,1.299v14.287
	c0,1.547-5.768,9.989-17.302,25.327c-11.536,15.34-17.302,23.411-17.302,24.214c0,0.99,5.798,9.387,17.395,25.188
	c11.597,15.803,17.395,24.26,17.395,25.373V180.293z"/>
</svg>
