<?xml version="1.0" encoding="utf-8"?>
<!-- Generator: Adobe Illustrator 16.0.2, SVG Export Plug-In . SVG Version: 6.00 Build 0)  -->
<!DOCTYPE svg PUBLIC "-//W3C//DTD SVG 1.1//EN" "http://www.w3.org/Graphics/SVG/1.1/DTD/svg11.dtd">
<svg version="1.1" id="Layer_1" xmlns="http://www.w3.org/2000/svg" xmlns:xlink="http://www.w3.org/1999/xlink" x="0px" y="0px"
	 width="58px" height="220px" viewBox="0 0 58 220" enable-background="new 0 0 58 220" xml:space="preserve">
<path d="M56.646,62.471c0,0.742-0.557,1.176-1.67,1.299c-3.031,0.311-6.03,0.589-8.999,0.835c-3.525,0.496-6.216,1.732-8.071,3.711
	c-3.031,3.279-4.546,11.597-4.546,24.956c2.041,0,5.256,0.063,9.648,0.186c4.391,0.125,7.7,0.186,9.927,0.186
	c1.484,0,2.227,0.557,2.227,1.67c0,1.732,0.061,4.314,0.186,7.747c0.123,3.433,0.186,5.983,0.186,7.653
	c0,1.176-0.619,1.763-1.855,1.763c-2.166,0-5.443-0.107-9.834-0.324c-4.393-0.216-7.64-0.325-9.741-0.325v27.739
	c0,4.33,0.153,10.887,0.464,19.668c0.309,8.783,0.464,15.34,0.464,19.668c0,1.67-0.619,2.505-1.855,2.505H16.196
	c-1.609,0-2.412-0.958-2.412-2.876v-63.828c0-1.67-1.888-2.473-5.659-2.412c-4.082,0.063-6.248-0.093-6.494-0.464
	c-0.186-0.186-0.278-1.329-0.278-3.433c0-1.359-0.063-3.386-0.186-6.076c-0.125-2.69-0.186-4.716-0.186-6.077
	c0-1.299,3.927-2.164,11.782-2.598c-0.186-3.957-0.278-7.174-0.278-9.648c0-10.947,1.948-18.956,5.845-24.028
	c3.463-4.576,8.535-8.164,15.215-10.762c5.998-2.35,12.214-3.525,18.647-3.525c0.617,0,1.051,0.341,1.299,1.021
	c0.061,0.125,0.603,2.737,1.623,7.84S56.646,62.285,56.646,62.471z"/>
</svg>
