<?xml version="1.0" encoding="utf-8"?>
<!-- Generator: Adobe Illustrator 16.0.2, SVG Export Plug-In . SVG Version: 6.00 Build 0)  -->
<!DOCTYPE svg PUBLIC "-//W3C//DTD SVG 1.1//EN" "http://www.w3.org/Graphics/SVG/1.1/DTD/svg11.dtd">
<svg version="1.1" id="Layer_1" xmlns="http://www.w3.org/2000/svg" xmlns:xlink="http://www.w3.org/1999/xlink" x="0px" y="0px"
	 width="45px" height="220px" viewBox="0 0 45 220" enable-background="new 0 0 45 220" xml:space="preserve">
<path d="M35.164,179.458c0,1.299-0.897,1.948-2.69,1.948c-1.113,0-2.815-0.093-5.103-0.278c-2.289-0.186-3.989-0.278-5.103-0.278
	c-1.176,0-2.908,0.093-5.195,0.278c-2.289,0.186-3.989,0.278-5.103,0.278c-1.547,0-2.319-0.71-2.319-2.134
	c0-7.051,0.325-17.673,0.974-31.867s0.974-24.848,0.974-31.961c0-6.865-0.325-17.178-0.974-30.939
	C9.976,70.744,9.651,60.43,9.651,53.564c0-1.545,0.71-2.319,2.134-2.319c1.174,0,2.969,0.093,5.381,0.278s4.236,0.278,5.474,0.278
	c1.113,0,2.783-0.093,5.01-0.278s3.896-0.278,5.01-0.278c1.607,0,2.412,0.619,2.412,1.855c0,6.928-0.248,17.318-0.742,31.172
	c-0.496,13.855-0.742,24.246-0.742,31.172c0,7.113,0.262,17.782,0.789,32.007C34.9,161.678,35.164,172.347,35.164,179.458z"/>
</svg>
