<?xml version="1.0" encoding="utf-8"?>
<!-- Generator: Adobe Illustrator 16.0.2, SVG Export Plug-In . SVG Version: 6.00 Build 0)  -->
<!DOCTYPE svg PUBLIC "-//W3C//DTD SVG 1.1//EN" "http://www.w3.org/Graphics/SVG/1.1/DTD/svg11.dtd">
<svg version="1.1" id="Layer_1" xmlns="http://www.w3.org/2000/svg" xmlns:xlink="http://www.w3.org/1999/xlink" x="0px" y="0px"
	 width="56px" height="220px" viewBox="0 0 56 220" enable-background="new 0 0 56 220" xml:space="preserve">
<path d="M52.492,152.832c0,9.217-3.681,16.606-11.04,22.173c-6.68,5.072-14.813,7.607-24.399,7.607
	c-3.711,0-5.814-0.093-6.309-0.278c-1.052-0.495-1.577-2.009-1.577-4.546c0-1.359-0.171-3.4-0.51-6.123
	c-0.341-2.721-0.51-4.731-0.51-6.03c0-0.803,0.557-1.329,1.67-1.577c0.803-0.186,1.948-0.186,3.433,0
	c1.917,0.186,2.844,0.278,2.783,0.278c11.689,0,17.534-3.586,17.534-10.762c0-3.4-2.567-6.524-7.7-9.37
	c-8.35-4.576-13.144-7.39-14.38-8.442c-5.134-4.391-7.7-10.143-7.7-17.256c0-9.277,3.494-16.514,10.483-21.709
	c6.309-4.639,14.287-6.958,23.936-6.958c0.865,0,1.499,0.403,1.902,1.206c0.401,0.805,1.174,3.31,2.319,7.515
	c1.144,4.207,1.716,6.742,1.716,7.607c0,0.682-0.588,1.113-1.763,1.299c-3.959,0.557-7.948,1.083-11.968,1.577
	c-4.763,1.299-7.144,3.896-7.144,7.793c0,2.783,2.505,5.599,7.515,8.442c7.422,4.145,12.122,7.144,14.102,8.999
	C49.956,139.102,52.492,145.287,52.492,152.832z"/>
</svg>
