<?xml version="1.0" encoding="utf-8"?>
<!-- Generator: Adobe Illustrator 16.0.2, SVG Export Plug-In . SVG Version: 6.00 Build 0)  -->
<!DOCTYPE svg PUBLIC "-//W3C//DTD SVG 1.1//EN" "http://www.w3.org/Graphics/SVG/1.1/DTD/svg11.dtd">
<svg version="1.1" id="Layer_1" xmlns="http://www.w3.org/2000/svg" xmlns:xlink="http://www.w3.org/1999/xlink" x="0px" y="0px"
	 width="96px" height="220px" viewBox="0 0 96 220" enable-background="new 0 0 96 220" xml:space="preserve">
<path d="M90.583,160.161c0,2.166-0.403,5.474-1.206,9.927c-0.805,4.453-1.206,7.793-1.206,10.02c0,1.36-0.742,2.041-2.227,2.041
	c-3.711,0-9.231-0.124-16.56-0.371c-7.329-0.248-12.849-0.371-16.56-0.371H8.757c-1.732,0-2.753-0.617-3.062-1.855
	c-1.361-6.926-2.041-12.091-2.041-15.493c0-0.68,9.417-15.817,28.25-45.412s28.25-45.135,28.25-46.619
	c0-0.68-0.774-1.021-2.319-1.021H8.386c-1.238,0-1.855-0.617-1.855-1.855c0-0.494,0.448-3.308,1.345-8.442
	c0.896-5.133,1.453-8.117,1.67-8.952c0.216-0.835,0.942-1.253,2.18-1.253c2.412,0,5.984,0.218,10.715,0.649
	c4.731,0.434,8.271,0.649,10.623,0.649h52.139c1.113,0,1.793,0.526,2.041,1.577c0.928,3.773,1.392,8.382,1.392,13.823
	c0,0.371-9.788,15.927-29.363,46.665c-19.575,30.74-29.395,46.572-29.456,47.5c0.309,0.434,0.896,0.649,1.763,0.649
	c17.936,0,31.666-0.371,41.191-1.113c1.236-0.123,4.02-0.464,8.35-1.021c3.525-0.494,6.277-0.742,8.257-0.742
	C90.18,159.141,90.583,159.481,90.583,160.161z"/>
</svg>
