<?xml version="1.0" encoding="utf-8"?>
<!-- Generator: Adobe Illustrator 16.0.2, SVG Export Plug-In . SVG Version: 6.00 Build 0)  -->
<!DOCTYPE svg PUBLIC "-//W3C//DTD SVG 1.1//EN" "http://www.w3.org/Graphics/SVG/1.1/DTD/svg11.dtd">
<svg version="1.1" id="Layer_1" xmlns="http://www.w3.org/2000/svg" xmlns:xlink="http://www.w3.org/1999/xlink" x="0px" y="0px"
	 width="98px" height="220px" viewBox="0 0 98 220" enable-background="new 0 0 98 220" xml:space="preserve">
<path d="M96.175,68.779c0,1.609-0.557,2.412-1.67,2.412c-1.732,0-12.68-0.371-32.842-1.113c-0.557,18.865-0.835,33.987-0.835,45.366
	c0,7.113,0.262,17.782,0.789,32.007c0.525,14.227,0.789,24.896,0.789,32.007c0,1.299-0.897,1.948-2.69,1.948
	c-1.113,0-2.815-0.093-5.103-0.278c-2.289-0.186-4.021-0.278-5.195-0.278c-1.113,0-2.815,0.093-5.103,0.278
	c-2.289,0.186-3.989,0.278-5.103,0.278c-1.547,0-2.319-0.772-2.319-2.319c0-7.051,0.293-17.642,0.881-31.774
	c0.587-14.132,0.881-24.755,0.881-31.868c0-11.008-0.341-26.13-1.021-45.366c-15.957,0.99-27.646,1.484-35.068,1.484
	c-0.742,0-1.113-0.309-1.113-0.928c0-1.113,0.278-2.721,0.835-4.824c0.68-2.721,1.082-4.328,1.206-4.824
	c0.123-2.164,0.557-5.163,1.299-8.999c0.309-0.803,0.835-1.206,1.577-1.206l1.113,0.093c21.895,1.299,36.335,1.948,43.325,1.948
	c6.184,0,16.296-0.464,30.337-1.392c9.586-0.617,13.575-0.928,11.968-0.928c1.607,0,2.505,0.557,2.69,1.67
	c-0.125-0.68-0.186,2.319-0.186,8.999c0,0.805,0.093,2.058,0.278,3.758C96.083,66.631,96.175,67.914,96.175,68.779z"/>
</svg>
