<?xml version="1.0" encoding="utf-8"?>
<!-- Generator: Adobe Illustrator 16.0.2, SVG Export Plug-In . SVG Version: 6.00 Build 0)  -->
<!DOCTYPE svg PUBLIC "-//W3C//DTD SVG 1.1//EN" "http://www.w3.org/Graphics/SVG/1.1/DTD/svg11.dtd">
<svg version="1.1" id="Layer_1" xmlns="http://www.w3.org/2000/svg" xmlns:xlink="http://www.w3.org/1999/xlink" x="0px" y="0px"
	 width="88px" height="220px" viewBox="0 0 88 220" enable-background="new 0 0 88 220" xml:space="preserve">
<path d="M83.614,60.615c-1.238,2.041-2.938,5.135-5.103,9.277c-0.681,1.918-1.887,4.639-3.618,8.164
	c-0.371,0.557-0.867,0.835-1.484,0.835c0.061,0-2.922-1.097-8.953-3.293c-6.03-2.195-10.994-3.294-14.89-3.294
	c-11.381,0-17.07,5.01-17.07,15.029c0,5.566,3.989,10.423,11.968,14.565c13.42,6.99,20.842,11.01,22.266,12.061
	c7.979,6.371,11.968,14.969,11.968,25.791c0,13.855-5.474,24.771-16.421,32.749c-9.834,7.176-21.926,10.762-36.274,10.762
	c-6.68,0-10.268-0.742-10.762-2.227c-0.248-2.35-0.805-5.782-1.67-10.298c-0.496-1.855-1.269-4.639-2.319-8.35
	c-0.186-0.557-0.278-1.081-0.278-1.577c0-0.865,0.464-1.299,1.392-1.299c1.484,0,3.757,0.155,6.819,0.464
	c3.062,0.311,5.365,0.464,6.912,0.464c19.172,0,28.76-6.184,28.76-18.555c0-6.061-3.866-11.318-11.597-15.771
	c-14.102-8.039-21.308-12.214-21.616-12.524c-7.793-6.309-11.689-14.781-11.689-25.42c0-11.504,3.772-20.719,11.318-27.646
	c7.359-6.68,16.885-10.02,28.574-10.02c4.947,0,10.637,0.805,17.07,2.412c6.988,1.795,12.246,3.959,15.771,6.494
	C82.995,59.657,83.304,60.059,83.614,60.615z"/>
</svg>
