<?xml version="1.0" encoding="utf-8"?>
<!-- Generator: Adobe Illustrator 16.0.2, SVG Export Plug-In . SVG Version: 6.00 Build 0)  -->
<!DOCTYPE svg PUBLIC "-//W3C//DTD SVG 1.1//EN" "http://www.w3.org/Graphics/SVG/1.1/DTD/svg11.dtd">
<svg version="1.1" id="Layer_1" xmlns="http://www.w3.org/2000/svg" xmlns:xlink="http://www.w3.org/1999/xlink" x="0px" y="0px"
	 width="116px" height="220px" viewBox="0 0 116 220" enable-background="new 0 0 116 220" xml:space="preserve">
<path d="M109.814,141.328c0,10.762-3.247,20.009-9.741,27.739c-6.865,8.104-15.586,12.153-26.162,12.153
	c-3.959,0-9.912-0.093-17.859-0.278c-7.948-0.186-13.901-0.278-17.859-0.278c-2.908,0-7.283,0.125-13.127,0.371
	c-5.845,0.248-10.221,0.371-13.127,0.371c-1.547,0-2.319-0.71-2.319-2.134c0-6.803,0.325-17.023,0.974-30.661
	s0.974-23.857,0.974-30.662c0-7.174-0.325-17.951-0.974-32.331S9.619,60.462,9.619,53.286c0-1.359,0.772-2.041,2.319-2.041
	c5.504,0,13.792,0.032,24.863,0.093c11.07,0.063,19.39,0.093,24.956,0.093c12.988,0,23.347,2.412,31.079,7.236
	c9.4,5.877,14.102,14.999,14.102,27.368c0,4.268-1.238,8.706-3.711,13.313c-2.475,4.608-5.474,8.087-8.999,10.437
	c-1.794,1.176-2.69,1.948-2.69,2.319s0.896,1.053,2.69,2.041c4.7,2.598,8.473,6.418,11.318,11.458
	C108.391,130.645,109.814,135.887,109.814,141.328z M83.745,88.076c0-8.721-3.896-14.596-11.689-17.627
	c-4.701-1.793-12.401-2.69-23.101-2.69c-10.391,0-15.586,0.774-15.586,2.319c0,2.041-0.093,5.103-0.278,9.185
	s-0.278,7.176-0.278,9.277c0,1.424,0.03,3.618,0.093,6.587c0.061,2.969,0.093,5.195,0.093,6.68c0,1.795,6.988,2.69,20.967,2.69
	C73.818,104.497,83.745,99.023,83.745,88.076z M86.25,140.4c0-7.545-3.372-12.647-10.112-15.308
	c-4.268-1.73-10.917-2.598-19.946-2.598c-15.586,0-23.379,0.835-23.379,2.505v15.215c0,2.227,0.061,5.629,0.186,10.205
	c0.123,4.578,0.186,8.011,0.186,10.298c0,0.619,1.979,1.083,5.938,1.392c3.958,0.311,9.834,0.464,17.627,0.464
	c9.771,0,16.792-1.267,21.06-3.804C83.435,155.43,86.25,149.307,86.25,140.4z"/>
</svg>
