<?xml version="1.0" encoding="utf-8"?>
<!-- Generator: Adobe Illustrator 16.0.2, SVG Export Plug-In . SVG Version: 6.00 Build 0)  -->
<!DOCTYPE svg PUBLIC "-//W3C//DTD SVG 1.1//EN" "http://www.w3.org/Graphics/SVG/1.1/DTD/svg11.dtd">
<svg version="1.1" id="Layer_1" xmlns="http://www.w3.org/2000/svg" xmlns:xlink="http://www.w3.org/1999/xlink" x="0px" y="0px"
	 width="107px" height="220px" viewBox="0 0 107 220" enable-background="new 0 0 107 220" xml:space="preserve">
<path d="M99.933,93.55c0,0.248-0.093,0.835-0.278,1.763c-2.289,11.752-3.433,29.441-3.433,53.066c0,6.494,0.2,16.268,0.603,29.316
	c0.401,13.05,0.603,22.822,0.603,29.316c0,1.546-0.649,2.319-1.948,2.319c-2.041,0-5.088,0.107-9.138,0.325
	c-4.052,0.216-7.067,0.324-9.045,0.324c-0.681,0-1.021-0.712-1.021-2.134v-36.738c0-0.988-0.217-1.484-0.649-1.484
	c-0.557,0.248-1.145,0.742-1.763,1.484c-7.051,8.412-16.05,12.617-26.997,12.617c-11.875,0-21.864-4.947-29.966-14.844
	c-7.67-9.277-11.504-19.977-11.504-32.1c0-12.74,3.679-23.688,11.04-32.842c7.854-9.771,17.998-14.658,30.43-14.658
	c8.782,0,16.143,2.259,22.08,6.772c2.412,2.352,4.854,4.701,7.329,7.051c0.371-0.123,0.557-4.268,0.557-12.432
	c0-0.557,0.525-0.835,1.577-0.835c5.01,0,11.782,0.805,20.317,2.412C99.53,92.437,99.933,92.87,99.933,93.55z M76.461,136.226
	c0-7.916-2.134-14.596-6.401-20.039c-4.639-5.938-10.793-8.906-18.462-8.906c-7.361,0-13.484,2.969-18.369,8.906
	c-4.578,5.566-6.865,12.093-6.865,19.575c0,7.732,2.35,14.35,7.051,19.854c4.947,5.814,11.194,8.721,18.74,8.721
	c7.73,0,13.823-2.813,18.276-8.442C74.451,150.698,76.461,144.144,76.461,136.226z"/>
</svg>
