<?xml version="1.0" encoding="utf-8"?>
<!-- Generator: Adobe Illustrator 16.0.2, SVG Export Plug-In . SVG Version: 6.00 Build 0)  -->
<!DOCTYPE svg PUBLIC "-//W3C//DTD SVG 1.1//EN" "http://www.w3.org/Graphics/SVG/1.1/DTD/svg11.dtd">
<svg version="1.1" id="Layer_1" xmlns="http://www.w3.org/2000/svg" xmlns:xlink="http://www.w3.org/1999/xlink" x="0px" y="0px"
	 width="107px" height="220px" viewBox="0 0 107 220" enable-background="new 0 0 107 220" xml:space="preserve">
<path d="M102.16,136.782c0,12.494-3.959,23.349-11.875,32.563c-8.289,9.711-18.586,14.565-30.894,14.565
	c-7.67,0-14.38-2.382-20.132-7.144c-2.598-2.412-5.195-4.854-7.793-7.329c-0.371,0.186-0.619,0.682-0.742,1.484
	c-0.063,0.371-0.093,3.836-0.093,10.391l-0.093,26.162c0,1.979-0.712,2.969-2.134,2.969c-9.525,0-15.154-0.124-16.885-0.371
	c-1.423-0.186-2.134-0.99-2.134-2.412c0-7.917,0.061-19.792,0.186-35.625c0.123-15.832,0.186-27.707,0.186-35.625
	c0-14.533-0.928-28.171-2.783-40.913c-0.125-0.742-0.186-1.236-0.186-1.484c0-0.68,0.309-1.113,0.928-1.299
	c2.35-0.123,5.782-0.464,10.298-1.021c6.061-1.113,9.463-1.67,10.205-1.67c1.051,0,1.731,1.855,2.041,5.566
	c0.186,2.475,0.339,4.917,0.464,7.329c0,0.496,0.186,0.99,0.557,1.484c0.432-0.246,0.928-0.68,1.484-1.299
	c8.658-8.844,17.41-13.267,26.255-13.267c12.246,0,22.574,4.794,30.986,14.38C98.108,113.436,102.16,124.29,102.16,136.782z
	 M80.451,136.411c0-7.422-2.319-13.946-6.958-19.575c-4.887-5.998-10.979-8.999-18.276-8.999c-7.175,0-13.051,3.094-17.627,9.277
	c-4.207,5.566-6.309,12.061-6.309,19.482c0,7.547,2.164,14.102,6.494,19.668c4.762,6,10.823,8.999,18.184,8.999
	c7.051,0,12.988-3.122,17.813-9.37C78.224,150.081,80.451,143.587,80.451,136.411z"/>
</svg>
