<?xml version="1.0" encoding="utf-8"?>
<!-- Generator: Adobe Illustrator 16.0.2, SVG Export Plug-In . SVG Version: 6.00 Build 0)  -->
<!DOCTYPE svg PUBLIC "-//W3C//DTD SVG 1.1//EN" "http://www.w3.org/Graphics/SVG/1.1/DTD/svg11.dtd">
<svg version="1.1" id="Layer_1" xmlns="http://www.w3.org/2000/svg" xmlns:xlink="http://www.w3.org/1999/xlink" x="0px" y="0px"
	 width="125px" height="220px" viewBox="0 0 125 220" enable-background="new 0 0 125 220" xml:space="preserve">
<path d="M115.752,53.286c0,7.176-0.294,17.922-0.881,32.239c-0.588,14.318-0.881,25.064-0.881,32.238
	c0,2.352,0.03,5.861,0.093,10.53c0.061,4.67,0.093,8.149,0.093,10.437c0,12.928-1.206,21.895-3.618,26.904
	c-3.711,7.67-10.917,12.865-21.616,15.586c-6.557,1.67-15.803,2.505-27.739,2.505c-21.648,0-35.842-3.586-42.583-10.762
	c-5.195-5.566-7.793-16.699-7.793-33.398c0-2.041,0.03-5.488,0.093-10.344c0.061-4.854,0.093-8.675,0.093-11.458
	c0-7.297-0.31-20.749-0.928-40.356c0-5.07-0.278-12.647-0.835-22.729c-0.063-0.742-0.093-1.236-0.093-1.484
	c0-1.299,0.803-1.948,2.412-1.948c2.535,0,5.968,0.032,10.298,0.093c5.01,0.063,8.411,0.093,10.205,0.093
	c1.422,0,2.134,0.557,2.134,1.67c0,9.402-0.202,23.534-0.603,42.397c-0.403,18.865-0.603,32.997-0.603,42.397
	c0,10.639,2.38,17.845,7.144,21.616c4.082,3.34,11.597,5.01,22.544,5.01c9.957,0,17.039-1.359,21.245-4.082
	c5.318-3.4,7.979-9.771,7.979-19.111c0-9.771-0.155-24.445-0.464-44.021c-0.31-19.575-0.464-34.248-0.464-44.021
	c0-0.988,0.896-1.607,2.69-1.855c1.299-0.186,3.154-0.186,5.566,0c2.844,0.248,4.205,0.371,4.082,0.371
	c1.113,0,2.798-0.093,5.056-0.278c2.257-0.186,3.943-0.278,5.056-0.278C114.978,51.245,115.752,51.927,115.752,53.286z"/>
</svg>
