<?xml version="1.0" encoding="utf-8"?>
<!-- Generator: Adobe Illustrator 16.0.2, SVG Export Plug-In . SVG Version: 6.00 Build 0)  -->
<!DOCTYPE svg PUBLIC "-//W3C//DTD SVG 1.1//EN" "http://www.w3.org/Graphics/SVG/1.1/DTD/svg11.dtd">
<svg version="1.1" id="Layer_1" xmlns="http://www.w3.org/2000/svg" xmlns:xlink="http://www.w3.org/1999/xlink" x="0px" y="0px"
	 width="136px" height="220px" viewBox="0 0 136 220" enable-background="new 0 0 136 220" xml:space="preserve">
<path d="M126.169,53.286c0,7.113-0.248,17.845-0.742,32.192c-0.496,14.35-0.742,25.111-0.742,32.285
	c0,6.742,0.061,16.839,0.186,30.291c0.123,13.452,0.186,23.55,0.186,30.29c0,2.041-0.774,3.062-2.319,3.062
	c-0.928,0-2.319-0.093-4.175-0.278s-3.247-0.278-4.175-0.278c-0.99,0-2.505,0.093-4.546,0.278s-3.557,0.278-4.546,0.278
	c-1.113,0-2.444-1.021-3.989-3.062c-13.359-17.998-33.616-44.84-60.767-80.527c-4.207-5.441-6.649-8.473-7.329-9.092
	c-0.619,0-0.928,1.269-0.928,3.804c0,9.525,0.154,23.828,0.464,42.908c0.309,19.081,0.464,33.384,0.464,42.907
	c0,2.041-0.619,3.062-1.855,3.062c-1.052,0-2.66-0.093-4.824-0.278c-2.166-0.186-3.773-0.278-4.824-0.278
	c-1.113,0-2.769,0.093-4.963,0.278c-2.196,0.186-3.85,0.278-4.963,0.278c-1.547,0-2.319-0.617-2.319-1.855
	c0-6.803,0.325-17.054,0.974-30.754c0.649-13.699,0.974-23.982,0.974-30.848c0-7.482-0.278-20.967-0.835-40.449
	c-0.125-5.07-0.434-12.678-0.928-22.822l-0.093-1.206c-0.063-0.928,0.68-1.422,2.227-1.484c4.02-0.061,7.174-0.186,9.463-0.371
	c0.865-0.061,2.505-0.309,4.917-0.742c2.041-0.371,3.648-0.557,4.824-0.557c0.557,0,1.515,0.897,2.876,2.69
	c14.225,19.545,35.996,48.613,65.313,87.207c1.299,1.609,2.505,3.001,3.618,4.175c0.432-2.598,0.649-8.535,0.649-17.813
	c0-8.039-0.294-20.1-0.881-36.182c-0.588-16.08-0.881-28.11-0.881-36.089c0-2.041,0.618-3.062,1.855-3.062
	c1.113,0,2.798,0.093,5.056,0.278c2.257,0.186,3.943,0.278,5.056,0.278c1.174,0,2.937-0.093,5.288-0.278
	c2.35-0.186,4.112-0.278,5.288-0.278C125.52,51.245,126.169,51.927,126.169,53.286z"/>
</svg>
