<?xml version="1.0" encoding="utf-8"?>
<!-- Generator: Adobe Illustrator 16.0.2, SVG Export Plug-In . SVG Version: 6.00 Build 0)  -->
<!DOCTYPE svg PUBLIC "-//W3C//DTD SVG 1.1//EN" "http://www.w3.org/Graphics/SVG/1.1/DTD/svg11.dtd">
<svg version="1.1" id="lay" xmlns="http://www.w3.org/2000/svg" xmlns:xlink="http://www.w3.org/1999/xlink" x="0px" y="0px"
	 width="98px" height="220px" viewBox="0 0 98 220" enable-background="new 0 0 98 220" xml:space="preserve">
<path d="M90.794,94.941c0,7.422-0.063,18.571-0.187,33.445c-0.125,14.875-0.186,26.022-0.186,33.444
	c0,14.721-3.154,25.574-9.463,32.563c-6.619,7.422-17.195,11.133-31.729,11.133c-14.041,0-25.39-2.659-34.048-7.979
	c-1.361-0.865-2.041-1.607-2.041-2.227c0,0.68,0.928-3.896,2.783-13.73c0.186-1.051,0.618-1.576,1.299-1.576
	c0.309,0,0.71,0.154,1.206,0.463c9.277,5.318,18.585,7.979,27.925,7.979c6.123,0,11.194-1.36,15.214-4.082
	c4.64-3.092,6.959-7.575,6.959-13.452c0-1.299-0.125-4.205-0.371-8.721c-6.865,8.35-15.586,12.523-26.162,12.523
	c-11.443,0-20.844-4.111-28.203-12.338c-7.051-7.916-10.576-17.658-10.576-29.225c0-11.75,3.401-21.739,10.205-29.966
	c7.236-8.781,16.637-13.174,28.203-13.174c10.205,0,18.307,3.929,24.307,11.782c0.989,1.299,1.7,1.948,2.135,1.948
	c0.494,0,0.742-0.557,0.742-1.67c0-0.803-0.063-2.087-0.187-3.85c-0.125-1.763-0.187-3.076-0.187-3.943
	c0-3.711,0.371-5.566,1.113-5.566c0.618,0,3.958,0.573,10.02,1.717c6.062,1.145,9.371,1.841,9.928,2.087
	C90.361,92.84,90.794,93.643,90.794,94.941z M71.962,133.257c0-7.607-2.258-14.132-6.772-19.575
	c-4.763-5.875-10.854-8.813-18.276-8.813s-13.607,2.907-18.555,8.721c-4.764,5.566-7.144,12.123-7.144,19.668
	c0,7.484,2.38,13.979,7.144,19.482c4.947,5.752,11.133,8.628,18.555,8.628c7.236,0,13.297-2.938,18.184-8.813
	C69.673,147.05,71.962,140.617,71.962,133.257z"/>
</svg>
