<?xml version="1.0" encoding="utf-8"?>
<!-- Generator: Adobe Illustrator 16.0.2, SVG Export Plug-In . SVG Version: 6.00 Build 0)  -->
<!DOCTYPE svg PUBLIC "-//W3C//DTD SVG 1.1//EN" "http://www.w3.org/Graphics/SVG/1.1/DTD/svg11.dtd">
<svg version="1.1" id="Layer_1" xmlns="http://www.w3.org/2000/svg" xmlns:xlink="http://www.w3.org/1999/xlink" x="0px" y="0px"
	 width="129px" height="220px" viewBox="0 0 129 220" enable-background="new 0 0 129 220" xml:space="preserve">
<path d="M123.736,115.63c0,17.381-4.949,32.41-14.844,45.088c-10.762,13.793-24.555,20.688-41.377,20.688
	c-3.217,0-8.057-0.123-14.519-0.371c-6.464-0.246-11.304-0.371-14.519-0.371c-2.908,0-7.283,0.125-13.127,0.371
	c-5.845,0.248-10.221,0.371-13.127,0.371c-1.547,0-2.319-0.772-2.319-2.319c0-6.74,0.262-16.915,0.789-30.522
	c0.525-13.605,0.789-23.811,0.789-30.615c0-7.174-0.248-17.966-0.742-32.378c-0.496-14.41-0.742-25.202-0.742-32.378
	c0-1.299,0.803-1.948,2.412-1.948c2.288,0,5.706,0.032,10.251,0.093c4.546,0.063,7.962,0.093,10.251,0.093
	c2.102,0,5.318-0.03,9.648-0.093c4.329-0.061,7.607-0.093,9.834-0.093c21.461,0,37.449,4.052,47.964,12.153
	c7.545,5.814,13.39,13.638,17.534,23.472C121.788,96.024,123.736,105.61,123.736,115.63z M101.006,115.63
	c0-13.359-3.804-24.244-11.411-32.656c-7.917-8.721-18.494-13.081-31.729-13.081c-10.947,0-15.37-0.061-13.267-0.186
	c-7.236,0.371-10.854,1.702-10.854,3.989c0,4.764-0.109,11.892-0.325,21.385c-0.217,9.494-0.325,16.622-0.325,21.384
	c0,4.701,0.107,11.752,0.325,21.152c0.216,9.402,0.325,16.453,0.325,21.152c0,2.352,3.711,3.711,11.133,4.082
	c-0.99-0.061,3.525-0.093,13.545-0.093c7.112,0,12.771-0.742,16.978-2.227c5.195-1.855,9.864-5.288,14.009-10.298
	C97.14,140.834,101.006,129.3,101.006,115.63z"/>
</svg>
