<?xml version="1.0" encoding="utf-8"?>
<!-- Generator: Adobe Illustrator 16.0.2, SVG Export Plug-In . SVG Version: 6.00 Build 0)  -->
<!DOCTYPE svg PUBLIC "-//W3C//DTD SVG 1.1//EN" "http://www.w3.org/Graphics/SVG/1.1/DTD/svg11.dtd">
<svg version="1.1" id="Layer_1" xmlns="http://www.w3.org/2000/svg" xmlns:xlink="http://www.w3.org/1999/xlink" x="0px" y="0px"
	 width="51px" height="220px" viewBox="0 0 51 220" enable-background="new 0 0 51 220" xml:space="preserve">
<path d="M49.542,39.556c0,0.557-0.434,2.15-1.299,4.778c-0.867,2.629-1.454,3.943-1.763,3.943c-1.361,0-1.887,0.063-1.577,0.186
	C23.256,38.319,8.938,30.897,1.95,26.196c-0.247-0.186-0.557-0.557-0.928-1.113c0.557-1.113,2.366-3.045,5.427-5.798
	c3.062-2.751,5.086-4.128,6.077-4.128c1.484,0,7.174,3.154,17.07,9.463c9.092,5.752,15.554,10.144,19.39,13.174
	C49.48,38.164,49.666,38.752,49.542,39.556z M38.317,179.458c0,1.299-0.897,1.948-2.69,1.948c-1.113,0-2.815-0.093-5.103-0.278
	c-2.289-0.186-3.989-0.278-5.103-0.278c-1.176,0-2.908,0.093-5.195,0.278c-2.289,0.186-3.989,0.278-5.103,0.278
	c-1.547,0-2.319-0.71-2.319-2.134c0-7.051,0.325-17.673,0.974-31.868s0.974-24.847,0.974-31.96c0-6.865-0.325-17.178-0.974-30.94
	c-0.649-13.761-0.974-24.075-0.974-30.94c0-1.545,0.71-2.319,2.134-2.319c1.174,0,2.969,0.093,5.381,0.278s4.236,0.278,5.474,0.278
	c1.113,0,2.783-0.093,5.01-0.278s3.896-0.278,5.01-0.278c1.607,0,2.412,0.619,2.412,1.855c0,6.928-0.248,17.318-0.742,31.172
	c-0.496,13.855-0.742,24.246-0.742,31.172c0,7.113,0.262,17.782,0.789,32.007C38.053,161.677,38.317,172.346,38.317,179.458z"/>
</svg>
