<?xml version="1.0" encoding="utf-8"?>
<!-- Generator: Adobe Illustrator 16.0.2, SVG Export Plug-In . SVG Version: 6.00 Build 0)  -->
<!DOCTYPE svg PUBLIC "-//W3C//DTD SVG 1.1//EN" "http://www.w3.org/Graphics/SVG/1.1/DTD/svg11.dtd">
<svg version="1.1" id="Layer_1" xmlns="http://www.w3.org/2000/svg" xmlns:xlink="http://www.w3.org/1999/xlink" x="0px" y="0px"
	 width="51px" height="220px" viewBox="0 0 51 220" enable-background="new 0 0 51 220" xml:space="preserve">
<path d="M49.514,24.155c-0.928,2.537-7.763,7.236-20.503,14.102C16.58,44.999,8.879,48.369,5.911,48.369
	c-1.113,0-2.073-1.545-2.876-4.639c-0.619-2.412-0.928-4.453-0.928-6.123c0-0.618,0.587-1.206,1.763-1.763
	c10.205-5.071,20.781-11.782,31.729-20.132c0.247-0.247,0.71-0.525,1.392-0.835c0.309,0.125,0.71,0.403,1.206,0.835
	c2.659,2.227,6.091,4.639,10.298,7.236C48.802,23.135,49.143,23.538,49.514,24.155z M34.392,179.458c0,1.299-0.897,1.948-2.69,1.948
	c-1.113,0-2.815-0.093-5.103-0.278c-2.289-0.186-3.989-0.278-5.103-0.278c-1.176,0-2.908,0.093-5.195,0.278
	c-2.289,0.186-3.989,0.278-5.103,0.278c-1.547,0-2.319-0.71-2.319-2.134c0-7.051,0.325-17.673,0.974-31.868
	s0.974-24.847,0.974-31.96c0-6.865-0.325-17.178-0.974-30.94C9.204,70.744,8.879,60.43,8.879,53.564c0-1.545,0.71-2.319,2.134-2.319
	c1.174,0,2.969,0.093,5.381,0.278s4.236,0.278,5.474,0.278c1.113,0,2.783-0.093,5.01-0.278s3.896-0.278,5.01-0.278
	c1.607,0,2.412,0.619,2.412,1.855c0,6.928-0.248,17.318-0.742,31.172c-0.496,13.855-0.742,24.246-0.742,31.172
	c0,7.113,0.262,17.782,0.789,32.007C34.128,161.677,34.392,172.346,34.392,179.458z"/>
</svg>
