<?xml version="1.0" encoding="utf-8"?>
<!-- Generator: Adobe Illustrator 16.0.2, SVG Export Plug-In . SVG Version: 6.00 Build 0)  -->
<!DOCTYPE svg PUBLIC "-//W3C//DTD SVG 1.1//EN" "http://www.w3.org/Graphics/SVG/1.1/DTD/svg11.dtd">
<svg version="1.1" id="Layer_1" xmlns="http://www.w3.org/2000/svg" xmlns:xlink="http://www.w3.org/1999/xlink" x="0px" y="0px"
	 width="126px" height="220px" viewBox="0 0 126 220" enable-background="new 0 0 126 220" xml:space="preserve">
<path d="M124.796,180.293c0,0.742-0.742,1.113-2.227,1.113c-1.176,0-2.893-0.093-5.149-0.278c-2.258-0.186-3.975-0.278-5.148-0.278
	c-1.176,0-2.938,0.093-5.288,0.278c-2.352,0.186-4.114,0.278-5.288,0.278c-1.732,0-3.943-4.685-6.634-14.055
	s-5.427-14.116-8.21-14.241c-2.289-0.123-8.257-0.186-17.905-0.186H54.288c-10.205,0-16.02,0.063-17.441,0.186
	c-2.227,0.186-4.593,4.949-7.098,14.287c-2.505,9.34-4.438,14.009-5.798,14.009H3.077c-1.238,0-1.855-0.432-1.855-1.299
	c0-0.617,0.432-2.009,1.299-4.175l22.729-62.158c1.916-5.01,7.73-19.45,17.441-43.325c1.73-3.957,4.082-9.927,7.051-17.905
	c0.742-2.35,1.545-3.525,2.412-3.525c1.174,0,2.906,0.155,5.195,0.464c2.287,0.311,4.02,0.464,5.195,0.464
	c1.113,0,2.798-0.169,5.056-0.51c2.257-0.34,3.911-0.511,4.964-0.511c0.557,0,1.329,1.146,2.319,3.433
	c1.484,3.465,8.813,22.112,21.987,55.942C115.486,155.863,124.796,179.861,124.796,180.293z M88.243,21.836
	c-0.928,2.537-7.763,7.236-20.503,14.102C55.309,42.68,47.608,46.05,44.64,46.05c-1.113,0-2.073-1.545-2.876-4.639
	c-0.619-2.412-0.928-4.453-0.928-6.123c0-0.617,0.587-1.206,1.763-1.763c10.205-5.07,20.781-11.782,31.729-20.132
	c0.246-0.246,0.71-0.524,1.392-0.835c0.309,0.125,0.71,0.403,1.206,0.835c2.658,2.227,6.091,4.639,10.298,7.236
	C87.531,20.815,87.872,21.219,88.243,21.836z M81.563,129.082c0-1.793-2.783-9.834-8.35-24.121
	c-5.381-13.854-9.185-22.945-11.411-27.275C49,110.342,42.599,127.444,42.599,128.989c0,2.104,2.35,3.34,7.051,3.711
	c0.246,0.063,3.277,0.093,9.092,0.093h9.556C77.141,132.793,81.563,131.557,81.563,129.082z"/>
</svg>
