<?xml version="1.0" encoding="utf-8"?>
<!-- Generator: Adobe Illustrator 16.0.2, SVG Export Plug-In . SVG Version: 6.00 Build 0)  -->
<!DOCTYPE svg PUBLIC "-//W3C//DTD SVG 1.1//EN" "http://www.w3.org/Graphics/SVG/1.1/DTD/svg11.dtd">
<svg version="1.1" id="Layer_1" xmlns="http://www.w3.org/2000/svg" xmlns:xlink="http://www.w3.org/1999/xlink" x="0px" y="0px"
	 width="102px" height="220px" viewBox="0 0 102 220" enable-background="new 0 0 102 220" xml:space="preserve">
<path d="M97.387,162.759c0,0.99-0.248,2.412-0.742,4.268c-0.557,2.351-0.897,3.773-1.021,4.268
	c-0.186,2.227-0.619,5.474-1.299,9.741c-0.31,1.113-1.113,1.67-2.412,1.67c-0.619,0-1.794-0.125-3.525-0.371
	c-7.607-1.113-19.39-1.67-35.347-1.67c-4.516,0-11.318,0.124-20.41,0.371c-9.092,0.248-15.896,0.371-20.41,0.371
	c-2.041,0-3.062-0.896-3.062-2.69c0-6.927,0.386-17.333,1.16-31.219c0.772-13.884,1.16-24.29,1.16-31.218
	c0-7.051-0.371-20.193-1.113-39.429c-0.125-4.947-0.464-12.339-1.021-22.173l-0.093-1.299c-0.063-1.422,0.742-2.134,2.412-2.134
	c4.329,0,10.823,0.124,19.482,0.371c8.658,0.248,15.152,0.371,19.482,0.371c4.143,0,10.344-0.123,18.601-0.371
	c8.257-0.247,14.457-0.371,18.601-0.371c2.906,0,4.483,0.897,4.731,2.69c1.299,8.164,1.948,13.236,1.948,15.215
	c0,1.423-0.681,2.134-2.041,2.134c-5.258,0-13.22-0.293-23.889-0.882c-10.669-0.587-18.694-0.881-24.075-0.881
	c-5.072,0-8.273,0.681-9.602,2.041c-1.331,1.361-1.995,4.731-1.995,10.112v13.823c0,3.773,0.093,5.969,0.278,6.587
	c0.557,1.918,2.164,2.876,4.824,2.876c0.742,0,1.793-0.03,3.154-0.093c1.422,0,2.473,0,3.154,0c12.122,0,23.008-0.216,32.656-0.649
	c3.772-0.123,8.225-0.433,13.359-0.928c1.299-0.123,1.948,0.434,1.948,1.67c0,1.979-0.232,5.01-0.696,9.092
	s-0.696,7.144-0.696,9.185c0,1.113-0.928,1.67-2.783,1.67c-0.742,0-3.495-0.216-8.257-0.649c-3.464-0.371-11.257-0.557-23.379-0.557
	c-10.205,0-16.669,0.124-19.39,0.371c-2.475,0.186-3.896,1.484-4.268,3.896c0.061-0.433,0.093,1.948,0.093,7.144v13.73
	c0,6.433,0.989,10.453,2.969,12.061c1.545,1.299,5.411,1.948,11.597,1.948l10.205-0.093c4.329,0,16.482-0.742,36.46-2.227
	l1.392-0.093C96.768,160.316,97.387,161.089,97.387,162.759z M76.327,38.257c0,0.557-0.434,2.149-1.299,4.777
	c-0.867,2.63-1.454,3.943-1.763,3.943c-1.361,0-1.887,0.063-1.577,0.186C50.041,37.021,35.723,29.599,28.734,24.897
	c-0.248-0.186-0.557-0.557-0.928-1.113c0.557-1.113,2.366-3.046,5.427-5.799c3.062-2.751,5.086-4.128,6.077-4.128
	c1.484,0,7.174,3.154,17.07,9.463c9.092,5.752,15.554,10.144,19.39,13.174C76.265,36.865,76.45,37.453,76.327,38.257z"/>
</svg>
