<?xml version="1.0" encoding="utf-8"?>
<!-- Generator: Adobe Illustrator 16.0.2, SVG Export Plug-In . SVG Version: 6.00 Build 0)  -->
<!DOCTYPE svg PUBLIC "-//W3C//DTD SVG 1.1//EN" "http://www.w3.org/Graphics/SVG/1.1/DTD/svg11.dtd">
<svg version="1.1" id="Layer_1" xmlns="http://www.w3.org/2000/svg" xmlns:xlink="http://www.w3.org/1999/xlink" x="0px" y="0px"
	 width="55px" height="220px" viewBox="0 0 55 220" enable-background="new 0 0 55 220" xml:space="preserve">
<path d="M53.865,40.947c-0.186,0.31-1.748,1.191-4.686,2.644c-2.938,1.454-4.685,2.18-5.241,2.18
	c-1.795,0-7.577-5.071-17.349-15.215c-0.619,0.371-3.217,3.186-7.793,8.442c-3.896,4.453-6.712,6.68-8.442,6.68
	c-0.496,0-2.273-0.757-5.335-2.273c-3.062-1.515-4.592-2.366-4.592-2.551c3.464-3.958,7.607-8.906,12.432-14.844
	c3.525-5.318,5.998-9.524,7.422-12.617c0.432-0.989,1.113-1.484,2.041-1.484h9.741c0.803,0,1.359,0.496,1.67,1.484
	c0.988,3.154,3.4,7.361,7.236,12.617C45.237,30.897,49.535,35.876,53.865,40.947z M39.671,179.458c0,1.299-0.897,1.948-2.69,1.948
	c-1.113,0-2.815-0.093-5.103-0.278c-2.289-0.186-3.989-0.278-5.103-0.278c-1.176,0-2.908,0.093-5.195,0.278
	c-2.289,0.186-3.989,0.278-5.103,0.278c-1.547,0-2.319-0.71-2.319-2.134c0-7.051,0.324-17.673,0.974-31.868
	s0.975-24.847,0.975-31.96c0-6.865-0.325-17.178-0.975-30.94c-0.649-13.761-0.974-24.075-0.974-30.94
	c0-1.545,0.71-2.319,2.134-2.319c1.174,0,2.969,0.093,5.381,0.278s4.235,0.278,5.474,0.278c1.113,0,2.783-0.093,5.01-0.278
	s3.896-0.278,5.01-0.278c1.607,0,2.412,0.619,2.412,1.855c0,6.928-0.248,17.318-0.742,31.172
	c-0.496,13.855-0.742,24.246-0.742,31.172c0,7.113,0.262,17.782,0.788,32.007C39.407,161.677,39.671,172.346,39.671,179.458z"/>
</svg>
