<?xml version="1.0" encoding="utf-8"?>
<!-- Generator: Adobe Illustrator 16.0.2, SVG Export Plug-In . SVG Version: 6.00 Build 0)  -->
<!DOCTYPE svg PUBLIC "-//W3C//DTD SVG 1.1//EN" "http://www.w3.org/Graphics/SVG/1.1/DTD/svg11.dtd">
<svg version="1.1" id="Layer_1" xmlns="http://www.w3.org/2000/svg" xmlns:xlink="http://www.w3.org/1999/xlink" x="0px" y="0px"
	 width="113px" height="220px" viewBox="0 0 113 220" enable-background="new 0 0 113 220" xml:space="preserve">
<path d="M112.164,159.976c0,0.742-0.588,1.795-1.763,3.154c-12.061,13.979-26.997,20.967-44.81,20.967
	c-18.555,0-33.398-6.772-44.531-20.317C10.67,151.162,5.475,135.391,5.475,116.465s5.288-34.758,15.864-47.5
	c11.256-13.73,26.13-20.596,44.624-20.596c18.74,0,33.243,6.341,43.511,19.019c0.989,1.299,1.484,2.382,1.484,3.247
	c0,1.053-1.64,4.16-4.917,9.324c-3.279,5.165-5.258,7.746-5.938,7.746c-0.805,0-2.69-1.515-5.659-4.546
	c-3.65-3.711-7.083-6.494-10.298-8.35c-5.32-3.029-11.195-4.546-17.627-4.546c-12.246,0-21.771,4.671-28.574,14.009
	c-6.062,8.35-9.092,18.865-9.092,31.543c0,12.68,2.999,23.286,8.999,31.821c6.803,9.588,16.296,14.38,28.481,14.38
	c6.061,0,11.905-1.515,17.534-4.546c3.711-1.979,7.483-4.792,11.318-8.442c3.215-3.029,4.978-4.546,5.288-4.546
	c0.371,0,2.412,2.459,6.123,7.376S112.164,159.481,112.164,159.976z M77.467,191.89c0,8.102-2.227,14.596-6.68,19.482
	c-4.639,5.133-10.979,7.7-19.019,7.7c-2.289,0-5.381-0.959-9.277-2.876c-4.145-1.979-6.216-3.866-6.216-5.659
	c0-0.186,1.577-2.165,4.731-5.938c3.154-3.773,4.885-5.659,5.195-5.659c0.061,0,0.154,0.03,0.278,0.093
	c2.721,2.659,5.504,3.989,8.35,3.989c2.227,0,4.189-0.928,5.891-2.783c1.7-1.855,2.551-3.896,2.551-6.123
	c0-3.711-1.423-7.113-4.268-10.205l12.524,0.186C72.889,185.767,74.869,188.364,77.467,191.89z"/>
</svg>
