<?xml version="1.0" encoding="utf-8"?>
<!-- Generator: Adobe Illustrator 16.0.2, SVG Export Plug-In . SVG Version: 6.00 Build 0)  -->
<!DOCTYPE svg PUBLIC "-//W3C//DTD SVG 1.1//EN" "http://www.w3.org/Graphics/SVG/1.1/DTD/svg11.dtd">
<svg version="1.1" id="Layer_1" xmlns="http://www.w3.org/2000/svg" xmlns:xlink="http://www.w3.org/1999/xlink" x="0px" y="0px"
	 width="138px" height="220px" viewBox="0 0 138 220" enable-background="new 0 0 138 220" xml:space="preserve">
<path d="M132.318,116.279c0,18.369-5.876,34.172-17.627,47.407c-12.246,13.73-27.461,20.596-45.645,20.596
	c-18.246,0-33.461-6.833-45.645-20.503c-11.752-13.174-17.627-29.006-17.627-47.5c0-18.307,5.938-34.109,17.813-47.407
	c12.246-13.792,27.398-20.688,45.459-20.688c18.121,0,33.306,6.897,45.552,20.688C126.411,82.108,132.318,97.91,132.318,116.279z
	 M109.959,116.001c0-12.122-3.773-22.667-11.318-31.636c-7.917-9.524-17.844-14.287-29.78-14.287
	c-11.814,0-21.648,4.824-29.502,14.473c-7.422,9.031-11.133,19.607-11.133,31.729c0,12.061,3.711,22.606,11.133,31.636
	c7.854,9.648,17.688,14.473,29.502,14.473c11.998,0,21.956-4.824,29.873-14.473C106.217,138.886,109.959,128.247,109.959,116.001z
	 M95.951,22.856c-0.928,2.537-7.763,7.236-20.503,14.102C63.016,43.7,55.316,47.07,52.347,47.07c-1.113,0-2.073-1.545-2.876-4.639
	c-0.619-2.412-0.928-4.453-0.928-6.123c0-0.618,0.587-1.206,1.763-1.763c10.205-5.071,20.781-11.782,31.729-20.132
	c0.247-0.247,0.71-0.525,1.392-0.835c0.309,0.125,0.71,0.403,1.206,0.835c2.659,2.227,6.091,4.639,10.298,7.236
	C95.239,21.836,95.58,22.239,95.951,22.856z"/>
</svg>
