<?xml version="1.0" encoding="utf-8"?>
<!-- Generator: Adobe Illustrator 16.0.2, SVG Export Plug-In . SVG Version: 6.00 Build 0)  -->
<!DOCTYPE svg PUBLIC "-//W3C//DTD SVG 1.1//EN" "http://www.w3.org/Graphics/SVG/1.1/DTD/svg11.dtd">
<svg version="1.1" id="Layer_1" xmlns="http://www.w3.org/2000/svg" xmlns:xlink="http://www.w3.org/1999/xlink" x="0px" y="0px"
	 width="138px" height="220px" viewBox="0 0 138 220" enable-background="new 0 0 138 220" xml:space="preserve">
<path d="M132.318,116.279c0,18.369-5.876,34.172-17.627,47.407c-12.246,13.73-27.461,20.596-45.645,20.596
	c-18.246,0-33.461-6.833-45.645-20.503c-11.752-13.174-17.627-29.006-17.627-47.5c0-18.307,5.938-34.109,17.813-47.407
	c12.246-13.792,27.398-20.688,45.459-20.688c18.121,0,33.306,6.897,45.552,20.688C126.411,82.108,132.318,97.91,132.318,116.279z
	 M109.959,116.001c0-12.122-3.773-22.667-11.318-31.636c-7.917-9.524-17.844-14.287-29.78-14.287
	c-11.814,0-21.648,4.824-29.502,14.473c-7.422,9.031-11.133,19.607-11.133,31.729c0,12.061,3.711,22.606,11.133,31.636
	c7.854,9.648,17.688,14.473,29.502,14.473c11.998,0,21.956-4.824,29.873-14.473C106.217,138.886,109.959,128.247,109.959,116.001z
	 M97.435,31.763c0,1.484-2.66,3.681-7.979,6.587c-5.32,2.908-9.247,4.36-11.782,4.36c-3.65,0-7.329-1.082-11.04-3.247
	c-3.711-2.164-6.494-3.247-8.35-3.247c-2.104,0-4.299,1.021-6.587,3.062c-2.289,2.041-3.588,3.062-3.896,3.062
	c-0.742,0-1.361-0.278-1.855-0.835c-5.443-5.442-8.164-8.102-8.164-7.979c0-0.186,0.061-0.432,0.186-0.742
	c0.928-2.535,3.556-5.01,7.886-7.422c4.143-2.288,7.668-3.433,10.576-3.433c3.03,0,6.819,1.021,11.365,3.062
	s7.777,3.062,9.695,3.062c1.174,0,3.37-1.082,6.587-3.247c3.215-2.164,5.071-3.247,5.566-3.247l0.928,0.371
	C95.146,26.567,97.435,29.846,97.435,31.763z"/>
</svg>
