<?xml version="1.0" encoding="utf-8"?>
<!-- Generator: Adobe Illustrator 16.0.2, SVG Export Plug-In . SVG Version: 6.00 Build 0)  -->
<!DOCTYPE svg PUBLIC "-//W3C//DTD SVG 1.1//EN" "http://www.w3.org/Graphics/SVG/1.1/DTD/svg11.dtd">
<svg version="1.1" id="Layer_1" xmlns="http://www.w3.org/2000/svg" xmlns:xlink="http://www.w3.org/1999/xlink" x="0px" y="0px"
	 width="138px" height="220px" viewBox="0 0 138 220" enable-background="new 0 0 138 220" xml:space="preserve">
<path d="M132.318,116.279c0,18.369-5.876,34.172-17.627,47.407c-12.246,13.73-27.461,20.596-45.645,20.596
	c-18.246,0-33.461-6.833-45.645-20.503c-11.752-13.174-17.627-29.006-17.627-47.5c0-18.307,5.938-34.109,17.813-47.407
	c12.246-13.792,27.398-20.688,45.459-20.688c18.121,0,33.306,6.897,45.552,20.688C126.411,82.108,132.318,97.91,132.318,116.279z
	 M109.959,116.001c0-12.122-3.773-22.667-11.318-31.636c-7.917-9.524-17.844-14.287-29.78-14.287
	c-11.814,0-21.648,4.824-29.502,14.473c-7.422,9.031-11.133,19.607-11.133,31.729c0,12.061,3.711,22.606,11.133,31.636
	c7.854,9.648,17.688,14.473,29.502,14.473c11.998,0,21.956-4.824,29.873-14.473C106.217,138.886,109.959,128.247,109.959,116.001z
	 M94.93,41.318c-0.186,0.31-1.748,1.191-4.685,2.644c-2.938,1.454-4.685,2.18-5.242,2.18c-1.794,0-7.577-5.071-17.349-15.215
	c-0.619,0.371-3.217,3.186-7.793,8.442c-3.896,4.453-6.711,6.68-8.442,6.68c-0.496,0-2.273-0.757-5.334-2.273
	c-3.062-1.515-4.592-2.366-4.592-2.551c3.463-3.958,7.607-8.906,12.432-14.844c3.525-5.318,5.999-9.524,7.422-12.617
	c0.432-0.989,1.113-1.484,2.041-1.484h9.741c0.803,0,1.36,0.496,1.67,1.484c0.989,3.154,3.401,7.361,7.236,12.617
	C86.302,31.269,90.6,36.248,94.93,41.318z"/>
</svg>
