<?xml version="1.0" encoding="utf-8"?>
<!-- Generator: Adobe Illustrator 16.0.2, SVG Export Plug-In . SVG Version: 6.00 Build 0)  -->
<!DOCTYPE svg PUBLIC "-//W3C//DTD SVG 1.1//EN" "http://www.w3.org/Graphics/SVG/1.1/DTD/svg11.dtd">
<svg version="1.1" id="Layer_1" xmlns="http://www.w3.org/2000/svg" xmlns:xlink="http://www.w3.org/1999/xlink" x="0px" y="0px"
	 width="105px" height="220px" viewBox="0 0 105 220" enable-background="new 0 0 105 220" xml:space="preserve">
<path d="M99.49,97.446c0,0.248-0.093,0.805-0.278,1.67c-2.412,14.164-3.618,26.379-3.618,36.646c0,0.619,0.772,14.504,2.319,41.655
	l0.093,1.299c0.061,1.794-0.758,2.69-2.458,2.69c-1.702,0-4.268,0.2-7.7,0.603c-3.433,0.401-5.984,0.603-7.654,0.603
	c-1.176,0-2.073-2.164-2.69-6.494c-0.619-4.329-1.206-6.494-1.763-6.494c-0.371,0-2.041,1.206-5.01,3.618
	c-3.65,2.969-7.051,5.227-10.205,6.772c-4.887,2.473-9.773,3.711-14.658,3.711c-12,0-22.112-4.792-30.337-14.38
	C7.737,160.193,3.84,149.524,3.84,137.339c0-13.73,3.927-25.079,11.782-34.048c8.225-9.338,19.049-14.009,32.471-14.009
	c9.463,0,17.72,3.279,24.771,9.834c1.051,1.238,2.69,3.031,4.917,5.381c0.186,0.186,0.371,0.278,0.557,0.278
	c0.371,0,0.896-1.948,1.577-5.845c0.68-3.896,1.545-5.845,2.598-5.845c1.67,0,4.792,0.464,9.37,1.392
	C96.953,95.591,99.49,96.581,99.49,97.446z M80.564,69.614c0,1.484-2.66,3.681-7.979,6.587c-5.32,2.908-9.247,4.36-11.782,4.36
	c-3.65,0-7.329-1.082-11.04-3.247c-3.711-2.164-6.494-3.247-8.35-3.247c-2.104,0-4.299,1.021-6.587,3.062
	c-2.289,2.041-3.588,3.062-3.896,3.062c-0.742,0-1.361-0.278-1.855-0.835c-5.443-5.442-8.164-8.102-8.164-7.979
	c0-0.186,0.061-0.432,0.186-0.742c0.928-2.535,3.556-5.01,7.886-7.422c4.143-2.288,7.668-3.433,10.576-3.433
	c3.03,0,6.819,1.021,11.365,3.062s7.777,3.062,9.695,3.062c1.174,0,3.37-1.082,6.587-3.247c3.215-2.164,5.071-3.247,5.566-3.247
	l0.928,0.371C78.275,64.419,80.564,67.698,80.564,69.614z M75.833,136.226c0-7.607-2.258-14.132-6.772-19.575
	c-4.763-5.875-10.854-8.813-18.276-8.813s-13.607,2.908-18.555,8.721c-4.763,5.566-7.144,12.123-7.144,19.668
	c0,7.484,2.38,13.979,7.144,19.482c4.947,5.752,11.133,8.628,18.555,8.628c7.236,0,13.297-2.937,18.184-8.813
	C73.543,150.019,75.833,143.586,75.833,136.226z"/>
</svg>
