<?xml version="1.0" encoding="utf-8"?>
<!-- Generator: Adobe Illustrator 16.0.2, SVG Export Plug-In . SVG Version: 6.00 Build 0)  -->
<!DOCTYPE svg PUBLIC "-//W3C//DTD SVG 1.1//EN" "http://www.w3.org/Graphics/SVG/1.1/DTD/svg11.dtd">
<svg version="1.1" id="Layer_1" xmlns="http://www.w3.org/2000/svg" xmlns:xlink="http://www.w3.org/1999/xlink" x="0px" y="0px"
	 width="50px" height="220px" viewBox="0 0 50 220" enable-background="new 0 0 50 220" xml:space="preserve">
<path d="M48.559,58.76c-0.928,2.537-7.763,7.236-20.503,14.102C15.624,79.604,7.924,82.974,4.955,82.974
	c-1.113,0-2.072-1.545-2.876-4.639c-0.619-2.412-0.928-4.453-0.928-6.123c0-0.617,0.587-1.206,1.763-1.763
	c10.205-5.07,20.781-11.782,31.729-20.132c0.247-0.246,0.711-0.524,1.392-0.835c0.309,0.125,0.711,0.403,1.206,0.835
	c2.659,2.227,6.092,4.639,10.298,7.236C47.847,57.739,48.188,58.143,48.559,58.76z M32.045,95.591c0,4.764-0.294,11.953-0.881,21.57
	c-0.589,9.618-0.882,16.838-0.882,21.662c0,4.516,0.093,11.272,0.278,20.271s0.278,15.725,0.278,20.178
	c0,1.299-0.557,1.948-1.67,1.948H11.078c-1.299,0-1.948-1.267-1.948-3.804c0-4.268,0.107-10.684,0.325-19.25
	c0.216-8.565,0.324-15.014,0.324-19.344c0-4.824-0.356-12.061-1.066-21.709c-0.712-9.648-1.067-16.885-1.067-21.709
	c0-1.051,0.649-1.577,1.948-1.577c1.113,0,2.83,0.155,5.149,0.464c2.319,0.311,4.065,0.464,5.241,0.464
	c1.175,0,2.923-0.153,5.242-0.464c2.319-0.309,4.065-0.464,5.241-0.464C31.519,93.828,32.045,94.417,32.045,95.591z"/>
</svg>
