<?xml version="1.0" encoding="utf-8"?>
<!-- Generator: Adobe Illustrator 16.0.2, SVG Export Plug-In . SVG Version: 6.00 Build 0)  -->
<!DOCTYPE svg PUBLIC "-//W3C//DTD SVG 1.1//EN" "http://www.w3.org/Graphics/SVG/1.1/DTD/svg11.dtd">
<svg version="1.1" id="Layer_1" xmlns="http://www.w3.org/2000/svg" xmlns:xlink="http://www.w3.org/1999/xlink" x="0px" y="0px"
	 width="91px" height="220px" viewBox="0 0 91 220" enable-background="new 0 0 91 220" xml:space="preserve">
<path d="M87.758,131.587c0,4.578-1.98,7.639-5.938,9.185c-2.66,0.99-21.802,2.815-57.427,5.474
	c0.803,5.443,3.804,10.082,8.999,13.916c4.947,3.65,10.266,5.474,15.957,5.474c9.771,0,18.74-3.154,26.904-9.463
	c0.989-0.803,1.979-1.607,2.969-2.412c0.494,0,0.819,0.063,0.974,0.186c0.154,0.125,1.313,2.273,3.479,6.448
	c2.164,4.175,3.247,6.417,3.247,6.726c0,0.371-0.496,1.083-1.484,2.134c-9.092,9.648-20.751,14.473-34.976,14.473
	c-14.35,0-25.791-4.282-34.326-12.849c-8.535-8.565-12.803-19.993-12.803-34.28c0-12.74,4.082-23.843,12.246-33.306
	c8.596-9.834,19.142-14.751,31.636-14.751c11.627,0,21.338,4.268,29.131,12.803C83.955,109.631,87.758,119.712,87.758,131.587z
	 M71.894,76.294c-0.186,0.31-1.748,1.191-4.685,2.644c-2.938,1.454-4.685,2.18-5.242,2.18c-1.794,0-7.577-5.071-17.349-15.215
	c-0.619,0.371-3.217,3.186-7.793,8.442c-3.896,4.453-6.711,6.68-8.442,6.68c-0.496,0-2.273-0.757-5.334-2.273
	c-3.062-1.515-4.592-2.366-4.592-2.551c3.463-3.958,7.607-8.906,12.432-14.844c3.525-5.318,5.999-9.524,7.422-12.617
	c0.432-0.989,1.113-1.484,2.041-1.484h9.741c0.803,0,1.36,0.496,1.67,1.484c0.989,3.154,3.401,7.361,7.236,12.617
	C63.266,66.244,67.564,71.223,71.894,76.294z M65.678,125.928c0-5.133-2.026-9.679-6.077-13.638
	c-4.052-3.958-8.613-5.938-13.684-5.938c-5.691,0-10.747,2.289-15.168,6.865c-4.423,4.578-6.633,9.711-6.633,15.4
	c0,1.299,1.113,1.948,3.34,1.948c9.153,0,20.1-0.928,32.842-2.783C63.884,127.289,65.678,126.67,65.678,125.928z"/>
</svg>
