<?xml version="1.0" encoding="utf-8"?>
<!-- Generator: Adobe Illustrator 16.0.2, SVG Export Plug-In . SVG Version: 6.00 Build 0)  -->
<!DOCTYPE svg PUBLIC "-//W3C//DTD SVG 1.1//EN" "http://www.w3.org/Graphics/SVG/1.1/DTD/svg11.dtd">
<svg version="1.1" id="Layer_1" xmlns="http://www.w3.org/2000/svg" xmlns:xlink="http://www.w3.org/1999/xlink" x="0px" y="0px"
	 width="55px" height="220px" viewBox="0 0 55 220" enable-background="new 0 0 55 220" xml:space="preserve">
<path d="M54.219,76.851c-0.186,0.311-1.748,1.191-4.685,2.645c-2.938,1.454-4.685,2.18-5.242,2.18
	c-1.794,0-7.577-5.07-17.349-15.215c-0.619,0.371-3.217,3.187-7.793,8.442c-3.896,4.453-6.711,6.68-8.442,6.68
	c-0.496,0-2.273-0.757-5.334-2.272c-3.062-1.515-4.592-2.366-4.592-2.552c3.464-3.957,7.607-8.906,12.432-14.844
	c3.525-5.318,5.999-9.523,7.422-12.617c0.432-0.988,1.113-1.484,2.041-1.484h9.741c0.803,0,1.36,0.496,1.67,1.484
	c0.989,3.154,3.401,7.361,7.236,12.617C45.591,66.801,49.889,71.78,54.219,76.851z M39.839,95.591c0,4.764-0.294,11.953-0.881,21.57
	c-0.588,9.618-0.881,16.838-0.881,21.662c0,4.516,0.093,11.272,0.278,20.271s0.278,15.725,0.278,20.178
	c0,1.299-0.557,1.948-1.67,1.948H18.872c-1.299,0-1.948-1.267-1.948-3.804c0-4.268,0.107-10.684,0.325-19.25
	c0.216-8.565,0.325-15.014,0.325-19.344c0-4.824-0.356-12.061-1.067-21.709c-0.712-9.648-1.067-16.885-1.067-21.709
	c0-1.051,0.649-1.577,1.948-1.577c1.113,0,2.83,0.155,5.149,0.464c2.319,0.311,4.066,0.464,5.242,0.464
	c1.174,0,2.922-0.153,5.242-0.464c2.319-0.309,4.066-0.464,5.242-0.464C39.313,93.828,39.839,94.417,39.839,95.591z"/>
</svg>
