<?xml version="1.0" encoding="utf-8"?>
<!-- Generator: Adobe Illustrator 16.0.2, SVG Export Plug-In . SVG Version: 6.00 Build 0)  -->
<!DOCTYPE svg PUBLIC "-//W3C//DTD SVG 1.1//EN" "http://www.w3.org/Graphics/SVG/1.1/DTD/svg11.dtd">
<svg version="1.1" id="Layer_1" xmlns="http://www.w3.org/2000/svg" xmlns:xlink="http://www.w3.org/1999/xlink" x="0px" y="0px"
	 width="51px" height="220px" viewBox="0 0 51 220" enable-background="new 0 0 51 220" xml:space="preserve">
<path d="M49.742,72.397c0,0.557-0.434,2.15-1.299,4.778c-0.867,2.629-1.454,3.943-1.763,3.943c-1.361,0-1.887,0.063-1.577,0.186
	C23.455,71.161,9.139,63.739,2.149,59.038c-0.247-0.186-0.557-0.557-0.928-1.113c0.557-1.113,2.366-3.045,5.427-5.798
	c3.062-2.751,5.086-4.128,6.077-4.128c1.484,0,7.174,3.154,17.07,9.463c9.092,5.752,15.554,10.144,19.39,13.174
	C49.679,71.006,49.865,71.594,49.742,72.397z M43.155,95.591c0,4.763-0.294,11.953-0.881,21.57
	c-0.588,9.618-0.881,16.838-0.881,21.663c0,4.516,0.093,11.272,0.278,20.271s0.278,15.725,0.278,20.178
	c0,1.299-0.557,1.948-1.67,1.948H22.188c-1.299,0-1.948-1.267-1.948-3.804c0-4.268,0.107-10.684,0.325-19.25
	c0.216-8.565,0.325-15.013,0.325-19.343c0-4.824-0.356-12.061-1.067-21.709c-0.712-9.648-1.067-16.885-1.067-21.709
	c0-1.051,0.649-1.577,1.948-1.577c1.113,0,2.83,0.155,5.149,0.464c2.319,0.31,4.066,0.464,5.242,0.464
	c1.174,0,2.922-0.154,5.242-0.464c2.319-0.309,4.066-0.464,5.242-0.464C42.628,93.828,43.155,94.417,43.155,95.591z"/>
</svg>
