<?xml version="1.0" encoding="utf-8"?>
<!-- Generator: Adobe Illustrator 16.0.2, SVG Export Plug-In . SVG Version: 6.00 Build 0)  -->
<!DOCTYPE svg PUBLIC "-//W3C//DTD SVG 1.1//EN" "http://www.w3.org/Graphics/SVG/1.1/DTD/svg11.dtd">
<svg version="1.1" id="Layer_1" xmlns="http://www.w3.org/2000/svg" xmlns:xlink="http://www.w3.org/1999/xlink" x="0px" y="0px"
	 width="97px" height="220px" viewBox="0 0 97 220" enable-background="new 0 0 97 220" xml:space="preserve">
<path d="M93.449,136.226c0,12.927-4.237,23.967-12.71,33.12c-8.66,9.463-19.39,14.194-32.192,14.194
	c-12.865,0-23.627-4.7-32.285-14.102c-8.474-9.092-12.71-20.1-12.71-33.027c0-12.926,4.236-23.936,12.71-33.027
	c8.721-9.277,19.482-13.916,32.285-13.916c12.74,0,23.44,4.639,32.1,13.916C89.181,112.415,93.449,123.362,93.449,136.226z
	 M78.048,69.614c0,1.484-2.66,3.681-7.979,6.587c-5.32,2.908-9.247,4.36-11.782,4.36c-3.65,0-7.329-1.082-11.04-3.247
	c-3.711-2.164-6.494-3.247-8.35-3.247c-2.104,0-4.299,1.021-6.587,3.062c-2.289,2.041-3.588,3.062-3.896,3.062
	c-0.742,0-1.361-0.278-1.855-0.835c-5.443-5.442-8.164-8.102-8.164-7.979c0-0.186,0.061-0.432,0.186-0.742
	c0.928-2.535,3.556-5.01,7.886-7.422c4.143-2.288,7.668-3.433,10.576-3.433c3.03,0,6.819,1.021,11.365,3.062
	s7.777,3.062,9.695,3.062c1.174,0,3.37-1.082,6.587-3.247c3.215-2.164,5.071-3.247,5.566-3.247l0.928,0.371
	C75.759,64.419,78.048,67.698,78.048,69.614z M73.874,136.411c0-7.545-2.319-13.977-6.958-19.297
	c-4.824-5.627-10.947-8.442-18.369-8.442s-13.577,2.783-18.462,8.35c-4.639,5.381-6.958,11.845-6.958,19.39
	c0,7.422,2.35,13.855,7.051,19.297c4.947,5.752,11.07,8.628,18.369,8.628c7.359,0,13.482-2.876,18.369-8.628
	C71.554,150.266,73.874,143.833,73.874,136.411z"/>
</svg>
