<?xml version="1.0" encoding="utf-8"?>
<!-- Generator: Adobe Illustrator 16.0.2, SVG Export Plug-In . SVG Version: 6.00 Build 0)  -->
<!DOCTYPE svg PUBLIC "-//W3C//DTD SVG 1.1//EN" "http://www.w3.org/Graphics/SVG/1.1/DTD/svg11.dtd">
<svg version="1.1" id="Layer_1" xmlns="http://www.w3.org/2000/svg" xmlns:xlink="http://www.w3.org/1999/xlink" x="0px" y="0px"
	 width="97px" height="220px" viewBox="0 0 97 220" enable-background="new 0 0 97 220" xml:space="preserve">
<path d="M93.449,136.226c0,12.927-4.237,23.967-12.71,33.12c-8.66,9.463-19.39,14.194-32.192,14.194
	c-12.865,0-23.627-4.7-32.285-14.102c-8.474-9.092-12.71-20.1-12.71-33.027c0-12.926,4.236-23.936,12.71-33.027
	c8.721-9.277,19.482-13.916,32.285-13.916c12.74,0,23.44,4.639,32.1,13.916C89.181,112.415,93.449,123.362,93.449,136.226z
	 M74.801,76.294c-0.186,0.31-1.748,1.191-4.685,2.644c-2.938,1.454-4.685,2.18-5.242,2.18c-1.794,0-7.577-5.071-17.349-15.215
	c-0.619,0.371-3.217,3.186-7.793,8.442c-3.896,4.453-6.711,6.68-8.442,6.68c-0.496,0-2.273-0.757-5.334-2.273
	c-3.062-1.515-4.592-2.366-4.592-2.551c3.463-3.958,7.607-8.906,12.432-14.844c3.525-5.318,5.999-9.524,7.422-12.617
	c0.432-0.989,1.113-1.484,2.041-1.484H53c0.803,0,1.36,0.496,1.67,1.484c0.989,3.154,3.401,7.361,7.236,12.617
	C66.173,66.244,70.471,71.223,74.801,76.294z M73.874,136.411c0-7.545-2.319-13.977-6.958-19.297
	c-4.824-5.627-10.947-8.442-18.369-8.442s-13.577,2.783-18.462,8.35c-4.639,5.381-6.958,11.845-6.958,19.39
	c0,7.422,2.35,13.855,7.051,19.297c4.947,5.752,11.07,8.628,18.369,8.628c7.359,0,13.482-2.876,18.369-8.628
	C71.554,150.266,73.874,143.833,73.874,136.411z"/>
</svg>
