<?xml version="1.0" encoding="utf-8"?>
<!-- Generator: Adobe Illustrator 16.0.2, SVG Export Plug-In . SVG Version: 6.00 Build 0)  -->
<!DOCTYPE svg PUBLIC "-//W3C//DTD SVG 1.1//EN" "http://www.w3.org/Graphics/SVG/1.1/DTD/svg11.dtd">
<svg version="1.1" id="Layer_1" xmlns="http://www.w3.org/2000/svg" xmlns:xlink="http://www.w3.org/1999/xlink" x="0px" y="0px"
	 width="97px" height="220px" viewBox="0 0 97 220" enable-background="new 0 0 97 220" xml:space="preserve">
<path d="M93.449,136.226c0,12.927-4.237,23.967-12.71,33.12c-8.66,9.463-19.39,14.194-32.192,14.194
	c-12.865,0-23.627-4.7-32.285-14.102c-8.474-9.092-12.71-20.1-12.71-33.027c0-12.926,4.236-23.936,12.71-33.027
	c8.721-9.277,19.482-13.916,32.285-13.916c12.74,0,23.44,4.639,32.1,13.916C89.181,112.415,93.449,123.362,93.449,136.226z
	 M73.874,136.411c0-7.545-2.319-13.977-6.958-19.297c-4.824-5.627-10.947-8.442-18.369-8.442s-13.577,2.783-18.462,8.35
	c-4.639,5.381-6.958,11.845-6.958,19.39c0,7.422,2.35,13.855,7.051,19.297c4.947,5.752,11.07,8.628,18.369,8.628
	c7.359,0,13.482-2.876,18.369-8.628C71.554,150.266,73.874,143.833,73.874,136.411z M76.75,58.76
	c-0.928,2.537-7.763,7.236-20.503,14.102c-12.432,6.742-20.132,10.112-23.101,10.112c-1.113,0-2.073-1.545-2.876-4.639
	c-0.619-2.412-0.928-4.453-0.928-6.123c0-0.618,0.587-1.206,1.763-1.763c10.205-5.071,20.781-11.782,31.729-20.132
	c0.247-0.247,0.71-0.525,1.392-0.835c0.309,0.125,0.71,0.403,1.206,0.835c2.659,2.227,6.091,4.639,10.298,7.236
	C76.038,57.739,76.378,58.142,76.75,58.76z"/>
</svg>
