<?xml version="1.0" encoding="utf-8"?>
<!-- Generator: Adobe Illustrator 16.0.2, SVG Export Plug-In . SVG Version: 6.00 Build 0)  -->
<!DOCTYPE svg PUBLIC "-//W3C//DTD SVG 1.1//EN" "http://www.w3.org/Graphics/SVG/1.1/DTD/svg11.dtd">
<svg version="1.1" id="Layer_1" xmlns="http://www.w3.org/2000/svg" xmlns:xlink="http://www.w3.org/1999/xlink" x="0px" y="0px"
	 width="104px" height="220px" viewBox="0 0 104 220" enable-background="new 0 0 104 220" xml:space="preserve">
<path d="M94.954,97.261c0,4.516-0.186,11.334-0.557,20.457c-0.371,9.124-0.557,15.973-0.557,20.549
	c0,4.516,0.139,11.272,0.417,20.271s0.417,15.757,0.417,20.271c0,1.238-0.588,2.041-1.763,2.412
	c-0.496,0.125-6.772,0.186-18.833,0.186c-0.742,0-1.191-2.319-1.345-6.958c-0.155-4.639-0.51-6.958-1.067-6.958
	c-0.31,0-0.774,0.278-1.392,0.835c-10.33,8.969-20.535,13.452-30.615,13.452c-13.669,0-22.699-4.947-27.09-14.844
	c-2.722-6.123-4.082-17.131-4.082-33.027c0-14.348,1.144-26.501,3.433-36.46c0.557-2.412,1.577-3.618,3.062-3.618
	c1.793,0,4.483,0.032,8.071,0.093c3.586,0.063,6.277,0.093,8.071,0.093c1.236,0,1.855,0.681,1.855,2.041
	c0,2.412-0.403,6.433-1.206,12.061c-0.867,6-1.331,10.237-1.392,12.71c-0.186,3.711-0.278,7.793-0.278,12.246
	c0,10.824,0.772,18.091,2.319,21.802c2.659,6.68,8.565,10.02,17.72,10.02c3.896,0,8.503-1.917,13.823-5.752
	c5.627-4.02,8.535-7.886,8.721-11.597c0.309-4.639,0.464-20.967,0.464-48.984c0-3.03,1.267-4.546,3.804-4.546h15.308
	C94.057,94.014,94.954,95.097,94.954,97.261z M82.151,58.76c-0.928,2.537-7.763,7.236-20.503,14.102
	c-12.432,6.742-20.132,10.112-23.101,10.112c-1.113,0-2.073-1.545-2.876-4.639c-0.619-2.412-0.928-4.453-0.928-6.123
	c0-0.618,0.587-1.206,1.763-1.763c10.205-5.071,20.781-11.782,31.729-20.132c0.247-0.247,0.71-0.525,1.392-0.835
	c0.309,0.125,0.71,0.403,1.206,0.835c2.659,2.227,6.091,4.639,10.298,7.236C81.439,57.739,81.78,58.142,82.151,58.76z"/>
</svg>
