<?xml version="1.0" encoding="utf-8"?>
<!-- Generator: Adobe Illustrator 16.0.2, SVG Export Plug-In . SVG Version: 6.00 Build 0)  -->
<!DOCTYPE svg PUBLIC "-//W3C//DTD SVG 1.1//EN" "http://www.w3.org/Graphics/SVG/1.1/DTD/svg11.dtd">
<svg version="1.1" id="Layer_1" xmlns="http://www.w3.org/2000/svg" xmlns:xlink="http://www.w3.org/1999/xlink" x="0px" y="0px"
	 width="97px" height="220px" viewBox="0 0 97 220" enable-background="new 0 0 97 220" xml:space="preserve">
<path d="M93.449,136.226c0,12.927-4.237,23.967-12.71,33.12c-8.66,9.463-19.39,14.194-32.192,14.194
	c-12.865,0-23.627-4.7-32.285-14.102c-8.474-9.092-12.71-20.1-12.71-33.027c0-12.926,4.236-23.936,12.71-33.027
	c8.721-9.277,19.482-13.916,32.285-13.916c12.74,0,23.44,4.639,32.1,13.916C89.181,112.415,93.449,123.362,93.449,136.226z
	 M64.411,72.397c0,0.557-0.434,2.15-1.299,4.778c-0.867,2.629-1.454,3.943-1.763,3.943c-1.361,0-1.887,0.063-1.577,0.186
	C38.124,71.161,23.806,63.739,16.818,59.038c-0.248-0.186-0.557-0.557-0.928-1.113c0.557-1.113,2.366-3.045,5.427-5.798
	c3.062-2.751,5.086-4.128,6.077-4.128c1.484,0,7.174,3.154,17.07,9.463c9.092,5.752,15.554,10.144,19.39,13.174
	C64.348,71.006,64.534,71.594,64.411,72.397z M73.874,136.411c0-7.545-2.319-13.977-6.958-19.297
	c-4.824-5.627-10.947-8.442-18.369-8.442s-13.577,2.783-18.462,8.35c-4.639,5.381-6.958,11.845-6.958,19.39
	c0,7.422,2.35,13.855,7.051,19.297c4.947,5.752,11.07,8.628,18.369,8.628c7.359,0,13.482-2.876,18.369-8.628
	C71.554,150.266,73.874,143.833,73.874,136.411z"/>
</svg>
