<?xml version="1.0" encoding="utf-8"?>
<!-- Generator: Adobe Illustrator 16.0.2, SVG Export Plug-In . SVG Version: 6.00 Build 0)  -->
<!DOCTYPE svg PUBLIC "-//W3C//DTD SVG 1.1//EN" "http://www.w3.org/Graphics/SVG/1.1/DTD/svg11.dtd">
<svg version="1.1" id="lay" xmlns="http://www.w3.org/2000/svg" xmlns:xlink="http://www.w3.org/1999/xlink" x="0px" y="0px"
	 width="132px" height="250px" viewBox="0 0 132 250" enable-background="new 0 0 132 250" xml:space="preserve">
<path d="M126.859,147.021c0,10.515-3.588,19.761-10.762,27.739c-7.422,8.227-16.298,12.339-26.626,12.339
	c-5.629,0-14.041-0.123-25.234-0.371c-11.195-0.247-19.575-0.371-25.142-0.371c-3.217,0-8.041,0.125-14.473,0.371
	c-6.433,0.248-11.226,0.371-14.38,0.371c-2.041,0-3.062-0.896-3.062-2.69c0-6.741,0.371-16.869,1.113-30.383
	c0.742-13.513,1.113-23.641,1.113-30.383c0-7.051-0.341-20.503-1.021-40.356c-0.186-5.133-0.526-12.771-1.021-22.915l-0.093-1.299
	c-0.125-1.422,0.649-2.134,2.319-2.134h63.55c15.586,0,27.862,3.031,36.831,9.092c4.268,2.908,7.668,7.113,10.205,12.617
	c2.412,5.195,3.618,10.515,3.618,15.957c0,4.33-1.81,9.402-5.427,15.215c-3.618,5.814-5.427,8.381-5.427,7.7
	c0,0.496,0.772,1.331,2.319,2.505C122.993,125.838,126.859,134.837,126.859,147.021z M73.329,95.903
	c0-4.824-4.824-7.236-14.473-7.236c-2.166,0-3.464,0.496-3.896,1.484c-0.186,0.434-0.278,2.041-0.278,4.824
	c0,2.722,0.123,4.392,0.371,5.01c0.557,1.052,2.009,1.577,4.36,1.577C68.69,101.562,73.329,99.676,73.329,95.903z M76.483,143.403
	c0-5.071-5.629-7.607-16.885-7.607c-2.598,0-4.145,0.464-4.639,1.392c-0.186,0.371-0.278,2.134-0.278,5.288
	c0,3.093,0.154,4.917,0.464,5.474c0.618,0.99,2.288,1.484,5.01,1.484c5.071,0,8.38-0.123,9.927-0.371
	C74.35,148.259,76.483,146.372,76.483,143.403z"/>
</svg>
