<?xml version="1.0" encoding="utf-8"?>
<!-- Generator: Adobe Illustrator 16.0.2, SVG Export Plug-In . SVG Version: 6.00 Build 0)  -->
<!DOCTYPE svg PUBLIC "-//W3C//DTD SVG 1.1//EN" "http://www.w3.org/Graphics/SVG/1.1/DTD/svg11.dtd">
<svg version="1.1" id="lay" xmlns="http://www.w3.org/2000/svg" xmlns:xlink="http://www.w3.org/1999/xlink" x="0px" y="0px"
	 width="147px" height="250px" viewBox="0 0 147 250" enable-background="new 0 0 147 250" xml:space="preserve">
<path d="M142.106,121.323c0,15.029-4.453,28.56-13.359,40.588c-8.906,12.03-20.535,20.241-34.883,24.631
	c0.865,1.67,2.009,3.37,3.433,5.103c3.648,4.514,7.886,8.628,12.71,12.339c0.68,0.557,1.021,0.958,1.021,1.206
	c0,1.422-4.114,2.566-12.339,3.433c-6.248,0.618-12.432,0.928-18.555,0.928c-15.4,0-24.833-0.774-28.296-2.319
	c-1.609-0.742-2.412-2.073-2.412-3.989c0-2.969,0.247-8.783,0.742-17.441c-13.669-5.01-24.694-13.39-33.074-25.142
	c-8.381-11.75-12.571-24.863-12.571-39.336c0-18.926,6.71-35.052,20.132-48.381c13.42-13.328,29.656-19.993,48.706-19.993
	c18.987,0,35.191,6.665,48.613,19.993C135.395,86.271,142.106,102.397,142.106,121.323z M94.606,122.158
	c0-5.999-2.057-11.147-6.169-15.447c-4.114-4.298-9.138-6.448-15.076-6.448c-6.123,0-11.211,2.119-15.261,6.355
	c-4.052,4.237-6.077,9.417-6.077,15.54c0,5.938,2.071,11.025,6.216,15.261c4.143,4.237,9.185,6.355,15.122,6.355
	s10.962-2.118,15.076-6.355C92.549,133.183,94.606,128.095,94.606,122.158z"/>
</svg>
