<?xml version="1.0" encoding="utf-8"?>
<!-- Generator: Adobe Illustrator 16.0.2, SVG Export Plug-In . SVG Version: 6.00 Build 0)  -->
<!DOCTYPE svg PUBLIC "-//W3C//DTD SVG 1.1//EN" "http://www.w3.org/Graphics/SVG/1.1/DTD/svg11.dtd">
<svg version="1.1" id="lay" xmlns="http://www.w3.org/2000/svg" xmlns:xlink="http://www.w3.org/1999/xlink" x="0px" y="0px"
	 width="116px" height="250px" viewBox="0 0 116 250" enable-background="new 0 0 116 250" xml:space="preserve">
<path d="M110.834,99.335c0,4.949-0.248,12.385-0.742,22.312c-0.496,9.927-0.742,17.365-0.742,22.312
	c0,4.33,0.186,10.824,0.557,19.482c0.371,8.66,0.557,15.154,0.557,19.482c0,1.918-0.464,3.154-1.392,3.711
	c-0.619,0.371-1.948,0.557-3.989,0.557s-5.103-0.078-9.185-0.232s-7.144-0.232-9.185-0.232c-2.227,0-5.583,0.186-10.066,0.557
	c-4.485,0.371-7.809,0.557-9.973,0.557c-1.176,0-1.918-1.886-2.227-5.659c-0.31-3.772-0.835-5.659-1.577-5.659
	c0.557,0-2.212,1.825-8.303,5.474c-6.093,3.65-11.984,5.474-17.673,5.474c-15.896,0-25.452-7.422-28.667-22.266
	c-1.609-7.607-2.412-17.534-2.412-29.78c0-16.389,1.236-28.604,3.711-36.646c0.803-2.535,2.35-3.804,4.639-3.804
	c1.793,0,4.53,0.093,8.21,0.278c3.679,0.186,6.448,0.278,8.303,0.278c2.102,0,5.256-0.03,9.463-0.093
	c4.205-0.061,7.39-0.093,9.556-0.093c2.412,0,3.618,1.176,3.618,3.525c0,3.031-0.232,7.654-0.696,13.87s-0.696,10.871-0.696,13.962
	c0,16.205,2.227,24.307,6.68,24.307c3.525,0,5.288-1.7,5.288-5.103v-43.325c0-3.154,0.618-5.195,1.855-6.123
	c1.051-0.742,3.215-1.113,6.494-1.113h34.604C109.504,95.346,110.834,96.677,110.834,99.335z"/>
</svg>
