<?xml version="1.0" encoding="utf-8"?>
<!-- Generator: Adobe Illustrator 16.0.2, SVG Export Plug-In . SVG Version: 6.00 Build 0)  -->
<!DOCTYPE svg PUBLIC "-//W3C//DTD SVG 1.1//EN" "http://www.w3.org/Graphics/SVG/1.1/DTD/svg11.dtd">
<svg version="1.1" id="lay" xmlns="http://www.w3.org/2000/svg" xmlns:xlink="http://www.w3.org/1999/xlink" x="0px" y="0px"
	 width="107px" height="250px" viewBox="0 0 107 250" enable-background="new 0 0 107 250" xml:space="preserve">
<path d="M104.201,120.395c0,12.68-0.371,19.978-1.113,21.895c-2.041,5.134-6.711,13.452-14.009,24.956
	c-8.35,13.236-13.886,19.854-16.606,19.854c-1.98,0-4.979-0.123-8.999-0.371c-4.021-0.247-7.021-0.371-8.999-0.371
	c-2.104,0-5.211,0.125-9.324,0.371c-4.114,0.248-7.222,0.371-9.324,0.371c-2.722,0-8.227-6.587-16.514-19.761
	C12.2,156.02,7.499,147.67,5.211,142.29c-1.732-4.268-2.598-11.565-2.598-21.895c0-2.35,0.061-5.891,0.186-10.623
	c0.123-4.731,0.186-8.271,0.186-10.623c0-2.041,1.329-3.062,3.989-3.062c2.35,0,5.921,0.125,10.715,0.371
	c4.792,0.248,8.364,0.371,10.715,0.371c2.041,0,5.056-0.123,9.045-0.371c3.989-0.247,7.004-0.371,9.045-0.371
	c1.607,0,2.412,1.145,2.412,3.433c0,2.537-0.125,6.387-0.371,11.55c-0.248,5.165-0.371,9.045-0.371,11.643
	c0,13.916,1.917,20.874,5.752,20.874c4.391,0,6.587-9.431,6.587-28.296c0-1.793-0.186-4.437-0.557-7.932
	c-0.371-3.494-0.557-6.107-0.557-7.839c0-2.288,0.835-3.433,2.505-3.433c1.979,0,4.978,0.125,8.999,0.371
	c4.02,0.248,7.019,0.371,8.999,0.371c2.102,0,5.242-0.123,9.417-0.371c4.175-0.247,7.313-0.371,9.417-0.371
	c1.422,0,2.319,0.155,2.69,0.464c0.371,0.31,0.803,1.176,1.299,2.598C103.705,102.181,104.201,109.262,104.201,120.395z"/>
</svg>
