<?xml version="1.0" encoding="utf-8"?>
<!-- Generator: Adobe Illustrator 16.0.2, SVG Export Plug-In . SVG Version: 6.00 Build 0)  -->
<!DOCTYPE svg PUBLIC "-//W3C//DTD SVG 1.1//EN" "http://www.w3.org/Graphics/SVG/1.1/DTD/svg11.dtd">
<svg version="1.1" id="lay" xmlns="http://www.w3.org/2000/svg" xmlns:xlink="http://www.w3.org/1999/xlink" x="0px" y="0px"
	 width="71px" height="250px" viewBox="0 0 71 250" enable-background="new 0 0 71 250" xml:space="preserve">
<path d="M69.177,112.417c0,0.434-2.412,3.108-7.236,8.025s-7.236,8.83-7.236,11.736c0,2.722,1.87,6.541,5.613,11.458
	c3.741,4.917,5.613,10.283,5.613,16.096c0,4.021-0.867,7.793-2.598,11.318c-0.99,1.98-3.124,5.227-6.401,9.741
	c-2.166,3.093-5.072,6.71-8.721,10.854c-4.949,5.689-8.164,8.535-9.648,8.535c-0.867,0-2.011-0.496-3.433-1.484
	c-13.174-9.402-23.379-15.925-30.615-19.575c-1.361-0.68-2.041-1.329-2.041-1.948c0-0.309,2.705-3.679,8.118-10.112
	c5.411-6.432,8.118-11.658,8.118-15.679c0-2.844-2.057-6.277-6.169-10.298c-4.114-4.02-6.169-8.565-6.169-13.638
	c0-5.752,3.34-13.111,10.02-22.08c5.01-6.803,10.669-13.049,16.978-18.74c0.989-0.928,1.824-1.392,2.505-1.392
	c0.803,0,1.7,0.526,2.69,1.577c4.143,4.268,13.699,12,28.667,23.193C68.527,110.932,69.177,111.737,69.177,112.417z"/>
</svg>
