<?xml version="1.0" encoding="utf-8"?>
<!-- Generator: Adobe Illustrator 16.0.2, SVG Export Plug-In . SVG Version: 6.00 Build 0)  -->
<!DOCTYPE svg PUBLIC "-//W3C//DTD SVG 1.1//EN" "http://www.w3.org/Graphics/SVG/1.1/DTD/svg11.dtd">
<svg version="1.1" id="lay" xmlns="http://www.w3.org/2000/svg" xmlns:xlink="http://www.w3.org/1999/xlink" x="0px" y="0px"
	 width="109px" height="250px" viewBox="0 0 109 250" enable-background="new 0 0 109 250" xml:space="preserve">
<path d="M106.175,145.258c0,12.68-1.083,26.132-3.247,40.356c-0.371,2.227-1.331,3.34-2.876,3.34c0.989,0-3.464-0.341-13.359-1.021
	c-14.102-1.051-25.359-1.577-33.77-1.577c-4.516,0-11.288,0.125-20.317,0.371c-9.031,0.248-15.803,0.371-20.317,0.371
	c-1.918,0-2.969-1.206-3.154-3.618c0.123,1.732,0.186-0.432,0.186-6.494l-0.093-53.345c0-6.741-0.31-17.534-0.928-32.378
	C7.742,76.977,7.464,66.215,7.464,58.979c0-1.36,0.742-2.041,2.227-2.041c2.598,0,6.509,0.125,11.736,0.371
	c5.226,0.248,9.138,0.371,11.736,0.371c2.783,0,6.926-0.139,12.432-0.417c5.504-0.278,9.648-0.417,12.432-0.417
	c0.989,0,1.484,0.649,1.484,1.948l-0.093,1.021c-0.805,10.453-1.702,26.162-2.69,47.129c-0.125,8.041-0.186,14.38-0.186,19.019
	c0,5.195,0.123,11.257,0.371,18.184c0.123,2.412,0.649,3.618,1.577,3.618c6.555,0,13.699-0.371,21.431-1.113
	c8.782-0.865,16.514-2.071,23.193-3.618c0.557-0.123,1.021-0.186,1.392-0.186C105.618,142.846,106.175,143.651,106.175,145.258z"/>
</svg>
