<?xml version="1.0" encoding="utf-8"?>
<!-- Generator: Adobe Illustrator 16.0.2, SVG Export Plug-In . SVG Version: 6.00 Build 0)  -->
<!DOCTYPE svg PUBLIC "-//W3C//DTD SVG 1.1//EN" "http://www.w3.org/Graphics/SVG/1.1/DTD/svg11.dtd">
<svg version="1.1" id="lay" xmlns="http://www.w3.org/2000/svg" xmlns:xlink="http://www.w3.org/1999/xlink" x="0px" y="0px"
	 width="152px" height="250px" viewBox="0 0 152 250" enable-background="new 0 0 152 250" xml:space="preserve">
<path d="M149.43,120.395c0,10.391-0.897,17.689-2.69,21.895c-1.609,3.773-5.566,11.103-11.875,21.987
	c-6.557,11.257-10.947,18.153-13.174,20.688c-1.238,1.423-2.444,2.134-3.618,2.134c-1.361,0-3.418-0.123-6.169-0.371
	c-2.753-0.247-4.81-0.371-6.169-0.371c-1.67,0-4.128,0.125-7.375,0.371c-3.247,0.248-5.675,0.371-7.283,0.371
	c-3.217,0-8.721-7.73-16.514-23.193c-7.67,15.463-12.865,23.193-15.586,23.193c-1.423,0-3.542-0.123-6.355-0.371
	c-2.815-0.247-4.933-0.371-6.355-0.371c-1.423,0-3.495,0.125-6.216,0.371c-2.722,0.248-4.763,0.371-6.123,0.371
	c-2.104,0-7.763-7.081-16.978-21.245c-3.588-5.566-7.515-13.42-11.782-23.564c-1.732-4.268-2.598-11.565-2.598-21.895
	c0-10.637,0.371-17.72,1.113-21.245c0.432-2.041,1.763-3.062,3.989-3.062c2.041,0,5.117,0.125,9.231,0.371
	c4.112,0.248,7.19,0.371,9.231,0.371c1.917,0,4.792-0.123,8.628-0.371c3.834-0.247,6.71-0.371,8.628-0.371
	c1.67,0,2.505,1.145,2.505,3.433c0,2.537-0.078,6.387-0.232,11.55c-0.155,5.165-0.232,9.015-0.232,11.55
	c0,4.578,0.093,7.886,0.278,9.927c0.061,1.176,0.649,3.062,1.763,5.659c1.236,2.969,2.288,4.453,3.154,4.453
	c0.865,0,1.886-1.484,3.062-4.453c0.989-2.288,1.607-4.175,1.855-5.659c0.68-3.463,1.021-7.607,1.021-12.432
	c0-2.288-0.202-5.72-0.603-10.298c-0.403-4.576-0.603-8.009-0.603-10.298c0-2.288,0.835-3.433,2.505-3.433
	c2.473,0,7.515,0.155,15.122,0.464l4.36,0.278c0.186-0.061,0.278-0.077,0.278-0.046c0,0.032-0.032,0.046-0.093,0.046h-0.278h-0.557
	l0.928-0.093l3.711-0.186c5.566-0.309,10.143-0.464,13.73-0.464c1.67,0,2.505,1.145,2.505,3.433c0,2.289-0.202,5.722-0.603,10.298
	c-0.403,4.578-0.603,8.01-0.603,10.298c0,3.34,0.371,7.515,1.113,12.524c1.051,6.68,2.35,10.02,3.896,10.02
	c0.803,0,1.824-1.484,3.062-4.453c1.113-2.598,1.731-4.483,1.855-5.659c0.123-2.041,0.186-5.349,0.186-9.927
	c0-2.535-0.063-6.385-0.186-11.55c-0.125-5.164-0.186-9.014-0.186-11.55c0-2.288,0.835-3.433,2.505-3.433
	c1.917,0,4.792,0.125,8.628,0.371c3.834,0.248,6.71,0.371,8.628,0.371c2.041,0,5.103-0.123,9.185-0.371
	c4.082-0.247,7.174-0.371,9.277-0.371c2.164,0,3.493,1.021,3.989,3.062C149.059,102.675,149.43,109.758,149.43,120.395z"/>
</svg>
