<?xml version="1.0" encoding="utf-8"?>
<!-- Generator: Adobe Illustrator 16.0.2, SVG Export Plug-In . SVG Version: 6.00 Build 0)  -->
<!DOCTYPE svg PUBLIC "-//W3C//DTD SVG 1.1//EN" "http://www.w3.org/Graphics/SVG/1.1/DTD/svg11.dtd">
<svg version="1.1" id="lay" xmlns="http://www.w3.org/2000/svg" xmlns:xlink="http://www.w3.org/1999/xlink" x="0px" y="0px"
	 width="124px" height="250px" viewBox="0 0 124 250" enable-background="new 0 0 124 250" xml:space="preserve">
<path d="M122.906,75.4c0,1.299-2.922,7.222-8.767,17.766c-5.845,10.546-9.355,16.282-10.53,17.209
	c-0.928,0.742-1.794,1.113-2.598,1.113c-0.31,0-1.67-1.021-4.082-3.062c-2.908-2.412-5.722-4.268-8.442-5.566
	c-4.207-1.979-8.66-2.969-13.359-2.969c-5.938,0-10.963,2.15-15.076,6.448c-4.114,4.299-6.169,9.417-6.169,15.354
	c0,6,2.056,11.179,6.169,15.54c4.112,4.36,9.138,6.541,15.076,6.541c9.957,0,17.627-2.969,23.008-8.906
	c0.865-0.989,1.515-1.484,1.948-1.484c0.742,0,4.514,5.01,11.318,15.029c6.865,10.268,10.298,16.267,10.298,17.998
	c0,1.176-0.712,2.69-2.134,4.546c-4.887,6.309-11.814,11.257-20.781,14.844c-8.103,3.277-16.483,4.917-25.142,4.917
	c-19.111,0-35.363-6.633-48.752-19.9C11.5,157.551,4.805,141.394,4.805,122.343c0-19.111,6.694-35.361,20.085-48.752
	c13.39-13.39,29.641-20.085,48.752-20.085c19.234,0,34.913,6.03,47.036,18.091C122.164,73.02,122.906,74.287,122.906,75.4z"/>
</svg>
