<?xml version="1.0" encoding="utf-8"?>
<!-- Generator: Adobe Illustrator 16.0.2, SVG Export Plug-In . SVG Version: 6.00 Build 0)  -->
<!DOCTYPE svg PUBLIC "-//W3C//DTD SVG 1.1//EN" "http://www.w3.org/Graphics/SVG/1.1/DTD/svg11.dtd">
<svg version="1.1" id="lay" xmlns="http://www.w3.org/2000/svg" xmlns:xlink="http://www.w3.org/1999/xlink" x="0px" y="0px"
	 width="111px" height="250px" viewBox="0 0 111 250" enable-background="new 0 0 111 250" xml:space="preserve">
<path d="M107.546,120.395c0,12.556-0.434,20.473-1.299,23.75c-1.113,4.082-8.535,16.576-22.266,37.48
	c-7.051,10.762-16.05,22.327-26.997,34.697c-1.176,1.422-2.382,2.134-3.618,2.134c-1.67,0-4.207-0.078-7.607-0.232
	c-3.402-0.155-5.938-0.232-7.607-0.232c-2.537,0-6.278,0.232-11.226,0.696c-4.949,0.464-8.66,0.696-11.133,0.696
	c-1.238,0-2.444-0.681-3.618-2.041c-0.99-3.711-2.196-8.041-3.618-12.988c-0.186-0.496-1.516-3.402-3.989-8.721
	c-1.98-4.145-2.969-6.897-2.969-8.257s0.432-2.041,1.299-2.041c0.803,0,2.056,0.078,3.757,0.232c1.7,0.155,2.983,0.232,3.85,0.232
	c7.73,0,13.174-1.453,16.328-4.36c1.174-1.174,1.763-1.979,1.763-2.412c0-0.371-0.464-0.958-1.392-1.763
	c-2.351-2.041-6.772-8.071-13.267-18.091s-10.112-16.482-10.854-19.39c-0.186-0.742-0.278-2.783-0.278-6.123
	c0-3.834,0.077-9.586,0.232-17.256c0.154-7.668,0.232-13.42,0.232-17.256c0-2.041,1.329-3.062,3.989-3.062
	c2.227,0,5.581,0.125,10.066,0.371c4.483,0.248,7.839,0.371,10.066,0.371c2.164,0,5.396-0.123,9.695-0.371
	c4.298-0.247,7.529-0.371,9.695-0.371c1.607,0,2.412,1.145,2.412,3.433c0,2.537-0.125,6.387-0.371,11.55
	c-0.248,5.165-0.371,9.045-0.371,11.643c0,13.916,1.917,20.874,5.752,20.874c4.514,0,6.772-9.431,6.772-28.296
	c0-1.793-0.125-4.437-0.371-7.932c-0.248-3.494-0.371-6.107-0.371-7.839c0-2.288,0.835-3.433,2.505-3.433
	c1.979,0,4.932,0.125,8.86,0.371c3.927,0.248,6.849,0.371,8.767,0.371c2.412,0,6.03-0.123,10.854-0.371
	c4.824-0.247,8.442-0.371,10.854-0.371c1.979,0,3.308,1.021,3.989,3.062C107.05,102.243,107.546,109.325,107.546,120.395z"/>
</svg>
