<?xml version="1.0" encoding="utf-8"?>
<!-- Generator: Adobe Illustrator 16.0.2, SVG Export Plug-In . SVG Version: 6.00 Build 0)  -->
<!DOCTYPE svg PUBLIC "-//W3C//DTD SVG 1.1//EN" "http://www.w3.org/Graphics/SVG/1.1/DTD/svg11.dtd">
<svg version="1.1" id="lay" xmlns="http://www.w3.org/2000/svg" xmlns:xlink="http://www.w3.org/1999/xlink" x="0px" y="0px"
	 width="62px" height="250px" viewBox="0 0 62 250" enable-background="new 0 0 62 250" xml:space="preserve">
<path d="M55.678,52.886c0,0.371-0.063,1.176-0.186,2.412c-1.794,19.792-2.69,44.997-2.69,63.612c0,6.865,0.107,17.179,0.325,30.939
	c0.216,13.762,0.325,24.075,0.325,30.94c0,2.66-0.032,4.082-0.093,4.269c-0.311,1.36-1.299,2.041-2.969,2.041
	c-2.166,0-5.397-0.123-9.695-0.371c-4.299-0.248-7.531-0.371-9.695-0.371c-2.166,0-5.397,0.125-9.695,0.371
	c-4.299,0.248-7.531,0.371-9.695,0.371c-1.732,0-2.753-0.681-3.062-2.041c0-0.187,0-1.607,0-4.269c0-6.865,0.093-17.179,0.278-30.94
	c0.186-13.761,0.278-24.074,0.278-30.939c0-6.68-0.449-16.667-1.345-29.966C6.863,75.648,6.415,59.69,6.415,53.072
	c0-1.299,0.309-2.102,0.928-2.412c0.371-0.186,0.958-0.278,1.763-0.278c2.473,0,6.138,0.093,10.994,0.278
	c4.854,0.186,8.489,0.278,10.901,0.278s6.045-0.093,10.901-0.278c4.854-0.186,8.488-0.278,10.9-0.278
	C54.718,50.381,55.678,51.216,55.678,52.886z"/>
</svg>
