<?xml version="1.0" encoding="utf-8"?>
<!-- Generator: Adobe Illustrator 16.0.2, SVG Export Plug-In . SVG Version: 6.00 Build 0)  -->
<!DOCTYPE svg PUBLIC "-//W3C//DTD SVG 1.1//EN" "http://www.w3.org/Graphics/SVG/1.1/DTD/svg11.dtd">
<svg version="1.1" id="lay" xmlns="http://www.w3.org/2000/svg" xmlns:xlink="http://www.w3.org/1999/xlink" x="0px" y="0px"
	 width="118px" height="250px" viewBox="0 0 118 250" enable-background="new 0 0 118 250" xml:space="preserve">
<path d="M115.035,140.898c0,13.916-3.618,25.049-10.854,33.398c-7.607,8.906-18.246,13.359-31.914,13.359
	c-2.783,0-6.696-0.835-11.736-2.505c-5.042-1.67-7.438-2.505-7.19-2.505c-0.496,0-0.851,0.881-1.067,2.644
	c-0.217,1.763-0.851,2.644-1.902,2.644c-2.351,0-5.907-0.109-10.669-0.325c-4.763-0.217-8.35-0.325-10.762-0.325
	c-1.98,0-4.949,0.061-8.906,0.186c-3.959,0.123-6.928,0.186-8.906,0.186c-3.402,0-5.103-0.835-5.103-2.505
	c0-0.371,0.061-0.989,0.186-1.855c1.484-10.391,2.227-28.883,2.227-55.479c0-8.04-0.742-24.863-2.227-50.469
	C5.407,64.237,5.006,58.021,5.006,58.701c0-1.731,1.021-2.628,3.062-2.69c4.824,0.063,12.061,0,21.709-0.186
	c2.227-0.123,5.968-0.618,11.226-1.484c4.824-0.803,8.535-1.206,11.133-1.206c1.174,0,1.763,1.021,1.763,3.062
	c0,2.166-0.202,5.443-0.603,9.834c-0.403,4.392-0.603,7.7-0.603,9.927v21.245c0,1.794,0.309,2.69,0.928,2.69
	c7.422-4.082,13.761-6.123,19.019-6.123c13.792,0,24.43,4.516,31.914,13.545C111.54,115.726,115.035,126.921,115.035,140.898z
	 M70.226,140.156c0-2.473-0.851-4.546-2.551-6.216c-1.702-1.67-3.757-2.505-6.169-2.505c-2.537,0-4.639,0.82-6.309,2.458
	c-1.67,1.64-2.505,3.727-2.505,6.262c0,2.537,0.835,4.624,2.505,6.262c1.67,1.64,3.772,2.458,6.309,2.458
	c2.535,0,4.623-0.819,6.262-2.458C69.405,144.78,70.226,142.692,70.226,140.156z"/>
</svg>
