<?xml version="1.0" encoding="utf-8"?>
<!-- Generator: Adobe Illustrator 16.0.2, SVG Export Plug-In . SVG Version: 6.00 Build 0)  -->
<!DOCTYPE svg PUBLIC "-//W3C//DTD SVG 1.1//EN" "http://www.w3.org/Graphics/SVG/1.1/DTD/svg11.dtd">
<svg version="1.1" id="lay" xmlns="http://www.w3.org/2000/svg" xmlns:xlink="http://www.w3.org/1999/xlink" x="0px" y="0px"
	 width="75px" height="250px" viewBox="0 0 75 250" enable-background="new 0 0 75 250" xml:space="preserve">
<path d="M73.45,132.549c0,1.794-1.083,2.69-3.247,2.69c-5.381,0-9.711-0.186-12.988-0.557v14.38c0,3.835,0.2,9.602,0.603,17.302
	c0.401,7.7,0.603,13.468,0.603,17.302c0,2.537-1.145,3.804-3.433,3.804c-2.166,0-5.397-0.093-9.695-0.278
	c-4.299-0.186-7.531-0.278-9.695-0.278c-2.104,0-5.273,0.032-9.509,0.093c-4.237,0.063-7.407,0.093-9.509,0.093
	c-2.412,0-3.618-1.577-3.618-4.731v-44.253c0-1.607-0.588-2.505-1.763-2.69c0.803,0.125-0.403,0.186-3.618,0.186
	c-2.166,0-3.402-0.835-3.711-2.505c-0.805-3.834-1.206-14.844-1.206-33.027c0-2.102,0.928-3.463,2.783-4.082
	c0.618-0.247,2.442-0.525,5.474-0.835c-0.371-4.885-0.557-8.503-0.557-10.854c0-13.297,6.153-22.667,18.462-28.11
	c8.04-3.525,19.915-5.566,35.625-6.123h0.835c0.803,0,1.422,0.526,1.855,1.577c2.906,19.421,4.36,29.534,4.36,30.337
	c0,1.98-1.918,3.124-5.752,3.433c-4.516,0.31-7.083,0.835-7.7,1.577c-1.052,1.113-1.577,3.557-1.577,7.329v1.206
	c1.422,0,3.633-0.061,6.633-0.186c2.999-0.123,5.242-0.186,6.726-0.186c2.227,0,3.34,0.928,3.34,2.783
	c0,1.794-0.063,4.438-0.186,7.932c-0.125,3.495-0.186,6.108-0.186,7.839c0,2.104,0.107,5.242,0.325,9.417
	C73.341,127.307,73.45,130.447,73.45,132.549z"/>
</svg>
