<?xml version="1.0" encoding="utf-8"?>
<!-- Generator: Adobe Illustrator 16.0.2, SVG Export Plug-In . SVG Version: 6.00 Build 0)  -->
<!DOCTYPE svg PUBLIC "-//W3C//DTD SVG 1.1//EN" "http://www.w3.org/Graphics/SVG/1.1/DTD/svg11.dtd">
<svg version="1.1" id="lay" xmlns="http://www.w3.org/2000/svg" xmlns:xlink="http://www.w3.org/1999/xlink" x="0px" y="0px"
	 width="118px" height="250px" viewBox="0 0 118 250" enable-background="new 0 0 118 250" xml:space="preserve">
<path d="M113.18,55.454c0-0.123-0.31,7.299-0.928,22.266c-1.052,24.431-1.577,41.625-1.577,51.582
	c0,29.75,0.432,47.686,1.299,53.809c0.123,0.867,0.186,1.484,0.186,1.855c0,1.238-0.496,2.011-1.484,2.319
	c0.371-0.125-6.772-0.186-21.431-0.186c-1.98,0-4.917,0.107-8.813,0.325c-3.896,0.216-6.835,0.325-8.813,0.325
	c-1.052,0-1.686-0.881-1.902-2.644c-0.217-1.763-0.573-2.644-1.067-2.644c0.494,0-2.212,1.16-8.118,3.479
	c-5.907,2.319-10.778,3.479-14.612,3.479c-13.669,0-24.307-4.453-31.914-13.359C6.769,167.648,3.15,156.516,3.15,142.661
	c0-14.163,3.494-25.42,10.483-33.77c7.483-8.906,18.121-13.359,31.914-13.359c4.947,0,11.287,2.011,19.019,6.03
	c0.618,0,0.928-0.865,0.928-2.598V77.626c0-1.979-0.202-4.932-0.603-8.86c-0.403-3.927-0.603-6.849-0.603-8.767
	c0-2.041,0.587-3.062,1.763-3.062c3.772,0,11.226-0.432,22.358-1.299c1.917-0.186,5.782-0.742,11.597-1.67
	c5.01-0.865,8.721-1.299,11.133-1.299C112.499,52.67,113.18,53.598,113.18,55.454z M65.494,141.918c0-2.473-0.851-4.561-2.551-6.262
	c-1.702-1.7-3.789-2.551-6.262-2.551c-2.537,0-4.624,0.835-6.262,2.505c-1.64,1.67-2.458,3.773-2.458,6.309
	c0,2.537,0.819,4.624,2.458,6.262c1.638,1.64,3.726,2.458,6.262,2.458c2.535,0,4.639-0.819,6.309-2.458
	C64.659,146.542,65.494,144.455,65.494,141.918z"/>
</svg>
