<?xml version="1.0" encoding="utf-8"?>
<!-- Generator: Adobe Illustrator 16.0.2, SVG Export Plug-In . SVG Version: 6.00 Build 0)  -->
<!DOCTYPE svg PUBLIC "-//W3C//DTD SVG 1.1//EN" "http://www.w3.org/Graphics/SVG/1.1/DTD/svg11.dtd">
<svg version="1.1" id="lay" xmlns="http://www.w3.org/2000/svg" xmlns:xlink="http://www.w3.org/1999/xlink" x="0px" y="0px"
	 width="129px" height="250px" viewBox="0 0 129 250" enable-background="new 0 0 129 250" xml:space="preserve">
<path d="M128.282,186.079c0,0.681-0.835,1.021-2.505,1.021c-2.722,0-6.758-0.123-12.107-0.371
	c-5.351-0.247-9.355-0.371-12.014-0.371c-2.598,0-6.448,0.125-11.55,0.371c-5.103,0.248-8.922,0.371-11.458,0.371
	c-2.104,0-3.495-0.772-4.175-2.319c-1.113-2.783-2.722-6.988-4.824-12.617c-2.041-5.071-4.949-12.771-8.721-23.101
	c-0.867-2.659-1.67-3.989-2.412-3.989c-0.557,0-0.835,1.021-0.835,3.062c0,4.207,0.417,10.515,1.252,18.926
	c0.835,8.412,1.252,14.597,1.252,18.555c0,1.423-0.619,2.134-1.855,2.134c-0.434,0-1.206-0.093-2.319-0.278
	c-5.32-0.742-13.359-1.113-24.121-1.113c-2.351,0-5.891,0.125-10.623,0.371c-4.731,0.248-8.273,0.371-10.623,0.371
	c-2.041,0-3.062-0.896-3.062-2.69c0-6.926,0.371-17.333,1.113-31.218C9.439,139.306,9.81,128.9,9.81,121.972
	c0-17.688-0.867-38.223-2.598-61.602L7.12,59.072c-0.125-1.236,0.464-1.948,1.763-2.134c-0.125,0,1.051,0,3.525,0
	c6.741,0,16.915-0.093,30.522-0.278c13.606-0.186,23.811-0.278,30.615-0.278c14.473,0,26.409,3.062,35.811,9.185
	c10.947,7.236,16.421,17.72,16.421,31.45c0,8.906-1.315,16.082-3.943,21.523c-2.629,5.443-7.407,10.639-14.333,15.586
	c-1.484,1.052-2.227,2.073-2.227,3.062c0,0.742,3.834,8.906,11.504,24.492C124.446,177.265,128.282,185.399,128.282,186.079z
	 M75.772,103.696c0-6.988-5.134-10.483-15.4-10.483c-2.537,0-3.804,3.866-3.804,11.597c0,0.928,0.061,2.319,0.186,4.175
	c0.123,1.855,0.186,3.247,0.186,4.175s1.267,1.392,3.804,1.392C70.762,114.55,75.772,110.932,75.772,103.696z"/>
</svg>
