<?xml version="1.0" encoding="utf-8"?>
<!-- Generator: Adobe Illustrator 16.0.2, SVG Export Plug-In . SVG Version: 6.00 Build 0)  -->
<!DOCTYPE svg PUBLIC "-//W3C//DTD SVG 1.1//EN" "http://www.w3.org/Graphics/SVG/1.1/DTD/svg11.dtd">
<svg version="1.1" id="Layer_1" xmlns="http://www.w3.org/2000/svg" xmlns:xlink="http://www.w3.org/1999/xlink" x="0px" y="0px"
	 width="142px" height="250px" viewBox="0 0 142 250" enable-background="new 0 0 142 250" xml:space="preserve">
<path d="M140.439,185.8c0,0.867-1.237,1.299-3.71,1.299c-2.66,0-6.68-0.123-12.061-0.371c-5.381-0.247-9.402-0.371-12.061-0.371
	c-2.66,0-6.619,0.125-11.875,0.371c-5.258,0.248-9.216,0.371-11.875,0.371c-1.609,0-2.537-0.928-2.783-2.783
	c0,0.063,0-1.453,0-4.546c0-2.473-1.176-3.711-3.525-3.711c-14.412,0-22.854,0.387-25.327,1.16
	c-2.475,0.774-3.989,2.707-4.546,5.798c-0.496,2.722-1.484,4.082-2.969,4.082c-2.537,0-6.34-0.123-11.411-0.371
	c-5.072-0.247-8.876-0.371-11.411-0.371c-2.475,0-6.232,0.125-11.272,0.371c-5.042,0.248-8.799,0.371-11.272,0.371
	c-1.794,0-2.69-0.772-2.69-2.319c0-1.855,14.626-44.036,43.882-126.543c0.557-1.545,1.051-2.489,1.484-2.83
	c0.432-0.339,1.392-0.51,2.876-0.51c2.164,0,5.365,0.278,9.602,0.835c4.236,0.557,7.437,0.835,9.602,0.835
	c8.721,0,14.812-0.432,18.276-1.299c0.742-0.247,1.267-0.371,1.577-0.371c1.051,0,2.288,1.052,3.711,3.154
	c0.618,0.928,3.154,6.464,7.607,16.606c3.525,7.793,8.535,19.575,15.029,35.347c3.092,8.227,7.251,20.688,12.478,37.388
	c5.226,16.699,9.354,29.101,12.385,37.202C140.347,185.151,140.439,185.554,140.439,185.8z M78.56,125.961
	c0-4.885-2.722-8.967-8.164-12.246c-5.443,3.959-8.164,8.041-8.164,12.246c0,2.166,0.819,4.067,2.458,5.706
	c1.638,1.64,3.54,2.458,5.706,2.458c2.227,0,4.143-0.819,5.752-2.458C77.755,130.029,78.56,128.127,78.56,125.961z"/>
</svg>
