<?xml version="1.0" encoding="utf-8"?>
<!-- Generator: Adobe Illustrator 16.0.2, SVG Export Plug-In . SVG Version: 6.00 Build 0)  -->
<!DOCTYPE svg PUBLIC "-//W3C//DTD SVG 1.1//EN" "http://www.w3.org/Graphics/SVG/1.1/DTD/svg11.dtd">
<svg version="1.1" id="lay" xmlns="http://www.w3.org/2000/svg" xmlns:xlink="http://www.w3.org/1999/xlink" x="0px" y="0px"
	 width="80px" height="250px" viewBox="0 0 80 250" enable-background="new 0 0 80 250" xml:space="preserve">
<path d="M76.646,151.567c0,2.598-0.294,6.51-0.881,11.736c-0.588,5.227-0.881,9.17-0.881,11.829c0,2.289-0.264,3.789-0.789,4.5
	c-0.526,0.712-1.902,1.686-4.128,2.922c-7.299,3.896-16.483,5.845-27.554,5.845c-21.152,0-31.729-6.896-31.729-20.688
	c0-3.277,0.154-8.241,0.464-14.89c0.309-6.648,0.464-11.611,0.464-14.89c0-2.598-1.454-3.927-4.36-3.989
	c-2.908-0.061-4.36-1.021-4.36-2.876c0-1.422,0.093-3.54,0.278-6.355c0.186-2.813,0.278-4.932,0.278-6.355
	c0-1.607-0.109-3.973-0.325-7.097c-0.217-3.123-0.325-5.458-0.325-7.004c0-1.36,1.252-2.458,3.757-3.293s3.757-2.087,3.757-3.757
	V85.605c0-8.658-0.032-12.307-0.093-10.947c0.247-5.938,1.144-8.906,2.69-8.906c1.545,0,4.607,0.526,9.185,1.577
	c4.947,1.176,8.287,1.825,10.02,1.948c1.174,0.125,4.453,0.557,9.834,1.299c4.02,0.557,7.267,0.835,9.741,0.835
	c1.731,0,2.598,0.681,2.598,2.041c0,2.227-0.217,5.583-0.649,10.066c-0.434,4.485-0.649,7.839-0.649,10.066
	c0,1.794,0.896,2.69,2.69,2.69c1.979,0,4.932-0.093,8.86-0.278c3.927-0.186,6.88-0.278,8.86-0.278c1.484,0,2.227,0.588,2.227,1.763
	c0,1.855-0.217,4.731-0.649,8.628c-0.434,3.896-0.649,6.835-0.649,8.813c0,1.98,0.061,4.949,0.186,8.906
	c0.123,3.959,0.186,6.928,0.186,8.906c0,1.547-0.959,2.319-2.876,2.319c-1.794,0-4.485-0.061-8.071-0.186
	c-3.588-0.123-6.278-0.186-8.071-0.186c-1.794,0-2.69,1.021-2.69,3.062c0,5.443,2.535,9.092,7.607,10.947
	c2.969,1.176,7.761,1.763,14.38,1.763C76.089,150.454,76.646,150.825,76.646,151.567z"/>
</svg>
