<?xml version="1.0" encoding="utf-8"?>
<!-- Generator: Adobe Illustrator 16.0.2, SVG Export Plug-In . SVG Version: 6.00 Build 0)  -->
<!DOCTYPE svg PUBLIC "-//W3C//DTD SVG 1.1//EN" "http://www.w3.org/Graphics/SVG/1.1/DTD/svg11.dtd">
<svg version="1.1" id="lay" xmlns="http://www.w3.org/2000/svg" xmlns:xlink="http://www.w3.org/1999/xlink" x="0px" y="0px"
	 width="121px" height="250px" viewBox="0 0 121 250" enable-background="new 0 0 121 250" xml:space="preserve">
<path d="M117.602,124.941c0,6.928-1.887,12.958-5.659,18.091c-2.289,3.217-5.722,6.433-10.298,9.648
	c-3.711,2.598-5.566,4.237-5.566,4.917c0,1.113,2.674,5.722,8.025,13.823c5.349,8.103,8.025,12.463,8.025,13.081
	c0,1.855-6.433,2.783-19.297,2.783H77.153c-6.865,0-10.639-0.557-11.318-1.67c-6.494-11.813-10.33-17.72-11.504-17.72
	c-0.681,0-1.948,0.186-3.804,0.557c0,1.732,0.061,4.407,0.186,8.025c0.123,3.618,0.186,6.325,0.186,8.118
	c0,2.227-0.742,3.34-2.227,3.34c-2.537,0-6.325-0.171-11.365-0.51c-5.042-0.339-8.83-0.51-11.365-0.51
	c-1.98,0-4.979,0.063-8.999,0.186c-4.021,0.123-7.021,0.186-8.999,0.186c-1.918,0-2.876-1.329-2.876-3.989
	c0-6.184,0.03-15.493,0.093-27.925c0.061-12.432,0.093-21.739,0.093-27.925c0-7.668-0.31-19.142-0.928-34.419
	C3.707,77.751,3.398,66.308,3.398,58.701c0-1.731,0.989-2.628,2.969-2.69c4.576,0,11.379-0.061,20.41-0.186
	c2.473-0.123,6.617-0.618,12.432-1.484c5.318-0.803,9.463-1.206,12.432-1.206c1.113,0,1.67,1.021,1.67,3.062
	c0-1.979-0.557,4.608-1.67,19.761c-0.434,5.32-0.649,12.803-0.649,22.451c0,1.918,0.401,2.876,1.206,2.876
	c0.309,0,0.865-0.216,1.67-0.649c7.668-4.143,15.4-6.216,23.193-6.216C104.087,94.418,117.602,104.593,117.602,124.941z
	 M67.412,137.094c0-2.535-0.851-4.653-2.551-6.355c-1.702-1.7-3.82-2.551-6.355-2.551c-5.876,0-8.813,2.041-8.813,6.123v7.144
	c0,3.464,2.937,5.195,8.813,5.195c2.659,0,4.808-0.912,6.448-2.737C66.591,142.089,67.412,139.816,67.412,137.094z"/>
</svg>
