<?xml version="1.0" encoding="utf-8"?>
<!-- Generator: Adobe Illustrator 16.0.2, SVG Export Plug-In . SVG Version: 6.00 Build 0)  -->
<!DOCTYPE svg PUBLIC "-//W3C//DTD SVG 1.1//EN" "http://www.w3.org/Graphics/SVG/1.1/DTD/svg11.dtd">
<svg version="1.1" id="lay" xmlns="http://www.w3.org/2000/svg" xmlns:xlink="http://www.w3.org/1999/xlink" x="0px" y="0px"
	 width="172px" height="250px" viewBox="0 0 172 250" enable-background="new 0 0 172 250" xml:space="preserve">
<path d="M164.718,115.849c0,3.588-0.139,8.999-0.418,16.235c-0.277,7.236-0.417,12.649-0.417,16.235
	c0,3.959,0.077,9.866,0.231,17.72c0.154,7.855,0.232,13.73,0.232,17.627c0,2.537-1.146,3.804-3.433,3.804
	c-2.104,0-5.228-0.155-9.37-0.464c-4.145-0.309-7.236-0.464-9.277-0.464c-2.166,0-5.396,0.093-9.695,0.278s-7.53,0.278-9.694,0.278
	c-2.412,0-3.618-1.577-3.618-4.731c0-2.844,0.093-7.065,0.278-12.664c0.186-5.597,0.278-9.818,0.278-12.664
	c0-2.227-0.093-5.581-0.278-10.066c-0.186-4.483-0.278-7.839-0.278-10.066c0-3.525-1.64-5.288-4.917-5.288
	c-3.402,0-5.474,2.722-6.216,8.164c-0.063,0.619-0.093,4.67-0.093,12.153c0,3.525,0.061,8.813,0.186,15.864
	c0.123,7.051,0.186,12.339,0.186,15.864c0,2.537-1.113,3.804-3.34,3.804c-2.166,0-5.381-0.155-9.648-0.464s-7.454-0.464-9.556-0.464
	c-2.104,0-5.242,0.093-9.417,0.278s-7.314,0.278-9.417,0.278c-2.412,0-3.618-1.577-3.618-4.731c0-2.844,0.061-7.065,0.186-12.664
	c0.123-5.597,0.186-9.818,0.186-12.664c0-2.227-0.063-5.566-0.186-10.02c-0.125-4.453-0.186-7.823-0.186-10.112
	c0-3.525-1.825-5.288-5.474-5.288c-3.588,0-5.381,1.702-5.381,5.103v46.016c0,3.154-1.516,4.731-4.546,4.731
	c-1.855,0-4.67-0.155-8.442-0.464c-3.773-0.309-6.587-0.464-8.442-0.464c-2.104,0-5.273,0.093-9.509,0.278
	c-4.237,0.186-7.407,0.278-9.509,0.278c-2.66,0-3.989-1.329-3.989-3.989v-43.882c0-15.461-1.083-27.058-3.247-34.79
	c-0.186-0.68-0.278-1.267-0.278-1.763c0-1.174,0.557-1.979,1.67-2.412c5.999-0.742,13.267-1.763,21.802-3.062
	c0.742-0.123,3.989-0.989,9.741-2.598c4.514-1.236,7.576-1.855,9.185-1.855c1.36,0,2.705,1.948,4.036,5.845
	c1.329,3.896,2.148,5.845,2.458,5.845c-0.434,0,2.52-1.809,8.86-5.427c6.339-3.618,11.952-5.427,16.838-5.427
	c13.916,0,22.915,4.824,26.997,14.473c8.287-9.648,18.091-14.473,29.409-14.473c7.359,0,13.854,1.825,19.482,5.474
	C161.501,103.264,164.718,108.861,164.718,115.849z"/>
</svg>
