<?xml version="1.0" encoding="utf-8"?>
<!-- Generator: Adobe Illustrator 16.0.2, SVG Export Plug-In . SVG Version: 6.00 Build 0)  -->
<!DOCTYPE svg PUBLIC "-//W3C//DTD SVG 1.1//EN" "http://www.w3.org/Graphics/SVG/1.1/DTD/svg11.dtd">
<svg version="1.1" id="lay" xmlns="http://www.w3.org/2000/svg" xmlns:xlink="http://www.w3.org/1999/xlink" x="0px" y="0px"
	 width="81px" height="250px" viewBox="0 0 81 250" enable-background="new 0 0 81 250" xml:space="preserve">
<path d="M79.326,100.263c0,0.928-1.206,5.845-3.618,14.751c-2.412,8.66-3.928,13.809-4.546,15.447
	c-0.619,1.64-1.516,2.458-2.69,2.458c-0.928,0-2.335-0.093-4.221-0.278c-1.887-0.186-3.325-0.278-4.314-0.278
	c-2.537,0-4.685,0.789-6.448,2.366s-2.644,3.634-2.644,6.169c0,5.691,3.03,8.535,9.092,8.535c1.484,0,3.463-0.401,5.938-1.206
	c2.473-0.803,3.927-1.206,4.36-1.206c1.67,0,3.586,5.195,5.752,15.586c1.917,9.154,2.876,15.463,2.876,18.926
	c0,2.104-4.082,4.021-12.246,5.752c-6.557,1.422-11.628,2.134-15.215,2.134c-13.051,0-24.446-4.824-34.187-14.473
	S2.602,153.949,2.602,140.898c0-13.916,4.639-25.435,13.916-34.558c9.277-9.122,20.904-13.684,34.883-13.684
	c10.02,0,18.307,1.64,24.863,4.917C78.305,98.625,79.326,99.521,79.326,100.263z"/>
</svg>
