<?xml version="1.0" encoding="utf-8"?>
<!-- Generator: Adobe Illustrator 16.0.2, SVG Export Plug-In . SVG Version: 6.00 Build 0)  -->
<!DOCTYPE svg PUBLIC "-//W3C//DTD SVG 1.1//EN" "http://www.w3.org/Graphics/SVG/1.1/DTD/svg11.dtd">
<svg version="1.1" id="lay" xmlns="http://www.w3.org/2000/svg" xmlns:xlink="http://www.w3.org/1999/xlink" x="0px" y="0px"
	 width="77px" height="250px" viewBox="0 0 77 250" enable-background="new 0 0 77 250" xml:space="preserve">
<path d="M71.07,59.35c0,6.309-0.294,15.757-0.881,28.342c-0.588,12.587-0.881,22.034-0.881,28.342c0,2.041,0.061,5.103,0.186,9.185
	c0.123,4.082,0.186,7.144,0.186,9.185c0,16.391-1.454,29.409-4.36,39.058c-5.381,17.564-13.916,31.604-25.605,42.119
	c-1.361,1.174-2.505,1.763-3.433,1.763c-0.805,0-1.64-0.464-2.505-1.392c-3.093-3.588-7.855-8.845-14.287-15.771
	c-3.711-3.154-9.216-8.01-16.514-14.565c-0.805-0.803-1.206-1.515-1.206-2.134c0-0.557,0.339-1.174,1.021-1.855
	c0.989-0.618,2.38-1.545,4.175-2.783c5.195-4.082,8.875-9.617,11.04-16.606c1.979-6.432,2.969-15.431,2.969-26.997
	c0-9.771-0.371-22.266-1.113-37.48c-1.113-21.399-1.732-33.862-1.855-37.388v-1.113c-0.063-1.545,0.649-2.319,2.134-2.319
	c2.783,0,6.988,0.125,12.617,0.371c5.627,0.248,9.834,0.371,12.617,0.371c2.598,0,6.494-0.123,11.689-0.371
	c5.195-0.247,9.092-0.371,11.689-0.371C70.296,56.938,71.07,57.743,71.07,59.35z"/>
</svg>
