<?xml version="1.0" encoding="utf-8"?>
<!-- Generator: Adobe Illustrator 16.0.2, SVG Export Plug-In . SVG Version: 6.00 Build 0)  -->
<!DOCTYPE svg PUBLIC "-//W3C//DTD SVG 1.1//EN" "http://www.w3.org/Graphics/SVG/1.1/DTD/svg11.dtd">
<svg version="1.1" id="lay" xmlns="http://www.w3.org/2000/svg" xmlns:xlink="http://www.w3.org/1999/xlink" x="0px" y="0px"
	 width="136px" height="250px" viewBox="0 0 136 250" enable-background="new 0 0 136 250" xml:space="preserve">
<path d="M133.591,181.811c0,0.928-0.572,2.041-1.717,3.34s-2.149,1.948-3.015,1.948c-1.732,0-4.314-0.123-7.747-0.371
	c-3.433-0.247-5.984-0.371-7.654-0.371c-3.402,0-8.505,0.125-15.308,0.371c-6.804,0.248-11.907,0.371-15.308,0.371
	c-0.99,0-1.64-0.371-1.948-1.113c-0.31-0.742-0.619-1.515-0.928-2.319c-1.484-3.834-3.866-8.844-7.144-15.029
	c-3.959-7.422-6.526-12.339-7.7-14.751c-1.484-3.958-3.062-7.947-4.731-11.968c-0.248-0.309-0.403-0.464-0.464-0.464
	c-1.176,0-1.763,1.547-1.763,4.639c0,4.145,0.186,10.407,0.557,18.787c0.371,8.381,0.557,14.644,0.557,18.787
	c0,2.289-0.959,3.433-2.876,3.433c-2.66,0-6.649-0.123-11.968-0.371c-5.32-0.247-9.309-0.371-11.968-0.371
	c-2.412,0-6.046,0.125-10.901,0.371c-4.856,0.248-8.489,0.371-10.901,0.371c-2.041,0-3.062-0.896-3.062-2.69
	c0-6.741,0.309-16.869,0.928-30.383c0.618-13.513,0.928-23.641,0.928-30.383c0-7.174-0.294-17.952-0.881-32.332
	C7.99,76.931,7.697,66.154,7.697,58.979c0-1.36,0.742-2.041,2.227-2.041c2.598,0,6.509,0.125,11.736,0.371
	c5.226,0.248,9.138,0.371,11.736,0.371c2.659,0,6.617-0.139,11.875-0.417c5.256-0.278,9.185-0.417,11.782-0.417
	c0.989,0,1.484,0.619,1.484,1.855c0,4.33-0.155,10.84-0.464,19.529c-0.31,8.69-0.464,15.2-0.464,19.529
	c0,2.475,0.154,4.052,0.464,4.731c0.557,1.052,1.917,1.577,4.082,1.577c7.979,0,12.957-7.205,14.937-21.616
	c1.236-8.782,4.05-16.514,8.442-23.193c1.236-1.917,9.153-2.876,23.75-2.876c15.895,0,23.843,0.897,23.843,2.69
	c0,0.31-0.155,0.742-0.464,1.299c-2.598,3.896-3.896,5.876-3.896,5.938c-1.176,2.041-1.98,4.299-2.412,6.772
	c-1.609,8.598-2.505,13.391-2.69,14.38c-1.238,5.32-2.815,9.896-4.731,13.73c-2.351,4.701-5.845,9.34-10.483,13.916
	c-3.279,3.217-4.917,5.351-4.917,6.401c0,0.371,1.7,4.763,5.103,13.174c2.164,5.505,5.72,13.607,10.669,24.307
	c0.618,1.052,5.318,8.381,14.102,21.987C133.528,181.224,133.591,181.502,133.591,181.811z"/>
</svg>
