<?xml version="1.0" encoding="utf-8"?>
<!-- Generator: Adobe Illustrator 16.0.2, SVG Export Plug-In . SVG Version: 6.00 Build 0)  -->
<!DOCTYPE svg PUBLIC "-//W3C//DTD SVG 1.1//EN" "http://www.w3.org/Graphics/SVG/1.1/DTD/svg11.dtd">
<svg version="1.1" id="lay" xmlns="http://www.w3.org/2000/svg" xmlns:xlink="http://www.w3.org/1999/xlink" x="0px" y="0px"
	 width="129px" height="250px" viewBox="0 0 129 250" enable-background="new 0 0 129 250" xml:space="preserve">
<path d="M125.22,108.242c0,16.576-4.299,29.564-12.896,38.965c-8.906,9.773-21.523,14.658-37.852,14.658
	c-1.238,0-3.078-0.107-5.52-0.325c-2.444-0.216-4.284-0.325-5.52-0.325c-3.279,0-4.917,0.959-4.917,2.876
	c0,2.412,0.278,6.016,0.835,10.808c0.557,4.794,0.835,8.366,0.835,10.715c0,1.423-0.619,2.134-1.855,2.134
	c-0.434,0-1.206-0.093-2.319-0.278c-5.381-0.742-13.422-1.113-24.121-1.113c-2.351,0-5.891,0.125-10.623,0.371
	c-4.731,0.248-8.273,0.371-10.623,0.371c-2.041,0-3.062-0.896-3.062-2.69c0-6.926,0.371-17.333,1.113-31.218
	C9.439,139.306,9.81,128.9,9.81,121.972c0-17.688-0.867-38.223-2.598-61.602L7.12,59.072c-0.125-1.422,0.618-2.134,2.227-2.134
	c3.834,0,9.586,0.125,17.256,0.371c7.668,0.248,13.42,0.371,17.256,0.371c3.277,0,8.194-0.123,14.751-0.371
	c6.555-0.247,11.472-0.371,14.751-0.371c15.338,0,27.816,4.717,37.434,14.148C120.411,80.519,125.22,92.904,125.22,108.242z
	 M74.844,109.541c0-9.092-4.423-13.638-13.267-13.638c-2.537,0-3.804,4.546-3.804,13.638c0,1.423,0.061,3.525,0.186,6.309
	c0.123,2.783,0.186,4.887,0.186,6.309c0,0.99,0.928,1.484,2.783,1.484C70.206,123.642,74.844,118.942,74.844,109.541z"/>
</svg>
