<?xml version="1.0" encoding="utf-8"?>
<!-- Generator: Adobe Illustrator 16.0.2, SVG Export Plug-In . SVG Version: 6.00 Build 0)  -->
<!DOCTYPE svg PUBLIC "-//W3C//DTD SVG 1.1//EN" "http://www.w3.org/Graphics/SVG/1.1/DTD/svg11.dtd">
<svg version="1.1" id="lay" xmlns="http://www.w3.org/2000/svg" xmlns:xlink="http://www.w3.org/1999/xlink" x="0px" y="0px"
	 width="161px" height="250px" viewBox="0 0 161 250" enable-background="new 0 0 161 250" xml:space="preserve">
<path d="M153.466,184.409c0,1.794-1.021,2.69-3.062,2.69c-2.412,0-6.046-0.123-10.901-0.371c-4.856-0.247-8.521-0.371-10.994-0.371
	c-2.412,0-6.077,0.125-10.994,0.371c-4.917,0.248-8.582,0.371-10.994,0.371c-1.918,0-2.876-1.144-2.876-3.433
	c0-4.143,0.186-10.405,0.557-18.787c0.371-8.38,0.557-14.642,0.557-18.787c0-1.793-0.186-2.69-0.557-2.69
	c-1.176,0-5.119,7.793-11.829,23.379c-6.711,15.586-10.685,23.379-11.921,23.379c-1.732,0-5.814-7.793-12.246-23.379
	c-6.433-15.586-10.268-23.379-11.504-23.379c-0.371,0-0.557,0.897-0.557,2.69c0,4.145,0.186,10.407,0.557,18.787
	c0.371,8.381,0.557,14.644,0.557,18.787c0,2.289-0.928,3.433-2.783,3.433c-2.475,0-6.155-0.123-11.04-0.371
	c-4.887-0.247-8.567-0.371-11.04-0.371c-2.412,0-6.046,0.125-10.901,0.371c-4.856,0.248-8.489,0.371-10.901,0.371
	c-2.041,0-3.062-0.896-3.062-2.69c0-6.741,0.309-16.869,0.928-30.383c0.618-13.513,0.928-23.641,0.928-30.383
	c0-7.174-0.294-17.952-0.881-32.332c-0.588-14.38-0.881-25.156-0.881-32.332c0-1.36,1.392-2.041,4.175-2.041
	c2.041,0,5.103-0.093,9.185-0.278s7.144-0.278,9.185-0.278c2.288,0,5.782-0.262,10.483-0.789c4.7-0.525,8.194-0.789,10.483-0.789
	c0.557,0,1.67,1.361,3.34,4.082c6.741,10.886,13.946,23.472,21.616,37.759c2.721,5.072,4.298,7.607,4.731,7.607
	c0.928,0,2.412-2.35,4.453-7.051c2.164-5.071,5.442-11.349,9.834-18.833c6.309-10.576,9.927-16.699,10.854-18.369
	c1.422-2.659,2.69-3.989,3.804-3.989c2.288,0,5.782,0.125,10.483,0.371c4.7,0.248,8.225,0.371,10.576,0.371
	c2.288,0,5.674-0.2,10.159-0.603c4.483-0.401,7.87-0.603,10.159-0.603c1.484,0,2.227,0.712,2.227,2.134
	c0,7.299-0.311,18.276-0.928,32.935c-0.619,14.658-0.928,25.668-0.928,33.027c0,6.742,0.324,16.87,0.975,30.383
	C153.141,167.54,153.466,177.668,153.466,184.409z"/>
</svg>
