<?xml version="1.0" encoding="utf-8"?>
<!-- Generator: Adobe Illustrator 16.0.2, SVG Export Plug-In . SVG Version: 6.00 Build 0)  -->
<!DOCTYPE svg PUBLIC "-//W3C//DTD SVG 1.1//EN" "http://www.w3.org/Graphics/SVG/1.1/DTD/svg11.dtd">
<svg version="1.1" id="lay" xmlns="http://www.w3.org/2000/svg" xmlns:xlink="http://www.w3.org/1999/xlink" x="0px" y="0px"
	 width="116px" height="250px" viewBox="0 0 116 250" enable-background="new 0 0 116 250" xml:space="preserve">
<path d="M110.186,98.408c0,4.639-0.14,11.597-0.418,20.874c-0.277,9.276-0.416,16.235-0.416,20.874c0,2.041,0.029,5.119,0.092,9.23
	c0.062,4.114,0.094,7.19,0.094,9.231c0,16.823-2.104,28.481-6.309,34.976c-8.97,13.793-25.946,20.688-50.934,20.688
	c-6.062,0-13.607-0.742-22.637-2.228c-12.246-1.979-18.369-4.516-18.369-7.606c1.67-6.99,3.494-14.813,5.474-23.472
	c0.557-2.351,1.36-3.525,2.412-3.525c0.186,0,0.464,0.063,0.835,0.186c10.391,2.783,18.678,4.176,24.863,4.176
	c3.34,0,6.68-0.433,10.02-1.299c4.761-1.113,7.144-2.783,7.144-5.011v-3.989c-4.949,2.289-11.165,3.434-18.647,3.434
	c-11.938,0-21.663-3.772-29.177-11.318c-7.515-7.545-11.272-17.256-11.272-29.131s3.556-21.77,10.669-29.688
	c7.359-8.225,16.915-12.339,28.667-12.339c6.37,0,11.627,1.763,15.771,5.288c1.793,1.918,3.586,3.804,5.382,5.659
	c0.246-0.371,0.37-0.958,0.37-1.763c0-0.803-0.125-2.009-0.37-3.618c-0.248-1.607-0.371-2.813-0.371-3.618
	c0-1.174,0.4-1.763,1.205-1.763c1.36,0,9,0.542,22.916,1.624c13.916,1.083,21.027,1.686,21.338,1.809
	C109.628,96.459,110.186,97.233,110.186,98.408z M65.747,140.898c0-5.689-2.783-8.535-8.35-8.535c-2.537,0-4.67,0.805-6.401,2.412
	c-1.732,1.609-2.598,3.65-2.598,6.123c0,2.475,0.865,4.485,2.598,6.03c1.731,1.547,3.864,2.319,6.401,2.319
	c2.412,0,4.406-0.789,5.984-2.365C64.958,145.305,65.747,143.311,65.747,140.898z"/>
</svg>
