<?xml version="1.0" encoding="utf-8"?>
<!-- Generator: Adobe Illustrator 16.0.2, SVG Export Plug-In . SVG Version: 6.00 Build 0)  -->
<!DOCTYPE svg PUBLIC "-//W3C//DTD SVG 1.1//EN" "http://www.w3.org/Graphics/SVG/1.1/DTD/svg11.dtd">
<svg version="1.1" id="lay" xmlns="http://www.w3.org/2000/svg" xmlns:xlink="http://www.w3.org/1999/xlink" x="0px" y="0px"
	 width="101px" height="250px" viewBox="0 0 101 250" enable-background="new 0 0 101 250" xml:space="preserve">
<path d="M98.928,147.763c0,3.279-0.371,9.927-1.113,19.946c-0.742,10.515-1.392,16.978-1.948,19.39
	c-0.31,1.422-1.113,2.134-2.412,2.134c-3.65,0-9.108-0.264-16.375-0.789c-7.268-0.526-12.726-0.789-16.375-0.789
	c-5.443,0-13.607-0.093-24.492-0.278c-10.886-0.186-19.05-0.278-24.492-0.278c-2.722,0-4.175-0.71-4.36-2.134
	c-0.186-4.514-0.959-11.226-2.319-20.132c-1.484-5.256-2.227-8.194-2.227-8.813c0-0.494,5.875-9.648,17.627-27.461
	c11.75-17.813,17.627-27.955,17.627-30.43c0-1.236-0.805-1.855-2.412-1.855H6.433c-1.67,0-2.505-0.835-2.505-2.505
	c0-2.164,0.371-5.04,1.113-8.628c0.989-4.576,1.577-7.452,1.763-8.628C8.288,64.701,9.03,57.928,9.03,56.196
	c0-1.299,0.803-1.948,2.412-1.948c2.659,0,6.68,0.449,12.061,1.345c5.381,0.897,9.431,1.345,12.153,1.345h56.777
	c1.484,0,2.38,0.897,2.69,2.69c1.422,7.67,2.134,17.07,2.134,28.203c0,1.855-0.774,3.835-2.319,5.938
	c-4.701,6.433-10.947,15.432-18.74,26.997c-10.391,15.277-15.586,23.72-15.586,25.327c0,0.619,0.557,0.928,1.67,0.928
	c7.174,0,12.678-0.123,16.514-0.371c3.648-0.247,9.029-0.835,16.143-1.763c1.36-0.247,2.195-0.371,2.505-0.371
	C98.432,144.516,98.928,145.599,98.928,147.763z"/>
</svg>
