<?xml version="1.0" encoding="utf-8"?>
<!-- Generator: Adobe Illustrator 16.0.2, SVG Export Plug-In . SVG Version: 6.00 Build 0)  -->
<!DOCTYPE svg PUBLIC "-//W3C//DTD SVG 1.1//EN" "http://www.w3.org/Graphics/SVG/1.1/DTD/svg11.dtd">
<svg version="1.1" id="lay" xmlns="http://www.w3.org/2000/svg" xmlns:xlink="http://www.w3.org/1999/xlink" x="0px" y="0px"
	 width="97px" height="250px" viewBox="0 0 97 250" enable-background="new 0 0 97 250" xml:space="preserve">
<path d="M95.861,148.691c0,0.496-0.217,1.269-0.649,2.319c-1.052,2.598-2.629,8.412-4.731,17.441
	c-1.113,4.639-1.887,9.402-2.319,14.287c-0.434,5.195-1.299,7.793-2.598,7.793c-2.104,0-5.288-0.573-9.556-1.716
	c-4.268-1.145-7.484-1.716-9.648-1.716l-12.246-0.093c-11.752-0.061-22.05,0.339-30.894,1.206
	c-7.546,0.803-11.845,1.206-12.896,1.206c-1.67,0-2.598-0.403-2.783-1.206c-0.063-0.371-0.093-0.99-0.093-1.855
	c0-1.36,0.061-4.236,0.186-8.628c0.123-3.586,0.186-6.494,0.186-8.721c0-1.793-0.341-4.298-1.021-7.515
	c-0.681-3.215-1.021-5.103-1.021-5.659c0-0.742,0.68-1.453,2.041-2.134c9.277-4.576,18.091-11.75,26.44-21.523
	c-1.67,0-4.221-0.061-7.654-0.186c-3.433-0.123-6.016-0.186-7.747-0.186c-1.732,0-4.33,0.078-7.793,0.232
	c-3.464,0.155-6.062,0.232-7.793,0.232c-1.238,0-1.855-0.401-1.855-1.206c0-0.68,1.515-6.246,4.546-16.699
	c2.227-7.916,3.34-15.554,3.34-22.915c0-0.803,1.267-1.206,3.804-1.206c1.422,0,3.37,0.341,5.845,1.021
	c2.906,0.805,4.824,1.269,5.752,1.392c6.061,0.867,12.833,1.361,20.317,1.484c5.01,0.125,11.813,0.063,20.41-0.186
	c10.02-0.247,16.792-0.371,20.317-0.371c2.535,0,3.804,1.145,3.804,3.433c0,1.484-0.093,3.681-0.278,6.587
	c-0.186,2.908-0.278,5.103-0.278,6.587c0,1.423,0.107,3.557,0.325,6.401c0.216,2.846,0.325,4.979,0.325,6.401
	c0,1.98-3.866,6.68-11.597,14.102c-6.186,6-11.04,10.33-14.565,12.988c8.287-0.247,13.235-0.401,14.844-0.464
	c5.689-0.371,10.576-0.989,14.658-1.855c0.618-0.123,1.113-0.186,1.484-0.186C95.397,147.578,95.861,147.949,95.861,148.691z"/>
</svg>
