<?xml version="1.0" encoding="utf-8"?>
<!-- Generator: Adobe Illustrator 16.0.2, SVG Export Plug-In . SVG Version: 6.00 Build 0)  -->
<!DOCTYPE svg PUBLIC "-//W3C//DTD SVG 1.1//EN" "http://www.w3.org/Graphics/SVG/1.1/DTD/svg11.dtd">
<svg version="1.1" id="lay" xmlns="http://www.w3.org/2000/svg" xmlns:xlink="http://www.w3.org/1999/xlink" x="0px" y="0px"
	 width="147px" height="250px" viewBox="0 0 147 250" enable-background="new 0 0 147 250" xml:space="preserve">
<path d="M142.106,122.158c0,19.05-6.696,35.3-20.085,48.752c-13.391,13.452-29.611,20.178-48.66,20.178
	c-19.111,0-35.363-6.726-48.752-20.178c-13.391-13.452-20.085-29.702-20.085-48.752c0-19.111,6.694-35.423,20.085-48.938
	c13.39-13.513,29.641-20.271,48.752-20.271c19.049,0,35.269,6.758,48.66,20.271C135.41,86.734,142.106,103.046,142.106,122.158z
	 M94.606,122.158c0-5.999-2.057-11.147-6.169-15.447c-4.114-4.298-9.138-6.448-15.076-6.448c-6.062,0-11.133,2.134-15.215,6.401
	s-6.123,9.433-6.123,15.493c0,5.876,2.087,10.947,6.262,15.215s9.199,6.401,15.076,6.401c5.938,0,10.962-2.118,15.076-6.355
	C92.549,133.183,94.606,128.095,94.606,122.158z"/>
</svg>
