<?xml version="1.0" encoding="utf-8"?>
<!-- Generator: Adobe Illustrator 16.0.2, SVG Export Plug-In . SVG Version: 6.00 Build 0)  -->
<!DOCTYPE svg PUBLIC "-//W3C//DTD SVG 1.1//EN" "http://www.w3.org/Graphics/SVG/1.1/DTD/svg11.dtd">
<svg version="1.1" id="lay" xmlns="http://www.w3.org/2000/svg" xmlns:xlink="http://www.w3.org/1999/xlink" x="0px" y="0px"
	 width="115px" height="250px" viewBox="0 0 115 250" enable-background="new 0 0 115 250" xml:space="preserve">
<path d="M108.479,183.667c0,2.537-1.145,3.804-3.433,3.804c-2.104,0-5.227-0.093-9.37-0.278c-4.145-0.186-7.236-0.278-9.277-0.278
	c-2.166,0-5.397,0.032-9.695,0.093c-4.299,0.063-7.531,0.093-9.695,0.093c-2.412,0-3.618-1.577-3.618-4.731
	c0-2.844,0.061-7.065,0.186-12.664c0.123-5.597,0.186-9.818,0.186-12.664c0-2.102-0.063-5.256-0.186-9.463
	c-0.125-4.205-0.186-7.359-0.186-9.463c0-3.586-1.763-5.381-5.288-5.381c-3.588,0-5.381,1.732-5.381,5.195v44.81
	c0,3.154-1.331,4.731-3.989,4.731c-1.98,0-4.979-0.093-8.999-0.278c-4.021-0.186-7.021-0.278-8.999-0.278
	c-2.104,0-5.273,0.032-9.509,0.093c-4.237,0.063-7.407,0.093-9.509,0.093c-2.66,0-3.989-1.329-3.989-3.989v-43.325
	c0-13.42-1.454-25.45-4.36-36.089c-0.186-0.68-0.278-1.267-0.278-1.763c0-1.174,0.525-1.979,1.577-2.412
	c6.309-0.803,13.792-1.824,22.451-3.062c12.803-2.473,20.162-3.711,22.08-3.711c1.236,0,2.009,2.041,2.319,6.123
	c0.309,4.082,0.803,6.123,1.484,6.123c-0.496,0,2.705-1.793,9.602-5.381c6.896-3.586,12.601-5.381,17.117-5.381
	c7.483,0,13.946,1.763,19.39,5.288c6.246,4.145,9.37,9.773,9.37,16.885V183.667z"/>
</svg>
