<?xml version="1.0" encoding="utf-8"?>
<!-- Generator: Adobe Illustrator 16.0.2, SVG Export Plug-In . SVG Version: 6.00 Build 0)  -->
<!DOCTYPE svg PUBLIC "-//W3C//DTD SVG 1.1//EN" "http://www.w3.org/Graphics/SVG/1.1/DTD/svg11.dtd">
<svg version="1.1" id="lay" xmlns="http://www.w3.org/2000/svg" xmlns:xlink="http://www.w3.org/1999/xlink" x="0px" y="0px"
	 width="146px" height="250px" viewBox="0 0 146 250" enable-background="new 0 0 146 250" xml:space="preserve">
<path d="M138.73,59.443c0,7.051-0.341,17.673-1.021,31.868c-0.681,14.194-1.021,24.849-1.021,31.96l-0.186,61.694
	c0,1.423-1.083,2.134-3.247,2.134c-2.041,0-5.088-0.123-9.138-0.371c-4.052-0.247-7.097-0.371-9.138-0.371
	c-2.104,0-5.288,0.125-9.556,0.371c-4.268,0.248-7.484,0.371-9.648,0.371c-1.052,0-2.319-1.021-3.804-3.062
	c-22.451-31.047-34.604-46.572-36.46-46.572c-0.867,0-1.299,0.897-1.299,2.69c0,4.824,0.186,12.077,0.557,21.755
	c0.371,9.68,0.557,16.931,0.557,21.755c0,2.289-0.959,3.433-2.876,3.433c-2.227,0-5.583-0.123-10.066-0.371
	c-4.485-0.247-7.839-0.371-10.066-0.371c-2.412,0-6.046,0.125-10.901,0.371c-4.856,0.248-8.489,0.371-10.901,0.371
	c-2.041,0-3.062-0.896-3.062-2.69c0-6.741,0.309-16.869,0.928-30.383c0.618-13.513,0.928-23.641,0.928-30.383
	c0-7.051-0.294-17.611-0.881-31.682c-0.588-14.07-0.881-24.6-0.881-31.589c0-1.36,1.267-2.041,3.804-2.041
	c2.783,0,8.813-0.525,18.091-1.577c1.236-0.123,4.546-0.649,9.927-1.577c4.082-0.742,7.359-1.113,9.834-1.113
	c0.865,0,2.134,1.331,3.804,3.989c1.051,1.67,6.03,8.752,14.937,21.245c4.762,6.99,12.276,17.133,22.544,30.43
	c0.618-0.432,0.928-2.442,0.928-6.03c0-4.762-0.403-11.952-1.206-21.57c-0.805-9.617-1.206-16.807-1.206-21.57
	c0-2.412,0.618-3.618,1.855-3.618c2.473,0,6.184,0.093,11.133,0.278c4.947,0.186,8.658,0.278,11.133,0.278
	c2.659,0,6.648-0.093,11.968-0.278c5.318-0.186,9.308-0.278,11.968-0.278C138.173,56.938,138.73,57.773,138.73,59.443z"/>
</svg>
