<?xml version="1.0" encoding="utf-8"?>
<!-- Generator: Adobe Illustrator 16.0.2, SVG Export Plug-In . SVG Version: 6.00 Build 0)  -->
<!DOCTYPE svg PUBLIC "-//W3C//DTD SVG 1.1//EN" "http://www.w3.org/Graphics/SVG/1.1/DTD/svg11.dtd">
<svg version="1.1" id="lay" xmlns="http://www.w3.org/2000/svg" xmlns:xlink="http://www.w3.org/1999/xlink" x="0px" y="0px"
	 width="124px" height="250px" viewBox="0 0 124 250" enable-background="new 0 0 124 250" xml:space="preserve">
<path d="M121.792,59.165c0,3.34-0.155,8.381-0.464,15.122c-0.31,6.742-0.464,11.782-0.464,15.122s-0.464,6-1.392,7.979
	c-8.845,19.854-18.647,36.708-29.409,50.562c-2.289,2.969-3.433,5.32-3.433,7.051c0,3.279,0.216,8.196,0.649,14.751
	c0.432,6.557,0.649,11.443,0.649,14.658c0,1.855-0.897,2.783-2.69,2.783c-2.66,0-6.665-0.139-12.014-0.417
	c-5.351-0.278-9.355-0.417-12.014-0.417c-2.598,0-6.448,0.125-11.55,0.371c-5.103,0.248-8.922,0.371-11.458,0.371
	c-2.041,0-3.062-0.896-3.062-2.69c0-3.215,0.309-8.102,0.928-14.658c0.618-6.555,0.928-11.472,0.928-14.751
	c0-1.979-0.742-4.453-2.227-7.422c-3.711-5.813-8.969-14.225-15.771-25.234c-3.959-6.741-8.071-14.163-12.339-22.266
	c-1.361-2.535-2.073-4.7-2.134-6.494c-0.063-3.34-0.464-8.875-1.206-16.606C2.64,69.803,2.3,64.267,2.3,60.371
	c0-2.288,0.71-3.433,2.134-3.433c2.412,0,6.045,0.125,10.901,0.371c4.854,0.248,8.489,0.371,10.901,0.371
	c2.906,0,7.329-0.139,13.267-0.417s10.359-0.417,13.267-0.417c0.928,0,1.392,0.681,1.392,2.041
	c-0.248,9.154-0.371,18.184-0.371,27.09c0,1.547,1.113,4.268,3.34,8.164c1.917,3.402,3.586,5.876,5.01,7.422
	c1.36-1.545,2.969-3.927,4.824-7.144c2.102-3.711,3.154-6.309,3.154-7.793c0-3.092-0.202-7.73-0.603-13.916
	c-0.403-6.184-0.603-10.792-0.603-13.823c0-1.36,0.464-2.041,1.392-2.041c2.659,0,6.648,0.139,11.968,0.417
	c5.318,0.278,9.308,0.417,11.968,0.417c2.783,0,6.988-0.123,12.617-0.371c5.627-0.247,9.834-0.371,12.617-0.371
	C121.019,56.938,121.792,57.68,121.792,59.165z"/>
</svg>
