<?xml version="1.0" encoding="utf-8"?>
<!-- Generator: Adobe Illustrator 16.0.2, SVG Export Plug-In . SVG Version: 6.00 Build 0)  -->
<!DOCTYPE svg PUBLIC "-//W3C//DTD SVG 1.1//EN" "http://www.w3.org/Graphics/SVG/1.1/DTD/svg11.dtd">
<svg version="1.1" id="lay" xmlns="http://www.w3.org/2000/svg" xmlns:xlink="http://www.w3.org/1999/xlink" x="0px" y="0px"
	 width="140px" height="250px" viewBox="0 0 140 250" enable-background="new 0 0 140 250" xml:space="preserve">
<path d="M135.173,121.323c0,8.598-1.748,17.318-5.242,26.162c-3.495,8.845-8.21,16.36-14.148,22.544
	c-10.947,11.381-25.452,17.07-43.511,17.07c-3.65,0-9.092-0.123-16.328-0.371c-7.236-0.247-12.68-0.371-16.328-0.371
	c-3.217,0-8.041,0.125-14.473,0.371c-6.433,0.248-11.226,0.371-14.38,0.371c-2.041,0-3.062-0.896-3.062-2.69
	c0-6.741,0.309-16.869,0.928-30.383c0.618-13.513,0.928-23.641,0.928-30.383c0-7.174-0.294-17.952-0.881-32.332
	c-0.588-14.38-0.881-25.125-0.881-32.239c0-1.422,0.772-2.134,2.319-2.134h23.379c2.35,0,5.689-0.03,10.02-0.093
	c4.639-0.061,8.132-0.093,10.483-0.093c24.986,0,43.232,3.804,54.736,11.411c8.04,5.258,14.503,13.081,19.39,23.472
	C132.822,101.469,135.173,111.366,135.173,121.323z M87.302,121.323c0-7.297-2.49-13.513-7.468-18.647
	c-4.979-5.133-11.086-7.7-18.323-7.7c-3.093,0-4.639,1.284-4.639,3.85c0,2.567-0.063,6.448-0.186,11.643
	c-0.125,5.195-0.186,9.092-0.186,11.689c0,2.537,0.061,6.325,0.186,11.365c0.123,5.042,0.186,8.83,0.186,11.365
	c0,2.783,1.731,4.175,5.195,4.175c7.422,0,13.545-2.783,18.369-8.35C85.013,135.394,87.302,128.93,87.302,121.323z"/>
</svg>
