<?xml version="1.0" encoding="utf-8"?>
<!-- Generator: Adobe Illustrator 16.0.2, SVG Export Plug-In . SVG Version: 6.00 Build 0)  -->
<!DOCTYPE svg PUBLIC "-//W3C//DTD SVG 1.1//EN" "http://www.w3.org/Graphics/SVG/1.1/DTD/svg11.dtd">
<svg version="1.1" id="lay" xmlns="http://www.w3.org/2000/svg" xmlns:xlink="http://www.w3.org/1999/xlink" x="0px" y="0px"
	 width="90px" height="250px" viewBox="0 0 90 250" enable-background="new 0 0 90 250" xml:space="preserve">
<path d="M83.176,89.873c0,0.248-2.644,2.166-7.932,5.752c-5.288,3.588-7.932,7.361-7.932,11.318c0,2.783,2.38,8.242,7.144,16.375
	c4.762,8.134,7.144,15.447,7.144,21.941c0,7.979-1.855,15.029-5.566,21.152c-3.896,6.494-11.257,12.896-22.08,19.204
	c-9.092,5.256-18.246,9.246-27.461,11.968c-0.805,0.186-1.423,0.278-1.855,0.278c-0.742,0-1.454-0.681-2.134-2.041
	c-0.496-0.928-4.052-7.484-10.669-19.668c-6.248-11.504-9.37-17.317-9.37-17.441c0-0.432,2.041-1.855,6.123-4.268
	c5.01-2.906,8.813-5.597,11.411-8.071c4.082-3.958,6.123-8.102,6.123-12.432c0-3.834-1.361-7.73-4.082-11.689
	c-5.01-7.174-7.546-10.823-7.607-10.947c-2.722-5.071-4.082-10.916-4.082-17.534c0-11.504,5.442-21.028,16.328-28.574
	c8.844-6.123,19.605-10.081,32.285-11.875c2.288-0.309,3.247-0.464,2.876-0.464c0.309,0,0.742,0.681,1.299,2.041
	c2.721,6.68,9.308,18.061,19.761,34.141C83.083,89.348,83.176,89.626,83.176,89.873z"/>
</svg>
