<?xml version="1.0" encoding="utf-8"?>
<!-- Generator: Adobe Illustrator 16.0.2, SVG Export Plug-In . SVG Version: 6.00 Build 0)  -->
<!DOCTYPE svg PUBLIC "-//W3C//DTD SVG 1.1//EN" "http://www.w3.org/Graphics/SVG/1.1/DTD/svg11.dtd">
<svg version="1.1" id="lay" xmlns="http://www.w3.org/2000/svg" xmlns:xlink="http://www.w3.org/1999/xlink" x="0px" y="0px"
	 width="143px" height="250px" viewBox="0 0 143 250" enable-background="new 0 0 143 250" xml:space="preserve">
<path d="M138.019,181.997c0,1.855-1.083,2.783-3.247,2.783c-3.093,0-7.639-0.525-13.638-1.577c-6.186-1.113-10.731-1.7-13.638-1.763
	c-12.061,6.184-23.379,9.277-33.955,9.277c-18.865,0-35.054-6.694-48.567-20.085c-13.515-13.39-20.271-29.486-20.271-48.289
	c0-19.234,6.664-35.516,19.993-48.845C38.023,60.17,54.305,53.505,73.541,53.505c9.153,0,18.616,2.041,28.389,6.123
	c10.637,4.392,18.399,10.082,23.286,17.07c1.174,1.67,1.763,3.093,1.763,4.268c0,1.855-3.433,6.587-10.298,14.194
	c-6.433,7.113-10.824,11.411-13.174,12.896c-1.238,0.805-2.475,1.206-3.711,1.206c-1.052,0-3.913-1.468-8.582-4.407
	c-4.67-2.937-9.819-4.407-15.447-4.407c-5.938,0-10.963,2.15-15.076,6.448c-4.114,4.299-6.169,9.448-6.169,15.447
	c0,6,2.18,11.288,6.541,15.864c4.36,4.578,9.509,6.865,15.447,6.865c4.02,0,7.638-0.742,10.854-2.227
	c-0.125-1.545-0.619-5.906-1.484-13.081c-0.619-5.381-0.928-9.709-0.928-12.988c0-0.68,0.123-1.299,0.371-1.855
	c0.371-0.371,1.021-0.557,1.948-0.557c0.432,0,2.102,0.186,5.01,0.557c4.329,0.496,10.421,0.742,18.276,0.742
	c2.721,0,6.803-0.123,12.246-0.371c5.442-0.247,9.524-0.371,12.246-0.371c1.793,0,2.69,0.742,2.69,2.227
	c0,3.34-0.294,8.35-0.881,15.029c-0.588,6.68-0.881,11.689-0.881,15.029c0,3.896,0.339,9.788,1.021,17.673
	C137.678,172.766,138.019,178.471,138.019,181.997z"/>
</svg>
