<?xml version="1.0" encoding="utf-8"?>
<!-- Generator: Adobe Illustrator 16.0.2, SVG Export Plug-In . SVG Version: 6.00 Build 0)  -->
<!DOCTYPE svg PUBLIC "-//W3C//DTD SVG 1.1//EN" "http://www.w3.org/Graphics/SVG/1.1/DTD/svg11.dtd">
<svg version="1.1" id="lay" xmlns="http://www.w3.org/2000/svg" xmlns:xlink="http://www.w3.org/1999/xlink" x="0px" y="0px"
	 width="121px" height="250px" viewBox="0 0 121 250" enable-background="new 0 0 121 250" xml:space="preserve">
<path d="M117.88,143.032c0,13.174-4.052,24.246-12.153,33.213c-8.412,9.277-19.111,13.916-32.1,13.916
	c-5.072,0-11.443-2.041-19.111-6.123c-0.557,0-0.835,0.897-0.835,2.69c0,2.783-0.063,6.926-0.186,12.432
	c-0.125,5.504-0.186,9.648-0.186,12.432c0,3.154-1.331,4.731-3.989,4.731c-18.803,0-31.296-0.248-37.48-0.742
	c-2.66-0.186-3.989-1.517-3.989-3.989v-71.807c0-12.74-1.021-25.729-3.062-38.965c-0.125-0.803-0.186-1.392-0.186-1.763
	c0-1.174,0.525-1.979,1.577-2.412c6.555-0.557,14.255-1.236,23.101-2.041c0.061-0.061,3.927-0.71,11.597-1.948
	c5.381-0.865,9.06-1.299,11.04-1.299c1.855,0,3.045,1.222,3.572,3.665c0.525,2.444,1.16,3.665,1.902,3.665
	c1.174,0,3.618-0.401,7.329-1.206c3.711-0.803,6.555-1.206,8.535-1.206c12.988,0,23.718,4.546,32.192,13.638
	C113.736,118.818,117.88,129.858,117.88,143.032z M70.937,142.29c0-2.473-0.82-4.623-2.458-6.448
	c-1.64-1.824-3.665-2.737-6.077-2.737c-2.475,0-4.516,0.913-6.123,2.737c-1.609,1.825-2.412,3.975-2.412,6.448
	c0,2.351,0.835,4.453,2.505,6.309s3.679,2.783,6.03,2.783c2.412,0,4.437-0.896,6.077-2.69
	C70.117,146.898,70.937,144.764,70.937,142.29z"/>
</svg>
