<?xml version="1.0" encoding="utf-8"?>
<!-- Generator: Adobe Illustrator 16.0.2, SVG Export Plug-In . SVG Version: 6.00 Build 0)  -->
<!DOCTYPE svg PUBLIC "-//W3C//DTD SVG 1.1//EN" "http://www.w3.org/Graphics/SVG/1.1/DTD/svg11.dtd">
<svg version="1.1" id="lay" xmlns="http://www.w3.org/2000/svg" xmlns:xlink="http://www.w3.org/1999/xlink" x="0px" y="0px"
	 width="103px" height="250px" viewBox="0 0 103 250" enable-background="new 0 0 103 250" xml:space="preserve">
<path d="M100.299,140.341c0,14.226-4.578,25.962-13.73,35.208c-9.154,9.247-20.844,13.87-35.068,13.87
	c-13.855,0-25.452-4.514-34.79-13.545c-9.34-9.029-14.009-20.44-14.009-34.233c0-14.473,4.483-26.44,13.452-35.903
	c9.215-9.586,20.997-14.38,35.347-14.38c14.225,0,25.914,4.608,35.068,13.823C95.721,114.396,100.299,126.117,100.299,140.341z
	 M60.035,140.341c0-2.412-0.82-4.468-2.458-6.169c-1.64-1.7-3.665-2.551-6.077-2.551s-4.438,0.835-6.077,2.505
	c-1.64,1.67-2.458,3.743-2.458,6.216c0,2.412,0.819,4.469,2.458,6.169c1.638,1.702,3.665,2.551,6.077,2.551
	c2.473,0,4.514-0.835,6.123-2.505C59.23,144.887,60.035,142.816,60.035,140.341z"/>
</svg>
