<?xml version="1.0" encoding="utf-8"?>
<!-- Generator: Adobe Illustrator 16.0.2, SVG Export Plug-In . SVG Version: 6.00 Build 0)  -->
<!DOCTYPE svg PUBLIC "-//W3C//DTD SVG 1.1//EN" "http://www.w3.org/Graphics/SVG/1.1/DTD/svg11.dtd">
<svg version="1.1" id="lay" xmlns="http://www.w3.org/2000/svg" xmlns:xlink="http://www.w3.org/1999/xlink" x="0px" y="0px"
	 width="145px" height="250px" viewBox="0 0 145 250" enable-background="new 0 0 145 250" xml:space="preserve">
<path d="M138.323,184.409c0,1.855-0.897,2.783-2.69,2.783c-2.598,0-6.464-0.139-11.597-0.417c-5.134-0.278-8.969-0.417-11.504-0.417
	c-2.66,0-6.603,0.125-11.829,0.371c-5.227,0.248-9.138,0.371-11.736,0.371c-1.918,0-2.876-1.144-2.876-3.433
	c0-4.143,0.278-10.405,0.835-18.787c0.557-8.38,0.835-14.642,0.835-18.787c0-2.473-0.742-3.865-2.227-4.175
	c-2.351-0.557-6.649-0.835-12.896-0.835c-6.309,0-10.701,0.278-13.174,0.835c-1.484,0.31-2.227,1.702-2.227,4.175
	c0,4.145,0.186,10.407,0.557,18.787c0.371,8.381,0.557,14.644,0.557,18.787c0,2.289-0.959,3.433-2.876,3.433
	c-2.66,0-6.649-0.123-11.968-0.371c-5.32-0.247-9.309-0.371-11.968-0.371c-2.412,0-6.046,0.125-10.901,0.371
	c-4.856,0.248-8.489,0.371-10.901,0.371c-2.041,0-3.062-0.896-3.062-2.69c0-6.741,0.309-16.869,0.928-30.383
	c0.618-13.513,0.928-23.641,0.928-30.383c0-7.174-0.294-17.952-0.881-32.332C7.063,76.931,6.77,66.154,6.77,58.979
	c0-1.36,0.742-2.041,2.227-2.041c2.598,0,6.509,0.125,11.736,0.371c5.226,0.248,9.138,0.371,11.736,0.371
	c2.783,0,6.926-0.139,12.432-0.417c5.504-0.278,9.648-0.417,12.432-0.417c0.989,0,1.484,0.619,1.484,1.855
	c0,4.207-0.449,10.53-1.345,18.972c-0.897,8.442-1.345,14.767-1.345,18.972c0,1.052,0.557,1.702,1.67,1.948
	c2.535,0.496,7.483,0.742,14.844,0.742c6.865,0,11.472-0.247,13.823-0.742c1.545-0.371,2.319-1.577,2.319-3.618
	c0-3.896-0.264-9.756-0.789-17.581c-0.526-7.823-0.789-13.684-0.789-17.581c0-1.979,0.494-2.969,1.484-2.969
	c2.598,0,6.555,0.139,11.875,0.417c5.318,0.278,9.308,0.417,11.968,0.417c2.598,0,6.494-0.123,11.689-0.371
	c5.195-0.247,9.06-0.371,11.597-0.371c1.607,0,2.412,0.742,2.412,2.227c0,7.175-0.294,17.921-0.881,32.239
	c-0.589,14.319-0.882,25.065-0.882,32.239c0,6.742,0.309,16.87,0.928,30.383C138.012,167.54,138.323,177.668,138.323,184.409z"/>
</svg>
