<?xml version="1.0" encoding="utf-8"?>
<!-- Generator: Adobe Illustrator 16.0.2, SVG Export Plug-In . SVG Version: 6.00 Build 0)  -->
<!DOCTYPE svg PUBLIC "-//W3C//DTD SVG 1.1//EN" "http://www.w3.org/Graphics/SVG/1.1/DTD/svg11.dtd">
<svg version="1.1" id="lay" xmlns="http://www.w3.org/2000/svg" xmlns:xlink="http://www.w3.org/1999/xlink" x="0px" y="0px"
	 width="115px" height="250px" viewBox="0 0 115 250" enable-background="new 0 0 115 250" xml:space="preserve">
<path d="M108.85,117.333c0,7.422-0.063,18.524-0.186,33.306c-0.125,14.783-0.186,25.854-0.186,33.213
	c0,2.537-1.145,3.804-3.433,3.804c-2.104,0-5.227-0.125-9.37-0.371c-4.145-0.247-7.236-0.371-9.277-0.371
	c-2.166,0-5.397,0.032-9.695,0.093c-4.299,0.063-7.531,0.093-9.695,0.093c-2.412,0-3.618-1.577-3.618-4.731
	c0-2.844,0.061-7.065,0.186-12.664c0.123-5.597,0.186-9.818,0.186-12.664c0-2.102-0.063-5.256-0.186-9.463
	c-0.125-4.205-0.186-7.359-0.186-9.463c0-3.586-1.516-5.381-4.546-5.381c-3.154,0-4.731,1.918-4.731,5.752v44.438
	c0,3.154-1.331,4.731-3.989,4.731c-2.041,0-5.056-0.125-9.045-0.371s-7.004-0.371-9.045-0.371c-2.104,0-5.258,0.032-9.463,0.093
	c-4.207,0.063-7.392,0.093-9.556,0.093c-2.66,0-3.989-1.329-3.989-3.989v-43.325c0-15.4-0.341-32.563-1.021-51.489
	C7.943,84.028,7.85,79.76,7.727,75.493c-0.186-5.133-0.681-9.338-1.484-12.617c-0.186-0.803-0.278-1.422-0.278-1.855
	c0-1.113,0.525-1.886,1.577-2.319c6.432-0.618,14.225-1.515,23.379-2.69c14.596-2.906,22.234-4.36,22.915-4.36
	c1.174,0,1.763,0.867,1.763,2.598c0,1.98-0.155,4.608-0.464,7.886c-0.371,3.896-0.588,6.526-0.649,7.886
	c-0.496,11.566-0.742,22.483-0.742,32.749c0,1.484,0.247,2.227,0.742,2.227c-0.619,0,2.21-1.793,8.489-5.381
	c6.277-3.586,12.044-5.381,17.302-5.381c7.422,0,13.884,1.948,19.39,5.845C105.789,104.47,108.85,110.222,108.85,117.333z"/>
</svg>
