<?xml version="1.0" encoding="utf-8"?>
<!-- Generator: Adobe Illustrator 16.0.2, SVG Export Plug-In . SVG Version: 6.00 Build 0)  -->
<!DOCTYPE svg PUBLIC "-//W3C//DTD SVG 1.1//EN" "http://www.w3.org/Graphics/SVG/1.1/DTD/svg11.dtd">
<svg version="1.1" id="lay" xmlns="http://www.w3.org/2000/svg" xmlns:xlink="http://www.w3.org/1999/xlink" x="0px" y="0px"
	 width="118px" height="250px" viewBox="0 0 118 250" enable-background="new 0 0 118 250" xml:space="preserve">
<path d="M114.479,97.016c0,0.496-0.155,1.269-0.464,2.319c-2.66,7.917-3.989,25.637-3.989,53.159l-0.093,18.833
	c0,4.516,0.154,10.639,0.464,18.369c0.371,8.225,0.557,14.317,0.557,18.276c0,2.473-1.331,3.804-3.989,3.989
	c-3.093,0.247-9.185,0.371-18.276,0.371c-2.289,0-5.737,0.169-10.344,0.51c-4.608,0.339-8.057,0.51-10.344,0.51
	c-1.361,0-2.041-1.083-2.041-3.247c0-2.908,0.093-7.283,0.278-13.127s0.278-10.22,0.278-13.127c0-0.742-0.341-1.113-1.021-1.113
	c0.432,0-2.073,1.083-7.515,3.247c-5.443,2.164-10.02,3.247-13.73,3.247c-12.123,0-22.019-4.731-29.688-14.194
	C7.386,166.195,3.8,155.526,3.8,143.032c0-14.596,3.277-26.13,9.834-34.604c7.236-9.338,17.905-14.009,32.007-14.009
	c8.164,0,14.039,1.454,17.627,4.36c0.989,0.805,1.67,1.206,2.041,1.206c0.432,0,0.649-0.247,0.649-0.742
	c0-0.68-0.232-1.747-0.696-3.201c-0.464-1.453-0.696-2.551-0.696-3.293c0-1.051,0.772-1.577,2.319-1.577
	c17.379,0,32.656,1.331,45.83,3.989C113.89,95.409,114.479,96.027,114.479,97.016z M65.216,140.341c0-5.938-2.815-8.906-8.442-8.906
	c-5.32,0-7.979,2.969-7.979,8.906c0,5.814,3.123,8.721,9.37,8.721C62.865,149.062,65.216,146.156,65.216,140.341z"/>
</svg>
