<?xml version="1.0" encoding="utf-8"?>
<!-- Generator: Adobe Illustrator 16.0.2, SVG Export Plug-In . SVG Version: 6.00 Build 0)  -->
<!DOCTYPE svg PUBLIC "-//W3C//DTD SVG 1.1//EN" "http://www.w3.org/Graphics/SVG/1.1/DTD/svg11.dtd">
<svg version="1.1" id="lay" xmlns="http://www.w3.org/2000/svg" xmlns:xlink="http://www.w3.org/1999/xlink" x="0px" y="0px"
	 width="112px" height="250px" viewBox="0 0 112 250" enable-background="new 0 0 112 250" xml:space="preserve">
<path d="M109.623,96.645c0,1.299-0.649,1.948-1.948,1.948c-0.496,0-1.361-0.061-2.598-0.186
	c-15.586-2.164-26.904-3.247-33.955-3.247c-5.072,0-7.484-0.03-7.236-0.093c-3.588,0.31-5.381,1.361-5.381,3.154
	c0,2.846,2.906,4.608,8.721,5.288c1.113,0.125,5.04,0.186,11.782,0.186c5.195,0,9.709-0.186,13.545-0.557
	c5.442-0.494,7.515-0.742,6.216-0.742c1.67,0,2.505,1.052,2.505,3.154c0,1.98-0.139,4.979-0.417,8.999
	c-0.278,4.021-0.417,7.021-0.417,8.999c0,1.98,0.061,4.917,0.186,8.813c0.123,3.896,0.186,6.804,0.186,8.721
	c0,1.423-0.959,2.134-2.876,2.134c0.557,0-2.134-0.371-8.071-1.113c-6.619-0.865-14.257-1.299-22.915-1.299
	c-5.629,0-8.442,1.547-8.442,4.639c0,9.648,0.216,18.679,0.649,27.09c0.061,0.99,0.278,3.154,0.649,6.494
	c0.247,2.783,0.371,4.979,0.371,6.587c0,1.423-1.113,2.134-3.34,2.134c-0.681,0-1.577-0.093-2.69-0.278
	c-5.381-0.742-12.803-1.113-22.266-1.113c-2.351,0-5.891,0.125-10.623,0.371c-4.731,0.248-8.273,0.371-10.623,0.371
	c-2.041,0-3.062-0.896-3.062-2.69c0,1.299,0.278-4.329,0.835-16.885c0.928-21.399,1.392-36.676,1.392-45.83
	c0-6.123-0.867-26.563-2.598-61.323l-0.093-1.206c-0.063-1.484,0.71-2.227,2.319-2.227c4.885,0,12.23,0.125,22.034,0.371
	c9.802,0.248,17.178,0.371,22.126,0.371c5.133,0,12.849-0.432,23.147-1.299c10.298-0.865,18.013-1.299,23.147-1.299
	c3.772,0,5.938,2.011,6.494,6.03c-0.125,3.402,0,8.412,0.371,15.029C108.664,88.265,109.623,95.1,109.623,96.645z"/>
</svg>
