<?xml version="1.0" encoding="utf-8"?>
<!-- Generator: Adobe Illustrator 16.0.2, SVG Export Plug-In . SVG Version: 6.00 Build 0)  -->
<!DOCTYPE svg PUBLIC "-//W3C//DTD SVG 1.1//EN" "http://www.w3.org/Graphics/SVG/1.1/DTD/svg11.dtd">
<svg version="1.1" id="lay" xmlns="http://www.w3.org/2000/svg" xmlns:xlink="http://www.w3.org/1999/xlink" x="0px" y="0px"
	 width="103px" height="250px" viewBox="0 0 103 250" enable-background="new 0 0 103 250" xml:space="preserve">
<path d="M101.505,94.511c0,1.238-0.681,1.855-2.041,1.855c1.545,0-6.186-0.464-23.193-1.392c-0.248,10.886-0.371,17.905-0.371,21.06
	c0,7.607,0.325,19.019,0.974,34.233s0.974,26.596,0.974,34.141c0,1.855-0.928,2.783-2.783,2.783c-2.598,0-6.557-0.139-11.875-0.417
	c-5.32-0.278-9.309-0.417-11.968-0.417c-2.537,0-6.34,0.125-11.411,0.371c-5.072,0.248-8.876,0.371-11.411,0.371
	c-2.041,0-3.062-0.896-3.062-2.69c0-7.545,0.325-18.926,0.974-34.141s0.974-26.626,0.974-34.233c0-3.03-0.125-9.864-0.371-20.503
	c-5.443,0.371-13.607,1.052-24.492,2.041c-0.99-0.432-1.484-0.71-1.484-0.835c0-0.68,0.525-3.834,1.577-9.463
	c1.174-6.123,1.824-9.709,1.948-10.762c0.186-5.689,0.803-12.524,1.855-20.503c0.186-0.494,0.649-0.742,1.392-0.742
	c0.247,0,0.742,0.063,1.484,0.186c12.369,1.361,27.584,2.041,45.645,2.041c5.504,0,15.833-0.71,30.986-2.134
	c7.545-0.742,11.597-1.113,12.153-1.113c1.855,0,2.783,0.464,2.783,1.392c0,2.227-0.155,5.583-0.464,10.066
	c-0.31,4.485-0.464,7.839-0.464,10.066c0,2.104,0.278,5.227,0.835,9.37C101.227,89.286,101.505,92.409,101.505,94.511z"/>
</svg>
