<?xml version="1.0" encoding="utf-8"?>
<!-- Generator: Adobe Illustrator 16.0.2, SVG Export Plug-In . SVG Version: 6.00 Build 0)  -->
<!DOCTYPE svg PUBLIC "-//W3C//DTD SVG 1.1//EN" "http://www.w3.org/Graphics/SVG/1.1/DTD/svg11.dtd">
<svg version="1.1" id="lay" xmlns="http://www.w3.org/2000/svg" xmlns:xlink="http://www.w3.org/1999/xlink" x="0px" y="0px"
	 width="80px" height="250px" viewBox="0 0 80 250" enable-background="new 0 0 80 250" xml:space="preserve">
<path d="M76.646,99.428c0,2.289-0.186,5.768-0.557,10.437c-0.371,4.67-0.557,8.18-0.557,10.53c0,2.289,0.093,5.737,0.278,10.344
	c0.186,4.608,0.278,8.057,0.278,10.344c0,2.722-2.846,4.082-8.535,4.082c-1.299,0-3-0.077-5.103-0.232
	c-2.104-0.154-3.433-0.232-3.989-0.232c-4.453,0-6.68,1.732-6.68,5.195c0,3.65,0.216,9.124,0.649,16.421
	c0.432,7.299,0.649,12.772,0.649,16.421c0,3.154-1.331,4.731-3.989,4.731c-1.98,0-4.979-0.093-8.999-0.278
	c-4.021-0.186-7.021-0.278-8.999-0.278c-2.104,0-5.273,0.032-9.509,0.093c-4.237,0.063-7.407,0.093-9.509,0.093
	c-2.66,0-3.989-1.329-3.989-3.989v-43.325c0-13.482-1.331-25.079-3.989-34.79c-0.186-0.68-0.278-1.267-0.278-1.763
	c0-1.236,0.525-2.041,1.577-2.412c1.545-0.557,4.792-1.051,9.741-1.484c5.752-0.494,9.308-0.865,10.669-1.113
	c12.617-2.535,19.327-3.804,20.132-3.804c1.236,0,1.995,2.041,2.273,6.123s0.85,6.123,1.716,6.123c-0.557,0,1.932-1.67,7.468-5.01
	c5.535-3.34,11.147-5.01,16.838-5.01C75.841,96.645,76.646,97.573,76.646,99.428z"/>
</svg>
