<?xml version="1.0" encoding="utf-8"?>
<!-- Generator: Adobe Illustrator 16.0.2, SVG Export Plug-In . SVG Version: 6.00 Build 0)  -->
<!DOCTYPE svg PUBLIC "-//W3C//DTD SVG 1.1//EN" "http://www.w3.org/Graphics/SVG/1.1/DTD/svg11.dtd">
<svg version="1.1" id="lay" xmlns="http://www.w3.org/2000/svg" xmlns:xlink="http://www.w3.org/1999/xlink" x="0px" y="0px"
	 width="102px" height="250px" viewBox="0 0 102 250" enable-background="new 0 0 102 250" xml:space="preserve">
<path d="M99.613,183.852c0,2.166-1.392,3.247-4.175,3.247H64.638c-1.918,0-3.433-0.896-4.546-2.69
	c-0.742-1.236-2.258-3.34-4.546-6.309c-2.66-3.401-4.237-5.103-4.731-5.103c-1.299,0-4.392,3.804-9.277,11.411
	c-1.176,1.794-2.722,2.69-4.639,2.69H7.118c-2.783,0-4.175-1.082-4.175-3.247v-22.637c0-1.731,2.813-5.242,8.442-10.53
	c5.627-5.288,8.442-8.519,8.442-9.695c0-0.928-2.815-4.05-8.442-9.37c-5.629-5.318-8.442-8.875-8.442-10.669V98.408
	c0-2.164,1.392-3.247,4.175-3.247h29.78c1.917,0,3.463,0.867,4.639,2.598c4.885,7.607,7.979,11.411,9.277,11.411
	c0.494,0,2.071-1.7,4.731-5.103c2.288-2.906,3.804-5.01,4.546-6.309c1.113-1.731,2.628-2.598,4.546-2.598h30.801
	c2.783,0,4.175,1.083,4.175,3.247v22.544c0,1.794-2.846,5.381-8.535,10.762c-5.691,5.381-8.567,8.598-8.628,9.648
	c0.494,1.238,3.618,4.485,9.37,9.741c5.195,4.824,7.793,8.196,7.793,10.112V183.852z"/>
</svg>
