<?xml version="1.0" encoding="utf-8"?>
<!-- Generator: Adobe Illustrator 16.0.2, SVG Export Plug-In . SVG Version: 6.00 Build 0)  -->
<!DOCTYPE svg PUBLIC "-//W3C//DTD SVG 1.1//EN" "http://www.w3.org/Graphics/SVG/1.1/DTD/svg11.dtd">
<svg version="1.1" id="lay" xmlns="http://www.w3.org/2000/svg" xmlns:xlink="http://www.w3.org/1999/xlink" x="0px" y="0px"
	 width="187px" height="250px" viewBox="0 0 187 250" enable-background="new 0 0 187 250" xml:space="preserve">
<path d="M182.423,104.438c0,0.186-2.876,6.309-8.628,18.369c-6.123,12.988-9.31,19.792-9.556,20.41
	c-5.877,13.051-12.216,26.781-19.019,41.191l-1.021,2.134c-0.248,0.31-0.928,0.496-2.041,0.557
	c-2.166,0.123-5.103,0.093-8.813-0.093c-4.639-0.186-7.607-0.278-8.906-0.278c-1.918,0-4.824,0.078-8.721,0.232
	s-6.804,0.232-8.721,0.232c-1.113,0-2.073-0.928-2.876-2.783C101.71,178.41,98,169.442,92.99,157.504l-11.226,26.904
	c-0.805,1.855-1.763,2.783-2.876,2.783c-1.918,0-4.824-0.078-8.721-0.232s-6.804-0.232-8.721-0.232c-1.98,0-4.933,0.063-8.86,0.186
	c-3.928,0.125-6.881,0.186-8.86,0.186c-1.176,0-2.196-0.896-3.062-2.69c-23.564-49.788-35.347-76.445-35.347-79.971
	c0-4.885,0.169-12.23,0.51-22.034c0.339-9.802,0.51-17.147,0.51-22.034c0-2.288,0.71-3.433,2.134-3.433
	c2.598,0,6.509,0.125,11.736,0.371c5.226,0.248,9.138,0.371,11.736,0.371c2.35,0,5.859-0.139,10.53-0.417
	c4.669-0.278,8.148-0.417,10.437-0.417c0.989,0,1.484,0.649,1.484,1.948c0,5.134-0.202,12.865-0.603,23.193
	c-0.403,10.33-0.603,18.061-0.603,23.193c0,1.794,1.299,5.722,3.896,11.782c2.721,6.371,4.669,9.556,5.845,9.556
	c0.371,0,0.835-0.71,1.392-2.134c0.803-1.917,1.855-5.535,3.154-10.854c1.422-5.566,2.134-9.215,2.134-10.947V59.814
	c0-1.979,0.464-2.969,1.392-2.969c2.598,0,6.478,0.139,11.643,0.417c5.164,0.278,9.045,0.417,11.643,0.417
	c2.35,0,5.891-0.123,10.623-0.371c4.731-0.247,8.271-0.371,10.623-0.371c1.545,0,2.319,0.742,2.319,2.227
	c0,4.639-0.155,11.643-0.464,21.013c-0.31,9.37-0.464,16.375-0.464,21.013c0,1.98,0.835,5.907,2.505,11.782
	c1.607,5.505,2.969,9.37,4.082,11.597c0.557,1.299,1.021,1.948,1.392,1.948c1.113,0,2.813-3.185,5.103-9.556
	c2.164-5.999,3.247-9.927,3.247-11.782c0-5.133-0.202-12.864-0.603-23.193c-0.403-10.328-0.603-18.059-0.603-23.193
	c0-1.299,0.494-1.948,1.484-1.948c2.473,0,6.184,0.139,11.133,0.417c4.947,0.278,8.658,0.417,11.133,0.417
	c2.658,0,6.602-0.123,11.829-0.371c5.226-0.247,9.138-0.371,11.735-0.371c1.422,0,2.134,1.145,2.134,3.433
	c0,4.887,0.153,12.231,0.464,22.034C182.268,92.208,182.423,99.553,182.423,104.438z"/>
</svg>
