<?xml version="1.0" encoding="utf-8"?>
<!-- Generator: Adobe Illustrator 16.0.2, SVG Export Plug-In . SVG Version: 6.00 Build 0)  -->
<!DOCTYPE svg PUBLIC "-//W3C//DTD SVG 1.1//EN" "http://www.w3.org/Graphics/SVG/1.1/DTD/svg11.dtd">
<svg version="1.1" id="lay" xmlns="http://www.w3.org/2000/svg" xmlns:xlink="http://www.w3.org/1999/xlink" x="0px" y="0px"
	 width="125px" height="250px" viewBox="0 0 125 250" enable-background="new 0 0 125 250" xml:space="preserve">
<path d="M116.772,185.244c0,1.238-1.331,1.855-3.989,1.855H82.168c-1.113,0-4.717-4.282-10.808-12.849
	c-6.093-8.565-9.293-12.879-9.602-12.942c-1.176,0.928-4.67,5.659-10.483,14.194c-5.258,7.732-8.505,11.597-9.741,11.597H10.918
	c-2.66,0-3.989-0.618-3.989-1.855v-29.873c0-1.607,3.804-7.035,11.411-16.282c7.607-9.246,11.411-14.951,11.411-17.117
	c0-1.979-3.866-7.622-11.597-16.931C10.422,95.733,6.558,90.275,6.558,88.667c0-1.607,0.03-4.066,0.093-7.375
	c0.061-3.308,0.093-5.798,0.093-7.468c0-1.793-0.125-4.483-0.371-8.071c-0.248-3.586-0.371-6.277-0.371-8.071
	c0-1.236,1.329-1.855,3.989-1.855c1.793,0,4.561,0.248,8.303,0.742c3.741,0.496,6.541,0.742,8.396,0.742
	c1.545,0,3.911-0.061,7.097-0.186c3.185-0.123,5.55-0.186,7.097-0.186c1.174,0,4.839,4.284,10.994,12.849
	c6.153,8.567,9.354,12.881,9.602,12.942c1.113-0.928,4.792-5.659,11.04-14.194c5.627-7.73,9.092-11.597,10.391-11.597h29.409
	c2.659,0,3.989,0.649,3.989,1.948c0,1.67-0.093,4.221-0.278,7.654s-0.278,5.984-0.278,7.654c0,1.732,0.093,4.284,0.278,7.654
	c0.186,3.372,0.278,5.891,0.278,7.561c0,2.041-3.882,7.871-11.643,17.488c-7.763,9.618-11.643,14.551-11.643,14.797
	c0,1.238,3.958,6.619,11.875,16.143c7.916,9.525,11.875,14.999,11.875,16.421V185.244z"/>
</svg>
