<?xml version="1.0" encoding="utf-8"?>
<!-- Generator: Adobe Illustrator 16.0.2, SVG Export Plug-In . SVG Version: 6.00 Build 0)  -->
<!DOCTYPE svg PUBLIC "-//W3C//DTD SVG 1.1//EN" "http://www.w3.org/Graphics/SVG/1.1/DTD/svg11.dtd">
<svg version="1.1" id="lay" xmlns="http://www.w3.org/2000/svg" xmlns:xlink="http://www.w3.org/1999/xlink" x="0px" y="0px"
	 width="130px" height="250px" viewBox="0 0 130 250" enable-background="new 0 0 130 250" xml:space="preserve">
<path d="M125.627,59.165c0,4.639-0.155,11.643-0.464,21.013c-0.31,9.37-0.464,16.375-0.464,21.013c0,1.299-2.722,8.412-8.164,21.338
	c-4.392,10.576-7.577,18.03-9.556,22.358c-3.711,8.103-8.01,16.917-12.896,26.44c-1.609,2.908-3.835,7.268-6.68,13.081
	c-0.742,1.855-1.67,2.783-2.783,2.783c-2.722,0-6.804-0.078-12.246-0.232c-5.443-0.154-9.525-0.232-12.246-0.232
	c-1.794,0-4.531,0.063-8.21,0.186c-3.681,0.125-6.417,0.186-8.21,0.186c-1.176,0-2.196-0.896-3.062-2.69
	c-4.516-9.029-11.103-22.698-19.761-41.006C10.496,120.086,5.3,107.098,5.3,104.438c0-4.885,0.169-12.23,0.51-22.034
	c0.339-9.802,0.51-17.147,0.51-22.034c0-2.288,0.71-3.433,2.134-3.433c2.598,0,6.509,0.125,11.736,0.371
	c5.226,0.248,9.138,0.371,11.736,0.371c2.659,0,6.648-0.139,11.968-0.417c5.318-0.278,9.277-0.417,11.875-0.417
	c0.989,0,1.484,0.649,1.484,1.948c0,5.258-0.356,13.159-1.067,23.704c-0.712,10.546-1.067,18.447-1.067,23.704
	c0,2.846,1.144,6.835,3.433,11.968c1.917,3.835,3.804,7.7,5.659,11.597c1.731-3.092,3.648-7.39,5.752-12.896
	c2.164-5.999,3.433-10.514,3.804-13.545c0.061-3.215,0.154-8.009,0.278-14.38c0.432-18.863,0.649-28.574,0.649-29.131
	c0-1.979,0.464-2.969,1.392-2.969c2.659,0,6.633,0.139,11.921,0.417s9.261,0.417,11.921,0.417c2.598,0,6.494-0.123,11.689-0.371
	c5.195-0.247,9.092-0.371,11.689-0.371C124.854,56.938,125.627,57.68,125.627,59.165z"/>
</svg>
