<?xml version="1.0" encoding="utf-8"?>
<!-- Generator: Adobe Illustrator 16.0.2, SVG Export Plug-In . SVG Version: 6.00 Build 0)  -->
<!DOCTYPE svg PUBLIC "-//W3C//DTD SVG 1.1//EN" "http://www.w3.org/Graphics/SVG/1.1/DTD/svg11.dtd">
<svg version="1.1" id="lay" xmlns="http://www.w3.org/2000/svg" xmlns:xlink="http://www.w3.org/1999/xlink" x="0px" y="0px"
	 width="64px" height="250px" viewBox="0 0 64 250" enable-background="new 0 0 64 250" xml:space="preserve">
<path d="M56.75,96.831c0,1.238-0.093,3.078-0.278,5.52c-0.186,2.444-0.278,4.284-0.278,5.52c0,3.34-0.063,8.35-0.186,15.029
	c-0.125,6.68-0.186,11.689-0.186,15.029c0,3.093,0.123,7.732,0.371,13.916c0.247,6.186,0.371,10.854,0.371,14.009
	c0,12.432-4.763,22.698-14.287,30.801c-9.031,7.668-19.885,11.504-32.563,11.504c-1.547,0-3.031-0.125-4.453-0.371
	c-1.855-0.31-2.969-2.537-3.34-6.68c-0.063-0.434-0.093-3.34-0.093-8.721c0-2.041,1.654-4.608,4.963-7.7
	c3.308-3.092,4.963-6.772,4.963-11.04c0-3.772-0.109-9.417-0.325-16.931c-0.217-7.515-0.325-13.158-0.325-16.931
	c0-17.936-0.99-30.676-2.969-38.223c-0.186-0.68-0.278-1.267-0.278-1.763c0-1.174,0.525-1.979,1.577-2.412
	c6.184-0.186,13.42-0.494,21.709-0.928c4.824-0.186,11.905-0.865,21.245-2.041c0.865-0.186,1.484-0.278,1.855-0.278
	C55.915,94.14,56.75,95.038,56.75,96.831z M57.307,73.452c0,13.051-7.917,19.575-23.75,19.575c-6.742,0-12.246-1.545-16.514-4.639
	c-4.824-3.463-7.236-8.442-7.236-14.937c0-6.061,2.505-10.978,7.515-14.751c4.576-3.463,9.988-5.195,16.235-5.195
	c6.246,0,11.658,1.732,16.235,5.195C54.802,62.474,57.307,67.391,57.307,73.452z"/>
</svg>
