<?xml version="1.0" encoding="utf-8"?>
<!-- Generator: Adobe Illustrator 16.0.2, SVG Export Plug-In . SVG Version: 6.00 Build 0)  -->
<!DOCTYPE svg PUBLIC "-//W3C//DTD SVG 1.1//EN" "http://www.w3.org/Graphics/SVG/1.1/DTD/svg11.dtd">
<svg version="1.1" id="lay" xmlns="http://www.w3.org/2000/svg" xmlns:xlink="http://www.w3.org/1999/xlink" x="0px" y="0px"
	 width="80px" height="250px" viewBox="0 0 80 250" enable-background="new 0 0 80 250" xml:space="preserve">
<path d="M79.197,47.64c-0.186,0.371-0.526,0.649-1.021,0.835c-0.681,0.186-4.052,1.392-10.112,3.618
	c-5.691,2.041-8.598,3.062-8.721,3.062c-0.31,0-1.299-0.339-2.969-1.021c-9.092-3.648-14.813-8.132-17.163-13.452
	c-0.063-0.247-0.248-0.494-0.557-0.742c-0.248,0.186-0.496,0.496-0.742,0.928c-1.176,2.537-3.835,5.505-7.979,8.906
	c-4.453,3.588-7.948,5.381-10.483,5.381c-0.31,0-0.805-0.154-1.484-0.464c-4.763-1.607-10.268-3.679-16.514-6.216
	c-0.432-0.247-0.649-0.618-0.649-1.113c0-0.557,0.278-1.144,0.835-1.763c7.483-8.102,11.843-12.926,13.081-14.473
	c4.639-5.566,8.194-11.008,10.669-16.328c0.557-1.113,1.515-1.67,2.876-1.67h22.358c1.422,0,2.319,0.557,2.69,1.67
	c1.855,5.691,4.762,10.701,8.721,15.029C67.786,35.518,73.506,41.456,79.197,47.64z M66.394,184.409c0,1.855-0.897,2.783-2.69,2.783
	c-2.66,0-6.665-0.139-12.014-0.417c-5.351-0.278-9.386-0.417-12.107-0.417c-2.537,0-6.355,0.125-11.458,0.371
	c-5.103,0.248-8.922,0.371-11.458,0.371c-2.041,0-3.062-0.896-3.062-2.69c0-7.545,0.309-18.926,0.928-34.141
	c0.618-15.215,0.928-26.626,0.928-34.233c0-6.37-0.294-15.911-0.881-28.621c-0.588-12.71-0.881-22.188-0.881-28.435
	c0-1.36,0.742-2.041,2.227-2.041c2.721,0,6.819,0.125,12.292,0.371c5.474,0.248,9.602,0.371,12.385,0.371
	c2.598,0,6.494-0.123,11.689-0.371c5.195-0.247,9.06-0.371,11.597-0.371c1.607,0,2.412,0.742,2.412,2.227
	c0,6.309-0.294,15.788-0.881,28.435c-0.588,12.649-0.881,22.126-0.881,28.435c0,7.607,0.309,19.019,0.928,34.233
	C66.084,165.483,66.394,176.864,66.394,184.409z"/>
</svg>
