<?xml version="1.0" encoding="utf-8"?>
<!-- Generator: Adobe Illustrator 16.0.2, SVG Export Plug-In . SVG Version: 6.00 Build 0)  -->
<!DOCTYPE svg PUBLIC "-//W3C//DTD SVG 1.1//EN" "http://www.w3.org/Graphics/SVG/1.1/DTD/svg11.dtd">
<svg version="1.1" id="lay" xmlns="http://www.w3.org/2000/svg" xmlns:xlink="http://www.w3.org/1999/xlink" x="0px" y="0px"
	 width="124px" height="250px" viewBox="0 0 124 250" enable-background="new 0 0 124 250" xml:space="preserve">
<path d="M122.906,75.4c0,1.299-2.922,7.222-8.767,17.766c-5.845,10.546-9.355,16.282-10.53,17.209
	c-0.928,0.742-1.794,1.113-2.598,1.113c-0.31,0-1.67-1.021-4.082-3.062c-2.908-2.412-5.722-4.268-8.442-5.566
	c-4.207-1.979-8.66-2.969-13.359-2.969c-5.938,0-10.963,2.15-15.076,6.448c-4.114,4.299-6.169,9.417-6.169,15.354
	c0,6,2.056,11.179,6.169,15.54c4.112,4.36,9.138,6.541,15.076,6.541c9.957,0,17.627-2.969,23.008-8.906
	c0.865-0.989,1.515-1.484,1.948-1.484c0.742,0,4.514,5.01,11.318,15.029c6.865,10.268,10.298,16.267,10.298,17.998
	c0,1.176-0.712,2.69-2.134,4.546c-4.887,6.309-11.814,11.257-20.781,14.844c-8.103,3.277-16.483,4.917-25.142,4.917
	c-19.111,0-35.363-6.633-48.752-19.9C11.5,157.551,4.805,141.394,4.805,122.344c0-19.111,6.694-35.361,20.085-48.752
	c13.39-13.39,29.641-20.085,48.752-20.085c19.234,0,34.913,6.03,47.036,18.091C122.164,73.02,122.906,74.287,122.906,75.4z
	 M94.795,197.954c0,2.659-1.238,6.123-3.711,10.391c-2.227,3.772-4.453,6.772-6.68,8.999c-6.557,6.309-15.432,9.463-26.626,9.463
	c-9.834,0-17.689-3.031-23.564-9.092c-0.248-0.31-0.371-0.557-0.371-0.742c0-0.31,2.566-3.078,7.7-8.303
	c5.133-5.227,8.102-7.839,8.906-7.839c0.742,0,1.979,0.309,3.711,0.928c1.731,0.618,3.062,0.928,3.989,0.928
	c5.504,0,8.257-1.454,8.257-4.36c0-3.588-2.227-6.433-6.68-8.535l9.277-16.421l17.627,1.021l-4.36,14.38
	c2.535,1.236,5.071,2.442,7.607,3.618C93.156,194.304,94.795,196.16,94.795,197.954z"/>
</svg>
