<?xml version="1.0" encoding="utf-8"?>
<!-- Generator: Adobe Illustrator 16.0.2, SVG Export Plug-In . SVG Version: 6.00 Build 0)  -->
<!DOCTYPE svg PUBLIC "-//W3C//DTD SVG 1.1//EN" "http://www.w3.org/Graphics/SVG/1.1/DTD/svg11.dtd">
<svg version="1.1" id="lay" xmlns="http://www.w3.org/2000/svg" xmlns:xlink="http://www.w3.org/1999/xlink" x="0px" y="0px"
	 width="68px" height="250px" viewBox="0 0 68 250" enable-background="new 0 0 68 250" xml:space="preserve">
<path d="M66.239,29.332c0,0.619-0.464,1.361-1.392,2.227c-5.629,5.381-14.535,10.453-26.719,15.215
	c-13.669,5.381-24.524,8.164-32.563,8.35l-0.928,0.093c-1.609,0-2.412-0.835-2.412-2.505c0-0.742,0.093-1.886,0.278-3.433
	c0.186-1.545,0.278-2.69,0.278-3.433c0-0.989-0.171-2.473-0.51-4.453c-0.341-1.979-0.51-3.463-0.51-4.453
	c0-1.051,0.71-1.886,2.134-2.505c6.37-2.783,12.647-5.999,18.833-9.648c4.205-2.906,10.606-7.112,19.204-12.617
	c0.432-0.309,1.144-0.649,2.134-1.021c0.494,0.186,1.113,0.526,1.855,1.021c1.855,1.98,4.824,4.731,8.906,8.257
	c2.164,1.423,5.381,3.618,9.648,6.587C65.65,27.94,66.239,28.714,66.239,29.332z M58.866,184.409c0,1.855-0.897,2.783-2.69,2.783
	c-2.66,0-6.665-0.139-12.014-0.417c-5.351-0.278-9.386-0.417-12.107-0.417c-2.537,0-6.355,0.125-11.458,0.371
	c-5.103,0.248-8.922,0.371-11.458,0.371c-2.041,0-3.062-0.896-3.062-2.69c0-7.545,0.309-18.926,0.928-34.141
	c0.618-15.215,0.928-26.626,0.928-34.233c0-6.37-0.294-15.911-0.881-28.621c-0.588-12.71-0.881-22.188-0.881-28.435
	c0-1.36,0.742-2.041,2.227-2.041c2.721,0,6.819,0.125,12.292,0.371c5.474,0.248,9.602,0.371,12.385,0.371
	c2.598,0,6.494-0.123,11.689-0.371c5.195-0.247,9.06-0.371,11.597-0.371c1.607,0,2.412,0.742,2.412,2.227
	c0,6.309-0.294,15.788-0.881,28.435c-0.588,12.649-0.881,22.126-0.881,28.435c0,7.607,0.309,19.019,0.928,34.233
	C58.556,165.483,58.866,176.864,58.866,184.409z"/>
</svg>
