<?xml version="1.0" encoding="utf-8"?>
<!-- Generator: Adobe Illustrator 16.0.2, SVG Export Plug-In . SVG Version: 6.00 Build 0)  -->
<!DOCTYPE svg PUBLIC "-//W3C//DTD SVG 1.1//EN" "http://www.w3.org/Graphics/SVG/1.1/DTD/svg11.dtd">
<svg version="1.1" id="lay" xmlns="http://www.w3.org/2000/svg" xmlns:xlink="http://www.w3.org/1999/xlink" x="0px" y="0px"
	 width="68px" height="250px" viewBox="0 0 68 250" enable-background="new 0 0 68 250" xml:space="preserve">
<path d="M66.239,36.661c0,1.732-0.171,4.346-0.51,7.839c-0.341,3.495-0.51,6.108-0.51,7.839c0,1.732-0.649,2.598-1.948,2.598
	l-0.835-0.093c-9.896-0.928-20.349-3.463-31.357-7.607C18.832,42.661,9.522,37.342,3.153,31.28
	c-0.928-0.865-1.392-1.607-1.392-2.227c0-0.618,0.588-1.392,1.763-2.319c2.164-1.422,5.381-3.618,9.648-6.587
	c1.917-1.917,4.917-4.669,8.999-8.257c0.371-0.309,0.989-0.68,1.855-1.113c5.504,3.773,12.585,8.35,21.245,13.73
	c4.205,2.166,10.483,5.381,18.833,9.648C65.527,34.837,66.239,35.672,66.239,36.661z M62.009,184.409
	c0,1.855-0.897,2.783-2.69,2.783c-2.66,0-6.665-0.139-12.014-0.417c-5.351-0.278-9.386-0.417-12.107-0.417
	c-2.537,0-6.355,0.125-11.458,0.371c-5.103,0.248-8.922,0.371-11.458,0.371c-2.041,0-3.062-0.896-3.062-2.69
	c0-7.545,0.309-18.926,0.928-34.141c0.618-15.215,0.928-26.626,0.928-34.233c0-6.37-0.294-15.911-0.881-28.621
	c-0.588-12.71-0.881-22.188-0.881-28.435c0-1.36,0.742-2.041,2.227-2.041c2.721,0,6.819,0.125,12.292,0.371
	c5.474,0.248,9.602,0.371,12.385,0.371c2.598,0,6.494-0.123,11.689-0.371c5.195-0.247,9.06-0.371,11.597-0.371
	c1.607,0,2.412,0.742,2.412,2.227c0,6.309-0.294,15.788-0.881,28.435c-0.588,12.649-0.881,22.126-0.881,28.435
	c0,7.607,0.309,19.019,0.928,34.233C61.699,165.483,62.009,176.864,62.009,184.409z"/>
</svg>
