<?xml version="1.0" encoding="utf-8"?>
<!-- Generator: Adobe Illustrator 16.0.2, SVG Export Plug-In . SVG Version: 6.00 Build 0)  -->
<!DOCTYPE svg PUBLIC "-//W3C//DTD SVG 1.1//EN" "http://www.w3.org/Graphics/SVG/1.1/DTD/svg11.dtd">
<svg version="1.1" id="lay" xmlns="http://www.w3.org/2000/svg" xmlns:xlink="http://www.w3.org/1999/xlink" x="0px" y="0px"
	 width="112px" height="250px" viewBox="0 0 112 250" enable-background="new 0 0 112 250" xml:space="preserve">
<path d="M110.272,149.897c0,2.227-0.403,5.227-1.206,8.999c-1.113,5.32-1.732,8.319-1.855,8.999
	c-0.496,4.268-1.516,10.546-3.062,18.833c-0.31,1.422-1.454,2.134-3.433,2.134c-0.619,0-1.484-0.093-2.598-0.278
	c-10.886-1.484-25.327-2.227-43.325-2.227c-4.949,0-12.339,0.125-22.173,0.371c-9.834,0.248-17.195,0.371-22.08,0.371
	c-2.041,0-3.062-0.896-3.062-2.69c0-6.926,0.371-17.333,1.113-31.218c0.742-13.884,1.113-24.291,1.113-31.218
	c0-7.051-0.341-20.193-1.021-39.429C8.5,77.597,8.159,70.205,7.665,60.371l-0.093-1.299c-0.125-1.422,0.649-2.134,2.319-2.134
	c4.824,0,12.075,0.125,21.755,0.371c9.679,0.248,16.961,0.371,21.848,0.371c4.885,0,12.276-0.123,22.173-0.371
	c9.895-0.247,17.317-0.371,22.266-0.371c3.463,0,5.535,1.577,6.216,4.731c0.309,1.238,0.928,6.665,1.855,16.282
	c0.928,9.618,1.392,15.107,1.392,16.467c0,1.238-0.649,1.855-1.948,1.855c-3.34,0-8.381-0.339-15.122-1.021
	c-6.742-0.68-11.814-1.021-15.215-1.021c-5.505,0-8.66,0.032-9.463,0.093c-4.824,0.434-7.236,1.732-7.236,3.896
	c0,2.969,2.876,4.824,8.628,5.566c1.607,0.186,5.566,0.278,11.875,0.278c5.195,0,10.173-0.247,14.937-0.742
	c6.309-0.618,8.875-0.928,7.7-0.928c1.607,0,2.412,0.897,2.412,2.69c0,1.732-0.278,4.392-0.835,7.979
	c-0.742,4.392-1.145,7.144-1.206,8.257c-0.805,8.289-1.206,14.194-1.206,17.72c0,1.361-0.959,2.041-2.876,2.041
	c0.557,0-2.134-0.371-8.071-1.113c-6.619-0.803-14.257-1.206-22.915-1.206c-5.629,0-8.442,1.547-8.442,4.639
	c0,1.484,0.371,2.567,1.113,3.247c1.793,1.484,11.101,2.227,27.925,2.227c2.288,0,5.706-0.2,10.251-0.603
	c4.546-0.401,7.962-0.603,10.251-0.603C109.499,147.671,110.272,148.413,110.272,149.897z M95.197,47.764
	c-0.186,0.371-0.526,0.649-1.021,0.835c-0.681,0.186-4.052,1.392-10.112,3.618c-5.691,2.041-8.598,3.062-8.721,3.062
	c-0.31,0-1.299-0.339-2.969-1.021c-9.092-3.648-14.813-8.132-17.163-13.452c-0.063-0.247-0.248-0.494-0.557-0.742
	c-0.248,0.186-0.496,0.496-0.742,0.928c-1.176,2.537-3.835,5.505-7.979,8.906c-4.453,3.588-7.948,5.381-10.483,5.381
	c-0.31,0-0.805-0.154-1.484-0.464c-4.763-1.607-10.268-3.679-16.514-6.216c-0.434-0.247-0.649-0.618-0.649-1.113
	c0-0.557,0.278-1.144,0.835-1.763c7.483-8.102,11.843-12.926,13.081-14.473c4.639-5.566,8.194-11.008,10.669-16.328
	c0.557-1.113,1.515-1.67,2.876-1.67h22.358c1.422,0,2.319,0.557,2.69,1.67c1.855,5.691,4.762,10.701,8.721,15.029
	C83.786,35.642,89.506,41.58,95.197,47.764z"/>
</svg>
