<?xml version="1.0" encoding="utf-8"?>
<!-- Generator: Adobe Illustrator 16.0.2, SVG Export Plug-In . SVG Version: 6.00 Build 0)  -->
<!DOCTYPE svg PUBLIC "-//W3C//DTD SVG 1.1//EN" "http://www.w3.org/Graphics/SVG/1.1/DTD/svg11.dtd">
<svg version="1.1" id="lay" xmlns="http://www.w3.org/2000/svg" xmlns:xlink="http://www.w3.org/1999/xlink" x="0px" y="0px"
	 width="147px" height="250px" viewBox="0 0 147 250" enable-background="new 0 0 147 250" xml:space="preserve">
<path d="M142.106,122.158c0,19.05-6.696,35.3-20.085,48.752c-13.391,13.452-29.611,20.178-48.66,20.178
	c-19.111,0-35.363-6.726-48.752-20.178c-13.391-13.452-20.085-29.702-20.085-48.752c0-19.111,6.694-35.423,20.085-48.938
	c13.39-13.513,29.641-20.271,48.752-20.271c19.049,0,35.269,6.758,48.66,20.271C135.41,86.735,142.106,103.047,142.106,122.158z
	 M105.739,27.178c0,0.619-0.464,1.361-1.392,2.227c-5.629,5.381-14.535,10.453-26.719,15.215C63.959,50,53.104,52.783,45.065,52.969
	l-0.928,0.093c-1.609,0-2.412-0.835-2.412-2.505c0-0.742,0.093-1.886,0.278-3.433c0.186-1.545,0.278-2.69,0.278-3.433
	c0-0.989-0.171-2.473-0.51-4.453c-0.341-1.979-0.51-3.463-0.51-4.453c0-1.051,0.71-1.886,2.134-2.505
	c6.37-2.783,12.647-5.999,18.833-9.648c4.205-2.906,10.606-7.112,19.204-12.617c0.432-0.309,1.144-0.649,2.134-1.021
	c0.494,0.186,1.113,0.526,1.855,1.021c1.855,1.98,4.824,4.731,8.906,8.257c2.164,1.423,5.381,3.618,9.648,6.587
	C105.15,25.786,105.739,26.56,105.739,27.178z M94.606,122.158c0-5.999-2.057-11.147-6.169-15.447
	c-4.114-4.298-9.138-6.448-15.076-6.448c-6.062,0-11.133,2.134-15.215,6.401s-6.123,9.433-6.123,15.493
	c0,5.876,2.087,10.947,6.262,15.215s9.199,6.401,15.076,6.401c5.938,0,10.962-2.118,15.076-6.355
	C92.549,133.184,94.606,128.096,94.606,122.158z"/>
</svg>
