<?xml version="1.0" encoding="utf-8"?>
<!-- Generator: Adobe Illustrator 16.0.2, SVG Export Plug-In . SVG Version: 6.00 Build 0)  -->
<!DOCTYPE svg PUBLIC "-//W3C//DTD SVG 1.1//EN" "http://www.w3.org/Graphics/SVG/1.1/DTD/svg11.dtd">
<svg version="1.1" id="lay" xmlns="http://www.w3.org/2000/svg" xmlns:xlink="http://www.w3.org/1999/xlink" x="0px" y="0px"
	 width="147px" height="250px" viewBox="0 0 147 250" enable-background="new 0 0 147 250" xml:space="preserve">
<path d="M142.106,122.158c0,19.05-6.696,35.3-20.085,48.752c-13.391,13.452-29.611,20.178-48.66,20.178
	c-19.111,0-35.363-6.726-48.752-20.178c-13.391-13.452-20.085-29.702-20.085-48.752c0-19.111,6.694-35.423,20.085-48.938
	c13.39-13.513,29.641-20.271,48.752-20.271c19.049,0,35.269,6.758,48.66,20.271C135.41,86.735,142.106,103.047,142.106,122.158z
	 M105.739,34.733c0,1.732-0.171,4.346-0.51,7.839c-0.341,3.495-0.51,6.108-0.51,7.839c0,1.732-0.649,2.598-1.948,2.598l-0.835-0.093
	c-9.896-0.928-20.349-3.463-31.357-7.607c-12.246-4.576-21.555-9.895-27.925-15.957c-0.928-0.865-1.392-1.607-1.392-2.227
	c0-0.618,0.587-1.392,1.763-2.319c2.164-1.422,5.381-3.618,9.648-6.587c1.917-1.917,4.917-4.669,8.999-8.257
	c0.371-0.309,0.989-0.68,1.855-1.113c5.504,3.773,12.585,8.35,21.245,13.73c4.205,2.166,10.483,5.381,18.833,9.648
	C105.027,32.91,105.739,33.745,105.739,34.733z M94.606,122.158c0-5.999-2.057-11.147-6.169-15.447
	c-4.114-4.298-9.138-6.448-15.076-6.448c-6.062,0-11.133,2.134-15.215,6.401s-6.123,9.433-6.123,15.493
	c0,5.876,2.087,10.947,6.262,15.215s9.199,6.401,15.076,6.401c5.938,0,10.962-2.118,15.076-6.355
	C92.549,133.184,94.606,128.096,94.606,122.158z"/>
</svg>
