<?xml version="1.0" encoding="utf-8"?>
<!-- Generator: Adobe Illustrator 16.0.2, SVG Export Plug-In . SVG Version: 6.00 Build 0)  -->
<!DOCTYPE svg PUBLIC "-//W3C//DTD SVG 1.1//EN" "http://www.w3.org/Graphics/SVG/1.1/DTD/svg11.dtd">
<svg version="1.1" id="lay" xmlns="http://www.w3.org/2000/svg" xmlns:xlink="http://www.w3.org/1999/xlink" x="0px" y="0px"
	 width="132px" height="250px" viewBox="0 0 132 250" enable-background="new 0 0 132 250" xml:space="preserve">
<path d="M125.282,59.165c0,7.175-0.294,17.921-0.881,32.239c-0.588,14.319-0.881,25.065-0.881,32.239
	c0,2.041,0.03,5.072,0.093,9.092c0.061,4.021,0.093,7.051,0.093,9.092c0,17.195-2.475,28.667-7.422,34.419
	c-7.484,8.906-25.637,13.359-54.458,13.359c-16.267,0-28.296-1.64-36.089-4.917c-7.299-3.092-12.185-8.225-14.658-15.4
	c-1.855-5.504-2.783-14.565-2.783-27.183c0-1.793,0.03-4.731,0.093-8.813c0-4.082,0-7.297,0-9.648
	c0-7.174-0.294-17.952-0.881-32.332c-0.588-14.38-0.881-25.156-0.881-32.332c0-1.36,0.742-2.041,2.227-2.041
	c4.576,0,11.488,0.063,20.735,0.186c9.246,0.125,16.157,0.186,20.735,0.186c3.958,0,5.474-0.03,4.546-0.093
	c2.102,0.186,3.154,0.867,3.154,2.041c0,7.113-0.325,17.813-0.974,32.1s-0.974,24.988-0.974,32.1c0,0.805-0.032,2.196-0.093,4.175
	c-0.063,1.98-0.093,3.495-0.093,4.546c0,11.938,3.679,17.905,11.04,17.905c5.999,0,8.999-4.607,8.999-13.823
	c0-8.411-0.264-21.06-0.789-37.944c-0.526-16.885-0.789-29.532-0.789-37.944c0-1.855,0.525-2.813,1.577-2.876
	c2.227-0.247,6.091-0.278,11.597-0.093c7.422,0.186,11.441,0.278,12.061,0.278c2.598,0,6.494-0.123,11.689-0.371
	c5.195-0.247,9.092-0.371,11.689-0.371C124.508,56.938,125.282,57.681,125.282,59.165z M105.197,47.877
	c-0.186,0.371-0.526,0.649-1.021,0.835c-0.681,0.186-4.052,1.392-10.112,3.618c-5.691,2.041-8.598,3.062-8.721,3.062
	c-0.31,0-1.299-0.339-2.969-1.021c-9.092-3.648-14.813-8.132-17.163-13.452c-0.063-0.247-0.248-0.494-0.557-0.742
	c-0.248,0.186-0.496,0.496-0.742,0.928c-1.176,2.537-3.835,5.505-7.979,8.906c-4.453,3.588-7.948,5.381-10.483,5.381
	c-0.31,0-0.805-0.154-1.484-0.464c-4.763-1.607-10.268-3.679-16.514-6.216c-0.434-0.247-0.649-0.618-0.649-1.113
	c0-0.557,0.278-1.144,0.835-1.763c7.483-8.102,11.843-12.926,13.081-14.473c4.639-5.566,8.194-11.008,10.669-16.328
	c0.557-1.113,1.515-1.67,2.876-1.67h22.358c1.422,0,2.319,0.557,2.69,1.67c1.855,5.691,4.762,10.701,8.721,15.029
	C93.786,35.755,99.506,41.693,105.197,47.877z"/>
</svg>
