<?xml version="1.0" encoding="utf-8"?>
<!-- Generator: Adobe Illustrator 16.0.2, SVG Export Plug-In . SVG Version: 6.00 Build 0)  -->
<!DOCTYPE svg PUBLIC "-//W3C//DTD SVG 1.1//EN" "http://www.w3.org/Graphics/SVG/1.1/DTD/svg11.dtd">
<svg version="1.1" id="lay" xmlns="http://www.w3.org/2000/svg" xmlns:xlink="http://www.w3.org/1999/xlink" x="0px" y="0px"
	 width="147px" height="250px" viewBox="0 0 147 250" enable-background="new 0 0 147 250" xml:space="preserve">
<path d="M142.106,122.158c0,19.05-6.696,35.3-20.085,48.752c-13.391,13.452-29.611,20.178-48.66,20.178
	c-19.111,0-35.363-6.726-48.752-20.178c-13.391-13.452-20.085-29.702-20.085-48.752c0-19.111,6.694-35.423,20.085-48.938
	c13.39-13.513,29.641-20.271,48.752-20.271c19.049,0,35.269,6.758,48.66,20.271C135.41,86.735,142.106,103.047,142.106,122.158z
	 M111.398,34.826c0,0.805-1.855,2.753-5.566,5.845c-2.969,2.537-5.227,4.299-6.772,5.288c-5.566,3.711-10.391,5.566-14.473,5.566
	c-4.021,0-7.454-1.144-10.298-3.433c-2.846-2.288-5.165-3.433-6.958-3.433c-2.783,0-5.706,1.408-8.767,4.221
	c-3.062,2.815-4.778,4.221-5.149,4.221c-0.434,0-0.928-0.339-1.484-1.021c-3.154-3.958-8.289-9.741-15.4-17.349
	c-0.619-0.618-0.928-1.144-0.928-1.577c0-0.309,0.247-0.772,0.742-1.392c3.092-3.834,7.205-7.39,12.339-10.669
	c5.813-3.711,10.823-5.566,15.029-5.566c3.092,0,5.968,1.206,8.628,3.618c2.659,2.412,5.288,3.618,7.886,3.618
	c2.164,0,5.226-1.561,9.185-4.685c3.958-3.123,6.091-4.685,6.401-4.685c0.557,0,1.051,0.341,1.484,1.021
	C106.697,27.59,111.398,34.394,111.398,34.826z M94.606,122.158c0-5.999-2.057-11.147-6.169-15.447
	c-4.114-4.298-9.138-6.448-15.076-6.448c-6.062,0-11.133,2.134-15.215,6.401s-6.123,9.433-6.123,15.493
	c0,5.876,2.087,10.947,6.262,15.215s9.199,6.401,15.076,6.401c5.938,0,10.962-2.118,15.076-6.355
	C92.549,133.184,94.606,128.096,94.606,122.158z"/>
</svg>
