<?xml version="1.0" encoding="utf-8"?>
<!-- Generator: Adobe Illustrator 16.0.2, SVG Export Plug-In . SVG Version: 6.00 Build 0)  -->
<!DOCTYPE svg PUBLIC "-//W3C//DTD SVG 1.1//EN" "http://www.w3.org/Graphics/SVG/1.1/DTD/svg11.dtd">
<svg version="1.1" id="lay" xmlns="http://www.w3.org/2000/svg" xmlns:xlink="http://www.w3.org/1999/xlink" x="0px" y="0px"
	 width="132px" height="250px" viewBox="0 0 132 250" enable-background="new 0 0 132 250" xml:space="preserve">
<path d="M125.282,59.165c0,7.175-0.294,17.921-0.881,32.239c-0.588,14.319-0.881,25.065-0.881,32.239
	c0,2.041,0.03,5.072,0.093,9.092c0.061,4.021,0.093,7.051,0.093,9.092c0,17.195-2.475,28.667-7.422,34.419
	c-7.484,8.906-25.637,13.359-54.458,13.359c-16.267,0-28.296-1.64-36.089-4.917c-7.299-3.092-12.185-8.225-14.658-15.4
	c-1.855-5.504-2.783-14.565-2.783-27.183c0-1.793,0.03-4.731,0.093-8.813c0-4.082,0-7.297,0-9.648
	c0-7.174-0.294-17.952-0.881-32.332c-0.588-14.38-0.881-25.156-0.881-32.332c0-1.36,0.742-2.041,2.227-2.041
	c4.576,0,11.488,0.063,20.735,0.186c9.246,0.125,16.157,0.186,20.735,0.186c3.958,0,5.474-0.03,4.546-0.093
	c2.102,0.186,3.154,0.867,3.154,2.041c0,7.113-0.325,17.813-0.974,32.1s-0.974,24.988-0.974,32.1c0,0.805-0.032,2.196-0.093,4.175
	c-0.063,1.98-0.093,3.495-0.093,4.546c0,11.938,3.679,17.905,11.04,17.905c5.999,0,8.999-4.607,8.999-13.823
	c0-8.411-0.264-21.06-0.789-37.944c-0.526-16.885-0.789-29.532-0.789-37.944c0-1.855,0.525-2.813,1.577-2.876
	c2.227-0.247,6.091-0.278,11.597-0.093c7.422,0.186,11.441,0.278,12.061,0.278c2.598,0,6.494-0.123,11.689-0.371
	c5.195-0.247,9.092-0.371,11.689-0.371C124.508,56.938,125.282,57.681,125.282,59.165z M98.239,37.218
	c0,1.732-0.171,4.346-0.51,7.839c-0.341,3.495-0.51,6.108-0.51,7.839c0,1.732-0.649,2.598-1.948,2.598l-0.835-0.093
	c-9.896-0.928-20.349-3.463-31.357-7.607c-12.246-4.576-21.555-9.895-27.925-15.957c-0.928-0.865-1.392-1.607-1.392-2.227
	c0-0.618,0.587-1.392,1.763-2.319c2.164-1.422,5.381-3.618,9.648-6.587c1.917-1.917,4.917-4.669,8.999-8.257
	c0.371-0.309,0.989-0.68,1.855-1.113c5.504,3.773,12.585,8.35,21.245,13.73c4.205,2.166,10.483,5.381,18.833,9.648
	C97.527,35.394,98.239,36.229,98.239,37.218z"/>
</svg>
