<?xml version="1.0" encoding="utf-8"?>
<!-- Generator: Adobe Illustrator 16.0.2, SVG Export Plug-In . SVG Version: 6.00 Build 0)  -->
<!DOCTYPE svg PUBLIC "-//W3C//DTD SVG 1.1//EN" "http://www.w3.org/Graphics/SVG/1.1/DTD/svg11.dtd">
<svg version="1.1" id="lay" xmlns="http://www.w3.org/2000/svg" xmlns:xlink="http://www.w3.org/1999/xlink" x="0px" y="0px"
	 width="147px" height="250px" viewBox="0 0 147 250" enable-background="new 0 0 147 250" xml:space="preserve">
<path d="M142.106,122.158c0,19.05-6.696,35.3-20.085,48.752c-13.391,13.452-29.611,20.178-48.66,20.178
	c-19.111,0-35.363-6.726-48.752-20.178c-13.391-13.452-20.085-29.702-20.085-48.752c0-19.111,6.694-35.423,20.085-48.938
	c13.39-13.513,29.641-20.271,48.752-20.271c19.049,0,35.269,6.758,48.66,20.271C135.41,86.735,142.106,103.047,142.106,122.158z
	 M112.697,45.537c-0.186,0.371-0.526,0.649-1.021,0.835c-0.681,0.186-4.052,1.392-10.112,3.618
	c-5.691,2.041-8.598,3.062-8.721,3.062c-0.31,0-1.299-0.339-2.969-1.021c-9.092-3.648-14.813-8.132-17.163-13.452
	c-0.063-0.247-0.248-0.494-0.557-0.742c-0.248,0.186-0.496,0.496-0.742,0.928c-1.176,2.537-3.835,5.505-7.979,8.906
	c-4.453,3.588-7.948,5.381-10.483,5.381c-0.31,0-0.805-0.154-1.484-0.464c-4.763-1.607-10.268-3.679-16.514-6.216
	c-0.434-0.247-0.649-0.618-0.649-1.113c0-0.557,0.278-1.144,0.835-1.763c7.483-8.102,11.843-12.926,13.081-14.473
	c4.639-5.566,8.194-11.008,10.669-16.328c0.557-1.113,1.515-1.67,2.876-1.67h22.358c1.422,0,2.319,0.557,2.69,1.67
	c1.855,5.691,4.762,10.701,8.721,15.029C101.286,33.416,107.006,39.353,112.697,45.537z M94.606,122.158
	c0-5.999-2.057-11.147-6.169-15.447c-4.114-4.298-9.138-6.448-15.076-6.448c-6.062,0-11.133,2.134-15.215,6.401
	s-6.123,9.433-6.123,15.493c0,5.876,2.087,10.947,6.262,15.215s9.199,6.401,15.076,6.401c5.938,0,10.962-2.118,15.076-6.355
	C92.549,133.184,94.606,128.096,94.606,122.158z"/>
</svg>
