<?xml version="1.0" encoding="utf-8"?>
<!-- Generator: Adobe Illustrator 16.0.2, SVG Export Plug-In . SVG Version: 6.00 Build 0)  -->
<!DOCTYPE svg PUBLIC "-//W3C//DTD SVG 1.1//EN" "http://www.w3.org/Graphics/SVG/1.1/DTD/svg11.dtd">
<svg version="1.1" id="lay" xmlns="http://www.w3.org/2000/svg" xmlns:xlink="http://www.w3.org/1999/xlink" x="0px" y="0px"
	 width="68px" height="250px" viewBox="0 0 68 250" enable-background="new 0 0 68 250" xml:space="preserve">
<path d="M66.239,71.226c0,1.732-0.171,4.346-0.51,7.839c-0.341,3.495-0.51,6.108-0.51,7.839c0,1.732-0.649,2.598-1.948,2.598
	l-0.835-0.093c-9.896-0.928-20.349-3.463-31.357-7.607C18.832,77.226,9.522,71.907,3.153,65.845
	c-0.928-0.865-1.392-1.607-1.392-2.227c0-0.618,0.588-1.392,1.763-2.319c2.166-1.422,5.381-3.618,9.648-6.587
	c1.917-1.917,4.917-4.669,8.999-8.257c0.371-0.309,0.989-0.68,1.855-1.113c5.504,3.773,12.585,8.35,21.245,13.73
	c4.205,2.166,10.483,5.381,18.833,9.648C65.527,69.402,66.239,70.237,66.239,71.226z M59.281,98.037
	c0,0.434-0.063,1.238-0.186,2.412c-2.166,23.256-3.247,37.944-3.247,44.067c0,4.145,0.107,10.376,0.325,18.694
	c0.216,8.319,0.325,14.582,0.325,18.787c0,2.041-0.063,3.217-0.186,3.525c-0.31,1.052-1.269,1.577-2.876,1.577
	c-2.166,0-5.397-0.123-9.695-0.371c-4.299-0.247-7.531-0.371-9.695-0.371c-2.166,0-5.397,0.125-9.695,0.371
	c-4.299,0.248-7.531,0.371-9.695,0.371c-1.609,0-2.567-0.525-2.876-1.577c-0.125-0.309-0.186-1.484-0.186-3.525
	c0-4.205,0.093-10.467,0.278-18.787c0.186-8.318,0.278-14.549,0.278-18.694c0-9.4-1.052-24.089-3.154-44.067
	c-0.186-1.174-0.278-2.009-0.278-2.505c0-1.607,0.958-2.412,2.876-2.412c2.473,0,6.2,0.403,11.179,1.206
	c4.978,0.805,8.735,1.206,11.272,1.206c2.535,0,6.292-0.401,11.272-1.206c4.978-0.803,8.705-1.206,11.179-1.206
	C58.353,95.532,59.281,96.367,59.281,98.037z"/>
</svg>
