<?xml version="1.0" encoding="utf-8"?>
<!-- Generator: Adobe Illustrator 16.0.2, SVG Export Plug-In . SVG Version: 6.00 Build 0)  -->
<!DOCTYPE svg PUBLIC "-//W3C//DTD SVG 1.1//EN" "http://www.w3.org/Graphics/SVG/1.1/DTD/svg11.dtd">
<svg version="1.1" id="lay" xmlns="http://www.w3.org/2000/svg" xmlns:xlink="http://www.w3.org/1999/xlink" x="0px" y="0px"
	 width="118px" height="250px" viewBox="0 0 118 250" enable-background="new 0 0 118 250" xml:space="preserve">
<path d="M112.809,103.418c0,0.434-0.125,1.206-0.371,2.319c-2.66,14.102-3.989,25.452-3.989,34.048
	c0,6.68,0.494,16.391,1.484,29.131l1.021,14.194c0,2.475-1.331,3.804-3.989,3.989H90.265c-2.041,0-5.119,0.123-9.231,0.371
	c-4.114,0.247-7.19,0.371-9.231,0.371c-2.537,0-3.866-1.236-3.989-3.711c-0.125-2.473-0.557-3.711-1.299-3.711
	c0.309,0-2.382,1.47-8.071,4.407c-5.691,2.937-10.422,4.407-14.194,4.407c-12.123,0-22.019-4.731-29.688-14.194
	C7.386,166.195,3.8,155.526,3.8,143.032c0-14.534,4.05-26.626,12.153-36.274c6.741-7.979,17.688-11.968,32.842-11.968
	c3.154,0,7.576,1.006,13.267,3.015c5.689,2.011,8.473,3.015,8.35,3.015c0.494,0,0.912-1.082,1.252-3.247
	c0.339-2.164,1.19-3.247,2.551-3.247c2.041,0,8.132,1.021,18.276,3.062c9.709,1.98,15.925,3.372,18.647,4.175
	C112.252,101.934,112.809,102.553,112.809,103.418z M88.038,71.226c0,1.732-0.171,4.346-0.51,7.839
	c-0.341,3.495-0.51,6.108-0.51,7.839c0,1.732-0.649,2.598-1.948,2.598l-0.835-0.093c-9.896-0.928-20.349-3.463-31.357-7.607
	c-12.246-4.576-21.555-9.895-27.925-15.957c-0.928-0.865-1.392-1.607-1.392-2.227c0-0.618,0.587-1.392,1.763-2.319
	c2.164-1.422,5.381-3.618,9.648-6.587c1.917-1.917,4.917-4.669,8.999-8.257c0.371-0.309,0.989-0.68,1.855-1.113
	c5.504,3.773,12.585,8.35,21.245,13.73c4.205,2.166,10.483,5.381,18.833,9.648C87.326,69.402,88.038,70.237,88.038,71.226z
	 M66.515,140.898c0-5.689-2.783-8.535-8.35-8.535c-2.537,0-4.67,0.805-6.401,2.412c-1.732,1.609-2.598,3.65-2.598,6.123
	c0,2.475,0.865,4.485,2.598,6.03c1.731,1.547,3.865,2.319,6.401,2.319c2.412,0,4.407-0.789,5.984-2.366
	S66.515,143.311,66.515,140.898z"/>
</svg>
