<?xml version="1.0" encoding="utf-8"?>
<!-- Generator: Adobe Illustrator 16.0.2, SVG Export Plug-In . SVG Version: 6.00 Build 0)  -->
<!DOCTYPE svg PUBLIC "-//W3C//DTD SVG 1.1//EN" "http://www.w3.org/Graphics/SVG/1.1/DTD/svg11.dtd">
<svg version="1.1" id="lay" xmlns="http://www.w3.org/2000/svg" xmlns:xlink="http://www.w3.org/1999/xlink" x="0px" y="0px"
	 width="68px" height="250px" viewBox="0 0 68 250" enable-background="new 0 0 68 250" xml:space="preserve">
<path d="M66.239,63.618c0,0.619-0.464,1.361-1.392,2.227c-5.629,5.381-14.535,10.453-26.719,15.215
	c-13.669,5.381-24.524,8.164-32.563,8.35l-0.928,0.093c-1.609,0-2.412-0.835-2.412-2.505c0-0.742,0.093-1.886,0.278-3.433
	c0.186-1.545,0.278-2.69,0.278-3.433c0-0.989-0.171-2.473-0.51-4.453c-0.341-1.979-0.51-3.463-0.51-4.453
	c0-1.051,0.71-1.886,2.134-2.505c6.37-2.783,12.647-5.999,18.833-9.648c4.205-2.906,10.606-7.112,19.204-12.617
	c0.432-0.309,1.144-0.649,2.134-1.021c0.494,0.186,1.113,0.526,1.855,1.021c1.855,1.98,4.824,4.731,8.906,8.257
	c2.164,1.423,5.381,3.618,9.648,6.587C65.65,62.227,66.239,63,66.239,63.618z M59.281,98.037c0,0.434-0.063,1.238-0.186,2.412
	c-2.166,23.256-3.247,37.944-3.247,44.067c0,4.145,0.107,10.376,0.325,18.694c0.216,8.319,0.325,14.582,0.325,18.787
	c0,2.041-0.063,3.217-0.186,3.525c-0.31,1.052-1.269,1.577-2.876,1.577c-2.166,0-5.397-0.123-9.695-0.371
	c-4.299-0.247-7.531-0.371-9.695-0.371c-2.166,0-5.397,0.125-9.695,0.371c-4.299,0.248-7.531,0.371-9.695,0.371
	c-1.609,0-2.567-0.525-2.876-1.577c-0.125-0.309-0.186-1.484-0.186-3.525c0-4.205,0.093-10.467,0.278-18.787
	c0.186-8.318,0.278-14.549,0.278-18.694c0-9.4-1.052-24.089-3.154-44.067c-0.186-1.174-0.278-2.009-0.278-2.505
	c0-1.607,0.958-2.412,2.876-2.412c2.473,0,6.2,0.403,11.179,1.206c4.978,0.805,8.735,1.206,11.272,1.206
	c2.535,0,6.292-0.401,11.272-1.206c4.978-0.803,8.705-1.206,11.179-1.206C58.353,95.532,59.281,96.367,59.281,98.037z"/>
</svg>
