<?xml version="1.0" encoding="utf-8"?>
<!-- Generator: Adobe Illustrator 16.0.2, SVG Export Plug-In . SVG Version: 6.00 Build 0)  -->
<!DOCTYPE svg PUBLIC "-//W3C//DTD SVG 1.1//EN" "http://www.w3.org/Graphics/SVG/1.1/DTD/svg11.dtd">
<svg version="1.1" id="lay" xmlns="http://www.w3.org/2000/svg" xmlns:xlink="http://www.w3.org/1999/xlink" x="0px" y="0px"
	 width="118px" height="250px" viewBox="0 0 118 250" enable-background="new 0 0 118 250" xml:space="preserve">
<path d="M112.809,103.418c0,0.434-0.125,1.206-0.371,2.319c-2.66,14.102-3.989,25.452-3.989,34.048
	c0,6.68,0.494,16.391,1.484,29.131l1.021,14.194c0,2.475-1.331,3.804-3.989,3.989H90.265c-2.041,0-5.119,0.123-9.231,0.371
	c-4.114,0.247-7.19,0.371-9.231,0.371c-2.537,0-3.866-1.236-3.989-3.711c-0.125-2.473-0.557-3.711-1.299-3.711
	c0.309,0-2.382,1.47-8.071,4.407c-5.691,2.937-10.422,4.407-14.194,4.407c-12.123,0-22.019-4.731-29.688-14.194
	C7.386,166.195,3.8,155.526,3.8,143.032c0-14.534,4.05-26.626,12.153-36.274c6.741-7.979,17.688-11.968,32.842-11.968
	c3.154,0,7.576,1.006,13.267,3.015c5.689,2.011,8.473,3.015,8.35,3.015c0.494,0,0.912-1.082,1.252-3.247
	c0.339-2.164,1.19-3.247,2.551-3.247c2.041,0,8.132,1.021,18.276,3.062c9.709,1.98,15.925,3.372,18.647,4.175
	C112.252,101.934,112.809,102.553,112.809,103.418z M96.944,73.545c0,0.805-1.855,2.753-5.566,5.845
	c-2.969,2.537-5.227,4.299-6.772,5.288c-5.566,3.711-10.391,5.566-14.473,5.566c-4.021,0-7.454-1.144-10.298-3.433
	c-2.846-2.288-5.165-3.433-6.958-3.433c-2.783,0-5.706,1.408-8.767,4.221c-3.062,2.815-4.778,4.221-5.149,4.221
	c-0.434,0-0.928-0.339-1.484-1.021c-3.154-3.958-8.289-9.741-15.4-17.349c-0.619-0.618-0.928-1.144-0.928-1.577
	c0-0.309,0.247-0.772,0.742-1.392c3.092-3.834,7.205-7.39,12.339-10.669c5.813-3.711,10.823-5.566,15.029-5.566
	c3.092,0,5.968,1.206,8.628,3.618c2.659,2.412,5.288,3.618,7.886,3.618c2.164,0,5.226-1.561,9.185-4.685
	c3.958-3.123,6.091-4.685,6.401-4.685c0.557,0,1.051,0.341,1.484,1.021C92.243,66.309,96.944,73.113,96.944,73.545z M66.515,140.898
	c0-5.689-2.783-8.535-8.35-8.535c-2.537,0-4.67,0.805-6.401,2.412c-1.732,1.609-2.598,3.65-2.598,6.123
	c0,2.475,0.865,4.485,2.598,6.03c1.731,1.547,3.865,2.319,6.401,2.319c2.412,0,4.407-0.789,5.984-2.366
	S66.515,143.311,66.515,140.898z"/>
</svg>
