<?xml version="1.0" encoding="utf-8"?>
<!-- Generator: Adobe Illustrator 16.0.2, SVG Export Plug-In . SVG Version: 6.00 Build 0)  -->
<!DOCTYPE svg PUBLIC "-//W3C//DTD SVG 1.1//EN" "http://www.w3.org/Graphics/SVG/1.1/DTD/svg11.dtd">
<svg version="1.1" id="lay" xmlns="http://www.w3.org/2000/svg" xmlns:xlink="http://www.w3.org/1999/xlink" x="0px" y="0px"
	 width="81px" height="250px" viewBox="0 0 81 250" enable-background="new 0 0 81 250" xml:space="preserve">
<path d="M79.326,100.264c0,0.928-1.206,5.845-3.618,14.751c-2.412,8.66-3.928,13.809-4.546,15.447
	c-0.619,1.64-1.516,2.458-2.69,2.458c-0.928,0-2.335-0.093-4.221-0.278c-1.887-0.186-3.325-0.278-4.314-0.278
	c-2.537,0-4.685,0.789-6.448,2.366s-2.644,3.634-2.644,6.169c0,5.691,3.03,8.535,9.092,8.535c1.484,0,3.463-0.401,5.938-1.206
	c2.473-0.803,3.927-1.206,4.36-1.206c1.67,0,3.586,5.195,5.752,15.586c1.917,9.154,2.876,15.463,2.876,18.926
	c0,2.104-4.082,4.021-12.246,5.752c-6.557,1.422-11.628,2.134-15.215,2.134c-13.051,0-24.446-4.824-34.187-14.473
	S2.602,153.949,2.602,140.898c0-13.916,4.639-25.435,13.916-34.558c9.277-9.122,20.904-13.684,34.883-13.684
	c10.02,0,18.307,1.64,24.863,4.917C78.305,98.625,79.326,99.521,79.326,100.264z M72.553,195.171c0,2.659-1.238,6.123-3.711,10.391
	c-2.227,3.772-4.453,6.772-6.68,8.999c-6.557,6.309-15.432,9.463-26.626,9.463c-9.834,0-17.689-3.031-23.564-9.092
	c-0.248-0.31-0.371-0.557-0.371-0.742c0-0.31,2.566-3.078,7.7-8.303c5.133-5.227,8.102-7.839,8.906-7.839
	c0.742,0,1.979,0.309,3.711,0.928c1.731,0.618,3.062,0.928,3.989,0.928c5.504,0,8.257-1.454,8.257-4.36
	c0-3.588-2.227-6.433-6.68-8.535l9.277-16.421l17.627,1.021l-4.36,14.38c2.535,1.236,5.071,2.442,7.607,3.618
	C70.914,191.521,72.553,193.376,72.553,195.171z"/>
</svg>
