<?xml version="1.0" encoding="utf-8"?>
<!-- Generator: Adobe Illustrator 16.0.2, SVG Export Plug-In . SVG Version: 6.00 Build 0)  -->
<!DOCTYPE svg PUBLIC "-//W3C//DTD SVG 1.1//EN" "http://www.w3.org/Graphics/SVG/1.1/DTD/svg11.dtd">
<svg version="1.1" id="lay" xmlns="http://www.w3.org/2000/svg" xmlns:xlink="http://www.w3.org/1999/xlink" x="0px" y="0px"
	 width="102px" height="250px" viewBox="0 0 102 250" enable-background="new 0 0 102 250" xml:space="preserve">
<path d="M97.851,137.744c0,6.433-2.011,10.144-6.03,11.133c-1.423,0.371-9.463,1.392-24.121,3.062l-21.709,2.505
	c0.742,2.104,2.783,3.773,6.123,5.01c2.659,0.928,5.381,1.392,8.164,1.392s6.509-0.772,11.179-2.319
	c4.669-1.545,7.344-2.319,8.025-2.319c0.989,0,1.793,0.557,2.412,1.67c0.928,2.104,2.412,5.195,4.453,9.277
	c0,0.063,1.174,1.763,3.525,5.103c2.102,2.969,3.154,4.608,3.154,4.917c0,0.681-0.403,1.392-1.206,2.134
	c-6.865,6.619-18.71,9.927-35.532,9.927c-16.082,0-28.637-3.804-37.666-11.411c-9.711-8.102-14.565-20.007-14.565-35.718
	c0-14.163,4.685-26.038,14.055-35.625c9.37-9.586,21.074-14.38,35.115-14.38c12.246,0,22.744,4.531,31.497,13.591
	C93.474,114.752,97.851,125.437,97.851,137.744z M87.738,63.618c0,0.619-0.464,1.361-1.392,2.227
	c-5.629,5.381-14.535,10.453-26.719,15.215c-13.669,5.381-24.524,8.164-32.563,8.35l-0.928,0.093c-1.609,0-2.412-0.835-2.412-2.505
	c0-0.742,0.093-1.886,0.278-3.433c0.186-1.545,0.278-2.69,0.278-3.433c0-0.989-0.171-2.473-0.51-4.453
	c-0.341-1.979-0.51-3.463-0.51-4.453c0-1.051,0.71-1.886,2.134-2.505c6.37-2.783,12.647-5.999,18.833-9.648
	c4.205-2.906,10.606-7.112,19.204-12.617c0.432-0.309,1.144-0.649,2.134-1.021c0.494,0.186,1.113,0.526,1.855,1.021
	c1.855,1.98,4.824,4.731,8.906,8.257c2.164,1.423,5.381,3.618,9.648,6.587C87.15,62.227,87.738,63,87.738,63.618z M60.834,131.064
	c0-1.855-0.728-3.618-2.18-5.288c-1.454-1.67-3.078-2.505-4.871-2.505c-2.166,0-4.16,0.789-5.984,2.366
	c-1.825,1.577-2.737,3.418-2.737,5.52c0,1.423,1.021,2.134,3.062,2.134c1.174,0,2.751-0.154,4.731-0.464
	c2.535-0.371,4.112-0.587,4.731-0.649C59.751,131.992,60.834,131.621,60.834,131.064z"/>
</svg>
