<?xml version="1.0" encoding="utf-8"?>
<!-- Generator: Adobe Illustrator 16.0.2, SVG Export Plug-In . SVG Version: 6.00 Build 0)  -->
<!DOCTYPE svg PUBLIC "-//W3C//DTD SVG 1.1//EN" "http://www.w3.org/Graphics/SVG/1.1/DTD/svg11.dtd">
<svg version="1.1" id="lay" xmlns="http://www.w3.org/2000/svg" xmlns:xlink="http://www.w3.org/1999/xlink" x="0px" y="0px"
	 width="118px" height="250px" viewBox="0 0 118 250" enable-background="new 0 0 118 250" xml:space="preserve">
<path d="M112.809,103.418c0,0.434-0.125,1.206-0.371,2.319c-2.66,14.102-3.989,25.452-3.989,34.048
	c0,6.68,0.494,16.391,1.484,29.131l1.021,14.194c0,2.475-1.331,3.804-3.989,3.989H90.265c-2.041,0-5.119,0.123-9.231,0.371
	c-4.114,0.247-7.19,0.371-9.231,0.371c-2.537,0-3.866-1.236-3.989-3.711c-0.125-2.473-0.557-3.711-1.299-3.711
	c0.309,0-2.382,1.47-8.071,4.407c-5.691,2.937-10.422,4.407-14.194,4.407c-12.123,0-22.019-4.731-29.688-14.194
	C7.386,166.195,3.8,155.526,3.8,143.032c0-14.534,4.05-26.626,12.153-36.274c6.741-7.979,17.688-11.968,32.842-11.968
	c3.154,0,7.576,1.006,13.267,3.015c5.689,2.011,8.473,3.015,8.35,3.015c0.494,0,0.912-1.082,1.252-3.247
	c0.339-2.164,1.19-3.247,2.551-3.247c2.041,0,8.132,1.021,18.276,3.062c9.709,1.98,15.925,3.372,18.647,4.175
	C112.252,101.934,112.809,102.553,112.809,103.418z M97.315,82.915c-0.186,0.371-0.526,0.649-1.021,0.835
	c-0.681,0.186-4.052,1.392-10.112,3.618c-5.691,2.041-8.598,3.062-8.721,3.062c-0.31,0-1.299-0.339-2.969-1.021
	c-9.092-3.648-14.813-8.132-17.163-13.452c-0.063-0.247-0.248-0.494-0.557-0.742c-0.248,0.186-0.496,0.496-0.742,0.928
	c-1.176,2.537-3.835,5.505-7.979,8.906c-4.453,3.588-7.948,5.381-10.483,5.381c-0.31,0-0.805-0.154-1.484-0.464
	c-4.763-1.607-10.268-3.679-16.514-6.216c-0.434-0.247-0.649-0.618-0.649-1.113c0-0.557,0.278-1.144,0.835-1.763
	C27.24,72.772,31.6,67.948,32.838,66.401c4.639-5.566,8.194-11.008,10.669-16.328c0.557-1.113,1.515-1.67,2.876-1.67h22.358
	c1.422,0,2.319,0.557,2.69,1.67c1.855,5.691,4.762,10.701,8.721,15.029C85.904,70.793,91.625,76.731,97.315,82.915z M66.515,140.898
	c0-5.689-2.783-8.535-8.35-8.535c-2.537,0-4.67,0.805-6.401,2.412c-1.732,1.609-2.598,3.65-2.598,6.123
	c0,2.475,0.865,4.485,2.598,6.03c1.731,1.547,3.865,2.319,6.401,2.319c2.412,0,4.407-0.789,5.984-2.366
	S66.515,143.311,66.515,140.898z"/>
</svg>
