<?xml version="1.0" encoding="utf-8"?>
<!-- Generator: Adobe Illustrator 16.0.2, SVG Export Plug-In . SVG Version: 6.00 Build 0)  -->
<!DOCTYPE svg PUBLIC "-//W3C//DTD SVG 1.1//EN" "http://www.w3.org/Graphics/SVG/1.1/DTD/svg11.dtd">
<svg version="1.1" id="lay" xmlns="http://www.w3.org/2000/svg" xmlns:xlink="http://www.w3.org/1999/xlink" x="0px" y="0px"
	 width="80px" height="250px" viewBox="0 0 80 250" enable-background="new 0 0 80 250" xml:space="preserve">
<path d="M79.129,82.915c-0.186,0.371-0.526,0.649-1.021,0.835c-0.681,0.186-4.052,1.392-10.112,3.618
	c-5.691,2.041-8.598,3.062-8.721,3.062c-0.31,0-1.299-0.339-2.969-1.021c-9.092-3.648-14.813-8.132-17.163-13.452
	c-0.063-0.247-0.248-0.494-0.557-0.742c-0.248,0.186-0.496,0.496-0.742,0.928c-1.176,2.537-3.835,5.505-7.979,8.906
	c-4.453,3.588-7.948,5.381-10.483,5.381c-0.31,0-0.805-0.154-1.484-0.464c-4.763-1.607-10.268-3.679-16.514-6.216
	c-0.432-0.247-0.649-0.618-0.649-1.113c0-0.557,0.278-1.144,0.835-1.763c7.483-8.102,11.843-12.926,13.081-14.473
	c4.639-5.566,8.194-11.008,10.669-16.328c0.557-1.113,1.515-1.67,2.876-1.67h22.358c1.422,0,2.319,0.557,2.69,1.67
	c1.855,5.691,4.762,10.701,8.721,15.029C67.718,70.793,73.438,76.731,79.129,82.915z M63.821,98.037
	c0,0.434-0.063,1.238-0.186,2.412c-2.166,23.256-3.247,37.944-3.247,44.067c0,4.145,0.107,10.376,0.325,18.694
	c0.216,8.319,0.325,14.582,0.325,18.787c0,2.041-0.063,3.217-0.186,3.525c-0.31,1.052-1.269,1.577-2.876,1.577
	c-2.166,0-5.397-0.123-9.695-0.371c-4.299-0.247-7.531-0.371-9.695-0.371c-2.166,0-5.397,0.125-9.695,0.371
	c-4.299,0.248-7.531,0.371-9.695,0.371c-1.609,0-2.567-0.525-2.876-1.577c-0.125-0.309-0.186-1.484-0.186-3.525
	c0-4.205,0.093-10.467,0.278-18.787c0.186-8.318,0.278-14.549,0.278-18.694c0-9.4-1.052-24.089-3.154-44.067
	c-0.186-1.174-0.278-2.009-0.278-2.505c0-1.607,0.958-2.412,2.876-2.412c2.473,0,6.2,0.403,11.179,1.206
	c4.978,0.805,8.735,1.206,11.272,1.206c2.535,0,6.292-0.401,11.272-1.206c4.978-0.803,8.705-1.206,11.179-1.206
	C62.894,95.532,63.821,96.367,63.821,98.037z"/>
</svg>
