<?xml version="1.0" encoding="utf-8"?>
<!-- Generator: Adobe Illustrator 16.0.2, SVG Export Plug-In . SVG Version: 6.00 Build 0)  -->
<!DOCTYPE svg PUBLIC "-//W3C//DTD SVG 1.1//EN" "http://www.w3.org/Graphics/SVG/1.1/DTD/svg11.dtd">
<svg version="1.1" id="lay" xmlns="http://www.w3.org/2000/svg" xmlns:xlink="http://www.w3.org/1999/xlink" x="0px" y="0px"
	 width="103px" height="250px" viewBox="0 0 103 250" enable-background="new 0 0 103 250" xml:space="preserve">
<path d="M100.299,140.342c0,14.226-4.578,25.962-13.73,35.208c-9.154,9.247-20.844,13.87-35.068,13.87
	c-13.855,0-25.452-4.514-34.79-13.545c-9.34-9.029-14.009-20.44-14.009-34.233c0-14.473,4.483-26.44,13.452-35.903
	c9.215-9.586,20.997-14.38,35.347-14.38c14.225,0,25.914,4.608,35.068,13.823C95.721,114.397,100.299,126.117,100.299,140.342z
	 M88.424,69.741c0,0.805-1.855,2.753-5.566,5.845c-2.969,2.537-5.227,4.299-6.772,5.288c-5.566,3.711-10.391,5.566-14.473,5.566
	c-4.021,0-7.454-1.144-10.298-3.433c-2.846-2.288-5.165-3.433-6.958-3.433c-2.783,0-5.706,1.408-8.767,4.221
	c-3.062,2.815-4.778,4.221-5.149,4.221c-0.434,0-0.928-0.339-1.484-1.021c-3.154-3.958-8.289-9.741-15.4-17.349
	c-0.619-0.618-0.928-1.144-0.928-1.577c0-0.309,0.247-0.772,0.742-1.392c3.092-3.834,7.205-7.39,12.339-10.669
	c5.813-3.711,10.823-5.566,15.029-5.566c3.092,0,5.968,1.206,8.628,3.618c2.659,2.412,5.288,3.618,7.886,3.618
	c2.164,0,5.226-1.561,9.185-4.685c3.958-3.123,6.091-4.685,6.401-4.685c0.557,0,1.051,0.341,1.484,1.021
	C83.723,62.505,88.424,69.309,88.424,69.741z M60.035,140.342c0-2.412-0.82-4.468-2.458-6.169c-1.64-1.7-3.665-2.551-6.077-2.551
	s-4.438,0.835-6.077,2.505c-1.64,1.67-2.458,3.743-2.458,6.216c0,2.412,0.819,4.469,2.458,6.169
	c1.638,1.702,3.665,2.551,6.077,2.551c2.473,0,4.514-0.835,6.123-2.505C59.23,144.888,60.035,142.816,60.035,140.342z"/>
</svg>
