<?xml version="1.0" encoding="utf-8"?>
<!-- Generator: Adobe Illustrator 16.0.2, SVG Export Plug-In . SVG Version: 6.00 Build 0)  -->
<!DOCTYPE svg PUBLIC "-//W3C//DTD SVG 1.1//EN" "http://www.w3.org/Graphics/SVG/1.1/DTD/svg11.dtd">
<svg version="1.1" id="lay" xmlns="http://www.w3.org/2000/svg" xmlns:xlink="http://www.w3.org/1999/xlink" x="0px" y="0px"
	 width="103px" height="250px" viewBox="0 0 103 250" enable-background="new 0 0 103 250" xml:space="preserve">
<path d="M100.299,140.342c0,14.226-4.578,25.962-13.73,35.208c-9.154,9.247-20.844,13.87-35.068,13.87
	c-13.855,0-25.452-4.514-34.79-13.545c-9.34-9.029-14.009-20.44-14.009-34.233c0-14.473,4.483-26.44,13.452-35.903
	c9.215-9.586,20.997-14.38,35.347-14.38c14.225,0,25.914,4.608,35.068,13.823C95.721,114.397,100.299,126.117,100.299,140.342z
	 M86.847,63.618c0,0.619-0.464,1.361-1.392,2.227C79.826,71.226,70.92,76.298,58.736,81.06c-13.669,5.381-24.524,8.164-32.563,8.35
	l-0.928,0.093c-1.609,0-2.412-0.835-2.412-2.505c0-0.742,0.093-1.886,0.278-3.433c0.186-1.545,0.278-2.69,0.278-3.433
	c0-0.989-0.171-2.473-0.51-4.453c-0.341-1.979-0.51-3.463-0.51-4.453c0-1.051,0.71-1.886,2.134-2.505
	c6.37-2.783,12.647-5.999,18.833-9.648c4.205-2.906,10.606-7.112,19.204-12.617c0.432-0.309,1.144-0.649,2.134-1.021
	c0.494,0.186,1.113,0.526,1.855,1.021c1.855,1.98,4.824,4.731,8.906,8.257c2.164,1.423,5.381,3.618,9.648,6.587
	C86.258,62.227,86.847,63,86.847,63.618z M60.035,140.342c0-2.412-0.82-4.468-2.458-6.169c-1.64-1.7-3.665-2.551-6.077-2.551
	s-4.438,0.835-6.077,2.505c-1.64,1.67-2.458,3.743-2.458,6.216c0,2.412,0.819,4.469,2.458,6.169
	c1.638,1.702,3.665,2.551,6.077,2.551c2.473,0,4.514-0.835,6.123-2.505C59.23,144.888,60.035,142.816,60.035,140.342z"/>
</svg>
