<?xml version="1.0" encoding="utf-8"?>
<!-- Generator: Adobe Illustrator 16.0.2, SVG Export Plug-In . SVG Version: 6.00 Build 0)  -->
<!DOCTYPE svg PUBLIC "-//W3C//DTD SVG 1.1//EN" "http://www.w3.org/Graphics/SVG/1.1/DTD/svg11.dtd">
<svg version="1.1" id="lay" xmlns="http://www.w3.org/2000/svg" xmlns:xlink="http://www.w3.org/1999/xlink" x="0px" y="0px"
	 width="103px" height="250px" viewBox="0 0 103 250" enable-background="new 0 0 103 250" xml:space="preserve">
<path d="M100.299,140.342c0,14.226-4.578,25.962-13.73,35.208c-9.154,9.247-20.844,13.87-35.068,13.87
	c-13.855,0-25.452-4.514-34.79-13.545c-9.34-9.029-14.009-20.44-14.009-34.233c0-14.473,4.483-26.44,13.452-35.903
	c9.215-9.586,20.997-14.38,35.347-14.38c14.225,0,25.914,4.608,35.068,13.823C95.721,114.397,100.299,126.117,100.299,140.342z
	 M78.683,71.226c0,1.732-0.171,4.346-0.51,7.839c-0.341,3.495-0.51,6.108-0.51,7.839c0,1.732-0.649,2.598-1.948,2.598l-0.835-0.093
	c-9.896-0.928-20.349-3.463-31.357-7.607c-12.246-4.576-21.555-9.895-27.925-15.957c-0.928-0.865-1.392-1.607-1.392-2.227
	c0-0.618,0.587-1.392,1.763-2.319c2.164-1.422,5.381-3.618,9.648-6.587c1.917-1.917,4.917-4.669,8.999-8.257
	c0.371-0.309,0.989-0.68,1.855-1.113c5.504,3.773,12.585,8.35,21.245,13.73c4.205,2.166,10.483,5.381,18.833,9.648
	C77.971,69.402,78.683,70.237,78.683,71.226z M60.035,140.342c0-2.412-0.82-4.468-2.458-6.169c-1.64-1.7-3.665-2.551-6.077-2.551
	s-4.438,0.835-6.077,2.505c-1.64,1.67-2.458,3.743-2.458,6.216c0,2.412,0.819,4.469,2.458,6.169
	c1.638,1.702,3.665,2.551,6.077,2.551c2.473,0,4.514-0.835,6.123-2.505C59.23,144.888,60.035,142.816,60.035,140.342z"/>
</svg>
