<?xml version="1.0" encoding="utf-8"?>
<!-- Generator: Adobe Illustrator 16.0.2, SVG Export Plug-In . SVG Version: 6.00 Build 0)  -->
<!DOCTYPE svg PUBLIC "-//W3C//DTD SVG 1.1//EN" "http://www.w3.org/Graphics/SVG/1.1/DTD/svg11.dtd">
<svg version="1.1" id="lay" xmlns="http://www.w3.org/2000/svg" xmlns:xlink="http://www.w3.org/1999/xlink" x="0px" y="0px"
	 width="116px" height="250px" viewBox="0 0 116 250" enable-background="new 0 0 116 250" xml:space="preserve">
<path d="M110.834,99.336c0,4.949-0.248,12.385-0.742,22.312c-0.496,9.927-0.742,17.365-0.742,22.312
	c0,4.33,0.186,10.824,0.557,19.482c0.371,8.66,0.557,15.154,0.557,19.482c0,1.918-0.464,3.154-1.392,3.711
	c-0.619,0.371-1.948,0.557-3.989,0.557s-5.103-0.078-9.185-0.232s-7.144-0.232-9.185-0.232c-2.227,0-5.583,0.186-10.066,0.557
	c-4.485,0.371-7.809,0.557-9.973,0.557c-1.176,0-1.918-1.886-2.227-5.659c-0.31-3.772-0.835-5.659-1.577-5.659
	c0.557,0-2.212,1.825-8.303,5.474c-6.093,3.65-11.984,5.474-17.673,5.474c-15.896,0-25.452-7.422-28.667-22.266
	c-1.609-7.607-2.412-17.534-2.412-29.78c0-16.389,1.236-28.604,3.711-36.646c0.803-2.535,2.35-3.804,4.639-3.804
	c1.793,0,4.53,0.093,8.21,0.278c3.679,0.186,6.448,0.278,8.303,0.278c2.102,0,5.256-0.03,9.463-0.093
	c4.205-0.061,7.39-0.093,9.556-0.093c2.412,0,3.618,1.176,3.618,3.525c0,3.031-0.232,7.654-0.696,13.87s-0.696,10.871-0.696,13.962
	c0,16.205,2.227,24.307,6.68,24.307c3.525,0,5.288-1.7,5.288-5.103v-43.325c0-3.154,0.618-5.195,1.855-6.123
	c1.051-0.742,3.215-1.113,6.494-1.113h34.604C109.504,95.347,110.834,96.677,110.834,99.336z M99.145,82.915
	c-0.186,0.371-0.526,0.649-1.021,0.835c-0.681,0.186-4.052,1.392-10.112,3.618c-5.691,2.041-8.598,3.062-8.721,3.062
	c-0.31,0-1.299-0.339-2.969-1.021c-9.092-3.648-14.813-8.132-17.163-13.452c-0.063-0.247-0.248-0.494-0.557-0.742
	c-0.248,0.186-0.496,0.496-0.742,0.928c-1.176,2.537-3.835,5.505-7.979,8.906c-4.453,3.588-7.948,5.381-10.483,5.381
	c-0.31,0-0.805-0.154-1.484-0.464c-4.763-1.607-10.268-3.679-16.514-6.216c-0.434-0.247-0.649-0.618-0.649-1.113
	c0-0.557,0.278-1.144,0.835-1.763c7.483-8.102,11.843-12.926,13.081-14.473c4.639-5.566,8.194-11.008,10.669-16.328
	c0.557-1.113,1.515-1.67,2.876-1.67h22.358c1.422,0,2.319,0.557,2.69,1.67c1.855,5.691,4.762,10.701,8.721,15.029
	C87.734,70.793,93.454,76.731,99.145,82.915z"/>
</svg>
