<?xml version="1.0" encoding="UTF-8" standalone="no"?>
<!-- Created with Inkscape (http://www.inkscape.org/) -->

<svg
   xmlns:dc="http://purl.org/dc/elements/1.1/"
   xmlns:cc="http://creativecommons.org/ns#"
   xmlns:rdf="http://www.w3.org/1999/02/22-rdf-syntax-ns#"
   xmlns:svg="http://www.w3.org/2000/svg"
   xmlns="http://www.w3.org/2000/svg"
   xmlns:inkscape="http://www.inkscape.org/namespaces/inkscape"
   version="1.1"
   width="23"
   height="23"
   id="svg3063">
  <defs
     id="defs7" />
  <metadata
     id="metadata3069">
    <rdf:RDF>
      <cc:Work
         rdf:about="">
        <dc:format>image/svg+xml</dc:format>
        <dc:type
           rdf:resource="http://purl.org/dc/dcmitype/StillImage" />
        <dc:title />
      </cc:Work>
    </rdf:RDF>
  </metadata>
  <path
     d="M 5.0951648,21.349521 C 3.7535832,18.161847 3.4697304,14.906758 2.6830147,12.095923 2.0068642,10.027744 0.720976,11.133802 0.69501778,9.5222528 0.71554059,8.3376236 2.7116543,8.7262844 3.6342034,8.2185329 4.8101983,7.3257687 5.4516013,5.9262626 6.3091155,4.7550923 7.3113518,3.3301483 8.299742,1.8075117 9.7542373,0.80454041 10.965529,0.43625553 9.9526471,2.3162685 9.715965,2.8045805 9.025496,4.2861934 7.913455,5.5309014 7.2701691,7.0323274 6.6690695,8.323086 8.3867686,8.606496 9.2915771,8.5129359 11.223137,8.4629682 13.164136,8.608728 15.088804,8.4270405 16.539573,8.3253142 15.929518,6.6886133 15.31931,5.9677273 14.394467,4.490152 13.353546,3.0041715 12.965427,1.2785622 c 0.02367,-1.53336449 1.763836,0.2007444 2.162229,0.7436984 1.464653,1.6514109 2.430543,3.650407 3.537574,5.5386372 0.746567,1.3724514 3.587986,0.2108632 3.635152,1.465561 0.09328,1.6078492 -1.259981,1.5343652 -1.522358,2.6858652 -0.662886,1.474449 -0.633349,5.098646 -2.424432,9.395416 -0.478163,1.275826 -1.987897,0.934974 -3.310335,1.103961 -2.738518,0.15432 -5.1664054,0.187333 -7.9030118,-0.0016 -0.8598342,-0.07401 -1.6202499,0.0027 -2.0450804,-0.860558 z m 1.4412684,-5.552013 c 0.052357,1.439747 0.026921,2.982023 0.7357625,4.2775 0.9139541,0.840925 1.2803044,-1.102923 1.3826256,-1.744717 0.265619,-2.072834 0.3690872,-4.2442 -0.2238734,-6.271293 -0.1076408,-1.08738 -1.3526465,-1.041102 -1.4545651,0.01405 -0.393355,1.19521 -0.4366114,2.476261 -0.4399496,3.72446 z m 3.8814768,0.06551 c 0.05975,1.441167 0.05238,2.990792 0.786606,4.276077 0.916939,0.890889 1.320467,-1.050676 1.398881,-1.708297 0.241528,-2.100928 0.298021,-4.297863 -0.320985,-6.341195 -0.127686,-1.102441 -1.367826,-0.983595 -1.450639,0.06107 -0.378493,1.194375 -0.417199,2.468922 -0.413863,3.712345 z m 6.197209,-0.09292 c -0.05864,-1.447265 -0.04151,-2.995459 -0.752396,-4.297827 -0.911431,-0.841582 -1.25097,1.114484 -1.339682,1.749491 -0.232529,2.122484 -0.304375,4.346373 0.345155,6.404887 0.253843,1.28054 1.428371,0.560629 1.429613,-0.38849 0.285594,-1.130125 0.323554,-2.307694 0.31731,-3.468061 z"
     inkscape:connector-curvature="0"
     id="path3142"
     style="fill:#3d8e8e;fill-opacity:1;stroke:#000000;stroke-width:0.29489079;stroke-miterlimit:4;stroke-opacity:1;stroke-dasharray:none" />
</svg>
