<?xml version="1.0" encoding="UTF-8" standalone="no"?>
<!-- Created with Inkscape (http://www.inkscape.org/) -->

<svg
   xmlns:dc="http://purl.org/dc/elements/1.1/"
   xmlns:cc="http://creativecommons.org/ns#"
   xmlns:rdf="http://www.w3.org/1999/02/22-rdf-syntax-ns#"
   xmlns:svg="http://www.w3.org/2000/svg"
   xmlns="http://www.w3.org/2000/svg"
   xmlns:inkscape="http://www.inkscape.org/namespaces/inkscape"
   version="1.1"
   width="600"
   height="600"
   id="lay"
   xml:space="preserve"><defs
   id="defs11" /><metadata
   id="metadata14"><rdf:RDF><cc:Work
       rdf:about=""><dc:format>image/svg+xml</dc:format><dc:type
         rdf:resource="http://purl.org/dc/dcmitype/StillImage" /><dc:title /></cc:Work></rdf:RDF></metadata>
<g
   id="g9417"><path
     d="m 168.5473,315.96987 c 13.63209,3.13862 22.41078,-27.9466 30.53188,-44.00152 10.33907,-20.43444 19.69733,-31.09021 28.67258,-42.40979 9.69871,-12.23255 26.82242,-26.58111 41.92472,-35.24846 17.8887,-10.26506 41.61163,-19.14869 36.42993,-29.71177 -23.24163,-47.35144 -86.30653,10.32088 -108.44982,35.52854 -20.40457,23.24016 -83.08646,103.39715 -29.10929,115.843 z m 249.56438,-57.27863 c -27.23379,0.79637 -45.88749,20.88695 -43.80123,45.89227 2.27066,26.68876 18.7611,38.3522 44.87728,37.77411 23.96104,-0.57808 43.29462,-20.13343 40.65412,-42.6161 -2.95156,-24.81296 -18.16937,-38.8645 -41.73017,-41.05028 z m 176.37116,77.28448 c -12.68675,72.895 -19.11979,90.44697 -71.43019,127.49647 -6.99843,3.48648 -19.67504,13.68376 -27.24189,21.07034 -10.19621,9.93416 -11.10913,42.71278 0.75081,68.54537 7.66818,20.88994 -5.13002,39.3529 -19.5646,43.05167 -23.89315,4.55793 -59.31997,4.55793 -75.56014,1.19903 -17.99002,-2.58844 -23.01467,-21.10921 -14.19646,-46.10257 4.93851,-20.90788 -1.64246,-48.99302 -20.84837,-51.14391 -17.70734,-1.97447 -53.98731,-0.81032 -65.38015,-1.3914 -25.18502,-1.30867 -32.39927,32.31616 -24.2417,55.45366 6.72587,19.03506 -0.0446,39.97384 -11.68465,41.4061 -20.73387,5.13303 -58.06356,4.22503 -76.06574,0.74853 -11.63703,-2.24857 -24.65004,-19.97696 -16.97882,-44.98029 6.40569,-22.36406 17.00922,-49.02292 -8.9175,-74.08107 -40.72808,-39.36585 -52.78966,-53.73235 -66.906076,-116.1151 -3.564568,-15.73398 -1.097336,-45.23544 -3.966824,-45.5504 -2.870501,-0.29801 -9.372444,69.44839 -50.507847,66.32771 -46.4285554,-3.51737 -43.6745767,-112.17712 -20.27589,-110.18072 18.802643,1.6027 14.279552,66.70545 22.838366,65.80742 5.274913,0.94986 10.134399,-81.23342 48.334455,-64.0891 3.54329,-11.92259 6.133124,-24.27176 11.040236,-35.63818 4.55754,-10.54912 2.60908,-7.81217 7.09063,-16.70576 40.81826,1.99141 103.8862,-25.16181 105.01089,-110.95716 49.20989,-17.047628 72.63492,-19.689892 123.97261,-8.91452 15.87236,5.8965 28.82153,7.99955 35.95067,-8.595579 9.21843,-21.454068 38.93364,-82.911876 83.02871,-82.8042319 11.70289,-2.7439279 14.04043,48.0780439 13.7476,59.5650659 -0.60895,23.747485 -0.0892,47.550785 -1.10443,71.285315 -0.62314,14.56683 -5.86968,25.11297 4.24749,36.08569 25.90139,35.21956 38.48174,70.13811 42.87311,113.87451 2.72358,27.0386 6.55058,27.04657 35.70344,27.07149 24.50514,0.009 44.28454,-4.70544 40.28226,18.26162 z"
     inkscape:connector-curvature="0"
     id="out"
     style="fill:#3d8e8e" /><g
     id="g9413"><path
       d="M 198.11778,142.89228 C 206.46017,99.644454 185.22717,51.224777 138.41921,40.090279 94.276605,29.553024 49.279332,53.04477 34.578947,94.228551 14.654385,150.05415 57.048347,204.62306 118.21756,206.4116 c 21.4336,0.64186 71.52468,-19.90578 79.90022,-63.51932 z"
       inkscape:connector-curvature="0"
       id="path3472"
       style="fill:#ffff00;stroke:none" /><path
       d="m 90.438931,86.497098 c 12.869889,-15.333111 43.290859,-14.849903 53.170379,1.242757 2.88198,4.747547 8.03221,11.537692 1.24054,16.236945 -5.14226,3.57569 -12.53638,7.79116 -18.94279,1.08987 -4.40078,-4.62297 -7.40444,-10.894457 -14.78288,-3.77482 -18.692843,19.76604 12.30859,12.12405 11.6876,16.07063 0.32587,3.69541 0.15895,-0.59094 1.07954,8.77588 -0.75042,3.50624 -29.096539,1.99431 -9.89905,15.61687 5.05217,3.27621 7.99113,2.49921 11.25804,-0.5572 1.84731,-1.73941 2.01246,-5.0176 3.66155,-7.09478 5.06462,-6.37611 11.71359,-2.871 17.27809,-1.35222 7.64635,2.08376 5.28582,8.41864 4.01545,13.55887 C 145.46201,165.603 112.03,173.81625 96.234729,159.67016 77.616283,142.99969 74.636543,105.32042 90.438931,86.497098 z"
       inkscape:connector-curvature="0"
       id="path3474"
       style="fill:#3f3f3f;fill-opacity:1;stroke:none" /></g></g>
</svg>