<?xml version="1.0" encoding="UTF-8" standalone="no"?>
<!-- Created with Inkscape (http://www.inkscape.org/) -->

<svg
   xmlns:dc="http://purl.org/dc/elements/1.1/"
   xmlns:cc="http://creativecommons.org/ns#"
   xmlns:rdf="http://www.w3.org/1999/02/22-rdf-syntax-ns#"
   xmlns:svg="http://www.w3.org/2000/svg"
   xmlns="http://www.w3.org/2000/svg"
   xmlns:inkscape="http://www.inkscape.org/namespaces/inkscape"
   version="1.1"
   width="600"
   height="600"
   id="lay"
   xml:space="preserve"><defs
   id="defs11" /><metadata
   id="metadata14"><rdf:RDF><cc:Work
       rdf:about=""><dc:format>image/svg+xml</dc:format><dc:type
         rdf:resource="http://purl.org/dc/dcmitype/StillImage" /><dc:title /></cc:Work></rdf:RDF></metadata>

<g
   id="g5628"><path
     d="m 168.5473,315.96987 c 13.63209,3.13862 22.41078,-27.9466 30.53188,-44.00152 10.33907,-20.43444 19.69733,-31.09021 28.67258,-42.40979 9.69871,-12.23255 26.82242,-26.58111 41.92472,-35.24846 17.8887,-10.26506 41.61163,-19.14869 36.42993,-29.71177 -23.24163,-47.35144 -86.30653,10.32088 -108.44982,35.52854 -20.40457,23.24016 -83.08646,103.39715 -29.10929,115.843 z m 249.56438,-57.27863 c -27.23379,0.79637 -45.88749,20.88695 -43.80123,45.89227 2.27066,26.68876 18.7611,38.3522 44.87728,37.77411 23.96104,-0.57808 43.29462,-20.13343 40.65412,-42.6161 -2.95156,-24.81296 -18.16937,-38.8645 -41.73017,-41.05028 z m 176.37116,77.28448 c -12.68675,72.895 -19.11979,90.44697 -71.43019,127.49647 -6.99843,3.48648 -19.67504,13.68376 -27.24189,21.07034 -10.19621,9.93416 -11.10913,42.71278 0.75081,68.54537 7.66818,20.88994 -5.13002,39.3529 -19.5646,43.05167 -23.89315,4.55793 -59.31997,4.55793 -75.56014,1.19903 -17.99002,-2.58844 -23.01467,-21.10921 -14.19646,-46.10257 4.93851,-20.90788 -1.64246,-48.99302 -20.84837,-51.14391 -17.70734,-1.97447 -53.98731,-0.81032 -65.38015,-1.3914 -25.18502,-1.30867 -32.39927,32.31616 -24.2417,55.45366 6.72587,19.03506 -0.0446,39.97384 -11.68465,41.4061 -20.73387,5.13303 -58.06356,4.22503 -76.06574,0.74853 -11.63703,-2.24857 -24.65004,-19.97696 -16.97882,-44.98029 6.40569,-22.36406 17.00922,-49.02292 -8.9175,-74.08107 -40.72808,-39.36585 -52.78966,-53.73235 -66.906076,-116.1151 -3.564568,-15.73398 -1.097336,-45.23544 -3.966824,-45.5504 -2.870501,-0.29801 -9.372444,69.44839 -50.507847,66.32771 -46.4285554,-3.51737 -43.6745767,-112.17712 -20.27589,-110.18072 18.802643,1.6027 14.279552,66.70545 22.838366,65.80742 5.274913,0.94986 10.134399,-81.23342 48.334455,-64.0891 3.54329,-11.92259 6.133124,-24.27176 11.040236,-35.63818 4.55754,-10.54912 2.60908,-7.81217 7.09063,-16.70576 40.81826,1.99141 103.8862,-25.16181 105.01089,-110.95716 49.20989,-17.047628 72.63492,-19.689892 123.97261,-8.91452 15.87236,5.8965 28.82153,7.99955 35.95067,-8.595579 9.21843,-21.454068 38.93364,-82.911876 83.02871,-82.8042319 11.70289,-2.7439279 14.04043,48.0780439 13.7476,59.5650659 -0.60895,23.747485 -0.0892,47.550785 -1.10443,71.285315 -0.62314,14.56683 -5.86968,25.11297 4.24749,36.08569 25.90139,35.21956 38.48174,70.13811 42.87311,113.87451 2.72358,27.0386 6.55058,27.04657 35.70344,27.07149 24.50514,0.009 44.28454,-4.70544 40.28226,18.26162 z"
     inkscape:connector-curvature="0"
     id="out"
     style="fill:#3d8e8e" /><g
     transform="translate(15.546503,-1784.4766)"
     id="g5408"><path
       d="m 182.51127,1925.6142 c 8.34239,-43.2478 -12.89061,-91.6675 -59.69857,-102.802 -44.142602,-10.5373 -89.139882,12.9545 -103.840261,54.1382 -19.924561,55.8257 22.469399,110.3946 83.638611,112.1831 21.4336,0.6419 71.52468,-19.9058 79.90022,-63.5193 z"
       inkscape:connector-curvature="0"
       id="path3474-4"
       style="fill:#edc066;fill-opacity:1;stroke:none" /><path
       d="m 105.69063,1848.865 c -10.080026,10e-5 -17.483516,2.6263 -22.187496,7.9062 -4.70401,5.1841 -7.03126,12.5876 -7.03125,22.1875 l 0,27 0,15.6563 0,38.9687 13.375,0 0,-38.9687 0.0313,0 0,-2.2188 28.781256,0 0,-11.2187 -28.781256,0 0,-2.2188 -0.0313,0 0,-9 28.812506,0 0,-11.25 -28.812506,0 0,-6.4687 c -2e-5,-5.7599 1.25398,-10.3274 3.75,-13.6875 2.49597,-3.4559 6.853716,-5.1874 13.093746,-5.1875 3.07196,10e-5 5.66922,0.2991 7.78126,0.875 2.11195,0.4801 3.7542,1.0178 4.90625,1.5937 l 2.4375,-11.5312 c -1.15205,-0.4799 -3.1513,-1.0177 -6.03125,-1.5938 -2.78405,-0.5759 -6.1578,-0.8436 -10.09376,-0.8437 z"
       inkscape:connector-curvature="0"
       id="path4493"
       style="font-size:144px;font-style:normal;font-variant:normal;font-weight:normal;font-stretch:normal;text-align:start;line-height:100%;letter-spacing:0px;word-spacing:0px;writing-mode:lr-tb;text-anchor:start;fill:#3f3f3f;fill-opacity:1;stroke:none;font-family:Ubuntu;-inkscape-font-specification:Ubuntu" /></g></g></svg>