<?xml version="1.0" encoding="UTF-8" standalone="no"?>
<!-- Created with Inkscape (http://www.inkscape.org/) -->

<svg
   xmlns:dc="http://purl.org/dc/elements/1.1/"
   xmlns:cc="http://creativecommons.org/ns#"
   xmlns:rdf="http://www.w3.org/1999/02/22-rdf-syntax-ns#"
   xmlns:svg="http://www.w3.org/2000/svg"
   xmlns="http://www.w3.org/2000/svg"
   xmlns:inkscape="http://www.inkscape.org/namespaces/inkscape"
   version="1.1"
   width="600"
   height="600"
   id="lay"
   xml:space="preserve"><defs
   id="defs7" /><metadata
   id="metadata14"><rdf:RDF><cc:Work
       rdf:about=""><dc:format>image/svg+xml</dc:format><dc:type
         rdf:resource="http://purl.org/dc/dcmitype/StillImage" /><dc:title /></cc:Work></rdf:RDF></metadata>
<path
   d="m 418.11168,258.69124 c -27.23379,0.79637 -45.88749,20.88695 -43.80123,45.89227 2.27066,26.68876 18.7611,38.3522 44.87728,37.77411 23.96104,-0.57808 43.29462,-20.13343 40.65412,-42.6161 -2.95156,-24.81296 -18.16937,-38.8645 -41.73017,-41.05028 z m 176.37116,77.28448 c -12.68675,72.895 -19.11979,90.44697 -71.43019,127.49647 -6.99843,3.48648 -19.67504,13.68376 -27.24189,21.07034 -10.19621,9.93416 -11.10913,42.71278 0.75081,68.54537 7.66818,20.88994 -5.13002,39.3529 -19.5646,43.05167 -23.89315,4.55793 -59.31997,4.55793 -75.56014,1.19903 -17.99002,-2.58844 -23.01467,-21.10921 -14.19646,-46.10257 4.93851,-20.90788 -1.64246,-48.99302 -20.84837,-51.14391 -17.70734,-1.97447 -53.98731,-0.81032 -65.38015,-1.3914 -25.18502,-1.30867 -32.39927,32.31616 -24.2417,55.45366 6.72587,19.03506 -0.0446,39.97384 -11.68465,41.4061 -20.73387,5.13303 -58.06356,4.22503 -76.06574,0.74853 -11.63703,-2.24857 -24.65004,-19.97696 -16.97882,-44.98029 6.40569,-22.36406 17.00922,-49.02292 -8.9175,-74.08107 -40.72808,-39.36585 -52.78966,-53.73235 -66.906076,-116.1151 -3.564568,-15.73398 -1.097336,-45.23544 -3.966824,-45.5504 -2.870501,-0.29801 -9.372444,69.44839 -50.507847,66.32771 -46.4285554,-3.51737 -43.6745767,-112.17712 -20.27589,-110.18072 18.802643,1.6027 14.279552,66.70545 22.838366,65.80742 5.274913,0.94986 10.134399,-81.23342 48.334455,-64.0891 3.54329,-11.92259 6.351055,-24.11974 11.040236,-35.63818 9.16875,-22.52201 17.68144,-46.24349 33.22128,-64.94697 22.57357,-27.16916 50.81578,-52.36442 83.90537,-64.726 37.2045,-13.898829 67.60979,-17.679842 118.94748,-6.90447 15.87236,5.8965 28.82153,7.99955 35.95067,-8.595579 9.21843,-21.454068 38.93364,-82.911876 83.02871,-82.8042319 11.70289,-2.7439279 14.04043,48.0780439 13.7476,59.5650659 -0.60895,23.747485 -0.0892,47.550785 -1.10443,71.285315 -0.62314,14.56683 -5.86968,25.11297 4.24749,36.08569 25.90139,35.21956 38.48174,70.13811 42.87311,113.87451 2.72358,27.0386 6.55058,27.04657 35.70344,27.07149 24.50514,0.009 44.28454,-4.70544 40.28226,18.26162 z"
   inkscape:connector-curvature="0"
   id="path10401"
   style="fill:#3d8e8e" />
</svg>