<?xml version="1.0" encoding="UTF-8" standalone="no"?>
<!-- Created with Inkscape (http://www.inkscape.org/) -->

<svg
   xmlns:dc="http://purl.org/dc/elements/1.1/"
   xmlns:cc="http://creativecommons.org/ns#"
   xmlns:rdf="http://www.w3.org/1999/02/22-rdf-syntax-ns#"
   xmlns:svg="http://www.w3.org/2000/svg"
   xmlns="http://www.w3.org/2000/svg"
   xmlns:inkscape="http://www.inkscape.org/namespaces/inkscape"
   version="1.1"
   width="600"
   height="600"
   id="lay"
   xml:space="preserve"><defs
   id="defs9" /><metadata
   id="metadata28413"><rdf:RDF><cc:Work
       rdf:about=""><dc:format>image/svg+xml</dc:format><dc:type
         rdf:resource="http://purl.org/dc/dcmitype/StillImage" /><dc:title /></cc:Work></rdf:RDF></metadata>
<path
   d="m 131.05953,303.27022 c 31.90476,16.42992 23.62986,-36.94497 68.17134,-82.42449 47.42079,-48.41946 94.36012,-33.44472 78.75924,-62.96781 -18.10834,-34.26819 -89.3963,6.33505 -113.37176,31.54271 -22.10291,23.24116 -69.15563,95.51839 -33.55882,113.84959 z m 272.31905,-49.30399 c -29.50203,0.79637 -49.70935,20.88794 -47.44934,45.89227 2.45979,26.68876 20.32255,38.3522 48.6139,37.77411 25.95777,-0.57809 46.9005,-20.13343 44.04008,-42.6161 -3.1952,-24.81296 -19.68155,-38.86451 -45.20464,-41.05028 z m 191.06172,77.28448 c -13.74339,72.894 -30.6452,97.85989 -77.38051,127.49548 -10.25935,6.50561 -21.31373,13.68375 -29.50971,21.07033 -11.04543,9.93416 -12.03439,42.71279 0.81336,68.54538 8.30683,20.89093 -5.5573,39.35389 -21.19408,43.05266 -25.88315,4.55793 -64.26058,4.55793 -81.85333,1.19903 -19.48839,-2.58844 -24.93153,-21.10921 -15.37887,-46.10257 5.34984,-20.90788 -1.77925,-48.99302 -22.58477,-51.14391 -19.18213,-1.97547 -58.48377,-0.81032 -70.82548,-1.3914 -27.26835,-1.30867 -35.07906,32.31616 -26.24647,55.45366 7.28167,19.03407 -0.0483,39.97384 -12.65233,41.4061 -22.44977,5.13303 -62.8677,4.22503 -82.36484,0.74853 -12.60515,-2.24857 -26.70197,-19.97696 -18.39294,-44.98029 6.94032,-22.36406 18.42697,-49.02192 -9.6591,-74.08107 C 83.091019,433.15679 63.243138,400.49169 54.731615,356.40754 51.839097,341.42618 53.543979,311.1721 50.435503,310.85614 47.325926,310.55912 54.73598,374.70077 29.644607,376.8724 11.598147,378.43429 4.1153675,349.24953 5.0826528,332.81155 6.5788565,307.3852 9.4764552,251.57813 50.856993,268.72244 c 3.837301,-11.92358 6.642427,-24.27246 11.959748,-35.63817 4.935617,-10.54983 12.430326,-40.0183 32.588238,-63.98851 20.157911,-23.97021 54.092161,-56.2366 92.893501,-69.655635 38.80134,-13.419037 91.02783,-11.912812 130.19618,-2.933302 17.19434,5.896507 31.22201,7.999547 38.94602,-8.595581 9.9851,-21.454069 42.17521,-82.9118765 89.94393,-82.8042324 12.67651,-2.743928 15.20982,48.0780444 14.8926,59.5660624 -0.65857,23.746489 -0.0965,47.550788 -1.19641,71.283318 -0.67504,14.56684 -6.35855,25.11298 4.60236,36.0857 28.05864,35.22055 41.68677,70.13811 46.44389,113.8755 2.95041,27.03761 7.09616,27.04558 38.67707,27.0705 26.54392,0.01 47.96961,-4.70444 43.63618,18.26262 z"
   inkscape:connector-curvature="0"
   id="out"
   style="fill:#3d8e8e;stroke:none" />
</svg>