<?xml version="1.0" encoding="UTF-8" standalone="no"?>
<!-- Created with Inkscape (http://www.inkscape.org/) -->

<svg
   xmlns:dc="http://purl.org/dc/elements/1.1/"
   xmlns:cc="http://creativecommons.org/ns#"
   xmlns:rdf="http://www.w3.org/1999/02/22-rdf-syntax-ns#"
   xmlns:svg="http://www.w3.org/2000/svg"
   xmlns="http://www.w3.org/2000/svg"
   xmlns:inkscape="http://www.inkscape.org/namespaces/inkscape"
   version="1.2"
   width="600"
   height="600"
   viewBox="0 0 600 600"
   id="svg2"
   xml:space="preserve"><metadata
   id="metadata6174"><rdf:RDF><cc:Work
       rdf:about=""><dc:format>image/svg+xml</dc:format><dc:type
         rdf:resource="http://purl.org/dc/dcmitype/StillImage" /><dc:title /></cc:Work></rdf:RDF></metadata><defs
   id="defs6172" />

<g
   transform="matrix(0.98,0,0,0.98,6.0000128,6.0000005)"
   id="g11172"><path
     d="m 451.74551,579.31458 c 53.65431,0 103.97573,-14.31471 147.33001,-39.33725 0.0236,-1.5379 0.0462,-3.07354 0.0462,-4.61705 0,-109.34543 -59.44193,-204.79407 -147.79171,-255.78447 0.0233,1.53114 0.0462,3.08034 0.0462,4.61705 0,109.16705 -59.26014,204.45092 -147.37617,255.50745 43.44955,25.17485 93.91271,39.61427 147.74539,39.61427 z"
     inkscape:connector-curvature="0"
     id="path8969"
     style="fill:#3f3f3f;fill-opacity:1;fill-rule:nonzero;stroke:#3d8e8e;stroke-width:0.70789349;stroke-miterlimit:4;stroke-opacity:1;stroke-dasharray:none" /><path
     d="M 447.32998,271.57581 C 445.69102,164.33675 386.87562,71.02324 299.99997,20.685419 213.12432,71.02324 154.30892,164.33675 152.66996,271.57581 c 43.35428,-25.02254 93.6757,-39.33725 147.33001,-39.33725 53.65431,0 103.97798,14.31696 147.33001,39.33725 z"
     inkscape:connector-curvature="0"
     id="path8231-1-4-7-0"
     style="fill:#3f3f3f;fill-opacity:1;fill-rule:nonzero;stroke:#3d8e8e;stroke-width:0.70789349;stroke-miterlimit:4;stroke-opacity:1;stroke-dasharray:none" /><path
     d="m 148.25443,579.31458 c 53.83268,0 104.29584,-14.43942 147.74554,-39.61427 -88.11147,-51.05197 -147.37618,-146.3404 -147.37618,-255.50745 0,-1.54351 0.0226,-3.07915 0.0462,-4.61705 C 60.320185,330.56621 0.8782538,426.01485 0.8782538,535.36028 c 0,1.54351 0.022605,3.07915 0.046244,4.61705 43.3542002,25.02254 93.6756222,39.33725 147.3299322,39.33725 z"
     inkscape:connector-curvature="0"
     id="path8993"
     style="fill:#3f3f3f;fill-opacity:1;fill-rule:nonzero;stroke:#3d8e8e;stroke-width:0.70789349;stroke-miterlimit:4;stroke-opacity:1;stroke-dasharray:none" /></g></svg>
