<?xml version="1.0" encoding="UTF-8" standalone="no"?>
<!-- Created with Inkscape (http://www.inkscape.org/) -->

<svg
   xmlns:dc="http://purl.org/dc/elements/1.1/"
   xmlns:cc="http://creativecommons.org/ns#"
   xmlns:rdf="http://www.w3.org/1999/02/22-rdf-syntax-ns#"
   xmlns:svg="http://www.w3.org/2000/svg"
   xmlns="http://www.w3.org/2000/svg"
   xmlns:inkscape="http://www.inkscape.org/namespaces/inkscape"
   version="1.2"
   width="600"
   height="600"
   viewBox="0 0 600 600"
   id="Layer_1"
   xml:space="preserve"><metadata
   id="metadata15"><rdf:RDF><cc:Work
       rdf:about=""><dc:format>image/svg+xml</dc:format><dc:type
         rdf:resource="http://purl.org/dc/dcmitype/StillImage" /><dc:title /></cc:Work></rdf:RDF></metadata><defs
   id="defs13">
	
	
	
</defs>
<g
   id="g11846"><path
     d="m 561.894,513.22 c -2.125,1.826 -4.248,3.654 -6.371,5.482 -27.305,14.18 -55.148,26.457 -85.896,31.82 -48.877,8.527 -96.537,4.992 -143.158,-11.621 -7.93,-2.824 -17.508,-2.918 -22.963,-11.098 0.494,-9.314 8.826,-11.492 14.744,-15.357 44.6,-29.111 79.096,-66.959 101.223,-115.674 16.559,-36.463 25.055,-74.639 24.961,-114.777 -0.016,-6.629 -3.043,-15.439 7.324,-18.33 20.609,14.795 41.035,29.553 55.914,50.916 9.564,13.73 20.764,26.328 28.559,41.291 11.631,25.631 23.168,51.225 28.955,79.104 3.561,17.145 4.246,34.488 6.066,51.75 1.054,9.99 -5.183,18.019 -9.358,26.494 z"
     inkscape:connector-curvature="0"
     id="path5"
     style="fill:#3f3f3f;fill-opacity:1;fill-rule:evenodd" /><path
     d="m 294.423,531.831 c -0.498,0.672 -1.115,1.203 -1.85,1.6 -20.602,5.295 -40.305,13.521 -61.35,17.52 -53.154,10.096 -105.021,7.346 -155.418,-13.439 -7.234,-2.984 -14.51,-5.871 -21.76,-8.822 -4.947,-3.17 -9.895,-6.34 -14.844,-9.51 -2.299,-5.783 -10.773,-7.514 -10.047,-15.289 -2.26,-36.102 2.865,-71.502 13.713,-105.648 8.379,-26.379 21.488,-51.141 40.389,-71.777 6.494,-7.09 9.514,-16.395 16.975,-22.488 12.443,-10.168 24.852,-20.375 37.275,-30.564 11.307,-0.223 8.85,8.826 9.111,14.809 1.225,27.975 6.234,55.154 15.26,81.637 21.756,63.83 63.68,110.729 121.035,144.865 6.151,3.657 15.849,5.952 11.511,17.106 z"
     inkscape:connector-curvature="0"
     id="path7"
     style="fill:#3f3f3f;fill-opacity:1;fill-rule:evenodd" /><path
     d="m 311.819,47.187 c 63.82,38.809 106.414,93.775 126.227,166.016 2.516,9.176 4.451,18.508 6.656,27.766 1.186,2.34 0.861,4.875 0.82,7.338 -0.156,9.109 -2.748,11.088 -11.313,7.434 -8.766,-3.74 -17.203,-8.236 -26.027,-11.936 -82.365,-34.527 -162.607,-29.494 -241.021,12.449 -6.32,3.381 -12.832,8.803 -20.33,2.008 5.875,-57.994 25.379,-109.891 65.021,-153.99 20.697,-23.023 43.26,-42.938 70.314,-57.822 10.026,-5.402 19.849,-2.709 29.653,0.737 z"
     inkscape:connector-curvature="0"
     id="path9"
     style="fill:#3f3f3f;fill-opacity:1;fill-rule:evenodd" /></g>
</svg>