<?xml version="1.0" encoding="UTF-8" standalone="no"?>
<!-- Created with Inkscape (http://www.inkscape.org/) -->

<svg
   xmlns:dc="http://purl.org/dc/elements/1.1/"
   xmlns:cc="http://creativecommons.org/ns#"
   xmlns:rdf="http://www.w3.org/1999/02/22-rdf-syntax-ns#"
   xmlns:svg="http://www.w3.org/2000/svg"
   xmlns="http://www.w3.org/2000/svg"
   xmlns:inkscape="http://www.inkscape.org/namespaces/inkscape"
   version="1.2"
   width="600"
   height="600"
   viewBox="0 0 600 600"
   id="svg2"
   xml:space="preserve"><metadata
   id="metadata6174"><rdf:RDF><cc:Work
       rdf:about=""><dc:format>image/svg+xml</dc:format><dc:type
         rdf:resource="http://purl.org/dc/dcmitype/StillImage" /><dc:title /></cc:Work></rdf:RDF></metadata><defs
   id="defs6172" />

<g
   id="g16749"><path
     d="m 196,200.1875 c -73.92107,0 -138.470988,40.13803 -173.03125,99.8125 34.560262,59.67447 99.11018,99.8125 173.03125,99.8125 0.0627,0 0.12485,6e-5 0.1875,0 0.0334,-36.36241 9.77704,-70.4514 26.78125,-99.8125 -17.00383,-29.36079 -26.7479,-63.45056 -26.78125,-99.8125 -0.0624,-6e-5 -0.12507,0 -0.1875,0 z"
     inkscape:connector-curvature="0"
     id="path7659-7-2-7"
     style="fill:#3f3f3f;fill-opacity:1;fill-rule:nonzero;stroke:#3d8e8e;stroke-width:0.38339132;stroke-miterlimit:4;stroke-opacity:1;stroke-dasharray:none" /><path
     d="m 403.8125,200.1875 c -0.0333,36.36241 -9.77704,70.4514 -26.78125,99.8125 17.00383,29.36079 26.7479,63.45056 26.78125,99.8125 0.0624,6e-5 0.12507,0 0.1875,0 73.92107,0 138.47099,-40.13803 173.03125,-99.8125 C 542.47099,240.32553 477.92107,200.1875 404,200.1875 c -0.0627,0 -0.12485,-6e-5 -0.1875,0 z"
     inkscape:connector-curvature="0"
     id="path7659-7-2-4"
     style="fill:#3f3f3f;fill-opacity:1;fill-rule:nonzero;stroke:#3d8e8e;stroke-width:0.38339132;stroke-miterlimit:4;stroke-opacity:1;stroke-dasharray:none" /><path
     d="m 300,377.03125 c -29.36079,17.00383 -63.45056,26.7479 -99.8125,26.78125 -6e-5,0.0624 0,0.12507 0,0.1875 0,73.92107 40.13803,138.47099 99.8125,173.03125 59.67447,-34.56026 99.8125,-99.11018 99.8125,-173.03125 0,-0.0627 6e-5,-0.12485 0,-0.1875 C 363.45009,403.7792 329.3611,394.03546 300,377.03125 z"
     inkscape:connector-curvature="0"
     id="path7659-7-2-6"
     style="fill:#3f3f3f;fill-opacity:1;fill-rule:nonzero;stroke:#3d8e8e;stroke-width:0.38339132;stroke-miterlimit:4;stroke-opacity:1;stroke-dasharray:none" /><path
     d="M 300,22.96875 C 240.32553,57.529012 200.1875,122.07893 200.1875,196 c 0,0.0624 -6e-5,0.12509 0,0.1875 36.36194,0.0334 70.45171,9.77742 99.8125,26.78125 29.3611,-17.00421 63.45009,-26.7479 99.8125,-26.78125 6e-5,-0.0626 0,-0.12483 0,-0.1875 0,-73.92107 -40.13803,-138.470988 -99.8125,-173.03125 z"
     inkscape:connector-curvature="0"
     id="path7659-7-2-65"
     style="fill:#3f3f3f;fill-opacity:1;fill-rule:nonzero;stroke:#3d8e8e;stroke-width:0.38339132;stroke-miterlimit:4;stroke-opacity:1;stroke-dasharray:none" /></g></svg>
