<?xml version="1.0" encoding="UTF-8" standalone="no"?>
<!-- Created with Inkscape (http://www.inkscape.org/) -->

<svg
   xmlns:dc="http://purl.org/dc/elements/1.1/"
   xmlns:cc="http://creativecommons.org/ns#"
   xmlns:rdf="http://www.w3.org/1999/02/22-rdf-syntax-ns#"
   xmlns:svg="http://www.w3.org/2000/svg"
   xmlns="http://www.w3.org/2000/svg"
   xmlns:inkscape="http://www.inkscape.org/namespaces/inkscape"
   version="1.2"
   width="600"
   height="600"
   viewBox="0 0 600 600"
   id="Layer_1"
   xml:space="preserve"><metadata
   id="metadata15"><rdf:RDF><cc:Work
       rdf:about=""><dc:format>image/svg+xml</dc:format><dc:type
         rdf:resource="http://purl.org/dc/dcmitype/StillImage" /><dc:title /></cc:Work></rdf:RDF></metadata><defs
   id="defs13">
	
	
	
</defs>
<g
   id="g12481"><path
     d="m 15.131,288.181 c 0.875,-8.882 3.73,-17.46 5.184,-26.259 8.347,-50.615 28.929,-95.339 61.901,-134.884 35.873,-43.032 80.641,-72.434 133.552,-88.973 27.746,-8.671 56.79,-12.267 86.026,-11.632 0.762,1.038 1.523,2.075 2.285,3.114 -21.868,19.23 -43.736,38.463 -67.134,59.039 20.731,20.019 36.951,35.684 55.253,53.36 -66.454,6.672 -113.146,38.812 -141.797,94.061 -19.493,37.586 -24.68,78.495 -9.857,121.051 7.646,-4.651 14.706,-8.945 25.007,-15.207 -8.167,43.391 -15.77,83.789 -23.544,125.097 -42.069,-7.956 -82.72,-15.647 -125.915,-23.816 8.906,-6.368 16.155,-11.554 23.595,-16.87 C 28.93,396.977 18.192,367.603 17.706,335.74 17.685,334.572 13.689,302.806 15.131,288.181 z"
     inkscape:connector-curvature="0"
     id="path5"
     style="fill:#3f3f3f;fill-opacity:1;fill-rule:evenodd" /><path
     d="m 264.394,88.813 c 26.164,-26.359 54.487,-54.896 83.03,-83.648 1.178,1.74 1.947,2.349 1.97,2.984 0.802,22.567 1.099,21.352 23.623,27.017 38.228,9.62 72.997,27.071 103.81,51.848 60.423,48.588 95.728,111.265 105.641,188.334 8.47,65.836 -5.639,126.634 -39.445,183.273 -0.361,0.604 -1.097,0.987 -2.959,2.604 -6.755,-29.758 -13.327,-58.713 -20.092,-88.51 -22.848,5.034 -44.72,9.855 -68.316,15.055 25.438,-56.646 25.533,-111.123 -5.373,-163.603 -21.518,-36.539 -52.697,-61.908 -95.764,-74.939 -0.545,9.913 -1.02,18.551 -1.342,24.425 -27.095,-27.116 -55.318,-55.357 -84.783,-84.84 z"
     inkscape:connector-curvature="0"
     id="path7"
     style="fill:#3f3f3f;fill-opacity:1;fill-rule:evenodd" /><path
     d="m 412.349,437.156 c -10.627,-7.008 -18.53,-12.22 -28.935,-19.08 43.234,-9.688 83.811,-18.782 125.629,-28.155 9.528,41.92 18.662,82.096 28.521,125.467 -9.18,-5.685 -15.783,-9.777 -23.518,-14.564 -63.252,67.437 -141.633,99.715 -234.618,93.187 -92.652,-6.506 -163.983,-50.864 -218.969,-128.782 25.218,4.851 48.108,8.889 70.828,13.731 20.55,4.38 20.869,4.853 25.146,-14.945 3.55,-16.441 6.006,-33.121 9.315,-51.76 74.689,78.077 155.76,87.171 246.601,24.901 z"
     inkscape:connector-curvature="0"
     id="path9"
     style="fill:#3f3f3f;fill-opacity:1;fill-rule:evenodd" /></g>
</svg>