<?xml version="1.0" encoding="UTF-8" standalone="no"?>
<!-- Created with Inkscape (http://www.inkscape.org/) -->

<svg
   xmlns:dc="http://purl.org/dc/elements/1.1/"
   xmlns:cc="http://creativecommons.org/ns#"
   xmlns:rdf="http://www.w3.org/1999/02/22-rdf-syntax-ns#"
   xmlns:svg="http://www.w3.org/2000/svg"
   xmlns="http://www.w3.org/2000/svg"
   xmlns:inkscape="http://www.inkscape.org/namespaces/inkscape"
   version="1.2"
   width="600"
   height="600"
   viewBox="0 0 600 600"
   id="Layer_1"
   xml:space="preserve"><metadata
   id="metadata27"><rdf:RDF><cc:Work
       rdf:about=""><dc:format>image/svg+xml</dc:format><dc:type
         rdf:resource="http://purl.org/dc/dcmitype/StillImage" /><dc:title /></cc:Work></rdf:RDF></metadata><defs
   id="defs25">
	
	
	

		
		
	
		
		
	
		
		
	</defs>
<g
   transform="matrix(1.2952563,0,0,1.2952563,-90.121087,-88.455774)"
   id="g13087"><path
     d="m 277.702,371.312 c 0,36.82 0,72.079 0,107.54 -9.072,0 -17.997,-0.229 -26.906,0.051 -15.955,0.501 -31.896,1.445 -47.851,1.943 -11.669,0.365 -22.153,-3.335 -31.932,-9.699 -18.834,-12.257 -33.617,-28.449 -44.645,-47.711 -13.625,-23.797 -26.092,-48.258 -39.037,-72.444 -0.204,-0.381 -0.108,-0.922 -0.229,-2.209 3.579,2.532 6.964,4.368 9.662,6.929 15.162,14.394 33.706,18.687 53.793,18.167 27.77,-0.717 55.529,-1.846 83.3,-2.506 14.437,-0.345 28.891,-0.061 43.845,-0.061 z"
     inkscape:connector-curvature="0"
     id="path7"
     style="fill:#3f3f3f;fill-opacity:1;fill-rule:evenodd" /><path
     d="m 86.199,226.191 c 1.412,-0.092 2.823,-0.262 4.234,-0.263 30.166,-0.016 60.331,-0.009 90.497,-0.016 2.493,0 4.6,-0.11 6.181,2.816 14.708,27.238 29.625,54.364 44.463,81.531 0.761,1.394 1.363,2.873 2.333,4.938 -11.074,-6.413 -21.504,-12.453 -32.374,-18.748 -5.485,11.727 -10.565,22.718 -15.759,33.653 -5.14,10.822 -10.455,21.562 -15.554,32.401 -1.119,2.379 -2.522,3.274 -5.207,3.564 -13.762,1.487 -27.318,0.657 -40.485,-3.6 -21.364,-6.907 -34.423,-22.545 -43.068,-42.407 -0.743,-1.707 0.06,-4.539 0.978,-6.448 9.953,-20.688 20.083,-41.289 30.131,-61.932 1.088,-2.236 1.962,-4.578 3.227,-7.556 -10.061,-5.596 -20.06,-11.157 -30.06,-16.719 0.154,-0.401 0.308,-0.807 0.463,-1.214 z"
     inkscape:connector-curvature="0"
     id="path9"
     style="fill:#3f3f3f;fill-opacity:1;fill-rule:evenodd" /><path
     d="m 360.553,342.561 c 0,9.029 0,18.059 0,27.322 13.949,0.432 27.2,1.021 40.457,1.208 18.465,0.259 36.952,0.779 55.394,0.143 18.459,-0.639 36.428,-3.917 51.03,-17.055 0.153,0.681 0.379,1.064 0.273,1.301 -11.473,25.624 -20.834,52.243 -35.995,76.13 -20.48,32.265 -49.595,48.711 -88.001,48.292 -7.116,-0.078 -14.234,-0.011 -22.316,-0.011 0,10.112 0,20.941 0,31.77 -0.434,0.074 -0.866,0.147 -1.299,0.222 -0.756,-1.17 -1.571,-2.307 -2.258,-3.516 -14.366,-25.334 -28.676,-50.699 -43.131,-75.98 -1.588,-2.776 -1.797,-4.994 -0.237,-7.819 13.188,-23.889 26.274,-47.835 39.377,-71.771 1.895,-3.459 3.719,-6.957 5.575,-10.437 0.377,0.066 0.754,0.133 1.131,0.201 z"
     inkscape:connector-curvature="0"
     id="path13"
     style="fill:#3f3f3f;fill-opacity:1;fill-rule:evenodd" /><path
     d="m 383.88,278.032 c 31.027,-18.825 61.593,-37.37 92.562,-56.159 5.423,11.07 10.588,21.828 15.939,32.492 8.879,17.696 17.739,35.406 26.92,52.946 2.403,4.593 2.478,8.621 0.6,13.281 -10.309,25.579 -29.811,39.015 -56.569,42.052 -10.174,1.155 -20.577,0.391 -30.872,0.248 -1.483,-0.021 -3.652,-1.083 -4.314,-2.308 -14.727,-27.218 -29.285,-54.526 -44.266,-82.552 z"
     inkscape:connector-curvature="0"
     id="path15"
     style="fill:#3f3f3f;fill-opacity:1;fill-rule:evenodd" /><path
     d="m 306.316,221.615 c 10.041,-5.474 20.083,-10.948 30.842,-16.813 C 319.193,160.576 294.742,120.584 257.2,88.28 c 2.446,-0.16 3.994,-0.352 5.541,-0.35 36.996,0.048 73.993,-0.086 110.986,0.285 13.852,0.139 25.088,7.03 33.359,17.63 7.027,9.005 12.652,19.11 18.813,28.783 3.283,5.153 6.388,10.421 9.634,15.737 8.087,-5.157 15.607,-9.952 23.971,-15.285 -0.318,1.47 -0.313,1.891 -0.492,2.207 -15.327,27.087 -30.71,54.142 -45.951,81.277 -1.747,3.109 -3.695,4.342 -7.388,4.323 -32.981,-0.163 -65.963,-0.096 -98.944,-0.096 -0.137,-0.391 -0.276,-0.783 -0.413,-1.176 z"
     inkscape:connector-curvature="0"
     id="path19"
     style="fill:#3f3f3f;fill-opacity:1;fill-rule:evenodd" /><path
     d="m 249.032,223.805 c -30.85,-19.342 -60.988,-38.237 -91.307,-57.246 0.386,-0.936 0.583,-1.731 1.002,-2.384 13.338,-20.705 26.78,-41.345 40.007,-62.12 4.17,-6.551 9.899,-9.92 17.46,-11.018 20.41,-2.962 38.095,2.849 52.388,17.364 8.244,8.372 15.167,18.059 22.49,27.307 0.875,1.104 1.246,3.545 0.635,4.749 -13.988,27.573 -28.146,55.06 -42.675,83.348 z"
     inkscape:connector-curvature="0"
     id="path21"
     style="fill:#3f3f3f;fill-opacity:1;fill-rule:evenodd" /></g>
</svg>