<?xml version="1.0" encoding="UTF-8" standalone="no"?>
<!-- Created with Inkscape (http://www.inkscape.org/) -->

<svg
   xmlns:dc="http://purl.org/dc/elements/1.1/"
   xmlns:cc="http://creativecommons.org/ns#"
   xmlns:rdf="http://www.w3.org/1999/02/22-rdf-syntax-ns#"
   xmlns:svg="http://www.w3.org/2000/svg"
   xmlns="http://www.w3.org/2000/svg"
   xmlns:inkscape="http://www.inkscape.org/namespaces/inkscape"
   version="1.2"
   width="600"
   height="600"
   viewBox="0 0 600 600"
   id="svg2"
   xml:space="preserve"><metadata
   id="metadata6174"><rdf:RDF><cc:Work
       rdf:about=""><dc:format>image/svg+xml</dc:format><dc:type
         rdf:resource="http://purl.org/dc/dcmitype/StillImage" /><dc:title /></cc:Work></rdf:RDF></metadata><defs
   id="defs6172" />

<g
   id="g16829"><path
     d="M 11.03082,11.03082 C 11.195191,118.2039 36.236343,210.49063 87.761515,296.10839 86.155311,293.43972 89.330617,298.69683 87.767035,296 137.80221,209.67701 209.76635,137.71287 296.08933,87.677703 212.25604,39.071616 114.87789,11.190246 11.03082,11.03082 z"
     inkscape:connector-curvature="0"
     id="path7175"
     style="fill:#3f3f3f;fill-opacity:1;fill-rule:nonzero;stroke:#3d8e8e;stroke-width:1.73494887;stroke-miterlimit:4;stroke-opacity:1;stroke-dasharray:none" /><path
     d="m 512.28542,304.0324 c 1.60577,2.66878 0.22612,0.42325 -0.0525,-0.0324 -50.02347,86.27936 -121.86372,158.29965 -208.14363,208.3223 0.21401,-0.13498 -0.0425,-0.003 -0.0425,-0.003 85.07849,50.62328 178.7684,76.48724 284.92232,76.65018 C 588.80481,481.7961 563.81059,389.65016 512.28542,304.0324 z"
     inkscape:connector-curvature="0"
     id="path7161"
     style="fill:#3f3f3f;fill-opacity:1;fill-rule:nonzero;stroke:#3d8e8e;stroke-width:1.73494887;stroke-miterlimit:4;stroke-opacity:1;stroke-dasharray:none" /><path
     d="M 588.96918,11.03082 C 485.14952,11.190046 387.81829,39.0954 304,87.677703 390.29711,137.7115 462.12613,209.69645 512.15,296 c 0.16243,-0.43983 1.55346,-2.70055 -0.0523,-0.0324 51.52517,-85.61776 76.70698,-177.7637 76.87149,-284.93678 z"
     inkscape:connector-curvature="0"
     id="path7145"
     style="opacity:0.93999999;fill:#3f3f3f;fill-opacity:1;fill-rule:nonzero;stroke:#3d8e8e;stroke-width:1.73494887;stroke-miterlimit:4;stroke-opacity:1;stroke-dasharray:none" /><path
     d="M 87.677703,304 C 39.0954,387.81829 11.190189,485.14952 11.03082,588.96918 114.85048,588.80981 212.18171,560.9046 296,512.3223 209.69437,462.29827 137.71242,390.29872 87.677703,304 z"
     inkscape:connector-curvature="0"
     id="path7133"
     style="opacity:0.93999999;fill:#3f3f3f;fill-opacity:1;fill-rule:nonzero;stroke:#3d8e8e;stroke-width:1.73494887;stroke-miterlimit:4;stroke-opacity:1;stroke-dasharray:none" /></g></svg>
